<?xml version="1.0" encoding="UTF-8" standalone="no"?>
<!-- Created with Inkscape (http://www.inkscape.org/) -->

<svg
   version="1.1"
   id="svg2"
   width="183.47937"
   height="181.22038"
   viewBox="0 0 183.47937 181.22038"
   xmlns="http://www.w3.org/2000/svg"
   xmlns:svg="http://www.w3.org/2000/svg">
  <defs
     id="defs6">
    <linearGradient
       id="swatch77">
      <stop
         style="stop-color:#e2c69e;stop-opacity:1;"
         offset="0"
         id="stop77" />
    </linearGradient>
  </defs>
  <g
     id="layer66"
     style="display:inline"
     transform="translate(-484.9449,-140.18079)">
    <g
       id="layer73"
       style="display:inline">
      <path
         style="fill:#969696;fill-opacity:1;stroke:none;stroke-opacity:1"
         d="m 645.94204,318.90515 c 0.93984,-0.23496 2.05162,0.17338 3.00521,0 0.42206,-0.0767 0.81678,-0.26946 1.23743,-0.35356 0.34669,-0.0693 0.71066,0.05 1.06066,0 2.14586,-0.30655 4.56379,-0.35895 6.71752,0 0.40029,0.0667 0.8397,-0.0795 1.23743,0 0.51454,0.10291 1.27554,0.33344 1.76777,0.53033 0.0774,0.031 0.0977,0.15048 0.17678,0.17678 0.42431,0.14144 0.2828,-0.14144 0.70711,0 0.15811,0.0527 0.20448,0.27905 0.35355,0.35355 0.22445,0.11223 0.64894,-0.0783 0.88388,0 0.23717,0.0791 0.30673,0.41853 0.53033,0.53033 0.10541,0.0527 0.23922,-0.0286 0.35356,0 0.49913,0.12479 0.91507,0.58233 1.41421,0.70711 0.22866,0.0572 0.4835,-0.0745 0.70711,0 0.079,0.0264 0.10224,0.1395 0.57451,0.0442 0.37394,-0.22267 0.30934,-0.30454 0.30934,-0.39774 0,-0.24296 0.14238,-0.46659 0.17678,-0.70711 0.0542,-0.37917 0,-0.76603 0,-1.14905 v -2.47487 -7.24785 c 0,-2.08224 -0.11825,-4.20899 0.0884,-6.27557 0.0408,-0.40759 -0.0508,-0.83113 0,-1.23744 0.0509,-0.4073 0.20697,-0.83032 0.26517,-1.23743 0.0675,-0.47263 0.0896,-0.93451 0.17678,-1.41422 0.0486,-0.26725 0.14307,-0.52595 0.17677,-0.79549 0.047,-0.37618 0.0412,-0.77131 0.0884,-1.14905 0.0337,-0.26954 0.15218,-0.52498 0.17678,-0.79549 0.0213,-0.23474 -0.0213,-0.47238 0,-0.70711 0.0169,-0.18557 0.15037,-0.34587 0.17677,-0.53033 0.11074,-0.77517 0,-1.99983 0,-2.82843 v -3.97747 c 0,-0.64293 0.0908,-1.3971 0,-2.03294 -0.0264,-0.18446 -0.11787,-0.35355 -0.0442,-0.61872 0.13957,-0.0599 0.13257,-0.14728 0.13257,-0.17678 v -0.35355 c 0.11005,-0.67252 -0.10381,-1.61985 -0.0884,-2.3423 0.0177,-0.8308 0.22092,-2.29814 -0.0884,-2.60745 -0.0466,-0.0466 -0.1302,-0.0418 -0.17678,-0.0884 -0.0208,-0.0208 0.0208,-0.0676 0,-0.0884 -0.0208,-0.0208 -0.0648,0.0177 -0.0884,0 -0.19023,-0.14267 -0.33486,-0.31163 -0.53033,-0.44194 -0.53661,-0.35774 0.27676,0.25444 -0.44194,-0.17678 -0.0715,-0.0429 -0.11011,-0.12677 -0.17678,-0.17677 -0.17677,-0.11785 -0.35355,-0.23571 -0.53033,-0.35356 -0.0589,-0.0295 -0.12196,-0.0518 -0.17677,-0.0884 -0.13602,-0.0907 -0.21581,-0.30419 -0.26517,-0.35355 -0.0208,-0.0208 -0.0675,0.0208 -0.0884,0 -0.21425,-0.21425 -0.42219,-0.60555 -0.7071,-0.79549 -0.0245,-0.0163 -0.0589,0 -0.0884,0 -0.0589,-0.0295 -0.13019,-0.0418 -0.17678,-0.0884 -0.0208,-0.0208 0.0208,-0.0676 0,-0.0884 -0.21952,-0.21952 -0.69837,-0.19704 -0.97227,-0.35355 -0.12791,-0.0731 -0.22478,-0.19363 -0.35355,-0.26517 -0.1387,-0.077 -0.30589,-0.0951 -0.44195,-0.17678 -0.0253,-0.0152 0.025,-0.0728 0,-0.0884 -0.19676,-0.42758 -0.667,-0.25879 -0.97227,-0.44195 -0.21733,-0.13039 -0.39716,-0.31885 -0.61872,-0.44194 -0.0515,-0.0286 -0.12407,0.0263 -0.17677,0 -0.13176,-0.0659 -0.23098,-0.18345 -0.35356,-0.26516 -0.1504,-0.10027 -0.29153,-0.0765 -0.44194,-0.17678 -0.104,-0.0693 -0.15663,-0.20315 -0.26516,-0.26516 -0.2427,-0.13869 -0.54092,-0.12586 -0.7955,-0.17678 -0.35568,-0.0711 -0.0406,-0.0645 -0.26516,-0.17678 -0.0989,-0.0495 -0.36466,-0.0369 -0.44194,-0.0884 -0.0548,-0.0365 -0.0418,-0.13019 -0.0884,-0.17677 -0.0513,-0.0513 -0.63843,-0.32412 -0.70711,-0.35356 -0.11166,-0.0479 -0.23831,-0.05 -0.35355,-0.0884 -0.0539,-0.018 -0.21123,-0.1588 -0.26517,-0.17678 -0.0559,-0.0186 -0.12775,0.0327 -0.17678,0 -0.0548,-0.0365 -0.0418,-0.13019 -0.0884,-0.17678 -0.19954,-0.19953 -0.59677,-0.24322 -0.7955,-0.44194 -0.0659,-0.0659 -0.0225,-0.19928 -0.0884,-0.26516 -0.0659,-0.0659 -0.19241,-0.0302 -0.26516,-0.0884 -0.0829,-0.0664 -0.10166,-0.19005 -0.17678,-0.26517 -0.0466,-0.0466 -0.11785,-0.0589 -0.17678,-0.0884 -0.17677,-0.14731 -0.3788,-0.26876 -0.53033,-0.44194 -0.0613,-0.0701 -0.0302,-0.19241 -0.0884,-0.26516 -0.18868,-0.23585 -0.33689,-0.20981 -0.53033,-0.44195 -0.0844,-0.10122 -0.1002,-0.24633 -0.17678,-0.35355 -0.0727,-0.10172 -0.18514,-0.16914 -0.26517,-0.26516 -0.82897,-0.99477 0.25255,0.24833 -0.26516,-0.44195 -0.18031,-0.24041 -0.36104,-0.45316 -0.53033,-0.7071 -0.0884,-0.11785 -0.17678,-0.2357 -0.26517,-0.35356 -0.0295,0 -0.0675,0.0208 -0.0884,0 -0.0466,-0.0466 -0.0418,-0.13019 -0.0884,-0.17677 -0.0208,-0.0208 -0.0752,0.0263 -0.0884,0 -0.0855,-0.17096 0.0313,-0.2339 -0.26517,-0.53033 -0.0568,-0.0568 -0.29672,-0.20834 -0.35355,-0.26517 -0.0499,-0.0499 -0.11093,-0.28771 -0.17678,-0.35355 -0.0208,-0.0208 -0.0675,0.0208 -0.0884,0 -0.0307,-0.0307 -0.30412,-0.46441 -0.35356,-0.53033 -0.13293,-0.17725 -0.19862,-0.46378 -0.35355,-0.61872 -0.0466,-0.0466 -0.13725,-0.0357 -0.17678,-0.0884 -0.4797,-0.6396 0.14732,0.0295 -0.0884,-0.44194 -0.28778,-0.57556 -0.0886,0.1762 -0.26516,-0.35355 -0.11213,-0.3364 -0.0491,-0.32079 -0.17678,-0.61872 -0.0878,-0.20491 -0.22747,-0.39259 -0.26516,-0.61872 -0.0145,-0.0872 0.0173,-0.17849 0,-0.26516 -0.0943,-0.47141 -0.37538,-0.94934 -0.53033,-1.41422 -0.0751,-0.22535 -0.0133,-0.48176 -0.0884,-0.7071 -0.0466,-0.13976 -0.21046,-0.21678 -0.26517,-0.35356 -0.28114,-0.70287 -0.55475,-1.0128 -1.06066,-1.59099 -0.20814,-0.23787 -0.32459,-0.55547 -0.53033,-0.79549 -0.2974,-0.34697 -0.67487,-0.62531 -0.97227,-0.97228 -0.0691,-0.0806 -0.10166,-0.19004 -0.17678,-0.26516 -0.10416,-0.10417 -0.23098,-0.18345 -0.35355,-0.26517 -0.0907,-0.0605 -0.79335,-0.0453 -0.88388,0 -0.35454,0.17727 -0.51521,0.6036 -0.7955,0.88389 -0.0208,0.0208 -0.0675,-0.0208 -0.0884,0 -0.0727,0.0727 0.10427,0.22663 -0.0884,0.26516 -0.61013,0.12203 -2.77172,0.20513 -3.35876,-0.0884 -0.20582,-0.1029 -0.34182,-0.30998 -0.53033,-0.44194 -0.70901,-0.4963 -1.26104,-1.09213 -1.76777,-1.76776 -0.19698,-0.26264 -0.58616,-0.33961 -0.79549,-0.61872 -0.12748,-0.16997 -0.20333,-0.3801 -0.35356,-0.53033 -0.15023,-0.15023 -0.36711,-0.21754 -0.53033,-0.35356 -0.42238,-0.35198 -0.82384,-0.72127 -1.32582,-0.97227 -0.29841,-0.1492 -0.90426,-0.46232 -1.14905,-0.7071 -0.12758,-0.12758 -0.18937,-0.32467 -0.35355,-0.44195 -0.32677,-0.2334 -0.70536,-0.48751 -0.97228,-0.79549 -0.56434,-0.65116 -0.52388,-0.87852 -1.06066,-1.32583 -0.0506,-0.0422 -0.11785,-0.0589 -0.17677,-0.0884 -0.11785,-0.0884 -0.24171,-0.16929 -0.35356,-0.26516 -0.27794,-0.23824 -0.5115,-0.47045 -0.79549,-0.70711 -0.20052,-0.1671 -0.52459,-0.25942 -0.70711,-0.44194 -0.0208,-0.0208 0.0263,-0.0752 0,-0.0884 -0.0527,-0.0264 -0.12087,0.0186 -0.17677,0 -0.0791,-0.0264 -0.10225,-0.13951 -0.17678,-0.17677 -0.10865,-0.0543 -0.24076,-0.0433 -0.35355,-0.0884 -0.39284,-0.15714 0.01,0.01 -0.26517,-0.26517 -0.12955,-0.12954 -0.38314,-0.15477 -0.53033,-0.26516 -0.2564,-0.1923 -0.50842,-0.50136 -0.61872,-0.7955 -0.0427,-0.11374 -0.0646,-0.23443 -0.0884,-0.35355 -0.006,-0.0289 0.0264,-0.0752 0,-0.0884 -0.0527,-0.0264 -0.12774,0.0327 -0.17677,0 -0.12117,-0.0808 -0.45401,-0.71917 -0.61872,-0.88388 -0.0208,-0.0208 -0.0639,0.0163 -0.0884,0 -0.21088,-0.14059 -0.41248,-0.29463 -0.61872,-0.44194 -0.21349,-0.0173 -0.14731,-0.26517 -0.26516,-0.35356 -0.0745,-0.0559 -0.18184,-0.0467 -0.26517,-0.0884 -0.39747,-0.19873 -0.76797,-0.47846 -1.14905,-0.7071 -0.38494,-0.23097 0.0706,0.0903 -0.53033,-0.17678 -0.15699,-0.0698 -0.29462,-0.17678 -0.44194,-0.26516 -0.44194,-0.14732 -0.89648,-0.26117 -1.32582,-0.44195 -0.13577,-0.0572 -0.21678,-0.21045 -0.35356,-0.26516 -0.16639,-0.0666 -0.35646,-0.0449 -0.53033,-0.0884 -0.327,-0.0817 -1.02162,-0.31157 -1.32582,-0.44194 -0.27238,-0.11673 -0.52453,-0.32151 -0.7955,-0.44194 -0.25542,-0.11352 -0.54549,-0.14017 -0.79549,-0.26517 -0.0373,-0.0186 -0.0489,-0.0752 -0.0884,-0.0884 -0.13258,-0.0442 -0.30936,0.0442 -0.44194,0 -0.20031,-0.0668 -0.48796,-0.18231 -0.70711,-0.0884 -0.39796,0.17055 -0.67835,0.56014 -0.97227,0.7071 -0.0527,0.0263 -0.12407,-0.0264 -0.17678,0 -0.10606,0.053 -0.1591,0.21213 -0.26516,0.26517 -0.0527,0.0264 -0.12088,-0.0186 -0.17678,0 -0.18049,0.0602 -0.26547,0.19457 -0.44194,0.26516 -0.49548,0.19819 -0.89514,0.26517 -1.41422,0.26517 -0.2357,0 -0.49628,0.10541 -0.7071,0 -0.28219,-0.1411 -0.43603,-0.54446 -0.70711,-0.70711 -0.0505,-0.0303 -0.12407,0.0264 -0.17678,0 -0.0555,-0.0278 -0.40481,-0.2793 -0.44194,-0.35355 -0.0132,-0.0264 0.0245,-0.072 0,-0.0884 -0.0775,-0.0517 -0.18527,-0.0404 -0.26516,-0.0884 -0.32999,-0.19799 -0.64272,-0.50937 -0.97227,-0.70711 -0.0799,-0.0479 -0.18184,-0.0467 -0.26517,-0.0884 -0.60444,-0.30222 -1.14503,-0.79378 -1.76777,-1.06066 -0.0542,-0.0232 -0.12011,0.0162 -0.17677,0 -0.72743,-0.20784 -1.50439,-0.60176 -2.20971,-0.88389 -0.92403,-0.36961 -2.05651,-0.74583 -2.91682,-1.23744 -0.0723,-0.0413 -0.11011,-0.12677 -0.17677,-0.17677 -0.40656,-0.30492 0.0928,0.17974 -0.44195,-0.17678 -1.09686,-0.73124 0.48181,0.13643 -0.53033,-0.44194 -0.27507,-0.15718 -0.38379,-0.15779 -0.61871,-0.35355 -0.096,-0.08 -0.15798,-0.20086 -0.26517,-0.26517 -0.0505,-0.0303 -0.12407,0.0263 -0.17678,0 -0.16873,-0.0844 -0.29462,-0.2357 -0.44194,-0.35355 -0.22704,-0.18164 -0.54872,-0.46953 -0.7071,-0.70711 -0.17548,-0.0797 -0.0341,-0.2449 -0.0884,-0.35355 -0.0132,-0.0263 -0.0676,0.0208 -0.0884,0 -0.0355,-0.0355 0.0167,-0.21518 0,-0.26517 -0.17556,-0.52667 -0.13535,-1.22637 0,-1.76776 0.0326,-0.1304 -0.0587,-0.3245 0,-0.44195 0.0475,-0.095 0.12927,-0.17015 0.17678,-0.26516 0.0854,-0.17078 -0.0201,-0.33342 0.17677,-0.53033 0.0208,-0.0208 0.0752,0.0264 0.0884,0 0.0843,-0.16864 -0.10129,-0.17033 0.0884,-0.26517 0.0722,-0.0361 1.8958,-0.0548 2.03293,0 0.0774,0.031 0.10224,0.13951 0.17678,0.17678 0.15811,0.0791 0.35596,-0.0291 0.53033,0 0.065,0.0108 0.11179,0.0776 0.17677,0.0884 0.22536,0.0376 0.48219,-0.045 0.70711,0 0.4783,0.0957 0.91939,0.0884 1.41421,0.0884 0.3458,0 0.68485,0.0331 0.97228,0.17677 0.0707,0.0354 0.19445,-0.0354 0.26516,0 0.0373,0.0186 0.0475,0.0802 0.0884,0.0884 0.49899,0.0998 1.09921,-0.24024 1.5026,-0.44194 0.0992,-0.0496 0.37353,-0.02 0.44194,-0.0884 0.0208,-0.0208 -0.0163,-0.0639 0,-0.0884 0.15024,-0.22535 0.49796,-0.37719 0.61872,-0.61871 0.0815,-0.16293 0,-0.60604 0,-0.7955 -0.20388,-0.38014 -0.34131,-0.89071 -0.61848,-1.23717 -0.42935,-0.53669 0.006,0.22995 -0.26516,-0.17677 -0.0365,-0.0548 -0.0357,-0.13725 -0.0884,-0.17678 -0.0745,-0.0559 -0.19063,-0.0325 -0.26516,-0.0884 -0.0527,-0.0395 -0.0472,-0.12533 -0.0884,-0.17678 -0.0781,-0.0976 -0.17026,-0.18381 -0.26517,-0.26516 -0.64241,-0.55064 -1.38957,-0.98792 -2.03293,-1.5026 -0.21085,-0.16868 -0.55536,-0.11674 -0.7955,-0.17678 -0.0808,-0.0202 -0.0966,-0.15388 -0.17677,-0.17678 -1.13425,-0.32407 -0.0304,0.0539 -0.88389,-0.0884 -0.23965,-0.04 -0.46954,-0.12587 -0.7071,-0.17678 -0.60782,-0.13025 -1.24749,-0.16372 -1.85616,-0.26517 -0.60523,-0.10087 -1.18915,-0.33745 -1.76776,-0.53033 -0.2577,-0.0859 -0.54728,-0.0665 -0.7955,-0.17677 -0.0472,-0.021 -0.77323,-0.46394 -0.88388,-0.53033 -0.26942,-0.16165 -0.61077,-0.30539 -0.88389,-0.44194 -0.0534,-0.0267 -0.2243,0.0408 -0.26516,0 -0.0208,-0.0208 0.009,-0.0604 0,-0.0884 -0.21341,-0.64024 0.0255,0.13935 -0.17678,-0.26517 -0.0395,-0.079 0.0214,-0.17941 0,-0.26516 -0.0662,-0.26475 -0.17327,-0.17327 -0.26516,-0.26517 -0.15023,-0.15023 -0.19476,-0.38918 -0.35356,-0.53033 -0.29951,-0.26623 -0.65935,-0.45677 -0.97227,-0.7071 -0.31228,-0.24983 -0.51327,-0.69005 -0.79549,-0.97228 -0.10417,-0.10416 -0.26153,-0.15013 -0.35356,-0.26516 -0.0552,-0.069 0.0625,-0.20267 0,-0.26517 -0.0208,-0.0208 -0.062,0.0132 -0.0884,0 -0.0921,-0.046 -0.30447,-0.29466 -0.35355,-0.35355 -0.15742,-0.1889 -0.28452,-0.42982 -0.44194,-0.61872 -0.08,-0.096 -0.16756,-0.18708 -0.26517,-0.26516 -0.0514,-0.0412 -0.13562,-0.0369 -0.17677,-0.0884 -0.2862,-0.35774 -0.31202,-0.66499 -0.70711,-0.97227 -0.13561,-0.10548 -0.30996,-0.15519 -0.44194,-0.26517 -0.0506,-0.0422 -0.0357,-0.13725 -0.0884,-0.17678 -0.19003,-0.14252 -0.41729,-0.22765 -0.61872,-0.35355 -0.38218,-0.23886 -0.76978,-0.54265 -1.14905,-0.79549 -0.18805,-0.12538 -0.34254,-0.31675 -0.53033,-0.44195 -0.10914,-0.0728 -0.32259,-0.0486 -0.44194,-0.0884 -0.125,-0.0417 -0.23018,-0.13052 -0.35355,-0.17678 -0.48572,-0.18215 -1.02526,-0.22497 -1.5026,-0.44194 -0.1564,-0.0711 -0.27896,-0.21084 -0.44194,-0.26517 -0.19765,-0.0659 -0.41661,-0.0379 -0.61872,-0.0884 -0.66298,-0.16574 -0.20915,-0.20893 -0.88389,-0.26516 -0.67011,-0.0558 -1.36992,-0.0238 -2.03293,-0.17678 -0.18157,-0.0419 -0.34955,-0.13158 -0.53033,-0.17677 -0.25883,-0.0647 -0.53505,-0.0305 -0.79549,-0.0884 -0.0643,-0.0143 -0.11187,-0.0771 -0.17678,-0.0884 -1.11518,-0.19395 -2.24805,-0.24 -3.35876,-0.44194 -0.35855,-0.0652 -0.7033,-0.1937 -1.06066,-0.26517 -0.32386,-0.0648 -1.14644,-0.0429 -1.41421,-0.17677 -0.20865,-0.10433 -0.88683,-0.3921 -0.97227,-0.44195 -0.29743,-0.1735 -1.19476,-0.82137 -1.32583,-1.14904 -0.0451,-0.11279 -0.0125,-0.2587 -0.0884,-0.35356 -0.0582,-0.0727 -0.19928,-0.0225 -0.26516,-0.0884 -0.0457,-0.0457 -0.057,-0.37911 -0.0884,-0.44194 -0.0373,-0.0745 -0.13951,-0.10224 -0.17678,-0.17677 -0.0264,-0.0527 0.0219,-0.12207 0,-0.17678 -0.0395,-0.0986 -0.12927,-0.17015 -0.17677,-0.26517 -0.0852,-0.17032 -0.0421,-0.43367 -0.0884,-0.61871 -0.016,-0.0639 -0.0589,-0.11786 -0.0884,-0.17678 -0.0295,-0.11785 -0.0646,-0.23444 -0.0884,-0.35355 -0.023,-0.1149 -0.0502,-0.94602 -0.0884,-1.06067 -0.0336,-0.10077 -0.12927,-0.17015 -0.17677,-0.26516 -0.24334,-0.48668 0.15584,-0.2624 -0.44195,-0.97227 -0.79802,-0.94765 -1.56548,-1.19097 -2.56326,-1.85616 -0.22065,-0.1471 -0.54329,-0.581 -0.79549,-0.7071 -0.0527,-0.0264 -0.12407,0.0264 -0.17678,0 -0.0263,-0.0132 0.0208,-0.0676 0,-0.0884 -0.12148,-0.12148 -0.28828,-0.18834 -0.44194,-0.26517 -0.79394,-0.39696 -1.7432,-0.50539 -2.56326,-0.88388 -0.29909,-0.13804 -0.59324,-0.28693 -0.88389,-0.44194 -0.15158,-0.0808 -0.28049,-0.20646 -0.44194,-0.26517 -0.16842,-0.0612 -0.36031,-0.0317 -0.53033,-0.0884 -0.54742,-0.18247 -1.05713,-0.58195 -1.59099,-0.79549 -0.0547,-0.0219 -0.12087,0.0186 -0.17678,0 -0.0937,-0.0312 -0.79741,-0.33266 -0.97227,-0.44194 -0.12492,-0.0781 -0.22179,-0.19929 -0.35355,-0.26517 -0.0527,-0.0264 -0.12407,0.0263 -0.17678,0 -0.0745,-0.0373 -0.10744,-0.13055 -0.17677,-0.17677 0.0142,-0.58355 -0.30993,-0.0888 -0.44195,-0.17678 -0.0693,-0.0462 -0.10744,-0.13055 -0.17677,-0.17678 -0.0245,-0.0163 -0.0791,0.028 -0.0884,0 -0.028,-0.0838 0.0395,-0.18611 0,-0.26516 -0.0932,-0.18634 -0.27528,-0.31694 -0.44194,-0.44194 -0.16826,-0.1262 -0.85938,-0.56334 -1.06066,-0.70711 -0.43328,-0.30949 -1.27603,-0.51041 -1.76777,-0.70711 -0.35815,-0.14326 -0.74672,-0.29487 -1.06066,-0.53033 -0.1,-0.075 -0.15798,-0.20085 -0.26516,-0.26516 -0.0505,-0.0303 -0.12625,0.0303 -0.17678,0 -0.23956,-0.14374 -0.52815,-0.61217 -0.61872,-0.88389 -0.0442,-0.13258 0.0884,-0.0884 0,-0.26516 -0.0373,-0.0745 -0.13951,-0.10224 -0.17678,-0.17678 -0.0263,-0.0527 0.0219,-0.12206 0,-0.17678 -0.0394,-0.0986 -0.11785,-0.17677 -0.17677,-0.26516 -0.0589,-0.14731 -0.12661,-0.29142 -0.17678,-0.44194 -0.0733,-0.21977 -0.0865,-0.4814 -0.17678,-0.70711 -0.22253,-0.55633 -0.51735,-1.15956 -0.61872,-1.76777 -0.0437,-0.26239 -0.0802,-0.90843 0,-1.14904 0.10704,-0.32111 0.19264,-0.20057 0.35356,-0.44195 0.38532,-0.57798 0.94696,-0.81915 1.59099,-1.06066 0.90823,-0.34058 1.73234,-0.84261 2.65165,-1.14904 0.3426,-0.11421 0.96726,-0.26015 1.23744,-0.53033 0.2124,-0.21241 0.17677,-1.45916 0.17677,-1.85616 -0.2062,-0.2062 -0.39458,-0.43191 -0.61861,-0.61859 -0.13198,-0.10998 -0.30214,-0.16531 -0.44194,-0.26516 -0.10171,-0.0727 -0.15336,-0.20927 -0.26516,-0.26517 -0.0264,-0.0132 -0.072,0.0245 -0.0884,0 -0.45475,-0.68211 0.64937,0.29111 -0.53033,-0.70711 -0.61364,-0.51923 -1.57782,-1.08509 -2.03293,-1.76776 -0.0517,-0.0775 -0.0225,-0.19929 -0.0884,-0.26517 -0.13887,-0.13887 -0.65029,-0.39144 -0.70711,-0.61872 -0.0214,-0.0858 0.0214,-0.17941 0,-0.26516 -0.0385,-0.15393 -0.1266,-0.29142 -0.17678,-0.44194 -0.12019,-0.36058 -0.0419,-0.77704 -0.0884,-1.14905 -0.0616,-0.49271 -0.1972,-1.03353 -0.35356,-1.5026 -0.0979,-0.29379 -0.279,-0.58569 -0.35355,-0.88389 -0.0143,-0.0572 0.0219,-0.12206 0,-0.17677 -0.0394,-0.0986 -0.12212,-0.17408 -0.17678,-0.26517 -0.48789,-0.81316 -0.73668,-1.38489 -1.32582,-2.12132 -0.24693,-0.30866 -0.36202,-0.703 -0.53033,-1.06066 -0.0435,-0.0924 -0.38468,-0.95817 -0.44194,-1.14905 -0.0515,-0.17165 -0.0317,-0.36031 -0.0884,-0.53033 -0.009,-0.028 -0.078,0.0276 -0.0884,0 -0.11795,-0.31454 -0.20994,-0.64091 -0.26517,-0.97227 -0.0582,-0.34928 -0.0613,-0.71435 -0.17677,-1.06066 -0.47887,-1.43661 0.23156,1.40884 -0.44194,-1.06066 -0.0233,-0.0853 0,-0.17678 0,-0.26516 -0.0589,-0.20624 -0.10348,-0.41714 -0.17678,-0.61872 -0.28164,-0.7745 -0.15182,0.14976 -0.35355,-1.06066 -0.0194,-0.11625 0.013,-0.23643 0,-0.35356 -0.0582,-0.52367 -0.0974,-0.38045 -0.26517,-0.88388 -0.10162,-0.30487 -0.14387,-0.66903 -0.26516,-0.97227 -0.13052,-0.32629 -0.3354,-0.48917 -0.53033,-0.7955 -0.10611,-0.16674 -0.13864,-0.37849 -0.26517,-0.53033 -0.0273,-0.0328 -0.60604,0.002 -0.61872,0 -0.60642,-0.10107 -1.32132,-0.17742 -1.94454,-0.0884 -0.2689,0.0384 -0.52659,0.13837 -0.7955,0.17678 -0.82243,0.11749 -0.82119,-0.12757 -1.59099,0.35355 -0.83622,0.52265 -0.61193,1.03009 -1.06066,1.59099 -0.0781,0.0976 -0.20926,0.15337 -0.26516,0.26517 -0.0395,0.0791 0.0395,0.18611 0,0.26516 -0.0559,0.11181 -0.18514,0.16914 -0.26517,0.26517 -0.25668,0.30801 -0.35294,0.75053 -0.53033,0.97227 -0.40946,0.51183 -0.21904,0.0146 -0.7071,0.7955 -0.0312,0.05 0.0263,0.12407 0,0.17677 -0.0373,0.0745 -0.12678,0.11011 -0.17678,0.17678 -0.0395,0.0527 -0.0418,0.13019 -0.0884,0.17678 -0.0208,0.0208 -0.0675,-0.0208 -0.0884,0 -0.13606,0.13606 -0.21749,0.39426 -0.35355,0.53033 -0.16271,0.16271 -0.36762,0.27923 -0.53033,0.44194 -0.10417,0.10417 -0.17678,0.2357 -0.26517,0.35355 -0.2357,0.20624 -0.47431,0.40921 -0.7071,0.61872 -0.20191,0.18171 -0.32731,0.43826 -0.53033,0.61872 -0.35412,0.31477 -0.85384,0.50779 -1.23744,0.79549 -0.44862,0.33647 -0.80948,0.58896 -1.32582,0.7955 -0.0986,0.0394 -0.16211,0.15101 -0.26517,0.17678 -0.11092,0.0277 -0.24263,-0.0277 -0.35355,0 -0.20624,0.0589 -0.41248,0.11785 -0.61872,0.17677 -0.0295,0.0295 -0.0511,0.0698 -0.0884,0.0884 -0.14017,0.0701 -0.38039,-0.05 -0.53033,0 -0.0395,0.0132 -0.0511,0.0698 -0.0884,0.0884 -0.0832,0.0416 -1.58073,0 -1.67938,0 -0.58507,0 -1.21459,0.0603 -1.76776,-0.17678 -0.48629,-0.2084 -0.85019,-0.63343 -1.23744,-0.97227 -0.15231,-0.27516 -0.49607,-0.26105 -0.70711,-0.44194 -0.11185,-0.0959 -0.17805,-0.23476 -0.26516,-0.35355 -0.23698,-0.32316 -0.49708,-0.63098 -0.70711,-0.97228 -0.0309,-0.0502 0.0368,-0.13076 0,-0.17677 -0.092,-0.11504 -0.24939,-0.161 -0.35355,-0.26517 -0.0466,-0.0466 -0.0418,-0.13019 -0.0884,-0.17677 -0.0208,-0.0208 -0.0676,0.0208 -0.0884,0 -0.19372,-0.19372 -0.41588,-0.5666 -0.53033,-0.7955 -0.0417,-0.0833 -0.0302,-0.19241 -0.0884,-0.26516 -0.0664,-0.083 -0.20143,-0.0918 -0.26516,-0.17678 -0.0354,-0.0471 0.0115,-0.119 0,-0.17678 -0.0183,-0.0914 -0.0467,-0.18183 -0.0884,-0.26516 -0.10623,-0.21246 -0.21734,-0.42412 -0.35355,-0.61872 -0.0956,-0.13654 -0.24686,-0.22552 -0.35356,-0.35355 -0.37353,-0.44824 -0.77724,-1.18365 -1.14905,-1.67938 -0.11319,-0.15093 -0.34488,-0.19179 -0.44194,-0.35356 -0.0455,-0.0758 0.0214,-0.17941 0,-0.26516 -0.0569,-0.2274 -0.37143,-0.49557 -0.44194,-0.70711 -0.0567,-0.17002 -0.0449,-0.35646 -0.0884,-0.53033 -0.10666,-0.42663 -0.42303,-0.84606 -0.61872,-1.23744 -0.18318,-0.36636 -0.16808,-0.76072 -0.26516,-1.14904 -0.0394,-0.15746 -0.36418,-0.65058 -0.44194,-0.88389 -0.0466,-0.13975 0.0208,-0.29611 0,-0.44194 -0.0153,-0.10706 -0.13994,-0.59659 -0.17678,-0.70711 -0.0132,-0.0395 -0.0783,-0.048 -0.0884,-0.0884 -0.0552,-0.22082 0.0375,-0.48243 0,-0.70711 -0.10374,-0.62246 -0.0884,-1.1104 -0.0884,-1.76777 0,-0.23344 -0.078,-1.70012 0,-1.85615 0.29369,-0.58738 0.65371,-0.97559 1.23744,-1.32583 0.11298,-0.0678 0.25233,-0.0924 0.35355,-0.17678 0.0816,-0.068 0.11042,-0.18221 0.17678,-0.26516 0.27062,-0.33828 0.0649,-0.0487 0.35355,-0.26517 0.3133,-0.23497 0.75487,-1.09035 0.7955,-1.14904 0.19603,-0.28316 0.42443,-0.389 0.70711,-0.53033 0.13537,-0.0677 0.0691,-0.15751 0.17677,-0.26517 0.0859,-0.0859 0.2449,-0.0341 0.35356,-0.0884 0.33123,-0.16561 0.59384,-0.36625 0.97227,-0.44194 0.27741,-0.0555 0.62062,-0.0451 0.88388,-0.17678 0.1118,-0.0559 0.14658,-0.22563 0.26517,-0.26516 0.20476,-0.0683 0.51889,-0.12401 0.7071,-0.26517 0.11171,-0.0838 0.22663,-0.34039 0.35356,-0.44194 0.27804,-0.22244 0.48981,-0.37749 0.79549,-0.53033 0.57083,-0.28541 0.53885,-0.62724 0.88388,-0.97227 0.0208,-0.0208 0.0676,0.0208 0.0884,0 0.15924,-0.15924 0.14143,-0.90162 0.17678,-1.14905 0.0411,-0.28754 0.0965,-0.37782 0.17678,-0.61872 0.0225,-0.0675 0,-0.19345 0,-0.26516 0,-0.782 -0.24372,-1.14277 -0.61872,-1.76777 -0.0513,-0.0855 0.0549,-0.27117 0,-0.35355 -0.17523,-0.26284 -0.35278,-0.52917 -0.53033,-0.7955 -0.16283,-0.24423 -0.43233,-0.34394 -0.61872,-0.53033 -0.0208,-0.0208 0.0264,-0.0752 0,-0.0884 -0.0527,-0.0264 -0.11785,0 -0.17678,0 -0.0589,-0.0884 -0.0918,-0.20142 -0.17677,-0.26516 -0.0471,-0.0354 -0.11961,0.0143 -0.17678,0 -0.24007,-0.06 -0.82873,-0.3576 -1.06066,-0.44194 -0.23219,-0.0844 -0.75276,-0.20721 -0.97227,-0.35356 -0.0245,-0.0163 0.0264,-0.0752 0,-0.0884 -0.21731,-0.10866 -0.47962,-0.0915 -0.70711,-0.17678 -0.29346,-0.11005 -0.50522,-0.28098 -0.79549,-0.35355 -0.70662,-0.17666 0.84881,0.46193 -0.61872,-0.0884 -0.0995,-0.0373 -0.16654,-0.13733 -0.26517,-0.17678 -0.26945,-0.10778 -1.39168,0.036 -1.67938,0 -0.8786,-0.10982 0.0876,-0.0884 -0.61872,-0.0884 -0.1297,0 -0.48834,0.0521 -0.61871,0 -0.0986,-0.0395 -0.17015,-0.12927 -0.26517,-0.17677 -0.15718,-0.0786 -2.75123,0 -3.44705,-0.13257 -0.6359,-0.13257 -0.85181,0.0469 -1.23734,0.1326 -0.18798,0.0418 -0.53823,-0.0844 -0.70711,0 -0.0951,0.0475 -0.30964,0.23206 -0.44194,0.26516 -1.04433,0.26108 -2.15014,0.32391 -3.18198,0.61872 -0.53158,0.15188 -0.66072,0.32104 -1.14905,0.53033 -0.0542,0.0232 -0.11828,-0.007 -0.17678,0 -0.17783,0.0222 -0.352,0.0706 -0.53033,0.0884 -0.10606,0.0106 -0.72919,-0.0133 -0.79549,0 -0.15558,0.0311 -0.28734,0.14107 -0.44194,0.17677 -1.34673,0.3108 -0.2642,0.01 -0.97227,0.0884 -0.28317,0.0315 -1.17056,0.10718 -1.41422,0.17678 -0.12669,0.0362 -0.22735,0.13888 -0.35355,0.17678 -0.71668,0.21497 -0.37517,-0.0443 -1.14905,0.17677 -0.0283,0.008 0.0236,0.0707 0,0.0884 -0.10541,0.0791 -0.22855,0.13508 -0.35355,0.17678 -0.0839,0.028 -0.19167,-0.049 -0.26517,0 -0.0693,0.0462 -0.10527,0.13387 -0.17677,0.17677 -0.0799,0.048 -0.18187,0.0467 -0.26517,0.0884 -0.36224,0.18112 -0.70587,0.42162 -1.06066,0.61872 -0.60038,0.33354 -1.13612,0.56483 -1.67938,0.97227 -0.16997,0.12748 -0.3801,0.20333 -0.53033,0.35356 -0.11642,0.11642 -0.56352,0.71828 -0.61872,0.88388 -0.0186,0.0559 0.0327,0.12778 0,0.17678 -0.061,0.0915 -0.68807,0.45873 -0.79549,0.53033 -0.40565,0.27043 -0.96038,0.30579 -1.41422,0.44194 -0.73848,0.22154 -1.48666,0.46609 -2.2097,0.70711 -0.405,0.13499 -1.15359,0.77106 -1.41422,1.06066 -0.23245,0.25827 -0.29664,0.41841 -0.53033,0.61871 -0.52832,0.45285 -1.05922,0.88216 -1.5026,1.41422 -0.58382,0.70059 -1.23845,1.19278 -1.01647,1.85615 l 0.13259,6.0988 c 0,0.50391 -0.13392,1.94187 0.0884,2.38648 0.0475,0.095 0.13733,0.16654 0.17678,0.26517 0.14935,0.37337 -0.19333,-0.0221 0.0884,0.35355 0.11907,0.15877 0.28144,0.40996 0.44194,0.53033 0.0527,0.0395 0.13725,0.0357 0.17678,0.0884 0.0559,0.0745 0.0367,0.18764 0.0884,0.26517 -0.40127,0.50406 0.30215,0.21376 0.35355,0.26516 0.21823,0.21823 0.44944,0.65818 0.61872,0.88388 0.33394,0.44526 0.75252,0.86363 1.06066,1.32583 0.10833,0.1625 0.16459,0.60654 0.26516,0.70711 0.10766,0.10765 0.19748,0.0414 0.26517,0.17677 0.0404,0.0809 -0.06,0.29358 0,0.35356 0.0208,0.0208 0.0639,-0.0164 0.0884,0 0.40565,0.27043 0.35355,0.3169 0.35355,0.79549 0,0.11785 0.0438,0.24413 0,0.35356 -0.34001,0.85003 -0.91832,1.14124 -1.59099,1.67937 -0.44739,0.35792 -0.85025,0.832 -1.32583,1.14905 -0.36852,0.24568 -0.93009,0.31138 -1.23743,0.61872 -0.0208,0.0208 0.0208,0.0676 0,0.0884 -0.0417,0.0417 -0.13511,-0.0417 -0.17678,0 -0.0208,0.0208 0.0132,0.062 0,0.0884 -0.0538,0.10764 -0.38367,0.47205 -0.44194,0.53033 -0.0443,0.0443 -0.2731,0.14448 -0.35355,0.26516 -0.0366,0.0548 -0.0418,0.13019 -0.0884,0.17678 -0.0208,0.0208 -0.062,-0.0132 -0.0884,0 -0.13176,0.0659 -0.2138,0.21858 -0.35355,0.26516 -0.0559,0.0186 -0.12775,-0.0327 -0.17678,0 -0.0548,0.0366 -0.0418,0.1302 -0.0884,0.17678 -0.0208,0.0208 -0.062,-0.0132 -0.0884,0 -0.0477,0.0239 -0.4943,0.40592 -0.53033,0.44194 -0.13606,0.13607 -0.21749,0.39427 -0.35355,0.53033 -0.0208,0.0208 -0.0721,-0.0245 -0.0884,0 -0.0517,0.0775 -0.0325,0.19063 -0.0884,0.26517 -0.0395,0.0527 -0.14731,0.0295 -0.17677,0.0884 -0.0395,0.079 0.0328,0.18309 0,0.26516 -0.10429,0.26071 -0.50857,0.31003 -0.61872,0.53033 -0.0417,0.0833 -0.0367,0.18764 -0.0884,0.26517 -0.0163,0.0245 -0.0589,0 -0.0884,0 -0.0295,0.0589 -0.0755,0.11217 -0.0884,0.17677 -0.0814,0.40709 -0.0402,1.02841 0.0884,1.41422 0.0505,0.15153 0.18952,0.31587 0.26517,0.44194 0.0816,0.13605 0.0951,0.30589 0.17677,0.44194 0.26517,0.44194 0.0884,0 0.26517,0.26517 0.25303,0.37954 0.54013,0.67761 0.79549,1.06066 0.11351,0.17026 0.31874,0.27767 0.44194,0.44194 0.0637,0.085 0.10167,0.19005 0.17678,0.26516 0.26708,0.26708 0.54392,0.28328 0.7955,0.61872 0.33309,0.44412 0.53348,1.02226 0.79549,1.5026 0.1331,0.24401 0.30885,0.4631 0.44194,0.70711 0.0446,0.0818 0.0405,0.18527 0.0884,0.26516 0.0429,0.0715 0.1339,0.10532 0.17678,0.17678 0.0625,0.10417 0.021,0.25248 0.0884,0.35355 0.0462,0.0693 0.12677,0.11011 0.17677,0.17678 0.12759,0.17012 0.16669,0.47101 0.26517,0.61872 0.0462,0.0693 0.13543,0.10442 0.17677,0.17678 0.17331,0.30327 0.25411,0.60212 0.44195,0.88388 0.15626,0.23439 0.0474,0.20698 0.17677,0.53033 0.23165,0.57911 0.19909,0.39073 0.44195,0.79549 0.18751,0.31252 -0.0102,0.0629 0.17677,0.53033 0.11478,0.28696 0.35118,0.65461 0.44194,0.97228 0.0847,0.29626 0.0378,0.66878 0.0884,0.97227 0.0108,0.065 0.0589,0.11785 0.0884,0.17678 0.0295,0.0884 0.0752,0.17293 0.0884,0.26516 0.0498,0.34847 0.0306,0.44846 0.0884,0.7955 0.0108,0.065 0.0589,0.11785 0.0884,0.17677 0.0295,0.17678 0.0722,0.35185 0.0884,0.53033 0.0133,0.14671 -0.0163,0.29553 0,0.44194 0.0433,0.38969 0.20146,0.7668 0.26517,1.14905 0.0145,0.0872 -0.0214,0.17942 0,0.26517 0.0314,0.12549 0.21741,0.29868 0.26516,0.44194 0.0384,0.11524 0.0341,0.2449 0.0884,0.35355 0.0373,0.0745 0.13951,0.10224 0.17678,0.17678 0.15647,0.31293 -0.26295,0.0604 0.17678,0.35355 0.0245,0.0164 0.0675,-0.0208 0.0884,0 0.19757,0.19757 0.33755,0.51433 0.53033,0.70711 0.0466,0.0466 0.14024,0.0336 0.17678,0.0884 0.23507,0.35261 -0.1669,0.01 0.17678,0.35355 0.0649,0.0649 0.35238,0.23531 0.44194,0.26517 0.0895,0.0298 0.37885,-0.0631 0.44194,0 0.007,0.007 0.0884,0.15198 0.0884,0.17677 0.0294,0.20622 0.0431,0.41531 0.0883,0.61867 0.11824,0.53237 1.7352,3.06103 2.12132,3.44715 0.22061,0.22061 0.56911,0.39233 0.79549,0.61872 0.33159,0.33159 0.0559,0.16295 0.26517,0.44194 0.17324,0.23099 0.44548,0.38773 0.61872,0.61872 0.13795,0.18393 0.11367,0.25263 0.17677,0.44194 0.059,0.17696 0.47565,0.52334 0.61872,0.61872 0.42933,0.28621 0.94033,0.64694 1.41422,0.88388 0.17732,0.0887 0.44649,0.15035 0.61871,0.26516 0.23571,0.15714 -0.35416,0.0293 0.0884,0.17678 0.0559,0.0186 0.12407,-0.0264 0.17678,0 0.13176,0.0659 0.22478,0.19362 0.35355,0.26517 0.31804,0.17668 0.55431,0.24369 0.88389,0.35355 0.3347,0.11157 0.5769,0.39877 0.88388,0.53033 0.76269,0.32687 1.60637,0.44707 2.38648,0.70711 0.32716,0.10905 0.65395,0.22091 0.97228,0.35355 0.0385,0.016 0.0589,0.0589 0.0884,0.0884 0.14732,0.0589 0.28939,0.13319 0.44195,0.17677 0.29241,0.0836 0.60698,0.0921 0.88388,0.26517 0.52635,0.32897 0.98678,0.71678 1.5026,1.06066 0.26678,0.17785 0.62582,0.2699 0.88388,0.44194 0.10401,0.0693 0.16517,0.19017 0.26517,0.26517 0.0947,0.0711 0.3384,0.16162 0.44194,0.26516 0.10417,0.10417 0.161,0.24939 0.26517,0.35355 0.0208,0.0208 0.0639,-0.0163 0.0884,0 0.12257,0.0817 0.24938,0.161 0.35355,0.26517 0.0466,0.0466 0.0418,0.13019 0.0884,0.17678 0.0932,0.0932 0.25233,0.0924 0.35355,0.17677 0.20364,0.1697 0.35831,0.42617 0.61872,0.53033 0.23338,0.0934 0.13444,-0.13072 0.35355,0.0884 0.0466,0.0466 0.0336,0.14023 0.0884,0.17678 0.049,0.0327 0.12407,-0.0264 0.17678,0 0.1118,0.0559 0.14658,0.22564 0.26516,0.26516 0.67469,0.2249 -0.45118,-0.35971 0.35356,0.17678 0.0245,0.0163 0.0675,-0.0208 0.0884,0 0.0466,0.0466 0.0418,0.13019 0.0884,0.17678 0.0859,0.0859 0.24255,0.0391 0.35356,0.0884 0.29542,0.1313 0.72388,0.44613 1.06066,0.53033 0.0572,0.0143 0.12087,-0.0186 0.17677,0 0.0781,0.026 0.89307,0.60655 1.06066,0.7071 0.25203,0.15122 0.42107,0.42107 0.61872,0.61872 0.0208,0.0208 0.0639,-0.0163 0.0884,0 0.10572,0.0705 0.47376,0.4172 0.53033,0.53033 0.0264,0.0527 -0.0263,0.12407 0,0.17678 0.0373,0.0745 0.1339,0.10532 0.17678,0.17677 0.0816,0.13606 0.10582,0.30003 0.17677,0.44195 0.0417,0.0833 0.0225,0.19928 0.0884,0.26516 0.0208,0.0208 0.0589,0 0.0884,0 0.0589,0.0589 0.13951,0.10224 0.17678,0.17678 0.0263,0.0527 -0.0186,0.12087 0,0.17677 0.083,0.24914 0.27982,0.49096 0.44194,0.70711 0.11492,0.15323 0.16647,0.36584 0.26516,0.53033 0.10404,0.17339 0.6137,0.75403 0.7955,0.88388 0.62828,0.44877 1.06923,0.35784 1.59099,0.61872 0.15366,0.0768 0.27896,0.21084 0.44194,0.26517 0.1118,0.0373 0.23731,-0.0194 0.35355,0 0.16947,0.0282 0.30083,0.21813 0.44195,0.26516 0.0571,0.019 0.29286,-0.0405 0.35355,0 0.0693,0.0462 0.11011,0.12678 0.17678,0.17678 0.17012,0.12759 0.471,0.16669 0.61871,0.26516 0.0693,0.0462 0.13056,0.10744 0.17678,0.17678 0.0163,0.0245 -0.0245,0.072 0,0.0884 0.13202,0.088 0.30993,0.0888 0.44194,0.17678 0.10199,0.068 0.16318,0.19717 0.26517,0.26516 0.23642,0.15761 0.53406,0.35604 0.79549,0.53033 0.16312,0.10875 0.22208,0.31047 0.35356,0.44194 0.0208,0.0208 0.0675,-0.0208 0.0884,0 0.20381,0.20381 0.23909,0.47818 0.35356,0.70711 0.11227,0.22455 0.10564,-0.0905 0.17677,0.26517 0.0782,0.3911 -0.004,0.95627 0.0884,1.32582 0.0952,0.38091 0.44194,0.92691 0.44194,1.32583 0,0.40257 0.31193,1.10741 0.61872,1.41421 0.0208,0.0208 0.0752,-0.0264 0.0884,0 0.0263,0.0527 -0.0303,0.12625 0,0.17678 0.0643,0.10718 0.20085,0.15797 0.26517,0.26516 0.0303,0.0505 -0.0264,0.12407 0,0.17678 0.0132,0.0263 0.0675,-0.0208 0.0884,0 0.95865,0.95864 0.20318,0.21637 0.53033,0.7071 0.11805,0.17708 0.45887,0.49884 0.61872,0.61872 0.0236,0.0177 0.0676,-0.0208 0.0884,0 0.0751,0.0751 0.0918,0.20143 0.17678,0.26517 0.0471,0.0354 0.12963,-0.0354 0.17677,0 0.2517,0.18877 0.36421,0.59188 0.61872,0.79549 0.19344,0.15475 0.62828,0.45151 0.7955,0.61872 0.0208,0.0208 -0.0208,0.0676 0,0.0884 0.0256,0.0256 0.37965,0.22898 0.44194,0.35355 0.11132,0.22265 -0.33571,-0.0765 0.17678,0.26517 0.0245,0.0163 0.0791,-0.028 0.0884,0 0.028,0.0838 -0.028,0.18131 0,0.26516 0.009,0.028 0.0675,-0.0208 0.0884,0 0.0466,0.0466 0.0676,0.11428 0.0884,0.17678 0.0315,0.0944 0.059,1.47303 0,1.59099 -0.23013,0.46026 -1.37258,1.07625 -1.85615,1.23744 -0.12299,0.041 -0.33921,0.0199 -0.44195,0.0884 -0.2489,0.16593 -0.16993,0.17677 -0.48625,0.35352 0.11331,1.22431 0.41434,2.32871 0.92796,3.27034 0.24679,0.45245 0.5487,0.87337 0.79549,1.32582 0.13895,0.25475 0.1926,0.55406 0.35356,0.7955 0.0817,0.12257 0.19928,0.22179 0.26516,0.35355 0.0263,0.0527 -0.0297,0.12588 0,0.17678 0.18121,0.31065 0.41923,0.58464 0.61872,0.88388 0.29972,0.44958 0.29894,1.03983 0.53033,1.5026 0.0659,0.13177 0.19928,0.2218 0.26516,0.35356 0.0543,0.10865 0.0469,0.23939 0.0884,0.35355 0.88707,2.43943 -0.62516,-2.09539 0.70711,1.67938 0.05,0.14167 0.0471,0.29749 0.0884,0.44194 0.0543,0.19004 0.20266,0.34283 0.26516,0.53033 0.0186,0.0559 -0.0207,0.1216 0,0.17678 0.1458,0.38878 0.39808,0.7523 0.53033,1.14905 0.0678,0.20348 0.13025,0.40933 0.17678,0.61871 0.0128,0.0575 -0.0219,0.12207 0,0.17678 0.0394,0.0986 0.13493,0.16753 0.17678,0.26517 0.0479,0.11165 0.05,0.23831 0.0884,0.35355 0.13051,0.39153 0.37618,0.76366 0.53033,1.14905 0.14763,0.36905 0.22747,0.77077 0.35356,1.14905 0.11056,0.33169 0.37563,0.64072 0.44194,0.97227 0.1455,0.72748 -0.26463,-0.35195 0.0884,0.70711 -0.0452,0.19761 0.15594,0.0259 0.17677,0.0884 0.028,0.0839 -0.031,0.18241 0,0.26517 0.0694,0.18506 0.17678,0.35355 0.26517,0.53033 0.18555,0.37109 0.84636,0.77215 1.23744,0.88388 0.36092,0.10312 0.20624,-0.13749 0.61871,0 0.0791,0.0264 0.10225,0.13951 0.17678,0.17678 0.2086,0.1043 0.41012,0.0725 0.61872,0.17678 0.0373,0.0186 0.048,0.0783 0.0884,0.0884 0.0857,0.0214 0.18611,-0.0395 0.26516,0 0.11181,0.0559 0.17678,0.17678 0.26517,0.26517 0.29132,0.29132 0.64872,0.64304 0.88388,0.97227 0.41333,0.57866 0.12669,0.27008 0.44194,0.7955 0.19702,0.32836 0.0209,-0.41313 0.26517,0.44194 0.0243,0.085 -0.0243,0.18018 0,0.26516 0.1288,0.4508 0.1985,0.21872 0.26516,0.61872 0.0194,0.11625 -0.0373,0.24175 0,0.35355 0.0208,0.0625 0.0589,0.11786 0.0884,0.17678 0.0295,0.0884 0.0628,0.17558 0.0884,0.26517 0.0639,0.2237 0.0532,0.58951 0.17678,0.79549 0.0429,0.0715 0.13055,0.10744 0.17677,0.17678 0.0978,0.14662 0.13317,0.36533 0.26517,0.53033 0.41076,0.51345 1.03668,1.18585 1.59099,1.5026 0.31898,0.18227 0.50449,0.15093 0.79549,0.44194 0.16272,0.16272 0.27923,0.36762 0.44195,0.53033 0.17946,0.17946 0.66068,0.4165 0.79549,0.61872 0.0163,0.0245 -0.0163,0.0639 0,0.0884 0.0402,0.0603 0.33026,0.26037 0.35355,0.35355 0.0214,0.0858 -0.0243,0.18018 0,0.26517 0.12978,0.45422 0.44912,0.90181 0.61872,1.32582 0.0451,0.11279 0.0341,0.2449 0.0884,0.35356 0.0373,0.0745 0.12678,0.11011 0.17678,0.17677 0.21967,0.2929 0.34811,0.66858 0.53033,0.97227 0.52508,0.87515 2.01374,2.05024 3.0052,2.2981 0.3595,0.0899 1.07465,0.0106 1.5026,0.0884 0.61607,0.11201 1.04938,0.22016 1.67938,0.26516 1.58236,0.11303 3.19238,-0.13171 4.77297,0 0.97839,0.0815 1.93735,0.27821 2.91682,0.35356 0.30972,0.0238 0.77411,-0.0168 1.06066,-0.0884 0.0404,-0.0101 0.0489,-0.0752 0.0884,-0.0884 0.27951,-0.0932 0.58925,0 0.88388,0 h 4.50781 c 0.6897,0 1.43305,-0.0765 2.12132,0 0.92412,0.10268 -0.017,0.0884 0.53033,0.0884 1.12066,0.52449 2.33658,0.3535 3.53543,0.3535 h 2.20971 3.09359 c 0.65177,0 1.31304,-0.0379 1.94454,0.0884 0.12921,0.0258 0.26039,0.0836 0.35356,0.17678 0.0208,0.0208 -0.0236,0.0707 0,0.0884 0.21082,0.15811 0.45711,0.27022 0.70711,0.35355 0.0559,0.0186 0.12087,-0.0186 0.17677,0 0.25271,-0.16071 0.30406,0.19622 0.44194,0.26516 0.29864,0.14932 0.65886,0.1607 0.97228,0.26517 0.32132,0.10711 0.58138,0.29069 0.88388,0.44194 0.0264,0.0132 0.0589,0 0.0884,0 0.0884,0.0295 0.18427,0.0422 0.26516,0.0884 1.06357,0.60775 1.59099,1.83025 1.59099,3.0052 0,0.14732 0.0659,0.31018 0,0.44195 0.049,0.2189 -0.19928,0.22179 -0.26516,0.35355 -0.0417,0.0833 -0.0278,0.19442 -0.0884,0.26516 -0.39051,0.4556 -2.37493,1.40031 -2.82843,1.67938 -0.071,0.0437 -0.10224,0.13951 -0.17677,0.17678 -0.16667,0.0833 -0.36745,0.0863 -0.53033,0.17678 -0.10927,0.0607 -0.17678,0.17677 -0.26517,0.26516 -0.14731,0.11785 -0.2732,0.26919 -0.44194,0.35355 -0.0791,0.0395 -0.18393,-0.0348 -0.26517,0 -0.29542,0.12662 -0.38356,0.34221 -0.61872,0.53033 -1.00098,0.80079 -1.06066,1.98734 -1.06066,3.18198 0,0.47104 -0.0777,1.03623 0,1.50261 0.0154,0.0926 0.29413,0.45604 0.35356,0.53033 0.89439,1.11799 2.16689,1.43244 3.44714,1.94454 0.19493,0.078 0.2718,0.26848 0.44195,0.35355 0.23952,0.11977 -0.12288,-0.38804 0.35355,0.0884 0.44454,0.44454 0.43742,1.22388 0.61872,1.76777 0.0417,0.125 0.14058,0.22686 0.17677,0.35355 0.0857,0.1073 -0.0286,0.23922 0,0.35356 0.11109,0.44433 0.0491,0.0983 0.26517,0.53033 0.0543,0.10865 0.021,0.25247 0.0884,0.35355 0.0919,0.13778 0.31782,0.44345 0.44194,0.53033 0.1946,0.13622 0.42108,0.22179 0.61872,0.35355 1.07614,0.71743 2.1903,1.44871 3.35875,2.03293 0.34258,0.1713 0.71808,0.27066 1.06066,0.44195 0.7552,0.37759 1.41306,1.05993 2.12133,1.5026 1.45915,0.91197 -0.67219,-0.6576 1.32582,0.79549 0.23137,0.16827 0.61819,0.5298 0.7955,0.70711 0.0466,0.0466 0.0418,0.13019 0.0884,0.17678 0.33561,0.3356 0.72156,0.63316 1.06066,0.97227 0.37305,0.37304 0.73129,0.82412 1.14905,1.14905 -0.51504,1.10293 0.46624,0.2519 0.61872,0.35355 0.60897,0.40598 1.12781,0.94144 1.67938,1.41421 1.02412,0.87782 -0.63524,-0.64961 0.61872,0.35356 0.0514,0.0412 0.0589,0.11785 0.0884,0.17677 0.11785,0.11786 0.21793,0.25668 0.35355,0.35356 0.0758,0.0541 0.18884,0.035 0.26516,0.0884 0.56047,0.39232 0.94275,0.94274 1.41422,1.41421 0.1047,0.1047 0.3227,0.17573 0.44194,0.26516 0.35355,0.26517 0,0.17678 0.53033,0.53034 0.049,0.0327 0.12407,-0.0264 0.17678,0 0.30731,0.15365 0.60901,0.32417 0.88388,0.53033 0.22977,0.17232 0.44331,0.39843 0.70711,0.53033 0.0264,0.0132 0.0589,0 0.0884,0 0.0884,0.0589 0.18221,0.11041 0.26516,0.17677 0.0651,0.0521 0.10224,0.13951 0.17678,0.17678 0.0527,0.0263 0.12087,-0.0186 0.17677,0 0.20156,0.0672 0.33505,0.26986 0.53033,0.35355 0.25691,0.11011 0.53282,0.16965 0.7955,0.26517 0.22633,0.0823 0.19821,0.17677 0.44194,0.17677 1.54386,0.6273 3.18169,0.94385 4.81712,1.23739 1.1214,0.20128 2.45052,0.38963 3.53553,0.7513 0.10643,0.0355 0.20228,0.0991 0.30936,0.13258 0.12963,0.0405 0.27011,0.042 0.39775,0.0884 0.0391,0.0142 0.0518,0.0684 0.0884,0.0884 0.12737,0.0695 0.27,0.10799 0.39774,0.17678 0.0649,0.0349 0.1109,0.0996 0.17678,0.13258 0.15422,0.0771 0.33929,0.0864 0.48614,0.17678 0.24407,0.1502 0.83122,0.59974 1.01646,0.7513 0.13729,0.11233 0.25135,0.25338 0.39775,0.35355 0.13593,0.093 0.3049,0.12961 0.44194,0.22097 0.26232,0.17488 0.49177,0.39554 0.7513,0.57453 0.16848,0.11619 0.3638,0.1904 0.53033,0.30936 0.14435,0.1031 0.26147,0.23999 0.39775,0.35355 0.17894,0.14911 0.37923,0.27081 0.57452,0.39775 0.1716,0.11153 0.37052,0.18151 0.53033,0.30936 0.2103,0.16823 0.4248,0.35384 0.66292,0.48613 0.13869,0.077 0.30992,0.0888 0.44194,0.17678 0.0693,0.0462 0.10442,0.13543 0.17677,0.17677 0.0773,0.0442 0.51376,0.19888 0.66292,0.26517 0.1204,0.0535 0.22855,0.13511 0.35355,0.17678 0.0713,0.0238 0.15064,0.0178 0.22097,0.0442 0.40343,0.15128 -0.0659,0.037 0.22097,0.13258 0.0576,0.0192 0.12245,0.017 0.17678,0.0442 0.1718,0.0859 0.3078,0.23802 0.48613,0.30936 0.0996,0.0398 0.20624,0.0589 0.30936,0.0884 0.10312,0.0442 0.20684,0.087 0.30936,0.13258 0.23142,0.10285 0.0804,0.10446 0.53033,0.26516 0.0555,0.0198 0.11785,0 0.17678,0 0.10312,0.0295 0.20926,0.0499 0.30936,0.0884 0.12298,0.0473 0.23018,0.13051 0.35355,0.17678 0.3914,0.14677 0.49304,0.19605 0.92808,0.44194 0.14956,0.0845 0.28828,0.18833 0.44194,0.26516 0.32271,0.16136 0.62691,0.22916 0.88389,0.48614 0.0104,0.0104 -0.0113,0.0348 0,0.0442 0.54901,0.36601 0.0164,-0.0277 0.44194,0.39775 0.0521,0.0521 0.12784,0.0775 0.17677,0.13258 0.17991,0.2024 0.37185,0.53999 0.53033,0.75131 0.13726,0.183 0.25329,0.25414 0.39775,0.44194 0.38644,0.50237 0.73694,1.0218 1.14905,1.5026 0.17175,0.20038 0.38967,0.34548 0.57452,0.53033 0.0667,0.0667 0.11008,0.15427 0.17678,0.22097 0.0104,0.0104 0.0329,-0.009 0.0442,0 l 0.22097,0.22097 c 0.0295,0.0147 0.0629,0.0233 0.0884,0.0442 0.60149,-0.21619 0.28516,0.30475 0.44195,0.44194 0.0954,0.0835 0.21128,0.14072 0.30936,0.22097 0.0645,0.0528 0.11275,0.12343 0.17677,0.17677 0.10677,0.089 0.24599,0.13297 0.35356,0.22098 0.0806,0.066 0.13963,0.15589 0.22097,0.22097 0.0671,0.0537 0.15575,0.0767 0.22097,0.13258 0.0403,0.0346 0.0508,0.095 0.0884,0.13258 0.0233,0.0233 0.0624,0.024 0.0884,0.0442 0.40323,0.31437 0.28705,0.23518 0.59661,0.48609 2.59824,0.25682 4.09833,-1.90298 6.38601,-2.4749 z"
         id="path126" />
    </g>
  </g>
</svg>
