<?xml version="1.0" encoding="UTF-8" standalone="no"?>
<!-- Created with Inkscape (http://www.inkscape.org/) -->

<svg
   version="1.1"
   id="svg1"
   width="182.0625"
   height="181.375"
   viewBox="0 0 182.0625 181.375"
   xmlns="http://www.w3.org/2000/svg"
   xmlns:svg="http://www.w3.org/2000/svg">
  <defs
     id="defs1" />
  <g
     id="layer1"
     style="display:inline"
     transform="translate(-485.625,-139.9375)">
    <g
       id="layer2"
       style="display:inline;fill:#ffffff;fill-opacity:1;stroke:none;stroke-opacity:1">
      <path
         style="display:inline;fill:#ffffff;fill-opacity:1;stroke:none;stroke-width:1.3;stroke-linecap:round;stroke-opacity:1"
         d="m 489.0625,153.1875 11.1875,-8.0625 18.625,-5.1875 4.5625,1.8125 5.125,3.9375 -0.125,1.6875 -8.1875,8.375 -1.0625,4 3.125,7.4375 6.375,6.75 4,0.625 9.0625,-9.9375 3.75,-0.75 2.25,3.375 5.375,12.4375 1.5,4.6875 3,2.9375 -4.875,3.25 -1.5,3.9375 19.3125,10.9375 2.3125,7.0625 16.625,4.4375 8.875,8.125 6.1875,2 3.4375,3.75 -2.25,1.5 -3.625,-1 -3.125,0.875 0.1875,1.6875 15.9375,10.5625 3.75,-2.9375 9.0625,5.25 0.625,1.875 7.3125,4 1.1875,3.4375 2.0625,2.9375 5.75,0.5 2.1875,-0.25 7.625,11.9375 12.9375,8 0.0625,40.8125 -15.1875,-2.4375 -12.625,3.75 -5.5,-6.125 -5.6875,-4.25 -21.1875,-7.125 -19.75,-14.6875 -0.625,-2.8125 -2.6875,-2.125 0.0625,-4.0625 3.6875,-3.375 0.75,-2.8125 -3.4375,-5.375 -8.375,1.3125 -5.5,-1.4375 -16.8125,-0.3125 -4.125,-1.125 -3.125,-4.1875 -3.75,-2.75 -2.6875,-6.875 -2.875,-0.75 -6.875,-19.6875 2.3125,-0.0625 -0.0625,-3.625 -8,-11.3125 -3.1875,-0.0625 -2.0625,-3.4375 -3.25,-2.4375 -2.125,-0.5625 -3.4375,-4.375 -8.3125,-2.6875 -5.0625,-4.6875 -4.125,-6.125 -4.5,-11.3125 -3.9375,-6.75 8.0625,-8.375 -3.25,-4 -1.375,-3.125 z"
         id="path372" />
    </g>
  </g>
</svg>
