<?xml version="1.0" encoding="UTF-8" standalone="no"?>
<!-- Created with Inkscape (http://www.inkscape.org/) -->

<svg
   version="1.1"
   id="svg2"
   width="145.51581"
   height="179.41385"
   viewBox="0 0 145.51581 179.41385"
   xmlns="http://www.w3.org/2000/svg"
   xmlns:svg="http://www.w3.org/2000/svg">
  <defs
     id="defs6">
    <linearGradient
       id="swatch77">
      <stop
         style="stop-color:#e2c69e;stop-opacity:1;"
         offset="0"
         id="stop77" />
    </linearGradient>
  </defs>
  <g
     id="layer66"
     style="display:inline"
     transform="translate(-763.55841,-310.84493)">
    <g
       id="layer19"
       style="display:inline">
      <path
         style="display:inline;fill:#969696;fill-opacity:1;stroke:none;stroke-opacity:1"
         d="m 808.22305,483.74943 c -0.12379,-0.0799 -0.161,-0.24939 -0.26517,-0.35356 -0.23753,-0.23753 -0.55795,-0.38118 -0.79549,-0.61872 -0.0466,-0.0466 -0.0336,-0.14023 -0.0884,-0.17677 -0.13201,-0.088 -0.3074,-0.0927 -0.44194,-0.17678 -0.0598,-0.0374 -0.63706,-0.54867 -0.70711,-0.61872 -0.0208,-0.0208 0.0208,-0.0676 0,-0.0884 -0.31186,-0.31186 -0.48242,-0.34477 -0.79549,-0.61871 -0.9191,-0.80421 0.18992,0.12866 -0.61872,-0.7955 -0.097,-0.11087 -0.24939,-0.161 -0.35356,-0.26517 -0.3097,-0.3097 -0.58432,-0.65273 -0.88388,-0.97227 -0.19948,-0.21278 -0.37604,-0.45693 -0.61872,-0.61872 -0.10963,-0.0731 -0.24633,-0.10019 -0.35355,-0.17677 -0.38025,-0.27161 -0.63647,-0.78082 -0.97227,-1.06066 -0.0716,-0.0596 -0.20696,-0.0156 -0.26517,-0.0884 -0.0759,-0.0949 -0.0589,-0.2357 -0.0884,-0.35355 -0.11785,-0.11786 -0.24943,-0.22341 -0.35355,-0.35356 -0.0184,-0.023 0.0208,-0.0675 0,-0.0884 -0.0208,-0.0208 -0.0676,0.0208 -0.0884,0 -0.0751,-0.0751 -0.10166,-0.19005 -0.17677,-0.26516 -0.0466,-0.0466 -0.1346,-0.0378 -0.17678,-0.0884 -0.45266,-0.5432 -0.8177,-1.11973 -1.23744,-1.67938 -0.175,-0.23333 -0.42252,-0.4029 -0.61872,-0.61872 -0.37706,-0.41477 -0.70915,-0.90402 -1.06066,-1.32582 -0.46436,-0.55724 -1.03308,-1.03611 -1.5026,-1.59099 -0.78096,-0.92296 -1.44083,-1.97117 -2.2981,-2.82843 -0.29609,-0.2961 -0.67617,-0.4994 -0.97227,-0.79549 -0.20833,-0.20834 -0.32199,-0.49878 -0.53033,-0.70711 -0.1334,-0.1334 -0.31446,-0.21449 -0.44194,-0.35355 -0.5326,-0.58103 -0.98973,-1.25781 -1.5026,-1.85616 -0.39826,-0.46463 -0.8957,-0.8957 -1.32583,-1.32582 -0.10135,-0.10136 -0.28488,-0.23911 -0.35355,-0.35356 -0.1842,-0.307 -0.26745,-0.70939 -0.53033,-0.97227 -0.16117,-0.16117 -0.16363,-0.008 -0.26516,-0.17678 -0.16397,-0.27327 -0.37222,-0.51879 -0.53033,-0.79549 -0.0292,-0.0512 0.0327,-0.12775 0,-0.17678 -0.0366,-0.0548 -0.1302,-0.0418 -0.17678,-0.0884 -0.23162,-0.23162 -0.18561,-0.29166 -0.26517,-0.53033 -0.0579,-0.17365 -0.26516,-0.0238 -0.22093,-0.2209 l 0.0442,-3.13772 c 0,-0.49126 0.0488,-1.01447 0,-1.50261 -0.015,-0.14948 -0.0748,-0.29232 -0.0884,-0.44194 -0.0702,-0.77162 0.0523,-1.52446 -0.0884,-2.29809 -0.0643,-0.35355 -0.19466,-0.7079 -0.26516,-1.06066 -0.0484,-0.24166 -8e-4,-0.8416 -0.0884,-1.06066 -0.0395,-0.0986 -0.15378,-0.16147 -0.17678,-0.26517 -0.0384,-0.17257 0.0559,-0.36262 0,-0.53033 -0.0395,-0.11859 -0.18706,-0.16757 -0.26516,-0.26517 -0.10238,-0.12795 -0.093,-0.33015 -0.17678,-0.44194 -0.30382,-0.40509 -0.36401,-0.16125 -0.70711,-0.61872 -0.11858,-0.15811 -0.12541,-0.39057 -0.26516,-0.53033 -0.0751,-0.0751 -0.18017,-0.11307 -0.26517,-0.17677 -0.22982,-0.17237 -0.3801,-0.45964 -0.61872,-0.61872 -1.05844,-0.70563 -2.26575,-1.37253 -3.27037,-2.20971 -0.43806,-0.36505 -1.53496,-0.65976 -1.67937,-1.23744 -0.0519,-0.20739 -0.0559,-0.74855 0,-0.97227 0.0447,-0.17886 0.21726,-0.20994 0.26516,-0.35355 0.0186,-0.0559 -0.0186,-0.12088 0,-0.17678 0.0263,-0.0791 0.13948,-0.10227 0.17678,-0.17677 0.0132,-0.0264 -0.0208,-0.0676 0,-0.0884 0.0208,-0.0208 0.0752,0.0264 0.0884,0 0.0263,-0.0527 -0.0186,-0.12088 0,-0.17678 0.0263,-0.0791 0.13947,-0.10228 0.17677,-0.17678 0.0424,-0.0848 -0.0283,-0.26865 0,-0.35355 0.10653,-0.31959 0.50322,-1.43808 0.70711,-1.59099 0.88764,-0.66573 0.77442,1.0831 1.76777,1.41421 0.14679,0.0489 0.57807,0.043 0.7071,0 0.13252,-0.0442 0.2961,-0.20686 0.44194,-0.26516 1.06843,-0.42737 -0.72227,0.3261 0.61872,-0.17678 0.73057,-0.27396 1.39437,-1.20271 1.76777,-1.85615 0.15881,-0.27792 0.3325,-0.6366 0.53033,-0.88389 0.2537,-0.31712 0.60196,-0.55168 0.70711,-0.97227 0.0599,-0.23972 0.0648,-0.5715 0.17677,-0.79549 0.0475,-0.095 0.13738,-0.16657 0.17678,-0.26517 0.0328,-0.0821 -0.0328,-0.18306 0,-0.26516 0.22507,-0.56278 0.15035,-0.13301 0.26517,-0.70711 0.0231,-0.11556 -0.0231,-0.23799 0,-0.35355 0.0622,-0.31117 0.27005,-0.57774 0.35355,-0.88389 0.0388,-0.14212 -0.0466,-0.30219 0,-0.44194 0.072,-0.21603 0.27305,-0.46551 0.35355,-0.70711 0.10075,-0.30224 0.15452,-0.67722 0.26517,-0.97227 0.16158,-0.4309 0.37594,-0.86387 0.44194,-1.32582 0.0167,-0.11667 -0.0231,-0.23799 0,-0.35356 0.008,-0.0409 0.0783,-0.048 0.0884,-0.0884 0.0154,-0.0617 0.006,-1.40422 0,-1.41422 -0.0462,-0.0693 -0.13058,-0.10748 -0.17678,-0.17678 -0.0163,-0.0245 0.0208,-0.0676 0,-0.0884 -0.10204,-0.10208 -0.41656,-0.10088 -0.53033,-0.17678 -0.081,-0.054 -0.24495,-0.31735 -0.35355,-0.35355 -0.0559,-0.0186 -0.12088,0.0186 -0.17678,0 -0.22639,-0.0755 -0.41931,-0.48578 -0.61872,-0.61872 -0.0775,-0.0517 -0.19066,-0.0325 -0.26516,-0.0884 -0.0527,-0.0395 -0.0418,-0.13018 -0.0884,-0.17678 -0.0541,-0.0541 -0.29945,-0.12267 -0.35355,-0.17677 -0.0295,-0.0295 -0.0589,-0.23567 -0.0884,-0.26517 -0.0655,-0.0655 -0.24385,0.0213 -0.35356,-0.0884 -0.0208,-0.0208 0.0208,-0.0676 0,-0.0884 -0.27617,-0.27617 -0.67472,-0.33196 -0.97227,-0.53033 -0.15697,-0.10464 -0.29463,-0.2357 -0.44194,-0.35355 -0.33843,-0.27116 0.25195,0.16356 -0.17678,-0.26516 -0.0751,-0.0751 -0.19006,-0.10168 -0.26516,-0.17678 -0.10512,-0.10512 -0.20837,-0.32836 -0.26517,-0.44194 -0.0978,-0.19571 -0.31123,-0.35606 -0.44194,-0.53033 -0.046,-0.0613 -0.34225,-0.67701 -0.35355,-0.70711 -0.0528,-0.14067 -0.0139,-0.3115 -0.0884,-0.44194 -0.0527,-0.0923 -0.19007,-0.10168 -0.26517,-0.17678 -0.20463,-0.20463 -0.23333,-0.37827 -0.35355,-0.61872 -0.0748,-0.14962 -0.30205,-0.2874 -0.35355,-0.44194 -0.10654,-0.31962 0,-1.1425 0,-1.5026 0,-1.63603 -0.0574,-3.23169 0.0884,-4.81718 0.17677,-0.42773 0.91955,-0.47219 1.23743,-0.66292 0.0715,-0.0429 0.10228,-0.13947 0.17678,-0.17677 0.16029,-0.0804 0.35801,-0.0392 0.53033,-0.0884 0.20831,-0.0595 0.33553,-0.11188 0.53033,-0.17678 0.0795,-0.0265 0.18557,0.0265 0.26517,0 0.0395,-0.0132 0.0489,-0.0752 0.0884,-0.0884 0.30216,-0.10072 1.45015,0 1.76777,0 0.37565,0 0.79369,-0.0301 1.14905,0.0884 0.125,0.0417 0.22855,0.13508 0.35355,0.17678 0.13976,0.0466 0.3003,-0.0405 0.44194,0 0.61873,0.17676 0.13259,0.13258 0.53033,0.26516 0.51701,0.17234 0.93945,0.43581 1.41422,0.70711 0.16513,0.0944 0.37844,0.15125 0.53033,0.26516 0.0667,0.05 0.10447,0.13548 0.17677,0.17678 1.42309,0.81319 -0.21758,-0.15947 0.70711,0.17678 0.096,0.0349 0.83953,0.36448 1.06066,0.53033 0.39282,0.29456 0.1692,0.0244 0.53033,0.26516 0.10401,0.0693 0.1559,0.20447 0.26517,0.26517 0.16289,0.0905 0.36366,0.0935 0.53033,0.17677 0.13176,0.0659 0.22863,0.18707 0.35355,0.26517 0.32181,0.20113 0.63786,0.33924 0.97227,0.53033 0.0724,0.0413 0.0994,0.14578 0.17678,0.17678 0.22558,0.0903 0.48379,0.0811 0.70711,0.17677 0.57446,0.2462 1.12943,0.66675 1.67937,0.97228 0.19873,0.1104 0.77608,0.29479 0.97228,0.44194 0.1,0.075 0.15797,0.20086 0.26516,0.26516 0.0505,0.0303 0.12208,-0.0219 0.17678,0 0.11518,0.0461 0.29716,0.23297 0.44194,0.26517 0.4915,0.1092 0.60346,0.0884 1.06066,0.0884 0.60915,0 1.14976,0.0526 1.67938,-0.26517 0.35567,-0.2134 0.0734,-0.14676 0.17677,-0.35355 0.0373,-0.0745 0.13948,-0.10228 0.17678,-0.17678 0.0395,-0.0791 -0.028,-0.18126 0,-0.26516 0.0273,-0.0818 0.23547,-0.41148 0.26517,-0.53033 0.0574,-0.22971 0,-0.65991 0,-0.88389 v -1.67938 c 0,-1.0355 0.11224,-2.25039 -0.35356,-3.18198 -0.0522,-0.10442 -0.20016,-0.16766 -0.26516,-0.26516 -0.17908,-0.26861 -0.29753,-0.29753 -0.53033,-0.53033 -0.0466,-0.0466 -0.0462,-0.12618 -0.0884,-0.17678 -0.2574,-0.30888 -0.5929,-0.50451 -0.88388,-0.79549 -0.0884,-0.0884 -0.16517,-0.19017 -0.26517,-0.26517 -0.0236,-0.0177 -0.07,0.023 -0.0884,0 -0.15892,-0.19865 -0.26936,-0.50576 -0.44194,-0.70711 -0.095,-0.11079 -0.39964,-0.31885 -0.44194,-0.53033 -0.0173,-0.0867 0.0243,-0.18016 0,-0.26516 -0.0405,-0.14174 -0.27685,-0.55364 -0.35355,-0.70711 -0.15187,-0.30373 -0.48133,-0.62952 -0.53033,-0.97227 -0.20059,-1.4041 0.25917,-2.16498 1.14904,-3.18198 0.27706,-0.31663 0.70066,-0.89757 1.14905,-0.97227 0.11721,-0.0195 1.38353,-0.0595 1.5026,0 0.21588,0.10794 0.44676,0.31015 0.70711,0.35355 0.11625,0.0194 0.24175,-0.0373 0.35355,0 0.0791,0.0263 0.10228,0.13948 0.17678,0.17678 0.14834,0.0742 0.44819,0.0543 0.61872,0.0884 0.43138,0.0863 1.56675,0.49005 1.85616,0.7071 0.50547,0.37911 0.88353,0.88336 1.23743,1.41422 0.038,0.057 0.13848,0.31525 0.17678,0.35355 0.0466,0.0466 0.13018,0.0418 0.17678,0.0884 0.12954,0.12955 0.15477,0.38314 0.26516,0.53033 0.16715,0.22286 0.92106,1.12575 1.06066,1.23744 0.046,0.0368 0.12408,-0.0264 0.17678,0 0.0589,0.0295 0.0319,0.14287 0.0884,0.17677 0.11298,0.0678 0.24056,0.10898 0.35355,0.17678 0.58202,0.34955 1.16596,0.35355 1.85615,0.35355 0.13309,0 0.31343,0.0321 0.44195,0 0.18077,-0.0452 0.34586,-0.15047 0.53033,-0.17677 0.28223,-0.0403 0.53569,-0.0469 0.79549,-0.17678 0.31282,-0.15641 0.284,-0.8278 0.70728,-0.7953 0,-0.20174 0.12647,-0.5057 0.17677,-0.7071 0.0588,-0.23497 0,-0.54529 0,-0.7955 0,-0.40769 0.11394,-1.24919 0,-1.59099 -0.0132,-0.0395 -0.0698,-0.0511 -0.0884,-0.0884 -0.0245,-0.0489 -0.0754,-0.31445 -0.0884,-0.35355 -0.0974,-0.29123 0.009,-0.67901 -0.0884,-0.97227 -0.0336,-0.10078 -0.23008,-0.10519 -0.17678,-0.26517 -0.0286,-0.11433 0.0373,-0.24175 0,-0.35355 -0.0548,-0.16434 -0.18396,-0.36789 -0.26516,-0.53033 -0.0984,-0.19689 -0.17147,-0.43141 -0.26517,-0.61872 -0.0373,-0.0745 -0.13947,-0.10228 -0.17677,-0.17678 -0.0264,-0.0527 0.0527,-0.15047 0,-0.17677 -0.0791,-0.0395 -0.19447,0.053 -0.26517,0 -0.1,-0.075 -0.16916,-0.18517 -0.26516,-0.26517 -0.0816,-0.068 -0.17017,-0.12927 -0.26517,-0.17677 -0.0264,-0.0132 -0.0676,0.0208 -0.0884,0 -0.0208,-0.0209 0,-0.0589 0,-0.0884 -0.0884,-0.0589 -0.17676,-0.11788 -0.26516,-0.17678 -0.0547,-0.0219 -0.12088,0.0186 -0.17678,0 -0.16298,-0.0543 -0.299,-0.16986 -0.44194,-0.26516 -0.30322,-0.20215 -0.56442,-0.52456 -0.88388,-0.70711 -0.21135,-0.1208 -0.43838,0.002 -0.61872,-0.0884 -0.15954,-0.0798 -0.42295,-0.22596 -0.61872,-0.26516 -0.30924,-0.0618 -0.86232,0.14336 -1.14905,0 -0.2986,-0.1493 -0.6185,-0.29456 -0.97227,-0.35356 -0.0872,-0.0145 -0.18127,0.0279 -0.26517,0 -0.0625,-0.0208 -0.0295,-0.14727 -0.0884,-0.17677 -0.13438,-0.0672 -0.29942,-0.0409 -0.44195,-0.0884 -0.24167,-0.0806 -0.42267,-0.31125 -0.61871,-0.44194 -0.0775,-0.0517 -0.23367,0.12872 -0.26517,-0.0884 -0.13333,-0.1 -0.21064,-0.26776 -0.35355,-0.35356 -0.0799,-0.0479 -0.18767,-0.0367 -0.26517,-0.0884 -0.0245,-0.0164 0.0132,-0.0621 0,-0.0884 -0.0475,-0.095 -0.10167,-0.19007 -0.17677,-0.26517 -0.0466,-0.0466 -0.13018,-0.0418 -0.17678,-0.0884 -0.14969,-0.14969 -0.11548,-0.20386 -0.26517,-0.35355 -0.23281,-0.23281 -0.65498,-0.30143 -0.88388,-0.53033 -0.14652,-0.14652 -0.23515,-0.47071 -0.35355,-0.61872 -0.0412,-0.0515 -0.15228,-0.0272 -0.17678,-0.0884 -0.0438,-0.10942 0.0373,-0.24175 0,-0.35355 -0.0354,-0.10607 -0.22977,-0.1591 -0.26517,-0.26517 -0.028,-0.0838 0.028,-0.18136 0,-0.26516 -0.10442,-0.31327 -0.19956,-0.64433 -0.26516,-0.97227 -0.0567,-0.2833 0.0567,-0.60059 0,-0.88389 -0.14888,-0.7442 -10e-4,-0.003 -0.17678,-0.35355 -0.0864,-0.17322 -0.0153,-0.51215 -0.0884,-0.70711 -0.0694,-0.18505 -0.17676,-0.35355 -0.26516,-0.53033 -0.0295,-0.14731 -0.0471,-0.29749 -0.0884,-0.44194 -0.1251,-0.43794 -0.0693,0.14578 -0.26516,-0.44194 -0.0249,-0.0746 0.0631,-0.55562 0,-0.61872 -0.0209,-0.0208 -0.0676,0.0208 -0.0884,0 -0.0282,-0.0282 0.0187,-0.91086 0,-1.06066 -0.0556,-0.44498 -0.1665,-0.77494 -0.35356,-1.14905 -0.0782,-0.15647 0.13146,-0.0302 -0.0884,-0.17677 -0.2596,-0.17307 -0.69375,-0.41892 -0.97228,-0.53033 -0.0821,-0.0328 -0.18936,0.0455 -0.26516,0 -0.12632,-0.0758 -0.21815,-0.20717 -0.35355,-0.26517 -0.68667,-0.29429 0.0789,0.25887 -0.44195,-0.0884 -0.18963,-0.12642 -0.34257,-0.31677 -0.53033,-0.44194 -0.0847,-0.0565 -0.26455,-0.0878 -0.35355,-0.17678 -0.14969,-0.14969 -0.11547,-0.20386 -0.26516,-0.35355 -0.23127,-0.23126 -0.60202,-0.3285 -0.7955,-0.61872 -0.0465,-0.0697 -0.23186,-0.40864 -0.26516,-0.44194 -0.10912,-0.10908 -0.33741,-0.10708 -0.44195,-0.17678 -0.13867,-0.0924 -0.2234,-0.24943 -0.35355,-0.35355 -0.34903,-0.27922 -0.69372,-0.55087 -1.06066,-0.79549 -0.40787,-0.27192 -0.98768,-0.38176 -1.41421,-0.61872 -0.10927,-0.0607 -0.20927,-0.15336 -0.26517,-0.26517 -0.0264,-0.0527 0.0527,-0.15037 0,-0.17677 -0.0943,-0.0471 -0.25925,0.0471 -0.35355,0 -0.5598,-0.2799 -1.21556,-0.31383 -1.85616,-0.44195 -0.21032,-0.0421 -0.41248,-0.11787 -0.61872,-0.17677 -0.0589,-0.0295 -0.11217,-0.0755 -0.17677,-0.0884 -0.23293,-0.0466 -0.47196,-0.0548 -0.70711,-0.0884 -0.49085,-0.0701 -1.01175,0.0701 -1.5026,0 -0.41599,-0.0594 -0.83596,-0.1648 -1.23744,-0.26516 -0.16638,-0.0416 -0.36395,0.0416 -0.53033,0 -0.0639,-0.016 -0.11217,-0.0755 -0.17677,-0.0884 -0.2244,-0.0449 -0.48533,0.0554 -0.70711,0 -0.12783,-0.032 -0.22573,-0.14478 -0.35355,-0.17678 -0.0572,-0.0143 -0.12088,0.0186 -0.17678,0 -0.16999,-0.0567 -0.37305,-0.25915 -0.53033,-0.35355 -0.49601,-0.29761 -0.94823,-0.69593 -1.32583,-1.14905 -0.068,-0.0816 -0.10167,-0.19007 -0.17677,-0.26517 -0.0209,-0.0208 -0.0676,0.0208 -0.0884,0 -0.0208,-0.0208 0.0163,-0.0639 0,-0.0884 -0.0901,-0.13514 -0.30363,-0.34975 -0.44194,-0.44195 -0.0775,-0.0517 -0.19927,-0.0225 -0.26517,-0.0884 -0.41879,-0.41879 -0.0597,-0.24411 -0.88388,-0.61872 -1.06338,-0.48336 0.38637,0.35968 -0.70711,-0.26517 -0.64455,-0.36831 -1.21245,-0.8272 -1.85615,-1.14905 -0.13538,-0.0677 -0.0691,-0.15751 -0.17678,-0.26516 -0.0466,-0.0466 -0.13728,-0.0357 -0.17678,-0.0884 -0.11858,-0.15811 -0.0406,-0.42461 -0.26516,-0.53033 -0.0637,-0.085 -0.10168,-0.19007 -0.17678,-0.26517 -0.0208,-0.0208 -0.0721,0.0245 -0.0884,0 -0.14617,-0.21926 -0.19544,-0.49628 -0.35355,-0.7071 -0.30246,-0.40329 -0.73652,-0.72476 -1.14905,-0.97227 -0.0565,-0.0339 -0.11788,-0.0589 -0.17678,-0.0884 -0.0295,0 -0.0621,0.0132 -0.0884,0 -0.44853,-0.22427 -0.36989,-0.2717 -0.7955,-0.44194 -0.25502,-0.10199 -1.79292,-0.008 -2.03293,0.0884 -0.0612,0.0245 -0.11788,0.0589 -0.17678,0.0884 0,0.0295 0.0263,0.0752 0,0.0884 -0.0527,0.0264 -0.12778,-0.0327 -0.17678,0 -0.0931,0.0621 -0.14644,0.27435 -0.26516,0.35355 -0.36351,0.24234 -0.77196,0.43018 -1.14905,0.61872 -0.0877,0.0439 -0.17366,0.14628 -0.26516,0.17678 -0.32845,0.10948 -1.21455,0 -1.59099,0 -0.28517,0 -0.96828,0.009 -0.97228,0 -0.34528,-0.69057 0.43875,0.35036 -0.17677,-0.26517 -0.30751,-0.3075 -0.17678,-0.95022 -0.17678,-1.32582 0,-0.30144 -0.0599,-0.67263 0,-0.97227 0.0587,-0.29355 0.13458,-0.58823 0.17678,-0.88389 0.0208,-0.14583 -0.0659,-0.31018 0,-0.44194 0.15169,-0.30338 0.33805,-0.66059 0.44194,-0.97227 0.0444,-0.13319 0.25705,-0.43383 0.35355,-0.53033 0.059,-0.059 0.38654,-0.13528 0.44194,-0.17678 0.0527,-0.0395 0.0336,-0.14027 0.0884,-0.17677 0.0884,-0.0589 0.17677,0.0295 0.26517,0 0.10078,-0.0336 0.161,-0.15598 0.26516,-0.17678 0.26388,-0.0528 1.46739,-0.0601 1.76777,0 0.4167,0.0833 0.81454,0.29315 1.23744,0.35355 0.11666,0.0167 0.24814,-0.0527 0.35355,0 0.13703,0.0685 0.27607,0.13528 0.44194,0.17678 0.41972,0.10493 2.05306,-0.12456 2.47488,-0.26516 0.125,-0.0417 0.1143,-0.327 0.35355,-0.17678 0.0867,-0.0173 0.18606,0.0395 0.26516,0 0.19003,-0.095 0.33307,-0.27465 0.53033,-0.35355 0.19902,-0.0796 0.52842,-0.0865 0.70711,-0.26517 0.0466,-0.0466 0.0357,-0.13728 0.0884,-0.17678 0.25193,-0.18894 0.32364,-0.078 0.53033,-0.35355 0.0832,-0.11089 0.23806,-0.39484 0.26516,-0.53033 0.0459,-0.2293 0.0559,-1.3348 0,-1.5026 -0.0336,-0.10078 -0.11307,-0.18017 -0.17677,-0.26517 -0.179,-0.23859 9e-4,-0.52746 -0.0884,-0.79549 -0.0616,-0.18491 -0.23667,-0.53587 -0.26517,-0.70711 -0.0194,-0.11625 0.0527,-0.24814 0,-0.35355 -0.0373,-0.0745 -0.15047,-0.0977 -0.17677,-0.17678 -0.0186,-0.0559 0.0327,-0.12778 0,-0.17678 -0.0813,-0.12192 -0.31999,-0.20416 -0.44194,-0.26516 -0.0948,-0.0474 -0.14258,-0.24237 -0.17678,-0.26517 -0.0775,-0.0517 -0.18187,-0.0467 -0.26517,-0.0884 -0.19295,-0.0965 -0.34753,-0.32008 -0.53033,-0.44195 -0.10226,-0.0682 -0.26915,-0.12047 -0.35355,-0.17677 -0.19146,-0.12765 -0.26829,-0.39774 -0.53033,-0.44194 -0.0959,-0.0575 -0.25935,-0.0413 -0.35355,-0.0884 -0.0745,-0.0373 -0.10748,-0.13058 -0.17678,-0.17678 -0.13343,-0.089 -0.37773,-0.18886 -0.53033,-0.26516 -0.32111,-0.16056 -0.50063,-0.5202 -0.70711,-0.7955 -0.24138,-0.32184 -0.90167,-0.85081 -1.23743,-1.06066 -0.22887,-0.14304 -0.46953,-0.19516 -0.70711,-0.35355 -0.14584,-0.0972 -0.20625,-0.20207 -0.35355,-0.26517 -1.08472,-0.46488 -0.0156,0.0537 -0.97228,-0.26516 -0.0395,-0.0132 -0.0511,-0.0698 -0.0884,-0.0884 -0.0527,-0.0263 -0.12088,0.0186 -0.17678,0 -0.35354,-0.11788 0.0179,-0.0848 -0.44194,-0.17678 -0.0578,-0.0115 -0.12088,0.0186 -0.17678,0 -0.32596,-0.10865 -0.57656,-0.37667 -0.88388,-0.53033 -0.14191,-0.0709 -0.30003,-0.10587 -0.44194,-0.17677 -0.19003,-0.095 -0.33307,-0.27466 -0.53033,-0.35356 -0.0547,-0.0219 -0.12968,0.0354 -0.17678,0 -0.085,-0.0637 -0.11308,-0.18016 -0.17678,-0.26516 -0.12371,-0.16496 -0.31309,-0.28088 -0.44194,-0.44194 -0.37667,-0.47084 -0.74777,-0.96278 -1.14905,-1.41422 -0.11073,-0.12457 -0.2357,-0.2357 -0.35355,-0.35355 -0.0884,-0.0589 -0.19007,-0.10168 -0.26517,-0.17678 -0.33834,-0.33834 -0.21588,-0.54159 -0.66291,-0.92808 l 0.13258,-4.90555 c 0,-0.51462 0.0327,-1.10659 -0.0884,-1.59099 -0.0258,-0.10306 -0.14319,-0.16439 -0.17678,-0.26516 -0.0445,-0.13338 -0.0439,-0.48535 -0.0884,-0.61872 -0.0336,-0.10078 -0.14318,-0.16439 -0.17678,-0.26517 -0.028,-0.0838 0.0359,-0.18439 0,-0.26516 -0.2574,-0.57915 -0.68427,-0.99216 -0.88388,-1.59099 -0.0265,-0.0796 0.0265,-0.18562 0,-0.26517 -0.2618,-0.78541 -0.25239,-1.74323 -0.0884,-2.56326 0.0231,-0.11556 -0.0231,-0.23799 0,-0.35355 0.2265,-1.13251 -0.0825,0.68637 0.26517,-0.53033 0.11003,-0.38512 -0.0695,-1.07953 0.26516,-1.41422 0.0208,-0.0208 0.072,0.0245 0.0884,0 0.23878,-0.0919 0.005,-0.31694 0.0884,-0.44194 0.0365,-0.0548 0.13019,-0.0418 0.17678,-0.0884 0.0466,-0.0466 0.0418,-0.13019 0.0884,-0.17677 0.0466,-0.0466 0.12534,-0.0472 0.17678,-0.0884 0.13015,-0.10412 0.20448,-0.27902 0.35355,-0.35356 0.0833,-0.0417 0.18765,-0.0367 0.26517,-0.0884 0.0245,-0.0163 0,-0.0589 0,-0.0884 0.17678,-0.0884 0.34682,-0.19177 0.53033,-0.26517 0.3833,-0.15332 0.35128,0.002 0.70711,-0.26516 0.0236,-0.0177 -0.0245,-0.072 0,-0.0884 0.0775,-0.0517 0.18183,-0.0467 0.26516,-0.0884 0.13537,-0.0677 0.0691,-0.15751 0.17678,-0.26516 0.16827,-0.16827 0.5334,-0.38558 0.7071,-0.53033 0.27274,-0.22729 0.48292,-0.52648 0.70711,-0.7955 0.14731,-0.17678 0.32355,-0.33301 0.44194,-0.53033 0.0625,-0.10417 0.021,-0.25248 0.0884,-0.35355 l 0.17678,-0.17678 c 0.0295,0 0.0675,0.0208 0.0884,0 0.037,-0.037 0.0616,-0.2116 0.0884,-0.26517 0.053,-0.10606 0.21214,-0.15909 0.26517,-0.26516 0.0263,-0.0527 -0.0354,-0.12964 0,-0.17678 0.0637,-0.085 0.19005,-0.10166 0.26516,-0.17677 0.0208,-0.0208 -0.0132,-0.062 0,-0.0884 0.14556,-0.29111 0.29665,-0.59328 0.44195,-0.88389 0.13521,-0.27043 0.36908,-0.46523 0.53033,-0.7071 0.23171,-0.34757 0.20685,-0.49146 0.53033,-0.70711 0.0568,-0.0378 0.28251,0 0.35355,0 0.18978,0 0.52947,-0.0508 0.70711,0 0.11906,0.034 1.928,1.34521 2.03293,1.5026 0.0867,0.13006 0.12886,0.29821 0.17678,0.44194 0.0589,0.17678 0.14023,0.34761 0.17677,0.53033 0.0709,0.35471 0.0862,1.77223 -0.0884,2.12133 -0.0938,0.18767 -0.3864,0.3864 -0.53033,0.53033 -0.40436,0.40436 -0.82299,0.80269 -1.14904,1.23743 -0.11585,0.15446 -0.0877,0.26369 -0.17678,0.44194 -0.0761,0.15222 -0.28992,0.40307 -0.35356,0.53033 -0.0263,0.0527 0.01,0.11866 0,0.17678 -0.0406,0.24349 -0.13694,0.46811 -0.17677,0.70711 -0.0242,0.14531 0.0289,0.29749 0,0.44194 -0.0735,0.36764 -0.0884,0.68197 -0.0884,1.06066 0,0.21481 -0.089,1.2362 0,1.41421 0.0683,0.13657 0.27643,0.22502 0.35355,0.35356 0.0479,0.0799 0.0325,0.19063 0.0884,0.26516 0.0395,0.0527 0.13019,0.0418 0.17678,0.0884 0.013,0.013 0.74686,0.91391 0.79549,0.97227 0.2047,0.24563 0.27599,0.6073 0.44195,0.88388 0.11727,0.19546 0.22709,0.42903 0.35355,0.61872 0.0462,0.0693 0.15042,0.0977 0.17678,0.17678 0.0186,0.0559 -0.0186,0.12087 0,0.17678 0.035,0.10495 0.35207,0.34616 0.35355,0.35355 0.0347,0.17334 -0.0791,0.37222 0,0.53033 0.82496,1.64992 -0.0295,-0.10312 0.61872,0.70711 0.0582,0.0728 0.0422,0.18427 0.0884,0.26516 0.19967,0.34943 0.4681,0.74199 0.7071,1.06066 0.075,0.1 0.19583,0.16116 0.26517,0.26517 0.11993,0.1799 0.24261,0.47079 0.35355,0.61872 0.27861,0.37148 0.40752,0.46149 0.61872,0.88388 0.19588,0.39175 0.63579,0.60348 0.97227,0.88388 0.0506,0.0422 0.1339,0.0384 0.17678,0.0884 0.13826,0.16131 0.21528,0.36902 0.35355,0.53033 0.0828,0.0966 0.34847,0.26008 0.44194,0.35355 0.007,0.007 0.42436,0.51861 0.44194,0.53033 0.049,0.0327 0.12775,-0.0327 0.17678,0 0.0548,0.0366 0.0336,0.14024 0.0884,0.17678 0.049,0.0327 0.12407,-0.0263 0.17678,0 0.0263,0.0132 -0.0208,0.0676 0,0.0884 0.0466,0.0466 0.13019,0.0418 0.17677,0.0884 0.0208,0.0208 -0.0245,0.072 0,0.0884 0.24144,0.16096 0.54356,0.20958 0.7955,0.35355 0.0724,0.0413 0.10224,0.13951 0.17677,0.17678 0.15982,0.0799 0.43904,-0.0359 0.61872,0 0.43301,0.0866 0.90765,0.21416 1.32583,0.35355 0.50922,0.16974 1.10518,0.63334 1.67938,0.44194 0.27724,-0.0924 0.16431,-0.20216 0.35355,-0.35355 0.13415,-0.10732 0.27896,-0.21084 0.44194,-0.26517 0.0559,-0.0186 0.12407,0.0264 0.17678,0 0.0745,-0.0373 0.10744,-0.13055 0.17678,-0.17677 0.1798,-0.11987 0.42615,0.10417 0.61871,-0.0884 0.0208,-0.0208 -0.0208,-0.0676 0,-0.0884 0.0659,-0.0659 0.18765,-0.0367 0.26517,-0.0884 0.10637,-0.0709 0.50269,-0.35903 0.53033,-0.44194 0.20226,-0.60678 -0.33843,0.4117 0.0884,-0.44194 0.0616,-0.12318 0.14514,-0.19536 0.17677,-0.35356 0.0254,-0.12692 0.0526,-2.2551 0,-2.38648 -0.17718,-0.44295 -0.65693,-0.74533 -0.97227,-1.06066 -0.10416,-0.10417 -0.161,-0.24939 -0.26516,-0.35355 -0.0751,-0.0751 -0.19881,-0.0938 -0.26517,-0.17678 -0.0582,-0.0728 -0.0325,-0.19063 -0.0884,-0.26517 -0.0884,-0.11785 -0.26152,-0.15013 -0.35355,-0.26516 -0.45334,-0.56668 -1.07671,-0.98833 -1.59099,-1.5026 -0.0466,-0.0466 -0.0369,-0.13562 -0.0884,-0.17678 -0.10289,-0.0823 -0.24057,-0.10899 -0.35355,-0.17678 -0.19732,-0.11839 -0.34308,-0.30819 -0.53033,-0.44194 -0.24412,-0.17437 -0.16659,0.0102 -0.44194,-0.26516 -0.0751,-0.0751 -0.0938,-0.19881 -0.17678,-0.26517 -0.0728,-0.0582 -0.18183,-0.0467 -0.26517,-0.0884 -0.1118,-0.0559 -0.16913,-0.18514 -0.26516,-0.26516 -0.35273,-0.29395 -0.75756,-0.6392 -1.14905,-0.88389 0.10464,-0.43995 -0.33014,-0.12087 -0.44194,-0.17677 -0.11876,-0.0594 -0.3413,-0.42969 -0.44194,-0.53033 -0.20945,-0.20945 -0.28621,-0.0842 -0.35356,-0.35356 -0.0143,-0.0572 0.0264,-0.12407 0,-0.17677 -0.0132,-0.0263 -0.0826,0.0289 -0.0884,0 -0.0289,-0.14446 0.0242,-0.29663 0,-0.44194 -0.0217,-0.12997 -0.15512,-0.22359 -0.17678,-0.35356 -0.0718,-0.43073 -0.0639,-2.09424 0.0884,-2.47487 0.0109,-0.0274 0.062,0.0132 0.0884,0 0.0373,-0.0186 0.0511,-0.0698 0.0884,-0.0884 0.69733,-0.34866 1.45084,-0.26516 2.20971,-0.26516 0.23691,0 0.57243,-0.0558 0.7955,0 0.74843,0.1871 1.51147,0.60327 2.12132,1.06066 0.0589,0.0589 0.11785,0.11785 0.17678,0.17677 0,0.0295 -0.0208,0.0676 0,0.0884 0.0466,0.0466 0.13019,0.0418 0.17677,0.0884 0.12037,0.12037 0.60341,0.94166 0.70711,1.14905 0.071,0.14191 0.0888,0.30992 0.17678,0.44194 0.0462,0.0693 0.11785,0.11785 0.17677,0.17678 0.0589,0.0884 0.12212,0.17407 0.17678,0.26516 0.13525,0.22543 0.25737,0.61092 0.44194,0.7955 0.0466,0.0466 0.13725,0.0357 0.17678,0.0884 0.0559,0.0745 0.0325,0.19063 0.0884,0.26517 0.125,0.16667 0.3018,0.28779 0.44194,0.44194 0.15479,0.17027 0.27923,0.36762 0.44194,0.53033 0.0466,0.0466 0.13019,0.0418 0.17678,0.0884 0.0751,0.0751 0.0918,0.20143 0.17677,0.26516 0.0471,0.0354 0.12775,-0.0327 0.17678,0 0.29869,0.19913 0.70213,0.64487 1.06066,0.88389 0.16966,0.11311 0.48199,0.12844 0.61872,0.26516 0.2113,0.21131 0.34782,0.52651 0.61872,0.70711 0.2585,0.17234 0.45878,0.2557 0.7071,0.44194 0.098,0.0735 0.16338,0.19731 0.26517,0.26517 0.21039,0.14026 0.42983,0.1235 0.61872,0.26516 0.42753,0.32065 0.10375,0.0906 0.7071,0.17678 0.28325,0.0405 0.58455,0.22775 0.88389,0.26516 0.48229,0.0603 1.82172,0.20749 2.29809,0.0884 0.21866,-0.0547 0.38068,-0.29228 0.53033,-0.44194 0.2281,-0.22809 0.26517,-0.12598 0.26517,-0.44194 0,-0.75427 -0.0402,-1.13302 -0.26517,-2.03293 0.30703,-0.6928 -0.20926,-0.15337 -0.26516,-0.26517 -0.0264,-0.0527 0.0417,-0.13511 0,-0.17678 -0.0659,-0.0659 -0.17866,-0.0538 -0.26517,-0.0884 -0.20833,-0.0833 -0.41367,-0.17404 -0.61871,-0.26517 -0.0602,-0.0268 -0.11786,-0.0589 -0.17678,-0.0884 -0.0589,-0.0589 -0.10224,-0.13951 -0.17678,-0.17677 -0.0527,-0.0264 -0.12087,0.0186 -0.17677,0 -0.11859,-0.0395 -0.15798,-0.20086 -0.26517,-0.26517 -0.3168,-0.19008 -0.73944,-0.19294 -1.06066,-0.35355 -0.2602,-0.1301 -1.07632,-0.89954 -1.23744,-1.06066 -0.0751,-0.0751 -0.10166,-0.19005 -0.17677,-0.26517 -0.0466,-0.0466 -0.12408,-0.0489 -0.17678,-0.0884 -0.335,-0.25124 -0.67617,-0.49939 -0.97227,-0.79549 -0.19654,-0.19654 -0.26106,-0.49607 -0.44194,-0.70711 -0.20383,-0.23779 -0.39726,-0.48564 -0.61872,-0.7071 -0.19401,-0.19401 -0.62934,-0.39718 -0.7955,-0.61872 -0.0353,-0.0471 0.0327,-0.12775 0,-0.17678 -0.0365,-0.0548 -0.13019,-0.0418 -0.17677,-0.0884 -0.18835,-0.18835 -0.22322,-0.48987 -0.35356,-0.7071 -0.0429,-0.0715 -0.12677,-0.11011 -0.17677,-0.17678 -0.14144,-0.18858 -0.3769,-0.7446 -0.44195,-0.97227 -0.054,-0.189 0.0477,-0.428 0,-0.61872 -0.0101,-0.0404 -0.0783,-0.048 -0.0884,-0.0884 -0.024,-0.0958 -0.0525,-0.77879 0,-0.88388 0.0397,-0.0793 0.43027,-0.44695 0.53033,-0.53033 0.60977,-0.50815 2.10538,-0.80347 2.82842,-0.44195 0.11181,0.0559 0.16345,0.19252 0.26517,0.26517 0.16083,0.11488 0.37221,0.14658 0.53033,0.26516 0.22116,0.16587 0.401,0.35616 0.61872,0.53034 0.20577,0.16462 0.49267,0.20038 0.7071,0.35355 0.0321,0.0229 0.38702,0.47541 0.44195,0.53033 0.0985,0.0985 0.39063,0.28514 0.44194,0.35355 0.0559,0.0745 0.0467,0.18183 0.0884,0.26517 0.25315,0.5063 0.57296,0.94783 0.88388,1.41421 0.1615,0.24226 0.19205,0.55324 0.35355,0.7955 0.57773,0.86659 -0.0368,-0.0368 0.53033,0.53033 0.20022,0.20021 0.44143,0.82427 0.61872,1.06066 0.4508,0.60107 0.96379,1.02221 1.59099,1.41421 0.15998,0.1 0.28017,0.25649 0.44194,0.35355 0.11299,0.0678 0.24815,0.0977 0.35356,0.17678 0.0236,0.0177 -0.0132,0.062 0,0.0884 0.004,0.009 0.64869,0.59535 0.7071,0.61872 1.00757,0.40302 1.44051,0.35355 2.47488,0.35355 0.72105,0 1.41496,0.17529 1.76776,-0.53033 0.0475,-0.095 0.14319,-0.16439 0.17678,-0.26517 0.0506,-0.15187 0.0719,-0.85238 0,-0.97227 -0.0643,-0.10718 -0.20085,-0.15798 -0.26516,-0.26516 -0.0303,-0.0505 0.0143,-0.11961 0,-0.17678 -0.13869,-0.55474 -0.0381,0.20119 -0.17678,-0.35355 -0.0549,-0.21958 -0.0335,-0.48754 -0.0884,-0.70711 -0.11432,-0.45727 -0.87269,-1.75657 -1.23744,-2.12132 -0.0751,-0.0751 -0.19716,-0.0952 -0.26516,-0.17678 -0.13906,-0.16686 -0.21859,-0.43876 -0.35356,-0.61871 -0.31193,-0.41591 -0.63618,-0.83413 -0.97227,-1.23744 -0.462,-0.5544 -0.6729,-1.09703 -1.23743,-1.59099 -0.28396,-0.24846 -0.60344,-0.4547 -0.88389,-0.70711 -0.0219,-0.0197 0,-0.0589 0,-0.0884 -0.14731,-0.11785 -0.28937,-0.24259 -0.44194,-0.35355 -0.17182,-0.12496 -0.35355,-0.2357 -0.53033,-0.35355 -0.2357,-0.20624 -0.45989,-0.42644 -0.70711,-0.61872 -0.0233,-0.0181 -0.0675,0.0208 -0.0884,0 -0.16272,-0.16272 -0.25048,-0.40269 -0.44195,-0.53033 -0.24987,-0.16659 -0.58872,-0.32356 -0.79549,-0.53033 -0.0466,-0.0466 -0.0489,-0.12407 -0.0884,-0.17678 -0.24719,-0.32959 -0.6229,-0.5649 -0.88388,-0.88388 -0.50034,-0.61152 -0.84271,-1.19626 -1.41422,-1.76777 -0.0751,-0.0751 -0.17677,-0.11785 -0.26516,-0.17678 -0.17678,-0.20624 -0.33826,-0.42664 -0.53033,-0.61871 -0.22015,-0.22015 -0.57461,-0.39783 -0.7955,-0.61872 -0.20038,-0.20039 0.0527,-0.19461 -0.26516,-0.35356 -0.0527,-0.0264 -0.12775,0.0327 -0.17678,0 -0.0427,-0.0285 -0.56452,-0.95226 -0.61872,-1.06066 -0.0896,-0.17919 0,-0.60362 0,-0.79549 0,-0.13093 -0.028,-0.41833 0,-0.53033 0.0357,-0.14292 0.19929,-0.22179 0.26517,-0.35356 0.0417,-0.0833 0.0467,-0.18183 0.0884,-0.26516 0.0677,-0.13537 0.15751,-0.0691 0.26516,-0.17678 0.24874,-0.24874 0.078,-0.32931 0.53033,-0.53033 0.13728,-0.061 0.29529,-0.0558 0.44194,-0.0884 0.62087,-0.13797 1.23104,-0.32473 1.85616,-0.44194 0.23347,-0.0438 0.47418,-0.0418 0.70711,-0.0884 0.44314,-0.0886 0.8921,-0.29736 1.32582,-0.44194 0.48252,-0.16084 0.87909,-0.39535 1.32583,-0.61872 0.0833,-0.0417 0.18527,-0.0404 0.26516,-0.0884 0.35972,-0.21584 -0.006,-0.14546 0.35355,-0.26517 0.60828,-0.20276 1.58344,-0.52655 2.12132,-0.79549 0.13177,-0.0659 0.2218,-0.19929 0.35356,-0.26517 0.16666,-0.0833 0.35832,-0.10511 0.53033,-0.17678 0.40426,-0.16844 0.8095,-0.42334 1.23743,-0.53033 0.17387,-0.0435 0.36032,-0.0317 0.53033,-0.0884 0.17678,-0.0884 0.35356,-0.17678 0.53033,-0.26517 0.0295,-0.0295 0.0522,-0.0677 0.0884,-0.0884 0.55065,-0.31465 1.13354,-0.55637 1.67938,-0.88388 0.43537,-0.26122 0.8164,-0.60319 1.23744,-0.88388 0.5734,-0.38227 1.22328,-0.72556 1.76777,-1.14905 0.13155,-0.10233 0.22701,-0.24509 0.35355,-0.35356 0.23734,-0.20343 0.64401,-0.44738 0.88388,-0.61871 0.23529,-0.16806 0.54411,-0.20991 0.7955,-0.35356 0.20624,-0.11785 0.42869,-0.21103 0.61872,-0.35355 0.0667,-0.05 0.10224,-0.13951 0.17677,-0.17678 0.69252,-0.34626 1.68457,-0.33657 2.47488,-0.44194 0.43818,-0.0584 0.89188,-0.09 1.32582,-0.17678 0.23824,-0.0476 0.46499,-0.1566 0.70711,-0.17677 0.61192,-0.051 1.16958,0.0312 1.76777,-0.0884 0.2837,-0.0567 0.59789,0.0477 0.88388,0 0.43149,-0.0719 0.99597,-0.27465 1.41421,-0.44194 0.27605,-0.11042 0.49638,-0.27878 0.7955,-0.35356 0.0857,-0.0214 0.1831,0.0328 0.26516,0 0.0774,-0.031 0.10224,-0.13951 0.17678,-0.17677 0.26582,-0.13291 0.82303,-0.009 1.06066,-0.0884 0.125,-0.0417 0.22855,-0.13511 0.35355,-0.17678 0.73041,-0.2059 1.50719,-0.0136 2.25387,-0.0882 0.61065,-0.0611 0.0669,0.007 0.48613,-0.13258 0.0955,-0.0318 0.21225,-0.0199 0.30936,-0.0442 0.0202,-0.005 0.024,-0.0391 0.0442,-0.0442 0.30532,-0.0763 0.8511,-0.0442 1.14904,-0.0442 0.33856,0 0.71901,-0.038 1.06066,0 0.26901,0.0299 0.49128,0.14668 0.75131,0.22097 0.29707,0.0849 0.79918,0.2177 1.10485,0.35355 0.10853,0.0482 0.19414,0.14797 0.30936,0.17678 0.90102,0.22525 -0.11655,-0.0415 0.39775,0.0442 0.25088,0.0418 0.63105,0.23185 0.83969,0.35356 0.054,0.0315 0.0806,0.0979 0.13258,0.13258 0.0694,0.0463 0.30368,0.07 0.35355,0.0884 0.21055,0.0776 0.41539,0.17027 0.61872,0.26516 0.17069,0.0797 0.29122,0.19214 0.44194,0.30936 0.16334,0.12704 0.36979,0.22512 0.53033,0.35356 0.3417,0.27335 0.66252,0.64061 1.06066,0.83968 0.2079,0.10395 0.44533,0.17192 0.66291,0.26517 0.0488,0.0209 0.0822,0.0716 0.13259,0.0884 0.0419,0.014 0.0892,-0.009 0.13258,0 0.10516,0.021 0.20467,0.0651 0.30936,0.0884 0.22097,0.0491 -0.0737,-0.0737 0.22097,0 0.0202,0.005 0.024,0.0391 0.0442,0.0442 0.0925,0.0231 0.58637,0.0402 0.70711,0 0.0676,-0.0225 0.50086,-0.29252 0.53033,-0.30936 0.086,-0.0491 0.13744,-0.17085 0.22097,-0.22097 0.0253,-0.0152 0.0631,0.0152 0.0884,0 0.27377,-0.16426 0.49404,-0.39077 0.7513,-0.57452 0.15812,-0.11294 0.32452,-0.24581 0.48614,-0.35356 0.17028,-0.11352 0.36004,-0.19583 0.53033,-0.30936 0.38879,-0.25919 0.75531,-0.54494 1.14905,-0.79549 0.33719,-0.21458 0.0303,0.007 0.30935,-0.13258 0.0756,-0.0378 0.16706,-0.12773 0.24307,-0.0663 0.7709,1.06208 -0.22921,-0.0966 0.37563,0.50821 0.0376,0.0376 0.042,0.10679 0.0884,0.13258 0.0937,0.0521 0.20979,0.0486 0.30936,0.0884 0.37067,0.14827 -0.17375,0.045 0.35355,0.17678 0.82728,0.20681 1.66947,0.22097 2.51907,0.22097 h 3.49134 c 0.25673,0 0.63129,-0.0561 0.88389,0 0.2506,0.0557 0.49457,0.1401 0.7513,0.17677 0.0509,0.007 0.26155,-0.0319 0.30936,0 0.0274,0.0183 0.0178,0.0686 0.0442,0.0884 0.0373,0.0279 0.0921,0.0211 0.13258,0.0442 0.12067,0.0689 0.24047,0.14019 0.35356,0.22097 0.0859,0.0614 0.13913,0.15549 0.22097,0.22097 0.16343,0.13074 0.40765,0.16954 0.53033,0.35355 0.35126,0.52689 0.44194,1.13457 0.44194,1.76777 0,0.0724 0.0355,0.69806 0,0.7513 -0.2338,0.3507 10e-4,-6.7e-4 -0.13258,0.0884 -0.10774,0.0718 -0.14532,0.15248 -0.26517,0.22097 -0.18567,0.1061 -0.39635,0.19058 -0.57452,0.30936 -0.0347,0.0231 -0.0589,0.0589 -0.0884,0.0884 -0.0884,0.0295 -0.18372,0.0432 -0.26517,0.0884 -0.0546,0.0304 -0.0796,0.0995 -0.13258,0.13259 -0.18879,0.11799 -0.70768,0.32993 -0.92808,0.39774 -0.27054,0.0833 -0.21024,0.0249 -0.44194,0.0442 -0.47081,0.0392 -0.9455,0.0857 -1.41421,0.13258 -0.30976,0.031 -0.58647,0.13986 -0.88389,0.22097 -0.11785,0.0295 -0.2357,0.0589 -0.35355,0.0884 -0.0442,0 -0.0897,-0.0107 -0.13258,0 -0.25573,0.0639 -0.49742,0.20169 -0.7513,0.26516 -0.0429,0.0107 -0.0897,-0.0107 -0.13259,0 -0.0606,0.0152 -0.0767,0.10464 -0.13258,0.13259 -0.0543,0.0272 -0.11785,0.0295 -0.17677,0.0442 -0.0442,0.0442 -0.0814,0.0967 -0.13259,0.13258 -0.0973,0.0681 -0.20864,0.11383 -0.30936,0.17678 -0.29884,0.18678 -0.57396,0.43514 -0.83969,0.66291 -0.16449,0.141 -0.37174,0.25358 -0.53033,0.39775 -0.0851,0.0774 -0.13961,0.18381 -0.22097,0.26517 -0.12543,0.12543 -0.27231,0.22812 -0.39774,0.35355 -0.0521,0.0521 -0.082,0.12323 -0.13259,0.17678 -0.20624,0.20624 -0.41248,0.41247 -0.61872,0.61871 -0.0442,0.0589 -0.083,0.12228 -0.13258,0.17678 -0.12965,0.14262 -0.35903,0.31667 -0.48613,0.48614 -0.0198,0.0264 -0.0295,0.0589 -0.0442,0.0884 -0.0737,0.10312 -0.1385,0.21315 -0.22097,0.30936 -0.01,0.0112 -0.0338,-0.0104 -0.0442,0 -0.13768,0.13768 -0.0454,0.0989 -0.13259,0.22098 -0.0548,0.0768 -0.12678,0.14098 -0.17677,0.22097 -0.0247,0.0395 -0.0154,0.096 -0.0442,0.13258 -0.1353,0.1722 -0.30174,0.3179 -0.44194,0.48613 -0.0811,0.0974 -0.13752,0.21399 -0.22097,0.30936 -0.0217,0.0248 -0.067,0.0192 -0.0884,0.0442 -0.0691,0.0807 -0.10571,0.1862 -0.17677,0.26516 -0.0631,0.0701 -0.15428,0.11008 -0.22097,0.17678 -0.0233,0.0233 -0.0209,0.0651 -0.0442,0.0884 -0.12543,0.12543 -0.25772,0.24464 -0.39775,0.35355 -0.0678,0.0527 -0.15316,0.0798 -0.22097,0.13258 -0.13156,0.10233 -0.22551,0.24686 -0.35355,0.35356 -0.10857,0.0905 -0.2406,0.1748 -0.35355,0.26516 -0.15375,0.123 -0.17192,0.39289 -0.30936,0.53033 -0.20089,0.20089 -0.4368,0.39132 -0.61872,0.61872 -0.0412,0.0514 -0.0545,0.12029 -0.0884,0.17678 -0.17734,0.29556 0.01,-0.059 -0.26517,0.35355 -0.0365,0.0548 -0.0518,0.12196 -0.0884,0.17678 -0.16209,0.24313 -0.0252,-0.12642 -0.22097,0.26516 -0.0308,0.0615 -0.0263,0.19377 -0.0442,0.26517 -0.0192,0.077 -0.0728,0.14318 -0.0884,0.22097 -0.0737,0.36843 -0.13118,0.7639 -0.0884,1.14905 0.0412,0.37102 0.11863,0.74663 0.22098,1.10485 0.0245,0.0857 0.006,0.23364 0.0442,0.30936 0.0186,0.0373 0.0729,0.0497 0.0884,0.0884 0.0333,0.0832 0.0109,0.18197 0.0442,0.26516 0.0122,0.0306 0.0295,0.0589 0.0442,0.0884 0.0295,0.0295 0.0697,0.0511 0.0884,0.0884 0.0931,0.18616 0.0751,0.29611 0.22098,0.44194 0.0788,0.0788 0.12132,0.0243 0.22097,0.0442 0.0323,0.006 0.0589,0.0295 0.0884,0.0442 0.10312,0.0295 0.20385,0.0692 0.30936,0.0884 0.058,0.0105 0.11815,-0.006 0.17678,0 0.36326,0.0363 0.76381,0.0931 1.10486,0.22097 0.069,0.0259 0.11089,0.0996 0.17677,0.13258 0.0417,0.0208 0.0926,0.0202 0.13258,0.0442 0.13429,0.0806 0.24283,0.19863 0.35356,0.30936 0.0104,0.0104 -0.0104,0.0338 0,0.0442 0.0151,0.0151 0.26073,0.17234 0.26516,0.17678 0.009,0.009 0.68192,0.70091 0.70711,0.7513 0.0208,0.0417 0.0211,0.0921 0.0442,0.13258 0.0442,0.0589 0.0884,0.11785 0.13259,0.17678 0.0147,0 0.0338,-0.0104 0.0442,0 0.0751,0.0751 0.10166,0.19005 0.17678,0.26516 0.0376,0.0376 0.095,0.0508 0.13258,0.0884 0.0563,0.0563 0.26709,0.29438 0.30936,0.35355 0.0383,0.0536 0.045,0.1272 0.0884,0.17678 0.0621,0.071 0.15752,0.10698 0.22097,0.17678 0.19941,0.21935 0.27602,0.4086 0.48613,0.61872 0.0521,0.0521 0.1247,0.0805 0.17678,0.13258 0.0521,0.0521 0.076,0.12962 0.13258,0.17677 0.0358,0.0298 0.0909,0.0234 0.13259,0.0442 0.002,8.7e-4 0.26198,0.30299 0.26516,0.30936 0.0132,0.0264 -0.009,0.0604 0,0.0884 0.0316,0.0948 0.11833,0.19536 0.13258,0.30936 0.0269,0.21535 0.10053,1.20102 0.0442,1.37001 -0.0428,0.12837 -0.0463,0.0617 -0.13258,0.17678 -0.0444,0.0592 -0.0629,0.15731 -0.0884,0.22097 -0.0708,0.17702 -0.17238,0.36332 -0.26517,0.53033 -0.1,0.17993 -0.22558,0.34184 -0.30936,0.53033 -0.51598,0.013 -0.083,0.23787 -0.13258,0.35356 -0.0863,0.2013 -0.1958,0.36642 -0.26517,0.57452 -0.0192,0.0576 -0.0203,0.12095 -0.0442,0.17678 -0.0209,0.0488 -0.0697,0.0829 -0.0884,0.13258 -0.0573,0.15278 -0.10943,0.41246 -0.13258,0.57452 -0.0295,0.20687 0.0947,-0.0285 -0.0442,0.35356 -0.0294,0.0807 -0.0942,0.14414 -0.13259,0.22097 -0.0779,0.15585 -0.0218,0.21836 -0.0442,0.39775 -0.0535,0.42808 -0.0442,-0.0832 -0.0442,0.22097 0,0.23374 -0.18807,0.45733 -0.26516,0.66291 -0.0377,0.10042 -0.0486,0.20978 -0.0884,0.30936 -0.0629,0.15734 -0.0884,0.12011 -0.0884,0.26516 0,0.0784 -0.0109,0.22097 -0.0884,0.22097 -0.0853,0.62372 0.10121,0.79633 0.17682,1.32564 0.0292,0.20469 -6.6e-4,0.41688 0.0442,0.61872 0.0821,0.36932 0.18001,0.74915 0.30935,1.10485 0.14155,0.38924 -0.12425,-0.66184 0.17678,0.44194 0.12992,0.47638 -0.15092,-0.22263 0.0442,0.26517 0.12441,0.31103 0.27333,0.61705 0.39774,0.92808 0.0441,0.11027 0.0209,0.23709 0.0442,0.35355 0.0457,0.2284 0.16095,0.43785 0.22097,0.66291 0.0401,0.15045 -0.0255,0.33314 0,0.48614 0.0521,0.31254 0.0572,0.67335 0.17677,0.97227 0.0319,0.0797 0.0942,0.14414 0.13259,0.22097 0.17141,0.34282 0.36338,0.61764 0.66291,0.88388 0.086,0.0764 0.1882,0.13546 0.26517,0.22098 0.0575,0.0638 0.0826,0.15107 0.13258,0.22097 0.091,0.12742 0.19863,0.24282 0.30936,0.35355 0.0376,0.0376 0.095,0.0508 0.13258,0.0884 0.0104,0.0104 0,0.0295 0,0.0442 0.0589,0.0589 0.10744,0.13055 0.17678,0.17678 0.0245,0.0163 0.0598,-0.007 0.0884,0 0.0639,0.016 0.11561,0.0639 0.17678,0.0884 0.19964,0.0798 0.4055,0.14124 0.61872,0.17677 0.24665,0.0411 1.17685,0.0236 1.41421,-0.0442 0.0634,-0.0181 0.11428,-0.0676 0.17678,-0.0884 0.0763,-0.0254 0.19101,-0.0145 0.26516,-0.0442 0.25214,-0.10086 0.0279,-0.0682 0.22098,-0.13259 0.0295,-0.01 0.26679,-0.06 0.30935,-0.0884 0.0123,-0.008 -0.014,-0.0395 0,-0.0442 0.0419,-0.014 0.0901,0.0121 0.13259,0 0.18066,-0.0516 0.30788,-0.20575 0.48613,-0.26516 0.028,-0.009 0.0604,0.009 0.0884,0 0.20238,-0.0675 0.4633,-0.22404 0.61872,-0.35356 0.28479,-0.23732 0.0649,-0.13168 0.39775,-0.35355 0.0988,-0.0659 0.21206,-0.10867 0.30936,-0.17678 0.0683,-0.0478 0.0977,-0.15042 0.17677,-0.17677 0.028,-0.009 0.0608,0.0103 0.0884,0 0.28495,-0.10686 0.55918,-0.27753 0.83969,-0.39775 0.14583,-0.0625 0.3074,-0.0927 0.44194,-0.17678 0.12141,-0.0759 0.122,-0.17802 0.26517,-0.22097 0.0998,-0.0299 0.20886,-0.0168 0.30936,-0.0442 0.4472,-0.12197 0.96803,-0.57134 1.32582,-0.83969 0.0791,-0.0593 0.18475,-0.0752 0.26517,-0.13258 0.20453,-0.1461 0.38271,-0.36592 0.57452,-0.53033 0.25506,-0.21862 0.56824,-0.38064 0.83969,-0.57453 0.20533,-0.14666 0.37531,-0.33119 0.57453,-0.48613 0.15382,-0.11964 0.34917,-0.21659 0.48613,-0.35356 0.0233,-0.0233 0.0168,-0.0701 0.0442,-0.0884 0.0245,-0.0163 0.0631,0.0152 0.0884,0 0.0536,-0.0322 0.0783,-0.10157 0.13259,-0.13258 0.0878,-0.0502 0.35698,-0.0601 0.44194,-0.0884 0.0198,-0.007 0.024,-0.0391 0.0442,-0.0442 0.0429,-0.0107 0.089,0.007 0.13258,0 0.55079,-0.0918 -0.47251,0.003 0.35356,-0.0884 0.0586,-0.007 0.11785,0 0.17677,0 0.0737,-0.0147 0.14688,-0.0318 0.22098,-0.0442 0.19013,-0.0317 0.60771,0.0994 0.7513,-0.0442 0.1031,0.059 0.19472,0.14559 0.30929,0.17686 0.0586,0.016 0.11664,-0.0356 0.17677,-0.0442 0.0189,-0.003 0.90274,-0.019 0.92808,0 0.34127,0.25596 0.41706,0.68866 0.66291,1.01647 0.16041,0.21388 0.33642,0.43833 0.48614,0.66291 0.0365,0.0548 0.0462,0.12617 0.0884,0.17678 0.034,0.0408 0.095,0.0508 0.13258,0.0884 0.0223,0.0223 0.21278,0.37728 0.22097,0.39775 0.0956,0.23913 0.0145,0.10186 0.0442,0.30936 0.0215,0.15073 0.1161,0.29354 0.13259,0.44194 0.0558,0.50271 0,1.03904 0.11048,1.87825 0.007,0.39035 -0.10388,0.43696 -0.19889,0.50822 -0.0263,0.0198 -0.0248,0.0618 -0.0442,0.0884 -0.23491,0.32301 -0.49529,0.66507 -0.7513,0.97227 -0.19362,0.23235 -0.41212,0.44726 -0.57452,0.70711 -0.0247,0.0395 -0.0171,0.0947 -0.0442,0.13258 -0.0484,0.0678 -0.12899,0.10851 -0.17678,0.17678 -0.0567,0.081 -0.0835,0.17936 -0.13258,0.26516 -0.0103,0.0181 -0.0295,0.0295 -0.0442,0.0442 -0.0442,0.0589 -0.0996,0.11089 -0.13258,0.17677 -0.0272,0.0543 -0.025,0.11916 -0.0442,0.17678 -0.0401,0.12033 -0.12749,0.23854 -0.17678,0.35355 -0.0367,0.0856 -0.0405,0.18528 -0.0884,0.26517 -0.0214,0.0357 -0.0697,0.0511 -0.0884,0.0884 -0.0132,0.0263 0.006,0.0596 0,0.0884 -0.0576,0.25912 -0.18801,0.48761 -0.22097,0.7513 -0.0411,0.32887 0,0.68379 0,1.01646 v 2.07713 1.81196 c 0,0.36237 -0.0563,0.79739 0.0442,1.14905 0.0401,0.14025 0.15557,0.29353 0.17677,0.44194 0.0462,0.323 -0.0916,0.037 0.0884,0.44194 0.0216,0.0485 0.0646,0.0851 0.0884,0.13259 0.12053,0.24106 0.19176,0.49437 0.26516,0.7513 0.0614,0.21493 0.27988,0.44188 0.35356,0.66291 0.0233,0.0699 -0.0179,0.14951 0,0.22097 0.0375,0.15001 0.27671,0.42084 0.35355,0.57452 0.0344,0.0687 0.01,0.19645 0.0442,0.26517 0.0567,0.11334 0.1643,0.19601 0.22098,0.30936 0.0417,0.0833 0.0467,0.18183 0.0884,0.26516 0.0186,0.0373 0.067,0.0527 0.0884,0.0884 0.024,0.04 0.0184,0.0938 0.0442,0.13258 0.008,0.0123 0.0376,-0.0132 0.0442,0 0.1629,0.3258 -0.0732,0.0593 0.13258,0.26517 0.81455,0.33846 0.87134,0.87795 1.06063,1.63514 0.0226,0.0904 0.0589,0.17678 0.0884,0.26517 0.0147,0.0442 0.0113,0.0996 0.0442,0.13258 0.0329,0.0329 0.0996,0.0112 0.13258,0.0442 0.0208,0.0208 -0.007,0.0598 0,0.0884 0.0813,0.32539 0.11469,0.87547 -0.0442,1.19325 -0.0548,0.10962 -0.31554,0.33918 -0.39774,0.44194 -0.17118,0.21397 -0.29238,0.46915 -0.48614,0.66291 -0.19816,0.19816 -0.46565,0.33307 -0.66291,0.53033 -0.11384,0.11383 -0.33401,0.46761 -0.44194,0.61872 -0.0428,0.0599 -0.0884,0.11785 -0.13259,0.17678 -0.0737,0.13258 -0.13464,0.27304 -0.22097,0.39774 -0.044,0.0636 -0.41288,0.45708 -0.48613,0.53033 -0.023,0.023 -0.19511,0.10779 -0.22097,0.0884 -0.17831,-0.13373 -0.34427,-0.379 -0.48614,-0.53033 -0.55378,-0.5907 -0.35406,-0.27759 -0.97227,-1.06066 -0.0408,-0.0517 -0.0479,-0.12477 -0.0884,-0.17678 -0.17279,-0.22215 -0.37551,-0.4197 -0.57452,-0.61871 -0.0104,-0.0104 -0.031,0.007 -0.0442,0 -0.0559,-0.028 -0.0781,-0.10194 -0.13258,-0.13259 -0.37323,-0.20994 -0.76205,-0.3912 -1.14905,-0.57452 -0.10139,-0.048 -0.21195,-0.0769 -0.30936,-0.13258 -0.32437,-0.18536 -0.28952,-0.3207 -0.61872,-0.13259 -0.0362,0.0207 -0.0589,0.0589 -0.0884,0.0884 -0.0589,0.0442 -0.11089,0.0996 -0.17677,0.13259 -0.0263,0.0132 -0.0639,-0.0163 -0.0884,0 -0.0693,0.0462 -0.11351,0.12254 -0.17678,0.17677 -0.0403,0.0346 -0.10312,0.0442 -0.13258,0.0884 -0.0337,0.0505 -0.017,0.12245 -0.0442,0.17678 -0.0329,0.0659 -0.0996,0.11089 -0.13259,0.17677 -0.10192,0.20386 -0.17429,0.45089 -0.26516,0.66292 -0.17745,0.41404 -0.37253,0.81662 -0.53033,1.23743 -0.0686,0.18287 -0.19583,0.35699 -0.26517,0.53033 -0.0226,0.0564 -0.0195,0.12128 -0.0442,0.17678 -0.11607,0.26116 -0.30591,0.55064 -0.44194,0.7955 -0.14804,0.26647 -0.32129,0.62745 -0.48614,0.88388 -0.051,0.0793 -0.12824,0.14008 -0.17678,0.22097 -0.12884,0.21474 -0.24155,0.43892 -0.35355,0.66291 -0.0208,0.0417 -0.0192,0.0933 -0.0442,0.13258 -0.0791,0.12429 -0.18608,0.22927 -0.26517,0.35356 -0.0943,0.14816 -0.01,0.11099 -0.0442,0.26516 -0.0867,0.39034 -0.0626,0.13752 -0.17678,0.44194 -0.11161,0.29762 -0.13812,0.62432 -0.22097,0.92808 -0.0209,0.0765 -0.0718,0.1434 -0.0884,0.22097 -0.03,0.14003 -0.0815,0.68313 -0.0442,0.83969 0.14345,0.60252 0.22149,0.54763 0.53033,0.97227 0.0387,0.0533 0.0455,0.12676 0.0884,0.17678 0.0479,0.0559 0.12469,0.0805 0.17677,0.13258 0.15922,0.15922 0.0955,0.1588 0.22097,0.30936 0.29081,0.34898 0.64614,0.85543 1.06066,1.14905 0.39009,0.27631 0.81082,0.50868 1.19325,0.7955 0.10865,0.0815 0.20215,0.18178 0.30936,0.26516 0.026,0.0202 0.0651,0.0209 0.0884,0.0442 0.13681,0.1368 0.20577,0.28655 0.30936,0.44194 0.2274,0.34109 -0.0641,-0.22055 0.17678,0.22097 0.0631,0.11567 0.10178,0.24522 0.17678,0.35355 0.0593,0.0857 0.15275,0.14225 0.22097,0.22097 0.48634,0.56117 0.19596,0.3569 0.66291,0.70711 0.12528,0.094 0.21759,0.23166 0.35355,0.30936 0.53496,0.30569 1.57012,0.57398 2.16552,0.30936 0.17951,-0.0798 0.31816,-0.26957 0.48613,-0.35356 0.41732,-0.20865 0.80261,-0.49087 1.19325,-0.7513 0.0715,-0.0476 0.15632,-0.076 0.22097,-0.13258 0.17982,-0.15734 0.13599,-0.21511 0.35355,-0.35355 0.0947,-0.0602 0.21087,-0.0789 0.30936,-0.13258 0.0647,-0.0353 0.11494,-0.0926 0.17678,-0.13259 0.18879,-0.12216 0.38742,-0.22882 0.57452,-0.35355 0.17421,-0.11614 0.30859,-0.28678 0.48614,-0.39775 0.025,-0.0156 0.0648,0.0177 0.0884,0 0.0148,-0.0111 0.29153,-0.3286 0.30935,-0.35355 0.19631,-0.27483 0.38254,-0.56542 0.57453,-0.83969 0.16621,-0.23745 0.43232,-0.50245 0.57452,-0.7513 0.16857,-0.29499 0.31706,-0.61416 0.70711,-0.66291 0.26572,-0.0332 1.31781,-0.0469 1.59099,0.0442 0.0815,0.0272 0.13856,0.10834 0.22097,0.13258 0.41293,0.12145 0.62019,0.002 0.88388,0.35356 0.009,0.0118 -0.007,0.031 0,0.0442 0.0974,0.19483 0.22031,0.37416 0.30936,0.57452 0.0511,0.11502 0.0763,0.24098 0.13259,0.35356 0.0238,0.0475 0.0716,0.0822 0.0884,0.13258 0.0283,0.085 0.0136,0.18095 0.0442,0.26516 0.076,0.20903 0.44408,0.77589 0.57452,0.92808 0.15005,0.17506 0.41399,0.23721 0.57453,0.39775 0.0521,0.0521 0.0805,0.12469 0.13258,0.17678 0.45954,0.45954 1.0032,0.82883 1.5026,1.23743 0.0961,0.0787 0.43779,0.26479 0.48614,0.39775 0.18487,0.50839 0.0884,1.68088 0.0884,2.2539 0,0.26308 -0.031,0.64518 0.0884,0.88389 -0.0147,0.14729 -0.0295,0.29458 -0.0442,0.44187 0.0147,0.0295 0.0406,0.0556 0.0442,0.0884 0.0114,0.10249 -0.0103,0.20675 0,0.30936 0.0217,0.21704 0.13682,0.44977 0.17678,0.66291 0.15033,0.80173 -0.0381,0.0109 0.0442,0.7513 0.13258,1.19324 0.0442,-0.0442 0.13258,0.66291 0.005,0.0439 -0.0107,0.0897 0,0.13259 0.0633,0.25324 0.14236,0.50237 0.22097,0.7513 0.0567,0.17961 0.17095,0.3469 0.22097,0.53033 0.0236,0.0865 0.0225,0.17823 0.0442,0.26516 0.0901,0.36049 0.26344,0.70018 0.35356,1.06066 0.14046,0.56187 -0.0437,-0.009 0.0884,0.48614 0.0842,0.31579 0.20142,0.65358 0.26516,0.97227 0.10544,0.52722 0.1724,1.10094 0.22097,1.63518 0.0411,0.45204 -0.0501,0.91898 0,1.37002 0.0182,0.1637 0.0702,0.32244 0.0884,0.48614 0.008,0.0732 -0.008,0.14776 0,0.22097 0.0134,0.12023 0.17392,0.56121 0.17678,0.57452 0.0154,0.072 -0.0104,0.14806 0,0.22098 0.0334,0.23346 0.23922,0.39159 0.35355,0.57452 0.0156,0.025 -0.0132,0.062 0,0.0884 0.25426,0.50852 0.0876,0.0539 0.30936,0.44194 0.0231,0.0404 0.0139,0.0972 0.0442,0.13258 0.0614,0.0716 0.16438,0.10132 0.22097,0.17678 0.0364,0.0486 0.0147,0.12368 0.0442,0.17678 0.14888,0.26799 0.35592,0.32685 0.53033,0.53033 0.0429,0.05 0.0462,0.12616 0.0884,0.17677 0.034,0.0408 0.0908,0.0556 0.13258,0.0884 0.3704,0.29103 0.72344,0.56725 1.10485,0.83969 0.25238,0.18027 0.49076,0.41168 0.7513,0.57452 0.025,0.0156 0.0634,-0.0156 0.0884,0 0.0976,0.061 0.1681,0.1592 0.26517,0.22097 0.0669,0.0426 0.15328,0.047 0.22097,0.0884 0.25452,0.15555 0.50311,0.32068 0.7513,0.48614 0.12257,0.0817 0.22179,0.19928 0.35355,0.26516 0.0802,0.0401 0.18096,0.0136 0.26517,0.0442 0.22918,0.0833 0.42703,0.27493 0.66291,0.35355 0.12885,0.0429 0.26745,0.0501 0.39775,0.0884 0.19223,0.0565 0.37893,0.13331 0.57452,0.17678 0.0719,0.016 0.14817,-0.0112 0.22097,0 0.12007,0.0185 0.23571,0.0589 0.35356,0.0884 0.29462,0.0295 0.59027,0.0501 0.88388,0.0884 0.22345,0.0292 0.43983,0.10072 0.66291,0.13259 0.11667,0.0167 0.23629,-0.0117 0.35356,0 0.54728,0.0547 -0.13035,0.0256 0.30936,0.0884 0.27438,0.0392 0.0816,-0.0547 0.35355,0.0442 0.10544,0.0383 0.20148,0.10176 0.30936,0.13258 0.31503,0.09 0.68974,0.0963 1.01646,0.13258 0.24943,0.0277 0.50297,0.0332 0.75131,0.0884 0.19871,0.0442 0.4104,0.10283 0.61871,0.13258 0.19062,0.0272 0.39123,-0.0475 0.57453,0.0442 0.0373,0.0186 0.0589,0.0589 0.0884,0.0884 0.13258,0.0295 0.26765,0.0494 0.39774,0.0884 0.11696,0.0351 0.27036,0.20854 0.39775,0.26516 0.18303,0.0813 0.38471,0.21093 0.57453,0.26517 0.0722,0.0206 0.15122,0.0163 0.22097,0.0442 0.0559,0.0223 -0.0307,0.51678 -0.0884,0.57452 -0.0376,0.0376 -0.0861,0.0626 -0.13258,0.0884 -0.14147,0.0786 -0.30048,0.18657 -0.44195,0.26517 -0.2072,0.11511 -0.44934,0.16809 -0.66291,0.26516 -0.0782,0.0356 -0.14414,0.0942 -0.22097,0.13258 -0.2592,0.12961 -0.55537,0.20831 -0.83969,0.26517 -0.12347,0.1045 -0.26694,0.018 -0.39775,0.0442 -0.24935,0.0499 -0.49477,0.1554 -0.7513,0.17678 -0.28484,0.0237 -0.55746,0.0178 -0.83969,0.0884 -0.0202,0.005 -0.0249,0.0365 -0.0442,0.0442 -0.1428,0.0571 -0.29794,0.0786 -0.44194,0.13259 -0.31577,0.11841 -0.64862,0.25836 -0.97227,0.35355 -0.10914,0.0321 -0.53833,0.075 -0.61872,0.0884 -0.28722,0.0479 -0.62251,0.13447 -0.88389,0.26516 -0.13431,0.0672 -0.66173,0.41091 -0.7513,0.53033 -0.33527,0.44703 0.12228,-0.1596 -0.13258,0.26517 -0.0214,0.0357 -0.0537,0.0653 -0.0884,0.0884 -0.0123,0.008 -0.0387,-0.0137 -0.0442,0 -0.0279,0.0697 -0.0178,0.15063 -0.0442,0.22097 -0.0432,0.11511 -0.25335,0.50452 -0.30936,0.57452 -0.039,0.0488 -0.10463,0.0767 -0.13258,0.13258 -0.0198,0.0395 0.009,0.0892 0,0.13259 -0.006,0.0323 -0.0362,0.0564 -0.0442,0.0884 -0.032,0.12806 0,0.30822 0,0.44195 0.23492,0.32639 0.21129,0.46582 0.44191,0.79527 0.16896,0.24137 0.35355,0.47141 0.53033,0.70711 0.0295,0.0393 0.3556,0.41991 0.39775,0.48613 0.053,0.0834 0.0759,0.18421 0.13258,0.26517 0.0478,0.0683 0.12678,0.11011 0.17678,0.17678 0.0395,0.0527 0.0506,0.1228 0.0884,0.17677 0.066,0.0943 0.15194,0.17312 0.22098,0.26517 0.0673,0.0897 0.0781,0.21128 0.13258,0.30936 0.0358,0.0644 0.093,0.11463 0.13258,0.17677 0.0638,0.1002 0.10552,0.21435 0.17678,0.30936 0.0198,0.0264 0.0686,0.0178 0.0884,0.0442 0.0713,0.095 0.11567,0.20751 0.17677,0.30936 0.14509,0.2418 0.0344,0.0324 0.26517,0.30936 0.12858,0.1543 0.21319,0.42487 0.39774,0.53033 0.0689,0.0394 0.15163,0.0499 0.22098,0.0884 0.0644,0.0358 0.11089,0.0996 0.17677,0.13259 0.22689,0.11344 0.72953,0.24867 0.97227,0.30936 0.28188,0.0705 0.71372,0.0418 1.01647,0.0884 0.2829,0.0435 0.54809,0.11724 0.83969,0.13259 0.90851,0.0478 1.83053,0 2.74004,0 0.52868,0 1.06279,-0.0196 1.59099,0 0.33882,0.0147 0.67764,0.0295 1.01646,0.0442 0.11786,0.0147 0.23497,0.0376 0.35356,0.0442 0.43794,0.0243 0.88694,0 1.32582,0 h 2.69585 c 0.96244,0.11379 1.91695,-0.12546 2.87259,-0.22103 0.7043,-0.0704 1.47532,0.0267 2.16551,-0.0884 0.51562,-0.0859 1.04835,-0.24438 1.5468,-0.39775 0.19173,-0.059 0.38357,-0.16641 0.57452,-0.22097 0.0425,-0.0121 0.0912,0.0155 0.13259,0 0.16085,-0.0603 0.29068,-0.18372 0.44194,-0.26517 0.23578,-0.12696 0.53824,-0.2678 0.79549,-0.35355 0.12136,-0.0404 0.27181,-0.0569 0.39775,-0.0884 0.10665,-0.0267 0.31568,-0.11855 0.44194,-0.13258 0.43089,-0.0479 0.89292,0 1.32583,0 0.35409,0 0.94956,-0.0664 1.28163,0 0.41168,0.0823 0.61509,0.39807 0.92808,0.66291 0.0405,0.0343 0.098,0.0481 0.13258,0.0884 0.1955,0.22808 0.26516,0.59762 0.26516,0.88388 0,0.35572 0.006,0.66213 -0.0884,1.01647 -0.0268,0.10037 -0.22781,0.39836 -0.26517,0.44194 -0.0214,0.025 -0.0667,0.0194 -0.0884,0.0442 -0.36641,0.41876 -0.10265,0.17618 -0.30936,0.44195 -0.26154,0.33626 -0.53337,0.63852 -0.88388,0.88388 -0.17775,0.12443 -0.29135,0.16204 -0.48614,0.26516 -0.66151,0.35022 -0.87951,0.44434 -1.63518,0.61872 -0.60289,0.13913 1.07606,-0.11305 -0.66291,0.17678 -0.0872,0.0145 -0.17781,-0.0134 -0.26517,0 -0.16601,0.0255 -0.32409,0.0884 -0.48613,0.13258 -0.28318,0.0772 -0.55584,0.19047 -0.83969,0.26517 -0.10074,0.0265 -0.20722,0.0238 -0.30936,0.0442 -0.27504,0.055 -0.51895,0.12147 -0.7955,0.17678 -0.79798,0.15959 -1.62687,0.25308 -2.43068,0.35355 -0.16145,0.0202 -0.32629,0.0138 -0.48613,0.0442 -0.15109,0.0288 -0.29208,0.098 -0.44195,0.13258 -0.2668,0.0616 -0.5721,-4e-4 -0.83968,0.0442 -0.0783,0.013 -0.14401,0.0691 -0.22098,0.0884 -0.20211,0.0505 -0.41534,0.0432 -0.61871,0.0884 -0.25115,0.0558 -0.50087,0.11785 -0.7513,0.17678 -0.2088,0.0491 -0.40611,0.14842 -0.61872,0.17677 -0.71641,0.0955 -1.44754,0.18539 -2.16552,0.26517 -0.0879,0.01 -0.17726,-0.009 -0.26516,0 -0.34751,0.0366 -0.80041,0.0896 -1.14905,0.17677 -0.28889,0.0722 -0.22254,0.0889 -0.48614,0.17678 -0.26108,0.087 -0.53306,0.1381 -0.79549,0.22097 -0.24,0.0758 -0.22497,0.11874 -0.48614,0.17678 -0.0431,0.01 -0.0894,-0.01 -0.13258,0 -0.27329,0.0607 -0.49383,0.21573 -0.7513,0.30936 -0.0706,0.0257 -0.14971,0.0204 -0.22097,0.0442 -0.12769,0.0426 -0.28447,0.16433 -0.39775,0.22097 -0.19091,0.0955 -0.48535,0.0477 -0.61872,0.13259 -0.61566,0.39178 -0.12906,0.1386 -0.39775,0.35355 -0.22442,0.17954 -0.36014,0.23772 -0.53033,0.44194 -0.15088,0.18106 -0.25098,0.43002 -0.39774,0.61872 -0.0384,0.0493 -0.10158,0.0783 -0.13259,0.13258 -0.0301,0.0527 -0.0229,0.11991 -0.0442,0.17678 -0.1305,0.34801 -0.27911,0.68842 -0.35355,1.06066 -0.005,0.0236 -0.002,0.61582 0,0.61872 0.0703,0.10544 0.14731,0.20624 0.22097,0.30936 0.0484,0.0678 0.13951,0.10224 0.17677,0.17677 0.0132,0.0263 -0.0109,0.061 0,0.0884 0.0274,0.0684 0.10523,0.10839 0.13259,0.17678 0.0226,0.0564 0.0216,0.12038 0.0442,0.17677 0.0366,0.0915 0.16159,0.22623 0.22097,0.30936 0.13086,0.1832 0.30936,0.2968 0.30936,0.53033 -0.0294,0.1031 -0.0751,0.20291 -0.0884,0.30931 -0.003,0.0207 0.0349,0.0256 0.0442,0.0442 0.0417,0.0833 0.0404,0.18527 0.0884,0.26516 0.0214,0.0357 0.067,0.0527 0.0884,0.0884 0.024,0.0399 0.0184,0.0938 0.0442,0.13258 0.0347,0.052 0.0951,0.0826 0.13258,0.13259 0.009,0.0118 -0.009,0.0324 0,0.0442 0.28359,0.37812 0.64315,0.69228 1.01647,0.97227 0.0589,0.0442 0.0589,0.0884 0.13258,0.13258 0.0399,0.024 0.0926,0.0202 0.13258,0.0442 0.11117,0.0667 0.19141,0.14234 0.30936,0.22097 0.0803,0.0535 0.30936,0.11243 0,0.22096 -0.30935,0.27989 -0.28805,0.51656 -0.30935,0.75129 -0.0306,0.33619 -0.32525,0.64859 -0.35355,1.01647 -0.0102,0.13219 0.007,0.26534 0,0.39774 -0.003,0.0624 -0.0851,0.73309 -0.0884,0.7955 -0.0393,0.74625 0,1.50583 0,2.2539 v 2.91682 0.88388 c 0,0.14731 0.0423,0.30084 0,0.44194 -0.0829,0.27637 -0.22208,0.5633 -0.30936,0.83969 -0.0987,0.31254 -0.11977,0.58028 -0.22097,0.88389 -0.0208,0.0625 -0.0755,0.11217 -0.0884,0.17677 -0.009,0.0433 0.007,0.089 0,0.13258 -0.0488,0.29303 -0.13524,0.59812 -0.22097,0.88389 -0.11236,0.37452 -0.38311,0.67432 -0.48614,1.06066 -0.0534,0.20018 -0.0248,0.33956 -0.0884,0.53033 -0.0208,0.0625 -0.0653,0.11509 -0.0884,0.17678 -0.0962,0.25656 -0.13446,0.53594 -0.22097,0.79549 -0.0796,0.23881 -0.18556,0.46829 -0.26517,0.70711 -0.10651,0.31954 -0.16944,0.66445 -0.30936,0.97227 -0.0818,0.17993 -0.20266,0.34283 -0.26516,0.53033 -0.0238,0.0713 -0.0236,0.14874 -0.0442,0.22097 -0.0747,0.26143 -0.18016,0.49628 -0.26516,0.7513 -0.0924,0.1646 -0.079,0.35617 -0.13258,0.53033 -0.037,0.1203 -0.0884,0.2357 -0.13259,0.35355 -0.0442,0.19151 -0.0786,0.38555 -0.13258,0.57453 -0.0346,0.12102 -0.098,0.23253 -0.13258,0.35355 -0.10739,0.37585 -0.1703,0.76958 -0.26517,1.14905 -0.0477,0.19067 -0.10269,0.38027 -0.13258,0.57452 -0.0247,0.16083 0.007,0.33178 -0.0442,0.48614 -0.0502,0.15052 -0.12661,0.29142 -0.17678,0.44194 -0.0237,0.0713 -0.0163,0.15123 -0.0442,0.22097 -0.0319,0.0798 -0.10322,0.14025 -0.13258,0.22097 -0.0306,0.0842 -0.0175,0.17964 -0.0442,0.26517 -0.12683,0.40583 -0.34267,0.77373 -0.53033,1.14905 -0.0502,0.10034 -0.0789,0.21086 -0.13258,0.30936 -0.14717,0.26979 -0.66292,0.80217 -0.66292,1.10485 0.58551,0.60022 -0.37599,0.24432 -0.44187,0.44194 -0.009,0.0279 0.0109,0.061 0,0.0884 -0.0519,0.0778 -0.0986,0.13604 -0.13258,0.22097 -0.0467,0.11686 -0.0688,0.24507 -0.13258,0.35356 -0.43789,0.7444 -0.16478,0.11372 -0.48614,0.61871 -0.053,0.0834 -0.0795,0.1818 -0.13258,0.26517 -0.0506,0.0796 -0.12577,0.14162 -0.17678,0.22097 -0.25719,0.40008 -0.43232,0.84669 -0.61872,1.28163 -0.0442,0.10312 -0.0884,0.20624 -0.13258,0.30936 -0.0442,0.13258 -0.0807,0.26799 -0.13258,0.39775 -0.1028,0.25698 -0.22978,0.50374 -0.35356,0.7513 -0.009,0.0186 -0.0382,0.0242 -0.0442,0.0442 -0.039,0.13009 -0.0396,0.27099 -0.0884,0.39775 -0.0264,0.0688 -0.0973,0.11211 -0.13258,0.17678 -0.14326,0.26264 -0.23912,0.56504 -0.35355,0.83969 -0.16018,0.38442 -0.005,-0.0344 -0.22098,0.35355 -0.0295,0.0737 -0.0589,0.14731 -0.0884,0.22097 0,0.0442 0.0155,0.0912 0,0.13258 -0.12152,0.32405 -0.39417,0.64466 -0.57453,0.92808 -0.025,0.0393 -0.0192,0.0933 -0.0442,0.13258 -0.29569,0.46466 -0.43498,0.39166 -0.7955,0.70711 -0.14455,0.12648 -0.20003,0.32821 -0.30936,0.48614 -0.14426,0.20838 -0.29462,0.41248 -0.44194,0.61871 -0.28622,0.40072 -0.6109,0.78377 -0.88388,1.19325 -0.29313,0.0786 -0.1578,0.36439 -0.26517,0.53033 -0.13768,0.21279 -0.29882,0.40954 -0.44194,0.61872 -0.12333,0.18025 -0.39865,0.72072 -0.44194,0.79549 -0.36605,0.63227 0.0106,-0.0435 -0.35355,0.44194 -0.15056,0.20075 -0.25004,0.45612 -0.39775,0.66292 l -0.30936,0.39774 c -0.0737,0.0737 -0.15661,0.13907 -0.22097,0.22097 -0.19964,0.25409 -0.19179,0.36182 -0.39775,0.53033 -0.35619,0.29143 -0.69738,0.60134 -1.06066,0.88389 -0.56776,0.44159 -1.17731,0.82668 -1.76777,1.23743 -0.38241,0.26603 -0.76144,0.53709 -1.14904,0.7955 -0.34884,0.23256 -0.76078,0.40722 -1.06066,0.70711 -0.0667,0.0667 -0.0959,0.17244 -0.17678,0.22097 -0.16733,0.1004 -0.19218,0.0569 -0.30936,0.22097 -0.0383,0.0536 -0.0467,0.12579 -0.0884,0.17677 -0.0924,0.11287 -0.21247,0.20037 -0.30936,0.30936 -0.0219,0.0246 -0.0209,0.0651 -0.0442,0.0884 -0.084,0.084 -0.20865,0.11383 -0.30936,0.17678 -0.17162,0.10726 -0.37442,0.22883 -0.53033,0.35355 -0.4362,0.34896 -0.84457,0.81746 -1.23744,1.19324 -0.79257,0.66048 0.17969,-0.17968 -0.44194,0.44195 -0.0233,0.0233 -0.0651,0.0209 -0.0884,0.0442 -0.095,0.0388 -0.0718,0.16023 -0.13258,0.22097 -0.0376,0.0376 -0.095,0.0508 -0.13258,0.0884 -0.0699,0.0699 -0.0759,0.18421 -0.13259,0.26516 -0.066,0.0943 -0.1452,0.17858 -0.22097,0.26517 -0.0274,0.0314 -0.0589,0.0589 -0.0884,0.0884 -0.0737,0.0737 -0.15238,0.14258 -0.22098,0.22097 -0.035,0.04 -0.0469,0.0994 -0.0884,0.13258 -0.0364,0.0291 -0.0953,0.0162 -0.13259,0.0442 -0.071,0.0533 -0.2049,0.33348 -0.22097,0.39774 -0.036,0.14409 0,0.37799 -0.0883,0.97222 -0.72126,-0.0498 -1.92982,0.081 -2.65165,-0.17678 -0.45438,-0.16228 -0.85758,-0.45089 -1.28163,-0.66291 -0.0751,-0.0376 -0.0686,-0.15547 -0.13258,-0.17678 -0.028,-0.009 -0.062,0.0132 -0.0884,0 -0.0132,-0.007 0.0104,-0.0338 0,-0.0442 -0.0315,-0.0315 -0.24237,-0.16701 -0.26516,-0.17678 -0.19387,-0.0831 -0.41341,-0.0843 -0.61872,-0.13258 -0.1635,-0.0385 -0.31986,-0.10883 -0.48614,-0.13259 -0.16976,-0.0242 -0.35865,0 -0.53033,0 -0.0737,0 -0.1492,-0.0166 -0.22097,0 -0.12264,0.0283 -0.23415,0.0928 -0.35355,0.13259 -0.17287,0.0576 -0.35278,0.0916 -0.53033,0.13258 -0.456,0.10523 -0.9142,0.20806 -1.37002,0.30936 -0.0288,0.006 -0.061,-0.0109 -0.0884,0 -0.0986,0.0394 -0.16752,0.13493 -0.26516,0.17677 -0.0558,0.0239 -0.1247,0.013 -0.17678,0.0442 -0.20893,0.12535 -0.36787,0.36214 -0.57453,0.48613 -0.0399,0.024 -0.0909,0.0234 -0.13258,0.0442 -0.0186,0.009 -0.0295,0.0295 -0.0442,0.0442 -0.10312,0.0589 -0.20124,0.12763 -0.30936,0.17678 -0.41863,0.19029 -0.89863,0.22687 -1.32583,0.39775 -0.2746,0.10984 -0.49061,0.2674 -0.7513,0.39774 -0.34992,0.17496 -0.38516,0.13351 -0.79549,0.30936 -0.0488,0.0209 -0.0822,0.0716 -0.13259,0.0884 -0.15338,0.0511 -0.51587,0.15287 -0.7071,0.17678 -0.26517,0.0331 -0.1591,-0.0265 -0.39775,0 -0.65634,0.0729 -1.3256,0.0442 -1.98874,0.0442 -0.60949,0 -1.24602,0.0407 -1.85615,0 -0.14732,-0.0147 -0.29463,-0.0295 -0.44194,-0.0442 -0.0295,-0.0147 -0.0559,-0.0388 -0.0884,-0.0442 -0.15984,-0.0266 -0.32409,0 -0.48614,0 h -1.28163 c -0.3306,0 -0.70597,-0.0358 -1.01647,0.0884 -0.5043,0.20172 -0.95241,0.51329 -1.41421,0.7955 -0.0906,0.0554 -0.17872,0.11503 -0.26516,0.17677 -0.017,0.0121 -0.0238,0.0401 -0.0442,0.0442 -0.0578,0.0116 -0.12034,-0.0169 -0.17678,0 -0.26578,-0.18996 -0.19908,0.13267 -0.30935,0.17678 -0.17302,0.0692 -0.35356,0.11785 -0.53033,0.17677 -0.0916,0.0942 -0.20921,0.0156 -0.30936,0.0442 -0.0634,0.0181 -0.11428,0.0675 -0.17678,0.0884 -0.028,0.009 -0.0598,-0.007 -0.0884,0 -0.18579,0.0465 -0.34865,0.16042 -0.53033,0.22098 -0.0279,0.009 -0.0589,0 -0.0884,0 -0.2357,0.0737 -0.47424,0.13878 -0.7071,0.22097 -0.0196,0.007 -0.0244,0.0376 -0.0442,0.0442 -0.46626,0.15542 -0.94912,0.27584 -1.41421,0.44194 -0.062,0.0222 -0.11428,0.0676 -0.17678,0.0884 -0.52953,0.17651 0.0102,-0.0285 -0.35355,0.0442 -0.0969,0.0194 -0.17142,0.10133 -0.26517,0.13258 -0.028,0.009 -0.061,-0.0109 -0.0884,0 -0.51338,0.20535 0.50722,-0.0423 -0.44194,0.17677 -0.33939,0.0783 -0.71223,0.1893 -1.06066,0.22098 -0.7292,0.0663 0.0332,-0.0331 -0.39774,0 -0.33404,0.0257 -0.71922,0.0821 -1.06067,0.0442 -0.23095,-0.0257 -0.60224,-0.0479 -0.79549,-0.17678 -0.0785,-0.0523 -0.14064,-0.12734 -0.22097,-0.17677 -0.26703,-0.16433 -0.5704,-0.28037 -0.83969,-0.44195 -0.16222,-0.0973 -0.31737,-0.22497 -0.48614,-0.30936 -0.0264,-0.0132 -0.062,0.0132 -0.0884,0 -0.0132,-0.007 0.0132,-0.0376 0,-0.0442 -0.0264,-0.0132 -0.061,0.0109 -0.0884,0 -0.0684,-0.0274 -0.1069,-0.10929 -0.17678,-0.13258 -0.11524,-0.0384 -0.23915,-0.0475 -0.35355,-0.0884 -0.48138,-0.17192 -0.0891,-0.0926 -0.39775,-0.17678 -0.27466,-0.0749 -0.57033,-0.13118 -0.83969,-0.22097 -0.24202,-0.0807 -0.51494,-0.27379 -0.70711,-0.44194 -0.0627,-0.0549 -0.10442,-0.13543 -0.17677,-0.17678 -0.0384,-0.0219 -0.0977,0.0271 -0.13259,0 -0.2641,-0.20541 -0.23131,-0.29988 -0.39774,-0.53033 -0.14732,-0.1915 -0.29463,-0.38301 -0.44195,-0.57452 0,-0.0442 0.0179,-0.0922 0,-0.13258 -0.24194,-0.54438 -0.12151,-0.007 -0.26516,-0.48614 -0.0258,-0.0858 -0.0159,-0.18015 -0.0442,-0.26516 -0.0251,-0.0753 -0.0712,-0.14353 -0.0884,-0.22097 -0.0192,-0.0863 0.049,-0.19163 0,-0.26517 -0.0183,-0.0274 -0.062,-0.0244 -0.0884,-0.0442 -0.0333,-0.025 -0.0573,-0.0607 -0.0884,-0.0884 -0.42088,-0.37412 -0.30675,-0.23856 -0.79549,-0.35356 -0.26257,0.17443 -0.34956,-0.13158 -0.53033,-0.17677 -0.31725,-0.0793 -0.57298,-0.13046 -0.92808,-0.17678 -0.46923,-0.0612 -0.9511,-0.0775 -1.41422,-0.17678 -0.13139,-0.0281 -0.61746,-0.13216 -0.7513,-0.17677 -0.014,-0.005 0.0143,-0.0406 0,-0.0442 -0.11147,-0.0279 -0.45605,-0.0296 -0.57452,0 -0.44347,0.11087 -0.39756,0.21202 -0.92808,0.53033 -0.18687,0.11213 -0.41711,0.19796 -0.61872,0.26517 -0.0625,0.0208 -0.13019,0.0418 -0.17677,0.0884 -0.0104,0.0104 0.0104,0.0338 0,0.0442 -0.0309,0.0309 -0.17545,0.0656 -0.22097,0.0884 -0.0565,0.0282 -0.0444,0.0886 -0.0884,0.13258 -0.13253,0.0147 -0.26875,0.01 -0.3976,0.0441 -0.27189,0.0725 -0.18436,0.11332 -0.35355,0.17677 -0.34659,0.12997 -0.67275,0.30974 -1.01647,0.44194 -0.13044,0.0502 -0.26874,0.0788 -0.39775,0.13259 -0.049,0.0204 -0.0829,0.0697 -0.13258,0.0884 -0.0975,0.0366 -0.21264,0.005 -0.30936,0.0442 -0.17134,0.0685 -0.34243,0.20429 -0.35355,0.48614 -3.73253,-1.23716 -4.16291,-1.08476 -7.07107,-2.96099 z"
         id="path92" />
    </g>
  </g>
</svg>
