<?xml version="1.0" encoding="UTF-8" standalone="no"?>
<!-- Created with Inkscape (http://www.inkscape.org/) -->

<svg
   version="1.1"
   id="svg1"
   width="143.83723"
   height="178.80963"
   viewBox="0 0 143.83723 178.80963"
   xmlns="http://www.w3.org/2000/svg"
   xmlns:svg="http://www.w3.org/2000/svg">
  <defs
     id="defs1" />
  <g
     id="layer1"
     style="display:inline"
     transform="translate(-764.91272,-311.74569)">
    <g
       id="layer3"
       style="display:inline;fill:#ffffff;fill-opacity:1;stroke:none;stroke-opacity:1">
      <path
         style="fill:#ffffff;fill-opacity:1;stroke:none;stroke-width:1.3;stroke-linecap:round;stroke-opacity:1"
         d="m 887.68415,432.66095 -1.23743,18.208 -6.01041,14.23052 -15.99829,20.85965 -8.39689,-1.23743 -3.88909,1.59099 -9.01561,0.7071 -11.31371,3.53554 -4.15425,-0.61872 -0.88389,-2.65165 -6.54073,-2.74004 -4.5962,1.41421 -14.67246,-8.75044 -9.104,-6.89429 -6.98268,-11.04855 0.88388,-9.19239 -7.07107,-8.39689 1.50261,-2.12132 3.71231,0.61872 4.24264,-5.21491 -0.17678,-8.30851 -2.47487,-0.88388 -3.62393,-4.86136 -0.0884,-6.98268 6.36396,-0.61872 10.6066,6.36396 4.15425,-0.61871 -0.61872,-7.68979 -2.20971,-3.8007 0.35356,-3.27037 3.44714,-1.14905 6.8059,5.92202 3.62393,-0.97227 0.17677,-4.41942 -2.29809,-3.44714 -7.51301,-4.15425 -2.2981,-1.50261 -1.67938,-8.04334 -3.09359,-1.67937 -2.03293,-1.85616 -12.28598,-3.53553 -4.33103,-4.24264 -5.21491,-2.56327 -3.53554,2.12132 -2.56326,-1.76776 0.53033,-4.06587 3.71231,-1.06066 4.68458,0.44195 2.56327,-4.5962 -13.08148,-10.69499 -1.14905,-15.82151 5.92202,-6.71752 3.71231,1.32583 0.17678,2.20971 -1.85616,2.56326 0.17678,4.33103 3.97747,6.98268 6.45235,5.65685 4.68459,-0.35355 0.26516,-4.41942 -9.36916,-8.48528 4.86136,-2.03293 9.01561,8.48528 3.88908,-0.44194 0.26517,-1.67938 -1.94454,-1.23744 -6.62913,-7.6014 2.38648,-1.59099 9.36917,8.30851 4.41942,0.17678 0.35355,-2.65166 -1.14905,-3.09359 -3.44714,-2.74004 v -1.94454 l -8.75045,-6.98268 0.17678,-1.32582 19.97576,-10.16466 14.84924,-2.03294 5.03814,0.0884 5.48008,2.38649 4.5078,-2.47488 8.83884,0.26517 1.67938,5.12652 -6.0988,1.32583 -7.68979,6.8059 -0.97227,4.5962 5.39169,6.98267 -1.23743,7.86657 0.7071,6.62912 3.44715,2.56327 12.72792,-6.80591 3.18198,1.94455 v 3.53553 l -1.94454,3.18198 0.79549,10.6066 1.5026,4.06587 v 2.03293 l -3.97747,1.94454 -4.06587,-2.74004 -4.06586,7.6014 4.24264,6.0988 4.94975,1.06066 3.27037,-1.06066 1.32582,-3.53554 2.91682,-0.79549 3.44714,4.94974 2.40511,15.25809 4.8125,5.125 10.5625,1.3125 0.0625,1.4375 -1.0625,1.6875 -5.25,1.5625 -1.125,2.5 5,4.125 21.6875,-1 1.5625,1.875 -0.625,1.75 -21.375,6.6875 v 2 z"
         id="path1" />
    </g>
  </g>
</svg>
