<?xml version="1.0" encoding="UTF-8" standalone="no"?>
<!-- Created with Inkscape (http://www.inkscape.org/) -->

<svg
   version="1.1"
   id="svg1"
   width="221.20653"
   height="94.089348"
   viewBox="0 0 221.20653 94.089348"
   xmlns="http://www.w3.org/2000/svg"
   xmlns:svg="http://www.w3.org/2000/svg">
  <defs
     id="defs1" />
  <g
     id="layer1"
     style="display:inline"
     transform="translate(-827.66847,-596.26777)">
    <g
       id="layer4"
       style="display:inline;fill:#ffffff;fill-opacity:1;stroke:none;stroke-opacity:1">
      <path
         style="fill:#ffffff;fill-opacity:1;stroke:none;stroke-width:1.3;stroke-linecap:round;stroke-opacity:1"
         d="m 830.85045,598.61007 9.59013,-0.48614 1.45841,2.12132 2.34229,0.44195 8.44109,7.86656 25.63262,-0.53033 3.66812,2.20971 32.04077,3.40295 16.17507,3.84489 17.14734,1.28163 31.37786,-1.01646 8.97142,-4.41942 2.78423,-2.20971 3.27037,-0.97227 6.85013,-9.19239 2.961,2.34229 9.8995,-6.98268 3.1819,-0.0442 19.3573,12.4822 10.25,14.25 0.125,7 2.25,3.125 0.25,3.75 -18.3111,0.0514 -15.0702,7.6014 -8.4853,0.39774 -21.47835,25.0581 -12.46275,-0.44194 -12.81631,-2.25391 -8.61787,2.38649 -6.8501,3.53553 -0.7071,2.43068 -3.00521,1.90035 -9.28077,2.20971 -14.31891,-1.94454 -2.25391,-0.70711 -5.65685,0.83969 -3.57973,1.76777 -12.72792,10.65079 h -5.3033 l -4.15425,-4.552 -11.66727,-3.84489 -8.22011,-0.57452 -4.24264,-8.52948 1.10485,-5.21491 4.50781,-12.59534 -3.22618,-6.89429 -2.69584,-4.94975 -17.58928,-6.49654 -4.41942,-4.11006 -3.13779,-4.77297 0.22098,-4.11006 -6.76171,-10.82757 z"
         id="path2" />
    </g>
  </g>
</svg>
