<?xml version="1.0" encoding="UTF-8" standalone="no"?>
<!-- Created with Inkscape (http://www.inkscape.org/) -->

<svg
   version="1.1"
   id="svg2"
   width="221.37744"
   height="95.076393"
   viewBox="0 0 221.37744 95.076393"
   xmlns="http://www.w3.org/2000/svg"
   xmlns:svg="http://www.w3.org/2000/svg">
  <defs
     id="defs6">
    <linearGradient
       id="swatch77">
      <stop
         style="stop-color:#e2c69e;stop-opacity:1;"
         offset="0"
         id="stop77" />
    </linearGradient>
  </defs>
  <g
     id="layer66"
     style="display:inline"
     transform="translate(-827.86438,-596.3641)">
    <g
       id="layer47"
       style="display:inline">
      <path
         style="display:inline;fill:#969696;fill-opacity:1;stroke:none;stroke-opacity:1"
         d="m 830.46875,602.53907 c -0.0291,0.0582 -0.13708,-0.0291 -0.19531,0 -0.12905,0.0645 -0.33107,0.46682 -0.39062,0.58593 -0.12447,0.24894 0.0678,0.70543 0,0.97657 -0.1034,0.4136 -0.48254,0.75827 -0.58594,1.17187 -0.10882,0.43528 -0.046,0.52854 -0.19531,0.97656 -0.22224,0.66671 0.0356,1.45568 -0.19532,2.14844 -0.0549,0.16472 0.0771,0.4317 0,0.58594 -0.20607,0.41214 -0.46488,0.88296 -0.58593,1.36719 -0.0474,0.18948 0.0618,0.40064 0,0.58593 -0.47158,1.41473 0.0563,-0.30793 -0.39063,0.58594 -0.13355,0.2671 -0.025,2.80474 0,2.92969 0.17602,0.88008 0.30783,0.69845 0.78125,1.17187 0.27853,0.27853 0.1618,0.67147 0.39063,0.97657 0.35683,0.47577 0.36114,-0.059 0.58593,0.39062 0.0291,0.0582 0,0.13021 0,0.19531 0,0.13021 -0.0582,0.27417 0,0.39063 0.0651,0.13021 0.32552,0.0651 0.39063,0.19531 0.50116,1.00233 0.90897,2.05832 1.5625,2.92969 0.55818,0.74424 1.23051,1.35748 1.75781,2.14844 0.30986,0.46478 0.80841,1.25334 0.97656,1.75781 0.0412,0.12352 -0.0582,0.27416 0,0.39062 0.14558,0.29116 0.40537,0.5104 0.58594,0.78125 0.54215,0.81323 0.83378,2.51616 0.97656,3.51563 0.0485,0.33964 -0.005,0.87153 0.19532,1.17187 0.1247,0.18706 2.40622,2.86327 2.53906,2.92969 0.11837,0.0592 0.50409,0.11347 0.58594,0.19531 1.31697,1.31698 -0.54437,0.0208 0.97656,0.78125 0.81284,0.40642 -0.2088,-0.0135 0.19531,0.39063 0.37314,0.37313 1.10528,0.74795 1.5625,0.97656 0.75589,0.37795 1.52746,0.70447 2.34375,0.97656 0.41146,0.13716 0.95126,0.0567 1.36719,0.19532 0.0874,0.0291 0.10599,0.17298 0.19531,0.19531 0.18948,0.0474 0.40065,-0.0618 0.58594,0 0.0618,0.0206 -0.046,0.14927 0,0.19531 0.10294,0.10294 0.25252,0.14928 0.39062,0.19531 0.48679,0.16226 1.10113,0.0415 1.5625,0.19532 0.28472,0.0949 0.69185,0.49103 0.97657,0.58593 0.58593,0.19532 0.19531,-0.0977 0.58593,0 0.28247,0.0706 0.49879,0.32001 0.78125,0.39063 0.6513,0.16282 2.00455,0.0171 2.53907,0.19531 0.0873,0.0291 0.11296,0.15414 0.19531,0.19531 0.16414,0.0821 0.66774,0.0818 0.78125,0.19532 0.46115,0.46115 -1.0894,-0.10272 0.39062,0.39062 0.12353,0.0412 0.27417,-0.0582 0.39063,0 0.35957,0.17979 0.0311,0.40615 0.39062,0.58594 0.16704,0.0835 0.4189,0.11179 0.58594,0.19531 0.005,0.003 1.09338,1.28869 1.17188,1.36719 0.046,0.046 0.13708,-0.0291 0.19531,0 0.48372,-0.10828 0.49009,0.44036 0.78125,0.58594 0.53406,0.26703 1.2178,0.51124 1.75781,0.78125 0.1647,0.0823 0.22592,0.30827 0.39063,0.39062 0.0582,0.0291 0.14927,-0.046 0.19531,0 0.42319,0.42319 0.0497,2.15171 0.19531,2.73438 0.0706,0.28246 0.33353,0.49574 0.39063,0.78125 0.0443,0.22142 -0.0847,0.72241 0,0.97656 0.17996,0.53989 1.26928,1.82275 1.75781,2.14844 0.0542,0.0361 0.14928,-0.046 0.19531,0 0.046,0.046 0,0.1302 0,0.19531 0.0651,0.13021 0.0742,0.30987 0.19531,0.39062 0.10834,0.0722 0.27417,-0.0582 0.39063,0 0.0582,0.0291 -0.0291,0.13708 0,0.19532 0.14289,0.28578 0.61064,0.83065 0.78125,1.17187 0.235,0.47001 0.34339,5.07174 0.19531,5.66406 -0.0926,0.3704 -0.22515,1.03625 -0.39062,1.36719 -0.10417,0.20834 -0.28646,0.18228 -0.39063,0.39063 -0.0291,0.0582 0,0.1302 0,0.19531 -0.0651,0.19531 -0.0811,0.41464 -0.19531,0.58594 -0.0361,0.0542 -0.13021,0 -0.19531,0 -0.0651,0.1302 -0.16001,0.24939 -0.19532,0.39062 -0.0316,0.12632 0.0484,0.26973 0,0.39063 -0.239,0.59752 -0.64984,0.68179 -0.97656,1.17187 -0.25447,0.38171 -0.3694,1.12943 -0.58594,1.5625 -0.10497,0.20996 -0.30344,0.36799 -0.39062,0.58594 -0.0967,0.24179 0.0632,0.52861 0,0.78125 0.11772,0.3535 -0.3164,0.36325 -0.39063,0.58594 -0.23437,0.70312 0.23438,1.64062 0,2.34375 -0.1034,0.3102 -0.19531,0.34628 -0.19531,0.78125 0,0.58511 -0.0918,6.8936 0,7.03125 0.12708,0.19061 1.64888,2.09397 1.75781,2.14843 0.24761,0.1238 0.98918,0.20793 1.17188,0.39063 0.046,0.046 -0.046,0.14928 0,0.19531 0.0921,0.0921 0.29855,-0.0921 0.39062,0 0.0921,0.0921 -0.0921,0.29855 0,0.39063 0.046,0.046 0.14928,-0.046 0.19532,0 0.34749,0.34749 0.19531,0.92733 -0.0977,1.85547 l 5.56641,0.48828 c 1.23597,0 1.95088,0.0971 3.125,0.39062 0.42369,0.10592 0.75755,0.44783 1.17187,0.58594 0.30882,0.10294 0.65736,-0.0638 0.97656,0 0.2855,0.0571 0.49879,0.32001 0.78125,0.39062 0.66278,0.1657 1.30105,0.39963 1.95313,0.58594 0.38078,0.10879 0.84237,-0.0244 1.17187,0.19531 0.15322,0.10215 0.22593,0.30828 0.39063,0.39063 0.11646,0.0582 0.28228,-0.0722 0.39062,0 0.12113,0.0807 0.0924,0.28768 0.19532,0.39062 0.12632,0.12632 0.85709,0.31099 0.97656,0.39063 0.0542,0.0361 -0.046,0.14928 0,0.19531 0.30452,0.30452 0.80043,0.28495 0.97656,0.39063 0.23685,0.14211 0.37025,0.41338 0.58594,0.58593 0.3392,0.27136 1.09472,0.31347 1.36719,0.58594 0.0921,0.0921 -0.0921,0.29855 0,0.39063 0.0921,0.0921 0.2643,-0.0316 0.39062,0 0.59553,0.14888 1.0129,0.70176 1.5625,0.97656 0.18414,0.0921 0.4094,0.0894 0.58594,0.19531 0.97656,0.58594 0,0.19531 0.58594,0.58594 0.12112,0.0807 0.30987,0.0742 0.39062,0.19531 0.15297,0.22946 -0.0857,0.52884 0.58594,0.97656 0.29384,0.1959 1.12871,0.73808 1.36719,0.97657 0.046,0.046 -0.0542,0.15919 0,0.19531 0.59667,0.39778 2.96647,0.48368 3.71093,0.39062 1.77077,-0.22134 2.4839,-1.34035 3.32032,-2.73437 0.32135,-0.53559 0.83833,-1.0066 1.17187,-1.5625 0.0906,-0.15103 0.77793,-1.16939 0.78125,-1.17188 0.96647,-0.72485 2.1329,-1.09641 3.125,-1.75781 0.87784,-0.58523 2.71603,-2.80451 3.32031,-3.71094 0.29914,-0.4487 0.11157,0.0838 0.58594,-0.39062 0.29477,-0.29477 0.38577,-0.84474 0.78125,-0.97656 0.12353,-0.0412 0.27897,0.067 0.39063,0 0.49421,-0.29653 0.98107,-0.97807 1.5625,-1.17188 0.58593,-0.19531 0.19531,0.0977 0.58593,0 0.6819,-0.17047 1.27264,-0.41582 1.95313,-0.58594 0.42928,-0.10732 0.93267,0.0869 1.36719,0 0.82274,-0.16455 0.81603,-0.0608 1.75781,-0.19531 0.14411,-0.0206 0.24939,-0.16 0.39062,-0.19531 0.41079,-0.1027 1.56905,-0.0549 1.95313,0 0.40762,0.0582 0.76812,0.30987 1.17187,0.39062 1.12726,0.22545 2.63133,-0.0446 3.71094,0.19532 0.66352,0.14744 1.28662,0.45263 1.95313,0.58593 1.27453,0.25491 2.61906,0.0344 3.90625,0.19532 1.29705,0.16213 4.93333,0.45864 6.25,0.19531 0.9554,-0.19108 2.0262,-0.52482 2.92968,-0.97656 0.59562,-0.29781 -0.35721,-0.15484 0.58594,-0.39063 0.12632,-0.0316 0.28646,0.0781 0.39063,0 0.18779,-0.14084 0.22464,-0.41995 0.39062,-0.58594 0.12499,-0.12498 0.80943,-0.53022 0.97656,-0.58593 0.12353,-0.0412 0.26431,0.0316 0.39063,0 0.37917,-0.0948 0.6265,-0.44592 0.97656,-0.58594 0.36884,-0.14754 0.9703,-0.19218 1.36719,-0.39063 0.46127,-0.23063 0.97793,-0.86047 1.36719,-1.17187 0.22902,-0.18322 0.74147,-0.29659 0.97656,-0.39063 0.60426,-0.2417 1.16277,-0.67904 1.75781,-0.97656 0.64985,-0.32492 1.19632,-1.02051 1.95313,-1.17187 0.19152,-0.0383 0.40459,0.0725 0.58593,0 0.17098,-0.0684 0.24332,-0.28014 0.39063,-0.39063 0.45306,-0.33979 0.86615,-0.53073 1.36719,-0.78125 0.41856,-0.20928 0.75612,-0.76868 1.17187,-0.97656 0.24009,-0.12005 0.5266,-0.11043 0.78125,-0.19531 0.55243,-0.18415 1.02184,-0.56499 1.5625,-0.78125 0.24923,-0.0997 0.54116,-0.0753 0.78125,-0.19532 2.58122,-1.29061 0.0628,-0.17207 0.97656,-0.78125 0.84582,-0.56388 1.9893,-0.57353 2.92969,-0.97656 1.04255,-0.44681 -1.06388,0.0807 0.58594,-0.39062 0.97197,-0.27771 3.51704,-0.39035 4.49219,-0.19532 0.40376,0.0807 0.76811,0.30988 1.17187,0.39063 0.43695,0.0874 0.92792,-0.0732 1.36719,0 0.40615,0.0677 0.8188,0.17878 1.17187,0.39062 0.15791,0.0947 0.21357,0.34004 0.39063,0.39063 0.313,0.0894 0.66076,-0.0789 0.97656,0 2.62458,0.65614 -1.71766,0.20033 1.36719,0.58594 0.4199,0.0525 0.94214,-0.085 1.36719,0 3.42229,0.68446 7.05034,0.39062 10.54687,0.39062 1.29555,0 3.69449,0.23767 4.88281,0 0.40376,-0.0808 0.77597,-0.27751 1.17188,-0.39062 0.58351,-0.16672 1.42026,-0.26623 1.95312,-0.58594 0.51286,-0.30772 1.19707,-0.87994 1.5625,-1.36719 0.46237,-0.61649 -0.14677,-0.24384 0.58594,-0.97656 0.046,-0.046 0.1662,0.0582 0.19531,0 0.0582,-0.11646 -0.0484,-0.26973 0,-0.39063 0.0872,-0.21794 0.28565,-0.37598 0.39063,-0.58593 0.42855,-0.85711 0.85398,-1.87904 1.36719,-2.73438 0.22977,-0.38296 0.65829,-0.52664 0.97656,-0.78125 0.85471,-0.68377 1.4686,-1.68739 2.34375,-2.34375 0.11646,-0.0874 0.30987,-0.0742 0.39062,-0.19531 0.19448,-0.29172 0.25252,-0.65432 0.39063,-0.97656 0.26288,-0.6134 0.58837,-1.04492 0.97656,-1.5625 0.67378,-0.89838 -0.39717,0.20512 0.39063,-0.97657 0.003,-0.005 0.85758,-1.05289 0.97656,-1.17187 0.10294,-0.10294 0.28769,-0.0924 0.39062,-0.19531 0.10294,-0.10294 0.11464,-0.2695 0.19534,-0.39063 0.093,-0.13885 1.3456,-1.04175 1.5625,-1.17187 0.1766,-0.10593 0.3906,-0.13021 0.586,-0.19532 0.2604,-0.13021 0.5389,-0.22912 0.7812,-0.39062 0.6872,-0.45812 1.1959,-1.1839 1.9531,-1.5625 1.2419,-0.62094 2.5428,-1.17433 3.711,-1.95313 0.1532,-0.10214 0.2196,-0.32223 0.3906,-0.39062 0.1813,-0.0725 0.3981,0.0537 0.5859,0 0.8009,-0.22883 0.9487,-0.67315 1.7578,-0.97656 0.1829,-0.0686 0.3933,0.0321 0.586,0 0.5836,-0.0973 1.2857,-0.6042 1.7578,-0.78125 0.4466,-0.16747 1.0923,-0.0778 1.5625,-0.19532 1.571,-0.39274 -0.4068,0.006 0.5859,-0.39062 1.0777,-0.43108 2.2326,-0.73679 3.3203,-1.17188 0.8584,-0.34335 1.5413,-0.92136 2.3438,-1.36718 0.18,-0.1 0.4094,-0.0894 0.5859,-0.19532 0.1579,-0.0947 0.226,-0.30827 0.3907,-0.39062 0.6837,-0.34188 1.1221,-0.25157 1.7578,-0.78125 0.1803,-0.15028 0.1953,-0.45573 0.3906,-0.58594 0.2233,-0.1489 0.5412,-0.0753 0.7812,-0.19531 0.3294,-0.1647 0.4749,-0.57696 0.7813,-0.78125 1.3422,-0.89478 4.4144,-2.34375 6.0547,-2.34375 0.472,0.0488 0.9422,0.12016 1.416,0.14648 0.6123,0.034 2.7543,-0.0426 3.125,-0.0488 0.7293,-0.0122 1.4683,0.0364 2.1973,0 0.5087,-0.0254 1.007,-0.11481 1.5136,-0.14648 0.3899,-0.0244 0.7815,0.0139 1.1719,0 0.1959,-0.007 0.3902,-0.0399 0.5859,-0.0488 1.1171,-0.0508 2.2506,0 3.3692,0 0.5558,0 1.1014,-0.0488 1.6601,-0.0488 0.1269,0 0.4254,-0.0559 0.5372,0 0.1207,0.0604 0.2429,0.0977 0.8135,0.083 l 0.4228,-3.3116 c 0,-0.31987 0.035,-0.67135 -0.047,-0.98437 -0.025,-0.0973 -0.073,-0.18737 -0.1094,-0.28125 -0.034,-0.0891 -0.069,-0.19378 -0.125,-0.25 -0.1637,-0.10397 -0.3104,-0.23299 -0.4686,-0.34375 -0.05,-0.0348 -0.1106,-0.0538 -0.1563,-0.0937 -0.039,-0.0343 -0.061,-0.0842 -0.094,-0.125 -0.1127,-0.14212 -0.2432,-0.27094 -0.3438,-0.42188 -0.01,-0.0137 -0.01,-0.0336 -0.016,-0.0469 -0.048,-0.0656 -0.1074,-0.12242 -0.1563,-0.1875 -0.014,-0.0186 -0.019,-0.0425 -0.031,-0.0625 -0.039,-0.0644 -0.082,-0.12596 -0.125,-0.1875 -0.037,-0.0534 -0.066,-0.0791 -0.094,-0.14063 -0.014,-0.03 -0.016,-0.0643 -0.031,-0.0937 -0.05,-0.099 -0.1222,-0.18195 -0.1719,-0.28125 -0.028,-0.0563 -0.046,-0.11751 -0.078,-0.17187 -0.01,-0.0101 -0.025,-0.006 -0.031,-0.0156 -0.021,-0.0336 -0.026,-0.0754 -0.047,-0.10937 -0.056,-0.0939 -0.038,1.5e-4 -0.078,-0.0937 -0.01,-0.0197 -0.01,-0.043 -0.016,-0.0625 -0.085,-0.18386 -0.1079,-0.18881 -0.1719,-0.40625 -0.018,-0.0602 -0.01,-0.12541 -0.016,-0.1875 -0.028,-0.19469 -0.04,-0.17848 -0.047,-0.375 -0.019,-0.50881 0,-1.02194 0,-1.53125 0,-0.20509 0.028,-0.45854 -0.016,-0.65625 -0.012,-0.0531 -0.035,-0.10308 -0.047,-0.15625 -0.024,-0.11252 -0.029,-0.18363 -0.078,-0.28125 -0.026,-0.0524 -0.057,-0.0677 -0.094,-0.10938 -0.122,-0.13945 -0.2481,-0.25434 -0.3907,-0.375 -0.1002,-0.0848 -0.1862,-0.19055 -0.2812,-0.28125 -0.1527,-0.14578 -0.3524,-0.29912 -0.4844,-0.46875 -0.059,-0.0765 -0.1224,-0.16755 -0.1719,-0.25 -0.023,-0.0381 -0.024,-0.0868 -0.047,-0.125 -0.055,-0.0915 -0.1396,-0.16969 -0.1875,-0.26562 -0.026,-0.0518 -0.043,-0.10917 -0.078,-0.15625 -0.024,-0.0325 -0.078,-0.0985 -0.078,-0.14063 -0.025,-0.0365 -0.064,-0.0667 -0.076,-0.10952 -0.039,-0.13423 0.043,-0.47883 0.047,-0.625 0,-0.11933 0.018,-0.70882 -0.016,-0.89063 -0.014,-0.0761 -0.055,-0.14474 -0.078,-0.21875 -0.04,-0.12923 -0.07,-0.26122 -0.1094,-0.39062 -0.043,-0.14298 -0.1134,-0.27002 -0.1718,-0.40625 -0.024,-0.056 -0.037,-0.11663 -0.062,-0.17188 -0.011,-0.0236 -0.033,-0.0407 -0.047,-0.0625 -0.064,-0.098 -0.1247,-0.19813 -0.1875,-0.29687 -0.01,-0.0158 -0.017,-0.0349 -0.031,-0.0469 -0.1695,-0.14129 -0.1324,-0.0744 -0.2968,-0.20312 -0.1193,-0.0933 -0.2367,-0.18982 -0.3438,-0.29688 -0.024,-0.0236 -0.039,-0.0545 -0.062,-0.0781 -0.1513,-0.15131 -0.1649,-0.12815 -0.2812,-0.28125 -0.2121,-0.27908 -0.4296,-0.5879 -0.5782,-0.90625 -0.1068,-0.22896 -0.1134,-0.5363 -0.1406,-0.78125 -0.032,-0.28647 -0.016,0.12551 -0.016,-0.45313 0,-0.0677 -0.01,-0.13589 0,-0.20312 0.01,-0.064 0.036,-0.12406 0.047,-0.1875 0.016,-0.0885 0.01,-0.5886 -0.016,-0.65625 -0.011,-0.0329 -0.1162,-0.17683 -0.125,-0.1875 -0.1284,-0.15592 -0.273,-0.31908 -0.4375,-0.4375 -0.331,-0.23833 -0.2962,-0.19885 -0.6718,-0.42188 -0.2145,-0.12736 -0.039,-0.0298 -0.2813,-0.1875 -0.1018,-0.0662 -0.2144,-0.11582 -0.3125,-0.1875 -0.087,-0.0634 -0.1665,-0.13556 -0.25,-0.20312 -0.046,-0.0374 -0.099,-0.0674 -0.1406,-0.10938 -0.034,-0.034 -0.065,-0.071 -0.094,-0.10937 v -0.0156 c -0.01,-0.008 -0.023,-0.007 -0.031,-0.0156 -0.016,-0.0165 -0.021,-0.0417 -0.031,-0.0625 -0.071,-0.26295 -0.3119,-0.40275 -0.4856,-0.5938 -0.085,-0.0273 -0.091,-0.11685 -0.1407,-0.17188 -0.049,-0.0547 -0.109,-0.0997 -0.1562,-0.15625 -0.063,-0.0752 -0.1263,-0.15585 -0.2031,-0.21875 -0.1334,-0.10909 -0.2835,-0.20532 -0.4063,-0.32812 -0.024,-0.0236 -0.039,-0.0545 -0.062,-0.0781 -0.013,-0.0133 -0.031,-0.0208 -0.047,-0.0312 -0.026,-0.0156 -0.057,-0.0254 -0.078,-0.0469 -0.022,-0.0215 -0.025,-0.0566 -0.047,-0.0781 -0.2059,-0.20597 -0.028,0.0171 -0.125,-0.0937 -0.2184,-0.24965 0.052,0.0574 -0.1406,-0.1875 -0.034,-0.0435 -0.075,-0.0815 -0.1094,-0.125 -0.086,-0.10846 -0.1564,-0.22604 -0.25,-0.32812 -0.03,-0.0326 -0.066,-0.0592 -0.094,-0.0937 -0.2541,-0.31757 0.042,0.006 -0.1719,-0.23438 -0.1935,-0.21766 -0.4137,-0.37429 -0.6562,-0.53125 -0.038,-0.0243 -0.07,-0.0562 -0.1094,-0.0781 -0.1739,-0.0974 -0.2873,-0.13205 -0.4531,-0.20313 -0.1657,-0.071 -0.3295,-0.1441 -0.5,-0.20312 -0.1975,-0.0683 -0.3894,-0.13165 -0.5782,-0.21875 -0.051,-0.0235 -0.1095,-0.0314 -0.1562,-0.0625 -0.049,-0.0329 -0.093,-0.0743 -0.1406,-0.10938 -0.138,-0.10119 -0.2911,-0.18621 -0.4219,-0.29687 -0.1041,-0.088 -0.1943,-0.19149 -0.2969,-0.28125 -0.096,-0.0837 0,0.0449 -0.125,-0.10938 -0.05,-0.0603 -0.089,-0.1287 -0.1406,-0.1875 -0.022,-0.0251 -0.054,-0.0389 -0.078,-0.0625 -0.039,-0.0391 -0.071,-0.0852 -0.1094,-0.125 -0.1279,-0.13247 -0.2683,-0.25299 -0.3906,-0.39062 -0.044,-0.0498 -0.081,-0.1064 -0.125,-0.15625 -0.02,-0.022 -0.046,-0.0384 -0.062,-0.0625 -0.02,-0.0286 -0.025,-0.0663 -0.047,-0.0937 -0.036,-0.0463 -0.087,-0.08 -0.125,-0.125 -0.02,-0.0232 -0.029,-0.0538 -0.047,-0.0781 -0.022,-0.0292 -0.056,-0.0489 -0.078,-0.0781 -0.1545,-0.23179 0.023,0.0219 -0.125,-0.15625 -0.022,-0.026 -0.025,-0.056 -0.047,-0.0781 -0.073,-0.19581 -0.1976,-0.33909 -0.313,-0.51595 -0.088,-0.13446 -0.171,-0.27532 -0.2656,-0.40625 -0.072,-0.0989 -0.1622,-0.18284 -0.2344,-0.28125 -0.01,-0.0133 -0.01,-0.034 -0.016,-0.0469 -0.032,-0.0403 -0.074,-0.0718 -0.1094,-0.10937 -0.028,-0.0294 -0.1634,-0.18775 -0.2187,-0.23438 -0.2146,-0.18072 -0.4662,-0.32578 -0.6719,-0.51562 -0.1103,-0.10186 -0.1926,-0.20822 -0.2969,-0.3125 -0.096,-0.0964 -0.195,-0.19069 -0.2969,-0.28125 -0.039,-0.0346 -0.089,-0.0557 -0.125,-0.0937 -0.038,-0.0412 -0.061,-0.095 -0.094,-0.14063 -0.035,-0.0481 -0.072,-0.0942 -0.1094,-0.14062 -0.076,-0.095 -0.1613,-0.18389 -0.2344,-0.28125 -0.103,-0.13739 -0.1938,-0.28456 -0.2968,-0.42188 -0.1682,-0.22428 -0.3575,-0.34653 -0.5938,-0.48437 -0.032,-0.0189 -0.06,-0.0457 -0.094,-0.0625 -0.1193,-0.0597 -0.2864,-0.10067 -0.4063,-0.14063 -0.061,-0.0204 -0.1254,-0.0487 -0.1875,-0.0625 -0.1691,-0.0376 -0.3448,-0.0497 -0.5156,-0.0781 -0.063,-0.0105 -0.1067,-0.0247 -0.1719,-0.0312 -0.036,-0.004 -0.073,0.005 -0.1094,0 -0.09,-0.0129 -0.1629,-0.052 -0.25,-0.0781 -0.087,-0.0261 -0.1762,-0.0457 -0.2656,-0.0625 -0.02,-0.004 -0.042,0.004 -0.062,0 -0.065,-0.0129 -0.1236,-0.0465 -0.1875,-0.0625 -0.035,-0.009 -0.073,0.005 -0.1094,0 -0.011,-0.002 -0.021,-0.0104 -0.031,-0.0156 -0.031,-0.005 -0.062,-0.0121 -0.094,-0.0156 -0.074,-0.008 -0.054,0.0217 -0.1562,-0.0156 -0.024,-0.009 -0.04,-0.0344 -0.062,-0.0469 -0.1273,-0.0694 -0.2754,-0.11081 -0.4063,-0.17187 -0.071,-0.033 -0.1212,-0.0992 -0.1875,-0.14063 -0.034,-0.021 -0.072,-0.0326 -0.1093,-0.0469 -0.1335,-0.0513 -0.2681,-0.11858 -0.4063,-0.15625 -0.015,-0.004 -0.032,0.005 -0.047,0 -0.044,-0.0159 -0.081,-0.0461 -0.125,-0.0625 -0.2175,-0.0816 -0.2264,-0.0649 -0.4218,-0.125 -0.2155,-0.0663 -0.4088,-0.14971 -0.6094,-0.25 -0.2695,-0.13474 0.1072,0.0629 -0.1563,-0.0469 -0.1401,-0.0584 -0.2587,-0.15903 -0.3906,-0.23437 -0.05,-0.0289 -0.1052,-0.0501 -0.1562,-0.0781 -0.1759,-0.0967 -0.3418,-0.21187 -0.5157,-0.3125 -0.036,-0.021 -0.073,-0.0417 -0.1093,-0.0625 -0.1094,-0.0521 -0.2219,-0.098 -0.3282,-0.15625 -0.056,-0.0306 -0.1004,-0.0789 -0.1562,-0.10937 -0.2475,-0.13502 -0.1194,-0.0147 -0.3125,-0.15625 -0.039,-0.0284 -0.069,-0.0683 -0.1094,-0.0937 -0.043,-0.0272 -0.096,-0.0364 -0.1406,-0.0625 -0.1101,-0.065 -0.2993,-0.19895 -0.4063,-0.28125 -0.1709,-0.13148 -0.2782,-0.30232 -0.4062,-0.46875 -0.029,-0.0381 -0.068,-0.069 -0.094,-0.10938 -0.021,-0.0334 -0.026,-0.0754 -0.047,-0.10937 -0.027,-0.0447 -0.066,-0.0811 -0.094,-0.125 -0.049,-0.0776 -0.041,-0.18346 -0.078,-0.26563 -0.1339,-0.29465 0.01,0.0115 -0.125,-0.20312 -0.024,-0.0397 -0.038,-0.0851 -0.062,-0.125 -0.01,-0.0126 -0.022,-0.0195 -0.031,-0.0312 -0.054,-0.0718 -0.099,-0.14907 -0.1562,-0.21875 -0.031,-0.0365 -0.062,-0.0729 -0.094,-0.10938 -0.01,-0.0104 -0.01,-0.0216 -0.016,-0.0312 -0.017,-0.0256 -0.031,-0.003 -0.031,-0.0312 -0.1438,-0.12907 -0.3032,-0.23722 -0.453,-0.35973 -0.057,-0.0469 -0.01,-0.0312 -0.094,-0.0937 -0.019,-0.014 -0.044,-0.0173 -0.062,-0.0312 -0.024,-0.0177 -0.039,-0.0444 -0.062,-0.0625 -0.2148,-0.16705 0.068,0.0747 -0.1719,-0.0781 -0.031,-0.0198 -0.049,-0.0551 -0.078,-0.0781 -0.1215,-0.0972 -0.1603,-0.10689 -0.2813,-0.1875 -0.068,-0.0457 -0.1339,-0.0959 -0.2031,-0.14063 -0.1637,-0.10596 0.08,0.10145 -0.2031,-0.125 -0.01,-0.007 0,-0.0269 -0.016,-0.0312 -0.045,-0.0178 -0.094,-0.0186 -0.1407,-0.0312 -0.045,-0.0122 -0.081,-0.0478 -0.125,-0.0625 -0.061,-0.0204 -0.1263,-0.0265 -0.1875,-0.0469 -0.043,-0.0142 -0.099,-0.0601 -0.1406,-0.0781 -0.089,-0.0381 -0.032,0.013 -0.1719,-0.0625 -0.029,-0.0158 -0.052,-0.042 -0.078,-0.0625 -0.039,-0.0302 -0.087,-0.0474 -0.125,-0.0781 -0.01,-0.007 -0.01,-0.0223 -0.016,-0.0312 -0.053,-0.0642 -0.099,-0.10847 -0.125,-0.1875 -0.011,-0.0331 -0.062,-0.1314 -0.1581,-0.0269 l -2.0677,0.0581 c -0.1585,-0.006 -1.8503,0.23685 -1.9941,0.28485 -0.135,0.045 -0.2372,0.1876 -0.3536,0.26516 -0.1237,0.0825 -0.067,-0.004 -0.1768,0.13259 -0.059,0.0736 -0.1345,0.1366 -0.1767,0.22097 -0.013,0.0263 0.018,0.0648 0,0.0884 -0.032,0.0425 -0.095,0.0508 -0.1326,0.0884 -0.1587,0.15868 -0.2636,0.40686 -0.3978,0.57453 -0.033,0.0415 -0.099,0.0469 -0.1325,0.0884 -0.029,0.0364 -0.018,0.0938 -0.044,0.13258 -0.1062,0.15916 -0.28,0.29045 -0.3978,0.44194 -0.065,0.0838 -0.113,0.18018 -0.1768,0.26517 -0.079,0.10606 -0.2033,0.2298 -0.3093,0.30935 -0.026,0.0198 -0.065,0.0209 -0.088,0.0442 -0.01,0.0104 0.01,0.0338 0,0.0442 -0.047,0.0466 -0.122,0.0519 -0.1768,0.0884 -0.035,0.0231 -0.051,0.0698 -0.088,0.0884 -0.2252,0.11263 -0.4775,0.13486 -0.7071,0.22097 -0.05,0.0186 -0.082,0.0716 -0.1326,0.0884 -0.1949,0.065 -0.461,0.0922 -0.6629,0.13258 -0.4594,0.0919 0.013,-0.005 -0.2651,0.0884 -0.2001,0.0667 -0.4196,0.0828 -0.6188,0.13258 -0.2671,0.0668 -0.5855,0.36233 -0.7955,0.53033 0.016,0.23908 -0.124,0.0489 -0.1767,0.0884 -0.083,0.0625 -0.1377,0.15847 -0.221,0.22097 -0.4261,0.31958 -0.7553,0.74951 -1.1049,1.14905 -0.1457,0.1665 -0.2767,0.34882 -0.3977,0.53033 -0.026,0.0388 -0.011,0.0996 -0.044,0.13258 -0.087,0.0875 -0.4759,0.36486 -0.5745,0.39775 -0.056,0.0186 -0.1209,-0.0186 -0.1768,0 -0.02,0.007 -0.024,0.0376 -0.044,0.0442 -0.2019,0.0673 -0.538,0.0797 -0.7513,0.0442 -0.098,-0.0163 -0.1734,-0.0959 -0.2652,-0.13258 -0.3629,-0.14519 -0.2032,-0.0176 -0.5745,-0.26517 -0.035,-0.0231 -0.053,-0.067 -0.088,-0.0884 -0.04,-0.024 -0.092,-0.0211 -0.1326,-0.0442 -0.1446,-0.0827 -0.2487,-0.23483 -0.3977,-0.30936 -0.2283,-0.11414 -0.1253,-0.0185 -0.3536,-0.13258 -0.092,-0.0459 -0.1733,-0.17505 -0.2651,-0.22097 -0.088,-0.0442 -0.066,0.0221 -0.1326,0 -0.1511,-0.0504 -0.033,-0.0367 -0.1768,-0.13259 -0.026,-0.0177 -0.1105,0.0221 -0.1326,0 -0.01,-0.0104 0,-0.0295 -0.5524,-0.49205 -0.198,-0.31742 -0.18,-0.20883 -0.198,-0.17193 -0.013,0.0254 -0.48324,0.6707 -0.50004,0.6875 -0.0329,0.0329 -0.0921,0.0296 -0.125,0.0625 -0.0295,0.0295 0.0186,0.0877 0,0.125 -0.0263,0.0527 -0.0987,0.0723 -0.125,0.125 -0.025,0.05 0.025,0.1375 0,0.1875 -0.0527,0.10541 -0.1793,0.1557 -0.25,0.25 -0.16718,0.22291 -0.28887,0.5122 -0.4375,0.75 -0.14045,0.22472 -0.30254,0.48506 -0.4375,0.6875 -0.049,0.0735 -0.1385,0.114 -0.1875,0.1875 -0.10147,0.15221 -0.1564,0.34397 -0.25,0.5 -0.0758,0.12632 -0.2287,0.19138 -0.3125,0.3125 -0.12209,0.17635 -0.20214,0.37857 -0.3125,0.5625 -0.29538,0.4923 -0.65453,1.05583 -1,1.5 -0.10853,0.13954 -0.26457,0.23696 -0.375,0.375 -0.0515,0.0644 -0.2009,0.4509 -0.25,0.5 -0.0943,0.0943 -0.3003,0.0442 -0.3125,0.25 -0.4407,0.5289 0.45875,-0.33375 -0.5,0.625 -0.0329,0.0329 -0.0921,0.0296 -0.125,0.0625 -0.0329,0.0329 -0.0296,0.0921 -0.0625,0.125 -0.23638,0.23638 -0.56594,0.3406 -0.8125,0.5625 -0.12115,0.10903 -0.69446,0.7963 -0.8125,0.875 -0.0548,0.0365 -0.1263,0.038 -0.1875,0.0625 -0.41168,0.16467 -1.60569,0.54319 -1.9375,0.875 -0.0709,0.0709 -0.1054,0.1952 -0.1875,0.25 -0.2753,0.1835 -0.0101,-0.15922 -0.1875,0.0625 -0.0651,0.0813 -0.125,0.1667 -0.1875,0.25 -0.0208,0.0625 -0.023,0.1348 -0.0625,0.1875 -0.028,0.0373 -0.0877,0.0345 -0.125,0.0625 -0.17281,0.1296 -0.60341,0.61704 -0.75,0.8125 -0.0882,0.11762 -0.19583,0.4403 -0.375,0.5 -0.0395,0.0132 -0.0855,-0.0132 -0.125,0 -0.0988,0.0329 -0.1533,0.1488 -0.25,0.1875 -0.0387,0.0155 -0.0867,-0.0164 -0.125,0 -0.27947,0.11977 -0.53457,0.31398 -0.8125,0.4375 -0.60646,0.26954 0.0511,-0.0771 -0.4375,0.0625 -0.246,0.0703 -0.50431,0.2306 -0.75,0.3125 -0.4565,0.1522 -0.0579,0.008 -0.4375,0.0625 -0.085,0.0122 -0.1667,0.0417 -0.25,0.0625 -0.0625,0.0208 -0.1225,0.0517 -0.1875,0.0625 -0.18609,0.031 -0.37604,0.0338 -0.5625,0.0625 -0.67312,0.1036 0.10699,0.0161 -0.4375,0.125 -0.29891,0.0598 -0.58585,0.0911 -0.875,0.1875 -0.0884,0.0295 -0.1586,0.1067 -0.25,0.125 -0.28045,0.0561 -0.59455,-0.0561 -0.875,0 -0.19718,0.0394 -0.43857,0.1879 -0.625,0.25 -0.14389,0.048 -0.28944,0.0921 -0.4375,0.125 -0.0814,0.0181 -0.1722,-0.0299 -0.25,0 -0.23495,0.0904 -0.45377,0.219 -0.6875,0.3125 -0.0797,0.0319 -0.1667,0.0417 -0.25,0.0625 -0.0417,0 -0.0855,-0.0132 -0.125,0 -0.0848,0.0283 -0.14622,0.0991 -0.25,0.125 -0.237,0.0593 -0.51134,0.1324 -0.75,0.1875 -0.0583,0.0135 -0.52417,0.0746 -0.625,0.125 -0.0527,0.0263 -0.0723,0.0987 -0.125,0.125 -0.095,0.0475 -0.2175,0.015 -0.3125,0.0625 -0.23274,0.11637 -0.51248,0.19374 -0.75,0.3125 -0.2208,0.1104 -0.381,0.3562 -0.625,0.4375 -0.21823,0.0727 -1.3328,0 -1.5,0 -1.36034,0 -2.7065,-0.0635 -4.0625,-0.125 -0.51142,0.1705 -1.02873,0.1197 -1.5625,0.1875 -1.00253,0.12731 -2.00154,0.28149 -3,0.4375 -0.33508,0.0524 -0.66305,0.149 -1,0.1875 -1.51158,0.1727 -3.04366,0.125 -4.5625,0.125 h -4.8125 -4.8125 c -0.71608,0 -1.47737,0.0617 -2.1875,0 -0.21166,-0.0184 -0.41667,-0.0833 -0.625,-0.125 -0.33333,-0.0208 -0.66667,-0.0417 -1,-0.0625 -1.63771,-0.078 -3.29824,0 -4.9375,0 -0.57904,0 -1.17282,0.0412 -1.75,0 -1.08332,-0.0774 -2.16375,-0.1724 -3.25,-0.25 -0.84736,-0.0605 -1.72079,-0.0714 -2.5625,-0.1875 -0.33596,-0.0463 -0.66667,-0.125 -1,-0.1875 -0.29167,-0.0208 -0.58467,-0.0277 -0.875,-0.0625 -0.28826,-0.0346 -0.80108,-0.1659 -1.125,-0.1875 -0.92994,-0.062 -1.88853,-0.10411 -2.8125,-0.25 -0.45485,-0.0718 -0.50457,-0.1572 -0.9375,-0.25 -0.3964,-0.0849 -0.78787,-0.0545 -1.1875,-0.125 -0.65114,-0.11491 -0.42473,-0.10618 -1,-0.25 -0.37268,-0.0932 -0.75622,-0.14244 -1.125,-0.25 -0.31623,-0.0922 -0.6204,-0.2233 -0.9375,-0.3125 -0.35025,-0.0985 -0.71214,-0.1519 -1.0625,-0.25 -0.44234,-0.12386 -0.74267,-0.34402 -1.125,-0.5625 -0.0961,-0.0549 -0.3489,-0.0918 -0.4375,-0.125 -0.92618,-0.3473 0.62798,0.13553 -0.625,-0.25 -0.76225,-0.23454 -1.53475,-0.33626 -2.3125,-0.5 -0.48671,-0.10247 -0.95636,-0.26397 -1.4375,-0.375 -1.37583,-0.3175 0.30776,0.13944 -0.75,-0.125 -0.25455,-0.0636 -0.55502,-0.1985 -0.8125,-0.25 -0.0613,-0.0123 -0.1269,0.0152 -0.1875,0 -0.0286,-0.007 -0.0345,-0.0535 -0.0625,-0.0625 -0.2175,-0.0725 -1.7949,0 -1.8125,0 -0.48683,0 -1.0122,-0.0407 -1.5,0 -0.80288,0.0669 -1.56014,0.30382 -2.3125,0.5625 -0.67015,0 -0.82337,-0.13629 -1.5625,-0.25 -0.24795,-0.0381 -0.50079,-0.0337 -0.75,-0.0625 -0.98394,-0.11353 -1.95732,-0.30136 -2.9375,-0.4375 -1.41556,-0.19661 -2.83267,-0.37962 -4.25,-0.5625 -0.4417,-0.057 -0.87057,-0.1948 -1.3125,-0.25 -0.14471,-0.0181 -0.29217,0.0121 -0.4375,0 -0.10586,-0.009 -0.2068,-0.0519 -0.3125,-0.0625 -0.59859,-0.0599 -1.21537,-0.0196 -1.8125,-0.125 -0.14936,-0.0264 -0.28736,-0.1036 -0.4375,-0.125 -0.14437,-0.0206 -0.29182,0.007 -0.4375,0 -0.49992,-0.0227 -1.00067,-0.0292 -1.5,-0.0625 -0.27341,-0.0182 -0.53929,-0.104 -0.8125,-0.125 -0.96724,-0.0744 -1.96649,0 -2.9375,0 -1.06658,0 0.39017,0.0177 -0.8125,-0.0625 -0.86534,-0.0577 -1.75815,0 -2.625,0 h -1.5 c -0.35417,0 -0.71076,0.0414 -1.0625,0 -0.19076,-0.0224 -0.37138,-0.1059 -0.5625,-0.125 -0.74425,-0.0744 -1.11952,10e-4 -1.75,-0.125 -0.53594,-0.10719 -1.19392,-0.34039 -1.6875,-0.5625 -0.38553,-0.17349 -0.7002,-0.41366 -1.0625,-0.625 -0.0805,-0.047 -0.1755,-0.0691 -0.25,-0.125 -0.0943,-0.0707 -0.157,-0.1776 -0.25,-0.25 -0.27322,-0.21251 -0.3869,-0.18713 -0.6875,-0.375 -0.23002,-0.14376 -0.39099,-0.322 -0.6875,-0.375 -0.4757,-0.085 -0.95881,-0.1215 -1.4375,-0.1875 -0.49988,-0.0689 -0.99663,-0.2113 -1.5,-0.25 -0.48516,-0.0373 -0.94554,-0.0107 -1.4375,-0.0625 -1.02504,-0.1079 -2.03303,-0.3689 -3.0625,-0.4375 -2.08686,-0.0675 -4.28198,-0.1848 -6.46875,0.125 -0.96875,-0.0208 -1.77753,0.11833 -2.59375,0.1875 -0.0641,0.005 -2.23817,-0.005 -2.375,0 -0.13412,0.005 -0.90188,0.0346 -1.125,0.0625 -0.0852,0.0107 -0.16446,0.0547 -0.25,0.0625 -0.50998,0.0464 -1.04974,0 -1.5625,0 -0.20814,0 -0.98335,0.068 -1.1875,0 -0.0559,-0.0186 -0.0723,-0.0987 -0.125,-0.125 -0.0667,-0.0333 -0.18334,0.0333 -0.25,0 -0.1149,-0.0575 -0.18857,-0.15652 -0.3125,-0.1875 -0.12396,-0.031 -0.31766,0.0479 -0.4375,0 -0.15479,0.0347 -0.15683,-0.14092 -0.25,-0.1875 -0.37749,-0.18874 -0.0265,0.009 -0.3125,-0.0625 -0.10813,-0.027 -0.7361,-0.5104 -0.8125,-0.625 -0.0977,-0.14658 -0.16224,-0.36836 -0.25,-0.5 -0.0327,-0.049 -0.0987,-0.0723 -0.125,-0.125 -0.0186,-0.0373 0.0186,-0.0877 0,-0.125 -0.0263,-0.0527 -0.0897,-0.0779 -0.125,-0.125 -0.14739,-0.19651 -0.17152,-0.49952 -0.3125,-0.6875 -0.028,-0.0373 -0.0959,-0.0261 -0.125,-0.0625 -0.0925,-0.11557 -0.23664,-0.42342 -0.3125,-0.5625 -0.25444,-0.16543 -0.19992,-0.46235 -0.3125,-0.6875 -0.19812,-0.39623 -0.47638,-0.72047 -0.75,-1.0625 0.0535,-0.28996 -0.13439,-0.0719 -0.1875,-0.125 -0.0147,-0.0147 0.0147,-0.0478 0,-0.0625 -0.0969,-0.0969 -1.21617,0.0963 -1.3125,0 -0.0147,-0.0147 0.0147,-0.0478 0,-0.0625 -0.016,-0.016 -0.3754,-0.28589 -0.4375,-0.3125 -0.18577,-0.0796 -0.47019,-0.15769 -0.625,-0.3125 -0.0531,-0.0531 -0.0719,-0.13439 -0.125,-0.1875 -0.0859,-0.0859 -0.21532,-0.11461 -0.3125,-0.1875 -0.51025,-0.38268 -0.95524,-0.9446 -1.5625,-1.1875 -0.0387,-0.0155 -0.0877,0.0186 -0.125,0 -0.0527,-0.0263 -0.0833,-0.0833 -0.125,-0.125 -0.0833,-0.0625 -0.15683,-0.14092 -0.25,-0.1875 -0.0768,-0.0384 -0.17105,-0.0287 -0.25,-0.0625 -0.0376,-0.0161 -0.23735,-0.17498 -0.3125,-0.1875 -0.1233,-0.0205 -0.25642,0.0395 -0.375,0 -0.028,-0.009 -0.0362,-0.0493 -0.0625,-0.0625 -0.16245,-0.0812 -0.46734,-0.12444 -0.625,-0.1875 -0.0865,-0.0346 -0.16276,-0.0923 -0.25,-0.125 -0.27893,-0.1046 -0.61564,-0.0578 -0.875,-0.1875 -0.2753,-0.13765 -0.59585,-0.34585 -0.8125,-0.5625 -0.11506,-0.11506 -0.19745,-0.25995 -0.3125,-0.375 -0.18266,-0.18266 -0.87326,-0.55634 -1.125,-0.625 -0.40755,-0.11115 -0.7656,-0.21484 -1.1875,-0.25 -0.31142,-0.0259 -0.62569,0.0208 -0.9375,0 -0.0857,-0.006 -0.16477,-0.0518 -0.25,-0.0625 -0.64463,-0.0806 -1.34879,0 -2,0 h -3.1875 c -0.49602,0 -1.00682,-0.0329 -1.5,0 -0.31798,0.0212 -0.62161,0.14538 -0.9375,0.1875 -0.0826,0.011 -0.1678,-0.0137 -0.25,0 -0.4309,0.0718 0.0501,0.0625 0.71094,0.42187 0.4319,0.51528 0.62503,3.44527 0.50781,3.6797 z"
         id="path93" />
    </g>
  </g>
</svg>
