<?xml version="1.0" encoding="UTF-8" standalone="no"?>
<!-- Created with Inkscape (http://www.inkscape.org/) -->

<svg
   version="1.1"
   id="svg1"
   width="75.3069"
   height="76.013969"
   viewBox="0 0 75.3069 76.013969"
   xmlns="http://www.w3.org/2000/svg"
   xmlns:svg="http://www.w3.org/2000/svg">
  <defs
     id="defs1" />
  <g
     id="layer1"
     style="display:inline"
     transform="translate(-1123.0623,-354.9676)">
    <g
       id="layer5"
       style="display:inline;fill:#ffffff;fill-opacity:1;stroke:none;stroke-opacity:1">
      <path
         style="fill:#ffffff;fill-opacity:1;stroke:none;stroke-width:1;stroke-linecap:round;stroke-dasharray:none;stroke-opacity:1"
         d="m 1127.5701,384.31253 1.812,-4.72878 2.1655,-3.0052 2.1213,-6.23138 13.877,-13.52342 5.0823,-1.85615 3.2262,4.64038 3.6239,3.0494 2.5191,3.84489 3.4029,2.78424 4.1543,0.7734 12.4186,10.27514 0.1518,6.32119 -1.7813,6.0625 2.125,3.15625 3.1563,1.84375 3.2424,4.49243 3.182,1.4584 6.3198,9.104 -1.591,9.8553 -5.2591,7.24785 -10.1647,-0.39775 -6.9826,-1.98874 -5.4801,-4.68458 -15.5122,2.12132 -9.4133,6.0546 -8.8831,-0.13258 -0.8397,-5.78944 -2.9168,-3.49134 -0.9722,-4.11005 -5.6127,-5.39169 -0.7071,-9.36917 -0.9723,-3.84489 0.5745,-5.25911 6.0546,-7.02687 z"
         id="path3" />
    </g>
  </g>
</svg>
