<?xml version="1.0" encoding="UTF-8" standalone="no"?>
<!-- Created with Inkscape (http://www.inkscape.org/) -->

<svg
   version="1.1"
   id="svg2"
   width="75.534576"
   height="77.448029"
   viewBox="0 0 75.534576 77.448029"
   xmlns="http://www.w3.org/2000/svg"
   xmlns:svg="http://www.w3.org/2000/svg">
  <defs
     id="defs6">
    <linearGradient
       id="swatch77">
      <stop
         style="stop-color:#e2c69e;stop-opacity:1;"
         offset="0"
         id="stop77" />
    </linearGradient>
  </defs>
  <g
     id="layer66"
     style="display:inline"
     transform="translate(-1122.8103,-354.11942)">
    <g
       id="layer54"
       style="display:inline">
      <path
         style="display:inline;fill:#969696;fill-opacity:1;stroke:none;stroke-opacity:1"
         d="m 1128.125,384.25 c 0.26,0 0.147,0.14702 0.25,0.25 0.26,0.25863 -0.01,-0.39522 0.25,0.125 0.037,0.0745 -0.037,0.1755 0,0.25 0.1151,0.2301 0.2599,0.0199 0.375,0.25 0.037,0.0745 -0.037,0.1755 0,0.25 0.1078,0.21557 0.421,0.38939 0.5,0.625 0.088,0.26326 0,0.72433 0,1 0,0.125 0.056,0.2632 0,0.375 -0.1351,0.27024 -0.4899,0.47976 -0.625,0.75 -0.019,0.0373 0,0.0833 0,0.125 -0.125,0.16667 -0.25,0.33333 -0.375,0.5 -0.625,0.62799 -0.1318,-0.0195 -0.625,0.375 -0.2659,0.21274 -0.9408,0.84539 -1.25,1 -0.1491,0.0745 -0.5124,0.13736 -0.625,0.25 -0.2335,0.23347 -0.8414,0.93284 -1,1.25 -0.059,0.11785 -0.057,0.26201 -0.125,0.375 -0.1761,0.29351 -0.668,0.67019 -0.75,1 -0.03,0.12127 0.03,0.25373 0,0.375 -0.039,0.15645 -0.323,0.34471 -0.375,0.5 -0.026,0.0791 0.031,0.1726 0,0.25 -0.166,0.41496 -0.4196,0.58926 -0.625,1 -0.077,0.15366 -0.061,0.34049 -0.125,0.5 -0.022,0.0547 -0.111,0.0678 -0.125,0.125 -0.1455,0.58194 0,1.39345 0,2 0,0.31099 -0.1159,2.14329 0,2.375 0.026,0.0527 0.111,0.0678 0.125,0.125 0.113,0.45109 -0.043,0.49568 0.125,1 0.094,0.28131 0.16,0.60391 0.25,0.875 0.059,0.17678 0.205,0.31922 0.25,0.5 0.2149,0.85976 0.2261,1.20212 0.625,2 0.2388,0.47767 0.049,0.3934 0.125,1 0.056,0.44815 0.29,0.70095 0.375,1.125 0.216,1.08003 -0.2949,2.32533 0.125,3.375 0.06,0.15093 0.302,0.22909 0.375,0.375 0.085,0.17053 0.3297,0.7615 0.5,0.875 0.7513,0.50085 -0.4973,-1.12139 0.625,0.375 0.095,0.12658 0.153,0.50363 0.25,0.625 0.4696,0.58703 1.1274,1.0652 1.625,1.625 0.1,0.11228 0.1438,0.26877 0.25,0.375 0.066,0.0659 0.198,0.0475 0.25,0.125 0.046,0.0693 -0.026,0.1709 0,0.25 0.1704,0.51113 0.8273,0.98195 1,1.5 0.026,0.0791 -0.037,0.1755 0,0.25 0.1537,0.30731 0.4656,0.43111 0.625,0.75 0.056,0.1118 -0.046,0.25894 0,0.375 0.044,0.10942 0.167,0.1667 0.25,0.25 0.042,0 0.104,-0.0357 0.125,0 0.1154,0.1924 0.1497,0.42431 0.25,0.625 0.082,0.16465 0.293,0.33535 0.375,0.5 0.154,0.3079 -0.3628,-0.11284 0.125,0.375 0.03,0.0295 0.095,-0.0295 0.125,0 0.07,0.0697 0.708,0.917 0.75,1 0.037,0.0745 -0.026,0.1709 0,0.25 0.1785,0.53565 0.7303,1.04613 0.875,1.625 0.1778,0.71124 0.507,1.39612 0.75,2.125 0.1308,0.39236 0.276,0.85499 0.375,1.25 0.03,0.12127 -0.056,0.2632 0,0.375 0.067,0.13437 0.203,0.23248 0.25,0.375 0.1404,0.42121 0.092,0.95276 0.25,1.375 0.053,0.14066 0.197,0.23433 0.25,0.375 0.077,0.20567 0.375,1.50457 0.375,1.75 0,0.33593 -0.083,0.66667 -0.062,1.5625 0.7292,0.3125 1.3717,-0.0148 2.0625,-0.1875 1.5192,-0.58896 3.1949,-0.36123 4.75,-0.75 0.1143,-0.0286 0.1446,-0.1973 0.25,-0.25 0.3357,-0.16784 1.0975,-0.39938 1.5,-0.5 0.3921,-0.098 0.8578,0.098 1.25,0 0.4714,-0.11786 0.7828,-0.61651 1.25,-0.75 1.6365,-0.46757 -0.1438,0.57191 1.5,-0.25 1.2031,-0.60155 2.2521,-1.12604 3.5,-1.75 0.074,-0.0373 0.1667,0 0.25,0 0.25,-0.0833 0.5143,-0.13215 0.75,-0.25 0.1054,-0.0527 0.1382,-0.21274 0.25,-0.25 0.1581,-0.0527 0.3419,0.0527 0.5,0 0.405,-0.135 0.8801,-0.7534 1.25,-1 0.1169,-0.078 1.2422,-0.48451 1.25,-0.5 0.074,-0.14908 -0.092,-0.36133 0,-0.5 0.2284,-0.34269 1.0582,-0.5582 1.25,-0.75 0.059,-0.0589 -0.059,-0.19108 0,-0.25 0.263,-0.26297 0.9447,-0.14824 1.25,-0.25 0.079,-0.0264 0,-0.16667 0,-0.25 0.1667,-0.0833 0.3232,-0.19108 0.5,-0.25 0.419,-0.13969 0.5423,-0.0212 1,-0.25 0.157,-0.0785 9.2648,-0.0971 9.75,0 0.1772,0.0354 0.7998,0.39988 1,0.5 0.1491,0.0745 0.3821,-0.11786 0.5,0 0.2124,0.21246 0.2875,0.53754 0.5,0.75 0.1178,0.11785 0.3821,-0.11786 0.5,0 0.1318,0.13176 0.1009,0.38819 0.25,0.5 1.0029,0.7522 0.5374,-0.31886 1.25,0.75 0.4094,0.61412 1.2358,1.86789 2,2.25 0.6613,0.33067 1.3298,0.23192 2,0.5 3.2379,1.29518 8.6598,0.10996 12.5,0.75 0.2965,0.0494 1.975,-0.27495 2.25,0 0.1178,0.11785 0,0.33333 -0.25,0.125 0.1421,-2.27572 2.0361,-2.67917 3,-4.125 0.092,-0.13868 -0.074,-0.35093 0,-0.5 0.4139,-0.82787 1.2095,-1.62845 1.5,-2.5 0.1034,-0.31027 -0.042,-0.99642 0,-1.25 0.1,-0.59843 0.381,-1.15511 0.5,-1.75 0.1113,-0.5566 -0.1375,-1.20013 0,-1.75 0.057,-0.22867 0.3946,-0.28919 0.5,-0.5 0.2116,-0.4232 0.057,-1.11485 0.25,-1.5 0.1456,-0.29122 0.3544,-0.45879 0.5,-0.75 0.1137,-0.22736 0.1375,-2.02995 0,-2.25 -0.2731,-1.08074 -1.4434,-1.41507 -2,-2.25 -0.1462,-0.21927 -0.1144,-0.52403 -0.25,-0.75 -0.2745,-0.45756 -0.6227,-0.8727 -1,-1.25 -0.1318,-0.13177 -0.3966,-0.095 -0.5,-0.25 -0.092,-0.13868 0.1,-0.36667 0,-0.5 0.2152,-1.49637 -0.7365,-0.23648 -1,-0.5 -0.5256,-0.52559 -0.82,-1.29668 -1.5,-1.75 -0.5116,-0.34106 -1.1837,-0.87244 -1.75,-1.25 -0.1387,-0.0924 -0.3822,0.11785 -0.5,0 -0.1318,-0.13177 -0.1009,-0.3882 -0.25,-0.5 -0.2108,-0.15812 -0.5307,-0.10383 -0.75,-0.25 -0.2942,-0.19612 -0.4672,-0.53787 -0.75,-0.75 -0.067,-0.05 -0.1911,0.0589 -0.25,0 -0.059,-0.0589 0.046,-0.18067 0,-0.25 -0.6889,-1.03327 -1.8437,-1.65612 -2.5,-2.75 -0.3316,-0.55268 -0.3449,-1.20981 -0.75,-1.75 -0.2298,-0.3064 -0.6298,-0.6393 -0.75,-1 -0.1581,-0.22435 0.079,-0.51283 0,-0.75 -0.1719,-0.51569 -0.6184,-0.97348 -0.75,-1.5 -0.04,-0.16169 0.053,-0.34189 0,-0.5 -0.1615,-0.48447 -1.2268,-1.86251 -1.5,-2.5 -0.3356,-0.783 -0.154,-1.55798 -0.5,-2.25 -0.3987,-0.79745 0.342,-6.38207 0,-7.75 -0.1587,-0.6349 -1.418,-1.95898 -2,-2.25 -0.4714,-0.23571 -1.0784,-0.18378 -1.5,-0.5 -0.1491,-0.11181 -0.095,-0.39664 -0.25,-0.5 -0.1387,-0.0924 -0.3468,0.0657 -0.5,0 -0.6175,-0.26466 -1.1126,-0.78754 -1.75,-1 -0.64,-0.21332 -1.7156,-0.5992 -2.25,-1 -0.2829,-0.21214 -0.4672,-0.53787 -0.75,-0.75 -0.067,-0.05 -0.186,0.0534 -0.25,0 -0.5432,-0.45268 -0.9117,-1.10777 -1.5,-1.5 -0.1551,-0.10337 -0.3682,-0.11824 -0.5,-0.25 -0.5893,-0.58926 -0.9794,-1.34928 -1.5,-2 -0.3193,-0.39912 -1.0148,-1.25737 -1.5,-1.5 -0.074,-0.0373 -0.1911,0.0589 -0.25,0 -0.1318,-0.13176 -0.1466,-0.34496 -0.25,-0.5 -0.641,-0.96154 -1.859,-1.53846 -2.5,-2.5 -0.046,-0.0693 0.059,-0.19108 0,-0.25 -0.302,-0.30198 -0.7079,-0.38492 -1,-0.75 -0.25,-0.33334 -0.5,-0.66667 -0.75,-1 0,-0.0833 0.046,-0.18067 0,-0.25 0.6169,-0.75687 -0.68,-0.43002 -0.75,-0.5 -1.6981,-2.26414 0,-0.31499 -1.25,-1.25 -0.9323,-0.69925 -2.1248,-2.37484 -3,-3.25 -0.059,-0.0589 -0.1807,0.0462 -0.25,0 -0.1961,-0.13075 -0.2892,-0.39459 -0.5,-0.5 -0.1491,-0.0745 -0.3613,0.0924 -0.5,0 -0.2786,-0.1857 -0.51,-1.00997 -0.75,-1.25 -0.059,-0.0589 -0.1911,0.0589 -0.25,0 -0.3935,-0.39346 -0.5749,-0.82484 -1,-1.25 -0.059,-0.0589 -0.1911,0.0589 -0.25,0 -0.9757,-0.97569 0.058,-0.13427 -0.25,-0.75 -0.082,-0.16371 -0.6092,-0.92959 -0.75,-1 -0.074,-0.0373 -0.1911,0.0589 -0.25,0 -0.3333,-0.33334 0.4167,-0.25 0.25,-0.125 -0.8988,0.096 -3.3664,-0.70518 -4.75,0.125 -0.2021,0.12126 -0.3039,0.36925 -0.5,0.5 -0.069,0.0462 -0.1667,0 -0.25,0 -0.3333,0.16666 -0.7019,0.27639 -1,0.5 -0.067,0.05 0.059,0.19107 0,0.25 -0.6082,0.60814 -1.4987,0.99805 -2,1.75 -0.2067,0.31008 -0.2365,0.73647 -0.5,1 -0.059,0.0589 -0.2127,-0.0745 -0.25,0 -0.1,0.2 0.1,0.55 0,0.75 -0.1054,0.21082 -0.3693,0.30388 -0.5,0.5 -0.1034,0.15504 -0.095,0.39663 -0.25,0.5 -0.1387,0.0924 -0.3822,-0.11785 -0.5,0 -0.5,0.5 0.25,0.375 0,0.75 -1.6583,1.65829 0.2357,-0.47141 -0.5,1 -0.037,0.0745 -0.1911,-0.0589 -0.25,0 -0.3773,0.3773 -0.6799,0.82312 -1,1.25 -0.6141,0.0891 -0.1038,0.53073 -0.25,0.75 -0.3207,0.481 -0.9026,0.78677 -1.25,1.25 -0.1161,0.1548 -0.9707,1.73536 -1,1.75 -0.1491,0.0745 -0.3613,-0.0924 -0.5,0 0,0.003 -1.4036,1.60533 -1.5,1.75 -0.046,0.0693 0.059,0.19107 0,0.25 -0.059,0.0589 -0.1755,-0.0373 -0.25,0 -0.3829,0.19144 -0.1955,0.4455 -0.5,0.75 -1.2776,1.27759 0.3487,-1.04825 -1,0.75 -0.1118,0.14907 -0.1182,0.36824 -0.25,0.5 -0.1318,0.13176 -0.3682,0.11824 -0.5,0.25 -0.1624,0.16239 -0.3555,0.78319 -0.5,1 -0.412,0.61792 -1.0328,1.43939 -1.5,2 -0.2709,0.3251 -0.8126,0.87515 -1,1.25 -0.074,0.14907 0.04,0.33831 0,0.5 -0.2111,0.84453 -0.8879,1.77587 -1.25,2.5 -0.121,0.24204 -0.1057,0.78346 -0.25,1 -0.1961,0.29417 -0.6382,0.41459 -0.75,0.75 -0.125,0.375 0.062,0.4375 0,0.75 -0.083,0.33333 -0.1667,0.66666 -0.25,1 -0.083,0.0833 -0.2127,0.13819 -0.25,0.25 -0.263,0.78904 0.1422,1.8578 -0.5,2.5"
         id="path138" />
    </g>
  </g>
</svg>
