<?xml version="1.0" encoding="UTF-8" standalone="no"?>
<!-- Created with Inkscape (http://www.inkscape.org/) -->

<svg
   version="1.1"
   id="svg2"
   width="140.58327"
   height="105.33891"
   viewBox="0 0 140.58327 105.33891"
   xmlns="http://www.w3.org/2000/svg"
   xmlns:svg="http://www.w3.org/2000/svg">
  <defs
     id="defs6">
    <linearGradient
       id="swatch77">
      <stop
         style="stop-color:#e2c69e;stop-opacity:1;"
         offset="0"
         id="stop77" />
    </linearGradient>
  </defs>
  <g
     id="layer66"
     style="display:inline"
     transform="translate(-503.50267,-233.3906)">
    <g
       id="layer74"
       style="display:inline">
      <path
         style="fill:#969696;fill-opacity:1;stroke:none;stroke-opacity:1"
         d="m 513.5363,274.88776 c 0.0406,-0.44629 0.10673,-0.81718 0.17678,-1.23744 0.0581,-0.3487 0,-0.79497 0,-1.14904 v -1.94455 c 0,-0.771 0.0382,-1.53862 -0.0884,-2.2981 -0.0381,-0.22838 0.0453,-0.48035 0,-0.7071 -0.0463,-0.23176 -0.21037,-0.39953 -0.26517,-0.61872 -0.0647,-0.25859 -0.0399,-1.18721 -0.0884,-1.5026 -0.0714,-0.46422 -0.11569,-0.29728 -0.26516,-0.7955 -0.0432,-0.14389 -0.0409,-0.29942 -0.0884,-0.44194 -0.0132,-0.0395 -0.0783,-0.048 -0.0884,-0.0884 -0.0357,-0.14291 0.0357,-0.29902 0,-0.44194 -0.18126,-0.72503 -10e-4,0.69772 -0.17677,-0.53033 -0.0581,-0.40678 -0.0967,-0.83708 -0.17678,-1.23744 -0.0909,-0.45445 -0.30212,-0.86291 -0.35355,-1.32582 -0.013,-0.11713 0.0194,-0.23731 0,-0.35356 -0.0217,-0.12996 -0.13511,-0.22855 -0.17678,-0.35355 -0.0866,-0.25976 -0.18968,-0.53128 -0.26517,-0.79549 -0.12986,-0.45453 -0.17993,-0.98017 -0.35355,-1.41422 -0.10331,-0.25828 -0.40014,-0.34258 -0.53033,-0.7071 -0.10346,-0.28968 -0.16171,-0.59421 -0.26517,-0.88389 -0.0443,-0.12408 -0.13511,-0.22855 -0.17677,-0.35355 -0.0186,-0.0559 0.0264,-0.12407 0,-0.17678 -0.0373,-0.0745 -0.1339,-0.10532 -0.17678,-0.17677 -0.0479,-0.0799 -0.0405,-0.18528 -0.0884,-0.26517 -0.0643,-0.10719 -0.20926,-0.15336 -0.26516,-0.26516 -0.19097,-0.38193 -0.33352,-0.84381 -0.53033,-1.23744 -0.1134,-0.22679 -0.41926,-0.39657 -0.53033,-0.61872 -0.0263,-0.0527 0.0342,-0.12883 0,-0.17678 -0.16953,-0.23734 -0.48828,-0.35784 -0.61872,-0.61871 -0.0543,-0.10866 -0.0341,-0.2449 -0.0884,-0.35356 -0.1243,-0.24861 -0.30884,-0.46309 -0.44194,-0.7071 -0.0446,-0.0818 -0.0589,-0.17678 -0.0884,-0.26517 -0.0589,-0.14731 -0.0997,-0.30325 -0.17678,-0.44194 -0.0715,-0.12878 -0.19928,-0.22179 -0.26516,-0.35356 -0.28572,-0.57144 -0.48321,-1.20565 -0.7955,-1.76776 -0.18488,-0.33279 -0.44872,-0.63229 -0.61871,-0.97227 -0.0264,-0.0527 0,-0.11785 0,-0.17678 -0.0589,-0.11785 -0.10369,-0.24392 -0.17678,-0.35355 -0.36923,-0.55385 -0.69563,-1.04345 -1.06066,-1.59099 -0.39998,-0.59997 0.16674,0.22047 -0.0884,-0.35356 -0.0965,-0.21706 -0.24732,-0.40626 -0.35355,-0.61872 -0.0833,-0.16666 -0.0935,-0.36366 -0.17678,-0.53033 -0.20752,-0.41503 -0.13287,-0.1112 -0.26516,-0.44194 -0.11029,-0.27572 -0.003,-0.54071 0.13262,-0.83968 0.25051,-0.16204 0.23161,-0.30442 0.30941,-0.39774 0.18893,-0.22673 1.03276,-0.38054 1.23743,-0.44195 0.18199,-0.0546 0.43349,-0.15993 0.61872,-0.17677 0.36808,-0.0335 2.11335,0.0924 2.2981,0 0.0745,-0.0373 0.0951,-0.16044 0.17678,-0.17678 0.23112,-0.0462 0.47598,0.0462 0.7071,0 0.0409,-0.008 0.0527,-0.067 0.0884,-0.0884 1.06148,-0.63688 -0.12976,0.24411 0.44194,-0.44194 0.12078,-0.14493 0.28498,-0.24891 0.44194,-0.35355 0.1414,-0.0943 0.30376,-0.27065 0.44195,-0.35356 0.18798,-0.11279 0.66927,-0.27365 0.79549,-0.44194 0.0857,-0.11425 0.24476,-0.42153 0.35355,-0.53033 0.0208,-0.0208 0.0676,0.0208 0.0884,0 0.13976,-0.13975 0.16348,-0.36085 0.26517,-0.53033 0.11492,-0.19154 0.31966,-0.34691 0.44194,-0.53033 0.0163,-0.0245 -0.0245,-0.072 0,-0.0884 0.0775,-0.0517 0.18183,-0.0467 0.26517,-0.0884 0.10606,-0.053 0.15909,-0.21213 0.26516,-0.26516 0.25238,-0.12619 0.44912,-0.0515 0.70711,-0.0884 0.62134,-0.0888 1.24807,-0.0552 1.85615,-0.17678 0.11556,-0.0231 0.24175,0.0373 0.35356,0 0.31255,-0.10418 0.37415,-0.50773 0.7071,-0.61871 0.18488,-0.0616 0.44571,-0.0903 0.61872,-0.17678 0.0373,-0.0186 0.048,-0.0783 0.0884,-0.0884 0.22866,-0.0572 0.47322,0.0292 0.70711,0 0.0924,-0.0116 0.1738,-0.0701 0.26516,-0.0884 0.20224,-0.0404 0.41529,0.0339 0.61872,0 0.0411,-0.007 0.0511,-0.0697 0.0884,-0.0884 0.14191,-0.071 0.28997,-0.13118 0.44194,-0.17677 0.1439,-0.0432 0.29375,-0.0637 0.44194,-0.0884 0.0581,-0.01 0.12625,0.0303 0.17678,0 0.12632,-0.0758 0.22723,-0.18937 0.35355,-0.26517 0.0505,-0.0303 0.12407,0.0264 0.17678,0 0.10747,-0.0537 0.25192,-0.12596 0.35355,-0.17677 0.095,-0.0475 0.19005,-0.10166 0.26517,-0.17678 0.0208,-0.0208 -0.0245,-0.072 0,-0.0884 0.0621,-0.0414 0.44356,-0.23624 0.53033,-0.26516 0.0559,-0.0186 0.12087,0.0186 0.17677,0 0.16583,-0.0553 0.29731,-0.25714 0.44195,-0.35356 0.0548,-0.0365 0.11785,-0.0589 0.17677,-0.0884 0.0589,0 0.12775,0.0327 0.17678,0 0.0548,-0.0366 0.0418,-0.1302 0.0884,-0.17678 0.0625,-0.0625 0.1861,0.0395 0.26516,0 0.13176,-0.0659 0.22179,-0.19929 0.35356,-0.26517 0.1054,-0.0527 0.23922,0.0286 0.35355,0 0.12783,-0.0319 0.22686,-0.14057 0.35355,-0.17677 0.40709,-0.11631 0.83161,-0.16371 1.23744,-0.26517 0.19055,-0.0476 0.42361,0.0244 0.61872,0 0.14731,-0.0295 0.29463,-0.0589 0.44194,-0.0884 0,-0.0295 -0.028,-0.0791 0,-0.0884 0.27483,-0.0916 0.85728,0 1.14905,0 0.42295,0 2.27378,-0.0965 2.56326,0 0.0395,0.0132 0.0489,0.0752 0.0884,0.0884 0.14688,0.049 0.47236,0 0.66288,-0.0441 0.20178,1.00343 0.50281,2.10783 1.01643,3.04946 0.24679,0.45245 0.5487,0.87337 0.79549,1.32582 0.13895,0.25475 0.1926,0.55406 0.35356,0.7955 0.0817,0.12257 0.19928,0.22179 0.26516,0.35355 0.0263,0.0527 -0.0297,0.12588 0,0.17678 0.18121,0.31065 0.41923,0.58464 0.61872,0.88388 0.29972,0.44958 0.29894,1.03983 0.53033,1.5026 0.0659,0.13177 0.19928,0.2218 0.26516,0.35356 0.0543,0.10865 0.0469,0.23939 0.0884,0.35355 0.88707,2.43943 -0.62516,-2.09539 0.70711,1.67938 0.05,0.14167 0.0471,0.29749 0.0884,0.44194 0.0543,0.19004 0.20266,0.34283 0.26516,0.53033 0.0186,0.0559 -0.0207,0.1216 0,0.17678 0.1458,0.38878 0.39808,0.7523 0.53033,1.14905 0.0678,0.20348 0.13025,0.40933 0.17678,0.61871 0.0128,0.0575 -0.0219,0.12207 0,0.17678 0.0394,0.0986 0.13493,0.16753 0.17678,0.26517 0.0479,0.11165 0.05,0.23831 0.0884,0.35355 0.13051,0.39153 0.37618,0.76366 0.53033,1.14905 0.14763,0.36905 0.22747,0.77077 0.35356,1.14905 0.11056,0.33169 0.37563,0.64072 0.44194,0.97227 0.1455,0.72748 -0.26463,-0.35195 0.0884,0.70711 -0.0452,0.19761 0.15594,0.0259 0.17677,0.0884 0.028,0.0839 -0.031,0.18241 0,0.26517 0.0694,0.18506 0.17678,0.35355 0.26517,0.53033 0.18555,0.37109 0.84636,0.77215 1.23744,0.88388 0.36092,0.10312 0.20624,-0.13749 0.61871,0 0.0791,0.0264 0.10225,0.13951 0.17678,0.17678 0.2086,0.1043 0.41012,0.0725 0.61872,0.17678 0.0373,0.0186 0.048,0.0783 0.0884,0.0884 0.0857,0.0214 0.18611,-0.0395 0.26516,0 0.11181,0.0559 0.17678,0.17678 0.26517,0.26517 0.29132,0.29132 0.64872,0.64304 0.88388,0.97227 0.41333,0.57866 0.12669,0.27008 0.44194,0.7955 0.19702,0.32836 0.0209,-0.41313 0.26517,0.44194 0.0243,0.085 -0.0243,0.18018 0,0.26516 0.1288,0.4508 0.1985,0.21872 0.26516,0.61872 0.0194,0.11625 -0.0373,0.24175 0,0.35355 0.0208,0.0625 0.0589,0.11786 0.0884,0.17678 0.0295,0.0884 0.0628,0.17558 0.0884,0.26517 0.0639,0.2237 0.0532,0.58951 0.17678,0.79549 0.0429,0.0715 0.13055,0.10744 0.17677,0.17678 0.0978,0.14662 0.13317,0.36533 0.26517,0.53033 0.41076,0.51345 1.03668,1.18585 1.59099,1.5026 0.31898,0.18227 0.50449,0.15093 0.79549,0.44194 0.16272,0.16272 0.27923,0.36762 0.44195,0.53033 0.17946,0.17946 0.66068,0.4165 0.79549,0.61872 0.0163,0.0245 -0.0163,0.0639 0,0.0884 0.0402,0.0603 0.33026,0.26037 0.35355,0.35355 0.0214,0.0858 -0.0243,0.18018 0,0.26517 0.12978,0.45422 0.44912,0.90181 0.61872,1.32582 0.0451,0.11279 0.0341,0.2449 0.0884,0.35356 0.0373,0.0745 0.12678,0.11011 0.17678,0.17677 0.21967,0.2929 0.34811,0.66858 0.53033,0.97227 0.52508,0.87515 2.01374,2.05024 3.0052,2.2981 0.3595,0.0899 1.07465,0.0106 1.5026,0.0884 0.61607,0.11201 1.04938,0.22016 1.67938,0.26516 1.58236,0.11303 3.19238,-0.13171 4.77297,0 0.97839,0.0815 1.93735,0.27821 2.91682,0.35356 0.30972,0.0238 0.77411,-0.0168 1.06066,-0.0884 0.0404,-0.0101 0.0489,-0.0752 0.0884,-0.0884 0.27951,-0.0932 0.58925,0 0.88388,0 h 4.50781 c 0.6897,0 1.43305,-0.0765 2.12132,0 0.92412,0.10268 -0.017,0.0884 0.53033,0.0884 1.12066,0.52449 2.33658,0.3535 3.53543,0.3535 h 2.20971 3.09359 c 0.65177,0 1.31304,-0.0379 1.94454,0.0884 0.12921,0.0258 0.26039,0.0836 0.35356,0.17678 0.0208,0.0208 -0.0236,0.0707 0,0.0884 0.21082,0.15811 0.45711,0.27022 0.70711,0.35355 0.0559,0.0186 0.12087,-0.0186 0.17677,0 0.25271,-0.16071 0.30406,0.19622 0.44194,0.26516 0.29864,0.14932 0.65886,0.1607 0.97228,0.26517 0.32132,0.10711 0.58138,0.29069 0.88388,0.44194 0.0264,0.0132 0.0589,0 0.0884,0 0.0884,0.0295 0.18427,0.0422 0.26516,0.0884 1.06357,0.60775 1.59099,1.83025 1.59099,3.0052 0,0.14732 0.0659,0.31018 0,0.44195 0.049,0.2189 -0.19928,0.22179 -0.26516,0.35355 -0.0417,0.0833 -0.0278,0.19442 -0.0884,0.26516 -0.39051,0.4556 -2.37493,1.40031 -2.82843,1.67938 -0.071,0.0437 -0.10224,0.13951 -0.17677,0.17678 -0.16667,0.0833 -0.36745,0.0863 -0.53033,0.17678 -0.10927,0.0607 -0.17678,0.17677 -0.26517,0.26516 -0.14731,0.11785 -0.2732,0.26919 -0.44194,0.35355 -0.0791,0.0395 -0.18393,-0.0348 -0.26517,0 -0.29542,0.12662 -0.38356,0.34221 -0.61872,0.53033 -1.00098,0.80079 -1.06066,1.98734 -1.06066,3.18198 0,0.47104 -0.0777,1.03623 0,1.50261 0.0154,0.0926 0.29413,0.45604 0.35356,0.53033 0.89439,1.11799 2.16689,1.43244 3.44714,1.94454 0.19493,0.078 0.2718,0.26848 0.44195,0.35355 0.23952,0.11977 -0.12288,-0.38804 0.35355,0.0884 0.44454,0.44454 0.43742,1.22388 0.61872,1.76777 0.0417,0.125 0.14058,0.22686 0.17677,0.35355 0.0857,0.1073 -0.0286,0.23922 0,0.35356 0.11109,0.44433 0.0491,0.0983 0.26517,0.53033 0.0543,0.10865 0.021,0.25247 0.0884,0.35355 0.0919,0.13778 0.31782,0.44345 0.44194,0.53033 0.1946,0.13622 0.42108,0.22179 0.61872,0.35355 1.07614,0.71743 2.1903,1.44871 3.35875,2.03293 0.34258,0.1713 0.71808,0.27066 1.06066,0.44195 0.7552,0.37759 1.41306,1.05993 2.12133,1.5026 1.45915,0.91197 -0.67219,-0.6576 1.32582,0.79549 0.23137,0.16827 0.61819,0.5298 0.7955,0.70711 0.0466,0.0466 0.0418,0.13019 0.0884,0.17678 0.33561,0.3356 0.72156,0.63316 1.06066,0.97227 0.37305,0.37304 0.73129,0.82412 1.14905,1.14905 -0.51504,1.10293 0.46624,0.2519 0.61872,0.35355 0.60897,0.40598 1.12781,0.94144 1.67938,1.41421 1.02412,0.87782 -0.63524,-0.64961 0.61872,0.35356 0.0514,0.0412 0.0589,0.11785 0.0884,0.17677 0.11785,0.11786 0.21793,0.25668 0.35355,0.35356 0.0758,0.0541 0.18884,0.035 0.26516,0.0884 0.56047,0.39232 0.94275,0.94274 1.41422,1.41421 0.1047,0.1047 0.3227,0.17573 0.44194,0.26516 0.35355,0.26517 0,0.17678 0.53033,0.53034 0.049,0.0327 0.12407,-0.0264 0.17678,0 0.30731,0.15365 0.60901,0.32417 0.88388,0.53033 0.22977,0.17232 0.44331,0.39843 0.70711,0.53033 0.0264,0.0132 0.0589,0 0.0884,0 0.0884,0.0589 0.18221,0.11041 0.26516,0.17677 0.0651,0.0521 0.10224,0.13951 0.17678,0.17678 0.0527,0.0263 0.12087,-0.0186 0.17677,0 0.20156,0.0672 0.33505,0.26986 0.53033,0.35355 0.25691,0.11011 0.53282,0.16965 0.7955,0.26517 0.22633,0.0823 0.19821,0.17677 0.44194,0.17677 1.54386,0.6273 3.18169,0.94385 4.81712,1.23739 1.1214,0.20128 2.45052,0.38963 3.53553,0.7513 0.10643,0.0355 0.20228,0.0991 0.30936,0.13258 0.12963,0.0405 0.27011,0.042 0.39775,0.0884 0.0391,0.0142 0.0518,0.0684 0.0884,0.0884 0.12737,0.0695 0.27,0.10799 0.39774,0.17678 0.0649,0.0349 0.1109,0.0996 0.17678,0.13258 0.15422,0.0771 0.33929,0.0864 0.48614,0.17678 0.24407,0.1502 0.83122,0.59974 1.01646,0.7513 0.13729,0.11233 0.25135,0.25338 0.39775,0.35355 0.13593,0.093 0.3049,0.12961 0.44194,0.22097 0.26232,0.17488 0.49177,0.39554 0.7513,0.57453 0.16848,0.11619 0.3638,0.1904 0.53033,0.30936 0.14435,0.1031 0.26147,0.23999 0.39775,0.35355 0.17894,0.14911 0.37923,0.27081 0.57452,0.39775 0.1716,0.11153 0.37052,0.18151 0.53033,0.30936 0.2103,0.16823 0.4248,0.35384 0.66292,0.48613 0.13869,0.077 0.30992,0.0888 0.44194,0.17678 0.0693,0.0462 0.10442,0.13543 0.17677,0.17677 0.0773,0.0442 0.51376,0.19888 0.66292,0.26517 0.1204,0.0535 0.22855,0.13511 0.35355,0.17678 0.0713,0.0238 0.15064,0.0178 0.22097,0.0442 0.40343,0.15128 -0.0659,0.037 0.22097,0.13258 0.0576,0.0192 0.12245,0.017 0.17678,0.0442 0.1718,0.0859 0.3078,0.23802 0.48613,0.30936 0.0996,0.0398 0.20624,0.0589 0.30936,0.0884 0.10312,0.0442 0.20684,0.087 0.30936,0.13258 0.23142,0.10285 0.0804,0.10446 0.53033,0.26516 0.0555,0.0198 0.11785,0 0.17678,0 0.10312,0.0295 0.20926,0.0499 0.30936,0.0884 0.12298,0.0473 0.23018,0.13051 0.35355,0.17678 0.3914,0.14677 0.49304,0.19605 0.92808,0.44194 0.14956,0.0845 0.28828,0.18833 0.44194,0.26516 0.32271,0.16136 0.62691,0.22916 0.88389,0.48614 0.0104,0.0104 -0.0113,0.0348 0,0.0442 0.54901,0.36601 0.0164,-0.0277 0.44194,0.39775 0.0521,0.0521 0.12784,0.0775 0.17677,0.13258 0.17991,0.2024 0.37185,0.53999 0.53033,0.75131 0.13726,0.183 0.25329,0.25414 0.39775,0.44194 0.38644,0.50237 0.73694,1.0218 1.14905,1.5026 0.17175,0.20038 0.38967,0.34548 0.57452,0.53033 0.0667,0.0667 0.11008,0.15427 0.17678,0.22097 0.0104,0.0104 0.0329,-0.009 0.0442,0 l 0.22097,0.22097 c 0.0295,0.0147 0.0629,0.0233 0.0884,0.0442 0.60149,-0.21619 0.28516,0.30475 0.44195,0.44194 0.0954,0.0835 0.21128,0.14072 0.30936,0.22097 0.0645,0.0528 0.11275,0.12343 0.17677,0.17677 0.10677,0.089 0.24599,0.13297 0.35356,0.22098 0.0806,0.066 0.13963,0.15589 0.22097,0.22097 0.0671,0.0537 0.15575,0.0767 0.22097,0.13258 0.0403,0.0346 0.0508,0.095 0.0884,0.13258 0.0233,0.0233 0.0624,0.024 0.0884,0.0442 0.14892,0.11582 0.30855,0.22015 0.44195,0.35355 0.0376,0.0376 0.0508,0.095 0.0884,0.13258 0.0104,0.0104 0.0319,-0.008 0.0442,0 0.0347,0.0231 0.0589,0.0589 0.0884,0.0884 0.127,0.127 0.53338,0.61872 0.86174,0.70707 0.77587,0.0883 1.40476,0.006 1.9224,0.26513 0.10541,0.0527 0.24814,-0.0527 0.35355,0 0.29866,0.1493 0.11529,0.46884 0.35356,0.70711 0.2357,0.23567 0.16962,-0.375 0.35355,0.17677 0.16596,0.49788 0.43643,1.73479 0.53033,2.2981 0.0822,0.49342 0.14897,3.44216 0,3.88909 -0.11564,0.34693 -0.61611,0.69654 -0.70711,1.06066 -0.0429,0.1715 0.0347,0.35699 0,0.53033 -0.0926,0.463 -0.47106,0.7066 -0.7071,1.06066 -0.10338,0.15504 -0.045,0.39857 -0.17678,0.53033 -0.0932,0.0932 -0.28045,0.0671 -0.35355,0.17678 -0.0654,0.0981 0.0373,0.24175 0,0.35355 -0.10574,0.31719 -0.71696,0.60566 -0.88389,0.88388 -0.0959,0.15979 -0.0734,0.37529 -0.17677,0.53033 -0.16343,0.24515 -1.2524,-1.08173 -0.70711,0.53033 -0.0606,0.10106 0.0286,0.23922 0,0.35356 -0.0815,0.32601 -0.22518,0.45034 -0.35355,0.7071 -0.095,0.18996 0.0682,0.50258 0,0.70711 -0.0866,0.2599 -0.47583,0.4893 -0.53033,0.70711 -0.10628,0.42514 0.15827,0.54883 -0.17678,0.88388 -0.0417,0.0417 -0.13508,-0.0417 -0.17678,0 -0.0417,0.0417 0.0417,0.13508 0,0.17678 -0.0522,0.0522 -0.85838,0.009 -0.88388,0 -0.0791,-0.0264 -0.0977,-0.15048 -0.17678,-0.17678 -0.42329,-0.1411 -0.98048,0.10843 -1.41421,0 -0.0809,-0.0202 -0.096,-0.15658 -0.17678,-0.17678 -0.47779,-0.11947 -0.40609,-0.0573 -0.88388,-0.17677 -0.22867,-0.0572 -0.4835,0.0745 -0.70711,0 -0.37042,-0.12348 -0.62441,-0.35356 -1.06066,-0.35356 -0.49656,0 -0.42031,-0.19903 -0.88388,-0.35355 -0.26517,-0.0884 -0.17678,0.17678 -0.53033,0 -0.22361,-0.1118 -0.30673,-0.41853 -0.53033,-0.53033 -0.21578,-0.10789 -0.74156,-0.21123 -0.88389,-0.35355 -0.0417,-0.0417 0.0417,-0.13508 0,-0.17678 -0.15023,-0.15023 -0.3403,-0.25855 -0.53033,-0.35355 -0.0527,-0.0264 -0.13507,0.0417 -0.17677,0 -0.20259,-0.20259 -0.32775,-0.6813 -0.53033,-0.88389 -0.0932,-0.0932 -0.26036,-0.0836 -0.35356,-0.17677 -0.0417,-0.0417 0.0417,-0.13508 0,-0.17678 -0.18258,-0.18259 -1.64023,-0.55495 -1.94454,-0.70711 -0.54263,-0.27131 -1.09732,-0.53126 -1.59099,-0.88388 -0.10718,-0.0766 -0.0836,-0.26035 -0.17678,-0.35355 -0.16593,-0.16594 -1.14046,-0.48811 -1.41421,-0.70711 -0.86348,-0.69081 -0.46716,-0.82072 -0.88388,-1.23744 -0.0417,-0.0417 -0.15038,0.0527 -0.17678,0 -0.11008,-0.22016 0.17823,-0.58877 -0.17678,-0.7071 -0.1118,-0.0373 -0.25545,0.0654 -0.35355,0 -0.10968,-0.0731 -0.0836,-0.26036 -0.17678,-0.35356 -0.471,-0.471 -0.90605,-0.54511 -1.41421,-0.88388 -0.53033,-0.35355 0.35355,0 -0.53033,-0.53033 -0.15772,-0.0946 -0.9317,-0.22459 -1.06066,-0.35355 -0.36576,-0.36576 0.55892,0.0143 -0.17678,-0.35356 -0.22191,-0.11097 -0.88311,-0.10067 -1.06066,-0.17677 -0.60934,-0.26115 -1.43663,-0.92 -1.94454,-1.23744 -0.26909,-0.16818 -0.61986,-0.17754 -0.88389,-0.35355 -0.049,-0.0327 0.0417,-0.13508 0,-0.17678 -0.36575,-0.36576 0.0143,0.55892 -0.35355,-0.17678 -0.0263,-0.0527 0.0527,-0.15047 0,-0.17677 -0.10541,-0.0527 -0.24814,0.0527 -0.35355,0 -0.0527,-0.0264 0.0263,-0.12408 0,-0.17678 -0.11181,-0.22361 -0.30673,-0.41853 -0.53033,-0.53033 -0.18856,-0.0943 -0.51855,0.0943 -0.70711,0 -0.0745,-0.0373 -0.0959,-0.15658 -0.17678,-0.17678 -0.73731,-0.18433 -6.47253,-0.0444 -6.89429,0 -0.54028,0.0569 -1.06066,0.2357 -1.76776,0.39775 -0.60237,-0.54273 -1.25168,-0.53542 -1.85616,-0.7513 -0.41059,0.0532 -0.63701,-0.32221 -0.97227,-0.44194 -0.97572,-0.34847 -1.99581,-0.60016 -2.91682,-1.06066 -0.0833,-0.0417 -0.18764,-0.0367 -0.26516,-0.0884 -1.02493,-0.68329 -0.15111,-0.1916 -0.7955,-0.70711 -0.32035,-0.25628 -0.75164,-0.43242 -1.06066,-0.70711 -0.18685,-0.16609 -0.35355,-0.35355 -0.53033,-0.53033 -0.20624,-0.14731 -0.42628,-0.277 -0.61871,-0.44194 -0.22145,-0.18981 -0.39097,-0.43651 -0.61872,-0.61872 -0.0728,-0.0582 -0.18616,-0.039 -0.26517,-0.0884 -0.20675,-0.12923 -0.89054,-0.62538 -1.06066,-0.7955 -0.16271,-0.16271 -0.2709,-0.37639 -0.44194,-0.53033 -0.3993,-0.35937 -0.98768,-0.56398 -1.41421,-0.88388 -0.26477,-0.19857 -0.51866,-0.43416 -0.7955,-0.61872 -0.12534,-0.0836 -0.58124,-0.24643 -0.61872,-0.26517 -0.33509,-0.16754 -1.22685,-0.67707 -1.5026,-0.88388 -0.0527,-0.0395 -0.0369,-0.13562 -0.0884,-0.17678 -0.10289,-0.0823 -0.24182,-0.10694 -0.35355,-0.17677 -0.12492,-0.0781 -0.22179,-0.19929 -0.35355,-0.26517 -0.16667,-0.0833 -0.36367,-0.0934 -0.53033,-0.17677 -0.32168,-0.16084 -0.61083,-0.38467 -0.88389,-0.61872 -0.05,-0.0429 -0.0357,-0.13725 -0.0884,-0.17678 -0.44995,-0.33747 -0.95762,-0.41359 -1.41421,-0.70711 -0.35355,-0.2357 -0.70711,-0.4714 -1.06066,-0.7071 -0.0589,-0.0589 -0.11011,-0.12678 -0.17678,-0.17678 -0.4404,-0.33031 -0.78066,-0.42163 -1.23743,-0.70711 -0.0707,-0.0442 -0.10744,-0.13055 -0.17678,-0.17677 -0.62775,-0.4185 -1.46428,-0.55537 -2.12132,-0.88389 -0.15366,-0.0768 -0.28828,-0.18833 -0.44194,-0.26516 -0.42991,-0.21496 -0.98177,-0.22572 -1.41422,-0.44194 -0.11638,-0.0582 -0.29641,-0.22548 -0.44194,-0.26517 -0.44127,-0.12034 -0.88209,-0.24262 -1.32582,-0.35355 -0.38135,-0.0953 -0.76642,-0.17514 -1.14905,-0.26517 -0.23122,-0.0544 -0.4847,-0.005 -0.70711,-0.0884 -0.50215,-0.1883 -1.14445,-0.51173 -1.67938,-0.61871 -0.14445,-0.0289 -0.297,0.0263 -0.44194,0 -1.79018,-0.32549 0.64072,0.006 -0.97227,-0.44195 -0.37339,-0.10371 -0.76984,-0.0969 -1.14905,-0.17677 -0.36468,-0.0768 -0.69625,-0.27547 -1.06066,-0.35356 -0.23226,-0.0498 -0.4734,-0.0459 -0.70711,-0.0884 -0.3122,-0.0568 -0.58566,-0.24511 -0.88388,-0.35356 -0.50965,-0.18532 -0.25449,-0.01 -0.88388,-0.0884 -0.24979,-0.0312 -0.46425,-0.19893 -0.70711,-0.26516 -0.14494,-0.0395 -0.29749,-0.0471 -0.44194,-0.0884 -0.25799,-0.0737 -0.46874,-0.2514 -0.70711,-0.35355 -0.31697,-0.13585 -0.65714,-0.2135 -0.97227,-0.35356 -0.68479,-0.30435 -1.25436,-0.88816 -1.85616,-1.32582 -0.42015,-0.30557 -0.87812,-0.57165 -1.32582,-0.7955 -0.35488,-0.17744 -0.64421,-0.4884 -0.97227,-0.7071 -0.0548,-0.0366 -0.11785,-0.0589 -0.17678,-0.0884 -0.17678,-0.11785 -0.36036,-0.22608 -0.53033,-0.35356 -0.62314,-0.46735 -1.21976,-1.16672 -1.85615,-1.59099 -0.10964,-0.0731 -0.24815,-0.0977 -0.35356,-0.17677 -0.40138,-0.30104 -0.77405,-0.63894 -1.14905,-0.97227 -0.36651,-0.32579 -0.63011,-0.7185 -0.97227,-1.06066 -0.10416,-0.10417 -0.24938,-0.161 -0.35355,-0.26517 -0.45474,-0.45474 -0.84227,-0.97901 -1.32583,-1.41421 -0.47428,-0.42686 -0.99424,-0.69755 -1.5026,-1.06066 -0.13447,-0.096 -0.22145,-0.25448 -0.35355,-0.35356 -0.085,-0.0637 -0.20143,-0.0918 -0.26517,-0.17677 -0.0353,-0.0471 0.0327,-0.12775 0,-0.17678 -0.0365,-0.0548 -0.13019,-0.0418 -0.17677,-0.0884 -0.10417,-0.10416 -0.17086,-0.24038 -0.26517,-0.35355 -0.29766,-0.35719 -0.65306,-0.76435 -0.88388,-1.14905 -0.0678,-0.11298 -0.0924,-0.25233 -0.17678,-0.35355 -0.068,-0.0816 -0.19005,-0.10166 -0.26516,-0.17678 -0.10418,-0.10417 -0.14348,-0.44709 -0.17678,-0.53033 -0.13099,-0.32748 -0.42141,-0.8202 -0.61872,-1.14905 -0.2357,-0.39284 0.11785,0.58926 -0.35355,-0.35355 -0.0959,-0.19185 -0.0943,-0.42073 -0.17678,-0.61872 -0.0661,-0.15858 -0.19317,-0.28596 -0.26516,-0.44194 -0.37487,-0.8122 -0.65948,-1.6725 -1.06066,-2.47488 -0.13259,-0.26516 -0.15468,-0.0884 -0.26517,-0.26516 -0.20072,-0.32116 -0.62224,-1.0268 -0.88388,-1.32583 -0.097,-0.11086 -0.24939,-0.16099 -0.35356,-0.26516 -0.16271,-0.16271 -0.27922,-0.36762 -0.44194,-0.53033 -0.22958,-0.22959 -0.55037,-0.41445 -0.79549,-0.61872 -0.32305,-0.0802 -0.32843,-0.437 -0.53033,-0.61872 -0.219,-0.19709 -0.46196,-0.3669 -0.70711,-0.53033 -0.0245,-0.0163 -0.0676,0.0208 -0.0884,0 -0.25086,-0.25086 -0.50089,-0.5068 -0.70711,-0.79549 -0.0766,-0.10722 -0.091,-0.25352 -0.17677,-0.35356 -0.0959,-0.11185 -0.25768,-0.15331 -0.35356,-0.26516 -0.0857,-0.10004 -0.0892,-0.25508 -0.17677,-0.35356 -0.15288,-0.17198 -0.36762,-0.27922 -0.53033,-0.44194 -0.2668,-0.26679 -0.50714,-0.56392 -0.70711,-0.88388 -0.0494,-0.079 -0.0287,-0.19359 -0.0884,-0.26517 -0.89614,-1.07537 0.12617,0.46285 -0.61872,-0.53033 -0.0177,-0.0236 0.0177,-0.0648 0,-0.0884 -0.0908,-0.12105 -0.46606,-0.54239 -0.61871,-0.61872 -0.85444,-0.42722 -1.75297,-0.58432 -2.65165,-0.88389 -0.38931,-0.12977 -0.7453,-0.36853 -1.14905,-0.44194 -0.2319,-0.0422 -0.4835,0.0745 -0.70711,0 -0.16298,-0.0543 -0.27527,-0.2235 -0.44194,-0.26516 -0.31897,-0.0797 -0.3505,0.0305 -0.70711,-0.0884 -0.89606,-0.29869 -1.81103,-0.55227 -2.74004,-0.70711 -0.77389,-0.12898 -1.60732,0.0974 -2.38648,0 -0.33334,-0.0417 -0.64025,-0.21408 -0.97227,-0.26516 -1.55604,-0.23939 0.0898,0.0205 -1.32583,-0.0884 -0.57248,-0.044 -0.56078,-0.13444 -1.14905,-0.26517 -0.39039,-0.0867 -0.83742,0.04 -1.23743,0 -0.6887,-0.0689 -1.33411,-0.0884 -2.03294,-0.0884 h -3.53553 c -0.43373,0 -0.97614,-0.0626 -1.41421,0 -0.87358,0.12479 -1.76309,0.0884 -2.74002,0.44203 -0.0511,-0.17332 -0.13617,-0.71139 -0.0884,-1.23737 z"
         id="path17" />
    </g>
  </g>
</svg>
