<?xml version="1.0" encoding="UTF-8" standalone="no"?>
<!-- Created with Inkscape (http://www.inkscape.org/) -->

<svg
   version="1.1"
   id="svg1"
   width="140.74998"
   height="106.5"
   viewBox="0 0 140.74998 106.5"
   xmlns="http://www.w3.org/2000/svg"
   xmlns:svg="http://www.w3.org/2000/svg">
  <defs
     id="defs1" />
  <g
     id="layer1"
     style="display:inline"
     transform="translate(-502.93749,-232.87499)">
    <g
       id="layer6"
       style="display:inline;fill:#ffffff;fill-opacity:1;stroke:none">
      <path
         style="fill:#ffffff;fill-opacity:1;stroke:none;stroke-width:1;stroke-linecap:round;stroke-dasharray:none;stroke-opacity:1"
         d="m 502.93749,241.81249 6.9375,-1.1875 1.5625,-3.25 19.8125,-4.5 6.625,19.625 2.625,0.5625 3.5,6.75 6.6875,7.1875 4.375,0.8125 16.125,0.1875 5.3125,1.75 9.5,-1.375 3.375,5.875 -1.5,2.5625 -3.3125,3.5 -0.3125,4.0625 3.1875,2.125 0.875,2.1875 19.49999,15.25 21.5625,7.125 5.25,3.8125 9.0625,11.0625 -2.375,8.1875 -2.9375,4.6875 -2.125,0.5625 -5.3125,-2.75 -2.6875,-3.4375 -5.25,-1.1875 -9.5625,-6.625 -8.62499,0.5625 -8.75,-3.6875 -5.5,-4.0625 -1.875,-4.125 -12.9375,-5.0625 -10.25,-2.125 -4.6875,-5.25 -4.8125,-1.875 -2,-2.8125 -4.1875,-1.6875 -4.3125,-9.125 -8.8125,-9 -5.25,-1.6875 -17.25,1.125 -3.25,-18.75 -5.5625,-13.625 z"
         id="path4" />
    </g>
  </g>
</svg>
