<?xml version="1.0" encoding="UTF-8" standalone="no"?>
<!-- Created with Inkscape (http://www.inkscape.org/) -->

<svg
   version="1.1"
   id="svg2"
   width="150.29741"
   height="170.20792"
   viewBox="0 0 150.29741 170.20792"
   xmlns="http://www.w3.org/2000/svg"
   xmlns:svg="http://www.w3.org/2000/svg">
  <defs
     id="defs6">
    <linearGradient
       id="swatch77">
      <stop
         style="stop-color:#e2c69e;stop-opacity:1;"
         offset="0"
         id="stop77" />
    </linearGradient>
  </defs>
  <g
     id="layer66"
     style="display:inline"
     transform="translate(-1150.2479,-449.34007)">
    <g
       id="layer83"
       style="display:inline">
      <path
         style="fill:#969696;fill-opacity:1;stroke:none;stroke-opacity:1"
         d="m 1300.5453,619.51398 c -0.546,0 -1.1441,0.0765 -1.6793,0 -0.092,-0.0132 -0.1732,-0.0752 -0.2652,-0.0884 -0.2917,-0.0417 -0.59,0.021 -0.8839,0 -0.2369,-0.0169 -0.4705,-0.0669 -0.7071,-0.0884 -0.176,-0.016 -0.357,0.0347 -0.5303,0 -0.2103,-0.0421 -0.4059,-0.15018 -0.6187,-0.17678 -0.7247,-0.0906 -1.4814,0.0607 -2.2097,0 -0.6737,-0.0561 -1.3629,-0.10977 -2.033,-0.17677 -0.3643,-0.0364 -0.6919,-0.22417 -1.0606,-0.26517 -0.436,-0.0485 -0.8892,-0.0399 -1.3259,-0.0884 -0.8901,-0.0989 -1.7631,-0.34324 -2.6516,-0.44194 -0.3228,-0.0359 -1.8707,-0.1636 -2.2981,-0.35355 -0.2692,-0.11966 -0.4436,-0.39857 -0.7071,-0.53033 -0.1087,-0.0543 -0.2414,-0.0417 -0.3536,-0.0884 -0.5856,-0.24401 -1.107,-0.62375 -1.6794,-0.88388 -0.1696,-0.0771 -0.3636,-0.0935 -0.5303,-0.17678 -0.1317,-0.0659 -0.231,-0.18347 -0.3535,-0.26517 -0.06,-0.0397 -0.5918,-0.34304 -0.7071,-0.44194 -0.5691,-0.48778 -1.1159,-1.0095 -1.6794,-1.5026 -0.3737,-0.32696 -0.6693,-0.75626 -1.0607,-1.06066 -0.2219,-0.17257 -0.8778,-0.70304 -1.149,-0.88388 -0.7454,-0.4969 0.053,0.31848 -0.9723,-0.70711 -0.1334,-0.1334 -0.2202,-0.30854 -0.3536,-0.44194 -0.3261,-0.32614 -0.9785,-0.74078 -1.3258,-0.97227 -0.1644,-0.10963 -0.3722,-0.14658 -0.5303,-0.26517 -0.5053,-0.379 -0.9612,-0.99215 -1.3258,-1.5026 -0.038,-0.0536 -0.041,-0.13018 -0.088,-0.17678 -0.075,-0.0751 -0.1992,-0.0939 -0.2652,-0.17677 -0.058,-0.0728 -0.028,-0.19357 -0.088,-0.26517 -0.348,-0.41754 -0.2963,-0.1195 -0.6187,-0.44194 -0.021,-0.0208 0.021,-0.0676 0,-0.0884 -0.2769,-0.27695 -0.6589,-0.47205 -0.9723,-0.7071 -0.4651,-0.34885 -0.9129,-0.67152 -1.4142,-0.97228 -0.2505,-0.15032 -0.5432,-0.21338 -0.7955,-0.35355 -0.1287,-0.0715 -0.2156,-0.21347 -0.3535,-0.26517 -0.1104,-0.0414 -0.2385,0.0256 -0.3536,0 -1.044,-0.23201 0.027,-0.0782 -0.7071,-0.35355 -0.1748,-0.0656 -0.9469,-0.15548 -1.0606,-0.17678 -0.9957,-0.18667 -2.0159,-0.31525 -3.0053,-0.53033 -1.0757,-0.23385 -2.1156,-0.59953 -3.1819,-0.88388 -0.3798,-0.10128 -0.7726,-0.15221 -1.1491,-0.26516 -0.6209,-0.18627 -1.2324,-0.44052 -1.8561,-0.61872 -0.2889,-0.0826 -0.5924,-0.10388 -0.8839,-0.17678 -0.7505,-0.18762 -1.4909,-0.41957 -2.2097,-0.70711 -0.458,-0.18319 -0.8989,-0.46989 -1.3259,-0.7071 -0.5263,-0.29239 -1.0957,-0.53722 -1.5909,-0.88389 -0.8203,-0.57415 -1.5918,-1.23819 -2.2981,-1.94454 -0.1474,-0.14731 -0.3209,-0.27241 -0.442,-0.44194 -0.1763,-0.24684 -0.2477,-0.56247 -0.4419,-0.7955 -0.068,-0.0816 -0.1962,-0.0962 -0.2652,-0.17677 -0.5233,-0.61056 -0.8592,-1.51624 -1.2374,-2.20971 -0.1765,-0.3235 -0.5913,-0.80153 -0.7071,-1.14905 -0.068,-0.20349 -0.09,-0.42271 -0.1768,-0.61872 -0.088,-0.1987 -0.4152,-0.47675 -0.5303,-0.70711 -0.061,-0.12215 -0.2806,-0.6159 -0.3536,-0.7071 -0.1178,-0.14732 -0.3192,-0.21032 -0.4419,-0.35356 -0.3142,-0.36657 -0.569,-0.74578 -0.8839,-1.06066 -0.226,-0.22597 -0.4223,-0.19529 -0.7071,-0.35355 -0.2201,-0.12226 -0.5055,-0.36901 -0.7071,-0.53033 -0.4227,-0.33813 -0.9786,-0.89015 -1.3259,-1.23744 -0.1041,-0.10416 -0.161,-0.24938 -0.2651,-0.35355 -1.491,-1.49096 0.7781,1.15727 -1.3258,-1.41416 -0.3786,-0.37856 -1.004,-0.28236 -1.5026,-0.35356 -0.3967,-0.0567 -0.7584,-0.30475 -1.1491,-0.35355 -0.6668,-0.0834 -1.3696,-0.0346 -2.0329,-0.17678 -0.637,-0.1365 -0.3765,-0.21096 -0.9723,-0.26516 -1.6475,-0.14978 -3.302,-0.33648 -4.9497,-0.53033 -1.1048,-0.12997 0.097,-0.0427 -1.2375,-0.26517 -0.6453,-0.10754 -1.2944,-0.19296 -1.9445,-0.26516 -0.9881,-0.10979 -2.0261,-0.14742 -3.0052,-0.35356 -0.6224,-0.13102 -1.2411,-0.28008 -1.8562,-0.44194 -0.2703,-0.0711 -0.5226,-0.20456 -0.7955,-0.26516 -0.2604,-0.0579 -0.5323,-0.0445 -0.7955,-0.0884 -0.2679,-0.0447 -0.528,-0.12958 -0.7955,-0.17678 -0.8055,-0.14214 -1.6849,-0.13413 -2.4748,-0.35355 -0.3323,-0.0923 -0.6452,-0.2445 -0.9723,-0.35355 -0.7492,-0.24973 -1.5351,-0.50364 -2.2981,-0.70711 -0.1765,-0.0471 -0.8619,-0.18067 -1.1491,-0.26517 -0.7243,-0.21302 -1.4802,-0.50586 -2.2097,-0.7071 -0.6131,-0.16914 -1.2333,-0.31308 -1.8561,-0.44194 -0.2326,-0.0481 -0.4793,-0.0214 -0.7071,-0.0884 -0.2784,-0.0819 -0.5216,-0.25766 -0.7955,-0.35356 -0.3171,-0.11097 -0.655,-0.1548 -0.9723,-0.26516 -0.3618,-0.12583 -0.6957,-0.32581 -1.0607,-0.44194 -0.2863,-0.0911 -0.5892,-0.11788 -0.8838,-0.17678 -0.2063,-0.0589 -0.4153,-0.10898 -0.6188,-0.17678 -0.6281,-0.20937 -1.2305,-0.49053 -1.8561,-0.7071 -0.2907,-0.10062 -0.5992,-0.1487 -0.8839,-0.26517 -0.2682,-0.10972 -1.9942,-0.9087 -2.2981,-1.06066 -0.2713,-0.13566 -0.5167,-0.32245 -0.7955,-0.44194 -0.3425,-0.1468 -0.7201,-0.20219 -1.0607,-0.35355 -0.8089,-0.35952 -1.5768,-0.8776 -2.3864,-1.23744 -0.111,-0.0494 -0.2384,-0.05 -0.3536,-0.0884 -0.616,-0.20533 -1.2254,-0.4552 -1.8562,-0.61872 -0.4362,-0.1131 -0.8899,-0.15046 -1.3258,-0.26516 -0.1274,-0.0335 -0.2278,-0.13748 -0.3535,-0.17678 -0.7377,-0.23052 -1.6186,-0.47474 -2.3865,-0.61872 -0.643,-0.12055 -1.2993,-0.15762 -1.9446,-0.26516 -0.6784,-0.11308 -1.3552,-0.2357 -2.0329,-0.35356 -0.2062,-0.0295 -0.4129,-0.0559 -0.6187,-0.0884 -0.7368,-0.11634 -1.4844,-0.17948 -2.2097,-0.35356 -0.3624,-0.087 -0.6998,-0.26045 -1.0607,-0.35355 -4.312,-1.11278 -0.1151,0.0123 -2.3865,-0.44194 -1.0711,-0.21423 -0.1793,-0.19787 -1.5026,-0.35356 -0.2048,-0.0241 -0.4133,0.0187 -0.6187,0 -0.3915,-0.0356 -0.7605,-0.20536 -1.149,-0.26516 -0.5564,-0.0856 -1.1213,-0.10398 -1.6794,-0.17678 -0.3843,-0.0501 -0.7631,-0.14167 -1.1491,-0.17677 -0.4401,-0.04 -0.8838,0 -1.3258,0 l -5.6568,-0.0884 c -0.2256,-1.06978 -0.1744,-2.05526 -0.5304,-3.00521 -0.037,-0.0995 -0.1432,-0.16438 -0.1767,-0.26516 -0.028,-0.0838 0,-0.17678 0,-0.26517 -0.029,-0.0884 -0.052,-0.17953 -0.088,-0.26516 -0.1649,-0.38475 -0.3821,-0.75363 -0.5304,-1.14905 -0.043,-0.11374 -0.046,-0.23981 -0.088,-0.35355 -0.069,-0.18506 -0.2026,-0.34283 -0.2651,-0.53033 -0.038,-0.11525 -0.034,-0.2449 -0.088,-0.35356 -0.037,-0.0745 -0.1475,-0.0987 -0.1768,-0.17677 -0.1641,-0.98458 0.046,-0.17408 -0.2651,-0.7955 -0.1847,-0.36935 -0.1266,-0.76779 -0.2652,-1.14905 -0.1309,-0.35995 -0.3668,-0.68508 -0.442,-1.06066 -0.029,-0.14445 0.024,-0.29663 0,-0.44194 -0.01,-0.0411 -0.075,-0.0489 -0.088,-0.0884 -0.1218,-0.36538 -0.2017,-0.70622 -0.3536,-1.06066 -0.084,-0.19528 -0.2442,-0.34815 -0.3535,-0.53033 -0.034,-0.0565 -0.059,-0.11785 -0.088,-0.17677 -0.029,-0.0884 -0.043,-0.18372 -0.088,-0.26517 -0.2056,-0.37001 -0.4892,-0.69746 -0.7071,-1.06066 -0.082,-0.13605 -0.089,-0.30993 -0.1768,-0.44194 -0.016,-0.0245 -0.071,0.0236 -0.088,0 -0.1031,-0.13744 -0.1883,-0.28828 -0.2652,-0.44194 -0.1518,-0.30376 -0.2095,-0.63858 -0.2651,-0.97227 -0.082,-0.49397 -0.082,-0.0417 -0.2652,-0.53034 -0.2164,-0.5771 -0.1656,-1.2587 -0.2652,-1.85615 -0.073,-0.4374 -0.1211,-0.88067 -0.1767,-1.32583 -0.044,-0.35329 -0.181,-0.63533 -0.2652,-0.97227 -0.1093,-0.43723 -0.1638,-0.88667 -0.2652,-1.32582 -0.2,-0.86667 0.052,0.49204 -0.2651,-0.61872 -0.024,-0.085 0.014,-0.17798 0,-0.26517 -0.058,-0.34889 -0.2554,-0.64504 -0.3536,-0.97227 -0.1047,-0.34906 -0.1372,-0.71943 -0.2651,-1.06066 -0.046,-0.12337 -0.1352,-0.22855 -0.1768,-0.35355 -0.051,-0.15206 0.071,-0.38828 0,-0.53033 -0.056,-0.1118 -0.2009,-0.15798 -0.2652,-0.26517 -0.075,-0.12462 -0.027,-0.56447 -0.088,-0.7071 -0.042,-0.0976 -0.1292,-0.17015 -0.1768,-0.26517 -0.1891,-0.37823 -0.368,-0.83184 -0.5303,-1.23744 -0.069,-0.17301 -0.073,-0.37528 -0.1768,-0.53033 -0.016,-0.0245 -0.072,0.0245 -0.088,0 -0.1492,-0.22374 -0.1885,-0.56534 -0.2652,-0.79549 -0.013,-0.0395 -0.075,-0.0489 -0.088,-0.0884 -0.019,-0.0559 0.026,-0.12407 0,-0.17678 -0.1761,-0.35219 -0.1769,-3.8e-4 -0.2652,-0.35355 -0.073,-0.29051 -0.1482,-0.59158 -0.2651,-0.88388 -0.024,-0.0612 -0.059,-0.11785 -0.088,-0.17678 -0.059,-0.0589 -0.1395,-0.10224 -0.1768,-0.17678 -0.076,-0.15258 -0.032,-0.4482 -0.088,-0.61871 -0.1378,-0.4134 -0.1588,-0.63522 -0.2652,-1.06066 -0.045,-0.18078 -0.1461,-0.34653 -0.1767,-0.53033 -0.04,-0.24207 -0.04,-0.46691 -0.088,-0.70711 -0.042,-0.20781 -0.2136,-0.41245 -0.2652,-0.61872 -0.035,-0.13865 0.035,-0.30329 0,-0.44194 -0.036,-0.14292 -0.2186,-0.2138 -0.2651,-0.35355 -0.097,-0.28939 0,-0.90353 0,-1.23744 0,-0.67118 -0.071,-1.3954 0.088,-2.03293 0.036,-0.14292 -0.036,-0.29903 0,-0.44195 0.01,-0.0404 0.075,-0.0489 0.088,-0.0884 0.097,-0.29165 -0.075,-0.67317 0,-0.97228 0.057,-0.22608 0.1768,-0.37245 0.484,-0.30934 0.8081,0.19153 1.3061,0.0608 1.8098,-0.0442 0.5531,-0.11522 1.1278,-0.13787 1.6794,-0.26517 0.4865,-0.11226 0.9326,-0.32154 1.4142,-0.44194 0.3357,-0.0839 0.642,-0.0777 0.9723,-0.17678 0.3331,-0.0999 1.0464,-0.47445 1.3258,-0.53033 0.1734,-0.0347 0.356,0.0291 0.5303,0 0.3731,0.53201 0.4426,-0.20645 0.6188,-0.26516 0.1425,-0.0475 0.3024,-0.0326 0.4419,-0.0884 0.027,-0.0109 -0.029,-0.0812 0,-0.0884 0.1143,-0.0286 0.2373,0.0194 0.3536,0 0.065,-0.0108 0.1117,-0.0776 0.1767,-0.0884 0.376,-0.0627 0.5812,0.0234 0.9723,-0.0884 0.7463,-0.21322 1.3139,-0.66651 1.9445,-1.06066 0.2251,-0.14064 0.553,-0.51093 0.7955,-0.61872 0.1373,-0.061 0.3146,-0.009 0.442,-0.0884 0.1249,-0.0781 0.1569,-0.25363 0.2651,-0.35355 0.3992,-0.36849 0.825,-0.70711 1.2375,-1.06066 0.359,-0.30776 0.7987,-0.47705 1.149,-0.7955 0.6505,-0.59133 1.2389,-1.15012 1.9446,-1.67938 0.1638,-0.12283 0.2719,-0.32857 0.4419,-0.44194 0.3056,-0.2037 0.7129,-0.35928 0.9723,-0.61872 0.6343,-0.63431 0.03,-0.30748 0.8839,-0.79549 0.2182,-0.12471 0.5494,-0.23052 0.7955,-0.35356 0.333,-0.16651 0.672,-0.45966 1.0606,-0.53033 0.6846,-0.12446 1.432,0.0985 2.1213,0 0.092,-0.0132 0.1726,-0.0781 0.2652,-0.0884 0.205,-0.0228 0.4153,0.0339 0.6187,0 0.268,-0.0447 0.526,-0.14308 0.7955,-0.17677 0.117,-0.0146 0.2373,0.0194 0.3536,0 0.2819,-0.047 0.3942,-0.32972 0.6187,-0.44194 0.079,-0.0395 0.1813,0.0279 0.2652,0 0.3211,-0.10704 0.2005,-0.19264 0.4419,-0.35356 0.34,-0.22663 0.7004,-0.55534 1.0607,-0.79549 0.2001,-0.13345 0.2812,-0.3696 0.4419,-0.53033 0.047,-0.0466 0.1385,-0.0348 0.1768,-0.0884 0.1149,-0.16083 0.1692,-0.35756 0.2651,-0.53033 0.1269,-0.22837 0.3151,-0.39035 0.442,-0.61872 0.077,-0.13869 0.1,-0.30325 0.1768,-0.44194 0.4304,-0.77469 1.0117,-1.47337 1.5026,-2.20971 0.016,-0.0245 -0.021,-0.0675 0,-0.0884 0.1041,-0.10416 0.2679,-0.14529 0.3535,-0.26516 0.071,-0.0989 0.034,-0.2449 0.088,-0.35356 0.1105,-0.22089 0.5543,-0.60441 0.7071,-0.79549 0.1685,-0.21055 0.2654,-0.49518 0.442,-0.70711 0.08,-0.096 0.187,-0.16755 0.2651,-0.26516 0.4596,-0.5745 0.874,-1.18683 1.3259,-1.76777 0.8979,-1.15456 -0.013,0.0526 0.8838,-0.97227 0.2333,-0.26664 0.3854,-0.61725 0.6188,-0.88389 0.043,-0.0496 0.1339,-0.0384 0.1767,-0.0884 0.1383,-0.16131 0.2176,-0.36712 0.3536,-0.53033 0.019,-0.0226 0.059,0 0.088,0 0.1178,-0.11786 0.2468,-0.22552 0.3535,-0.35356 0.3569,-0.4282 0.645,-1.03175 0.7071,-1.59099 0.062,-0.55656 0.069,-1.30526 0,-1.85615 -0.026,-0.20746 -0.1344,-0.33982 -0.1767,-0.53033 -0.045,-0.20338 -0.043,-0.41535 -0.088,-0.61872 0.053,-0.15998 -0.1432,-0.16439 -0.1768,-0.26517 -0.057,-0.17001 -0.022,-0.36393 -0.088,-0.53033 -0.064,-0.15951 -0.2014,-0.28243 -0.2652,-0.44194 -0.3,-1.20022 0.1289,0.2577 -0.2651,-0.53033 -0.026,-0.0527 0.034,-0.12883 0,-0.17678 -0.3669,-0.51358 -1.0008,-1.03786 -1.5026,-1.41421 -0.2473,-0.18542 -0.3221,-0.41044 -0.5304,-0.61872 -0.046,-0.0466 -0.1302,-0.0418 -0.1767,-0.0884 -0.021,-0.0208 0,-0.0589 0,-0.0884 -0.059,-0.0589 -0.1075,-0.13056 -0.1768,-0.17678 -0.024,-0.0163 -0.072,0.0245 -0.088,0 -0.4422,-0.66323 -0.2652,-1.71872 -0.2652,-2.47487 v -7.33624 -2.12132 c 0,-0.31064 0.051,-0.66703 0,-0.97227 0.2975,-0.33461 -0.1383,-0.28802 -0.1767,-0.44194 -0.022,-0.0858 0.014,-0.17798 0,-0.26517 -0.051,-0.30532 -0.2232,-0.71148 -0.3536,-0.97227 -0.1204,-0.24073 -0.027,-0.25871 -0.088,-0.44194 -0.021,-0.0625 -0.059,-0.11785 -0.088,-0.17678 -0.059,-0.0589 -0.1458,-0.0994 -0.1768,-0.17677 -0.1553,-0.38826 0.1291,-0.13615 -0.041,-0.51221 1.1554,-0.98101 1.7316,-2.55071 2.8859,-3.32026 0.155,-0.10337 0.3682,-0.11824 0.5,-0.25 0.059,-0.0589 -0.074,-0.21274 0,-0.25 0.1491,-0.0745 0.3333,0 0.5,0 0.1667,-0.0833 0.3449,-0.14664 0.5,-0.25 0.3319,-0.22128 0.6267,-0.87558 1,-1 0.1581,-0.0527 0.3383,0.0404 0.5,0 0.6516,-0.16291 2.988,-2.31736 3.5,-3 0.1118,-0.14908 0.1182,-0.36824 0.25,-0.5 0.059,-0.0589 0.2038,0.0693 0.25,0 0.1462,-0.21927 0.1038,-0.53074 0.25,-0.75 0.1961,-0.29418 0.5746,-0.44303 0.75,-0.75 0.1884,-0.32964 0.1543,-1.15428 0.5,-1.5 0.059,-0.0589 0.1911,0.0589 0.25,0 0.1302,-0.13022 1.1562,-1.81237 1.25,-2 0.1367,-0.27346 0.242,-0.742 0.5,-1 0.059,-0.0589 0.1807,0.0462 0.25,0 0.1667,-0.16667 0.3333,-0.33334 0.5,-0.5 0,-0.0833 -0.059,-0.19108 0,-0.25 0.025,-0.0255 1.1494,-0.68295 1.25,-0.75 0.465,-0.31002 1.1852,-0.77776 1.5,-1.25 0.1034,-0.15505 0.1182,-0.36824 0.25,-0.5 0.2573,-0.25736 0.4926,-0.24265 0.375,-0.25 1.5344,0.1585 3.4933,0.43862 5.375,0.125 0.8591,-0.14319 -0.914,0.44919 1,-0.125 0.1785,-0.0535 0.327,-0.1808 0.5,-0.25 0.6193,-0.24775 1.3569,-0.44962 2,-0.625 0.43,-0.11729 1.0924,-0.0688 1.5,-0.25 0.1904,-0.0846 0.3333,-0.25 0.5,-0.375 0.25,-0.125 0.4931,-0.2649 0.75,-0.375 1.2761,-0.5469 0.6645,-0.22149 1.875,-0.625 0.6349,-0.21164 1.2183,-0.58583 1.875,-0.75 0.7646,-0.19115 1.6001,-0.15361 2.375,-0.375 0.4375,-0.12501 0.9164,-0.31768 1.375,-0.375 1.0331,-0.12914 2.0994,-0.11861 3.125,-0.375 1.2629,-0.31574 -0.09,0.0451 0.5,-0.25 0.3802,-0.19011 0.7349,-0.172 1.125,-0.25 0.7541,-0.15082 -0.1014,-0.0595 0.375,-0.25 0.207,-0.31044 0.5095,-0.0449 0.75,-0.125 0.4541,0.25026 0.3994,-0.28477 0.625,-0.375 0.319,-0.12761 0.6696,-0.15561 1,-0.25 0.3315,-0.0947 0.5435,-0.28028 0.875,-0.375 0.1202,-0.0343 0.2524,0.0245 0.375,0 0.6688,-0.13376 1.3532,-0.40941 2,-0.625 0.546,-0.18201 -0.088,-0.0897 0.625,-0.375 0.077,-0.031 0.1731,0.0321 0.25,0 1.1985,-0.49939 2.5565,-1.43152 3.5,-2.375 0.511,-0.511 0.8837,-1.00873 1.375,-1.5 0.083,-0.0833 0.1519,-0.18463 0.25,-0.25 0.035,-0.0231 0.095,0.0295 0.125,0 0.03,-0.0295 0,-0.0833 0,-0.125 0.125,-0.0833 0.2462,-0.17271 0.375,-0.25 0.113,-0.0678 0.2654,-0.0519 0.375,-0.125 0.098,-0.0654 0.1406,-0.20624 0.25,-0.25 0.116,-0.0464 0.2537,0.0303 0.375,0 0.2177,-0.0544 0.4121,-0.17905 0.625,-0.25 0.1581,-0.0527 0.3383,0.0404 0.5,0 0.1205,-0.0301 0.7692,-0.35738 0.875,-0.375 0.2055,-0.0342 0.4273,0.0659 0.625,0 0.6305,-0.21017 1.3249,-0.125 2,-0.125 0.9425,0 1.9329,-0.0785 2.875,0 0.6411,-0.0405 1.247,0.19291 1.875,0.25 0.2905,0.0264 0.589,-0.0572 0.875,0 0.4459,0.0892 0.5461,0.37031 1,0.5 0.1202,0.0343 0.253,-0.0271 0.375,0 0.7332,0.16293 2.8026,0.83878 3.375,1.125 1.1897,0.59484 2.4328,1.35483 3.75,1.75 0.5723,0.17168 1.1924,0.21569 1.75,0.375 0.8815,0.25185 0.3331,0.24301 1.125,0.375 0.7027,0.11712 -0.41,-0.26166 0.75,0.125 0.5007,0.16691 0.9977,0.48148 1.5,0.625 0.1202,0.0343 0.2524,-0.0245 0.375,0 0.22,0.044 0.4101,0.18552 0.625,0.25 0.8849,0.26547 1.7555,0.55881 2.625,0.875 0.1982,0.0721 0.8718,0.49838 0.875,0.5 0.1536,0.0768 0.3463,0.0482 0.5,0.125 0.3837,0.19184 0.7246,0.471 1.125,0.625 0.1555,0.0598 0.3383,-0.0404 0.5,0 0.3942,0.0985 0.7196,0.39866 1.125,0.5 1.1323,0.28308 2.2345,0.68491 3.375,0.875 0.3899,0.065 0.7415,0.27913 1.125,0.375 0.081,0.0202 0.1709,-0.0264 0.25,0 0.056,0.0186 0.068,0.1107 0.125,0.125 0.1213,0.0303 0.2517,-0.0206 0.375,0 0.4368,0.0728 0.6894,0.4208 1.125,0.5 0.3305,0.0601 0.6706,0.0591 1,0.125 0.3112,0.0622 0.5671,0.29803 0.875,0.375 0.1213,0.0303 0.251,-0.0155 0.375,0 2.2378,0.27972 -0.4966,-0.0221 1,0.25 0.543,0.0987 1.0917,0.16111 1.625,0.25 0.6716,0.11193 1.6051,0.44625 2.25,0.5 1.7964,0.1497 3.6965,0 5.5,0 h 3 c 0.4385,0 0.9468,0.0856 1.375,0 0.091,-0.0183 0.1586,-0.10673 0.25,-0.125 0.1226,-0.0245 0.2517,0.0206 0.375,0 0.6213,-0.10355 1.2401,-0.29565 1.875,-0.375 0.6736,-0.0842 1.5043,0.18532 2.1875,-0.1875 z"
         id="path21" />
    </g>
  </g>
</svg>
