<?xml version="1.0" encoding="UTF-8" standalone="no"?>
<!-- Created with Inkscape (http://www.inkscape.org/) -->

<svg
   version="1.1"
   id="svg1"
   width="148.187"
   height="168.99998"
   viewBox="0 0 148.187 168.99998"
   xmlns="http://www.w3.org/2000/svg"
   xmlns:svg="http://www.w3.org/2000/svg">
  <defs
     id="defs1" />
  <g
     id="layer1"
     style="display:inline"
     transform="translate(-1151.0625,-449.18749)">
    <g
       id="layer7"
       style="display:inline;fill:#ffffff;fill-opacity:1;stroke:none">
      <path
         style="fill:#ffffff;fill-opacity:1;stroke:none;stroke-width:1;stroke-linecap:round;stroke-dasharray:none;stroke-opacity:1"
         d="m 1202.0815,462.6246 -17.5893,18.56155 1.0607,2.20971 -1.5026,6.01041 0.8839,4.33103 3.6239,4.94974 1.3258,3.0936 -1.0089,5.59435 -9.1875,11.1875 -8.625,1.4375 -6.625,7.75 -8.125,0.5 -5.25,1.625 0.3125,8.25 5.1875,18.9375 4.75,9.0625 0.062,3.0625 26.375,1.75 25.6875,11.75 8.5,-0.125 15,3.25 14.5625,13.4375 18.3125,5.625 3.625,5.37499 11.1875,7.875 14.5,0.0625 0.125,-157.68749 -12.625,0.625 -11.4375,-1.75 -11.6875,-4 -10.9375,-6 -9.625,-0.1875 -7,2.5 -4.375,4.0625 -6.5625,2.75 z"
         id="path5" />
    </g>
  </g>
</svg>
