<?xml version="1.0" encoding="UTF-8" standalone="no"?>
<!-- Created with Inkscape (http://www.inkscape.org/) -->

<svg
   version="1.1"
   id="svg2"
   width="129.02472"
   height="126.51326"
   viewBox="0 0 129.02472 126.51326"
   xmlns="http://www.w3.org/2000/svg"
   xmlns:svg="http://www.w3.org/2000/svg">
  <defs
     id="defs6">
    <linearGradient
       id="swatch77">
      <stop
         style="stop-color:#e2c69e;stop-opacity:1;"
         offset="0"
         id="stop77" />
    </linearGradient>
  </defs>
  <g
     id="layer66"
     style="display:inline"
     transform="translate(-1170.1297,-201.18949)">
    <g
       id="layer82"
       style="display:inline">
      <path
         style="fill:#969696;fill-opacity:1;stroke:none;stroke-width:1;stroke-dasharray:none;stroke-opacity:1"
         d="m 1299.1544,203.32337 c -3.1168,-0.004 -6.449,0.14661 -9.7452,0.14661 -0.4919,0 -2.6315,-0.18685 -3.0052,0 -0.7388,0.36941 -1.0811,0.95641 -1.7678,1.41421 -0.049,0.0327 -0.1178,0 -0.1767,0 -0.1179,0.0589 -0.2482,0.0977 -0.3536,0.17678 -0.373,0.27978 -0.4424,0.53053 -0.8839,0.7071 -0.2946,0.11785 -0.5828,0.25321 -0.8839,0.35356 -0.2236,0.0745 -0.4784,-0.0572 -0.7071,0 -0.081,0.0202 -0.1022,0.13951 -0.1767,0.17677 -0.2109,0.10541 -0.4747,-0.0387 -0.7071,0 -0.4793,0.0799 -0.935,0.27367 -1.4143,0.35356 -1.2799,0.21331 -2.7651,0 -4.0658,0 -0.7995,0 -1.8818,0.15397 -2.6517,0 -0.761,-0.15221 -1.2424,-0.60304 -1.9445,-0.88389 -0.429,-0.17159 -2.7377,-0.66984 -3.0052,-0.88388 -0.9051,-0.72403 -1.8413,-1.60149 -3.0052,-1.76777 -0.7509,-0.10727 -1.5438,0.0838 -2.2981,0 -0.2769,-0.0308 -1.6114,-0.0935 -1.9446,-0.17677 -0.6716,-0.1679 -0.4659,-0.24334 -1.2374,-0.35356 -0.6678,-0.0954 -1.4507,0 -2.1213,0 h -4.0659 -12.7279 -6.0104 c -0.8216,0 -1.8497,0.16039 -2.6517,0 -0.6792,-0.13584 -1.463,-0.48766 -2.1213,-0.7071 -0.4657,-0.15523 -1.2489,0 -1.4999,-0.6895 l 0.268,7.06051 c 0,0.93964 0.239,2.54376 0,3.5 -0.064,0.25565 -0.221,0.48809 -0.25,0.75 -0.055,0.49694 0.062,1.00386 0,1.5 -0.046,0.3698 -0.3822,0.64644 -0.5,1 -0.079,0.23717 0.061,0.50746 0,0.75 -0.171,0.68389 -0.3515,0.4023 -0.75,1 -0.086,0.12934 -0.5683,1.31829 -0.75,1.5 -0.3046,0.30463 -0.9454,0.44537 -1.25,0.75 -0.1318,0.13176 -0.1382,0.35093 -0.25,0.5 -1.3487,1.79824 0.2776,-0.5276 -1,0.75 -0.1318,0.13176 -0.1182,0.36824 -0.25,0.5 -0.3836,0.38364 -1.0402,0.69343 -1.5,1 -0.5769,0.38461 -0.9231,1.11538 -1.5,1.5 -0.069,0.0462 -0.183,-0.05 -0.25,0 -0.2801,0.21009 -0.7199,1.03991 -1,1.25 -0.4472,0.33541 -1.201,0.11477 -1.5,0.75 -0.8882,0.71056 -1.2267,1.97666 -2,2.75 -0.1318,0.13176 -0.3682,0.11824 -0.5,0.25 -0.5349,0.53493 -0.8542,1.23331 -1.5,1.75 -0.7187,0.575 -0.3473,-0.10182 -1.25,0.5 -0.069,0.0462 0.052,0.1849 0,0.25 -1.06,1.32503 -2.6267,2.04444 -3.5,3.5 -0.1356,0.22597 -0.1144,0.52403 -0.25,0.75 -0.2506,0.41766 -1.1718,1.67182 -1.5,2 -0.059,0.0589 -0.191,-0.0589 -0.25,0 -0.2946,0.29463 -0.5637,0.62732 -0.75,1 -0.6946,1.38921 -0.8264,3.15275 -1.5,4.5 -0.053,0.10541 -0.221,0.13567 -0.25,0.25 -0.1213,0.48507 0,1 0,1.5 0,2.31478 0.2347,6.0305 -0.75,8 -0.1915,0.38289 -0.4455,0.1955 -0.75,0.5 -0.059,0.0589 0.059,0.1911 0,0.25 -1.4889,1.48887 -0.4193,0.20965 -2,1 -0.074,0.0373 0.074,0.2127 0,0.25 -0.7546,0.37729 -1.9275,0.72582 -2.75,1 -0.6182,0.20607 -0.7484,0.62377 -1.25,1 -0.572,0.429 -1.3629,0.53763 -2,0.75 -0.3599,0.11997 -0.6799,0.83994 -1,1 -0.1491,0.0745 -0.3419,-0.0527 -0.5,0 -0.2851,0.095 -0.4813,0.36563 -0.75,0.5 -0.5677,0.28382 -1.1824,0.46617 -1.75,0.75 -0.9323,0.46616 -1.3841,1.70449 -3,1.5 -0.25,0.69507 -0.3373,1.09905 -0.5,1.75 -0.098,0.39215 0.098,0.85784 0,1.25 -0.241,0.96385 -0.3365,1.92293 -0.75,2.75 -0.1667,0.33333 0.1667,0.91666 0,1.25 -0.1406,0.28111 -0.651,0.45386 -0.75,0.75 -0.079,0.23717 0.1118,0.52639 0,0.75 -0.07,0.13945 -0.682,0.9324 -0.75,1 -0.1318,0.13176 -0.3966,0.0949 -0.5,0.25 -0.7921,1.18819 0.9602,-0.21017 -0.25,1 -0.07,0.07 -1.3669,-0.25687 -0.75,0.5 -0.4114,0.68567 -0.1125,0.69984 -0.25,1.25 -0.3206,1.2825 -0.35,0.25006 -0.75,1.25 -0.1276,0.31901 -0.059,0.71411 -0.25,1 -0.2881,0.43208 -0.709,0.81351 -1,1.25 -0.6333,0.94997 -1.1474,2.03588 -1.75,3 -0.867,1.38725 0.2625,-0.5125 -0.5,0.25 -0.1318,0.13176 -0.1336,0.35449 -0.25,0.5 -0.4823,0.60283 -1.3174,1.10113 -1.75,1.75 -0.1462,0.21926 0.3641,0.6609 -0.25,0.75 -0.1318,0.13176 -0.3966,0.0949 -0.5,0.25 -0.191,0.28588 -0.059,0.71411 -0.25,1 -0.2628,0.39416 -0.7998,0.84964 -1,1.25 -0.074,0.14907 0.053,0.34188 0,0.5 -0.2427,0.72809 -0.9056,1.56117 -1.25,2.25 -0.197,0.39394 0.154,8.92604 0.25,9.5 0.019,0.11624 0.189,0.14894 0.25,0.25 0.1917,0.31957 0.3616,0.65397 0.5,1 0.036,0.0911 0.071,4.60822 0,4.75 -0.182,0.36404 -0.1426,0.53526 -0.25,0.75 -0.52,1.04044 0.017,-0.26726 -0.5,0.25 -0.1501,0.15006 -0.2046,0.55304 -0.5,0.75 -0.2284,0.15225 -0.6067,0.21339 -0.75,0.5 -0.1179,0.2357 -0.092,0.53918 -0.25,0.75 -0.1118,0.14907 -0.3966,0.0949 -0.5,0.25 -0.092,0.13867 0.074,0.35093 0,0.5 -0.125,0.25 -0.5625,0.5 -0.75,0.75 -0.4607,0.61425 -0.8136,1.50418 -1,2.25 -0.1201,0.48034 -0.1963,5.10749 0,5.5 0.15,0.3 0.6,0.45 0.75,0.75 0.1,0.2 -0.1,0.55 0,0.75 0.037,0.0745 0.191,-0.0589 0.25,0 0.059,0.0589 -0.037,0.1755 0,0.25 0.1054,0.21082 0.3946,0.28918 0.5,0.5 0.1,0.2 -0.1,0.55 0,0.75 0.083,0.1667 0.417,0.0833 0.5,0.25 0.074,0.14907 -0.074,0.35093 0,0.5 0.1054,0.21082 0.3692,0.30388 0.5,0.5 0.046,0.0693 -0.046,0.1807 0,0.25 0.6991,1.04872 0.5485,0.0485 1,0.5 0.186,0.18634 0.064,0.56366 0.25,0.75 0.1449,0.1449 0.8551,0.3551 1,0.5 1.2298,1.2298 0.2672,0.2844 0.75,1.25 0.037,0.0745 0.191,-0.0589 0.25,0 0.2124,0.21246 0.3333,0.5 0.5,0.75 0.1667,0 0.3509,-0.0745 0.5,0 0.074,0.0373 -0.037,0.1755 0,0.25 0.1989,0.3978 0.9096,0.97769 1.25,1.25 2.517,2.0136 4.0286,2.20132 7.375,1.75 3.6005,-0.0307 6.6628,-0.91161 9.875,-2.25 0.1088,-0.0453 0.1392,-0.20973 0.25,-0.25 1.9606,-0.71296 4.0635,-0.9754 6,-1.75 1.0058,-0.40234 2.031,-0.76552 3,-1.25 0.8911,-0.44555 2.0778,-1.32782 2.75,-2 0.1318,-0.13176 0.1182,-0.36824 0.25,-0.5 0.3718,-0.3718 3.2109,-2.47394 3.25,-2.5 0.069,-0.0462 0.1911,0.0589 0.25,0 0.1318,-0.13176 0.1182,-0.36824 0.25,-0.5 -0.047,-1.29158 0.6899,-0.29328 1,-0.5 0.2942,-0.19612 0.4146,-0.6382 0.75,-0.75 0.1581,-0.0527 0.3509,0.0745 0.5,0 0.6311,-0.31556 1.3238,-1.02461 2,-1.25 0.8784,-0.2928 2.0746,-0.6178 3,-0.75 1.0508,-0.15011 8.9694,-0.19515 9.75,0 0.5909,0.14771 1.135,0.34625 1.75,0.5 0.6198,0.15495 1.3971,-0.20097 2,0 0.7855,0.26183 1.9314,0.63305 2.75,0.75 0.8102,0.11574 1.6987,-0.16026 2.5,0 1.1055,0.22109 1.8122,0.9374 2.75,1.25 0.7254,0.2418 1.7705,0.007 2.5,0.25 0.3535,0.11785 0.6464,0.38215 1,0.5 0.675,0.225 1.575,-0.225 2.25,0 1.1039,0.36796 2.3562,0.46405 3.5,0.75 1.0237,0.25594 2.2113,0.0769 3.25,0.25 3.0655,0.51092 6.1162,0.5 9.25,0.5 1.7509,0 3.5915,-0.16462 5.25,0.25 0.2425,0.0606 0.5128,-0.0791 0.75,0 0.6964,0.23212 3.1917,0.91503 3.75,1.25 0.2021,0.12126 0.3114,0.35858 0.5,0.5 0.5842,0.43812 1.4303,0.54422 2,1 1.3641,1.09131 2.8347,2.08388 4.5,2.75 0.4405,0.1762 1.0877,0.29387 1.5,0.5 0.1054,0.0527 0.1382,0.21273 0.25,0.25 0.1581,0.0527 0.3419,-0.0527 0.5,0 0.1118,0.0373 0.1446,0.19729 0.25,0.25 0.5933,0.29667 1.3578,0.28594 2,0.5 0.7854,0.26182 2.0168,-0.3666 2.75,0 1.0922,0.54609 1.2271,0.53785 2.5,0.75 0.9295,0.15491 2.1102,-0.2966 3,0 0.1526,0.0509 0.5974,0.44914 0.75,0.5 0.525,0.175 1.225,-0.175 1.75,0 0.1118,0.0373 0.1382,0.21273 0.25,0.25 0.5502,0.1834 1.4071,0 2,0 0.7714,0 1.4737,0.25 2.875,0 z"
         id="path80" />
    </g>
  </g>
</svg>
