<?xml version="1.0" encoding="UTF-8" standalone="no"?>
<!-- Created with Inkscape (http://www.inkscape.org/) -->

<svg
   version="1.1"
   id="svg1"
   width="129.8425"
   height="128.20731"
   viewBox="0 0 129.8425 128.20731"
   xmlns="http://www.w3.org/2000/svg"
   xmlns:svg="http://www.w3.org/2000/svg">
  <defs
     id="defs1" />
  <g
     id="layer1"
     style="display:inline"
     transform="translate(-1169.3336,-201.43704)">
    <g
       id="layer8"
       style="display:inline;fill:#ffffff;fill-opacity:1;stroke:none">
      <path
         style="fill:#ffffff;fill-opacity:1;stroke:none;stroke-width:1;stroke-linecap:round;stroke-dasharray:none;stroke-opacity:1"
         d="m 1227.1396,201.43704 34.4714,0.0884 10.2973,4.46361 15.0702,0.0442 5.2149,-2.96101 6.8059,0.26517 0.1768,124.14143 -19.4896,-1.5468 -6.6734,-5.43588 -10.3856,-4.06586 -43.0009,-2.91682 -9.2366,5.78944 -9.8111,2.91681 -4.3752,0.0442 -12.7279,7.38042 -5.3033,-5.34749 -6.4966,-3.62392 -2.3423,-3.44715 0.3536,-4.72877 5.1707,-6.80591 0.5303,-4.15425 -2.8726,-4.28683 2.3423,-6.58494 3.182,-4.99394 0.8839,-3.0052 2.298,-1.81196 6.2756,-11.84404 -0.3977,-8.48528 9.6785,-4.37522 5.3475,-3.75651 1.7678,-4.19845 1.2374,-9.94368 9.0598,-9.81111 6.0988,-4.72878 6.143,-5.56846 z"
         id="path6" />
    </g>
  </g>
</svg>
