<?xml version="1.0" encoding="UTF-8" standalone="no"?>
<!-- Created with Inkscape (http://www.inkscape.org/) -->

<svg
   version="1.1"
   id="svg2"
   width="118.39423"
   height="66.648491"
   viewBox="0 0 118.39423 66.648491"
   xmlns="http://www.w3.org/2000/svg"
   xmlns:svg="http://www.w3.org/2000/svg">
  <defs
     id="defs6">
    <linearGradient
       id="swatch77">
      <stop
         style="stop-color:#e2c69e;stop-opacity:1;"
         offset="0"
         id="stop77" />
    </linearGradient>
  </defs>
  <g
     id="layer66"
     style="display:inline"
     transform="translate(-695.97841,-352.93423)">
    <g
       id="layer39"
       style="display:inline">
      <path
         style="display:inline;fill:#969696;fill-opacity:1;stroke:none;stroke-opacity:1"
         d="m 705.60418,374.58982 c 0.25599,-0.0731 0.56563,-0.11193 0.79549,-0.26517 0.0245,-0.0163 0,-0.0589 0,-0.0884 0.0589,-0.0589 0.10744,-0.13055 0.17678,-0.17677 0.0245,-0.0163 0.0589,0 0.0884,0 0.0589,-0.0295 0.13019,-0.0418 0.17677,-0.0884 0.0466,-0.0466 0.0589,-0.11785 0.0884,-0.17678 0.11785,-0.0589 0.24815,-0.0977 0.35356,-0.17678 0.0236,-0.0177 -0.0208,-0.0676 0,-0.0884 0.16965,-0.16966 0.48938,-0.42147 0.7071,-0.53033 0.26725,-0.13363 0.55452,-0.23307 0.7955,-0.35356 0.0985,-0.0492 0.56724,-0.0418 0.7071,-0.0884 0.0395,-0.0132 0.0589,-0.0589 0.0884,-0.0884 0.0884,-0.0295 0.17478,-0.0658 0.26517,-0.0884 0.52287,-0.13072 1.06523,-0.22212 1.59099,-0.35356 0.10404,-0.026 1.43813,-0.99619 1.5026,-1.06066 0.0751,-0.0751 0.10166,-0.19005 0.17678,-0.26516 0.0531,-0.0531 0.27144,0.0164 0.35355,0 0.22511,-0.045 0.52968,-0.14688 0.70711,-0.26517 0.0693,-0.0462 0.10224,-0.1395 0.17677,-0.17677 0.0527,-0.0263 0.12775,0.0327 0.17678,0 0.0548,-0.0365 0.0518,-0.12196 0.0884,-0.17678 0.17538,-0.26307 0.12151,0.11054 0.35355,-0.35355 0.0845,-0.16904 0.0295,-0.44221 0.0884,-0.61872 0.0417,-0.125 0.11785,-0.2357 0.17678,-0.35355 0.13713,-0.27427 0.34092,-0.63134 0.53033,-0.88389 0.05,-0.0667 0.1339,-0.10532 0.17677,-0.17677 0.0479,-0.0799 0.0367,-0.18765 0.0884,-0.26517 0.0693,-0.10401 0.18514,-0.16914 0.26517,-0.26516 0.14179,-0.17016 0.2252,-0.3592 0.35355,-0.53033 0.38531,-0.51375 0.97256,-0.79579 1.41421,-1.23744 0.10984,-0.10984 0.45187,-0.55019 0.53033,-0.70711 0.0915,-0.18297 0.26557,-0.66951 0.44195,-0.79549 0.34847,-0.24891 0.93651,-0.51245 1.32582,-0.70711 0.85365,-0.42682 -0.16483,0.11387 0.44194,-0.0884 0.4054,-0.13513 0.79074,-0.48316 1.14905,-0.70711 0.66468,0.25859 0.16116,-0.19582 0.26517,-0.26516 0.0775,-0.0517 0.19063,-0.0325 0.26516,-0.0884 0.0527,-0.0395 0.0489,-0.12407 0.0884,-0.17678 0.18166,-0.24221 0.83996,-0.83985 1.06066,-0.97227 0.0505,-0.0303 0.11961,0.0143 0.17678,0 0.18575,-0.0464 0.26046,-0.20467 0.44194,-0.26516 0.13258,-0.0442 0.0884,0.0884 0.26516,0 0.0745,-0.0373 0.10744,-0.13055 0.17678,-0.17678 0.1261,-0.0841 0.37906,-0.0581 0.53033,-0.0884 0.24883,-0.0498 0.4714,-0.18659 0.70711,-0.26516 0.0559,-0.0186 0.12407,0.0263 0.17677,0 0.16081,-0.0804 0.54706,-0.30021 0.70711,-0.35356 0.16035,-0.0534 0.36496,-0.047 0.53033,-0.0884 0.42682,-0.10671 -0.004,-0.042 0.26517,-0.17678 0.0848,-0.0424 0.26867,0.0283 0.35355,0 0.3026,0.13577 0.28828,-0.18834 0.44194,-0.26517 0.0527,-0.0263 0.13511,0.0417 0.17678,0 0.0208,-0.0208 -0.0245,-0.072 0,-0.0884 0.14398,-0.096 0.35885,-0.17678 0.13255,-0.13251 0.69412,-0.39636 1.59577,0.2711 2.60742,0.5746 0.49415,0.14824 1.13223,0.0239 1.591,0.17678 0.78657,0.26219 1.47463,0.71919 2.29809,0.88388 0.41591,0.0832 1.21398,-0.1885 1.59099,0 0.73185,0.36592 2.31511,0.81929 3.18198,0.53033 0.0791,-0.0263 0.0994,-0.14583 0.17678,-0.17678 0.33279,-0.13311 0.74007,-0.0165 1.06066,-0.17677 0.14907,-0.0745 0.21064,-0.26781 0.35355,-0.35356 0.12515,-0.539 0.4898,-0.0681 0.70711,-0.17677 1.01516,-0.50758 1.9932,-1.08499 3.0052,-1.59099 0.75109,-0.37555 1.75894,-0.48792 2.47488,-1.06066 0.19521,-0.15618 0.31595,-0.40171 0.53033,-0.53033 0.10105,-0.0606 0.23688,0.0167 0.35355,0 0.29744,-0.0425 0.60772,-0.0584 0.88388,-0.17678 0.426,-0.18257 0.64551,-0.85308 1.06066,-1.06066 0.10541,-0.0527 0.24414,0.0438 0.35356,0 0.42808,-0.17123 0.79101,-0.5397 1.23744,-0.70711 0.67101,-0.25163 2.31034,-0.73585 2.82842,-0.88388 0.34464,-0.0985 0.72063,-0.0634 1.06066,-0.17678 0.25415,-0.0847 0.44658,-0.44348 0.70711,-0.53033 0.27003,-0.09 0.80008,0.0521 1.06066,0 1.599,-0.3198 -0.48017,-0.0167 0.53033,-0.35355 0.59074,-0.19691 4.46567,0 6.0104,-0.26516 1.10994,-0.0113 0.98748,0.19198 1.32582,0.53032 0.0751,0.0751 0.17678,0.11785 0.26517,0.17678 0.11785,0.11785 0.24282,0.22898 0.35355,0.35355 0.40128,0.45144 0.77238,0.94338 1.14905,1.41422 0.12885,0.16106 0.31823,0.27698 0.44194,0.44194 0.0637,0.085 0.0918,0.20142 0.17678,0.26516 0.0471,0.0354 0.12206,-0.0219 0.17678,0 0.19726,0.0789 0.3403,0.25854 0.53033,0.35356 0.14191,0.0709 0.30003,0.10582 0.44194,0.17677 0.30732,0.15366 0.55792,0.42168 0.88388,0.53033 0.0559,0.0186 0.119,-0.0115 0.17678,0 0.45981,0.092 0.0884,0.0589 0.44194,0.17678 0.0559,0.0186 0.12407,-0.0263 0.17678,0 0.0373,0.0186 0.0489,0.0752 0.0884,0.0884 0.95672,0.3189 -0.11244,-0.19972 0.97228,0.26516 0.1473,0.0631 0.20771,0.16794 0.35355,0.26517 0.23758,0.15839 0.47824,0.21051 0.70711,0.35355 0.33576,0.20985 0.99605,0.73882 1.23743,1.06066 0.20648,0.2753 0.386,0.63494 0.70711,0.7955 0.1526,0.0763 0.3969,0.17621 0.53033,0.26516 0.0693,0.0462 0.10224,0.13951 0.17678,0.17678 0.0942,0.0471 0.25767,0.0309 0.35355,0.0884 0.26204,0.0442 0.33887,0.31429 0.53033,0.44194 0.0844,0.0563 0.25129,0.1086 0.35355,0.17677 0.1828,0.12187 0.33738,0.34547 0.53033,0.44195 0.0833,0.0417 0.18765,0.0367 0.26517,0.0884 0.0342,0.0228 0.082,0.21777 0.17678,0.26517 0.12195,0.061 0.36065,0.14324 0.44194,0.26516 0.0327,0.049 -0.0186,0.12088 0,0.17678 0.0263,0.0791 0.13951,0.10224 0.17677,0.17678 0.0527,0.10541 -0.0194,0.2373 0,0.35355 0.0285,0.17124 0.20353,0.5222 0.26517,0.70711 0.0893,0.26803 -0.0906,0.5569 0.0884,0.79549 0.0637,0.085 0.14318,0.16439 0.17677,0.26517 0.0559,0.1678 0.0459,1.2733 0,1.5026 -0.0271,0.13549 -0.18199,0.41944 -0.26516,0.53033 -0.20669,0.27559 -0.2784,0.16461 -0.53033,0.35355 -0.0527,0.0395 -0.0418,0.1302 -0.0884,0.17678 -0.17869,0.17869 -0.50809,0.18556 -0.70711,0.26517 -0.19726,0.0789 -0.3403,0.25853 -0.53033,0.35355 -0.0791,0.0395 -0.17849,-0.0173 -0.26516,0 -0.23925,-0.15022 -0.22855,0.13511 -0.35355,0.17678 -0.42182,0.1406 -2.05516,0.37009 -2.47488,0.26516 -0.16587,-0.0415 -0.30491,-0.10826 -0.44194,-0.17678 -0.10541,-0.0527 -0.23689,0.0167 -0.35355,0 -0.4229,-0.0604 -0.82074,-0.27021 -1.23744,-0.35355 -0.30038,-0.0601 -1.50389,-0.0528 -1.76777,0 -0.10416,0.0208 -0.16438,0.14318 -0.26516,0.17678 -0.0884,0.0295 -0.17678,-0.0589 -0.26517,0 -0.0548,0.0365 -0.0357,0.13725 -0.0884,0.17677 -0.0554,0.0415 -0.38297,0.11781 -0.44194,0.17678 -0.0965,0.0965 -0.30915,0.39714 -0.35355,0.53033 -0.10389,0.31168 -0.29025,0.66889 -0.44194,0.97227 -0.0659,0.13176 0.0208,0.29611 0,0.44194 -0.0422,0.29566 -0.11807,0.59034 -0.17678,0.88389 -0.0599,0.29964 0,0.67083 0,0.97227 0,0.3756 -0.13073,1.01832 0.17678,1.32582 0.61552,0.61553 -0.16851,-0.4254 0.17677,0.26517 0.004,0.009 0.68711,0 0.97228,0 0.37644,0 1.26254,0.10948 1.59099,0 0.0915,-0.0305 0.17747,-0.13293 0.26516,-0.17678 0.37709,-0.18854 0.78554,-0.37638 1.14905,-0.61872 0.11872,-0.0792 0.17207,-0.29149 0.26516,-0.35355 0.049,-0.0327 0.12408,0.0264 0.17678,0 0.0263,-0.0132 0,-0.0589 0,-0.0884 0.0589,-0.0295 0.11561,-0.0639 0.17678,-0.0884 0.24001,-0.096 1.77791,-0.19039 2.03293,-0.0884 0.42561,0.17024 0.34697,0.21767 0.7955,0.44194 0.0263,0.0132 0.0589,0 0.0884,0 0.0589,0.0295 0.12029,0.0545 0.17678,0.0884 0.41253,0.24751 0.84659,0.56898 1.14905,0.97227 0.15811,0.21082 0.20738,0.48784 0.35355,0.7071 0.0163,0.0245 0.0676,-0.0208 0.0884,0 0.0751,0.0751 0.11304,0.18019 0.17678,0.26517 0.22458,0.10572 0.14658,0.37222 0.26516,0.53033 0.0395,0.0527 0.13019,0.0418 0.17678,0.0884 0.10765,0.10765 0.0414,0.19748 0.17678,0.26516 0.6437,0.32185 1.2116,0.78074 1.85615,1.14905 1.09348,0.62485 -0.35627,-0.21819 0.70711,0.26517 0.82414,0.37461 0.46509,0.19993 0.88388,0.61872 0.0659,0.0659 0.18764,0.0367 0.26517,0.0884 0.13831,0.0922 0.35184,0.30681 0.44194,0.44195 0.0163,0.0245 -0.0208,0.0676 0,0.0884 0.0208,0.0208 0.0675,-0.0208 0.0884,0 0.0751,0.0751 0.10877,0.18356 0.17677,0.26517 0.3776,0.45312 0.82982,0.85144 1.32583,1.14905 0.15728,0.0944 0.36034,0.29689 0.53033,0.35355 0.0559,0.0186 0.11961,-0.0143 0.17678,0 0.12782,0.032 0.22572,0.14482 0.35355,0.17678 0.22178,0.0554 0.48271,-0.0449 0.70711,0 0.0646,0.0129 0.11286,0.0724 0.17677,0.0884 0.16638,0.0416 0.36395,-0.0416 0.53033,0 0.40148,0.10036 0.82145,0.20573 1.23744,0.26516 0.49085,0.0701 1.01175,-0.0701 1.5026,0 0.23515,0.0336 0.47418,0.0418 0.70711,0.0884 0.0646,0.0129 0.11785,0.0589 0.17677,0.0884 0.20624,0.0589 0.4084,0.13471 0.61872,0.17677 0.6406,0.12812 1.29636,0.16205 1.85616,0.44195 0.0943,0.0471 0.25927,-0.0471 0.35355,0 0.0527,0.0264 -0.0264,0.12407 0,0.17677 0.0559,0.11181 0.1559,0.20446 0.26517,0.26517 0.42653,0.23696 1.00634,0.3468 1.41421,0.61872 0.36694,0.24462 0.71163,0.51627 1.06066,0.79549 0.13015,0.10412 0.21488,0.2611 0.35355,0.35355 0.10454,0.0697 0.33283,0.0677 0.44195,0.17678 0.0333,0.0333 0.2187,0.37225 0.26516,0.44194 0.19348,0.29022 0.56423,0.38746 0.7955,0.61872 0.14969,0.14969 0.11547,0.20386 0.26516,0.35355 0.089,0.089 0.26886,0.12032 0.35355,0.17678 0.18776,0.12517 0.3407,0.31552 0.53033,0.44194 0.5209,0.34727 -0.24472,-0.20589 0.44195,0.0884 0.1354,0.058 0.22723,0.18937 0.35355,0.26517 0.0758,0.0455 0.1831,-0.0328 0.26516,0 0.27853,0.11141 0.71268,0.35726 0.97228,0.53033 0.21986,0.14657 0.0102,0.0203 0.0884,0.17677 0.18706,0.37411 0.29793,0.70407 0.35356,1.14905 0.0187,0.1498 -0.0282,1.03248 0,1.06066 0.0208,0.0208 0.0675,-0.0208 0.0884,0 0.0631,0.0631 -0.0249,0.5441 0,0.61872 0.1959,0.58772 0.14006,0.004 0.26516,0.44194 0.0413,0.14445 0.0589,0.29463 0.0884,0.44194 0.0884,0.17678 0.19577,0.34528 0.26516,0.53033 0.0731,0.19496 0.002,0.53389 0.0884,0.70711 0.17541,0.35082 0.0279,-0.39065 0.17678,0.35355 0.0567,0.2833 -0.0567,0.60059 0,0.88389 0.0656,0.32794 0.16074,0.659 0.26516,0.97227 0.028,0.0838 -0.028,0.18131 0,0.26516 0.0354,0.10607 0.22981,0.1591 0.26517,0.26517 0.0373,0.1118 -0.0438,0.24413 0,0.35355 0.0245,0.0612 0.13562,0.0369 0.17678,0.0884 0.1184,0.14801 0.20703,0.4722 0.35355,0.61872 0.2289,0.2289 0.65107,0.29752 0.88388,0.53033 0.14969,0.14969 0.11548,0.20386 0.26517,0.35355 0.0466,0.0466 0.13019,0.0418 0.17678,0.0884 0.0751,0.0751 0.12926,0.17015 0.17677,0.26517 0.0132,0.0263 -0.0245,0.072 0,0.0884 0.0775,0.0517 0.18527,0.0405 0.26517,0.0884 0.14291,0.0858 0.22022,0.25356 0.35355,0.35356 0.0315,0.21712 0.18764,0.0367 0.26517,0.0884 0.19604,0.13069 0.37704,0.36138 0.61871,0.44194 0.14253,0.0475 0.30757,0.0212 0.44195,0.0884 0.0589,0.0295 0.0259,0.15594 0.0884,0.17677 0.0839,0.0279 0.17798,-0.0145 0.26517,0 0.35377,0.059 0.67367,0.20426 0.97227,0.35356 0.28673,0.14336 0.83981,-0.0618 1.14905,0 0.19577,0.0392 0.45918,0.18539 0.61872,0.26516 0.18034,0.0902 0.40737,-0.0324 0.61872,0.0884 0.31946,0.18255 0.58066,0.50496 0.88388,0.70711 0.14294,0.0953 0.27896,0.21083 0.44194,0.26516 0.0559,0.0186 0.12207,-0.0219 0.17678,0 0.0884,0.0589 0.17677,0.11785 0.26516,0.17678 0,0.0295 -0.0208,0.0675 0,0.0884 0.0208,0.0208 0.062,-0.0132 0.0884,0 0.095,0.0475 0.18356,0.10877 0.26517,0.17677 0.096,0.08 0.16516,0.19017 0.26516,0.26517 0.0707,0.053 0.18611,-0.0395 0.26517,0 0.0527,0.0263 -0.0264,0.12407 0,0.17677 0.0373,0.0745 0.13951,0.10225 0.17677,0.17678 0.0937,0.18731 0.16672,0.42183 0.26517,0.61872 0.0812,0.16244 0.21038,0.36599 0.26516,0.53033 0.0373,0.1118 -0.0286,0.23922 0,0.35355 -0.0533,0.15998 0.14319,0.16439 0.17678,0.26517 0.0978,0.29326 -0.009,0.68104 0.0884,0.97227 0.013,0.0391 0.0639,0.30466 0.0884,0.35355 0.0186,0.0373 0.0752,0.0489 0.0884,0.0884 0.11394,0.3418 0,1.1833 0,1.59099 0,0.25021 0.0588,0.56053 0,0.7955 -0.0503,0.2014 -0.17677,0.50536 -0.17677,0.7071 -0.42328,-0.0325 -0.39446,0.63889 -0.70728,0.7953 -0.2598,0.1299 -0.51326,0.13646 -0.79549,0.17678 -0.18447,0.0263 -0.34956,0.13158 -0.53033,0.17677 -0.12852,0.0321 -0.30886,0 -0.44195,0 -0.69019,0 -1.27413,-0.004 -1.85615,-0.35355 -0.11299,-0.0678 -0.24057,-0.10899 -0.35355,-0.17678 -0.0565,-0.0339 -0.0295,-0.14731 -0.0884,-0.17677 -0.0527,-0.0264 -0.13077,0.0368 -0.17678,0 -0.1396,-0.11169 -0.89351,-1.01458 -1.06066,-1.23744 -0.11039,-0.14719 -0.13562,-0.40078 -0.26516,-0.53033 -0.0466,-0.0466 -0.1302,-0.0418 -0.17678,-0.0884 -0.0383,-0.0383 -0.13875,-0.29651 -0.17678,-0.35355 -0.3539,-0.53086 -0.73196,-1.03511 -1.23743,-1.41422 -0.28941,-0.21705 -1.42478,-0.62083 -1.85616,-0.7071 -0.17053,-0.0341 -0.47038,-0.0142 -0.61872,-0.0884 -0.0745,-0.0373 -0.0977,-0.15043 -0.17678,-0.17678 -0.1118,-0.0373 -0.2373,0.0194 -0.35355,0 -0.26035,-0.0434 -0.49123,-0.24561 -0.70711,-0.35355 -0.11907,-0.0595 -1.38539,-0.0195 -1.5026,0 -0.44839,0.0747 -0.87199,0.65564 -1.14905,0.97227 -0.88987,1.017 -1.34963,1.77788 -1.14904,3.18198 0.049,0.34275 0.37846,0.66854 0.53033,0.97227 0.0767,0.15347 0.31305,0.56537 0.35355,0.70711 0.0243,0.085 -0.0173,0.17849 0,0.26516 0.0423,0.21148 0.34697,0.41954 0.44194,0.53033 0.17258,0.20135 0.28302,0.50846 0.44194,0.70711 0.0184,0.023 0.0648,-0.0177 0.0884,0 0.1,0.075 0.17678,0.17678 0.26517,0.26517 0.29098,0.29098 0.62648,0.48661 0.88388,0.79549 0.0422,0.0506 0.0418,0.13019 0.0884,0.17678 0.2328,0.2328 0.35125,0.26172 0.53033,0.53033 0.065,0.0975 0.21295,0.16074 0.26516,0.26516 0.4658,0.93159 0.35356,2.14648 0.35356,3.18198 v 1.67938 c 0,0.22398 0.0574,0.65418 0,0.88389 -0.0297,0.11885 -0.2379,0.44851 -0.26517,0.53033 -0.028,0.0839 0.0395,0.1861 0,0.26516 -0.0373,0.0745 -0.13951,0.10224 -0.17678,0.17678 -0.10339,0.20679 0.1789,0.14015 -0.17677,0.35355 -0.52962,0.31777 -1.07023,0.26517 -1.67938,0.26517 -0.4572,0 -0.56916,0.0208 -1.06066,-0.0884 -0.14478,-0.0322 -0.32676,-0.21909 -0.44194,-0.26517 -0.0547,-0.0219 -0.12625,0.0303 -0.17678,0 -0.10719,-0.0643 -0.16516,-0.19016 -0.26516,-0.26516 -0.1962,-0.14715 -0.77355,-0.33154 -0.97228,-0.44194 -0.54994,-0.30553 -1.10491,-0.72608 -1.67937,-0.97228 -0.22332,-0.0957 -0.48153,-0.0865 -0.70711,-0.17677 -0.0774,-0.031 -0.10442,-0.13544 -0.17678,-0.17678 -0.33441,-0.19109 -0.65046,-0.3292 -0.97227,-0.53033 -0.12492,-0.0781 -0.22179,-0.19928 -0.35355,-0.26517 -0.16667,-0.0833 -0.36744,-0.0863 -0.53033,-0.17677 -0.10927,-0.0607 -0.16116,-0.19583 -0.26517,-0.26517 -0.36113,-0.24075 -0.13751,0.0294 -0.53033,-0.26516 -0.22113,-0.16585 -0.9647,-0.49544 -1.06066,-0.53033 -0.92469,-0.33625 0.71598,0.63641 -0.70711,-0.17678 -0.0723,-0.0413 -0.11011,-0.12678 -0.17677,-0.17678 -0.15189,-0.11391 -0.3652,-0.1708 -0.53033,-0.26516 -0.47477,-0.2713 -0.89721,-0.53477 -1.41422,-0.70711 -0.39774,-0.13258 0.0884,-0.0884 -0.53033,-0.26516 -0.14164,-0.0405 -0.30218,0.0466 -0.44194,0 -0.125,-0.0417 -0.22855,-0.13511 -0.35355,-0.17678 -0.35536,-0.11845 -0.7734,-0.0884 -1.14905,-0.0884 -0.31762,0 -1.46561,-0.10072 -1.76777,0 -0.0395,0.0132 -0.0489,0.0752 -0.0884,0.0884 -0.0796,0.0265 -0.18562,-0.0265 -0.26517,0 -0.1948,0.0649 -0.32202,0.11726 -0.53033,0.17678 -0.17232,0.0492 -0.37004,0.008 -0.53033,0.0884 -0.0745,0.0373 -0.10532,0.1339 -0.17678,0.17677 -0.31788,0.19073 -1.06066,0.23519 -1.10484,0.35357 -0.44316,-0.35354 -1.55286,-0.27123 -1.81195,-0.53032 -0.0417,-0.0417 0.0417,-0.13508 0,-0.17678 -0.20834,-0.20833 -0.47141,-0.35355 -0.70711,-0.53033 -0.0589,0 -0.13508,0.0417 -0.17678,0 -0.10829,-0.10829 -0.15049,-0.46263 -0.35355,-0.53033 -0.1118,-0.0373 -0.24814,0.0527 -0.35355,0 -0.14907,-0.0745 -0.23571,-0.2357 -0.35356,-0.35355 0,-0.0589 0.0417,-0.13508 0,-0.17678 -0.6434,-0.6434 -0.12421,0.18794 -0.53033,-0.35355 -0.25612,-0.3415 -0.58211,-0.93566 -0.88388,-1.23744 -0.20328,-0.20327 -0.67678,-0.21548 -0.88388,-0.35355 -0.049,-0.0327 0.0417,-0.13508 0,-0.17678 -0.4089,-0.40889 -1.17241,-0.62633 -1.36768,-1.0029 0.0465,-0.29743 0.20698,-1.15912 0.0465,-1.64048 -0.0452,-0.13568 -0.25947,-0.673 -0.375,-0.75 -0.0693,-0.0462 -0.1911,0.0589 -0.25,0 -0.0589,-0.0589 0.0373,-0.1755 0,-0.25 -0.22478,-0.4496 -0.21661,-0.0916 -0.5,-0.375 -0.0659,-0.0659 -0.0505,-0.1941 -0.125,-0.25 -0.10541,-0.0791 -0.26959,-0.0459 -0.375,-0.125 -0.0745,-0.0559 -0.0591,-0.1841 -0.125,-0.25 -0.0864,-0.0864 -0.9998,-0.52484 -1.125,-0.625 -0.254,-0.203 0.006,-0.24718 -0.25,-0.375 -0.28945,-0.14472 -0.68563,-0.52021 -1,-0.625 -0.0791,-0.0263 -0.1709,0.0263 -0.25,0 -0.14807,-0.0494 -0.23444,-0.3047 -0.375,-0.375 -0.13999,-0.07 -0.36785,-0.0589 -0.5,-0.125 -0.0373,-0.0186 0.0373,-0.1064 0,-0.125 -0.18096,-0.0905 -0.55629,-0.0281 -0.75,-0.125 -0.0527,-0.0263 -0.0691,-0.1064 -0.125,-0.125 -0.675,-0.225 -1.575,0.225 -2.25,0 -0.0884,-0.0295 -0.1596,-0.1024 -0.25,-0.125 -0.0717,-0.0179 -0.5615,0.0635 -0.625,0 -0.0659,-0.0659 -0.0475,-0.1983 -0.125,-0.25 -0.0693,-0.0462 -0.1709,0.0263 -0.25,0 -0.0626,-0.0209 -0.4776,-0.2276 -0.5,-0.25 -0.0726,-0.0727 -0.0725,-0.39495 -0.125,-0.5 -0.0527,-0.10541 -0.2127,-0.1382 -0.25,-0.25 -0.0999,-0.29974 0.0999,-0.20026 0,-0.5 -0.0647,-0.19416 -0.3017,-0.40501 -0.375,-0.625 -0.0984,-0.2951 0.16755,-0.41622 -0.25,-0.625 -0.0745,-0.0373 -0.1807,0.0462 -0.25,0 -0.1888,-0.12587 -0.14556,-0.52056 -0.25,-0.625 -0.0962,-0.0962 -0.37168,-0.0929 -0.5,-0.125 -0.0904,-0.0226 -0.1667,-0.0833 -0.25,-0.125 -0.0417,-0.0417 -0.0691,-0.1064 -0.125,-0.125 -0.30889,-0.10296 -0.6769,-0.12076 -1,-0.25 -0.0547,-0.0219 -0.0672,-0.1134 -0.125,-0.125 -0.16343,-0.0327 -0.33657,0.0327 -0.5,0 -0.11556,-0.0231 -0.1382,-0.2127 -0.25,-0.25 -0.4435,-0.1479 -0.0633,0.20256 -0.5,-0.125 -0.26363,-0.19772 -0.48286,-0.36643 -0.75,-0.5 -0.1915,-0.0957 -0.0978,-0.22275 -0.25,-0.375 -0.0295,-0.0295 -0.0903,0.0231 -0.125,0 -0.0981,-0.0654 -0.1557,-0.1793 -0.25,-0.25 -0.14907,-0.1118 -0.35093,-0.1382 -0.5,-0.25 -0.3252,-0.2439 -0.46981,-0.46981 -0.75,-0.75 -0.0589,-0.0589 -0.1709,0.0263 -0.25,0 -0.33902,-0.11301 -0.68651,-0.3955 -1,-0.5 -0.0791,-0.0263 -0.1709,0.0263 -0.25,0 -0.0559,-0.0186 -0.0678,-0.1107 -0.125,-0.125 -0.28296,-0.0707 -0.58627,0.0412 -0.875,0 -0.31296,-0.0447 -0.5949,-0.26296 -0.875,-0.375 -0.24452,-0.0978 -0.85292,-0.0861 -1.125,-0.125 -0.50764,-0.0725 -0.64603,-0.25701 -1,-0.375 -0.0791,-0.0263 -0.1709,0.0263 -0.25,0 -0.0559,-0.0186 -0.0691,-0.1064 -0.125,-0.125 -0.40155,-0.13385 -0.95131,0.053 -1.375,0 -0.34094,-0.0426 -0.65986,-0.2014 -1,-0.25 -0.99625,-0.14232 -2.11414,0 -3.125,0 h -3.75 c -0.47888,0 -1.03132,-0.0781 -1.5,0 -0.3812,0.0635 -0.74538,0.1741 -1.125,0.25 -0.74568,0.1491 -1.72223,-0.005 -2.5,0.125 -0.96819,0.16136 -1.94659,0.3929 -2.875,0.625 -0.20211,0.0505 -0.42289,-0.0505 -0.625,0 -0.0572,0.0143 -0.0723,0.0987 -0.125,0.125 -0.20748,0.1037 -0.49796,-10e-4 -0.75,0.125 -0.3176,0.1588 0.12801,0.1494 -0.375,0.25 -0.1843,0.0369 -0.43566,-0.0473 -0.625,0 -0.37297,0.0932 -0.56828,0.27276 -0.875,0.375 -0.12004,0.04 -0.38003,-0.06 -0.5,0 -0.57208,0.286 0.53043,-0.0518 -0.375,0.25 -0.0791,0.0263 -0.1807,-0.0462 -0.25,0 -0.22193,0.14795 -0.3841,0.50455 -0.625,0.625 -0.0373,0.0186 -0.1019,-0.0347 -0.125,0 -0.0731,0.10963 -0.0519,0.26537 -0.125,0.375 -0.0231,0.0347 -0.0955,-0.0295 -0.125,0 -0.0659,0.0659 -0.0591,0.1841 -0.125,0.25 -0.0295,0.0295 -0.0955,-0.0295 -0.125,0 -0.24627,0.24627 -0.0187,0.28734 -0.125,0.5 -0.0527,0.10541 -0.2214,0.13567 -0.25,0.25 -0.0303,0.12127 0.0245,0.25243 0,0.375 -0.0605,0.30252 -0.26096,0.4649 -0.375,0.75 -0.0309,0.0774 0.0373,0.1755 0,0.25 -0.0999,0.19988 -0.37506,0.31259 -0.5,0.5 -0.21032,0.31547 -0.48997,0.74666 -0.875,0.875 -0.0791,0.0263 -0.1755,-0.0373 -0.25,0 -0.10541,0.0527 -0.1519,0.1846 -0.25,0.25 -0.12856,0.0857 -0.47415,-0.0377 -0.625,0 -0.27437,0.0686 -0.28509,0.26754 -0.5,0.375 -0.11785,0.0589 -0.25,0.0833 -0.375,0.125 -0.0417,0 -0.0855,-0.0132 -0.125,0 -0.19982,0.0666 -1.44021,0.4348 -1.625,0.25 -0.0295,-0.0295 0.0295,-0.0955 0,-0.125 -0.23967,-0.23967 -0.71618,-0.31078 -1,-0.5 -2.27775,-1.5185 0.22163,-0.0142 -1.5,-0.875 -0.0527,-0.0263 -0.0672,-0.1134 -0.125,-0.125 -0.14883,-0.0298 -0.7194,0.0306 -0.875,-0.125 -0.0295,-0.0295 0.0295,-0.0955 0,-0.125 -0.0589,-0.0589 -0.1807,0.0462 -0.25,0 -0.14709,-0.0981 -0.2073,-0.3191 -0.375,-0.375 -0.47711,-0.159 -0.0421,0.33293 -0.625,-0.25 -0.0659,-0.0659 -0.0591,-0.1841 -0.125,-0.25 -0.0295,-0.0295 -0.0955,0.0295 -0.125,0 -0.0295,-0.0295 0,-0.0833 0,-0.125 -0.0833,-0.0417 -0.1667,-0.0833 -0.25,-0.125 -0.0932,-0.0932 -0.0318,-0.2818 -0.125,-0.375 -0.0659,-0.0659 -0.1983,-0.0475 -0.25,-0.125 -0.0462,-0.0693 0.0462,-0.1807 0,-0.25 -0.055,-0.0825 -0.5392,-0.4142 -0.625,-0.5 -0.10623,-0.10623 -0.1522,-0.26094 -0.25,-0.375 -0.15339,-0.17896 -0.35858,-0.31144 -0.5,-0.5 -0.11181,-0.14907 -0.1382,-0.35093 -0.25,-0.5 -0.3182,-0.42427 -0.79941,-0.70638 -1.125,-1.125 -0.1144,-0.14709 -0.1336,-0.35449 -0.25,-0.5 -0.10535,-0.13168 -1.03848,-0.8045 -1.25,-0.875 -0.16298,-0.0543 -0.33054,-0.0968 -0.5,-0.125 -0.0822,-0.0137 -0.1807,0.0462 -0.25,0 -0.17335,-0.11556 -0.0646,-0.4875 -0.375,-0.5 -0.11299,-0.0678 -0.26202,-0.0572 -0.375,-0.125 -0.44322,-0.26593 -1.18312,-1.11624 -1.375,-1.5 -0.0992,-0.19841 -0.4175,-0.2925 -0.5,-0.375 -0.0308,-0.0308 -0.3091,-0.5261 -0.375,-0.625 -0.19145,-0.2872 -0.0714,0.0536 -0.375,-0.25 -0.12868,-0.12868 -0.12132,-0.24632 -0.25,-0.375 -0.16667,-0.16667 -0.31893,-0.34911 -0.5,-0.5 -0.14315,-0.11929 -0.36824,-0.11824 -0.5,-0.25 -0.19099,-0.19099 -0.37148,-0.68221 -0.5,-0.875 -0.21585,-0.32378 -0.70171,-0.52842 -0.875,-0.875 -0.0186,-0.0373 0.0295,-0.0955 0,-0.125 -0.068,-0.068 -0.5309,-0.2809 -0.625,-0.375 -0.0295,-0.0295 0.0373,-0.1064 0,-0.125 -0.0745,-0.0373 -0.1785,0.0429 -0.25,0 -0.15159,-0.091 -0.22791,-0.2769 -0.375,-0.375 -0.10963,-0.0731 -0.26959,-0.0459 -0.375,-0.125 -0.0745,-0.0559 -0.0505,-0.1941 -0.125,-0.25 -0.10541,-0.0791 -0.26959,-0.0459 -0.375,-0.125 -0.0745,-0.0559 -0.0591,-0.1841 -0.125,-0.25 -0.21711,-0.21711 -1.16747,-0.6611 -1.375,-0.75 -0.19149,-0.0821 -0.42071,0.0409 -0.625,0 -0.22114,-0.0442 -0.43568,-0.3119 -0.625,-0.375 -0.11859,-0.0395 -0.2517,0.0206 -0.375,0 -0.46873,-0.0781 -0.84116,-0.29558 -1.25,-0.5 -0.15711,-0.0786 -0.39889,-0.17279 -0.5,-0.375 -0.0186,-0.0373 0.0295,-0.0955 0,-0.125 -0.15225,-0.1522 -0.2793,-0.0586 -0.375,-0.25 -0.21311,-0.42621 -0.47178,-0.95767 -0.75,-1.375 -0.14094,-0.21141 -0.37251,-0.41251 -0.5,-0.625 -0.0678,-0.11299 -0.0459,-0.26959 -0.125,-0.375 -0.0559,-0.0745 -0.1983,-0.0475 -0.25,-0.125 -0.0462,-0.0693 0.0309,-0.1726 0,-0.25 -0.16571,-0.41428 -0.62598,-0.74609 -0.5,-1.25 0.0792,-0.31668 0.68618,-0.96809 1,-1.125 0.24076,-0.12038 0.6347,-0.1699 0.875,-0.25 0.51387,-0.17129 1.00688,-0.40086 1.5,-0.625 1.28978,-0.58626 1.38545,-0.63284 2.375,-1.375 0.38006,-0.28504 0.75,-0.58333 1.20796,-0.77832 0.95115,0.13429 1.82271,-0.0216 2.64622,-0.25686 z"
         id="path75" />
    </g>
  </g>
</svg>
