<?xml version="1.0" encoding="UTF-8" standalone="no"?>
<!-- Created with Inkscape (http://www.inkscape.org/) -->

<svg
   version="1.1"
   id="svg1"
   width="117.82167"
   height="67.307732"
   viewBox="0 0 117.82167 67.307732"
   xmlns="http://www.w3.org/2000/svg"
   xmlns:svg="http://www.w3.org/2000/svg">
  <defs
     id="defs1" />
  <g
     id="layer1"
     style="display:inline"
     transform="translate(-696.80952,-352.49272)">
    <g
       id="layer9"
       style="display:inline;fill:#ffffff;fill-opacity:1;stroke:none">
      <path
         style="display:inline;fill:#ffffff;fill-opacity:1;stroke:none;stroke-width:1;stroke-linecap:round;stroke-dasharray:none;stroke-opacity:1"
         d="m 766.10598,352.49272 5.92202,6.0988 7.33624,4.77297 -2.78424,5.3033 -5.17071,-0.7513 -3.0936,0.83969 -0.39774,4.33103 2.2097,1.90035 3.40296,-2.47488 5.17071,2.65165 4.28684,4.46361 12.06501,3.00521 2.65165,2.47487 3.62392,1.45841 1.28163,7.73398 2.34229,2.47487 7.33623,3.88909 2.07713,2.12132 0.26517,4.50781 -4.50781,1.4584 -6.49654,-5.61266 -2.87262,0.70711 -0.83969,3.62392 3.04939,4.33103 0.13259,6.62913 -3.93328,1.37002 -11.13694,-6.71752 -5.92201,0.7955 -7.73399,-5.56847 -3.88908,-4.81716 -5.3033,-1.5468 -1.85616,-2.91681 -4.86136,-1.72358 -3.8007,-3.04939 -3.84489,0.35355 -1.5026,-0.61872 -18.42897,0.39775 -3.66812,5.21491 -4.90555,2.2981 -2.69585,-1.90035 -1.32582,-0.53033 -14.53988,-13.96536 -6.45235,-3.09359 -0.48614,-3.71231 6.40816,-3.97748 11.3137,-3.84489 4.33103,-6.45235 3.27037,-2.69585 7.82237,-2.56326 6.62913,2.56326 5.43588,-0.26516 10.69499,-7.02687 4.59619,-1.90035 z"
         id="path7" />
    </g>
  </g>
</svg>
