<?xml version="1.0" encoding="UTF-8" standalone="no"?>
<!-- Created with Inkscape (http://www.inkscape.org/) -->

<svg
   version="1.1"
   id="svg2"
   width="175.26836"
   height="117.90959"
   viewBox="0 0 175.26836 117.90959"
   xmlns="http://www.w3.org/2000/svg"
   xmlns:svg="http://www.w3.org/2000/svg">
  <defs
     id="defs6">
    <linearGradient
       id="swatch77">
      <stop
         style="stop-color:#e2c69e;stop-opacity:1;"
         offset="0"
         id="stop77" />
    </linearGradient>
  </defs>
  <g
     id="layer66"
     style="display:inline"
     transform="translate(-486.76039,-403.18468)">
    <g
       id="layer70"
       style="display:inline">
      <path
         style="fill:#969696;fill-opacity:1;stroke:none;stroke-opacity:1"
         d="m 487.625,492 c 0.19941,-0.17725 0.43634,-0.31135 0.625,-0.5 0.19505,-0.19505 0.85994,-1.21988 1,-1.5 0.0186,-0.0373 -0.025,-0.0917 0,-0.125 0.10606,-0.14142 0.26893,-0.23358 0.375,-0.375 0.1611,-0.2148 0.21141,-0.62962 0.375,-0.875 0.19145,-0.28717 0.0714,0.0536 0.375,-0.25 0.6388,-0.6388 -0.52412,0.17434 0.375,-0.5 0.68401,-0.51301 1.31004,-1.10753 2,-1.625 0.68502,-0.51377 1.42187,-0.98864 2.125,-1.5 0.4749,-0.34538 2.33449,-1.66898 2.625,-2.25 0.0373,-0.0745 -0.0429,-0.17854 0,-0.25 0.33789,-0.56315 1.23262,-1.20067 1.625,-1.75 0.10831,-0.15163 0.14664,-0.34496 0.25,-0.5 0.38973,-0.5846 0.76121,-1.14368 1.125,-1.75 0.12124,-0.20206 0.13849,-0.60133 0.25,-0.75 0.10606,-0.14142 0.26183,-0.2392 0.375,-0.375 0.0962,-0.11541 0.18281,-0.24063 0.25,-0.375 0.0186,-0.0373 -0.0295,-0.0955 0,-0.125 0.15289,-0.15289 0.35763,-0.18517 0.5,-0.375 0.713,-0.95067 -0.39015,0.39772 0.625,-1.125 0.0231,-0.0347 0.10189,0.0347 0.125,0 0.28572,-0.42859 0.74267,-1.72069 0.875,-2.25 0.0564,-0.22546 0.3298,-0.3192 0.375,-0.5 0.0303,-0.12127 -0.0464,-0.25894 0,-0.375 0.0438,-0.10942 0.18936,-0.14894 0.25,-0.25 0.24267,-0.40446 0.10093,-0.9278 0.25,-1.375 0.11922,-0.35767 0.49896,-1.21642 0.625,-1.5 0.061,-0.13728 0.1942,-0.23551 0.25,-0.375 0.031,-0.0774 -0.0373,-0.17547 0,-0.25 0.0527,-0.10541 0.21273,-0.1382 0.25,-0.25 0.0527,-0.15812 -0.0527,-0.34189 0,-0.5 0.49808,-1.49424 0.0532,0.78699 0.375,-0.5 0.10677,-0.42707 0.2394,-0.85911 0.5,-1.25 0.0654,-0.0981 0.19729,-0.14459 0.25,-0.25 0.0373,-0.0745 -0.0429,-0.17854 0,-0.25 0.13051,-0.21753 0.53483,-0.47949 0.625,-0.75 0.0263,-0.0791 -0.0462,-0.18066 0,-0.25 0.0517,-0.0775 0.18412,-0.0591 0.25,-0.125 0.0295,-0.0295 -0.0186,-0.0877 0,-0.125 0.14963,-0.29927 0.49528,-0.5507 0.625,-0.875 0.031,-0.0774 -0.05,-0.18333 0,-0.25 0.0901,-0.12019 0.28486,-0.12982 0.375,-0.25 0.05,-0.0667 -0.0137,-0.1678 0,-0.25 -0.46963,-0.2773 0.21238,-0.47452 0.25,-0.625 0.0404,-0.16169 -0.0745,-0.35093 0,-0.5 0.0263,-0.0527 0.10636,-0.0691 0.125,-0.125 0.0527,-0.15812 -0.0439,-0.33921 0,-0.5 0.18173,-0.66637 0.43423,-1.3323 0.625,-2 0.15774,-0.55211 0.50182,-1.12865 0.75,-1.625 0.0263,-0.0527 0.10636,-0.0691 0.125,-0.125 0.0861,-0.25834 0.0583,-0.6083 0.125,-0.875 0.0226,-0.0904 0.0833,-0.16667 0.125,-0.25 0.0833,-0.29167 0.19574,-0.57656 0.25,-0.875 0.19444,-1.06945 -0.14583,0 0,-0.875 -0.0434,-0.25433 0.20599,-0.40498 0.25,-0.625 0.0633,-0.31631 -0.0782,-0.6872 0,-1 0.29998,-1.19992 0.125,-2.61778 0.125,-3.875 0,-0.6892 -0.14433,-2.29768 0,-2.875 0.10242,-0.40971 0.125,-0.70494 0.125,-1.125 0,-0.20833 -0.0932,-0.43866 0,-0.625 0.27946,-0.55893 0.25,-0.0333 0.6875,0.25 0.77915,0.5553 1.32549,0.37933 1.6875,0.5 0.14252,0.0475 0.23691,0.19082 0.375,0.25 0.16667,0.0417 0.33333,0.0833 0.5,0.125 0.0417,0.0417 0.0723,0.0987 0.125,0.125 0.1118,0.0559 0.25641,-0.0395 0.375,0 0.13175,0.0439 1.28889,1.03889 1.375,1.125 0.10623,0.10623 0.14377,0.26877 0.25,0.375 0.10623,0.10623 0.25959,0.15382 0.375,0.25 0.56287,0.46906 1.0377,1.05952 1.625,1.5 0.0333,0.025 0.0955,-0.0295 0.125,0 0.0417,0.0417 0.0833,0.33333 0.125,0.375 0.0195,0.0195 0.3555,0.2305 0.375,0.25 0.46109,0.46109 -0.29934,0.0504 0.375,0.5 0.19922,0.13281 0.51927,0.11156 0.75,0.25 0.10106,0.0606 0.14058,0.20623 0.25,0.25 0.17361,0.0694 0.43981,-0.0463 0.625,0 0.50696,0.12674 0.96886,0.38618 1.5,0.5 0.28809,0.0617 0.58609,0.0672 0.875,0.125 1.04694,0.20939 2.59319,0.46227 3.625,0.875 0.58449,0.23379 -0.75001,0.0714 0.5,0.25 0.60995,0.0871 1.26723,-0.1013 1.875,0 0.75316,0.12553 1.392,0.41557 2.125,0.625 0.22624,-0.0753 0.23248,0.20249 0.375,0.25 0.0791,0.0263 0.17094,-0.0263 0.25,0 0.14118,0.0471 0.63432,0.30559 0.75,0.375 0.35461,0.21277 0.63282,0.69141 1,0.875 0.16262,0.0813 0.29452,-0.11642 0.375,0.125 0.0263,0.0791 -0.0373,0.17546 0,0.25 0.0186,0.0373 0.1,-0.0333 0.125,0 0.1118,0.14907 0.15413,0.34021 0.25,0.5 0.12657,0.21096 0.53118,0.64059 0.75,0.75 0.0373,0.0186 0.0955,-0.0295 0.125,0 0.0659,0.0659 0.0691,0.17546 0.125,0.25 0.125,0.16667 0.54167,0.47917 0.625,0.625 0.0852,0.14916 0.0297,0.35706 0.125,0.5 0.13629,0.20444 0.78351,0.57681 1,0.75 0.18405,0.14724 0.28918,0.39459 0.5,0.5 0.125,0.0417 0.25,0.0833 0.375,0.125 0,0.0417 -0.0347,0.10189 0,0.125 0.37394,0.24929 0.979,0.28 1.375,0.5 0.18211,0.10117 0.32665,0.25944 0.5,0.375 0.2127,0.1418 0.41229,0.1082 0.625,0.25 0.0347,0.0231 -0.0373,0.10636 0,0.125 0.0745,0.0373 0.17546,-0.0373 0.25,0 0.10541,0.0527 0.15194,0.18463 0.25,0.25 0.0347,0.0231 0.0955,-0.0295 0.125,0 0.0295,0.0295 -0.0295,0.0955 0,0.125 0.21288,0.21288 0.7398,0.57653 1,0.75 0.23409,0.15606 0.39091,0.0939 0.625,0.25 0.375,0.25 -0.25,0 0.375,0.375 0.11298,0.0678 0.26959,0.0459 0.375,0.125 0.35197,0.008 0.0318,0.28183 0.125,0.375 0.0174,0.0174 1.02952,0.57726 1.125,0.625 0.10541,0.0527 0.1382,0.21273 0.25,0.25 0.0791,0.0263 0.1734,-0.0328 0.25,0 0.82803,0.35487 0.4674,0.30435 1.25,0.5 0.18077,0.0452 0.31922,0.2048 0.5,0.25 0.47059,0.11765 1.02941,-0.11765 1.5,0 0.0904,0.0226 0.1581,0.10968 0.25,0.125 0.2877,0.048 0.589,-0.0572 0.875,0 0.0914,0.0183 0.16667,0.0833 0.25,0.125 0.125,0.0417 0.2458,0.0992 0.375,0.125 0.72115,0.14423 1.52884,-0.14423 2.25,0 0.9312,0.18624 4.73061,0.33663 5.5,-0.125 0.15158,-0.091 0.20729,-0.3191 0.375,-0.375 0.0791,-0.0263 0.18333,0.05 0.25,0 0.12018,-0.0901 0.15615,-0.25769 0.25,-0.375 0.23997,-0.29997 0.47837,-0.60337 0.75,-0.875 0.0659,-0.0659 0.18412,-0.0591 0.25,-0.125 0.0659,-0.0659 0.0833,-0.16667 0.125,-0.25 0.16667,-0.20833 0.31134,-0.43635 0.5,-0.625 0.0426,-0.0426 0.68963,-0.40945 0.75,-0.5 0.0462,-0.0693 -0.0373,-0.17547 0,-0.25 0.0417,-0.0833 0.20833,-0.0417 0.25,-0.125 0.11349,-0.22697 0.0654,-0.63652 0.125,-0.875 0.0289,-0.11551 0.21195,-0.26086 0.25,-0.375 0.0527,-0.15812 -0.0404,-0.33831 0,-0.5 0.1509,-0.60362 0.0594,0.006 0.25,-0.375 0.0833,-0.16667 -0.0833,-0.45833 0,-0.625 0.0186,-0.0373 0.11182,0.0395 0.125,0 0.0395,-0.11859 -0.0245,-0.25243 0,-0.375 0.085,-0.42506 0.49564,-0.86192 0.625,-1.25 0.0395,-0.11859 -0.0559,-0.2632 0,-0.375 0.38798,-0.77596 0.25,-2.06981 0.25,-3 0,-0.51026 0.0996,-1.12719 0,-1.625 -0.0895,-0.44754 -0.42565,-0.8513 -0.625,-1.25 -0.17678,-0.35355 -0.21446,-0.76379 -0.375,-1.125 -0.0134,-0.32315 -0.38069,-0.38637 -0.5,-0.625 -0.0768,-0.15366 -0.0573,-0.3421 -0.125,-0.5 -0.2256,-0.52639 -0.67502,-0.8167 -1,-1.25 -0.20907,-0.27876 -0.32674,-0.74011 -0.5,-1 -0.13889,-0.20833 -0.52083,-0.41667 -0.625,-0.625 -0.0559,-0.1118 0.0395,-0.25642 0,-0.375 -0.0768,-0.23049 -0.29817,-0.39451 -0.375,-0.625 -0.12328,-0.36985 -0.25182,-0.75545 -0.375,-1.125 -0.0908,-0.2723 -0.0344,-2.11243 0,-2.25 0.0984,-0.39359 0.34759,-0.86897 0.5,-1.25 0.0558,-0.13949 0.20249,-0.23248 0.25,-0.375 0.0263,-0.0791 -0.0462,-0.18066 0,-0.25 0.0517,-0.0775 0.19832,-0.0475 0.25,-0.125 0.0462,-0.0693 -0.0263,-0.17094 0,-0.25 0.14654,-0.43964 0.55676,-0.92412 0.75,-1.375 0.41667,-0.97222 0.10417,0 0.625,-1.25 0.15203,-0.36488 0.17163,-0.78605 0.375,-1.125 0.0606,-0.10106 0.18936,-0.14894 0.25,-0.25 0.60896,-1.01494 -0.0239,-0.0534 0.125,-0.5 0.0615,-0.18443 0.19758,-0.34274 0.25,-0.5 0.0625,-0.1875 -0.0625,-0.4375 0,-0.625 0.0186,-0.0559 0.0987,-0.0723 0.125,-0.125 0.0745,-0.14907 -0.0327,-0.33657 0,-0.5 0.24137,-1.20685 0.0143,1.02491 0.25,-0.625 0.0236,-0.16499 -0.0274,-0.3356 0,-0.5 0.0503,-0.30178 0.28078,-0.40392 0.375,-0.875 0.067,-0.33502 -0.0166,-0.49731 0.125,-0.875 0.0654,-0.17448 0.19107,-0.32322 0.25,-0.5 0.0263,-0.0791 -0.0263,-0.17094 0,-0.25 0.35774,-1.07322 0.15656,-10e-4 0.375,-0.875 0.0312,-0.125 -0.0625,-0.25 0,-0.375 0.0186,-0.0373 0.11182,0.0395 0.125,0 0.0395,-0.11859 -0.0303,-0.25373 0,-0.375 0.0143,-0.0572 0.0987,-0.0723 0.125,-0.125 0.0768,-0.15366 0.0482,-0.34634 0.125,-0.5 0.21332,-0.42664 0.41168,-0.82337 0.625,-1.25 0.095,-0.19003 0.0461,-0.42774 0.125,-0.625 0.25636,-0.64092 0.62988,-1.32593 0.875,-2 0.17886,-0.49186 0.32107,-1.2941 0.625,-1.75 0.0981,-0.14709 0.29594,-0.21689 0.375,-0.375 0.0559,-0.1118 -0.0395,-0.25642 0,-0.375 0.0132,-0.0395 0.10636,0.0373 0.125,0 0.125,-0.25 -0.0625,-0.1875 0,-0.375 0.0856,-0.25665 0.30932,-0.3623 0.375,-0.625 0.0661,-0.26433 0.0828,-0.49914 0.25,-0.75 0.12823,-0.19235 0.38091,-0.30152 0.5,-0.5 0.0515,-0.0859 0.59719,-1.13876 0.625,-1.25 0.14302,-0.57208 -0.25249,0.12997 0.125,-0.625 0.23741,-0.47482 0.44999,-0.27498 0.625,-0.625 0.06,-0.11997 -0.04,-0.37996 0,-0.5 0.0659,-0.19764 0.29763,-0.30657 0.375,-0.5 0.065,-0.1626 0.0801,-0.44549 0.125,-0.625 0.14557,-0.5823 0.5,-1.00734 0.40625,-1.59375 0.24777,-0.031 0.59399,0.0177 0.9375,5e-5 0.28165,-0.0144 0.56198,-0.0505 0.84375,-0.0625 0.40588,-0.0173 0.81261,-0.01 1.21875,0 0.42097,0.01 1.31746,0.0634 1.6875,0.0937 0.31301,0.0257 0.62396,0.0757 0.9375,0.0937 0.57196,0.033 1.14594,-0.011 1.71875,0 0.19815,0.004 0.39562,0.0264 0.59375,0.0312 0.53021,0.0129 1.06298,0 1.4375,0.10942 0.14571,0.50198 0.39687,0.9438 0.75,1.29693 0.48278,0.48278 0.0715,0.0386 0.5625,0.4375 0.59979,0.48733 -0.25053,-0.0733 0.5625,0.46875 0.22601,0.15067 0.45337,0.29978 0.6875,0.4375 0.1125,0.0662 0.23417,0.11659 0.34375,0.1875 0.14548,0.0941 0.26043,0.25261 0.40625,0.34375 0.0712,0.0445 0.14583,0.0833 0.21875,0.125 0.1875,0.125 0.3727,0.25353 0.5625,0.375 0.0894,0.1112 0.25971,0.12162 0.375,0.1875 0.0757,0.0433 0.13622,0.11498 0.21875,0.15625 0.13711,0.0686 0.30697,0.10918 0.4375,0.1875 0.0253,0.0152 0.038,0.0462 0.0625,0.0625 0.0658,0.0439 0.30378,0.13627 0.34375,0.15625 0.17068,0.0853 0.28835,0.1511 0.46875,0.21875 0.1383,0.0519 0.25665,0.13132 0.40625,0.15625 0.11349,0.0189 0.23003,0.0138 0.34375,0.0312 0.26737,0.0411 0.58164,0.0686 0.84375,-0.0312 0.28092,-0.10702 0.77832,-0.67097 0.96875,-0.875 0.0256,-0.0275 0.0349,-0.0683 0.0625,-0.0937 0.38988,-0.35989 0.83063,-0.67741 1.25,-1 0.0826,-0.0635 0.16743,-0.12399 0.25,-0.1875 0.0529,-0.0407 0.0966,-0.0952 0.15625,-0.125 0.80273,-0.40137 -0.38207,0.29906 0.4375,-0.15625 0.26201,-0.14556 0.28676,-0.19619 0.5,-0.3125 0.24537,-0.13384 0.50119,-0.2506 0.75,-0.375 0.32522,-0.16261 -0.0139,-0.0179 0.3125,-0.21875 0.0793,-0.0488 0.17163,-0.0746 0.25,-0.125 0.20531,-0.13198 0.37093,-0.31751 0.5625,-0.46875 0.3365,-0.26566 0.14634,-0.0526 0.53125,-0.4375 0.0679,-0.0679 0.12236,-0.14818 0.1875,-0.21875 0.1796,-0.19457 0.40393,-0.35503 0.53125,-0.59375 0.0419,-0.0785 0.0509,-0.17202 0.0937,-0.25 0.0724,-0.13164 0.17038,-0.2476 0.25,-0.375 0.13753,-0.22005 0.22858,-0.47173 0.375,-0.6875 0.15094,-0.22244 0.31963,-0.43258 0.46875,-0.65625 0.0595,-0.0892 0.0955,-0.19288 0.15625,-0.28125 0.0544,-0.0791 0.13028,-0.14162 0.1875,-0.21875 0.18254,-0.24604 0.35066,-0.50252 0.53125,-0.75 0.10071,-0.13801 0.2132,-0.26723 0.3125,-0.40625 0.43109,-0.60352 0.79466,-1.24908 1.28125,-1.8125 0.0916,-0.10606 0.19441,-0.20251 0.28125,-0.3125 0.0698,-0.0884 0.125,-0.1875 0.1875,-0.28125 0.13542,-0.17708 0.26508,-0.35872 0.40625,-0.53125 0.0466,-0.057 0.1091,-0.0997 0.15625,-0.15625 0.13229,-0.15875 0.30764,-0.39168 0.375,-0.59375 0.0136,-0.0408 0.0153,-0.0851 0.0312,-0.125 0.005,-0.0137 0.0208,-0.0208 0.0312,-0.0312 0.0104,-0.0208 0.0239,-0.0404 0.0312,-0.0625 0.0371,-0.11124 -0.023,-0.2598 0,-0.375 0.0123,-0.0616 0.0312,-0.0652 0.0744,-0.18043 0.56926,0.005 0.37998,-0.042 0.90498,0.033 0.26088,0.0373 0.45711,0.27025 0.70711,0.35355 0.84684,0.28228 1.25721,0.54516 1.94454,1.06066 0.10541,0.0791 0.26036,0.0836 0.35356,0.17678 0.20833,0.20833 0.32199,0.49877 0.53033,0.70711 0.37512,0.37512 1.03908,0.50875 1.41421,0.88388 0.36024,0.36024 0.57145,0.81606 1.06066,1.06066 0.16667,0.0833 0.36366,0.0934 0.53033,0.17678 0.20884,0.10442 0.33532,0.40032 0.53033,0.53033 0.42446,0.28297 0.82122,0.57172 1.23744,0.88388 0.16996,0.12748 0.16352,0.43533 0.35355,0.53033 0.15811,0.0791 0.36263,-0.0559 0.53033,0 0.0559,0.0186 -0.0327,0.12778 0,0.17678 0.0924,0.13867 0.21488,0.26105 0.35355,0.35355 0.049,0.0327 0.12408,-0.0264 0.17678,0 0.0563,0.0282 1.85924,1.99331 1.94454,2.12132 0.27512,0.41268 0.65885,0.78736 0.88389,1.23744 0.0833,0.16667 0.065,0.38126 0.17677,0.53033 0.0791,0.10538 0.26036,0.0836 0.35356,0.17678 0.36345,0.36344 0.0222,0.49758 0.17677,0.88388 0.12616,0.3154 0.63765,0.9912 0.88389,1.23744 0.5426,0.54259 0.14698,-0.10329 0.7071,0.17677 0.14908,0.0745 0.22022,0.25356 0.35356,0.35356 0.53442,0.40081 1.64839,0.68683 2.12132,0.88388 0.36488,0.15203 0.67305,0.45283 1.06066,0.53033 0.17334,0.0347 0.3662,-0.0657 0.53033,0 0.44751,0.179 0.2596,0.35133 0.70711,0.53033 0.68901,0.27561 1.50578,0.39145 2.12132,0.88388 0.19521,0.15618 0.33033,0.38033 0.53033,0.53033 0.31406,0.23555 1.06097,0.38904 1.41421,0.53033 0.68126,0.27251 1.26328,0.61138 1.94454,0.88389 0.41667,0.16666 0.80208,0.42149 1.23744,0.53033 0.11433,0.0286 0.25545,-0.0654 0.35355,0 0.10968,0.0731 0.0836,0.26035 0.17678,0.35355 0.0417,0.0417 0.12408,-0.0264 0.17678,0 0.14907,0.0745 0.21487,0.26115 0.35355,0.35355 0.30891,0.20594 0.88383,0.41246 1.23744,0.53033 0.1677,0.0559 0.35883,-0.0429 0.53033,0 0.43493,0.10874 0.48803,0.50923 0.53033,0.53033 0.15811,0.0791 0.37221,-0.079 0.53033,0 1.25006,0.62504 2.54862,1.32095 3.88908,1.76777 0.21214,0.0707 0.49498,-0.0707 0.70711,0 0.20156,0.0672 0.32877,0.28635 0.53033,0.35355 0.43342,0.14448 0.99361,0.0731 1.41421,0.35356 0.049,0.0327 -0.0417,0.13507 0,0.17677 0.0833,0.0833 0.27026,-0.0833 0.35356,0 0.0417,0.0417 -0.0417,0.13508 0,0.17678 0.0955,0.0955 1.87485,0.25495 2.12132,0.35355 0.27355,0.10943 0.4276,0.43713 0.70711,0.53033 0.1118,0.0373 0.24175,-0.0373 0.35355,0 0.26503,0.0883 0.59219,0.41366 0.88388,0.53033 0.74415,0.29766 1.51442,0.53918 2.2981,0.70711 2.02469,0.43386 -0.62926,-0.50438 1.41421,0.17678 0.60175,0.20058 1.15135,0.553 1.76777,0.70711 0.80112,0.20027 1.72622,-0.0371 2.47487,0.17677 1.12176,0.3205 2.48132,0.71033 3.53554,1.23744 0.14907,0.0745 0.20448,0.27905 0.35355,0.35355 0.28622,0.14311 1.08222,0.41967 1.41421,0.53033 0.11181,0.0373 0.24815,-0.0527 0.35356,0 0.40896,0.20448 0.37067,0.53033 1.32582,0.70711 l 0.44194,6.54074 c 0,1.04212 -0.0858,2.15264 0,3.18198 0.0202,0.24211 0.14998,0.46563 0.17678,0.7071 0.20696,1.86263 -0.20696,3.79424 0,5.65686 0.14209,1.2788 0.34828,2.61474 0.53033,3.88909 0.26648,1.86537 0.009,-0.32769 0.53033,1.23743 0.0559,0.16771 -0.016,0.35428 0,0.53033 0.043,0.47312 0.10458,0.94467 0.17678,1.41422 0.15317,0.99563 0.43923,2.00337 0.53033,3.0052 0.0587,0.64552 -0.0645,1.29958 0,1.94454 0.23457,2.34558 0.17677,-0.56659 0.17677,1.76777 0,0.75484 -0.18083,1.75155 0,2.47487 0.032,0.12783 0.15098,0.22435 0.17678,0.35356 0.11556,0.57781 0,1.17851 0,1.76776 0,1.38014 0.006,2.70216 0.17678,4.06587 0.15039,1.20314 -0.23745,2.52505 0,3.71231 0.0258,0.1292 0.14478,0.22572 0.17678,0.35355 0.17777,0.71254 0.0735,1.57483 0.17677,2.2981 0.0186,0.13044 0.14058,0.22686 0.17678,0.35355 0.45476,1.59166 0.0336,0.26899 0.17678,1.41422 0.0373,0.29814 0.11787,0.58925 0.17677,0.88388 0.0589,0.17678 0.14618,0.34653 0.17678,0.53033 0.0872,0.52311 -0.0586,1.0639 0,1.59099 0.0206,0.1852 0.14618,0.34653 0.17678,0.53033 0.17597,1.05584 0,2.29162 0,3.35876 v 7.6014 c 0,0.833 -0.19442,2.06296 0,2.82842 0.1265,0.4981 0.47142,0.91335 0.70713,1.37002 0,0.22961 -0.0215,0.43605 -0.0442,0.66291 -0.0418,0.41802 0,0.86179 0,1.28164 0,0.61109 0.0552,1.24916 0,1.85615 -0.046,0.50596 -0.0918,0.99273 -0.17678,1.5026 -0.0855,0.5127 -0.18617,1.0256 -0.22097,1.5468 -0.0137,0.20578 0.0241,0.41389 0,0.61872 -0.0618,0.52555 -0.12747,0.4115 -0.22097,0.97227 -0.0192,0.11502 -0.0804,1.07765 -0.0884,1.14905 -0.0836,0.78059 -0.18995,1.56614 -0.30936,2.34229 -0.19896,1.29332 0.0506,-0.51174 -0.26516,1.19324 -0.0296,0.16 -0.0234,0.32476 -0.0442,0.48614 -0.44286,3.43221 0.14345,-1.26929 -0.26516,1.59099 -0.0104,0.0729 0.008,0.14777 0,0.22097 -0.0329,0.2961 -0.0742,0.59174 -0.13258,0.88388 -0.0238,0.11912 -0.0733,0.23302 -0.0884,0.35356 -0.0146,0.11694 0.0107,0.23618 0,0.35355 -0.0349,0.38397 -0.0827,0.76673 -0.13259,1.14905 -0.0213,0.16332 -0.0728,0.32217 -0.0884,0.48613 -0.0461,0.48395 0,0.97228 0,1.45841 0,0.92985 -0.0251,1.86028 -0.1712,2.80951 l -7.6346,0.0253 c -0.70392,0 -1.42272,0.039 -2.125,0 -0.24408,0.12909 -0.41341,-0.1058 -0.625,-0.125 -0.16598,-0.0151 -0.33366,0.0104 -0.5,0 -0.6664,-0.0417 -1.33142,-0.0898 -2,-0.125 -1.22274,-0.0644 -2.46742,0.10167 -3.6875,0 -0.52461,-0.0437 -1.04078,-0.1886 -1.5625,-0.25 -0.86683,-0.10198 -1.75591,-0.13664 -2.625,-0.25 -0.11864,-0.0155 -0.95053,-0.1669 -1.1875,-0.1875 -0.33273,-0.0289 -0.66806,-0.0256 -1,-0.0625 -0.2315,-0.0257 -0.45545,-0.1048 -0.6875,-0.125 -1.15804,-0.1007 -2.34037,0.0828 -3.5,0 -0.35711,-0.0255 -0.70741,-0.0977 -1.0625,-0.125 -0.48737,-0.0375 -0.94823,0.0158 -1.4375,-0.0625 -0.33488,-0.0536 -0.66254,-0.1538 -1,-0.1875 -1.45251,-0.1452 -2.91933,-0.0221 -4.375,-0.0625 -1.13039,-0.0314 -2.18081,-0.1228 -3.3125,-0.1875 -0.37439,-0.0214 -0.75073,0.0234 -1.125,0 -0.43863,-0.0274 -0.87592,-0.0746 -1.3125,-0.125 -1.7002,-0.1962 0.32166,-0.0724 -1.75,-0.25 -0.71571,-0.0613 -1.41807,-0.059 -2.125,-0.1875 -0.47564,-0.0865 -0.95306,-0.2177 -1.4375,-0.25 -0.53228,-0.0355 -1.09107,0 -1.625,0 -1.16904,0 -2.34132,-0.005 -3.5,-0.1875 -0.69923,-0.11041 -1.41673,-0.2963 -2.125,-0.375 -0.14494,-0.0161 -0.29217,0.0121 -0.4375,0 -0.48457,-0.0404 -1.12423,-0.3295 -1.625,-0.375 -0.29047,-0.0264 -0.58434,0.0242 -0.875,0 -0.33669,-0.0281 -0.65872,-0.0625 -1,-0.0625 -1.73149,0.18806 -3.4801,0.008 -5.20816,-0.10678 -0.35277,-0.0235 -0.71143,0.0551 -1.06066,0 -0.86444,-0.13649 -1.68633,-0.38345 -2.56326,-0.44195 -1.46894,-0.0984 -2.95436,0.12091 -4.41942,-0.0884 -0.2689,-0.0384 -0.52756,-0.13208 -0.79549,-0.17678 -0.69505,-0.17787 -1.41841,-0.14801 -2.12132,-0.26517 -2.70899,-0.45145 1.78464,0.1444 -2.03294,-0.35355 -0.64538,-0.0842 -1.29915,-0.0926 -1.94454,-0.17678 -0.29794,-0.0389 -0.58507,-0.14537 -0.88388,-0.17677 -0.66694,-0.0702 -1.36232,-0.0437 -2.03294,-0.0884 -0.5032,-0.0335 -1.00691,-0.0838 -1.5026,-0.17678 -0.21082,-0.0395 -0.4054,-0.15427 -0.61872,-0.17677 -1.81247,-0.19079 -0.31609,0.20761 -2.03293,-0.0884 -0.53537,-0.0923 -1.05385,-0.27216 -1.59099,-0.35356 -0.43792,-0.0664 -0.88669,-0.0306 -1.32582,-0.0884 -1.00852,-0.1327 -2.01837,-0.28362 -3.00521,-0.53033 -1.09894,-0.27474 -2.24543,-0.66356 -3.27037,-1.14905 -0.27413,-0.12986 -0.51592,-0.32423 -0.79549,-0.44194 -0.93138,-0.39215 -0.77142,-0.15522 -1.67938,-0.44195 -0.6419,-0.2027 -1.20994,-0.60701 -1.85616,-0.79549 -0.37202,-0.10848 -0.76725,-0.11038 -1.14904,-0.17678 -0.29602,-0.0515 -0.58926,-0.11788 -0.88389,-0.17678 -0.55979,-0.0884 -1.12036,-0.17196 -1.67938,-0.26516 -0.79519,-0.13253 -1.58483,-0.26445 -2.38648,-0.35355 -0.22435,-0.0249 -1.36795,-0.11008 -1.67938,-0.17678 -0.1822,-0.039 -0.34586,-0.15038 -0.53033,-0.17678 -0.0442,-0.006 -1.23193,0.006 -1.32583,0 -0.79544,-0.0468 -1.52465,-0.21292 -2.29809,-0.35355 -0.32018,-0.0582 -0.6546,-0.0178 -0.97227,-0.0884 -0.4006,-0.089 -0.75447,-0.3292 -1.14905,-0.44194 -0.79779,-0.22793 -0.2517,-0.009 -0.88389,-0.0884 -0.44399,-0.0555 -0.32368,-0.13649 -0.79549,-0.26516 -0.75007,-0.20457 -0.41299,0.019 -1.32583,-0.0884 -0.24129,-0.0284 -0.46886,-0.12918 -0.7071,-0.17678 -0.50053,-0.1001 -1.01068,-0.11759 -1.50261,-0.26516 -0.70205,-0.21062 -1.40096,-0.47465 -2.12132,-0.61872 -0.43644,-0.0874 -0.40721,0.0546 -0.88388,-0.0884 -1.58191,-0.47458 0.38729,0.0842 -0.70711,-0.35355 -0.10942,-0.0438 -0.23922,0.0286 -0.35355,0 -0.29724,-0.0743 -0.47409,-0.26517 -0.79549,-0.26517 -0.41824,-0.17526 -0.81977,-0.39748 -1.25471,-0.52579 -0.81511,-0.24047 -1.67886,-0.28103 -2.5,-0.5 -0.87929,-0.23448 -1.73879,-0.54322 -2.625,-0.75 -0.36744,-0.0857 -0.75416,-0.0555 -1.125,-0.125 -0.29814,-0.0559 -0.57673,-0.1948 -0.875,-0.25 -3.34053,-0.61862 -6.71485,-1.09659 -10,-2 -2.02038,-0.55561 -3.98725,-1.29236 -6,-1.875 -1.11403,-0.32248 -2.26083,-0.54488 -3.375,-0.875 -0.63167,-0.18716 -1.24398,-0.43569 -1.875,-0.625 -0.22607,-0.0678 -0.87768,-0.14695 -1.125,-0.25 -0.95578,-0.39824 -1.86741,-0.84512 -2.875,-1.125 -0.57481,-0.15967 -1.19141,-0.16553 -1.75,-0.375 -0.47741,-0.17903 -1.88088,-0.81791 -2.5,-1 -0.36854,-0.10839 -0.75646,-0.14161 -1.125,-0.25 -0.34154,-0.10045 -0.66667,-0.25 -1,-0.375 -0.58333,-0.16667 -1.16546,-0.33763 -1.75,-0.5 -0.70194,-0.19498 -1.44377,-0.36954 -2.125,-0.625 -0.0552,-0.0207 -0.0833,-0.0833 -0.125,-0.125 -0.375,-0.16667 -0.73854,-0.36198 -1.125,-0.5 -0.59475,-0.21241 -1.26421,-0.31676 -1.875,-0.5 -0.51573,-0.15472 -1.08773,-0.4105 -1.625,-0.5 -0.32525,-0.0542 -0.68012,-0.045 -1,-0.125 -0.18078,-0.0452 -0.32322,-0.1911 -0.5,-0.25 -0.11859,-0.0395 -0.25642,0.0395 -0.76039,0.0972 0.13829,-0.22168 0.41782,-0.63068 0.86461,-1.02783 z"
         id="path104" />
    </g>
  </g>
</svg>
