<?xml version="1.0" encoding="UTF-8" standalone="no"?>
<!-- Created with Inkscape (http://www.inkscape.org/) -->

<svg
   version="1.1"
   id="svg1"
   width="177.06248"
   height="118.9375"
   viewBox="0 0 177.06248 118.9375"
   xmlns="http://www.w3.org/2000/svg"
   xmlns:svg="http://www.w3.org/2000/svg">
  <defs
     id="defs1" />
  <g
     id="layer1"
     style="display:inline"
     transform="translate(-487.37499,-403.37499)">
    <g
       id="layer10"
       style="display:inline;fill:#ffffff;fill-opacity:1;stroke:none">
      <path
         style="fill:#ffffff;fill-opacity:1;stroke:none;stroke-width:1;stroke-linecap:round;stroke-dasharray:none;stroke-opacity:1"
         d="m 599.18749,403.37499 31.87499,21.4375 24.75,6.6875 8.625,46.875 -3.3125,31.1875 -0.5,12.1875 -12.8125,0.5625 -87.31249,-8.875 -52.125,-13.125 -21,-8.25 12.125,-12.25 8.25,-15.6875 4.0625,-19.6875 2.5625,0.6875 6.625,5.375 12.25,4.1875 3.6875,3.3125 8.3125,5.5625 8.5625,1.4375 4.1875,-1.375 5.6875,-5 2.1875,-5.5 -3.125,-7.75 -3.6875,-4.625 2,-2.6875 5.25,-20.0625 3.875,-5.75 10.125,-1.25 1.9375,4.8125 5.4375,1.3125 7.75,-5.625 z"
         id="path8" />
    </g>
  </g>
</svg>
