<?xml version="1.0" encoding="UTF-8" standalone="no"?>
<!-- Created with Inkscape (http://www.inkscape.org/) -->

<svg
   version="1.1"
   id="svg2"
   width="137.93277"
   height="111.92094"
   viewBox="0 0 137.93277 111.92094"
   xmlns="http://www.w3.org/2000/svg"
   xmlns:svg="http://www.w3.org/2000/svg">
  <defs
     id="defs6">
    <linearGradient
       id="swatch77">
      <stop
         style="stop-color:#e2c69e;stop-opacity:1;"
         offset="0"
         id="stop77" />
    </linearGradient>
  </defs>
  <g
     id="layer66"
     style="display:inline"
     transform="translate(-165.76959,-261.27591)">
    <g
       id="layer10"
       style="display:inline">
      <path
         style="display:inline;fill:#969696;fill-opacity:1;stroke:none;stroke-opacity:1"
         d="m 170.14757,332.42857 c 2.28247,-2.07497 1.73818,-1.32564 3.44714,-3.88908 0.10075,-0.15111 0.38148,-0.81103 0.44195,-0.97227 0.0426,-0.11375 0.0281,-0.24809 0.0884,-0.35356 0.062,-0.10853 0.19251,-0.16345 0.26517,-0.26516 0.16321,-0.2285 0.20676,-0.48692 0.35355,-0.70711 0.0693,-0.10401 0.19583,-0.16116 0.26517,-0.26516 0.10658,-0.15988 0.17333,-0.46567 0.26516,-0.61872 0.0758,-0.12632 0.19929,-0.22179 0.26517,-0.35356 0.0263,-0.0527 -0.0303,-0.12624 0,-0.17677 0.0643,-0.10719 0.19016,-0.16517 0.26516,-0.26517 0.0449,-0.0598 0.0389,-0.30408 0.0884,-0.35355 0.0466,-0.0466 0.14732,-0.0295 0.17678,-0.0884 0.17282,-0.34565 0.15766,-0.84565 0.35355,-1.23744 0.0659,-0.13176 0.21858,-0.2138 0.26517,-0.35355 0.0475,-0.14252 0.0471,-0.29749 0.0884,-0.44194 0.12741,-0.44592 0.42268,-1.02213 0.61872,-1.41422 0.20907,-0.41813 0.44324,-0.79873 0.61872,-1.23743 0.0451,-0.11279 0.0341,-0.2449 0.0884,-0.35356 0.0132,-0.0263 0.0791,0.028 0.0884,0 0.028,-0.0838 -0.0395,-0.1861 0,-0.26516 0.0559,-0.1118 0.18514,-0.16914 0.26516,-0.26517 0.65157,-0.97735 -0.19003,0.19003 0.35356,-0.35355 0.0208,-0.0208 -0.0208,-0.0676 0,-0.0884 0.0466,-0.0466 0.13019,-0.0418 0.17677,-0.0884 0.16878,-0.16877 0.21151,-0.45774 0.26517,-0.61871 0.0729,-0.21884 0.34974,-0.43432 0.44194,-0.61872 0.0241,-0.0483 0.69147,-0.58575 0.7955,-0.70711 0.49505,-0.57756 1.01318,-1.09573 1.59099,-1.59099 0.26943,-0.23095 1.04871,-0.77757 1.23743,-1.06066 0.0731,-0.10963 0.0945,-0.25066 0.17678,-0.35355 0.0539,-0.0674 0.40588,-0.15617 0.44194,-0.17678 0.22754,-0.13002 0.5428,-0.42703 0.70711,-0.61872 0.33614,-0.39216 0.45286,-0.7925 0.7071,-1.23744 0.2423,-0.42402 0.21134,-0.18055 0.44195,-0.79549 0.0207,-0.0552 -0.0186,-0.12088 0,-0.17678 0.0466,-0.13975 0.19928,-0.22179 0.26516,-0.35355 0.071,-0.14191 0.10582,-0.30003 0.17678,-0.44194 0.0563,-0.11267 0.22622,-0.23672 0.26516,-0.35356 0.0186,-0.0559 -0.0327,-0.12774 0,-0.17677 0.21531,-0.32297 0.12939,0.0948 0.26517,-0.17678 0.22879,-0.45759 0.55748,-0.93819 0.79549,-1.41421 0.0672,-0.13437 0.0212,-0.30757 0.0884,-0.44194 0.0132,-0.0264 0.0812,0.0286 0.0884,0 0.0437,-0.17491 -0.0592,-0.44125 0,-0.61872 0.0605,-0.18148 0.21873,-0.25619 0.26517,-0.44194 0.0538,-0.21504 9e-4,-0.50298 0.0884,-0.70711 0.63473,-1.48104 -0.0981,0.88362 0.35356,-1.14905 0.009,-0.0407 0.0715,-0.0503 0.0884,-0.0884 0.10223,-0.23003 0.17913,-0.47053 0.26516,-0.7071 0.11687,-0.32141 0.24694,-0.65244 0.35355,-0.97228 0.0186,-0.0559 -0.0186,-0.12087 0,-0.17677 0.0132,-0.0395 0.0752,-0.0489 0.0884,-0.0884 0.0186,-0.0559 -0.0186,-0.12088 0,-0.17678 0.0543,-0.16298 0.2235,-0.27527 0.26517,-0.44194 0.0214,-0.0857 -0.0279,-0.18131 0,-0.26517 -0.36607,-0.71724 0.22563,-0.14657 0.26516,-0.26516 0.0885,-0.26536 -0.003,-0.6102 0.0884,-0.88388 0.0132,-0.0395 0.0697,-0.0511 0.0884,-0.0884 0.26692,-0.53385 -0.0127,-0.0374 0.0884,-0.44194 0.11827,-0.4731 0.41112,-0.93739 0.53033,-1.41422 0.0491,-0.19642 -0.0737,-0.22097 0,-0.44194 0.0466,-0.13975 0.22943,-0.21064 0.26516,-0.35355 0.0505,-0.20212 0.0336,-0.41773 0.0884,-0.61872 0.077,-0.28233 0.52677,-0.86143 0.61872,-1.06066 0.0781,-0.16919 0.0934,-0.36366 0.17678,-0.53033 0.1029,-0.20582 0.32777,-0.33054 0.44194,-0.53033 0.16134,-0.28236 0.19665,-0.63859 0.44194,-0.88388 0.4517,-0.4517 -0.12328,0.37061 0.35355,-0.26517 0.16707,-0.22275 0.27991,-0.48026 0.44194,-0.70711 0.0727,-0.10171 0.18708,-0.16755 0.26517,-0.26516 0.1431,-0.17887 0.0491,-0.22917 0.17678,-0.44194 -0.12143,-0.44761 0.20624,-0.0884 0.26516,-0.17678 0.0517,-0.0775 0.0467,-0.18183 0.0884,-0.26517 0.104,-0.208 0.40544,-0.27541 0.53033,-0.44194 0.0354,-0.0471 -0.0327,-0.12774 0,-0.17677 0.0589,-0.0884 0.19005,-0.10166 0.26516,-0.17678 0.1334,-0.1334 0.20624,-0.32409 0.35356,-0.44194 0.0728,-0.0582 0.18764,-0.0367 0.26516,-0.0884 0.0245,-0.0163 -0.0208,-0.0676 0,-0.0884 0.0441,-0.0441 1.37246,-0.77461 1.41422,-0.79549 0.15303,-0.0765 0.23287,0.0371 0.44194,-0.0884 0.0715,-0.0429 0.11011,-0.12678 0.17677,-0.17678 0.19048,-0.14286 0.21276,-0.0494 0.44195,-0.17678 0.18572,-0.10317 0.34381,-0.25181 0.53033,-0.35355 0.13929,-0.076 0.30589,-0.0951 0.44194,-0.17678 0.0253,-0.0152 -0.0245,-0.072 0,-0.0884 0.0775,-0.0517 0.18183,-0.0467 0.26516,-0.0884 0.19003,-0.095 0.3403,-0.25854 0.53033,-0.35356 0.0833,-0.0417 0.18338,-0.0438 0.26517,-0.0884 0.40584,-0.22137 0.88236,-0.60544 1.32582,-0.7955 0.26587,-0.11394 0.52963,-0.0628 0.7955,-0.17678 0.0766,-0.0328 0.10442,-0.13543 0.17678,-0.17677 0.45786,-0.26164 1.01937,-0.41163 1.5026,-0.61872 0.15468,-0.0663 0.39775,-0.22097 0.53033,-0.26517 0.0559,-0.0186 0.12045,0.0173 0.17677,0 0.90089,-0.27719 1.7607,-0.67528 2.65165,-0.97227 1.02085,-0.34028 1.98105,-0.89605 3.00521,-1.23743 0.20348,-0.0678 0.41881,-0.099 0.61872,-0.17678 0.44293,-0.17225 0.90924,-0.41043 1.32582,-0.61872 0.29863,-0.14932 0.65886,-0.16069 0.97227,-0.26516 0.39651,-0.13217 0.70928,-0.42039 1.14905,-0.53034 0.20212,-0.0505 0.41917,-0.0285 0.61872,-0.0884 0.10175,-0.0305 0.17678,-0.11785 0.26517,-0.17678 0.11785,-0.0295 0.23496,-0.062 0.35355,-0.0884 0.45104,-0.10023 0.98015,-0.0466 1.41421,-0.17678 0.24112,-0.0723 0.46097,-0.21242 0.70711,-0.26516 0.17285,-0.037 0.35596,0.0291 0.53033,0 0.30342,-0.0506 0.58361,-0.19844 0.88388,-0.26517 1.35601,-0.30133 2.64981,-0.64035 3.97748,-0.97227 0.56334,-0.14083 1.05234,-0.40326 1.59099,-0.61872 0.29138,-0.11655 0.602,-0.0358 0.88388,-0.17677 0.0264,-0.0132 -0.0264,-0.0752 0,-0.0884 0.46905,-0.23452 0.21044,0.002 0.61872,-0.0884 0.3638,-0.0808 0.69686,-0.27271 1.06066,-0.35355 0.48313,-0.10736 1.11415,0.007 1.59099,-0.0884 0.38375,-0.0768 0.34959,-0.15751 0.61872,-0.26517 0.0658,-0.16422 0.33341,-0.0522 0.44194,-0.0884 0.16298,-0.0543 0.27896,-0.21084 0.44194,-0.26517 0.1591,-0.053 0.37123,0.053 0.53033,0 0.13344,-0.0445 0.31001,-0.20862 0.44195,-0.26516 0.11165,-0.0479 0.2449,-0.0341 0.35355,-0.0884 0.0745,-0.0373 0.10532,-0.1339 0.17678,-0.17678 0.16619,-0.0997 0.51593,-0.21737 0.7071,-0.26516 0.0572,-0.0143 0.12407,0.0263 0.17678,0 0.0745,-0.0373 0.10224,-0.13951 0.17678,-0.17678 0.0527,-0.0263 0.11961,0.0143 0.17677,0 0.25214,-0.063 0.40363,-0.3344 0.61872,-0.44194 0.2177,-0.10885 -0.0798,0.25657 0.26517,-0.0884 0.0157,-0.0157 0.11401,-0.2024 0.17677,-0.26517 0.68774,-0.30074 1.41524,-0.0885 2.12114,-0.26492 0.50173,-0.12543 0.89238,-0.31361 1.32583,-0.53033 0.17818,-0.0891 0.43108,-0.083 0.61872,-0.17678 0.52279,-0.26139 1.09143,-0.55084 1.59099,-0.88388 0.41281,-0.27521 0.80589,-0.62496 1.23743,-0.88388 0.20486,-0.12292 0.4927,-0.28114 0.70711,-0.44195 0.27075,-0.20306 -0.14492,0.0565 0.17678,-0.26516 0.0208,-0.0208 0.0675,0.0208 0.0884,0 0.0383,-0.0383 0.13874,-0.29651 0.17677,-0.35355 0.12573,-0.18859 0.31513,-0.34012 0.44194,-0.53034 0.10674,-0.16011 0.16768,-0.52123 0.26517,-0.61871 0.0466,-0.0466 0.14023,-0.0336 0.17678,-0.0884 0.0327,-0.049 -0.0264,-0.12407 0,-0.17678 0.1239,-0.24781 0.37163,-0.38067 0.53033,-0.61872 0.0163,-0.0245 -0.0208,-0.0676 0,-0.0884 0.5961,-0.5961 1.13483,-0.78839 1.85615,-1.14904 0.26955,-0.13478 -0.16166,-0.0701 0.26517,-0.17678 0.42341,-0.10585 0.56713,-0.26831 0.97227,-0.44194 0.1354,-0.058 0.29749,0.0289 0.44194,0 0.26848,-0.0537 0.54062,-0.2686 0.79549,-0.35356 0.19765,-0.0659 0.41841,-0.0311 0.61872,-0.0884 0.34611,-0.0989 0.65574,-0.28368 0.97227,-0.44195 0.11258,-0.20059 0.30386,-0.0292 0.44195,-0.0884 0.28267,-0.12115 0.61783,-0.30892 0.88388,-0.44195 0.26904,-0.13452 0.60368,-0.10672 0.88388,-0.17677 0.68308,-0.17077 -0.27025,-0.0139 0.70711,-0.17678 0.14129,-0.0236 0.3034,0.0346 0.44194,0 0.0639,-0.016 0.11218,-0.0755 0.17678,-0.0884 0.20223,-0.0404 0.41407,0.0256 0.61872,0 0.19594,-0.0245 0.43505,-0.11555 0.61872,-0.17677 0.20971,-0.0699 0.33178,-0.25428 0.53033,-0.35356 0.0264,-0.0132 0.0589,0 0.0884,0 0.0589,-0.0295 0.12196,-0.0518 0.17678,-0.0884 0.19147,-0.12764 0.36762,-0.27922 0.53033,-0.44194 0.0208,-0.0208 -0.0208,-0.0675 0,-0.0884 0.0751,-0.0751 0.19005,-0.10166 0.26517,-0.17677 0.0466,-0.0466 0.0418,-0.13019 0.0884,-0.17678 0.0208,-0.0208 0.0676,0.0208 0.0884,0 0.18733,-0.18733 0.009,-0.2028 0.0884,-0.44194 0.0672,-0.20156 0.24424,-0.34815 0.35355,-0.53033 0.11865,0.034 0.0849,-0.34657 0.0884,-0.35355 0.068,-0.13598 0.56467,-0.74145 0.70711,-0.88389 0.0208,-0.0208 0.0676,0.0208 0.0884,0 0.0932,-0.0932 0.10369,-0.24392 0.17677,-0.35355 0.10982,-0.16472 0.22207,-0.0226 0.35356,-0.0884 0.0745,-0.0373 0.10224,-0.13951 0.17677,-0.17678 0.45666,-0.22833 1.23744,-0.53382 1.1932,-0.61866 0.37107,1.06823 0.50565,1.85856 0.92803,2.38653 0.11786,0.14731 0.31574,0.21333 0.44195,0.35355 1.31384,1.45983 -0.57212,-0.28835 0.79549,0.88389 0.0633,0.0542 0.10224,0.13951 0.17678,0.17677 0.10865,0.0543 0.24939,0.0259 0.35355,0.0884 0.0565,0.0339 0.0418,0.13019 0.0884,0.17678 0.0208,0.0208 0.0654,-0.0184 0.0884,0 0.19522,0.15617 0.32232,0.39165 0.53033,0.53033 0.23635,0.15757 0.56808,0.20195 0.79549,0.35355 0.0245,0.0163 -0.0245,0.072 0,0.0884 0.72472,0.48315 1.76476,0.19385 2.56327,0.35355 0.51804,0.10361 0.97832,0.35457 1.5026,0.44195 0.14731,0.0245 0.29463,-0.0368 0.44194,0 0.18066,0.0452 0.43928,0.35222 0.61872,0.44194 0.40333,0.20167 0.90123,0.34162 1.32582,0.53033 0.24081,0.10702 0.45711,0.27022 0.70711,0.35355 0.0559,0.0186 0.12262,-0.0232 0.17678,0 0.21833,0.0936 0.38827,0.29594 0.61871,0.35355 0.0572,0.0143 0.12775,-0.0327 0.17678,0 0.0548,0.0366 0.0418,0.1302 0.0884,0.17678 0.0763,0.0763 0.41886,0.17599 0.53033,0.26517 0.0754,0.0603 0.65306,0.53765 0.70711,0.61871 0.0715,0.10727 0.23133,0.44886 0.35355,0.53033 0.049,0.0327 0.12964,-0.0353 0.17678,0 0.0949,0.0712 0.51683,0.60523 0.61872,0.70711 0.30907,0.30908 0.83598,0.39405 1.14904,0.70711 0.24559,0.24558 0.42501,0.56982 0.70711,0.79549 0.34587,0.2767 0.71402,0.51819 1.06066,0.7955 0.24272,0.19417 0.44412,0.53178 0.70711,0.70711 0.0245,0.0163 0.0589,0 0.0884,0 0.14731,0.11785 0.30854,0.22015 0.44194,0.35355 0.0414,0.0414 0.5102,0.60362 0.53033,0.61872 0.0745,0.0559 0.18427,0.0422 0.26516,0.0884 0.26644,0.15225 0.43377,0.39366 0.70711,0.53033 0.26495,0.13247 0.61679,0.26452 0.88388,0.35355 0.18148,0.0605 0.25619,0.21873 0.44194,0.26516 0.0572,0.0143 0.12408,-0.0263 0.17678,0 0.1118,0.0559 0.15336,0.20927 0.26517,0.26517 1.79717,0.89858 0.0508,-0.11655 0.79549,0.44194 0.37562,0.28172 -0.0198,-0.061 0.35356,0.0884 0.0986,0.0394 0.17015,0.12927 0.26516,0.17678 0.14191,0.0709 0.30418,0.0981 0.44194,0.17677 0.0724,0.0413 0.11785,0.11785 0.17678,0.17678 0.0884,0.0589 0.17015,0.12927 0.26516,0.17678 0.16667,0.0833 0.37055,0.0809 0.53033,0.17677 0.0715,0.0429 0.10744,0.13055 0.17678,0.17678 0.21286,0.1419 0.70613,0.32344 0.88388,0.44194 0.17801,0.11867 0.35233,0.32327 0.53033,0.44194 0.39683,0.26455 0.78503,0.50428 1.14905,0.7955 0.31447,0.25157 0.35046,0.48072 0.53033,0.79549 0.16099,0.28173 0.45152,0.52379 0.61872,0.7955 0.25785,0.419 0.32985,0.74809 0.53033,1.14905 0.20226,0.40452 -0.0366,-0.37507 0.17678,0.26516 0.028,0.0838 -0.0214,0.17942 0,0.26517 0.0439,0.17544 0.3439,0.62393 0.44194,0.79549 0.35998,0.62996 1.03299,1.11585 1.5026,1.67938 0.23656,0.28387 0.48639,0.58959 0.70711,0.88388 0.13258,0.17678 0.0884,0.35356 0.26516,0.53033 0.0417,0.0417 0.12964,-0.0353 0.17678,0 0.16997,0.12748 0.27465,0.33307 0.35355,0.53033 0.0219,0.0547 -0.0143,0.11961 0,0.17678 0.0331,0.1323 0.21764,0.34689 0.26517,0.44194 0.0132,0.0264 0,0.0589 0,0.0884 0.0589,0.14731 0.1008,0.30265 0.17678,0.44194 0.3085,0.5656 0.65382,1.06589 0.88388,1.67938 0.0207,0.0552 -0.0232,0.12262 0,0.17678 0.14288,0.33339 0.27928,0.42244 0.44194,0.7071 0.13766,0.2409 0.18813,0.57494 0.35355,0.7955 0.45384,0.60512 -0.17886,-0.46295 0.44195,0.53033 0.27984,0.44775 0.611,0.87102 0.88388,1.32583 0.0152,0.0253 -0.0208,0.0676 0,0.0884 0.0751,0.0751 0.19005,0.10166 0.26516,0.17678 0.13092,0.13092 0.55932,0.71234 0.61872,0.7955 0.16824,0.23552 0.26046,0.57772 0.44194,0.79549 0.068,0.0816 0.19716,0.0952 0.26517,0.17678 0.15207,0.18248 0.20516,0.43323 0.35355,0.61872 0.20194,0.25241 0.51567,0.36346 0.70711,0.61871 0.19764,0.26353 0.28197,0.59594 0.44194,0.88389 0.19963,0.35932 0.55663,0.83617 0.70711,1.23743 0.13856,0.3695 0.21209,0.77183 0.35355,1.14905 0.13258,0.35356 0.0884,0 0.26517,0.53033 0.0659,0.19765 0.0311,0.4184 0.0884,0.61872 0.047,0.16449 0.47104,1.13367 0.53033,1.23744 0.0207,0.0362 0.0752,0.0489 0.0884,0.0884 0.21761,0.65281 0.34974,1.37076 0.53033,2.03293 0.13617,0.49928 0.38635,1.03787 0.61872,1.5026 0.10331,0.20661 0.26517,0.28888 0.26517,0.53033 l 1.32575,2.82835 c -0.39955,0.677 -0.18762,1.06985 -0.26516,1.76776 -0.007,0.0655 -0.0741,0.11247 -0.0884,0.17678 -0.10565,0.4754 -0.0815,0.93767 -0.17678,1.41421 -0.0484,0.24209 -0.18061,0.6866 -0.26516,0.88389 -0.0164,0.0383 -0.0589,0.0589 -0.0884,0.0884 -0.0589,0.14731 -0.13319,0.28938 -0.17678,0.44194 -0.0162,0.0567 0,0.11785 0,0.17678 -0.0589,0.2357 -0.0937,0.47877 -0.17678,0.7071 -0.0363,0.0998 -0.12926,0.17015 -0.17677,0.26517 -0.11932,0.23863 -0.0237,0.53666 -0.0884,0.79549 -0.28748,1.14992 -0.0863,-0.27563 -0.26517,0.61872 -0.0545,0.27269 -0.15154,0.60635 -0.17677,0.88388 -0.0187,0.2054 0.0228,0.41374 0,0.61872 -0.0145,0.13096 -0.15094,0.22435 -0.17678,0.35356 -0.0578,0.2889 0,0.58925 0,0.88388 v 2.47487 c 0,0.25401 0.0614,0.63828 0,0.88389 -0.0101,0.0404 -0.0697,0.0511 -0.0884,0.0884 -0.0218,0.0435 -0.0609,0.68536 -0.0884,0.7955 -0.045,0.17988 -0.50575,0.92311 -0.66288,1.19323 -0.16202,0.0442 -0.2883,3.8e-4 -0.39772,0.0442 -0.0612,0.0245 -0.0418,0.13019 -0.0884,0.17677 -0.0466,0.0466 -0.13019,0.0418 -0.17678,0.0884 -0.16796,0.16797 -0.22179,0.42108 -0.35355,0.61872 -0.35301,0.52952 -0.79954,0.97833 -1.14905,1.5026 -0.18248,0.27372 -0.51934,1.04967 -0.70711,1.23744 -0.0208,0.0208 -0.0639,-0.0163 -0.0884,0 -0.24259,0.16173 -0.24866,0.38678 -0.44194,0.61872 -0.0422,0.0506 -0.14023,0.0336 -0.17677,0.0884 -0.007,0.0104 -0.12936,0.54759 -0.17678,0.61872 -0.0163,0.0245 -0.0752,-0.0264 -0.0884,0 -0.0263,0.0527 0.0143,0.11961 0,0.17677 -0.0605,0.242 -0.28499,0.41303 -0.35355,0.61872 -0.0186,0.0559 0.0115,0.119 0,0.17678 -0.0511,0.25534 -0.49502,1.2552 -0.61872,1.5026 -0.0373,0.0745 -0.13055,0.10744 -0.17678,0.17678 -0.11035,0.16552 -0.0664,0.27641 -0.17678,0.44194 -0.0462,0.0693 -0.13055,0.10744 -0.17677,0.17677 -0.15393,0.23089 -0.18685,0.57323 -0.35356,0.7955 -0.0395,0.0527 -0.12533,0.0472 -0.17677,0.0884 -0.0976,0.0781 -0.18708,0.16755 -0.26517,0.26516 -0.34999,0.43749 -0.59894,0.98756 -0.97227,1.41422 -0.0699,0.0799 -0.19521,0.0968 -0.26516,0.17677 -0.13991,0.15989 -0.22084,0.36443 -0.35356,0.53033 -0.20696,0.2587 -0.50015,0.44841 -0.7071,0.70711 -0.22013,0.27516 -0.40313,0.59642 -0.61872,0.88388 -0.18619,0.24826 -0.43399,0.4608 -0.61872,0.70711 -0.11585,0.15446 -0.0876,0.26368 -0.17678,0.44194 -0.17513,0.35028 -0.43233,0.87427 -0.7071,1.14905 -0.0466,0.0466 -0.1302,0.0418 -0.17678,0.0884 -0.10129,0.10129 -0.16387,0.34065 -0.26517,0.44194 -0.27071,0.27071 -0.66691,0.52389 -0.97227,0.70711 -0.17747,0.10648 -0.35286,0.33546 -0.53033,0.44194 -0.15978,0.0959 -0.36366,0.0934 -0.53033,0.17678 -0.23848,0.11924 -0.4415,0.3534 -0.7071,0.44194 -0.41126,0.13708 -0.81948,0.39101 -1.23744,0.53033 -0.0559,0.0186 -0.12207,-0.0219 -0.17678,0 -0.0986,0.0394 -0.16752,0.13493 -0.26516,0.17677 -0.11166,0.0479 -0.24808,0.0281 -0.35356,0.0884 -0.10853,0.062 -0.16516,0.19017 -0.26516,0.26517 -0.10458,0.0784 -0.74541,0.2907 -0.97227,0.44194 -0.1018,0.0679 -0.16719,0.19168 -0.26517,0.26516 -0.373,0.27975 -0.73747,0.47231 -1.06066,0.7955 -0.2225,0.2225 -0.35512,0.50941 -0.61872,0.70711 -0.15768,0.11826 -0.39285,0.21607 -0.53033,0.35355 -0.0751,0.0751 -0.10166,0.19005 -0.17677,0.26516 -0.0751,0.0751 -0.18356,0.10877 -0.26517,0.17678 -0.429,0.3575 -0.14114,0.22953 -0.61872,0.70711 -0.0208,0.0208 -0.072,-0.0245 -0.0884,0 -0.0517,0.0775 -0.0467,0.18183 -0.0884,0.26516 -0.13049,0.26098 -0.29209,0.30556 -0.44195,0.53033 -0.0731,0.10964 -0.10898,0.24057 -0.17677,0.35356 -0.0737,0.12288 -0.14796,0.0889 -0.26517,0.17677 -0.18955,0.14217 -0.40075,0.42436 -0.53033,0.61872 -0.3575,0.53625 -0.67701,1.21738 -1.23743,1.59099 -0.84519,0.56346 -1.85153,0.99321 -2.82843,1.23744 -0.24457,0.22027 -0.53505,0.0305 -0.7955,0.0884 -0.42428,0.0943 -0.75355,0.29363 -1.14905,0.44194 -0.11374,0.0427 -0.24189,0.0405 -0.35355,0.0884 -0.0976,0.0418 -0.16653,0.13732 -0.26516,0.17677 -0.0547,0.0219 -0.12408,-0.0264 -0.17678,0 -0.0264,0.0132 0.0208,0.0676 0,0.0884 -0.0109,0.0109 -0.29673,0.0543 -0.35355,0.0884 -0.28988,0.17393 -0.59308,0.43721 -0.7955,0.70711 -0.12527,0.16703 -0.20093,0.37771 -0.35355,0.53033 -0.0772,0.0772 -0.37291,0.14226 -0.44194,0.17677 -0.11839,0.0592 -0.12248,0.21087 -0.17678,0.26517 -0.0208,0.0208 -0.072,-0.0245 -0.0884,0 -0.0517,0.0775 -0.0367,0.18764 -0.0884,0.26516 -0.4714,0.70711 -0.11785,0.0393 -0.35355,0.35356 -0.46485,0.6198 -1.06805,1.15274 -1.76777,1.5026 -0.0833,0.0417 -0.18527,0.0405 -0.26516,0.0884 -0.24403,0.14641 -0.43145,0.41219 -0.70711,0.53033 -0.51813,0.22205 -1.07458,0.36051 -1.59099,0.61872 -0.0745,0.0373 -0.0977,0.15042 -0.17678,0.17677 -0.1118,0.0373 -0.23922,-0.0286 -0.35355,0 -0.32778,0.082 -0.64647,0.20001 -0.97227,0.26517 -0.32873,0.0657 -0.73299,-0.0364 -1.06066,0 -0.32246,0.0358 -0.65174,0.20688 -0.97227,0.26516 -0.40921,0.0744 -1.00886,0.0417 -1.41422,0.17678 -0.125,0.0417 -0.22686,0.14058 -0.35355,0.17678 -0.25653,0.0733 -0.53505,0.0305 -0.7955,0.0884 -0.40305,0.0896 -0.83835,0.15632 -1.23743,0.26516 -0.17978,0.049 -0.34761,0.14023 -0.53033,0.17678 -0.11557,0.0231 -0.23922,-0.0286 -0.35356,0 -0.3423,0.0856 -1.42053,0.59707 -1.76776,0.79549 -0.58453,0.33402 -0.11816,0.22929 -0.7955,0.53033 -0.43689,0.19417 -0.96221,0.27244 -1.41421,0.44194 -0.35863,0.13449 -0.68908,0.34905 -1.06066,0.44195 -0.17387,0.0435 -0.35801,0.0392 -0.53033,0.0884 -0.69653,0.19901 -1.22105,0.42579 -1.94455,0.61872 -0.0854,0.0228 -0.1805,-0.0254 -0.26516,0 -0.81743,0.24523 -0.38307,0.27173 -1.14905,0.44194 -0.0863,0.0192 -0.17849,-0.0173 -0.26516,0 -0.47628,0.0953 -1.04224,0.26931 -1.50261,0.44195 -0.45111,0.16917 -1.08031,0.50355 -1.5026,0.61871 -0.20099,0.0548 -0.4166,0.0379 -0.61872,0.0884 -0.45194,0.11299 -0.88802,0.28274 -1.32582,0.44194 -0.0392,0.0142 -0.0489,0.0752 -0.0884,0.0884 -0.3175,0.10583 -0.87184,0.28044 -1.23744,0.35356 -0.0578,0.0115 -0.12206,-0.0219 -0.17677,0 -0.0986,0.0394 -0.16753,0.13493 -0.26517,0.17677 -0.20566,0.0881 -0.70841,0.13291 -0.88388,0.17678 -0.12783,0.032 -0.22573,0.14482 -0.35356,0.17678 -0.0572,0.0143 -0.11961,-0.0143 -0.17677,0 -0.1832,0.0458 -0.46218,0.28646 -0.61872,0.35355 -0.2558,0.10963 -0.54122,0.15215 -0.7955,0.26516 -0.38548,0.17133 -0.77174,0.34168 -1.14904,0.53033 -0.095,0.0475 -0.16654,0.13733 -0.26517,0.17678 -0.0547,0.0219 -0.12087,-0.0186 -0.17678,0 -0.0395,0.0132 -0.0489,0.0752 -0.0884,0.0884 -0.0559,0.0186 -0.12088,-0.0186 -0.17678,0 -0.22277,0.0743 -0.51412,0.26914 -0.7955,0.35355 -0.14389,0.0432 -0.30075,0.0371 -0.44194,0.0884 -0.40001,0.14546 -0.80911,0.44194 -1.23744,0.44194 -0.66932,-0.1923 -1.22294,-0.0384 -1.85604,0.0882 -0.60516,0.12103 -1.15939,0.48835 -1.76777,0.61872 -0.14404,0.0309 -0.29463,0 -0.44194,0 -0.41248,0.14731 -0.81629,0.32162 -1.23744,0.44194 -0.20031,0.0572 -0.41443,0.0475 -0.61871,0.0884 -0.53144,0.10629 -1.07495,0.31293 -1.59099,0.44194 -0.60797,0.15199 -1.25125,0.20233 -1.85616,0.35356 -0.15392,0.0385 -0.28938,0.13318 -0.44194,0.17677 -0.16998,0.0486 -0.35492,-0.0219 -0.53033,0 -0.67042,0.0838 -1.35983,0.15298 -2.03293,0.26517 -0.27571,0.046 -0.52434,0.19737 -0.7955,0.26516 -0.43687,0.10922 -0.96484,0.21524 -1.41421,0.26517 -0.17502,0.0352 -0.35443,-0.0176 -0.53033,0 -0.38117,-0.0951 -0.705,0.13232 -1.06066,0.17677 -0.11694,0.0146 -0.23571,0 -0.35356,0 -0.17677,0 -0.3551,-0.0234 -0.53033,0 -0.41047,0.0547 -0.89898,0.2296 -1.32582,0.26517 -0.79478,0.0662 -1.59375,0.009 -2.38649,0.0884 -1.48352,0.14835 -2.94337,0.5226 -4.41941,0.7071 -0.43951,0.0549 -0.88893,0.0156 -1.32583,0.0884 -0.50094,0.0835 -0.9997,0.28171 -1.5026,0.35356 -0.51846,0.0741 -1.17086,0 -1.67938,0 h -2.91682 c -0.52252,0 -1.07229,-0.0432 -1.59099,0 -0.14971,0.0125 -0.29223,0.0759 -0.44194,0.0884 -0.52233,0.0435 -1.06653,0 -1.59099,0 h -3.71231 -2.74004 c -0.43407,0 -0.89631,0.0477 -1.32582,0 -0.33388,-0.0371 -0.6421,-0.20325 -0.97227,-0.26516 -0.55557,-0.10417 -1.13032,-0.0395 -1.67938,-0.17678 -0.5576,-0.1394 -0.28583,-0.20145 -0.7955,-0.26516 -0.11694,-0.0146 -0.2373,0.0194 -0.35355,0 -0.27417,-0.0457 -0.4585,-0.31764 -0.70711,-0.44194 -0.24797,-0.2213 -0.60876,-0.12761 -0.88388,-0.26517 -1.13011,-0.56506 0.79023,0.0543 -1.06066,-0.61872 -0.0831,-0.0302 -0.1844,0.0359 -0.26517,0 -0.19414,-0.0863 -0.33691,-0.26564 -0.53033,-0.35355 -0.52876,-0.24035 -1.30474,-0.21002 -1.85615,-0.26517 -0.53815,-0.0538 -0.033,-0.0859 -0.44194,-0.17677 -0.68559,-0.15236 -1.42235,-0.0884 -1.85617,-0.0884 0.26514,-0.23259 0.0614,-0.3462 -3e-5,-0.53034 -0.0475,-0.14252 -0.0409,-0.29942 -0.0884,-0.44194 -0.0395,-0.11859 -0.19586,-0.16116 -0.26516,-0.26517 -0.0635,-0.0953 -0.11328,-0.34664 -0.17678,-0.44194 -0.2253,-0.33795 -0.51058,-0.51058 -0.7955,-0.7955 -0.41672,-0.41672 -1.02118,-1.17164 -1.32582,-1.67937 -0.19496,-0.32494 -0.38049,-0.67449 -0.61872,-0.97228 -0.34332,-0.42915 -0.81197,-1.00523 -1.06066,-1.5026 -0.14113,-0.28225 -0.43019,-0.71016 -0.53033,-1.06066 -0.1063,-0.37204 -0.20165,-0.70621 -0.35355,-1.06066 -0.0892,-0.2081 -0.29626,-0.38953 -0.35356,-0.61872 -0.0143,-0.0572 0.0264,-0.12407 0,-0.17677 -0.0373,-0.0745 -0.12677,-0.11008 -0.17677,-0.17678 -0.13176,-0.17568 -0.18607,-0.42086 -0.26517,-0.61872 -0.13229,-0.33074 -0.0576,-0.0269 -0.26516,-0.44194 -0.20447,-0.40893 -0.22208,-1.13617 -0.44194,-1.5026 -0.11935,-0.19891 -0.31507,-0.0613 -0.44195,-0.44194 -0.028,-0.0839 0.0328,-0.18307 0,-0.26517 -0.0309,-0.0774 -0.12837,-0.10898 -0.17677,-0.17678 -0.0999,-0.13979 -0.18177,-0.29176 -0.26517,-0.44194 -0.15627,-0.28128 -0.40442,-0.68898 -0.53033,-0.97227 -0.0493,-0.11101 -0.0391,-0.24255 -0.0884,-0.35355 -0.0863,-0.19415 -0.29515,-0.32605 -0.35355,-0.53033 -0.0572,-0.20032 -0.0225,-0.42108 -0.0884,-0.61872 -0.0803,-0.24083 -0.29005,-0.54169 -0.35355,-0.7955 -0.0143,-0.0572 0.0219,-0.12207 0,-0.17677 -0.20167,-0.50425 -0.13647,-0.0559 -0.26517,-0.44195 -0.0678,-0.20348 -0.088,-0.42345 -0.17677,-0.61871 -0.061,-0.13411 -0.19927,-0.2218 -0.26517,-0.35356 -0.0558,-0.11153 -0.0326,-0.33041 -0.0884,-0.44194 -0.0991,-0.19819 -0.29745,-0.39441 -0.35355,-0.61872 -0.0143,-0.0572 0.0186,-0.12087 0,-0.17677 -0.0259,-0.0777 -0.39184,-0.51847 -0.44194,-0.61872 -0.42683,-0.85365 0.11386,0.16483 -0.0884,-0.44194 -0.0878,-0.26339 -0.40988,-0.52448 -0.53033,-0.7955 -0.20128,-0.45288 -0.32514,-0.94702 -0.44194,-1.41421 -0.18031,-0.72125 -0.49344,-1.36964 -0.61872,-2.12132 -0.10543,-0.63259 0,-1.3838 0,-2.03294 0,-0.46476 -0.10121,-1.64092 0,-1.94454 0.0354,-0.10606 0.22976,-0.1591 0.26516,-0.26516 0.0528,-0.1584 -0.0406,-0.36809 0,-0.53033 0.0295,-0.11786 0.0341,-0.2449 0.0884,-0.35356 0.076,-0.15196 0.21667,-0.15954 0.26517,-0.35355 0.0428,-0.17131 0.0312,-0.35886 0.0884,-0.53033 0.034,-0.10204 0.41914,-0.49233 0.44194,-0.53033 0.0997,-0.16617 0.15204,-0.44903 0.26516,-0.61872 0.0164,-0.0245 0.0721,0.0245 0.0884,0 0.0517,-0.0775 0.0589,-0.17676 0.0884,-0.26516 0.0589,-0.0589 0.13058,-0.10748 0.17678,-0.17678 0.0741,-0.11118 0.0664,-0.33153 0.17677,-0.44194 0.0209,-0.0208 0.0676,0.0208 0.0884,0 0.1334,-0.1334 0.28346,-0.26678 0.35356,-0.44194 0.0451,-0.11279 0.05,-0.23831 0.0884,-0.35356 0.12416,-0.37248 0.43253,-0.66946 0.53033,-1.06066 0.0143,-0.0572 -0.0219,-0.12207 0,-0.17677 0.10097,-0.25243 0.37415,-0.43589 0.44195,-0.70711 0.0491,-0.19642 -0.0737,-0.22097 0,-0.44194 0.009,-0.0279 0.0721,0.0245 0.34491,-0.64935 0.27282,-0.67385 0.17642,-0.0523 0.27382,-1.03003"
         id="path10" />
      <g
         id="g1"
         style="fill:#969696;fill-opacity:1;stroke:none;stroke-opacity:1">
        <path
           style="display:inline;fill:#969696;fill-opacity:1;stroke:none;stroke-opacity:1"
           d="m 235.375,339.5625 c 0.25,0.10417 0.5,0.20833 0.75,0.3125 0.0417,0.0625 0.0663,0.14058 0.125,0.1875 0.0514,0.0412 0.13163,0.0276 0.1875,0.0625 0.66915,0.41822 0.0707,0.0707 0.4375,0.4375 0.12672,0.12672 0.31078,0.18578 0.4375,0.3125 0.0531,0.0531 0.0719,0.13439 0.125,0.1875 0.0659,0.0659 0.18412,0.0591 0.25,0.125 0.0147,0.0147 -0.0186,0.0532 0,0.0625 0.0373,0.0186 0.0955,-0.0295 0.125,0 0.0466,0.0466 0.0276,0.13163 0.0625,0.1875 0.0862,0.13798 0.23973,0.22946 0.3125,0.375 0.13484,0.26967 0.26788,0.55808 0.4375,0.8125 0.1415,0.21225 0.41424,0.30232 0.5625,0.5 0.16556,0.22075 0.30846,0.55846 0.5,0.75 0.0329,0.0329 0.0921,0.0296 0.125,0.0625 0.22748,0.22748 -0.0665,0.0439 0.125,0.1875 0.19309,0.14481 0.37224,0.29481 0.5625,0.4375 0.30276,0.22707 1.06076,0.34332 1.4375,0.4375 0.40469,0.10117 -0.003,-0.002 0.3125,0.1875 0.12854,0.0771 0.41915,0.14654 0.5625,0.1875 0.69391,0.19826 1.90266,0.26947 2.625,0.125 0.22002,-0.044 0.41213,-0.17904 0.625,-0.25 0.14389,-0.048 0.29979,-0.0614 0.4375,-0.125 0.40614,-0.18745 0.78087,-0.43863 1.1875,-0.625 0.0966,-0.0443 0.21303,-0.0252 0.3125,-0.0625 0.15727,-0.059 0.30313,-0.14922 0.4375,-0.25 0.0167,-0.0125 -0.0173,-0.0509 0,-0.0625 0.0489,-0.0326 0.20112,-0.0299 0.25,-0.0625 0.049,-0.0327 0.0745,-0.0947 0.125,-0.125 0.0565,-0.0339 0.12857,-0.033 0.1875,-0.0625 0.29202,-0.14601 0.57287,-0.37915 0.875,-0.5 0.15595,-0.0624 0.33604,-0.0261 0.5,-0.0625 0.0643,-0.0143 0.125,-0.0417 0.1875,-0.0625 0.0833,-0.0208 0.16577,-0.0457 0.25,-0.0625 0.61533,-0.12307 1.37774,-0.11764 1.9375,-0.4375 0.0904,-0.0517 0.0982,-0.19641 0.1875,-0.25 0.0565,-0.0339 0.12857,-0.033 0.1875,-0.0625 0.14837,-0.0742 0.22033,-0.2521 0.3125,-0.375 0.15704,-0.20939 0.25888,-0.13388 0.375,-0.25 0.0466,-0.0466 0.0213,-0.13606 0.0625,-0.1875 0.0469,-0.0587 0.14583,-0.0625 0.1875,-0.125 0.0477,-0.0715 0.0208,-0.17491 0.0625,-0.25 -0.0761,-0.26509 0.23177,-0.23372 0.3125,-0.375 0.23952,-0.41916 0.3861,-0.87149 0.5625,-1.3125 0.0772,-0.19304 0.24264,-0.41541 0.3125,-0.625 0.0132,-0.0395 -0.0155,-0.0863 0,-0.125 0.0558,-0.13949 0.19421,-0.23551 0.25,-0.375 0.0155,-0.0387 -0.0186,-0.0877 0,-0.125 0.0264,-0.0527 0.0923,-0.076 0.125,-0.125 0.15838,-0.23757 0.25687,-0.52421 0.4375,-0.75 0.013,-0.0163 0.05,0.0167 0.0625,0 0.2172,-0.28959 0.36306,-0.67556 0.625,-0.9375 0.0737,-0.0737 0.18493,-0.10616 0.25,-0.1875 0.15177,-0.18972 0.2032,-0.4532 0.375,-0.625 0.41488,-0.41488 0.378,-0.2554 0.6875,-0.8125 0.0365,-0.0657 0.0986,-0.11717 0.125,-0.1875 0.0868,-0.23157 0.0482,-0.51951 0.125,-0.75 0.14564,-0.43691 0.0625,-1.04876 0.0625,-1.5 0,-0.82324 -0.0804,-1.88368 0,-2.6875 0.0606,-0.60618 0.13211,-1.20326 0.1875,-1.8125 0.026,-0.28549 -0.0471,-0.59242 0,-0.875 0.0511,-0.30664 0.14679,-0.89247 0.0625,-1.1875 -0.0206,-0.0722 -0.0971,-0.11776 -0.125,-0.1875 -0.0155,-0.0387 0.0231,-0.0903 0,-0.125 -0.0258,-0.0388 -0.0921,-0.0296 -0.125,-0.0625 -0.0737,-0.0737 -0.0943,-0.20341 -0.1875,-0.25 -0.0589,-0.0295 -0.13163,-0.0276 -0.1875,-0.0625 -0.2797,-0.17481 -0.48174,-0.44616 -0.75,-0.625 -0.0548,-0.0365 -0.12857,-0.033 -0.1875,-0.0625 -0.34553,-0.17276 -0.67044,-0.43668 -1,-0.625 -0.12134,-0.0693 -0.26468,-0.1017 -0.375,-0.1875 -0.0822,-0.0639 -0.11384,-0.17634 -0.1875,-0.25 -0.0537,-0.0537 -0.66385,-0.58193 -0.75,-0.625 -0.0186,-0.009 -0.0478,0.0147 -0.0625,0 -0.0147,-0.0147 0.0173,-0.0509 0,-0.0625 -0.0648,-0.0432 -0.38987,-0.10714 -0.4375,-0.125 -0.20096,-0.0754 -0.42599,-0.16471 -0.625,-0.25 -0.25691,-0.1101 -0.49554,-0.25934 -0.75,-0.375 -0.11995,-0.0545 -0.25715,-0.0661 -0.375,-0.125 -0.0672,-0.0336 -0.11717,-0.0986 -0.1875,-0.125 -0.31296,-0.11736 -0.68502,-0.14501 -1,-0.25 -0.16887,-0.0563 -0.32731,-0.14433 -0.5,-0.1875 -0.0808,-0.0202 -0.16865,0.0181 -0.25,0 -0.42939,-0.0954 -0.86865,-0.33061 -1.3125,-0.375 -0.66482,-0.0665 -1.55306,0.10574 -2.1875,0 -0.62419,-0.10403 0.19968,0.005 -0.3125,-0.1875 -0.11866,-0.0445 -0.25315,-0.0277 -0.375,-0.0625 -0.0707,-0.0202 -0.20112,-0.21741 -0.25,-0.25 -0.0173,-0.0116 -0.0478,0.0147 -0.0625,0 -0.0329,-0.0329 -0.0252,-0.0971 -0.0625,-0.125 -0.0527,-0.0395 -0.1348,-0.023 -0.1875,-0.0625 -0.12919,-0.0969 -0.25309,-0.4539 -0.4375,-0.5 -0.14292,-0.0357 -0.29305,-0.0336 -0.4375,-0.0625 -0.55695,-0.11139 -0.40365,-0.14301 -0.9375,-0.1875 -0.10381,-0.009 -0.20975,0.0171 -0.3125,0 -0.14961,-0.0249 -0.28789,-0.10007 -0.4375,-0.125 -0.51741,-0.0862 -1.04116,-0.0625 -1.5625,-0.0625 -0.14539,0 -0.80538,-0.0661 -0.9375,0 -0.55058,0.27529 -0.90916,0.81785 -1.3125,1.25 -0.091,0.0975 -0.22387,0.1503 -0.3125,0.25 -0.0807,0.0908 -0.11784,0.21298 -0.1875,0.3125 -0.33773,0.48248 -0.41664,0.63192 -0.875,0.9375 -0.40377,0.26918 -0.93376,0.3235 -1.375,0.5 -0.55374,0.2215 -1.12294,0.37431 -1.6875,0.5625 -0.004,10e-4 -0.4232,0.17653 -0.5,0.1875 -0.0825,0.0118 -0.16865,-0.0181 -0.25,0 -0.14806,0.0329 -0.29036,0.0882 -0.4375,0.125 -0.16965,0.0424 -0.18218,0.15536 -0.375,0.1875 -0.0616,0.0103 -0.12821,-0.0198 -0.1875,0 -0.11524,0.0384 -0.20385,0.13317 -0.3125,0.1875 -0.28936,0.14468 -1.03065,0.56131 -1.1875,0.875 -0.009,0.0186 0.0147,0.0478 0,0.0625 -0.11254,0.11254 -0.28182,0.17273 -0.375,0.3125 -0.0879,0.13191 -0.1199,0.20409 -0.25,0.3125 -0.15345,0.12787 -0.28849,0.20075 -0.4375,0.3125 -0.21,0.1575 -0.3525,0.405 -0.5625,0.5625 -0.0373,0.0279 -0.0921,0.0296 -0.125,0.0625 -0.14731,0.14731 -0.22769,0.35269 -0.375,0.5 -0.0531,0.0531 -0.13438,0.0719 -0.1875,0.125 -0.29218,0.0122 -0.18578,0.31078 -0.3125,0.4375 -0.0531,0.0531 -0.12979,0.0769 -0.1875,0.125 -0.20486,0.17072 -1.05035,1.13499 -1.1875,1.375 -0.11407,0.19963 -0.18497,0.43371 -0.3125,0.625 -0.11798,0.17697 -0.0401,-0.11845 -0.1875,0.25 -0.0155,0.0387 0.0132,0.0855 0,0.125 -0.0683,0.20503 -0.21514,0.29085 -0.25,0.5 -0.0524,0.31471 -0.12482,0.62411 -0.1875,0.9375 -0.0443,0.22172 0,0.53247 0,0.75 0,0.52083 0,1.04167 0,1.5625 0,0.3487 -0.0798,0.99338 0,1.3125 0.10201,0.40804 0.0336,-0.23614 0.125,0.3125 0.0304,0.18243 -0.0304,0.38007 0,0.5625 0.0349,0.20928 0.19943,0.56156 0.3125,0.75 0.0614,0.10232 0.17481,0.11231 0.25,0.1875 0.0147,0.0147 -0.0198,0.0559 0,0.0625 0.7276,0.24253 -0.7636,-0.57027 0.5625,0.1875 0.14128,0.0807 0.23961,0.22224 0.375,0.3125 0.21599,0.14399 0.55959,0.37427 0.8125,0.4375 0.0404,0.0101 0.0877,-0.0186 0.125,0 0.0932,0.0466 0.15683,0.14092 0.25,0.1875 0.0373,0.0186 0.0846,-0.0101 0.125,0 0.10884,0.0272 0.20833,0.0833 0.3125,0.125 0.18516,0.0741 0.66182,0.27455 0.8125,0.375 0.10646,0.071 0.25697,0.21066 0.375,0.25 0.0395,0.0132 0.0846,-0.0101 0.125,0 0.25564,0.0639 0.52292,0.26146 0.75,0.375 0.17519,0.0876 0.37925,0.0792 0.5625,0.125 0.29352,0.0734 0.58614,0.21622 0.875,0.3125 0.12732,0.0424 0.30396,-0.0191 0.4375,0 0.47733,0.0682 0.82934,0.15913 1.3125,0.0625 z"
           id="path9" />
        <path
           style="display:inline;fill:#969696;fill-opacity:1;stroke:none;stroke-opacity:1"
           d="m 280.1875,326.1875 c 0,-0.10417 -0.0366,-0.21497 0,-0.3125 0.06,-0.16004 0.26437,-0.245 0.3125,-0.4375 0.0273,-0.10919 0,-0.33249 0,-0.4375 0,-0.52914 0.10207,-0.92011 0.375,-1.375 0.0737,-0.12285 0.23273,-0.19284 0.3125,-0.3125 0.0258,-0.0388 0.0296,-0.0921 0.0625,-0.125 0.10779,-0.10779 0.27521,-0.12603 0.3125,-0.3125 0.0698,-0.34882 0.036,-1.24039 -0.125,-1.5625 0.0163,-0.13205 -0.0992,-0.0237 -0.125,-0.0625 -0.13436,-0.20154 -0.14428,-0.47607 -0.25,-0.6875 -0.0808,-0.16161 -0.38627,-0.4713 -0.4375,-0.625 -0.0132,-0.0395 0.0132,-0.0855 0,-0.125 -0.0559,-0.16785 -0.26901,-0.36751 -0.375,-0.5 -0.0291,-0.0364 -0.0417,-0.0833 -0.0625,-0.125 -0.0625,-0.0833 -0.12081,-0.16998 -0.1875,-0.25 -0.22298,-0.26758 -0.53484,-0.37739 -0.8125,-0.5625 -0.049,-0.0327 -0.0723,-0.0987 -0.125,-0.125 -0.0373,-0.0186 -0.0841,0.008 -0.125,0 -0.1782,-0.0356 -0.32374,-0.14344 -0.5,-0.1875 -0.12426,-0.0311 -0.32455,0.0565 -0.4375,0 -0.0527,-0.0263 -0.076,-0.0923 -0.125,-0.125 -0.052,-0.0347 -0.12821,0.0198 -0.1875,0 -0.23041,-0.0768 -0.35411,-0.31246 -0.5625,-0.4375 -0.3125,-0.1875 0,0.0937 -0.1875,0 -0.14554,-0.0728 -0.23702,-0.22626 -0.375,-0.3125 -0.0559,-0.0349 -0.12857,-0.033 -0.1875,-0.0625 -0.0263,-0.0132 -0.0417,-0.0417 -0.0625,-0.0625 -0.0625,-0.0417 -0.11846,-0.0954 -0.1875,-0.125 -0.079,-0.0338 -0.17105,-0.0287 -0.25,-0.0625 -0.22292,-0.0955 -0.60648,-0.29034 -0.8125,-0.4375 -0.10855,-0.0775 -0.19318,-0.19034 -0.3125,-0.25 -0.095,-0.0475 -0.21749,-0.015 -0.3125,-0.0625 -0.10541,-0.0527 -0.14459,-0.1973 -0.25,-0.25 -0.18989,-0.0949 -0.45718,-0.22685 -0.5625,-0.4375 -0.009,-0.0186 0.0147,-0.0478 0,-0.0625 -0.0147,-0.0147 -0.0478,0.0147 -0.0625,0 -0.0147,-0.0147 0.0147,-0.0478 0,-0.0625 -0.0135,-0.0135 -0.23027,-0.01 -0.25,0 -0.0527,0.0263 -0.0691,0.10637 -0.125,0.125 -0.0395,0.0132 -0.0903,-0.0231 -0.125,0 -0.40745,0.27163 -0.5432,0.7932 -0.875,1.125 -0.0147,0.0147 -0.0417,0 -0.0625,0 -0.0625,0.10417 -0.11161,0.21764 -0.1875,0.3125 -0.013,0.0163 -0.0478,-0.0147 -0.0625,0 -0.17598,0.004 -0.0159,0.14092 -0.0625,0.1875 -0.0147,0.0147 -0.0532,-0.0186 -0.0625,0 -0.0186,0.0373 0.0186,0.0877 0,0.125 -4.4e-4,8.8e-4 -0.85179,0.32602 -0.9375,0.375 -0.17489,0.0999 -0.30451,0.24734 -0.5,0.3125 -0.34582,0.11527 -0.64703,0.21965 -0.9375,0.4375 -0.19572,0.14679 -0.27096,0.38548 -0.5,0.5 -0.0373,0.0186 -0.0846,-0.0101 -0.125,0 -0.19511,0.0488 -0.37753,0.28252 -0.5625,0.375 -0.20883,0.10441 -0.4437,0.16746 -0.625,0.3125 -0.069,0.0552 -0.11679,0.13447 -0.1875,0.1875 -0.0167,0.0125 -0.0439,-0.009 -0.0625,0 -0.0908,0.0454 -0.25808,0.23087 -0.3125,0.3125 -0.0231,0.0347 0.0132,0.0855 0,0.125 -0.0468,0.14032 -0.11618,0.16987 -0.1875,0.3125 -0.0742,0.14849 -0.0365,0.34406 -0.0625,0.5 -0.008,0.046 -0.0417,0.0833 -0.0625,0.125 -0.0208,0.0833 -0.0484,0.16527 -0.0625,0.25 -0.0272,0.16331 -0.0412,0.75154 0,0.875 0.0186,0.0559 0.0896,0.0779 0.125,0.125 0.14796,0.19728 -0.047,0.078 0.1875,0.3125 0.0147,0.0147 0.0458,-0.0125 0.0625,0 0.0943,0.0707 0.15194,0.18463 0.25,0.25 0.23658,0.15772 0.89049,0.513 1.1875,0.5625 0.12655,0.0211 0.25937,0.005 0.375,0.0625 0.30999,0.155 0.60423,0.38891 0.9375,0.5 0.10078,0.0336 0.20833,0.0417 0.3125,0.0625 0.10417,0.0625 0.19971,0.14238 0.3125,0.1875 0.0986,0.0394 0.21303,0.0252 0.3125,0.0625 0.0703,0.0264 0.11846,0.0954 0.1875,0.125 0.0715,0.0306 0.51396,0.11691 0.5625,0.125 0.46392,0.0773 0.91287,0.0111 1.375,0.0625 0.48001,0.0533 0.95171,0.0625 1.4375,0.0625 0.30479,0 0.63684,-0.0301 0.9375,0 0.45113,0.0451 0.88892,0.34116 1.3125,0.5 0.56186,0.2107 0.63308,0.21897 1.0625,0.5625 0.0587,0.0469 0.12031,0.0914 0.1875,0.125 0.0186,0.009 0.0478,-0.0147 0.0625,0 0.0329,0.0329 0.0296,0.0921 0.0625,0.125 0.0329,0.0329 0.0971,0.0252 0.125,0.0625 0.0395,0.0527 0.026,0.13268 0.0625,0.1875 0.0116,0.0173 0.0478,-0.0147 0.0625,0 0.0143,0.0143 0.18036,0.22858 0.1875,0.25 0.0132,0.0395 -0.0186,0.0877 0,0.125 0.009,0.0186 0.0439,-0.009 0.0625,0 0.0263,0.0132 0.0362,0.0493 0.0625,0.0625 0.11316,0.0566 0.69351,0 0.875,0 0.15315,0 0.9375,-0.13388 0.9375,-0.1875 0,-0.10623 -0.0417,-0.20833 -0.0625,-0.3125 z"
           id="path8" />
        <path
           style="display:inline;fill:#969696;fill-opacity:1;stroke:none;stroke-opacity:1"
           d="m 210.6875,350.6875 c -0.059,0.27951 -0.2632,-0.0559 -0.375,0 -0.59257,0.29629 -1.1656,0.71907 -1.6875,1.125 -0.52204,0.40603 -1.15634,0.83346 -1.5625,1.375 -0.028,0.0373 -0.0313,0.0904 -0.0625,0.125 -0.15768,0.1752 -0.35276,0.31595 -0.5,0.5 -0.026,0.0325 0.025,0.0917 0,0.125 -0.0451,0.0601 -0.12741,0.0799 -0.1875,0.125 -0.0362,0.0272 -0.2857,0.3348 -0.3125,0.375 -0.28778,0.43167 -0.48727,0.96458 -0.75,1.4375 -0.0723,0.13011 -0.22773,0.43535 -0.3125,0.5625 -0.19069,0.28604 -0.099,-0.0782 -0.25,0.375 -0.0132,0.0395 0.0155,0.0863 0,0.125 -0.097,0.24255 -0.32959,0.3732 -0.4375,0.625 -0.0328,0.0766 0.0137,0.1678 0,0.25 -0.0208,0.0833 -0.0417,0.16667 -0.0625,0.25 -0.0208,0.0417 -0.0512,0.0798 -0.0625,0.125 -0.0566,0.22655 -0.0519,0.94808 0.125,1.125 0.14056,0.14056 0.1506,0.064 0.25,0.3125 0.0926,0.23155 0.01,0.52 0.125,0.75 0.11422,0.22844 0.30379,0.40215 0.4375,0.625 0.071,0.11825 0.19239,0.40391 0.3125,0.5 0.0514,0.0412 0.14092,0.0159 0.1875,0.0625 0.0466,0.0466 0.0213,0.13606 0.0625,0.1875 0.0913,0.11411 0.85097,0.50041 1,0.5625 0.16431,0.0685 0.32951,0.13635 0.5,0.1875 0.0399,0.012 0.0867,-0.0164 0.125,0 0.3201,0.13719 0.22377,0.19475 0.5,0.25 0.33963,0.0679 0.65868,0.0625 1,0.0625 0.2804,0 0.59907,0.046 0.875,0 0.0833,-0.0208 0.16667,-0.0417 0.25,-0.0625 0.0208,-0.0208 0.0345,-0.0532 0.0625,-0.0625 0.0395,-0.0132 0.0833,0 0.125,0 0.0625,-0.0208 0.12633,-0.038 0.1875,-0.0625 0.3631,-0.14524 0.74572,-0.39873 1.0625,-0.625 0.16158,-0.11542 0.11697,-0.2198 0.25,-0.375 0.0767,-0.0895 0.16667,-0.16667 0.25,-0.25 0.18403,-0.18403 -0.13302,0.11439 0.25,-0.125 0.33195,-0.20747 0.32373,-0.30427 0.625,-0.5625 0.19831,-0.16998 1.03301,-0.60604 1.0625,-0.8125 0.0328,-0.22932 0.047,-1.73414 0,-1.875 -0.12381,-0.37142 -0.14057,-0.93132 0.125,-1.25 0.0579,-0.0695 0.45217,-0.23406 0.5,-0.25 0.13835,-0.0461 0.29279,0.0181 0.4375,0 0.2293,-0.0287 0.46778,-0.13257 0.6875,-0.1875 0.11216,-0.028 0.27057,-0.0103 0.375,-0.0625 0.19506,-0.0975 0.37039,-0.42368 0.4375,-0.625 0.0437,-0.13126 -0.0337,-0.30288 0,-0.4375 0.0312,-0.12465 0.0625,-0.17866 0.0625,-0.3125 0,-0.21423 0.0931,-0.71939 -0.0625,-0.875 -0.11877,-0.11877 -0.30634,-0.14507 -0.4375,-0.25 -0.10801,-0.0864 -0.48448,-0.40237 -0.625,-0.4375 -0.0606,-0.0152 -0.12821,0.0198 -0.1875,0 -0.0988,-0.0329 -0.14894,-0.16224 -0.25,-0.1875 -0.0606,-0.0152 -0.1272,0.0165 -0.1875,0 -0.16667,-0.0625 -0.33333,-0.125 -0.5,-0.1875 -0.0208,-0.0208 -0.0361,-0.0493 -0.0625,-0.0625 -0.14328,-0.0716 -0.39869,-0.0704 -0.5625,-0.125 -0.16972,-0.0566 -0.30022,-0.20954 -0.4375,-0.3125 -0.1154,-0.0865 -0.35265,-0.18212 -0.4375,-0.25 -0.24654,0.0449 -0.21168,-0.27418 -0.3125,-0.375 -0.0329,-0.0329 -0.10238,-0.0218 -0.125,-0.0625 -0.0864,-0.1556 -0.1079,-0.34079 -0.1875,-0.5 -0.009,-0.0186 -0.05,0.0167 -0.0625,0 -0.0559,-0.0745 -0.0733,-0.17248 -0.125,-0.25 -0.049,-0.0735 -0.14797,-0.10844 -0.1875,-0.1875 -0.0417,-0.0833 -0.0955,-0.16161 -0.125,-0.25 -0.0132,-0.0395 0.0231,-0.0903 0,-0.125 -0.0511,-0.0766 -0.1555,-0.029 -0.1875,-0.125 -0.0132,-0.0395 0.0186,-0.0877 0,-0.125 -0.0115,-0.0231 -0.58391,0.0214 -0.625,0.0625 -0.0248,0.0248 0,0.38925 0,0.4375 z"
           id="path11" />
      </g>
    </g>
  </g>
</svg>
