<?xml version="1.0" encoding="UTF-8" standalone="no"?>
<!-- Created with Inkscape (http://www.inkscape.org/) -->

<svg
   version="1.1"
   id="svg2"
   width="489.03485"
   height="101.06384"
   viewBox="0 0 489.03485 101.06384"
   xmlns="http://www.w3.org/2000/svg"
   xmlns:svg="http://www.w3.org/2000/svg">
  <defs
     id="defs6">
    <linearGradient
       id="swatch77">
      <stop
         style="stop-color:#e2c69e;stop-opacity:1;"
         offset="0"
         id="stop77" />
    </linearGradient>
  </defs>
  <g
     id="layer66"
     style="display:inline"
     transform="translate(-582.90911,-733.53449)">
    <g
       id="layer28"
       style="display:inline">
      <path
         style="fill:#969696;fill-opacity:1;stroke:none;stroke-opacity:1"
         d="m 851.01406,736.93785 c 1.04385,0.0497 8.33543,1.08035 9.39127,0.55243 0.54069,-0.27035 1.47533,-0.37048 1.93349,-0.82864 0.0651,-0.0651 -0.0824,-0.23504 0,-0.27622 0.3294,-0.1647 0.75547,0.11647 1.10485,0 0.12353,-0.0412 0.16317,-0.21161 0.27622,-0.27621 1.20335,-0.68763 1.9582,-1.2134 3.03835,-1.93349 0.30643,-0.20429 0.74756,0.0893 1.10485,0 0.26845,-0.0671 0.79986,-0.45076 1.10486,-0.55243 0.37819,-0.12607 6.02151,-0.11047 6.35291,0 0.55335,0.18445 1.16965,0.77976 1.65728,1.10485 1.06878,0.71252 4.32701,1.9104 5.52427,2.20971 0.19973,0.0499 0.3527,0.22628 0.55243,0.27622 0.17864,0.0447 0.38772,-0.0824 0.55243,0 0.0824,0.0412 -0.0412,0.19386 0,0.27621 0.57476,1.14953 -0.0191,-0.29528 0.55242,0.27621 0.0651,0.0651 -0.0873,0.2471 0,0.27622 0.26204,0.0873 0.56661,-0.0874 0.82864,0 0.0874,0.0291 -0.0552,0.20255 0,0.27621 0.3125,0.41667 0.68819,0.79235 1.10486,1.10485 0.64194,0.48146 1.44761,1.20467 1.93349,1.9335 0.1142,0.1713 0.13064,0.40685 0.27622,0.55243 0.14558,0.14557 0.43822,0.10491 0.55243,0.27621 0.10214,0.15322 -0.0824,0.38773 0,0.55243 0.0412,0.0824 0.19386,-0.0412 0.27621,0 0.33145,0.16573 0.49718,0.66291 0.82864,0.82864 0.0824,0.0412 0.21111,-0.0651 0.27621,0 0.36829,0.36828 -0.58593,0.26504 0.27622,0.55243 0.17469,0.0582 0.38772,-0.0824 0.55242,0 0.34939,0.17469 0.45807,0.70511 0.82864,0.82864 0.56074,0.18691 1.34459,0.12898 1.9335,0.27621 2.05599,0.514 4.21403,0.6342 6.35291,0.82864 1.12532,0.1023 1.53452,-0.15345 2.76214,0 0.66511,0.0831 1.26994,0.45763 1.93349,0.55243 0.9023,0.1289 1.85984,-0.1289 2.76214,0 1.47213,0.2103 2.96079,0.64631 4.41942,0.82864 0.4568,0.0571 0.92697,-0.0757 1.38106,0 0.12844,0.0214 0.1499,0.24463 0.27622,0.27621 0.93776,0.23444 2.11141,-0.0328 3.03835,0.27622 0.56975,0.18991 1.07555,0.6832 1.65728,0.82864 0.96982,0.24245 4.31183,0.72105 4.97184,1.38106 0.14558,0.14558 0.11152,0.4289 0.27622,0.55243 0.0274,0.0206 3.682,1.61104 3.86699,1.65728 0.17864,0.0447 0.39921,-0.10214 0.55242,0 0.1713,0.1142 0.13064,0.40685 0.27622,0.55243 0.0509,0.0509 0.77774,0.22532 0.82864,0.27621 0.14558,0.14558 0.13064,0.40685 0.27621,0.55243 0.0651,0.0651 0.19387,-0.0412 0.27622,0 0.4407,0.22035 1.83318,2.19735 2.2097,2.76214 0.52668,0.79001 0.10592,0.35925 0.27622,1.38106 0.14811,0.88869 0.73709,2.11817 1.38107,2.76214 0.19531,0.19531 0.5666,-0.0874 0.82864,0 0.12352,0.0412 0.18414,0.18414 0.27621,0.27621 0.36829,0.0921 0.72905,0.22253 1.10485,0.27622 0.82032,0.11719 1.66235,-0.0915 2.48593,0 0.28937,0.0322 0.54314,0.21911 0.82864,0.27621 0.7021,0.14042 3.64175,0.19442 4.41942,0 0.32205,-0.0805 0.50658,-0.47191 0.82864,-0.55243 1.01761,-0.2544 2.32146,0.33104 3.31456,0 0.12353,-0.0412 0.15975,-0.21798 0.27621,-0.27621 0.32941,-0.1647 0.74158,0.0606 1.10486,0 0.6586,-0.10977 1.12746,-0.69619 1.65728,-0.82864 2.17549,-0.54387 -0.67317,0.68475 2.20971,-0.27621 0.19531,-0.0651 0.10491,-0.43823 0.27621,-0.55243 0.15322,-0.10214 0.37378,0.0447 0.55243,0 0.41342,-0.10336 1.08403,-0.68012 1.38107,-0.82864 0.33469,-0.16735 1.01149,0.0616 1.38106,0 1.4069,-0.23449 2.69975,-0.27622 4.14321,-0.27622 2.49579,0 5.36797,-0.31528 7.73398,0.27622 0.86655,0.21664 1.89558,-0.21664 2.76213,0 0.12632,0.0316 0.15269,0.23504 0.27622,0.27621 0.34938,0.11646 0.74756,-0.0893 1.10485,0 0.39946,0.0999 0.7054,0.45256 1.10486,0.55243 0.71348,0.17837 1.52293,0.15999 2.20971,0.55243 0.3997,0.2284 0.71447,0.58465 1.10485,0.82864 1.72417,1.0776 3.63283,1.82692 5.24806,3.03835 0.62086,0.46564 1.55815,0.71392 2.20971,1.10485 0.39475,0.23685 0.77933,0.50312 1.10485,0.82864 0.0651,0.0651 -0.0766,0.22514 0,0.27621 0.24226,0.16151 0.59572,0.10153 0.82864,0.27622 0.1647,0.12352 0.13064,0.40685 0.27622,0.55243 0.24663,0.24663 2.63977,1.08213 3.03834,1.38106 0.16471,0.12353 0.13064,0.40685 0.27622,0.55243 0.0985,0.67852 0.58638,0.11471 0.82864,0.27621 0.21668,0.14446 0.34409,0.39618 0.55243,0.55243 0.55582,0.41687 1.44359,0.33874 1.93349,0.82864 0.14558,0.14558 0.15269,0.38773 0.27621,0.55243 0.82002,1.09336 0.29387,0.0177 1.38107,1.10485 0.31654,0.31654 0.5121,1.06453 0.82864,1.38107 0.37962,0.37962 1.00145,0.44902 1.38107,0.82864 0.14558,0.14558 0.13064,0.40685 0.27621,0.55243 0.49315,0.49315 1.36295,0.95315 1.9335,1.38107 0.26557,0.19918 0.27621,0.6445 0.55243,0.82864 0.82861,0.55243 0.27621,-0.27622 0.82861,0 0.4802,0.24009 1.0015,0.44902 1.3811,0.82864 0.065,0.0651 -0.077,0.22514 0,0.27621 0.4462,0.29744 3.4079,1.10486 3.867,1.10486 1.0551,0 0.043,-0.0582 1.3811,0.27621 0.9904,0.24762 6.2427,0.13412 7.1815,0 1.0265,-0.14665 2.0592,-0.77848 3.0384,-1.10485 2.5367,-0.84559 0.391,0.0269 2.2097,-0.27622 0.7887,-0.13146 2.5634,-0.80442 3.3145,-1.10485 1.8415,-0.73657 -0.6445,0.27621 0.8287,-0.82864 0.4642,-0.34818 2.1766,-0.79559 2.4859,-1.10486 0.1456,-0.14557 0.1306,-0.40685 0.2762,-0.55242 0.1456,-0.14558 0.3917,-0.14761 0.5524,-0.27622 0.4067,-0.32536 0.6715,-0.81595 1.1049,-1.10485 0.6573,-0.4382 1.3052,-0.87847 1.9335,-1.38107 0.2033,-0.16268 0.408,-0.33575 0.5524,-0.55243 0.051,-0.0766 -0.082,-0.23503 0,-0.27621 0.5524,-0.27621 0.4143,0.13811 0.8286,0 0.6202,-0.20671 0.7508,-0.51347 1.3811,-0.82864 0.9294,-0.46468 2.3474,-0.55231 3.3146,-0.82864 0.1252,-0.0358 0.1527,-0.23504 0.2762,-0.27622 0.1747,-0.0582 0.3777,0.0582 0.5524,0 0.6823,-0.22742 1.4545,-0.91604 2.2097,-1.10485 0.4466,-0.11165 0.9297,0.0903 1.3811,0 0.071,-0.0142 1.034,-0.53826 1.1049,-0.55243 1.5725,-0.31451 7.1441,-0.007 8.5626,0.27622 0.5264,0.10528 0.8755,0.64807 1.381,0.82864 0.9053,0.3233 1.8223,0.62723 2.7622,0.82864 0.3601,0.0772 0.7394,-0.0457 1.1048,0 1.5966,0.19958 3.2458,0.80112 4.6957,1.38107 0.4274,0.17097 0.9384,-0.12647 1.381,0 0.7063,0.20179 1.5472,0.9171 2.486,1.10485 0.2708,0.0542 0.5606,-0.067 0.8286,0 0.6645,0.16614 0.8797,0.38531 1.3811,0.55243 0.9098,0.30328 1.9412,0.41817 2.7621,0.82864 0.1647,0.0823 0.3877,-0.0824 0.5524,0 0.2329,0.11646 0.3195,0.43596 0.5525,0.55243 0.3355,0.16778 0.8778,0.0985 1.1048,0.55242 0.2341,0.46811 0,1.67477 0.2599,2.23916 0.2599,0.0752 0.2649,0.0201 0.2439,0.0451 -0.023,0.0288 -0.039,0.0637 -0.062,0.0937 -0.074,0.0989 -0.1909,0.20203 -0.2969,0.26563 -0.2386,0.1432 0.071,-0.0806 -0.1406,0.0781 -0.2559,0.19191 0.1458,-0.10093 -0.1406,0.0781 -0.019,0.0117 -0.028,0.035 -0.047,0.0469 -0.1681,0.10694 -0.3643,0.14855 -0.5469,0.21875 -0.033,0.0126 -0.062,0.0324 -0.094,0.0469 -0.1022,0.0465 -0.2118,0.0747 -0.3125,0.125 -0.081,0.0404 -0.075,0.0532 -0.1563,0.0937 -0.025,0.0125 -0.054,0.0176 -0.078,0.0312 -0.063,0.0354 -0.05,0.0488 -0.1094,0.0781 -0.025,0.0125 -0.054,0.0173 -0.078,0.0312 -0.012,0.007 -0.018,0.0232 -0.031,0.0312 -0.046,0.0288 -0.094,0.0521 -0.1406,0.0781 -0.036,0.0157 -0.075,0.0268 -0.1094,0.0469 -0.079,0.0466 -0.2501,0.15845 -0.3281,0.21875 -0.097,0.0744 -0.1852,0.15868 -0.2812,0.23438 -0.03,0.0233 -0.065,0.0387 -0.094,0.0625 -0.028,0.0233 -0.051,0.0535 -0.078,0.0781 -0.045,0.0397 -0.099,0.0674 -0.1406,0.10938 -0.013,0.0133 -0.016,0.0356 -0.031,0.0469 -0.01,0.006 -0.021,-0.007 -0.031,0 -0.031,0.0264 -0.046,0.0686 -0.078,0.0937 -0.1485,0.1167 -0.1807,0.0493 -0.2497,0.23482 -0.02,0.0399 -0.028,0.087 -0.047,0.125 0,0.005 -0.016,-0.004 -0.016,0 -0.1409,0.1411 -10e-4,0.003 -0.031,0.0625 -0.012,0.0233 -0.037,0.0378 -0.047,0.0625 v 0.0312 c -0.01,0.0131 -0.021,0.0194 -0.031,0.0312 -0.039,0.0512 -0.054,0.1322 -0.094,0.1875 -0.075,0.10571 -0.1574,0.20731 -0.2344,0.3125 -0.073,0.10079 -0.1247,0.19535 -0.2187,0.28125 -0.055,0.0496 -0.21,0.16952 -0.25,0.20312 -0.017,0.0143 -0.029,0.034 -0.047,0.0469 -0.1535,0.11085 -0.3414,0.20109 -0.4844,0.32812 -0.3041,0.27033 0.093,-0.0461 -0.1875,0.14063 -0.075,0.05 -0.1291,0.12037 -0.2031,0.17187 -0.05,0.0348 -0.1092,0.0558 -0.1562,0.0937 -0.01,0.007 -0.01,0.0222 -0.016,0.0312 -0.014,0.0173 -0.03,0.0325 -0.047,0.0469 -0.029,0.0244 -0.067,0.0359 -0.094,0.0625 -0.013,0.0133 -0.018,0.0336 -0.031,0.0469 -0.01,0.009 -0.021,0.008 -0.031,0.0156 -0.01,0.008 -0.01,0.0222 -0.016,0.0312 -0.032,0.0403 -0.075,0.0706 -0.1094,0.10937 -0.035,0.0392 -0.057,0.0882 -0.094,0.125 -0.018,0.0184 -0.043,0.0294 -0.062,0.0469 -0.054,0.0495 -0.099,0.10915 -0.1563,0.15625 -0.046,0.038 -0.097,0.0691 -0.1406,0.10937 -0.024,0.0226 -0.04,0.0534 -0.062,0.0781 -0.083,0.0917 -0.1786,0.1627 -0.2656,0.25 -0.1692,0.16914 -0.2999,0.37799 -0.4688,0.54687 -0.029,0.0287 -0.065,0.0493 -0.094,0.0781 -0.1009,0.10044 -0.075,0.11058 -0.1719,0.23437 -0.023,0.0289 -0.054,0.0504 -0.078,0.0781 -0.073,0.0839 -0.1372,0.19115 -0.2032,0.28125 -0.106,0.14576 -0.1816,0.31485 -0.2968,0.45312 -0.028,0.0339 -0.069,0.057 -0.094,0.0937 -0.086,0.10469 -0.1474,0.22516 -0.2344,0.32813 -0.048,0.0562 -0.1132,0.0967 -0.1562,0.15625 -0.029,0.0397 -0.047,0.0873 -0.078,0.125 -0.021,0.0256 -0.053,0.04 -0.078,0.0625 -0.049,0.0448 -0.096,0.0917 -0.1406,0.14062 -0.048,0.0517 -0.097,0.10155 -0.1406,0.15625 -0.019,0.0237 -0.025,0.0573 -0.047,0.0781 -0.1758,0.16602 -0.4033,0.32523 -0.6094,0.45312 -0.1779,0.11049 -0.3926,0.20078 -0.5625,0.32813 -0.044,0.0333 -0.083,0.0729 -0.125,0.10937 -0.01,0.0104 -0.01,0.0232 -0.016,0.0312 -0.01,0.009 -0.021,0.009 -0.031,0.0156 -0.067,0.0524 -0.1362,0.10285 -0.2032,0.15625 -0.022,0.0184 -0.04,0.0433 -0.062,0.0625 -0.1696,0.1454 -0.35,0.28064 -0.4544,0.48462 -0.031,0.0306 -0.023,0.0382 -0.047,0.0781 -0.01,0.0126 -0.021,0.018 -0.031,0.0312 -0.01,0.0192 -0.01,0.0433 -0.016,0.0625 -0.012,0.0233 -0.034,0.0399 -0.047,0.0625 -0.028,0.0495 -0.065,0.16282 -0.094,0.20312 -0.017,0.024 -0.044,0.0389 -0.062,0.0625 -0.014,0.0186 -0.021,0.0417 -0.031,0.0625 -0.01,0.0157 -0.01,0.0335 -0.016,0.0469 -0.097,0.1367 -0.034,0.0244 -0.078,0.0781 -0.1055,0.12906 -0.2157,0.25236 -0.3281,0.375 -0.04,0.0434 -0.087,0.0797 -0.125,0.125 -0.029,0.0344 -0.049,0.0754 -0.078,0.10938 -0.067,0.078 -0.1508,0.14145 -0.2188,0.21875 -0.01,0.009 -0.01,0.0232 -0.016,0.0312 -0.055,0.0548 -0.1119,0.10665 -0.1719,0.15625 -0.063,0.0525 -0.1411,0.10045 -0.2031,0.15625 -0.027,0.0246 -0.049,0.0551 -0.078,0.0781 -0.064,0.0514 -0.1541,0.0668 -0.2031,0.14063 -0.108,0.0913 -0.1945,0.20005 -0.3125,0.28125 -0.062,0.0426 -0.1255,0.0833 -0.1875,0.125 -0.016,0.0157 -0.03,0.0333 -0.047,0.0469 -0.1224,0.0952 -0.2624,0.1645 -0.3906,0.25 -0.071,0.0474 -0.1332,0.10765 -0.2032,0.15625 -0.07,0.0485 -0.1517,0.0883 -0.2187,0.14063 -0.07,0.0544 -0.1281,0.12187 -0.2031,0.17187 -0.09,0.0599 -0.1807,0.12 -0.2657,0.1875 -0.1619,0.12953 -0.3342,0.25067 -0.5,0.375 -0.062,0.0469 -0.1355,0.0798 -0.1875,0.14063 -0.01,0.008 0,0.0208 0,0.0312 -0.078,0.0781 -0.1563,0.15627 -0.2343,0.23437 -0.039,0.0351 -0.085,0.0601 -0.125,0.0937 -0.1362,0.11521 -0.2495,0.24948 -0.375,0.375 -0.029,0.0287 -0.065,0.0493 -0.094,0.0781 -0.059,0.059 -0.1441,0.15145 -0.2031,0.21875 -0.16,0.18285 -0.3215,0.38899 -0.4531,0.59375 -0.01,0.0139 -0.01,0.0337 -0.016,0.0469 -0.031,0.0413 -0.079,0.0674 -0.1093,0.10938 -0.057,0.0797 -0.1129,0.15547 -0.1719,0.23437 -0.042,0.0561 -0.098,0.10075 -0.1406,0.15625 -0.019,0.0241 -0.027,0.0552 -0.047,0.0781 -0.017,0.0196 -0.044,0.0285 -0.062,0.0469 -0.081,0.0805 -0.1205,0.19185 -0.1875,0.28125 -0.013,0.0177 -0.033,0.0296 -0.047,0.0469 -0.039,0.0479 -0.064,0.11727 -0.094,0.17187 -0.01,0.0154 -0.1094,0.21375 -0.1094,0.21875 -0.1617,0.40391 0.054,-0.0736 -0.047,0.20313 -0.033,0.0915 -0.091,0.17382 -0.125,0.26562 -0.076,0.2022 -0.1454,0.41294 -0.2344,0.60938 -0.046,0.10122 -0.1301,0.19725 -0.2031,0.28125 -0.015,0.0167 -0.035,0.0285 -0.047,0.0469 -0.01,0.0137 -0.01,0.0339 -0.016,0.0469 -0.027,0.0348 -0.065,0.0607 -0.094,0.0937 -0.012,0.0141 -0.018,0.0336 -0.031,0.0469 -0.018,0.0184 -0.045,0.0271 -0.062,0.0469 -0.015,0.0177 -0.016,0.0448 -0.031,0.0625 -0.017,0.0198 -0.041,0.0313 -0.062,0.0469 -0.01,0.0104 -0.021,0.0199 -0.031,0.0312 -0.017,0.02 -0.027,0.0462 -0.047,0.0625 -0.01,0.007 -0.021,-0.006 -0.031,0 -0.06,0.0402 -0.069,0.0707 -0.125,0.10938 -0.1459,0.10099 -0.3038,0.18525 -0.4531,0.28125 -0.075,0.0485 -0.1418,0.11015 -0.2188,0.15625 -0.083,0.0496 -0.1876,0.0819 -0.2656,0.14062 -0.011,0.009 -0.018,0.0242 -0.031,0.0312 -0.095,0.0528 -0.2028,0.0842 -0.2968,0.14063 -0.022,0.0134 -0.038,0.0363 -0.062,0.0469 -0.024,0.0106 -0.053,0.006 -0.078,0.0156 -0.043,0.0167 -0.082,0.0452 -0.125,0.0625 -0.01,0.004 -0.021,-10e-4 -0.031,0 -0.1307,0.0163 -0.086,0.0107 -0.2207,0.094 0,0.0514 -0.1016,0.16432 -0.1406,0.20312 -0.013,0.0132 -0.035,0.0169 -0.047,0.0312 -0.02,0.023 -0.03,0.0528 -0.047,0.0781 -0.05,0.0758 -0.3505,0.28185 -0.4375,0.34375 -0.051,0.0368 -0.048,0.032 -0.1094,0.0625 -0.072,0.0477 -0.1341,0.10465 -0.2031,0.15625 -0.01,0.007 -0.021,0.008 -0.031,0.0156 v 0.0156 c -0.018,0.0184 -0.044,0.0285 -0.062,0.0469 -0.021,0.0207 -0.066,0.11273 -0.078,0.14063 -0.01,0.0197 0,0.045 -0.016,0.0625 -0.015,0.0212 -0.041,0.0313 -0.062,0.0469 0,0 -0.016,-0.004 -0.016,0 -0.01,0.008 -0.01,0.0232 -0.016,0.0312 -0.01,0.009 -0.021,0.01 -0.031,0.0156 -0.024,0.0163 -0.039,0.0436 -0.062,0.0625 -0.063,0.0523 -0.1322,0.0999 -0.2032,0.14062 -0.05,0.0286 -0.1062,0.0689 -0.1562,0.0937 -0.1971,0.0986 -0.2691,0.0973 -0.4219,0.25 -0.02,0.0208 -0.052,0.0345 -0.062,0.0625 -0.018,0.0542 0,0.1918 0,0.25 v 0.67188 c 0,0.21632 -0.013,0.40935 -0.031,0.625 -0.01,0.10846 0.014,0.22027 0,0.32812 -0.018,0.14041 -0.014,-0.0237 -0.047,0.14063 -0.021,0.10349 0,0.26393 0,0.375 0,0.0588 0.01,0.1826 0,0.25 -0.026,0.1909 -0.016,-0.15823 -0.016,0.125 v 0.92187 c 0,0.19713 0.028,0.42146 -0.047,0.60938 -0.059,0.14858 -0.1639,0.31632 -0.3125,0.39062 -0.01,0.005 -0.021,-0.005 -0.031,0 -0.013,0.006 -0.018,0.0242 -0.031,0.0312 -0.084,0.0423 -0.035,0.004 -0.094,0.0156 -0.03,0.006 -0.1226,0.052 -0.1406,0.0625 -0.123,0.0707 -0.047,0.17287 -0.078,0.23437 -0.029,0.0585 -0.056,0.0902 -0.078,0.15625 -0.01,0.0312 -0.021,0.0617 -0.031,0.0937 0,0.0152 0.01,0.0339 0,0.0469 -0.014,0.0217 -0.044,0.0285 -0.062,0.0469 -0.077,0.0774 -0.049,0.0717 -0.1094,0.15625 -0.042,0.0585 -0.2352,0.2131 -0.2812,0.25 -0.067,0.0538 -0.1518,0.0869 -0.2188,0.14063 -0.094,0.0754 -0.1417,0.14427 -0.2187,0.23437 -0.048,0.0557 -0.099,0.0933 -0.1406,0.15625 -0.045,0.0666 -0.1197,0.20665 -0.1407,0.28125 -0.016,0.0572 0,0.39345 0,0.46875 0,0.47293 -0.015,0.9512 0.016,1.42205 v 0.54687 c 0,0.0976 -0.01,0.19968 0,0.29688 0,0.0367 0.016,0.0727 0.016,0.10937 0.011,0.15452 0,0.31386 0,0.46875 0,0.37557 0,0.75032 0.016,1.125 0.01,0.15154 0.01,0.30135 0.016,0.45313 0.01,0.11196 0.026,0.12021 0.047,0.23437 0.013,0.0724 0.019,0.14605 0.031,0.21875 0.027,0.16336 0.041,0.33121 0.1093,0.48438 0.1359,0.30565 0.3646,0.58743 0.5782,0.84375 0.012,0.0145 0.018,0.0336 0.031,0.0469 0.034,0.0339 0.075,0.0597 0.1094,0.0937 0.064,0.0643 0.1155,0.14513 0.1875,0.20313 0.089,0.0714 0.2029,0.13752 0.2969,0.20312 0.1101,0.0771 0.2224,0.15138 0.3281,0.23438 0.023,0.0182 0.039,0.0438 0.062,0.0625 0.034,0.0283 0.076,0.0481 0.1094,0.0781 0.02,0.0174 0.029,0.0441 0.047,0.0625 0.01,0.009 0.021,0.008 0.031,0.0156 0.053,0.053 0.1309,0.15465 0.1719,0.21875 0.012,0.0196 0.017,0.0435 0.031,0.0625 0.1364,0.19137 -0.061,-0.13368 0.1094,0.10937 0.02,0.0286 0.028,0.0641 0.047,0.0937 0.01,0.0124 0.021,0.019 0.031,0.0312 0.078,0.1164 0.2569,0.40832 0.2969,0.54688 0.033,0.11702 -0.019,0.21393 0.077,0.31273 0.017,0 0.032,0.0577 0.047,0.0781 0.01,0.006 0.01,0.0106 0.016,0.0156 0.026,0.0521 0.052,0.10415 0.078,0.15625 0.073,0.1586 0.1062,0.16288 0.2032,0.28125 0.101,0.12357 -0.017,0.0406 0.125,0.17187 0.038,0.0353 0.088,0.0569 0.125,0.0937 0.022,0.0215 0.027,0.0555 0.047,0.0781 0.028,0.0302 0.065,0.0493 0.094,0.0781 0.034,0.034 0.058,0.0773 0.094,0.10938 0.017,0.0155 0.046,0.0147 0.062,0.0312 0.016,0.0165 0.018,0.0431 0.031,0.0625 0.018,0.0277 0.044,0.0504 0.062,0.0781 0.044,0.0646 0.1406,0.32413 0.1406,0.39063 0.01,0.11155 0,0.2314 0,0.34375 0,0.11346 0.011,0.23145 0,0.34375 -0.026,0.26006 -0.069,0.52334 -0.1094,0.78125 -0.025,0.16093 -0.068,0.31981 -0.078,0.48437 -0.02,0.31388 0,0.63829 0,0.95313 0,0.25346 -0.016,0.51297 0,0.76562 0.013,0.2137 0.036,0.42681 0.047,0.64063 0.02,0.38447 0.01,0.77257 0.047,1.15625 0.013,0.13049 0.031,0.26042 0.047,0.39062 0.01,0.0157 0.016,0.0306 0.016,0.0469 0.02,0.16196 0.012,0.32233 0.031,0.48437 0.012,0.10848 0.021,0.0528 0.031,0.17188 0.012,0.16051 -0.012,0.32379 0,0.48437 0,0.0522 0.01,0.10415 0.016,0.15625 0.01,0.026 0.016,0.0517 0.016,0.0781 0,0.088 -0.016,0.17909 0.014,0.26579 0,0.0349 -0.021,0.0606 -0.031,0.0937 -0.01,0.0365 0,0.0729 0,0.10938 -0.027,0.21913 -0.1114,0.4405 -0.2344,0.625 -0.033,0.049 -0.088,0.079 -0.125,0.125 -0.014,0.0182 -0.018,0.0434 -0.031,0.0625 -0.033,0.0488 -0.075,0.0918 -0.1094,0.14062 -0.013,0.0191 -0.017,0.0437 -0.031,0.0625 -0.029,0.0389 -0.063,0.0729 -0.094,0.10938 -0.01,0.005 -0.021,0.007 -0.031,0.0156 -0.045,0.0494 -0.08,0.10725 -0.125,0.15625 -0.052,0.0561 -0.1305,0.0901 -0.1875,0.14063 -0.071,0.0632 -0.1301,0.14222 -0.2031,0.20312 -0.051,0.0427 -0.1072,0.0796 -0.1562,0.125 -0.082,0.0766 -0.1388,0.18563 -0.2188,0.26563 -0.013,0.0132 -0.034,0.0172 -0.047,0.0312 -0.042,0.0475 -0.064,0.11125 -0.1093,0.15625 -0.018,0.0184 -0.043,0.0292 -0.062,0.0469 -0.097,0.0898 -0.1833,0.19235 -0.2813,0.28125 -0.055,0.0498 -0.1209,0.0866 -0.1719,0.14063 -0.056,0.0593 -0.1002,0.1283 -0.1562,0.1875 -0.1098,0.11668 -0.2501,0.21046 -0.3594,0.32812 -0.025,0.0275 -0.039,0.0637 -0.062,0.0937 -0.096,0.12793 -0.2114,0.25049 -0.3281,0.35938 -0.3805,0.35519 0.1213,-0.11874 -0.3125,0.25 -0.051,0.0429 -0.093,0.0954 -0.1406,0.14062 -0.03,0.0277 -0.069,0.046 -0.094,0.0781 -0.049,0.0628 -0.083,0.13542 -0.1254,0.20312 l 0.6046,7.20766 -438.30647,-0.56174 c -0.1387,-0.95668 0.0799,-2.51567 -0.1387,-3.38997 -0.29895,-1.19588 -0.003,-0.003 -0.3551,-0.35508 -0.0888,-0.0888 0.0888,-0.44385 0,-0.53263 -0.0418,-0.0419 -0.15112,0.0529 -0.17753,0 -0.0529,-0.10587 0.0529,-0.24923 0,-0.35508 -0.0529,-0.10587 -0.30217,0.10585 -0.3551,0 -0.0529,-0.10587 0.0375,-0.2428 0,-0.3551 -0.0675,-0.20242 -0.46209,-0.21128 -0.35508,-0.53263 -0.0287,-0.11482 0.95844,-0.39296 0.89784,-0.49401 -0.12862,-0.21437 -0.40171,-0.31596 -0.53033,-0.53033 -0.0606,-0.10106 0.0654,-0.25546 0,-0.35356 -0.0731,-0.10967 -0.27455,-0.0714 -0.35355,-0.17677 -0.24207,-0.32275 -0.40467,-1.03722 -0.53033,-1.41422 -0.0672,-0.20155 -0.31186,-0.32199 -0.35356,-0.53033 -0.0462,-0.23112 0.0462,-0.47598 0,-0.7071 -0.0409,-0.20443 -0.46383,-0.33091 -0.53033,-0.53033 -0.0373,-0.11181 0.0286,-0.23922 0,-0.35356 -0.11512,-0.46049 -0.53837,-0.81561 -0.7071,-1.23743 -0.0976,-0.24396 -0.0363,-0.84994 -0.17678,-1.06066 -0.2011,-0.30165 -0.55145,-0.21902 -0.70711,-0.53033 -0.099,-0.19798 -0.0834,-0.52022 -0.17677,-0.70711 -0.0527,-0.10541 -0.27026,0.0833 -0.35356,0 -0.0833,-0.0833 0.0833,-0.27025 0,-0.35355 -0.0417,-0.0417 -0.12407,0.0264 -0.17677,0 -0.23677,-0.11839 -0.24495,-0.42173 -0.35356,-0.53033 -0.6434,-0.6434 -0.12421,0.18794 -0.53033,-0.35356 -0.25495,-0.33993 -0.40664,-0.76019 -0.7071,-1.06066 -0.21532,-0.21531 -0.39496,-0.0828 -0.53033,-0.35355 -0.11858,-0.23711 -0.0654,-0.66101 -0.17678,-0.88388 -0.26566,-0.53131 -0.44145,-1.23646 -0.70711,-1.76777 -0.0943,-0.18856 0.0943,-0.51855 0,-0.70711 -0.23872,-0.47745 -0.80588,-0.72781 -0.88388,-0.88388 -0.12188,-0.24384 0.21409,-0.15812 -0.17678,-0.35355 -0.0527,-0.0264 -0.13507,0.0417 -0.17677,0 -0.0417,-0.0417 0.0417,-0.13508 0,-0.17678 -0.0934,-0.0934 -0.79049,-0.43693 -0.88389,-0.53033 -0.0932,-0.0932 -0.0671,-0.28045 -0.17677,-0.35355 -0.0981,-0.0654 -0.24815,0.0527 -0.35356,0 -0.0527,-0.0264 0.0417,-0.13508 0,-0.17678 -0.15023,-0.15023 -0.3403,-0.25855 -0.53033,-0.35355 -0.22088,-0.11045 -1.07042,-0.18655 -1.23744,-0.35356 -0.0417,-0.0417 0.0417,-0.13507 0,-0.17677 -0.0496,-0.0496 -0.6103,-0.32126 -0.7071,-0.35356 -0.16771,-0.0559 -0.40533,0.125 -0.53033,0 -0.0833,-0.0833 0.0833,-0.27025 0,-0.35355 -0.0833,-0.0833 -0.24175,0.0373 -0.35356,0 -0.51758,-0.17253 -0.95272,-0.47637 -1.41421,-0.70711 -0.21731,-0.10867 -0.53531,-0.005 -0.70711,-0.17677 -0.0417,-0.0417 0,-0.11788 0,-0.17678 l -0.35355,-0.35355 c -0.10607,-0.0707 -0.44193,0.0884 -0.53033,0 -0.0932,-0.0932 -0.0836,-0.26036 -0.17678,-0.35356 -0.12963,-0.12963 -0.80568,-0.45213 -0.88388,-0.53033 -0.0932,-0.0932 -0.0671,-0.28045 -0.17678,-0.35355 -0.098,-0.0654 -0.27025,0.0833 -0.35355,0 -0.0833,-0.0833 0.0654,-0.25546 0,-0.35356 -0.34496,-0.51743 -0.24921,-0.0362 -0.53033,-0.17677 -0.0745,-0.0373 -0.11788,-0.11788 -0.17678,-0.17678 0,-0.0589 0.0527,-0.15038 0,-0.17678 -0.15811,-0.0791 -0.40533,0.125 -0.53033,0 -0.0417,-0.0417 0.0417,-0.13507 0,-0.17677 -0.048,-0.048 -0.6177,-0.10978 -0.7071,-0.17678 -0.26667,-0.2 -0.44044,-0.50711 -0.70711,-0.70711 -0.37505,-0.28128 -0.85723,-0.517 -1.23744,-0.7071 -0.95871,-0.47936 -1.73006,-1.44604 -2.29809,-2.2981 -0.0731,-0.10963 -0.11788,-0.2357 -0.17678,-0.35355 0,-0.11785 0.0527,-0.24815 0,-0.35356 -0.0263,-0.0527 -0.13508,0.0417 -0.17678,0 -0.058,-0.058 -0.28755,-0.57518 -0.35355,-0.7071 -0.14142,-0.28285 0.14142,-0.77782 0,-1.06066 -0.1118,-0.22361 -0.38033,-0.33033 -0.53033,-0.53033 -0.14142,-0.18856 0,-0.47141 0,-0.70711 0,-0.49438 -0.22597,-1.66938 0,-2.12132 0.19848,-0.39694 0.0497,-0.50262 0.17678,-0.88388 0.15722,-0.47167 0.42285,-0.5233 0.53033,-1.06066 0.068,-0.33996 -0.068,-0.72071 0,-1.06066 0.21254,-1.06272 0.49403,-2.11663 0.7071,-3.18198 0.0365,-0.18272 0.11788,-0.35356 0.17678,-0.53033 0.0589,-0.0589 0.15038,-0.0977 0.17678,-0.17678 0.17793,-0.53381 0.21618,-1.21831 0.35355,-1.76777 0.21341,-0.85364 0.084,0.009 0.35355,-0.53033 0.30109,-0.60218 0.70711,-1.2298 0.70711,-1.94454 0,-1.38312 0.17048,-2.87877 0,-4.24264 -0.0231,-0.1849 -0.14018,-0.34761 -0.17678,-0.53033 -0.15957,-0.79775 -0.97927,-1.95353 -1.17347,-2.73036 -0.60635,-2.42542 -0.57302,-4.93985 -0.76565,-7.19604 3.86374,0.25876 7.67723,0.53818 11.59578,0.53818 0.67641,0 3.35277,0.42521 3.9883,0.10745 0.89926,-0.44963 1.89245,-1.22244 2.76213,-1.65728 0.5288,-0.2644 0.53562,-1.09646 1.10486,-1.38107 0.0824,-0.0412 0.23504,0.0824 0.27621,0 0.0824,-0.1647 -0.0582,-0.37774 0,-0.55243 0.10907,-0.32719 0.67335,-0.51805 0.82864,-0.82864 0.34789,-0.69578 -1.04908,0.23903 0.55243,-0.82864 0.8378,-0.55854 2.2451,-1.02458 3.31456,-1.38107 0.58189,-0.19396 1.34529,-0.0801 1.9335,-0.27621 0.31493,-0.10498 0.52042,-0.42914 0.82864,-0.55243 0.35247,-0.14099 0.83642,-0.008 1.10485,-0.27621 0.0651,-0.0651 -0.0873,-0.2471 0,-0.27622 0.26204,-0.0873 0.57219,0.10259 0.82864,0 0.2418,-0.0967 0.3441,-0.39617 0.55243,-0.55242 0.87185,-0.65389 0.34485,0.20757 1.38107,-0.82865 0.1697,-0.16969 -0.68645,-0.79461 -0.3149,-0.98039 0.28614,-0.14307 0.63643,-0.16321 0.83223,-0.55481 0.0414,-0.0828 0,-0.18495 0,-0.27742 0.0925,-0.18494 0.15335,-0.3894 0.27741,-0.55482 0.18494,-0.18494 0.36989,-0.36988 0.55483,-0.55482 0.0925,0 0.21202,0.0654 0.2774,0 0.14621,-0.14621 0.112,-0.43076 0.27742,-0.55483 0.23393,-0.17544 0.58892,-0.1152 0.83223,-0.2774 0.55482,-0.36989 -0.64729,-0.27742 0.55482,-0.69354 0.68751,0.004 2.32747,2.11665 3.05152,2.358 0.17546,0.0584 1.24371,0.0461 1.39102,0.15654 0.26557,0.19918 0.31769,0.5939 0.55243,0.82864 0.20576,0.20576 0.94878,0.39636 1.10485,0.55243 0.14558,0.14557 0.13064,0.40685 0.27622,0.55242 0.18319,0.1832 2.64536,0.90836 3.03834,1.10486 0.0824,0.0412 -0.0651,0.21111 0,0.27621 0.46185,0.46185 1.39275,0.37218 1.9335,0.55243 0.42835,0.14278 0.94289,0.65337 1.38107,0.82864 1.38107,0.55243 0,-0.27621 0.82864,0 1.02229,0.34077 1.86811,0.32892 2.76213,0.55243 0.49993,-0.16648 0.51371,0.44745 0.82865,0.55242 0.49718,0.16573 1.16009,-0.16572 1.65728,0 0.71109,0.23704 1.45233,0.8524 2.20971,1.10486 0.41432,0.13811 0.27621,-0.27621 0.82864,0 0.0824,0.0412 -0.0824,0.23504 0,0.27621 0.1647,0.0824 0.38772,-0.0824 0.55242,0 0.23293,0.11646 0.33575,0.40798 0.55243,0.55243 0.14322,0.0955 0.71728,0.16485 0.82864,0.27621 0.0651,0.0651 -0.0766,0.22515 0,0.27622 0.3426,0.2284 0.73657,0.36828 1.10486,0.55242 0.48145,0.24073 1.13838,0.10325 1.65728,0.27622 0.683,0.22767 1.19405,0.7054 1.93349,0.82864 0.54491,0.0908 1.12135,-0.13398 1.65728,0 0.12632,0.0316 0.15976,0.21798 0.27622,0.27621 0.52987,0.26494 3.80065,0 4.41941,0 0.63064,0 2.69656,0.309 3.31457,0 0.85423,-0.42711 2.05282,-0.94796 2.76213,-1.65728 0.14558,-0.14558 0.13064,-0.40685 0.27622,-0.55243 0.13021,-0.1302 0.47007,0.16471 0.55242,0 0.0824,-0.1647 -0.1302,-0.42222 0,-0.55242 0.13021,-0.13021 0.38773,0.0823 0.55243,0 0.44169,-0.22085 0.69073,-0.82877 1.10486,-1.10486 0.1713,-0.1142 0.40685,-0.13063 0.55242,-0.27621 0.33643,-0.33643 0.12939,-0.61712 0.55243,-0.82864 0.1647,-0.0824 0.38773,0.0824 0.55243,0 1.26412,-0.63206 -1.17209,0.11448 0.82864,-0.55243 0.67016,-0.22339 1.77338,0 2.48592,0 0.44242,0 1.54534,-0.19408 1.9335,0 0.66542,0.33271 1.22767,0.12282 1.65728,0.55243 0.65216,0.65216 -1.54064,-0.14526 0.55242,0.55242 1.22864,0.40955 2.44904,0.25777 3.59078,0.82865 0.24705,0.12352 0.58159,-0.12353 0.82864,0 0.23293,0.11646 0.33575,0.40797 0.55243,0.55242 0.2591,0.17274 0.82118,-0.14183 1.10485,0 0.23293,0.11646 0.31951,0.43597 0.55243,0.55243 0.77999,0.38999 1.94241,0.36023 2.76214,0.82864 0.20378,0.11645 1.16973,0.99651 1.65728,1.10486 0.63554,0.14123 1.29509,0.14853 1.93349,0.27621 0.39991,0.08 0.98117,0.47245 1.38107,0.55243 0.27085,0.0542 0.5666,-0.0874 0.82864,0 0.0874,0.0291 -0.0766,0.22514 0,0.27621 0.50594,0.33729 1.3702,0.4116 1.9335,0.55243 0.63867,0.15967 1.30929,0.7246 1.93349,0.82864 1.0701,0.17835 2.26291,0.0133 3.31456,0.27621 0.39947,0.0999 0.7054,0.45256 1.10486,0.55243 1.81459,0.45365 3.95148,-0.30817 5.80048,0 1.48827,0.24804 2.99614,0.35421 4.41942,0.82864 1.02988,0.34329 2.78815,0 3.86699,0 0.45926,0 1.21067,0.14887 1.65728,0 0.57604,-0.19201 1.07392,-0.66197 1.65729,-0.82864 0.6691,-0.19117 1.86673,-0.36425 2.48592,-0.82864 0.1647,-0.12353 0.10491,-0.43823 0.27621,-0.55243 0.45263,-0.30175 0.82138,0.14355 1.38107,-0.27621 0.20833,-0.15625 0.3195,-0.43597 0.55243,-0.55243 0.59395,-0.29698 1.57165,0.21269 2.20971,0 2.29887,-0.76629 7.58965,-0.27621 10.2199,-0.27621 h 12.1534 c 1.82182,0 4.00851,-0.29867 5.80048,0 1.2022,0.20036 3.45118,1.20731 4.41942,1.93349 0.61019,0.45765 1.22168,1.02516 1.93349,1.38107 0.52196,0.26098 1.13754,0.10296 1.65729,0.27621 0.12352,0.0412 0.14853,0.25068 0.27621,0.27622 0.79677,0.15935 1.68915,-0.15936 2.48592,0 0.40376,0.0808 0.70539,0.45256 1.10486,0.55242 0.33033,0.0826 1.46861,0.18324 1.93349,0.27622 1.06236,0.21247 2.2522,-0.21248 3.31456,0 0.40376,0.0807 0.7054,0.45256 1.10486,0.55242 0.4106,0.10265 1.27133,0.19903 1.65728,0.27622 0.59815,0.11963 1.35862,-0.19163 1.93349,0 0.39063,0.13021 0.71423,0.42222 1.10486,0.55242 0.17469,0.0582 0.36828,0 0.55243,0 0.27621,0.0921 0.55831,0.16809 0.82864,0.27622 0.3823,0.15292 0.70539,0.45256 1.10485,0.55243 0.35729,0.0893 0.76291,-0.13678 1.10486,0 0.49506,0.19802 0.84483,0.69458 1.38106,0.82864 0.35729,0.0893 0.75547,-0.11647 1.10486,0 0.24705,0.0824 0.29978,0.48926 0.55242,0.55242 0.26797,0.067 0.56068,-0.067 0.82865,0 0.1676,0.0419 1.13973,0.51221 1.38106,0.55243 0.36328,0.0606 0.75547,-0.11646 1.10486,0 0.50931,0.16977 0.90088,0.58855 1.38107,0.82864 0.2356,0.1178 2.57695,0.77573 2.76213,0.82864 0.53117,0.15177 1.11237,-0.0908 1.65728,0 1.99875,0.33313 -0.43423,0.13147 0.82864,0.55243 0.1747,0.0582 0.37379,-0.0447 0.55243,0 0.65146,0.16286 1.28204,0.66578 1.9335,0.82864 0.26796,0.067 0.58158,-0.12353 0.82864,0 0.84233,0.42117 -0.50518,0.21897 0.82864,0.55243 1.36589,0.34147 5.87089,0.0515 7.18155,-0.27622 0.72454,-0.18113 2.25166,-1.54015 3.03835,-1.93349 0.61266,-0.30633 1.16216,-0.8573 1.65728,-1.10486 0.26042,-0.1302 0.59572,-0.10152 0.82864,-0.27621 0.1647,-0.12353 0.13064,-0.40685 0.27622,-0.55243 0.84412,-0.84412 2.4809,-1.65226 3.31456,-2.48592 0.0651,-0.0651 0,-0.18414 0,-0.27621 0.0921,-0.0921 0.16787,-0.20399 0.27621,-0.27622 0.3426,-0.2284 0.8137,-0.26127 1.10486,-0.55242 0.0651,-0.0651 -0.0651,-0.21111 0,-0.27622 0.23473,-0.23473 0.5939,-0.31769 0.82864,-0.55242 0.0651,-0.0651 -0.0412,-0.19387 0,-0.27622 0.16255,-0.32509 0.89172,-0.89172 1.10485,-1.10485 0.37469,-0.37469 1.15753,-0.93399 1.38107,-1.38107 0.20996,-0.41991 0.10186,-0.94517 0.27621,-1.38107 0.2855,-0.71373 0.75824,-1.51647 1.10486,-2.20971 0.14846,-0.29692 0.31769,-0.5939 0.55243,-0.82864 0.0651,-0.0651 0.23503,0.0824 0.27621,0 0.0437,-0.0874 0.46484,-1.72912 0.55243,-1.93349 -0.19546,-0.94291 0.80793,-1.06344 1.10485,-1.65728 0.80838,-1.61676 -0.15508,-0.59602 0.55243,-1.65729 0.27621,-0.41432 0.55243,-0.27621 0.82864,-0.82864 0.0823,-0.1647 -0.0684,-0.38145 0,-0.55242 0.63035,-1.57588 0.42646,-0.17454 0.82864,-1.38107 0.22097,-0.66291 -0.22097,-1.5468 0,-2.20971 0.0412,-0.12353 0.23504,-0.15269 0.27621,-0.27621 0.0582,-0.1747 -0.0824,-0.38773 0,-0.55243 0.0412,-0.0824 0.23504,0.0824 0.27622,0 0.43759,-0.87519 -0.5716,-0.25704 0.27621,-1.10485 0.14558,-0.14558 0.36828,-0.18415 0.55243,-0.27622 0.0921,-0.27621 0.11471,-0.58638 0.27621,-0.82864 0.0511,-0.0766 0.23504,0.0824 0.27621,0 0.0824,-0.1647 -0.10214,-0.39921 0,-0.55243 0.1142,-0.1713 0.40685,-0.13063 0.55243,-0.27621 0.14558,-0.14558 0.13064,-0.40685 0.27622,-0.55243 0.0651,-0.0651 0.2111,0.0651 0.27621,0 0.28434,-0.28434 0.26808,-0.54429 0.55243,-0.82864 0.32552,-0.32552 0.77933,-0.50312 1.10485,-0.82864 0.0509,-0.0509 0.22532,-0.77774 0.27621,-0.82864 0.51796,-0.51796 1.30845,-0.96437 1.9335,-1.38107 0.4179,-0.2786 0.70645,-0.80605 1.10485,-1.10485 0.16471,-0.12353 0.40685,-0.13064 0.55243,-0.27622 1.0872,-1.0872 0.0115,-0.56105 1.10485,-1.38106 2.21326,-1.65995 5.33015,-3.74941 8.0102,-4.41942 0.72761,-0.1819 1.20589,-0.92295 1.93349,-1.10486 0.17865,-0.0447 0.38146,0.0684 0.55243,0 0.42743,-0.17097 0.65344,-0.73835 1.10486,-0.82864 0.45141,-0.0903 0.94433,0.14558 1.38106,0 0.53246,-0.17748 1.91398,-0.53291 2.20971,-0.82864 0.5715,-0.57149 -0.87332,0.0223 0.27622,-0.55242 0.4185,-0.20926 1.10485,-0.4871 0.82863,-1.10486 2.29819,0.0752 4.88563,-0.12248 7.45777,0 z"
         id="path102" />
    </g>
  </g>
</svg>
