<?xml version="1.0" encoding="UTF-8" standalone="no"?>
<!-- Created with Inkscape (http://www.inkscape.org/) -->

<svg
   version="1.1"
   id="svg1"
   width="487.72687"
   height="100.36495"
   viewBox="0 0 487.72687 100.36495"
   xmlns="http://www.w3.org/2000/svg"
   xmlns:svg="http://www.w3.org/2000/svg">
  <defs
     id="defs1" />
  <g
     id="layer1"
     style="display:inline"
     transform="translate(-583.67244,-734.37458)">
    <g
       id="layer12"
       style="display:inline;fill:#ffffff;fill-opacity:1;stroke:none">
      <path
         style="fill:#ffffff;fill-opacity:1;stroke:none;stroke-width:1;stroke-linecap:round;stroke-dasharray:none;stroke-opacity:1"
         d="m 609.96797,834.73953 0.13258,-5.78943 -2.74003,-3.84489 -1.81197,-4.77298 -2.961,-3.04939 -1.63519,-3.8007 -6.54074,-5.61266 -5.96621,-1.41422 -4.77297,-3.93328 2.03293,-31.59883 10.69499,0.79549 4.99394,-1.14904 13.74439,-9.72272 3.53553,-4.11006 2.96101,4.28683 3.88909,0.88389 10.73918,5.39169 7.42463,0.79549 6.54073,2.56326 5.70105,-0.92807 6.23138,-5.08233 9.54594,-0.39775 6.31977,1.23744 5.78943,4.06586 20.41771,3.93328 15.51216,-2.82843 25.63262,0.0884 8.92722,5.08233 10.16466,0.35356 8.57367,1.28163 9.28078,2.60745 6.58493,3.22618 14.23052,-5.52427 8.3527,-7.07107 3.35876,-4.72878 3.09359,-10.56241 9.72272,-9.89949 3.27037,-0.22097 9.98788,-8.17592 12.9047,0.39774 10.65079,-3.13778 13.30245,0.13258 5.70105,2.2981 5.3033,4.72877 1.54679,2.96101 4.02167,1.59099 14.23053,1.23744 9.01561,0.39775 7.73398,3.7565 10.47402,10.6066 15.20279,-0.48613 2.38649,-1.59099 4.64039,-0.13258 2.07712,-1.76777 14.18633,-0.66291 21.12482,14.58407 4.02167,6.93849 9.23658,1.76777 9.4576,-2.12132 20.506,-11.53468 12.2418,-0.7513 13.1257,7.33623 4.4636,-0.53033 2.9168,2.20971 -18.5173,20.15254 -3.8891,1.67938 -0.7955,5.08233 -1.9004,2.34229 0.442,6.14299 3.5797,4.37522 0.2652,5.87783 -1.4584,3.71231 -1.8562,2.78423 -0.9281,6.89429 z"
         id="path10" />
    </g>
  </g>
</svg>
