<?xml version="1.0" encoding="UTF-8" standalone="no"?>
<!-- Created with Inkscape (http://www.inkscape.org/) -->

<svg
   version="1.1"
   id="svg1"
   width="226.43748"
   height="126.375"
   viewBox="0 0 226.43748 126.375"
   xmlns="http://www.w3.org/2000/svg"
   xmlns:svg="http://www.w3.org/2000/svg">
  <defs
     id="defs1" />
  <g
     id="layer1"
     style="display:inline"
     transform="translate(-155.5625,-323.06249)">
    <g
       id="layer13"
       style="display:inline;fill:#ffffff;fill-opacity:1;stroke:none">
      <path
         style="fill:#ffffff;fill-opacity:1;stroke:none;stroke-width:1;stroke-linecap:round;stroke-dasharray:none;stroke-opacity:1"
         d="m 178.5,370.37499 -1.1875,2.5 -4.4375,4.5 -3,1 -4.75,6.25 -5,2.5 -3.5,11.625 -1.0625,5.25 5.125,3.3125 5.8125,1.3125 6.25,2.875 18.125,15.5625 6.8125,8.0625 0.9375,10.25 -0.125,4.0625 3.56249,-4 19.0625,-3.9375 91,-2.5 10.625,-2.9375 4.875,2.3125 8.125,2 11.1875,2.0625 -3.0625,-24.3125 5.75,-18.5625 6.375,-12.9375 7.25,-7.9375 13.3125,-11.875 2.8125,-5.375 -0.6875,-8.6875 2,-6.75 1.3125,-4.4375 -0.0625,-5.25 -2.1875,-8.625 -2.625,-3.5 -4.1875,-1.125 -17.0625,4.3125 -41.5625,0.625 -12.3125,-1.0625 -2,-3.6875 -10.75,18.125 -10.3125,9.375 -20.375,9.4375 -11,2.5625 -7,4.5625 -31.0625,4.4375 -9.43749,2.4375 z"
         id="path11" />
    </g>
  </g>
</svg>
