<?xml version="1.0" encoding="UTF-8" standalone="no"?>
<!-- Created with Inkscape (http://www.inkscape.org/) -->

<svg
   version="1.1"
   id="svg2"
   width="227.16394"
   height="127.01524"
   viewBox="0 0 227.16394 127.01524"
   xmlns="http://www.w3.org/2000/svg"
   xmlns:svg="http://www.w3.org/2000/svg">
  <defs
     id="defs6">
    <linearGradient
       id="swatch77">
      <stop
         style="stop-color:#e2c69e;stop-opacity:1;"
         offset="0"
         id="stop77" />
    </linearGradient>
  </defs>
  <g
     id="layer66"
     style="display:inline"
     transform="translate(-156.02332,-322.16265)">
    <g
       id="layer24"
       style="display:inline">
      <path
         style="display:inline;fill:#969696;fill-opacity:1;stroke:none;stroke-width:0.942562;stroke-opacity:1"
         d="m 200.11122,448.74764 c 0.60047,-0.3753 0.93725,-0.72545 1.23744,-1.32583 0.0297,-0.0595 0.24311,-0.33169 0.26516,-0.44194 0.0231,-0.11556 -0.0527,-0.24814 0,-0.35355 0.0601,-0.12013 0.2051,-0.23342 0.26517,-0.35355 0.11306,-0.22614 0.20405,-0.48286 0.35355,-0.70711 0.0517,-0.0775 0.0225,-0.19928 0.0884,-0.26517 0.0481,-0.0481 1.36747,0 1.59099,0 h 4.5078 c 0.54386,0 1.23234,0.10709 1.76777,0 0.63524,-0.12704 1.18205,-0.56121 1.76777,-0.79549 0.13948,-0.0558 0.30517,-0.0262 0.44194,-0.0884 0.19341,-0.0879 0.3403,-0.25854 0.53033,-0.35355 0.19185,-0.0959 0.41788,-0.10147 0.61872,-0.17678 0.32016,-0.12006 0.64669,-0.34892 0.97227,-0.44194 0.30795,-0.088 0.7972,-0.10492 1.06066,-0.17678 0.24286,-0.0662 0.46651,-0.19113 0.70711,-0.26516 0.14358,-0.0442 0.29942,-0.0409 0.44194,-0.0884 0.38931,-0.12977 0.76803,-0.28954 1.14905,-0.44194 0.13258,-0.053 0.44194,-0.24749 0.53033,-0.26517 0.4055,-0.0811 0.82953,-0.0204 1.23743,-0.0884 0.35451,-0.0591 0.70936,-0.21498 1.06066,-0.26516 1.19704,-0.17101 2.4153,-0.30765 3.62393,-0.44194 0.3431,-0.0381 0.71573,0 1.06066,0 1.05483,0 2.13157,0.0584 3.18198,0 0.62056,-0.0345 1.23549,-0.14411 1.85615,-0.17678 0.84869,-0.0447 1.71294,0 2.56326,0 h 4.77297 c 0.75949,0 1.63134,0.0944 2.38649,0 0.27008,0.72602 0.47367,-0.1526 0.61872,-0.17678 0.14531,-0.0242 0.29506,0.0113 0.44194,0 0.40633,-0.0312 0.83111,-0.14552 1.23744,-0.17677 1.37095,-0.10546 -0.035,0.0911 1.14905,0 1.27763,-0.0983 2.71217,-0.49623 3.97747,-0.70711 0.43075,-0.19626 0.88679,-0.0299 1.32583,-0.0884 0.4122,0.14958 0.70046,-0.20975 1.06066,-0.26516 0.46955,-0.0722 0.94149,-0.12951 1.41421,-0.17678 1.14526,-0.11453 2.38061,0 3.53553,0 h 7.07107 c 1.11482,0 2.24587,0.0464 3.35876,0 0.5624,-0.0234 1.11719,-0.14867 1.67938,-0.17678 0.38254,-0.0191 0.76988,0.0542 1.14905,0 0.67009,-0.0957 1.3508,-0.11993 2.03293,-0.17677 0.48723,-0.0406 1.01927,0 1.5026,0 h 3.53553 9.63433 6.80591 c 1.06254,0 2.20962,-0.10608 3.27037,0 0.33525,-0.28627 0.46563,0.14994 0.7071,0.17677 0.20498,0.0228 0.4135,-0.0205 0.61872,0 0.28939,0.0289 0.59859,0.10546 0.88388,0.17678 0.25592,0.064 0.61909,0 0.83969,-0.0884 1.78249,-0.11787 3.61006,-0.11307 5.43588,-0.17677 0.64175,-0.0224 1.84022,-0.10288 2.65165,-0.26517 0.65135,-0.13027 1.28883,-0.33266 1.94454,-0.44194 0.45916,-0.0765 0.96271,-0.0865 1.41421,-0.17678 0.3925,-0.0785 0.75353,-0.21243 1.14905,-0.26516 0.29956,-0.0399 1.24685,-0.0239 1.59099,-0.0884 0.65635,-0.12307 1.2792,-0.35878 1.94455,-0.44194 0.56441,-0.0705 -0.0654,0.15758 0.79549,-0.0884 0.0401,-0.0114 0.0589,-0.0589 0.0884,-0.0884 0.11785,-0.0589 0.22643,-0.14211 0.35355,-0.17678 0.201,-0.0548 0.41535,-0.0432 0.61872,-0.0884 0.29799,-0.0662 0.57018,-0.31434 0.88389,-0.35355 0.20464,-0.0256 0.42041,0.0567 0.61871,0 0.15256,-0.0436 0.28802,-0.13829 0.44195,-0.17678 0.27468,-0.0687 0.80542,0 1.06066,0 h 2.82842 c 0.41965,0 2.12864,-0.11541 2.47488,0 0.0395,0.0132 0.0489,0.0752 0.0884,0.0884 0.0559,0.0186 0.12407,-0.0263 0.17677,0 0.0264,0.0132 -0.0208,0.0676 0,0.0884 0.0323,0.0323 0.33007,-0.009 0.35356,0 0.0986,0.0395 0.16653,0.13733 0.26516,0.17678 0.0547,0.0219 0.11785,0 0.17678,0 0.26516,0.11785 0.53595,0.22378 0.79549,0.35355 0.215,0.1075 0.45818,0.29132 0.70711,0.35355 0.0572,0.0143 0.12261,-0.0232 0.17678,0 0.32064,0.13743 0.62661,0.43158 0.97227,0.53033 0.49298,0.14086 0.83079,0.25631 1.32582,0.44195 0.0276,0.0103 0.0589,0 0.0884,0 0.0884,0.0295 0.18183,0.0467 0.26517,0.0884 0.89083,0.44541 2.11065,1.04085 3.09359,1.23743 0.24694,0.20901 0.53388,0.0361 0.79549,0.0884 0.55875,0.11175 -0.30806,0.0934 0.44194,0.17678 0.85677,0.0952 2.08562,0.1319 2.91682,0.35355 0.27007,0.072 0.53598,0.16136 0.7955,0.26517 0.38762,0.15505 -0.47295,0.0735 0.35355,0.17677 0.58295,0.0729 1.18782,-0.008 1.76777,0.0884 0.065,0.0108 0.11179,0.0776 0.17677,0.0884 0.11625,0.0194 0.23731,-0.0194 0.35356,0 0.34179,0.057 0.69884,0.22898 1.06066,0.26516 0.9634,0.0963 -0.15762,-0.2083 1.32582,0.0884 0.0289,0.006 -0.0245,0.072 0,0.0884 0.12779,0.0852 0.5579,0.15191 0.70711,0.17678 0.33957,0.0566 0.72742,0.005 1.06066,0.0884 0.10306,0.0258 0.161,0.15594 0.26516,0.17677 0.17032,0.0341 1.7156,0.0469 1.85616,0 0.0646,-0.0215 0.22471,-0.0959 0.26516,-0.17677 0.0274,-0.0549 0,-0.31424 -0.39776,-0.53035 -0.30936,-0.6482 -0.20042,-1.11621 -0.1326,-1.591 0.12175,-0.85223 0,-1.95445 0,-2.82843 v -2.65165 c 0,-0.38302 0.0475,-0.76899 0,-1.14905 -0.005,-0.0413 -0.079,-0.0478 -0.0884,-0.0884 -0.0806,-0.34925 -0.12609,-0.70583 -0.17678,-1.06066 -0.0402,-0.28108 0,-0.60041 0,-0.88388 0,-0.76376 0.0195,-1.543 -0.0884,-2.2981 -0.0224,-0.15707 -0.16241,-0.28393 -0.17678,-0.44194 -0.0518,-0.56951 -0.0175,-1.11263 -0.0884,-1.67938 -0.0645,-0.51625 -0.1698,-0.76056 -0.26517,-1.23744 -0.3419,-1.7095 0.0656,0.34786 -0.0884,-0.88388 -0.0368,-0.2947 -0.18353,-0.5234 -0.26516,-0.7955 -0.18061,-0.60201 -0.2888,-1.24357 -0.44194,-1.85615 -0.11455,-0.45819 -0.0218,-0.68295 -0.0884,-1.14905 -0.006,-0.0412 -0.0729,-0.0497 -0.0884,-0.0884 -0.0451,-0.11279 -0.0712,-0.23329 -0.0884,-0.35355 -0.05,-0.35028 -0.14096,-0.70252 -0.17678,-1.06066 -0.10868,-1.08684 -0.0884,-2.17767 -0.0884,-3.27037 0,-0.42806 -0.0604,-0.90308 0,-1.32583 0.0682,-0.47766 0.26012,-0.94703 0.35356,-1.41421 0.0368,-0.18414 -0.0245,-0.27007 0,-0.44194 0.0657,-0.45991 0.24194,-0.74905 0.44194,-1.14905 0.0709,-0.14185 0.0738,-0.31322 0.17678,-0.44194 0.54001,-0.67501 -0.01,0.23835 0.53033,-0.70711 0.27946,-0.48906 -0.23719,0.29759 0.26516,-0.7071 0.0659,-0.13177 0.18796,-0.2281 0.26517,-0.35356 0.19348,-0.3144 0.29008,-0.69198 0.53033,-0.97227 0.3473,-0.40518 0.70374,-0.76751 0.97227,-1.23744 0.45509,-0.7964 0.73374,-1.71327 1.06066,-2.56326 0.0943,-0.24511 0.3077,-0.60879 0.35355,-0.88388 0.0291,-0.17437 -0.0219,-0.35492 0,-0.53033 0.18495,-1.4796 0.0884,-3.01314 0.0884,-4.50781 -0.0607,-0.46774 -0.16875,-0.94987 9e-5,-1.41419 0.0587,-0.16145 0.19909,-0.28336 0.26517,-0.44194 0.0825,-0.198 0.0971,-0.41957 0.17677,-0.61872 0.0395,-0.0986 0.13493,-0.16753 0.17678,-0.26517 0.0992,-0.23137 0.166,-0.47573 0.26516,-0.7071 0.15144,-0.35336 0.11193,-0.67756 0.26517,-1.06066 0.0394,-0.0986 0.12927,-0.17015 0.17678,-0.26517 0.18686,-0.37374 0.17564,-0.43968 0.35355,-0.79549 0.0132,-0.0264 0,-0.0589 0,-0.0884 0.0589,-0.14732 0.0951,-0.30589 0.17678,-0.44194 0.23741,-0.3957 0.3916,-0.50537 0.61871,-0.88389 0.0986,-0.16434 0.12218,-0.35159 0.26517,-0.53033 0.2623,-0.32787 0.57519,-0.80341 0.88388,-1.06066 0.0453,-0.0377 0.13077,0.0368 0.17678,0 0.28003,-0.22402 0.37028,-0.63544 0.61872,-0.88388 0.0751,-0.0751 0.18221,-0.11042 0.26516,-0.17678 0.26154,-0.20923 0.29747,-0.40771 0.53033,-0.7071 0.0768,-0.0987 0.19251,-0.16345 0.26517,-0.26517 0.13806,-0.19329 0.25998,-0.40039 0.35355,-0.61872 0.0478,-0.11165 0.021,-0.25248 0.0884,-0.35355 0.0589,-0.0884 0.20143,-0.0918 0.26517,-0.17678 0.20615,-0.27487 0.33218,-0.60318 0.53033,-0.88388 0.38227,-0.54156 0.81672,-0.9884 1.23743,-1.5026 0.1605,-0.19616 0.27505,-0.42798 0.44194,-0.61872 0.0434,-0.0496 0.11785,-0.0589 0.17678,-0.0884 0.0884,-0.0884 0.19251,-0.16345 0.26517,-0.26517 0.0766,-0.10721 0.0945,-0.25066 0.17677,-0.35355 0.0412,-0.0514 0.11785,-0.0589 0.17678,-0.0884 0.0884,-0.0884 0.19251,-0.16345 0.26516,-0.26516 0.0766,-0.10722 0.0993,-0.247 0.17678,-0.35356 0.19758,-0.27167 0.41716,-0.52675 0.61872,-0.79549 0.23694,-0.31592 0.64156,-0.7518 0.97227,-0.97227 0.0548,-0.0365 0.13019,-0.0418 0.17678,-0.0884 0.0649,-0.0649 0.47912,-0.53338 0.53033,-0.61872 0.0479,-0.0799 0.0367,-0.18764 0.0884,-0.26516 0.19336,-0.29006 0.57481,-0.53068 0.79549,-0.7955 0.27212,-0.32654 0.61428,-0.63526 0.88388,-0.97227 0.0412,-0.0514 0.0418,-0.13019 0.0884,-0.17678 0.1826,-0.1826 0.50789,-0.36432 0.70711,-0.53033 0.11785,-0.0982 0.33882,-0.36828 0.44194,-0.44194 0.10722,-0.0766 0.25067,-0.0945 0.35355,-0.17678 0.0515,-0.0411 0.0472,-0.12533 0.0884,-0.17677 0.15926,-0.19907 0.69429,-0.6533 0.88389,-0.7955 0.45411,-0.34059 0.71517,-0.41786 1.14905,-0.70711 0.13867,-0.0924 0.21793,-0.25668 0.35355,-0.35355 0.24263,-0.17331 0.40995,-0.14478 0.61872,-0.35355 0.0466,-0.0466 0.0418,-0.13019 0.0884,-0.17678 0.0932,-0.0932 0.24814,-0.0977 0.35355,-0.17678 0.16667,-0.125 0.28376,-0.30636 0.44194,-0.44194 0.27546,-0.23611 0.6362,-0.28264 0.88388,-0.53033 0.0466,-0.0466 0.0378,-0.1346 0.0884,-0.17677 0.36315,-0.30263 0.83826,-0.51094 1.14905,-0.88389 0.26627,-0.31951 0.52986,-0.73625 0.88388,-0.97227 0.32302,-0.21534 0.69557,-0.4304 0.97228,-0.70711 0.0208,-0.0208 -0.0208,-0.0675 0,-0.0884 0.0751,-0.0751 0.18451,-0.10765 0.26516,-0.17678 0.26115,-0.22384 0.50714,-0.60326 0.7955,-0.7955 0.28164,-0.18776 0.58691,-0.429 0.79549,-0.7071 0.0458,-0.0611 0.19235,-0.45751 0.26517,-0.53033 0.0466,-0.0466 0.12196,-0.0519 0.17677,-0.0884 0.046,-0.0307 0.68219,-0.72074 0.70711,-0.7955 0.0186,-0.0559 -0.0264,-0.12407 0,-0.17677 0.29225,-0.58451 0.06,-0.04 0.26516,-0.17678 0.51249,-0.34166 0.0655,-0.0425 0.17678,-0.26516 0.12206,-0.24412 0.61872,-0.36322 0.66294,-0.39767 0.2,0.0653 0.1255,-0.0706 0.221,-0.30929 0.0309,-0.0774 0.13947,-0.10228 0.17677,-0.17678 0.0543,-0.10865 -0.1811,-0.29095 0.0884,-0.35355 0.041,-0.0683 0.39544,-0.57222 0.44194,-0.61872 0.18579,-0.18579 0.43873,-0.21696 0.61872,-0.44194 0.21655,-0.27069 0.47606,-0.59857 0.61872,-0.88389 0.0707,-0.14144 0.27195,-0.21754 0.35355,-0.35355 0.0678,-0.11298 0.11788,-0.2357 0.17678,-0.35355 0.0589,-0.0589 0.13058,-0.10748 0.17678,-0.17678 0.0861,-0.12917 0.16261,-0.3765 0.26516,-0.53033 0.10778,-0.16173 0.11268,-0.009 0.17678,-0.26516 0.0407,-0.16284 0.0357,-0.28373 0.0884,-0.44195 0.0132,-0.0395 0.0752,-0.0489 0.0884,-0.0884 0.10956,-0.32872 -0.0196,-1.77721 -0.0884,-2.12132 -0.0568,-0.28409 0.0477,-0.59789 0,-0.88389 -0.04,-0.23965 -0.14238,-0.46659 -0.17678,-0.7071 -0.10974,-0.76816 0,-2.08566 0,-2.91682 0,-1.04028 -0.11099,-2.44826 0,-3.44715 0.0206,-0.18519 0.14618,-0.34652 0.17678,-0.53033 0.0736,-0.44194 -0.0491,-0.0982 0,-0.44194 0.0559,-0.39157 0.18796,-0.7628 0.26516,-1.14905 0.16996,-0.8498 0.25423,-1.73497 0.53033,-2.56326 0.0698,-0.2093 0.19517,-0.43196 0.26517,-0.61872 0.15025,-0.40068 0.21855,-0.83243 0.35355,-1.23743 0.0937,-0.28095 0.36694,-0.49563 0.44194,-0.7955 0.0429,-0.1715 -0.0347,-0.35698 0,-0.53033 0.0337,-0.16846 0.21087,-0.27896 0.26517,-0.44194 0.0186,-0.0559 -0.0327,-0.12778 0,-0.17678 0.0365,-0.0548 0.14027,-0.0336 0.17677,-0.0884 0.0327,-0.049 -0.0143,-0.11957 0,-0.17677 0.0728,-0.29126 0.10864,-0.0796 0.26517,-0.35356 0.1511,-0.26443 0.56462,-1.14386 0.61872,-1.41421 0.0642,-0.32094 -0.0148,-0.67778 -0.0884,-0.97227 -0.0286,-0.11433 0.0324,-0.24024 0,-0.35355 -0.22055,-0.77193 -0.81359,-1.41628 -0.97227,-2.20971 -0.0337,-0.16841 0.0416,-0.36391 0,-0.53033 -0.17927,-0.71705 -0.25969,-1.48071 -0.44195,-2.20971 -0.0105,-0.0421 -0.16627,-0.22317 -0.17677,-0.26517 -0.0771,-0.30845 0.10922,-0.23389 -0.0884,-0.53033 -0.0163,-0.0245 -0.0732,0.0253 -0.0884,0 -0.11544,-0.1924 -0.21076,-0.40103 -0.26516,-0.61872 -0.0587,-0.23485 -0.15563,-0.57641 -0.26517,-0.79549 -0.0132,-0.0263 -0.0752,0.0263 -0.0884,0 -0.23571,-0.47144 0.3913,0.19766 -0.0884,-0.44194 -0.0395,-0.0527 -0.14727,-0.0295 -0.17677,-0.0884 -0.49461,-0.98919 0.14039,-0.0207 -0.0884,-0.70711 -0.0336,-0.10078 -0.13728,-0.16656 -0.17678,-0.26516 -0.0954,-0.23858 -0.0199,-0.55567 -0.0884,-0.7955 -0.0911,-0.31874 -0.29795,-0.63892 -0.35355,-0.97227 -0.0609,-0.36524 0.0553,-0.61304 -0.0884,-0.97227 -0.0155,-0.0387 -0.0752,-0.0489 -0.0884,-0.0884 -0.0999,-0.29956 0.1095,-0.67542 -0.0884,-0.97227 -0.53808,-0.80712 0.14015,0.50885 -0.17678,-0.44194 -0.0641,-0.19221 -0.31858,-0.45424 -0.44194,-0.61872 -0.29795,-0.39727 -0.78835,-0.77981 -1.23744,-0.97227 -0.0542,-0.0232 -0.12778,0.0327 -0.17678,0 -0.0548,-0.0365 -0.0336,-0.14028 -0.0884,-0.17678 -0.049,-0.0327 -0.12408,0.0264 -0.17678,0 -0.0263,-0.0132 0.0163,-0.0639 0,-0.0884 -0.0462,-0.0693 -0.10748,-0.13057 -0.17678,-0.17677 -0.10963,-0.0731 -0.2357,-0.11788 -0.35355,-0.17678 -0.0884,-0.0884 -0.16647,-0.18837 -0.26517,-0.26517 -0.86378,-0.67183 -0.48611,-0.15466 -0.88388,-0.35355 -0.13176,-0.0659 -0.13465,-0.31417 -0.35355,-0.26517 -0.11166,-0.0479 -0.24737,-0.0294 -0.35356,-0.0884 -0.68435,-0.3802 -0.38445,-0.44393 -1.72357,-0.79548 -0.80412,-0.26515 -1.14604,-0.30415 -1.45841,-0.26515 -0.51607,0.0645 -1.28189,0.30312 -1.76776,0.44194 -0.15256,0.0436 -0.29463,0.11787 -0.44195,0.17677 -0.11785,0.0589 -0.22734,0.13888 -0.35355,0.17678 -0.17166,0.0515 -0.3619,0.0271 -0.53033,0.0884 -0.16145,0.0587 -0.28336,0.19906 -0.44194,0.26516 -0.19799,0.0825 -0.42464,0.0855 -0.61872,0.17678 -0.31089,0.1463 -0.58926,0.35356 -0.88388,0.53033 -0.0589,0.0589 -0.10478,0.13478 -0.17678,0.17678 -0.90671,0.52891 -1.87684,0.75255 -2.82843,1.14905 -0.0981,0.0408 -0.16866,0.13227 -0.26516,0.17677 -0.54809,0.25297 -1.27336,0.51285 -1.85616,0.70711 -0.0559,0.0186 -0.12047,-0.0173 -0.17677,0 -0.83184,0.25595 -1.59694,0.53892 -2.47488,0.61872 -0.77808,0.0707 -1.60781,0 -2.38648,0 -1.50465,0 -3.00681,0.0367 -4.50781,-0.0884 -0.23671,-0.0197 -0.4714,-0.0589 -0.70711,-0.0884 -0.20624,-0.0589 -0.40588,-0.15017 -0.61871,-0.17677 -2.22263,-0.27784 0.53327,0.28176 -1.50261,-0.0884 -0.66282,-0.12052 -1.34965,-0.32246 -2.03293,-0.35356 -2.02427,-0.092 -4.07846,0.14966 -6.09879,0 -0.47378,-0.0351 -0.9411,-0.13377 -1.41422,-0.17677 -1.21597,-0.11055 -2.49021,0 -3.71231,0 -1.73453,0 -3.48235,-0.0693 -5.21491,0 -0.68725,0.0275 -1.35253,0.22516 -2.03293,0.26516 -0.32353,0.019 -0.64901,-0.0231 -0.97227,0 -0.0929,0.007 -0.17377,0.0701 -0.26517,0.0884 -0.72808,0.14562 -1.48013,0.2209 -2.20971,0.35355 -0.96724,0.17587 -0.54476,0.11924 -1.32582,0.35356 -0.75732,0.22717 0.0855,-0.0878 -1.14905,0.17677 -0.15514,0.0333 -0.2868,0.14358 -0.44194,0.17678 -0.37892,0.0812 -0.76452,0.12868 -1.14905,0.17678 -0.20465,0.0256 -0.41455,-0.0292 -0.61872,0 -1.08116,0.15447 0.73917,0.0568 -1.06066,0.17677 -1.1382,0.0759 -2.3045,0 -3.44715,0 h -5.74524 -4.77297 c -0.49741,0 -1.45172,0.15801 -1.94454,-0.0884 -0.16897,-0.0845 -0.15825,-0.45835 -0.26517,-0.61872 -0.24969,-0.37454 -0.48554,-0.23531 -0.79549,-0.44194 -0.17335,-0.11557 -0.28516,-0.30476 -0.44195,-0.44195 -0.5169,-0.45229 -0.97401,-1.00191 -1.4584,-0.92807 0.10312,0.22097 -0.0232,0.17717 -0.13258,0.22097 -0.0612,0.0245 -0.0418,0.13019 -0.0884,0.17677 -0.0466,0.0466 -0.13019,0.0418 -0.17678,0.0884 -0.16796,0.16797 -0.22179,0.42108 -0.35355,0.61872 -0.35301,0.52952 -0.79954,0.97833 -1.14905,1.5026 -0.18248,0.27372 -0.51934,1.04967 -0.70711,1.23744 -0.0208,0.0208 -0.0639,-0.0163 -0.0884,0 -0.24259,0.16173 -0.24866,0.38678 -0.44194,0.61872 -0.0422,0.0506 -0.14023,0.0336 -0.17677,0.0884 -0.007,0.0104 -0.12936,0.54759 -0.17678,0.61872 -0.0163,0.0245 -0.0752,-0.0264 -0.0884,0 -0.0263,0.0527 0.0143,0.11961 0,0.17677 -0.0605,0.242 -0.28499,0.41303 -0.35355,0.61872 -0.0186,0.0559 0.0115,0.119 0,0.17678 -0.0511,0.25534 -0.49502,1.2552 -0.61872,1.5026 -0.0373,0.0745 -0.13055,0.10744 -0.17678,0.17678 -0.11035,0.16552 -0.0664,0.27641 -0.17678,0.44194 -0.0462,0.0693 -0.13055,0.10744 -0.17677,0.17677 -0.15393,0.23089 -0.18685,0.57323 -0.35356,0.7955 -0.0395,0.0527 -0.12533,0.0472 -0.17677,0.0884 -0.0976,0.0781 -0.18708,0.16755 -0.26517,0.26516 -0.34999,0.43749 -0.59894,0.98756 -0.97227,1.41422 -0.0699,0.0799 -0.19521,0.0968 -0.26516,0.17677 -0.13991,0.15989 -0.22084,0.36443 -0.35356,0.53033 -0.20696,0.2587 -0.50015,0.44841 -0.7071,0.70711 -0.22013,0.27516 -0.40313,0.59642 -0.61872,0.88388 -0.18619,0.24826 -0.43399,0.4608 -0.61872,0.70711 -0.11585,0.15446 -0.0876,0.26368 -0.17678,0.44194 -0.17513,0.35028 -0.43233,0.87427 -0.7071,1.14905 -0.0466,0.0466 -0.1302,0.0418 -0.17678,0.0884 -0.10129,0.10129 -0.16387,0.34065 -0.26517,0.44194 -0.27071,0.27071 -0.66691,0.52389 -0.97227,0.70711 -0.17747,0.10648 -0.35286,0.33546 -0.53033,0.44194 -0.15978,0.0959 -0.36366,0.0934 -0.53033,0.17678 -0.23848,0.11924 -0.4415,0.3534 -0.7071,0.44194 -0.41126,0.13708 -0.81948,0.39101 -1.23744,0.53033 -0.0559,0.0186 -0.12207,-0.0219 -0.17678,0 -0.0986,0.0394 -0.16752,0.13493 -0.26516,0.17677 -0.11166,0.0479 -0.24808,0.0281 -0.35356,0.0884 -0.10853,0.062 -0.16516,0.19017 -0.26516,0.26517 -0.10458,0.0784 -0.74541,0.2907 -0.97227,0.44194 -0.1018,0.0679 -0.16719,0.19168 -0.26517,0.26516 -0.373,0.27975 -0.73747,0.47231 -1.06066,0.7955 -0.2225,0.2225 -0.35512,0.50941 -0.61872,0.70711 -0.15768,0.11826 -0.39285,0.21607 -0.53033,0.35355 -0.0751,0.0751 -0.10166,0.19005 -0.17677,0.26516 -0.0751,0.0751 -0.18356,0.10877 -0.26517,0.17678 -0.429,0.3575 -0.14114,0.22953 -0.61872,0.70711 -0.0208,0.0208 -0.072,-0.0245 -0.0884,0 -0.0517,0.0775 -0.0467,0.18183 -0.0884,0.26516 -0.13049,0.26098 -0.29209,0.30556 -0.44195,0.53033 -0.0731,0.10964 -0.10898,0.24057 -0.17677,0.35356 -0.0737,0.12288 -0.14796,0.0889 -0.26517,0.17677 -0.18955,0.14217 -0.40075,0.42436 -0.53033,0.61872 -0.3575,0.53625 -0.67701,1.21738 -1.23743,1.59099 -0.84519,0.56346 -1.85153,0.99321 -2.82843,1.23744 -0.24457,0.22027 -0.53505,0.0305 -0.7955,0.0884 -0.42428,0.0943 -0.75355,0.29363 -1.14905,0.44194 -0.11374,0.0427 -0.24189,0.0405 -0.35355,0.0884 -0.0976,0.0418 -0.16653,0.13732 -0.26516,0.17677 -0.0547,0.0219 -0.12408,-0.0264 -0.17678,0 -0.0264,0.0132 0.0208,0.0676 0,0.0884 -0.0109,0.0109 -0.29673,0.0543 -0.35355,0.0884 -0.28988,0.17393 -0.59308,0.43721 -0.7955,0.70711 -0.12527,0.16703 -0.20093,0.37771 -0.35355,0.53033 -0.0772,0.0772 -0.37291,0.14226 -0.44194,0.17677 -0.11839,0.0592 -0.12248,0.21087 -0.17678,0.26517 -0.0208,0.0208 -0.072,-0.0245 -0.0884,0 -0.0517,0.0775 -0.0367,0.18764 -0.0884,0.26516 -0.4714,0.70711 -0.11785,0.0393 -0.35355,0.35356 -0.46485,0.6198 -1.06805,1.15274 -1.76777,1.5026 -0.0833,0.0417 -0.18527,0.0405 -0.26516,0.0884 -0.24403,0.14641 -0.43145,0.41219 -0.70711,0.53033 -0.51813,0.22205 -1.07458,0.36051 -1.59099,0.61872 -0.0745,0.0373 -0.0977,0.15042 -0.17678,0.17677 -0.1118,0.0373 -0.23922,-0.0286 -0.35355,0 -0.32778,0.082 -0.64647,0.20001 -0.97227,0.26517 -0.32873,0.0657 -0.73299,-0.0364 -1.06066,0 -0.32246,0.0358 -0.65174,0.20688 -0.97227,0.26516 -0.40921,0.0744 -1.00886,0.0417 -1.41422,0.17678 -0.125,0.0417 -0.22686,0.14058 -0.35355,0.17678 -0.25653,0.0733 -0.53505,0.0305 -0.7955,0.0884 -0.40305,0.0896 -0.83835,0.15632 -1.23743,0.26516 -0.17978,0.049 -0.34761,0.14023 -0.53033,0.17678 -0.11557,0.0231 -0.23922,-0.0286 -0.35356,0 -0.3423,0.0856 -1.42053,0.59707 -1.76776,0.79549 -0.58453,0.33402 -0.11816,0.22929 -0.7955,0.53033 -0.43689,0.19417 -0.96221,0.27244 -1.41421,0.44194 -0.35863,0.13449 -0.68908,0.34905 -1.06066,0.44195 -0.17387,0.0435 -0.35801,0.0392 -0.53033,0.0884 -0.69653,0.19901 -1.22105,0.42579 -1.94455,0.61872 -0.0854,0.0228 -0.1805,-0.0254 -0.26516,0 -0.81743,0.24523 -0.38307,0.27173 -1.14905,0.44194 -0.0863,0.0192 -0.17849,-0.0173 -0.26516,0 -0.47628,0.0953 -1.04224,0.26931 -1.50261,0.44195 -0.45111,0.16917 -1.08031,0.50355 -1.5026,0.61871 -0.20099,0.0548 -0.4166,0.0379 -0.61872,0.0884 -0.45194,0.11299 -0.88802,0.28274 -1.32582,0.44194 -0.0392,0.0142 -0.0489,0.0752 -0.0884,0.0884 -0.3175,0.10583 -0.87184,0.28044 -1.23744,0.35356 -0.0578,0.0115 -0.12206,-0.0219 -0.17677,0 -0.0986,0.0394 -0.16753,0.13493 -0.26517,0.17677 -0.20566,0.0881 -0.70841,0.13291 -0.88388,0.17678 -0.12783,0.032 -0.22573,0.14482 -0.35356,0.17678 -0.0572,0.0143 -0.11961,-0.0143 -0.17677,0 -0.1832,0.0458 -0.46218,0.28646 -0.61872,0.35355 -0.2558,0.10963 -0.54122,0.15215 -0.7955,0.26516 -0.38548,0.17133 -0.77174,0.34168 -1.14904,0.53033 -0.095,0.0475 -0.16654,0.13733 -0.26517,0.17678 -0.0547,0.0219 -0.12087,-0.0186 -0.17678,0 -0.0395,0.0132 -0.0489,0.0752 -0.0884,0.0884 -0.0559,0.0186 -0.12088,-0.0186 -0.17678,0 -0.22277,0.0743 -0.51412,0.26914 -0.7955,0.35355 -0.14389,0.0432 -0.30075,0.0371 -0.44194,0.0884 -0.40001,0.14546 -0.80911,0.44194 -1.23744,0.44194 -0.66932,-0.1923 -1.22294,-0.0384 -1.85604,0.0882 -0.60516,0.12103 -1.15939,0.48835 -1.76777,0.61872 -0.14404,0.0309 -0.29463,0 -0.44194,0 -0.41248,0.14731 -0.81629,0.32162 -1.23744,0.44194 -0.20031,0.0572 -0.41443,0.0475 -0.61871,0.0884 -0.53144,0.10629 -1.07495,0.31293 -1.59099,0.44194 -0.60797,0.15199 -1.25125,0.20233 -1.85616,0.35356 -0.15392,0.0385 -0.28938,0.13318 -0.44194,0.17677 -0.16998,0.0486 -0.35492,-0.0219 -0.53033,0 -0.67042,0.0838 -1.35983,0.15298 -2.03293,0.26517 -0.27571,0.046 -0.52434,0.19737 -0.7955,0.26516 -0.43687,0.10922 -0.96484,0.21524 -1.41421,0.26517 -0.17502,0.0352 -0.35443,-0.0176 -0.53033,0 -0.38117,-0.0951 -0.705,0.13232 -1.06066,0.17677 -0.11694,0.0146 -0.23571,0 -0.35356,0 -0.17677,0 -0.3551,-0.0234 -0.53033,0 -0.41047,0.0547 -0.89898,0.2296 -1.32582,0.26517 -0.79478,0.0662 -1.59375,0.009 -2.38649,0.0884 -1.48352,0.14835 -2.94337,0.5226 -4.41941,0.7071 -0.43951,0.0549 -0.88893,0.0156 -1.32583,0.0884 -0.50094,0.0835 -0.9997,0.28171 -1.5026,0.35356 -0.51846,0.0741 -1.17086,0 -1.67938,0 h -2.91682 c -0.52252,0 -1.07229,-0.0432 -1.59099,0 -0.14971,0.0125 -0.29223,0.0759 -0.44194,0.0884 -0.52233,0.0435 -1.06653,0 -1.59099,0 h -3.71231 -2.74004 c -0.43407,0 -0.89631,0.0477 -1.32582,0 -0.33388,-0.0371 -0.6421,-0.20325 -0.97227,-0.26516 -0.55557,-0.10417 -1.13032,-0.0395 -1.67938,-0.17678 -0.5576,-0.1394 -0.28583,-0.20145 -0.7955,-0.26516 -0.11694,-0.0146 -0.2373,0.0194 -0.35355,0 -0.27417,-0.0457 -0.4585,-0.31764 -0.70711,-0.44194 -0.24797,-0.2213 -0.60876,-0.12761 -0.88388,-0.26517 -1.13011,-0.56506 0.79023,0.0543 -1.06066,-0.61872 -0.0831,-0.0302 -0.1844,0.0359 -0.26517,0 -0.19414,-0.0863 -0.33691,-0.26564 -0.53033,-0.35355 -0.52876,-0.24035 -1.30474,-0.21002 -1.85615,-0.26517 -0.53815,-0.0538 -0.033,-0.0859 -0.44194,-0.17677 -0.68559,-0.15236 -1.42235,-0.0884 -2.48585,-0.0745 -0.36453,0.43855 -0.41669,0.22255 -0.53115,0.68039 -0.0581,0.23256 -0.0102,0.78035 -0.0833,0.99973 -0.0196,0.0589 -0.0555,0.11113 -0.0833,0.16663 -0.0278,0.0278 -0.0709,0.0461 -0.0833,0.0833 -0.0175,0.0527 0.0135,0.11272 0,0.16662 -0.0512,0.20469 -0.20035,0.25046 -0.33324,0.41656 -0.11285,0.14105 -0.14957,0.34933 -0.24993,0.49987 -0.15405,0.23106 -0.65776,0.18012 -0.49987,0.66649 -0.24261,0.39422 -0.46087,0.83842 -0.6665,1.24968 -0.0393,0.0785 -0.0306,0.17972 -0.0833,0.24992 -0.0373,0.0497 -0.12273,0.0394 -0.16663,0.0833 -0.12572,0.12574 -0.22216,0.2777 -0.33324,0.41655 0,0.0278 0.0196,0.0637 0,0.0833 -0.0708,0.0708 -0.17913,0.0958 -0.24993,0.16662 -0.0196,0.0196 0.0124,0.0584 0,0.0833 -0.0313,0.0626 -0.52738,0.7219 -0.58318,0.7498 -0.11108,0.0556 -0.22216,0.11113 -0.33325,0.16663 -0.0627,0.0313 -0.19213,-0.0385 -0.24993,0 -0.0654,0.0436 -0.0914,0.14403 -0.16663,0.16663 -0.60529,0.18161 -1.32208,0.0818 -1.91616,0.16661 -0.0309,0.004 -0.48267,0.23274 -0.49987,0.24994 -0.10153,0.10147 -0.039,0.18613 -0.16663,0.24993 -0.0249,0.0124 -0.0555,0 -0.0833,0 -0.19439,0.13886 -0.38879,0.27771 -0.58318,0.41656 -0.10321,0.0929 -0.13886,0.24995 -0.24994,0.33325 -0.11964,0.0897 -0.29212,0.0837 -0.41655,0.16662 -0.13071,0.0871 -0.21333,0.23177 -0.33325,0.33325 -0.43437,0.36753 -1.15943,0.82272 -1.4996,1.33298 -0.0308,0.0462 0.0249,0.11692 0,0.16662 -0.0351,0.0702 -0.11953,0.10372 -0.16663,0.16662 -0.0652,0.0869 -0.11143,0.36137 -0.16663,0.41657 -0.0439,0.0439 -0.13221,0.0316 -0.16661,0.0833 -0.0462,0.0693 0.0589,0.19104 0,0.24994 -0.30324,0.30322 -0.0586,-0.0886 -0.24994,0.16662 -0.19763,0.26351 -0.32043,0.56395 -0.49987,0.83312 -0.23433,0.35154 0.14298,-0.45259 -0.24993,0.33324 -0.0249,0.0497 0.0249,0.11692 0,0.16662 -0.0896,0.17912 -0.25885,0.31394 -0.33325,0.49987 -0.125,0.31235 0.16454,0.0235 -0.0833,0.33325 -0.0981,0.12267 -0.26304,0.19274 -0.33324,0.33325 -0.0633,0.12665 -0.02,0.2899 -0.0833,0.41655 -0.0124,0.0248 -0.0637,-0.0196 -0.0833,0 -0.0374,0.0374 -0.36596,0.64959 -0.41656,0.66649 -0.58975,0.19664 -1.34903,0.0609 -1.91616,0.24994 -0.0372,0.0124 -0.0452,0.0733 -0.0833,0.0833 -0.0808,0.0202 -0.17253,-0.0309 -0.24993,0 -0.0729,0.0292 -0.0992,0.12622 -0.16663,0.16662 -0.23598,0.14159 -0.50249,0.22654 -0.66649,0.49988 -0.0452,0.0753 -0.044,0.17143 -0.0833,0.24993 -0.074,0.14803 -0.23995,0.27654 -0.33325,0.41655 -0.0104,0.0155 -0.0753,0.32525 -0.0833,0.33325 -0.0439,0.0439 -0.12942,0.0336 -0.16662,0.0833 -0.0527,0.0703 -0.0555,0.16664 -0.0833,0.24994 0,0.0278 0.0143,0.0595 0,0.0833 -0.0714,0.11906 -0.18784,0.20905 -0.24994,0.33324 -0.0248,0.0497 0.0175,0.11393 0,0.16663 -0.11907,0.35722 -0.35687,0.66608 -0.49987,0.99973 -0.17025,0.39728 -0.15375,0.8458 -0.33324,1.24967 -0.0407,0.0915 -0.13493,0.15494 -0.16663,0.24994 -0.1249,0.3746 -0.0338,0.56988 -0.0833,0.91643 -0.11314,0.79189 0.005,-0.0101 -0.24994,0.49986 -0.0813,0.16301 0.003,1.23942 -0.0833,1.49961 -0.0589,0.17673 -0.18633,0.3248 -0.24993,0.49987 -0.0991,0.27248 -0.16664,0.55541 -0.24994,0.83311 -0.0564,0.18809 -0.0104,0.40086 -0.0833,0.58318 -0.0372,0.093 -0.13492,0.15494 -0.16662,0.24994 -0.0264,0.079 0.0137,0.16773 0,0.24993 -0.0421,0.25255 -0.0913,0.5051 -0.16663,0.74981 -0.15356,0.49906 -0.56578,0.85452 -0.7498,1.33298 -0.15762,0.40983 -0.33806,0.81766 -0.41656,1.24968 -0.0824,0.45106 0.007,0.96573 -0.0833,1.41629 -0.13974,0.69869 -0.54193,1.34172 -0.5048,2.72507 0.0576,0.68399 0.20986,0.70749 0.34927,0.76729 0.15438,0.0662 0.28887,0.17177 0.4375,0.25 0.87905,0.46266 1.76687,0.94425 2.6875,1.3125 0.15014,0.0601 0.38346,0.2167 0.5,0.25 0.28196,0.0806 0.60619,0.0531 0.875,0.1875 0.067,0.0335 0.10082,0.17138 0.125,0.1875 0.0853,0.0569 0.48348,0.22742 0.5625,0.25 0.0601,0.0172 0.12821,-0.0198 0.1875,0 0.1249,0.0416 0.1876,0.14586 0.3125,0.1875 0.14389,0.048 0.29361,0.077 0.4375,0.125 0.13334,0.0444 0.25802,0.12901 0.375,0.1875 0.25946,0.12973 0.60739,0.13106 0.875,0.25 0.11101,0.0493 0.20385,0.13317 0.3125,0.1875 0.23066,0.11533 0.57665,0.0464 0.8125,0.125 0.14016,0.0259 0.24242,0.1433 0.375,0.1875 0.44638,0.14879 0.0548,-0.019 0.625,0.0625 0.0292,0.004 0.0339,0.0553 0.0625,0.0625 0.0606,0.0152 0.125,0 0.1875,0 0.0625,0.0417 0.11527,0.10436 0.1875,0.125 0.0801,0.0229 0.16865,-0.0181 0.25,0 0.56191,0.12487 1.24547,0.62273 1.75,0.875 0.71276,0.35638 0.35659,0.16053 1,0.375 0.37459,0.12486 -0.15698,-0.016 0.25,0.1875 0.25,0.125 0.0312,-0.0625 0.1875,0 0.17301,0.0692 0.32553,0.18457 0.5,0.25 0.0804,0.0302 0.17317,0.0241 0.25,0.0625 0.0527,0.0263 0.076,0.0923 0.125,0.125 0.28386,0.18924 0.6739,0.3913 1,0.5 0.0815,0.0272 0.17317,0.0241 0.25,0.0625 0.0527,0.0263 0.0767,0.0912 0.125,0.125 0.16101,0.11271 0.32819,0.21705 0.5,0.3125 0.17774,0.0987 0.31973,0.0523 0.5,0.1875 0.17695,0.13271 -0.0986,-0.0183 0.125,0.25 0.15433,0.1852 0.42245,0.28992 0.5625,0.5 0.0891,0.1337 0.10796,0.30494 0.1875,0.4375 0.26727,0.44545 0.67921,0.79799 0.9375,1.25 0.0327,0.0572 0.0417,0.125 0.0625,0.1875 0.0625,0.0625 0.14065,0.11255 0.1875,0.1875 0.0595,0.0951 0.0628,0.21915 0.125,0.3125 0.0654,0.0981 0.17239,0.16131 0.25,0.25 0.13719,0.15679 0.24308,0.33876 0.375,0.5 0.31438,0.38424 0.66991,0.69573 1,1.0625 0.1589,0.17656 0.26954,0.39454 0.4375,0.5625 0.18095,0.18095 0.60808,0.41212 0.75,0.625 0.0775,0.11628 0.0887,0.27618 0.1875,0.375 0.15934,0.15934 0.38222,0.23979 0.5625,0.375 0.28056,0.21042 0.50991,0.50991 0.75,0.75 0.0329,0.0329 0.0921,0.0296 0.125,0.0625 0.0329,0.0329 0.0296,0.0921 0.0625,0.125 0.24372,0.24372 0.59427,0.37534 0.875,0.5625 0.26021,0.17347 0.67322,0.6309 0.875,0.8125 0.0684,0.0616 0.4791,0.29787 0.5,0.3125 0.44748,0.31323 0.95594,0.7407 1.4375,1 0.4266,0.2297 0.31103,0.0412 0.75,0.1875 0.23881,0.0796 0.4518,0.22411 0.6875,0.3125 0.36974,0.13865 0.75394,0.24007 1.125,0.375 0.39128,0.14228 0.75683,0.44091 1.125,0.625 0.0589,0.0295 0.13101,0.0286 0.1875,0.0625 0.3417,0.20502 0.48241,0.65037 0.6875,0.9375 0.21098,0.29537 0.55614,0.68114 0.8125,0.9375 0.0329,0.0329 0.0921,0.0296 0.125,0.0625 0.10623,0.10623 0.16268,0.25275 0.25,0.375 0.0775,0.10855 0.19034,0.19318 0.25,0.3125 0.26632,0.53265 0.35807,1.15363 0.625,1.6875 0.0264,0.0527 0.0974,0.0729 0.125,0.125 0.40839,0.7714 0.43002,1.05315 0.9375,1.6875 0.0582,0.0727 0.0653,0.17842 0.125,0.25 0.18862,0.22634 0.42591,0.40781 0.625,0.625 0.10995,0.11994 0.19744,0.25994 0.3125,0.375 -0.0447,0.39875 0.39123,0.29069 0.5625,0.4375 0.3789,0.32477 0.68954,0.73098 1.0625,1.0625 0.19459,0.17297 0.71295,0.50112 0.8125,0.75 0.0729,0.18223 0.0983,0.3841 0.1875,0.5625 0.0132,0.0263 0.0532,0.0346 0.0625,0.0625 0.0329,0.0988 -0.0204,0.21036 0,0.3125 0.009,0.0457 0.0548,0.079 0.0625,0.125 0.0554,0.33208 -0.10538,0.74636 0,1.0625 0.0833,0.25 0.0625,-0.27083 0.0625,0.0625 0.33097,0.23896 0.30042,0.65861 0.625,0.875 0.0548,0.0365 0.13268,0.026 0.1875,0.0625 0.13822,0.0921 0.90205,0.83682 0.9375,0.875 0.12195,0.13133 0.19344,0.30355 0.3125,0.4375 0.10793,0.12142 0.23648,0.16047 0.3125,0.3125 0.0589,0.11785 0.0731,0.25389 0.125,0.375 0.10924,0.25488 0.31525,0.54365 0.375,0.8125 0.0226,0.10169 -0.0253,0.21144 0,0.3125 0.0468,0.18703 0.38965,0.63573 0.4375,0.875 0.0245,0.12257 -0.0124,0.25062 0,0.375 0.0404,0.404 0.25562,0.78937 0.3125,1.1875 0.0118,0.0825 -0.0137,0.1678 0,0.25 0.0445,0.26689 0.14883,0.54183 0.1875,0.8125 0.0502,0.35134 0.007,0.70352 0.0625,1.0625 0.11261,0.73195 -0.003,0.0536 0.125,0.4375 0.0148,0.0445 0.0578,0.78255 0.0625,0.8125 0.18165,1.15045 0.25,2.27621 0.0177,3.85237 0.31528,0.33728 0.65047,-0.0153 1.09353,-0.29223 z"
         id="path20" />
    </g>
  </g>
</svg>
