<?xml version="1.0" encoding="UTF-8" standalone="no"?>
<!-- Created with Inkscape (http://www.inkscape.org/) -->

<svg
   version="1.1"
   id="svg2"
   width="105.22935"
   height="95.5"
   viewBox="0 0 105.22935 95.5"
   xmlns="http://www.w3.org/2000/svg"
   xmlns:svg="http://www.w3.org/2000/svg">
  <defs
     id="defs6">
    <linearGradient
       id="swatch77">
      <stop
         style="stop-color:#e2c69e;stop-opacity:1;"
         offset="0"
         id="stop77" />
    </linearGradient>
  </defs>
  <g
     id="layer66"
     style="display:inline"
     transform="translate(-944.04687,-216.625)">
    <g
       id="layer78"
       style="display:inline">
      <path
         style="fill:#969696;fill-opacity:1;stroke:none;stroke-opacity:1"
         d="m 945.625,278.625 c 0.60774,0.50645 1.49295,1.07394 2,1.75 0.34194,0.45593 0.55232,1.0339 0.875,1.5 0.52763,0.76214 1.14683,1.45306 1.625,2.25 0.27457,0.45762 0.74009,0.96039 0.875,1.5 0.0202,0.0808 -0.05,0.18333 0,0.25 0.0901,0.12018 0.26877,0.14377 0.375,0.25 0.13176,0.13176 0.14664,0.34496 0.25,0.5 0.25,0.375 0,-0.25 0.375,0.375 0.38786,0.64644 0.35115,1.79195 0.25,2.5 -0.11958,0.83705 -0.48468,1.57902 -0.75,2.375 -0.29632,0.88894 -0.26277,1.85217 -0.375,2.75 -0.0442,0.35325 -0.2772,0.6577 -0.375,1 -0.0229,0.0801 0.0163,0.16828 0,0.25 -0.0718,0.35877 -0.31485,0.63907 -0.375,1 -0.0666,0.39983 -0.10907,1.85233 0,2.125 0.0558,0.13949 0.16666,0.25 0.25,0.375 0,0.16667 -0.0527,0.34189 0,0.5 0.69388,2.08164 0.0538,-0.0116 0.625,0.75 0.0791,0.10541 0.0661,0.25715 0.125,0.375 0.31894,0.63789 0.73287,1.28681 1.125,1.875 0.70514,1.05771 0.97917,1.31061 1.875,2.125 0.39241,0.35674 0.71759,0.78549 1.125,1.125 0.67,0.55834 1.40465,1.01977 2.125,1.5 0.2577,0.1718 0.89031,0.51531 1.125,0.75 0.0295,0.0295 -0.0404,0.11489 0,0.125 0.16169,0.0404 0.34681,-0.0657 0.5,0 0.67755,0.29038 0.17121,0.29621 0.5,0.625 0.23871,0.23871 0.64284,0.39284 0.875,0.625 0.0659,0.0659 0.0591,0.18412 0.125,0.25 0.0295,0.0295 0.0877,-0.0186 0.125,0 0.28262,0.14131 0.44768,0.47384 0.75,0.625 0.39171,0.19585 0.12731,0.20185 0.5,0.5 0.16268,0.13014 0.31366,0.28183 0.5,0.375 0.1819,0.091 0.5,-0.10602 0.5625,0.625 0.49646,-0.0815 0.61984,-0.68235 1.0625,-1.125 0.0295,-0.0295 0.0955,0.0295 0.125,0 0.14731,-0.14731 0.24163,-0.33995 0.375,-0.5 0.18861,-0.22634 0.3893,-0.44822 0.625,-0.625 0.0333,-0.025 0.0955,0.0295 0.125,0 0.10623,-0.10623 0.1562,-0.25769 0.25,-0.375 0.0736,-0.092 0.1667,-0.1667 0.25,-0.25 0.125,-0.0833 0.2772,-0.13594 0.375,-0.25 0.15811,-0.18447 0.24023,-0.42285 0.375,-0.625 0.0517,-0.0775 0.2083,-0.0417 0.25,-0.125 0.0373,-0.0745 -0.0373,-0.1755 0,-0.25 0.0186,-0.0373 0.0833,0 0.125,0 0.0417,-0.0417 0.1064,-0.0691 0.125,-0.125 0.0263,-0.0791 -0.0373,-0.1755 0,-0.25 0.0527,-0.10541 0.1764,-0.158 0.25,-0.25 0.21306,-0.26633 0.43742,-0.59364 0.625,-0.875 0.0731,-0.10963 0.0459,-0.26959 0.125,-0.375 0.2785,-0.37134 0.37369,-0.41493 0.625,-0.75 0.47245,-0.62994 0.69564,-1.53984 1,-2.25 0.14983,-0.34962 0.45246,-0.52993 0.625,-0.875 0.0789,-0.15773 0.0461,-0.46727 0.125,-0.625 0.0527,-0.10541 0.1846,-0.1519 0.25,-0.25 0.11126,-0.16689 -0.0509,-0.54631 0,-0.75 0.0934,-0.37352 0.2804,-0.7465 0.375,-1.125 0.13392,-0.53567 0.0627,-1.2295 0.375,-1.75 0.0479,-0.0799 0.1983,-0.0475 0.25,-0.125 0.0833,-0.125 -0.0417,-0.25 0,-0.375 0.0987,-0.29616 0.25855,-0.72829 0.375,-1 0.0592,-0.13809 0.1942,-0.23551 0.25,-0.375 0.0309,-0.0774 -0.0373,-0.1755 0,-0.25 0.0527,-0.10541 0.1894,-0.14894 0.25,-0.25 0.0678,-0.11299 0.0459,-0.26959 0.125,-0.375 0.102,-0.136 1.02392,-0.6691 1.125,-0.75 0.22866,-0.18293 0.39634,-0.44207 0.625,-0.625 0.60669,-0.48535 1.25471,-0.90979 1.875,-1.375 0.252,-0.189 0.46,-0.634 0.75,-0.75 0.11606,-0.0464 0.25242,0.0245 0.375,0 0.29916,-0.0598 0.4637,-0.2932 0.75,-0.375 0.16025,-0.0458 0.33974,0.0458 0.5,0 0.32685,-0.0934 0.6424,-0.4285 1,-0.5 0.62566,-0.12513 1.39381,-0.0985 2,-0.25 1.85745,-0.4644 -0.85623,-0.0805 1.5,-0.375 0.49786,-0.0622 1.00509,-0.0425 1.5,-0.125 0.70482,-0.11747 1.42813,-0.46418 2.125,-0.625 0.71828,-0.1658 1.41232,-0.0718 2.125,-0.25 0.76791,-0.19198 1.49332,-0.56083 2.25,-0.75 0.24588,-0.0615 0.50724,-0.0522 0.75,-0.125 0.57141,-0.17143 1.06434,-0.54613 1.625,-0.75 0.15663,-0.057 0.33657,0.0327 0.5,0 0.513,-0.1026 0.99209,-0.4153 1.5,-0.5 0.1233,-0.0206 0.25,0 0.375,0 0.29166,-0.0417 0.58739,-0.0611 0.875,-0.125 0.091,-0.0202 0.1667,-0.0833 0.25,-0.125 0.29166,-0.0833 0.57579,-0.2001 0.875,-0.25 0.43986,-0.0733 0.92688,-0.0503 1.375,-0.125 0.8638,-0.14397 1.7549,-0.4209 2.625,-0.5 0.6806,-0.0619 1.3332,0.0973 2,-0.125 0.386,-0.12868 1.4042,-0.5771 1.75,-0.75 0.3282,-0.16411 0.6607,-0.45536 1,-0.625 0.5902,-0.29511 1.1717,-0.46084 1.75,-0.75 0.3428,-0.17141 0.6247,-0.46414 1,-0.625 0.6475,-0.27751 1.3204,-0.55582 2,-0.75 0.54,-0.1542 -0.9166,0.64578 0.625,-0.125 0.4092,-0.20461 0.8531,-0.86042 1.25,-1.125 0.099,-0.0659 0.594,-0.3442 0.625,-0.375 0.1754,-0.17543 0.1708,-0.4548 0.375,-0.625 0.5127,-0.42725 1.0822,-0.8623 1.625,-1.25 0.3622,-0.259 0.1696,0.0102 0.625,-0.25 0.2516,-0.1438 0.9414,-0.7832 1.125,-0.875 0.1178,-0.0589 0.2654,-0.0519 0.375,-0.125 0.035,-0.0231 -0.025,-0.0917 0,-0.125 0.1061,-0.14142 0.25,-0.25 0.375,-0.375 0.125,-0.125 0.237,-0.26457 0.375,-0.375 0.2641,-0.21128 0.3664,-0.0425 0.625,-0.375 1.9736,-2.53754 -0.4164,0.25793 0.75,-1.375 1.1848,-1.65871 -0.215,0.68008 0.5,-0.75 0.093,-0.18634 0.375,-0.20833 0.5,-0.375 0.05,-0.0667 -0.031,-0.1726 0,-0.25 0.1748,-0.43699 0.254,-0.29706 0.5,-0.625 0.056,-0.0745 0.083,-0.1667 0.125,-0.25 0.1667,-0.25 0.3155,-0.51283 0.5,-0.75 0.1085,-0.13954 0.2722,-0.23115 0.375,-0.375 0.2346,-0.32844 0.3314,-0.70642 0.625,-1 0.029,-0.0295 0.096,0.0295 0.125,0 0.1821,-0.18209 0.3982,-0.54643 0.5,-0.75 0.075,-0.15 0.3,-0.225 0.375,-0.375 0.037,-0.0745 -0.037,-0.1755 0,-0.25 0.019,-0.0373 0.083,0 0.125,0 0.083,-0.125 0.183,-0.24063 0.25,-0.375 0.1579,-0.31575 0.4261,-0.66857 0.625,-1 0.328,-0.5461 -0.1077,0.0905 0.25,-0.625 0.1028,-0.20559 0.427,-0.52954 0.5,-0.75 0.026,-0.0791 0,-0.1667 0,-0.25 0.042,-0.16667 0.061,-0.34049 0.125,-0.5 0.044,-0.10942 0.221,-0.13567 0.25,-0.25 0.03,-0.12127 -0.021,-0.2517 0,-0.375 0.089,-0.53198 0.3351,-1.00521 0.5,-1.5 0.082,-0.24479 0.061,-0.61928 0.125,-0.875 0.1026,-0.41023 0.3297,-0.74177 0.5,-1.125 0.2704,-0.60849 0.4669,-1.18386 0.75,-1.75 0.056,-0.1118 -0.021,-0.2517 0,-0.375 0.047,-0.28284 0.6844,-1.93441 0.875,-2.125 0.042,-0.0417 0.333,-0.0833 0.375,-0.125 0.2586,-0.259 -0.3952,0.0101 0.125,-0.25 0.2766,-0.13831 0.5941,-0.31272 0.9375,-0.5625 0.4196,-0.0625 0.6355,-0.53652 0.9375,-0.6875 0.1694,-0.0847 1.066,-0.5663 1.125,-0.625 0.4177,-0.41774 0.4919,-0.81451 1,-1.25 0.063,-0.0542 0.191,0.0589 0.25,0 0.4704,-0.47041 0.8439,-1.20856 1.25,-1.75 0.3333,-0.4444 -0.1667,0.5 0.5,-0.5 0.073,-0.10963 0.06,-0.2606 0.125,-0.375 0.362,-0.63357 1.0482,-1.09633 1.375,-1.75 0.1954,-0.39078 0.05,-0.48484 0.375,-0.875 0.2916,-0.34992 0.7216,-0.25382 1,-0.625 0.2939,-0.39192 0.5483,-0.87659 0.875,-1.25 0.194,-0.22173 0.431,-0.40327 0.625,-0.625 0.1528,-0.17458 0.548,-0.89722 0.625,-1 0.1061,-0.14142 0.28,-0.22586 0.375,-0.375 0.2001,-0.31441 0.319,-0.67422 0.5,-1 0.138,-0.24849 0.4662,-0.3868 0.625,-0.625 0.2121,-0.3182 0.3977,-0.69689 0.625,-1 0.025,-0.0333 0.106,0.0373 0.125,0 0.2007,-0.40139 0.3201,-0.83886 0.5,-1.25 0.112,-0.25607 0.287,-0.48484 0.375,-0.75 0.04,-0.11859 -0.034,-0.25481 0,-0.375 0.1461,-0.51134 0.2846,-0.44415 0.5,-0.875 0.277,-0.55403 0.381,-1.18066 0.625,-1.75 0.1187,-0.27706 0.296,-0.34945 0.375,-0.625 0.2062,-0.72163 0,-0.66842 0.5,-1.375 0.054,-0.0758 0.196,-0.0492 0.25,-0.125 0.3725,-0.52151 0.6384,-1.20758 1,-1.75 0.2615,-0.39223 0.7055,-0.6319 1,-1 0.1186,-0.14821 0.702,-1.43204 0.75,-1.625 0.32,-1.27828 0.25,-2.55937 0.25,-3.875 0,-1.11884 0.059,-2.25749 0,-3.375 -0.026,-0.50104 -0.083,-1 -0.125,-1.5 -0.042,-0.375 -0.103,-0.74834 -0.125,-1.125 -0.078,-1.32873 0.063,-2.67039 -0.4375,-3.875 -0.888,0.125 -1.3829,0.14261 -1.8125,0.25 -0.057,0.0143 -0.069,0.1064 -0.125,0.125 -0.2404,0.0802 -0.543,-0.18544 -0.75,0.125 -0.317,0.12695 0.1277,0.1997 -0.375,0.25 -0.4975,0.0497 -1.0031,-0.0552 -1.5,0 -1.1985,0.133 -0.3081,0.125 -0.75,0.125 -0.49,0 -1.1327,-0.0703 -1.625,0 -1.299,0.18557 -2.5829,0.35643 -3.875,0.5 -1.0768,0.11964 -2.0591,0.5619 -3.125,0.75 -0.4635,0.0818 -1.2835,-0.008 -1.75,0.125 -0.1445,0.0413 -0.2406,0.1828 -0.375,0.25 -0.4735,0.23677 -1.002,0.23918 -1.5,0.375 -0.2165,0.059 -0.4056,0.203 -0.625,0.25 -4.5139,0.96726 2.0919,-0.76508 -2.125,0.5 -0.4806,0.1442 -1.0041,0.0487 -1.5,0.125 -1.6072,0.24726 -3.4694,1.3361 -5.125,1.75 -0.6978,0.17445 -1.4248,0.21026 -2.125,0.375 -0.8353,0.19653 -1.5592,0.67104 -2.375,0.875 -0.2021,0.0505 -0.4229,-0.0505 -0.625,0 -0.9366,0.23414 -1.829,0.70914 -2.75,1 -0.5785,0.18269 -1.1719,0.31605 -1.75,0.5 -1.685,0.53622 -0.3491,0.16627 -1.75,0.75 -0.7423,0.30928 -1.5077,0.56572 -2.25,0.875 -0.7053,0.29385 -0.7381,0.39617 -1.375,0.75 -0.2774,0.15411 -0.6029,0.21174 -0.875,0.375 -2.0935,1.25612 -3.9292,2.90208 -6.125,4 -1.36731,0.68365 -3.07773,0.97163 -4.375,1.75 -0.22878,0.13727 -0.38637,0.38068 -0.625,0.5 -0.27132,0.13566 -0.5971,0.12842 -0.875,0.25 -0.22068,0.0965 -1.20488,0.70201 -1.625,0.875 -0.53664,0.22097 -1.1018,0.37386 -1.625,0.625 -0.52185,0.25049 -0.9868,0.60724 -1.5,0.875 -1.70555,0.88985 -3.41254,1.65098 -5,2.75 -0.96868,0.67062 -1.68019,1.55518 -2.5,2.375 -0.1718,0.1718 -0.43836,0.21946 -0.625,0.375 -1.50828,1.2569 1.55277,-1.00198 -1.25,1 -0.46513,0.36177 -0.81702,0.85032 -1.25,1.25 -1.2717,1.1739 0.0199,-0.11274 -1.25,0.875 -0.18605,0.14471 -0.31595,0.35276 -0.5,0.5 -0.23462,0.1877 -0.52852,0.29697 -0.75,0.5 -0.28318,0.25958 -0.47837,0.60337 -0.75,0.875 -0.42997,0.42996 -1.04366,0.71936 -1.5,1.125 -1.875,1.66667 0.13889,0 -1.25,1.25 -0.24189,0.2177 -0.5,0.41667 -0.75,0.625 -0.0833,0.0417 -0.1799,0.0636 -0.25,0.125 -0.26608,0.23282 -0.47392,0.52914 -0.75,0.75 -0.14551,0.1164 -0.35093,0.1382 -0.5,0.25 -0.72147,0.5411 -1.2735,1.33012 -2,1.875 -0.36056,0.27042 -0.75,0.5 -1.125,0.75 -0.0833,0.125 -0.13269,0.2811 -0.25,0.375 -0.10289,0.0823 -0.27378,0.0406 -0.375,0.125 -0.16005,0.13337 -0.24486,0.33732 -0.375,0.5 -0.14724,0.18405 -0.34911,0.31893 -0.5,0.5 -0.0962,0.11541 -0.1667,0.25 -0.25,0.375 0,0.0417 0.025,0.0917 0,0.125 -0.21213,0.28284 -0.52914,0.47392 -0.75,0.75 -0.0582,0.0727 -0.0591,0.1841 -0.125,0.25 -0.0659,0.0659 -0.1841,0.0591 -0.25,0.125 -0.0659,0.0659 -0.0644,0.1793 -0.125,0.25 -0.40015,0.46683 -0.88151,0.88368 -1.25,1.375 -0.11181,0.14907 -0.14664,0.34496 -0.25,0.5 -0.37829,0.56743 -0.8221,1.17946 -1.25,1.75 -0.19526,0.26034 -0.39489,0.51989 -0.625,0.75 -0.48184,0.4818 -0.0443,-0.46793 -0.625,0.5 -0.0838,0.13963 -0.0412,0.61037 -0.125,0.75 -0.0479,0.0799 -0.2083,0.0417 -0.25,0.125 -0.16667,0.33333 0.0556,0.27778 0,0.5 -0.0834,0.33343 -0.3097,0.67354 -0.375,1 -0.0803,0.40168 -0.0574,0.8444 -0.125,1.25 -0.0282,0.16946 -0.0833,0.33333 -0.125,0.5 -0.0417,0.0833 -0.1024,0.1596 -0.125,0.25 -0.0784,0.31372 0.0784,0.18627 0,0.5 -0.10589,0.42355 -0.40415,0.88192 -0.625,1.25 -0.0678,0.11298 -0.0318,0.2818 -0.125,0.375 -0.43676,0.43676 -1.36518,0.86763 -1.875,1.25 -0.0745,0.0559 -0.1667,0.0833 -0.25,0.125 -0.0833,0 -0.1807,-0.0462 -0.25,0 -0.0775,0.0517 -0.0534,0.1904 -0.125,0.25 -0.9366,0.78052 -0.31883,0.12922 -0.875,0.5 -0.39352,0.26234 -0.63522,0.60141 -1,0.875 -0.0745,0.0559 -0.1841,0.0591 -0.25,0.125 -0.0659,0.0659 -0.0591,0.1841 -0.125,0.25 -0.0295,0.0295 -0.0955,-0.0295 -0.125,0 -0.0659,0.0659 -0.0833,0.1667 -0.125,0.25 -0.0417,0 -0.0903,-0.0231 -0.125,0 -0.18549,0.12366 -0.41869,0.5425 -0.625,0.625 -0.11606,0.0464 -0.2517,-0.0206 -0.375,0 -0.43689,0.0728 -0.41963,0.22321 -0.875,0.375 -0.32596,0.10865 -0.66459,0.1755 -1,0.25 -0.4881,0.10846 -1,0 -1.5,0 -2.24228,0 -3.52788,-0.46284 -4.30915,1.56425 -0.78128,2.02709 0.28811,2.83488 1.30915,3.68575 z"
         id="path158" />
    </g>
  </g>
</svg>
