<?xml version="1.0" encoding="UTF-8" standalone="no"?>
<!-- Created with Inkscape (http://www.inkscape.org/) -->

<svg
   version="1.1"
   id="svg1"
   width="107.15542"
   height="96.299103"
   viewBox="0 0 107.15542 96.299103"
   xmlns="http://www.w3.org/2000/svg"
   xmlns:svg="http://www.w3.org/2000/svg">
  <defs
     id="defs1" />
  <g
     id="layer1"
     style="display:inline"
     transform="translate(-942.49998,-216.1537)">
    <g
       id="layer14"
       style="display:inline;fill:#ffffff;fill-opacity:1;stroke:none">
      <path
         style="fill:#ffffff;fill-opacity:1;stroke:none;stroke-width:1;stroke-linecap:round;stroke-dasharray:none;stroke-opacity:1"
         d="m 942.49998,276.49999 2.25,-2.625 12.4958,-3.98118 2.07713,-5.83363 23.59969,-22.0087 16.88217,-11.79984 36.23923,-13.92116 13.5234,-0.17678 0.088,11.97662 -2.961,5.56847 -3.4472,10.69499 -10.5624,9.72271 -4.4636,7.73398 -1.7677,6.01041 -2.8727,5.08233 -5.0823,4.11006 -2.4307,2.47487 -2.2539,0.30936 -1.7677,1.01647 -0.6188,2.29809 -7.6456,2.87263 -12.06496,2.78423 -12.1976,1.19324 -6.8059,7.02687 -1.54679,4.99395 -3.88909,6.54073 -3.49134,3.88909 -10.16466,-7.99914 -3.13779,-6.71752 1.63519,-3.44714 -0.39775,-8.44109 z"
         id="path12" />
    </g>
  </g>
</svg>
