<?xml version="1.0" encoding="UTF-8" standalone="no"?>
<!-- Created with Inkscape (http://www.inkscape.org/) -->

<svg
   version="1.1"
   id="svg2"
   width="340.55566"
   height="239.76743"
   viewBox="0 0 340.55566 239.76743"
   xmlns="http://www.w3.org/2000/svg"
   xmlns:svg="http://www.w3.org/2000/svg">
  <defs
     id="defs6">
    <linearGradient
       id="swatch77">
      <stop
         style="stop-color:#e2c69e;stop-opacity:1;"
         offset="0"
         id="stop77" />
    </linearGradient>
  </defs>
  <g
     id="layer66"
     style="display:inline"
     transform="translate(-859.84184,-37.241632)">
    <g
       id="layer79"
       style="display:inline">
      <path
         style="fill:#969696;fill-opacity:1;stroke:none;stroke-opacity:1"
         d="m 925.60277,276.8323 c -0.96663,-0.0537 -1.78985,-0.41984 -2.65165,-0.7071 -0.44968,-1.06281 -1.18996,-0.18847 -1.76776,-0.35356 -0.26378,-0.0754 -1.04858,-0.4572 -1.41422,-0.53033 -1.24302,-0.2486 1.2637,0.65694 -1.23743,-0.17677 -0.25,-0.0833 -0.45711,-0.27022 -0.70711,-0.35356 -0.52725,-0.17574 -1.2198,0.1096 -1.76777,0 -0.64595,-0.12919 -1.11957,-0.34513 -1.76776,-0.53033 -0.87445,-0.24984 -1.93849,-0.17556 -2.82843,-0.35355 -0.0596,-0.0119 -1.83605,-0.65286 -1.94455,-0.70711 -0.2236,-0.1118 -0.33033,-0.38033 -0.53033,-0.53033 -0.64783,-0.48588 -1.87142,-1.43494 -2.65165,-1.59099 -1.23706,-0.24741 -2.63294,0.12562 -3.88908,0 -0.83619,-0.0836 -1.67847,-0.37105 -2.47488,-0.53033 -0.33995,-0.068 -0.7207,0.068 -1.06066,0 -0.41781,-0.0836 -1.65534,-0.66963 -1.76776,-0.7071 -0.46673,-0.15558 -1.12427,-0.19798 -1.59099,-0.35356 -0.63774,-0.21258 -1.16887,-0.64432 -1.76777,-0.88388 -0.10942,-0.0438 -0.23922,0.0286 -0.35355,0 -0.56303,-0.14076 -1.08711,-0.41917 -1.59099,-0.70711 -0.0512,-0.0292 0.0417,-0.13511 0,-0.17677 -0.17678,-0.11786 -0.35356,-0.23571 -0.53033,-0.35356 0,-0.0589 0.0417,-0.13511 0,-0.17677 -0.0932,-0.0932 -0.27697,-0.0696 -0.35356,-0.17678 -0.22975,-0.32166 -0.33836,-0.71512 -0.53033,-1.06066 -0.14308,-0.25755 -0.39857,-0.44358 -0.53033,-0.70711 -0.54006,-1.08013 -1.09435,-1.99508 -1.76777,-3.0052 -0.19059,-0.28589 -0.30672,-0.62301 -0.53033,-0.88389 -0.13826,-0.16131 -0.35744,-0.23006 -0.53033,-0.35355 -0.48785,-0.34847 -0.90149,-0.75303 -1.41421,-1.06066 -0.88768,-0.53261 -1.91642,-0.78143 -2.82843,-1.23744 -0.19003,-0.095 -0.32877,-0.28636 -0.53033,-0.35355 -0.72886,-0.24295 -1.69602,0.0569 -2.47487,-0.17678 -0.2035,-0.0611 -0.33505,-0.26986 -0.53033,-0.35355 -0.90725,-0.38882 -0.56806,-0.006 -1.59099,-0.17678 -0.14986,-0.025 -0.2754,-0.17677 -0.7955,-0.0884 -0.20624,0.0884 -0.35864,0.17168 -0.44194,0.0884 -0.36575,-0.36575 0.55893,0.0143 -0.17677,-0.35355 -0.3148,-0.1574 -0.77011,-0.23977 -1.06066,-0.53033 -0.0833,-0.0833 0.0833,-0.27025 0,-0.35355 -0.0417,-0.0417 -0.11788,0 -0.17678,0 -0.0589,-0.11785 -0.11788,-0.2357 -0.17678,-0.35356 -0.084,-0.084 -0.6231,-0.26955 -0.7071,-0.35355 -0.0932,-0.0932 0.17342,-0.37125 -0.17678,-0.35355 -0.16997,-0.12748 -0.35355,-0.2357 -0.53033,-0.35356 -0.0589,-0.11785 -0.0836,-0.26035 -0.17678,-0.35355 -0.0932,-0.0932 -0.26035,-0.0836 -0.35355,-0.17678 -0.5285,-0.5285 -1.01255,-1.54287 -1.59099,-2.12132 -0.0932,-0.0932 -0.26035,-0.0836 -0.35355,-0.17677 -0.40641,-0.40641 -1.02004,-1.37359 -1.41422,-1.76777 -1.08716,-1.08717 0.59604,1.24761 -0.70711,-0.70711 -0.0417,-0.0417 -0.13507,0.0417 -0.17677,0 -0.35383,-0.35383 -0.44051,-0.83754 -0.70711,-1.23743 -0.20929,-0.31394 -0.74841,-0.36174 -0.70711,-0.88389 -0.53033,-0.79549 0.35356,0.17678 -0.53033,-1.06066 -0.3558,-0.49812 -0.89819,-0.90535 -1.23743,-1.41421 -0.10338,-0.15504 -0.0809,-0.37055 -0.17678,-0.53033 -0.35067,-0.58446 -0.98784,-1.05802 -1.41421,-1.59099 -0.4015,-0.50188 -0.38623,-0.73978 -0.88389,-1.23744 -0.0932,-0.0932 -0.26035,-0.0836 -0.35355,-0.17677 -0.0932,-0.0932 -0.091,-0.25352 -0.17678,-0.35356 -0.50168,-0.5853 -1.45454,-1.51503 -1.76776,-2.2981 -0.0438,-0.10942 0.0403,-0.24279 0,-0.35355 -0.19833,-0.54541 -0.44757,-1.07191 -0.70711,-1.59099 -0.0373,-0.0745 -0.17678,-0.0935 -0.17678,-0.17678 0,-0.59219 0.11788,-1.17851 0.17678,-1.76776 0.18198,-0.18198 0.34835,-0.17158 0.53033,-0.35356 0.0417,-0.0417 -0.0263,-0.12407 0,-0.17677 0.095,-0.19003 0.22608,-0.36037 0.35355,-0.53033 0.3765,-0.50199 0.86091,-0.91217 1.23744,-1.41422 0.0791,-0.10541 0.0836,-0.26035 0.17678,-0.35355 0.15023,-0.15023 0.36036,-0.22608 0.53033,-0.35355 0.60676,-0.45508 1.11035,-1.22705 1.59099,-1.76777 0.358,-0.40276 0.93541,-0.7844 1.23743,-1.23744 0.17019,-0.25527 0.75112,-1.10442 0.88389,-1.41421 0.125,-0.29167 0.17753,-0.61985 0.35355,-0.88388 0.0731,-0.10968 0.27445,-0.0714 0.35355,-0.17678 0.1904,-0.25386 0.17754,-0.61985 0.35356,-0.88388 0.37901,-0.56852 0.83429,-1.08866 1.06066,-1.76777 0.095,-0.28504 0.0584,-0.60772 0.17677,-0.88388 0.0657,-0.1532 0.27906,-0.20449 0.35356,-0.35356 0.15467,-0.30937 0.0901,-0.89054 0.17677,-1.23743 0.11841,-0.47361 0.23069,-0.92275 0.35356,-1.41422 0.2363,-0.94521 -0.19142,-2.04811 0,-3.0052 0.13556,-0.67781 0.43083,-1.42474 0.53033,-2.12132 0.0787,-0.55071 0.10036,-1.51458 0.53033,-1.94455 0.0932,-0.0932 0.26035,-0.0836 0.35355,-0.17677 0.15023,-0.15023 0.20332,-0.3801 0.35356,-0.53033 0.42462,-0.42463 1.35946,-0.91987 1.76776,-1.23744 1.02939,-0.80064 1.84205,-1.42343 3.00521,-2.12132 0.65145,-0.39087 0.41751,-0.6507 0.88388,-0.88388 0.10541,-0.0527 0.24814,0.0527 0.35355,0 0.35356,-0.17678 0.26517,-0.35356 0.53033,-0.53033 0.3217,-0.21447 0.32767,-0.0833 0.53033,-0.35356 0.12748,-0.16996 0.23571,-0.35355 0.35356,-0.53033 0.0589,-0.17677 0.0734,-0.37528 0.17677,-0.53033 0.0327,-0.049 0.13508,0.0417 0.17678,0 0.39324,-0.39324 0.63051,-1.40839 0.70711,-1.94454 0.22428,-1.57 0,-3.37063 0,-4.94975 0,-0.69653 0.21049,-1.66661 0,-2.2981 -0.0833,-0.25 -0.27026,-0.4571 -0.35356,-0.7071 -0.2845,-0.8535 0.16426,-2.72676 0,-3.71231 -0.13286,-0.79721 -0.57389,-1.85235 -0.7071,-2.65165 -0.0484,-0.29062 0.0578,-0.59498 0,-0.88389 -0.12268,-0.61338 -0.37998,-1.16636 -0.53033,-1.76776 -0.12348,-0.49389 -0.0334,-1.0891 -0.17678,-1.59099 -0.34696,-1.21435 -0.6367,-2.29961 -0.88388,-3.53554 -0.29506,-1.47518 -0.0393,0.21606 -0.35356,-0.88388 -0.39363,-1.37771 -0.7901,-2.72387 -1.23743,-4.06587 -0.16972,-0.50916 0,-1.38921 0,-1.94454 0,-1.82788 -0.0808,-3.67708 0.17677,-5.48008 0.0533,-0.37325 0.20965,-1.26719 0.35356,-1.59099 0.35553,-0.79996 0.84237,-1.42496 1.06066,-2.29809 0.22514,-0.90058 -0.41469,-0.21313 0.35355,-1.23744 0.0353,-0.0471 0.14408,0.049 0.17678,0 0.10337,-0.15504 0.0935,-0.36366 0.17677,-0.53033 0.26098,-0.52195 0.58418,-0.6111 0.88389,-1.06066 0.17602,-0.26403 0.19611,-0.60837 0.35355,-0.88388 0.0299,-0.0523 0.7714,-0.94818 0.88388,-1.06066 0.30047,-0.30047 0.73804,-0.43058 1.06066,-0.70711 1.03268,-0.88515 1.93849,-1.79017 2.82843,-2.82843 0.21693,-0.25308 0.55804,-0.40896 0.70711,-0.70711 0.2221,-0.44419 0.91638,-1.05351 1.06066,-1.41421 0.0903,-0.22558 0.0518,-0.49877 0.17677,-0.70711 0.0678,-0.11297 0.26036,-0.0836 0.35356,-0.17677 0.17177,-0.1718 0.031,-0.51274 0.17677,-0.70711 0.0791,-0.10538 0.29466,-0.0589 0.35356,-0.17678 0.079,-0.15811 -0.0429,-0.35883 0,-0.53033 0.0202,-0.0809 0.13947,-0.10227 0.17677,-0.17677 0.33741,-0.67481 0.81778,-1.56945 1.06066,-2.2981 0.14589,-0.43765 0.18384,-0.96163 0.35356,-1.41421 0.28945,-0.77189 0.69221,-1.5612 1.06066,-2.2981 0.68539,-1.37078 1.68767,-2.57709 2.47487,-3.88909 0.57906,-0.9651 -0.13589,0.23091 0.17678,-0.7071 0.017,-0.051 1.50639,-2.7156 1.59099,-2.82843 0.0791,-0.10538 0.26035,-0.0836 0.35355,-0.17678 0.32701,-0.32701 0.13055,-0.10744 0.53033,-0.7071 0.0417,-0.0417 0.15048,0.0527 0.17678,0 0.0527,-0.10541 -0.0606,-0.2525 0,-0.35356 0.12862,-0.21437 0.40171,-0.31595 0.53033,-0.53033 0.12498,-0.20833 -0.19246,-0.55782 0.17678,-0.7071 0.0924,-0.13868 0.27905,-0.20449 0.35355,-0.35356 0.32241,-0.64482 0.56816,-1.31309 0.88388,-1.94454 0.0527,-0.10541 -0.0654,-0.25546 0,-0.35356 0.0924,-0.13867 0.27906,-0.20448 0.35356,-0.35355 0.15587,-0.31175 0,-1.236 0,-1.59099 0,-0.50357 0.15993,-1.28795 0,-1.76777 -0.12155,-0.36464 -0.43723,-0.68835 -0.53033,-1.06066 -0.18327,-0.73307 -0.40026,-1.58211 -0.70711,-2.29809 -0.1179,-0.2751 -0.53033,-1.06491 -0.53033,-1.41422 0,-0.24295 0.11788,-0.4714 -0.17678,0.0884 -0.35355,-1.39757 0.6792,-0.23726 1.59099,-1.14905 0.0417,-0.0417 -0.0417,-0.13507 0,-0.17677 0.0932,-0.0932 0.26036,-0.0836 0.35356,-0.17678 0.0932,-0.0932 0.0836,-0.26035 0.17677,-0.35355 0.0417,-0.0417 0.13508,0.0417 0.17678,0 0.0932,-0.0932 0.10368,-0.24392 0.17678,-0.35356 0.27121,-0.40681 1.4784,-1.28023 1.94454,-1.59099 0.28221,-0.18814 0.31383,-0.4906 0.53033,-0.7071 0.0417,-0.0417 0.12778,0.0327 0.17678,0 0.27735,-0.1849 0.44044,-0.50711 0.7071,-0.70711 0.50322,-0.37741 1.02691,-0.48148 1.59099,-0.70711 0.15475,-0.0619 0.19544,-0.30085 0.35356,-0.35355 0.93801,-0.31267 -0.258,0.40228 0.7071,-0.17678 0.65669,-0.39401 1.52837,-0.61594 2.12132,-1.06066 0.32999,-0.24749 0.5539,-0.63639 0.88389,-0.88388 0.25386,-0.1904 0.61178,-0.19029 0.88388,-0.35355 0.27042,-0.16226 0.7137,-0.62861 0.88388,-0.88389 0.0327,-0.049 -0.0417,-0.13507 0,-0.17677 0.6434,-0.6434 0.12421,0.18794 0.53033,-0.35356 0.44613,-0.59483 0.77853,-1.41599 1.06066,-2.12132 0.13841,-0.34602 0.12995,-0.76252 0.35356,-1.06066 0.0791,-0.10538 0.28045,-0.0671 0.35355,-0.17678 0.13075,-0.19611 -0.0875,-0.48826 0,-0.7071 0.22956,-0.57389 0.92824,-1.8343 1.23744,-2.2981 0.41845,-0.62768 1.12996,-0.95318 1.59099,-1.41421 0.0417,-0.0417 -0.0527,-0.15048 0,-0.17678 0.1506,-0.0753 0.5714,-0.0411 0.70711,-0.17678 0.0932,-0.0932 0.0671,-0.28045 0.17677,-0.35355 0.0981,-0.0654 0.23799,0.0231 0.35356,0 0.18272,-0.0365 0.35355,-0.11788 0.53033,-0.17678 0.0589,-0.0589 0.0977,-0.15047 0.17677,-0.17677 0.16771,-0.0559 0.38325,0.0981 0.53033,0 0.13868,-0.0924 0.22022,-0.25356 0.35356,-0.35356 0.21081,-0.15811 0.52076,-0.16721 0.7071,-0.35355 0.0417,-0.0417 -0.0527,-0.15038 0,-0.17678 0.15812,-0.079 0.40533,0.125 0.53033,0 0.0417,-0.0417 -0.0263,-0.12407 0,-0.17677 0.13472,-0.26944 0.48537,-0.38251 0.70711,-0.53033 0.26521,-0.17681 0.28616,-0.50364 0.53033,-0.70711 0.41735,-0.34779 0.77159,-0.78115 1.23744,-1.06066 0.15978,-0.0959 0.37054,-0.0809 0.53033,-0.17678 0.88388,-0.53033 0,-0.17677 0.53033,-0.53033 0.51333,-0.34222 1.069,-0.74747 1.59099,-1.06066 0.22597,-0.13558 0.48364,-0.21388 0.7071,-0.35355 0.24985,-0.15615 0.4363,-0.41427 0.70711,-0.53033 0.16248,-0.0696 0.36263,0.0559 0.53033,0 0.0559,-0.0186 -0.0417,-0.13508 0,-0.17678 0.12027,-0.12027 0.84881,-0.636484 1.06066,-0.707104 0.1118,-0.03727 0.25925,0.07071 0.35355,0 0.16997,-0.127476 0.20333,-0.380099 0.35356,-0.53033 0.0417,-0.04167 0.12777,0.03269 0.17677,0 0.95367,-0.635777 -0.12175,-0.05502 0.53033,-0.707107 0.0932,-0.09317 0.28046,-0.06714 0.35356,-0.176777 0.0654,-0.09806 -0.0373,-0.24175 0,-0.353553 0.12275,-0.368264 0.83981,-1.215403 1.23743,-1.414214 0.19003,-0.09501 0.34031,-0.258533 0.53033,-0.353553 0.55097,-0.275483 2.59846,0.190076 3.35876,0 0.99892,-0.24973 1.57967,-1.23555 2.65165,-1.414214 0.64089,-0.106814 1.1644,0.139307 1.76777,0.353554 h 1.76777 c 0.30571,0 1.56103,-0.206737 1.76776,0 0.23568,0.235702 -0.375,0.169628 0.17678,0.353553 0.1118,0.03727 0.25925,-0.07071 0.35355,0 0.0897,0.06724 0.46753,0.69549 0.53033,0.883884 0.058,0.173904 0.12314,1.759837 0,1.944543 -0.0924,0.138675 -0.26115,0.214879 -0.35355,0.353554 -0.18278,0.274313 0.3003,0.115017 -0.17678,0.353553 -0.0527,0.02635 -0.13507,-0.04167 -0.17677,0 -0.27383,0.273822 -0.97062,1.235231 -1.23744,1.590991 -0.21811,0.29082 -0.52648,1.23359 -0.70711,1.41421 -0.0417,0.0417 -0.15047,-0.0527 -0.17677,0 -0.10971,0.21941 0,1.25695 0,1.41422 0,0.0577 -0.038,0.84588 0,0.88388 0.0833,0.0833 0.27025,-0.0833 0.35355,0 0.0833,0.0833 -0.0527,0.24814 0,0.35355 0.0264,0.0527 0.11788,0 0.17678,0 0.24311,0 2.23899,0.49093 2.29809,0.53033 0.10968,0.0731 0.0714,0.27446 0.17678,0.35356 0.38545,0.28909 1.01171,0.32907 1.41421,0.53033 0.40343,0.20171 0.487,0.39803 0.88389,0.53033 0.2236,0.0745 0.50769,-0.22361 0.7071,0 0.74722,0.2802 1.34753,0.86721 2.12132,1.06066 0.81672,0.20418 3.36831,0 4.24264,0 0.8623,0 3.22213,0.21093 4.06587,0 0.12783,-0.032 0.22572,-0.14478 0.35355,-0.17678 0.49571,-0.12393 1.08774,0.0839 1.59099,0 0.18381,-0.0306 0.34761,-0.14018 0.53033,-0.17678 0.11556,-0.0231 0.24523,0.0464 0.35356,0 0.31581,-0.13534 0.56807,-0.39498 0.88388,-0.53033 0.26653,-0.11423 1.76871,-0.3981 2.12132,-0.53033 0.51894,-0.1946 0.91271,-0.66895 1.41421,-0.88388 0.63534,-0.27229 1.85861,-0.57575 2.47488,-0.88388 0.26352,-0.13176 0.4714,-0.35356 0.7071,-0.53033 0.0589,-0.0589 0.10528,-0.13388 0.17678,-0.17678 0.65345,-0.39207 1.40031,-0.82032 2.12132,-1.06066 0.1118,-0.0373 0.24175,0.0373 0.35355,0 1.0105,-0.33685 -1.06867,-0.0338 0.53033,-0.35355 0.86627,-0.17326 1.95445,0 2.82843,0 2.2101,0 4.57502,-0.18031 6.71752,0.17677 0.73132,0.12189 1.38625,0.76138 2.12132,0.88389 0.43465,0.0724 0.9798,-0.10861 1.41421,0 1.23544,0.30892 -0.28033,0.0244 1.23744,0.53033 0.28812,0.0961 0.77253,0.0808 1.06066,0.17677 0.30104,0.10035 0.58925,0.23571 0.88388,0.35356 0.11785,0.0589 0.22855,0.13507 0.35355,0.17677 0.28059,0.0935 0.71679,0.0194 0.88389,0.35356 0.0899,0.17976 -0.0673,0.82918 -0.17678,0.88388 -0.10541,0.0527 -0.27025,-0.0833 -0.35355,0 -0.0833,0.0833 0.0654,0.25545 0,0.35355 -0.43063,0.64594 -0.25878,-0.18954 -0.53033,0.35356 -0.13254,0.26507 -0.52494,0.94101 -0.88389,1.06066 -0.1118,0.0373 -0.25545,-0.0654 -0.35355,0 -0.64593,0.43063 0.18954,0.25878 -0.35355,0.53033 -0.35534,0.17766 -0.85971,0.45529 -1.23744,0.7071 -0.27735,0.1849 -0.50711,0.44044 -0.70711,0.70711 -0.0353,0.0471 0.0505,0.14648 0,0.17678 -0.2721,0.16326 -0.60837,0.19611 -0.88388,0.35355 -0.74174,0.42385 -0.0458,0.22257 -0.53033,0.70711 -0.36575,0.36575 0.0143,-0.55893 -0.35355,0.17677 -0.0264,0.0527 0.0417,0.13508 0,0.17678 -0.0932,0.0932 -0.23571,0.11788 -0.35356,0.17678 -0.0589,0 -0.12777,-0.0327 -0.17677,0 -0.22687,0.15124 -0.66159,0.52927 -0.88389,0.7071 -0.49257,0.39406 -1.23389,0.87858 -1.59099,1.41422 -0.14782,0.22174 -0.26089,0.57238 -0.53033,0.7071 -0.57496,0.28746 -0.42049,0.0446 -0.88388,0.35356 -0.18963,0.12642 -0.31792,0.51251 -0.70711,0.7071 -0.16666,0.0834 -0.36854,0.0844 -0.53033,0.17678 -0.38488,0.21993 -1.75221,1.30876 -2.12132,1.41422 -0.15618,0.0446 -1.16346,0.18638 -1.41421,0.35355 -0.049,0.0327 0.0527,0.15038 0,0.17678 -0.35356,0.17677 -0.26517,-0.0884 -0.53033,0 -0.125,0.0417 -0.22435,0.15097 -0.35356,0.17677 -0.95709,0.19142 -2.03297,-0.10802 -3.0052,0 -0.29862,0.0332 -0.58526,0.14358 -0.88388,0.17678 -0.40996,0.0456 -0.83728,-0.10004 -1.23744,0 -0.54233,0.13558 -1.05555,0.3697 -1.59099,0.53033 -0.41329,0.12398 0.11017,-0.3036 -0.53033,0.17678 -0.40875,0.30655 -0.55496,0.73174 -0.88388,1.06066 -0.15023,0.15023 -0.3801,0.20332 -0.53033,0.35355 -0.0953,0.0952 -0.25018,2.07795 -0.17678,2.2981 0.0672,0.20155 0.4601,0.21037 0.35355,0.53033 0.15308,0.6123 -0.22384,0.10617 0.17678,0.7071 0.33924,0.50887 0.93866,0.82288 1.41421,1.06066 0.27076,0.13538 0.13825,0.31502 0.35356,0.53033 0.13176,0.13178 0.37528,0.0734 0.53033,0.17678 0.32573,0.21715 0.66128,0.57398 1.06066,0.70711 0.39041,0.13013 1.88496,0.13771 2.29809,0 0.28653,-0.0955 0.63289,-0.46763 0.88389,-0.53033 0.2125,-0.0531 1.76338,-0.23718 1.94454,-0.17678 0.7766,0.25887 1.29407,0.5728 1.94454,1.06066 0.29114,0.21838 0.89988,0.016 1.06066,0.17678 0.0417,0.0417 -0.0417,0.13507 0,0.17677 0.52435,0.52434 1.49449,0.99632 2.12133,1.41422 0.89922,0.59948 1.93743,1.76492 2.82842,2.12132 0.89564,0.35825 1.84711,0.8971 2.82843,1.06066 0.45866,0.0764 0.95555,-0.0764 1.41421,0 1.36256,0.22709 0.0188,0.15702 1.59099,0.35355 0.47518,0.0594 1.13915,-0.15061 1.59099,0 0.0559,0.0186 -0.0559,0.15818 0,0.17678 0.22361,0.0745 0.49629,-0.10541 0.70711,0 0.14907,0.0745 0.20448,0.27905 0.35355,0.35355 0.0527,0.0264 0.13508,-0.0417 0.17678,0 0.0417,0.0417 -0.0417,0.13508 0,0.17678 0.0932,0.0932 0.26035,0.0836 0.35355,0.17677 0.0932,0.0932 0.0977,0.24815 0.17678,0.35356 0.5403,0.72039 1.36574,1.31726 1.76777,2.12132 0.38604,0.77209 0.76495,1.58937 1.23743,2.2981 0.36971,0.55455 0.22693,1.46436 0.70711,1.94454 0.0417,0.0417 0.13508,-0.0417 0.17678,0 0.47771,0.47771 0.59519,1.36716 0.88388,1.94454 0.17429,0.34859 0.73959,0.52316 0.88388,0.88389 0.29463,0.73657 -0.19641,0.29462 0,0.88388 0.0264,0.0791 0.15048,0.0977 0.17678,0.17678 0.0559,0.1677 -0.0791,0.37221 0,0.53033 0.0373,0.0745 0.15658,0.096 0.17678,0.17677 0.0429,0.1715 -0.0559,0.36263 0,0.53033 0.0186,0.0559 0.14407,-0.049 0.17677,0 0.10338,0.15505 0.0935,0.36367 0.17678,0.53033 0.095,0.19003 0.27465,0.33307 0.35355,0.53033 0.0438,0.10943 -0.0438,0.24413 0,0.35356 0.6859,1.71473 0.058,0.21543 0.53033,0.53033 0.52482,0.34987 0.23431,0.41107 0.70711,0.88388 0.59017,0.59017 1.53945,0.871 2.2981,1.06066 0.9828,0.2457 4.01941,-0.0439 4.94971,-0.17678 0.7952,-0.11357 1.7029,0.0806 2.4749,-0.17677 0.079,-0.0264 0.098,-0.15038 0.1768,-0.17678 0.4243,-0.14144 0.2828,0.14144 0.7071,0 0.6164,-0.20547 2.1707,-2.5737 2.4749,-3.18198 0.1749,-0.3498 0.2861,-0.87107 0.5303,-1.23744 0.2661,-0.39919 0.4749,-0.9648 0.8839,-1.23743 0.1096,-0.0731 0.2605,-0.0836 0.3535,-0.17678 0.1318,-0.13176 0.045,-0.39857 0.1768,-0.53033 0.093,-0.0932 0.2716,-0.0739 0.3536,-0.17678 0.1646,-0.20577 0.2357,-0.4714 0.3535,-0.7071 0,-0.0589 -0.033,-0.12778 0,-0.17678 0.092,-0.13868 0.2606,-0.21488 0.3536,-0.35355 0.1667,-0.25 0.065,-0.60492 0.1767,-0.88389 0.3636,-0.89848 0,0.89157 0.3536,-0.53033 0.029,-0.11433 -0.044,-0.24413 0,-0.35355 0.079,-0.19726 0.2357,-0.35355 0.3536,-0.53033 0.059,0 0.1507,0.0527 0.1767,0 0.1919,-0.3837 0.2696,-0.81678 0.3536,-1.23744 0.1303,-0.65165 0.2031,-1.6173 0.7071,-2.12132 0.093,-0.0932 0.2605,-0.0836 0.3535,-0.17678 0.093,-0.0932 0.084,-0.26035 0.1768,-0.35355 0.4322,-0.43222 1.201,-0.83393 1.7678,-1.06066 0.2761,-0.11044 0.827,-0.11991 1.0606,-0.35355 0.093,-0.0932 0.067,-0.28046 0.1768,-0.35356 0.098,-0.0654 0.2373,0.0194 0.3536,0 0.5952,-0.0992 1.0151,-0.41516 1.591,-0.53033 0.5287,-0.10575 1.0579,-0.22029 1.591,-0.35355 0.1663,-0.0416 0.3639,0.0416 0.5303,0 0.2556,-0.0639 0.4487,-0.30185 0.7071,-0.35355 0.1733,-0.0347 0.3588,0.0429 0.5303,0 0.081,-0.0202 0.098,-0.15038 0.1768,-0.17678 0.1118,-0.0373 0.2418,0.0373 0.3536,0 0.4325,-0.14419 1.5605,-0.83028 1.9445,-1.06066 0.1429,-0.0858 0.2202,-0.25355 0.3536,-0.35355 0.1699,-0.12748 0.3403,-0.25856 0.5303,-0.35356 0.053,-0.0264 0.1348,0.0417 0.1768,0 0.093,-0.0932 0.084,-0.26035 0.1767,-0.35355 0.243,-0.24296 0.609,-0.32417 0.8839,-0.53033 0.3155,-0.23658 0.7962,-0.61944 1.0607,-0.88388 0.1502,-0.15023 0.2033,-0.3801 0.3535,-0.53033 0.3056,-0.30561 0.7933,-0.48283 1.0607,-0.88389 0.628,-0.94208 -0.6431,0.4522 0.8839,-0.88388 0.2508,-0.2195 0.4937,-0.45103 0.7071,-0.70711 0.085,-0.10122 0.067,-0.28045 0.1768,-0.35355 0.098,-0.0654 0.2481,0.0527 0.3535,0 0.1491,-0.0745 0.2149,-0.26115 0.3536,-0.35355 0.049,-0.0327 0.1347,0.0417 0.1767,0 0.093,-0.0932 0.098,-0.24815 0.1768,-0.35356 0.2779,-0.37057 0.597,-0.42016 0.7071,-0.53033 0.093,-0.0932 0.098,-0.24814 0.1768,-0.35355 0.4405,-0.5873 0.9918,-1.1915 1.591,-1.59099 0.262,-0.17466 1.9128,0.0963 2.2981,0 0.081,-0.0202 0.096,-0.15658 0.1768,-0.17678 0.1715,-0.0429 0.357,0.0347 0.5303,0 0.1292,-0.0258 0.2243,-0.15097 0.3536,-0.17677 0.5806,-0.11618 1.1932,-0.0331 1.7677,-0.17678 0.388,-0.097 0.4032,-0.37837 0.7071,-0.53033 0.2325,-0.11624 0.8169,-0.44903 1.0607,-0.53033 0.1118,-0.0373 0.2417,0.0373 0.3535,0 0.377,-0.12565 0.7676,-0.68847 1.0607,-0.88388 0.155,-0.10338 0.3637,-0.0935 0.5303,-0.17678 0.2982,-0.14907 0.4298,-0.52221 0.7071,-0.70711 0.1551,-0.10337 0.3753,-0.0734 0.5304,-0.17677 0.049,-0.0327 -0.042,-0.13508 0,-0.17678 0.1502,-0.15023 0.3603,-0.22608 0.5303,-0.35355 0.5415,-0.40613 -0.2899,0.11307 0.3535,-0.53033 0.7572,-0.75718 2.1911,-0.48944 3.0053,-0.35356 0.4349,-0.21746 0.8154,-0.21288 1.2374,-0.35355 0.2372,-0.0791 0.2982,-0.43753 0.5303,-0.53033 0.1642,-0.0656 0.3722,0.0791 0.5304,0 0.2236,-0.11181 0.3351,-0.37416 0.5303,-0.53033 0.7142,-0.57135 1.2374,-0.75126 1.7677,-1.41422 0.5289,-0.66108 1.7834,-2.55285 1.9446,-3.35875 0.035,-0.17335 -0.043,-0.35883 0,-0.53033 0.02,-0.0809 0.1398,-0.10228 0.1768,-0.17678 0.085,-0.16961 -0.01,-0.33373 0.1767,-0.70711 0.056,-0.11242 0.05,-2.5007 0,-2.65165 -0.085,-0.25519 -0.4275,-1.13466 -0.7071,-1.41421 -0.042,-0.0417 -0.1237,0.0263 -0.1767,0 -0.3165,-0.15821 -0.6047,-0.49771 -0.8839,-0.70711 -0.3488,-0.26154 -3.3585,-0.85668 -3.5356,-0.88388 -0.1769,-0.0272 -4.4158,0.0866 -4.5962,0.17678 -0.074,0.0373 -0.098,0.15047 -0.1767,0.17677 -0.3182,0.10607 -0.7425,-0.10606 -1.0607,0 -0.2372,0.0791 -0.3067,0.41853 -0.5303,0.53033 -0.2555,0.12772 -0.6997,-0.005 -1.2375,0.35356 -0.3615,0.24105 -0.676,0.69156 -1.0606,0.88388 -0.1054,0.0527 -0.2706,-0.0833 -0.3536,0 -0.1502,0.15023 -0.2033,0.3801 -0.3535,0.53033 -0.042,0.0417 -0.1348,-0.0417 -0.1768,0 -0.042,0.0417 0,0.11788 0,0.17678 -0.1178,0.0589 -0.2357,0.11787 -0.3536,0.17677 -0.2165,0.21651 -0.2481,0.51897 -0.5303,0.70711 -0.155,0.10338 -0.3985,0.045 -0.5303,0.17678 -1.0872,1.08716 1.2476,-0.59604 -0.7071,0.7071 -0.042,0.0417 0.053,0.15048 0,0.17678 -0.2108,0.10541 -0.4835,-0.0745 -0.7071,0 -0.5854,0.19511 -1.3603,0.76854 -1.9446,1.06066 -0.1054,0.0527 -0.2705,-0.0833 -0.3535,0 -0.042,0.0417 0.056,0.15818 0,0.17678 -0.2795,0.0932 -0.6204,-0.13176 -0.8839,0 -0.053,0.0263 0.053,0.15047 0,0.17677 -0.2108,0.10541 -0.4784,-0.0572 -0.7071,0 -0.3616,0.0904 -0.6991,0.26316 -1.0607,0.35356 -0.4905,0.12262 -1.113,-0.15933 -1.591,0 -0.485,0.16167 -0.9201,0.36564 -1.4142,0.53033 -0.2651,0.0884 -0.1768,-0.17678 -0.5303,0 -0.4707,0.23533 -1.012,0.93579 -1.4142,1.23743 -0.094,0.0707 -0.2706,-0.0833 -0.3536,0 -0.093,0.0932 -0.084,0.26036 -0.1767,0.35356 -0.1825,0.18243 -0.5138,0.25685 -0.7072,0.35355 -0.2121,0.10607 -0.3182,0.42427 -0.5303,0.53033 -0.1667,0.0834 -0.3753,0.0734 -0.5303,0.17678 -0.049,0.0327 0.042,0.13507 0,0.17677 -0.3268,0.32676 -0.9436,0.20663 -1.2375,0.35356 -0.053,0.0263 0.042,0.13507 0,0.17677 -0.1,0.0998 -1.5219,0.0687 -1.5909,0 -0.042,-0.0417 0.042,-0.13507 0,-0.17677 -0.042,-0.0417 -0.1348,0.0417 -0.1768,0 -0.125,-0.125 0.056,-0.36263 0,-0.53033 -0.067,-0.20156 -0.2866,-0.32878 -0.3536,-0.53033 -0.1816,-0.54503 -0.1301,-0.96729 -0.3535,-1.41422 -0.1658,-0.33226 -0.048,-1.55713 -0.1768,-1.94454 -0.019,-0.0559 -0.1418,0.0471 -0.1768,0 -0.1581,-0.21082 -0.2555,-0.46243 -0.3535,-0.70711 -0.066,-0.16413 0.056,-0.36262 0,-0.53033 -0.2949,-0.88471 -1.2172,-1.74076 -1.7678,-2.47487 -0.1618,-0.21571 -0.7528,-1.45993 -0.8839,-1.59099 -0.099,-0.099 -0.7687,0.0384 -0.8839,0 -0.2715,-0.0905 -0.1369,-0.38595 -0.3535,-0.53033 -0.098,-0.0654 -0.2482,0.0527 -0.3536,0 -0.4117,-0.20588 -0.7989,-0.66462 -1.2374,-0.88388 -0.2173,-0.10868 -0.582,0.36222 -0.7071,-0.17678 -0.1058,-0.0791 -0.084,-0.26035 -0.1768,-0.35355 -0.1863,-0.18634 -0.4963,-0.19544 -0.7071,-0.35356 -0.1333,-0.1 -0.2149,-0.26115 -0.3536,-0.35355 -0.2172,-0.144847 -0.811,-0.09358 -1.0606,-0.176777 -0.2016,-0.06719 -0.2104,-0.460102 -0.5303,-0.353554 -0.1144,-0.02858 -0.2482,0.05271 -0.3536,0 -0.053,-0.02635 0.033,-0.127747 0,-0.176777 -0.092,-0.138675 -0.2149,-0.261103 -0.3536,-0.353553 -0.1783,-0.118896 -0.2869,-0.110154 -0.5303,-0.353553 -0.083,-0.08333 0.053,-0.248144 0,-0.353554 -0.2819,-0.563755 -0.1097,-0.755937 0,-1.414213 0.088,-0.528415 0.046,-1.067691 0.1768,-1.590991 0.254,-1.016001 1.6334,-3.011069 2.4749,-3.71231 0.8746,-0.728867 0.7208,-0.272027 1.2374,-0.53033 0.2121,-0.106066 0.3182,-0.424264 0.5303,-0.53033 0.1581,-0.07906 0.3627,0.0559 0.5304,0 0.4339,-0.144662 1.1761,-0.499701 1.591,-0.707107 1.0513,-0.525697 2.0731,-1.06876 3.0052,-1.767767 0.3439,-0.257992 0.5162,-0.486532 0.8838,-0.707107 0.1598,-0.09587 0.3637,-0.09345 0.5304,-0.176776 0.5761,-0.288065 1.0606,-0.883857 1.591,-1.237437 0.049,-0.03269 0.1347,0.04167 0.1767,0 0.4278,-0.427731 0.6291,-1.159416 1.0607,-1.590991 0.093,-0.09317 0.2507,-0.09447 0.3536,-0.176776 0.6978,-0.558317 1.1595,-1.33637 1.7677,-1.944544 0.042,-0.04167 0.1278,0.03269 0.1768,0 0.8095,-0.539665 1.3615,-1.513488 2.1213,-2.12132 0.1659,-0.132722 0.3801,-0.203322 0.5303,-0.353554 0.093,-0.09317 0.074,-0.271243 0.1768,-0.353553 0.2058,-0.164622 0.5014,-0.188932 0.7071,-0.353553 0.1028,-0.08231 0.084,-0.260384 0.1768,-0.353554 0.093,-0.09317 0.2606,-0.08361 0.3536,-0.176777 0.042,-0.04167 -0.042,-0.135106 0,-0.176776 0.3177,-0.31769 0.8649,-0.458768 1.2374,-0.707107 0.7013,-0.467534 1.1637,-1.200577 1.9445,-1.59099 0.2173,-0.108657 0.505,-0.04201 0.7071,-0.176777 0.2969,-0.197911 0.5593,-0.544793 0.8839,-0.707107 0.4865,-0.243251 1.124,-0.533631 1.591,-0.883883 0.2667,-0.2 0.409,-0.558036 0.7071,-0.707107 0.1054,-0.05271 0.2418,0.03727 0.3536,0 0.3367,-0.112226 0.5706,-0.727254 0.8839,-0.883883 0.1054,-0.0527 0.2555,0.06537 0.3535,0 0.1098,-0.07309 0.084,-0.260384 0.1768,-0.353554 0.042,-0.04167 0.1238,0.02635 0.1768,0 0.3073,-0.153659 0.598,-0.339739 0.8839,-0.53033 1.0664,-0.710988 2.1097,-1.406499 3.1819,-2.12132 0.2774,-0.1849 0.4405,-0.507107 0.7071,-0.707107 0.3504,-0.262733 0.7852,-0.215822 1.0607,-0.353553 0.1483,-0.07414 1.5883,-0.941026 1.7678,-1.060661 0.1386,-0.09245 0.2615,-0.214878 0.3535,-0.353553 0.033,-0.04903 -0.049,-0.144087 0,-0.176777 0.1551,-0.103366 0.3706,-0.08091 0.5304,-0.176776 0.1429,-0.08575 0.2148,-0.261104 0.3535,-0.353554 0.2022,-0.134766 0.4988,-0.05178 0.7071,-0.176776 1.6443,-0.986544 -1.2389,0.354295 0.8839,-0.707107 0.3837,-0.191848 0.8431,-0.184568 1.2374,-0.353554 0.1953,-0.08369 0.3801,-0.203322 0.5304,-0.353553 0.042,-0.04167 -0.053,-0.150427 0,-0.176777 0.1054,-0.0527 0.2441,0.04377 0.3535,0 0.1423,-0.05691 1.5,-0.96929 1.591,-1.06066 0.042,-0.04167 -0.046,-0.139967 0,-0.176777 0.2683,-0.21464 0.6409,-0.287373 0.8839,-0.53033 0.083,-0.08333 -0.083,-0.270223 0,-0.353553 0.1318,-0.131767 0.3705,-0.08091 0.5303,-0.176777 0.4288,-0.257248 0.6766,-0.740568 1.0607,-1.06066 0.4311,-0.359294 0.9602,-0.720163 1.4142,-1.06066 0.3794,-0.284547 0.8412,-0.442948 1.2374,-0.707107 0.208,-0.138675 0.3068,-0.418527 0.5304,-0.53033 0.5294,-0.264703 1.3035,-0.596442 1.7677,-1.06066 0.3334,-0.333398 0.5848,-0.863606 0.8839,-1.237437 0.5757,-0.719621 1.1869,-1.39525 1.7678,-2.12132 0.432,-0.540073 1.1284,-0.774857 1.591,-1.237437 0.049,-0.04949 -0.1817,-0.966546 0.3535,-0.53033 0.3104,-0.232797 0.7375,-0.314904 1.0607,-0.53033 1.2582,-0.838824 2.6252,-1.40432 4.0658,-1.944544 0.4017,-0.150627 0.8432,-0.184568 1.2375,-0.353553 1.3578,-0.581922 -0.4141,-0.156593 1.2374,-0.707107 0.461,-0.153659 0.9533,-0.199894 1.4142,-0.353554 0.3932,-0.131056 0.8441,-0.687201 1.2375,-0.883883 0.5852,-0.292611 1.2027,-0.330424 1.7677,-0.707107 0.1387,-0.09245 0.1988,-0.291653 0.3536,-0.353553 0.1641,-0.06565 0.3626,0.0559 0.5303,0 1.0034,-0.334462 2.3976,-1.640733 3.3588,-2.121321 1.36,-0.67999 2.8624,-1.25445 4.2426,-1.944543 0.1581,-0.07906 0.3589,0.04287 0.5303,0 0.8537,-0.213411 -0.01,-0.08401 0.5304,-0.353554 1.463,-0.731514 -0.6018,0.573224 1.2374,-0.53033 0.5991,-0.359476 1.1841,-0.848313 1.7678,-1.237437 0.4158,-0.277241 0.5663,-0.743117 0.8839,-1.06066 0.3845,-0.384503 0.9748,-0.709153 1.4142,-1.06066 0.4374,-0.349943 0.6919,-0.868663 1.0606,-1.237437 0.2437,-0.243616 1.6076,-0.289107 1.9446,-0.176776 0.766,0.255349 1.7937,0.189757 2.4749,0.53033 0.357,0.178538 0.4616,0.638407 0.7071,0.883883 0.042,0.04167 0.1347,-0.04167 0.1767,0 1.2763,1.276231 -0.2292,3.430757 1.0607,4.772971 0,0.882542 0.2456,3.185069 -0.1768,3.889087 -0.082,0.135817 -0.5378,0.799244 -0.7071,0.883884 -0.053,0.02635 -0.1348,-0.04167 -0.1768,0 -0.6107,0.610769 0.027,0.340172 -1.0606,0.883883 -0.3358,0.167875 -0.5331,0.796184 -0.8839,0.883884 -0.5609,0.140225 -1.1339,0.07325 -1.591,0.53033 -0.093,0.09317 -0.071,0.274493 -0.1768,0.353553 -0.2538,0.190394 -0.6198,0.177534 -0.8839,0.353553 -0.208,0.138676 -0.3303,0.380331 -0.5303,0.530331 -0.4139,0.310468 -0.7791,0.477969 -1.2374,0.707106 -0.4616,0.230806 -0.7996,0.797925 -1.2375,1.060661 -0.5941,0.356553 -0.4069,-0.0042 -0.8838,0.353553 -0.5144,0.385739 -0.8758,0.878456 -1.4143,1.237437 -0.281,0.187396 -0.6949,0.694926 -0.8838,0.883883 -0.4432,0.44318 -0.8028,0.979585 -1.2375,1.414214 -0.042,0.04167 -0.1348,-0.04167 -0.1768,0 -0.3915,0.391501 -0.212,0.81285 -0.3535,1.237437 -0.061,0.182283 -0.2816,0.350725 -0.3536,0.53033 -0.09,0.225579 -0.087,0.481527 -0.1767,0.707107 -0.1008,0.251857 -0.4857,0.736288 -0.7071,0.883883 -0.049,0.03269 -0.1348,-0.04167 -0.1768,0 -0.2154,0.215406 -0.3149,0.668477 -0.5303,0.883883 -0.083,0.08333 -0.2482,-0.0527 -0.3536,0 -0.2236,0.111804 -0.3223,0.391656 -0.5303,0.530331 -0.6897,0.459808 -1.6742,0.50694 -2.4749,0.707106 -0.2287,0.05717 -0.4835,-0.07453 -0.7071,0 -0.7669,0.255625 -1.3132,0.614517 -2.1213,0.883884 -0.1118,0.03727 -0.2442,-0.04377 -0.3536,0 -0.4876,0.195039 -0.7583,0.515438 -1.2374,0.707107 -0.173,0.0692 -0.3813,0.06497 -0.5304,0.176776 -0.1057,0.07906 -0.071,0.274494 -0.1767,0.353554 -0.1491,0.111806 -0.3753,0.07341 -0.5304,0.176776 -0.049,0.03269 0.042,0.135107 0,0.176777 -0.1502,0.150231 -0.3801,0.203322 -0.5303,0.353553 -0.1406,0.140606 -0.061,1.938884 0,2.121321 0.075,0.225904 0.3681,0.544865 0.5303,0.707107 0.176,0.175985 0.1278,0.41744 0.3536,0.53033 0.5701,0.285043 0.8686,0.520149 1.4142,0.883883 0.1551,0.103367 0.4673,-0.257477 0.5303,0.176777 0.2358,0.235702 -0.375,0.169628 0.1768,0.353553 0.2481,0.0827 0.6511,-0.116401 0.8839,0 0.6573,0.328633 1.2964,0.559834 1.9445,0.883884 1.2322,0.616098 1.9022,1.714796 2.6517,2.65165 0.1562,0.195217 0.3535,0.353554 0.5303,0.53033 0.059,0 0.1318,-0.03772 0.1768,0 0.3201,0.266744 0.5703,0.609507 0.8839,0.883884 0.1599,0.139905 0.4028,0.183586 0.5303,0.353553 0.071,0.09428 -0.053,0.248144 0,0.353553 0.074,0.149072 0.2616,0.214879 0.3536,0.353554 0.064,0.096 0,2.506637 0,2.65165 0,0.683288 0.074,1.452167 0,2.121321 -0.021,0.185199 -0.1508,0.345863 -0.1768,0.53033 -0.069,0.484823 0.1194,1.113231 0,1.59099 -0.3676,1.471404 0.012,-0.213388 -0.3536,0.883883 -0.088,0.265165 0.088,0.618719 0,0.883884 -0.083,0.25 -0.2705,0.457107 -0.3535,0.707107 -0.1615,0.48448 -0.2297,1.095459 -0.3536,1.59099 -0.1263,0.505506 -0.4318,0.647737 -0.7071,1.06066 -0.2175,0.326357 -0.3127,0.734303 -0.5303,1.06066 -0.1387,0.208013 -0.3742,0.335113 -0.5303,0.53033 -0.1328,0.165903 -0.2357,0.353554 -0.3536,0.53033 0,0.05893 0.026,0.124077 0,0.176777 -0.2178,0.435588 -0.7899,0.962899 -1.0607,1.414214 -0.1355,0.225969 -0.1672,0.520767 -0.3535,0.707106 -0.4176,0.417384 0.093,-0.986008 -0.3536,0.353554 -0.037,0.111803 0.037,0.24175 0,0.353553 -0.4265,1.280467 0.051,-0.278707 -0.3535,0.53033 -0.1651,0.330163 0.1376,0.89339 0,1.237437 -0.23,0.574958 -0.4165,0.668401 -0.5303,1.237437 -0.046,0.229993 0.087,0.666686 0,0.883884 -0.079,0.197263 -0.2586,0.3403 -0.3536,0.53033 -0.3021,0.6042 -0.397,1.32435 -0.7071,1.944544 -0.1687,0.33747 -0.4978,0.56994 -0.7071,0.88388 -0.1038,0.15505 -0.022,0.42697 -0.1768,0.53033 -0.155,0.10338 -0.3986,0.045 -0.5303,0.17678 -0.083,0.0833 0.053,0.24814 0,0.35355 -0.026,0.0527 -0.1238,-0.0264 -0.1768,0 -0.1491,0.0745 -0.2149,0.26106 -0.3535,0.35356 -0.2193,0.14617 -0.5208,0.16721 -0.7072,0.35355 -0.2429,0.24296 -0.2554,0.67773 -0.5303,0.88388 -0.1491,0.11178 -0.3753,0.0734 -0.5303,0.17678 -0.049,0.0327 0.033,0.12778 0,0.17678 -0.2266,0.33995 -0.6573,0.54392 -0.8839,0.88388 -0.033,0.049 0.042,0.13508 0,0.17678 -0.1088,0.10887 -0.751,0.11037 -0.8839,0.17677 -0.1491,0.0745 0.3861,0.67367 -0.3535,0.35356 -1.986,0.22066 -4.831,0 -6.8943,0 -1.0261,0 -2.0383,-0.0649 -3.0052,0.17677 -0.3257,0.0814 -0.743,-0.10588 -1.0607,0 -0.3267,0.1089 -1.567,1.71972 -1.7678,2.12132 -0.081,0.16188 0.023,0.79189 0,0.88389 -0.081,0.32406 -0.3867,0.29104 -0.5303,0.53033 -0.1248,0.20833 -0.1,0.47662 -0.1768,0.7071 -0.2442,0.7327 -0.3535,1.17212 -0.3535,1.94455 0,0.40372 -0.1243,1.99698 0.1768,2.29809 0.2062,0.20628 0.8544,-0.0295 1.0606,0.17678 0.2946,0.29463 -0.6482,0.17678 0.3536,0.17678 0.053,0.0264 -0.042,0.13507 0,0.17677 0.093,0.0932 0.2357,0.11788 0.3535,0.17678 0,0.0589 -0.042,0.13508 0,0.17678 0.071,0.071 0.4304,-0.0333 0.5304,0 0.5955,0.19847 1.8077,0.34356 2.4748,0.17677 0.3639,-0.091 0.6968,-0.26255 1.0607,-0.35355 0.2287,-0.0572 0.4784,0.0572 0.7071,0 0.2646,-0.0661 0.6938,-0.43523 0.8839,-0.53033 0.2838,-0.14191 0.8239,0.661 0.8839,-0.35355 0.1027,-0.0823 0.071,-0.27446 0.1767,-0.35356 0.083,-0.0624 0.9154,-0.48193 1.0607,-0.53033 0.1677,-0.0559 0.4053,0.125 0.5303,0 0.2084,-0.20833 0.2668,-0.57534 0.5304,-0.7071 0.1666,-0.0834 0.3753,-0.0734 0.5303,-0.17678 0.049,-0.0327 -0.026,-0.12408 0,-0.17678 0.2473,-0.49455 1.8596,-1.56039 2.2981,-1.41421 0.056,0.0186 -0.053,0.15048 0,0.17678 0.1054,0.0527 0.2481,-0.0527 0.3535,0 0.053,0.0264 -0.026,0.12407 0,0.17677 0.1972,0.39441 0.6412,0.69661 0.8839,1.06066 0.3002,0.45032 0.5869,1.35193 0.8839,1.76777 0.3179,0.44501 1.123,1.36661 1.591,1.76777 0.1613,0.13826 0.3801,0.20332 0.5303,0.35355 0.3255,0.32543 0.5893,0.70711 0.8839,1.06066 0.1179,0.2357 0.1672,0.52077 0.3536,0.70711 0.5172,0.51723 0.7092,0.21339 1.2374,0.53033 0.3235,0.19412 0.594,0.46556 0.8839,0.70711 0.5955,0.49626 1.2202,1.28058 1.9445,1.59099 0.2233,0.0957 0.4988,0.0518 0.7071,0.17677 1.0766,0.64594 -0.4619,0.12261 0.3536,0.53033 0.3333,0.16667 0.7273,0.18689 1.0607,0.35356 1.6634,0.83171 3.477,1.66476 5.3033,2.12132 0.343,0.0858 0.7139,-0.0693 1.0606,0 0.5368,0.10735 1.0348,0.43763 1.591,0.53033 0.926,0.15437 1.9023,0.0224 2.8284,0.17677 0.6977,0.11627 1.2791,0.36396 1.9446,0.53033 0.4956,0.12391 1.3222,-0.0557 1.7677,0 0.4034,0.0504 0.7969,0.30456 1.2375,0.35356 0.5246,0.0583 1.2422,-0.1314 1.7677,0 0.3616,0.0904 0.694,0.28685 1.0607,0.35355 0.1657,0.0301 2.0403,0.16778 2.1213,0.17678 0.6323,0.0702 1.1527,-0.0693 1.7678,0.17677 0.5083,0.20333 0.5499,0.54991 0.8839,0.88389 0.093,0.0932 0.2605,0.0836 0.3535,0.17677 0.3897,0.38969 0.505,1.03534 0.8839,1.41422 0.042,0.0417 0.1348,-0.0417 0.1768,0 0.6501,0.65027 -0.5,0.12796 0.7071,0.53033 0.049,0.0327 -0.033,0.12777 0,0.17677 0.092,0.13868 0.2357,0.23571 0.3536,0.35356 0.8944,0.89443 1.3748,1.39451 2.4748,1.94454 0.1178,0.0589 0.052,0.31185 0.1768,0.35355 0.1677,0.0559 0.3758,-0.0858 0.5303,0 0.4023,0.22351 0.7071,0.58926 1.0607,0.88389 0.1178,0.0589 0.2357,0.11787 0.3535,0.17677 0,0.0589 -0.042,0.13508 0,0.17678 0.243,0.24296 0.62,0.31037 0.8839,0.53033 0.1921,0.16005 0.3304,0.38033 0.5304,0.53033 0.3093,0.23198 0.8932,0.43177 1.2374,0.70711 0.048,0.0386 1.3822,1.17393 1.4142,1.23743 0.026,0.0527 -0.042,0.13508 0,0.17678 0.083,0.0833 0.2596,-0.0707 0.3536,0 0.2,0.15 0.3159,0.40171 0.5303,0.53033 0.101,0.0606 0.2525,-0.0606 0.3535,0 0.2144,0.12863 0.3383,0.37029 0.5304,0.53033 0.4669,0.38907 1.2029,0.65796 1.7677,0.88389 0.5813,0.23247 1.2392,-0.0347 1.7678,0.17677 1.074,0.42961 2.0481,0.95397 3.182,1.23744 2.4339,0.60847 0.3874,0.004 1.7678,0.17678 0.9307,0.11634 1.7207,0.57411 2.6516,0.7071 0.5862,0.0838 1.2056,-0.2224 1.7678,0.17678 0.5088,0.10177 0.9053,0.42856 1.4142,0.53033 0.5051,0.10103 1.0918,-0.1248 1.591,0 0.1278,0.032 0.2257,0.14478 0.3535,0.17678 0.3257,0.0814 0.743,-0.10589 1.0607,0 0.4257,0.14191 0.8076,0.40137 1.2374,0.53033 0.2822,0.0847 0.6044,-0.0932 0.8839,0 0.079,0.0263 0.098,0.15047 0.1768,0.17677 0.1118,0.0373 0.2392,-0.0286 0.3535,0 0.7378,0.18444 1.6038,0.60615 2.2981,0.88389 0.2947,0.11785 0.6199,0.17753 0.8839,0.35355 0.208,0.13867 0.2932,0.45123 0.5304,0.53033 0.1118,0.0373 0.2481,-0.0527 0.3535,0 0.1491,0.0745 0.2106,0.26785 0.3536,0.35355 0.1597,0.0959 0.3636,0.0935 0.5303,0.17678 0.1491,0.0745 0.2149,0.26105 0.3535,0.35355 0.4386,0.29236 0.9623,0.43595 1.4143,0.70711 0.2526,0.15158 0.4435,0.39857 0.7071,0.53033 0.1054,0.0527 0.2481,-0.0527 0.3535,0 0.2635,0.13176 0.4545,0.37875 0.7071,0.53033 0.5375,0.32251 1.3758,0.56788 1.9446,0.88388 0.2575,0.14309 0.4436,0.39857 0.7071,0.53033 0.2173,0.10868 0.4838,0.0811 0.7071,0.17678 0.4844,0.20761 0.9428,0.4714 1.4142,0.70711 0.5583,0.27916 1.0264,0.77837 1.591,1.06066 0.2173,0.10867 0.4714,0.11787 0.7071,0.17677 0.059,0 0.1208,-0.0186 0.1768,0 0.9862,0.32874 1.862,1.02768 2.8284,1.41422 0.2188,0.0875 0.4784,-0.0572 0.7071,0 0.1617,0.0404 0.2045,0.27905 0.3536,0.35355 0.2794,0.13978 0.753,0.0743 1.0606,0.17678 0.4776,0.15921 0.8205,0.6562 1.4142,0.53033 1.6654,0.46261 3.4313,0.81848 5.1266,1.06066 0.2333,0.0333 0.4759,-0.0462 0.7071,0 0.9136,0.18272 1.7677,0.58925 2.6516,0.88388 0.2851,0.095 0.6049,0.0652 0.8839,0.17678 0.1973,0.0789 0.3242,0.30205 0.5303,0.35355 0.2859,0.0715 0.5922,-0.0417 0.8839,0 0.1304,0.0186 0.2231,0.15818 0.3536,0.17678 0.7232,0.10337 1.5855,-0.001 2.2981,0.17677 0.3431,0.0858 0.567,0.4036 0.8838,0.53033 0.506,0.20239 1.2255,-0.10845 1.7678,0 0.1292,0.0259 0.2244,0.15098 0.3536,0.17678 0.4802,0.0961 1.8236,-0.19846 2.1213,0 0.1387,0.0925 0.1954,0.30085 0.3535,0.35355 0.2236,0.0745 0.4723,-0.0196 0.7071,0 1.1968,0.0997 1.7853,0.28986 2.8285,0.70711 0.1967,0.0787 0.5215,0.084 0.7071,0.17678 1.6674,0.83371 -0.039,0.0331 0.7071,0.53033 0.2751,0.18343 0.8475,0.28165 1.0606,0.53033 0.2766,0.32262 0.4248,0.74307 0.7071,1.06066 0.91,1.02369 2.4456,1.43126 3.3588,2.47487 0.2263,0.25858 0.3397,0.598 0.5303,0.88389 0.1813,0.27196 0.5258,0.43514 0.7071,0.7071 0.6893,1.03384 0.8301,1.16048 1.4143,2.47488 0.107,0.24081 0.2895,0.45145 0.3535,0.7071 0.1751,0.70045 0.4894,2.05996 0.8839,2.65165 0.4933,0.74002 0.4218,0.59232 0.7071,1.59099 0.172,0.60207 0.9654,1.64537 1.4142,1.94455 0.1096,0.0731 0.2606,0.0836 0.3536,0.17677 0.083,0.0833 -0.065,0.25546 0,0.35356 0.2394,0.35919 0.5084,0.66338 0.7071,1.06066 0.053,0.10541 -0.083,0.27025 0,0.35355 0.093,0.0932 0.2745,0.0714 0.3535,0.17678 0.64,0.85328 -0.093,0.21045 0.1768,0.88388 0.079,0.19726 0.2746,0.33307 0.3536,0.53033 0.093,0.23205 0.1288,4.96482 0,5.48008 -0.041,0.16336 -0.2996,0.36891 -0.3536,0.53033 -0.037,0.1118 0.037,0.24175 0,0.35355 -0.053,0.15812 -0.2795,0.20448 -0.3535,0.35356 -0.366,0.73185 -0.6368,1.6622 -1.0607,2.29809 -0.2776,0.41635 -0.8039,0.67742 -0.8839,1.23744 -0.042,0.29167 0,0.58926 0.3536,0.79549 0.1178,-0.0884 -0.3536,-0.32409 -0.3536,-0.0884 0,0.2357 0.8216,-0.20604 0.7071,0 -0.3642,0.65561 -1.0865,1.03603 -1.591,1.59099 -0.089,0.0975 -0.094,0.25066 -0.1768,0.35355 -0.1561,0.19522 -0.3916,0.32232 -0.5303,0.53033 -0.1033,0.15504 -0.073,0.37529 -0.1768,0.53033 -0.3209,0.48141 -1.8056,2.22864 -2.2981,2.47487 -0.1666,0.0833 -0.3812,0.065 -0.5303,0.17678 -0.1054,0.0791 -0.067,0.28047 -0.1768,0.35355 -0.098,0.0654 -0.2481,-0.0527 -0.3535,0 -0.053,0.0264 0.042,0.13511 0,0.17678 -0.042,0.0417 -0.1241,-0.0264 -0.1768,0 -0.19,0.095 -0.3331,0.27465 -0.5303,0.35355 -0.1094,0.0438 -0.2418,-0.0373 -0.3536,0 -0.25,0.0833 -0.4571,0.27022 -0.7071,0.35356 -0.8742,0.29139 -1.664,-0.42084 -2.2981,0.53033 -0.2419,0.36289 -0.6016,0.99221 -0.7071,1.41421 -0.029,0.11433 0.037,0.24175 0,0.35355 -0.083,0.25 -0.2896,0.45146 -0.3535,0.70711 -0.057,0.22867 0.046,0.47598 0,0.70711 -0.042,0.20833 -0.2864,0.32877 -0.3536,0.53033 -0.086,0.25794 -0.064,0.83557 -0.1768,1.06066 -0.074,0.14907 -0.2611,0.21488 -0.3535,0.35355 -0.331,0.49649 -0.4641,1.26405 -0.8839,1.76777 0.025,0.79921 -0.7352,0.55846 -1.0607,0.88388 -0.042,0.0417 0.033,0.12775 0,0.17678 -0.6704,1.00571 -1.8791,1.72464 -2.6516,2.65165 -0.136,0.16321 -0.2033,0.3801 -0.3536,0.53033 -0.7897,0.78969 -1.9047,1.35676 -2.8284,1.94454 -0.717,0.45626 -1.4251,0.92687 -2.1213,1.41422 -0.8839,0.61872 0,0.13258 -0.5303,0.53033 -0.2286,0.17138 -0.8431,0.48952 -1.0607,0.7071 -0.042,0.0417 0.042,0.13511 0,0.17678 -0.1297,0.1297 -0.5772,0.0988 -0.7071,0.17678 -0.2144,0.12862 -0.3303,0.38033 -0.5303,0.53033 -0.19,0.14244 -0.8352,-0.0451 -1.0607,0 -1.041,0.2082 -2.0588,0.5684 -3.0052,0.88388 -0.1924,0.0641 -0.5442,-0.10863 -0.7071,0 -0.1387,0.0925 -0.2107,0.2678 -0.3536,0.35355 -0.6766,0.40598 -2.277,0.86283 -2.8284,1.41422 -0.042,0.0417 0.042,0.13511 0,0.17677 -0.1863,0.18634 -0.4878,0.20738 -0.7071,0.35356 -0.2451,0.16343 -0.4988,0.32199 -0.7071,0.53033 -0.042,0.0417 0.053,0.15042 0,0.17677 -0.1054,0.0527 -0.2357,0 -0.3536,0 -0.1178,0.0589 -0.2439,0.10369 -0.3535,0.17678 -0.2405,0.16032 -0.4358,0.4625 -0.7071,0.53033 -0.3937,0.0984 -1.2071,0 -1.591,0 h -4.4194 -5.8337 c -0.6775,0 -1.675,-0.17803 -2.2981,0 -0.1602,0.0458 -0.2148,0.2611 -0.3535,0.35355 -0.2046,0.13637 -2.2195,0.0687 -2.6517,0.17678 -0.6234,0.15586 -1.0846,0.44494 -1.7677,0.53033 -0.6827,0.0853 -1.4585,-0.16571 -2.1214,0 -0.1278,0.032 -0.2357,0.11785 -0.3535,0.17678 -0.2357,0 -0.4746,-0.0387 -0.7071,0 -0.2599,0.0433 -0.4487,0.30187 -0.7071,0.35355 -0.3467,0.0693 -0.7099,-0.0438 -1.0607,0 -0.5963,0.0745 -1.1705,0.28719 -1.7677,0.35355 -0.4686,0.0521 -0.9465,-0.0585 -1.4143,0 -1.2028,0.15036 -2.3499,0.55891 -3.5355,0.70711 -0.2339,0.0292 -0.4805,-0.0648 -0.7071,0 -0.2043,0.0584 -0.3403,0.25854 -0.5303,0.35355 -0.3334,0.16667 -0.7274,0.18689 -1.0607,0.35356 -0.074,0.0373 -0.1178,0.11785 -0.1768,0.17677 -0.1178,0.0589 -0.2312,0.12785 -0.3535,0.17678 -0.4512,0.18047 -0.9796,0.13625 -1.4142,0.35356 -0.2236,0.1118 -0.3304,0.38033 -0.5304,0.53033 -0.255,0.19127 -0.7809,0.10684 -1.0606,0.17677 -0.081,0.0202 -0.098,0.15043 -0.1768,0.17678 -0.2561,0.0854 -0.6335,0.0516 -0.8839,0.17678 -0.074,0.0373 -0.098,0.15042 -0.1768,0.17677 -0.3819,0.1273 -0.8489,0.0797 -1.2374,0.17678 -0.081,0.0202 -0.098,0.15042 -0.1768,0.17678 -0.285,0.095 -0.5924,0.1039 -0.8839,0.17677 -0.444,0.11101 -0.9646,-0.0899 -1.4142,0 -1.2169,0.2434 -2.4565,0.17678 -3.7123,0.17678 -0.6366,0 -1.1626,0.27791 -1.7677,0.35355 -2.7269,0.34086 -5.5817,-0.34086 -8.3086,0 -0.1849,0.0231 -0.3465,0.14614 -0.5303,0.17678 -0.4587,0.0764 -0.9537,-0.0658 -1.4142,0 -1.7045,0.2435 -3.4022,0.17678 -5.1265,0.17678 h -10.2531 c -3.9918,0 -8.0364,0.2097 -12.0208,0 -1.3624,-0.0717 -3.8804,-0.35211 -4.9497,-0.53033 -0.4232,-0.0705 -0.8154,-0.27682 -1.2375,-0.35356 -0.2319,-0.0422 -0.4774,0.053 -0.7071,0 -0.5447,-0.1257 -1.0486,-0.39475 -1.591,-0.53033 -0.9174,-0.22936 -1.9129,-0.18711 -2.8284,-0.35355 -1.9483,-0.35425 -3.8632,-0.77918 -5.8336,-1.06066 -1.1797,-0.16853 -2.4133,-0.12952 -3.5356,-0.53033 -0.9446,-0.33736 -1.8295,-1.0024 -2.8284,-1.23744 -0.6978,-0.16419 -1.4184,-0.21296 -2.1213,-0.35355 -0.3654,-0.0731 -0.6917,-0.30085 -1.0607,-0.35356 -0.2503,-0.0358 -1.3104,0.10378 -1.4142,0 -0.042,-0.0417 0.042,-0.13511 0,-0.17677 -0.042,-0.0417 -0.1178,0 -0.1768,0 h -1.2374 c -0.6718,0 -0.9482,-0.13928 -1.2294,-0.43106 -0.089,-0.0775 -0.5839,-0.0599 -1.0135,0.0475 -0.057,0.0143 -0.069,0.1064 -0.125,0.125 -0.2404,0.0802 -0.543,-0.18544 -0.75,0.125 -0.317,0.12695 0.1277,0.1997 -0.375,0.25 -0.4975,0.0497 -1.0031,-0.0552 -1.5,0 -1.1985,0.133 -0.3081,0.125 -0.75,0.125 -0.49,0 -1.1327,-0.0703 -1.625,0 -1.299,0.18557 -2.5829,0.35643 -3.875,0.5 -1.0768,0.11964 -2.0591,0.5619 -3.125,0.75 -0.4635,0.0818 -1.2835,-0.008 -1.75,0.125 -0.1445,0.0413 -0.2406,0.1828 -0.375,0.25 -0.4735,0.23677 -1.002,0.23918 -1.5,0.375 -0.2165,0.059 -0.4056,0.203 -0.625,0.25 -4.5139,0.96726 2.0919,-0.76508 -2.125,0.5 -0.4806,0.1442 -1.0041,0.0487 -1.5,0.125 -1.6072,0.24726 -3.4694,1.3361 -5.125,1.75 -0.6978,0.17445 -1.4248,0.21026 -2.125,0.375 -0.8353,0.19653 -1.5592,0.67104 -2.375,0.875 -0.2021,0.0505 -0.4229,-0.0505 -0.625,0 -0.9366,0.23414 -1.829,0.70914 -2.75,1 -0.5785,0.18269 -1.1719,0.31605 -1.75,0.5 -1.685,0.53622 -0.3491,0.16627 -1.75,0.75 -0.7423,0.30928 -1.5077,0.56572 -2.25,0.875 -0.7053,0.29385 -0.7381,0.39617 -1.375,0.75 -0.2774,0.15411 -0.6029,0.21174 -0.875,0.375 -2.0935,1.25612 -3.9292,2.90208 -6.125,4 -1.36731,0.68365 -3.07773,0.97163 -4.375,1.75 -0.22878,0.13727 -0.38637,0.38068 -0.625,0.5 -0.27132,0.13566 -0.5971,0.12842 -0.875,0.25 -0.22068,0.0965 -1.20488,0.70201 -1.625,0.875 -0.53664,0.22097 -1.1018,0.37386 -1.625,0.625 -0.52185,0.25049 -0.9868,0.60724 -1.5,0.875 -1.70555,0.88985 -3.41254,1.65098 -5,2.75 -0.96868,0.67062 -1.68019,1.55518 -2.5,2.375 -0.1718,0.1718 -0.43836,0.21946 -0.625,0.375 -1.50828,1.2569 1.55277,-1.00198 -1.25,1 -0.46513,0.36177 -0.81702,0.85032 -1.25,1.25 -1.2717,1.1739 0.0199,-0.11274 -1.25,0.875 -0.18605,0.14471 -0.31595,0.35276 -0.5,0.5 -0.23462,0.1877 -0.52852,0.29697 -0.75,0.5 -0.28318,0.25958 -0.47837,0.60337 -0.75,0.875 -0.42997,0.42996 -1.04366,0.71936 -1.5,1.125 -1.875,1.66667 0.13889,0 -1.25,1.25 -0.24189,0.2177 -0.5,0.41667 -0.75,0.625 -0.0833,0.0417 -0.1799,0.0636 -0.25,0.125 -0.26608,0.23282 -0.47392,0.52914 -0.75,0.75 -0.14551,0.1164 -0.35093,0.1382 -0.5,0.25 -0.72147,0.5411 -1.2735,1.33012 -2,1.875 -0.36056,0.27042 -0.75,0.5 -1.125,0.75 -0.0833,0.125 -0.13269,0.2811 -0.25,0.375 -0.10289,0.0823 -0.27378,0.0406 -0.375,0.125 -0.16005,0.13337 -0.24486,0.33732 -0.375,0.5 -0.14724,0.18405 -0.34911,0.31893 -0.5,0.5 -0.0962,0.11541 -0.1667,0.25 -0.25,0.375 0,0.0417 0.025,0.0917 0,0.125 -0.21213,0.28284 -0.52914,0.47392 -0.75,0.75 -0.0582,0.0727 -0.0591,0.1841 -0.125,0.25 -0.0659,0.0659 -0.1841,0.0591 -0.25,0.125 -0.0659,0.0659 -0.0644,0.1793 -0.125,0.25 -0.40015,0.46683 -0.88151,0.88368 -1.25,1.375 -0.11181,0.14907 -0.14664,0.34496 -0.25,0.5 -0.37829,0.56743 -0.8221,1.17946 -1.25,1.75 -0.19526,0.26034 -0.39489,0.51989 -0.625,0.75 -0.48184,0.4818 -0.0443,-0.46793 -0.625,0.5 -0.0838,0.13963 -0.0412,0.61037 -0.125,0.75 -0.0479,0.0799 -0.2083,0.0417 -0.25,0.125 -0.16667,0.33333 0.0556,0.27778 0,0.5 -0.0834,0.33343 -0.3097,0.67354 -0.375,1 -0.0803,0.40168 -0.0574,0.8444 -0.125,1.25 -0.0282,0.16946 -0.0833,0.33333 -0.125,0.5 -0.0417,0.0833 -0.1024,0.1596 -0.125,0.25 -0.0784,0.31372 0.0784,0.18627 0,0.5 -0.10589,0.42355 -0.40415,0.88192 -0.625,1.25 -0.0678,0.11298 -0.0318,0.2818 -0.125,0.375 -0.43676,0.43676 -1.36518,0.86763 -1.875,1.25 -0.0745,0.0559 -0.1667,0.0833 -0.25,0.125 -0.0833,0 -0.1807,-0.0462 -0.25,0 -0.0775,0.0517 -0.0534,0.1904 -0.125,0.25 -0.9366,0.78052 -0.31883,0.12922 -0.875,0.5 -0.39352,0.26234 -0.63522,0.60141 -1,0.875 -0.0745,0.0559 -0.1841,0.0591 -0.25,0.125 -0.0659,0.0659 -0.0591,0.1841 -0.125,0.25 -0.0295,0.0295 -0.0955,-0.0295 -0.125,0 -0.0659,0.0659 -0.0833,0.1667 -0.125,0.25 -0.0417,0 -0.0903,-0.0231 -0.125,0 -0.18549,0.12366 -0.41869,0.5425 -0.625,0.625 -0.11606,0.0464 -0.2517,-0.0206 -0.375,0 -0.43689,0.0728 -0.41963,0.22321 -0.875,0.375 -0.32596,0.10865 -0.66459,0.1755 -1,0.25 -0.4881,0.10846 -1,0 -1.5,0 -2.24228,0 -3.52788,-0.46284 -5,1.5 -0.6701,0.89344 -0.44497,0.29483 -1.54544,1.84293 -2.86817,0.43373 -13.05578,0.30443 -16.47679,0.11437 z"
         id="path167" />
    </g>
  </g>
</svg>
