<?xml version="1.0" encoding="UTF-8" standalone="no"?>
<!-- Created with Inkscape (http://www.inkscape.org/) -->

<svg
   version="1.1"
   id="svg1"
   width="340.12503"
   height="239.74998"
   viewBox="0 0 340.12503 239.74998"
   xmlns="http://www.w3.org/2000/svg"
   xmlns:svg="http://www.w3.org/2000/svg">
  <defs
     id="defs1" />
  <g
     id="layer1"
     style="display:inline"
     transform="translate(-860.93748,-36.187499)">
    <g
       id="layer15"
       style="display:inline;fill:#ffffff;fill-opacity:1;stroke:none">
      <path
         style="fill:#ffffff;fill-opacity:1;stroke:none;stroke-width:1;stroke-linecap:round;stroke-dasharray:none;stroke-opacity:1"
         d="m 896.24998,126.125 2.9375,-4.5625 5.375,-2.25 5.5625,-6 1.0625,-3.125 3.5625,-3.4375 2.5,0.125 9.25,-9.937502 7.8125,-0.5 3.4375,-1.5 3.3125,0.875 1.375,1.875 -1.5625,2.500002 -2.875,2.875 2.4375,3.0625 12.6875,1 22.75,-5.625 10.4375,2.6875 -7.3125,8.9375 -11.9375,5.6875 h -3.125 l -2.4375,3.125 1,2.25 4.4375,2.1875 4.875,-1.9375 2.9375,2.5 1.5625,2.8125 11.3125,1.8125 4,10.8125 4.375,1.4375 2.25,2.9375 4.00002,1.3125 2.875,-0.125 3.125,-2 0.6875,-3.6875 2.625,-2.625 1.0625,-2.3125 5.0625,-5.125 6.625,-3.3125 7.375,-7.875 9.1875,-1.125 2.125,-3.625 6.9375,-0.625 3.375,-4.3125 1.875,-4.125 -1.3125,-3.9375 -6.25,-1.375 -8.1875,5.625 -7.3125,-0.125 -4.5,4 -5.1875,0.375 -1.375,-7.875 -7.8125,-4.000002 -2.125,-3.5625 1.625,-4 10.5625,-4.875 10.375,-10 -0.125,-1.625 3.375,-0.1875 4.6875,-3.9375 2.9375,-1.25 4.3125,-4.75 21.4375,-12.187499 4.6875,-4.375 9.0625,-3.5 2.6875,-2.1875 4.0625,-1.4375 5.625,-5.8125 4.1875,2.3125 1.25,4.875 -2.75,5.5 -4.3125,1.5 -12.625,14.749999 -5.4375,0.625 -0.3125,3.375 8,4.25 2.375,8 -0.6875,5.6875 -5.625,5.9375 v 3 l -6.625,9.437502 -11.875,-0.3125 -2.8125,9.9375 9.125,0.125 5.4375,-3.75 9.625,9.875 25.5625,5.25 6.4375,7.5625 7.75,4.25 9.0625,0.875 10,2.125 19.375,10.4375 15.125,3.75 11.8125,2.5625 6,6.1875 6.5625,11.9375 -0.5625,6.3125 -7.125,10.375 -5.5625,2.5 -1.6875,5.3125 -9,8.74999 -12.75,4.25 -1.75,1.9375 -19.5625,1.6875 -14.625,4.875 -23.1875,0.875 -30.75,-1.875 -18.5625,-5.5625 -20.25,0.8125 -35.75002,13.4375 -16.5,11.875 -23.875,22 -2.3125,5.8125 -12.375,4.0625 -2.3125,2.25 h -27 l -3.875,-2.6875 -8.1875,-1.625 -7.1875,-0.9375 -5.375,-6.1875 -0.4375,-2.125 -14.5,-6.625 -8.0625,-8.25 -1.25,-4.625 -5.75,-6.875 8.5625,-9.375 1.3125,-14.875 8.5625,-8.375 -4.0625,-30.43749 3.5,-11.6875 4.6875,-3.5625 4.6875,-7.5 2.3125,-6.6875 6.5625,-9.5625 z"
         id="path13" />
    </g>
  </g>
</svg>
