<?xml version="1.0" encoding="UTF-8" standalone="no"?>
<!-- Created with Inkscape (http://www.inkscape.org/) -->

<svg
   version="1.1"
   id="svg2"
   width="126.61949"
   height="97.106422"
   viewBox="0 0 126.61949 97.106422"
   xmlns="http://www.w3.org/2000/svg"
   xmlns:svg="http://www.w3.org/2000/svg">
  <defs
     id="defs6">
    <linearGradient
       id="swatch77">
      <stop
         style="stop-color:#e2c69e;stop-opacity:1;"
         offset="0"
         id="stop77" />
    </linearGradient>
  </defs>
  <g
     id="layer66"
     style="display:inline"
     transform="translate(-836.53679,-257.38686)">
    <g
       id="layer56"
       style="display:inline">
      <g
         id="g2"
         style="fill:#969696;fill-opacity:1;stroke:none;stroke-opacity:1">
        <path
           style="display:inline;fill:#969696;fill-opacity:1;stroke:none;stroke-opacity:1"
           d="m 843.22487,338.21822 c -0.0444,0.0592 -0.0629,0.15731 -0.0884,0.22097 -0.0708,0.17702 -0.17238,0.36332 -0.26517,0.53033 -0.1,0.17993 -0.22558,0.34184 -0.30936,0.53033 -0.51598,0.013 -0.083,0.23787 -0.13258,0.35356 -0.0863,0.2013 -0.1958,0.36642 -0.26517,0.57452 -0.0192,0.0576 -0.0203,0.12095 -0.0442,0.17678 -0.0209,0.0488 -0.0697,0.0829 -0.0884,0.13258 -0.0573,0.15278 -0.10943,0.41246 -0.13258,0.57452 -0.0295,0.20687 0.0947,-0.0285 -0.0442,0.35356 -0.0294,0.0807 -0.0942,0.14414 -0.13259,0.22097 -0.0779,0.15585 -0.0218,0.21836 -0.0442,0.39775 -0.0535,0.42808 -0.0442,-0.0832 -0.0442,0.22097 0,0.23374 -0.18807,0.45733 -0.26516,0.66291 -0.0377,0.10042 -0.0486,0.20978 -0.0884,0.30936 -0.0629,0.15734 -0.0884,0.12011 -0.0884,0.26516 0,0.0784 -0.0109,0.22097 -0.0884,0.22097 -0.0853,0.62372 0.10121,0.79633 0.17682,1.32564 0.0292,0.20469 -6.6e-4,0.41688 0.0442,0.61872 0.0821,0.36932 0.18001,0.74915 0.30935,1.10485 0.14155,0.38924 -0.12425,-0.66184 0.17678,0.44194 0.12992,0.47638 -0.15092,-0.22263 0.0442,0.26517 0.12441,0.31103 0.27333,0.61705 0.39774,0.92808 0.0441,0.11027 0.0209,0.23709 0.0442,0.35355 0.0457,0.2284 0.16095,0.43785 0.22097,0.66291 0.0401,0.15045 -0.0255,0.33314 0,0.48614 0.0521,0.31254 0.0572,0.67335 0.17677,0.97227 0.0319,0.0797 0.0942,0.14414 0.13259,0.22097 0.17141,0.34282 0.36338,0.61764 0.66291,0.88388 0.086,0.0764 0.1882,0.13546 0.26517,0.22098 0.0575,0.0638 0.0826,0.15107 0.13258,0.22097 0.091,0.12742 0.19863,0.24282 0.30936,0.35355 0.0376,0.0376 0.095,0.0508 0.13258,0.0884 0.0104,0.0104 0,0.0295 0,0.0442 0.0589,0.0589 0.10744,0.13055 0.17678,0.17678 0.0245,0.0163 0.0598,-0.007 0.0884,0 0.0639,0.016 0.11561,0.0639 0.17678,0.0884 0.19964,0.0798 0.4055,0.14124 0.61872,0.17677 0.24665,0.0411 1.17685,0.0236 1.41421,-0.0442 0.0634,-0.0181 0.11428,-0.0676 0.17678,-0.0884 0.0763,-0.0254 0.19101,-0.0145 0.26516,-0.0442 0.25214,-0.10086 0.0279,-0.0682 0.22098,-0.13259 0.0295,-0.01 0.26679,-0.06 0.30935,-0.0884 0.0123,-0.008 -0.014,-0.0395 0,-0.0442 0.0419,-0.014 0.0901,0.0121 0.13259,0 0.18066,-0.0516 0.30788,-0.20575 0.48613,-0.26516 0.028,-0.009 0.0604,0.009 0.0884,0 0.20238,-0.0675 0.4633,-0.22404 0.61872,-0.35356 0.28479,-0.23732 0.0649,-0.13168 0.39775,-0.35355 0.0988,-0.0659 0.21206,-0.10867 0.30936,-0.17678 0.0683,-0.0478 0.0977,-0.15042 0.17677,-0.17677 0.028,-0.009 0.0608,0.0103 0.0884,0 0.28495,-0.10686 0.55918,-0.27753 0.83969,-0.39775 0.14583,-0.0625 0.3074,-0.0927 0.44194,-0.17678 0.12141,-0.0759 0.122,-0.17802 0.26517,-0.22097 0.0998,-0.0299 0.20886,-0.0168 0.30936,-0.0442 0.4472,-0.12197 0.96803,-0.57134 1.32582,-0.83969 0.0791,-0.0593 0.18475,-0.0752 0.26517,-0.13258 0.20453,-0.1461 0.38271,-0.36592 0.57452,-0.53033 0.25506,-0.21862 0.56824,-0.38064 0.83969,-0.57453 0.20533,-0.14666 0.37531,-0.33119 0.57453,-0.48613 0.15382,-0.11964 0.34917,-0.21659 0.48613,-0.35356 0.0233,-0.0233 0.0168,-0.0701 0.0442,-0.0884 0.0245,-0.0163 0.0631,0.0152 0.0884,0 0.0536,-0.0322 0.0783,-0.10157 0.13259,-0.13258 0.0878,-0.0502 0.35698,-0.0601 0.44194,-0.0884 0.0198,-0.007 0.024,-0.0391 0.0442,-0.0442 0.0429,-0.0107 0.089,0.007 0.13258,0 0.55079,-0.0918 -0.47251,0.003 0.35356,-0.0884 0.0586,-0.007 0.11785,0 0.17677,0 0.0737,-0.0147 0.14688,-0.0318 0.22098,-0.0442 0.19013,-0.0317 0.60771,0.0994 0.7513,-0.0442 0.1031,0.059 0.19472,0.14559 0.30929,0.17686 0.0586,0.016 0.11664,-0.0356 0.17677,-0.0442 0.0189,-0.003 0.90274,-0.019 0.92808,0 0.34127,0.25596 0.41706,0.68866 0.66291,1.01647 0.16041,0.21388 0.33642,0.43833 0.48614,0.66291 0.0365,0.0548 0.0462,0.12617 0.0884,0.17678 0.034,0.0408 0.095,0.0508 0.13258,0.0884 0.0223,0.0223 0.21278,0.37728 0.22097,0.39775 0.0956,0.23913 0.0145,0.10186 0.0442,0.30936 0.0215,0.15073 0.1161,0.29354 -0.016,1.36456 3.01506,-1.8908 7.43468,-0.73087 11.58319,-1.19181 2.54269,-0.28252 5.2084,-0.50832 7.75,0 0.51708,0.10342 1.62696,0.64342 2,0.75 1.52663,0.43618 3.37869,0.42574 5,0.75 0.61036,0.12207 1.40929,-0.1969 2,0 0.35355,0.11785 0.64644,0.38215 1,0.5 0.75365,0.25122 1.72506,-0.19374 2.5,0 0.43536,0.10884 0.82426,0.35809 1.25,0.5 0.58566,0.19522 1.38107,-0.0884 2,0 0.42064,0.0601 0.82935,0.18991 1.25,0.25 1.20431,0.17204 2.56388,-0.26358 3.75,0 0.43807,0.0974 0.82016,0.37105 1.25,0.5 0.91087,0.27326 6.4104,1.1698 8.75,0.5 1.34131,-0.40869 0.87089,-0.50411 0.75,-0.625 -0.15225,-0.15225 -0.0586,-0.27928 -0.25,-0.375 -0.23089,-0.11545 -0.58123,-0.37184 -0.75,-0.625 -0.0681,-0.10212 0,-0.49704 -0.25,-0.25 -0.1894,-0.0732 -0.3243,-0.55408 -0.25,-1 0.0939,-0.56341 0.50382,-1.13265 0.75,-1.625 0.20832,-0.41664 0.36877,-0.99065 0.625,-1.375 0.0654,-0.0981 0.18463,-0.15194 0.25,-0.25 0.17848,-0.26772 0.44064,-1.14315 0.5,-1.25 0.0452,-0.0815 0.16666,-0.0833 0.25,-0.125 0.125,-0.16667 0.29293,-0.30851 0.375,-0.5 0.0657,-0.15319 -0.0745,-0.35093 0,-0.5 0.35545,-0.7109 0.69326,-1.6137 1.375,-2.125 0.19822,-0.14867 0.42678,-0.35133 0.625,-0.5 0.43675,-0.32757 0.0565,0.0229 0.5,-0.125 0.0559,-0.0186 0.0723,-0.0987 0.125,-0.125 0.11785,-0.0589 0.26537,-0.0519 0.375,-0.125 0.0347,-0.0231 -0.0347,-0.10189 0,-0.125 0.10963,-0.0731 0.25715,-0.0661 0.375,-0.125 0.29028,-0.14514 0.77273,-0.52273 1,-0.75 0.0295,-0.0295 -0.0231,-0.0903 0,-0.125 -0.30845,-0.37844 0.34001,-0.21501 0.375,-0.25 0.12119,-0.12119 0.44926,-0.59779 0.5,-0.75 0.0527,-0.15811 -0.0745,-0.35093 0,-0.5 0.0186,-0.0373 0.10636,0.0373 0.125,0 0.0745,-0.14907 -0.0527,-0.34189 0,-0.5 0.0186,-0.0559 0.11071,-0.0678 0.125,-0.125 0.0303,-0.12127 -0.0303,-0.25373 0,-0.375 0.0535,-0.21411 0.4833,-0.81108 0.625,-1 0.1636,-0.21814 0.47234,-0.55559 0.75,-0.625 0.0808,-0.0202 0.17094,0.0263 0.25,0 0.52662,-0.17554 0.79467,-0.77234 1.25,-1 0.11785,-0.0589 0.25715,-0.0661 0.375,-0.125 0.11958,-0.0598 0.35718,-0.60718 0.5,-0.75 0.14055,-0.14056 0.45806,-0.26371 0.625,-0.375 0.28234,-0.18823 0.4874,-0.53993 0.75,-0.75 0.23628,-0.18903 0.43859,-0.22039 0.625,-0.5 0.0231,-0.0347 -0.0295,-0.0955 0,-0.125 0.0932,-0.0932 0.28183,-0.0318 0.375,-0.125 0.0932,-0.0932 0.0519,-0.26537 0.125,-0.375 0.23235,-0.34853 0.24454,-0.60863 0.375,-1 0.05,-0.15 -0.05,-0.35 0,-0.5 0.0659,-0.19764 0.30912,-0.30236 0.375,-0.5 0.0554,-0.16613 -0.0794,-0.46629 0,-0.625 0.4268,-0.85361 1.54618,-1.69745 2.375,-2.25 0.23955,-0.1597 0.89122,-0.13311 1.125,-0.25 0.15811,-0.0791 0.23358,-0.26893 0.375,-0.375 0.36015,-0.27012 0.96179,-0.15818 1.375,-0.25 0.42465,-0.0944 0.82343,-0.28969 1.25,-0.375 0.12257,-0.0245 0.25,0 0.375,0 0.20833,-0.0417 0.4176,-0.0789 0.625,-0.125 0.8634,-0.19187 1.80625,-0.4351 2.625,-0.75 0.14022,-0.0539 0.23551,-0.19421 0.375,-0.25 0.23965,-0.0959 0.62261,0.0505 0.875,0 0.84902,-0.1698 1.63937,-0.52938 2.5,-0.625 0.86346,-0.0959 1.76699,-0.0177 2.625,-0.125 0.62396,-0.078 0.5957,-0.28678 1.125,-0.375 0.46848,-0.0781 1.02415,0 1.5,0 h 2.75 c 0.30966,0 0.70439,0.0493 1,0 0.38221,-0.0637 0.73205,-0.40176 1.125,-0.5 0.34738,-0.0869 0.95499,-0.0267 1.25,-0.125 0.45502,-0.15168 0.91443,-0.34648 1.375,-0.5 0.97132,-0.32378 1.60942,-1.01254 2.375,-1.625 0.31872,-0.25498 0.41882,-0.13961 0.75,-0.25 0.19764,-0.0659 0.32135,-0.26781 0.5,-0.375 0.1875,-0.1125 0.625,-0.275 0.75,-0.375 0.0728,-0.0582 0.0591,-0.18412 0.125,-0.25 0.9718,-0.9718 -0.4718,0.7218 0.5,-0.25 0.0295,-0.0295 -0.0347,-0.10189 0,-0.125 0.10963,-0.0731 0.25715,-0.0661 0.375,-0.125 0.15811,-0.0791 0.23358,-0.26893 0.375,-0.375 0.6295,-0.47213 1.68672,-0.76953 2.125,-1.5 0.0884,-0.14731 0.004,-0.37852 0.125,-0.5 0.0659,-0.0659 0.18412,-0.0591 0.25,-0.125 0.0295,-0.0295 -0.0231,-0.0903 0,-0.125 0.0981,-0.14709 0.29594,-0.21689 0.375,-0.375 0.30333,-0.60667 0.56613,-1.25727 0.875,-1.875 0.0373,-0.0745 -0.0373,-0.17547 0,-0.25 0.1906,-0.3812 0.0991,0.22862 0.25,-0.375 0.0404,-0.16169 -0.0527,-0.34189 0,-0.5 0.0859,-0.25769 0.23663,-0.47326 0.375,-0.75 0.0798,-0.15959 -0.0978,-0.47823 0,-0.625 0.0517,-0.0775 0.19832,-0.0475 0.25,-0.125 0.0557,-0.0836 0,-0.50211 0.15625,-0.71875 -0.0312,-0.88727 -0.34935,-0.69025 -0.53125,-0.78125 -0.18634,-0.0932 -0.33732,-0.24486 -0.5,-0.375 -0.37269,-0.29815 -0.10829,-0.30415 -0.5,-0.5 -0.30232,-0.15116 -0.46738,-0.48369 -0.75,-0.625 -0.0373,-0.0186 -0.0955,0.0295 -0.125,0 -0.0659,-0.0659 -0.0591,-0.1841 -0.125,-0.25 -0.23216,-0.23216 -0.63629,-0.38629 -0.875,-0.625 -0.32879,-0.32879 0.17755,-0.33462 -0.5,-0.625 -0.15319,-0.0657 -0.33831,0.0404 -0.5,0 -0.0404,-0.0101 0.0295,-0.0955 0,-0.125 -0.23469,-0.23469 -0.8673,-0.5782 -1.125,-0.75 -0.72035,-0.48023 -1.455,-0.94166 -2.125,-1.5 -0.40741,-0.33951 -0.73259,-0.76826 -1.125,-1.125 -0.89583,-0.81439 -1.16986,-1.06729 -1.875,-2.125 -0.39213,-0.58819 -0.80606,-1.23711 -1.125,-1.875 -0.0589,-0.11785 -0.0459,-0.26959 -0.125,-0.375 -0.5712,-0.7616 0.0689,1.33164 -0.625,-0.75 -0.0527,-0.15811 0,-0.33333 0,-0.5 -0.0833,-0.125 -0.1942,-0.23551 -0.25,-0.375 -0.10907,-0.27267 -0.0666,-1.72517 0,-2.125 0.0602,-0.36093 0.3032,-0.64123 0.375,-1 0.0163,-0.0817 -0.0229,-0.1699 0,-0.25 0.0978,-0.3423 0.3308,-0.64675 0.375,-1 0.11223,-0.89783 0.0787,-1.86106 0.375,-2.75 0.26532,-0.79598 0.63042,-1.53795 0.75,-2.375 0.10115,-0.70805 0.13786,-1.85356 -0.25,-2.5 -0.375,-0.625 -0.125,0 -0.375,-0.375 -0.10336,-0.15504 -0.11824,-0.36824 -0.25,-0.5 -0.10623,-0.10623 -0.2849,-0.12982 -0.375,-0.25 -0.05,-0.0667 0.0202,-0.1692 0,-0.25 -0.13491,-0.53961 -0.60043,-1.04238 -0.875,-1.5 -0.47817,-0.79694 -1.09737,-1.48786 -1.625,-2.25 -0.32268,-0.4661 -0.53306,-1.04407 -0.875,-1.5 -0.50705,-0.67606 -1.39226,-1.24355 -2,-1.75 -1.02104,-0.85087 -2.09043,-1.65866 -2.42729,-2.79642 -3.98632,1.32307 -14.17393,1.19377 -17.59494,1.00371 v 10e-6 c -0.96663,-0.0537 -1.78985,-0.41984 -2.91682,-0.53033 l -0.26516,5.48008 c 0,0.29463 0.0932,0.60437 0,0.88388 -0.01,0.0294 -1.66643,2.01998 -1.76777,2.12132 -0.0817,0.0817 -0.4236,-0.0534 -0.53033,0 -0.3612,0.18061 -0.30883,0.41958 -0.53033,0.53033 -0.0527,0.0264 -0.15814,-0.0559 -0.17678,0 -0.14916,0.44749 0,1.27752 0,1.76777 0,0.48136 -0.0965,1.18107 0.17678,1.59099 0.47466,0.71198 1.40877,1.34024 2.12132,1.76777 0.15159,0.0909 0.3662,-0.0657 0.53033,0 0.27356,0.10942 0.4276,0.43716 0.70711,0.53033 0.1118,0.0373 0.23922,-0.0286 0.35355,0 0.48358,0.12089 0.28447,0.24857 0.70711,0.53033 0.20215,0.13477 0.48153,0.0865 0.7071,0.17677 0.89927,0.35971 1.74768,0.89845 2.65166,1.23744 0.11034,0.0414 0.24413,-0.0438 0.35355,0 0.19726,0.0789 0.35355,0.2357 0.53033,0.35355 0.29463,0.11786 0.58284,0.25321 0.88388,0.35356 0.34004,0.11334 0.74007,0.0165 1.06066,0.17677 0.48103,0.24052 0.17736,0.44204 0.70711,0.53034 0.29062,0.0484 0.67555,-0.20834 0.88388,0 0.0417,0.0417 0,0.11785 0,0.17677 0.17678,0.0589 0.37529,0.0734 0.53033,0.17678 0.049,0.0327 -0.0327,0.12775 0,0.17678 0.13868,0.20801 0.35356,0.35355 0.53033,0.53033 0.0932,0.0932 0.28047,0.0671 0.35356,0.17677 0.10336,0.15505 0.065,0.38126 0.17677,0.53033 0.29339,0.39118 0.93304,0.37339 1.06066,0.88389 0.0992,0.39682 0,1.00373 0,1.41421 0,0.56366 0.11844,1.32494 -0.17677,1.76777 -0.67972,1.01957 -1.10764,0.53815 -2.12132,0.7071 -0.47931,0.0799 -0.93319,0.28484 -1.41422,0.35356 -1.62647,0.23235 -3.66024,0 -5.3033,0 -0.9123,0 -1.93462,-0.14897 -2.82843,0 -1.65536,0.27589 -3.37004,0.53409 -4.94974,1.06066 -0.19133,0.0638 -0.51871,-0.0314 -0.70711,0 -0.68988,0.11498 -0.77794,0.40307 -1.41421,0.53033 -0.19087,0.0382 -0.71071,-0.0866 -0.88389,0 -0.0527,0.0263 0,0.11785 0,0.17677 -0.11785,0.0589 -0.2357,0.11785 -0.35355,0.17678 -0.63574,0.31787 -1.30929,0.53128 -1.94454,1.06066 -0.19206,0.16005 -0.31596,0.40171 -0.53033,0.53033 -0.21006,0.12603 -1.25181,0.19114 -1.59099,0.53033 -0.1214,0.1214 -0.59046,0.80612 -0.70711,0.88388 -0.0981,0.0654 -0.24814,-0.0527 -0.35355,0 -0.26353,0.13177 -0.46197,0.3669 -0.70711,0.53033 -0.48288,0.32192 -1.07191,0.44757 -1.59099,0.70711 -0.47589,0.23795 -1.58595,1.2324 -1.94454,1.59099 -0.0932,0.0932 -0.0671,0.28047 -0.17678,0.35355 -0.0981,0.0654 -0.24175,-0.0373 -0.35355,0 -0.0791,0.0264 -0.10225,0.13951 -0.17678,0.17678 -0.16667,0.0833 -0.37529,0.0734 -0.53033,0.17678 -0.20801,0.13867 -0.32232,0.39165 -0.53033,0.53033 -0.31009,0.20672 -0.71464,0.21514 -1.06066,0.35355 -1.05858,0.42343 -2.07982,0.87005 -3.18198,1.23744 -0.0559,0.0186 -0.11785,0 -0.17678,0 -0.17678,0 -0.36262,-0.0559 -0.53033,0 -0.57031,0.1901 -0.3835,0.40523 -0.88388,0.53033 -0.11434,0.0286 -0.2357,0 -0.35356,0 -0.2357,0.11785 -0.46036,0.26102 -0.7071,0.35355 -0.29271,0.43903 -0.72063,0.0634 -1.06066,0.17678 -0.25,0.0833 -0.45711,0.27022 -0.70711,0.35355 -0.72377,0.24126 -1.24925,0.0377 -1.94454,0.17678 -0.72524,0.14505 -1.39609,0.56206 -2.12132,0.7071 -0.51951,0.10391 -1.24999,0 -1.76777,0 h -3.35876 c -1.0747,0 -2.30248,-0.17604 -3.35876,0 -0.49113,-0.34386 -0.45145,0.28964 -0.7071,0.35356 -0.0594,0.0148 -0.9552,-0.0703 -1.06066,0 -0.17678,0.11785 -0.18359,0.40285 -0.35356,0.53033 -0.54635,0.40976 -1.10093,0.96444 -1.41421,1.59099 -0.4714,0.94281 0.20537,0.13388 -0.53033,1.23744 -0.66004,0.99006 -1.17661,1.49151 -2.12132,2.12132 -0.30616,0.2041 -0.55156,0.54094 -0.88388,0.7071 -0.16667,0.0833 -0.37055,0.0809 -0.53033,0.17678 -0.14292,0.0858 -0.19881,0.29165 -0.35356,0.35355 -0.19941,0.22361 -0.4835,-0.0745 -0.7071,0 -1.26352,0.42117 -2.58266,0.6226 -3.88909,0.88389 -0.23113,0.0462 -0.47844,-0.0572 -0.70711,0 -1.44629,0.36157 -2.94914,0.94338 -4.41941,1.23743 -0.66487,0.13298 -1.29347,0.54434 -1.94455,0.70711 -0.73352,0.18338 -1.57604,0.17304 -2.2981,0.35355 -0.0808,0.0202 -0.0977,0.15043 -0.17677,0.17678 -0.22361,0.0745 -0.47844,-0.0572 -0.70711,0 -0.44792,0.11198 -0.62125,0.35457 -1.06066,0.53033 -0.39648,0.15859 -1.0167,-0.022 -1.41421,0.17678 -0.14907,0.0745 -0.21488,0.2611 -0.35356,0.35355 -0.44545,0.29697 -1.14377,0.23218 -1.59099,0.53033 -0.13867,0.0924 -0.19544,0.30085 -0.35355,0.35355 -0.1677,0.0559 -0.38324,-0.0981 -0.53033,0 -0.58062,0.38708 -1.09377,1.09377 -1.59099,1.59099 -0.38433,0.38433 -0.86131,0.68454 -1.23744,1.06066 -0.0932,0.0932 -0.0836,0.26039 -0.17677,0.35356 -0.18598,0.18597 -0.66503,0.43353 -0.88389,0.7071 -0.64425,0.80532 -1.15988,1.66436 -1.76776,2.47488 -0.16095,0.21459 -0.72255,0.89932 -0.88389,1.06066 -0.15023,0.15023 -0.3801,0.20332 -0.53033,0.35355 -0.24295,0.24296 -0.28737,0.64093 -0.53033,0.88388 -0.0932,0.0932 -0.26038,0.0836 -0.35355,0.17678 -0.0932,0.0932 -0.0836,0.26039 -0.17678,0.35355 -0.0417,0.0417 -0.11785,0 -0.17677,0 -0.11786,0.0589 -0.28047,0.0672 -0.35356,0.17678 -0.0654,0.0981 0.0654,0.2555 0,0.35355 -0.14617,0.21927 -0.48113,0.21798 -0.7071,0.35356 -0.6885,0.41309 -0.68905,0.5213 -1.41422,0.88388 -0.23676,0.11838 -0.24494,0.42173 -0.35355,0.53033 -0.0833,0.0833 -0.2357,0 0.1547,0.11059 0.46545,0.23896 0.46195,0.17229 0.37567,0.28737 z"
           id="path203" />
        <path
           style="fill:#969696;fill-opacity:1;stroke:none;stroke-width:1;stroke-dasharray:none;stroke-opacity:1"
           d="m 843.22483,328.27432 c 0.87078,-0.65309 -0.31917,0.67272 1.06066,-0.70711 0.0417,-0.0417 -0.0417,-0.13511 0,-0.17677 0.49426,-0.49427 0.49301,-0.42329 1.06066,-0.70711 0.30753,-0.15376 0.52305,-0.78458 0.70711,-1.06066 0.27074,-0.40612 0.10097,0.0758 0.53033,-0.35355 0.0932,-0.0932 0.0836,-0.26039 0.17677,-0.35356 0.0417,-0.0417 0.12775,0.0327 0.17678,0 0.30629,-0.20419 0.55511,-0.7195 0.88388,-0.88388 0.10541,-0.0527 0.24175,0.0373 0.35356,0 0.2294,-0.0765 0.49778,-0.39078 0.7071,-0.53033 0.5761,-0.38406 1.33228,-0.53401 1.94455,-0.88388 1.79759,-1.0272 0.0421,-0.0281 1.59099,-1.06066 0.26403,-0.17602 0.64011,-0.15041 0.88388,-0.35356 0.19878,-0.16565 0.542,-0.88971 0.88388,-1.06066 0.1821,-0.091 0.76012,-0.22979 0.88389,-0.35355 0.0932,-0.0932 0.0836,-0.26038 0.17677,-0.35355 0.13972,-0.13972 2.06444,-0.9469 2.12132,-1.06066 0.0527,-0.10541 -0.0527,-0.24815 0,-0.35356 0.0589,-0.11785 0.28047,-0.0671 0.35356,-0.17677 0.25282,-0.37924 0.5653,-0.91886 0.88388,-1.23744 0.21541,-0.21541 0.66848,-0.31493 0.88388,-0.53033 0.0932,-0.0932 0.10369,-0.24392 0.17678,-0.35356 0.17831,-0.26745 0.51587,-0.45212 0.70711,-0.7071 0.406,-0.54134 0.68177,-1.19943 1.06066,-1.76777 0.0973,-0.14593 0.61382,-0.7906 0.70711,-0.88388 0.0417,-0.0417 0.14409,0.049 0.17677,0 0.13807,-0.20711 0.15028,-0.68061 0.35356,-0.88389 0.0417,-0.0417 0.13511,0.0417 0.17677,0 0.34828,-0.34827 0.0264,-0.40636 0.17678,-0.7071 0.37693,-0.75387 -0.0234,0.40031 0.35355,-0.35356 0.16855,-0.33709 0.33287,-0.90833 0.53033,-1.23743 0.15159,-0.25264 0.37875,-0.45447 0.53033,-0.70711 0.0303,-0.0505 0,-0.11785 0,-0.17678 0.0589,-0.11785 0.10369,-0.24392 0.17678,-0.35355 0.1447,-0.21706 0.45978,-0.81333 0.53033,-0.88388 0.0932,-0.0932 0.26038,-0.0836 0.35355,-0.17678 0.14336,-0.14336 0.64651,-0.93946 0.70711,-1.06066 0.10865,-0.21731 0.0681,-0.4898 0.17678,-0.70711 0.0373,-0.0745 0.11785,-0.11785 0.17677,-0.17677 0.0589,-0.11785 0.12784,-0.23122 0.17678,-0.35356 0.36528,-0.9132 0.31481,-1.86706 0.70711,-2.65165 0.14906,-0.29812 -0.0534,-0.91727 0,-1.23743 0.18395,-1.10373 0.0808,-0.33837 0.53033,-1.23744 0.0791,-0.15811 -0.0429,-0.35883 0,-0.53033 0.11015,-0.44061 0.32311,-1.17656 0.53033,-1.59099 0.47829,-0.95658 1.05994,-1.94365 1.76776,-2.82843 1.27155,-1.58944 -0.4476,0.62438 0.70711,-0.53033 0.2357,-0.2357 -0.375,-0.16963 0.17678,-0.35355 0.1118,-0.0373 0.24175,0.0373 0.35355,0 0.11954,-0.0399 0.80679,-0.63001 0.88388,-0.70711 0.0417,-0.0417 -0.049,-0.14409 0,-0.17678 0.31009,-0.20672 0.76252,-0.12994 1.06066,-0.35355 0.10541,-0.0791 0.0672,-0.28046 0.17678,-0.35355 0.11594,-0.0773 0.74546,0.0277 0.88388,0 1.0787,-0.21574 2.07134,-0.0657 3.18198,-0.17678 0.8621,-0.0862 0.21746,-0.18695 0.88389,-0.35355 0.28583,-0.0715 0.59805,0.0715 0.88388,0 0.20612,-0.0515 0.33307,-0.27465 0.53033,-0.35356 0.60757,-0.24302 1.17336,-0.4099 1.76777,-0.7071 0.75677,-0.37839 1.40212,-0.9827 2.12132,-1.41422 0.94687,-0.56812 2.0019,-0.80744 3.0052,-1.23743 0.59477,-0.2549 1.15392,-0.67927 1.76777,-0.88389 0.20484,-0.0683 0.50145,0.0514 0.70711,0 0.53057,-0.13264 1.01826,-0.27173 1.59099,-0.35355 1.01953,-0.14565 2.15032,0 3.18198,0 h 7.77817 c 0.74433,0 3.69855,0.18136 4.24264,0 1.54416,-0.77208 -0.74884,0.30854 0.70711,-0.17678 0.0791,-0.0263 0.0977,-0.15042 0.17678,-0.17677 1.21355,-0.40452 -0.82341,0.67687 0.88388,-0.17678 0.49964,-0.24982 1.06889,-0.62283 1.59099,-0.88388 0.23117,-0.11559 0.8788,-0.0555 1.06066,-0.17678 0.10963,-0.0731 0.0836,-0.26038 0.17678,-0.35355 0.10867,-0.10868 1.04446,-0.51413 1.23743,-0.70711 0.15023,-0.15023 0.20332,-0.3801 0.35356,-0.53033 0.36224,-0.36224 1.12524,-0.62721 1.41421,-1.06066 1.28707,-1.9306 1.23744,-4.11915 0.88389,-7.24784 -1.228,-1.13373 -2.29204,-1.05945 -3.18198,-1.23744 -0.0596,-0.0119 -1.83605,-0.65286 -1.94455,-0.70711 -0.2236,-0.1118 -0.33033,-0.38033 -0.53033,-0.53033 -0.64783,-0.48588 -1.87142,-1.43494 -2.65165,-1.59099 -1.23706,-0.24741 -2.63294,0.12562 -3.88908,0 -0.83619,-0.0836 -1.67847,-0.37105 -2.47488,-0.53033 -0.33995,-0.068 -0.7207,0.068 -1.06066,0 -0.41781,-0.0836 -1.65534,-0.66963 -1.76776,-0.7071 -0.46673,-0.15558 -1.12427,-0.19798 -1.59099,-0.35356 -0.63774,-0.21258 -1.16887,-0.64432 -1.76777,-0.88388 -0.10942,-0.0438 -0.23922,0.0286 -0.35355,0 -0.56303,-0.14076 -1.08711,-0.41917 -1.59099,-0.70711 -0.0512,-0.0292 0.0417,-0.13511 0,-0.17677 -0.17678,-0.11786 -0.35356,-0.23571 -0.53033,-0.35356 0,-0.0589 0.0417,-0.13511 0,-0.17677 -0.0932,-0.0932 -0.27697,-0.0696 -0.35356,-0.17678 -0.22975,-0.32166 -0.33836,-0.71512 -0.53033,-1.06066 -0.14308,-0.25755 -0.39857,-0.44358 -0.53033,-0.70711 -0.54006,-1.08013 -1.09435,-1.99508 -1.76777,-3.0052 -0.19059,-0.28589 -0.30672,-0.62301 -0.53033,-0.88389 -0.13826,-0.16131 -0.35744,-0.23006 -0.53033,-0.35355 -0.48785,-0.34847 -0.90149,-0.75303 -1.41421,-1.06066 -0.88768,-0.53261 -1.91642,-0.78143 -2.82843,-1.23744 -0.19003,-0.095 -0.32877,-0.28636 -0.53033,-0.35355 -0.72886,-0.24295 -1.69602,0.0569 -2.47487,-0.17678 -0.2035,-0.0611 -0.33505,-0.26986 -0.53033,-0.35355 -0.90725,-0.38882 -0.56806,-0.006 -1.59099,-0.17678 -0.14986,-0.025 -0.2754,-0.17677 -0.7955,-0.0884 -0.20624,0.0884 -0.35864,0.17168 -0.44194,0.0884 -0.36575,-0.36575 0.55893,0.0143 -0.0884,-0.17678 0.17169,0.26008 0.32409,0.17676 -0.0893,0.0825 -1.12442,-0.0943 -1.25153,0.31881 -1.7812,0.53068 -0.24455,0.0978 -0.64061,-0.11719 -0.875,0 -0.0444,0.0222 -0.2056,0.2278 -0.25,0.25 -0.2,0.1 -0.55,-0.1 -0.75,0 -0.46536,0.23268 -0.59115,0.38137 -1.125,0.5 -0.41981,0.0933 -0.96987,0.0879 -1.375,0.25 -0.0547,0.0219 -0.0672,0.1134 -0.125,0.125 -0.16343,0.0327 -0.3356,-0.0274 -0.5,0 -0.48673,0.0811 -1.00346,0.38966 -1.5,0.5 -0.24742,0.055 -0.50956,0.0448 -0.75,0.125 -0.0395,0.0132 0.0373,0.1064 0,0.125 -0.35356,0.17678 -0.74493,0.26641 -1.125,0.375 -0.71355,0.20387 -0.95235,0.18094 -1.75,0.5 -0.35425,0.1417 -0.66712,0.43478 -1,0.625 -0.46636,0.26649 -0.93957,0.42343 -1.375,0.75 -0.25491,0.19118 -0.38954,0.51454 -0.625,0.75 -0.125,0.125 -0.2959,0.21689 -0.375,0.375 -0.14947,0.29894 -0.1752,0.57571 -0.25,0.875 -0.0678,0.27116 -0.2866,0.48483 -0.375,0.75 -0.0802,0.24044 -0.0117,0.52331 -0.125,0.75 -0.0672,0.13437 -0.2025,0.23248 -0.25,0.375 -0.0395,0.11858 0.0245,0.25243 0,0.375 -0.061,0.30496 -0.1625,0.69357 -0.25,1 -0.0869,0.30414 -0.26179,0.73583 -0.375,1 -0.0592,0.13808 -0.2136,0.22925 -0.25,0.375 -0.0303,0.12127 0.0395,0.25641 0,0.375 -0.0768,0.23049 -0.2763,0.40298 -0.375,0.625 -0.89088,2.00448 -0.0554,0.0412 -0.5,1.375 -0.67334,2.02001 -2.67301,5.25997 -2.25,7.375 0.044,0.22002 0.16668,0.41667 0.1014,0.74734 0.14465,1.80198 0.21115,3.57742 0.21115,5.37766 0,0.3523 0.10587,1.18604 -0.1875,1.4375 -0.11407,0.0978 -0.25482,0.1599 -0.375,0.25 -0.40061,0.30046 -0.78571,0.63615 -1.1875,0.9375 -0.21344,0.16008 -0.42833,0.31972 -0.625,0.5 -0.13772,0.12624 -0.20855,0.32653 -0.375,0.4375 -0.10108,0.0674 -0.2153,0.1146 -0.3125,0.1875 -0.30287,0.22715 -0.70507,0.54133 -0.9375,0.8125 -0.11106,0.12956 -0.28432,0.38512 -0.4375,0.5 -0.0972,0.0729 -0.2166,0.1129 -0.3125,0.1875 -0.093,0.0723 -0.14698,0.1928 -0.25,0.25 -0.0929,0.0516 -0.2175,0.015 -0.3125,0.0625 -0.0791,0.0395 -0.1126,0.1406 -0.1875,0.1875 -0.0951,0.0595 -0.21216,0.0748 -0.3125,0.125 -0.25607,0.12803 -0.49393,0.30947 -0.75,0.4375 -0.1387,0.0693 -0.35067,0.1128 -0.5,0.1875 -0.10231,0.0512 -0.2102,0.1363 -0.3125,0.1875 -0.48366,0.24183 -1.04783,0.38424 -1.375,0.875 -0.28286,0.42429 -0.52758,0.88512 -0.8125,1.3125 -0.0878,0.13176 -0.1105,0.32198 -0.1875,0.4375 -0.0476,0.0715 -0.2647,0.3897 -0.3125,0.4375 -0.263,0.263 0.003,-0.31898 -0.3125,0.3125 -0.0186,0.0373 0.0132,0.0855 0,0.125 -0.028,0.0838 -0.1323,0.1185 -0.1875,0.1875 -0.37932,0.4742 0.0897,-0.0871 -0.1875,0.375 -0.0909,0.15148 -0.2427,0.26287 -0.3125,0.4375 -0.0155,0.0387 0.0155,0.0863 0,0.125 -0.0279,0.0697 -0.0914,0.1203 -0.125,0.1875 -0.17289,0.34578 -0.31475,0.75675 -0.4375,1.125 -0.1602,0.48054 -0.0898,0.94884 -0.1875,1.4375 -0.13352,0.66761 -0.29697,1.33249 -0.4375,2 -0.1605,0.76248 -0.1539,1.54362 -0.25,2.3125 -0.0488,0.39053 -0.1652,0.7434 -0.25,1.125 -0.009,0.0407 0.0132,0.0855 0,0.125 -0.0502,0.15052 -0.1408,0.28585 -0.1875,0.4375 -0.1588,0.17225 -0.0201,0.37868 -0.0625,0.5625 -0.10361,0.44895 -0.27483,1.00371 -0.4375,1.4375 -0.0557,0.14856 -0.1419,0.28553 -0.1875,0.4375 -0.018,0.0599 0.0259,0.1306 0,0.1875 -0.0813,0.17892 -0.2193,0.32695 -0.3125,0.5 -0.19193,0.35644 -0.25902,0.76804 -0.4375,1.125 -0.23446,0.46891 -0.4739,0.90621 -0.5625,1.4375 -0.0625,0.375 0.125,-0.25 0,0.375 -0.0104,0.0519 -0.1121,0.1357 -0.125,0.1875 -0.0581,0.23256 0,0.56879 -0.19829,0.86456 0.0796,-0.0941 -0.22729,0.12747 0.0518,-0.0121 0.0756,-0.0378 0.16706,-0.12773 0.24307,-0.0663 0.7709,1.06208 -0.22921,-0.0966 0.37563,0.50821 0.0376,0.0376 0.042,0.10679 0.0884,0.13258 0.0937,0.0521 0.20979,0.0486 0.30936,0.0884 0.37067,0.14827 -0.17375,0.045 0.35355,0.17678 0.82728,0.20681 1.66947,0.22097 2.51907,0.22097 h 3.49134 c 0.25673,0 0.63129,-0.0561 0.88389,0 0.2506,0.0557 0.49457,0.1401 0.7513,0.17677 0.0509,0.007 0.26155,-0.0319 0.30936,0 0.0274,0.0183 0.0178,0.0686 0.0442,0.0884 0.0373,0.0279 0.0921,0.0211 0.13258,0.0442 0.12067,0.0689 0.24047,0.14019 0.35356,0.22097 0.0859,0.0614 0.13913,0.15549 0.22097,0.22097 0.16343,0.13074 0.40765,0.16954 0.53033,0.35355 0.35126,0.52689 0.44194,1.13457 0.44194,1.76777 0,0.0724 0.0355,0.69806 0,0.7513 -0.2338,0.3507 10e-4,-6.7e-4 -0.13258,0.0884 -0.10774,0.0718 -0.14532,0.15248 -0.26517,0.22097 -0.18567,0.1061 -0.39635,0.19058 -0.57452,0.30936 -0.0347,0.0231 -0.0589,0.0589 -0.0884,0.0884 -0.0884,0.0295 -0.18372,0.0432 -0.26517,0.0884 -0.0546,0.0304 -0.0796,0.0995 -0.13258,0.13259 -0.18879,0.11799 -0.70768,0.32993 -0.92808,0.39774 -0.27054,0.0833 -0.21024,0.0249 -0.44194,0.0442 -0.47081,0.0392 -0.9455,0.0857 -1.41421,0.13258 -0.30976,0.031 -0.58647,0.13986 -0.88389,0.22097 -0.11785,0.0295 -0.2357,0.0589 -0.35355,0.0884 -0.0442,0 -0.0897,-0.0107 -0.13258,0 -0.25573,0.0639 -0.49742,0.20169 -0.7513,0.26516 -0.0429,0.0107 -0.0897,-0.0107 -0.13259,0 -0.0606,0.0152 -0.0767,0.10464 -0.13258,0.13259 -0.0543,0.0272 -0.11785,0.0295 -0.17677,0.0442 -0.0442,0.0442 -0.0814,0.0967 -0.13259,0.13258 -0.0973,0.0681 -0.20864,0.11383 -0.30936,0.17678 -0.29884,0.18678 -0.57396,0.43514 -0.83969,0.66291 -0.16449,0.141 -0.37174,0.25358 -0.53033,0.39775 -0.0851,0.0774 -0.13961,0.18381 -0.22097,0.26517 -0.12543,0.12543 -0.27231,0.22812 -0.39774,0.35355 -0.0521,0.0521 -0.082,0.12323 -0.13259,0.17678 -0.20624,0.20624 -0.41248,0.41247 -0.61872,0.61871 -0.0442,0.0589 -0.083,0.12228 -0.13258,0.17678 -0.12965,0.14262 -0.35903,0.31667 -0.48613,0.48614 -0.0198,0.0264 -0.0295,0.0589 -0.0442,0.0884 -0.0737,0.10312 -0.1385,0.21315 -0.22097,0.30936 -0.01,0.0112 -0.0338,-0.0104 -0.0442,0 -0.13768,0.13768 -0.0454,0.0989 -0.13259,0.22098 -0.0548,0.0768 -0.12678,0.14098 -0.17677,0.22097 -0.0247,0.0395 -0.0154,0.096 -0.0442,0.13258 -0.1353,0.1722 -0.30174,0.3179 -0.44194,0.48613 -0.0811,0.0974 -0.13752,0.21399 -0.22097,0.30936 -0.0217,0.0248 -0.067,0.0192 -0.0884,0.0442 -0.0691,0.0807 -0.10571,0.1862 -0.17677,0.26516 -0.0631,0.0701 -0.15428,0.11008 -0.22097,0.17678 -0.0233,0.0233 -0.0209,0.0651 -0.0442,0.0884 -0.12543,0.12543 -0.25772,0.24464 -0.39775,0.35355 -0.0678,0.0527 -0.15316,0.0798 -0.22097,0.13258 -0.13156,0.10233 -0.22551,0.24686 -0.35355,0.35356 -0.10857,0.0905 -0.2406,0.1748 -0.35355,0.26516 -0.15375,0.123 -0.17192,0.39289 -0.30936,0.53033 -0.20089,0.20089 -0.4368,0.39132 -0.61872,0.61872 -0.0412,0.0514 -0.0545,0.12029 -0.0884,0.17678 -0.17734,0.29556 0.01,-0.059 -0.26517,0.35355 -0.0365,0.0548 -0.0518,0.12196 -0.0884,0.17678 -0.16209,0.24313 -0.0252,-0.12642 -0.22097,0.26516 -0.0308,0.0615 -0.0263,0.19377 -0.0442,0.26517 -0.0192,0.077 -0.0728,0.14318 -0.0884,0.22097 -0.0737,0.36843 -0.13118,0.7639 -0.0884,1.14905 0.0412,0.37102 0.11863,0.74663 0.22098,1.10485 0.0245,0.0857 0.006,0.23364 0.0442,0.30936 0.0186,0.0373 0.0729,0.0497 0.0884,0.0884 0.0333,0.0832 0.0109,0.18197 0.0442,0.26516 0.0122,0.0306 0.0295,0.0589 0.0442,0.0884 0.0295,0.0295 0.0697,0.0511 0.0884,0.0884 0.0931,0.18616 0.0751,0.29611 0.22098,0.44194 0.0788,0.0788 0.12132,0.0243 0.22097,0.0442 0.0323,0.006 0.0589,0.0295 0.0884,0.0442 0.10312,0.0295 0.20385,0.0692 0.30936,0.0884 0.058,0.0105 0.11815,-0.006 1.14905,0.022 2.02503,-1.17537 2.85924,-2.71904 4.15425,-3.6903 z"
           id="path208" />
      </g>
      <path
         style="display:inline;fill:#969696;fill-opacity:1;stroke:none;stroke-width:1;stroke-dasharray:none;stroke-opacity:1"
         d="m 922.42079,281.78205 c 0,0.29463 0.0932,0.60437 0,0.88388 -0.01,0.0294 -1.66643,2.01998 -1.76777,2.12132 -0.0817,0.0817 -0.4236,-0.0534 -0.53033,0 -0.3612,0.18061 -0.30883,0.41958 -0.53033,0.53033 -0.0527,0.0264 -0.15814,-0.0559 -0.17678,0 -0.14916,0.44749 0,1.27752 0,1.76777 0,0.48136 -0.0965,1.18107 0.17678,1.59099 0.47466,0.71198 1.40877,1.34024 2.12132,1.76777 0.15159,0.0909 0.3662,-0.0657 0.53033,0 0.27356,0.10942 0.4276,0.43716 0.70711,0.53033 0.1118,0.0373 0.23922,-0.0286 0.35355,0 0.48358,0.12089 0.28447,0.24857 0.70711,0.53033 0.20215,0.13477 0.48153,0.0865 0.7071,0.17677 0.89927,0.35971 1.74768,0.89845 2.65166,1.23744 0.11034,0.0414 0.24413,-0.0438 0.35355,0 0.19726,0.0789 0.35355,0.2357 0.53033,0.35355 0.29463,0.11786 0.58284,0.25321 0.88388,0.35356 0.34004,0.11334 0.74007,0.0165 1.06066,0.17677 0.48103,0.24052 0.17736,0.44204 0.70711,0.53034 0.29062,0.0484 0.67555,-0.20834 0.88388,0 0.0417,0.0417 0,0.11785 0,0.17677 0.17678,0.0589 0.37529,0.0734 0.53033,0.17678 0.049,0.0327 -0.0327,0.12775 0,0.17678 0.13868,0.20801 0.35356,0.35355 0.53033,0.53033 0.0932,0.0932 0.28047,0.0671 0.35356,0.17677 0.10336,0.15505 0.065,0.38126 0.17677,0.53033 0.29339,0.39118 0.93304,0.37339 1.06066,0.88389 0.0992,0.39682 0,1.00373 0,1.41421 0,0.56366 0.11844,1.32494 -0.17677,1.76777 -0.67972,1.01957 -1.10764,0.53815 -2.12132,0.7071 -0.47931,0.0799 -0.93319,0.28484 -1.41422,0.35356 -1.62647,0.23235 -3.66024,0 -5.3033,0 -0.9123,0 -1.93462,-0.14897 -2.82843,0 -1.65536,0.27589 -3.37004,0.53409 -4.94974,1.06066 -0.19133,0.0638 -0.51871,-0.0314 -0.70711,0 -0.68988,0.11498 -0.77794,0.40307 -1.41421,0.53033 -0.19087,0.0382 -0.71071,-0.0866 -0.88389,0 -0.0527,0.0263 0,0.11785 0,0.17677 -0.11785,0.0589 -0.2357,0.11785 -0.35355,0.17678 -0.63574,0.31787 -1.30929,0.53128 -1.94454,1.06066 -0.19206,0.16005 -0.31596,0.40171 -0.53033,0.53033 -0.21006,0.12603 -1.25181,0.19114 -1.59099,0.53033 -0.1214,0.1214 -0.59046,0.80612 -0.70711,0.88388 -0.0981,0.0654 -0.24814,-0.0527 -0.35355,0 -0.26353,0.13177 -0.46197,0.3669 -0.70711,0.53033 -0.48288,0.32192 -1.07191,0.44757 -1.59099,0.70711 -0.47589,0.23795 -1.58595,1.2324 -1.94454,1.59099 -0.0932,0.0932 -0.0671,0.28047 -0.17678,0.35355 -0.0981,0.0654 -0.24175,-0.0373 -0.35355,0 -0.0791,0.0264 -0.10225,0.13951 -0.17678,0.17678 -0.16667,0.0833 -0.37529,0.0734 -0.53033,0.17678 -0.20801,0.13867 -0.32232,0.39165 -0.53033,0.53033 -0.31009,0.20672 -0.71464,0.21514 -1.06066,0.35355 -1.05858,0.42343 -2.07982,0.87005 -3.18198,1.23744 -0.0559,0.0186 -0.11785,0 -0.17678,0 -0.17678,0 -0.36262,-0.0559 -0.53033,0 -0.57031,0.1901 -0.3835,0.40523 -0.88388,0.53033 -0.11434,0.0286 -0.2357,0 -0.35356,0 -0.2357,0.11785 -0.46036,0.26102 -0.7071,0.35355 -0.29271,0.43903 -0.72063,0.0634 -1.06066,0.17678 -0.25,0.0833 -0.45711,0.27022 -0.70711,0.35355 -0.72377,0.24126 -1.24925,0.0377 -1.94454,0.17678 -0.72524,0.14505 -1.39609,0.56206 -2.12132,0.7071 -0.51951,0.10391 -1.24999,0 -1.76777,0 h -3.35876 c -1.0747,0 -2.30248,-0.17604 -3.35876,0 -0.49113,-0.34386 -0.45145,0.28964 -0.7071,0.35356 -0.0594,0.0148 -0.9552,-0.0703 -1.06066,0 -0.17678,0.11785 -0.18359,0.40285 -0.35356,0.53033 -0.54635,0.40976 -1.10093,0.96444 -1.41421,1.59099 -0.4714,0.94281 0.20537,0.13388 -0.53033,1.23744 -0.66004,0.99006 -1.17661,1.49151 -2.12132,2.12132 -0.30616,0.2041 -0.55156,0.54094 -0.88388,0.7071 -0.16667,0.0833 -0.37055,0.0809 -0.53033,0.17678 -0.14292,0.0858 -0.19881,0.29165 -0.35356,0.35355 -0.19941,0.22361 -0.4835,-0.0745 -0.7071,0 -1.26352,0.42117 -2.58266,0.6226 -3.88909,0.88389 -0.23113,0.0462 -0.47844,-0.0572 -0.70711,0 -1.44629,0.36157 -2.94914,0.94338 -4.41941,1.23743 -0.66487,0.13298 -1.29347,0.54434 -1.94455,0.70711 -0.73352,0.18338 -1.57604,0.17304 -2.2981,0.35355 -0.0808,0.0202 -0.0977,0.15043 -0.17677,0.17678 -0.22361,0.0745 -0.47844,-0.0572 -0.70711,0 -0.44792,0.11198 -0.62125,0.35457 -1.06066,0.53033 -0.39648,0.15859 -1.0167,-0.022 -1.41421,0.17678 -0.14907,0.0745 -0.21488,0.2611 -0.35356,0.35355 -0.44545,0.29697 -1.14377,0.23218 -1.59099,0.53033 -0.13867,0.0924 -0.19544,0.30085 -0.35355,0.35355 -0.1677,0.0559 -0.38324,-0.0981 -0.53033,0 -0.58062,0.38708 -1.09377,1.09377 -1.59099,1.59099 -0.38433,0.38433 -0.86131,0.68454 -1.23744,1.06066 -0.0932,0.0932 -0.0836,0.26039 -0.17677,0.35356 -0.18598,0.18597 -0.66503,0.43353 -0.88389,0.7071 -0.64425,0.80532 -1.15988,1.66436 -1.76776,2.47488 -0.16095,0.21459 -0.72255,0.89932 -0.88389,1.06066 -0.15023,0.15023 -0.3801,0.20332 -0.53033,0.35355 -0.24295,0.24296 -0.28737,0.64093 -0.53033,0.88388 -0.0932,0.0932 -0.26038,0.0836 -0.35355,0.17678 -0.0932,0.0932 -0.0836,0.26039 -0.17678,0.35355 -0.0417,0.0417 -0.11785,0 -0.17677,0 -0.11786,0.0589 -0.28047,0.0672 -0.35356,0.17678 -0.0654,0.0981 0.0654,0.2555 0,0.35355 -0.14617,0.21927 -0.48113,0.21798 -1.28161,0.48625 -0.58876,0.0187 -0.67549,-0.0819 -0.70709,-0.17667 -0.009,-0.028 0.0132,-0.062 0,-0.0884 -0.003,-0.006 -0.26316,-0.30849 -0.26516,-0.30936 -0.0417,-0.0208 -0.0968,-0.0144 -0.13259,-0.0442 -0.0566,-0.0472 -0.0805,-0.12467 -0.13258,-0.17677 -0.0521,-0.0521 -0.12468,-0.0805 -0.17678,-0.13258 -0.21011,-0.21012 -0.28672,-0.39937 -0.48613,-0.61872 -0.0634,-0.0698 -0.15887,-0.10578 -0.22097,-0.17678 -0.0434,-0.0496 -0.0501,-0.12318 -0.0884,-0.17678 -0.0423,-0.0592 -0.25306,-0.29725 -0.30936,-0.35355 -0.0376,-0.0376 -0.095,-0.0508 -0.13258,-0.0884 -0.0751,-0.0751 -0.10168,-0.19006 -0.17678,-0.26516 -0.0104,-0.0104 -0.0295,0 -0.0442,0 -0.0442,-0.0589 -0.0884,-0.11788 -0.13259,-0.17678 -0.0231,-0.0405 -0.0234,-0.0909 -0.0442,-0.13258 -0.0252,-0.0504 -0.69811,-0.7423 -0.70711,-0.7513 -0.004,-0.004 -0.25006,-0.16168 -0.26516,-0.17678 -0.0104,-0.0104 0.0104,-0.0338 0,-0.0442 -0.11073,-0.11073 -0.21927,-0.22876 -0.35356,-0.30936 -0.04,-0.024 -0.0909,-0.0234 -0.13258,-0.0442 -0.0659,-0.033 -0.10777,-0.10668 0.24307,-0.22106 1.4726,-1.28586 2.30681,-2.82953 3.60182,-3.80079 0.87078,-0.65309 -0.31917,0.67272 1.06066,-0.70711 0.0417,-0.0417 -0.0417,-0.13511 0,-0.17677 0.49426,-0.49427 0.49301,-0.42329 1.06066,-0.70711 0.30753,-0.15376 0.52305,-0.78458 0.70711,-1.06066 0.27074,-0.40612 0.10097,0.0758 0.53033,-0.35355 0.0932,-0.0932 0.0836,-0.26039 0.17677,-0.35356 0.0417,-0.0417 0.12775,0.0327 0.17678,0 0.30629,-0.20419 0.55511,-0.7195 0.88388,-0.88388 0.10541,-0.0527 0.24175,0.0373 0.35356,0 0.2294,-0.0765 0.49778,-0.39078 0.7071,-0.53033 0.5761,-0.38406 1.33228,-0.53401 1.94455,-0.88388 1.79759,-1.0272 0.0421,-0.0281 1.59099,-1.06066 0.26403,-0.17602 0.64011,-0.15041 0.88388,-0.35356 0.19878,-0.16565 0.542,-0.88971 0.88388,-1.06066 0.1821,-0.091 0.76012,-0.22979 0.88389,-0.35355 0.0932,-0.0932 0.0836,-0.26038 0.17677,-0.35355 0.13972,-0.13972 2.06444,-0.9469 2.12132,-1.06066 0.0527,-0.10541 -0.0527,-0.24815 0,-0.35356 0.0589,-0.11785 0.28047,-0.0671 0.35356,-0.17677 0.25282,-0.37924 0.5653,-0.91886 0.88388,-1.23744 0.21541,-0.21541 0.66848,-0.31493 0.88388,-0.53033 0.0932,-0.0932 0.10369,-0.24392 0.17678,-0.35356 0.17831,-0.26745 0.51587,-0.45212 0.70711,-0.7071 0.406,-0.54134 0.68177,-1.19943 1.06066,-1.76777 0.0973,-0.14593 0.61382,-0.7906 0.70711,-0.88388 0.0417,-0.0417 0.14409,0.049 0.17677,0 0.13807,-0.20711 0.15028,-0.68061 0.35356,-0.88389 0.0417,-0.0417 0.13511,0.0417 0.17677,0 0.34828,-0.34827 0.0264,-0.40636 0.17678,-0.7071 0.37693,-0.75387 -0.0234,0.40031 0.35355,-0.35356 0.16855,-0.33709 0.33287,-0.90833 0.53033,-1.23743 0.15159,-0.25264 0.37875,-0.45447 0.53033,-0.70711 0.0303,-0.0505 0,-0.11785 0,-0.17678 0.0589,-0.11785 0.10369,-0.24392 0.17678,-0.35355 0.1447,-0.21706 0.45978,-0.81333 0.53033,-0.88388 0.0932,-0.0932 0.26038,-0.0836 0.35355,-0.17678 0.14336,-0.14336 0.64651,-0.93946 0.70711,-1.06066 0.10865,-0.21731 0.0681,-0.4898 0.17678,-0.70711 0.0373,-0.0745 0.11785,-0.11785 0.17677,-0.17677 0.0589,-0.11785 0.12784,-0.23122 0.17678,-0.35356 0.36528,-0.9132 0.31481,-1.86706 0.70711,-2.65165 0.14906,-0.29812 -0.0534,-0.91727 0,-1.23743 0.18395,-1.10373 0.0808,-0.33837 0.53033,-1.23744 0.0791,-0.15811 -0.0429,-0.35883 0,-0.53033 0.11015,-0.44061 0.32311,-1.17656 0.53033,-1.59099 0.47829,-0.95658 1.05994,-1.94365 1.76776,-2.82843 1.27155,-1.58944 -0.4476,0.62438 0.70711,-0.53033 0.2357,-0.2357 -0.375,-0.16963 0.17678,-0.35355 0.1118,-0.0373 0.24175,0.0373 0.35355,0 0.11954,-0.0399 0.80679,-0.63001 0.88388,-0.70711 0.0417,-0.0417 -0.049,-0.14409 0,-0.17678 0.31009,-0.20672 0.76252,-0.12994 1.06066,-0.35355 0.10541,-0.0791 0.0672,-0.28046 0.17678,-0.35355 0.11594,-0.0773 0.74546,0.0277 0.88388,0 1.0787,-0.21574 2.07134,-0.0657 3.18198,-0.17678 0.8621,-0.0862 0.21746,-0.18695 0.88389,-0.35355 0.28583,-0.0715 0.59805,0.0715 0.88388,0 0.20612,-0.0515 0.33307,-0.27465 0.53033,-0.35356 0.60757,-0.24302 1.17336,-0.4099 1.76777,-0.7071 0.75677,-0.37839 1.40212,-0.9827 2.12132,-1.41422 0.94687,-0.56812 2.0019,-0.80744 3.0052,-1.23743 0.59477,-0.2549 1.15392,-0.67927 1.76777,-0.88389 0.20484,-0.0683 0.50145,0.0514 0.70711,0 0.53057,-0.13264 1.01826,-0.27173 1.59099,-0.35355 1.01953,-0.14565 2.15032,0 3.18198,0 h 7.77817 c 0.74433,0 3.69855,0.18136 4.24264,0 1.54416,-0.77208 -0.74884,0.30854 0.70711,-0.17678 0.0791,-0.0263 0.0977,-0.15042 0.17678,-0.17677 1.21355,-0.40452 -0.82341,0.67687 0.88388,-0.17678 0.49964,-0.24982 1.06889,-0.62283 1.59099,-0.88388 0.23117,-0.11559 0.8788,-0.0555 1.06066,-0.17678 0.10963,-0.0731 0.0836,-0.26038 0.17678,-0.35355 0.10867,-0.10868 1.04446,-0.51413 1.23743,-0.70711 0.15023,-0.15023 0.20332,-0.3801 0.35356,-0.53033 0.36224,-0.36224 1.12524,-0.62721 1.41421,-1.06066 1.28707,-1.9306 1.23744,-4.11915 1.76777,-6.98268 1.0783,-0.50912 1.77085,-0.79446 2.2981,-0.61872 0.25,0.0833 0.45711,0.27026 0.70711,0.35356 2.50113,0.83371 -0.006,-0.0718 1.23743,0.17677 0.36564,0.0731 1.27659,0.293 1.41422,0.53033 0.53566,0.92368 1.30454,-0.4656 1.50259,0.53033 z"
         id="path207" />
    </g>
  </g>
</svg>
