<?xml version="1.0" encoding="UTF-8" standalone="no"?>
<!-- Created with Inkscape (http://www.inkscape.org/) -->

<svg
   version="1.1"
   id="svg1"
   width="126.74889"
   height="96.962013"
   viewBox="0 0 126.74889 96.962013"
   xmlns="http://www.w3.org/2000/svg"
   xmlns:svg="http://www.w3.org/2000/svg">
  <defs
     id="defs1" />
  <g
     id="layer1"
     style="display:inline"
     transform="translate(-836.86085,-256.67976)">
    <g
       id="layer16"
       style="display:inline;fill:#ffffff;fill-opacity:1;stroke:none">
      <path
         style="fill:#ffffff;fill-opacity:1;stroke:none;stroke-width:1;stroke-linecap:round;stroke-dasharray:none;stroke-opacity:1"
         d="m 942.6617,275.86003 9.72272,10.34143 v 8.3969 l -2.03293,2.82842 3.27037,7.15946 9.98788,7.68978 -1.76776,5.21492 -4.33103,3.18198 -5.56847,2.47487 -0.17678,2.03293 -23.95324,3.00521 -10.42982,14.84924 -3.97748,4.06586 -2.82843,6.54074 -35.44372,-1.85616 -8.83884,-1.94454 -5.03813,3.53554 0.61872,-3.53554 -3.27037,-2.56326 -13.78858,6.36396 -2.2981,-2.12132 -0.88388,-6.62913 1.5026,-7.60139 -6.27558,-7.77818 0.70711,-3.88909 9.01561,-7.68978 6.0988,-1.32583 -1.23744,-4.59619 -10.51821,-0.44194 2.74004,-9.104 0.7071,-7.24785 3.97748,-4.06586 2.65165,-0.35355 4.94975,-5.65686 1.14905,-10.42982 3.71231,-10.07627 2.47487,-3.88909 13.70019,-4.06586 12.72793,5.12652 0.53033,2.47487 5.48007,6.36396 8.30851,0.97228 8.13172,1.76776 2.56327,2.56326 z"
         id="path14" />
    </g>
  </g>
</svg>
