<?xml version="1.0" encoding="UTF-8" standalone="no"?>
<!-- Created with Inkscape (http://www.inkscape.org/) -->

<svg
   version="1.1"
   id="svg2"
   width="140.78583"
   height="148.97133"
   viewBox="0 0 140.78583 148.97133"
   xmlns="http://www.w3.org/2000/svg"
   xmlns:svg="http://www.w3.org/2000/svg">
  <defs
     id="defs6">
    <linearGradient
       id="swatch77">
      <stop
         style="stop-color:#e2c69e;stop-opacity:1;"
         offset="0"
         id="stop77" />
    </linearGradient>
  </defs>
  <g
     id="layer66"
     style="display:inline"
     transform="translate(-1046.6206,-261)">
    <g
       id="layer75"
       style="display:inline">
      <path
         style="display:inline;fill:#969696;fill-opacity:1;stroke:none;stroke-width:1;stroke-dasharray:none;stroke-opacity:1"
         d="m 1046.875,359.0625 c 0.033,-0.0329 0.097,-0.0252 0.125,-0.0625 0.04,-0.0527 0.029,-0.13101 0.062,-0.1875 0.141,-0.23493 0.5549,-0.57926 0.75,-0.75 0.1696,-0.14839 0.3791,-0.24402 0.5625,-0.375 0.1826,-0.13045 0.3251,-0.29759 0.5,-0.4375 0.016,-0.013 0.048,0.0147 0.062,0 0.03,-0.0298 0.092,-0.20661 0.125,-0.25 0.2111,-0.2815 0.4811,-0.52354 0.6875,-0.8125 0.1432,-0.20044 0.2272,-0.42788 0.375,-0.625 0.1497,-0.19955 0.3752,-0.34391 0.5625,-0.5 0.2153,-0.17943 0.3643,-0.42681 0.5625,-0.625 0.1725,-0.17252 0.4291,-0.2776 0.5625,-0.5 0.082,-0.13605 0.088,-0.31361 0.1875,-0.4375 0.2233,-0.27914 0.6499,-0.32482 0.875,-0.625 0.063,-0.0843 0.1135,-0.23846 0.1875,-0.3125 0.1293,-0.12932 -0.01,0.19761 0.125,-0.0625 0.1271,-0.25415 0.3093,-0.49369 0.4375,-0.75 0.1467,-0.29333 0.2517,-0.59634 0.4375,-0.875 0.068,-0.10251 0.1192,-0.0225 0.1875,-0.125 0.1328,-0.19916 0.3018,-0.3589 0.4375,-0.5625 0.099,-0.14796 0.033,-0.15756 0.1875,-0.3125 0.015,-0.0147 0.048,0.0147 0.062,0 0.053,-0.0531 0.077,-0.1298 0.125,-0.1875 0.1132,-0.1358 0.2646,-0.23696 0.375,-0.375 0.155,-0.19377 0.2758,-0.43102 0.4375,-0.625 0.057,-0.0679 0.1407,-0.11255 0.1875,-0.1875 0.098,-0.15645 0.3755,-0.82952 0.4375,-1 0.036,-0.0998 0.025,-0.21303 0.062,-0.3125 0.069,-0.18403 0.2351,-0.31935 0.3125,-0.5 0.016,-0.0383 -0.019,-0.0877 0,-0.125 0.089,-0.17877 0.521,-0.62515 0.6875,-0.75 0.1956,-0.14668 0.426,-0.23286 0.625,-0.375 0.072,-0.0514 0.114,-0.13847 0.1875,-0.1875 0.1163,-0.0775 0.2613,-0.10627 0.375,-0.1875 0.038,-0.0271 0.042,-0.0833 0.062,-0.125 0.083,-0.0417 0.1725,-0.0733 0.25,-0.125 0.7528,-0.50186 0.024,-0.0236 0.4375,-0.4375 0.015,-0.0147 0.046,0.0125 0.062,0 0.1045,-0.0784 0.208,-0.17159 0.3125,-0.25 0.094,-0.0707 0.1465,-0.19357 0.25,-0.25 0.1801,-0.0983 0.3853,-0.14661 0.5625,-0.25 0.076,-0.0445 0.1168,-0.13447 0.1875,-0.1875 0.017,-0.0125 0.045,0.0116 0.062,0 0.1399,-0.0933 0.1778,-0.14894 0.3125,-0.25 0.084,-0.0628 0.2225,-0.089 0.3125,-0.125 0.3473,-0.13891 0.7028,-0.26709 1.0625,-0.375 0.1965,-0.0589 0.4403,-0.0767 0.625,-0.1875 0.051,-0.0303 0.074,-0.0947 0.125,-0.125 0.056,-0.0339 0.1316,-0.0276 0.1875,-0.0625 0.3121,-0.19507 0.3061,-0.24523 0.5625,-0.4375 0.017,-0.0125 0.044,0.009 0.062,0 0.163,-0.0815 0.2334,-0.21811 0.375,-0.3125 0.078,-0.0517 0.1725,-0.0733 0.25,-0.125 0.2457,-0.16382 -0.057,0.0282 0.062,-0.125 0.2505,-0.32214 0.5084,-0.61543 0.75,-0.9375 0.3372,-0.44956 -0.069,0.1319 0.25,-0.1875 0.046,-0.0465 0.011,-0.46038 0.062,-0.5625 0.04,-0.0791 0.142,-0.11171 0.1875,-0.1875 0.046,-0.0761 0,-0.28533 0,-0.375 0,-0.48123 -0.024,-0.25243 0.062,-0.6875 0.095,-0.47399 0.062,-0.95477 0.062,-1.4375 0,-0.54184 0.056,-1.15289 -0.062,-1.6875 -0.057,-0.25492 -0.169,-0.38207 -0.25,-0.625 -0.013,-0.0395 0.019,-0.0877 0,-0.125 -0.083,-0.16665 -0.2292,-0.27085 -0.3125,-0.4375 -0.083,-0.16604 -0.1394,-0.3451 -0.25,-0.5 -0.078,-0.10855 -0.1838,-0.19668 -0.25,-0.3125 -0.017,-0.03 -0.088,-0.4006 -0.1875,-0.5 -0.053,-0.0531 -0.1298,-0.0769 -0.1875,-0.125 -0.3251,-0.27091 -0.067,-0.0882 -0.3125,-0.375 -0.1342,-0.15659 -0.3055,-0.27906 -0.4375,-0.4375 -0.2662,-0.31947 -0.453,-0.70295 -0.75,-1 -0.1062,-0.10623 -0.2877,-0.12775 -0.375,-0.25 -0.081,-0.11372 -0.125,-0.25 -0.1875,-0.375 -0.125,-0.10417 -0.2751,-0.18406 -0.375,-0.3125 -0.053,-0.0678 -0.024,-0.17317 -0.062,-0.25 -0.056,-0.11273 -0.3958,-0.50289 -0.4375,-0.5625 -0.1568,-0.15746 -0.1935,-0.38403 -0.3125,-0.5625 -0.049,-0.0735 -0.148,-0.10844 -0.1875,-0.1875 -0.05,-0.10035 -0.063,-0.21915 -0.125,-0.3125 -0.1307,-0.19612 -0.3491,-0.31893 -0.5,-0.5 -0.2228,-0.26739 0.1373,0.0372 -0.125,-0.3125 -0.028,-0.0373 -0.099,-0.0237 -0.125,-0.0625 -0.023,-0.0347 0.019,-0.0877 0,-0.125 -0.086,-0.17159 -0.2838,-0.31765 -0.375,-0.5 -0.05,-0.10035 -0.067,-0.2163 -0.125,-0.3125 -0.011,-0.0179 -0.042,0 -0.062,0 -0.021,-0.0208 -0.049,-0.0362 -0.062,-0.0625 -0.072,-0.14333 -0.064,-0.25177 -0.1875,-0.375 -0.019,-0.7085 0.01,-1.48994 -0.121,-2.1875 -0.01,-0.0458 -0.051,-0.0798 -0.062,-0.125 -0.052,-0.20612 -0.073,-0.41889 -0.125,-0.625 -0.011,-0.0452 -0.059,-0.0786 -0.062,-0.125 -0.032,-0.41348 0.034,-0.8365 0,-1.25 -0.056,-0.67846 -0.1575,-1.31052 -0.1875,-2 -0.053,-1.20873 0.01,-2.42159 -0.125,-3.625 -0.048,-0.43541 -0.1697,-0.88423 -0.25,-1.3125 -0.021,-0.125 -0.042,-0.25 -0.062,-0.375 0,-0.0833 0.012,-0.1675 0,-0.25 -0.05,-0.34699 -0.221,-0.71447 -0.25,-1.0625 -0.016,-0.18685 0.016,-0.37565 0,-0.5625 -0.01,-0.0657 -0.048,-0.12319 -0.062,-0.1875 -0.069,-0.3111 -0.1321,-0.62366 -0.1875,-0.9375 -0.01,-0.041 0,-0.0833 0,-0.125 -0.021,-0.1875 -0.028,-0.37708 -0.062,-0.5625 -0.028,-0.14907 -0.093,-0.2892 -0.125,-0.4375 -0.1055,-0.4925 -0.1256,-1.00497 -0.1875,-1.5 -0.031,-0.25149 -0.094,-0.49851 -0.125,-0.75 -0.034,-0.26874 0.019,-0.54236 0,-0.8125 -0.026,-0.36469 -0.1514,-0.70158 -0.1875,-1.0625 -0.1018,-1.01782 -0.1576,-2.04604 -0.25,-3.0625 -0.04,-0.44243 -0.1586,-0.60471 -0.1875,-1.125 -0.039,-0.70338 0,-1.4204 0,-2.125 0,-0.70418 -0.051,-1.44557 0.062,-2.125 0.091,-0.54864 0.023,0.0955 0.125,-0.3125 0.01,-0.0404 -0.015,-0.0863 0,-0.125 0.056,-0.13949 0.1942,-0.23551 0.25,-0.375 0.015,-0.0387 -0.01,-0.0846 0,-0.125 0.049,-0.19444 0.3329,-0.89536 0.2802,-0.28125 1.006,-0.029 2.3863,-0.75408 3.7803,-1.21875 0.5,-0.16667 1.0615,-0.20765 1.5,-0.5 0.1136,-0.0757 0.3797,-0.87968 0.5,-1 0.3761,-0.37611 1.1444,-0.26293 1.5,-0.5 0.814,-0.54264 0.1451,-0.46505 1,-0.75 0.2372,-0.0791 0.5048,0.049 0.75,0 0.7138,-0.14276 1.2769,-0.5 2,-0.5 1.4367,0 4.0079,-0.31053 5.25,0 0.9181,0.22953 1.9128,1.13759 3,1.5 0.45,0.15 1.05,-0.15 1.5,0 0.3689,0.12295 0.6855,0.39516 1,0.5 1.2493,0.41644 2.6348,0.44238 3.75,1 0.2236,0.1118 0.5128,-0.0791 0.75,0 0.1118,0.0373 0.1446,0.19729 0.25,0.25 0.8797,0.43986 2.3066,-0.31446 3.25,0 0.1118,0.0373 0.1446,0.19729 0.25,0.25 0.2058,0.10289 3.4634,0.0955 3.75,0 0.1354,-0.0451 1.6327,-1.17179 1.75,-1.25 0.2304,-0.15364 0.7279,0.0907 1,0 0.3535,-0.11785 0.6464,-0.38215 1,-0.5 0.2892,-0.0964 0.7313,0.13432 1,0 0.3727,-0.18634 0.6273,-0.56366 1,-0.75 0.2236,-0.11181 0.5264,0.1118 0.75,0 0.2108,-0.10541 0.3114,-0.35858 0.5,-0.5 0.3676,-0.2757 0.8916,-0.32082 1.25,-0.5 0.4321,-0.21608 1.2839,-1.06786 1.5,-1.5 0.3487,-0.69745 0.6418,-1.53356 1,-2.25 0.1054,-0.21082 0.4255,-0.2764 0.5,-0.5 0.079,-0.23717 -0.1768,-0.57323 0,-0.75 0.059,-0.0589 0.1911,0.0589 0.25,0 0.3565,-0.35652 0.2071,-0.85948 0.5,-1.25 0.1517,-0.20231 1.4819,-1.16066 1.75,-1.25 0.8985,-0.2995 3.1838,0 4.25,0 0.8517,0 1.4323,-0.0865 2.25,-0.25 0.9979,-0.19958 2.2848,0.32172 3.25,0 1.2944,-0.43149 -0.579,-0.1535 1.5,-0.5 0.752,-0.12534 0.8913,0.17937 1.75,-0.25 0.074,-0.0373 -0.059,-0.19108 0,-0.25 0.1696,-0.16963 0.7712,0.1144 1,0 0.2687,-0.13437 0.5375,-0.28754 0.75,-0.5 0.059,-0.0589 -0.081,-0.22979 0,-0.25 0.3234,-0.0808 0.67,0.0471 1,0 0.25,-0.0833 0.5,-0.16667 0.75,-0.25 0.083,-0.0833 0.1382,-0.21273 0.25,-0.25 0.225,-0.075 0.525,0.075 0.75,0 0.5303,-0.17678 0.981,-0.54239 1.5,-0.75 0.2873,-0.11495 0.7126,0.11494 1,0 0.279,-0.11159 0.471,-0.38841 0.75,-0.5 0.4779,-0.19118 1.272,-0.0588 1.75,-0.25 1.0427,-0.41708 1.9017,-1.1339 3,-1.5 0.6974,-0.23249 1.56,-0.27002 2.25,-0.5 0.2236,-0.0745 0.2689,-0.45378 0.5,-0.5 0.3268,-0.0654 0.6712,0.0548 1,0 0.626,-0.10434 1.1558,-0.52716 1.75,-0.75 0.1862,-0.4645 0.943,-0.14768 1.25,-0.25 0.1118,-0.0373 0.1382,-0.21273 0.25,-0.25 0.1581,-0.0527 0.3383,0.0404 0.5,0 0.6161,-0.15403 1.1416,-0.5472 1.75,-0.75 0.1581,-0.0527 0.3419,0.0527 0.5,0 0.4429,0.12447 0.471,-0.38841 0.75,-0.5 0.3331,-0.69513 0.8378,-0.14694 1.25,-0.25 0.8963,-0.22408 1.53,-0.64001 2.25,-1 0.2,-0.1 0.55,0.1 0.75,0 0.4298,-0.21491 0.4513,-0.61282 1,-0.75 0.6234,-0.15587 1.3945,0.20182 2,0 0.5071,-0.16905 1.0486,-0.59954 1.5,-0.75 0.7042,-0.23475 1.7597,0.0925 2.5,0 0.7913,0.26272 1.5227,-0.37878 2.25,-0.5 0.7903,-0.13172 1.7236,-0.0559 2.5,-0.25 0.3615,-0.0904 0.6324,-0.43873 1,-0.5 0.411,-0.0685 0.9033,0.23112 1.25,0 0.4554,-0.30362 0.566,-0.53302 1,-0.75 0.1974,-0.0987 0.5392,0.0703 0.75,0 1.0004,-0.33346 1.8855,-0.90421 2.75,-1.25 0.319,-0.12761 0.6927,-0.0963 1,-0.25 0.5791,-0.28954 1.1515,-0.95078 1.75,-1.25 0.3527,-0.17634 1.185,-0.28998 1.5,-0.5 0.1961,-0.13075 0.2979,-0.37873 0.5,-0.5 1.2176,-0.73054 2.9475,-1.34874 4.25,-2 0.5784,-0.28921 1.2006,-0.78024 1.75,-1 0.319,-0.12761 0.6927,-0.0963 1,-0.25 0.074,-0.0373 -0.074,-0.21273 0,-0.25 0.469,-0.23452 1.5901,0.0232 2,-0.25 0.1961,-0.13075 0.2892,-0.39459 0.5,-0.5 0.6699,-0.33494 1.7815,0.23948 2.5,0 0.3535,-0.11785 0.6464,-0.38215 1,-0.5 0.4056,-0.13522 1.1432,-0.0716 1.5,-0.25 0.074,-0.0373 -0.074,-0.21273 0,-0.25 0.2981,-0.14907 0.6838,0.10541 1,0 0.1118,-0.0373 0.1357,-0.22142 0.25,-0.25 0.6945,-0.17364 1.7981,0 2.75,-0.25 0.25,0.44507 0.1627,0.84905 0,1.5 -0.098,0.39215 0.098,0.85784 0,1.25 -0.241,0.96385 -0.3365,1.92293 -0.75,2.75 -0.1667,0.33333 0.1667,0.91666 0,1.25 -0.1406,0.28111 -0.651,0.45386 -0.75,0.75 -0.079,0.23717 0.1118,0.52639 0,0.75 -0.07,0.13945 -0.682,0.9324 -0.75,1 -0.1318,0.13176 -0.3966,0.0949 -0.5,0.25 -0.7921,1.18819 0.9602,-0.21017 -0.25,1 -0.07,0.07 -1.3669,-0.25687 -0.75,0.5 -0.4114,0.68567 -0.1125,0.69984 -0.25,1.25 -0.3206,1.2825 -0.35,0.25006 -0.75,1.25 -0.1276,0.31901 -0.059,0.71411 -0.25,1 -0.2881,0.43208 -0.709,0.81351 -1,1.25 -0.6333,0.94997 -1.1474,2.03588 -1.75,3 -0.867,1.38725 0.2625,-0.5125 -0.5,0.25 -0.1318,0.13176 -0.1336,0.35449 -0.25,0.5 -0.4823,0.60283 -1.3174,1.10113 -1.75,1.75 -0.1462,0.21926 0.3641,0.6609 -0.25,0.75 -0.1318,0.13176 -0.3966,0.0949 -0.5,0.25 -0.191,0.28588 -0.059,0.71411 -0.25,1 -0.2628,0.39416 -0.7998,0.84964 -1,1.25 -0.074,0.14907 0.053,0.34188 0,0.5 -0.2427,0.72809 -0.9056,1.56117 -1.25,2.25 -0.197,0.39394 0.154,8.92604 0.25,9.5 0.019,0.11624 0.189,0.14894 0.25,0.25 0.1917,0.31957 0.3616,0.65397 0.5,1 0.036,0.0911 0.071,4.60822 0,4.75 -0.182,0.36404 -0.1426,0.53526 -0.25,0.75 -0.52,1.04044 0.017,-0.26726 -0.5,0.25 -0.1501,0.15006 -0.2046,0.55304 -0.5,0.75 -0.2284,0.15225 -0.6067,0.21339 -0.75,0.5 -0.1179,0.2357 -0.092,0.53918 -0.25,0.75 -0.1118,0.14907 -0.3966,0.0949 -0.5,0.25 -0.092,0.13867 0.074,0.35093 0,0.5 -0.125,0.25 -0.5625,0.5 -0.75,0.75 -0.4607,0.61425 -0.8136,1.50418 -1,2.25 -0.1201,0.48034 -0.1963,5.10749 0,5.5 0.15,0.3 0.6,0.45 0.75,0.75 0.1,0.2 -0.1,0.55 0,0.75 0.037,0.0745 0.191,-0.0589 0.25,0 0.059,0.0589 -0.037,0.1755 0,0.25 0.1054,0.21082 0.3946,0.28918 0.5,0.5 0.1,0.2 -0.1,0.55 0,0.75 0.083,0.1667 0.417,0.0833 0.5,0.25 0.074,0.14907 -0.074,0.35093 0,0.5 0.1054,0.21082 0.3692,0.30388 0.5,0.5 0.046,0.0693 -0.046,0.1807 0,0.25 0.6991,1.04872 0.5485,0.0485 1,0.5 0.186,0.18634 0.064,0.56366 0.25,0.75 0.1449,0.1449 0.8551,0.3551 1,0.5 1.2298,1.2298 0.2672,0.2844 0.75,1.25 0.037,0.0745 0.191,-0.0589 0.25,0 0.2124,0.21246 0.3333,0.5 0.5,0.75 0.1667,0 0.3509,-0.0745 0.5,0 0.074,0.0373 -0.037,0.1755 0,0.25 0.1989,0.3978 0.9096,0.97769 1.25,1.25 2.517,2.0136 4.0286,2.20132 7.125,2.25 -0.125,0.98362 0.1144,2.28191 -0.125,3 -0.2116,0.63464 -0.7967,1.14017 -1,1.75 -0.053,0.15811 0.092,0.36132 0,0.5 -0.1034,0.155 -0.3682,0.11824 -0.5,0.25 -0.546,0.54594 -0.052,0.4059 -0.25,1 -0.038,0.11394 -1.0627,1.25022 -1.25,1.5 -0.5548,0.73968 -1.4877,1.2315 -2,2 -0.3264,0.48963 -0.2171,0.8947 -0.75,1.25 -0.4508,0.30052 -0.8069,0.70456 -1.25,1 -0.1387,0.0924 -0.3613,-0.0924 -0.5,0 -0.1961,0.13074 -0.3333,0.33333 -0.5,0.5 0,0.0833 0.059,0.1911 0,0.25 -0.1919,0.1919 -0.787,0.14351 -1,0.25 -0.074,0.0373 0.059,0.1911 0,0.25 -0.082,0.082 -0.8134,0.4067 -1,0.5 -0.3073,0.1537 -0.823,-0.51227 -1,0.25 -0.2108,0.10541 -0.2764,0.4255 -0.5,0.5 -0.1581,0.0527 -0.3419,-0.0527 -0.5,0 -0.832,0.27733 -1.3221,1.09535 -2.25,1.25 -0.411,0.0685 -0.8547,-0.13176 -1.25,0 -0.3446,0.11487 -0.5706,0.4141 -1,0.5 -0.7889,0.1578 -1.716,0.054 -2.5,0.25 -0.4354,0.10884 -0.748,0.5574 -1.25,0.5 -0.6674,0.13347 -1.3378,0.11756 -2,0.25 -0.2584,0.0517 -0.5,0.1667 -0.75,0.25 -0.083,0.0833 -0.1382,0.2127 -0.25,0.25 -0.4217,0.14055 -1.1052,-0.19743 -1.5,0 -0.2108,0.10541 -0.3039,0.36925 -0.5,0.5 -0.4074,0.2716 -1.4846,-0.008 -2,0.25 -0.3556,0.17779 -1.8782,1.38444 -2,1.75 -0.053,0.15811 0.092,0.36132 0,0.5 -0.1034,0.155 -0.3682,0.11824 -0.5,0.25 -0.2635,0.26352 -0.2365,0.73647 -0.5,1 -0.059,0.0589 -0.191,-0.0589 -0.25,0 -0.1318,0.13176 -0.1382,0.35093 -0.25,0.5 -0.7872,1.04962 -1.8157,1.95368 -1.875,3.5 -1.0238,0.221 -3.4914,-0.58018 -4.875,0.25 -0.2021,0.12126 -0.3039,0.36925 -0.5,0.5 -0.069,0.0462 -0.1667,0 -0.25,0 -0.3333,0.16666 -0.7019,0.27639 -1,0.5 -0.067,0.05 0.059,0.19107 0,0.25 -0.6082,0.60814 -1.4987,0.99805 -2,1.75 -0.2067,0.31008 -0.2365,0.73647 -0.5,1 -0.059,0.0589 -0.2127,-0.0745 -0.25,0 -0.1,0.2 0.1,0.55 0,0.75 -0.1054,0.21082 -0.3693,0.30388 -0.5,0.5 -0.1034,0.15504 -0.095,0.39663 -0.25,0.5 -0.1387,0.0924 -0.3822,-0.11785 -0.5,0 -0.5,0.5 0.25,0.375 0,0.75 -1.6583,1.65829 0.2357,-0.47141 -0.5,1 -0.037,0.0745 -0.1911,-0.0589 -0.25,0 -0.3773,0.3773 -0.6799,0.82312 -1,1.25 -0.6141,0.0891 -0.1038,0.53073 -0.25,0.75 -0.3207,0.481 -0.9026,0.78677 -1.25,1.25 -0.1161,0.1548 -0.9707,1.73536 -1,1.75 -0.1491,0.0745 -0.3613,-0.0924 -0.5,0 0,0.003 -1.4036,1.60533 -1.5,1.75 -0.046,0.0693 0.059,0.19107 0,0.25 -0.059,0.0589 -0.1755,-0.0373 -0.25,0 -0.3829,0.19144 -0.1955,0.4455 -0.5,0.75 -1.2776,1.27759 0.3487,-1.04825 -1,0.75 -0.1118,0.14907 -0.1182,0.36824 -0.25,0.5 -0.1318,0.13176 -0.3682,0.11824 -0.5,0.25 -0.1624,0.16239 -0.3555,0.78319 -0.5,1 -0.412,0.61792 -1.0328,1.43939 -1.5,2 -0.2709,0.3251 -0.8126,0.87515 -1,1.25 -0.074,0.14907 0.04,0.33831 0,0.5 -0.2111,0.84453 -0.8879,1.77587 -1.25,2.5 -0.121,0.24204 -0.1057,0.78346 -0.25,1 -0.1961,0.29417 -0.6382,0.41459 -0.75,0.75 -0.125,0.375 0.062,0.4375 0,0.75 -0.083,0.33333 -0.1667,0.66666 -0.25,1 -0.083,0.0833 -0.2127,0.13819 -0.25,0.25 -0.263,0.78904 0.1422,1.8578 0,2.5 0.3364,-0.96143 -0.3152,-1.38366 -1,-2 -0.7059,-0.63529 -0.7811,-0.70307 -1.625,-1.125 -0.7653,-0.38267 -1.8846,-1.26923 -2.75,-0.75 -0.258,0.15478 -1.158,0.79945 -1.375,1.125 -0.052,0.0775 -0.059,0.18412 -0.125,0.25 -0.066,0.0659 -0.1772,0.0668 -0.25,0.125 -0.5947,0.47573 -1.0464,1.12909 -1.625,1.625 -0.389,0.33341 -1.3809,0.96812 -1.625,1.375 -0.096,0.15978 -0.1336,0.35449 -0.25,0.5 -0.058,0.0727 -0.1841,0.0591 -0.25,0.125 -0.2258,0.22579 -0.6021,0.86614 -0.75,1.125 -0.092,0.16179 -0.1911,0.32322 -0.25,0.5 -0.04,0.11858 0.069,0.27099 0,0.375 -0.071,0.16917 -0.2769,0.22791 -0.375,0.375 -0.3246,0.48685 -0.3125,1.15629 -0.625,1.625 -0.023,0.0347 -0.1019,-0.0347 -0.125,0 -0.176,0.26403 -0.2117,0.6029 -0.375,0.875 -0.061,0.10106 -0.1973,0.14459 -0.25,0.25 -0.019,0.0373 0.03,0.0955 0,0.125 -0.03,0.0295 -0.095,-0.0295 -0.125,0 -0.1215,0.12148 -0.048,0.34634 -0.125,0.5 -0.1193,0.23863 -0.3676,0.39335 -0.5,0.625 -0.065,0.1144 -0.041,0.27378 -0.125,0.375 -0.3719,0.44624 -1.2227,0.90514 -1.625,1.25 -0.032,0.0271 0.035,0.10189 0,0.125 -0.1096,0.0731 -0.2572,0.0661 -0.375,0.125 -0.3961,0.19804 -0.7724,0.61055 -1.125,0.875 -0.1491,0.1118 -0.345,0.14664 -0.5,0.25 -0.1663,0.11088 -0.2578,0.38281 -0.375,0.5 -0.03,0.0295 -0.088,-0.0186 -0.125,0 -0.1344,0.0672 -0.2548,0.15986 -0.375,0.25 -0.1202,0.0901 -0.2688,0.14377 -0.375,0.25 -0.03,0.0295 0.035,0.10189 0,0.125 -0.1096,0.0731 -0.2572,0.0661 -0.375,0.125 -0.1581,0.0791 -0.2336,0.26893 -0.375,0.375 -0.2227,0.16701 -0.3936,0.0957 -0.625,0.25 -0.4383,0.29217 -0.8701,0.33171 -1.375,0.5 -0.8766,0.2922 -1.5734,0.40734 -2.5,0.5 -0.3731,0.0373 -0.7529,-0.0465 -1.125,0 -0.7461,0.0933 -1.4903,0.18669 -2.25,0.25 -1.0594,0.0883 -2.2022,-0.17464 -3.25,0 -0.7607,0.12678 -1.4847,0.27933 -2.25,0.375 -0.6345,0.0793 -1.3679,0 -2,0 -0.7031,0 -3.7294,-0.19779 -4.375,0.125 -0.3884,0.19418 -1.0441,0.83983 -1.25,1 -0.073,0.0572 -0.1894,0.0543 -0.25,0.125 -0.1955,0.22813 -0.3155,0.51283 -0.5,0.75 -0.1962,0.25224 -0.5687,0.47802 -0.75,0.75 -0.176,0.26403 -0.1846,0.62114 -0.375,0.875 -0.056,0.0745 -0.1841,0.0591 -0.25,0.125 -0.1265,0.12648 -0.1768,0.50296 -0.25,0.625 -0.1775,0.29588 -0.6621,0.75163 -0.875,1 -0.1917,0.2237 -0.3799,0.46157 -0.625,0.625 -0.035,0.0231 -0.095,-0.0295 -0.125,0 -0.1062,0.10623 -0.1438,0.26877 -0.25,0.375 -0.2856,0.28555 -0.674,0.40769 -1,0.625 -0.333,0.222 -0.482,0.60696 -0.75,0.875 -0.3519,0.35193 -1.6343,0.58644 -2.125,0.75 -0.2518,0.0839 -0.4905,0.32311 -0.75,0.375 -0.407,0.0814 -0.8654,0.0192 -1.25,0.25 -0.1011,0.0606 -0.1392,0.20972 -0.25,0.25 -0.361,0.13128 -0.7606,0.12852 -1.125,0.25 -0.2652,0.0884 -0.4931,0.2649 -0.75,0.375 -0.2525,0.1082 -0.6128,0.11889 -0.875,0.25 -0.053,0.0263 -0.067,0.11344 -0.125,0.125 -0.1634,0.0327 -0.3383,-0.0404 -0.5,0 -0.04,0.0101 0.03,0.0955 0,0.125 -0.3303,0.33026 -0.5978,0.0978 -0.875,0.375 -0.1667,0.16667 0.2083,0.125 -0.4375,-0.1875 -0.9372,-1.84869 -1.977,-3.31087 -3.3125,-4.3125 -0.1944,-0.14577 -0.4532,-0.20321 -0.625,-0.375 -0.1172,-0.11719 -0.2087,-0.38912 -0.375,-0.5 -0.1127,-0.24817 -0.3463,-0.0482 -0.5,-0.125 -0.1054,-0.0527 -0.1557,-0.17929 -0.25,-0.25 0.014,-0.2368 -0.2917,-0.0833 -0.375,-0.125 -0.3526,-0.17628 -1.6187,-1.29663 -1.75,-1.625 -0.046,-0.11606 0.04,-0.25642 0,-0.375 -0.061,-0.18328 -0.5733,-1.14661 -0.625,-1.25 -0.1068,-0.21367 0.036,-0.78181 0,-1 -0.021,-0.12463 -0.4378,-1.06282 -0.5,-1.125 -0.066,-0.0659 -0.1841,-0.0591 -0.25,-0.125 -0.2112,-0.21123 -0.3226,-0.59882 -0.625,-0.75 -1.0475,-0.26189 -0.081,0.0708 -0.75,-0.375 -0.069,-0.0462 -0.1911,0.0589 -0.25,0 -0.1062,-0.10623 -0.1438,-0.26877 -0.25,-0.375 -0.1539,-0.15386 -0.5884,-0.37882 -0.75,-0.5 -0.4486,-0.33642 -0.8014,-0.78852 -1.25,-1.125 -0.033,-0.025 -0.095,0.0295 -0.125,0 -0.066,-0.0659 -0.059,-0.18412 -0.125,-0.25 -0.01,-0.35197 -0.2818,-0.0318 -0.375,-0.125 -0.036,-0.0363 -0.4848,-0.96191 -0.5,-1 -0.1281,-0.32032 0,-1.3918 0,-1.75 0,-1.52143 0.1,-2.99653 0.25,-4.5 0.021,-0.2073 -0.027,-0.4185 0,-0.625 0.073,-0.55103 0.3136,-1.0725 0.375,-1.625 0.075,-0.67807 -0.1344,-1.45319 0,-2.125 0.026,-0.1292 0.093,-0.24717 0.125,-0.375 0.1079,-0.43156 -0.087,-0.93821 0,-1.375 0.058,-0.28883 0.1827,-0.48086 0.25,-0.75 0.1049,-0.41964 0,-0.9366 0,-1.375 v -3.125 c 0,-1.13896 0.035,-2.2518 -0.125,-3.375 -0.05,-0.34653 8e-4,-0.81058 -0.125,-1.125 -0.056,-0.13949 -0.1908,-0.23692 -0.25,-0.375 -0.1363,-0.31805 -0.1031,-0.83123 -0.25,-1.125 -0.154,-0.3079 -0.7323,-1.28596 -0.875,-1.5 -0.023,-0.0347 -0.1019,0.0347 -0.125,0 -0.9734,-1.4601 0.8978,0.77279 -0.5,-0.625 -0.059,-0.0589 0.069,-0.20378 0,-0.25 -0.1096,-0.0731 -0.2696,-0.0459 -0.375,-0.125 -0.074,-0.0559 -0.059,-0.18412 -0.125,-0.25 -0.065,-0.065 -0.6797,-0.57814 -0.75,-0.625 -0.035,-0.0231 -0.092,0.026 -0.125,0 -0.442,-0.35356 -0.7783,-0.93551 -1.25,-1.25 -0.2666,-0.17775 -0.4931,-0.30732 -0.75,-0.5 -0.2151,-0.16135 -0.5379,-0.26897 -0.75,-0.375 -0.4159,-0.20795 -0.8257,-0.53786 -1.25,-0.75 -0.037,-0.0186 -0.083,0 -0.125,0 -0.083,-0.0417 -0.1725,-0.0733 -0.25,-0.125 -0.341,-0.22735 -0.6369,-0.53217 -1,-0.75 -0.4346,-0.26076 -0.4439,-0.0689 -1,-0.625 -0.059,-0.0589 0.067,-0.2 0,-0.25 -0.1374,-0.10308 -0.3405,-0.0612 -0.5,-0.125 -0.1094,-0.0438 -0.1973,-0.14459 -0.25,-0.25 -0.019,-0.0373 0.04,-0.11182 0,-0.125 -0.1186,-0.0395 -0.2564,0.0395 -0.375,0 -0.04,-0.0132 0.03,-0.0955 0,-0.125 -0.1907,-0.19068 -0.875,-0.48388 -0.9062,-1.09375 -0.1273,-0.76559 -0.1807,-1.25683 0.1562,-1.59375 z"
         id="path54" />
    </g>
  </g>
</svg>
