<?xml version="1.0" encoding="UTF-8" standalone="no"?>
<!-- Created with Inkscape (http://www.inkscape.org/) -->

<svg
   version="1.1"
   id="svg1"
   width="141.4239"
   height="149.9496"
   viewBox="0 0 141.4239 149.9496"
   xmlns="http://www.w3.org/2000/svg"
   xmlns:svg="http://www.w3.org/2000/svg">
  <defs
     id="defs1" />
  <g
     id="layer1"
     style="display:inline"
     transform="translate(-1046.0761,-260.43749)">
    <g
       id="layer17"
       style="display:inline;fill:#ffffff;fill-opacity:1;stroke:none">
      <path
         style="fill:#ffffff;fill-opacity:1;stroke:none;stroke-width:1;stroke-linecap:round;stroke-dasharray:none;stroke-opacity:1"
         d="m 1071.7971,410.38709 -14.6725,-16.26346 1.0607,-23.68807 -3.8007,-5.30331 -3.3588,-2.2097 -4.9497,-1.41422 0.7071,-2.47487 7.071,-7.07107 3.9775,-4.59619 3.6239,-4.86136 4.4195,-2.03293 1.149,-3.44715 -4.773,-8.39689 -3.2703,-2.82843 -0.9723,-30.58237 7.1595,-2.47487 6.0104,-1.23744 18.7383,3.44715 6.0104,-2.03293 6.3854,-5.91899 3.8593,-2.21875 9.3282,-0.1875 16.3128,-3.69558 11.6672,-5.21491 1.7678,-2.78423 12.1976,-0.22097 4.8171,-3.44715 7.9875,-3.35591 16.875,-5.4375 0.375,8.25 -2.9375,4.6875 -3.8125,7.75 -1.5625,1.625 -0.8125,2.75 -2.3125,2.75 -3.25,8.375 2.5,4.875 -0.125,4.0625 -5.375,6.625 -0.6875,4.75 2.4375,4 6.8125,3.375 5,5.25 -0.4375,5.3125 -3.625,5.1875 -6.375,3.3125 -14.0625,4.5625 -6.5,6.875 -4.8125,1.6875 -13.625,13.8125 -2.75,6.3125 -3.75,7.6875 -2.9375,-4 -9.1875,8.0625 -0.25,3.25 -6.5625,4.75 -20.0625,3.0625 -8.0625,7.0625 z"
         id="path15" />
    </g>
  </g>
</svg>
