<?xml version="1.0" encoding="UTF-8" standalone="no"?>
<!-- Created with Inkscape (http://www.inkscape.org/) -->

<svg
   version="1.1"
   id="svg2"
   width="157.41727"
   height="65.255707"
   viewBox="0 0 157.41727 65.255707"
   xmlns="http://www.w3.org/2000/svg"
   xmlns:svg="http://www.w3.org/2000/svg">
  <defs
     id="defs6">
    <linearGradient
       id="swatch77">
      <stop
         style="stop-color:#e2c69e;stop-opacity:1;"
         offset="0"
         id="stop77" />
    </linearGradient>
  </defs>
  <g
     id="layer66"
     style="display:inline"
     transform="translate(-295.96362,-436.67547)">
    <g
       id="layer27"
       style="display:inline">
      <path
         style="display:inline;fill:#969696;fill-opacity:1;stroke:none;stroke-width:1;stroke-dasharray:none;stroke-opacity:1"
         d="m 297.86867,441.58816 c 0,0.3636 0.0894,0.87989 0,1.23744 -0.0929,0.37154 -0.23196,0.7505 -0.26516,1.14905 -0.033,0.39632 0,0.83553 0,1.23744 v 3.53553 c 0,0.38263 0.0755,0.8601 0,1.23744 -0.11672,0.58356 -0.31097,1.25485 -0.61872,1.76776 -7.4e-4,0.001 -0.26443,0.17578 -0.26517,0.17678 -0.10509,0.17516 -0.17576,0.43998 -0.26516,0.61872 -0.26694,0.53384 0.0127,0.0374 -0.0884,0.44194 -0.032,0.12783 -0.13508,0.22855 -0.17678,0.35355 -0.074,0.22205 -0.13797,0.56263 -0.17677,0.7955 -0.11001,0.66004 0,1.44876 0,2.12132 0,0.69722 0.0118,1.34387 0.0884,2.03293 0.008,0.0737 -0.0123,0.40514 0,0.44194 0.10035,0.30103 0.82635,1.35668 1.06066,1.59099 0.0466,0.0466 0.13728,0.0357 0.17678,0.0884 0.0952,0.12693 0.0888,0.30993 0.17678,0.44194 0.14059,0.21089 0.28987,0.41596 0.44194,0.61872 0.12449,0.16599 0.32053,0.27197 0.44194,0.44194 0.0766,0.10722 0.10018,0.24634 0.17678,0.35356 0.14531,0.20343 0.39165,0.32231 0.53033,0.53033 0.0517,0.0775 0.0405,0.18526 0.0884,0.26516 0.23353,0.38922 0.60068,0.72082 0.88388,1.06066 0.14928,0.17914 0.35647,0.58687 0.53033,0.7955 0.24993,0.29992 0.56051,0.57056 0.79549,0.88388 0.0177,0.0236 -0.0163,0.0639 0,0.0884 0.43272,0.64908 0.89362,1.29623 1.32583,1.94454 0.0693,0.10401 0.21487,0.14554 0.26517,0.26517 0.18748,0.28123 0.36207,0.71562 0.61871,0.97227 0.042,0.042 0.31156,0.13478 0.35356,0.17678 0.0932,0.0932 0.10367,0.24392 0.17677,0.35355 0.0693,0.10401 0.19017,0.16516 0.26517,0.26516 0.16896,0.22528 0.45173,0.93934 0.53033,1.14905 0.0207,0.0552 -0.0186,0.12088 0,0.17678 0.009,0.0276 0.21486,0.54332 0.26516,0.61872 0.14088,0.21132 0.20467,0.11176 0.26517,0.35355 0.0208,0.0832 -0.0208,0.18197 0,0.26517 0.16102,0.64409 0.40142,1.29998 0.53033,1.94454 0.1067,0.53352 -0.16809,-0.0225 0.0884,0.61872 0.0734,0.18351 0.55719,0.11471 0.26516,0.53033 0.0429,0.1715 -0.0347,0.35699 0,0.53033 0.0429,0.21426 0.22017,0.39379 0.26517,0.61872 0.0462,0.23112 -0.026,0.47284 0,0.7071 0.0103,0.0926 0.0701,0.17377 0.0884,0.26517 0.0843,0.42155 0.0519,0.90975 0.17677,1.32582 0.0683,0.22752 0.25996,0.40039 0.35356,0.61872 0.0479,0.11166 0.0125,0.25866 0.0884,0.35356 2.13538,2.66922 1.41422,0.74336 2.57532,3.92866 1.1611,3.18531 1.30273,3.50883 1.4734,3.62261 0.18216,0.12144 0.26036,0.078 0.375,0.25 0.0731,0.10963 0.0318,0.28183 0.125,0.375 0.0295,0.0295 0.0955,-0.0295 0.125,0 0.0659,0.0659 0.0591,0.18412 0.125,0.25 0.0295,0.0295 0.0955,-0.0295 0.125,0 0.0659,0.0659 0.0591,0.18412 0.125,0.25 0.0295,0.0295 0.0903,-0.0231 0.125,0 0.46288,0.30859 0.59063,0.60209 1,0.875 0.10416,0.0694 0.39438,-0.0528 0.5,0 0.0373,0.0186 -0.0373,0.10636 0,0.125 0.36478,0.18239 0.98528,-0.12991 1.375,0 0.0559,0.0186 0.0723,0.0987 0.125,0.125 0.16524,0.0826 0.44907,-0.0586 0.625,0 0.2751,0.0917 0.5143,0.13215 0.75,0.25 0.1118,0.0559 0.25373,-0.0303 0.375,0 0.40331,0.10083 0.44923,0.35807 0.875,0.5 0.0791,0.0263 0.17546,-0.0373 0.25,0 0.10541,0.0527 0.13567,0.22142 0.25,0.25 0.12127,0.0303 0.25641,-0.0395 0.375,0 0.0884,0.0295 0.0366,0.22054 0.125,0.25 0.11858,0.0395 0.275,-0.075 0.375,0 0.0252,0.0189 0.48201,0.57734 0.625,0.625 0.23348,0.0778 0.4154,0.0404 0.625,0.25 0.0295,0.0295 -0.0295,0.0955 0,0.125 0.10623,0.10623 0.27882,0.13459 0.375,0.25 0.2316,0.27792 0.36169,0.73669 0.625,1 0.14731,0.14731 0.36663,0.21495 0.5,0.375 0.0611,0.0733 0.28324,0.65824 0.375,0.75 0.49201,0.49201 0.2539,0.005 0.625,0.5 0.0559,0.0745 0.0591,0.18412 0.125,0.25 0.0659,0.0659 0.18412,0.0591 0.25,0.125 0.0295,0.0295 -0.0186,0.0877 0,0.125 0.023,0.0461 0.5511,0.6761 0.625,0.75 0.22488,0.22488 0.37041,0.0614 0.625,0.125 0.60362,0.1509 -0.006,0.0594 0.375,0.25 0.2874,0.1437 2.33234,0.22941 2.75,0.125 0.81607,-0.20402 -0.47227,-0.0671 0.625,-0.25 1.00776,-0.16796 2.10457,0.0928 3.125,0 0.21159,-0.0192 0.41359,-0.10386 0.625,-0.125 1.1343,-0.11343 2.36224,0 3.5,0 h 6 5.125 c 0.71415,0 1.54571,-0.11738 2.25,0 0.12997,0.0217 0.24425,0.10866 0.375,0.125 0.24807,0.031 0.51283,-0.0791 0.75,0 0.21287,0.0709 0.40925,0.18836 0.625,0.25 0.45722,0.13063 1.57453,-0.0168 2,0.125 0.39487,0.13162 0.82938,0.29087 1.25,0.375 0.29223,0.0584 1.76361,0.0693 1.875,0.125 0.29259,0.1463 0.44884,0.14961 0.75,0.25 0.71453,0.23817 -0.75567,0.0239 0.375,0.25 0.75456,0.15091 -0.0318,-0.23773 0.875,0.125 0.45101,0.1804 1.0539,0.40195 1.5,0.625 0.10541,0.0527 0.1382,0.21273 0.25,0.25 0.0791,0.0263 0.17094,-0.0263 0.25,0 0.17728,0.0591 0.17848,0.30348 0.25,0.375 0.1073,0.10729 0.40923,0.0684 0.5,0.25 0.0771,0.15413 0.24931,0.625 0.75,0.875 2.20854,0.65709 4.1134,1.04639 6,1.125 2.09816,0.0874 4.14419,-0.0291 6.25,0.125 3.35941,0.24581 0.91311,0.22283 3.5,0.375 2.14867,0.12639 4.34563,0 6.5,0 2.87457,0 5.7656,0.0949 8.625,-0.125 0.77285,-0.0595 1.62049,0.0427 2.375,-0.125 0.25725,-0.0572 0.49275,-0.19284 0.75,-0.25 0.32539,-0.0723 0.66924,0.0413 1,0 0.34473,-0.0431 0.97706,-0.21124 1.25,-0.375 0.0357,-0.0214 -0.0373,-0.10637 0,-0.125 0.89845,-0.44923 0.12652,0.0888 0.875,-0.125 0.26415,-0.0755 0.48585,-0.29953 0.75,-0.375 0.20428,-0.0584 0.42344,-0.0578 0.625,-0.125 0.23049,-0.0768 0.3893,-0.31608 0.625,-0.375 0.24159,-0.0604 0.52,-0.01 0.75,-0.125 0.45686,-0.22843 1.10681,-0.53864 1.625,-0.625 0.84593,-0.14099 1.28468,-0.34919 2.25,-0.625 0.63221,-0.18063 1.36278,-0.16259 2,-0.375 0.73354,-0.24452 0.24557,-0.2807 1,-0.375 0.59167,-0.074 0.85733,-0.11616 1.375,-0.375 0.30772,-0.15386 0.37574,-0.33383 0.625,-0.5 0.52035,-0.3469 1.18224,-0.55724 1.625,-1 0.0295,-0.0295 -0.0295,-0.0955 0,-0.125 0.0524,-0.0524 0.29924,-0.0871 0.375,-0.125 0.16892,-0.0845 1.02828,-0.93156 1.125,-1.125 0.0589,-0.11785 0.0661,-0.25715 0.125,-0.375 0.0417,-0.0833 0.29167,-0.33333 0.375,-0.375 0.0373,-0.0186 0.10637,0.0373 0.125,0 0.0373,-0.0745 -0.0373,-0.17547 0,-0.25 0.0932,-0.18634 0.25,-0.33333 0.375,-0.5 0.26575,-0.35434 0.62931,-0.63147 0.875,-1 0.0231,-0.0347 -0.025,-0.0917 0,-0.125 0.17678,-0.2357 0.46157,-0.37986 0.625,-0.625 0.0735,-0.11019 0.23988,-0.72976 0.25,-0.75 0.10541,-0.21082 0.36483,-0.30691 0.5,-0.5 0.42923,-0.61319 0.49285,-0.99046 0.875,-1.5 0.14797,-0.1973 0.6058,-0.4808 0.625,-0.5 0.10623,-0.10623 0.15615,-0.25769 0.25,-0.375 0.0736,-0.092 0.19729,-0.14459 0.25,-0.25 0.0373,-0.0745 -0.0462,-0.18066 0,-0.25 0.1238,-0.18571 1.50109,-1.03207 1.625,-1.125 0.32794,-0.24596 0.18801,-0.3252 0.625,-0.5 0.83779,-0.33512 1.62842,-0.45068 2.5,-0.625 0.0914,-0.0183 0.16667,-0.0833 0.25,-0.125 0.20833,-0.0417 0.41468,-0.095 0.625,-0.125 0.46898,-0.067 1.044,-0.098 1.5,-0.25 0.0559,-0.0186 0.0833,-0.0833 0.125,-0.125 0.20833,-0.0833 0.40596,-0.20133 0.625,-0.25 0.64408,-0.14313 1.86674,0.0333 2.5,-0.125 0.0904,-0.0226 0.16667,-0.0833 0.25,-0.125 0.25,-0.0833 0.49159,-0.19832 0.75,-0.25 0.16343,-0.0327 0.33501,0.0236 0.5,0 0.66153,-0.0945 1.36401,-0.216 2,-0.375 0.28296,-0.0707 0.58626,0.0412 0.875,0 0.22213,-0.0317 0.40497,-0.206 0.625,-0.25 0.19663,-0.0393 0.43055,0.0486 0.625,0 1.20154,-0.30039 2.47665,-0.25 3.52633,0.26802 -0.22368,-0.11543 -0.33471,-1.22493 -0.22368,-1.78008 0.0622,-0.31113 0.59527,-0.46189 0.35346,-0.88382 0,-0.14774 0.12638,-0.2023 0.17678,-0.35356 0.078,-0.23411 -0.25608,0.10576 0.0884,-0.35355 0.0395,-0.0527 0.14028,-0.0336 0.17678,-0.0884 0.0817,-0.12257 -0.0289,-0.29749 0,-0.44194 0.0626,-0.31315 0.30231,-0.69301 0.44194,-0.97227 0.0547,-0.10952 -0.0241,-0.32156 0,-0.44194 0.074,-0.37025 0.29985,-0.68502 0.35355,-1.06066 0.0443,-0.31002 0.0131,-0.67103 0.0884,-0.97228 0.0101,-0.0404 0.0698,-0.0511 0.0884,-0.0884 0.096,-0.1919 0.10667,-0.49679 0.17677,-0.70711 0.0415,-0.1244 -0.0584,-0.3251 0,-0.44194 0.1201,-0.24007 0.0884,-0.50617 0.0884,-0.7955 0,-0.81707 -0.19304,-1.87595 0.26517,-2.56326 0.19314,-0.28971 0.66503,-0.77774 0.88388,-0.97227 0.0794,-0.0706 0.19007,-0.10168 0.26517,-0.17678 0.25529,-0.2553 0.24519,-0.67714 0.44194,-0.97227 0.14646,-0.21969 0.84382,-0.98642 1.06066,-1.14905 0.39519,-0.29639 1.39376,-1.01975 1.59099,-1.41421 0.13187,-0.26374 0.34854,-0.6921 0.44194,-0.97227 0.0769,-0.23049 0.0866,-0.48153 0.17678,-0.70711 0.0155,-0.0387 0.0589,-0.0589 0.0884,-0.0884 0.0295,-0.0884 0.0589,-0.17676 0.0884,-0.26516 0.0678,-0.27105 0.0897,-0.53428 0.17678,-0.7955 0.053,-0.1591 -0.053,-0.37123 0,-0.53033 0.009,-0.028 0.0676,0.0208 0.0884,0 0.0751,-0.0751 0.13727,-0.16656 0.17677,-0.26516 0.0219,-0.0547 -0.0264,-0.12408 0,-0.17678 0.14133,-0.28266 1.42073,-1.28489 1.67938,-1.41421 0.0833,-0.0417 0.18527,-0.0405 0.26517,-0.0884 0.42472,-0.25483 0.77735,-0.64704 1.14905,-0.97227 0.11584,-0.10137 0.33343,-0.15666 0.44194,-0.26517 0.38245,-0.38247 -0.0289,-0.14786 0.35355,-0.53033 0.0311,-0.0311 0.43294,-0.25217 0.44194,-0.26517 0.10768,-0.16151 0.10918,-0.48354 0.17678,-0.61871 0.0373,-0.0745 0.13058,-0.10748 0.17678,-0.17678 0.0794,-0.11873 0.0587,-0.55839 0.0884,-0.70711 0.1183,-0.5915 0.19178,-1.50109 0.0884,-2.12132 -0.12289,-0.73735 -0.22643,-1.97236 0,-2.65165 0.0395,-0.11858 0.17677,-0.17676 0.26517,-0.26516 0.17678,-0.17678 0.33827,-0.37029 0.53033,-0.53033 0.48526,-0.40439 1.13313,-0.6028 1.59099,-1.06066 0.33403,-0.33404 0.38839,-0.99098 0.17678,-1.41422 -0.0373,-0.0745 -0.13948,-0.10227 -0.17678,-0.17677 -0.0417,-0.0833 -0.0467,-0.18187 -0.0884,-0.26517 -0.0559,-0.1118 -0.19016,-0.16516 -0.26516,-0.26516 -0.20954,-0.27939 -0.45506,-0.63183 -0.70711,-0.88389 -0.57736,-0.57735 0.28222,0.52956 -0.35355,-0.26516 -0.13742,-0.17177 -0.4271,-0.78809 -0.61872,-0.88389 -0.35427,-0.17713 -0.71827,-0.55092 -1.06066,-0.79549 -0.2222,-0.15871 -0.47934,-0.18273 -0.70711,-0.35355 -0.25591,-0.19193 -0.53564,-0.33545 -0.7955,-0.53033 -0.12759,-0.0957 -0.0948,-0.26517 -0.26516,-0.26517 -1.30903,0 -2.15029,0.17001 -3.35876,0.70711 -0.36775,0.16344 -0.88523,0.319 -1.23743,0.53033 -0.51901,0.3114 -0.90736,0.81114 -1.41422,1.14905 -1.20022,0.80014 0.18071,-0.0602 -0.79549,0.26516 -0.0344,0.0115 -0.46823,0.33285 -0.53033,0.35355 -0.0839,0.028 -0.17797,-0.0145 -0.26517,0 -0.4,0.0667 -0.16792,0.13637 -0.61872,0.26517 -0.37862,0.10818 -1.93396,0 -2.38648,0 h -2.56326 c -0.27315,0 -0.6239,0.078 -0.88389,0 -0.26772,-0.0803 -0.52583,-0.19157 -0.79549,-0.26517 -0.0568,-0.0155 -0.12208,0.0219 -0.17678,0 -0.19726,-0.0789 -0.3403,-0.25855 -0.53033,-0.35355 -0.285,-0.1425 -0.67303,-0.20393 -0.97227,-0.35355 -0.15366,-0.0768 -0.29463,-0.17677 -0.44194,-0.26517 -0.0295,-0.0295 -0.0537,-0.0653 -0.0884,-0.0884 -0.23439,-0.15627 -0.20698,-0.0474 -0.53033,-0.17677 -0.13678,-0.0547 -0.22179,-0.19927 -0.35355,-0.26517 -0.28488,-0.14244 -1.29227,-0.5965 -1.67938,-0.7071 -0.16998,-0.0486 -0.36263,0.0559 -0.53033,0 -0.10078,-0.0336 -0.17187,-0.12588 -0.26517,-0.17678 -0.23134,-0.12619 -0.4672,-0.24451 -0.70711,-0.35355 -1.07094,-0.4868 -2.20596,-0.91529 -3.18198,-1.59099 -0.13703,-0.0949 -0.2234,-0.24944 -0.35355,-0.35356 -0.1659,-0.13272 -0.35355,-0.2357 -0.53033,-0.35355 -0.14731,-0.14731 -0.27926,-0.3118 -0.44194,-0.44194 -0.13415,-0.10732 -0.29463,-0.17677 -0.44194,-0.26517 -0.20623,-0.17679 -0.41245,-0.35357 -0.61867,-0.53036 0,-0.12247 -0.31589,-0.14527 -0.44194,-0.17677 -0.13725,-0.0343 -0.30834,0.0445 -0.44194,0 -0.51677,-0.17178 0.35669,-0.0374 -0.61872,-0.17678 -0.0875,-0.0125 -0.20267,0.0625 -0.26517,0 -0.0208,-0.0208 0.0208,-0.0676 0,-0.0884 -0.10623,-0.1062 -0.30757,-0.0212 -0.44194,-0.0884 -0.0745,-0.0373 -0.10228,-0.13947 -0.17678,-0.17677 -0.0527,-0.0264 -0.12407,0.0263 -0.17677,0 -0.0264,-0.0132 0.0208,-0.0676 0,-0.0884 -0.0932,-0.0932 -0.26036,-0.0836 -0.35356,-0.17678 -0.0466,-0.0466 -0.0418,-0.13018 -0.0884,-0.17678 -0.15098,-0.15097 -0.36087,-0.12027 -0.53033,-0.17677 -0.14207,-0.0474 -0.88505,-0.79609 -1.06067,-0.88389 -0.35134,-0.17567 -0.73778,-0.28817 -1.06066,-0.53033 -0.0667,-0.05 -0.0994,-0.14587 -0.17677,-0.17677 -0.36834,-0.14732 -0.14732,0.0982 -0.44194,0 -0.25,-0.0833 -0.46244,-0.25566 -0.70711,-0.35356 -0.23509,-0.094 -1.16206,0 -1.5026,0 -0.45884,0 -0.97088,-0.0887 -1.41422,0 -0.42673,0.0854 -0.80317,0.22948 -1.23743,0.35356 -0.23521,0.0672 -0.55969,0.0884 -0.7955,0.17677 -0.14856,0.0557 -0.30003,0.10578 -0.44194,0.17678 -0.0745,0.0373 -0.0994,0.14578 -0.17678,0.17678 -0.33227,0.13291 -0.74651,0.19647 -1.06066,0.35355 -0.2486,0.1243 -0.4585,0.31764 -0.7071,0.44194 -0.3413,0.17065 -0.73756,0.31493 -1.06066,0.53033 -0.0693,0.0462 -0.10528,0.13388 -0.17678,0.17678 -0.74662,0.44798 0.0971,-0.12724 -0.44194,0.0884 -0.36864,0.14745 -0.84769,0.45168 -1.23744,0.61872 -0.17127,0.0734 -0.36366,0.0935 -0.53033,0.17677 -0.15053,0.0753 -0.5599,0.30446 -0.70711,0.35356 -0.0838,0.028 -0.17766,-0.0125 -0.26516,0 -0.68897,0.0984 1.2e-4,0.0972 -0.7955,0.17677 -0.50532,0.0505 -1.10311,0.0374 -1.59099,0.17678 -0.2885,0.0824 -0.52197,0.18706 -0.79549,0.26516 -0.40287,0.11508 -0.83608,0.0965 -1.23744,0.17678 -0.26928,0.0539 -0.5239,0.22637 -0.79549,0.26517 -0.27497,0.0393 -0.52783,0.0289 -0.7955,0.0884 -0.1819,0.0404 -0.347,0.14348 -0.53033,0.17678 -0.3871,0.0704 -0.8449,0 -1.23744,0 h -3.44714 -3.53553 c -0.42339,0 -0.90302,0.0528 -1.32583,0 -0.6606,-0.0826 -1.28923,-0.23441 -1.94454,-0.35355 -0.7379,-0.13417 -1.4808,-0.20777 -2.20971,-0.35356 -0.50074,-0.10015 -0.0593,-0.0356 -0.44194,-0.26516 -0.0825,-0.0495 -0.6968,-0.25287 -0.7955,-0.26517 -0.45952,-0.0575 -0.96011,0.0125 -1.41421,-0.0884 -0.73587,-0.16353 -1.47052,-0.3825 -2.20971,-0.53033 -0.34131,-0.0683 -0.71971,-0.0316 -1.06066,-0.0884 -0.56704,-0.0945 -0.57065,-0.19022 -1.06066,-0.35356 -0.26517,-0.0884 0.17677,0.17678 -0.26517,0 -0.45437,-0.18175 -0.78164,-0.4001 -1.23743,-0.53033 -0.49489,-0.14139 -1.00758,-0.21854 -1.50261,-0.35355 -0.17977,-0.049 -0.34652,-0.14618 -0.53033,-0.17678 -0.47687,-0.0795 -0.91095,0.0307 -1.32582,-0.17677 -0.17718,-0.0886 -2.15493,0 -2.56326,0 -1.08407,0 -2.29687,-0.12398 -3.35876,0.0884 -0.0737,0.0147 -0.20627,-0.0295 -0.26517,0 -0.0263,0.0132 0.0208,0.0676 0,0.0884 -0.0751,0.0751 -0.17016,0.12928 -0.26516,0.17678 -0.16254,0.0813 -0.45182,0.11418 -0.61872,0.17678 -0.61972,0.23244 -0.10584,0.0971 -0.61872,0.35355 -0.0833,0.0417 -0.17676,0.0589 -0.26516,0.0884 -0.0295,0 -0.0613,-0.0116 -0.0884,0 -0.5551,0.2379 -1.11434,0.51876 -1.67938,0.70711 -0.22535,0.0751 -0.40039,0.25995 -0.61872,0.35355 -0.0542,0.0232 -0.12407,-0.0263 -0.17677,0 -0.13177,0.0659 -0.21815,0.20716 -0.35356,0.26516 -0.0812,0.0348 -0.18616,-0.0395 -0.26516,0 -0.0589,0.0295 -0.0336,0.14028 -0.0884,0.17678 -0.16445,0.10963 -0.34682,0.19177 -0.53033,0.26517 -0.13949,0.0558 -0.32176,-0.002 -0.44194,0.0884 -0.34688,0.26016 -0.21174,0.27216 -0.61872,0.35356 -0.0578,0.0115 -0.12088,-0.0186 -0.17678,0 -0.0395,0.0132 -0.048,0.0783 -0.0884,0.0884 -0.40698,0.10174 -1.01553,0 -1.41421,0 -1.50238,0 -3.01046,0.055 -4.50781,-0.0884 -0.43598,0.16116 -0.85254,0.18154 -1.32582,0.13258 -1.87513,-0.19398 0.0859,-0.0798 -0.88388,-0.17678 -0.17129,-0.0171 -0.41089,0.0546 -0.57453,0 -0.027,-0.009 -0.10561,-0.0794 -0.13258,-0.0884 -0.22653,-0.0755 -0.51044,-0.054 -0.7513,-0.0884 -0.16731,0.14872 -0.14401,-0.0691 -0.22097,-0.0884 -0.12981,-0.0324 -0.26589,-0.0178 -0.39775,-0.0442 -0.0566,-0.0113 -0.0596,-0.0442 -0.30935,-0.5082 -0.17676,-0.42468 -0.14936,-0.16534 -0.17676,-0.11044 -0.0404,0.0809 -0.20056,0.15527 -0.26516,0.17677 -0.14056,0.0469 -1.68584,0.0341 -1.85616,0 -0.10416,-0.0208 -0.1621,-0.15097 -0.26516,-0.17677 -0.33324,-0.0834 -0.72109,-0.0318 -1.06066,-0.0884 -0.14921,-0.0249 -0.57932,-0.0916 -0.70711,-0.17678 -0.0245,-0.0164 0.0289,-0.0824 0,-0.0884 -1.48344,-0.2967 -0.36242,0.008 -1.32582,-0.0884 -0.36182,-0.0362 -0.71887,-0.20816 -1.06066,-0.26516 -0.11625,-0.0194 -0.23731,0.0194 -0.35356,0 -0.065,-0.0108 -0.11177,-0.0776 -0.17677,-0.0884 -0.57995,-0.0964 -1.18482,-0.0155 -1.76777,-0.0884 -0.8265,-0.10327 0.0341,-0.0217 -0.35355,-0.17677 -0.25952,-0.10381 -0.52543,-0.19317 -0.7955,-0.26517 -0.8312,-0.22165 -2.06005,-0.25835 -2.91682,-0.35355 -0.75,-0.0834 0.11681,-0.065 -0.44194,-0.17678 -0.26161,-0.0523 -0.54855,0.12061 -0.79549,-0.0884 -0.98294,-0.19658 -2.20276,-0.79202 -3.09359,-1.23743 -0.0833,-0.0417 -0.17677,-0.0589 -0.26517,-0.0884 -0.0295,0 -0.0608,0.0103 -0.0884,0 -0.49503,-0.18564 -0.83284,-0.30109 -1.32582,-0.44195 -0.34566,-0.0987 -0.65163,-0.3929 -0.97227,-0.53033 -0.0542,-0.0232 -0.11958,0.0143 -0.17678,0 -0.24893,-0.0622 -0.49211,-0.24605 -0.70711,-0.35355 -0.25954,-0.12977 -0.53033,-0.2357 -0.79549,-0.35355 -0.0589,0 -0.12208,0.0219 -0.17678,0 -0.0986,-0.0394 -0.16656,-0.13728 -0.26516,-0.17678 -0.0235,-0.009 -0.32126,0.0323 -0.35356,0 -0.0208,-0.0208 0.0264,-0.0752 0,-0.0884 -0.0527,-0.0263 -0.12087,0.0186 -0.17677,0 -0.0395,-0.0132 -0.0489,-0.0752 -0.0884,-0.0884 -0.34624,-0.11541 -2.05523,0 -2.47488,0 h -2.82842 c -0.25524,0 -0.78598,-0.0687 -1.06066,0 -0.15393,0.0385 -0.28939,0.13318 -0.44195,0.17678 -0.1983,0.0567 -0.41407,-0.0256 -0.61871,0 -0.31371,0.0392 -0.5859,0.28735 -0.88389,0.35355 -0.20337,0.0452 -0.41772,0.0336 -0.61872,0.0884 -0.12712,0.0347 -0.2357,0.11788 -0.35355,0.17678 -0.0295,0.0295 -0.0483,0.077 -0.0884,0.0884 -0.86089,0.24598 -0.23108,0.0179 -0.79549,0.0884 -0.66535,0.0832 -1.2882,0.31887 -1.94455,0.44194 -0.34414,0.0645 -1.29143,0.0485 -1.59099,0.0884 -0.39552,0.0527 -0.75655,0.18666 -1.14905,0.26516 -0.4515,0.0903 -0.95505,0.10028 -1.41421,0.17678 -0.65571,0.10928 -1.29319,0.31167 -1.94454,0.44194 -0.81143,0.16229 -2.0099,0.24277 -2.65165,0.26517 -1.82582,0.0637 -3.65339,0.0589 -5.5243,-0.17678 z"
         id="path34" />
    </g>
  </g>
</svg>
