<?xml version="1.0" encoding="UTF-8" standalone="no"?>
<!-- Created with Inkscape (http://www.inkscape.org/) -->

<svg
   version="1.1"
   id="svg1"
   width="156.93443"
   height="65.053833"
   viewBox="0 0 156.93443 65.053833"
   xmlns="http://www.w3.org/2000/svg"
   xmlns:svg="http://www.w3.org/2000/svg">
  <defs
     id="defs1" />
  <g
     id="layer1"
     style="display:inline"
     transform="translate(-296.71874,-436.19648)">
    <g
       id="layer18"
       style="display:inline;fill:#ffffff;fill-opacity:1;stroke:none">
      <path
         style="fill:#ffffff;fill-opacity:1;stroke:none;stroke-width:1;stroke-linecap:round;stroke-dasharray:none;stroke-opacity:1"
         d="m 297.87499,439.37499 14.26845,-0.48266 10.25305,-2.69585 4.99394,2.2981 8.70625,2.2539 8.44109,1.06066 11.3579,1.10486 7.55721,-3.31456 10.20885,0.17677 6.67332,2.60746 14.23052,1.76777 9.1482,-1.81197 3.0494,-2.38648 4.46361,-2.20971 11.31371,4.02167 2.65165,2.60746 6.49654,3.13778 8.48528,0.88389 4.28684,-3.44715 h 2.78423 l 6.40815,3.88909 -2.51906,2.74004 0.26516,3.49134 -0.26516,2.51906 -2.96101,2.74004 -5.92202,9.76692 -4.15426,8.88302 -0.13258,4.11006 -11.22532,1.23744 -7.82237,3.13779 -10.03207,9.19238 -12.1534,4.5962 -36.15083,-0.88389 -6.26777,-3.46018 -13.29687,0.125 -17.95313,-2.84375 -5.03125,-4.0625 -4.65625,-0.90625 -4.875,-4.28125 -3.34375,-13.78125 -8.4375,-11.125 z"
         id="path16" />
    </g>
  </g>
</svg>
