<?xml version="1.0" encoding="UTF-8" standalone="no"?>
<!-- Created with Inkscape (http://www.inkscape.org/) -->

<svg
   version="1.1"
   id="svg1"
   width="483.84372"
   height="205.90625"
   viewBox="0 0 483.84372 205.90625"
   xmlns="http://www.w3.org/2000/svg"
   xmlns:svg="http://www.w3.org/2000/svg">
  <defs
     id="defs1" />
  <g
     id="layer1"
     style="display:inline"
     transform="translate(-815.43748,-0.24999999)">
    <g
       id="layer19"
       style="display:inline;fill:#ffffff;fill-opacity:1;stroke:none">
      <path
         style="fill:#ffffff;fill-opacity:1;stroke:none;stroke-width:1;stroke-linecap:round;stroke-dasharray:none;stroke-opacity:1"
         d="M 815.43748,0.24999999 1299.125,0.78124998 1299.2812,203.25 l -7.375,-0.125 -5.0312,2.96875 -14.875,0.0625 -10.375,-4.84375 -34.2813,0.34375 -11.7187,-3.875 -7.4375,-7.1875 -4.9063,-3.21875 -5.6875,0.28125 2.625,-5.5 0.7188,-5.59375 -6.375,-12.03125 -6.625,-6.71875 -5.625,-1.53125 -13.1563,-2 -7.7812,-2.125 -10.7188,-5.4375 -8.625,-5.1875 -4.7812,-0.34375 -6.0938,-1.8125 -10,-1.65625 -6.0937,-3.375 -5.6875,-7.53125 -15.6563,-4.34375 -10.3125,-0.9375 -9.3125,-10.25 -5.7812,4.1875 -9.25,-0.3125 2.9687,-10.3125 11.0938,1.5 7.3437,-10.375002 0.062,-3.28125 6.0313,-6.09375 0.1562,-4.625 -1.375,-7.125 -3.5,-3.34375 -5.8125,-1.8125 0.7813,-3.90625 4.9062,-0.5 4.9063,-6.468749 8.3437,-8.65625 4.375,-1.71875 1.7813,-6.625 -0.5938,-3.15625 -3.7187,-2.125 -3.1563,1 -3.4062,5.15625 -3.5,1.28125 -2.4063,1.46875 -9.375,3.125 -5.1875,5.09375 -20.8437,12.031249 -3.5938,4.40625 -4.5625,1.75 -3.9375,3.125 -3.1875,0.90625 0.375,1.6875 -10.9375,9.90625 -4.9062,1.40625 -5.875,3.3125 -1.0313,4.21875 1.75,3.687502 7.9063,4.125 1.0625,7.34375 5.5,-0.0937 4.2812,-4.1875 7.8125,-0.1875 7.9375,-5.65625 6.5625,1.96875 0.6563,3.875 -4.375,7.6875 -7.125,1.40625 -2.3888,3.39121 -9.7228,1.14905 -7.1594,8.75044 -6.0988,1.59099 -5.4115,5.74331 -0.5312,2.625 -2.9688,2.375 -0.625,3.65625 -2.8437,1.6875 -3.4688,0.65625 -3.87497,-1.09375 -2.46875,-2.96875 -4.46875,-1.59375 -3.53125,-10.59375 -4.40625,-0.46875 -7.53125,-1.5 -1.25,-3.15625 -2.28125,-2.0625 -4.40625,2.3125 -5.03125,-2.6875 -1.84375,-2.875 2.625,-2.59375 4,0.15625 11.25,-6.125 7.6875,-8.25 -10.34375,-3 -23,5.21875 -11.9375,-0.4375 -3.25,-3.4375 2.78125,-2.937502 1.875,-2.34375 -1.53125,-1.46875 -2.6875,-1.25 -4.1875,1.96875 -7.78125,0.40625 -8.96875,9.500002 -2.96875,0.5 -3.34375,3.71875 -0.96875,1.6875 -5.71875,6.9375 -4.875,2.125 -3.65625,4.75 -14.625,-13.125 -9.34375,-14.187502 -2.4375,-6.625 1.1875,-17.125 -6.75,-7 -14.03125,-4.15625 0.25,-6.718749 -6.84375,-27.375 -3.8125,-9.937499 -8.15625,-8.875 -4.59375,-1.7187502 -4,-4.3124999 z"
         id="path17" />
    </g>
  </g>
</svg>
