<?xml version="1.0" encoding="UTF-8" standalone="no"?>
<!-- Created with Inkscape (http://www.inkscape.org/) -->

<svg
   version="1.1"
   id="svg2"
   width="484.6333"
   height="206.21643"
   viewBox="0 0 484.6333 206.21643"
   xmlns="http://www.w3.org/2000/svg"
   xmlns:svg="http://www.w3.org/2000/svg">
  <defs
     id="defs6">
    <linearGradient
       id="swatch77">
      <stop
         style="stop-color:#e2c69e;stop-opacity:1;"
         offset="0"
         id="stop77" />
    </linearGradient>
  </defs>
  <g
     id="layer66"
     style="display:inline"
     transform="translate(-814.6754,-0.53033008)">
    <g
       id="layer15"
       style="display:inline">
      <path
         style="display:inline;fill:#969696;fill-opacity:1;stroke:none;stroke-opacity:1"
         d="m 1229.4819,201.87899 c 0.6583,0.21944 1.4421,0.57126 2.1213,0.7071 0.802,0.16039 1.8301,0 2.6517,0 h 6.0104 12.7279 4.0659 c 0.6706,0 1.4535,-0.0954 2.1213,0 0.7715,0.11022 0.5658,0.18566 1.2374,0.35356 0.3332,0.0833 1.6677,0.14597 1.9446,0.17677 0.7543,0.0838 1.5472,-0.10727 2.2981,0 1.1639,0.16628 2.1001,1.04374 3.0052,1.76777 0.2675,0.21404 2.5762,0.71229 3.0052,0.88388 0.7021,0.28085 1.1835,0.73168 1.9445,0.88389 0.7699,0.15397 1.8522,0 2.6517,0 1.3007,0 2.7859,0.21331 4.0658,0 0.4793,-0.0799 0.935,-0.27366 1.4143,-0.35356 0.2324,-0.0387 0.4962,0.10541 0.7071,0 0.074,-0.0373 0.096,-0.15657 0.1767,-0.17677 0.2287,-0.0572 0.4835,0.0745 0.7071,0 0.3011,-0.10035 0.5893,-0.23571 0.8839,-0.35356 0.4415,-0.17657 0.5109,-0.42732 0.8839,-0.7071 0.1054,-0.0791 0.2357,-0.11788 0.3536,-0.17678 0.059,0 0.1277,0.0327 0.1767,0 0.6867,-0.4578 1.029,-1.0448 1.7678,-1.41421 0.3737,-0.18685 2.5133,0 3.0052,0 3.2962,0 6.6284,-0.1509 9.7228,-1e-5 L 1299.3087,0.53033008 814.6754,0.79549512 c 1.22432,0.36997468 1.39071,1.94090518 2.38648,2.56326208 0.64815,0.4050903 2.07463,1.0112978 2.82843,1.2374369 0.34331,0.1029937 0.71808,0.071367 1.06066,0.1767767 1.62541,0.5001252 3.30341,1.2815728 4.77297,2.1213203 0.62451,0.3568619 1.16094,0.851274 1.76777,1.2374369 1.28626,0.8185292 2.37827,1.6518436 3.35876,2.828427 0.10669,0.128037 0.21487,0.261103 0.35355,0.353553 0.049,0.03269 0.15038,-0.0527 0.17678,0 0.0527,0.10541 -0.0654,0.255494 0,0.353554 0.0731,0.109627 0.28045,0.06714 0.35355,0.176777 0.0654,0.09806 -0.0373,0.24175 0,0.353553 0.0932,0.279508 0.34628,0.477041 0.53033,0.707107 0.40344,0.504297 0.88165,0.880528 1.23744,1.414213 0.28666,0.429998 0.95461,0.53036 1.23743,0.883884 0.16462,0.205777 0.20039,0.492669 0.35356,0.707107 0.46171,0.646403 1.29745,1.282447 1.94454,1.767766 0.10541,0.07906 0.26035,0.08361 0.35355,0.176777 0.0417,0.04167 -0.0327,0.127747 0,0.176777 0.1849,0.27735 0.53561,0.421276 0.70711,0.707107 0.25456,0.424261 0.44746,1.024737 0.70711,1.414213 0.3671,0.550655 0.39556,0.395562 0.88388,0.883884 0.0417,0.04167 -0.0219,0.122066 0,0.176776 0.0979,0.244675 0.21797,0.481138 0.35355,0.707107 0.89778,1.49629 1.67907,3.122234 2.2981,4.772971 0.66413,1.771004 0.82624,4.135051 1.06066,6.010408 0.0927,0.74155 0.38504,1.394858 0.53033,2.12132 0.18114,0.905682 0.22362,1.952105 0.53033,2.828427 0.31449,0.898526 0.77202,1.744492 1.06066,2.65165 0.12638,0.397053 0.11788,0.824958 0.17678,1.237437 0.35355,1.06066 0.7071,2.121321 1.06066,3.181981 0.50647,1.519411 1.20362,3.046718 1.59099,4.596194 0.44111,1.764462 0.80088,3.557094 1.23744,5.303301 0.22679,0.907163 0,2.058117 0,3.005203 l 0.88388,6.540738 c 1.35529,0.176777 0.82496,0.117851 1.06066,0.353554 0.11387,0.113869 0.72462,-0.03982 0.88388,0 0.30785,0.07696 0.58926,0.235702 0.88389,0.353553 0.12233,0.04894 0.2357,0.117847 0.35355,0.176777 0.0589,0.05892 0.10228,0.139506 0.17678,0.176776 0.33333,0.166667 0.7201,0.202195 1.06066,0.353554 0.9836,0.437156 2.26452,0.955487 3.18198,1.414213 0.69512,0.347561 1.27501,0.854846 1.94454,1.237437 0.41248,0.235702 0.80331,0.514162 1.23744,0.707107 0.46006,0.204475 1.02107,0.215821 1.41421,0.53033 0.2578,0.20624 1.0312,1.099944 1.23744,1.237437 0.0981,0.06537 0.24175,-0.03727 0.35355,0 0.25,0.08333 0.48114,0.217972 0.70711,0.353553 0.47524,0.285146 1.91477,2.415323 2.12132,2.828427 0.10867,0.217307 0.0866,0.481528 0.17677,0.707107 0.57536,1.438389 0.99103,0.88927 1.23744,2.121321 0.26778,1.339088 0.17678,2.706437 0.17678,4.065864 0,0.509489 -0.0984,1.099187 0,1.59099 0.31961,1.59806 0.17677,3.316361 0.17677,4.949747 0,1.161828 0.0714,2.199866 0.17678,3.358757 0.0119,0.130867 -0.0652,0.688147 0,0.883884 0.23941,0.718237 0.0987,-0.01234 0.53033,0.707107 0.29954,0.499237 0.65531,1.917139 0.88389,2.298097 0.0678,0.112986 0.28045,0.06714 0.35355,0.176776 0.0404,0.06054 0.83398,1.618102 0.88388,1.767767 0.20908,0.627257 -0.28647,0.08944 0.17678,0.707107 0.58657,0.782101 0.51201,0.35653 1.06066,1.59099 0.85384,1.921138 -0.22787,-0.464923 0.17678,0.883884 0.31567,1.052234 0.74323,2.193574 1.23743,3.181984 0.34823,0.69645 0.7803,1.33502 1.23744,1.94454 0.35755,0.47699 -0.003,0.28969 0.35355,0.88388 0.31149,0.51915 0.94149,0.89631 1.23744,1.41422 0.36826,0.64444 0.22586,0.75028 0.53033,1.23743 0.45041,0.72066 0.90431,1.44145 1.41421,2.12132 0.9076,1.21013 2.07743,1.9927 3.18198,3.00521 0.30715,0.28155 0.58926,0.58925 0.88389,0.88388 0.11785,0.29463 0.1504,0.64011 0.35355,0.88388 0.11929,0.14318 0.37529,0.0734 0.53033,0.17678 0.049,0.0327 -0.0417,0.13508 0,0.17678 0.2668,0.2668 0.61709,0.44031 0.88388,0.70711 0.57651,0.5765 1.06337,1.32898 1.59099,1.94454 0.41041,0.4788 1.05594,1.05751 1.59099,1.41421 0.049,0.0327 0.13908,-0.0453 0.17678,0 0.27203,0.32643 0.47141,0.70711 0.70711,1.06066 0.11785,0.0589 0.26035,0.0836 0.35355,0.17678 0.27951,0.27951 0.29316,0.74443 0.53033,1.06066 0.2,0.26667 1.49845,-1.38047 0.70711,0.70711 0.0527,0.10541 -0.0707,0.25925 0,0.35355 0.12747,0.16997 0.3801,0.20332 0.53033,0.35355 0.0417,0.0417 -0.0417,0.13508 0,0.17678 0.39914,0.39914 1.11705,0.40995 1.59099,0.88388 0.0932,0.0932 0.0756,0.26916 0.17678,0.35356 0.45465,0.37888 1.51679,1.14653 2.03293,1.41421 -0.0884,-2.01629 0.94436,-0.85598 1.85615,-1.76777 0.0417,-0.0417 -0.0417,-0.13507 0,-0.17677 0.0932,-0.0932 0.26036,-0.0836 0.35356,-0.17678 0.0932,-0.0932 0.0836,-0.26035 0.17677,-0.35355 0.0417,-0.0417 0.13508,0.0417 0.17678,0 0.0932,-0.0932 0.10368,-0.24392 0.17678,-0.35356 0.27121,-0.40681 1.4784,-1.28023 1.94454,-1.59099 0.28221,-0.18814 0.31383,-0.4906 0.53033,-0.7071 0.0417,-0.0417 0.12778,0.0327 0.17678,0 0.27735,-0.1849 0.44044,-0.50711 0.7071,-0.70711 0.50322,-0.37741 1.02691,-0.48148 1.59099,-0.70711 0.15475,-0.0619 0.19544,-0.30085 0.35356,-0.35355 0.93801,-0.31267 -0.258,0.40228 0.7071,-0.17678 0.65669,-0.39401 1.52837,-0.61594 2.12132,-1.06066 0.32999,-0.24749 0.5539,-0.63639 0.88389,-0.88388 0.25386,-0.1904 0.61178,-0.19029 0.88388,-0.35355 0.27042,-0.16226 0.7137,-0.62861 0.88388,-0.88389 0.0327,-0.049 -0.0417,-0.13507 0,-0.17677 0.6434,-0.6434 0.12421,0.18794 0.53033,-0.35356 0.44613,-0.59483 0.77853,-1.41599 1.06066,-2.12132 0.13841,-0.34602 0.12995,-0.76252 0.35356,-1.06066 0.0791,-0.10538 0.28045,-0.0671 0.35355,-0.17678 0.13075,-0.19611 -0.0875,-0.48826 0,-0.7071 0.22956,-0.57389 0.92824,-1.8343 1.23744,-2.2981 0.41845,-0.62768 1.12996,-0.95318 1.59099,-1.41421 0.0417,-0.0417 -0.0527,-0.15048 0,-0.17678 0.1506,-0.0753 0.5714,-0.0411 0.70711,-0.17678 0.0932,-0.0932 0.0671,-0.28045 0.17677,-0.35355 0.0981,-0.0654 0.23799,0.0231 0.35356,0 0.18272,-0.0365 0.35355,-0.11788 0.53033,-0.17678 0.0589,-0.0589 0.0977,-0.15047 0.17677,-0.17677 0.16771,-0.0559 0.38325,0.0981 0.53033,0 0.13868,-0.0924 0.22022,-0.25356 0.35356,-0.35356 0.21081,-0.15811 0.52076,-0.16721 0.7071,-0.35355 0.0417,-0.0417 -0.0527,-0.15038 0,-0.17678 0.15812,-0.079 0.40533,0.125 0.53033,0 0.0417,-0.0417 -0.0263,-0.12407 0,-0.17677 0.13472,-0.26944 0.48537,-0.38251 0.70711,-0.53033 0.26521,-0.17681 0.28616,-0.50364 0.53033,-0.70711 0.41735,-0.34779 0.77159,-0.78115 1.23744,-1.06066 0.15978,-0.0959 0.37054,-0.0809 0.53033,-0.17678 0.88388,-0.53033 0,-0.17677 0.53033,-0.53033 0.51333,-0.34222 1.069,-0.74747 1.59099,-1.06066 0.22597,-0.13558 0.48364,-0.21388 0.7071,-0.35355 0.24985,-0.15615 0.4363,-0.41427 0.70711,-0.53033 0.16248,-0.0696 0.36263,0.0559 0.53033,0 0.0559,-0.0186 -0.0417,-0.13508 0,-0.17678 0.12027,-0.12027 0.84881,-0.636484 1.06066,-0.707104 0.1118,-0.03727 0.25925,0.07071 0.35355,0 0.16997,-0.127476 0.20333,-0.380099 0.35356,-0.53033 0.0417,-0.04167 0.12777,0.03269 0.17677,0 0.95367,-0.635777 -0.12175,-0.05502 0.53033,-0.707107 0.0932,-0.09317 0.28046,-0.06714 0.35356,-0.176777 0.0654,-0.09806 -0.0373,-0.24175 0,-0.353553 0.12275,-0.368264 0.83981,-1.215403 1.23743,-1.414214 0.19003,-0.09501 0.34031,-0.258533 0.53033,-0.353553 0.55097,-0.275483 2.59846,0.190076 3.35876,0 0.99892,-0.24973 1.57967,-1.23555 2.65165,-1.414214 0.64089,-0.106814 1.1644,0.139307 1.76777,0.353554 h 1.76777 c 0.30571,0 1.56103,-0.206737 1.76776,0 0.23568,0.235702 -0.375,0.169628 0.17678,0.353553 0.1118,0.03727 0.25925,-0.07071 0.35355,0 0.0897,0.06724 0.46753,0.69549 0.53033,0.883884 0.058,0.173904 0.12314,1.759837 0,1.944543 -0.0924,0.138675 -0.26115,0.214879 -0.35355,0.353554 -0.18278,0.274313 0.3003,0.115017 -0.17678,0.353553 -0.0527,0.02635 -0.13507,-0.04167 -0.17677,0 -0.27383,0.273822 -0.97062,1.235231 -1.23744,1.590991 -0.21811,0.29082 -0.52648,1.23359 -0.70711,1.41421 -0.0417,0.0417 -0.15047,-0.0527 -0.17677,0 -0.10971,0.21941 0,1.25695 0,1.41422 0,0.0577 -0.038,0.84588 0,0.88388 0.0833,0.0833 0.27025,-0.0833 0.35355,0 0.0833,0.0833 -0.0527,0.24814 0,0.35355 0.0264,0.0527 0.11788,0 0.17678,0 0.24311,0 2.23899,0.49093 2.29809,0.53033 0.10968,0.0731 0.0714,0.27446 0.17678,0.35356 0.38545,0.28909 1.01171,0.32907 1.41421,0.53033 0.40343,0.20171 0.487,0.39803 0.88389,0.53033 0.2236,0.0745 0.50769,-0.22361 0.7071,0 0.74722,0.2802 1.34753,0.86721 2.12132,1.06066 0.81672,0.20418 3.36831,0 4.24264,0 0.8623,0 3.22213,0.21093 4.06587,0 0.12783,-0.032 0.22572,-0.14478 0.35355,-0.17678 0.49571,-0.12393 1.08774,0.0839 1.59099,0 0.18381,-0.0306 0.34761,-0.14018 0.53033,-0.17678 0.11556,-0.0231 0.24523,0.0464 0.35356,0 0.31581,-0.13534 0.56807,-0.39498 0.88388,-0.53033 0.26653,-0.11423 1.76871,-0.3981 2.12132,-0.53033 0.51894,-0.1946 0.91271,-0.66895 1.41421,-0.88388 0.63534,-0.27229 1.85861,-0.57575 2.47488,-0.88388 0.26352,-0.13176 0.4714,-0.35356 0.7071,-0.53033 0.0589,-0.0589 0.10528,-0.13388 0.17678,-0.17678 0.65345,-0.39207 1.40031,-0.82032 2.12132,-1.06066 0.1118,-0.0373 0.24175,0.0373 0.35355,0 1.0105,-0.33685 -1.06867,-0.0338 0.53033,-0.35355 0.86627,-0.17326 1.95445,0 2.82843,0 2.2101,0 4.57502,-0.18031 6.71752,0.17677 0.73132,0.12189 1.38625,0.76138 2.12132,0.88389 0.43465,0.0724 0.9798,-0.10861 1.41421,0 1.23544,0.30892 -0.28033,0.0244 1.23744,0.53033 0.28812,0.0961 0.77253,0.0808 1.06066,0.17677 0.30104,0.10035 0.58925,0.23571 0.88388,0.35356 0.11785,0.0589 0.22855,0.13507 0.35355,0.17677 0.28059,0.0935 0.71679,0.0194 0.88389,0.35356 0.0899,0.17976 -0.0673,0.82918 -0.17678,0.88388 -0.10541,0.0527 -0.27025,-0.0833 -0.35355,0 -0.0833,0.0833 0.0654,0.25545 0,0.35355 -0.43063,0.64594 -0.25878,-0.18954 -0.53033,0.35356 -0.13254,0.26507 -0.52494,0.94101 -0.88389,1.06066 -0.1118,0.0373 -0.25545,-0.0654 -0.35355,0 -0.64593,0.43063 0.18954,0.25878 -0.35355,0.53033 -0.35534,0.17766 -0.85971,0.45529 -1.23744,0.7071 -0.27735,0.1849 -0.50711,0.44044 -0.70711,0.70711 -0.0353,0.0471 0.0505,0.14648 0,0.17678 -0.2721,0.16326 -0.60837,0.19611 -0.88388,0.35355 -0.74174,0.42385 -0.0458,0.22257 -0.53033,0.70711 -0.36575,0.36575 0.0143,-0.55893 -0.35355,0.17677 -0.0264,0.0527 0.0417,0.13508 0,0.17678 -0.0932,0.0932 -0.23571,0.11788 -0.35356,0.17678 -0.0589,0 -0.12777,-0.0327 -0.17677,0 -0.22687,0.15124 -0.66159,0.52927 -0.88389,0.7071 -0.49257,0.39406 -1.23389,0.87858 -1.59099,1.41422 -0.14782,0.22174 -0.26089,0.57238 -0.53033,0.7071 -0.57496,0.28746 -0.42049,0.0446 -0.88388,0.35356 -0.18963,0.12642 -0.31792,0.51251 -0.70711,0.7071 -0.16666,0.0834 -0.36854,0.0844 -0.53033,0.17678 -0.38488,0.21993 -1.75221,1.30876 -2.12132,1.41422 -0.15618,0.0446 -1.16346,0.18638 -1.41421,0.35355 -0.049,0.0327 0.0527,0.15038 0,0.17678 -0.35356,0.17677 -0.26517,-0.0884 -0.53033,0 -0.125,0.0417 -0.22435,0.15097 -0.35356,0.17677 -0.95709,0.19142 -2.03297,-0.10802 -3.0052,0 -0.29862,0.0332 -0.58526,0.14358 -0.88388,0.17678 -0.40996,0.0456 -0.83728,-0.10004 -1.23744,0 -0.54233,0.13558 -1.05555,0.3697 -1.59099,0.53033 -0.41329,0.12398 0.11017,-0.3036 -0.53033,0.17678 -0.40875,0.30655 -0.55496,0.73174 -0.88388,1.06066 -0.15023,0.15023 -0.3801,0.20332 -0.53033,0.35355 -0.0953,0.0952 -0.25018,2.07795 -0.17678,2.2981 0.0672,0.20155 0.4601,0.21037 0.35355,0.53033 0.15308,0.6123 -0.22384,0.10617 0.17678,0.7071 0.33924,0.50887 0.93866,0.82288 1.41421,1.06066 0.27076,0.13538 0.13825,0.31502 0.35356,0.53033 0.13176,0.13178 0.37528,0.0734 0.53033,0.17678 0.32573,0.21715 0.66128,0.57398 1.06066,0.70711 0.39041,0.13013 1.88496,0.13771 2.29809,0 0.28653,-0.0955 0.63289,-0.46763 0.88389,-0.53033 0.2125,-0.0531 1.76338,-0.23718 1.94454,-0.17678 0.7766,0.25887 1.29407,0.5728 1.94454,1.06066 0.29114,0.21838 0.89988,0.016 1.06066,0.17678 0.0417,0.0417 -0.0417,0.13507 0,0.17677 0.52435,0.52434 1.49449,0.99632 2.12133,1.41422 0.89922,0.59948 1.93743,1.76492 2.82842,2.12132 0.89564,0.35825 1.84711,0.8971 2.82843,1.06066 0.45866,0.0764 0.95555,-0.0764 1.41421,0 1.36256,0.22709 0.0188,0.15702 1.59099,0.35355 0.47518,0.0594 1.13915,-0.15061 1.59099,0 0.0559,0.0186 -0.0559,0.15818 0,0.17678 0.22361,0.0745 0.49629,-0.10541 0.70711,0 0.14907,0.0745 0.20448,0.27905 0.35355,0.35355 0.0527,0.0264 0.13508,-0.0417 0.17678,0 0.0417,0.0417 -0.0417,0.13508 0,0.17678 0.0932,0.0932 0.26035,0.0836 0.35355,0.17677 0.0932,0.0932 0.0977,0.24815 0.17678,0.35356 0.5403,0.72039 1.36574,1.31726 1.76777,2.12132 0.38604,0.77209 0.76495,1.58937 1.23743,2.2981 0.36971,0.55455 0.22693,1.46436 0.70711,1.94454 0.0417,0.0417 0.13508,-0.0417 0.17678,0 0.47771,0.47771 0.59519,1.36716 0.88388,1.94454 0.17429,0.34859 0.73959,0.52316 0.88388,0.88389 0.29463,0.73657 -0.19641,0.29462 0,0.88388 0.0264,0.0791 0.15048,0.0977 0.17678,0.17678 0.0559,0.1677 -0.0791,0.37221 0,0.53033 0.0373,0.0745 0.15658,0.096 0.17678,0.17677 0.0429,0.1715 -0.0559,0.36263 0,0.53033 0.0186,0.0559 0.14407,-0.049 0.17677,0 0.10338,0.15505 0.0935,0.36367 0.17678,0.53033 0.095,0.19003 0.27465,0.33307 0.35355,0.53033 0.0438,0.10943 -0.0438,0.24413 0,0.35356 0.6859,1.71473 0.058,0.21543 0.53033,0.53033 0.52482,0.34987 0.23431,0.41107 0.70711,0.88388 0.59017,0.59017 1.53945,0.871 2.2981,1.06066 0.9828,0.2457 4.01941,-0.0439 4.94971,-0.17678 0.7952,-0.11357 1.7029,0.0806 2.4749,-0.17677 0.079,-0.0264 0.098,-0.15038 0.1768,-0.17678 0.4243,-0.14144 0.2828,0.14144 0.7071,0 0.6164,-0.20547 2.1707,-2.5737 2.4749,-3.18198 0.1749,-0.3498 0.2861,-0.87107 0.5303,-1.23744 0.2661,-0.39919 0.4749,-0.9648 0.8839,-1.23743 0.1096,-0.0731 0.2605,-0.0836 0.3535,-0.17678 0.1318,-0.13176 0.045,-0.39857 0.1768,-0.53033 0.093,-0.0932 0.2716,-0.0739 0.3536,-0.17678 0.1646,-0.20577 0.2357,-0.4714 0.3535,-0.7071 0,-0.0589 -0.033,-0.12778 0,-0.17678 0.092,-0.13868 0.2606,-0.21488 0.3536,-0.35355 0.1667,-0.25 0.065,-0.60492 0.1767,-0.88389 0.3636,-0.89848 0,0.89157 0.3536,-0.53033 0.029,-0.11433 -0.044,-0.24413 0,-0.35355 0.079,-0.19726 0.2357,-0.35355 0.3536,-0.53033 0.059,0 0.1507,0.0527 0.1767,0 0.1919,-0.3837 0.2696,-0.81678 0.3536,-1.23744 0.1303,-0.65165 0.2031,-1.6173 0.7071,-2.12132 0.093,-0.0932 0.2605,-0.0836 0.3535,-0.17678 0.093,-0.0932 0.084,-0.26035 0.1768,-0.35355 0.4322,-0.43222 1.201,-0.83393 1.7678,-1.06066 0.2761,-0.11044 0.827,-0.11991 1.0606,-0.35355 0.093,-0.0932 0.067,-0.28046 0.1768,-0.35356 0.098,-0.0654 0.2373,0.0194 0.3536,0 0.5952,-0.0992 1.0151,-0.41516 1.591,-0.53033 0.5287,-0.10575 1.0579,-0.22029 1.591,-0.35355 0.1663,-0.0416 0.3639,0.0416 0.5303,0 0.2556,-0.0639 0.4487,-0.30185 0.7071,-0.35355 0.1733,-0.0347 0.3588,0.0429 0.5303,0 0.081,-0.0202 0.098,-0.15038 0.1768,-0.17678 0.1118,-0.0373 0.2418,0.0373 0.3536,0 0.4325,-0.14419 1.5605,-0.83028 1.9445,-1.06066 0.1429,-0.0858 0.2202,-0.25355 0.3536,-0.35355 0.1699,-0.12748 0.3403,-0.25856 0.5303,-0.35356 0.053,-0.0264 0.1348,0.0417 0.1768,0 0.093,-0.0932 0.084,-0.26035 0.1767,-0.35355 0.243,-0.24296 0.609,-0.32417 0.8839,-0.53033 0.3155,-0.23658 0.7962,-0.61944 1.0607,-0.88388 0.1502,-0.15023 0.2033,-0.3801 0.3535,-0.53033 0.3056,-0.30561 0.7933,-0.48283 1.0607,-0.88389 0.628,-0.94208 -0.6431,0.4522 0.8839,-0.88388 0.2508,-0.2195 0.4937,-0.45103 0.7071,-0.70711 0.085,-0.10122 0.067,-0.28045 0.1768,-0.35355 0.098,-0.0654 0.2481,0.0527 0.3535,0 0.1491,-0.0745 0.2149,-0.26115 0.3536,-0.35355 0.049,-0.0327 0.1347,0.0417 0.1767,0 0.093,-0.0932 0.098,-0.24815 0.1768,-0.35356 0.2779,-0.37057 0.597,-0.42016 0.7071,-0.53033 0.093,-0.0932 0.098,-0.24814 0.1768,-0.35355 0.4405,-0.5873 0.9918,-1.1915 1.591,-1.59099 0.262,-0.17466 1.9128,0.0963 2.2981,0 0.081,-0.0202 0.096,-0.15658 0.1768,-0.17678 0.1715,-0.0429 0.357,0.0347 0.5303,0 0.1292,-0.0258 0.2243,-0.15097 0.3536,-0.17677 0.5806,-0.11618 1.1932,-0.0331 1.7677,-0.17678 0.388,-0.097 0.4032,-0.37837 0.7071,-0.53033 0.2325,-0.11624 0.8169,-0.44903 1.0607,-0.53033 0.1118,-0.0373 0.2417,0.0373 0.3535,0 0.377,-0.12565 0.7676,-0.68847 1.0607,-0.88388 0.155,-0.10338 0.3637,-0.0935 0.5303,-0.17678 0.2982,-0.14907 0.4298,-0.52221 0.7071,-0.70711 0.1551,-0.10337 0.3753,-0.0734 0.5304,-0.17677 0.049,-0.0327 -0.042,-0.13508 0,-0.17678 0.1502,-0.15023 0.3603,-0.22608 0.5303,-0.35355 0.5415,-0.40613 -0.2899,0.11307 0.3535,-0.53033 0.7572,-0.75718 2.1911,-0.48944 3.0053,-0.35356 0.4349,-0.21746 0.8154,-0.21288 1.2374,-0.35355 0.2372,-0.0791 0.2982,-0.43753 0.5303,-0.53033 0.1642,-0.0656 0.3722,0.0791 0.5304,0 0.2236,-0.11181 0.3351,-0.37416 0.5303,-0.53033 0.7142,-0.57135 1.2374,-0.75126 1.7677,-1.41422 0.5289,-0.66108 1.7834,-2.55285 1.9446,-3.35875 0.035,-0.17335 -0.043,-0.35883 0,-0.53033 0.02,-0.0809 0.1398,-0.10228 0.1768,-0.17678 0.085,-0.16961 -0.01,-0.33373 0.1767,-0.70711 0.056,-0.11242 0.05,-2.5007 0,-2.65165 -0.085,-0.25519 -0.4275,-1.13466 -0.7071,-1.41421 -0.042,-0.0417 -0.1237,0.0263 -0.1767,0 -0.3165,-0.15821 -0.6047,-0.49771 -0.8839,-0.70711 -0.3488,-0.26154 -3.3585,-0.85668 -3.5356,-0.88388 -0.1769,-0.0272 -4.4158,0.0866 -4.5962,0.17678 -0.074,0.0373 -0.098,0.15047 -0.1767,0.17677 -0.3182,0.10607 -0.7425,-0.10606 -1.0607,0 -0.2372,0.0791 -0.3067,0.41853 -0.5303,0.53033 -0.2555,0.12772 -0.6997,-0.005 -1.2375,0.35356 -0.3615,0.24105 -0.676,0.69156 -1.0606,0.88388 -0.1054,0.0527 -0.2706,-0.0833 -0.3536,0 -0.1502,0.15023 -0.2033,0.3801 -0.3535,0.53033 -0.042,0.0417 -0.1348,-0.0417 -0.1768,0 -0.042,0.0417 0,0.11788 0,0.17678 -0.1178,0.0589 -0.2357,0.11787 -0.3536,0.17677 -0.2165,0.21651 -0.2481,0.51897 -0.5303,0.70711 -0.155,0.10338 -0.3985,0.045 -0.5303,0.17678 -1.0872,1.08716 1.2476,-0.59604 -0.7071,0.7071 -0.042,0.0417 0.053,0.15048 0,0.17678 -0.2108,0.10541 -0.4835,-0.0745 -0.7071,0 -0.5854,0.19511 -1.3603,0.76854 -1.9446,1.06066 -0.1054,0.0527 -0.2705,-0.0833 -0.3535,0 -0.042,0.0417 0.056,0.15818 0,0.17678 -0.2795,0.0932 -0.6204,-0.13176 -0.8839,0 -0.053,0.0263 0.053,0.15047 0,0.17677 -0.2108,0.10541 -0.4784,-0.0572 -0.7071,0 -0.3616,0.0904 -0.6991,0.26316 -1.0607,0.35356 -0.4905,0.12262 -1.113,-0.15933 -1.591,0 -0.485,0.16167 -0.9201,0.36564 -1.4142,0.53033 -0.2651,0.0884 -0.1768,-0.17678 -0.5303,0 -0.4707,0.23533 -1.012,0.93579 -1.4142,1.23743 -0.094,0.0707 -0.2706,-0.0833 -0.3536,0 -0.093,0.0932 -0.084,0.26036 -0.1767,0.35356 -0.1825,0.18243 -0.5138,0.25685 -0.7072,0.35355 -0.2121,0.10607 -0.3182,0.42427 -0.5303,0.53033 -0.1667,0.0834 -0.3753,0.0734 -0.5303,0.17678 -0.049,0.0327 0.042,0.13507 0,0.17677 -0.3268,0.32676 -0.9436,0.20663 -1.2375,0.35356 -0.053,0.0263 0.042,0.13507 0,0.17677 -0.1,0.0998 -1.5219,0.0687 -1.5909,0 -0.042,-0.0417 0.042,-0.13507 0,-0.17677 -0.042,-0.0417 -0.1348,0.0417 -0.1768,0 -0.125,-0.125 0.056,-0.36263 0,-0.53033 -0.067,-0.20156 -0.2866,-0.32878 -0.3536,-0.53033 -0.1816,-0.54503 -0.1301,-0.96729 -0.3535,-1.41422 -0.1658,-0.33226 -0.048,-1.55713 -0.1768,-1.94454 -0.019,-0.0559 -0.1418,0.0471 -0.1768,0 -0.1581,-0.21082 -0.2555,-0.46243 -0.3535,-0.70711 -0.066,-0.16413 0.056,-0.36262 0,-0.53033 -0.2949,-0.88471 -1.2172,-1.74076 -1.7678,-2.47487 -0.1618,-0.21571 -0.7528,-1.45993 -0.8839,-1.59099 -0.099,-0.099 -0.7687,0.0384 -0.8839,0 -0.2715,-0.0905 -0.1369,-0.38595 -0.3535,-0.53033 -0.098,-0.0654 -0.2482,0.0527 -0.3536,0 -0.4117,-0.20588 -0.7989,-0.66462 -1.2374,-0.88388 -0.2173,-0.10868 -0.582,0.36222 -0.7071,-0.17678 -0.1058,-0.0791 -0.084,-0.26035 -0.1768,-0.35355 -0.1863,-0.18634 -0.4963,-0.19544 -0.7071,-0.35356 -0.1333,-0.1 -0.2149,-0.26115 -0.3536,-0.35355 -0.2172,-0.144847 -0.811,-0.09358 -1.0606,-0.176777 -0.2016,-0.06719 -0.2104,-0.460102 -0.5303,-0.353554 -0.1144,-0.02858 -0.2482,0.05271 -0.3536,0 -0.053,-0.02635 0.033,-0.127747 0,-0.176777 -0.092,-0.138675 -0.2149,-0.261103 -0.3536,-0.353553 -0.1783,-0.118896 -0.2869,-0.110154 -0.5303,-0.353553 -0.083,-0.08333 0.053,-0.248144 0,-0.353554 -0.2819,-0.563755 -0.1097,-0.755937 0,-1.414213 0.088,-0.528415 0.046,-1.067691 0.1768,-1.590991 0.254,-1.016001 1.6334,-3.011069 2.4749,-3.71231 0.8746,-0.728867 0.7208,-0.272027 1.2374,-0.53033 0.2121,-0.106066 0.3182,-0.424264 0.5303,-0.53033 0.1581,-0.07906 0.3627,0.0559 0.5304,0 0.4339,-0.144662 1.1761,-0.499701 1.591,-0.707107 1.0513,-0.525697 2.0731,-1.06876 3.0052,-1.767767 0.3439,-0.257992 0.5162,-0.486532 0.8838,-0.707107 0.1598,-0.09587 0.3637,-0.09345 0.5304,-0.176776 0.5761,-0.288065 1.0606,-0.883857 1.591,-1.237437 0.049,-0.03269 0.1347,0.04167 0.1767,0 0.4278,-0.427731 0.6291,-1.159416 1.0607,-1.590991 0.093,-0.09317 0.2507,-0.09447 0.3536,-0.176776 0.6978,-0.558317 1.1595,-1.33637 1.7677,-1.944544 0.042,-0.04167 0.1278,0.03269 0.1768,0 0.8095,-0.539665 1.3615,-1.513488 2.1213,-2.12132 0.1659,-0.132722 0.3801,-0.203322 0.5303,-0.353554 0.093,-0.09317 0.074,-0.271243 0.1768,-0.353553 0.2058,-0.164622 0.5014,-0.188932 0.7071,-0.353553 0.1028,-0.08231 0.084,-0.260384 0.1768,-0.353554 0.093,-0.09317 0.2606,-0.08361 0.3536,-0.176777 0.042,-0.04167 -0.042,-0.135106 0,-0.176776 0.3177,-0.31769 0.8649,-0.458768 1.2374,-0.707107 0.7013,-0.467534 1.1637,-1.200577 1.9445,-1.59099 0.2173,-0.108657 0.505,-0.04201 0.7071,-0.176777 0.2969,-0.197911 0.5593,-0.544793 0.8839,-0.707107 0.4865,-0.243251 1.124,-0.533631 1.591,-0.883883 0.2667,-0.2 0.409,-0.558036 0.7071,-0.707107 0.1054,-0.05271 0.2418,0.03727 0.3536,0 0.3367,-0.112226 0.5706,-0.727254 0.8839,-0.883883 0.1054,-0.0527 0.2555,0.06537 0.3535,0 0.1098,-0.07309 0.084,-0.260384 0.1768,-0.353554 0.042,-0.04167 0.1238,0.02635 0.1768,0 0.3073,-0.153659 0.598,-0.339739 0.8839,-0.53033 1.0664,-0.710988 2.1097,-1.406499 3.1819,-2.12132 0.2774,-0.1849 0.4405,-0.507107 0.7071,-0.707107 0.3504,-0.262733 0.7852,-0.215822 1.0607,-0.353553 0.1483,-0.07414 1.5883,-0.941026 1.7678,-1.060661 0.1386,-0.09245 0.2615,-0.214878 0.3535,-0.353553 0.033,-0.04903 -0.049,-0.144087 0,-0.176777 0.1551,-0.103366 0.3706,-0.08091 0.5304,-0.176776 0.1429,-0.08575 0.2148,-0.261104 0.3535,-0.353554 0.2022,-0.134766 0.4988,-0.05178 0.7071,-0.176776 1.6443,-0.986544 -1.2389,0.354295 0.8839,-0.707107 0.3837,-0.191848 0.8431,-0.184568 1.2374,-0.353554 0.1953,-0.08369 0.3801,-0.203322 0.5304,-0.353553 0.042,-0.04167 -0.053,-0.150427 0,-0.176777 0.1054,-0.0527 0.2441,0.04377 0.3535,0 0.1423,-0.05691 1.5,-0.96929 1.591,-1.06066 0.042,-0.04167 -0.046,-0.139967 0,-0.176777 0.2683,-0.21464 0.6409,-0.287373 0.8839,-0.53033 0.083,-0.08333 -0.083,-0.270223 0,-0.353553 0.1318,-0.131767 0.3705,-0.08091 0.5303,-0.176777 0.4288,-0.257248 0.6766,-0.740568 1.0607,-1.06066 0.4311,-0.359294 0.9602,-0.720163 1.4142,-1.06066 0.3794,-0.284547 0.8412,-0.442948 1.2374,-0.707107 0.208,-0.138675 0.3068,-0.418527 0.5304,-0.53033 0.5294,-0.264703 1.3035,-0.596442 1.7677,-1.06066 0.3334,-0.333398 0.5848,-0.863606 0.8839,-1.237437 0.5757,-0.719621 1.1869,-1.39525 1.7678,-2.12132 0.432,-0.540073 1.1284,-0.774857 1.591,-1.237437 0.049,-0.04949 -0.1817,-0.966546 0.3535,-0.53033 0.3104,-0.232797 0.7375,-0.314904 1.0607,-0.53033 1.2582,-0.838824 2.6252,-1.40432 4.0658,-1.944544 0.4017,-0.150627 0.8432,-0.184568 1.2375,-0.353553 1.3578,-0.581922 -0.4141,-0.156593 1.2374,-0.707107 0.461,-0.153659 0.9533,-0.199894 1.4142,-0.353554 0.3932,-0.131056 0.8441,-0.687201 1.2375,-0.883883 0.5852,-0.292611 1.2027,-0.330424 1.7677,-0.707107 0.1387,-0.09245 0.1988,-0.291653 0.3536,-0.353553 0.1641,-0.06565 0.3626,0.0559 0.5303,0 1.0034,-0.334462 2.3976,-1.640733 3.3588,-2.121321 1.36,-0.67999 2.8624,-1.25445 4.2426,-1.944543 0.1581,-0.07906 0.3589,0.04287 0.5303,0 0.8537,-0.213411 -0.01,-0.08401 0.5304,-0.353554 1.463,-0.731514 -0.6018,0.573224 1.2374,-0.53033 0.5991,-0.359476 1.1841,-0.848313 1.7678,-1.237437 0.4158,-0.277241 0.5663,-0.743117 0.8839,-1.06066 0.3845,-0.384503 0.9748,-0.709153 1.4142,-1.06066 0.4374,-0.349943 0.6919,-0.868663 1.0606,-1.237437 0.2437,-0.243616 1.6076,-0.289107 1.9446,-0.176776 0.766,0.255349 1.7937,0.189757 2.4749,0.53033 0.357,0.178538 0.4616,0.638407 0.7071,0.883883 0.042,0.04167 0.1347,-0.04167 0.1767,0 1.2763,1.276231 -0.2292,3.430757 1.0607,4.772971 0,0.882542 0.2456,3.185069 -0.1768,3.889087 -0.082,0.135817 -0.5378,0.799244 -0.7071,0.883884 -0.053,0.02635 -0.1348,-0.04167 -0.1768,0 -0.6107,0.610769 0.027,0.340172 -1.0606,0.883883 -0.3358,0.167875 -0.5331,0.796184 -0.8839,0.883884 -0.5609,0.140225 -1.1339,0.07325 -1.591,0.53033 -0.093,0.09317 -0.071,0.274493 -0.1768,0.353553 -0.2538,0.190394 -0.6198,0.177534 -0.8839,0.353553 -0.208,0.138676 -0.3303,0.380331 -0.5303,0.530331 -0.4139,0.310468 -0.7791,0.477969 -1.2374,0.707106 -0.4616,0.230806 -0.7996,0.797925 -1.2375,1.060661 -0.5941,0.356553 -0.4069,-0.0042 -0.8838,0.353553 -0.5144,0.385739 -0.8758,0.878456 -1.4143,1.237437 -0.281,0.187396 -0.6949,0.694926 -0.8838,0.883883 -0.4432,0.44318 -0.8028,0.979585 -1.2375,1.414214 -0.042,0.04167 -0.1348,-0.04167 -0.1768,0 -0.3915,0.391501 -0.212,0.81285 -0.3535,1.237437 -0.061,0.182283 -0.2816,0.350725 -0.3536,0.53033 -0.09,0.225579 -0.087,0.481527 -0.1767,0.707107 -0.1008,0.251857 -0.4857,0.736288 -0.7071,0.883883 -0.049,0.03269 -0.1348,-0.04167 -0.1768,0 -0.2154,0.215406 -0.3149,0.668477 -0.5303,0.883883 -0.083,0.08333 -0.2482,-0.0527 -0.3536,0 -0.2236,0.111804 -0.3223,0.391656 -0.5303,0.530331 -0.6897,0.459808 -1.6742,0.50694 -2.4749,0.707106 -0.2287,0.05717 -0.4835,-0.07453 -0.7071,0 -0.7669,0.255625 -1.3132,0.614517 -2.1213,0.883884 -0.1118,0.03727 -0.2442,-0.04377 -0.3536,0 -0.4876,0.195039 -0.7583,0.515438 -1.2374,0.707107 -0.173,0.0692 -0.3813,0.06497 -0.5304,0.176776 -0.1057,0.07906 -0.071,0.274494 -0.1767,0.353554 -0.1491,0.111806 -0.3753,0.07341 -0.5304,0.176776 -0.049,0.03269 0.042,0.135107 0,0.176777 -0.1502,0.150231 -0.3801,0.203322 -0.5303,0.353553 -0.1406,0.140606 -0.061,1.938884 0,2.121321 0.075,0.225904 0.3681,0.544865 0.5303,0.707107 0.176,0.175985 0.1278,0.41744 0.3536,0.53033 0.5701,0.285043 0.8686,0.520149 1.4142,0.883883 0.1551,0.103367 0.4673,-0.257477 0.5303,0.176777 0.2358,0.235702 -0.375,0.169628 0.1768,0.353553 0.2481,0.0827 0.6511,-0.116401 0.8839,0 0.6573,0.328633 1.2964,0.559834 1.9445,0.883884 1.2322,0.616098 1.9022,1.714796 2.6517,2.65165 0.1562,0.195217 0.3535,0.353554 0.5303,0.53033 0.059,0 0.1318,-0.03772 0.1768,0 0.3201,0.266744 0.5703,0.609507 0.8839,0.883884 0.1599,0.139905 0.4028,0.183586 0.5303,0.353553 0.071,0.09428 -0.053,0.248144 0,0.353553 0.074,0.149072 0.2616,0.214879 0.3536,0.353554 0.064,0.096 0,2.506637 0,2.65165 0,0.683288 0.074,1.452167 0,2.121321 -0.021,0.185199 -0.1508,0.345863 -0.1768,0.53033 -0.069,0.484823 0.1194,1.113231 0,1.59099 -0.3676,1.471404 0.012,-0.213388 -0.3536,0.883883 -0.088,0.265165 0.088,0.618719 0,0.883884 -0.083,0.25 -0.2705,0.457107 -0.3535,0.707107 -0.1615,0.48448 -0.2297,1.095459 -0.3536,1.59099 -0.1263,0.505506 -0.4318,0.647737 -0.7071,1.06066 -0.2175,0.326357 -0.3127,0.734303 -0.5303,1.06066 -0.1387,0.208013 -0.3742,0.335113 -0.5303,0.53033 -0.1328,0.165903 -0.2357,0.353554 -0.3536,0.53033 0,0.05893 0.026,0.124077 0,0.176777 -0.2178,0.435588 -0.7899,0.962899 -1.0607,1.414214 -0.1355,0.225969 -0.1672,0.520767 -0.3535,0.707106 -0.4176,0.417384 0.093,-0.986008 -0.3536,0.353554 -0.037,0.111803 0.037,0.24175 0,0.353553 -0.4265,1.280467 0.051,-0.278707 -0.3535,0.53033 -0.1651,0.330163 0.1376,0.89339 0,1.237437 -0.23,0.574958 -0.4165,0.668401 -0.5303,1.237437 -0.046,0.229993 0.087,0.666686 0,0.883884 -0.079,0.197263 -0.2586,0.3403 -0.3536,0.53033 -0.3021,0.6042 -0.397,1.32435 -0.7071,1.944544 -0.1687,0.33747 -0.4978,0.56994 -0.7071,0.88388 -0.1038,0.15505 -0.022,0.42697 -0.1768,0.53033 -0.155,0.10338 -0.3986,0.045 -0.5303,0.17678 -0.083,0.0833 0.053,0.24814 0,0.35355 -0.026,0.0527 -0.1238,-0.0264 -0.1768,0 -0.1491,0.0745 -0.2149,0.26106 -0.3535,0.35356 -0.2193,0.14617 -0.5208,0.16721 -0.7072,0.35355 -0.2429,0.24296 -0.2554,0.67773 -0.5303,0.88388 -0.1491,0.11178 -0.3753,0.0734 -0.5303,0.17678 -0.049,0.0327 0.033,0.12778 0,0.17678 -0.2266,0.33995 -0.6573,0.54392 -0.8839,0.88388 -0.033,0.049 0.042,0.13508 0,0.17678 -0.1088,0.10887 -0.751,0.11037 -0.8839,0.17677 -0.1491,0.0745 0.3861,0.67367 -0.3535,0.35356 -1.986,0.22066 -4.831,0 -6.8943,0 -1.0261,0 -2.0383,-0.0649 -3.0052,0.17677 -0.3257,0.0814 -0.743,-0.10588 -1.0607,0 -0.3267,0.1089 -1.567,1.71972 -1.7678,2.12132 -0.081,0.16188 0.023,0.79189 0,0.88389 -0.081,0.32406 -0.3867,0.29104 -0.5303,0.53033 -0.1248,0.20833 -0.1,0.47662 -0.1768,0.7071 -0.2442,0.7327 -0.3535,1.17212 -0.3535,1.94455 0,0.40372 -0.1243,1.99698 0.1768,2.29809 0.2062,0.20628 0.8544,-0.0295 1.0606,0.17678 0.2946,0.29463 -0.6482,0.17678 0.3536,0.17678 0.053,0.0264 -0.042,0.13507 0,0.17677 0.093,0.0932 0.2357,0.11788 0.3535,0.17678 0,0.0589 -0.042,0.13508 0,0.17678 0.071,0.071 0.4304,-0.0333 0.5304,0 0.5955,0.19847 1.8077,0.34356 2.4748,0.17677 0.3639,-0.091 0.6968,-0.26255 1.0607,-0.35355 0.2287,-0.0572 0.4784,0.0572 0.7071,0 0.2646,-0.0661 0.6938,-0.43523 0.8839,-0.53033 0.2838,-0.14191 0.8239,0.661 0.8839,-0.35355 0.1027,-0.0823 0.071,-0.27446 0.1767,-0.35356 0.083,-0.0624 0.9154,-0.48193 1.0607,-0.53033 0.1677,-0.0559 0.4053,0.125 0.5303,0 0.2084,-0.20833 0.2668,-0.57534 0.5304,-0.7071 0.1666,-0.0834 0.3753,-0.0734 0.5303,-0.17678 0.049,-0.0327 -0.026,-0.12408 0,-0.17678 0.2473,-0.49455 1.8596,-1.56039 2.2981,-1.41421 0.056,0.0186 -0.053,0.15048 0,0.17678 0.1054,0.0527 0.2481,-0.0527 0.3535,0 0.053,0.0264 -0.026,0.12407 0,0.17677 0.1972,0.39441 0.6412,0.69661 0.8839,1.06066 0.3002,0.45032 0.5869,1.35193 0.8839,1.76777 0.3179,0.44501 1.123,1.36661 1.591,1.76777 0.1613,0.13826 0.3801,0.20332 0.5303,0.35355 0.3255,0.32543 0.5893,0.70711 0.8839,1.06066 0.1179,0.2357 0.1672,0.52077 0.3536,0.70711 0.5172,0.51723 0.7092,0.21339 1.2374,0.53033 0.3235,0.19412 0.594,0.46556 0.8839,0.70711 0.5955,0.49626 1.2202,1.28058 1.9445,1.59099 0.2233,0.0957 0.4988,0.0518 0.7071,0.17677 1.0766,0.64594 -0.4619,0.12261 0.3536,0.53033 0.3333,0.16667 0.7273,0.18689 1.0607,0.35356 1.6634,0.83171 3.477,1.66476 5.3033,2.12132 0.343,0.0858 0.7139,-0.0693 1.0606,0 0.5368,0.10735 1.0348,0.43763 1.591,0.53033 0.926,0.15437 1.9023,0.0224 2.8284,0.17677 0.6977,0.11627 1.2791,0.36396 1.9446,0.53033 0.4956,0.12391 1.3222,-0.0557 1.7677,0 0.4034,0.0504 0.7969,0.30456 1.2375,0.35356 0.5246,0.0583 1.2422,-0.1314 1.7677,0 0.3616,0.0904 0.694,0.28685 1.0607,0.35355 0.1657,0.0301 2.0403,0.16778 2.1213,0.17678 0.6323,0.0702 1.1527,-0.0693 1.7678,0.17677 0.5083,0.20333 0.5499,0.54991 0.8839,0.88389 0.093,0.0932 0.2605,0.0836 0.3535,0.17677 0.3897,0.38969 0.505,1.03534 0.8839,1.41422 0.042,0.0417 0.1348,-0.0417 0.1768,0 0.6501,0.65027 -0.5,0.12796 0.7071,0.53033 0.049,0.0327 -0.033,0.12777 0,0.17677 0.092,0.13868 0.2357,0.23571 0.3536,0.35356 0.8944,0.89443 1.3748,1.39451 2.4748,1.94454 0.1178,0.0589 0.052,0.31185 0.1768,0.35355 0.1677,0.0559 0.3758,-0.0858 0.5303,0 0.4023,0.22351 0.7071,0.58926 1.0607,0.88389 0.1178,0.0589 0.2357,0.11787 0.3535,0.17677 0,0.0589 -0.042,0.13508 0,0.17678 0.243,0.24296 0.62,0.31037 0.8839,0.53033 0.1921,0.16005 0.3304,0.38033 0.5304,0.53033 0.3093,0.23198 0.8932,0.43177 1.2374,0.70711 0.048,0.0386 1.3822,1.17393 1.4142,1.23743 0.026,0.0527 -0.042,0.13508 0,0.17678 0.083,0.0833 0.2596,-0.0707 0.3536,0 0.2,0.15 0.3159,0.40171 0.5303,0.53033 0.101,0.0606 0.2525,-0.0606 0.3535,0 0.2144,0.12863 0.3383,0.37029 0.5304,0.53033 0.4669,0.38907 1.2029,0.65796 1.7677,0.88389 0.5813,0.23247 1.2392,-0.0347 1.7678,0.17677 1.074,0.42961 2.0481,0.95397 3.182,1.23744 2.4339,0.60847 0.3874,0.004 1.7678,0.17678 0.9307,0.11634 1.7207,0.57411 2.6516,0.7071 0.5862,0.0838 1.2056,-0.2224 1.7678,0.17678 0.5088,0.10177 0.9053,0.42856 1.4142,0.53033 0.5051,0.10103 1.0918,-0.1248 1.591,0 0.1278,0.032 0.2257,0.14478 0.3535,0.17678 0.3257,0.0814 0.743,-0.10589 1.0607,0 0.4257,0.14191 0.8076,0.40137 1.2374,0.53033 0.2822,0.0847 0.6044,-0.0932 0.8839,0 0.079,0.0263 0.098,0.15047 0.1768,0.17677 0.1118,0.0373 0.2392,-0.0286 0.3535,0 0.7378,0.18444 1.6038,0.60615 2.2981,0.88389 0.2947,0.11785 0.6199,0.17753 0.8839,0.35355 0.208,0.13867 0.2932,0.45123 0.5304,0.53033 0.1118,0.0373 0.2481,-0.0527 0.3535,0 0.1491,0.0745 0.2106,0.26785 0.3536,0.35355 0.1597,0.0959 0.3636,0.0935 0.5303,0.17678 0.1491,0.0745 0.2149,0.26105 0.3535,0.35355 0.4386,0.29236 0.9623,0.43595 1.4143,0.70711 0.2526,0.15158 0.4435,0.39857 0.7071,0.53033 0.1054,0.0527 0.2481,-0.0527 0.3535,0 0.2635,0.13176 0.4545,0.37875 0.7071,0.53033 0.5375,0.32251 1.3758,0.56788 1.9446,0.88388 0.2575,0.14309 0.4436,0.39857 0.7071,0.53033 0.2173,0.10868 0.4838,0.0811 0.7071,0.17678 0.4844,0.20761 0.9428,0.4714 1.4142,0.70711 0.5583,0.27916 1.0264,0.77837 1.591,1.06066 0.2173,0.10867 0.4714,0.11787 0.7071,0.17677 0.059,0 0.1208,-0.0186 0.1768,0 0.9862,0.32874 1.862,1.02768 2.8284,1.41422 0.2188,0.0875 0.4784,-0.0572 0.7071,0 0.1617,0.0404 0.2045,0.27905 0.3536,0.35355 0.2794,0.13978 0.753,0.0743 1.0606,0.17678 0.4776,0.15921 0.8205,0.6562 1.4142,0.53033 1.6654,0.46261 3.4313,0.81848 5.1266,1.06066 0.2333,0.0333 0.4759,-0.0462 0.7071,0 0.9136,0.18272 1.7677,0.58925 2.6516,0.88388 0.2851,0.095 0.6049,0.0652 0.8839,0.17678 0.1973,0.0789 0.3242,0.30205 0.5303,0.35355 0.2859,0.0715 0.5922,-0.0417 0.8839,0 0.1304,0.0186 0.2231,0.15818 0.3536,0.17678 0.7232,0.10337 1.5855,-10e-4 2.2981,0.17677 0.3431,0.0858 0.567,0.4036 0.8838,0.53033 0.506,0.20239 1.2255,-0.10845 1.7678,0 0.1292,0.0259 0.2244,0.15098 0.3536,0.17678 0.4802,0.0961 1.8236,-0.19846 2.1213,0 0.1387,0.0925 0.1954,0.30085 0.3535,0.35355 0.2236,0.0745 0.4723,-0.0196 0.7071,0 1.1968,0.0997 1.7853,0.28986 2.8285,0.70711 0.1967,0.0787 0.5215,0.084 0.7071,0.17678 1.6674,0.83371 -0.039,0.0331 0.7071,0.53033 0.2751,0.18343 0.8475,0.28165 1.0606,0.53033 0.2766,0.32262 0.4248,0.74307 0.7071,1.06066 0.91,1.02369 2.4456,1.43126 3.3588,2.47487 0.2263,0.25858 0.3397,0.598 0.5303,0.88389 0.1813,0.27196 0.5258,0.43514 0.7071,0.7071 0.6893,1.03384 0.8301,1.16048 1.4143,2.47488 0.107,0.24081 0.2895,0.45145 0.3535,0.7071 0.1751,0.70045 0.4894,2.05996 0.8839,2.65165 0.4933,0.74002 0.4218,0.59232 0.7071,1.59099 0.172,0.60207 0.9654,1.64537 1.4142,1.94455 0.1096,0.0731 0.2606,0.0836 0.3536,0.17677 0.083,0.0833 -0.065,0.25546 0,0.35356 0.2394,0.35919 0.5084,0.66338 0.7071,1.06066 0.053,0.10541 -0.083,0.27025 0,0.35355 0.093,0.0932 0.2745,0.0714 0.3535,0.17678 0.64,0.85328 -0.093,0.21045 0.1768,0.88388 0.079,0.19726 0.2746,0.33307 0.3536,0.53033 0.093,0.23205 0.1288,4.96482 0,5.48008 -0.041,0.16336 -0.2996,0.36891 -0.3536,0.53033 -0.037,0.1118 0.037,0.24175 0,0.35355 -0.053,0.15812 -0.2795,0.20448 -0.3535,0.35356 -0.366,0.73185 -0.6368,1.6622 -1.0607,2.29809 -0.2776,0.41635 -0.8039,0.67742 -0.8839,1.23744 -0.042,0.29167 0,0.58926 0.2652,0.97227 0.6187,-0.0884 0.9472,-0.32836 1.3258,-0.44194 0.1339,-0.0402 4.1637,-0.27551 4.2426,-0.17678 0.2147,0.2683 0.3104,0.61993 0.5304,0.88389 0.084,0.10122 0.2604,0.0836 0.3535,0.17677 0.042,0.0417 -0.026,0.12408 0,0.17678 0.1318,0.26352 0.3536,0.4714 0.5304,0.70711 0.3959,0.52797 1.0182,0.88624 1.4142,1.41421 0.079,0.10541 0.084,0.26038 0.1767,0.35355 0.4383,0.43825 0.4654,0.25134 0.8839,0.53033 0.5396,0.35973 0.8194,0.89753 1.4142,1.23744 0.1618,0.0925 0.3686,0.0843 0.5304,0.17678 0.6908,0.39476 1.2868,0.97575 1.9445,1.41421 0.5048,0.33652 1.1057,0.51988 1.591,0.88388 0.5882,0.44113 1.1434,0.82117 1.7678,1.23744 0.208,0.13868 0.3351,0.37416 0.5303,0.53033 0.622,0.49757 0.7372,0.30363 1.4142,0.88388 0.9401,0.80582 1.7348,1.5745 2.8284,2.12133 0.3852,0.19258 0.9767,0.10385 1.4143,0.17677 0.5313,0.0886 1.4691,0.29262 1.9445,0.53033 0.074,0.0373 0.095,0.16308 0.1768,0.17678 0.5231,0.0872 1.0709,-0.10401 1.591,0 0.082,0.0163 0.1022,0.13951 0.1767,0.17678 0.2371,0.11855 0.6611,0.0653 0.8839,0.17677 0.1754,0.0877 0.3472,0.29252 0.5304,0.35356 0.1677,0.0559 0.4053,-0.125 0.5303,0 0.042,0.0417 -0.053,0.15042 0,0.17677 0.1178,0.0589 0.4037,-0.0808 0.5303,0 0.3502,0.2236 0.4922,0.15056 0.6187,0.26517 0.4305,0.0884 1.2137,-0.0668 1.6794,0.0884 z"
         id="path170" />
    </g>
  </g>
</svg>
