<?xml version="1.0" encoding="UTF-8" standalone="no"?>
<!-- Created with Inkscape (http://www.inkscape.org/) -->

<svg
   version="1.1"
   id="svg1"
   width="183.31252"
   height="115.25647"
   viewBox="0 0 183.31252 115.25647"
   xmlns="http://www.w3.org/2000/svg"
   xmlns:svg="http://www.w3.org/2000/svg">
  <defs
     id="defs1" />
  <g
     id="layer1"
     style="display:inline"
     transform="translate(-955.68748,-380.55602)">
    <g
       id="layer20"
       style="display:inline;fill:#ffffff;fill-opacity:1;stroke:none">
      <path
         style="fill:#ffffff;fill-opacity:1;stroke:none;stroke-width:1;stroke-linecap:round;stroke-dasharray:none;stroke-opacity:1"
         d="m 964.06248,437.24999 3.0625,13.5625 3.25,9.0625 -6.5625,11.125 -1.9375,11.9375 -6.1875,12.875 51.62502,-8.5 3.75,-4 13.375,-4.6875 4.8125,-0.25 2.625,-4.5 22.375,-0.8125 7.8125,-6.6875 3.9375,-0.6875 8.25,-5.4375 30.875,-10.875 27.5625,-3.625 6.3125,0.4375 -0.062,-4.0625 -3.5625,-5 -1.0432,-11.84447 -2.4748,-3.04939 -1.7678,-4.81717 -5.0823,-4.68458 -0.7071,-10.07627 -1.591,-3.88909 0.5303,-5.65685 6.4081,-6.27558 -4.9055,-6.27557 -9.325,7.99915 -0.7513,3.09359 -5.5684,4.11006 -20.7271,3.8007 -7.9108,6.8059 -14.3189,5.83363 -10.2972,12.46276 -15.468,6.09879 -9.5901,-2.2981 -15.3354,-5.87782 -9.4134,-1.5026 -8.7062,-3.88909 -16.39604,-3.09359 -4.02763,5.15059 -1.75,5.8125 -4.09375,11.1875 z"
         id="path18" />
    </g>
  </g>
</svg>
