<?xml version="1.0" encoding="UTF-8" standalone="no"?>
<!-- Created with Inkscape (http://www.inkscape.org/) -->

<svg
   version="1.1"
   id="svg2"
   width="184.07071"
   height="114.87729"
   viewBox="0 0 184.07071 114.87729"
   xmlns="http://www.w3.org/2000/svg"
   xmlns:svg="http://www.w3.org/2000/svg">
  <defs
     id="defs6">
    <linearGradient
       id="swatch77">
      <stop
         style="stop-color:#e2c69e;stop-opacity:1;"
         offset="0"
         id="stop77" />
    </linearGradient>
  </defs>
  <g
     id="layer66"
     style="display:inline"
     transform="translate(-956.125,-380.71606)">
    <g
       id="layer61"
       style="display:inline">
      <path
         style="fill:#969696;fill-opacity:1;stroke:none;stroke-opacity:1"
         d="m 1007.875,487.5 c 0.1645,-0.43858 2.1196,-2.55915 2.625,-2.875 0.4163,-0.26022 0.8524,-0.45178 1.25,-0.75 0.1741,-0.13059 0.3065,-0.40325 0.5,-0.5 0.074,-0.0373 0.1755,0.0373 0.25,0 0.15,-0.075 0.225,-0.3 0.375,-0.375 0.4262,-0.21309 1.0391,-0.30915 1.5,-0.375 0.165,-0.0236 0.3419,0.0527 0.5,0 0.1118,-0.0373 0.1382,-0.21273 0.25,-0.25 0.079,-0.0263 0.1709,0.0263 0.25,0 0.2068,-0.0689 0.118,-0.31076 0.375,-0.375 0.6416,-0.16039 0.1235,0.25075 0.875,-0.125 0.037,-0.0186 -0.037,-0.10637 0,-0.125 0.1537,-0.0768 0.3463,-0.0482 0.5,-0.125 0.1054,-0.0527 0.1519,-0.18463 0.25,-0.25 0.069,-0.0462 0.1755,0.0373 0.25,0 0.053,-0.0263 0.083,-0.0833 0.125,-0.125 0.125,-0.0833 0.2355,-0.19421 0.375,-0.25 0.077,-0.031 0.1726,0.031 0.25,0 0.1395,-0.0558 0.2355,-0.19421 0.375,-0.25 0.3102,-0.12407 0.9313,-0.15896 1.25,-0.25 0.5741,-0.16402 1.179,-0.3858 1.75,-0.5 0.1226,-0.0245 0.2564,0.0395 0.375,0 0.039,-0.0132 -0.035,-0.10189 0,-0.125 0.1867,-0.12447 0.405,-0.206 0.625,-0.25 0.1226,-0.0245 0.25,0 0.375,0 0.2917,-0.125 0.574,-0.27465 0.875,-0.375 0.2619,-0.0873 0.7595,-0.005 1,-0.125 0.1863,-0.0932 0.3137,-0.28183 0.5,-0.375 0.074,-0.0373 0.1692,0.0202 0.25,0 0.2448,-0.0612 0.4196,-0.2723 0.625,-0.375 0.1747,-0.0874 0.5593,-0.20233 0.75,-0.25 0.2481,-0.062 1.9055,0.0945 2,0 0.066,-0.0659 0.039,-0.2154 0.125,-0.25 0.264,-0.10559 0.6088,0.0887 0.875,0 0.9054,-0.30181 -0.1971,0.036 0.375,-0.25 0.074,-0.0373 0.1911,0.0589 0.25,0 0.03,-0.0295 0,-0.0833 0,-0.125 0.042,-0.0417 0.076,-0.0923 0.125,-0.125 0.2125,-0.1417 0.3648,-0.10467 0.5,-0.375 0.125,-0.25 -0.062,-0.1875 0,-0.375 0.085,-0.25499 0.2678,-0.41056 0.375,-0.625 0.079,-0.15871 -0.055,-0.45887 0,-0.625 0.019,-0.0559 0.099,-0.0723 0.125,-0.125 0.082,-0.16406 0.065,-0.44469 0.125,-0.625 0.3018,-0.90543 -0.036,0.19707 0.25,-0.375 0.019,-0.0373 -0.03,-0.0955 0,-0.125 0.03,-0.0295 0.1064,0.0373 0.125,0 0.037,-0.0745 -0.037,-0.17547 0,-0.25 0.027,-0.0547 1.1065,-0.49472 1.125,-0.5 0.5293,-0.15124 1.3064,0 1.875,0 h 4 c 0.4599,0 1.1069,0.13103 1.5,0 0.054,-0.018 0.6125,-0.24687 0.625,-0.25 0.1213,-0.0303 0.2537,0.0303 0.375,0 0.1426,-0.0356 0.3288,-0.20721 0.5,-0.25 0.3007,-0.0752 0.7259,0.012 1,-0.125 0.5903,-0.29514 -0.763,0.0657 0.5,-0.25 0.344,-0.086 0.52,0.0525 0.875,-0.125 0.2307,-0.11536 3.1608,0 3.5,0 h 4.125 c 0.318,0 1.6544,0.11028 1.875,0 0.037,-0.0186 -0.019,-0.0877 0,-0.125 0.1382,-0.27638 0.078,-0.0388 0.25,-0.125 0.5202,-0.26011 -0.1336,0.009 0.125,-0.25 0.1365,-0.13651 0.6823,-0.24655 0.875,-0.375 0.098,-0.0654 0.1446,-0.1973 0.25,-0.25 0.074,-0.0373 0.1755,0.0373 0.25,0 0.5721,-0.28604 -0.5304,0.0518 0.375,-0.25 0.079,-0.0263 0.1807,0.0462 0.25,0 0.3041,-0.20274 0.5321,-0.45356 0.875,-0.625 0.2687,-0.13438 1.2435,-0.49354 1.375,-0.625 0.03,-0.0295 -0.03,-0.0955 0,-0.125 0.062,-0.0625 0.3,0.05 0.375,0 0.098,-0.0654 0.1519,-0.18463 0.25,-0.25 0.1442,-0.0962 0.4808,0.0962 0.625,0 0.098,-0.0654 0.1846,-0.15194 0.25,-0.25 0.023,-0.0347 -0.037,-0.10637 0,-0.125 0.074,-0.0373 0.1755,0.0373 0.25,0 0.037,-0.0186 -0.03,-0.0955 0,-0.125 0.274,-0.274 0.7195,-0.46954 1,-0.75 0.03,-0.0295 -0.03,-0.0955 0,-0.125 0.4252,-0.42525 1.0197,-0.76478 1.5,-1.125 0.1597,-0.30318 0.5174,-0.21996 0.75,-0.375 0.035,-0.0231 -0.03,-0.0955 0,-0.125 0.1692,-0.16923 0.6601,-0.39254 0.875,-0.5 0.074,-0.0373 0.1911,0.0589 0.25,0 0.03,-0.0295 -0.03,-0.0955 0,-0.125 0.073,-0.0727 0.3949,-0.0725 0.5,-0.125 0.1344,-0.0672 0.25,-0.16667 0.375,-0.25 0.3578,-0.23857 1.2365,-1.10481 1.5,-1.5 0.1465,-0.21979 0.3153,-0.56533 0.5,-0.75 0.03,-0.0295 0.083,0 0.125,0 0.083,-0.0833 0.1846,-0.15194 0.25,-0.25 0.023,-0.0347 -0.03,-0.0955 0,-0.125 0.03,-0.0295 0.088,0.0186 0.125,0 0.1054,-0.0527 0.1446,-0.1973 0.25,-0.25 0.2766,-0.13831 0.6121,-0.11853 0.875,-0.25 0.1877,-0.0938 0.5566,0.0645 0.75,0 0.04,-0.0132 -0.03,-0.0955 0,-0.125 0.1147,-0.11468 1.3916,-0.50828 1.625,-0.625 0.1054,-0.0527 0.1446,-0.1973 0.25,-0.25 0.037,-0.0186 0.083,0 0.125,0 0.125,-0.0417 0.2654,-0.0519 0.375,-0.125 0.035,-0.0231 -0.04,-0.11183 0,-0.125 0.1581,-0.0527 0.3821,0.11785 0.5,0 0.03,-0.0295 0,-0.0833 0,-0.125 0.083,0 0.1755,0.0373 0.25,0 0.083,-0.0417 0.042,-0.20833 0.125,-0.25 0.098,-0.049 0.6507,-0.15066 0.75,-0.25 0.1587,-0.15874 0.392,-0.625 0.3125,-0.5 -0.1042,0.0833 0.1136,0.0746 0.3125,0 0.5881,-0.22055 1.5224,-0.87686 2.125,-1.125 1.3049,-0.53731 2.6729,-0.80763 4,-1.25 0.7709,-0.25696 1.4651,-0.80376 2.25,-1 0.4918,-0.12294 1.0029,-0.15059 1.5,-0.25 0.9243,-0.18485 1.8498,-0.47995 2.75,-0.75 0.2149,-0.0645 0.4243,-0.14965 0.625,-0.25 0.1344,-0.0672 0.2293,-0.21356 0.375,-0.25 0.2021,-0.0505 0.4195,0.0342 0.625,0 1.7387,-0.28979 0.114,-0.15351 1.5,-0.5 1.0252,-0.25631 2.2216,-0.3286 3.25,-0.5 1.4095,-0.23492 2.8316,-0.58313 4.25,-0.75 0.8545,-0.10053 0.5966,0.13446 1.375,-0.125 2.1388,-0.71293 4.2019,-1.61085 6.375,-2.25 0.1199,-0.0353 0.2537,0.0303 0.375,0 0.6147,-0.15369 1.1574,-0.55247 1.75,-0.75 1.0504,-0.35014 2.1821,-0.48303 3.25,-0.75 0.2177,-0.0544 0.4167,-0.16667 0.625,-0.25 0.4583,-0.125 0.9112,-0.27194 1.375,-0.375 1.3227,-0.29394 2.6767,-0.36035 4,-0.625 1.3723,-0.27446 0.1228,-0.26023 1.5,-0.375 0.2491,-0.0208 0.5022,0.033 0.75,0 0.3808,-0.0508 0.7474,-0.17921 1.125,-0.25 0.3172,-0.0595 1.2801,-0.16377 1.625,-0.25 0.7343,-0.18357 1.3584,-0.66482 2.125,-0.75 0.2071,-0.023 0.4195,0.0342 0.625,0 0.8736,-0.14561 1.7482,-0.28732 2.625,-0.375 1.4306,-0.14306 2.9349,0 4.375,0 1.0392,0 2.2188,0.14731 3.25,0 0.5731,-0.0819 1.1907,-0.3757 1.75,-0.5 0.5918,-0.1315 1.1661,0.0839 1.75,-0.6875 0.801,-0.49454 0.7887,-0.8641 1.125,-1.3125 0.071,-0.0943 0.2176,-0.13668 0.25,-0.25 0.1495,-0.52318 0.04,-1.75369 -0.125,-2.25 -0.2453,-0.736 -1.0245,-1.40563 -1.5,-2 -0.026,-0.0325 0.03,-0.0955 0,-0.125 -0.01,-0.008 -0.9453,-0.84766 -1,-0.875 -0.1537,-0.0768 -0.3391,-0.0647 -0.5,-0.125 -1.0358,-0.38843 -0.096,-0.064 -0.75,-0.5 -0.4228,-0.28185 -0.3876,-0.0813 -0.75,-0.625 -0.065,-0.0981 -0.2127,-0.1382 -0.25,-0.25 -0.026,-0.0791 0.02,-0.16916 0,-0.25 0.075,-0.22624 -0.2025,-0.23248 -0.25,-0.375 -0.088,-0.26424 -0.2483,-1.75343 -0.125,-2 0.1906,-0.3812 0.099,0.22862 0.25,-0.375 0.098,-0.39216 -0.098,-0.85784 0,-1.25 0.045,-0.18078 0.2048,-0.31923 0.25,-0.5 0.1226,-0.49023 0,-1.11728 0,-1.3125 0.042,-0.0208 0.125,-0.35157 0.125,-0.6875 0,-0.24543 -0.2979,-1.54433 -0.375,-1.75 -0.053,-0.14067 -0.1973,-0.23434 -0.25,-0.375 -0.1583,-0.42224 -0.1096,-0.95379 -0.25,-1.375 -0.047,-0.14252 -0.1828,-0.24063 -0.25,-0.375 -0.056,-0.1118 0.03,-0.25373 0,-0.375 -0.099,-0.39501 -0.2442,-0.85764 -0.375,-1.25 -0.243,-0.72888 -0.5722,-1.41376 -0.75,-2.125 -0.1447,-0.57887 -0.6965,-1.08935 -0.875,-1.625 -0.026,-0.0791 0.037,-0.17547 0,-0.25 -0.042,-0.083 -0.6803,-0.93025 -0.75,-1 -0.03,-0.0295 -0.095,0.0295 -0.125,0 -0.4878,-0.48784 0.029,-0.0671 -0.125,-0.375 -0.082,-0.16465 -0.2927,-0.33535 -0.375,-0.5 -0.1003,-0.20069 -0.1346,-0.4326 -0.25,-0.625 -0.021,-0.0357 -0.083,0 -0.125,0 -0.083,-0.0833 -0.2062,-0.14058 -0.25,-0.25 -0.046,-0.11606 0.056,-0.2632 0,-0.375 -0.1594,-0.31889 -0.4713,-0.44269 -0.625,-0.75 -0.037,-0.0745 0.026,-0.17094 0,-0.25 -0.1727,-0.51805 -0.8296,-0.98887 -1,-1.5 -0.026,-0.0791 0.046,-0.18066 0,-0.25 -0.052,-0.0775 -0.1841,-0.0591 -0.25,-0.125 -0.1062,-0.10623 -0.1502,-0.26272 -0.25,-0.375 -0.4976,-0.5598 -1.1554,-1.03797 -1.625,-1.625 -0.097,-0.12137 -0.1551,-0.49842 -0.25,-0.625 -1.1223,-1.49639 0.1263,0.12585 -0.625,-0.375 -0.1703,-0.1135 -0.4147,-0.70447 -0.5,-0.875 -0.073,-0.14591 -0.3146,-0.22407 -0.375,-0.375 -0.4199,-1.04967 0.091,-2.29497 -0.125,-3.375 -0.085,-0.42405 -0.319,-0.67685 -0.375,-1.125 -0.076,-0.6066 0.1138,-0.52233 -0.125,-1 -0.3989,-0.79788 -0.4101,-1.14024 -0.625,-2 -0.045,-0.18078 -0.1911,-0.32322 -0.25,-0.5 -0.09,-0.27109 -0.1562,-0.59369 -0.25,-0.875 -0.1681,-0.50432 -0.012,-0.54891 -0.125,-1 -0.014,-0.0572 -0.099,-0.0723 -0.125,-0.125 -0.1159,-0.23171 0,-2.06401 0,-2.375 0,-0.60655 -0.1455,-1.41806 0,-2 0.014,-0.0572 0.1031,-0.0703 0.125,-0.125 0.064,-0.15951 0.048,-0.34634 0.125,-0.5 0.2054,-0.41074 0.459,-0.58504 0.625,-1 0.031,-0.0774 -0.026,-0.17094 0,-0.25 0.052,-0.15529 0.3359,-0.34355 0.375,-0.5 0.03,-0.12127 -0.03,-0.25373 0,-0.375 0.082,-0.32981 0.5739,-0.70649 0.75,-1 0.068,-0.11299 0.066,-0.25715 0.125,-0.375 0.1586,-0.31716 0.7665,-1.01653 1,-1.25 0.1126,-0.11264 0.4759,-0.17548 0.625,-0.25 0.3092,-0.15461 0.9841,-0.78726 1.25,-1 0.4932,-0.39455 0,0.25299 0.625,-0.375 0.125,-0.16667 0.25,-0.33333 0.375,-0.5 0,-0.0417 -0.019,-0.0877 0,-0.125 0.1351,-0.27024 0.4899,-0.47976 0.625,-0.75 0.056,-0.1118 0,-0.25 0,-0.375 0,-0.27567 0.088,-0.73674 0,-1 -0.079,-0.23561 -0.3922,-0.40943 -0.5,-0.625 -0.037,-0.0745 0.037,-0.17547 0,-0.25 -0.1151,-0.23013 -0.2599,-0.0199 -0.375,-0.25 -0.037,-0.0745 0.037,-0.17547 0,-0.25 -0.2601,-0.52022 0.01,0.13363 -0.25,-0.125 -0.103,-0.10298 0.01,-0.25 -0.3125,0 -0.2261,-0.71143 -0.8777,-1.13366 -1.5625,-1.75 -0.7059,-0.63529 -0.7811,-0.70307 -1.625,-1.125 -0.7653,-0.38267 -1.8846,-1.26923 -2.75,-0.75 -0.258,0.15478 -1.158,0.79945 -1.375,1.125 -0.052,0.0775 -0.059,0.18412 -0.125,0.25 -0.066,0.0659 -0.1772,0.0668 -0.25,0.125 -0.5947,0.47573 -1.0464,1.12909 -1.625,1.625 -0.389,0.33341 -1.3809,0.96812 -1.625,1.375 -0.096,0.15978 -0.1336,0.35449 -0.25,0.5 -0.058,0.0727 -0.1841,0.0591 -0.25,0.125 -0.2258,0.22579 -0.6021,0.86614 -0.75,1.125 -0.092,0.16179 -0.1911,0.32322 -0.25,0.5 -0.04,0.11858 0.069,0.27099 0,0.375 -0.071,0.16917 -0.2769,0.22791 -0.375,0.375 -0.3246,0.48685 -0.3125,1.15629 -0.625,1.625 -0.023,0.0347 -0.1019,-0.0347 -0.125,0 -0.176,0.26403 -0.2117,0.6029 -0.375,0.875 -0.061,0.10106 -0.1973,0.14459 -0.25,0.25 -0.019,0.0373 0.03,0.0955 0,0.125 -0.03,0.0295 -0.095,-0.0295 -0.125,0 -0.1215,0.12148 -0.048,0.34634 -0.125,0.5 -0.1193,0.23863 -0.3676,0.39335 -0.5,0.625 -0.065,0.1144 -0.041,0.27378 -0.125,0.375 -0.3719,0.44624 -1.2227,0.90514 -1.625,1.25 -0.032,0.0271 0.035,0.10189 0,0.125 -0.1096,0.0731 -0.2572,0.0661 -0.375,0.125 -0.3961,0.19804 -0.7724,0.61055 -1.125,0.875 -0.1491,0.1118 -0.345,0.14664 -0.5,0.25 -0.1663,0.11088 -0.2578,0.38281 -0.375,0.5 -0.03,0.0295 -0.088,-0.0186 -0.125,0 -0.1344,0.0672 -0.2548,0.15986 -0.375,0.25 -0.1202,0.0901 -0.2688,0.14377 -0.375,0.25 -0.03,0.0295 0.035,0.10189 0,0.125 -0.1096,0.0731 -0.2572,0.0661 -0.375,0.125 -0.1581,0.0791 -0.2336,0.26893 -0.375,0.375 -0.2227,0.16701 -0.3936,0.0957 -0.625,0.25 -0.4383,0.29217 -0.8701,0.33171 -1.375,0.5 -0.8766,0.2922 -1.5734,0.40734 -2.5,0.5 -0.3731,0.0373 -0.7529,-0.0465 -1.125,0 -0.7461,0.0933 -1.4903,0.18669 -2.25,0.25 -1.0594,0.0883 -2.2022,-0.17464 -3.25,0 -0.7607,0.12678 -1.4847,0.27933 -2.25,0.375 -0.6345,0.0793 -1.3679,0 -2,0 -0.7031,0 -3.7294,-0.19779 -4.375,0.125 -0.3884,0.19418 -1.0441,0.83983 -1.25,1 -0.073,0.0572 -0.1894,0.0543 -0.25,0.125 -0.1955,0.22813 -0.3155,0.51283 -0.5,0.75 -0.1962,0.25224 -0.5687,0.47802 -0.75,0.75 -0.176,0.26403 -0.1846,0.62114 -0.375,0.875 -0.056,0.0745 -0.1841,0.0591 -0.25,0.125 -0.1265,0.12648 -0.1768,0.50296 -0.25,0.625 -0.1775,0.29588 -0.6621,0.75163 -0.875,1 -0.1917,0.2237 -0.3799,0.46157 -0.625,0.625 -0.035,0.0231 -0.095,-0.0295 -0.125,0 -0.1062,0.10623 -0.1438,0.26877 -0.25,0.375 -0.2856,0.28555 -0.674,0.40769 -1,0.625 -0.333,0.222 -0.482,0.60696 -0.75,0.875 -0.3519,0.35193 -1.6343,0.58644 -2.125,0.75 -0.2518,0.0839 -0.4905,0.32311 -0.75,0.375 -0.407,0.0814 -0.8654,0.0192 -1.25,0.25 -0.1011,0.0606 -0.1392,0.20972 -0.25,0.25 -0.361,0.13128 -0.7606,0.12852 -1.125,0.25 -0.2652,0.0884 -0.4931,0.2649 -0.75,0.375 -0.2525,0.1082 -0.6128,0.11889 -0.875,0.25 -0.053,0.0263 -0.067,0.11344 -0.125,0.125 -0.1634,0.0327 -0.3383,-0.0404 -0.5,0 -0.04,0.0101 0.03,0.0955 0,0.125 -0.3303,0.33026 -0.5978,0.0978 -0.875,0.375 -0.1667,0.16667 0.2083,0.125 0.125,-0.25 -0.1042,-0.3601 -0.5456,0.0426 -0.875,0.125 -0.081,0.0202 -0.1755,-0.0373 -0.25,0 -0.1054,0.0527 -0.1446,0.19729 -0.25,0.25 -0.1537,0.0768 -0.337,0.0707 -0.5,0.125 -0.2214,-0.0622 -0.2355,0.1942 -0.375,0.25 -0.1595,0.0638 -0.3421,0.0573 -0.5,0.125 -0.4031,0.17275 -0.8113,0.51532 -1.25,0.625 -0.081,0.0202 -0.1709,-0.0263 -0.25,0 -0.3287,0.10957 -0.9558,0.65431 -1.25,0.875 -0.074,0.0559 -0.1841,0.0591 -0.25,0.125 -0.3398,0.33984 -0.5853,0.86377 -0.875,1.25 -0.1937,0.2582 -0.6064,0.46278 -0.75,0.75 -0.077,0.15366 -0.048,0.34634 -0.125,0.5 -0.1581,0.31623 -0.5379,0.46716 -0.75,0.75 -0.3881,0.51746 -0.5908,1.18161 -0.875,1.75 -0.125,0.20833 -0.25,0.41667 -0.375,0.625 -0.042,0 -0.1,-0.0333 -0.125,0 -0.233,0.31069 -0.3448,0.84476 -0.625,1.125 -0.066,0.0659 -0.1841,0.0591 -0.25,0.125 -0.1718,0.17179 -0.2232,0.43528 -0.375,0.625 -0.2375,0.2969 -1.6661,1.79145 -1.875,1.875 -0.1595,0.0638 -0.3405,0.0612 -0.5,0.125 -0.016,0.006 -1.1042,0.85416 -1.25,1 -0.1062,0.10623 -0.1438,0.26877 -0.25,0.375 -0.2896,0.2896 -0.6419,0.32095 -1,0.5 -0.94,-0.3657 -0.2279,0.27694 -0.375,0.375 -0.1843,0.12287 -0.7083,0.16665 -0.875,0.25 -0.3892,0.1946 -0.7358,0.6804 -1.125,0.875 -0.074,0.0373 -0.1709,-0.0263 -0.25,0 -0.1307,0.0435 -1.2676,0.44632 -1.375,0.5 -0.037,0.0186 0.033,0.1 0,0.125 -0.047,0.0355 -1.4135,0.72404 -1.5,0.75 -0.3679,0.11038 -0.7606,0.12852 -1.125,0.25 -1.2417,0.4139 -2.4996,0.76773 -3.75,1.125 -0.08,0.0229 -0.1667,0 -0.25,0 -0.1667,0.0417 -0.3348,0.0778 -0.5,0.125 -0.6664,0.1904 -1.3155,0.51091 -2,0.625 -0.2877,0.048 -0.5856,-0.0362 -0.875,0 -0.3409,0.0426 -0.6581,0.21581 -1,0.25 -0.2488,0.0249 -0.5009,-0.0208 -0.75,0 -0.4671,-0.3544 -0.6611,0.19351 -1,0.25 -0.3533,0.0589 -0.7765,-0.0871 -1.125,0 -0.3349,0.0837 -0.6525,0.16312 -1,0.25 -0.5347,0.13368 -1.3208,0 -1.875,0 -0.3847,0 -0.8765,0.0934 -1.25,0 -0.2557,-0.0639 -0.4901,-0.20668 -0.75,-0.25 -0.8676,-0.1446 0.1871,0.22904 -0.875,-0.125 -0.3463,-0.11543 -0.6901,-0.37604 -1,-0.5 -0.5677,-0.22709 -1.1759,-0.39538 -1.75,-0.625 -0.2353,-0.0941 -0.5147,-0.0309 -0.75,-0.125 -0.4859,-0.19437 -0.01,-0.29336 -0.5,-0.375 -0.1644,-0.0274 -0.335,0.0236 -0.5,0 -0.3913,-0.0559 -0.7415,-0.27913 -1.125,-0.375 -0.5655,-0.14138 -1.0701,-0.27804 -1.625,-0.5 -0.3371,-0.13484 -0.7898,-0.13827 -1.125,-0.25 -0.056,-0.0186 -0.083,-0.0833 -0.125,-0.125 -0.125,-0.0417 -0.245,-0.10334 -0.375,-0.125 -0.1233,-0.0206 -0.2524,0.0245 -0.375,0 -0.7541,-0.15082 0.1013,-0.0595 -0.375,-0.25 -0.6374,-0.25497 -1.3515,-0.28383 -2,-0.5 -0.4939,-0.16462 -0.8982,-0.57119 -1.375,-0.75 -0.117,-0.0439 -0.2564,0.0395 -0.375,0 -0.1425,-0.0475 -0.2406,-0.18282 -0.375,-0.25 -0.3447,-0.17233 -0.7542,-0.17584 -1.125,-0.25 -0.1827,-0.0365 -0.3192,-0.20481 -0.5,-0.25 -0.081,-0.0202 -0.1692,0.0202 -0.25,0 -0.1871,-0.0468 -0.4906,-0.30779 -0.625,-0.375 -0.3986,-0.1993 -0.9766,-0.30078 -1.375,-0.5 -0.1344,-0.0672 -0.2325,-0.20249 -0.375,-0.25 -1,-0.33333 -0.056,0.11111 -0.5,0 -0.3383,0.21245 -0.3232,-0.19108 -0.5,-0.25 -0.079,-0.0263 -0.1667,0 -0.25,0 -0.2083,-0.0417 -0.4297,-0.0413 -0.625,-0.125 -0.1083,-0.0464 -0.1489,-0.18937 -0.25,-0.25 -0.4196,-0.25176 -0.5398,-0.01 -1,-0.125 -0.5421,0.136 -0.8243,-0.35809 -1.25,-0.5 -0.2104,-0.0701 -0.5375,0.0354 -0.75,0 -0.32,-0.0533 -0.5727,-0.32461 -0.875,-0.375 -0.2055,-0.0342 -0.4274,0.0659 -0.625,0 -0.5499,-0.18329 -1.076,-0.442 -1.625,-0.625 -0.1976,-0.0659 -0.4229,0.0505 -0.625,0 -0.4096,-0.10241 -1.4537,-0.59202 -1.875,-0.75 -0.284,-0.10651 -0.5978,-0.1268 -0.875,-0.25 -0.1077,-0.0479 -0.1667,-0.16667 -0.25,-0.25 -0.2917,-0.125 -0.5721,-0.28035 -0.875,-0.375 -0.3667,-0.11458 -0.7571,-0.13962 -1.125,-0.25 -0.056,-0.0169 -0.07,-0.10312 -0.125,-0.125 -0.2845,-0.11379 -1.10414,-0.45486 -1.375,-0.5 -0.1233,-0.0206 -0.25373,0.0303 -0.375,0 -0.2357,-0.0589 -0.39667,-0.29197 -0.625,-0.375 -1.91849,-0.69763 0.0925,0.1157 -1.625,-0.375 -0.2065,-0.059 -0.62444,-0.33324 -0.875,-0.375 -0.2466,-0.0411 -0.50962,0.0687 -0.75,0 -0.86842,-0.24812 -1.74436,-0.69887 -2.625,-0.875 -0.86563,-0.17313 0.22037,0.31877 -1,-0.125 -0.26268,-0.0955 -0.48829,-0.27686 -0.75,-0.375 -0.23408,-0.0878 -0.5034,0.0411 -0.75,0 -0.0919,-0.0153 -0.15864,-0.10673 -0.25,-0.125 -0.39851,-0.0797 -0.85675,0.0983 -1.25,0 -0.37957,-0.0949 -0.73551,-0.18509 -1.125,-0.25 -0.17486,-0.0291 -0.45015,-0.22086 -0.625,-0.25 -0.40241,-0.0671 -0.84988,0.08 -1.25,0 -0.59783,-0.11957 -1.1486,-0.39977 -1.75,-0.5 -0.22216,-0.037 -0.81328,0.12448 -1,0 -0.0981,-0.0654 -0.18463,-0.15194 -0.25,-0.25 -0.0231,-0.0347 0.0373,-0.10637 0,-0.125 -0.44597,0.0288 -0.22561,0.0244 -0.5,-0.25 -0.0295,-0.0295 -0.0955,0.0295 -0.125,0 -0.0295,-0.0295 0.0231,-0.0903 0,-0.125 -0.0654,-0.0981 -0.1973,-0.14459 -0.25,-0.25 -0.10882,-0.21764 0.14846,-0.5 -0.1875,-0.5 -0.54564,0.51551 -1.62861,1.05577 -2.0625,1.75 -0.2175,0.34799 -0.3035,0.76474 -0.5,1.125 -0.51455,0.94334 -1.15777,1.84831 -1.5,2.875 -0.0934,0.28026 -0.18704,1.12315 -0.25,1.375 -0.0678,0.27116 -0.2649,0.49309 -0.375,0.75 -0.0417,0.125 -0.0833,0.25 -0.125,0.375 0,0.0833 0.0263,0.17094 0,0.25 -0.0589,0.17678 -0.19108,0.32322 -0.25,0.5 -0.0263,0.0791 0.0202,0.16915 0,0.25 -0.16143,0.64572 -0.37968,1.21322 -0.5,1.875 -0.0298,0.16398 0.0236,0.33501 0,0.5 -0.0657,0.45955 -0.2298,0.9394 -0.375,1.375 -0.14975,0.44925 -0.15984,0.92419 -0.25,1.375 -0.0866,0.43293 -0.42738,0.68925 -0.5,1.125 -0.13377,0.8026 -0.37473,1.74945 -0.75,2.5 -0.0186,0.0373 -0.0955,-0.0295 -0.125,0 -0.0932,0.0932 -0.29596,0.69056 -0.375,0.875 -0.2094,0.4886 -0.34454,1.15755 -0.625,1.625 -0.0606,0.10106 -0.20623,0.14058 -0.25,0.25 -0.0464,0.11606 0.0439,0.25796 0,0.375 -0.0149,0.0398 -1.35589,2.48088 -1.5,2.625 -0.39273,0.39272 -1.70376,0.80672 -2.25,0.875 -0.26822,0.0335 -0.61068,-0.0661 -0.875,0 -0.0904,0.0226 -0.15961,0.1024 -0.25,0.125 -0.38409,0.096 -0.74083,-0.003 -1.125,0.125 -0.2625,0.0875 -0.6125,-0.0875 -0.875,0 -0.23683,0.0789 -0.19662,0.125 -0.5,0.25 -0.125,0.33333 -0.2793,0.52669 -0.375,0.75 -0.162,0.37798 0.047,1.4522 0,1.875 -0.093,0.83664 -0.267,1.77299 -0.125,2.625 0.01,0.0581 0.0987,0.0723 0.125,0.125 0.18407,0.36814 0.15125,0.91437 0.375,1.25 0.0231,0.0347 0.11355,-0.0401 0.125,0 0.49022,1.71577 -0.23647,0.0316 0.5,1.75 0.0657,0.15319 -0.0657,0.34681 0,0.5 0.0821,0.19149 0.29039,0.30962 0.375,0.5 0.0863,0.19415 0.0461,0.42774 0.125,0.625 0.15993,0.39983 0.53607,0.80537 0.625,1.25 0.30517,1.52587 -0.73698,-1.76694 0.125,1.25 0.0114,0.0401 0.0833,0 0.125,0 0.0417,0.16667 0.0968,0.33054 0.125,0.5 0.0673,0.40371 -0.0802,0.84905 0,1.25 0.0417,0.20833 0.0578,0.42344 0.125,0.625 0.0186,0.0559 0.11446,0.067 0.125,0.125 0.19268,1.05975 0.27811,2.18424 0.375,3.25 0.0685,0.7539 0.35473,1.39868 0.5,2.125 0.12284,0.61422 0.0859,1.24983 0.125,1.875 0.0223,0.3564 0.12681,2.43298 0,2.75 -0.21249,0.53121 -0.65109,0.97753 -0.875,1.5 -0.0677,0.1579 -0.0552,0.34301 -0.125,0.5 -0.23177,0.52147 -0.62055,0.9911 -0.875,1.5 -0.31808,0.63615 -0.66885,1.43781 -0.875,2.125 -0.0611,0.2035 -0.0535,0.42492 -0.125,0.625 -0.16933,0.47413 -0.48669,0.89091 -0.625,1.375 -0.42106,0.69425 -0.29785,1.50878 -0.5,2.25 -0.57141,2.09515 0.072,-1.94473 -0.5,2.25 -0.051,0.37385 -0.0961,0.7488 -0.125,1.125 -0.0128,0.16617 0.0458,0.33974 0,0.5 -0.0413,0.14445 -0.20873,0.23055 -0.25,0.375 -0.0984,0.34441 0.0705,0.77245 0,1.125 -0.0183,0.0914 -0.0833,0.16667 -0.125,0.25 -0.0417,0.125 -0.10334,0.24503 -0.125,0.375 -0.0205,0.1233 0.0395,0.25641 0,0.375 -0.0475,0.14252 -0.19421,0.23551 -0.25,0.375 -0.0309,0.0774 0.0118,0.1675 0,0.25 -0.0817,0.57209 -0.32501,1.175 -0.625,1.625 -0.46844,0.70265 -0.96138,1.38047 -1.375,2.125 -0.22838,0.41109 -0.23441,0.80734 -0.5,1.25 -0.34727,0.57877 -0.59031,1.36123 -0.75,2 -0.18264,0.73056 0.39673,-0.46738 -0.125,0.75 -0.15485,0.3613 -0.47016,0.6387 -0.625,1 -0.0328,0.0766 0.0293,0.17197 0,0.25 -0.078,0.20797 -0.48181,1.21362 -0.625,1.5 -0.10866,0.21731 -0.2793,0.40169 -0.375,0.625 -0.0328,0.0766 0.0328,0.1734 0,0.25 -0.0957,0.22331 -0.26635,0.40769 -0.375,0.625 -0.38114,0.0885 -0.0482,0.34634 -0.125,0.5 -0.34055,0.68109 0.1663,-1.26955 -0.375,0.625 -0.0687,0.24038 0.0928,0.51788 0,0.75 -0.0438,0.10942 -0.1973,0.14459 -0.25,0.25 -0.0289,0.0578 -0.076,0.70094 -0.125,0.75 -0.0295,0.0295 -0.0955,-0.0295 -0.125,0 -0.18198,0.18198 0.28837,0.75 -0.5,0.8125 1.97503,0.2975 0.35794,0.1518 5.5625,0.25 2.87272,0.0542 5.75153,0 8.625,0 H 973 c 0.4199,0 0.8961,0.0694 1.3125,0 0.0459,-0.008 0.0791,-0.0548 0.125,-0.0625 0.30168,-0.0503 0.63751,0.06 0.9375,0 0.21328,-0.0427 0.41399,-0.13475 0.625,-0.1875 0.57585,-0.14396 1.16817,-0.25863 1.75,-0.375 0.20833,-0.0417 0.41468,-0.0949 0.625,-0.125 0.0619,-0.009 0.1274,0.0172 0.1875,0 0.0896,-0.0256 0.16667,-0.0833 0.25,-0.125 0.14583,-0.0417 0.29036,-0.0882 0.4375,-0.125 0.10306,-0.0258 0.21749,-0.015 0.3125,-0.0625 0.0791,-0.0395 0.11023,-0.14457 0.1875,-0.1875 0.27074,-0.15041 0.59305,-0.18434 0.875,-0.3125 0.22731,-0.10332 0.16709,-0.1824 0.4375,-0.25 0.16295,-0.0407 0.33795,-0.0183 0.5,-0.0625 0.0725,-0.0198 0.12031,-0.0914 0.1875,-0.125 0.15921,-0.0796 0.33272,-0.12667 0.5,-0.1875 0.38489,-0.13996 0.7865,-0.2323 1.1875,-0.3125 0.50591,-0.10118 0.47943,-0.0571 1.125,-0.125 0.24236,0.11318 0.41418,-0.0987 0.625,-0.125 0.10336,-0.0129 0.20876,0.009 0.3125,0 0.71251,-0.0648 0.0565,-0.0297 0.6875,-0.1875 0.57114,-0.14279 0.26125,-0.0238 0.6875,-0.0625 0.40026,-0.0364 0.78647,-0.16076 1.1875,-0.1875 0.35338,-0.0236 0.70888,0.0197 1.0625,0 1.41488,-0.0786 -0.17302,-0.0625 1,-0.0625 0.82262,0 1.6984,0.053 2.5,-0.1875 0.35713,-0.10714 0.70846,-0.25699 1.0625,-0.375 0.27685,-0.0923 0.54146,-0.12954 0.8125,-0.25 0.0833,-0.0417 0.16667,-0.0833 0.25,-0.125 0.0625,-0.0625 0.11023,-0.14457 0.1875,-0.1875 0.21316,-0.11842 0.46337,-0.15394 0.6875,-0.25 0.1875,-0.0833 0.375,-0.16667 0.5625,-0.25 0.10417,-0.0625 0.20191,-0.13723 0.3125,-0.1875 0.21746,-0.0989 0.6326,-0.1326 0.8125,-0.3125 0.0329,-0.0329 0.0237,-0.0992 0.0625,-0.125 0.0347,-0.0231 0.0877,0.0186 0.125,0 0.0932,-0.0466 0.15956,-0.13582 0.25,-0.1875 0.0572,-0.0327 0.13163,-0.0276 0.1875,-0.0625 0.11312,-0.0707 0.19589,-0.18522 0.3125,-0.25 0.17618,-0.0979 0.49147,-0.15199 0.6875,-0.25 0.1602,-0.0801 0.38193,-0.25231 0.5625,-0.3125 0.0395,-0.0132 0.0893,0.0214 0.125,0 0.0758,-0.0455 0.11023,-0.14457 0.1875,-0.1875 0.11518,-0.064 0.255,-0.0705 0.375,-0.125 0.1106,-0.0503 0.2024,-0.13613 0.3125,-0.1875 0.2033,-0.0949 0.422,-0.15446 0.625,-0.25 0.152,-0.0715 0.2815,-0.18762 0.4375,-0.25 0.1898,-0.0759 0.9147,-0.15145 1.0625,-0.25 0.1238,0.006 0.03,-0.0921 0.062,-0.125 0.015,-0.0147 0.042,0 0.062,0 0.2906,0 0.5212,-0.004 0.8125,-0.0625 0.1685,-0.0337 0.3299,-0.1007 0.5,-0.125 0.2909,-0.0415 1.4964,-0.0382 1.6875,0 0.065,0.0129 0.1223,0.0532 0.1875,0.0625 0.1962,0.028 0.4343,0.008 0.625,0.0625 0.2611,0.0746 0.469,0.20317 0.75,0.25 0.099,0.0165 0.2862,-0.0444 0.375,0 0.1756,0.0878 0.1565,0.1875 0.2192,0.25 -0.1137,-0.14583 -0.1057,-0.36357 -0.031,-0.5625 z"
         id="path132" />
    </g>
  </g>
</svg>
