<?xml version="1.0" encoding="UTF-8" standalone="no"?>
<!-- Created with Inkscape (http://www.inkscape.org/) -->

<svg
   version="1.1"
   id="svg2"
   width="124.75445"
   height="133.85751"
   viewBox="0 0 124.75445 133.85751"
   xmlns="http://www.w3.org/2000/svg"
   xmlns:svg="http://www.w3.org/2000/svg">
  <defs
     id="defs6">
    <linearGradient
       id="swatch77">
      <stop
         style="stop-color:#e2c69e;stop-opacity:1;"
         offset="0"
         id="stop77" />
    </linearGradient>
  </defs>
  <g
     id="layer66"
     style="display:inline"
     transform="translate(-260.69452,-484.41435)">
    <g
       id="layer26"
       style="display:inline">
      <path
         style="display:inline;fill:#969696;fill-opacity:1;stroke:none;stroke-opacity:1"
         d="m 309.90635,485.84385 c 1.15635,1.21885 1.29798,1.54237 1.46865,1.65615 0.18216,0.12144 0.26036,0.078 0.375,0.25 0.0731,0.10963 0.0318,0.28183 0.125,0.375 0.0295,0.0295 0.0955,-0.0295 0.125,0 0.0659,0.0659 0.0591,0.18412 0.125,0.25 0.0295,0.0295 0.0955,-0.0295 0.125,0 0.0659,0.0659 0.0591,0.18412 0.125,0.25 0.0295,0.0295 0.0903,-0.0231 0.125,0 0.46288,0.30859 0.59063,0.60209 1,0.875 0.10416,0.0694 0.39438,-0.0528 0.5,0 0.0373,0.0186 -0.0373,0.10636 0,0.125 0.36478,0.18239 0.98528,-0.12991 1.375,0 0.0559,0.0186 0.0723,0.0987 0.125,0.125 0.16524,0.0826 0.44907,-0.0586 0.625,0 0.2751,0.0917 0.5143,0.13215 0.75,0.25 0.1118,0.0559 0.25373,-0.0303 0.375,0 0.40331,0.10083 0.44923,0.35807 0.875,0.5 0.0791,0.0263 0.17546,-0.0373 0.25,0 0.10541,0.0527 0.13567,0.22142 0.25,0.25 0.12127,0.0303 0.25641,-0.0395 0.375,0 0.0884,0.0295 0.0366,0.22054 0.125,0.25 0.11858,0.0395 0.275,-0.075 0.375,0 0.0252,0.0189 0.48201,0.57734 0.625,0.625 0.23348,0.0778 0.4154,0.0404 0.625,0.25 0.0295,0.0295 -0.0295,0.0955 0,0.125 0.10623,0.10623 0.27882,0.13459 0.375,0.25 0.2316,0.27792 0.36169,0.73669 0.625,1 0.14731,0.14731 0.36663,0.21495 0.5,0.375 0.0611,0.0733 0.28324,0.65824 0.375,0.75 0.49201,0.49201 0.2539,0.005 0.625,0.5 0.0559,0.0745 0.0591,0.18412 0.125,0.25 0.0659,0.0659 0.18412,0.0591 0.25,0.125 0.0295,0.0295 -0.0186,0.0877 0,0.125 0.023,0.0461 0.5511,0.6761 0.625,0.75 0.22488,0.22488 0.37041,0.0614 0.625,0.125 0.60362,0.1509 -0.006,0.0594 0.375,0.25 0.2874,0.1437 2.33234,0.22941 2.75,0.125 0.81607,-0.20402 -0.47227,-0.0671 0.625,-0.25 1.00776,-0.16796 2.10457,0.0928 3.125,0 0.21159,-0.0192 0.41359,-0.10386 0.625,-0.125 1.1343,-0.11343 2.36224,0 3.5,0 h 6 5.125 c 0.71415,0 1.54571,-0.11738 2.25,0 0.12997,0.0217 0.24425,0.10866 0.375,0.125 0.24807,0.031 0.51283,-0.0791 0.75,0 0.21287,0.0709 0.40925,0.18836 0.625,0.25 0.45722,0.13063 1.57453,-0.0168 2,0.125 0.39487,0.13162 0.82938,0.29087 1.25,0.375 0.29223,0.0584 1.76361,0.0693 1.875,0.125 0.29259,0.1463 0.44884,0.14961 0.75,0.25 0.71453,0.23817 -0.75567,0.0239 0.375,0.25 0.75456,0.15091 -0.0318,-0.23773 0.875,0.125 0.45101,0.1804 1.0539,0.40195 1.5,0.625 0.10541,0.0527 0.1382,0.21273 0.25,0.25 0.0791,0.0263 0.17094,-0.0263 0.25,0 0.17728,0.0591 0.17848,0.30348 0.25,0.375 0.1073,0.10729 0.40923,0.0684 0.5,0.25 0.0771,0.15413 0.24931,0.625 0.375,0.625 -0.12569,0 -0.2979,-0.47087 -0.375,-0.625 -0.0908,-0.1816 -0.3927,-0.14271 -0.5,-0.25 -0.0715,-0.0715 -0.0727,-0.3159 -0.25,-0.375 -0.0791,-0.0263 -0.1709,0.0263 -0.25,0 -0.1118,-0.0373 -0.14459,-0.1973 -0.25,-0.25 -0.4461,-0.22305 -1.04899,-0.4446 -1.5,-0.625 -0.9068,-0.36273 -0.12044,0.0259 -0.875,-0.125 -1.13067,-0.2261 0.33953,-0.0118 -0.375,-0.25 -0.30116,-0.10039 -0.45741,-0.1037 -0.75,-0.25 -0.11139,-0.0557 -1.58277,-0.0666 -1.875,-0.125 -0.42062,-0.0841 -0.85513,-0.24338 -1.25,-0.375 -0.42547,-0.1418 -1.54278,0.006 -2,-0.125 -0.21575,-0.0616 -0.41213,-0.1791 -0.625,-0.25 -0.23717,-0.0791 -0.50193,0.031 -0.75,0 -0.13075,-0.0163 -0.24503,-0.1033 -0.375,-0.125 -0.70429,-0.11738 -1.53585,0 -2.25,0 h -5.125 -6 c -1.13776,0 -2.3657,-0.11343 -3.5,0 -0.21141,0.0211 -0.41341,0.1058 -0.625,0.125 -1.02043,0.0928 -2.11724,-0.16796 -3.125,0 -1.09727,0.1829 0.19107,0.046 -0.625,0.25 -0.41766,0.10441 -2.4626,0.0187 -2.75,-0.125 -0.381,-0.1906 0.22862,-0.0991 -0.375,-0.25 -0.25459,-0.0636 -0.40012,0.0999 -0.625,-0.125 -0.0739,-0.0739 -0.602,-0.7039 -0.625,-0.75 -0.0186,-0.0373 0.0295,-0.0955 0,-0.125 -0.0659,-0.0659 -0.1841,-0.0591 -0.25,-0.125 -0.0659,-0.0659 -0.0691,-0.1755 -0.125,-0.25 -0.3711,-0.495 -0.13299,-0.008 -0.625,-0.5 -0.0918,-0.0918 -0.3139,-0.6767 -0.375,-0.75 -0.13337,-0.16005 -0.35269,-0.22769 -0.5,-0.375 -0.26331,-0.26331 -0.3934,-0.72208 -0.625,-1 -0.0962,-0.11541 -0.26877,-0.14377 -0.375,-0.25 -0.0295,-0.0295 0.0295,-0.0955 0,-0.125 -0.2096,-0.2096 -0.39152,-0.1722 -0.625,-0.25 -0.14299,-0.0477 -0.5998,-0.6061 -0.625,-0.625 -0.1,-0.075 -0.25642,0.0395 -0.375,0 -0.0884,-0.0295 -0.0366,-0.2205 -0.125,-0.25 -0.11859,-0.0395 -0.25373,0.0303 -0.375,0 -0.11433,-0.0286 -0.14459,-0.1973 -0.25,-0.25 -0.0745,-0.0373 -0.1709,0.0263 -0.25,0 -0.42577,-0.14193 -0.47169,-0.39917 -0.875,-0.5 -0.12127,-0.0303 -0.2632,0.0559 -0.375,0 -0.2357,-0.11785 -0.4749,-0.1583 -0.75,-0.25 -0.17593,-0.0586 -0.45976,0.0826 -0.625,0 -0.0527,-0.0263 -0.0691,-0.1064 -0.125,-0.125 -0.38972,-0.12991 -1.01022,0.18239 -1.375,0 -0.0373,-0.0186 0.0373,-0.1064 0,-0.125 -0.10562,-0.0528 -0.39584,0.0694 -0.5,0 -0.40937,-0.27291 -0.53712,-0.56641 -1,-0.875 -0.0347,-0.0231 -0.0955,0.0295 -0.125,0 -0.0659,-0.0659 -0.0591,-0.1841 -0.125,-0.25 -0.0295,-0.0295 -0.0955,0.0295 -0.125,0 -0.0659,-0.0659 -0.0591,-0.1841 -0.125,-0.25 -0.0295,-0.0295 -0.0955,0.0295 -0.125,0 -0.0932,-0.0932 -0.0519,-0.26537 -0.125,-0.375 -0.11464,-0.172 -0.19284,-0.12856 -0.375,-0.25 -0.17067,-0.11378 -0.3123,-0.4373 -0.375,-0.5 -0.0295,-0.0295 -0.0903,0.0231 -0.125,0 -0.17187,-0.11458 -1.01603,-1.03206 -1.125,-1.25 -0.0589,-0.11785 -0.0318,-0.2818 -0.125,-0.375 -0.0589,-0.0589 -0.1755,0.0373 -0.25,0 -0.13081,-0.0654 -0.10462,-0.725 -0.625,-0.9375 -0.19895,-0.088 -0.31885,0.0969 -0.5,0.1875 -0.0373,0.0186 -0.0833,0 -0.125,0 -0.0833,0.0417 -0.1667,0.0833 -0.25,0.125 -0.0981,0.0654 -0.14459,0.1973 -0.25,0.25 -0.1118,0.0559 -0.25642,-0.0395 -0.375,0 -0.1118,0.0373 -0.13567,0.2214 -0.25,0.25 -0.12127,0.0303 -0.25642,-0.0395 -0.375,0 -0.0395,0.0132 0.0295,0.0955 0,0.125 -0.0932,0.0932 -0.25,0.0833 -0.375,0.125 -0.15811,0.0527 -0.33831,-0.0404 -0.5,0 -0.14053,0.0351 -0.24382,0.3094 -0.375,0.375 -0.20069,0.10035 -0.41667,0.1667 -0.625,0.25 -0.25162,0.10065 -0.63135,0.12817 -0.875,0.25 -0.0527,0.0263 -0.0691,0.1064 -0.125,0.125 -0.0791,0.0263 -0.1709,-0.0263 -0.25,0 -0.19424,0.0648 -0.4298,0.3262 -0.625,0.375 -0.12127,0.0303 -0.25373,-0.0303 -0.375,0 -0.11433,0.0286 -0.1382,0.2127 -0.25,0.25 -0.375,0.125 -0.125,-0.0625 -0.375,0 -0.6225,0.15562 -0.29463,0.18861 -1.125,0.5 -0.19507,0.0731 -0.42071,-0.0409 -0.625,0 -0.18272,0.0365 -0.32322,0.1911 -0.5,0.25 -0.16298,0.0543 -0.33333,0.0833 -0.5,0.125 -0.0833,0 -0.1692,-0.0202 -0.25,0 -0.18078,0.0452 -0.32322,0.1911 -0.5,0.25 -0.37019,0.123 -0.87309,-0.0258 -1.25,0.125 -0.13949,0.0558 -0.24063,0.1828 -0.375,0.25 -0.49602,0.24801 -1.50221,0.4095 -2,0.5 -0.60749,0.1105 -1.27682,0.005 -1.875,0.125 -0.26278,0.0526 -0.48594,0.331 -0.75,0.375 -0.1644,0.0274 -0.33462,-0.0207 -0.5,0 -0.92376,0.11547 -1.81774,0.50847 -2.75,0.625 -0.35526,0.0444 -0.77856,-0.0866 -1.125,0 -0.21768,0.0544 -0.41667,0.1667 -0.625,0.25 0,0.0417 0.0404,0.1149 0,0.125 -0.36604,0.0915 -0.77817,-0.14934 -1.125,0.125 -1.36943,0.37348 -2.63239,1.00369 -3.875,1.625 -0.47675,0.23837 -1.05311,0.32707 -1.5,0.625 -0.46088,0.30725 -0.74704,0.87204 -1.125,1.25 -0.0659,0.0659 -0.1755,0.0691 -0.25,0.125 -0.64931,0.48698 -1.1526,1.24513 -1.625,1.875 -0.16211,0.21614 -0.50429,0.38357 -0.625,0.625 -0.14526,0.29053 -0.26304,0.63804 -0.5,0.875 -0.0295,0.0295 -0.0955,-0.0295 -0.125,0 -0.0659,0.0659 -0.0833,0.1667 -0.125,0.25 0,0.0417 0.0231,0.0903 0,0.125 -0.0654,0.0981 -0.1973,0.14459 -0.25,0.25 -0.0373,0.0745 0,0.1667 0,0.25 -0.0417,0.0833 -0.0833,0.1667 -0.125,0.25 -0.20672,0.31008 -0.65304,0.61604 -0.875,0.875 -0.0978,0.11406 -0.14377,0.26877 -0.25,0.375 -0.0295,0.0295 -0.1008,-0.0339 -0.125,0 -0.19525,0.27335 -0.31366,0.59549 -0.5,0.875 -0.4496,0.67434 -0.0389,-0.0861 -0.5,0.375 -0.13176,0.13176 -0.11824,0.36824 -0.25,0.5 -0.0659,0.0659 -0.1841,0.0591 -0.25,0.125 -0.44909,0.44909 -0.62782,1.12875 -1,1.625 -0.025,0.0333 -0.0955,-0.0295 -0.125,0 -0.2117,0.21169 -0.0383,0.4133 -0.25,0.625 -0.0295,0.0295 -0.0955,-0.0295 -0.125,0 -0.0201,0.0201 -0.3313,0.5667 -0.375,0.625 -0.14142,0.18856 -0.35276,0.31595 -0.5,0.5 -0.23925,0.29905 -0.35415,0.72915 -0.625,1 -0.28653,0.28653 -0.96982,0.71982 -1.25,1 -0.0295,0.0295 0.0295,0.0955 0,0.125 -0.0659,0.0659 -0.1667,0.0833 -0.25,0.125 -0.0417,0 -0.0903,-0.0231 -0.125,0 -0.30313,0.20209 -0.56012,0.41508 -0.875,0.625 -0.14294,0.0953 -0.34634,0.0482 -0.5,0.125 -0.13913,0.0696 -1.244,1.1145 -1.25,1.125 -0.16598,0.27664 -0.21594,0.6364 -0.375,0.875 -0.0654,0.0981 -0.1846,0.1519 -0.25,0.25 -0.0693,0.104 0.0395,0.25641 0,0.375 -0.0475,0.14252 -0.3253,0.14876 -0.25,0.375 -0.0902,0.36072 0.0202,0.4394 -0.125,0.875 -0.0589,0.17678 -0.1911,0.32322 -0.25,0.5 -0.0625,0.1875 0.125,0.125 0,0.375 -0.0527,0.10541 -0.2062,0.14058 -0.25,0.25 -0.1354,0.33842 0.0156,0.8984 -0.125,1.25 -0.0505,0.12621 -0.3386,0.44299 -0.375,0.625 -0.1698,0.8488 0.26363,-0.16136 -0.125,0.875 -0.0654,0.17447 -0.1988,0.32083 -0.25,0.5 -0.13627,0.47695 0,3.09859 0,3.875 0,0.84066 -0.039,1.67989 0.125,2.5 0.0517,0.2584 0.2209,0.48809 0.25,0.75 0.0322,0.28988 -0.0572,0.589 0,0.875 0.0904,0.45217 0.2,0.92544 0.25,1.375 0.0276,0.24847 -0.031,0.50193 0,0.75 0.0278,0.22265 0.179,0.41213 0.25,0.625 0.0672,0.20156 0.0461,0.42774 0.125,0.625 0.0558,0.13948 0.1942,0.23551 0.25,0.375 0.24387,0.60969 0.24631,1.28305 0.5,1.875 0.14752,0.34422 0.61254,1.15006 0.875,1.5 0.0707,0.0943 0.2127,0.1382 0.25,0.25 0.0527,0.15811 -0.0527,0.34188 0,0.5 0.0373,0.1118 0.1894,0.14894 0.25,0.25 0.12895,0.21492 0.2011,0.82891 0.25,1 0.10794,0.3778 0.6906,0.92701 0.75,1.125 0.0965,0.32176 0.0698,0.66864 0.125,1 0.10949,0.65695 0.49589,1.22947 0.625,1.875 0.33921,1.69605 0.0912,3.54599 0,5.25 -0.18274,0.36548 -0.17118,1.10324 -0.375,1.375 -0.23962,0.31949 -0.68009,0.59004 -1,0.75 -0.17618,0.0881 -0.4638,0.5888 -0.5,0.625 -0.0659,0.0659 -0.1841,0.0591 -0.25,0.125 -0.67679,0.67679 -0.28524,0.55319 -1,1.125 -0.0325,0.026 -0.0903,-0.0231 -0.125,0 -0.66194,0.44129 -1.14806,1.10905 -1.75,1.625 -0.15818,0.13558 -0.35269,0.22768 -0.5,0.375 -0.0659,0.0659 -0.0702,0.1747 -0.125,0.25 -0.27943,0.38421 -0.59558,0.74079 -0.875,1.125 -0.375,0.51562 0.25,-0.0312 -0.375,0.75 -0.0582,0.0728 -0.1941,0.0505 -0.25,0.125 -0.1581,0.21082 -0.1861,0.49434 -0.25,0.75 -0.0659,0.26363 -0.2162,0.60416 -0.25,0.875 -0.12483,0.99863 0,2.11723 0,3.125 v 4.875 4 c 0,0.87276 -0.15139,2.04583 0.125,2.875 0.0589,0.17678 0.1988,0.32083 0.25,0.5 0.0343,0.12019 -0.0206,0.2517 0,0.375 0.0322,0.19289 0.1984,0.8453 0.25,1 0.1875,0.5625 0.125,-0.125 0.375,0.75 0.0572,0.20032 -0.10719,0.44635 0,0.625 0.091,0.15158 0.284,0.22341 0.375,0.375 0.0675,0.11249 0.2117,1.14499 0.25,1.375 0.11474,0.68845 0.49769,1.23847 0.625,1.875 0.1653,0.82653 0.3623,1.94139 0.875,2.625 0.42511,0.56681 0.93096,1.11473 1.625,1.375 0.18684,0.0701 1.23459,0.2149 1.375,0.25 0.30785,0.077 0.56886,0.2915 0.875,0.375 0.63197,0.17235 1.17012,0.0851 1.75,0.375 0.12022,0.0601 1.087,0.655 1.125,0.75 0.1544,0.38596 -0.16117,0.30922 0.125,0.5 0.29796,0.19864 0.70598,0.41197 0.875,0.75 0.0589,0.11785 -0.1504,0.312 0.125,0.375 0.33229,0.49844 0.88767,0.90667 1.125,1.5 0.356,0.89003 -0.15338,0.11937 0.375,1 0.25602,0.4267 0.0291,-0.4224 0.375,0.5 0.0746,0.19893 0.0833,0.41667 0.125,0.625 0,0.0833 -0.0229,0.1699 0,0.25 0.0616,0.21575 0.2284,0.40166 0.25,0.625 0.1044,1.07909 -0.002,2.17329 0.125,3.25 0.20729,1.76199 0.58333,3.5 0.46532,5.35356 -0.17396,0.0447 0.056,-0.0464 0.29744,-0.0732 0.98273,-0.10919 2.01612,0 3.0052,0 h 7.07107 c 1.80853,0 3.71243,-0.17675 5.48008,0.17678 0.50993,0.10199 1.08106,-0.10199 1.59099,0 0.40491,0.081 0.80966,0.30008 1.23744,0.35355 0.29235,0.0365 0.59153,-0.0365 0.88388,0 0.53144,0.0664 1.05628,0.42339 1.59099,0.53033 0.65894,0.13179 1.46618,-0.0819 2.12132,0 0.13074,0.0163 0.22312,0.15815 0.35355,0.17678 0.29167,0.0417 0.59327,-0.0484 0.88389,0 0.20957,0.0349 0.32421,0.30203 0.53033,0.35355 0.2454,0.0614 0.65857,-0.11265 0.88388,0 0.26206,0.13103 0.62061,0.22192 0.88388,0.35356 0.23286,0.11642 0.47426,0.4139 0.70711,0.53033 0.10541,0.0527 0.24815,-0.0527 0.35355,0 0.14908,0.0745 0.19544,0.30085 0.35356,0.35355 0.1118,0.0373 0.25549,-0.0654 0.35355,0 0.10963,0.0731 0.0836,0.26039 0.17678,0.35356 0.0932,0.0932 0.25066,0.0945 0.35355,0.17677 0.19522,0.15618 0.3269,0.38502 0.53033,0.53033 0.20277,0.14484 1.14864,0.7511 1.41422,0.88389 0.0543,0.0272 0.78166,0.10862 0.88388,0.17677 0.24336,0.16225 1.04878,0.69523 1.23744,0.88389 0.0417,0.0417 -0.0417,0.13511 0,0.17677 0.27548,0.27548 0.9227,0.47106 1.23743,0.70711 0.10541,0.0791 0.0672,0.28046 0.17678,0.35355 0.15504,0.10336 0.38126,0.065 0.53033,0.17678 0.23605,0.17704 0.53885,0.80828 0.70711,1.06066 0.17705,0.26559 0.56555,0.42399 0.7071,0.70711 0.0833,0.16666 0.0809,0.37054 0.17678,0.53033 0.37685,0.62808 1.10907,1.10907 1.59099,1.59099 0.36576,0.36575 -0.55893,-0.0143 0.17678,0.35355 0.0527,0.0263 0.13511,-0.0417 0.17677,0 0.24296,0.24296 0.28738,0.64093 0.53033,0.88388 0.0417,0.0417 0.12775,-0.0327 0.17678,0 0.78624,0.52416 1.33049,1.41733 2.12132,1.94455 0.21926,0.14617 0.52077,0.16721 0.70711,0.35355 0.0932,0.0932 0.0671,0.28047 0.17677,0.35355 0.0981,0.0654 0.27022,-0.0833 0.35356,0 0.13176,0.13177 0.0313,0.41393 0.17677,0.53033 0.18972,0.15178 0.49617,0.0562 0.70711,0.17678 0.21706,0.12404 0.32232,0.39166 0.53033,0.53033 0.15504,0.10336 0.37529,0.0734 0.53033,0.17678 0.049,0.0327 0,0.11785 0,0.17677 0.11785,0.11786 0.21064,0.26781 0.35355,0.35356 0.15979,0.0959 0.37529,0.0734 0.53033,0.17677 0.31089,0.20726 1.04733,1.11514 1.41422,1.23744 0.1118,0.0373 0.24175,-0.0373 0.35355,0 0.41085,0.13695 0.89773,0.85684 1.23744,1.06066 0.10105,0.0606 0.24814,-0.0527 0.35355,0 0.26352,0.13176 0.44359,0.39857 0.70711,0.53033 0.10541,0.0527 0.2357,0 0.35355,0 0.17678,0.0589 0.37055,0.0809 0.53033,0.17678 0.14292,0.0857 0.20448,0.27902 0.35356,0.35355 2.04875,1.02438 -0.13119,-0.2205 1.06066,0.17678 0.66358,0.22119 1.24723,0.53278 1.94454,0.7071 0.3769,0.0942 0.87857,0.0572 1.23744,0.17678 0.079,0.0263 0.11785,0.11785 0.17677,0.17678 0.35356,0.11785 0.69522,0.28046 1.06066,0.35355 0.46207,0.0924 3.75491,0.0873 3.88909,0.17678 0.13867,0.0924 0.19544,0.30085 0.35355,0.35355 0.33,0.11 1.45242,0.0191 1.76777,0.17678 0.25742,0.12871 0.37849,0.10085 0.53033,0.17677 0.47403,0.23702 -0.1,0.35356 0.3702,0.17112 1.26209,0.0641 2.49095,-0.53387 3.78809,-1.18244 0.16667,-0.0833 0.32322,-0.19107 0.5,-0.25 0.0791,-0.0263 0.17854,0.0429 0.25,0 0.68484,-0.4109 1.20417,-1.32917 1.75,-1.875 0.2469,-0.2469 0.6281,-0.50309 0.875,-0.75 0.20833,-0.20833 0.44095,-0.39493 0.625,-0.625 0.026,-0.0325 -0.0295,-0.0955 0,-0.125 0.0932,-0.0932 0.28183,-0.0318 0.375,-0.125 0.0659,-0.0659 0.0505,-0.1941 0.125,-0.25 0.10541,-0.0791 0.26537,-0.0519 0.375,-0.125 0.14709,-0.0981 0.22791,-0.27694 0.375,-0.375 0.10963,-0.0731 0.2606,-0.0596 0.375,-0.125 0.26088,-0.14907 0.5,-0.33333 0.75,-0.5 0.375,-0.25 -0.25,0 0.375,-0.375 0.11299,-0.0678 0.25715,-0.0661 0.375,-0.125 0.10541,-0.0527 0.14459,-0.19729 0.25,-0.25 0.30007,-0.15003 0.79711,-0.41803 1.125,-0.5 0.20211,-0.0505 0.42071,0.0409 0.625,0 0.21037,-0.0421 0.41463,-0.20793 0.625,-0.25 0.68135,-0.13627 1.7341,0 2.375,0 h 4.125 c 0.61918,0 1.38809,0.12238 2,0 0.28641,-0.0573 0.57138,-0.18927 0.875,-0.25 0.55556,-0.11111 -0.83333,0.33333 0.5,0 0.0572,-0.0143 0.0691,-0.10636 0.125,-0.125 0.23116,-0.077 0.98553,-0.0872 1.25,-0.125 0.76005,-0.10858 1.49102,-0.38323 2.25,-0.5 0.37292,-0.0574 0.76221,-0.0213 1.125,-0.125 0.23361,-0.0667 0.39751,-0.28969 0.625,-0.375 0.26667,-0.1 0.3,0.0333 0.5,0 0.67278,-0.11213 1.34242,-0.11848 2,-0.25 0.29253,-0.0585 1.21145,-0.35572 1.5,-0.5 0.0527,-0.0263 0.0678,-0.11071 0.125,-0.125 0.12127,-0.0303 0.25243,0.0245 0.375,0 0.4433,-0.0887 1.1065,-0.2639 1.5,-0.5 0.22878,-0.13726 0.38637,-0.38068 0.625,-0.5 0.15366,-0.0768 0.34049,-0.0612 0.5,-0.125 0.30215,-0.12086 0.45893,-0.47946 0.75,-0.625 0.1118,-0.0559 0.2632,0.0559 0.375,0 0.0833,-0.0417 0.0591,-0.18412 0.125,-0.25 0.0564,-0.0564 2.224,-1.61633 2.25,-1.625 0.0791,-0.0263 0.16916,0.0202 0.25,0 0.10573,-0.0264 1.55583,-0.59041 1.625,-0.625 0.0373,-0.0186 0,-0.0833 0,-0.125 0.16667,-0.0417 0.32993,-0.1007 0.5,-0.125 0.47751,-0.0682 1.01309,0 1.5,0 l 3.4933,0.11782 c 0.76559,-0.40493 0.76359,-1.24185 0.76359,-1.96336 0,-0.25165 0.15092,-1.09952 0,-1.30074 -0.11037,-0.14716 -0.27984,-0.24306 -0.39022,-0.39022 -0.1126,-0.15014 0.0613,-0.59643 0,-0.78045 -0.0765,-0.2294 -0.41332,-0.56651 -0.5203,-0.78045 -0.14059,-0.28118 -0.32806,-0.91437 -0.52029,-1.17066 -0.0272,-0.0363 -0.9962,-1.14107 -1.0406,-1.17067 -0.0361,-0.024 -0.0867,0 -0.13007,0 l -0.39023,-0.39023 c -0.0761,-0.11408 -0.0688,-0.26759 -0.13007,-0.39022 -0.13982,-0.27965 -0.33857,-0.52602 -0.5203,-0.78045 -0.40174,-0.56244 -0.78158,-0.91335 -1.04059,-1.56089 -0.22239,-0.55599 -0.0141,0.0439 -0.39023,-0.52029 -0.12755,-0.19134 -0.25987,-0.58492 -0.39022,-0.78045 -0.068,-0.10204 -0.19705,-0.15499 -0.26015,-0.26015 -0.13323,-0.22207 -0.1269,-0.4283 -0.26015,-0.65037 -0.36537,-0.60895 -0.7322,-1.20426 -1.04059,-1.82104 -0.0548,-0.10969 -0.22135,-0.14381 -0.26015,-0.26015 -0.0274,-0.0823 0.0274,-0.17785 0,-0.26015 -0.043,-0.12916 -0.19775,-0.3955 -0.26015,-0.5203 -0.10959,-0.2192 -0.30072,-0.25174 -0.39022,-0.52029 -0.0411,-0.1234 0.0411,-0.26682 0,-0.39023 -0.0895,-0.26862 -0.21955,-0.39435 -0.39022,-0.65037 -0.0746,-0.11184 -0.0945,-0.95692 -0.13008,-1.17067 -0.0929,-0.55726 -0.10282,-0.82173 -0.39022,-1.30074 -0.0316,-0.0526 -0.11068,-0.0719 -0.13008,-0.13008 -0.21354,-0.64137 0.43311,0.2162 -0.26014,-0.65037 -0.11492,-0.14364 -0.30793,-0.22568 -0.39023,-0.39022 -0.0194,-0.0388 0.0307,-0.0994 0,-0.13007 -0.13711,-0.13711 -0.35896,-0.1526 -0.52029,-0.26015 -0.96193,-0.64129 -1.50962,-1.73037 -2.47142,-2.21127 -0.15609,-0.078 -0.23413,-0.31222 -0.39022,-0.39022 -0.32248,-0.16124 -1.4176,-0.58317 -1.82104,-0.65037 -0.12831,-0.0213 -0.26268,0.0255 -0.39022,0 -0.28521,-0.057 -0.51466,-0.2721 -0.78045,-0.39022 -1.12498,-0.5 -2.37298,-0.88827 -3.38193,-1.5609 -0.15306,-0.10204 -0.21571,-0.33202 -0.39023,-0.39022 -0.0823,-0.0274 -0.18804,0.0481 -0.26014,0 -0.0807,-0.0538 -0.0615,-0.19155 -0.13008,-0.26015 -0.32668,-0.32668 -0.83694,-0.57679 -1.17067,-0.91052 -0.0686,-0.0685 -0.0719,-0.18265 -0.13007,-0.26015 -0.42654,-0.56871 -1.06375,-1.32389 -1.56089,-1.82104 -0.12781,-0.1278 -1.09657,-0.81182 -1.17067,-0.91052 -0.0823,-0.10969 -0.0478,-0.28053 -0.13008,-0.39022 -0.11634,-0.15512 -0.40396,-0.10503 -0.5203,-0.26015 -0.131,-0.17467 -0.29922,-0.59836 -0.39022,-0.78045 -0.12978,-0.25955 -0.50077,-0.40103 -0.65037,-0.65037 -0.57702,-0.9617 0.39921,0.20635 -0.39022,-0.78044 -0.11492,-0.14365 -0.30793,-0.22569 -0.39023,-0.39023 -0.0613,-0.12263 -0.054,-0.27614 -0.13007,-0.39022 -0.0129,-0.0193 -1.09226,0.10569 -0.39022,-0.39022 -0.0613,-0.12264 -0.0596,-0.27265 -0.13008,-0.39023 -0.39022,-0.65037 -0.13007,0 -0.39022,-0.39022 -0.33835,-0.50753 -0.66002,-1.08517 -1.0406,-1.56089 -0.11491,-0.14365 -0.28814,-0.23716 -0.39022,-0.39022 -0.0761,-0.11408 -0.0478,-0.28054 -0.13007,-0.39023 -0.0582,-0.0776 -0.19155,-0.0615 -0.26015,-0.13007 -0.13711,-0.13711 -0.14381,-0.36518 -0.26015,-0.5203 -0.30361,-0.40481 -0.64431,-0.72698 -0.91052,-1.17067 -0.63459,-1.05765 0.26631,0.13932 -0.26015,-0.65037 -0.13672,-0.20508 -0.41614,-0.44207 -0.5203,-0.65037 -0.0388,-0.0776 0.0323,-0.17965 0,-0.26015 -0.0581,-0.14515 -0.19025,-0.2504 -0.26015,-0.39022 -0.18377,-0.36756 -0.21719,-0.8246 -0.39022,-1.17067 -0.0945,-0.18893 -0.20025,-0.28041 -0.26015,-0.5203 -0.15268,-0.61072 0,-1.68829 0,-2.34134 0,-0.49254 -0.16009,-1.34075 0,-1.82104 0.1277,-0.3831 0.52202,-0.65551 0.65037,-1.04059 0.0411,-0.1234 -0.0315,-0.26403 0,-0.39023 0.0973,-0.3891 0.7011,-0.78026 0.48013,-1.50209 -0.35142,-0.96069 0.26462,-2.09107 -0.0402,-2.85301 -0.11785,-0.17678 -0.2357,-0.35355 -0.35355,-0.53033 -0.0589,0 -0.13511,0.0417 -0.17678,0 -0.41339,-0.41339 -2.16707,-3.99357 -2.2981,-4.41942 -0.0866,-0.2816 0.0365,-0.59153 0,-0.88388 -0.0607,-0.48601 -0.32986,-1.01329 -0.53033,-1.41421 -0.11426,-0.22854 0.062,-0.6358 0,-0.88389 0.30045,-0.47849 -0.27022,-0.4571 -0.35355,-0.7071 -0.0958,-0.28751 -0.0682,-3.43944 0,-3.71232 0.0289,-0.11554 0.26665,-0.79698 0.35355,-0.88388 0.41739,-0.41739 -0.093,0.98601 0.35356,-0.35355 0.0373,-0.11181 -0.0527,-0.24815 0,-0.35356 0.1118,-0.2236 0.39165,-0.32231 0.53033,-0.53033 0.0327,-0.049 0,-0.11785 0,-0.17677 0.0589,-0.11785 0.0977,-0.24815 0.17677,-0.35356 0.15,-0.2 0.45128,-0.29316 0.53033,-0.53033 0.0373,-0.1118 -0.0373,-0.24175 0,-0.35355 0.061,-0.18311 0.26587,-0.35495 0.35356,-0.53033 0.22465,-0.4493 0.25682,-0.93055 0.35355,-1.41421 0.0517,-0.25841 0.30187,-0.4487 0.35355,-0.70711 0.0347,-0.17334 -0.0347,-0.35699 0,-0.53033 0.0258,-0.1292 0.15094,-0.22435 0.17678,-0.35355 0.0976,-0.48773 0,-1.08844 0,-1.59099 0,-0.37855 0.0886,-0.53131 0.17678,-0.88389 0.23596,-0.94386 -0.1911,-2.04971 0,-3.0052 -0.0406,-0.35499 0.27659,-0.57603 0.35355,-0.88388 0.11864,-0.47456 -0.0718,-0.7403 0.17678,-1.23744 0.0951,-0.1901 0.46418,-0.61929 0.53033,-0.88388 0.20226,-0.80904 -0.35707,0.1838 0.17677,-0.88389 0.0373,-0.0745 0.15043,-0.0977 0.17678,-0.17677 0.16354,-0.49063 0.0536,-1.09813 0.17678,-1.59099 0.1489,-0.59559 0.23336,-1.16682 0.35355,-1.76777 0.12002,-0.60007 0,-1.33042 0,-1.94455 0,-1.56868 0.0586,-3.00422 0.53033,-4.41941 0.12375,-0.37123 -0.12374,-0.86621 0,-1.23744 0.10994,-0.3298 0.29695,-0.29695 0.53033,-0.53033 0.10274,-0.10274 0.1025,-0.55855 0.17678,-0.70711 0.0373,-0.0745 0.15656,-0.0959 0.17678,-0.17677 0.0429,-0.1715 -0.0657,-0.3662 0,-0.53033 0.11133,-0.27834 0.56153,-0.59274 0.7071,-0.88389 0.0833,-0.16666 0.065,-0.38126 0.17678,-0.53033 0.12747,-0.16996 0.3801,-0.20332 0.53033,-0.35355 0.44237,-0.44237 1.03137,-1.00208 1.23744,-1.41421 0.11838,-0.23677 0.42172,-0.24495 0.53033,-0.35356 0.0932,-0.0932 0.0836,-0.26038 0.17677,-0.35355 0.0417,-0.0417 0.13511,0.0417 0.17678,0 0.13414,-0.13414 0.16835,-0.69868 0.35355,-0.88388 0.0417,-0.0417 0.13511,0.0417 0.17678,0 0.125,-0.125 -0.0791,-0.37222 0,-0.53033 0.0264,-0.0527 0.15042,0.0527 0.17678,0 0.0559,-0.1119 0.17677,-2.32908 0.17677,-2.65165"
         id="path26" />
    </g>
  </g>
</svg>
