<?xml version="1.0" encoding="UTF-8" standalone="no"?>
<!-- Created with Inkscape (http://www.inkscape.org/) -->

<svg
   version="1.1"
   id="svg1"
   width="124.1875"
   height="133.31248"
   viewBox="0 0 124.1875 133.31248"
   xmlns="http://www.w3.org/2000/svg"
   xmlns:svg="http://www.w3.org/2000/svg">
  <defs
     id="defs1" />
  <g
     id="layer1"
     style="display:inline"
     transform="translate(-259.81249,-484.56249)">
    <g
       id="layer21"
       style="display:inline;fill:#ffffff;fill-opacity:1;stroke:none">
      <path
         style="fill:#ffffff;fill-opacity:1;stroke:none;stroke-width:1;stroke-linecap:round;stroke-dasharray:none;stroke-opacity:1"
         d="m 274.87499,595.43749 25.875,1 4.5,1.8125 13.8125,14.24999 12.6875,5.375 11.375,-1.125 5.25,-5.4375 7.75,-2 14.375,-0.75 9.625,-4.81249 h 3.875 l -0.3125,-6.5 -6.3125,-6.375 -0.5625,-6.8125 -4.3125,-3.9375 -13.375,-8.8125 -5.5625,-9.4375 -1,-5.0625 3,-3.4375 -4.75,-10.8125 1.0625,-4.875 2.5,-3.3125 0.4375,-21.625 2,-6.375 4.6875,-5.9375 -7.0625,-3.8125 -13.9375,0.375 -17.6875,-2.4375 -4.4375,-4.6875 -5,-0.875 -5.3125,-4.4375 -25.8125,7.4375 -17.75,18.3125 -2.1875,9.3125 3.6875,14.0625 3.25,6.75 -6.1875,10.4375 -3.25,10.4375 3.375,14.4375 4.9375,3.8125 6,8.9375 z"
         id="path19" />
    </g>
  </g>
</svg>
