<?xml version="1.0" encoding="UTF-8" standalone="no"?>
<!-- Created with Inkscape (http://www.inkscape.org/) -->

<svg
   version="1.1"
   id="svg1"
   width="29.07976"
   height="55.994019"
   viewBox="0 0 29.07976 55.994019"
   xmlns="http://www.w3.org/2000/svg"
   xmlns:svg="http://www.w3.org/2000/svg">
  <defs
     id="defs1" />
  <g
     id="layer1"
     style="display:inline"
     transform="translate(-388.3342,-241.83051)">
    <g
       id="layer23"
       style="display:inline;fill:#ffffff;fill-opacity:1;stroke:none">
      <path
         style="fill:#ffffff;fill-opacity:1;stroke:none;stroke-width:1;stroke-linecap:round;stroke-dasharray:none;stroke-opacity:1"
         d="m 413.12713,241.83051 4.28683,7.07107 -0.97227,3.49134 -0.88388,3.62392 1.67937,8.66206 -0.44194,2.96101 -0.13258,2.16551 -2.69584,3.31457 0.26516,2.87262 -0.88388,0.92808 -0.70711,11.93242 -8.92722,8.08754 -3.88909,0.88388 -4.64039,-3.88909 -2.29809,-0.39774 -0.48614,-3.27037 0.92808,-1.63519 1.28163,-4.28683 -2.47488,-2.38649 -0.35355,-2.65165 -2.91681,-1.63518 -0.44195,-1.5026 3.35876,-4.99395 -3.44714,-1.90035 2.56326,-5.74524 6.01041,-6.54074 8.17592,-2.12132 0.92807,0.92808 2.47488,-0.92808 1.10485,-8.57367 z"
         id="path21" />
    </g>
  </g>
</svg>
