<?xml version="1.0" encoding="UTF-8" standalone="no"?>
<!-- Created with Inkscape (http://www.inkscape.org/) -->

<svg
   version="1.1"
   id="svg2"
   width="29.679888"
   height="56.21516"
   viewBox="0 0 29.679888 56.21516"
   xmlns="http://www.w3.org/2000/svg"
   xmlns:svg="http://www.w3.org/2000/svg">
  <defs
     id="defs6">
    <linearGradient
       id="swatch77">
      <stop
         style="stop-color:#e2c69e;stop-opacity:1;"
         offset="0"
         id="stop77" />
    </linearGradient>
  </defs>
  <g
     id="layer66"
     style="display:inline"
     transform="translate(-388.17234,-242.09559)">
    <g
       id="layer32"
       style="display:inline">
      <path
         style="display:inline;fill:#969696;fill-opacity:1;stroke:none;stroke-width:1;stroke-dasharray:none;stroke-opacity:1"
         d="m 399.33855,297.69195 c -0.0527,-0.0264 -0.12561,0.0292 -0.17677,0 -0.34794,-0.19882 -0.65935,-0.45676 -0.97227,-0.7071 -1.056,-0.8448 0.13873,0.0503 -0.53033,-0.61872 -0.25087,-0.25087 -0.51168,-0.49424 -0.7955,-0.70711 -0.13744,-0.10308 -0.3045,-0.16209 -0.44194,-0.26516 -1.09509,-0.82132 0.20359,0.1152 -0.35356,-0.44194 -0.10416,-0.10417 -0.24938,-0.161 -0.35355,-0.26517 -0.0208,-0.0208 0.0208,-0.0676 0,-0.0884 -0.0829,-0.0829 -0.27515,-0.14756 -0.35355,-0.26516 -0.0888,-0.13318 -0.0633,-0.32846 -0.17678,-0.44194 -0.0466,-0.0466 -0.14023,-0.0336 -0.17678,-0.0884 -0.049,-0.0736 0.0625,-0.20267 0,-0.26517 -0.0417,-0.0417 -0.12407,0.0264 -0.17677,0 -0.0994,-0.0497 -0.16047,-0.23026 -0.26517,-0.26516 -0.0795,-0.0265 -0.18561,0.0265 -0.26516,0 -0.19715,-0.0657 -0.42852,-0.18365 -0.61872,-0.26517 -0.20624,-0.0884 -0.43921,-0.13053 -0.61872,-0.26516 -0.0527,-0.0395 -0.0336,-0.14024 -0.0884,-0.17678 -0.049,-0.0327 -0.12087,0.0186 -0.17677,0 -0.20282,-0.0676 -0.3107,-0.3107 -0.44195,-0.44194 -0.0542,-0.0543 -0.31924,-0.12792 -0.35355,-0.26517 -0.0214,-0.0858 0.0173,-0.17849 0,-0.26516 -0.0458,-0.22888 -0.0805,-0.12081 -0.17678,-0.26517 -0.14258,-0.21388 -0.0884,-0.46304 -0.0884,-0.7071 0,-0.29463 -0.11606,-0.61308 0,-0.88389 0.0492,-0.11489 0.18707,-0.16755 0.26516,-0.26516 0.0412,-0.0514 0.0589,-0.11785 0.0884,-0.17678 0.11785,-0.0884 0.24939,-0.161 0.35355,-0.26516 0.0751,-0.0751 0.10166,-0.19005 0.17678,-0.26517 0.17736,-0.17736 0.47727,-0.29458 0.61872,-0.53033 0.32011,-0.53353 -0.0464,-0.0376 0.0884,-0.44194 0.0132,-0.0395 0.0589,-0.0589 0.0884,-0.0884 0.0589,-0.14731 0.13119,-0.28997 0.17678,-0.44194 0.11781,-0.39271 0.0254,-0.59425 0.0884,-0.97227 0.0448,-0.26855 0.31129,-0.67643 0.35355,-0.97227 0.0292,-0.20417 -0.0339,-0.41529 0,-0.61872 0.0153,-0.0919 0.0658,-0.17478 0.0884,-0.26517 0.0378,-0.15132 0.0552,-2.16565 0,-2.38648 -0.0605,-0.24179 -0.12429,-0.14224 -0.26516,-0.35356 -0.18422,-0.27632 -0.33287,-0.67607 -0.53033,-0.97227 -0.0693,-0.104 -0.20086,-0.15798 -0.26517,-0.26516 -0.16225,-0.27043 -0.19217,-0.4314 -0.44194,-0.61872 -0.0527,-0.0395 -0.13019,-0.0418 -0.17678,-0.0884 -0.0208,-0.0208 0.0208,-0.0676 0,-0.0884 -0.10158,-0.10158 -0.3546,-0.19238 -0.44194,-0.26516 -0.16005,-0.13338 -0.27241,-0.32085 -0.44194,-0.44195 -0.048,-0.0342 -0.12407,0.0264 -0.17678,0 -0.2149,-0.10745 -0.37568,-0.3508 -0.61872,-0.44194 -0.14066,-0.0528 -0.29749,-0.0471 -0.44194,-0.0884 -0.15434,-0.0441 -0.31133,-0.19986 -0.44194,-0.26516 -0.35272,-0.17636 -0.77409,-0.33215 -1.06066,-0.61872 -0.0208,-0.0208 0.0163,-0.0639 0,-0.0884 -0.0693,-0.104 -0.20926,-0.15336 -0.26516,-0.26516 -0.0261,-0.0522 -0.14746,-0.32424 -0.17678,-0.35356 -0.0208,-0.0208 -0.0676,0.0208 -0.0884,0 -0.0417,-0.0417 0.0417,-0.13511 0,-0.17677 -0.0208,-0.0208 -0.0752,0.0263 -0.0884,0 -0.0659,-0.13176 0,-0.29463 0,-0.44194 0,-0.71747 0.1548,-0.65667 0.70711,-0.97228 0.25581,-0.14617 0.43787,-0.41067 0.70711,-0.53033 0.13728,-0.061 0.29804,-0.0452 0.44194,-0.0884 0.31171,-0.0935 0.69705,-0.25846 0.97227,-0.44195 0.24514,-0.16343 0.46196,-0.3669 0.70711,-0.53033 0.22607,-0.15071 0.51519,-0.25002 0.7071,-0.44194 0.05,-0.0499 0.11094,-0.28771 0.17678,-0.35355 0.0208,-0.0208 0.0675,0.0208 0.0884,0 0.0736,-0.0736 0,-0.55272 0,-0.70711 0,-0.054 0.0547,-0.7135 0,-0.79549 -0.45048,-0.67573 -1.79201,-0.8357 -2.47488,-0.97228 -0.24684,-0.0494 -0.46289,-0.20411 -0.7071,-0.26516 -0.30615,-0.0765 -0.0531,0.11192 -0.35356,-0.0884 -0.36631,-0.24421 -0.18144,-0.46063 -0.26516,-0.79549 -0.032,-0.12783 -0.14482,-0.22573 -0.17678,-0.35356 -0.0749,-0.29968 0,-0.76742 0,-1.06066 0,-0.77747 0.27996,-0.76122 0.61872,-1.32582 0.49107,-0.81844 -0.26877,0.36076 0.17678,-0.53033 0.0295,-0.0589 0.13019,-0.0418 0.17677,-0.0884 0.0208,-0.0208 -0.0132,-0.062 0,-0.0884 0.0708,-0.14156 0.26503,-0.22076 0.35356,-0.35355 0.0674,-0.10108 0.0155,-0.25637 0.0884,-0.35356 0.0637,-0.085 0.18018,-0.11303 0.26516,-0.17677 0.0378,-0.0283 0.37108,-0.50061 0.44194,-0.61872 0.13602,-0.2267 0.35677,-0.53998 0.44194,-0.7955 0.0629,-0.1886 0.084,-0.43321 0.17678,-0.61871 0.0582,-0.11643 0.20695,-0.23713 0.26517,-0.35356 0.0417,-0.0833 0.0367,-0.18764 0.0884,-0.26516 0.12765,-0.19147 0.30067,-0.34869 0.44195,-0.53033 0.17064,-0.2194 0.264,-0.49358 0.44194,-0.70711 0.0422,-0.0506 0.13019,-0.0418 0.17677,-0.0884 0.13223,-0.13222 0.32366,-0.37261 0.44195,-0.53033 0.10307,-0.13744 0.14368,-0.32046 0.26516,-0.44194 0.0751,-0.0751 0.18221,-0.11042 0.26517,-0.17678 0.53468,-0.42775 0.9675,-0.98614 1.5026,-1.41421 0.0514,-0.0412 0.13019,-0.0418 0.17677,-0.0884 0.0208,-0.0208 -0.0208,-0.0676 0,-0.0884 0.0185,-0.0185 0.47653,-0.40607 0.53033,-0.44194 0.5287,-0.35246 1.08528,-0.68585 1.67938,-0.88388 0.47818,-0.1594 1.08882,-0.0763 1.59099,-0.17678 0.0289,-0.006 0.0589,0 0.0884,0 0.14732,0 0.3003,0.0405 0.44194,0 0.14165,-0.0405 0.2138,-0.21858 0.35356,-0.26516 0.15924,-0.0531 0.36439,0.0332 0.53033,0 0.6434,-0.12868 -0.0683,-0.01 0.44194,-0.26517 0.0527,-0.0263 0.12261,0.0232 0.17678,0 0.1579,-0.0677 0.28403,-0.19749 0.44194,-0.26516 0.0542,-0.0232 0.12206,0.0219 0.17677,0 0.8244,-0.5496 -0.12407,0.0119 0.44195,-0.17678 0.11785,-0.0589 0.2357,-0.11785 0.35355,-0.17678 0,-0.0295 -0.0208,-0.0676 0,-0.0884 0.0859,-0.0859 0.24939,-0.0259 0.35355,-0.0884 0.40237,-0.40237 -0.0366,-0.0467 0.35356,-0.17678 0.37233,-0.12411 0.55797,-0.54415 0.88388,-0.70711 0.50992,-0.25496 0.33104,-0.0514 0.70711,-0.17677 0.0279,-0.009 -0.0264,-0.0752 0,-0.0884 0.0527,-0.0264 0.11785,0 0.17677,0 0.73902,0 0.60331,0.073 1.14905,0.61872 0.18281,0.18281 0.23595,0.10835 0.35355,0.26516 0.0719,0.0958 0.21277,0.37155 0.35356,0.44194 0.31404,0.15702 0.59982,0.17678 0.97227,0.17678 0.27023,0 0.51132,0.068 0.70711,-0.17678 0.32807,-0.41009 0.0155,-0.135 0.0884,-0.35355 0.0417,-0.125 0.15093,-0.22435 0.17677,-0.35355 0.0484,-0.24211 0,-0.54514 0,-0.7955 v -1.85615 -2.38649 c 0,-0.2729 -0.0452,-0.61263 0,-0.88388 0.0491,-0.29477 0.27423,-0.51786 0.35356,-0.7955 0.0953,-0.33345 0.15549,-0.64326 0.26516,-0.97227 0.35763,-1.07289 1.6561,-1.8701 2.56326,-2.47487 0.17432,-0.11622 0.0304,-0.13396 0.17678,-0.35356 0.0163,-0.0245 0.0675,0.0208 0.0884,0 0.1334,-0.1334 0.2489,-0.28497 0.35355,-0.44194 0.1627,-0.24404 0.17261,-0.60622 0.26517,-0.88388 0.0378,-0.11339 0.13898,-0.24017 0.17677,-0.35356 0.0265,-0.0796 -0.0265,-0.18561 0,-0.26516 0.10568,-0.31704 0.26517,-0.24922 0.26513,-0.26507 0.44495,0.483 0.91651,1.39126 1.50256,2.56336 0.1336,0.26719 0.21453,0.65646 0.44194,0.88388 0.0751,0.0751 0.19005,0.10166 0.26517,0.17678 0.0208,0.0208 -0.0132,0.062 0,0.0884 0.0373,0.0745 0.15042,0.0977 0.17677,0.17677 0.0186,0.0559 -0.0263,0.12407 0,0.17678 0.0932,0.18634 0.31695,0.27527 0.44195,0.44194 0.0945,0.126 0.16945,0.38677 0.26516,0.53033 0.0693,0.10401 0.19017,0.16517 0.26517,0.26517 0.0177,0.0236 -0.0208,0.0676 0,0.0884 0.0466,0.0466 0.14731,0.0295 0.17677,0.0884 0.0395,0.0791 -0.0328,0.1831 0,0.26517 0.031,0.0774 0.12678,0.11011 0.17678,0.17677 0.25203,0.33604 0.25808,1.09608 0.17678,1.50261 -0.0458,0.22888 -0.0805,0.1208 -0.17678,0.26516 -0.0517,0.0775 -0.0225,0.19928 -0.0884,0.26517 -0.0466,0.0466 -0.14023,0.0336 -0.17678,0.0884 -0.0327,0.049 0.0303,0.12625 0,0.17678 -0.0643,0.10719 -0.19016,0.16517 -0.26516,0.26517 -0.063,0.084 -0.11024,0.33104 -0.17678,0.44194 -0.0758,0.12632 -0.19928,0.22179 -0.26516,0.35355 -0.0884,0.17678 0.17677,0 0,0.26517 -0.0366,0.0548 -0.15083,0.0278 -0.17678,0.0884 -0.0706,0.16473 -0.0449,0.35647 -0.0884,0.53033 -0.11376,0.45506 -0.17241,0.95047 -0.26516,1.41422 -0.0258,0.1292 -0.15094,0.22435 -0.17678,0.35355 -0.0498,0.24878 -0.041,2.44024 0,2.56326 0.0466,0.13976 0.21046,0.21678 0.26517,0.35356 0.0568,0.14212 0.0168,0.38722 0.0884,0.53033 0.0475,0.0951 0.2321,0.30964 0.26517,0.44194 0.0143,0.0572 -0.0263,0.12407 0,0.17678 0.0373,0.0745 0.13055,0.10743 0.17678,0.17677 0.11898,0.17847 0.088,0.42345 0.17677,0.61872 0.0711,0.1564 0.18834,0.28828 0.26517,0.44194 0.11071,0.22143 -0.0619,0.49495 0.17677,0.97227 0.0132,0.0264 0.0752,-0.0263 0.0884,0 0.0543,0.10866 0.05,0.23831 0.0884,0.35356 0.0593,0.17802 0.22847,0.34686 0.26517,0.53033 0.0173,0.0867 -0.0279,0.18131 0,0.26516 0.0713,0.21392 0.29603,0.38864 0.35355,0.61872 0.0911,0.36443 0,0.85812 0,1.23744 0,0.17337 0.0765,0.64244 0,0.79549 -0.24855,0.49709 -0.48945,0.98024 -0.70711,1.5026 -0.10307,0.24738 -0.0836,0.56254 -0.17677,0.7955 -0.28805,0.72011 -0.0909,-0.16663 -0.26517,0.53033 -0.0286,0.11433 0.0231,0.23799 0,0.35355 -0.0367,0.18347 -0.20582,0.35231 -0.26516,0.53033 -0.0373,0.11181 0.0194,0.23731 0,0.35356 -0.0538,0.32277 -0.13564,0.64316 -0.17678,0.97227 -0.0433,0.34648 0.10965,0.8201 0,1.14905 -0.0314,0.0941 -0.63303,0.85425 -0.70711,0.88388 -0.11557,0.0462 -0.49015,0.0996 -0.61872,0.17678 -0.0715,0.0429 -0.11011,0.12677 -0.17677,0.17677 -0.1531,0.11483 -0.37935,0.18968 -0.53033,0.26517 -0.33879,0.1694 -0.32484,0.79773 -0.44194,1.14905 -0.15346,0.46035 0.21111,0.75288 0.44194,1.06066 0.10308,0.13743 0.14368,0.32046 0.26516,0.44194 0.0208,0.0208 0.0791,-0.028 0.0884,0 0.0847,0.25423 0,0.69275 0,0.97227 0,0.27678 0.0535,0.61613 0,0.88388 -0.0792,0.39602 -0.31619,0.77181 -0.44194,1.14905 -0.0845,0.25352 0.0328,0.6215 0,0.88389 -0.10329,0.82631 -0.0132,1.64738 -0.0884,2.47487 -0.089,0.97908 -0.3386,1.95819 -0.53033,2.91682 -0.0638,0.31898 -0.22533,0.65358 -0.26516,0.97227 -0.0471,0.37708 -0.0259,0.77426 -0.0884,1.14905 -0.039,0.2343 -0.25999,0.40038 -0.35356,0.61871 -0.0753,0.17563 0.0471,0.43048 0,0.61872 -0.0843,0.33724 -0.34085,0.92164 -0.53033,1.23744 -0.0758,0.12632 -0.19928,0.22179 -0.26516,0.35355 -0.0476,0.0952 -0.20786,0.6498 -0.26517,0.70711 -0.0466,0.0466 -0.13019,0.0418 -0.17677,0.0884 -0.3217,0.3217 0.094,0.0621 -0.17678,0.26516 -0.085,0.0637 -0.19005,0.10166 -0.26516,0.17678 -0.0208,0.0208 0.0208,0.0676 0,0.0884 -0.0394,0.0394 -0.6616,0.3251 -0.70711,0.35355 -0.37477,0.23423 -0.72511,0.50789 -1.06066,0.7955 -0.0224,0.0192 0.0264,0.0752 0,0.0884 -1.30084,0.65042 0.9282,-0.78927 -0.7955,0.44194 -0.42197,0.30141 0.14055,-0.25709 -0.61872,0.17677 -0.0922,0.0527 -0.0952,0.19716 -0.17677,0.26517 -0.25306,0.21088 -0.60455,0.26736 -0.88389,0.44194 -0.0707,0.0442 -0.10743,0.13055 -0.17677,0.17678 -0.56631,0.37753 -1.2145,0.66546 -1.76777,1.06066 -0.12652,0.0904 -0.34844,0.39008 -0.44194,0.53033 -0.0163,0.0245 0.0208,0.0676 0,0.0884 -0.0363,0.0363 -0.2426,0.0865 -0.26517,0.17677 -0.0214,0.0857 0.0395,0.18611 0,0.26517 -0.0295,0.0589 -0.13019,0.0418 -0.17677,0.0884 -0.10417,0.10416 -0.18938,0.22723 -0.26517,0.35355 -0.0152,0.0253 0,0.0589 0,0.0884 -0.0295,0.0589 -0.0518,0.12196 -0.0884,0.17677 -0.0964,0.14463 -0.29827,0.27612 -0.35355,0.44195 -0.0186,0.0559 0.0186,0.12087 0,0.17677 -0.0977,0.29302 -0.52114,0.41438 -0.61872,0.70711 -0.0186,0.0559 0.0327,0.12775 0,0.17678 -0.0365,0.0548 -0.13019,0.0418 -0.17677,0.0884 -0.10417,0.10416 -0.161,0.24938 -0.26517,0.35355 -0.0367,0.0367 -0.78341,0.3917 -0.88388,0.44194 -0.0745,0.0373 -0.10224,0.13951 -0.17678,0.17678 -0.12031,0.0602 -0.26516,-0.1054 -0.57452,0.1767 -0.65164,-0.0987 -0.93297,-0.44446 -1.28164,-0.6188 z"
         id="path2" />
    </g>
  </g>
</svg>
