<?xml version="1.0" encoding="UTF-8" standalone="no"?>
<!-- Created with Inkscape (http://www.inkscape.org/) -->

<svg
   version="1.1"
   id="svg2"
   width="76.528542"
   height="23.022371"
   viewBox="0 0 76.528542 23.022371"
   xmlns="http://www.w3.org/2000/svg"
   xmlns:svg="http://www.w3.org/2000/svg">
  <defs
     id="defs6">
    <linearGradient
       id="swatch77">
      <stop
         style="stop-color:#e2c69e;stop-opacity:1;"
         offset="0"
         id="stop77" />
    </linearGradient>
  </defs>
  <g
     id="layer66"
     style="display:inline"
     transform="translate(-812.44097,-484.12568)">
    <g
       id="layer41"
       style="display:inline">
      <path
         style="display:inline;fill:#969696;fill-opacity:1;stroke:none;stroke-opacity:1"
         d="m 822.80713,500.27805 c 0.85798,0.0343 0.7463,0.1161 1.59099,0.26516 0.37085,0.19426 0.76876,0.0341 1.14905,0.0884 0.0652,0.009 0.11217,0.0755 0.17677,0.0884 0.0867,0.0173 0.18131,-0.0279 0.26517,0 0.10078,0.0336 0.17015,0.12927 0.26516,0.17677 0.20276,0.10138 2.21012,0 2.56326,0 h 2.74004 c 0.29061,0 0.80767,-0.12649 1.06066,0 0.88847,0.44424 1.93006,0.56615 2.91682,0.70711 0.17611,0.0252 1.70957,0.33846 2.03293,0.17678 0.13176,-0.0659 0.22565,-0.19208 0.35355,-0.26517 0.0809,-0.0462 0.18765,-0.0367 0.26517,-0.0884 0.0245,-0.0163 -0.0208,-0.0676 0,-0.0884 0.046,-0.046 0.48062,-0.40881 0.53033,-0.44195 0.75554,-0.50369 -0.0832,0.21709 0.79549,-0.44194 0.1,-0.075 0.15917,-0.19891 0.26517,-0.26516 0.13454,-0.0841 0.30003,-0.10582 0.44194,-0.17678 0.095,-0.0475 0.16653,-0.13732 0.26517,-0.17678 0.0547,-0.0219 0.11961,0.0143 0.17677,0 0.32381,-0.0809 0.64975,-0.2614 0.97227,-0.35355 0.18255,-0.0521 0.6539,0 0.7955,0 0.23663,0 1.15502,0.0401 1.32582,0.17678 0.083,0.0664 0.0952,0.19716 0.17678,0.26516 0.20245,0.16871 0.48364,0.21389 0.70711,0.35356 0.30593,0.1912 0.67846,0.41305 0.97227,0.61871 0.64756,0.4533 0.3561,0.31654 0.7955,0.70711 0.48725,0.43312 1.09488,0.8568 1.67937,1.14905 0.10866,0.0543 0.24077,0.0433 0.35356,0.0884 0.24467,0.0979 0.45372,0.28116 0.7071,0.35355 0.42801,0.12229 0.78284,0.16729 1.14905,0.44194 0.25166,0.18874 0.52781,0.32957 0.7955,0.53033 0.14179,0.10635 0.18665,0.36344 0.26516,0.44195 0.0208,0.0208 0.0648,-0.0177 0.0884,0 0.046,0.0345 0.45314,0.36475 0.53033,0.44194 0.0751,0.0751 0.10166,0.19005 0.17678,0.26516 0.1973,0.19731 1.09171,0.57705 1.32582,0.70711 0.40181,0.22323 -0.10172,-0.076 0.53033,0.17678 0.19136,0.0765 -0.0199,0.17677 0.33428,0.86335 0.1932,0.29422 0.2174,-0.24313 0.345,-0.62592 0.0531,-0.15934 0.17488,-0.28727 0.25,-0.4375 0.0208,-0.0417 0.0193,-0.1077 0.0625,-0.125 0.17834,-0.0713 0.37691,-0.0755 0.5625,-0.125 0.23499,-0.0627 0.53798,-0.18529 0.75,-0.3125 0.0505,-0.0303 0.0723,-0.0987 0.125,-0.125 0.0373,-0.0186 0.0833,0 0.125,0 0.0625,-0.0208 0.13101,-0.0286 0.1875,-0.0625 0.0505,-0.0303 0.076,-0.0923 0.125,-0.125 0.11312,-0.0754 0.25423,-0.0667 0.375,-0.1875 0.0399,-0.0399 0.10104,-0.27485 0.125,-0.3125 0.11185,-0.17576 0.25553,-0.32933 0.375,-0.5 0.091,-0.12998 0.11045,-0.2988 0.1875,-0.4375 0.0328,-0.059 0.33103,-0.55904 0.375,-0.625 0.0327,-0.049 0.0958,-0.0738 0.125,-0.125 0.0557,-0.0974 0.0655,-0.21736 0.125,-0.3125 0.0625,-0.0999 0.1973,-0.14459 0.25,-0.25 0.1223,-0.24461 0.3787,-0.46694 0.5625,-0.6875 0.13881,-0.16657 0.23659,-0.38948 0.375,-0.5625 0.20683,-0.25853 0.72857,-0.75655 1,-0.9375 0.0388,-0.0258 0.0921,-0.0296 0.125,-0.0625 0.0771,-0.0771 0.24831,-0.34248 0.375,-0.4375 0.0833,-0.0625 0.15683,-0.14092 0.25,-0.1875 0.0373,-0.0186 0.0903,0.0231 0.125,0 0.0388,-0.0258 0.0296,-0.0921 0.0625,-0.125 0.0737,-0.0737 0.16333,-0.12972 0.25,-0.1875 0.25572,-0.17048 0.22518,-0.0959 0.5,-0.1875 0.37459,-0.12486 -0.15698,0.016 0.25,-0.1875 0.36883,-0.18441 0.85514,-0.13485 1.25,-0.1875 0.84768,-0.11302 -0.13101,-0.014 0.8125,-0.125 2.14289,-0.2521 4.34591,-0.125 6.5,-0.125 h 1.625 c 0.20833,0 0.41909,0.0317 0.625,0 0.23477,-0.0361 0.45458,-0.14092 0.6875,-0.1875 0.39685,-0.0794 0.79506,-0.17151 1.1875,-0.25 0.30956,-0.0619 0.8126,-0.28312 1.125,-0.375 0.37435,-0.1101 0.81512,-0.16355 1.1875,-0.3125 0.48542,-0.19417 0.78384,-0.52647 1.375,-0.625 0.2055,-0.0342 0.41828,0.0258 0.625,0 0.22829,-0.0285 0.45949,-0.15493 0.6875,-0.1875 0.24196,-0.0346 0.51104,-0.0147 0.75,-0.0625 0.0289,-0.006 0.0334,-0.0577 0.0625,-0.0625 0.32153,-0.0536 0.67601,-0.0162 1,-0.0625 0.33573,-0.048 0.67391,-0.0943 1,-0.1875 0.0283,-0.008 0.0339,-0.0553 0.0625,-0.0625 0.0606,-0.0152 0.12687,0.0152 0.1875,0 0.15786,-0.0395 0.23961,-0.22224 0.375,-0.3125 0.26758,-0.17839 0.53603,-0.31569 0.8125,-0.5 0.17967,-0.11978 0.32358,-0.31989 0.5,-0.4375 0.272,-0.18133 0.75919,-0.28584 1.0625,-0.4375 1.21862,-0.69635 -0.0868,-0.003 0.6875,-0.3125 0.0547,-0.0219 0.0723,-0.0987 0.125,-0.125 0.0373,-0.0186 0.0955,0.0295 0.125,0 0.0147,-0.0147 -0.0147,-0.0478 0,-0.0625 0.0205,-0.0205 0.35798,-0.30115 0.375,-0.3125 0.0775,-0.0517 0.17843,-0.0654 0.25,-0.125 0.29778,-0.24815 0.60062,-0.47562 0.96875,-0.71875 0.15846,0.0312 0.18016,0.046 0.21876,-0.0312 0.072,-0.1441 0,-1.1092 0,-1.25 v -1.4375 c 0,-0.19476 0.034,-0.48326 0,-0.6875 -0.0141,-0.0847 -0.0535,-0.1646 -0.0625,-0.25 -0.0115,-0.10352 0.0204,-0.21035 0,-0.3125 -0.0516,-0.2578 -0.216,-0.57125 -0.3125,-0.8125 -0.16312,-0.4078 -0.14241,-0.59296 -0.375,-1 -0.0462,-0.0809 -0.0833,-0.1667 -0.125,-0.25 -0.0208,-0.0833 -0.0241,-0.1732 -0.0625,-0.25 -0.009,-0.0186 -0.0478,0.0147 -0.0625,0 -0.0329,-0.0329 -0.0334,-0.0886 -0.0625,-0.125 -0.13624,-0.17029 -0.41606,-0.4928 -0.625,-0.5625 -0.27856,-0.0928 -1.75776,-0.1231 -2,-0.0625 -0.26962,0.0674 -0.5586,0.2279 -0.8125,0.3125 -0.0733,0.0244 -0.1812,-0.0344 -0.25,0 -0.13457,0.0673 -0.22512,0.2072 -0.375,0.25 -0.55909,0.15974 -1.07213,0.37822 -1.625,0.5625 -0.23952,0.0798 -0.52176,0.1114 -0.75,0.1875 -0.15052,0.0502 -0.28586,0.1408 -0.4375,0.1875 -0.37367,0.115 -0.74562,0.0871 -1.125,0.125 -0.28605,0.0286 -0.58644,0.1394 -0.875,0.1875 -0.1604,0.0267 -0.34291,-0.0393 -0.5,0 -0.19055,0.0476 -0.38241,0.178 -0.5625,0.25 -0.16906,0.0675 -0.38307,0.0401 -0.5625,0.0625 -0.13533,0.0169 -0.55982,0.0412 -0.6875,0.0625 -0.62267,0.1038 0.33755,0.0281 -0.4375,0.125 -0.19602,0.0245 -0.43515,0.008 -0.625,0.0625 -0.0896,0.0256 -0.1644,0.0883 -0.25,0.125 -0.36993,0.15855 -0.80425,0.2792 -1.1875,0.375 -0.17499,0.0437 -0.38167,0.0888 -0.5625,0.125 -0.16343,0.0327 -0.33435,-0.0184 -0.5,0 -0.26806,0.0298 -0.546,0.1431 -0.8125,0.1875 -0.28312,0.0472 -0.58961,-0.0317 -0.875,0 -0.70794,0.0787 -1.48432,0.14064 -2.1875,0 -0.0457,-0.009 -0.079,-0.0545 -0.125,-0.0625 -0.34981,-0.0585 -0.79302,0.10349 -1.125,-0.0625 -0.20153,-0.10076 -0.46581,-0.13915 -0.6875,-0.25 -0.0527,-0.0263 -0.0779,-0.0896 -0.125,-0.125 -0.13569,-0.10176 -0.39798,-0.1952 -0.5625,-0.25 -0.13003,-0.0433 -0.23629,-0.0394 -0.375,-0.0625 -0.12997,-0.0217 -0.24717,-0.093 -0.375,-0.125 -0.13196,-0.033 -0.3075,0.0217 -0.4375,0 -0.49306,-0.0822 -1.53577,-1.56036 -1.92717,-2.08136 -0.89842,-0.19366 -2.10698,-0.0629 -2.82881,-0.32064 -0.45438,-0.16228 -0.85758,-0.45089 -1.28163,-0.66291 -0.0751,-0.0376 -0.0686,-0.15547 -0.13258,-0.17678 -0.028,-0.009 -0.062,0.0132 -0.0884,0 -0.0132,-0.007 0.0104,-0.0338 0,-0.0442 -0.0315,-0.0315 -0.24237,-0.16701 -0.26516,-0.17678 -0.19387,-0.0831 -0.41341,-0.0843 -0.61872,-0.13258 -0.1635,-0.0385 -0.31986,-0.10883 -0.48614,-0.13259 -0.16976,-0.0242 -0.35865,0 -0.53033,0 -0.0737,0 -0.1492,-0.0166 -0.22097,0 -0.12264,0.0283 -0.23415,0.0928 -0.35355,0.13259 -0.17287,0.0576 -0.35278,0.0916 -0.53033,0.13258 -0.456,0.10523 -0.9142,0.20806 -1.37002,0.30936 -0.0288,0.006 -0.061,-0.0109 -0.0884,0 -0.0986,0.0394 -0.16752,0.13493 -0.26516,0.17677 -0.0558,0.0239 -0.1247,0.013 -0.17678,0.0442 -0.20893,0.12535 -0.36787,0.36214 -0.57453,0.48613 -0.0399,0.024 -0.0909,0.0234 -0.13258,0.0442 -0.0186,0.009 -0.0295,0.0295 -0.0442,0.0442 -0.10312,0.0589 -0.20124,0.12763 -0.30936,0.17678 -0.41863,0.19029 -0.89863,0.22687 -1.32583,0.39775 -0.2746,0.10984 -0.49061,0.2674 -0.7513,0.39774 -0.34992,0.17496 -0.38516,0.13351 -0.79549,0.30936 -0.0488,0.0209 -0.0822,0.0716 -0.13259,0.0884 -0.15338,0.0511 -0.51587,0.15287 -0.7071,0.17678 -0.26517,0.0331 -0.1591,-0.0265 -0.39775,0 -0.65634,0.0729 -1.3256,0.0442 -1.98874,0.0442 -0.60949,0 -1.24602,0.0407 -1.85615,0 -0.14732,-0.0147 -0.29463,-0.0295 -0.44194,-0.0442 -0.0295,-0.0147 -0.0559,-0.0388 -0.0884,-0.0442 -0.15984,-0.0266 -0.32409,0 -0.48614,0 h -1.28163 c -0.3306,0 -0.70597,-0.0358 -1.01647,0.0884 -0.5043,0.20172 -0.95241,0.51329 -1.41421,0.7955 -0.0906,0.0554 -0.17872,0.11503 -0.26516,0.17677 -0.017,0.0121 -0.0238,0.0401 -0.0442,0.0442 -0.0578,0.0116 -0.12034,-0.0169 -0.17678,0 -0.26578,-0.18996 -0.19908,0.13267 -0.30935,0.17678 -0.17302,0.0692 -0.35356,0.11785 -0.53033,0.17677 -0.0916,0.0942 -0.20921,0.0156 -0.30936,0.0442 -0.0634,0.0181 -0.11428,0.0675 -0.17678,0.0884 -0.028,0.009 -0.0598,-0.007 -0.0884,0 -0.18579,0.0465 -0.34865,0.16042 -0.53033,0.22098 -0.0279,0.009 -0.0589,0 -0.0884,0 -0.2357,0.0737 -0.47424,0.13878 -0.7071,0.22097 -0.0196,0.007 -0.0244,0.0376 -0.0442,0.0442 -0.46626,0.15542 -0.94912,0.27584 -1.41421,0.44194 -0.062,0.0222 -0.11428,0.0676 -0.17678,0.0884 -0.52953,0.17651 0.0102,-0.0285 -0.35355,0.0442 -0.0969,0.0194 -0.17142,0.10133 -0.26517,0.13258 -0.028,0.009 -0.061,-0.0109 -0.0884,0 -0.51338,0.20535 0.50722,-0.0423 -0.44194,0.17677 -0.33939,0.0783 -0.71223,0.1893 -1.06066,0.22098 -0.7292,0.0663 0.0332,-0.0331 -0.39774,0 -0.33404,0.0257 -0.71922,0.0821 -1.06067,0.0442 -0.23095,-0.0257 -0.60224,-0.0479 -0.79549,-0.17678 -0.0785,-0.0523 -0.14064,-0.12734 -0.22097,-0.17677 -0.26703,-0.16433 -0.5704,-0.28037 -0.83969,-0.44195 -0.16222,-0.0973 -0.31737,-0.22497 -0.48614,-0.30936 -0.0264,-0.0132 -0.062,0.0132 -0.0884,0 -0.0132,-0.007 0.0132,-0.0376 0,-0.0442 -0.0264,-0.0132 -0.061,0.0109 -0.0884,0 -0.0684,-0.0274 -0.1069,-0.10929 -0.17678,-0.13258 -0.11524,-0.0384 -0.23915,-0.0475 -0.35355,-0.0884 -0.48138,-0.17192 -0.0891,-0.0926 -0.39775,-0.17678 -0.27466,-0.0749 -0.57033,-0.13118 -0.83969,-0.22097 -0.24202,-0.0807 -0.51494,-0.27379 -0.70711,-0.44194 -0.0627,-0.0549 -0.10442,-0.13543 -0.17677,-0.17678 -0.0384,-0.0219 -0.0977,0.0271 -0.13259,0 -0.2641,-0.20541 -0.23131,-0.29988 -0.39774,-0.53033 -0.14732,-0.1915 -0.29463,-0.38301 -0.44195,-0.57452 0,-0.0442 0.0179,-0.0922 0,-0.13258 -0.24194,-0.54438 -0.12151,-0.007 -0.26516,-0.48614 -0.0258,-0.0858 -0.0159,-0.18015 -0.0442,-0.26516 -0.0251,-0.0753 -0.0712,-0.14353 -0.0884,-0.22097 -0.0192,-0.0863 0.049,-0.19163 0,-0.26517 -0.0183,-0.0274 -0.062,-0.0244 -0.0884,-0.0442 -0.0333,-0.025 -0.0573,-0.0607 -0.0884,-0.0884 -0.42088,-0.37412 -0.30675,-0.23856 -0.79549,-0.35356 -0.26257,0.17443 -0.34956,-0.13158 -0.53033,-0.17677 -0.31725,-0.0793 -0.57298,-0.13046 -0.92808,-0.17678 -0.46923,-0.0612 -0.9511,-0.0775 -1.41422,-0.17678 -0.13139,-0.0281 -0.61746,-0.13216 -0.7513,-0.17677 -0.014,-0.005 0.0143,-0.0406 0,-0.0442 -0.11147,-0.0279 -0.45605,-0.0296 -0.57452,0 -0.44347,0.11087 -0.39756,0.21202 -0.92808,0.53033 -0.18687,0.11213 -0.41711,0.19796 -0.61872,0.26517 -0.0625,0.0208 -0.13019,0.0418 -0.17677,0.0884 -0.0104,0.0104 0.0104,0.0338 0,0.0442 -0.0309,0.0309 -0.17545,0.0656 -0.22097,0.0884 -0.0565,0.0282 -0.0444,0.0886 -0.0884,0.13258 -0.13253,0.0147 -0.26875,0.01 -0.3976,0.0441 -0.27189,0.0725 -0.18436,0.11332 -0.35355,0.17677 -0.34659,0.12997 -0.67275,0.30974 -1.01647,0.44194 -0.13044,0.0502 -0.26874,0.0788 -0.39775,0.13259 -0.049,0.0204 -0.0829,0.0697 -0.13258,0.0884 -0.0975,0.0366 -0.21264,0.005 -0.30936,0.0442 -0.17134,0.0685 -0.34243,0.20429 -0.35354,0.53031 0.0884,0.67762 0.14732,0.20622 10e-6,0.35353 -0.0625,0.0625 0.0395,0.18607 0,0.26517 -0.0132,0.0263 -0.0589,0 -0.0884,0 -0.0589,0.14731 -0.11788,0.29463 -0.17678,0.44194 -0.0682,0.20468 -0.0525,0.52069 -0.17677,0.70711 -0.1473,0.22097 -0.0884,-0.47141 -0.0884,0.17677 -0.0132,0.0264 -0.0794,-0.0279 -0.0884,0 -0.0279,0.0839 0.0214,0.17937 0,0.26517 -0.0101,0.0404 -0.0752,0.0489 -0.0884,0.0884 -0.0511,0.15335 -0.15288,0.56401 -0.17678,0.7071 -0.0223,0.13356 -0.0253,0.52402 -0.0884,0.61872 -0.0365,0.0548 -0.13017,0.0418 -0.17677,0.0884 -0.0417,0.0417 0.0417,0.13508 0,0.17678 -0.091,0.091 -0.17417,0.0858 -0.26517,0.17677 -0.0589,0.0589 -0.13057,0.10748 -0.17677,0.17678 -0.0163,0.0245 0.0208,0.0676 0,0.0884 -0.10164,0.10168 -0.33839,0.10778 -0.44195,0.17678 -0.84471,0.56314 -0.0116,0.0193 -0.26516,0.44194 -0.15479,0.25799 -0.42746,0.39849 -0.53033,0.7071 -0.0995,0.29866 0.13078,0.6079 0.17678,0.88389 0.0327,0.19643 -0.0482,0.42575 0,0.61872 0.0834,0.3335 0.34574,0.59538 0.44194,0.88388 0.0186,0.0559 -0.0186,0.12088 0,0.17678 0.092,0.2759 0.0589,-0.0294 0.17677,0.0884 0.0417,0.0417 -0.0527,0.15038 0,0.17678 0.44995,0.22488 -0.17298,-0.43815 0.44195,0.17678 0.0659,0.0659 -0.16047,0.26016 0.0884,0.26516 0.0466,0.0466 0.13018,0.0418 0.17678,0.0884 0.0658,0.0658 0.12688,0.30365 0.17678,0.35355 0.0208,0.0208 0.0676,-0.0208 0.0884,0 0.61408,0.61409 1.74279,3.22251 2.47488,3.62393 2.20743,0.58693 4.15735,0.45263 6.09879,0.53033 z"
         id="path61" />
    </g>
  </g>
</svg>
