<?xml version="1.0" encoding="UTF-8" standalone="no"?>
<!-- Created with Inkscape (http://www.inkscape.org/) -->

<svg
   version="1.1"
   id="svg1"
   width="77.3125"
   height="21.9375"
   viewBox="0 0 77.3125 21.9375"
   xmlns="http://www.w3.org/2000/svg"
   xmlns:svg="http://www.w3.org/2000/svg">
  <defs
     id="defs1" />
  <g
     id="layer1"
     style="display:inline"
     transform="translate(-812.18748,-484.31249)">
    <g
       id="layer25"
       style="display:inline;fill:#ffffff;fill-opacity:1;stroke:none">
      <path
         style="fill:#ffffff;fill-opacity:1;stroke:none;stroke-width:1;stroke-linecap:round;stroke-dasharray:none;stroke-opacity:1"
         d="m 815.56248,486.12499 4.875,-1.375 6.625,2.6875 0.6875,2.25 3.75,0.75 12.3125,-2.9375 9,-1.25 3.375,-1.9375 7.625,2.0625 2.4375,2.4375 4.25,1.0625 6.6875,-0.875 4.8125,-1.6875 2.4375,-1.6875 2.75,-0.4375 2.3125,4.3125 -1.4375,4.0625 -2.6875,2.5 -14.625,2.75 -8.125,-0.375 -2,1.3125 -1.9375,3.875 -3.875,2.625 -2.875,-1.1875 -2.875,-2.375 -6.125,-3.0625 -4.375,2.625 -3.9375,0.0625 -2.9375,-1.9375 -11,0.125 -4.875,-1.125 -3.625,-3.875 1.8125,-2.6875 z"
         id="path22" />
    </g>
  </g>
</svg>
