<?xml version="1.0" encoding="UTF-8" standalone="no"?>
<!-- Created with Inkscape (http://www.inkscape.org/) -->

<svg
   version="1.1"
   id="svg1"
   width="67.926399"
   height="40.791229"
   viewBox="0 0 67.926399 40.791229"
   xmlns="http://www.w3.org/2000/svg"
   xmlns:svg="http://www.w3.org/2000/svg">
  <defs
     id="defs1" />
  <g
     id="layer1"
     style="display:inline"
     transform="translate(-1007.362,-459.88456)">
    <g
       id="layer26"
       style="display:inline;fill:#ffffff;fill-opacity:1;stroke:none">
      <path
         style="fill:#ffffff;fill-opacity:1;stroke:none;stroke-width:1;stroke-linecap:round;stroke-dasharray:none;stroke-opacity:1"
         d="m 1007.362,487.37334 3.7123,-3.71231 13.0815,-4.64039 5.48,-0.48614 1.9004,-4.5078 22.8484,-1.01647 7.8665,-6.31977 3.4472,-1.19324 8.5295,-5.61266 1.0606,1.01647 -0.088,3.62392 -5.6126,6.40815 -0.8839,2.74004 -8.6179,6.49655 0.088,2.29809 1.591,0.39775 2.2097,1.85616 0.5745,4.41941 -2.8284,2.56327 -7.5572,0.0442 -6.6733,1.76777 -4.6846,1.06066 -4.5078,3.09359 -3.6239,3.0052 -13.3467,-0.17677 -5.0381,-1.01647 -4.0217,-4.59619 -1.2816,-3.57973 z"
         id="path23" />
    </g>
  </g>
</svg>
