<?xml version="1.0" encoding="UTF-8" standalone="no"?>
<!-- Created with Inkscape (http://www.inkscape.org/) -->

<svg
   version="1.1"
   id="svg2"
   width="67.690872"
   height="40.871578"
   viewBox="0 0 67.690872 40.871578"
   xmlns="http://www.w3.org/2000/svg"
   xmlns:svg="http://www.w3.org/2000/svg">
  <defs
     id="defs6">
    <linearGradient
       id="swatch77">
      <stop
         style="stop-color:#e2c69e;stop-opacity:1;"
         offset="0"
         id="stop77" />
    </linearGradient>
  </defs>
  <g
     id="layer66"
     style="display:inline"
     transform="translate(-1007.6665,-460.01408)">
    <g
       id="layer51"
       style="display:inline">
      <path
         style="display:inline;fill:#969696;fill-opacity:1;stroke:none;stroke-opacity:1"
         d="m 1026.0549,500.41066 c -0.1455,-0.023 -0.2961,0.0208 -0.4419,0 -0.02,-0.003 -0.024,-0.0392 -0.044,-0.0442 -0.049,-0.0123 -0.164,0.008 -0.221,0 -0.1774,-0.0254 -0.3522,-0.0686 -0.5303,-0.0884 -0.3794,-0.0422 -0.7702,-0.006 -1.1491,-0.0442 -0.8009,-0.0801 -1.5804,-0.33054 -2.3864,-0.39774 -0.278,-0.0232 -0.5618,0.0232 -0.8397,0 -0.2659,-0.0222 -0.5311,-0.0531 -0.7955,-0.0884 -0.1422,-0.019 -0.2638,-0.088 -0.3978,-0.13258 -0.1552,-0.0518 -0.3369,-0.0766 -0.4861,-0.13259 -0.1492,-0.0559 -0.2611,-0.18316 -0.3978,-0.26516 -0.2539,-0.1524 -0.5608,-0.26066 -0.8396,-0.35356 -0.1459,-0.0486 -0.2988,-0.0765 -0.442,-0.13258 -0.7158,-0.28009 -0.3923,-0.21307 -1.0164,-0.48613 -0.2499,-0.10933 -0.5234,-0.19403 -0.7514,-0.35356 -0.068,-0.0478 -0.1087,-0.12837 -0.1767,-0.17677 -0.038,-0.0271 -0.097,-0.0144 -0.1326,-0.0442 -0.057,-0.0471 -0.085,-0.12138 -0.1326,-0.17678 -0.2794,-0.31932 -0.4905,-0.67737 -0.7513,-1.01646 -0.051,-0.0661 -0.1268,-0.11008 -0.1768,-0.17678 -0.1274,-0.16997 -0.2409,-0.35016 -0.3535,-0.53033 -0.035,-0.0559 -0.045,-0.12717 -0.088,-0.17677 -0.062,-0.071 -0.157,-0.10778 -0.221,-0.17678 -0.3729,-0.39959 -0.6406,-0.85521 -0.9723,-1.28163 -0.1698,-0.21834 -0.3355,-0.43708 -0.4861,-0.66291 -0.094,-0.14059 -0.1,-0.24464 -0.1768,-0.39775 -0.1383,-0.27669 -0.2586,-0.56155 -0.3977,-0.83969 -0.023,-0.0475 -0.071,-0.0822 -0.088,-0.13258 -0.019,-0.0559 0.033,-0.12778 0,-0.17678 -0.2967,-0.44507 -0.5988,-0.93243 -0.8397,-1.41421 -0.021,-0.0417 -0.021,-0.0922 -0.044,-0.13259 -0.2962,-0.51813 0.036,0.20434 -0.2652,-0.39774 -0.05,-0.10035 -0.076,-0.21246 -0.1325,-0.30936 -0.2197,-0.37656 -0.8783,-0.95014 -1.2375,-1.23744 -0.115,-0.092 -0.2453,-0.16527 -0.3535,-0.26517 -0.1249,-0.1153 -0.2594,-0.37554 -0.442,-0.44194 -0.083,-0.0302 -0.1771,0 -0.1816,0.19905 0.1255,-0.009 0.1335,-0.22702 0.2085,-0.42595 0.1645,-0.43858 2.1196,-2.55915 2.625,-2.875 0.4163,-0.26022 0.8524,-0.45178 1.25,-0.75 0.1741,-0.13059 0.3065,-0.40325 0.5,-0.5 0.074,-0.0373 0.1755,0.0373 0.25,0 0.15,-0.075 0.225,-0.3 0.375,-0.375 0.4262,-0.21309 1.0391,-0.30915 1.5,-0.375 0.165,-0.0236 0.3419,0.0527 0.5,0 0.1118,-0.0373 0.1382,-0.21273 0.25,-0.25 0.079,-0.0263 0.1709,0.0263 0.25,0 0.2068,-0.0689 0.118,-0.31076 0.375,-0.375 0.6416,-0.16039 0.1235,0.25075 0.875,-0.125 0.037,-0.0186 -0.037,-0.10637 0,-0.125 0.1537,-0.0768 0.3463,-0.0482 0.5,-0.125 0.1054,-0.0527 0.1519,-0.18463 0.25,-0.25 0.069,-0.0462 0.1755,0.0373 0.25,0 0.053,-0.0263 0.083,-0.0833 0.125,-0.125 0.125,-0.0833 0.2355,-0.19421 0.375,-0.25 0.077,-0.031 0.1726,0.031 0.25,0 0.1395,-0.0558 0.2355,-0.19421 0.375,-0.25 0.3102,-0.12407 0.9313,-0.15896 1.25,-0.25 0.5741,-0.16402 1.179,-0.3858 1.75,-0.5 0.1226,-0.0245 0.2564,0.0395 0.375,0 0.039,-0.0132 -0.035,-0.10189 0,-0.125 0.1867,-0.12447 0.405,-0.206 0.625,-0.25 0.1226,-0.0245 0.25,0 0.375,0 0.2917,-0.125 0.574,-0.27465 0.875,-0.375 0.2619,-0.0873 0.7595,-0.005 1,-0.125 0.1863,-0.0932 0.3137,-0.28183 0.5,-0.375 0.074,-0.0373 0.1692,0.0202 0.25,0 0.2448,-0.0612 0.4196,-0.2723 0.625,-0.375 0.1747,-0.0874 0.5593,-0.20233 0.75,-0.25 0.2481,-0.062 1.9055,0.0945 2,0 0.066,-0.0659 0.039,-0.2154 0.125,-0.25 0.264,-0.10559 0.6088,0.0887 0.875,0 0.9054,-0.30181 -0.1971,0.036 0.375,-0.25 0.074,-0.0373 0.1911,0.0589 0.25,0 0.03,-0.0295 0,-0.0833 0,-0.125 0.042,-0.0417 0.076,-0.0923 0.125,-0.125 0.2125,-0.1417 0.3648,-0.10467 0.5,-0.375 0.125,-0.25 -0.062,-0.1875 0,-0.375 0.085,-0.25499 0.2678,-0.41056 0.375,-0.625 0.079,-0.15871 -0.055,-0.45887 0,-0.625 0.019,-0.0559 0.099,-0.0723 0.125,-0.125 0.082,-0.16406 0.065,-0.44469 0.125,-0.625 0.3018,-0.90543 -0.036,0.19707 0.25,-0.375 0.019,-0.0373 -0.03,-0.0955 0,-0.125 0.03,-0.0295 0.1064,0.0373 0.125,0 0.037,-0.0745 -0.037,-0.17547 0,-0.25 0.027,-0.0547 1.1065,-0.49472 1.125,-0.5 0.5293,-0.15124 1.3064,0 1.875,0 h 4 c 0.4599,0 1.1069,0.13103 1.5,0 0.054,-0.018 0.6125,-0.24687 0.625,-0.25 0.1213,-0.0303 0.2537,0.0303 0.375,0 0.1426,-0.0356 0.3288,-0.20721 0.5,-0.25 0.3007,-0.0752 0.7259,0.012 1,-0.125 0.5903,-0.29514 -0.763,0.0657 0.5,-0.25 0.344,-0.086 0.52,0.0525 0.875,-0.125 0.2307,-0.11536 3.1608,0 3.5,0 h 4.125 c 0.318,0 1.6544,0.11028 1.875,0 0.037,-0.0186 -0.019,-0.0877 0,-0.125 0.1382,-0.27638 0.078,-0.0388 0.25,-0.125 0.5202,-0.26011 -0.1336,0.009 0.125,-0.25 0.1365,-0.13651 0.6823,-0.24655 0.875,-0.375 0.098,-0.0654 0.1446,-0.1973 0.25,-0.25 0.074,-0.0373 0.1755,0.0373 0.25,0 0.5721,-0.28604 -0.5304,0.0518 0.375,-0.25 0.079,-0.0263 0.1807,0.0462 0.25,0 0.3041,-0.20274 0.5321,-0.45356 0.875,-0.625 0.2687,-0.13438 1.2435,-0.49354 1.375,-0.625 0.03,-0.0295 -0.03,-0.0955 0,-0.125 0.062,-0.0625 0.3,0.05 0.375,0 0.098,-0.0654 0.1519,-0.18463 0.25,-0.25 0.1442,-0.0962 0.4808,0.0962 0.625,0 0.098,-0.0654 0.1846,-0.15194 0.25,-0.25 0.023,-0.0347 -0.037,-0.10637 0,-0.125 0.074,-0.0373 0.1755,0.0373 0.25,0 0.037,-0.0186 -0.03,-0.0955 0,-0.125 0.274,-0.274 0.7195,-0.46954 1,-0.75 0.03,-0.0295 -0.03,-0.0955 0,-0.125 0.4252,-0.42525 1.0197,-0.76478 1.5,-1.125 0.1597,-0.30318 0.5174,-0.21996 0.75,-0.375 0.035,-0.0231 -0.03,-0.0955 0,-0.125 0.1692,-0.16923 0.6601,-0.39254 0.875,-0.5 0.074,-0.0373 0.1911,0.0589 0.25,0 0.03,-0.0295 -0.03,-0.0955 0,-0.125 0.073,-0.0727 0.3949,-0.0725 0.5,-0.125 0.1344,-0.0672 0.25,-0.16667 0.375,-0.25 0.3578,-0.23857 1.2365,-1.10481 1.5,-1.5 0.1465,-0.21979 0.3153,-0.56533 0.5,-0.75 0.03,-0.0295 0.083,0 0.125,0 0.083,-0.0833 0.1846,-0.15194 0.25,-0.25 0.023,-0.0347 -0.03,-0.0955 0,-0.125 0.03,-0.0295 0.088,0.0186 0.125,0 0.1054,-0.0527 0.1446,-0.1973 0.25,-0.25 0.2766,-0.13831 0.6121,-0.11853 0.875,-0.25 0.1877,-0.0938 0.5566,0.0645 0.75,0 0.04,-0.0132 -0.03,-0.0955 0,-0.125 0.1147,-0.11468 1.3916,-0.50828 1.625,-0.625 0.1054,-0.0527 0.1446,-0.1973 0.25,-0.25 0.037,-0.0186 0.083,0 0.125,0 0.125,-0.0417 0.2654,-0.0519 0.375,-0.125 0.035,-0.0231 -0.04,-0.11183 0,-0.125 0.1581,-0.0527 0.3821,0.11785 0.5,0 0.03,-0.0295 0,-0.0833 0,-0.125 0.083,0 0.1755,0.0373 0.25,0 0.083,-0.0417 0.042,-0.20833 0.125,-0.25 0.098,-0.049 0.6507,-0.15066 0.75,-0.25 0.1587,-0.15874 0.392,-0.625 0.4119,-0.15997 0.082,0.75966 0.4286,1.00986 0.6707,1.34892 0.031,0.0432 0.035,2.01668 0,2.12132 -0.1483,0.44488 -0.6673,0.62164 -1.0606,0.88388 -0.4368,0.29116 -1.0131,0.96551 -1.2375,1.41422 -0.026,0.0527 0.042,0.13511 0,0.17677 -0.284,0.28401 -0.7672,0.59048 -1.0606,0.88389 -0.042,0.0417 0.035,0.12963 0,0.17677 -0.462,0.616 -1.1662,1.13053 -1.591,1.76777 -0.8167,1.2251 0.4632,-0.51799 -0.3536,0.70711 -0.2182,0.32735 -0.7087,0.53364 -0.8838,0.88388 -0.2177,0.43539 0.5131,-0.15958 -0.1768,0.53033 -0.084,0.0844 -0.5844,0.26151 -0.7071,0.35355 -0.9004,0.67526 -1.3562,1.70972 -2.1214,2.47488 -0.042,0.0417 -0.144,-0.049 -0.1767,0 -0.1034,0.15504 -0.094,0.36366 -0.1768,0.53033 -0.1348,0.26959 -0.5159,0.86947 -0.7071,1.06066 -0.042,0.0417 -0.1351,-0.0417 -0.1768,0 -0.2026,0.20258 -0.3277,0.6813 -0.5303,0.88388 -0.042,0.0417 -0.1278,-0.0327 -0.1768,0 -0.5303,0.35356 -0.1768,0.26517 -0.5303,0.53033 -0.3756,0.28165 -0.896,0.47947 -1.2375,0.70711 -0.2039,0.13598 -0.3263,0.39435 -0.5303,0.53033 -0.2399,0.15993 -0.4902,0.24509 -0.7071,0.35355 -0.2236,0.11181 -0.3303,0.38033 -0.5303,0.53033 -0.253,0.18976 -0.5198,0.24929 -0.7071,0.53033 -0.351,0.15932 -0.068,0.4898 -0.1768,0.70711 -0.026,0.0527 -0.1351,-0.0417 -0.1768,0 -0.1863,0.18634 -0.2702,0.45711 -0.3535,0.70711 -0.068,0.20232 -0.1536,1.89092 0,2.12132 0.2284,0.34264 1.0736,0.57086 1.4142,0.7071 0.9084,0.36337 -0.4034,-0.0249 1.0606,0.70711 0.1054,0.0527 0.2418,-0.0373 0.3536,0 0.5518,0.18393 -0.059,0.11785 0.1768,0.35355 0.2316,0.23167 0.8884,0.35813 1.0606,0.53033 0.093,0.0932 0.1037,0.24393 0.1768,0.35356 0.2707,0.40612 0.101,-0.0758 0.5303,0.35355 0.1028,0.10274 0.1025,0.55855 0.1768,0.70711 0.095,0.1901 0.4642,0.61929 0.5303,0.88388 0.1265,0.50578 0.086,1.50686 -0.1767,1.94454 -0.4897,0.81615 -1.0327,0.74734 -1.7678,1.23744 -0.069,0.0462 -0.096,0.15657 -0.1768,0.17678 -0.2773,0.0693 -0.6066,-0.0693 -0.8839,0 -0.3531,0.0883 -0.5934,0.38509 -0.8839,0.53033 -0.2328,0.1164 -0.6357,-0.0827 -0.8838,0 -0.079,0.0263 -0.098,0.15042 -0.1768,0.17677 -0.1118,0.0373 -0.2357,0 -0.3536,0 -0.1178,0.0589 -0.2285,0.13511 -0.3535,0.17678 -0.1591,0.053 -0.3713,-0.053 -0.5304,0 -0.079,0.0263 -0.1022,0.13951 -0.1767,0.17678 -0.3199,0.15995 -0.754,0.0541 -1.0607,0.17677 -0.6662,0.26648 -0.5405,0.35611 -1.2374,0.53034 -0.3047,0.0762 -0.7831,-0.13881 -1.0607,0 -0.053,0.0263 0.047,0.14142 0,0.17677 -1.4289,1.07165 -0.1679,0.056 -1.0606,0.35356 -0.4321,0.14402 -0.9311,0.54604 -1.4143,0.7071 -0.4002,0.13342 -0.8334,0.096 -1.2374,0.17678 -0.3775,0.0755 -0.6492,0.31241 -1.0607,0.35355 -0.9835,0.0984 -2.0256,-0.13993 -3.0052,0 -1.3987,0.19982 -2.8722,0.40259 -4.2426,0.70711 -0.6006,0.13345 -1.2559,0.18908 -1.7678,0.53033 -0.1386,0.0924 -0.2106,0.2678 -0.3535,0.35355 -0.4644,0.27864 -0.9303,0.11159 -1.4142,0.35356 -0.1491,0.0745 -0.1955,0.30084 -0.3536,0.35355 -0.1118,0.0373 -0.2417,-0.0373 -0.3535,0 -0.3141,0.10469 -0.5875,0.6083 -0.8839,0.70711 -0.1118,0.0373 -0.2418,-0.0373 -0.3536,0 -0.2507,0.0836 -0.2524,0.42918 -0.3535,0.53033 -0.42,0.41994 -1.2047,1.04974 -1.7678,1.23743 -0.1118,0.0373 -0.2555,-0.0654 -0.3536,0 -0.6459,0.43062 0.1896,0.25878 -0.3535,0.53033 -0.5444,0.27221 -1.21,0.21413 -1.7678,0.35356 -0.3505,0.0876 -0.5589,0.36784 -0.8839,0.53033 -0.3638,0.18193 -4.0073,0 -4.884,-0.11047 -0.4223,-0.17267 -0.7859,-0.24025 -1.0834,-0.28725 z"
         id="path6" />
    </g>
  </g>
</svg>
