<?xml version="1.0" encoding="UTF-8" standalone="no"?>
<!-- Created with Inkscape (http://www.inkscape.org/) -->

<svg
   version="1.1"
   id="svg1"
   width="177.92574"
   height="126.57211"
   viewBox="0 0 177.92574 126.57211"
   xmlns="http://www.w3.org/2000/svg"
   xmlns:svg="http://www.w3.org/2000/svg">
  <defs
     id="defs1" />
  <g
     id="layer1"
     style="display:inline"
     transform="translate(-687.17519,-580.26949)">
    <g
       id="layer22"
       style="display:inline;fill:#ffffff;fill-opacity:1;stroke:none">
      <path
         style="fill:#ffffff;fill-opacity:1;stroke:none;stroke-width:1;stroke-linecap:round;stroke-dasharray:none;stroke-opacity:1"
         d="m 690.53395,704.89706 -3.35876,-25.67682 3.88909,0.30936 5.08233,-2.60746 2.82843,-3.09359 5.48007,-2.56326 3.18198,-3.13779 0.30936,-3.35875 2.82843,-1.28163 3.0494,-2.65165 7.73398,-19.22447 -6.98268,-13.56761 -0.30936,-7.77818 2.03293,-9.54594 5.87783,-9.28077 -0.92808,-0.7955 3.44714,-3.31456 2.91682,-0.88388 5.92202,-6.54074 13.25825,-6.58493 5.70105,-1.90035 9.50175,-1.14905 11.3137,1.14905 13.56762,3.04939 6.27557,6.8501 4.15425,1.76777 26.69328,4.5078 7.33623,0.66292 -3.66811,14.53988 3.22617,3.84489 3.00521,6.98268 -0.13259,3.88909 3.13779,5.21491 5.12652,4.11006 16.92637,6.23138 3.57973,5.12652 2.56326,7.11526 -2.51907,7.95495 -2.60745,4.41942 0.22097,5.17072 3.8007,8.75045 -2.03293,11.62306 -4.11006,5.74525 -6.45235,3.18198 -8.04334,4.68458 -3.62392,-5.70105 -4.5962,-2.56326 -10.69499,-0.22097 -5.61266,-6.0546 -3.40295,-8.66206 -15.68893,-6.27557 -16.97056,-4.24264 -14.27472,1.32582 -12.1092,3.0494 -5.56847,5.52427 -9.67852,2.47487 -6.27558,4.86136 -1.23743,2.43068 -25.23488,12.9047 z"
         id="path20" />
    </g>
  </g>
</svg>
