<?xml version="1.0" encoding="UTF-8" standalone="no"?>
<!-- Created with Inkscape (http://www.inkscape.org/) -->

<svg
   version="1.1"
   id="svg2"
   width="178.05417"
   height="128.16159"
   viewBox="0 0 178.05417 128.16159"
   xmlns="http://www.w3.org/2000/svg"
   xmlns:svg="http://www.w3.org/2000/svg">
  <defs
     id="defs6">
    <linearGradient
       id="swatch77">
      <stop
         style="stop-color:#e2c69e;stop-opacity:1;"
         offset="0"
         id="stop77" />
    </linearGradient>
  </defs>
  <g
     id="layer66"
     style="display:inline"
     transform="translate(-686.66197,-580.04154)">
    <g
       id="layer44"
       style="display:inline">
      <path
         style="display:inline;fill:#969696;fill-opacity:1;stroke:none;stroke-opacity:1"
         d="m 722.57474,601.92465 c -0.23989,0.13888 -0.0218,0.36393 -0.0884,0.53033 -0.0789,0.19726 -0.25854,0.3403 -0.35355,0.53033 -0.071,0.14191 -0.0981,0.30418 -0.17678,0.44194 -0.23157,0.40524 -0.8486,1.01362 -1.14905,1.41421 -0.0395,0.0527 -0.0357,0.13725 -0.0884,0.17678 -0.0745,0.0559 -0.18765,0.0367 -0.26517,0.0884 -0.43956,0.29304 -0.76899,0.80041 -1.23744,1.06066 -0.10619,0.059 -0.24938,0.0259 -0.35355,0.0884 -0.0565,0.0339 -0.0418,0.13019 -0.0884,0.17677 -0.58117,0.58117 0.0448,-0.16616 -0.53033,0.26517 -0.0527,0.0395 -0.0418,0.13019 -0.0884,0.17677 -0.10683,0.10683 -0.32336,0.1703 -0.44194,0.26517 -0.72794,-0.17739 -0.161,0.24939 -0.26516,0.35355 -0.0751,0.0751 -0.19716,0.0952 -0.26517,0.17678 -0.0843,0.10122 -0.11279,0.23837 -0.17678,0.35355 -0.22439,0.40391 -0.35222,0.52702 -0.53033,0.97227 -0.1127,0.28177 -0.15245,0.60212 -0.26516,0.88389 -0.19888,0.49719 -0.39348,0.95521 -0.53033,1.5026 -0.0678,0.27121 -0.0238,0.60403 -0.0884,0.88388 -0.0482,0.209 -0.13841,0.40769 -0.17678,0.61872 -0.0316,0.17393 0.0981,0.38324 0,0.53033 -0.0365,0.0548 -0.14023,0.0336 -0.17677,0.0884 -0.0327,0.049 0.0115,0.11899 0,0.17678 -0.0651,0.32527 -0.22357,0.63945 -0.26517,0.97227 -0.0146,0.11694 0.0256,0.23851 0,0.35355 -0.10671,0.48019 -0.38713,0.94882 -0.53033,1.41422 -0.13181,0.4284 -0.12827,0.88927 -0.17677,1.32582 -0.0539,0.48483 -0.29469,0.94329 -0.35356,1.41421 -0.0609,0.48685 -0.008,1.0192 -0.0884,1.50261 -0.026,0.15599 -0.15077,0.37433 -0.17677,0.53033 -0.0529,0.31709 -0.0707,2.47509 0,2.82842 0.0543,0.27132 0.19802,0.52692 0.26516,0.7955 0.14304,0.57214 0.38896,1.11388 0.53033,1.67938 0.0364,0.14574 0.0409,0.29942 0.0884,0.44194 0.0831,0.24924 0.27047,0.54625 0.35355,0.79549 0.13585,0.40753 0.14691,0.85367 0.35356,1.23744 0.9072,1.68481 1.88324,3.32454 2.74004,5.03814 0.14306,0.28613 0.34596,0.46128 0.53033,0.7071 0.5879,0.78387 -0.34528,-0.41102 0.35355,0.70711 0.16599,0.26559 0.4308,0.45655 0.61872,0.70711 0.0589,0.0884 0.11785,0.17677 0.17677,0.26516 0,0.0589 -0.0263,0.12407 0,0.17678 0.0373,0.0745 0.13391,0.10532 0.17678,0.17677 0.0479,0.0799 0.0589,0.17678 0.0884,0.26517 0.0884,0.0884 0.18708,0.16756 0.26516,0.26517 0.16603,0.20753 0.20648,0.47234 0.26517,0.7071 0.0665,0.26583 0.20364,0.51862 0.26517,0.7955 0.11698,0.52641 0.15965,1.06343 0.26516,1.59099 0.0507,0.25341 0.0624,1.57522 0,1.85615 -0.0286,0.12863 -0.13051,0.23018 -0.17678,0.35356 -0.0426,0.11374 -0.0341,0.2449 -0.0884,0.35355 -0.0373,0.0745 -0.13951,0.10224 -0.17678,0.17678 -0.45607,1.3682 0.0666,-0.0449 -0.35356,0.79549 -0.11785,0.2357 -0.25568,0.46243 -0.35355,0.70711 -0.0219,0.0547 0.0263,0.12407 0,0.17677 -0.0373,0.0745 -0.13055,0.10744 -0.17678,0.17678 -0.0674,0.10108 -0.0433,0.24077 -0.0884,0.35355 -0.0893,0.22317 -0.27755,0.39069 -0.35356,0.61872 -0.0384,0.11525 -0.0341,0.2449 -0.0884,0.35356 -0.0659,0.13176 -0.18345,0.23098 -0.26516,0.35355 -0.0365,0.0548 -0.0336,0.14023 -0.0884,0.17678 -0.049,0.0327 -0.13076,-0.0368 -0.17678,0 -0.006,0.005 -0.39516,0.54075 -0.44194,0.61871 -0.32738,0.54565 -0.40766,1.41961 -0.53033,2.03294 -0.0631,0.31558 -0.30395,0.58627 -0.35355,0.88388 -0.0194,0.11625 0.0286,0.23922 0,0.35355 -0.0143,0.0572 -0.12407,-0.0263 -0.17678,0 -0.13157,0.0658 -0.23569,0.27498 -0.35355,0.35356 -0.0245,0.0163 -0.0676,-0.0208 -0.0884,0 -0.14576,0.14576 -0.28654,1.12479 -0.35355,1.32582 -0.0534,0.16029 -0.19898,0.42017 -0.26517,0.61872 -0.11781,0.26516 -0.2617,0.5202 -0.35343,0.79547 -0.17019,0.5107 -0.46972,2.62135 -0.53033,3.0052 -0.0138,0.0873 0.0243,0.18018 0,0.26516 -0.0362,0.1267 -0.14058,0.22687 -0.17678,0.35356 -0.0243,0.085 0.011,0.17746 0,0.26516 -0.21249,1.69991 -0.01,-2.31422 -0.17677,2.03294 -0.009,0.23552 0.0235,0.47257 0,0.7071 -0.0176,0.17617 -0.1323,0.44081 -0.17678,0.61872 -0.0364,0.14575 -0.0637,0.29375 -0.0884,0.44194 -0.011,0.0663 0.0221,0.22097 0,0.26517 -0.0132,0.0263 -0.0675,-0.0208 -0.0884,0 -0.0208,0.0208 0.0132,0.062 0,0.0884 -0.0186,0.0373 -0.0752,0.0489 -0.0884,0.0884 -0.0186,0.0559 0.0417,0.13511 0,0.17678 -0.0417,0.0417 -0.13511,-0.0417 -0.17677,0 -0.0659,0.0659 -0.0467,0.18183 -0.0884,0.26517 -0.13737,0.27473 -0.68449,0.88079 -0.97227,1.06066 -2.0672,1.29199 0.14304,-0.0715 -0.88389,0.44194 -0.19208,0.096 -0.42663,0.3459 -0.61871,0.44194 -0.0527,0.0263 -0.12625,-0.0303 -0.17678,0 -0.2005,0.1203 -0.34776,0.37818 -0.53033,0.53033 -0.32843,0.27369 -0.96536,0.6118 -1.23744,0.88388 -0.0751,0.0751 -0.0918,0.20143 -0.17678,0.26517 -0.0471,0.0353 -0.1216,-0.0207 -0.17677,0 -0.045,0.0169 -0.93755,0.36807 -1.06066,0.44194 -0.0715,0.0429 -0.10744,0.13055 -0.17678,0.17678 -0.0925,0.0616 -0.37239,0.10722 -0.44194,0.17677 -0.20943,0.20943 -0.55415,1.64553 -0.61872,2.03294 -0.0299,0.17909 -0.0269,0.64184 -0.0884,0.79549 -0.0309,0.0774 -0.13261,0.10611 -0.17677,0.17678 -0.10475,0.1676 -0.16711,0.35873 -0.26517,0.53033 -0.0391,0.0684 -0.85025,0.94705 -0.88388,0.97227 -0.14482,0.10861 -0.31374,0.0486 -0.44194,0.17678 -0.0208,0.0208 0.0263,0.0752 0,0.0884 -0.0527,0.0264 -0.12088,-0.0186 -0.17678,0 -0.0791,0.0264 -0.10224,0.13951 -0.17678,0.17678 -0.25629,0.12815 -0.60781,0.13076 -0.88388,0.17678 -0.1838,0.0306 -0.34761,0.14023 -0.53033,0.17677 -0.11556,0.0231 -0.24175,-0.0373 -0.35355,0 -0.0395,0.0132 -0.0511,0.0698 -0.0884,0.0884 -0.0791,0.0395 -0.18132,-0.028 -0.26517,0 -0.0791,0.0263 -0.0977,0.15043 -0.17677,0.17678 -0.14253,0.0475 -0.29463,0.0589 -0.44195,0.0884 -0.24552,0.0491 -0.14731,-0.0737 -0.44194,0 -0.43058,0.10764 -1.22937,0.37764 -1.59099,0.61872 -0.13867,0.0924 -0.22022,0.25355 -0.35355,0.35355 -0.10541,0.0791 -0.24392,0.10369 -0.35356,0.17678 -0.231,0.154 -0.40674,0.44207 -0.61871,0.61871 -0.41802,0.34835 -0.89115,0.71618 -1.23744,1.14905 -0.0823,0.10289 -0.0977,0.24815 -0.17678,0.35356 -0.36938,0.4925 -0.63948,1.09494 -1.14905,1.5026 -0.10334,0.1604 -0.3045,0.16209 -0.44194,0.26516 -0.21417,0.16063 -0.40454,0.3697 -0.61872,0.53033 -0.15556,0.11668 -0.37476,0.1485 -0.53033,0.26517 -0.31654,0.2374 -0.63282,0.449 -0.97227,0.61872 -0.26954,0.13477 0.16166,0.0701 -0.26516,0.17677 -0.0858,0.0214 -0.18611,-0.0395 -0.26517,0 -0.16444,0.0822 -0.41382,0.2359 -0.61872,0.26517 -0.14583,0.0208 -0.2961,-0.0208 -0.44194,0 -0.19565,0.028 -0.34283,0.20266 -0.53033,0.26516 -0.41731,0.13911 -0.97832,-0.0727 -1.41421,0 -0.0919,0.0153 -0.17293,0.0752 -0.26517,0.0884 -0.17849,0.0255 -0.43277,-0.0372 -0.61872,0 -0.18272,0.0365 -0.34955,0.13158 -0.53033,0.17678 -0.31704,0.0793 -0.7317,0 -1.48773,-0.39084 -0.19182,1.50595 -0.83455,3.66013 -0.23175,5.46853 0.17505,0.52516 -0.10924,1.21165 0,1.75781 0.13235,0.66176 0.52806,0.97173 0.78125,1.5625 0.10574,0.24673 0.10106,0.52991 0.19531,0.78125 0.40106,1.06951 1.00278,2.0318 1.36719,3.125 0.0781,0.23438 -0.0781,0.54688 0,0.78125 0.11371,0.34115 0.49052,0.49501 0.58593,0.78125 0.13672,0.41016 -0.13672,0.95703 0,1.36719 0.0291,0.0873 0.16112,0.10983 0.19532,0.19531 0.04,0.10004 0.24215,1.21872 0.39062,1.36719 0.046,0.046 0.14928,-0.046 0.19531,0 0.0796,0.0796 0.12622,1.09082 0.19532,1.36719 0.0999,0.39946 0.29076,0.77241 0.39062,1.17187 0.17964,0.71856 -0.23382,1.64228 0,2.34375 0.39354,1.18063 0.39063,2.44301 0.58594,3.41797 l 14.84375,-0.29297 c 1.40366,0 2.77636,-0.0593 4.10156,-0.39062 0.35051,-0.0876 0.84554,-0.0322 1.17188,-0.19531 0.46841,-0.23421 1.24443,-1.01285 1.5625,-1.17188 0.24009,-0.12005 0.54115,-0.0753 0.78125,-0.19531 0.1647,-0.0824 0.24683,-0.27559 0.39062,-0.39063 1.30988,-1.0479 3.03014,-2.28954 4.49219,-3.125 0.41592,-0.23767 1.56828,-0.68504 1.95312,-0.78125 0.18948,-0.0474 0.39442,0.0383 0.58594,0 0.65033,-0.13006 0.16752,-0.27907 0.78125,-0.58593 0.24009,-0.12005 0.52659,-0.11043 0.78125,-0.19532 0.88176,-0.29392 1.94403,-0.89297 2.73438,-1.36718 0.0789,-0.0474 0.1302,-0.13021 0.19531,-0.19532 0.0651,-0.13021 0.0742,-0.30987 0.19531,-0.39062 0.10834,-0.0722 0.26543,0.0358 0.39063,0 0.3371,-0.0963 0.66298,-0.23384 0.97656,-0.39063 0.77713,-0.38856 1.53463,-0.82511 2.34375,-1.17187 0.64559,-0.27668 1.37259,-0.34586 1.95312,-0.78125 0.0521,-0.0391 -0.0542,-0.1592 0,-0.19531 1.18169,-0.7878 0.0782,0.28315 0.97657,-0.39063 0.74324,-0.55743 1.61991,-1.07994 2.34375,-1.5625 0.433,-0.28867 0.42656,-0.62188 0.58593,-0.78125 0.30242,-0.30242 0.81834,-0.52872 1.17188,-0.78125 0.67474,-0.48196 1.11913,-1.08349 1.75781,-1.5625 0.57605,-0.43204 1.32524,-1.05324 1.95313,-1.36719 0.61885,-0.30942 0.18175,0.40418 0.78125,-0.19531 0.16598,-0.16598 0.19531,-0.45573 0.39062,-0.58594 0.22335,-0.1489 0.53452,-0.0896 0.78125,-0.19531 0.2992,-0.12823 0.47243,-0.483 0.78125,-0.58594 0.12353,-0.0412 0.27416,0.0582 0.39063,0 0.90793,-0.45396 1.30267,-0.8094 2.14843,-1.17187 0.66347,-0.28435 1.51867,-0.20808 2.14844,-0.58594 0.1579,-0.0947 0.21965,-0.32224 0.39063,-0.39062 0.18134,-0.0725 0.39886,0.0561 0.58593,0 1.48692,1.32596 1.01008,-0.59711 1.5625,-0.78125 0.12353,-0.0412 0.26431,0.0316 0.39063,0 0.54822,-0.13706 1.03506,-0.57028 1.5625,-0.78125 0.3823,-0.15293 0.82927,-0.16223 1.17187,-0.39063 0.22983,-0.15321 0.33889,-0.46241 0.58594,-0.58594 0.17469,-0.0873 0.40065,0.0618 0.58594,0 0.0618,-0.0206 -0.0542,-0.1592 0,-0.19531 0.58048,-0.38698 1.08847,-0.44109 1.75781,-0.97656 0.56969,-0.45575 1.75949,-1.85631 2.34375,-2.14844 0.27636,-0.13818 0.89842,-0.013 1.17188,-0.19531 0.15321,-0.10215 0.21593,-0.3324 0.39062,-0.39063 0.24705,-0.0824 0.52589,0.0511 0.78125,0 0.0903,-0.0181 0.10983,-0.16111 0.19531,-0.19531 0.81289,-0.32515 1.88199,-0.49712 2.73438,-0.78125 0.24705,-0.0824 0.52589,0.0511 0.78125,0 0.64956,-0.12991 1.32076,-0.57046 1.95312,-0.78125 0.24706,-0.0824 0.52345,0.0368 0.78125,0 0.66748,-0.0954 1.11643,-0.45766 1.75782,-0.58594 0.61478,-0.12295 1.3329,0.0689 1.95312,0 2.70696,-0.30077 5.4679,-0.19531 8.20313,-0.19531 h 6.44531 c 0.9392,0 2.21153,-0.22837 3.125,0 0.64509,0.16127 1.27477,0.47288 1.95312,0.58594 0.44953,0.0749 0.91372,-0.0453 1.36719,0 0.88579,0.0886 1.86249,0.24531 2.73438,0.39062 0.20307,0.0339 0.39062,0.13021 0.58593,0.19532 0.26042,0.0651 0.51647,0.15118 0.78125,0.19531 0.25688,0.0428 0.5342,-0.0824 0.78125,0 0.0874,0.0291 0.10797,0.1662 0.19532,0.19531 0.89214,0.29738 2.36556,0.40725 3.125,0.58594 0.0251,0.006 1.31491,0.55057 1.5625,0.58594 0.58273,0.0832 1.79209,0.0574 2.34375,0.19531 0.3295,0.0824 1.21902,0.66676 1.5625,0.78125 1.3408,0.44693 -0.90975,-0.74784 0.97656,0.19531 0.34814,0.17407 0.75895,0.50335 1.17187,0.58594 0.19152,0.0383 0.40642,-0.0769 0.58594,0 0.67477,0.28919 2.34614,1.892 2.73438,2.53906 0.26267,0.43779 0.40148,1.37805 0.78125,1.75781 0.33341,0.33342 0.98987,0.69358 1.36718,0.97657 0.27206,0.20404 0.4789,0.63007 0.78125,0.78125 0.69486,0.34743 -0.79824,-1.52006 0.78125,0.58593 0.16106,0.21475 0.0753,0.54116 0.19532,0.78125 0.18643,0.37286 0.59482,0.60371 0.78125,0.97657 0.57752,1.15505 -0.70393,-0.41774 0.19531,0.78125 0.11048,0.14731 0.30827,0.22592 0.39062,0.39062 0.0582,0.11646 -0.0316,0.26431 0,0.39063 0.14542,0.58167 0.55426,1.19034 0.78125,1.75781 0.51237,1.28092 1.40132,2.39495 2.14844,3.51562 0.10602,0.15903 0.2634,0.65403 0.39063,0.78125 0.17066,0.17066 0.82401,0.31435 0.97656,0.39063 0.4962,0.2481 -0.20002,0.23343 0.58594,0.39062 0.49016,0.098 1.06526,-0.0553 1.5625,0 0.85766,0.0953 1.70486,0.28635 2.53906,0.39063 1.19338,0.14917 1.06887,-0.088 2.34375,0.19531 1.00171,0.2226 0.17613,0.22047 1.36719,0.39063 0.32183,0.046 0.8424,-0.0824 1.17187,0 1.42462,0.35615 2.09329,1.2169 3.32031,1.95312 0.26485,0.15891 0.68361,0.36622 0.97657,0.58594 0.36458,0.27344 0.61198,0.70312 0.97656,0.97656 0.23292,0.17469 0.57537,0.18475 0.78125,0.39063 0.10294,0.10293 0.0924,0.28768 0.19531,0.39062 0.33442,0.33442 0.9885,0.35873 1.36719,0.58594 0.59636,0.35781 1.00765,0.95105 1.5625,1.36719 -0.0222,0.37 0.45573,0.1302 0.58594,0.19531 0.1302,0.0651 0.0572,0.34459 0.19531,0.39062 0.18529,0.0618 0.42969,-0.11718 0.58594,0 0.1647,0.12353 0.0894,0.4094 0.19531,0.58594 0.36189,0.60314 1.06195,0.95202 1.36719,1.5625 0.0334,0.0667 0.38164,1.3582 0.39062,1.36719 0.046,0.046 0.14928,-0.046 0.19531,0 0.12874,0.12873 0.31184,1.0143 0.39063,1.17187 0.21602,0.43205 0.39062,0.0151 -10e-6,0.39063 0.58998,-0.63037 0.42767,-1.87399 1.3672,-2.34375 0.18414,-0.0921 0.42123,-0.0718 0.58593,-0.19531 0.11647,-0.0874 0.0602,-0.33656 0.19532,-0.39063 0.24179,-0.0967 0.52861,0.0632 0.78125,0 0.27075,-0.0677 1.46273,-0.6042 1.75781,-0.78125 0.1579,-0.0947 0.22592,-0.30827 0.39062,-0.39062 0.11647,-0.0582 0.26543,0.0358 0.39063,0 0.50994,-0.1457 1.23858,-0.41287 1.75781,-0.58594 1.48002,-0.49334 -0.0705,0.0705 0.39063,-0.39063 0.20486,-0.20486 1.66705,-0.77222 1.95312,-0.97656 0.57118,-0.40798 0.94177,-1.25213 1.5625,-1.5625 0.11646,-0.0582 0.27416,0.0582 0.39063,0 0.29879,-0.0517 0.33888,-0.46241 0.58593,-0.58594 0.52738,-0.26369 1.80969,-0.85906 2.14844,-1.36718 0.13021,-0.19532 0.28565,-0.37599 0.39063,-0.58594 0.0582,-0.11646 -0.0722,-0.28229 0,-0.39063 0.10214,-0.15321 0.28014,-0.24331 0.39062,-0.39062 0.51182,-0.68243 -0.0357,-0.0882 0.19531,-0.78125 0.10348,-0.31044 0.44045,-0.68557 0.58594,-0.97656 0.0818,-0.16367 -0.0136,-0.90837 0,-0.97657 0.0285,-0.14275 0.14928,-0.25251 0.19531,-0.39062 0.0612,-0.18368 0.18429,-1.68064 0.19532,-1.75781 0.0543,-0.38032 -0.0753,-0.7956 0,-1.17188 0.0285,-0.14275 0.17138,-0.24703 0.19531,-0.39062 0.0428,-0.25688 -0.0511,-0.52589 0,-0.78125 0.0181,-0.0903 0.1662,-0.10797 0.19531,-0.19532 0.10294,-0.30881 -0.0535,-0.65547 0,-0.97656 0.0677,-0.40615 0.32293,-0.76572 0.39063,-1.17187 0.0321,-0.19266 -0.0537,-0.39814 0,-0.58594 0.15997,-0.55991 0.56498,-1.02184 0.78125,-1.5625 0.24001,-0.60003 0.28548,-1.35221 0.58593,-1.95313 0.22287,-0.44572 0.43977,-0.53806 0.58594,-0.97656 0.0412,-0.12353 -0.0722,-0.28228 0,-0.39062 0.42394,-0.63591 0.36332,-0.11339 0.58594,-0.78125 0.12062,-0.36186 -0.11949,-0.46645 0.48828,-0.87891 0.29297,-0.53751 0.44515,-1.11735 0.0977,-1.46484 -0.046,-0.046 -0.14932,0.046 -0.19532,0 -0.0921,-0.0921 0.0921,-0.29853 0,-0.39063 -0.0921,-0.0921 -0.29852,0.0921 -0.39062,0 -0.046,-0.046 0.046,-0.14931 0,-0.19531 -0.1827,-0.1827 -0.92427,-0.26683 -1.17188,-0.39063 -0.10893,-0.0545 -1.63073,-1.95782 -1.75781,-2.14843 -0.0918,-0.13765 0,-6.44614 0,-7.03125 0,-0.43497 0.0919,-0.47105 0.19531,-0.78125 0.23438,-0.70313 -0.23437,-1.64063 0,-2.34375 0.0742,-0.22269 0.50835,-0.23244 0.39063,-0.58594 0.0632,-0.25264 -0.0967,-0.53946 0,-0.78125 0.0872,-0.21795 0.28565,-0.37598 0.39062,-0.58594 0.21654,-0.43307 0.33147,-1.18079 0.58594,-1.5625 0.32672,-0.49008 0.73756,-0.57435 0.97656,-1.17187 0.0484,-0.1209 -0.0316,-0.26431 0,-0.39063 0.0353,-0.14123 0.13022,-0.26042 0.19532,-0.39062 0.0651,0 0.15921,0.0542 0.19531,0 0.11421,-0.1713 0.13021,-0.39063 0.19531,-0.58594 0,-0.0651 -0.0291,-0.13711 0,-0.19531 0.10417,-0.20835 0.28646,-0.18229 0.39063,-0.39063 0.16547,-0.33094 0.29802,-0.99679 0.39062,-1.36719 0.14808,-0.59232 0.0397,-5.19405 -0.19531,-5.66406 -0.17061,-0.34122 -0.63836,-0.88609 -0.78125,-1.17187 -0.0291,-0.0582 0.0582,-0.16622 0,-0.19532 -0.11646,-0.0582 -0.28229,0.0722 -0.39063,0 -0.12111,-0.0807 -0.13021,-0.26041 -0.19531,-0.39062 0,-0.0651 0.046,-0.14931 0,-0.19531 -0.046,-0.046 -0.14111,0.0361 -0.19531,0 -0.48853,-0.32569 -1.57785,-1.60855 -1.75781,-2.14844 -0.0847,-0.25415 0.0443,-0.75514 0,-0.97656 -0.0571,-0.28551 -0.32003,-0.49879 -0.39063,-0.78125 -0.14561,-0.58267 0.22788,-2.31119 -0.19531,-2.73438 -0.046,-0.046 -0.13711,0.0291 -0.19531,0 -0.16471,-0.0824 -0.22593,-0.30832 -0.39063,-0.39062 -0.54001,-0.27001 -1.22375,-0.51422 -1.75781,-0.78125 -0.29116,-0.14558 -0.29753,-0.69422 -0.78125,-0.58594 -0.0582,-0.0291 -0.14931,0.046 -0.19531,0 -0.0785,-0.0785 -1.16688,-1.36419 -1.17188,-1.36719 -0.16704,-0.0835 -0.4189,-0.11181 -0.58594,-0.19531 -0.35952,-0.17979 -0.0311,-0.40615 -0.39062,-0.58594 -0.11646,-0.0582 -0.2671,0.0412 -0.39063,0 -1.48002,-0.49334 0.0705,0.0705 -0.39062,-0.39062 -0.11351,-0.11352 -0.61711,-0.11322 -0.78125,-0.19532 -0.0824,-0.0412 -0.10801,-0.16621 -0.19531,-0.19531 -0.53452,-0.17821 -1.88777,-0.0325 -2.53907,-0.19531 -0.28246,-0.0706 -0.49878,-0.32003 -0.78125,-0.39063 -0.39062,-0.0977 0,0.19532 -0.58593,0 -0.28472,-0.0949 -0.69185,-0.49103 -0.97657,-0.58593 -0.46137,-0.15382 -1.07571,-0.0331 -1.5625,-0.19532 -0.1381,-0.046 -0.28768,-0.0924 -0.39062,-0.19531 -0.046,-0.046 0.0618,-0.17471 0,-0.19531 -0.18529,-0.0618 -0.39646,0.0474 -0.58594,0 -0.0893,-0.0223 -0.10791,-0.16621 -0.19531,-0.19531 -0.41593,-0.13862 -0.95573,-0.0582 -1.36719,-0.19532 -0.81629,-0.27209 -1.58786,-0.59861 -2.34375,-0.97656 -0.45722,-0.22861 -1.18936,-0.60343 -1.5625,-0.97656 -0.40411,-0.40413 0.61753,0.0158 -0.19531,-0.39063 -1.52093,-0.76045 0.34041,0.53573 -0.97656,-0.78125 -0.0819,-0.0818 -0.46757,-0.13611 -0.58594,-0.19531 -0.13284,-0.0664 -2.41436,-2.74263 -2.53906,-2.92969 -0.20032,-0.30034 -0.14682,-0.83223 -0.19532,-1.17187 -0.14278,-0.99947 -0.43441,-2.7024 -0.97656,-3.51563 -0.18057,-0.27085 -0.44036,-0.49009 -0.58594,-0.78125 -0.0582,-0.11646 0.0412,-0.2671 0,-0.39062 -0.16815,-0.50447 -0.6667,-1.29303 -0.97656,-1.75781 -0.5273,-0.79096 -1.19963,-1.4042 -1.75781,-2.14844 -0.65353,-0.87137 -1.06134,-1.92736 -1.5625,-2.92969 -0.0651,-0.13021 -0.32553,-0.0651 -0.39063,-0.19531 -0.0582,-0.11646 0,-0.26042 0,-0.39063 0,-0.0651 0.0291,-0.13711 0,-0.19531 -0.22479,-0.44962 -0.2291,0.0851 -0.58593,-0.39062 -0.22883,-0.3051 -0.1121,-0.69804 -0.39063,-0.97657 -0.47342,-0.47342 -0.60523,-0.29179 -0.78125,-1.17187 -0.025,-0.12495 -0.13355,-2.66259 0,-2.92969 0.44693,-0.89387 -0.081,0.82879 0.39063,-0.58594 0.0618,-0.18529 -0.0474,-0.39645 0,-0.58593 0.12105,-0.48423 0.37986,-0.95505 0.58593,-1.36719 0.0771,-0.15424 -0.0549,-0.42122 0,-0.58594 0.23092,-0.69276 -0.0269,-1.48173 0.19532,-2.14844 0.14931,-0.44802 0.0865,-0.54128 0.19531,-0.97656 0.1034,-0.4136 0.48254,-0.75827 0.58594,-1.17187 0.0678,-0.27114 -0.12447,-0.72763 0,-0.97657 0.0595,-0.11911 0.26157,-0.52143 0.39062,-0.58593 0.0582,-0.0291 0.16621,0.0582 0.19531,0 0.11722,-0.23443 -0.0759,-3.16442 0.14844,-3.46095 -0.81033,-0.14062 -1.42745,-0.0778 -1.99219,-0.14062 -0.2315,-0.0257 -0.456,-0.0993 -0.6875,-0.125 -0.12424,-0.0138 -0.25126,0.0177 -0.375,0 -0.34969,-0.05 -0.71788,-0.1109 -1.0625,-0.1875 -0.43681,-0.0971 -0.81716,-0.3588 -1.25,-0.4375 -0.98047,-0.17827 -1.92751,-0.49667 -2.875,-0.8125 -0.23134,-0.0771 -0.45225,-0.1858 -0.6875,-0.25 -1.24429,-0.33935 0.30989,0.18646 -0.625,-0.1875 -0.072,-0.0288 -0.1739,0.019 -0.25,0 -0.31357,-0.0784 -0.6204,-0.0877 -0.9375,-0.125 -0.57406,-0.0675 -1.18658,-0.17165 -1.75,-0.3125 -0.12783,-0.032 -0.2458,-0.0992 -0.375,-0.125 -0.0817,-0.0163 -0.1679,0.0145 -0.25,0 -0.68139,-0.12025 -1.38976,-0.26932 -2.0625,-0.4375 -1.5568,-0.3892 0.3307,0.0894 -0.6875,-0.25 -0.0988,-0.0329 -0.20938,0.0147 -0.3125,0 -0.38326,-0.0548 -0.7328,-0.2087 -1.125,-0.25 -0.18647,-0.0196 -0.37521,0.009 -0.5625,0 -0.58416,-0.0278 -1.16857,-0.0621 -1.75,-0.125 -1.51861,-0.16418 -3.00738,-0.64202 -4.54468,-0.54732 -0.30016,0 -0.47654,0.053 -0.79549,0.0884 -0.60265,0.067 -1.2496,0 -1.85616,0 -1.23224,0 -2.31665,-0.062 -3.53553,-0.26517 -0.57503,-0.0958 -1.20064,-0.12338 -1.76777,-0.26516 -0.4541,-0.11353 -0.46544,-0.23272 -0.88388,-0.44194 -1.11716,-0.55859 0.35423,0.27528 -1.06066,-0.35356 -0.0761,-0.0338 -0.11788,-0.11787 -0.17678,-0.17677 -0.0589,-0.0295 -0.11508,-0.0653 -0.17678,-0.0884 -0.17447,-0.0654 -0.36744,-0.0863 -0.53033,-0.17678 -0.10927,-0.0607 -0.16916,-0.18516 -0.26516,-0.26516 -0.30024,-0.2502 -0.69722,-0.43206 -0.97227,-0.70711 -0.0751,-0.0751 -0.0884,-0.20627 -0.17678,-0.26517 -0.10108,-0.0674 -0.25405,-0.0187 -0.35355,-0.0884 -1.23731,-0.8661 -0.12317,-0.21156 -0.70711,-0.7955 -0.37114,-0.37114 -0.79456,-0.65553 -1.14905,-1.06066 -0.45963,-0.52529 -0.80106,-1.1339 -1.23744,-1.67938 -0.10411,-0.13014 -0.25355,-0.22022 -0.35355,-0.35355 -0.0791,-0.10541 -0.10018,-0.24634 -0.17678,-0.35355 -0.1537,-0.2152 -0.44657,-0.41789 -0.61871,-0.61872 -0.2898,-0.3381 -0.5007,-0.72375 -0.7955,-1.06066 -0.26654,-0.30463 -0.62469,-0.48447 -0.88388,-0.7955 -0.37977,-0.45572 0.0698,-0.15629 -0.61872,-0.70711 -0.30438,-0.2435 -0.653,-0.40587 -0.97227,-0.61871 -0.2208,-0.1472 -0.39951,-0.38419 -0.61872,-0.53033 -0.53474,-0.35652 -0.0354,0.12814 -0.44194,-0.17678 -0.0667,-0.05 -0.10228,-0.13948 -0.17678,-0.17678 -0.0527,-0.0263 -0.12778,0.0327 -0.17678,0 -0.0548,-0.0365 -0.0319,-0.14287 -0.0884,-0.17677 -0.10417,-0.0625 -0.2449,-0.0341 -0.35356,-0.0884 -0.13176,-0.0659 -0.23098,-0.18347 -0.35355,-0.26517 -0.3889,-0.25926 -0.87244,-0.49506 -1.32583,-0.61872 -0.37923,-0.10342 -0.7623,-0.19486 -1.14905,-0.26516 -0.11595,-0.0211 -0.23799,0.0231 -0.35355,0 -0.36111,-0.0722 -0.62956,-0.23932 -0.97227,-0.35355 -0.82023,-0.27342 -0.0334,-0.006 -0.53033,-0.0884 -0.53331,-0.0889 -1.04968,-0.29946 -1.59099,-0.35356 -0.82392,-0.0824 -0.05,0.12444 -0.97227,-0.0884 -0.53372,-0.12317 -1.04033,-0.30346 -1.59099,-0.35356 -2.01883,-0.1835 -4.07084,-0.0884 -6.0988,-0.0884 h -3.09359 c -0.38068,0 -1.24606,-0.11497 -1.59099,0 -0.61705,0.20569 -1.29477,0.28136 -1.94454,0.35356 -0.14642,0.0163 -0.29664,-0.0242 -0.44195,0 -0.21157,0.0353 -0.40714,0.14147 -0.61872,0.17677 -0.39774,0.0663 -0.42426,-0.053 -0.79549,0 -0.29744,0.0425 -0.58751,0.12738 -0.88388,0.17678 -1.07037,0.17837 0.19692,-0.0296 -0.88389,0.26517 -0.1729,0.0472 -0.35743,0.0413 -0.53033,0.0884 -0.27995,0.0764 -0.51095,0.29666 -0.79549,0.35356 -0.36829,0.0737 -0.54015,-0.0491 -0.88389,0 -0.0922,0.0132 -0.17326,0.0731 -0.26516,0.0884 -0.14531,0.0242 -0.30517,-0.0547 -0.44194,0 -0.0986,0.0394 -0.16757,0.13497 -0.26517,0.17677 -0.56102,0.24047 -0.14348,-0.007 -0.61872,0.0884 -0.43759,0.0875 -0.88507,0.36184 -1.32582,0.44194 -0.43481,0.0791 -0.88929,-0.0689 -1.32583,0 -0.30383,0.048 -0.58546,0.19057 -0.88388,0.26517 -0.33172,0.083 -0.72894,0.0939 -1.06066,0.17677 -0.67159,0.1679 -0.46589,0.24334 -1.23744,0.35356 -0.175,0.025 -0.3564,-0.0316 -0.53033,0 -0.1561,0.0284 -0.28997,0.13117 -0.44194,0.17677 -0.37228,0.11169 -0.78242,0.12769 -1.14905,0.26517 -0.25759,0.0966 -0.35533,0.22126 -0.61872,0.26516 -0.0872,0.0145 -0.18016,-0.0243 -0.26516,0 -0.12669,0.0362 -0.23018,0.13048 -0.35355,0.17678 -0.53981,0.20243 -1.11764,0.3899 -1.67938,0.53033 -0.61245,0.15311 -1.24347,0.29778 -1.85616,0.44194 -0.17445,0.0411 -0.36393,0.0218 -0.53033,0.0884 -0.13678,0.0547 -0.21677,0.21047 -0.35355,0.26517 -0.1664,0.0666 -0.35867,0.0369 -0.53033,0.0884 -0.68655,0.20596 -1.33481,0.70498 -1.94455,1.06066 -0.17071,0.0996 -0.36407,0.15828 -0.53033,0.26516 -0.59157,0.3803 -1.29553,0.90536 -1.85615,1.32583 -0.1,0.075 -0.15917,0.19886 -0.26517,0.26516 -0.73356,0.45843 -0.17957,-0.17398 -0.88388,0.53033 -0.0751,0.0751 -0.10168,0.19007 -0.17678,0.26517 -0.38802,0.38804 -0.2674,0.14081 -0.61871,0.44194 -0.12655,0.10846 -0.22701,0.24509 -0.35356,0.35355 -0.20624,0.17678 -0.40141,0.36735 -0.61872,0.53033 -0.10541,0.0791 -0.25066,0.0945 -0.35355,0.17678 -0.0515,0.0412 -0.0418,0.13017 -0.0884,0.17677 -0.0466,0.0466 -0.13557,0.037 -0.17677,0.0884 -0.0823,0.10289 -0.10018,0.24634 -0.17678,0.35356 -0.0727,0.10171 -0.19017,0.16516 -0.26517,0.26516 -0.10307,0.13744 -0.15336,0.31151 -0.26516,0.44194 -0.0439,0.0512 -0.29045,0.16 -0.35355,0.26517 -0.13791,0.22985 -0.15732,0.4914 -0.26517,0.7071 -0.0677,0.13538 -0.15751,0.0691 -0.26516,0.17678 -0.05,0.0499 -0.11098,0.28775 -0.17678,0.35355 -0.0466,0.0466 -0.13018,0.0418 -0.17678,0.0884 -0.18658,0.18658 -0.24193,0.65198 -0.35355,0.7955 -0.33329,0.42851 -0.51724,0.34046 -0.7955,0.61872 -0.0466,0.0466 -0.0418,0.13017 -0.0884,0.17677 -0.25872,0.25917 -0.72953,0.22837 -1.06066,0.26517 -0.41926,0.0466 -0.82378,0.18246 -1.23743,0.26516 -0.57144,0.11429 -1.86983,0.19045 -2.2981,0.61872 -0.10417,0.10417 -0.15115,0.26026 -0.26516,0.35356 -0.21513,0.176 -0.5208,0.23567 -0.70711,0.44194 -1.57488,1.74361 -1.51302,1.78861 -2.07713,3.71231 0.27537,0.8402 0.0299,0.82403 -0.13258,1.14905 z"
         id="path85" />
    </g>
  </g>
</svg>
