<?xml version="1.0" encoding="UTF-8" standalone="no"?>
<!-- Created with Inkscape (http://www.inkscape.org/) -->

<svg
   version="1.1"
   id="svg2"
   width="225.99171"
   height="215.16277"
   viewBox="0 0 225.99171 215.16277"
   xmlns="http://www.w3.org/2000/svg"
   xmlns:svg="http://www.w3.org/2000/svg">
  <defs
     id="defs6">
    <linearGradient
       id="swatch77">
      <stop
         style="stop-color:#e2c69e;stop-opacity:1;"
         offset="0"
         id="stop77" />
    </linearGradient>
  </defs>
  <g
     id="layer66"
     style="display:inline"
     transform="translate(-671.2211,-64.077556)">
    <g
       id="layer80"
       style="display:inline">
      <path
         style="display:inline;fill:#969696;fill-opacity:1;stroke:none;stroke-opacity:1"
         d="m 673.69598,150.9673 c 0.14292,0.0858 0.21064,0.2678 0.35356,0.35355 0.41559,0.24936 1.05294,0.34583 1.41421,0.70711 0.0932,0.0932 0.0836,0.26038 0.17678,0.35355 0.27951,0.27951 0.73176,0.31107 1.06066,0.53033 0.13867,0.0924 0.21488,0.2611 0.35355,0.35355 0.0981,0.0654 0.27022,-0.0833 0.35355,0 0.0417,0.0417 -0.0417,0.13511 0,0.17678 0.13177,0.13176 0.37529,0.0734 0.53033,0.17678 0.20398,0.13598 0.32636,0.39435 0.53033,0.53033 0.93064,0.62042 2.311,1.24388 3.35876,1.76776 0.22958,0.39049 0.60491,0.0652 0.88389,0.17678 0.27355,0.10942 0.42127,0.45887 0.7071,0.53033 0.1715,0.0429 0.35883,-0.0429 0.53033,0 0.24254,0.0606 0.32232,0.39166 0.53033,0.53033 0.1849,0.12327 0.74478,0.21445 0.88389,0.35356 0.0833,0.0833 -0.0527,0.24814 0,0.35355 0.0589,0.11785 0.29462,0.0589 0.35355,0.17678 0.0527,0.1054 -0.0286,0.23922 0,0.35355 0.032,0.12783 0.13511,0.22855 0.17678,0.35355 0.26516,0.7955 -0.26517,1.85616 0,2.65165 0.12875,0.38626 0.26894,0.63762 0.35355,1.06066 0.0462,0.23113 -0.0572,0.47844 0,0.70711 0.091,0.3639 0.26258,0.69676 0.35355,1.06066 0.0491,0.19642 -0.0737,0.73657 0,0.88388 0.0589,0.11785 0.26039,0.0836 0.35356,0.17678 0.38007,0.38007 0.51823,1.04856 0.88388,1.41421 0.20833,0.20834 0.49877,0.322 0.70711,0.53033 0.125,0.125 -0.10275,0.38648 0,0.53033 0.52378,0.7333 0.91138,0.78568 1.41421,1.41422 0.0823,0.10289 0.0836,0.26038 0.17678,0.35355 0.0932,0.0932 0.28046,0.0671 0.35355,0.17678 0.0654,0.0981 -0.0654,0.25549 0,0.35355 0.16343,0.24515 0.52305,0.30026 0.70711,0.53033 0.97682,1.22104 1.8953,2.60241 3.0052,3.71231 0.0932,0.0932 0.26038,0.0836 0.35355,0.17678 0.22255,0.22255 0.94164,1.21584 1.06066,1.41421 0.0303,0.0505 -0.0417,0.13511 0,0.17678 0.25452,0.25452 1.10851,0.85064 1.23744,1.23743 0.0373,0.11181 -0.0373,0.24175 0,0.35356 0.0677,0.20306 0.42204,0.24526 0.53033,0.35355 0.15023,0.15023 0.24424,0.34815 0.35355,0.53033 0.34161,0.56935 0.81454,1.32924 1.06066,1.94455 0.0438,0.10942 -0.0654,0.25549 0,0.35355 0.0731,0.10963 0.28047,0.0671 0.35356,0.17678 0.30974,0.46461 0.38799,1.11231 0.7071,1.59099 0.23504,0.35254 0.75087,0.66162 0.88389,1.06066 0.0373,0.1118 -0.0527,0.24814 0,0.35355 0.0745,0.14907 0.25355,0.22022 0.35355,0.35355 0.6039,0.80519 1.13147,1.6795 1.76777,2.47488 0.35408,0.4426 0.85574,0.67896 1.23744,1.06066 0.15446,0.15446 0.28451,0.74581 0.35355,0.88388 0.0614,0.12278 1.55317,1.3953 1.59099,1.41421 0.24729,0.12365 0.65219,0.16048 0.88388,0.35356 0.41751,0.34792 0.88056,1.00872 1.41422,1.23743 0.16248,0.0696 0.36619,-0.0656 0.53033,0 0.15474,0.0619 0.22022,0.25356 0.35355,0.35356 0.58759,0.44069 1.92335,1.10208 2.65165,1.41421 0.46687,0.20009 1.08735,0.53923 1.59099,0.70711 0.26456,0.0882 0.6128,-0.0678 0.88388,0 0.38802,0.097 0.40318,0.37836 0.70711,0.53033 0.31569,0.15784 4.13264,0.029 4.77297,0.17677 0.79741,0.18402 1.26572,0.48084 1.94454,0.70711 0.11181,0.0373 0.24815,-0.0527 0.35356,0 0.44911,0.22456 -0.18104,0.21128 0.53033,0.35355 1.45036,0.29008 -0.7913,-0.66742 1.59099,0.35356 0.0766,0.0328 0.11785,0.11785 0.17678,0.17677 0.35355,0.17678 0.69364,0.38353 1.06066,0.53033 0.35909,0.40074 0.84215,0.045 1.23743,0.17678 0.20156,0.0672 0.32878,0.28637 0.53033,0.35355 0.34004,0.11335 0.71293,0.0899 1.06066,0.17678 0.45215,0.11304 0.81695,0.54943 1.23744,0.70711 0.68291,0.25609 1.33443,0.40205 1.94454,0.70711 0.73571,0.36785 -0.18898,-0.0122 0.17678,0.35355 0.15769,0.15769 0.77947,0.0724 0.88388,0.17678 0.13176,0.13176 0.045,0.39856 0.17678,0.53033 0.0833,0.0833 0.2555,-0.0654 0.35355,0 0.10964,0.0731 0.0836,0.26038 0.17678,0.35355 0.15023,0.15023 0.3801,0.20332 0.53033,0.35355 0.0417,0.0417 -0.0527,0.15043 0,0.17678 0.56012,0.28006 0.16451,-0.36582 0.70711,0.17678 0.0417,0.0417 -0.0417,0.13511 0,0.17677 0.0932,0.0932 0.26038,0.0836 0.35355,0.17678 0.11515,0.11515 0.2576,0.56317 0.35355,0.70711 0.13868,0.20801 0.4697,0.28779 0.53033,0.53033 0.0715,0.28583 -0.0932,0.60437 0,0.88388 0.0883,0.26503 0.41366,0.59219 0.53033,0.88388 0.36264,0.90659 0.53647,1.90198 0.88389,2.82843 0.10447,0.55949 0.49977,1.07264 0.7071,1.59099 0.13841,0.34602 0.18689,0.72733 0.35356,1.06066 0.0263,0.0527 0.13511,-0.0417 0.17677,0 0.15024,0.15023 0.25854,0.3403 0.35356,0.53033 0.27632,0.55264 0.0705,0.68566 0.53033,1.23744 0.13601,0.16321 0.3801,0.20332 0.53033,0.35355 0.0932,0.0932 0.11785,0.2357 0.17677,0.35355 0.17678,0.17678 0.33512,0.37416 0.53033,0.53033 0.19962,0.15969 0.53364,0.23791 0.70711,0.35356 0.45203,0.30135 0.79238,0.74911 1.23744,1.06066 0.94224,0.65957 1.89073,1.27476 2.82843,1.94454 0.5122,0.36586 0.23989,-0.0144 0.88388,0.35355 0.53288,0.30451 0.86754,0.78733 1.41421,1.06066 0.16667,0.0833 0.37529,0.0734 0.53033,0.17678 0.0799,0.0533 1.19208,2.19721 1.41422,2.47488 0.0368,0.046 0.11785,0 0.17677,0 0.0589,0.0589 0.13055,0.10743 0.17678,0.17677 0.14618,0.21927 0.20738,0.48784 0.35355,0.70711 0.13927,0.2089 0.42422,0.24744 0.53033,0.35355 0.45313,0.0497 0.065,0.38126 0.17678,0.53033 0.4288,0.57173 0.96676,1.03168 1.41421,1.59099 0.283,0.35375 1.06242,1.24095 1.23744,1.59099 0.0527,0.10541 -0.0833,0.27022 0,0.35356 0.0417,0.0417 0.12407,-0.0264 0.17678,0 0.31886,0.15943 1.81658,1.68863 1.94454,1.94454 0.0527,0.10541 -0.0527,0.24814 0,0.35355 0.0223,0.0446 0.48049,0.15421 0.53033,0.35356 0.0572,0.22866 -0.0745,0.4835 0,0.7071 0.54011,1.62034 0.14823,5.44604 -0.17678,7.07107 -0.29486,1.47434 -0.55908,1.02767 -0.7071,1.76777 -0.0123,0.0617 0.0741,0.73574 0,0.88388 -0.11267,0.22533 -0.45244,0.47343 -0.53033,0.70711 -0.25773,0.77319 -0.53033,2.48772 -0.53033,3.35876 0,0.65161 -0.16055,1.65591 0,2.29809 0.1231,0.49242 0.56228,0.93146 0.7071,1.41422 0.103,0.34331 0.099,0.71076 0.17678,1.06066 0.10389,0.46749 0.38405,0.79859 0.53033,1.23743 0.0707,0.21213 -0.0707,0.49498 0,0.70711 0.0186,0.0559 0.15042,-0.0527 0.17678,0 0.0527,0.10541 -0.0373,0.24175 0,0.35355 0.12413,0.3724 0.46355,0.59325 0.53033,1.06066 0.0816,0.57121 0.0374,1.21043 0.17677,1.76777 0.0143,0.0572 0.14409,-0.049 0.17678,0 0.0999,0.14983 0.35355,1.66836 -0.26516,1.67938 0.0884,-0.32407 0.79343,-0.4183 1.5026,-0.44194 3.23254,-0.10775 6.48629,0 9.72272,0 1.97746,0 4.04848,-0.19619 6.0104,0 1.46934,0.14693 1.45198,0.90905 2.47488,1.59099 0.30766,0.20511 0.74925,0.0211 1.06066,0.17677 0.14907,0.0745 0.21488,0.26111 0.35355,0.35356 0.14709,0.0981 0.36263,-0.0559 0.53033,0 0.42574,0.14191 0.81725,0.37276 1.23744,0.53033 0.48888,0.18333 1.08453,0.0924 1.59099,0.17677 0.1838,0.0306 0.34475,0.15991 0.53033,0.17678 1.02765,0.0934 4.20921,0.15289 5.12652,0 0.36229,0.0756 0.57088,-0.30138 0.88389,-0.35355 0.23249,-0.0387 0.47377,0.0333 0.7071,0 0.54062,-0.0772 0.70267,-0.35208 1.23744,-0.53033 0.22361,-0.0745 0.47844,0.0572 0.70711,0 1.67206,-0.41802 3.26221,-1.21599 4.94974,-1.59099 1.07377,-0.23862 2.11936,-0.38832 3.18198,-0.70711 0.59573,-0.17872 1.17615,-0.5099 1.76777,-0.70711 0.51911,-0.17303 1.09863,-0.18943 1.59099,-0.35355 0.1988,-0.0663 0.51004,-0.32071 0.70711,-0.35355 0.34571,-0.0576 1.17854,0 1.59099,0 h 4.41942 c 0.88662,0 5.32554,-0.16566 5.65685,0 0.0527,0.0264 -0.0417,0.13511 0,0.17677 0.43825,0.43825 0.4654,0.25134 0.88388,0.53033 0.66764,0.44509 0.7338,1.26413 1.23744,1.76777 0.0417,0.0417 0.14409,-0.049 0.17678,0 0.3202,0.4803 0.41109,1.07296 0.7071,1.59099 0.35687,0.62451 0.85128,1.16094 1.23744,1.76777 0.14148,0.22232 0.18205,0.50702 0.35355,0.7071 0.19174,0.2237 0.48341,0.33859 0.70711,0.53033 0.97321,0.83419 2.19805,1.54097 3.35876,2.12132 0.28382,0.14192 0.60837,0.19612 0.88388,0.35356 0.28942,0.16538 0.39762,0.58331 0.70711,0.70711 0.16413,0.0657 0.36619,-0.0657 0.53033,0 0.88388,0.35355 0,0.26516 0.53033,0.53033 1.16723,0.58361 -0.0546,0.14404 0.88388,0.7071 0.15979,0.0959 0.38126,0.065 0.53033,0.17678 0.10541,0.0791 0.10369,0.24392 0.17678,0.35355 0.50746,0.7612 1.12108,1.65141 1.76777,2.2981 0.39733,0.39733 0.5814,0.33863 1.06066,0.53033 0.31901,0.12761 0.55351,0.43594 0.88388,0.53033 0.22663,0.0648 0.47598,-0.0462 0.70711,0 0.0817,0.0163 0.0977,0.15042 0.17677,0.17678 0.2537,0.0846 0.61452,-0.0385 0.88389,0 1.0786,0.15408 2.13269,0.14369 3.18198,0.35355 0.51017,0.10203 1.07503,-0.0737 1.59099,0 0.0768,0.011 1.91969,0.34527 1.94454,0.35355 0.375,0.125 0.71746,0.33422 1.06066,0.53033 0.0723,0.0413 0.0959,0.15657 0.17678,0.17678 0.22866,0.0572 0.51099,-0.13074 0.7071,0 0.13868,0.0925 0.20449,0.27902 0.35356,0.35355 0.10541,0.0527 0.24413,-0.0438 0.35355,0 0.51614,0.20646 0.917,0.63528 1.41421,0.88389 0.21731,0.10865 0.4898,0.0681 0.70711,0.17677 0.1556,0.0778 1.02762,0.83983 1.06066,0.88389 0.0707,0.0943 -0.0707,0.25927 0,0.35355 0.17678,0.2357 0.44358,0.39857 0.70711,0.53033 0.0527,0.0264 0.15042,-0.0527 0.17677,0 0.0527,0.10541 -0.0654,0.2555 0,0.35355 0.0731,0.10964 0.2745,0.0714 0.35356,0.17678 0.21797,0.29063 0.34299,0.95644 0.53033,1.23744 0.13867,0.20801 0.45127,0.29316 0.53033,0.53033 0.0373,0.1118 -0.0527,0.24814 0,0.35355 0.14134,0.28268 0.53041,0.44206 0.7071,0.70711 0.28706,0.43058 0.6003,0.94971 1.06067,1.23743 0.38055,0.23785 0.86404,0.2814 1.23743,0.53033 0.57556,0.38371 0.10263,0.32884 0.70711,0.53033 0.29038,0.0968 1.1659,0.0526 1.41421,0.17678 0.0527,0.0263 -0.0559,0.15814 0,0.17678 0.41301,0.13767 1.43602,0.0109 1.76777,0.17677 0.34132,0.17067 1.3479,0.35356 1.91639,0.26247 0.0653,-0.29942 -0.0574,-0.49607 -0.10138,-0.71609 -0.42301,-2.11503 1.57666,-5.35499 2.25,-7.375 0.44461,-1.33385 -0.39088,0.62948 0.5,-1.375 0.0987,-0.22202 0.29817,-0.39451 0.375,-0.625 0.0395,-0.11859 -0.0303,-0.25373 0,-0.375 0.0364,-0.14575 0.19082,-0.23692 0.25,-0.375 0.11321,-0.26417 0.2881,-0.69586 0.375,-1 0.0875,-0.30643 0.189,-0.69504 0.25,-1 0.0245,-0.12257 -0.0395,-0.25642 0,-0.375 0.0475,-0.14252 0.18281,-0.24063 0.25,-0.375 0.11334,-0.22669 0.0448,-0.50956 0.125,-0.75 0.0884,-0.26517 0.30721,-0.47884 0.375,-0.75 0.0748,-0.29929 0.10053,-0.57606 0.25,-0.875 0.0791,-0.15811 0.25,-0.25 0.375,-0.375 0.23546,-0.23546 0.37009,-0.55882 0.625,-0.75 0.43543,-0.32657 0.90864,-0.48351 1.375,-0.75 0.33288,-0.19022 0.64575,-0.4833 1,-0.625 0.79765,-0.31906 1.03645,-0.29613 1.75,-0.5 0.38007,-0.10859 0.77144,-0.19822 1.125,-0.375 0.0373,-0.0186 -0.0395,-0.11182 0,-0.125 0.24044,-0.0802 0.50258,-0.07 0.75,-0.125 0.49654,-0.11034 1.01327,-0.41888 1.5,-0.5 0.1644,-0.0274 0.33657,0.0327 0.5,0 0.0578,-0.0116 0.0703,-0.10312 0.125,-0.125 0.40513,-0.16205 0.95519,-0.15671 1.375,-0.25 0.53385,-0.11863 0.65964,-0.26732 1.125,-0.5 0.2,-0.1 0.55,0.1 0.75,0 0.0444,-0.0222 0.20555,-0.22778 0.25,-0.25 0.23439,-0.11719 0.63045,0.0978 0.875,0 0.52967,-0.21187 0.65678,-0.625 1.7812,-0.53068 0.41335,0.0943 0.26095,0.17762 0.17765,0.0943 -0.36575,-0.36575 0.55893,0.0143 -0.17677,-0.35355 -0.3148,-0.1574 -0.77011,-0.23977 -1.06066,-0.53033 -0.0833,-0.0833 0.0833,-0.27025 0,-0.35355 -0.0417,-0.0417 -0.11788,0 -0.17678,0 -0.0589,-0.11785 -0.11788,-0.2357 -0.17678,-0.35356 -0.084,-0.084 -0.6231,-0.26955 -0.7071,-0.35355 -0.0932,-0.0932 0.17342,-0.37125 -0.17678,-0.35355 -0.16997,-0.12748 -0.35355,-0.2357 -0.53033,-0.35356 -0.0589,-0.11785 -0.0836,-0.26035 -0.17678,-0.35355 -0.0932,-0.0932 -0.26035,-0.0836 -0.35355,-0.17678 -0.5285,-0.5285 -1.01255,-1.54287 -1.59099,-2.12132 -0.0932,-0.0932 -0.26035,-0.0836 -0.35355,-0.17677 -0.40641,-0.40641 -1.02004,-1.37359 -1.41422,-1.76777 -1.08716,-1.08717 0.59604,1.24761 -0.70711,-0.70711 -0.0417,-0.0417 -0.13507,0.0417 -0.17677,0 -0.35383,-0.35383 -0.44051,-0.83754 -0.70711,-1.23743 -0.20929,-0.31394 -0.74841,-0.36174 -0.70711,-0.88389 -0.53033,-0.79549 0.35356,0.17678 -0.53033,-1.06066 -0.3558,-0.49812 -0.89819,-0.90535 -1.23743,-1.41421 -0.10338,-0.15504 -0.0809,-0.37055 -0.17678,-0.53033 -0.35067,-0.58446 -0.98784,-1.05802 -1.41421,-1.59099 -0.4015,-0.50188 -0.38623,-0.73978 -0.88389,-1.23744 -0.0932,-0.0932 -0.26035,-0.0836 -0.35355,-0.17677 -0.0932,-0.0932 -0.091,-0.25352 -0.17678,-0.35356 -0.50168,-0.5853 -1.45454,-1.51503 -1.76776,-2.2981 -0.0438,-0.10942 0.0403,-0.24279 0,-0.35355 -0.19833,-0.54541 -0.44757,-1.07191 -0.70711,-1.59099 -0.0373,-0.0745 -0.17678,-0.0935 -0.17678,-0.17678 0,-0.59219 0.11788,-1.17851 0.17678,-1.76776 0.18198,-0.18198 0.34835,-0.17158 0.53033,-0.35356 0.0417,-0.0417 -0.0263,-0.12407 0,-0.17677 0.095,-0.19003 0.22608,-0.36037 0.35355,-0.53033 0.3765,-0.50199 0.86091,-0.91217 1.23744,-1.41422 0.0791,-0.10541 0.0836,-0.26035 0.17678,-0.35355 0.15023,-0.15023 0.36036,-0.22608 0.53033,-0.35355 0.60676,-0.45508 1.11035,-1.22705 1.59099,-1.76777 0.358,-0.40276 0.93541,-0.7844 1.23743,-1.23744 0.17019,-0.25527 0.75112,-1.10442 0.88389,-1.41421 0.125,-0.29167 0.17753,-0.61985 0.35355,-0.88388 0.0731,-0.10968 0.27445,-0.0714 0.35355,-0.17678 0.1904,-0.25386 0.17754,-0.61985 0.35356,-0.88388 0.37901,-0.56852 0.83429,-1.08866 1.06066,-1.76777 0.095,-0.28504 0.0584,-0.60772 0.17677,-0.88388 0.0657,-0.1532 0.27906,-0.20449 0.35356,-0.35356 0.15467,-0.30937 0.0901,-0.89054 0.17677,-1.23743 0.11841,-0.47361 0.23069,-0.92275 0.35356,-1.41422 0.2363,-0.94521 -0.19142,-2.04811 0,-3.0052 0.13556,-0.67781 0.43083,-1.42474 0.53033,-2.12132 0.0787,-0.55071 0.10036,-1.51458 0.53033,-1.94455 0.0932,-0.0932 0.26035,-0.0836 0.35355,-0.17677 0.15023,-0.15023 0.20332,-0.3801 0.35356,-0.53033 0.42462,-0.42463 1.35946,-0.91987 1.76776,-1.23744 1.02939,-0.80064 1.84205,-1.42343 3.00521,-2.12132 0.65145,-0.39087 0.41751,-0.6507 0.88388,-0.88388 0.10541,-0.0527 0.24814,0.0527 0.35355,0 0.35356,-0.17678 0.26517,-0.35356 0.53033,-0.53033 0.3217,-0.21447 0.32767,-0.0833 0.53033,-0.35356 0.12748,-0.16996 0.23571,-0.35355 0.35356,-0.53033 0.0589,-0.17677 0.0734,-0.37528 0.17677,-0.53033 0.0327,-0.049 0.13508,0.0417 0.17678,0 0.39324,-0.39324 0.63051,-1.40839 0.70711,-1.94454 0.22428,-1.57 0,-3.37063 0,-4.94975 0,-0.69653 0.21049,-1.66661 0,-2.2981 -0.0833,-0.25 -0.27026,-0.4571 -0.35356,-0.7071 -0.2845,-0.8535 0.16426,-2.72676 0,-3.71231 -0.13286,-0.79721 -0.57389,-1.85235 -0.7071,-2.65165 -0.0484,-0.29062 0.0578,-0.59498 0,-0.88389 -0.12268,-0.61338 -0.37998,-1.16636 -0.53033,-1.76776 -0.12348,-0.49389 -0.0334,-1.0891 -0.17678,-1.59099 -0.34696,-1.21435 -0.6367,-2.29961 -0.88388,-3.53554 -0.29506,-1.47518 -0.0393,0.21606 -0.35356,-0.88388 -0.39363,-1.37771 -0.7901,-2.72387 -1.23743,-4.06587 -0.16972,-0.50916 0,-1.38921 0,-1.94454 0,-1.82788 -0.0808,-3.67708 0.17677,-5.48008 0.0533,-0.37325 0.20965,-1.26719 0.35356,-1.59099 0.35553,-0.79996 0.84237,-1.42496 1.06066,-2.29809 0.22514,-0.90058 -0.41469,-0.21313 0.35355,-1.23744 0.0353,-0.0471 0.14408,0.049 0.17678,0 0.10337,-0.15504 0.0935,-0.36366 0.17677,-0.53033 0.26098,-0.52195 0.58418,-0.6111 0.88389,-1.06066 0.17602,-0.26403 0.19611,-0.60837 0.35355,-0.88388 0.0299,-0.0523 0.7714,-0.94818 0.88388,-1.06066 0.30047,-0.30047 0.73804,-0.43058 1.06066,-0.70711 1.03268,-0.88515 1.93849,-1.79017 2.82843,-2.82843 0.21693,-0.25308 0.55804,-0.40896 0.70711,-0.70711 0.2221,-0.44419 0.91638,-1.05351 1.06066,-1.41421 0.0903,-0.22558 0.0518,-0.49877 0.17677,-0.70711 0.0678,-0.11297 0.26036,-0.0836 0.35356,-0.17677 0.17177,-0.1718 0.031,-0.51274 0.17677,-0.70711 0.0791,-0.10538 0.29466,-0.0589 0.35356,-0.17678 0.079,-0.15811 -0.0429,-0.35883 0,-0.53033 0.0202,-0.0809 0.13947,-0.10227 0.17677,-0.17677 0.33741,-0.67481 0.81778,-1.56945 1.06066,-2.2981 0.14589,-0.43765 0.18384,-0.96163 0.35356,-1.41421 0.28945,-0.77189 0.69221,-1.5612 1.06066,-2.2981 0.68539,-1.37078 1.68767,-2.57709 2.47487,-3.88909 0.57906,-0.9651 -0.13589,0.23091 0.17678,-0.7071 0.017,-0.051 1.50639,-2.7156 1.59099,-2.82843 0.0791,-0.10538 0.26035,-0.0836 0.35355,-0.17678 0.32701,-0.32701 0.13055,-0.10744 0.53033,-0.7071 0.0417,-0.0417 0.15048,0.0527 0.17678,0 0.0527,-0.10541 -0.0606,-0.2525 0,-0.35356 0.12862,-0.21437 0.40171,-0.31595 0.53033,-0.53033 0.12498,-0.20833 -0.19246,-0.55782 0.17678,-0.7071 0.0924,-0.13868 0.27905,-0.20449 0.35355,-0.35356 0.32241,-0.64482 0.56816,-1.31309 0.88388,-1.94454 0.0527,-0.10541 -0.0654,-0.25546 0,-0.35356 0.0924,-0.13867 0.27906,-0.20448 0.35356,-0.35355 0.15587,-0.31175 0,-1.236 0,-1.59099 0,-0.50357 0.15993,-1.28795 0,-1.76777 -0.12155,-0.36464 -0.43723,-0.68835 -0.53033,-1.06066 -0.18327,-0.73307 -0.40026,-1.58211 -0.70711,-2.29809 -0.1179,-0.2751 -0.53033,-1.06491 -0.53033,-1.41422 0,-0.24295 0.11788,-0.4714 -0.0884,-0.0884 -0.86969,0.52781 -1.93183,-0.23984 -2.38648,-0.61872 -0.10123,-0.0844 -0.0836,-0.26039 -0.17678,-0.35356 -0.47394,-0.47393 -1.19185,-0.48474 -1.59099,-0.88388 -0.0417,-0.0417 0.0417,-0.13511 0,-0.17678 -0.15023,-0.15023 -0.40286,-0.18358 -0.53033,-0.35355 -0.0707,-0.0943 0.0527,-0.24814 0,-0.35355 0.79134,-2.08758 -0.50711,-0.44044 -0.70711,-0.70711 -0.23717,-0.31623 -0.25082,-0.78115 -0.53033,-1.06066 -0.0932,-0.0932 -0.2357,-0.11785 -0.35355,-0.17678 -0.2357,-0.35355 -0.43508,-0.73423 -0.70711,-1.06066 -0.0377,-0.0453 -0.12775,0.0327 -0.17678,0 -0.53505,-0.3567 -1.18058,-0.93541 -1.59099,-1.41421 -0.52762,-0.61556 -1.01448,-1.36804 -1.59099,-1.94454 -0.26679,-0.2668 -0.61708,-0.44031 -0.88388,-0.70711 -0.0417,-0.0417 0.049,-0.14409 0,-0.17678 -0.15504,-0.10336 -0.41104,-0.0336 -0.53033,-0.17678 -0.20315,-0.24377 -0.2357,-0.58925 -0.35355,-0.88388 -0.29463,-0.29463 -0.57674,-0.60233 -0.88389,-0.88388 -1.10455,-1.01251 -2.27438,-1.79508 -3.18198,-3.00521 -0.5099,-0.67987 -0.9638,-1.40066 -1.41421,-2.12132 -0.30447,-0.48715 -0.16207,-0.59299 -0.53033,-1.23743 -0.29595,-0.51791 -0.92595,-0.89507 -1.23744,-1.41422 -0.35651,-0.59419 0.004,-0.40689 -0.35355,-0.88388 -0.45714,-0.60952 -0.88921,-1.24809 -1.23744,-1.94454 -0.4942,-0.98841 -0.92176,-2.12975 -1.23743,-3.181984 -0.40465,-1.348807 0.67706,1.037254 -0.17678,-0.883884 -0.54865,-1.23446 -0.47409,-0.808889 -1.06066,-1.59099 -0.46325,-0.617664 0.0323,-0.07985 -0.17678,-0.707107 -0.0499,-0.149665 -0.84352,-1.707225 -0.88388,-1.767767 -0.0731,-0.109632 -0.28576,-0.06379 -0.35355,-0.176776 -0.22858,-0.380958 -0.58435,-1.79886 -0.88389,-2.298097 -0.43167,-0.719448 -0.29092,0.01113 -0.53033,-0.707107 -0.0652,-0.195737 0.0119,-0.753017 0,-0.883884 -0.10535,-1.158891 -0.17678,-2.196929 -0.17678,-3.358757 0,-1.633386 0.14284,-3.351687 -0.17677,-4.949747 -0.0984,-0.491803 0,-1.081501 0,-1.59099 0,-1.359427 0.091,-2.726776 -0.17678,-4.065864 -0.24641,-1.232051 -0.66208,-0.682932 -1.23744,-2.121321 -0.0902,-0.225579 -0.0681,-0.4898 -0.17677,-0.707107 -0.20655,-0.413104 -1.64608,-2.543281 -2.12132,-2.828427 -0.22597,-0.135581 -0.45711,-0.27022 -0.70711,-0.353553 -0.1118,-0.03727 -0.25549,0.06537 -0.35355,0 -0.20624,-0.137493 -0.97964,-1.031197 -1.23744,-1.237437 -0.39314,-0.314509 -0.95415,-0.325855 -1.41421,-0.53033 -0.43413,-0.192945 -0.82496,-0.471405 -1.23744,-0.707107 -0.66953,-0.382591 -1.24942,-0.889876 -1.94454,-1.237437 -0.91746,-0.458726 -2.19838,-0.977057 -3.18198,-1.414213 -0.34056,-0.151359 -0.72733,-0.186887 -1.06066,-0.353554 -0.0745,-0.03727 -0.11786,-0.117851 -0.17678,-0.176776 -0.11785,-0.05893 -0.23122,-0.127842 -0.35355,-0.176777 -0.29463,-0.117851 -0.57604,-0.276591 -0.88389,-0.353553 -0.15926,-0.03982 -0.77001,0.113869 -0.88388,0 -0.2357,-0.235703 0.29463,-0.176777 -0.88389,-0.353554 -1.51634,-0.258556 -2.2957,0.0412 -2.82842,0.707107 -0.0736,0.09203 0.0707,0.259272 0,0.353553 -0.12748,0.169968 -0.3801,0.203322 -0.53033,0.353554 -0.0417,0.04167 0.0327,0.127747 0,0.176776 -0.0924,0.138676 -0.27902,0.204483 -0.35356,0.353554 -0.0527,0.105409 0.0527,0.248144 0,0.353553 -0.19002,0.380059 -0.50074,0.689215 -0.7071,1.06066 -0.18099,0.32578 -0.16866,0.737085 -0.35356,1.060661 -0.14617,0.255808 -0.37874,0.454465 -0.53033,0.707106 -0.15249,0.254157 -0.0295,0.942901 -0.17677,1.237437 -0.0745,0.149071 -0.26781,0.210638 -0.35356,0.353554 -0.5069,0.844836 -0.68132,1.943315 -1.06066,2.828427 -0.0232,0.05416 -0.13511,-0.04167 -0.17677,0 -0.53782,0.154095 -0.43058,0.738038 -0.70711,1.06066 -0.27116,0.316357 -0.60515,0.574177 -0.88388,0.883883 -0.78195,0.868833 -1.52532,1.939485 -2.47488,2.651651 -0.10541,0.07906 -0.26038,0.08361 -0.35355,0.176776 -0.24493,0.244933 -0.3592,0.533152 -0.70711,0.707107 -0.73409,0.367046 -1.53206,0.589256 -2.29809,0.883884 -0.34784,0.133783 -0.69173,0.300848 -1.06066,0.353553 -0.84648,0.120925 -1.80132,0 -2.65165,0 h -5.83364 c -3.47284,0 -7.22889,0.390863 -10.6066,-0.53033 -0.38135,-0.104006 -0.7071,-0.353553 -1.06066,-0.53033 -0.7071,-0.235702 -1.4005,-0.517419 -2.12132,-0.707107 -0.80589,-0.212078 -1.66288,-0.16617 -2.47487,-0.353553 -0.5447,-0.1257 -1.09099,-0.28033 -1.59099,-0.53033 -0.80904,-0.404519 0.75014,0.07327 -0.53033,-0.353554 -0.22361,-0.07453 -0.47598,0.04623 -0.70711,0 -0.42853,-0.0857 -0.78758,-0.440358 -1.23744,-0.53033 -0.71314,-0.142629 -1.58308,0 -2.29809,0 -2.1809,0 -4.01414,0.136249 -6.18719,0.353554 -0.1759,0.01759 -0.36262,-0.0559 -0.53033,0 -0.0559,0.01863 0.0572,0.162485 0,0.176776 -1.41421,0.353554 -0.17677,-0.176776 -1.06066,0 -0.30348,0.0607 -2.06808,0.402968 -2.82842,0.707107 -0.41667,0.166667 -0.8076,0.401379 -1.23744,0.53033 -0.16932,0.0508 -0.35952,-0.04555 -0.53033,0 -1.00891,0.269042 -1.99783,0.609146 -3.0052,0.883884 -0.66541,0.181473 -1.27544,0.539828 -1.94455,0.707106 -0.1715,0.04287 -0.35355,0 -0.53033,0 -0.41248,0.117852 -0.82654,0.230286 -1.23744,0.353554 -1.61323,0.483971 -3.15764,1.270745 -4.77297,1.767767 -0.63836,0.196418 -0.3601,-0.130946 -0.88388,0 -0.36337,0.09084 -0.81545,0.584503 -1.06066,0.707107 -0.10541,0.0527 -0.24586,-0.04786 -0.35355,0 l -1.23744,0.707106 c -0.0589,0.117851 -0.0739,0.271243 -0.17678,0.353554 -0.34995,0.279966 -0.87093,0.432228 -1.23743,0.707106 -0.69814,0.523601 -1.28949,1.194595 -1.94455,1.767767 -0.15989,0.139906 -0.3801,0.203323 -0.53033,0.353554 -0.88757,0.88757 -1.29203,1.961187 -1.94454,3.005204 -0.0312,0.04997 -0.14646,-0.05053 -0.17678,0 -0.16326,0.272103 -0.19029,0.61178 -0.35355,0.883883 -0.19412,0.323539 -0.52387,0.554057 -0.70711,0.883884 -0.11799,0.212382 -0.0865,0.481527 -0.17677,0.707106 -0.15781,0.394527 -0.53454,0.672365 -0.70711,1.060661 -0.0987,0.222016 -0.0811,0.483794 -0.17678,0.707106 -0.39614,0.924334 -1.45622,1.851794 -1.94454,2.828427 -0.0263,0.05271 0,0.117852 0,0.176777 -0.17678,0.353554 -0.32083,0.72546 -0.53033,1.06066 -0.30423,0.486772 -0.42186,0.490162 -0.70711,1.06066 -0.0263,0.05271 0,0.117852 0,0.176777 -0.0589,0.176777 -0.0734,0.375287 -0.17677,0.530331 -0.0654,0.0981 -0.27023,-0.08333 -0.35356,0 -0.37531,0.37531 -0.39076,0.66616 -0.88388,1.06066 -0.10289,0.0823 -0.26039,0.0836 -0.35356,0.17678 -0.0932,0.0932 -0.0714,0.27449 -0.17677,0.35355 -1.7022,1.27665 0.37658,-0.65482 -0.88389,0.35355 -0.97937,0.7835 -2.21976,1.90538 -3.35875,2.47488 -0.21082,0.10541 -0.48827,-0.0875 -0.70711,0 -0.15475,0.0619 -0.20448,0.27901 -0.35355,0.35355 -0.10541,0.0527 -0.24413,-0.0438 -0.35356,0 -0.19726,0.0789 -0.33306,0.27465 -0.53033,0.35355 -0.40999,0.164 -0.98917,0.14104 -1.41421,0.35356 -0.0527,0.0263 0,0.11785 0,0.17677 -0.17678,0.0589 -0.34653,0.14615 -0.53033,0.17678 -0.39349,0.0656 -0.84739,-0.0867 -1.23744,0 -0.97648,0.217 -1.36535,0.37487 -2.29809,0.53033 -0.63052,0.10509 -1.55982,-0.0401 -2.12132,0 -0.71504,0.0511 -1.41167,0.25217 -2.12132,0.35355 -1.04056,0.14865 -2.13666,-0.11614 -3.18198,0 -1.07974,0.11997 -2.11198,0.37748 -3.18199,0.53033 -1.09719,0.15675 -2.26156,-0.15674 -3.35875,0 -1.16117,0.16588 -2.22154,0.47967 -3.35876,0.70711 -1.0767,0.21534 -2.27493,0.01 -3.35876,0.17678 -0.48026,0.0739 -0.93614,0.26663 -1.41421,0.35355 -0.17393,0.0316 -0.35355,0 -0.53033,0 -0.35355,0.0589 -0.71077,0.099 -1.06066,0.17678 -0.73195,0.16265 -1.3638,0.62293 -2.12132,0.7071 -1.19872,0.1332 -2.52126,0.26047 -3.71231,0.70711 -0.15606,0.0585 -0.21488,0.2611 -0.35356,0.35355 -0.42774,0.28516 -0.4992,-0.0156 -0.88388,0.17678 -0.0527,0.0263 0.0417,0.13511 0,0.17678 -0.0932,0.0932 -0.26038,0.0836 -0.35355,0.17677 -0.2668,0.2668 -0.42511,0.63322 -0.70711,0.88389 -0.2568,0.22827 -0.62301,0.30672 -0.88388,0.53033 -0.16131,0.13826 -0.20332,0.3801 -0.35356,0.53033 -0.0932,0.0932 -0.26038,0.0836 -0.35355,0.17677 -0.39585,0.39585 -0.59326,0.80151 -0.88388,1.23744 -0.2093,0.31394 -0.61709,0.44031 -0.88389,0.70711 -0.15023,0.15023 -0.20332,0.3801 -0.35355,0.53033 -0.5752,0.5752 -1.13818,0.61096 -1.76777,1.06066 -0.33994,0.24282 -0.5519,0.6349 -0.88388,0.88388 -1.18566,0.88924 0.24184,-0.35881 -1.41421,1.06066 -0.49616,0.42528 -0.87278,1.05326 -1.41422,1.41422 -0.21926,0.14617 -0.48784,0.20737 -0.7071,0.35355 -0.71383,0.47588 -1.21869,1.13733 -1.94455,1.59099 -1.61971,1.01232 0.39067,-0.63073 -1.94454,1.23744 -0.58565,0.46852 -1.02656,1.09711 -1.59099,1.59099 -0.54591,0.47767 -1.1943,0.93632 -1.76777,1.41421 -0.38188,0.31824 -0.67257,0.75019 -1.06066,1.06066 -0.19608,0.33449 -0.61558,0.31569 -0.88388,0.53033 -0.19522,0.15617 -0.32232,0.39166 -0.53033,0.53033 -0.15505,0.10336 -0.36367,0.0934 -0.53033,0.17678 -2.42587,1.21293 3.9011,-1.24145 -2.47488,0.88388 -0.079,0.0263 -0.0946,0.16308 -0.17677,0.17678 -0.37713,0.0629 -0.99938,-0.0377 -1.41422,0 -2.18573,0.1987 -0.71732,0.17677 -1.94454,0.17677 -0.79266,0 -1.69411,-0.13012 -2.47487,0 -0.70981,0.11831 -1.38076,0.29184 -2.12132,0.35356 -1.34739,0.11228 -3.29537,-0.16678 -4.5962,0.35355 -2.1092,0.84368 -3.38074,2.32558 -4.77297,4.06586 -0.3681,0.46014 -0.64399,0.99755 -1.06066,1.41422 -0.13176,0.13176 -0.36854,0.0843 -0.53033,0.17677 -0.27839,0.15909 -2.36817,1.73115 -2.47487,1.94455 -0.34939,0.69877 -0.95042,1.42563 -1.41422,2.12132 -0.31767,0.47651 -0.40213,1.13353 -0.7071,1.59099 -0.0327,0.049 -0.15043,-0.0527 -0.17678,0 -0.0527,0.10541 0.0373,0.24175 0,0.35355 -0.15039,0.45118 -0.55527,0.90808 -0.70711,1.41422 -0.10299,0.34331 -0.0634,0.72062 -0.17677,1.06066 -0.12155,0.36464 -0.43726,0.68835 -0.53033,1.06066 -0.24966,0.99864 0.0671,3.75483 -0.17678,4.24264 -0.0745,0.14907 -0.2357,0.2357 -0.53033,-0.0884 0.5317,0.40044 1.60947,0.62981 2.47487,1.14905 z"
         id="path174" />
    </g>
  </g>
</svg>
