<?xml version="1.0" encoding="UTF-8" standalone="no"?>
<!-- Created with Inkscape (http://www.inkscape.org/) -->

<svg
   version="1.1"
   id="svg1"
   width="226.0625"
   height="215.31248"
   viewBox="0 0 226.0625 215.31248"
   xmlns="http://www.w3.org/2000/svg"
   xmlns:svg="http://www.w3.org/2000/svg">
  <defs
     id="defs1" />
  <g
     id="layer1"
     style="display:inline"
     transform="translate(-670.87498,-64.499998)">
    <g
       id="layer27"
       style="display:inline;fill:#ffffff;fill-opacity:1;stroke:none">
      <path
         style="fill:#ffffff;fill-opacity:1;stroke:none;stroke-width:1;stroke-linecap:round;stroke-dasharray:none;stroke-opacity:1"
         d="m 877.18748,256.62499 -13.6875,5 -2.75,3.25 -2.8125,5.75 -1.6875,8.8125 -5.5625,0.375 -10.0625,-9.9375 -13.375,-2.5625 -12.25,-12.75 -4.0625,-2 -6.9375,-0.3125 -17.875,5.0625 -11.375,0.125 -6.75,-2.9375 h -12.5 l -0.6875,-12.9375 3.4375,-9.1875 -1.9375,-4.8125 -11.125,-10.75 -3.125,-1.75 -3.1875,-7.8125 -6.375,-7.87499 -6.375,-0.3125 -6.125,-4.0625 -12.9375,-3 -8.3125,-9.375 -0.9375,-4.625 -10.25,-12.875 -4.3125,-9.1875 -3.625,-0.375 -1.875,-2.125 -2.375,0.125 -4.5,-3.875 3.8125,-11.3125 6.3125,-6.875 22.8125,-4.5625 6.1875,-4.375 10.5,-10.5625 1.0625,-2.375 9.5625,-1.625 25,-1.0625 21.0625,-24.375002 9.5625,-3.4375 7.9375,-1.4375 2.0625,-2.25 36.6875,3.875 7.4375,-3.75 3.0625,-4 2.0625,-5 4,-2.0625 6.4375,1.25 7.375,2.75 7.1875,6.625 -0.8125,17.375 2,7.0625 9.125,13.500002 14.1875,13.1875 1.4375,7.625 -6.3125,9.9375 -2.3125,6.8125 -4.5,6.75 -5.25,3.5625 -2.9375,11.8125 3.625,30.49999 -8.75,8.5625 -1,15.0625 -9.125,9 6.0625,6.1875 1.4375,5.5625 z"
         id="path24" />
    </g>
  </g>
</svg>
