<?xml version="1.0" encoding="UTF-8" standalone="no"?>
<!-- Created with Inkscape (http://www.inkscape.org/) -->

<svg
   version="1.1"
   id="svg1"
   width="182.12498"
   height="172.56248"
   viewBox="0 0 182.12498 172.56248"
   xmlns="http://www.w3.org/2000/svg"
   xmlns:svg="http://www.w3.org/2000/svg">
  <defs
     id="defs1" />
  <g
     id="layer1"
     style="display:inline"
     transform="translate(-515.93749,-115.0625)">
    <g
       id="layer28"
       style="display:inline;fill:#ffffff;fill-opacity:1;stroke:none">
      <path
         style="fill:#ffffff;fill-opacity:1;stroke:none;stroke-width:1;stroke-linecap:round;stroke-dasharray:none;stroke-opacity:1"
         d="m 667.81248,286.06249 8.125,-4.6875 3.25,1.125 5.125,5.125 5.4375,-0.75 4.875,-4.875 3.4375,-8.8125 -1.0625,-10.1875 -3.3125,-3.25 -2.25,-0.25 -6.8125,-11.9375 0.0625,-4.0625 -6.1875,-10.1875 -2.875,-0.875 -7.25,-7.75 h -7.5 l -5.5,-4.5625 -2.75,-12 -3.25,-2.625 -13.25,-5.49999 -3.3125,-5.3125 -12.9375,-3.125 -8.6875,-9.1875 -5.3125,-12.6875 -9.12499,-3.6875 -3.5625,0.5625 -3.5625,-3.125 -1.6875,0.375 -10.75,-12.1875 -0.6875,-5 -7.25,-9.3125 -4.3125,-1.0625 -4,-6 h -14.9375 l -4.8125,-7.625 -7,-4.8125 -13.5,-2.75 -1.9375,11.25 -2.8125,4.375 v 9.875 l 2.6875,-0.125 4.8125,1 5.0625,4.375 v 0.9375 l -8.5,8.8125 -1.0625,4.25 3.3125,7.125 6.5625,7.1875 3.875,0.1875 8.9375,-9.6875 4.5,-0.75 8,19.9375 3.25,3 -4.75,3.625 -1,4.125 18.5625,11.12499 3.0625,6.9375 17.125,4.6875 7.5,7.75 7.4375,2.25 2.49999,3.125 -1.75,2.125 -4.62499,-1.4375 -2.375,0.8125 -0.5,1.75 16.68749,10.6875 3.0625,-2.8125 9.625,5.125 1.0625,1.875 6.5625,3.875 1.375,3.9375 1.875,2.4375 h 8.5625 l 7.5,12.4375 12.75,8.125 z"
         id="path25" />
    </g>
  </g>
</svg>
