<?xml version="1.0" encoding="UTF-8" standalone="no"?>
<!-- Created with Inkscape (http://www.inkscape.org/) -->

<svg
   version="1.1"
   id="svg2"
   width="182.43892"
   height="172.88571"
   viewBox="0 0 182.43892 172.88571"
   xmlns="http://www.w3.org/2000/svg"
   xmlns:svg="http://www.w3.org/2000/svg">
  <defs
     id="defs6">
    <linearGradient
       id="swatch77">
      <stop
         style="stop-color:#e2c69e;stop-opacity:1;"
         offset="0"
         id="stop77" />
    </linearGradient>
  </defs>
  <g
     id="layer66"
     style="display:inline"
     transform="translate(-514.93123,-114.94847)">
    <g
       id="layer37"
       style="display:inline">
      <path
         style="display:inline;fill:#969696;fill-opacity:1;stroke:none;stroke-opacity:1"
         d="m 520.5,115.25 c -0.125,0.16667 -0.27164,0.31912 -0.375,0.5 -0.1775,0.31063 -0.14675,0.69026 -0.25,1 -0.13518,0.40553 -0.35246,0.88115 -0.5,1.25 -0.41212,0.14774 -0.0578,0.42344 -0.125,0.625 0.41298,0.58777 -0.27119,0.49048 -0.375,0.75 -0.19048,0.47619 -0.27413,1.04826 -0.5,1.5 -0.0263,0.0527 -0.11071,0.0678 -0.125,0.125 -0.24503,0.98011 0.44098,-0.41496 -0.125,1 -0.0155,0.0387 -0.10189,-0.0347 -0.125,0 -0.22364,0.33545 -0.12402,0.87206 -0.25,1.25 -0.11141,0.33424 -0.26359,0.66576 -0.375,1 -0.14948,0.44843 0.0784,1.02957 0,1.5 -0.0728,0.43689 -0.22321,0.41963 -0.375,0.875 -0.18761,0.56284 0.14436,1.29754 0,1.875 -0.0403,0.16099 -0.44418,0.90171 -0.5,1.125 -0.0303,0.12127 0.0303,0.25373 0,0.375 -0.0143,0.0572 -0.0987,0.0723 -0.125,0.125 -0.14112,0.28224 -0.25029,0.68822 -0.375,1 -0.4658,1.1645 0.16081,-0.39325 -0.125,0.75 -0.0385,0.15401 -0.31374,0.31622 -0.375,0.5 -0.0395,0.11859 0.0205,0.2517 0,0.375 -0.17325,1.0395 -0.0343,0.10277 -0.25,0.75 -0.0877,0.26319 -0.021,0.91692 -0.125,1.125 -0.0263,0.0527 -0.10637,0.0691 -0.125,0.125 -0.0951,0.28516 0,0.82901 0,1.125 0,0.59752 -0.15473,2.53581 0,3 0.0186,0.0559 0.11071,0.0678 0.125,0.125 0.0488,0.19529 0,0.53143 0.22203,1.05531 0.65279,0.30532 3.24684,0.22672 3.40402,0.30532 0.095,0.0475 0.16657,0.13727 0.26517,0.17677 0.13037,0.0521 0.48901,0 0.61871,0 0.70632,0 -0.25988,-0.0214 0.61872,0.0884 0.2877,0.036 1.40993,-0.10778 1.67938,0 0.0986,0.0394 0.16567,0.13948 0.26517,0.17678 1.46753,0.55033 -0.0879,-0.0883 0.61872,0.0884 0.29027,0.0726 0.50203,0.2435 0.79549,0.35355 0.22749,0.0853 0.4898,0.0681 0.70711,0.17678 0.0264,0.0132 -0.0245,0.0721 0,0.0884 0.21951,0.14635 0.74008,0.26916 0.97227,0.35356 0.23193,0.0843 0.82059,0.38194 1.06066,0.44194 0.0572,0.0143 0.12968,-0.0354 0.17678,0 0.085,0.0637 0.11787,0.17676 0.17677,0.26516 0.0589,0 0.12408,-0.0264 0.17678,0 0.0264,0.0132 -0.0208,0.0676 0,0.0884 0.18639,0.18639 0.45589,0.2861 0.61872,0.53033 0.17755,0.26633 0.3551,0.53266 0.53033,0.7955 0.0549,0.0824 -0.0513,0.26805 0,0.35355 0.375,0.625 0.61872,0.98577 0.61872,1.76777 0,0.0717 0.0225,0.19766 0,0.26516 -0.0803,0.2409 -0.13568,0.33118 -0.17678,0.61872 -0.0353,0.24743 -0.0175,0.98981 -0.17678,1.14905 -0.0208,0.0208 -0.0676,-0.0208 -0.0884,0 -0.34503,0.34503 -0.31305,0.68686 -0.88388,0.97227 -0.30568,0.15284 -0.51745,0.30789 -0.79549,0.53033 -0.12693,0.10155 -0.24185,0.35814 -0.35356,0.44194 -0.18821,0.14116 -0.50234,0.19687 -0.7071,0.26517 -0.11859,0.0395 -0.15337,0.20926 -0.26517,0.26516 -0.26326,0.13168 -0.60647,0.12128 -0.88388,0.17678 -0.37843,0.0757 -0.64104,0.27633 -0.97227,0.44194 -0.10866,0.0543 -0.26766,0.002 -0.35356,0.0884 -0.10767,0.10766 -0.0414,0.19747 -0.17677,0.26517 -0.28268,0.14133 -0.51108,0.24717 -0.70711,0.53033 -0.0406,0.0587 -0.4822,0.91407 -0.7955,1.14904 -0.28865,0.21647 -0.0829,-0.0731 -0.35355,0.26517 -0.0664,0.0829 -0.0952,0.19716 -0.17678,0.26516 -0.10122,0.0844 -0.24057,0.10898 -0.35355,0.17678 -0.58373,0.35024 -0.94375,0.73845 -1.23744,1.32583 -0.078,0.15603 0,1.62271 0,1.85615 0,0.65737 -0.0153,1.14531 0.0884,1.76777 0.0375,0.22468 -0.0552,0.48629 0,0.70711 0.0101,0.0404 0.0752,0.0489 0.0884,0.0884 0.0368,0.11052 0.16148,0.60005 0.17678,0.70711 0.0208,0.14583 -0.0466,0.30219 0,0.44194 0.0778,0.23331 0.40254,0.72643 0.44194,0.88389 0.0971,0.38832 0.082,0.78268 0.26516,1.14904 0.19569,0.39138 0.51206,0.81081 0.61872,1.23744 0.0435,0.17387 0.0317,0.36031 0.0884,0.53033 0.0705,0.21154 0.38504,0.47971 0.44194,0.70711 0.0214,0.0858 -0.0455,0.18936 0,0.26516 0.0971,0.16177 0.32875,0.20263 0.44194,0.35356 0.37181,0.49573 0.77552,1.23114 1.14905,1.67938 0.1067,0.12803 0.25796,0.21701 0.35356,0.35355 0.13621,0.1946 0.24732,0.40626 0.35355,0.61872 0.0417,0.0833 0.0701,0.17376 0.0884,0.26516 0.0115,0.0578 -0.0354,0.12968 0,0.17678 0.0637,0.085 0.19876,0.0938 0.26516,0.17678 0.0582,0.0728 0.0467,0.18186 0.0884,0.26516 0.11445,0.2289 0.33661,0.60178 0.53033,0.7955 0.0208,0.0208 0.0676,-0.0208 0.0884,0 0.0466,0.0466 0.0418,0.13017 0.0884,0.17677 0.10416,0.10417 0.26155,0.15013 0.35355,0.26517 0.0368,0.046 -0.0309,0.12657 0,0.17677 0.21003,0.3413 0.47013,0.64912 0.70711,0.97228 0.0871,0.11879 0.15331,0.25765 0.26516,0.35355 0.21104,0.18089 0.5548,0.16678 0.70711,0.44194 0.38725,0.33884 0.75115,0.76387 1.23744,0.97227 0.55317,0.23708 1.18269,0.17678 1.76776,0.17678 0.0986,0 1.59618,0.0416 1.67938,0 0.0373,-0.0186 0.0489,-0.0752 0.0884,-0.0884 0.14994,-0.05 0.39016,0.0701 0.53033,0 0.0373,-0.0186 0.0589,-0.0589 0.0884,-0.0884 0.20624,-0.0589 0.41248,-0.11787 0.61872,-0.17677 0.11092,-0.0277 0.24263,0.0277 0.35355,0 0.10306,-0.0258 0.16657,-0.13738 0.26517,-0.17678 0.51634,-0.20654 0.8772,-0.45903 1.32582,-0.7955 0.3836,-0.2877 0.88332,-0.48072 1.23744,-0.79549 0.20302,-0.18046 0.32842,-0.43701 0.53033,-0.61872 0.23279,-0.20951 0.4714,-0.41248 0.7071,-0.61872 0.0884,-0.11785 0.161,-0.24938 0.26517,-0.35355 0.16271,-0.16271 0.36762,-0.27923 0.53033,-0.44194 0.13606,-0.13607 0.21749,-0.39427 0.35355,-0.53033 0.0209,-0.0208 0.0676,0.0208 0.0884,0 0.0466,-0.0466 0.0489,-0.12408 0.0884,-0.17678 0.05,-0.0667 0.13948,-0.10228 0.17678,-0.17678 0.0263,-0.0527 -0.0312,-0.12677 0,-0.17677 0.48806,-0.7809 0.29764,-0.28367 0.7071,-0.7955 0.17739,-0.22174 0.27365,-0.66426 0.53033,-0.97227 0.08,-0.096 0.20927,-0.15336 0.26517,-0.26517 0.0395,-0.079 -0.0395,-0.18606 0,-0.26516 0.0559,-0.1118 0.18706,-0.16757 0.26516,-0.26517 0.44873,-0.5609 0.22444,-1.06834 1.06066,-1.59099 0.7698,-0.48112 0.76856,-0.23606 1.59099,-0.35355 0.26891,-0.0384 0.5266,-0.13838 0.7955,-0.17678 0.62322,-0.089 1.33812,-0.0127 1.94454,0.0884 0.0127,0.002 0.59142,-0.0328 0.61872,0 0.12653,0.15184 0.15906,0.36359 0.26517,0.53033 0.19493,0.30633 0.39981,0.46921 0.53033,0.7955 0.12129,0.30324 0.16354,0.6674 0.26516,0.97227 0.16777,0.50343 0.20697,0.36021 0.26517,0.88388 0.013,0.11713 -0.0194,0.23731 0,0.35356 0.20173,1.21042 0.0719,0.28616 0.35355,1.06066 0.0733,0.20158 0.11788,0.41248 0.17678,0.61872 0,0.0884 -0.0233,0.17986 0,0.26516 0.6735,2.4695 -0.0369,-0.37595 0.44194,1.06066 0.11547,0.34631 0.11857,0.71138 0.17677,1.06066 0.0552,0.33136 0.14722,0.65773 0.26517,0.97227 0.0104,0.0276 0.0794,-0.028 0.0884,0 0.0567,0.17002 0.0369,0.35868 0.0884,0.53033 0.0573,0.19088 0.39844,1.05665 0.44194,1.14905 0.16831,0.35766 0.2834,0.752 0.53033,1.06066 0.58914,0.73643 0.83793,1.30816 1.32582,2.12132 0.0547,0.0911 0.13738,0.16657 0.17678,0.26517 0.0219,0.0547 -0.0143,0.11957 0,0.17677 0.0746,0.2982 0.25565,0.5901 0.35355,0.88389 0.15636,0.46907 0.29196,1.00989 0.35356,1.5026 0.0465,0.37201 -0.0318,0.78847 0.0884,1.14905 0.0502,0.15052 0.13828,0.28801 0.17678,0.44194 0.0214,0.0857 -0.0214,0.17936 0,0.26516 0.0568,0.22728 0.56824,0.47985 0.70711,0.61872 0.0659,0.0659 0.0367,0.18767 0.0884,0.26517 0.45511,0.68267 1.41929,1.24853 2.03293,1.76776 1.1797,0.99822 0.0756,0.025 0.53033,0.70711 0.0164,0.0245 0.062,-0.0132 0.0884,0 0.1118,0.0559 0.16345,0.19247 0.26516,0.26517 0.1398,0.0999 0.30996,0.15518 0.44194,0.26516 0.22403,0.18668 0.41241,0.41239 0.61861,0.61859 0,0.397 0.0356,1.64375 -0.17677,1.85616 -0.27018,0.27018 -0.89484,0.41612 -1.23744,0.53033 -0.91931,0.30643 -1.74342,0.80846 -2.65165,1.14904 -0.64403,0.24151 -1.20567,0.48268 -1.59099,1.06066 -0.16092,0.24138 -0.24652,0.12084 -0.35356,0.44195 -0.0802,0.24061 -0.0437,0.88665 0,1.14904 0.10137,0.60821 0.39619,1.21144 0.61872,1.76777 0.0903,0.22571 0.10348,0.48734 0.17678,0.70711 0.0502,0.15052 0.11788,0.29463 0.17678,0.44194 0.0589,0.0884 0.13737,0.16656 0.17677,0.26516 0.0219,0.0547 -0.0263,0.12408 0,0.17678 0.0373,0.0745 0.13948,0.10228 0.17678,0.17678 0.0884,0.17676 -0.0442,0.13258 0,0.26516 0.0906,0.27172 0.37916,0.74015 0.61872,0.88389 0.0505,0.0303 0.12628,-0.0303 0.17678,0 0.10718,0.0643 0.16516,0.19016 0.26516,0.26516 0.31394,0.23546 0.70251,0.38707 1.06066,0.53033 0.49174,0.1967 1.33449,0.39762 1.76777,0.70711 0.20128,0.14377 0.8924,0.58091 1.06066,0.70711 0.16666,0.125 0.34874,0.2556 0.44194,0.44194 0.0395,0.079 -0.028,0.18136 0,0.26516 0.009,0.028 0.0639,-0.0163 0.0884,0 0.0693,0.0462 0.10747,0.13058 0.17677,0.17678 0.13202,0.088 0.45615,-0.40677 0.44195,0.17678 0.0693,0.0462 0.10227,0.13947 0.17677,0.17677 0.0527,0.0263 0.12408,-0.0264 0.17678,0 0.13176,0.0659 0.22863,0.18707 0.35355,0.26517 0.17486,0.10928 0.87857,0.41074 0.97227,0.44194 0.0559,0.0186 0.12208,-0.0219 0.17678,0 0.53386,0.21354 1.04357,0.61302 1.59099,0.79549 0.17002,0.0567 0.36191,0.0272 0.53033,0.0884 0.16145,0.0587 0.29036,0.18437 0.44194,0.26517 0.29065,0.15501 0.5848,0.3039 0.88389,0.44194 0.82006,0.37849 1.76932,0.48692 2.56326,0.88388 0.15366,0.0768 0.32046,0.14369 0.44194,0.26517 0.0208,0.0208 -0.0263,0.0752 0,0.0884 0.0527,0.0264 0.12408,-0.0264 0.17678,0 0.2522,0.1261 0.57484,0.56 0.79549,0.7071 0.99778,0.66519 1.76524,0.90851 2.56326,1.85616 0.59779,0.70987 0.19861,0.48559 0.44195,0.97227 0.0475,0.095 0.14317,0.16439 0.17677,0.26516 0.0382,0.11465 0.0654,0.94577 0.0884,1.06067 0.0238,0.11911 0.0589,0.2357 0.0884,0.35355 0.0295,0.0589 0.0724,0.11288 0.0884,0.17678 0.0463,0.18504 0.003,0.44839 0.0884,0.61871 0.0475,0.095 0.13727,0.16657 0.17677,0.26517 0.0219,0.0547 -0.0264,0.12408 0,0.17678 0.0373,0.0745 0.13948,0.10227 0.17678,0.17677 0.0314,0.0628 0.0427,0.39624 0.0884,0.44194 0.0659,0.0659 0.20696,0.0157 0.26516,0.0884 0.0759,0.0949 0.0433,0.24077 0.0884,0.35356 0.13107,0.32767 1.0284,0.97554 1.32583,1.14904 0.0854,0.0498 0.76362,0.33762 0.97227,0.44195 0.26777,0.13387 1.09035,0.11197 1.41421,0.17677 0.35736,0.0715 0.70211,0.19997 1.06066,0.26517 1.11071,0.20194 2.24358,0.24799 3.35876,0.44194 0.0649,0.0113 0.11248,0.0741 0.17678,0.0884 0.26044,0.0579 0.53666,0.0237 0.79549,0.0884 0.18078,0.0452 0.34876,0.13487 0.53033,0.17677 0.66301,0.15298 1.36282,0.12098 2.03293,0.17678 0.67474,0.0562 0.22091,0.0994 0.88389,0.26516 0.20211,0.0505 0.42107,0.0225 0.61872,0.0884 0.16298,0.0543 0.28554,0.19407 0.44194,0.26517 0.47734,0.21697 1.01688,0.25979 1.5026,0.44194 0.12337,0.0463 0.22855,0.13508 0.35355,0.17678 0.11935,0.0398 0.3328,0.0156 0.44194,0.0884 0.18779,0.1252 0.34228,0.31657 0.53033,0.44195 0.37927,0.25284 0.76687,0.55663 1.14905,0.79549 0.20143,0.1259 0.42869,0.21103 0.61872,0.35355 0.0527,0.0395 0.0378,0.13458 0.0884,0.17678 0.13198,0.10998 0.30633,0.15969 0.44194,0.26517 0.39509,0.30728 0.42091,0.61453 0.70711,0.97227 0.0412,0.0515 0.12537,0.0472 0.17677,0.0884 0.0976,0.0781 0.18517,0.16916 0.26517,0.26516 0.15742,0.1889 0.28452,0.42982 0.44194,0.61872 0.0491,0.0589 0.26145,0.30755 0.35355,0.35355 0.0264,0.0132 0.0676,-0.0208 0.0884,0 0.0625,0.0625 -0.0552,0.19617 0,0.26517 0.092,0.11503 0.24939,0.161 0.35356,0.26516 0.28222,0.28223 0.48321,0.72245 0.79549,0.97228 0.31292,0.25033 0.67276,0.44087 0.97227,0.7071 0.1588,0.14115 0.20333,0.3801 0.35356,0.53033 0.0919,0.0919 0.19896,4.2e-4 0.26516,0.26517 0.0214,0.0857 -0.0395,0.18616 0,0.26516 0.20228,0.40452 -0.0366,-0.37507 0.17678,0.26517 0.009,0.028 -0.0208,0.0676 0,0.0884 0.0409,0.0408 0.21176,-0.0267 0.26516,0 0.27312,0.13655 0.61447,0.28029 0.88389,0.44194 0.11065,0.0664 0.83668,0.50933 0.88388,0.53033 0.24822,0.11027 0.5378,0.0909 0.7955,0.17677 0.57861,0.19288 1.16253,0.42946 1.76776,0.53033 0.60867,0.10145 1.24834,0.13492 1.85616,0.26517 0.23756,0.0509 0.46745,0.13678 0.7071,0.17678 0.85349,0.1423 -0.25036,-0.23567 0.88389,0.0884 0.0802,0.0229 0.096,0.15658 0.17677,0.17678 0.24014,0.06 0.58465,0.008 0.7955,0.17678 0.64336,0.51468 1.39052,0.95196 2.03293,1.5026 0.0949,0.0814 0.18707,0.16756 0.26517,0.26516 0.0412,0.0514 0.0357,0.13728 0.0884,0.17678 0.0745,0.0559 0.19066,0.0325 0.26516,0.0884 0.0527,0.0395 0.0519,0.12198 0.0884,0.17678 0.27116,0.40672 -0.16419,-0.35992 0.26516,0.17677 0.27717,0.34646 0.4146,0.85703 0.61848,1.23717 0,0.18946 0.0815,0.63257 0,0.7955 -0.12076,0.24152 -0.46848,0.39336 -0.61872,0.61871 -0.0163,0.0245 0.0208,0.0676 0,0.0884 -0.0684,0.0684 -0.34274,0.0388 -0.44194,0.0884 -0.40339,0.2017 -1.00361,0.54174 -1.5026,0.44194 -0.0409,-0.008 -0.0511,-0.0698 -0.0884,-0.0884 -0.0707,-0.0354 -0.19446,0.0354 -0.26516,0 -0.28743,-0.14367 -0.62648,-0.17677 -0.97228,-0.17677 -0.49482,0 -0.93591,0.007 -1.41421,-0.0884 -0.22492,-0.045 -0.48175,0.0376 -0.70711,0 -0.065,-0.0108 -0.11177,-0.0776 -0.17677,-0.0884 -0.17437,-0.0291 -0.37222,0.0791 -0.53033,0 -0.0745,-0.0373 -0.0994,-0.14578 -0.17678,-0.17678 -0.13713,-0.0548 -1.96073,-0.0361 -2.03293,0 -0.18969,0.0948 -0.004,0.0965 -0.0884,0.26517 -0.0132,0.0264 -0.0676,-0.0208 -0.0884,0 -0.19687,0.19691 -0.0914,0.35955 -0.17677,0.53033 -0.0475,0.095 -0.12928,0.17016 -0.17678,0.26516 -0.0587,0.11745 0.0326,0.31155 0,0.44195 -0.13535,0.54139 -0.17556,1.24109 0,1.76776 0.0167,0.05 -0.0355,0.22967 0,0.26517 0.0208,0.0208 0.0752,-0.0263 0.0884,0 0.0543,0.10865 -0.0871,0.27385 0.0884,0.35355 0.15838,0.23758 0.48006,0.52547 0.7071,0.70711 0.14732,0.11785 0.27321,0.26915 0.44194,0.35355 0.0527,0.0263 0.12628,-0.0303 0.17678,0 0.10719,0.0643 0.16917,0.18517 0.26517,0.26517 0.23492,0.19576 0.34364,0.19637 0.61871,0.35355 1.01214,0.57837 -0.56653,-0.2893 0.53033,0.44194 0.53475,0.35652 0.0354,-0.12814 0.44195,0.17678 0.0667,0.05 0.10447,0.13547 0.17677,0.17677 0.86031,0.49161 1.99279,0.86783 2.91682,1.23744 0.70532,0.28213 1.48228,0.67605 2.20971,0.88389 0.0567,0.0162 0.12257,-0.0232 0.17677,0 0.62274,0.26688 1.16333,0.75844 1.76777,1.06066 0.0833,0.0417 0.18527,0.0405 0.26517,0.0884 0.32955,0.19774 0.64228,0.50912 0.97227,0.70711 0.0799,0.048 0.18766,0.0367 0.26516,0.0884 0.0245,0.0164 -0.0132,0.062 0,0.0884 0.0371,0.0742 0.38644,0.32575 0.44194,0.35355 0.0527,0.0264 0.12628,-0.0303 0.17678,0 0.27108,0.16265 0.42492,0.56601 0.70711,0.70711 0.21082,0.10541 0.4714,0 0.7071,0 0.51908,0 0.91874,-0.067 1.41422,-0.26517 0.17647,-0.0706 0.26145,-0.20496 0.44194,-0.26516 0.0559,-0.0186 0.12408,0.0264 0.17678,0 0.10606,-0.053 0.1591,-0.21217 0.26516,-0.26517 0.0527,-0.0264 0.12408,0.0263 0.17678,0 0.29392,-0.14696 0.57431,-0.53655 0.97227,-0.7071 0.21915,-0.0939 0.5068,0.0216 0.70711,0.0884 0.13258,0.0442 0.30936,-0.0442 0.44194,0 0.0395,0.0132 0.0511,0.0698 0.0884,0.0884 0.25,0.125 0.54007,0.15165 0.79549,0.26517 0.27097,0.12043 0.52312,0.32521 0.7955,0.44194 0.3042,0.13037 0.99882,0.36024 1.32582,0.44194 0.17387,0.0435 0.36394,0.0218 0.53033,0.0884 0.13678,0.0547 0.21779,0.20796 0.35356,0.26516 0.42934,0.18078 0.88388,0.29463 1.32582,0.44195 0.14732,0.0884 0.28495,0.19536 0.44194,0.26516 0.60093,0.26708 0.14539,-0.0542 0.53033,0.17678 0.38108,0.22864 0.75158,0.50837 1.14905,0.7071 0.0833,0.0417 0.19067,0.0325 0.26517,0.0884 0.11785,0.0884 0.0517,0.33626 0.26516,0.35356 0.20624,0.14731 0.40784,0.30135 0.61872,0.44194 0.0245,0.0163 0.0676,-0.0208 0.0884,0 0.16471,0.16471 0.49755,0.80308 0.61872,0.88388 0.049,0.0327 0.12407,-0.0264 0.17677,0 0.0264,0.0132 -0.006,0.0595 0,0.0884 0.0238,0.11912 0.0457,0.23981 0.0884,0.35355 0.1103,0.29414 0.36232,0.6032 0.61872,0.7955 0.14719,0.11039 0.40078,0.13562 0.53033,0.26516 0.27517,0.27517 -0.12767,0.10803 0.26517,0.26517 0.11279,0.0451 0.2449,0.0341 0.35355,0.0884 0.0745,0.0373 0.0977,0.15037 0.17678,0.17677 0.0559,0.0186 0.12407,-0.0264 0.17677,0 0.0263,0.0132 -0.0208,0.0676 0,0.0884 0.18252,0.18252 0.50659,0.27484 0.70711,0.44194 0.28399,0.23666 0.51755,0.46887 0.79549,0.70711 0.11185,0.0959 0.23571,0.17676 0.35356,0.26516 0.0589,0.0295 0.12617,0.0462 0.17677,0.0884 0.53678,0.44731 0.49632,0.67467 1.06066,1.32583 0.26692,0.30798 0.64551,0.56209 0.97228,0.79549 0.16418,0.11728 0.22597,0.31437 0.35355,0.44195 0.24479,0.24478 0.85064,0.5579 1.14905,0.7071 0.50198,0.251 0.90344,0.62029 1.32582,0.97227 0.16322,0.13602 0.3801,0.20333 0.53033,0.35356 0.15023,0.15023 0.22608,0.36036 0.35356,0.53033 0.20933,0.27911 0.59851,0.35608 0.79549,0.61872 0.50673,0.67563 1.05876,1.27146 1.76777,1.76776 0.18851,0.13196 0.32451,0.33904 0.53033,0.44194 0.58704,0.29353 2.74863,0.21043 3.35876,0.0884 0.19267,-0.0385 0.0157,-0.19246 0.0884,-0.26516 0.0209,-0.0208 0.0676,0.0208 0.0884,0 0.28029,-0.28029 0.44096,-0.70662 0.7955,-0.88389 0.0905,-0.0453 0.79318,-0.0605 0.88388,0 0.12257,0.0817 0.24939,0.161 0.35355,0.26517 0.0751,0.0751 0.10768,0.18456 0.17678,0.26516 0.2974,0.34697 0.67487,0.62531 0.97227,0.97228 0.20574,0.24002 0.32219,0.55762 0.53033,0.79549 0.50591,0.57819 0.77952,0.88812 1.06066,1.59099 0.0547,0.13678 0.21857,0.2138 0.26517,0.35356 0.0751,0.22534 0.0133,0.48175 0.0884,0.7071 0.15495,0.46488 0.43603,0.94281 0.53033,1.41422 0.0173,0.0867 -0.0145,0.17796 0,0.26516 0.0377,0.22613 0.17736,0.41381 0.26516,0.61872 0.12768,0.29793 0.0647,0.28232 0.17678,0.61872 0.17656,0.52975 -0.0226,-0.22201 0.26516,0.35355 0.23572,0.47144 -0.3913,-0.19766 0.0884,0.44194 0.0395,0.0527 0.13018,0.0418 0.17678,0.0884 0.15493,0.15494 0.22062,0.44147 0.35355,0.61872 0.0494,0.0659 0.32286,0.49963 0.35356,0.53033 0.0209,0.0208 0.0676,-0.0208 0.0884,0 0.0658,0.0658 0.12688,0.30365 0.17678,0.35355 0.0568,0.0568 0.29675,0.20837 0.35355,0.26517 0.29647,0.29643 0.17967,0.35937 0.26517,0.53033 0.0132,0.0263 0.0676,-0.0208 0.0884,0 0.0466,0.0466 0.0418,0.13017 0.0884,0.17677 0.0209,0.0208 0.0589,0 0.0884,0 0.0884,0.11786 0.17677,0.23571 0.26517,0.35356 0.16929,0.25394 0.35002,0.46669 0.53033,0.7071 0.51771,0.69028 -0.56381,-0.55282 0.26516,0.44195 0.08,0.096 0.19247,0.16344 0.26517,0.26516 0.0766,0.10722 0.0924,0.25233 0.17678,0.35355 0.19344,0.23214 0.34165,0.2061 0.53033,0.44195 0.0582,0.0727 0.0271,0.19506 0.0884,0.26516 0.15153,0.17318 0.35356,0.29463 0.53033,0.44194 0.0589,0.0295 0.13018,0.0418 0.17678,0.0884 0.0751,0.0751 0.0939,0.19877 0.17678,0.26517 0.0728,0.0582 0.19926,0.0225 0.26516,0.0884 0.0659,0.0659 0.0225,0.19926 0.0884,0.26516 0.19873,0.19872 0.59596,0.24241 0.7955,0.44194 0.0466,0.0466 0.0336,0.14028 0.0884,0.17678 0.049,0.0327 0.12088,-0.0186 0.17678,0 0.0539,0.018 0.21127,0.15878 0.26517,0.17678 0.11524,0.0384 0.24189,0.0405 0.35355,0.0884 0.0687,0.0294 0.65581,0.30226 0.70711,0.35356 0.0466,0.0466 0.0336,0.14027 0.0884,0.17677 0.0773,0.0515 0.34304,0.0389 0.44194,0.0884 0.22456,0.11228 -0.0905,0.10568 0.26516,0.17678 0.25458,0.0509 0.5528,0.0381 0.7955,0.17678 0.10853,0.062 0.16116,0.19586 0.26516,0.26516 0.15041,0.10028 0.29154,0.0765 0.44194,0.17678 0.12258,0.0817 0.2218,0.19926 0.35356,0.26516 0.0527,0.0263 0.12527,-0.0286 0.17677,0 0.22156,0.12309 0.40139,0.31155 0.61872,0.44194 0.30527,0.18316 0.77551,0.0144 0.97227,0.44195 0.025,0.0156 -0.0253,0.0732 0,0.0884 0.13606,0.0817 0.30325,0.0998 0.44195,0.17678 0.12877,0.0715 0.22564,0.19207 0.35355,0.26517 0.2739,0.15651 0.75275,0.13403 0.97227,0.35355 0.0208,0.0208 -0.0208,0.0676 0,0.0884 0.0466,0.0466 0.11788,0.0589 0.17678,0.0884 0.0295,0 0.0639,-0.0163 0.0884,0 0.28491,0.18994 0.49285,0.58124 0.7071,0.79549 0.0209,0.0208 0.0676,-0.0208 0.0884,0 0.0494,0.0494 0.12915,0.26285 0.26517,0.35355 0.0548,0.0366 0.11787,0.0589 0.17677,0.0884 0.17678,0.11785 0.35356,0.23571 0.53033,0.35356 0.0667,0.05 0.10528,0.13387 0.17678,0.17677 0.7187,0.43122 -0.0947,-0.18096 0.44194,0.17678 0.19547,0.13031 0.3401,0.29927 0.53033,0.44194 0.0236,0.0177 0.0676,-0.0208 0.0884,0 0.0208,0.0208 -0.0208,0.0676 0,0.0884 0.0466,0.0466 0.13018,0.0418 0.17678,0.0884 0.3093,0.30931 0.17677,2.8375 0.17677,3.44714 v 1.50261 0.35355 c 0,0.65377 -0.26514,-1.30574 -0.0164,0.28093 0.85779,-0.0862 1.80647,0.18018 2.37374,-0.0467 0.42499,-0.17 0.83617,-0.4576 1.25,-0.6875 0.12217,-0.0679 0.2632,-0.10365 0.375,-0.1875 0.0601,-0.0451 0.0719,-0.13439 0.125,-0.1875 0.15377,-0.15378 0.89494,-0.67496 1,-0.75 0.28272,-0.20194 0.60831,-0.33391 0.875,-0.5625 0.21657,-0.18563 0.39247,-0.45891 0.625,-0.625 0.33275,-0.23768 0.78053,-0.34721 1.125,-0.5625 0.0177,-0.011 -0.0147,-0.0478 0,-0.0625 0.077,-0.077 0.46096,-0.43231 0.5625,-0.5 0.21397,-0.14265 0.64986,-0.0625 0.875,-0.0625 0.14583,0 0.31245,-0.075 0.4375,0 0.22934,-0.0149 0.14328,0.23246 0.25,0.3125 0.17488,0.13116 0.44405,0.12936 0.625,0.25 0.18135,0.1209 0.32073,0.32546 0.5,0.4375 0.11851,0.0741 0.26587,0.1002 0.375,0.1875 0.12706,0.10165 0.17711,0.28474 0.3125,0.375 0.16118,0.10745 0.1795,0.0102 0.3125,0.1875 0.0777,0.10366 0.11441,0.28364 0.1875,0.375 0.0469,0.0587 0.13803,0.0685 0.1875,0.125 0.25138,0.28729 0.41781,0.62672 0.625,0.9375 0.11117,0.16675 0.31221,0.28089 0.4375,0.4375 0.0291,0.0364 0.0296,0.0921 0.0625,0.125 0.13773,0.13773 0.35037,0.18781 0.5,0.3125 0.16501,0.13751 0.18324,0.24574 0.3125,0.375 0.11965,0.11965 0.35826,0.26869 0.5,0.375 0.13752,0.10314 0.20073,0.26323 0.3125,0.375 0.0329,0.0329 0.0886,0.0334 0.125,0.0625 0.2987,0.23896 0.35334,0.27042 0.6875,0.4375 0.11667,0.0583 0.20434,0.17789 0.3125,0.25 0.0693,0.0462 0.16915,-0.0202 0.25,0 0.0729,0.0182 0.11624,0.10125 0.1875,0.125 0.31027,0.10342 0.6171,0.17606 0.9375,0.25 0.1674,0.0386 0.33545,0.0756 0.5,0.125 0.0892,0.0268 0.15777,0.11182 0.25,0.125 0.40873,0.0584 1.37668,0.11698 1.8125,0.0625 0.36396,-0.0455 0.0331,-0.0478 0.3125,-0.1875 0.0373,-0.0186 0.0841,0.008 0.125,0 0.0784,-0.0157 0.44027,-0.16095 0.5,-0.1875 0.29737,-0.13217 0.5278,-0.35765 0.8125,-0.5 0.0186,-0.009 0.0417,0 0.0625,0 0.0625,-0.0417 0.12741,-0.0799 0.1875,-0.125 0.0905,-0.0679 0.24519,-0.25 0.25,-0.15625 -0.0625,-1.06668 0.2657,-0.81263 0.68751,-1.65625 0.2084,-0.4169 -0.003,-0.99474 0.25,-1.5 0.10541,-0.21082 0.4255,-0.27639 0.5,-0.5 0.1972,-0.5916 0.0328,-1.42072 0.25,-2 0.17061,-0.45497 0.53269,-0.81538 0.75,-1.25 0.0896,-0.17914 -0.11859,-0.59188 0,-0.75 0.21213,-0.28284 0.55388,-0.45582 0.75,-0.75 0.0981,-0.14713 1.1522,-2.20677 1.25,-2.5 0.0527,-0.15811 -0.0745,-0.35093 0,-0.5 0.15811,-0.31623 0.61869,-0.42173 0.75,-0.75 0.1276,-0.31901 0.11465,-0.68419 0.25,-1 0.11835,-0.27617 0.3945,-0.46867 0.5,-0.75 0.14919,-0.39786 0.0922,-0.85547 0.25,-1.25 0.031,-0.0774 0.2236,0.0791 0.25,0 0.37374,-1.12122 -0.21832,-6.62327 -0.5,-7.75 -0.0286,-0.11433 -0.1973,-0.14459 -0.25,-0.25 -0.7221,-1.4442 -0.88588,-1.2269 -2.25,-2.25 -0.76167,-0.57125 -1.52104,-1.39253 -2.25,-2 -1.42989,-1.19157 -2.23701,-2.98051 -3.25,-4.5 -0.22811,-0.34216 -0.30947,-0.96419 -0.5,-1.25 -0.13075,-0.19611 -0.36926,-0.30388 -0.5,-0.5 -0.7645,-1.14674 -1.05711,-2.67132 -1.5,-4 -0.21186,-0.63558 -0.72948,-0.95896 -1,-1.5 -0.0745,-0.14907 0.0745,-0.35093 0,-0.5 -0.10541,-0.21082 -0.36926,-0.30388 -0.5,-0.5 -0.1995,-0.29921 0.0608,-0.58559 -0.25,-1 -0.9523,-1.26973 -1.84525,-2.64287 -2.75,-4 -0.0654,-0.0981 -0.1667,-0.1667 -0.25,-0.25 -0.0833,0 -0.1911,0.0589 -0.25,0 -1.18014,-1.18013 0.0633,-0.28001 -0.75,-1.5 -0.0462,-0.0693 -0.2127,0.0745 -0.25,0 -0.30212,-0.60422 -0.37294,-1.6844 -0.75,-2.25 -0.13075,-0.19611 -0.39459,-0.28918 -0.5,-0.5 -0.1537,-0.30732 -0.1224,-0.68098 -0.25,-1 -0.12851,-0.32126 -0.55886,-0.71329 -0.75,-1 -0.24893,-0.37339 -0.23075,-0.89099 -0.5,-1.25 -0.11181,-0.14907 -0.33334,-0.1667 -0.5,-0.25 -0.0833,0 -0.1911,0.0589 -0.25,0 -0.07,-0.07 0.25687,-1.3669 -0.5,-0.75 -0.14908,-0.0745 -0.35709,0.0857 -0.5,0 -0.30317,-0.1819 -0.46716,-0.53787 -0.75,-0.75 -0.19727,-0.14795 -0.84155,-0.34155 -1,-0.5 -0.53051,-0.53051 -0.71949,-1.46949 -1.25,-2 -0.5173,-0.51726 0.0202,0.79044 -0.5,-0.25 -0.0373,-0.0745 0,-0.1667 0,-0.25 -0.0833,-0.16666 -0.1667,-0.33333 -0.25,-0.5 -0.45993,-0.61323 -0.88292,-0.76583 -1.25,-1.5 -0.11786,-0.2357 -0.10383,-0.53073 -0.25,-0.75 -0.1609,-0.241 -1.09548,-0.1882 -1.25,-0.25 -0.21885,-0.0875 -0.28919,-0.39459 -0.5,-0.5 -0.14908,-0.0745 -0.33561,0.0274 -0.5,0 -0.33892,-0.0565 -0.66459,-0.1755 -1,-0.25 -1.54787,-0.344 -7.48667,0.007 -8,-0.25 -0.60093,-0.30046 -1.1996,-0.61471 -1.75,-1 -0.38619,-0.27033 -0.64209,-0.69321 -1,-1 -1.99258,-1.70792 -2.85141,-3.40561 -3.5,-6 -0.0808,-0.32338 0.0548,-0.6712 0,-1 -0.13703,-0.82212 -0.4175,-1.6751 -0.5,-2.5 -0.0829,-0.8292 0.30949,-1.72627 0,-2.5 -0.20637,-0.51591 -0.97565,-2.72564 -1.25,-3 -0.0589,-0.0589 -0.1911,0.0589 -0.25,0 -0.51726,-0.5173 0.79044,0.0202 -0.25,-0.5 -0.3878,-0.19389 -1.16632,-0.49973 -1.5,-0.75 -0.14908,-0.1118 -0.0833,-0.4167 -0.25,-0.5 -0.22361,-0.1118 -0.51283,0.0791 -0.75,0 -0.0791,-0.0264 0.0589,-0.1911 0,-0.25 -0.29463,-0.29463 -0.65332,-0.51887 -1,-0.75 -0.53101,-0.35401 -1.26434,-0.59528 -1.75,-1 -0.36215,-0.30178 -0.61641,-0.726 -1,-1 -0.21444,-0.1532 -0.5143,-0.13215 -0.75,-0.25 -0.53959,-0.26979 -0.97723,-0.98861 -1.5,-1.25 -0.14908,-0.0745 -0.34681,0.0657 -0.5,0 -0.44663,-0.19141 -0.83334,-0.5 -1.25,-0.75 0,-0.0833 0.0728,-0.2095 0,-0.25 -2.28972,-1.27206 -1.65308,-0.48981 -3,-1.5 -0.24037,-0.18028 -0.53755,-0.28754 -0.75,-0.5 -0.0589,-0.0589 0.0589,-0.1911 0,-0.25 -0.93788,-0.93788 -0.4609,-0.15817 -1.25,-0.75 -0.33334,-0.25 -0.40332,-0.76887 -0.75,-1 -0.13868,-0.0925 -0.35093,0.0745 -0.5,0 -0.1667,-0.0833 0.29462,-0.5934 -0.25,-0.5 -0.15812,-0.0527 -0.34189,0.0527 -0.5,0 -0.4062,-0.1354 -0.4941,-0.62352 -1,-0.75 -0.49177,-0.12294 -1.06363,0.29387 -1.5,-0.25 -0.525,-0.175 -0.975,-0.575 -1.5,-0.75 -0.75,-0.25 -1.75,0.25 -2.5,0 -0.11181,-0.0373 -0.1382,-0.2127 -0.25,-0.25 -0.50969,-0.1699 -1.24032,-0.0801 -1.75,-0.25 -0.46749,-0.15583 -1.15832,-0.55277 -1.75,-0.75 -0.27942,-0.0931 -2.12073,-1.30608 -2.25,-1.5 -0.0924,-0.13867 0.11785,-0.38215 0,-0.5 -0.11786,-0.11785 -0.34189,0.0527 -0.5,0 -0.46464,-0.15488 -0.84139,-0.97759 -1.25,-1.25 -0.0693,-0.0462 -0.1807,0.0462 -0.25,0 -0.64755,-0.4317 -1.05684,-1.40341 -1.75,-1.75 -0.0745,-0.0373 -0.1911,0.0589 -0.25,0 -0.13177,-0.13176 -0.11824,-0.36824 -0.25,-0.5 -0.0461,-0.0461 -0.7039,-0.2039 -0.75,-0.25 -0.0589,-0.0589 0.0693,-0.2038 0,-0.25 -0.8571,-0.5714 -1.66451,-0.4145 -2.5,-1.25 -0.1863,-0.18634 -0.0919,-0.53918 -0.25,-0.75 -0.11181,-0.14907 -0.35093,-0.1382 -0.5,-0.25 -0.55855,-0.41891 -1.32293,-1.18057 -1.75,-1.75 -0.75778,-1.01036 -0.0396,-0.11875 -0.25,-0.75 -0.19787,-0.59359 -0.59554,-0.88215 -0.75,-1.5 -0.27286,-1.09141 0.15158,-0.14366 0,-0.75 -0.24842,-0.99366 -0.50738,-2.02949 -0.75,-3 -0.0904,-0.36155 -0.4096,-0.63845 -0.5,-1 -0.0606,-0.24253 0.0791,-0.51283 0,-0.75 -0.21324,-0.6397 -0.64152,-0.71227 -1,-1.25 -0.9906,-1.48589 -1.93355,-2.32515 -3.5,-3.5 -0.76579,-0.57434 0.4099,0.15991 -0.5,-0.75 -0.35337,-0.35336 -1.35785,-0.80392 -1.75,-1 -0.48429,-0.24214 -0.81545,-0.53272 -1.25,-0.75 -0.80789,-0.40394 -2.34395,0.12944 -3.25,0 -0.34014,-0.0486 -0.66667,-0.1667 -1,-0.25 -0.33334,0 -0.67002,0.0471 -1,0 -0.7794,-0.11134 -0.97856,-0.59571 -1.75,-0.75 -0.16344,-0.0327 -0.34189,0.0527 -0.5,0 -0.49573,-0.16524 -0.78087,-1.01543 -1.25,-1.25 -0.0745,-0.0373 -0.1911,0.0589 -0.25,0 -0.0589,-0.0589 0.0309,-0.1726 0,-0.25 -0.13841,-0.34602 -0.26719,-0.70899 -0.5,-1 -0.11641,-0.1455 -0.3882,-0.10093 -0.5,-0.25 -0.1581,-0.21082 -0.11442,-0.52403 -0.25,-0.75 -0.1075,-0.17915 -1.64928,-1.89927 -1.75001,-2 -0.0589,-0.0589 -0.1833,0.05 -0.25,0 -2.02047,-1.51536 0.44332,-0.084 -1.5,-1.25 -0.6473,-0.38838 -1.39946,-0.59964 -2,-1 -0.098,-0.0654 -0.13566,-0.2214 -0.25,-0.25 -0.24253,-0.0606 -0.50746,0.0606 -0.75,0 -0.34299,-0.0857 -0.45582,-0.55388 -0.75,-0.75 -0.35695,-0.23797 -1.0895,-0.1716 -1.5,-0.5 -0.27607,-0.22086 -0.46715,-0.53787 -0.75,-0.75 -0.19726,-0.14795 -0.84155,-0.34155 -1,-0.5 -0.42491,-0.42492 -0.57508,-1.07508 -1,-1.5 -0.0589,-0.0589 -0.1911,0.0589 -0.25,0 -0.16339,-0.16339 -0.6799,-1.28963 -0.75,-1.5 -0.0527,-0.15811 0.0745,-0.35093 0,-0.5 -0.0373,-0.0745 -0.2127,0.0745 -0.25,0 -0.0745,-0.14907 0.0404,-0.33831 0,-0.5 -0.18442,-0.73768 -0.61408,-1.18451 -0.75,-2 -0.208,-1.2483 0.29921,-2.65159 -0.25,-3.75 -0.33686,-0.67372 0.24149,-1.77555 0,-2.5 -0.0391,-0.11723 -0.9744,-1.9744 -1,-2 -0.13176,-0.13176 -0.39663,-0.095 -0.5,-0.25 -0.0924,-0.13867 0.0745,-0.35093 0,-0.5 -0.0314,-0.0628 -1.4324,-0.39867 -1.5,-0.5 -0.14617,-0.21926 -0.0919,-0.53918 -0.25,-0.75 -0.34951,-0.46601 -1.51266,-0.8845 -2,-1.25 -0.77974,-0.58481 0.67555,-0.0372 -1.25,-1 -0.60924,-0.3046 -1.35113,-0.0337 -2,-0.25 -1.81085,-0.60362 0.39416,0.0721 -0.75,-0.5 -0.2236,-0.1118 -0.51282,0.0791 -0.75,0 -0.32071,-0.1069 -0.67928,-0.3931 -1,-0.5 -0.37202,-0.12401 -0.90472,-0.0774 -1.25,-0.25 -0.64112,-0.32056 -1.64615,-1.41026 -2,-2 -0.0857,-0.14291 0.0527,-0.34188 0,-0.5 -0.14074,-0.42223 -0.64249,-0.46246 -0.75,-1 -0.1144,-0.572 0.15254,-1.18177 -0.17893,-2.25379 -0.51839,-0.50379 -15.11804,-0.28921 -15.44607,-0.37121 -0.33028,-0.0826 -0.47961,-0.2398 -0.75,-0.375 -0.0373,-0.0186 -0.0955,0.0295 -0.125,0 -0.0659,-0.0659 -0.0591,-0.1841 -0.125,-0.25 -0.0295,-0.0295 -0.0903,0.0231 -0.125,0 -0.16302,-0.10868 -0.6649,-0.63656 -0.75,-0.75 -0.025,-0.0333 0.0214,-0.0893 0,-0.125 -0.10719,-0.17864 -0.27164,-0.31912 -0.375,-0.5 -0.19634,-0.34359 -0.2967,-0.78616 -0.5,-1.125 -0.0606,-0.10106 -0.1973,-0.14459 -0.25,-0.25 -0.0373,-0.0745 0.0263,-0.1709 0,-0.25 -0.0589,-0.17678 -0.1667,-0.33333 -0.25,-0.5 -0.0417,-0.0417 -0.1031,-0.0703 -0.125,-0.125 -0.0638,-0.15951 -0.0398,-0.35084 -0.125,-0.5 -0.17468,-0.30569 -0.55914,-0.56962 -0.75,-0.875 -0.27097,-0.43355 -0.41606,-0.97428 -0.75,-1.375 -0.0597,-0.0716 -0.1841,-0.0591 -0.25,-0.125 -0.0295,-0.0295 0.0186,-0.0877 0,-0.125 -0.0791,-0.15811 -0.284,-0.22342 -0.375,-0.375 -0.0678,-0.11298 -0.0519,-0.26537 -0.125,-0.375 -0.0231,-0.0347 -0.0955,0.0295 -0.125,0 -0.14374,-0.14374 -0.1524,-0.47855 -0.25,-0.625 -0.0231,-0.0347 -0.0955,0.0295 -0.125,0 -0.53852,-0.53852 -0.57526,-0.95026 -0.875,-1.25 -0.18906,-0.18906 -0.58191,-0.37287 -0.75,-0.625 -0.0231,-0.0347 0.0295,-0.0955 0,-0.125 -0.023,-0.023 -0.352,-0.102 -0.375,-0.125 -0.0659,-0.0659 -0.0591,-0.1841 -0.125,-0.25 -0.10623,-0.10623 -0.26877,-0.14377 -0.375,-0.25 -0.0295,-0.0295 0.0347,-0.1019 0,-0.125 -0.39283,-0.26188 -0.85939,-0.31251 -1.25,-0.625 -0.59519,-0.47616 -1.2098,-0.72588 -1.875,-1.125 -0.17829,-0.10697 -0.4107,-0.3036 -0.625,-0.375 -1.16828,-0.38943 0.30232,0.33866 -1.625,-0.625 -0.48709,-0.24355 -0.89222,-0.63361 -1.375,-0.875 -0.11785,-0.0589 -0.25,-0.0833 -0.375,-0.125 -0.0833,0 -0.1755,0.0373 -0.25,0 -0.18634,-0.0932 -0.30962,-0.2904 -0.5,-0.375 -0.67959,-0.30204 -1.64477,-0.125 -2.375,-0.125 -2.50827,0 -5.03591,-0.18117 -7.5,0.375"
         id="path217" />
    </g>
  </g>
</svg>
