<?xml version="1.0" encoding="UTF-8" standalone="no"?>
<!-- Created with Inkscape (http://www.inkscape.org/) -->

<svg
   version="1.1"
   id="svg1"
   width="147.12241"
   height="148.97855"
   viewBox="0 0 147.12241 148.97855"
   xmlns="http://www.w3.org/2000/svg"
   xmlns:svg="http://www.w3.org/2000/svg">
  <defs
     id="defs1" />
  <g
     id="layer1"
     style="display:inline"
     transform="translate(-1152.3631,-313.77863)">
    <g
       id="layer29"
       style="display:inline;fill:#ffffff;fill-opacity:1;stroke:none">
      <path
         style="fill:#ffffff;fill-opacity:1;stroke:none;stroke-width:1;stroke-linecap:round;stroke-dasharray:none;stroke-opacity:1"
         d="m 1183.078,329.42336 12.3744,-7.24784 4.0658,0.26516 10.3415,-3.09359 9.8111,-5.56846 42.9567,2.74004 10.0763,3.71231 6.5407,5.65685 20.241,1.41421 -0.1768,132.84769 -12.1092,0.97227 -12.1092,-1.67938 -11.5347,-4.28683 -11.0486,-5.70105 -9.8111,-0.22097 -7.292,2.74003 -3.9333,3.44715 -7.0269,2.87262 -22.3622,4.46361 -2.4307,-15.73312 -3.0494,-8.66206 -3.7123,-3.0052 -1.2374,-5.78944 5.4359,-7.6014 1.2816,-9.28077 -6.5407,-8.88303 -3.4472,-1.5468 -2.6516,-4.24264 -3.0052,-1.90035 -2.4749,-3.40295 1.5468,-5.70105 0.1326,-6.14299 -7.6898,-7.68979 -4.994,-3.27036 -3.6681,-0.44195 -3.8449,-3.62392 -2.5632,-3.31456 -3.0494,-3.09359 -3.7565,-4.99394 5.8778,-6.58494 14.6283,-4.37522 6.3197,-2.91681 3.4914,-5.74525 z"
         id="path26" />
    </g>
  </g>
</svg>
