<?xml version="1.0" encoding="UTF-8" standalone="no"?>
<!-- Created with Inkscape (http://www.inkscape.org/) -->

<svg
   version="1.1"
   id="svg2"
   width="147.3125"
   height="149.39311"
   viewBox="0 0 147.3125 149.39311"
   xmlns="http://www.w3.org/2000/svg"
   xmlns:svg="http://www.w3.org/2000/svg">
  <defs
     id="defs6">
    <linearGradient
       id="swatch77">
      <stop
         style="stop-color:#e2c69e;stop-opacity:1;"
         offset="0"
         id="stop77" />
    </linearGradient>
  </defs>
  <g
     id="layer66"
     style="display:inline"
     transform="translate(-1152.125,-313.11998)">
    <g
       id="layer53"
       style="display:inline">
      <path
         style="display:inline;fill:#969696;fill-opacity:1;stroke:none;stroke-width:1;stroke-dasharray:none;stroke-opacity:1"
         d="m 1154.5,350.75 c 0.1118,-0.14907 0.1182,-0.36824 0.25,-0.5 0.059,-0.0589 0.1911,0.0589 0.25,0 0.2635,-0.26353 0.2365,-0.73648 0.5,-1 0.1318,-0.13176 0.3966,-0.095 0.5,-0.25 0.092,-0.13868 -0.053,-0.34189 0,-0.5 0.1218,-0.36556 1.6444,-1.57221 2,-1.75 0.5154,-0.2577 1.5926,0.0216 2,-0.25 0.1961,-0.13075 0.2892,-0.39459 0.5,-0.5 0.3948,-0.19743 1.0783,0.14055 1.5,0 0.1118,-0.0373 0.1667,-0.16667 0.25,-0.25 0.25,-0.0833 0.4916,-0.19832 0.75,-0.25 0.6622,-0.13244 1.3326,-0.11653 2,-0.25 0.502,0.0574 0.8146,-0.39116 1.25,-0.5 0.784,-0.19602 1.7111,-0.0922 2.5,-0.25 0.4294,-0.0859 0.6554,-0.38513 1,-0.5 0.3953,-0.13176 0.839,0.0685 1.25,0 0.9279,-0.15465 1.418,-0.97267 2.25,-1.25 0.1581,-0.0527 0.3419,0.0527 0.5,0 0.2236,-0.0745 0.2892,-0.39459 0.5,-0.5 0.177,-0.76227 0.6927,-0.0963 1,-0.25 0.1866,-0.0933 0.918,-0.418 1,-0.5 0.059,-0.0589 -0.074,-0.21274 0,-0.25 0.213,-0.10649 0.8081,-0.0581 1,-0.25 0.059,-0.0589 0,-0.16667 0,-0.25 0.1667,-0.16667 0.3039,-0.36926 0.5,-0.5 0.1387,-0.0924 0.3613,0.0924 0.5,0 0.4431,-0.29544 0.7992,-0.69948 1.25,-1 0.5329,-0.3553 0.4236,-0.76037 0.75,-1.25 0.5123,-0.7685 1.4452,-1.26032 2,-2 0.1873,-0.24978 1.212,-1.38606 1.25,-1.5 0.198,-0.5941 -0.296,-0.45406 0.25,-1 0.1318,-0.13176 0.3966,-0.095 0.5,-0.25 0.092,-0.13868 -0.053,-0.34189 0,-0.5 0.2033,-0.60983 0.7884,-1.11536 1,-1.75 0.2394,-0.71809 0,-2.01638 0.25,-3.25 3.7255,-0.28069 6.7878,-1.16161 10,-2.5 0.1088,-0.0453 0.1392,-0.20973 0.25,-0.25 1.9606,-0.71296 4.0635,-0.9754 6,-1.75 1.0058,-0.40234 2.031,-0.76552 3,-1.25 0.8911,-0.44555 2.0778,-1.32782 2.75,-2 0.1318,-0.13176 0.1182,-0.36824 0.25,-0.5 0.3718,-0.3718 3.2109,-2.47394 3.25,-2.5 0.069,-0.0462 0.1911,0.0589 0.25,0 0.1318,-0.13176 0.1182,-0.36824 0.25,-0.5 -0.047,-1.29158 0.6899,-0.29328 1,-0.5 0.2942,-0.19612 0.4146,-0.6382 0.75,-0.75 0.1581,-0.0527 0.3509,0.0745 0.5,0 0.6311,-0.31556 1.3238,-1.02461 2,-1.25 0.8784,-0.2928 2.0746,-0.6178 3,-0.75 1.0508,-0.15011 8.9694,-0.19515 9.75,0 0.5909,0.14771 1.135,0.34625 1.75,0.5 0.6198,0.15495 1.3971,-0.20097 2,0 0.7855,0.26183 1.9314,0.63305 2.75,0.75 0.8102,0.11574 1.6987,-0.16026 2.5,0 1.1055,0.22109 1.8122,0.9374 2.75,1.25 0.7254,0.2418 1.7705,0.007 2.5,0.25 0.3535,0.11785 0.6464,0.38215 1,0.5 0.675,0.225 1.575,-0.225 2.25,0 1.1039,0.36796 2.3562,0.46405 3.5,0.75 1.0237,0.25594 2.2113,0.0769 3.25,0.25 3.0655,0.51092 6.1162,0.5 9.25,0.5 1.7509,0 3.5915,-0.16462 5.25,0.25 0.2425,0.0606 0.5128,-0.0791 0.75,0 0.6964,0.23212 3.1917,0.91503 3.75,1.25 0.2021,0.12126 0.3114,0.35858 0.5,0.5 0.5842,0.43812 1.4303,0.54422 2,1 1.3641,1.09131 2.8347,2.08388 4.5,2.75 0.4405,0.1762 1.0877,0.29387 1.5,0.5 0.1054,0.0527 0.1382,0.21273 0.25,0.25 0.1581,0.0527 0.3419,-0.0527 0.5,0 0.1118,0.0373 0.1446,0.19729 0.25,0.25 0.5933,0.29667 1.3578,0.28594 2,0.5 0.7854,0.26182 2.0168,-0.3666 2.75,0 1.0922,0.54609 1.2271,0.53785 2.5,0.75 0.9295,0.15491 2.1102,-0.2966 3,0 0.1526,0.0509 0.5974,0.44914 0.75,0.5 0.525,0.175 1.225,-0.175 1.75,0 0.1118,0.0373 0.1382,0.21273 0.25,0.25 0.5502,0.1834 1.4071,0 2,0 0.7714,0 1.4737,0.25 2.375,0 l 0.8125,133.0625 c -1.1832,0.62282 -2.0139,0.3533 -2.6875,0.4375 -0.6349,0.0793 -1.2537,0.27145 -1.875,0.375 -0.1233,0.0206 -0.2524,-0.0245 -0.375,0 -0.091,0.0183 -0.159,0.1067 -0.25,0.125 -0.4282,0.0856 -0.9365,0 -1.375,0 h -3 c -1.8035,0 -3.7036,0.1497 -5.5,0 -0.6449,-0.0537 -1.5784,-0.38807 -2.25,-0.5 -0.5333,-0.0889 -1.082,-0.1513 -1.625,-0.25 -1.4966,-0.2721 1.2378,0.0297 -1,-0.25 -0.124,-0.0155 -0.2537,0.0303 -0.375,0 -0.3079,-0.077 -0.5638,-0.3128 -0.875,-0.375 -0.3294,-0.0659 -0.6695,-0.0649 -1,-0.125 -0.4356,-0.0792 -0.6882,-0.4272 -1.125,-0.5 -0.1233,-0.0206 -0.2537,0.0303 -0.375,0 -0.057,-0.0143 -0.069,-0.1064 -0.125,-0.125 -0.079,-0.0264 -0.169,0.0202 -0.25,0 -0.3835,-0.0959 -0.7351,-0.31 -1.125,-0.375 -1.1405,-0.19009 -2.2427,-0.59192 -3.375,-0.875 -0.4054,-0.10134 -0.7308,-0.4015 -1.125,-0.5 -0.1617,-0.0404 -0.3445,0.0598 -0.5,0 -0.4004,-0.154 -0.7413,-0.43316 -1.125,-0.625 -0.1537,-0.0768 -0.3464,-0.0482 -0.5,-0.125 0,-0.002 -0.6768,-0.4279 -0.875,-0.5 -0.8695,-0.31619 -1.7401,-0.60953 -2.625,-0.875 -0.2149,-0.0645 -0.405,-0.206 -0.625,-0.25 -0.1226,-0.0245 -0.2548,0.0343 -0.375,0 -0.5023,-0.14352 -0.9993,-0.45809 -1.5,-0.625 -1.16,-0.38666 -0.047,-0.008 -0.75,-0.125 -0.7919,-0.13199 -0.2435,-0.12315 -1.125,-0.375 -0.5576,-0.15931 -1.1777,-0.20332 -1.75,-0.375 -1.3172,-0.39517 -2.5603,-1.15516 -3.75,-1.75 -0.5724,-0.28622 -2.6418,-0.96207 -3.375,-1.125 -0.122,-0.0271 -0.2548,0.0343 -0.375,0 -0.4539,-0.12969 -0.5541,-0.4108 -1,-0.5 -0.286,-0.0572 -0.5845,0.0264 -0.875,0 -0.628,-0.0571 -1.2339,-0.2905 -1.875,-0.25 -0.9421,-0.0785 -1.9325,0 -2.875,0 -0.6751,0 -1.3695,-0.0852 -2,0.125 -0.1977,0.0659 -0.4195,-0.0342 -0.625,0 -0.1058,0.0176 -0.7545,0.3449 -0.875,0.375 -0.1617,0.0404 -0.3419,-0.0527 -0.5,0 -0.2129,0.0709 -0.4073,0.1956 -0.625,0.25 -0.1213,0.0303 -0.259,-0.0464 -0.375,0 -0.1094,0.0438 -0.152,0.1846 -0.25,0.25 -0.1096,0.0731 -0.262,0.0572 -0.375,0.125 -0.1288,0.0773 -0.25,0.1667 -0.375,0.25 0,0.0417 0.03,0.0955 0,0.125 -0.03,0.0295 -0.09,-0.0231 -0.125,0 -0.098,0.0654 -0.167,0.1667 -0.25,0.25 -0.4913,0.49127 -0.864,0.989 -1.375,1.5 -0.9435,0.94348 -2.3015,1.87561 -3.5,2.375 -0.077,0.0321 -0.173,-0.031 -0.25,0 -0.713,0.2853 -0.079,0.19299 -0.625,0.375 -0.6468,0.21559 -1.3312,0.49124 -2,0.625 -0.1226,0.0245 -0.2548,-0.0343 -0.375,0 -0.3315,0.0947 -0.5435,0.2803 -0.875,0.375 -0.3304,0.0944 -0.681,0.12239 -1,0.25 -0.2256,0.0902 -0.1709,0.62526 -0.625,0.375 -0.2405,0.0801 -0.543,-0.18544 -0.75,0.125 -0.4764,0.1905 0.3791,0.0992 -0.375,0.25 -0.3901,0.078 -0.7448,0.0599 -1.125,0.25 -0.59,0.2951 0.7629,-0.0657 -0.5,0.25 -1.0256,0.25639 -2.0919,0.24586 -3.125,0.375 -0.4586,0.0573 -0.9375,0.24999 -1.375,0.375 -0.7749,0.22139 -1.6104,0.18385 -2.375,0.375 -0.6567,0.16417 -1.2401,0.53836 -1.875,0.75 -1.2105,0.40351 -0.5989,0.0781 -1.875,0.625 -0.2569,0.1101 -0.5,0.25 -0.75,0.375 -0.1667,0.125 -0.3096,0.2904 -0.5,0.375 -0.4076,0.1812 -1.07,0.13271 -1.5,0.25 -0.6431,0.17538 -1.3807,0.37725 -2,0.625 -0.173,0.0692 -0.3215,0.1965 -0.5,0.25 -1.914,0.57419 -0.1409,-0.0182 -1,0.125 -1.8817,0.31362 -3.8406,0.0335 -6.25,-0.25 -0.3333,-0.79167 -0.1419,-1.19927 0,-1.625 0.1828,-0.54839 0.1318,-5.84073 0,-6.5 -0.18,-0.89984 -0.5874,-1.02437 -0.75,-2 -0.1204,-0.72243 0.2008,-1.54716 0,-2.25 -0.065,-0.22664 -0.3946,-0.28919 -0.5,-0.5 -0.4444,-0.88871 -0.01,-1.4063 -0.25,-2.25 -0.1536,-0.53751 -0.6144,-0.95768 -0.75,-1.5 -0.163,-0.6518 -0.038,-1.36263 -0.25,-2 -0.037,-0.11181 -0.2269,-0.13444 -0.25,-0.25 -0.065,-0.32686 0.1054,-0.68378 0,-1 -0.074,-0.22361 -0.3946,-0.28919 -0.5,-0.5 -0.2073,-0.41459 0.1095,-1.31201 0,-1.75 -0.029,-0.11434 -0.2127,-0.1382 -0.25,-0.25 -0.053,-0.15812 0.04,-0.33831 0,-0.5 -0.171,-0.68389 -0.3515,-0.40231 -0.75,-1 -0.1854,-0.27802 -0.1177,-0.91926 -0.25,-1.25 -0.1384,-0.34603 -0.3333,-0.66667 -0.5,-1 -0.2759,-0.55187 -0.6641,-0.99611 -1,-1.5 -0.3121,-0.46819 -0.1879,-0.78182 -0.5,-1.25 -0.2035,-0.30521 -0.7076,-1.10378 -1,-1.25 -0.074,-0.0373 -0.1911,0.0589 -0.25,0 -0.3418,-0.34184 -0.5165,-1.26645 -0.75,-1.5 -0.1001,-0.10007 -0.3177,-0.1354 -0.5,-0.5 -0.1314,-0.26288 0,-0.94972 -0.125,-1.5 0.2671,-2.15072 2.1611,-2.55417 3.125,-4 0.092,-0.13868 -0.074,-0.35093 0,-0.5 0.4139,-0.82787 1.2095,-1.62845 1.5,-2.5 0.1034,-0.31027 -0.042,-0.99642 0,-1.25 0.1,-0.59843 0.381,-1.15511 0.5,-1.75 0.1113,-0.5566 -0.1375,-1.20013 0,-1.75 0.057,-0.22867 0.3946,-0.28919 0.5,-0.5 0.2116,-0.4232 0.057,-1.11485 0.25,-1.5 0.1456,-0.29122 0.3544,-0.45879 0.5,-0.75 0.1137,-0.22736 0.1375,-2.02995 0,-2.25 -0.2731,-1.08074 -1.4434,-1.41507 -2,-2.25 -0.1462,-0.21927 -0.1144,-0.52403 -0.25,-0.75 -0.2745,-0.45756 -0.6227,-0.8727 -1,-1.25 -0.1318,-0.13177 -0.3966,-0.095 -0.5,-0.25 -0.092,-0.13868 0.1,-0.36667 0,-0.5 0.2152,-1.49637 -0.7365,-0.23648 -1,-0.5 -0.5256,-0.52559 -0.82,-1.29668 -1.5,-1.75 -0.5116,-0.34106 -1.1837,-0.87244 -1.75,-1.25 -0.1387,-0.0924 -0.3822,0.11785 -0.5,0 -0.1318,-0.13177 -0.1009,-0.3882 -0.25,-0.5 -0.2108,-0.15812 -0.5307,-0.10383 -0.75,-0.25 -0.2942,-0.19612 -0.4672,-0.53787 -0.75,-0.75 -0.067,-0.05 -0.1911,0.0589 -0.25,0 -0.059,-0.0589 0.046,-0.18067 0,-0.25 -0.6889,-1.03327 -1.8437,-1.65612 -2.5,-2.75 -0.3316,-0.55268 -0.3449,-1.20981 -0.75,-1.75 -0.2298,-0.3064 -0.6298,-0.6393 -0.75,-1 -0.1581,-0.22435 0.079,-0.51283 0,-0.75 -0.1719,-0.51569 -0.6184,-0.97348 -0.75,-1.5 -0.04,-0.16169 0.053,-0.34189 0,-0.5 -0.1615,-0.48447 -1.2268,-1.86251 -1.5,-2.5 -0.3356,-0.783 -0.154,-1.55798 -0.5,-2.25 -0.3987,-0.79745 0.342,-6.38207 0,-7.75 -0.1587,-0.6349 -1.418,-1.95898 -2,-2.25 -0.4714,-0.23571 -1.0784,-0.18378 -1.5,-0.5 -0.1491,-0.11181 -0.095,-0.39664 -0.25,-0.5 -0.1387,-0.0924 -0.3468,0.0657 -0.5,0 -0.6175,-0.26466 -1.1126,-0.78754 -1.75,-1 -0.64,-0.21332 -1.7156,-0.5992 -2.25,-1 -0.2829,-0.21214 -0.4672,-0.53787 -0.75,-0.75 -0.067,-0.05 -0.186,0.0534 -0.25,0 -0.5432,-0.45268 -0.9117,-1.10777 -1.5,-1.5 -0.1551,-0.10337 -0.3682,-0.11824 -0.5,-0.25 -0.5893,-0.58926 -0.9794,-1.34928 -1.5,-2 -0.3193,-0.39912 -1.0148,-1.25737 -1.5,-1.5 -0.074,-0.0373 -0.1911,0.0589 -0.25,0 -0.1318,-0.13176 -0.1466,-0.34496 -0.25,-0.5 -0.641,-0.96154 -1.859,-1.53846 -2.5,-2.5 -0.046,-0.0693 0.059,-0.19108 0,-0.25 -0.302,-0.30198 -0.7079,-0.38492 -1,-0.75 -0.25,-0.33334 -0.5,-0.66667 -0.75,-1 0,-0.0833 0.046,-0.18067 0,-0.25 0.6169,-0.75687 -0.68,-0.43002 -0.75,-0.5 -1.6981,-2.26414 0,-0.31499 -1.25,-1.25 -0.9323,-0.69925 -2.1248,-2.37484 -3,-3.25 -0.059,-0.0589 -0.1807,0.0462 -0.25,0 -0.1961,-0.13075 -0.2892,-0.39459 -0.5,-0.5 -0.1491,-0.0745 -0.3613,0.0924 -0.5,0 -0.2786,-0.1857 -0.51,-1.00997 -0.75,-1.25 -0.059,-0.0589 -0.1911,0.0589 -0.25,0 -0.3935,-0.39346 -0.5749,-0.82484 -1,-1.25 -0.059,-0.0589 -0.1911,0.0589 -0.25,0 -0.9757,-0.97569 0.058,-0.13427 -0.25,-0.75 -0.082,-0.16371 -0.6092,-0.92959 -0.75,-1 -0.074,-0.0373 -0.1911,0.0589 -0.25,0 -0.3333,-0.33334 0.4167,-0.25 -0.125,-0.375 0.5593,-1.42132 1.5878,-2.32538 2.375,-3.375 z"
         id="path38" />
    </g>
  </g>
</svg>
