<?xml version="1.0" encoding="UTF-8" standalone="no"?>
<!-- Created with Inkscape (http://www.inkscape.org/) -->

<svg
   version="1.1"
   id="svg2"
   width="172.41995"
   height="131.05737"
   viewBox="0 0 172.41995 131.05737"
   xmlns="http://www.w3.org/2000/svg"
   xmlns:svg="http://www.w3.org/2000/svg">
  <defs
     id="defs6">
    <linearGradient
       id="swatch77">
      <stop
         style="stop-color:#e2c69e;stop-opacity:1;"
         offset="0"
         id="stop77" />
    </linearGradient>
  </defs>
  <g
     id="layer66"
     style="display:inline"
     transform="translate(-854.53125,-487.40758)">
    <g
       id="layer63"
       style="display:inline">
      <path
         style="fill:#969696;fill-opacity:1;stroke:none;stroke-opacity:1"
         d="m 868.37424,608.34743 c 1.47722,0.041 0.51593,-0.0422 1.56336,0.0276 1.02947,0.0686 2.03746,0.3296 3.0625,0.4375 0.49196,0.0518 0.95234,0.0252 1.4375,0.0625 0.50337,0.0387 1.00012,0.1811 1.5,0.25 0.47869,0.066 0.9618,0.1025 1.4375,0.1875 0.29651,0.053 0.45748,0.23124 0.6875,0.375 0.3006,0.18787 0.41428,0.16249 0.6875,0.375 0.093,0.0724 0.1557,0.1793 0.25,0.25 0.0745,0.0559 0.1695,0.078 0.25,0.125 0.3623,0.21134 0.67697,0.45151 1.0625,0.625 0.49358,0.22211 1.15156,0.45531 1.6875,0.5625 0.63048,0.126 1.00575,0.0506 1.75,0.125 0.19112,0.0191 0.37174,0.1026 0.5625,0.125 0.35174,0.0414 0.70833,0 1.0625,0 h 1.5 c 0.86685,0 1.75966,-0.0577 2.625,0 1.20267,0.0802 -0.25408,0.0625 0.8125,0.0625 0.97101,0 1.97026,-0.0744 2.9375,0 0.27321,0.021 0.53909,0.1068 0.8125,0.125 0.49933,0.0333 1.00008,0.0398 1.5,0.0625 0.14568,0.007 0.29313,-0.0206 0.4375,0 0.15014,0.0214 0.28814,0.0986 0.4375,0.125 0.59713,0.1054 1.21391,0.0651 1.8125,0.125 0.1057,0.0106 0.20664,0.0535 0.3125,0.0625 0.14533,0.0121 0.29279,-0.0181 0.4375,0 0.44193,0.0552 0.8708,0.193 1.3125,0.25 1.41733,0.18288 2.83444,0.36589 4.25,0.5625 0.98018,0.13614 1.95356,0.32397 2.9375,0.4375 0.24921,0.0288 0.50205,0.0244 0.75,0.0625 0.73913,0.11371 0.89235,0.25 1.5625,0.25 0.75236,-0.25868 1.50962,-0.4956 2.3125,-0.5625 0.4878,-0.0407 1.01317,0 1.5,0 0.0176,0 1.595,-0.0725 1.8125,0 0.028,0.009 0.0339,0.0555 0.0625,0.0625 0.0606,0.0152 0.1262,-0.0123 0.1875,0 0.25748,0.0515 0.55795,0.1864 0.8125,0.25 1.05776,0.26444 -0.62583,-0.1925 0.75,0.125 0.48114,0.11103 0.95079,0.27253 1.4375,0.375 0.77775,0.16374 1.55025,0.26546 2.3125,0.5 1.25298,0.38553 -0.30118,-0.0973 0.625,0.25 0.0886,0.0332 0.3414,0.0701 0.4375,0.125 0.38233,0.21848 0.68266,0.43864 1.125,0.5625 0.35036,0.0981 0.71225,0.1515 1.0625,0.25 0.3171,0.0892 0.62127,0.2203 0.9375,0.3125 0.36878,0.10756 0.75232,0.1568 1.125,0.25 0.57527,0.14382 0.34886,0.13509 1,0.25 0.39963,0.0705 0.7911,0.0401 1.1875,0.125 0.43293,0.0928 0.48265,0.1782 0.9375,0.25 0.92397,0.14589 1.88256,0.188 2.8125,0.25 0.32392,0.0216 0.83674,0.1529 1.125,0.1875 0.29033,0.0348 0.58333,0.0417 0.875,0.0625 0.33333,0.0625 0.66404,0.1412 1,0.1875 0.84171,0.1161 1.71514,0.127 2.5625,0.1875 1.08625,0.0776 2.16668,0.1726 3.25,0.25 0.57718,0.0412 1.17096,0 1.75,0 1.63926,0 3.29979,-0.078 4.9375,0 0.33333,0.0208 0.66667,0.0417 1,0.0625 0.20833,0.0417 0.41334,0.1066 0.625,0.125 0.71013,0.0617 1.47142,0 2.1875,0 h 4.8125 4.8125 c 1.51884,0 3.05092,0.0477 4.5625,-0.125 0.33695,-0.0385 0.66492,-0.1351 1,-0.1875 0.99846,-0.15601 1.99747,-0.31019 3,-0.4375 0.53377,-0.0678 1.05108,-0.017 1.5625,-0.1875 1.356,0.0615 2.70216,0.125 4.0625,0.125 0.1672,0 1.28177,0.0727 1.5,0 0.244,-0.0813 0.4042,-0.3271 0.625,-0.4375 0.23752,-0.11876 0.51726,-0.19613 0.75,-0.3125 0.095,-0.0475 0.2175,-0.015 0.3125,-0.0625 0.0527,-0.0263 0.0723,-0.0987 0.125,-0.125 0.10083,-0.0504 0.5667,-0.1115 0.625,-0.125 0.23866,-0.0551 0.513,-0.1282 0.75,-0.1875 0.10378,-0.0259 0.1652,-0.0967 0.25,-0.125 0.0395,-0.0132 0.0833,0 0.125,0 0.0833,-0.0208 0.1703,-0.0306 0.25,-0.0625 0.23373,-0.0935 0.45255,-0.2221 0.6875,-0.3125 0.0778,-0.0299 0.1686,0.0181 0.25,0 0.14806,-0.0329 0.29361,-0.077 0.4375,-0.125 0.18643,-0.0621 0.42782,-0.2106 0.625,-0.25 0.28045,-0.0561 0.59455,0.0561 0.875,0 0.0914,-0.0183 0.1616,-0.0955 0.25,-0.125 0.28915,-0.0964 0.57609,-0.1277 0.875,-0.1875 0.54449,-0.1089 -0.23562,-0.0214 0.4375,-0.125 0.18646,-0.0287 0.37641,-0.0315 0.5625,-0.0625 0.065,-0.0108 0.125,-0.0417 0.1875,-0.0625 0.0833,-0.0208 0.165,-0.0503 0.25,-0.0625 0.3796,-0.0545 -0.019,0.0897 0.4375,-0.0625 0.24569,-0.0819 0.504,-0.2422 0.75,-0.3125 0.4886,-0.1396 -0.16896,0.20704 0.4375,-0.0625 0.27793,-0.12352 0.53303,-0.31773 0.8125,-0.4375 0.0383,-0.0164 0.0863,0.0155 0.125,0 0.0967,-0.0387 0.1512,-0.1546 0.25,-0.1875 0.0395,-0.0132 0.0855,0.0132 0.125,0 0.17917,-0.0597 0.2868,-0.38238 0.375,-0.5 0.14659,-0.19546 0.57719,-0.6829 0.75,-0.8125 0.0373,-0.028 0.097,-0.0252 0.125,-0.0625 0.0395,-0.0527 0.0417,-0.125 0.0625,-0.1875 0.0625,-0.0833 0.1224,-0.1687 0.1875,-0.25 0.1774,-0.22172 -0.0878,0.121 0.1875,-0.0625 0.0821,-0.0548 0.1166,-0.1791 0.1875,-0.25 0.33181,-0.33181 1.52582,-0.71033 1.9375,-0.875 0.0612,-0.0245 0.1327,-0.026 0.1875,-0.0625 0.11804,-0.0787 0.69135,-0.76597 0.8125,-0.875 0.24656,-0.2219 0.57612,-0.32612 0.8125,-0.5625 0.0329,-0.0329 0.0296,-0.0921 0.0625,-0.125 0.0329,-0.0329 0.0921,-0.0296 0.125,-0.0625 0.95875,-0.95875 0.0593,-0.0961 0.5,-0.625 0.0122,-0.2058 0.2182,-0.1557 0.3125,-0.25 0.0491,-0.0491 0.1985,-0.4356 0.25,-0.5 0.11043,-0.13804 0.26647,-0.23546 0.375,-0.375 0.34547,-0.44417 0.70462,-1.0077 1,-1.5 0.11036,-0.18393 0.19041,-0.38615 0.3125,-0.5625 0.0838,-0.12112 0.2367,-0.18618 0.3125,-0.3125 0.0936,-0.15603 0.14853,-0.34779 0.25,-0.5 0.049,-0.0735 0.1385,-0.114 0.1875,-0.1875 0.13496,-0.20244 0.29705,-0.46278 0.4375,-0.6875 0.14863,-0.2378 0.27032,-0.52709 0.4375,-0.75 0.0707,-0.0943 0.1973,-0.14459 0.25,-0.25 0.025,-0.05 -0.025,-0.1375 0,-0.1875 0.0263,-0.0527 0.0987,-0.0723 0.125,-0.125 0.0186,-0.0373 -0.0295,-0.0955 0,-0.125 0.0329,-0.0329 0.0921,-0.0296 0.125,-0.0625 0.0168,-0.0168 0.487,-0.6621 0.5,-0.6875 0.02,-0.0369 0,-0.14549 0.02,0.12773 -0.024,-0.99587 -5e-4,-2.31096 -0.1121,-3.61806 -0.1098,-1.28909 -0.37912,-2.55999 -0.53028,-3.84489 -0.0944,-0.80374 -0.0884,-1.58476 -0.0884,-2.38649 0,-0.52026 -0.052,-1.07806 0.0442,-1.59099 0.0883,-0.47109 0.0674,-0.21748 0.17678,-0.61872 0.12488,-0.45788 0.20175,-0.91268 0.3094,-1.37002 0.1471,-0.62516 0.3877,-1.22895 0.5303,-1.85615 0.044,-0.17298 0.012,-0.3558 0.044,-0.53033 0.045,-0.24767 0.1961,-0.46506 0.2651,-0.70711 0.033,-0.1142 0.021,-0.23709 0.044,-0.35355 0.1508,-0.7565 0.018,0.0645 0.1768,-0.53033 0.039,-0.14516 0.05,-0.29678 0.088,-0.44194 0.046,-0.17199 0.178,-0.31345 0.221,-0.48614 0.1931,-0.77252 0.1818,-1.56932 0.3535,-2.34229 0.073,-0.32922 0.2495,-0.66011 0.3536,-0.97227 0.1188,-0.35655 0.1741,-0.74202 0.2651,-1.10486 0.085,-0.3409 0.2354,-0.67324 0.3094,-1.01646 0.025,-0.11613 0.029,-0.2357 0.044,-0.35356 0.044,-0.2357 0.081,-0.473 0.1326,-0.7071 0.01,-0.0322 0.029,-0.0589 0.044,-0.0884 0.015,-0.0884 0.034,-0.17587 0.044,-0.26517 0.024,-0.28179 -0.056,-0.6062 0,-0.88388 0.034,-0.16887 0.044,-0.31355 0.044,-0.48614 -0.044,-0.10311 -0.098,-0.20223 -0.131,-0.30934 -0.1036,-0.34059 -0.1056,-0.71035 -0.1326,-1.06066 -0.051,-0.6671 -0.088,-1.31628 -0.088,-1.98874 0,-0.35639 -0.047,-0.75201 0,-1.10486 0.014,-0.1063 0.064,-0.20492 0.088,-0.30936 0.079,-0.33766 0.157,-0.67567 0.221,-1.01646 0.112,-0.18458 0.017,-0.38438 0.044,-0.57453 0.064,-0.44501 0.1649,-0.88129 0.2209,-1.32582 0.029,-0.23458 0.1126,-0.47036 0.1326,-0.70711 0.01,-0.10276 -0.011,-0.20687 0,-0.30936 0,-0.0327 0.044,-0.0559 0.044,-0.0884 0.073,-0.43579 0.1338,-0.93546 0.1768,-1.37002 0.059,-0.59383 -0.094,0.23191 0.044,-0.53033 0.011,-0.0598 0.029,-0.11787 0.044,-0.17677 0.044,-0.2799 0.095,-0.55881 0.1326,-0.83969 0.065,-0.48911 0.04,-0.7505 0.088,-1.28163 0.024,-0.26694 0.1497,-0.52659 0.1767,-0.7955 0.048,-0.47981 0.092,-0.98029 0.1768,-1.45841 0.06,-0.33917 0.164,-0.6749 0.221,-1.01646 0.09,-0.54029 0.1278,-1.09101 0.1768,-1.63519 0.037,-0.41798 0.058,-0.1335 0.1325,-0.61871 0.011,-0.0728 -0.01,-0.14788 0,-0.22098 0.022,-0.17783 0.059,-0.35355 0.088,-0.53033 0.012,-0.0741 0.029,-0.14727 0.044,-0.22097 0.029,-0.0884 0.07,-0.17376 0.088,-0.26516 0.012,-0.0578 -0.01,-0.11848 0,-0.17678 0.027,-0.18739 0.1228,-0.35495 0.1768,-0.53033 0.3172,-1.03084 -0.01,-0.0122 0.088,-0.57452 0.02,-0.11983 0.07,-0.23349 0.088,-0.35356 0.027,-0.17472 -0.018,-0.35443 0,-0.53033 0.011,-0.10671 0.077,-0.20276 0.088,-0.30935 0.024,-0.2193 -0.01,-0.44558 0.044,-0.66292 0.1238,-0.49513 0.045,-0.0468 0.1768,-0.48613 0.07,-0.23322 0.1098,-0.47408 0.1768,-0.70711 0.035,-0.12102 0.088,-0.2357 0.1326,-0.35355 0.059,-0.16205 0.1308,-0.32 0.1768,-0.48614 0.028,-0.10037 0.029,-0.20624 0.044,-0.30936 0.029,-0.11785 0.053,-0.2372 0.088,-0.35355 0.063,-0.20975 0.1892,-0.41054 0.2652,-0.61872 0.089,-0.24549 0.1485,-0.51801 0.2652,-0.7513 0.053,-0.10623 0.1327,-0.19909 0.1767,-0.30936 0.016,-0.041 -0.01,-0.0887 0,-0.13258 0.01,-0.0745 0.028,-0.14757 0.044,-0.22097 0.029,-0.13281 0.051,-0.26716 0.088,-0.39775 0.052,-0.18038 0.1146,-0.21827 0.1326,-0.39775 0.01,-0.0879 -0.019,-0.17886 0,-0.26516 -0.063,-0.12368 0.1146,-0.10528 0.1326,-0.17678 0.027,-0.1074 -0.035,-0.24868 0,-0.35355 0,-0.01 0.044,0.0235 0.044,-0.0884 0.098,-0.42207 0.022,-0.85469 0.049,-1.28161 0.01,-0.10397 0.034,-0.20546 0.044,-0.30936 0.01,-0.10286 -0.011,-0.20687 0,-0.30936 0.063,-0.57017 0.2788,-1.09149 0.4419,-1.63519 0.035,-0.11635 0.034,-0.2449 0.088,-0.35355 0.033,-0.0659 0.093,-0.11428 0.1326,-0.17678 0.2184,-0.34944 0.3622,-0.75097 0.5745,-1.10485 0.076,-0.12632 0.1922,-0.22565 0.2652,-0.35355 0.1358,-0.23771 0.2267,-0.53148 0.3977,-0.75131 0.096,-0.12361 0.2224,-0.22325 0.3094,-0.35355 0.1144,-0.17158 0.1858,-0.36557 0.3093,-0.53033 0.044,-0.0589 0.088,-0.0589 0.1326,-0.13258 0.1706,-0.28446 -0.126,0.0355 0.1326,-0.30936 0.05,-0.0667 0.1248,-0.11168 0.1768,-0.17678 0.1215,-0.15184 0.2024,-0.32572 0.3093,-0.48613 0.044,-0.0655 0.1328,-0.15547 0.1768,-0.22097 0.05,-0.0747 0.084,-0.23626 0.1326,-0.30936 0.049,-0.0732 0.1326,-0.0875 0.4478,-0.51465 0.3152,-0.66407 0.151,-2.07093 0.2532,-2.27537 0.093,-0.18514 0.1665,-0.66688 0.1875,-0.875 0.01,-0.10365 -0.033,-0.2137 0,-0.3125 0.014,-0.0442 0.051,-0.0798 0.062,-0.125 0.015,-0.0606 -0.035,-0.1355 0,-0.1875 0.033,-0.049 0.099,-0.0723 0.125,-0.125 0.062,-0.125 -0.031,-0.0938 0,-0.1875 0.014,-0.0442 0.052,-0.0788 0.062,-0.125 0.02,-0.15752 -0.044,-0.44978 0,-0.625 0.037,-0.14586 0.1585,-0.29056 0.1875,-0.4375 0.072,-0.35777 -0.03,-0.94332 0.062,-1.3125 0.023,-0.0904 0.102,-0.1596 0.125,-0.25 0.02,-0.0808 -0.026,-0.1709 0,-0.25 0.038,-0.11279 0.1425,-0.3035 0.1875,-0.4375 0.054,-0.16102 0.074,-0.34793 0.125,-0.5 0.019,-0.0559 0.099,-0.0723 0.125,-0.125 0.059,-0.11785 0.103,-0.24503 0.125,-0.375 0.093,-0.55726 0.2516,-1.19061 0.5,-1.6875 0.025,-0.0494 -0.018,-0.1348 0,-0.1875 0.035,-0.10643 0.075,-0.21215 0.125,-0.3125 0.14,-0.27994 0.35,-0.57493 0.5,-0.875 0.019,-0.0373 -0.013,-0.0855 0,-0.125 0.023,-0.0674 0.217,-0.4509 0.25,-0.5 0.1403,-0.21044 0.3147,-0.39691 0.4375,-0.625 0.075,-0.1397 0.1105,-0.29881 0.1875,-0.4375 0.029,-0.0515 0.09,-0.0779 0.125,-0.125 0.072,-0.0957 0.1155,-0.2168 0.1875,-0.3125 0.096,-0.12805 0.2235,-0.2419 0.3125,-0.375 0.09,-0.13491 0.279,-0.5286 0.375,-0.625 0.033,-0.0329 0.092,-0.0296 0.125,-0.0625 0.015,-0.0147 -0.01,-0.0439 0,-0.0625 0.06,-0.11932 0.163,-0.21122 0.25,-0.3125 0.094,-0.10991 0.29,-0.24823 0.375,-0.375 0.012,-0.0173 -0.015,-0.0478 0,-0.0625 0.033,-0.0329 0.101,-0.0226 0.125,-0.0625 0.044,-0.0737 0.018,-0.1763 0.062,-0.25 0.024,-0.0399 0.092,-0.0296 0.125,-0.0625 0.074,-0.0737 0.1225,-0.1687 0.1875,-0.25 0.2198,-0.27471 0.3599,-0.59136 0.5625,-0.875 0.034,-0.048 0.095,-0.0745 0.125,-0.125 0.033,-0.0565 0.028,-0.131 0.062,-0.1875 0.045,-0.0758 0.1485,-0.1084 0.1875,-0.1875 0.029,-0.0589 0.033,-0.1286 0.062,-0.1875 0.064,-0.12843 0.187,-0.15458 0.25,-0.3125 0.015,-0.0387 -0.023,-0.0903 0,-0.125 0.026,-0.0388 0.099,-0.0237 0.125,-0.0625 0.047,-0.0715 0.014,-0.1785 0.062,-0.25 0.073,-0.1093 0.182,-0.19892 0.25,-0.3125 0.1802,-0.30041 0.3059,-0.6463 0.5,-0.9375 0.033,-0.049 0.103,-0.0703 0.125,-0.125 0.023,-0.058 -0.017,-0.1274 0,-0.1875 0.021,-0.074 0.2595,-0.5371 0.3125,-0.625 0.03,-0.0505 0.09,-0.0779 0.125,-0.125 0.082,-0.11 0.1055,-0.265 0.1875,-0.375 0.035,-0.0471 0.099,-0.0723 0.125,-0.125 0.1451,-0.29026 0.253,-0.6325 0.375,-0.9375 0.097,-0.2429 0.2734,-0.45054 0.375,-0.6875 0.016,-0.0383 -0.015,-0.086 0,-0.125 0.5,-1.33333 0.028,0.0556 0.25,-0.5 0.098,-0.24538 0.1121,-0.52017 0.25,-0.75 0.039,-0.0644 0.083,-0.125 0.125,-0.1875 0.042,-0.0208 0.095,-0.0267 0.125,-0.0625 0.2283,-0.2739 0.4115,-0.69806 0.5625,-1 0.034,-0.0672 0.072,-0.1344 0.125,-0.1875 0.014,-0.0147 0.052,0.0193 0.062,0 0.039,-0.0986 0.033,-0.21036 0.062,-0.3125 0.013,-0.0441 0.208,-0.4373 0.25,-0.5 0.167,-0.25 -0.083,0.33333 0.25,-0.25 0.042,-0.0746 0.03,-0.1703 0.062,-0.25 0.1266,-0.31642 0.3244,-0.64477 0.5,-0.9375 0.042,-0.0693 0.227,-0.1642 0.25,-0.1875 0.2195,-0.2195 -0.039,-0.0743 0.3125,-0.25 0.093,-0.0466 0.1065,-0.184 0.1875,-0.25 1.2014,-0.98295 0.1288,-0.0442 0.8125,-0.5 0.1803,-0.12019 0.2355,-0.36048 0.375,-0.5 0.033,-0.0329 0.101,-0.0226 0.125,-0.0625 0.044,-0.0737 0.035,-0.1685 0.062,-0.25 0.038,-0.11525 0.1545,-0.1957 0.1875,-0.3125 0.023,-0.0801 -0.023,-0.1699 0,-0.25 0.021,-0.0722 0.101,-0.1162 0.125,-0.1875 0.062,-0.17897 0.025,-0.37751 0.062,-0.5625 0.1335,-0.6693 0.019,0.34641 0.1875,-1 0.049,-0.39555 -0.02,-0.8668 0,-1.25 0.035,-0.67152 0.1786,-1.34229 0.3886,-2.11253 -0.2351,-0.17477 -0.5987,-0.24231 -0.8962,-0.28931 -0.1455,-0.023 -0.2961,0.0208 -0.4419,0 -0.02,-0.003 -0.024,-0.0392 -0.044,-0.0442 -0.049,-0.0123 -0.164,0.008 -0.221,0 -0.1774,-0.0254 -0.3522,-0.0686 -0.5303,-0.0884 -0.3794,-0.0422 -0.7702,-0.006 -1.1491,-0.0442 -0.8009,-0.0801 -1.5804,-0.33054 -2.3864,-0.39774 -0.278,-0.0232 -0.5618,0.0232 -0.8397,0 -0.2659,-0.0222 -0.5311,-0.0531 -0.7955,-0.0884 -0.1422,-0.019 -0.2638,-0.088 -0.3978,-0.13258 -0.1552,-0.0518 -0.3369,-0.0766 -0.4861,-0.13259 -0.1492,-0.0559 -0.2611,-0.18316 -0.3978,-0.26516 -0.2539,-0.1524 -0.5608,-0.26066 -0.8396,-0.35356 -0.1459,-0.0486 -0.2988,-0.0765 -0.442,-0.13258 -0.7158,-0.28009 -0.3923,-0.21307 -1.0164,-0.48613 -0.2499,-0.10933 -0.5234,-0.19403 -0.7514,-0.35356 -0.068,-0.0478 -0.1087,-0.12837 -0.1767,-0.17677 -0.038,-0.0271 -0.097,-0.0144 -0.1326,-0.0442 -0.057,-0.0471 -0.085,-0.12138 -0.1326,-0.17678 -0.2794,-0.31932 -0.4905,-0.67737 -0.7513,-1.01646 -0.051,-0.066 -0.1268,-0.11008 -0.1768,-0.17678 -0.1274,-0.16997 -0.2409,-0.35016 -0.3535,-0.53033 -0.035,-0.0559 -0.045,-0.12717 -0.088,-0.17677 -0.062,-0.071 -0.157,-0.10778 -0.221,-0.17678 -0.3729,-0.39959 -0.6406,-0.85521 -0.9723,-1.28163 -0.1698,-0.21834 -0.3355,-0.43708 -0.4861,-0.66291 -0.094,-0.14059 -0.1,-0.24464 -0.1768,-0.39775 -0.1383,-0.27669 -0.2586,-0.56155 -0.3977,-0.83969 -0.023,-0.0475 -0.071,-0.0822 -0.088,-0.13258 -0.019,-0.0559 0.033,-0.12778 0,-0.17678 -0.2967,-0.44507 -0.5988,-0.93243 -0.8397,-1.41421 -0.021,-0.0417 -0.021,-0.0922 -0.044,-0.13259 -0.2962,-0.51813 0.036,0.20434 -0.2652,-0.39774 -0.05,-0.10035 -0.075,-0.21246 -0.1325,-0.30936 -0.2197,-0.37656 -0.8783,-0.95014 -1.2375,-1.23744 -0.115,-0.092 -0.2453,-0.16527 -0.3535,-0.26517 -0.1249,-0.1153 -0.2594,-0.37554 -0.442,-0.44194 -0.083,-0.0302 -0.1772,0 -0.026,0.13655 0.021,0.1365 0.04,0.0368 -0.1357,-0.051 -0.089,-0.0444 -0.276,0.0165 -0.375,0 -0.281,-0.0468 -0.4889,-0.1754 -0.75,-0.25 -0.1907,-0.0545 -0.4288,-0.0345 -0.625,-0.0625 -0.065,-0.009 -0.1225,-0.0496 -0.1875,-0.0625 -0.1911,-0.0382 -1.3966,-0.0415 -1.6875,0 -0.1701,0.0243 -0.3315,0.0913 -0.5,0.125 -0.2913,0.0585 -0.5219,0.0625 -0.8125,0.0625 -0.02,0 -0.047,-0.0147 -0.062,0 -0.032,0.0329 0.062,0.131 -0.062,0.125 -0.1478,0.0985 -0.8727,0.1741 -1.0625,0.25 -0.156,0.0624 -0.2855,0.1785 -0.4375,0.25 -0.203,0.0955 -0.4217,0.1551 -0.625,0.25 -0.1101,0.0514 -0.2019,0.1372 -0.3125,0.1875 -0.12,0.0545 -0.25982,0.061 -0.375,0.125 -0.0773,0.0429 -0.1117,0.142 -0.1875,0.1875 -0.0357,0.0214 -0.0855,-0.0132 -0.125,0 -0.18057,0.0602 -0.4023,0.2324 -0.5625,0.3125 -0.19603,0.098 -0.51132,0.1521 -0.6875,0.25 -0.11661,0.0648 -0.19938,0.1793 -0.3125,0.25 -0.0559,0.0349 -0.1303,0.0298 -0.1875,0.0625 -0.0904,0.0517 -0.1568,0.1409 -0.25,0.1875 -0.0373,0.0186 -0.0903,-0.0231 -0.125,0 -0.0388,0.0258 -0.0296,0.0921 -0.0625,0.125 -0.1799,0.1799 -0.59504,0.2136 -0.8125,0.3125 -0.11059,0.0503 -0.20833,0.125 -0.3125,0.1875 -0.1875,0.0833 -0.375,0.1667 -0.5625,0.25 -0.22413,0.0961 -0.47434,0.13158 -0.6875,0.25 -0.0773,0.0429 -0.125,0.125 -0.1875,0.1875 -0.0833,0.0417 -0.1667,0.0833 -0.25,0.125 -0.27104,0.12046 -0.53565,0.1577 -0.8125,0.25 -0.35404,0.11801 -0.70537,0.26786 -1.0625,0.375 -0.8016,0.2405 -1.67738,0.1875 -2.5,0.1875 -1.17302,0 0.41488,-0.0161 -1,0.0625 -0.35362,0.0197 -0.70912,-0.0236 -1.0625,0 -0.40103,0.0267 -0.78724,0.1511 -1.1875,0.1875 -0.42625,0.0387 -0.11636,-0.0803 -0.6875,0.0625 -0.631,0.1578 0.025,0.1227 -0.6875,0.1875 -0.10374,0.009 -0.20914,-0.0129 -0.3125,0 -0.21082,0.0263 -0.38264,0.23818 -0.625,0.125 -0.64557,0.0679 -0.61909,0.0238 -1.125,0.125 -0.401,0.0802 -0.80261,0.17254 -1.1875,0.3125 -0.16728,0.0608 -0.34079,0.1079 -0.5,0.1875 -0.0672,0.0336 -0.115,0.1052 -0.1875,0.125 -0.16205,0.0442 -0.33705,0.0218 -0.5,0.0625 -0.27041,0.0676 -0.21019,0.14668 -0.4375,0.25 -0.28195,0.12816 -0.60426,0.16209 -0.875,0.3125 -0.0773,0.0429 -0.1084,0.148 -0.1875,0.1875 -0.095,0.0475 -0.20944,0.0367 -0.3125,0.0625 -0.14714,0.0368 -0.29167,0.0833 -0.4375,0.125 -0.0833,0.0417 -0.1604,0.0994 -0.25,0.125 -0.0601,0.0172 -0.1256,-0.009 -0.1875,0 -0.21032,0.0301 -0.41667,0.0833 -0.625,0.125 -0.58183,0.11637 -1.17415,0.23104 -1.75,0.375 -0.21101,0.0528 -0.41172,0.1448 -0.625,0.1875 -0.29999,0.06 -0.63582,-0.0503 -0.9375,0 -0.0459,0.008 -0.0791,0.0545 -0.125,0.0625 -0.4164,0.0694 -0.8926,0 -1.3125,0 h -2.6875 c -2.87347,0 -5.75228,0.0542 -8.625,0 -5.20456,-0.0982 -4.42177,0.0541 -5,0.0352 -0.31171,-0.0102 -0.73137,0.0712 -0.875,0.21484 -0.0868,0.0868 -0.0259,0.2759 -0.125,0.375 -0.12505,0.12505 -0.77919,0.1052 -0.9375,0.125 -0.0462,0.006 -0.0798,0.0512 -0.125,0.0625 -0.32622,0.0815 -0.66538,0.125 -1,0.125 -0.60135,0 -1.63362,0.3996 -2.1875,0.5625 -0.64247,0.18896 -1.35162,0.24532 -2,0.375 -0.40039,0.0801 -0.7847,0.3079 -1.1875,0.375 -0.43864,0.0731 -0.53487,0.15746 -1,0.3125 -0.16298,0.0543 -0.34209,0.0573 -0.5,0.125 -0.069,0.0296 -0.1142,0.1087 -0.1875,0.125 -0.34933,0.0776 -0.82756,0 -1.1875,0 h -2.875 -4.375 c -0.69908,0 -1.42624,0.0499 -2.125,0 -0.68823,-0.0492 -1.37059,-0.1511 -2.0625,-0.1875 -0.95439,-0.0502 -1.92235,0.0733 -2.875,0 -0.35556,-0.0274 -0.70196,-0.1399 -1.0625,-0.125 -0.5179,-0.037 -1.04413,0.0288 -1.5625,0 -1.1345,-0.063 -0.0147,-0.0552 -1.0625,-0.125 -0.37506,-0.025 -0.75136,-0.0251 -1.125,-0.0625 -0.51817,-0.0518 -1.03931,-0.1613 -1.5625,-0.1875 -0.74342,-0.0372 -1.50493,0 -2.25,0 h -4.125 c -0.70148,0 -1.42422,0.0438 -2.125,0 -0.39725,-0.0248 -0.79017,-0.1016 -1.1875,-0.125 -1.07896,-0.0635 -2.17204,0.077 -3.25,0 -0.99442,-0.071 -2.07794,-0.26775 -3.0625,-0.4375 -0.29395,-0.0507 -0.57971,-0.1453 -0.875,-0.1875 -0.28947,-0.0414 -0.58467,-0.0277 -0.875,-0.0625 -2.31974,-0.2784 0.50214,0.0212 -1.125,-0.25 -0.28467,-0.0475 -0.59157,-0.011 -0.875,-0.0625 -0.11038,-0.0201 -0.20197,-0.1058 -0.3125,-0.125 -0.41864,-0.0728 -1.53708,-0.2261 -2.0625,-0.25 -1.61405,-0.0734 -0.22911,0.0797 -1.4375,-0.0625 -0.37472,-0.0441 -0.75327,-0.0604 -1.125,-0.125 -2.70633,-0.47067 0.39031,-0.0157 -1.25,-0.25 -0.62419,-0.0892 -1.25671,-0.12634 -1.875,-0.25 -0.1938,-0.0388 -0.37207,-0.1346 -0.5625,-0.1875 -0.18507,-0.0514 -0.37823,-0.0708 -0.5625,-0.125 -0.17077,-0.0502 -0.32801,-0.1416 -0.5,-0.1875 -0.14234,-0.038 -0.29617,-0.0209 -0.4375,-0.0625 -0.21526,-0.0633 -0.41103,-0.1824 -0.625,-0.25 -0.34695,-0.10956 -0.71555,-0.14044 -1.0625,-0.25 -0.23253,-0.0734 -0.45617,-0.1729 -0.6875,-0.25 -0.21094,-0.0703 -0.57812,-0.1094 -0.75,-0.1875 -0.0805,-0.0366 -0.1084,-0.148 -0.1875,-0.1875 -0.095,-0.0475 -0.21172,-0.0289 -0.3125,-0.0625 -0.0884,-0.0295 -0.1608,-0.0982 -0.25,-0.125 -0.12138,-0.0364 -0.25206,-0.0318 -0.375,-0.0625 -0.51288,-0.12822 -1.19396,-0.44479 -1.5,-0.5625 -0.30604,-0.11771 -0.27851,-0.17413 -0.4375,-0.1875 -0.15899,-0.0134 -0.62761,0.0525 -0.80469,0.36328 -0.084,0.0403 -0.24281,0.27252 -0.32031,0.32422 -0.017,0.0113 -0.3545,0.292 -0.375,0.3125 -0.0147,0.0147 0.0147,0.0478 0,0.0625 -0.0295,0.0295 -0.0877,-0.0186 -0.125,0 -0.0527,0.0263 -0.0703,0.1031 -0.125,0.125 -0.7743,0.3095 0.53112,-0.38385 -0.6875,0.3125 -0.30331,0.15166 -0.7905,0.25617 -1.0625,0.4375 -0.17642,0.11761 -0.32033,0.31772 -0.5,0.4375 -0.27647,0.18431 -0.54492,0.32161 -0.8125,0.5 -0.13539,0.0903 -0.21714,0.273 -0.375,0.3125 -0.0606,0.0152 -0.1269,-0.0152 -0.1875,0 -0.0286,0.007 -0.0342,0.0545 -0.0625,0.0625 -0.32609,0.0932 -0.66427,0.1395 -1,0.1875 -0.32399,0.0463 -0.67847,0.009 -1,0.0625 -0.0291,0.005 -0.0336,0.0565 -0.0625,0.0625 -0.23896,0.0478 -0.50804,0.0279 -0.75,0.0625 -0.22801,0.0326 -0.45921,0.159 -0.6875,0.1875 -0.20672,0.0258 -0.4195,-0.0342 -0.625,0 -0.59116,0.0985 -0.88958,0.43083 -1.375,0.625 -0.37238,0.14895 -0.81315,0.2024 -1.1875,0.3125 -0.3124,0.0919 -0.81544,0.3131 -1.125,0.375 -0.39244,0.0785 -0.79065,0.1706 -1.1875,0.25 -0.23292,0.0466 -0.45273,0.1514 -0.6875,0.1875 -0.20591,0.0317 -0.41667,0 -0.625,0 h -1.625 c -2.15409,0 -4.35711,-0.1271 -6.5,0.125 -0.94351,0.111 0.0352,0.012 -0.8125,0.125 -0.39486,0.0527 -0.88117,0.003 -1.25,0.1875 -0.40698,0.2035 0.12459,0.0626 -0.25,0.1875 -0.27482,0.0916 -0.24428,0.017 -0.5,0.1875 -0.0867,0.0578 -0.1763,0.1138 -0.25,0.1875 -0.0329,0.0329 -0.0237,0.0992 -0.0625,0.125 -0.0347,0.0231 -0.0877,-0.0186 -0.125,0 -0.0932,0.0466 -0.1667,0.125 -0.25,0.1875 -0.12669,0.095 -0.2979,0.3604 -0.375,0.4375 -0.0329,0.0329 -0.0862,0.0367 -0.125,0.0625 -0.27143,0.18095 -0.79317,0.67897 -1,0.9375 -0.13841,0.17302 -0.23619,0.39593 -0.375,0.5625 -0.1838,0.22056 -0.4402,0.44289 -0.5625,0.6875 -0.0527,0.10541 -0.1875,0.1501 -0.25,0.25 -0.0595,0.0951 -0.0693,0.2151 -0.125,0.3125 -0.0292,0.0512 -0.0923,0.076 -0.125,0.125 -0.044,0.066 -0.3422,0.566 -0.375,0.625 -0.077,0.1387 -0.0965,0.30752 -0.1875,0.4375 -0.11947,0.17067 -0.26315,0.32424 -0.375,0.5 -0.024,0.0376 -0.0851,0.2726 -0.125,0.3125 -0.12077,0.1208 -0.26188,0.1121 -0.375,0.1875 -0.049,0.0327 -0.0745,0.0947 -0.125,0.125 -0.0565,0.0339 -0.125,0.0417 -0.1875,0.0625 -0.0417,0 -0.0877,-0.0186 -0.125,0 -0.0527,0.0263 -0.0745,0.0947 -0.125,0.125 -0.21202,0.12721 -0.51501,0.2498 -0.75,0.3125 -0.18559,0.0495 -0.38416,0.0537 -0.5625,0.125 -0.0432,0.0173 -0.0417,0.0833 -0.0625,0.125 -0.0751,0.15023 -0.1969,0.27816 -0.25,0.4375 -0.1276,0.38279 -0.1518,0.92014 -0.15625,1.03125 0.16457,0.18335 0.39328,0.52771 0.59375,0.96875 0.0172,0.0379 -0.0132,0.0855 0,0.125 0.20459,0.61378 0.35732,1.25947 0.5625,1.875 0.0272,0.0815 0.0241,0.17317 0.0625,0.25 0.0466,0.0932 0.12972,0.16333 0.1875,0.25 0.18726,0.28089 0.27229,0.64012 0.4375,0.9375 0.19631,0.35337 0.48138,0.65647 0.6875,1 0.0816,0.13605 0.10755,0.30045 0.1875,0.4375 0.17761,0.30447 0.42125,0.661 0.5625,1 0.0507,0.12163 0.0661,0.25715 0.125,0.375 0.10722,0.21443 0.33028,0.41057 0.4375,0.625 0.0384,0.0768 0.0241,0.17317 0.0625,0.25 0.0833,0.16665 0.22917,0.27085 0.3125,0.4375 0.0295,0.0589 0.0417,0.125 0.0625,0.1875 0.0625,0.125 0.11816,0.25366 0.1875,0.375 0.21031,0.36804 0.55012,0.70272 0.75,1.0625 0.0417,0.0751 0.0241,0.17317 0.0625,0.25 0.0597,0.11932 0.18137,0.19811 0.25,0.3125 0.21141,0.35234 0.41359,0.71016 0.625,1.0625 0.0773,0.12882 0.20249,0.23248 0.25,0.375 0.0198,0.0593 -0.028,0.1316 0,0.1875 0.0859,0.17182 0.33398,0.33732 0.4375,0.5 0.63723,1.00136 0.044,0.12353 0.3125,0.75 0.0674,0.15715 0.39731,0.48882 0.4375,0.5625 0.0509,0.0933 0.0252,0.21303 0.0625,0.3125 0.0879,0.23454 0.27281,0.45756 0.375,0.6875 0.13528,0.30439 0.31924,1.04045 0.375,1.375 0.048,0.28795 0.0214,0.5871 0.0625,0.875 0.045,0.31472 0.16285,0.61707 0.1875,0.9375 0.0112,0.1454 -0.0145,0.29239 0,0.4375 0.007,0.0656 0.0532,0.12228 0.0625,0.1875 0.0118,0.0825 0,0.16667 0,0.25 0.0208,0.14583 0.0383,0.29219 0.0625,0.4375 0.1081,0.64861 0.004,-0.0449 0.1875,0.6875 0.0101,0.0404 0,0.0833 0,0.125 0.0208,0.10417 0.0313,0.21097 0.0625,0.3125 0.17351,0.5639 0.35823,1.14277 0.5625,1.6875 0.0979,0.26116 0.0509,0.39092 0.125,0.6875 0.0591,0.23657 0.17829,0.45444 0.25,0.6875 0.16687,0.54232 0.14761,0.60574 0.375,1.25 0.24787,0.7023 0.54398,1.40394 0.75,2.125 0.0348,0.12185 0.034,0.25152 0.0625,0.375 0.15394,0.66707 0.33303,1.35747 0.5625,2 0.0534,0.14942 0.14191,0.28553 0.1875,0.4375 0.0419,0.13968 -0.0261,0.29402 0,0.4375 0.0894,0.49174 0.34461,0.97304 0.4375,1.4375 0.0895,0.44763 0.0746,0.9235 0.1875,1.375 0.016,0.0639 0.0417,0.125 0.0625,0.1875 0.0417,0.0833 0.0994,0.16042 0.125,0.25 0.0557,0.1949 -0.0218,0.49126 0,0.6875 0.0744,0.66988 0.0237,-0.03 0.125,0.375 0.0533,0.21326 -0.031,0.47038 0,0.6875 0.0304,0.21294 0.0902,0.41606 0.125,0.625 0.0762,0.45737 0,1.25872 0,1.75 0.0417,0.22917 0.0978,0.45617 0.125,0.6875 0.0316,0.26898 0,0.54167 0,0.8125 0,0.53896 0.0189,1.09455 0.125,1.625 0.12093,0.60465 0.11511,0.28283 0.3125,0.875 0.16425,0.49275 0.20514,0.99899 0.3125,1.5 0.0858,0.40035 0.33991,0.73462 0.4375,1.125 0.11475,0.45902 0.18479,0.91525 0.3125,1.375 0.18199,0.65518 0.42532,1.28855 0.625,1.9375 0.19667,0.63919 0.37042,1.29724 0.5625,1.9375 0.0903,0.30101 0.1261,0.63051 0.1875,0.9375 0.0337,0.16846 0.10603,0.32925 0.125,0.5 0.0388,0.34943 -0.0436,0.7137 0,1.0625 0.0643,0.51399 0.0753,-0.0333 0.125,0.5625 0.0173,0.20761 -0.0343,0.4195 0,0.625 0.16713,1.00277 0.0625,2.10125 0.0625,3.125 0,0.55311 0.055,1.13785 0,1.6875 -0.007,0.0656 -0.0517,0.12252 -0.0625,0.1875 -0.0965,0.57868 -0.11763,1.17642 -0.25,1.75 -0.39003,1.69013 0.10458,-0.55011 -0.25,0.75 -0.0993,0.36407 -0.0346,0.48333 -0.125,0.875 -0.0252,0.10932 -0.0942,0.20463 -0.125,0.3125 -0.0518,0.1814 -0.0167,0.37948 -0.0625,0.5625 -0.16283,0.6513 -0.43802,1.27362 -0.5625,1.9375 -0.13059,0.69647 -0.22456,1.42145 -0.3125,2.125 -0.0255,0.2043 0.0338,0.42217 0,0.625 -0.0655,0.39268 -0.19983,0.78617 -0.25,1.1875 -0.0543,0.43435 -0.0144,0.87915 -0.0625,1.3125 -0.028,0.2519 -0.10395,0.49743 -0.125,0.75 -0.0104,0.12457 0.0146,0.25086 0,0.375 -0.0652,0.55446 -0.22163,1.07978 -0.3125,1.625 -0.0544,0.32623 -0.0708,0.6747 -0.125,1 -0.0108,0.065 -0.0417,0.125 -0.0625,0.1875 -0.0208,0.0833 -0.0503,0.16497 -0.0625,0.25 -0.0147,0.10312 0.0253,0.21144 0,0.3125 -0.0897,0.3589 -0.0718,-0.20982 -0.125,0.375 -0.0208,0.22823 0.0556,0.46518 0,0.6875 -0.0848,0.33904 -0.125,0.19341 -0.125,0.5 v 7.25 c 0,0.51394 0.0426,1.05125 0,1.5625 -0.0275,0.32955 -0.12255,0.67524 -0.1875,1 -0.057,0.28516 -0.0877,0.60054 -0.1875,0.875 -0.18012,0.49534 -0.43057,0.95141 -0.625,1.4375 -0.18835,0.47088 -0.22603,1.01585 -0.375,1.5 -0.069,0.22437 -0.24328,0.54235 -0.3125,0.75 -0.0336,0.10078 -0.0194,0.21543 -0.0625,0.3125 -0.0423,0.0952 -0.13691,0.15894 -0.1875,0.25 -0.10304,0.18547 -0.20002,0.56673 -0.25,0.75 -0.0226,0.0829 -0.0417,0.16667 -0.0625,0.25 0,0.10417 0.0226,0.21081 0,0.3125 -0.0937,0.42188 -0.10937,0.10156 -0.1875,0.375 -0.17489,0.61212 -0.22589,1.0812 -0.3125,1.6875 -0.034,0.23813 -0.19314,0.46006 -0.25,0.6875 -0.0656,0.2625 0.16406,0 0,0.4375 -0.031,0.0828 -0.14202,0.11171 -0.1875,0.1875 -0.0214,0.0357 0.0186,0.0877 0,0.125 -0.0597,0.11932 -0.19034,0.19318 -0.25,0.3125 -0.12847,0.25694 -0.0187,0.11199 -0.0625,0.375 -0.0217,0.12997 -0.0992,0.2458 -0.125,0.375 -0.024,0.12019 0.024,0.25481 0,0.375 -0.006,0.0289 -0.0532,0.0345 -0.0625,0.0625 -0.0567,0.17002 0.0127,0.53448 0,0.6875 -0.0174,0.20865 -0.0365,0.41724 -0.0625,0.625 -0.0498,0.39808 -0.19974,0.78542 -0.25,1.1875 -0.0204,0.16277 0.0321,0.3396 0,0.5 -0.0442,0.22092 -0.125,0.39262 -0.125,0.625 0,0.0417 -0.0414,0.1196 0,0.125 0.55869,0.0729 3.12565,-0.0885 4.68674,-0.0276 z"
         id="path14" />
    </g>
  </g>
</svg>
