<?xml version="1.0" encoding="UTF-8" standalone="no"?>
<!-- Created with Inkscape (http://www.inkscape.org/) -->

<svg
   version="1.1"
   id="svg1"
   width="173.06372"
   height="131.34004"
   viewBox="0 0 173.06372 131.34004"
   xmlns="http://www.w3.org/2000/svg"
   xmlns:svg="http://www.w3.org/2000/svg">
  <defs
     id="defs1" />
  <g
     id="layer1"
     style="display:inline"
     transform="translate(-853.12498,-487.28495)">
    <g
       id="layer30"
       style="display:inline;fill:#ffffff;fill-opacity:1;stroke:none">
      <path
         style="fill:#ffffff;fill-opacity:1;stroke:none;stroke-width:1;stroke-linecap:round;stroke-dasharray:none;stroke-opacity:1"
         d="m 853.12498,505.64061 1.84375,0.40625 3.75,-2.20312 1.32812,-3.73438 2.79688,-2.17187 7.1875,0.71875 15.125,-2.5 3.59375,-3.375 22.18031,3.16577 30.93592,2.82842 64.52349,-11.49048 4.773,4.24264 0.8839,3.53553 4.5078,4.33103 9.6343,1.67938 -0.5303,3.53553 -6.8059,11.66727 -9.8111,22.62741 -3.3588,14.4073 -5.2149,47.72971 -7.15947,9.104 -2.93325,0.94899 -2.75,2.53125 -6.375,2.1875 -2.40625,2.21875 -31.6875,0.59375 -17.3125,-1.40625 -15.6875,-3.5 -32.09375,-3.53125 -3.25,-1.9375 -15.09375,-0.21875 5.25,-26.65625 0.9375,-15.75 -1.40625,-20.09375 -6.84375,-21.03125 z"
         id="path27" />
    </g>
  </g>
</svg>
