<?xml version="1.0" encoding="UTF-8" standalone="no"?>
<!-- Created with Inkscape (http://www.inkscape.org/) -->

<svg
   version="1.1"
   id="svg1"
   width="64.4375"
   height="92.75"
   viewBox="0 0 64.4375 92.75"
   xmlns="http://www.w3.org/2000/svg"
   xmlns:svg="http://www.w3.org/2000/svg">
  <defs
     id="defs1" />
  <g
     id="layer1"
     style="display:inline"
     transform="translate(-667.49998,-281.74999)">
    <g
       id="layer31"
       style="display:inline;fill:#ffffff;fill-opacity:1;stroke:none">
      <path
         style="fill:#ffffff;fill-opacity:1;stroke:none;stroke-width:1;stroke-linecap:round;stroke-dasharray:none;stroke-opacity:1"
         d="m 667.68748,286.31249 8.125,-4.5625 2.8125,0.625 4.4375,5.0625 7,-0.25 2.6875,1.0625 2.5,2.5 11.0625,5.5 h 1.375 l 0.5,20.4375 5.375,1.625 3.5625,3.5625 3.125,7.375 4.0625,5.125 7.625,7.1875 -0.1875,8.375 -1.1875,5.25 -0.5,3.625 -7.8125,3.0625 -3.5,2.75 -4.1875,6.3125 -11.1875,3.5625 -4.8125,-4.9375 -4,3.125 -4.9375,-0.0625 -4.0625,-4.5625 -5.75,-17 -1.75,-2 -0.375,-1.5625 -3.25,-0.8125 -2.6875,-6.3125 -0.0625,-3.3125 -4.1875,-5.1875 z"
         id="path28" />
    </g>
  </g>
</svg>
