<?xml version="1.0" encoding="UTF-8" standalone="no"?>
<!-- Created with Inkscape (http://www.inkscape.org/) -->

<svg
   version="1.1"
   id="svg2"
   width="65.416801"
   height="93.794724"
   viewBox="0 0 65.416801 93.794724"
   xmlns="http://www.w3.org/2000/svg"
   xmlns:svg="http://www.w3.org/2000/svg">
  <defs
     id="defs6">
    <linearGradient
       id="swatch77">
      <stop
         style="stop-color:#e2c69e;stop-opacity:1;"
         offset="0"
         id="stop77" />
    </linearGradient>
  </defs>
  <g
     id="layer66"
     style="display:inline"
     transform="translate(-666.97844,-281.15417)">
    <g
       id="layer72"
       style="display:inline">
      <path
         style="fill:#969696;fill-opacity:1;stroke:none;stroke-opacity:1"
         d="m 667.33209,321.20318 c 0.2073,0.20727 -0.0208,-0.0625 0.0884,0.26517 0.16878,0.50525 0.0169,-0.53434 0.17678,0.26516 0.0347,0.17335 -0.0347,0.35699 0,0.53033 0.0298,0.14876 0.14697,0.2932 0.17677,0.44195 0.0398,0.19887 -0.0334,0.41857 0,0.61871 0.2667,1.60012 -0.0845,-1.10629 0.0884,0.7955 0.0638,0.70127 0.0895,1.42306 0.17678,2.12132 0.0628,0.50245 0.21916,0.99685 0.26516,1.5026 0.0267,0.29342 -0.0293,0.59072 0,0.88389 0.0299,0.29897 0.14358,0.58525 0.17678,0.88388 0.0688,0.61956 0.0494,1.2316 0.0884,1.85615 0.0187,0.29988 0.19448,0.58394 0.17678,0.88389 -0.0211,0.35781 -0.11793,0.70709 -0.17683,1.06064 0.23571,0 -0.0294,-0.0294 0.0884,0.0884 0.0531,0.053 0.19556,0.0723 0.26516,0.17677 0.0366,0.0548 0.0418,0.13018 0.0884,0.17678 0.0209,0.0208 0.0676,-0.0208 0.0884,0 0.33527,0.33527 0.0495,0.17089 0.26517,0.53033 0.0429,0.0715 0.13387,0.10528 0.17677,0.17678 0.54377,0.90628 -0.69906,-0.69638 0.35356,0.7071 0.32904,0.43874 0.72031,0.82191 0.97227,1.32583 0.15982,0.31964 0.28479,0.65797 0.44194,0.97227 0.0475,0.095 0.13728,0.16657 0.17678,0.26517 0.0219,0.0547 -0.0264,0.12407 0,0.17677 0.16083,0.32167 0.47705,0.55333 0.61871,0.88389 0.12117,0.28273 0.15475,0.59678 0.26517,0.88388 0.0381,0.0992 0.13498,0.16756 0.17678,0.26516 0.19163,0.44716 0.27093,0.9582 0.44194,1.41422 0.19433,0.51821 0.39,1.08781 0.61872,1.59099 0.29605,0.6512 0.0907,-0.21287 0.35355,0.7071 0.0162,0.0567 -0.0186,0.12088 0,0.17678 0.0466,0.13976 0.19926,0.22179 0.26516,0.35355 0.0834,0.16667 0.10108,0.36006 0.17678,0.53034 0.24727,0.55634 0.54646,1.17323 0.88388,1.67937 0.0462,0.0693 0.13388,0.10528 0.17678,0.17678 0.42965,0.71611 -0.48854,-0.34551 0.35355,0.70711 0.0184,0.023 0.0692,-0.0224 0.0884,0 0.16494,0.19243 0.29463,0.41248 0.44194,0.61872 0.0589,0.0884 0.10878,0.18356 0.17678,0.26516 0.08,0.096 0.19897,0.15917 0.26517,0.26517 0.15379,0.24606 0.20426,0.54667 0.35355,0.79549 0.10931,0.18218 0.25182,0.34381 0.35355,0.53033 0.076,0.13929 0.0816,0.31501 0.17678,0.44194 0.0884,0.11785 0.24939,0.161 0.35355,0.26517 0.27552,0.27551 0.23373,0.58727 0.44194,0.79549 0.10417,0.10417 0.26796,0.14529 0.35356,0.26517 0.0706,0.0989 0.0341,0.2449 0.0884,0.35355 0.11019,0.22038 0.42013,0.39834 0.53033,0.61872 0.0263,0.0527 -0.0264,0.12408 0,0.17678 0.10682,0.21364 0.40407,0.49668 0.53033,0.7071 0.22884,0.38141 0.39063,0.84644 0.61872,1.23744 0.44547,0.76368 0.94352,1.49527 1.32582,2.2981 0.13643,0.2865 0.20311,0.60449 0.35355,0.88388 0.13969,0.25941 0.54033,0.33284 0.53033,0.70711 0.14192,0.28382 0.19945,0.60649 0.35356,0.88388 0.252,0.45361 0.28176,0.22658 0.44194,0.70711 0.0186,0.0559 -0.0219,0.12207 0,0.17677 0.13728,0.34321 0.43436,0.64965 0.61872,0.97228 0.16448,0.28784 0.26215,0.70258 0.44194,0.97227 0.18675,0.28012 0.47102,0.47548 0.61872,0.79549 0.11713,0.25379 0.15506,0.53859 0.26516,0.7955 0.13535,0.31581 0.35986,0.58556 0.53033,0.88388 0.22738,0.39792 0.34528,0.92929 0.53033,1.32583 0.58669,1.25718 -0.006,-0.25033 0.44194,0.79549 0.1865,0.43515 0.33683,1.08212 0.44195,1.5026 0.0143,0.0572 -0.0186,0.12088 0,0.17678 0.0539,0.16168 0.90757,1.96823 0.97227,2.03293 0.0466,0.0466 0.12537,0.0472 0.17677,0.0884 0.0976,0.0781 0.16647,0.18847 0.26517,0.26517 1.48994,1.15884 2.52929,0.88388 4.24264,0.88388 0.21089,0 1.06185,0.0878 1.23744,0 0.52045,-0.26023 0.94395,-0.71944 1.32582,-1.14905 0.22878,-0.25738 1.07156,-1.58458 1.23744,-1.67938 0.10232,-0.0585 0.2357,0 0.35355,0 0.0589,0 0.12778,-0.0327 0.17678,0 0.54224,0.3615 0.93568,0.64157 1.5026,0.97227 0.31065,0.18122 0.5695,0.44407 0.88389,0.61872 0.38269,0.21261 0.80198,0.3295 1.14904,0.61872 0.29355,0.24463 0.40333,0.5083 0.61872,0.7955 0.51785,0.69046 1.13155,1.14838 1.14905,2.12132 l 0.26517,0.88388 c 0.86819,0.0376 1.73975,-0.11827 2.56326,-0.35355 0.25599,-0.0731 0.56563,-0.11193 0.79549,-0.26517 0.0245,-0.0163 0,-0.0589 0,-0.0884 0.0589,-0.0589 0.10748,-0.13057 0.17678,-0.17677 0.0245,-0.0163 0.0589,0 0.0884,0 0.0589,-0.0295 0.13017,-0.0418 0.17677,-0.0884 0.0466,-0.0466 0.0589,-0.11788 0.0884,-0.17678 0.11785,-0.0589 0.24815,-0.0977 0.35356,-0.17678 0.0236,-0.0177 -0.0208,-0.0676 0,-0.0884 0.16965,-0.16966 0.48938,-0.42147 0.7071,-0.53033 0.26725,-0.13363 0.55452,-0.23307 0.7955,-0.35356 0.0985,-0.0492 0.56724,-0.0418 0.7071,-0.0884 0.0395,-0.0132 0.0589,-0.0589 0.0884,-0.0884 0.0884,-0.0295 0.17477,-0.0658 0.26517,-0.0884 0.52287,-0.13072 1.06523,-0.22212 1.59099,-0.35356 0.10404,-0.026 1.4381,-0.99616 1.5026,-1.06066 0.0751,-0.0751 0.10168,-0.19006 0.17678,-0.26516 0.0531,-0.0531 0.27145,0.0164 0.35355,0 0.22511,-0.045 0.52968,-0.14688 0.70711,-0.26517 0.0693,-0.0462 0.10227,-0.13947 0.17677,-0.17677 0.0527,-0.0263 0.12778,0.0327 0.17678,0 0.0548,-0.0365 0.0518,-0.12198 0.0884,-0.17678 0.17538,-0.26305 0.12151,0.11054 0.35355,-0.35355 0.0844,-0.16904 0.0295,-0.44221 0.0884,-0.61872 0.0417,-0.125 0.11788,-0.2357 0.17678,-0.35355 0.13713,-0.27427 0.34092,-0.63134 0.53033,-0.88389 0.05,-0.0667 0.13387,-0.10527 0.17677,-0.17677 0.0479,-0.0799 0.0367,-0.18767 0.0884,-0.26517 0.0693,-0.10401 0.18517,-0.16916 0.26517,-0.26516 0.14179,-0.17016 0.2252,-0.3592 0.35355,-0.53033 0.38531,-0.51375 0.97256,-0.79579 1.41421,-1.23744 0.10984,-0.10984 0.45183,-0.55019 0.53033,-0.70711 0.0915,-0.18297 0.26557,-0.66951 0.44195,-0.79549 0.34847,-0.24891 0.93651,-0.51245 1.32582,-0.70711 0.85365,-0.42682 -0.16483,0.11387 0.44194,-0.0884 0.4054,-0.13513 0.79074,-0.48316 1.14905,-0.70711 0.66468,0.25859 0.16116,-0.19586 0.26517,-0.26516 0.0775,-0.0517 0.19066,-0.0325 0.26516,-0.0884 0.0527,-0.0395 0.0489,-0.12408 0.0884,-0.17678 0.18166,-0.24221 0.83996,-0.83985 1.06066,-0.97227 0.0505,-0.0303 0.11958,0.0143 0.17678,0 0.18575,-0.0464 0.26046,-0.20466 0.44194,-0.26516 0.13258,-0.0442 0.0884,0.0884 0.26516,0 0.0745,-0.0373 0.10748,-0.13058 0.17678,-0.17678 0.1261,-0.0844 0.37906,-0.0581 0.53033,-0.0884 0.24883,-0.0498 0.4714,-0.18656 0.70711,-0.26516 0.0559,-0.0186 0.12407,0.0263 0.17677,0 0.16081,-0.0804 0.54706,-0.30016 0.70711,-0.35356 0.16035,-0.0534 0.36496,-0.047 0.53033,-0.0884 0.42682,-0.10668 -0.004,-0.042 0.26517,-0.17678 0.0848,-0.0424 0.26865,0.0283 0.35355,0 0.3026,0.13577 0.28828,-0.18837 0.44194,-0.26517 0.0527,-0.0263 0.13508,0.0417 0.17678,0 0.0208,-0.0208 -0.0245,-0.072 0,-0.0884 l 0.0883,-0.0882 c 0.622,0.18254 0.15787,-0.77917 0.17677,-0.88389 0.0747,-0.41406 0.34282,-0.77403 0.53033,-1.14904 0.40836,-0.81672 0.47887,-1.71892 0.7955,-2.56327 0.24167,-0.64445 0.45188,-1.30649 0.7071,-1.94454 0.12288,-0.3072 0.33728,-0.48149 0.44195,-0.7955 0.10535,-0.31606 0.0485,-0.77961 0.26516,-1.06066 l 0.79557,-10.1646 c 0,-0.0295 0.0208,-0.0676 0,-0.0884 -0.0209,-0.0208 -0.0592,0.004 -0.0884,0 -0.17742,-0.0254 -0.35647,-0.0449 -0.53033,-0.0884 -0.43009,-0.10752 -0.86459,-0.34391 -1.23744,-0.53033 -0.35391,-0.17696 -0.69991,-0.58686 -1.06066,-0.70711 -0.0559,-0.0186 -0.12408,0.0263 -0.17678,0 -0.27775,-0.13887 -0.0592,-0.20626 -0.35355,-0.26516 -0.22775,-0.0456 -0.42256,-0.046 -0.61872,-0.17678 -0.10198,-0.068 -0.16318,-0.19717 -0.26516,-0.26517 -0.6154,-0.41026 -1.24027,-0.79832 -1.76777,-1.32582 -0.29497,-0.29497 -0.65169,-0.61673 -0.97227,-0.88388 -0.0506,-0.0422 -0.13388,-0.0384 -0.17678,-0.0884 -0.13826,-0.16131 -0.2124,-0.37154 -0.35355,-0.53033 -0.0979,-0.11011 -0.23852,-0.17317 -0.35355,-0.26517 -0.27614,-0.22091 -0.56576,-0.5198 -0.7955,-0.79549 -0.10601,-0.12722 -0.23343,-0.41021 -0.35355,-0.53033 -0.57736,-0.57736 0.28222,0.52955 -0.35356,-0.26517 -0.0664,-0.0829 -0.0969,-0.19516 -0.17677,-0.26516 -0.2733,-0.23914 -0.43731,-0.2303 -0.61872,-0.44195 -0.55447,-0.64687 -1.17806,-1.37803 -1.59099,-2.12132 -0.0286,-0.0515 0.0377,-0.13147 0,-0.17677 -0.12077,-0.14493 -0.31771,-0.21158 -0.44194,-0.35356 -0.10935,-0.12496 -0.29446,-0.67736 -0.35356,-0.79549 -0.11617,-0.23235 -0.32577,-0.47476 -0.44194,-0.70711 -0.15606,-0.31212 -0.35974,-0.73186 -0.44194,-1.06066 -0.0435,-0.17386 -0.0255,-0.36252 -0.0884,-0.53033 -0.0293,-0.0781 -0.13388,-0.10537 -0.17678,-0.17677 -0.27068,-0.45115 -0.51765,-1.35086 -0.61871,-1.85616 -0.0231,-0.11556 0.0211,-0.2376 0,-0.35355 -0.0726,-0.399 -0.24849,-0.69291 -0.35356,-1.06066 -0.0572,-0.20032 0.005,-0.43238 -0.0884,-0.61872 -0.17313,-0.34627 -0.44718,-0.7176 -0.61871,-1.06066 -0.0417,-0.0833 -0.0589,-0.17677 -0.0884,-0.26517 0,-0.0589 0.0219,-0.12207 0,-0.17677 -0.0394,-0.0986 -0.12928,-0.17017 -0.17678,-0.26517 -0.0543,-0.10865 0.1811,-0.29095 -0.0884,-0.35355 -0.17223,-0.34448 -0.36474,-0.72948 -0.53033,-1.06066 -0.18377,-0.36786 0.006,0.0945 -0.17677,-0.0884 -0.12148,-0.12148 -0.15785,-0.30779 -0.26517,-0.44194 -0.0713,-0.0891 -0.24662,-0.38844 -0.35355,-0.44194 -0.0264,-0.0132 -0.0676,0.0208 -0.0884,0 -0.0751,-0.0751 -0.0939,-0.19877 -0.17678,-0.26517 -0.0728,-0.0582 -0.18526,-0.0405 -0.26516,-0.0884 -0.21897,-0.13138 -0.28035,-0.36873 -0.44194,-0.53033 -0.36748,-0.36747 -0.80733,-0.50876 -1.23744,-0.79549 -0.0548,-0.0366 -0.0418,-0.13018 -0.0884,-0.17678 -0.10251,-0.10251 -1.21344,-0.43794 -1.23744,-0.44194 -0.39051,-0.071 -2.2808,-0.0607 -2.47487,0 -0.31441,0.0983 -0.58925,0.29463 -0.88388,0.44194 L 708.3052,297.4286 708.25,297.375 c -0.18324,0 -0.1255,0.21006 -0.3125,-0.125 -0.0618,-0.1107 -0.2768,0.10713 -0.375,-0.0625 -0.2622,-0.11237 -0.50032,-0.36129 -0.75,-0.5 -0.18938,-0.10521 -0.45829,-0.17358 -0.625,-0.3125 -0.16685,-0.13904 -0.26526,-0.27166 -0.4375,-0.375 -0.54517,-0.3271 0.27448,0.34332 -0.4375,-0.25 -0.10681,-0.089 -0.19327,-0.241 -0.3125,-0.3125 -0.0799,-0.0479 -0.1742,-0.0709 -0.25,-0.125 -0.28904,-0.20646 -0.42954,-0.58977 -0.75,-0.75 -0.10363,-0.0518 -0.3392,-0.0959 -0.4375,-0.125 -1.42095,-0.42102 -1.27384,-0.38295 -2.5625,-0.8125 -0.3125,-0.10417 -0.64287,-0.16519 -0.9375,-0.3125 -0.14554,-0.0728 -0.23373,-0.2318 -0.375,-0.3125 -0.33351,-0.19058 -0.45653,-0.21522 -0.8125,-0.5 -0.18767,-0.15013 -0.16824,-0.29324 -0.3125,-0.4375 -0.2269,-0.2269 -0.58214,-0.33214 -0.8125,-0.5625 -0.0147,-0.0147 0.0147,-0.0478 0,-0.0625 -0.0531,-0.0531 -0.1344,-0.0719 -0.1875,-0.125 -0.11914,-0.11914 -0.16331,-0.22581 -0.3125,-0.375 -0.0779,-0.0779 -0.3314,-0.0753 -0.3125,-0.25 -0.0878,-0.10039 -0.1513,-0.2228 -0.25,-0.3125 -0.5898,-0.5362 -0.25017,-0.13763 -0.625,-0.4375 -0.12995,-0.10396 -0.23408,-0.2869 -0.375,-0.375 -0.11851,-0.0741 -0.26128,-0.1063 -0.375,-0.1875 -0.10855,-0.0775 -0.0172,-0.3321 -0.25,-0.3125 -0.0548,-0.0365 -0.1327,-0.026 -0.1875,-0.0625 -0.0735,-0.049 -0.1156,-0.1361 -0.1875,-0.1875 -0.4375,-0.3125 -0.0937,0 -0.375,-0.1875 -0.14912,-0.0994 -0.29167,-0.20833 -0.4375,-0.3125 -0.10417,-0.0417 -0.2144,-0.0705 -0.3125,-0.125 -0.5993,-0.33295 0.18906,-0.0617 -0.6875,-0.5 -0.095,-0.0475 -0.2144,-0.0216 -0.3125,-0.0625 -0.15504,-0.0646 -0.28727,-0.1749 -0.4375,-0.25 -0.53552,-0.26776 -1.06466,-0.53256 -1.5625,-0.875 l 0.3125,0.0625 c -0.0673,0 -0.222,0.1821 -0.3125,0.25 -0.0601,0.0451 -0.125,0.0833 -0.1875,0.125 -0.0208,0 -0.0439,-0.009 -0.0625,0 -0.2847,0.14235 -0.51513,0.36783 -0.8125,0.5 -0.0597,0.0265 -0.4216,0.1718 -0.5,0.1875 -0.0409,0.008 -0.0877,-0.0186 -0.125,0 -0.2794,0.1397 0.0515,0.142 -0.3125,0.1875 -0.43582,0.0545 -1.40377,-0.004 -1.8125,-0.0625 -0.0922,-0.0132 -0.1608,-0.0982 -0.25,-0.125 -0.16455,-0.0494 -0.3326,-0.0864 -0.5,-0.125 -0.3204,-0.0739 -0.62723,-0.14658 -0.9375,-0.25 -0.0713,-0.0238 -0.1146,-0.1068 -0.1875,-0.125 -0.0809,-0.0202 -0.1807,0.0462 -0.25,0 -0.10816,-0.0721 -0.19583,-0.1917 -0.3125,-0.25 -0.33416,-0.16708 -0.3888,-0.19854 -0.6875,-0.4375 -0.0364,-0.0291 -0.0921,-0.0296 -0.125,-0.0625 -0.11177,-0.11177 -0.17498,-0.27186 -0.3125,-0.375 -0.14174,-0.10631 -0.38035,-0.25535 -0.5,-0.375 -0.12926,-0.12926 -0.14749,-0.23749 -0.3125,-0.375 -0.14963,-0.12469 -0.36227,-0.17477 -0.5,-0.3125 -0.0329,-0.0329 -0.0334,-0.0886 -0.0625,-0.125 -0.12529,-0.15661 -0.32633,-0.27075 -0.4375,-0.4375 -0.20719,-0.31078 -0.37362,-0.65021 -0.625,-0.9375 -0.0495,-0.0565 -0.1406,-0.0663 -0.1875,-0.125 -0.0731,-0.0914 -0.1098,-0.27134 -0.1875,-0.375 -0.133,-0.1773 -0.15132,-0.0801 -0.3125,-0.1875 -0.13539,-0.0903 -0.18544,-0.27335 -0.3125,-0.375 -0.10913,-0.0873 -0.25649,-0.1134 -0.375,-0.1875 -0.17927,-0.11204 -0.31865,-0.3166 -0.5,-0.4375 -0.18095,-0.12064 -0.45012,-0.11884 -0.625,-0.25 -0.10672,-0.08 -0.0207,-0.3274 -0.25,-0.3125 -0.12505,-0.075 -0.29167,0 -0.4375,0 -0.22514,0 -0.66103,-0.0802 -0.875,0.0625 -0.10154,0.0677 -0.4855,0.423 -0.5625,0.5 -0.0147,0.0147 0.0177,0.0515 0,0.0625 -0.34447,0.21529 -0.79225,0.32482 -1.125,0.5625 -0.23253,0.16609 -0.40843,0.43937 -0.625,0.625 -0.26669,0.22859 -0.59228,0.36056 -0.875,0.5625 -0.10506,0.075 -0.84623,0.59622 -1,0.75 -0.0531,0.0531 -0.0649,0.1424 -0.125,0.1875 -0.1118,0.0838 -0.25283,0.1196 -0.375,0.1875 -0.41383,0.2299 -0.82501,0.5175 -1.25,0.6875 -0.56727,0.22691 -1.51595,-0.0394 -2.125,0.0625 l -0.49748,-0.0315 c 0.0589,0.17678 0.15042,0.34587 0.17677,0.53033 0.0908,0.63584 0,1.39001 0,2.03294 v 3.97747 c 0,0.8286 0.11074,2.05326 0,2.82843 -0.0264,0.18446 -0.1599,0.34476 -0.17677,0.53033 -0.0213,0.23473 0.0213,0.47237 0,0.70711 -0.0246,0.27051 -0.14309,0.52595 -0.17678,0.79549 -0.0472,0.37774 -0.0414,0.77287 -0.0884,1.14905 -0.0337,0.26954 -0.12818,0.52824 -0.17677,0.79549 -0.0872,0.47971 -0.10926,0.94159 -0.17678,1.41422 -0.0582,0.40711 -0.21425,0.83013 -0.26517,1.23743 -0.0508,0.40631 0.0408,0.82985 0,1.23744 -0.20665,2.06658 -0.0884,4.19333 -0.0884,6.27557 v 7.24785 2.47487 c 0,0.38302 0.0542,0.76988 0,1.14905 -0.0344,0.24052 -0.17678,0.46415 -0.17678,0.70711 0,0.0932 0.0701,0.1738 0.0884,0.26516 0.0515,0.25753 -0.11922,0.73384 0,0.97227 0.0695,0.13904 0.0884,0.10022 0.0884,0.26517"
         id="path63" />
    </g>
  </g>
</svg>
