<?xml version="1.0" encoding="UTF-8" standalone="no"?>
<!-- Created with Inkscape (http://www.inkscape.org/) -->

<svg
   version="1.1"
   id="svg2"
   width="86.29673"
   height="78.103935"
   viewBox="0 0 86.29673 78.103935"
   xmlns="http://www.w3.org/2000/svg"
   xmlns:svg="http://www.w3.org/2000/svg">
  <defs
     id="defs6">
    <linearGradient
       id="swatch77">
      <stop
         style="stop-color:#e2c69e;stop-opacity:1;"
         offset="0"
         id="stop77" />
    </linearGradient>
  </defs>
  <g
     id="layer66"
     style="display:inline"
     transform="translate(-367.77635,-128.30799)">
    <g
       id="layer30"
       style="display:inline">
      <path
         style="fill:#969696;fill-opacity:1;stroke:none;stroke-width:1;stroke-dasharray:none;stroke-opacity:1"
         d="m 386.0803,140.89103 c -0.0417,0.0417 0.0263,0.12407 0,0.17677 -0.0983,0.19668 -1.05305,0.63331 -1.23744,0.70711 -0.8204,0.32816 -0.0138,0.19056 -0.35355,0.53033 -0.0589,0.0589 -0.47143,0.11788 -0.53033,0.17678 -0.0417,0.0417 0,0.11787 0,0.17677 -0.0589,0.0589 -0.11788,0.11788 -0.17678,0.17678 -0.21845,0.14563 -0.93869,0.52415 -1.06066,0.70711 -0.0731,0.10963 -0.0836,0.26035 -0.17677,0.35355 -0.0417,0.0417 -0.13508,-0.0417 -0.17678,0 -0.0417,0.0417 0.0417,0.13508 0,0.17678 -0.18634,0.18634 -0.48784,0.20737 -0.70711,0.35355 -0.0693,0.0462 -0.11787,0.11788 -0.17677,0.17678 0,0.0589 0.0417,0.13507 0,0.17677 -0.0417,0.0417 -0.12408,-0.0264 -0.17678,0 -0.17084,0.0854 -0.62171,0.53627 -0.70711,0.70711 -0.0263,0.0527 0.0417,0.13508 0,0.17678 -0.0417,0.0417 -0.12777,-0.0327 -0.17677,0 -0.44153,0.29435 -0.33939,0.69294 -0.53033,0.88388 -0.0417,0.0417 -0.13508,-0.0417 -0.17678,0 -0.0932,0.0932 -0.0836,0.26035 -0.17678,0.35355 -0.0417,0.0417 -0.12407,-0.0264 -0.17677,0 -0.73571,0.36786 0.18898,-0.0122 -0.17678,0.35356 -0.0932,0.0932 -0.26035,0.0836 -0.35355,0.17677 -0.0417,0.0417 0.0417,0.13508 0,0.17678 -0.0932,0.0932 -0.26036,0.0836 -0.35356,0.17678 -0.2457,0.2457 -0.39268,0.78536 -0.53033,1.06066 -0.16272,0.32545 -0.3676,0.0281 -0.53033,0.35355 -0.12197,0.24384 0.21409,0.15812 -0.17677,0.35355 -0.43543,0.21768 0.15958,-0.51313 -0.53033,0.17678 -0.11995,0.11994 0.0809,0.54532 0,0.70711 -0.17478,0.35032 -0.0429,0.30549 -0.17678,0.7071 -0.0527,0.15812 -0.27905,0.20449 -0.35355,0.35356 -0.26139,0.52278 0.18745,1.38217 0,1.94454 -0.14362,0.43084 -0.20982,0.80622 -0.35356,1.23744 -0.0884,0.26516 0.0884,0.61872 0,0.88388 -0.0263,0.0791 -0.15047,0.0977 -0.17677,0.17678 -0.13696,0.41088 -0.1536,0.66075 -0.35356,1.06066 -0.31142,0.62284 0.31008,3.09215 0,3.71231 -0.22455,0.44913 -0.21128,-0.18104 -0.35355,0.53033 -0.0713,0.35652 0.11764,0.8845 0,1.23744 -0.0417,0.125 -0.14478,0.22572 -0.17678,0.35355 -0.0286,0.11433 0.0654,0.25545 0,0.35355 -0.0731,0.10958 -0.26035,0.0836 -0.35355,0.17678 -0.13178,0.13176 -0.0734,0.37529 -0.17678,0.53033 -0.1828,0.27421 -0.44513,0.54301 -0.53033,0.88388 -0.0286,0.11434 0.0527,0.24815 0,0.35356 -0.0264,0.0527 -0.13507,-0.0417 -0.17677,0 -0.18634,0.18634 -0.27026,0.4571 -0.35356,0.7071 -0.10887,0.32655 0.26975,0.0838 -0.17677,0.53033 -0.36576,0.36576 0.0143,-0.55892 -0.35356,0.17678 -0.10846,0.21692 -0.19362,0.4672 -0.35355,0.70711 -0.17678,0.26516 -0.35355,0.17677 -0.53033,0.53033 -0.0324,0.0647 0.0744,0.6327 0,0.7071 -0.0932,0.0932 -0.26035,0.0836 -0.35355,0.17678 -0.17678,0.17678 0,0.70711 -0.17678,0.88388 -0.0417,0.0417 -0.14408,-0.049 -0.17678,0 -0.74662,1.11994 0.16006,0.0418 -0.17677,0.88389 -0.20644,0.5161 -0.71317,1.07883 -0.88389,1.59099 -0.0373,0.1118 0.0286,0.23922 0,0.35355 -0.12783,0.51131 -0.44562,0.95661 -0.7071,1.41421 -0.0827,0.14471 -0.27906,0.20449 -0.35356,0.35356 -0.15041,0.30082 -0.21118,0.77592 -0.35355,1.06066 -0.18824,0.37645 -0.16532,-0.0229 -0.35355,0.35355 -0.0264,0.0527 0.0417,0.13508 0,0.17678 -0.0417,0.0417 -0.13508,-0.0417 -0.17678,0 -0.002,0.002 -0.13268,0.7516 -0.17678,0.88388 -0.21589,0.64767 0,1.77755 0,2.47488 0,0.0589 -0.0417,0.13507 0,0.17677 0.42296,0.423 -0.0312,-1.39354 0.35356,0.53033 0.10198,0.50993 -0.10199,1.08106 0,1.59099 0.10841,0.54206 0.24512,1.04886 0.35355,1.59099 0.0551,0.27561 -0.19408,1.39692 0,1.59099 0.0417,0.0417 0.13508,-0.0417 0.17678,0 0.35855,0.35833 0.21385,0.99511 0.35355,1.41422 0.2357,0.7071 0.0589,0.0589 0.53033,0.53033 0.093,0.0929 0.11878,1.41703 0.17678,1.59099 0.0186,0.0559 0.15037,-0.0527 0.17677,0 0.0875,0.17498 0.0223,0.72938 0.17678,0.88388 0.0417,0.0417 0.15818,-0.0559 0.17678,0 0.0745,0.22361 -0.10541,0.49629 0,0.70711 0.18166,0.36333 0.34698,0.69397 0.53033,1.06066 0.0848,0.16966 -0.0566,0.53734 0,0.7071 0.0178,0.0534 0.75604,0.57928 0.88388,0.70711 0.1364,0.13641 0.49904,0.60308 0.70711,0.70711 0.0527,0.0264 0.13507,-0.0417 0.17677,0 0.36576,0.36575 -0.55892,-0.0143 0.17678,0.35355 0.14856,0.0743 0.60437,0.074 0.70711,0.17678 0.0417,0.0417 -0.0264,0.12407 0,0.17677 0.0837,0.16735 0.56212,0.30526 0.7071,0.35356 0.91706,0.30568 1.91754,-0.051 2.82843,0.17677 0.25097,0.0628 1.25458,0.3707 1.41421,0.53033 0.0932,0.0932 0.11788,0.23571 0.17678,0.35356 0,0.0589 -0.0327,0.12777 0,0.17677 0.68331,1.02497 0.085,0.13091 0.53033,0.35356 0.35622,0.17811 0.39205,0.60732 0.53033,0.88388 0.0745,0.14907 0.26115,0.21488 0.35355,0.35355 0.40905,0.61357 0.33366,0.90671 0.7513,1.5468 0.50209,-0.38964 0.88925,-0.6373 1.19325,-0.7513 0.10056,-0.0377 0.4379,-0.0844 0.53033,-0.17678 0.0208,-0.0208 -0.0208,-0.0676 0,-0.0884 0.0208,-0.0208 0.0675,0.0208 0.0884,0 0.0466,-0.0466 0.0418,-0.13019 0.0884,-0.17677 0.0466,-0.0466 0.1302,-0.0418 0.17678,-0.0884 0.0658,-0.0658 0.12684,-0.30361 0.17678,-0.35355 0.0208,-0.0208 0.0675,0.0208 0.0884,0 0.0932,-0.0932 0.10368,-0.24392 0.17677,-0.35356 0.0693,-0.104 0.19017,-0.16516 0.26517,-0.26516 0.19473,-0.0445 0.0467,-0.18183 0.0884,-0.26517 0.0888,-0.17771 0.30274,-0.32708 0.35355,-0.53033 0.0143,-0.0572 -0.0327,-0.12774 0,-0.17677 0.001,-0.002 0.4381,-0.35099 0.44194,-0.35356 0.24206,-0.16137 0.62072,-0.0226 0.88388,-0.0884 0.0639,-0.016 0.11287,-0.0724 0.17678,-0.0884 0.11433,-0.0286 0.24815,0.0527 0.35355,0 0.0745,-0.0373 0.10744,-0.13056 0.17678,-0.17678 0.22302,-0.14868 0.36053,-0.0954 0.61872,-0.35355 0.0225,-0.0225 0.30438,-0.48116 0.35355,-0.53033 0.0751,-0.0751 0.18222,-0.11042 0.26517,-0.17678 0.56943,-0.45554 0.0453,-0.002 0.17678,-0.26517 0.0674,-0.13475 1.16824,-0.99762 1.32582,-1.06066 0.19149,-0.0766 0.41407,0.0256 0.61872,0 0.38716,-0.0484 0.75928,-0.2002 1.14905,-0.26516 0.26588,-0.0443 0.31511,0.0634 0.61872,-0.0884 0.17038,-0.17038 0.14412,-0.18139 0.35355,-0.26516 0.0865,-0.0346 0.18764,-0.0367 0.26516,-0.0884 0.0245,-0.0163 -0.0208,-0.0676 0,-0.0884 0.29988,-0.29987 0.006,0.0765 0.17678,-0.26517 0.0862,-0.17238 0.82745,-1.20922 1.06066,-1.32582 0.0773,-0.0386 0.27892,0.0187 0.35355,0 0.19245,-0.0481 0.32152,-0.14198 0.53033,-0.17678 0.17438,-0.0291 0.35533,0.025 0.53033,0 0.56364,-0.0805 1.25887,-0.0991 1.76777,-0.35355 0.16335,-0.0817 0.87482,-0.68897 0.97227,-0.88388 0.0264,-0.0527 -0.0219,-0.12207 0,-0.17678 0.0947,-0.23676 0.66935,-0.865 0.88389,-0.97227 0.0747,-0.0374 0.2796,-0.15829 0.35355,-0.17678 0.49593,-0.12398 0.0363,0.15864 0.53033,-0.0884 0.095,-0.0475 0.17015,-0.12927 0.26517,-0.17678 0.079,-0.0395 0.17849,0.0173 0.26516,0 0.29026,-0.0581 0.49343,-0.22201 0.7955,-0.26516 0.1737,-0.0248 1.22322,-0.0813 1.23743,-0.0884 0.12014,-0.0601 0.23342,-0.2051 0.35356,-0.26516 0.1664,-0.0832 0.43319,0.0464 0.61871,0 0.0639,-0.016 0.11786,-0.0589 0.17678,-0.0884 0.11785,-0.0295 0.23373,-0.0684 0.35355,-0.0884 0.29196,-0.0487 2.72685,-0.0557 3.00521,0 0.16019,0.032 0.37013,0.14474 0.53033,0.17678 0.39284,0.0786 -0.58926,-0.23571 0.35355,0 0.0404,0.0101 0.0511,0.0698 0.0884,0.0884 0.0743,0.0371 0.30218,0.037 0.35355,0.0884 0.0751,0.0751 0.10166,0.19005 0.17678,0.26517 0.0417,0.0417 0.13511,-0.0417 0.17678,0 0.11197,0.11197 0.32272,0.52931 0.44194,0.61872 0.0884,0.0295 0.17678,0.0589 0.26516,0.0884 0,0.0295 -0.0208,0.0676 0,0.0884 0.0923,0.0923 0.33186,0.0569 0.44195,0.0884 0.32109,-0.17696 0.28243,0.20136 0.44194,0.26517 0.23372,0.0935 0.46829,0.18556 0.7071,0.26516 0.0839,0.028 0.18132,-0.028 0.26517,0 0.2468,0.0823 0.46534,0.25685 0.70711,0.35356 0.28353,0.11341 0.63213,0.0638 0.88388,0.26516 0.12552,0.10042 0.7106,0.53382 0.79549,0.61872 0.0208,0.0208 -0.0163,0.0639 0,0.0884 0.16343,0.24514 0.34945,0.47454 0.53033,0.7071 0.75812,0.97473 0.0289,0.10283 0.35356,0.26517 0.36785,0.18392 -0.0945,-0.006 0.0884,0.17678 0.0466,0.0466 0.12407,0.0489 0.17677,0.0884 0.63578,0.47684 -0.18653,-0.0981 0.26517,0.35356 0.0665,0.0665 0.39384,0.21706 0.44194,0.26516 0.0466,0.0466 0.0418,0.13019 0.0884,0.17678 0.0208,0.0208 0.062,-0.0132 0.0884,0 0.24785,0.12393 0.51022,0.28223 0.79549,0.35355 0.14575,0.0364 0.30128,0.0356 0.44194,0.0884 0.0995,0.0373 0.17015,0.12927 0.26517,0.17678 0.22172,0.11086 0.55926,0.0587 0.79549,0.17677 0.56471,0.28236 0.7165,1.02351 1.23744,1.41422 0.0471,0.0354 0.12407,-0.0263 0.17678,0 0.60743,0.30372 1.29964,0.46527 1.94454,0.7071 0.31184,0.11695 0.43351,0.27779 0.70711,0.44195 0.22544,0.13526 0.48944,0.22295 0.7071,0.35355 0.25157,0.15094 0.0799,0.19676 0.35356,0.26516 0.0572,0.0143 0.12775,-0.0327 0.17677,0 0.0548,0.0366 0.0369,0.13563 0.0884,0.17678 0.14309,0.11448 0.45617,0.27228 0.61872,0.35355 0.13537,0.0677 0.0691,0.15751 0.17678,0.26517 0.0295,0.0295 0.2357,0.0589 0.26516,0.0884 0.0831,0.083 0.14151,0.47742 0.17678,0.53033 0.0365,0.0548 0.13019,0.0418 0.17678,0.0884 0.11009,0.11009 0.11401,0.40481 0.17677,0.53033 0.0707,0.14142 0.28285,0.21213 0.35356,0.35355 0.0884,0.17678 -0.17678,0 0,0.26516 0.0365,0.0548 0.13019,0.0418 0.17677,0.0884 0.0466,0.0466 0.0418,0.1302 0.0884,0.17678 0.0208,0.0208 0.0707,-0.0236 0.0884,0 0.25659,0.34213 0.40083,0.84277 0.70711,1.14905 0.0751,0.0751 0.19603,0.0961 0.26516,0.17678 0.1118,0.13043 0.16987,0.29899 0.26517,0.44194 0.18069,0.27104 0.50294,0.4519 0.7071,0.7071 0.0664,0.083 0.0918,0.20143 0.17678,0.26517 0.0471,0.0353 0.12625,-0.0303 0.17678,0 0.20632,0.12379 0.77416,0.91959 0.88388,1.06066 0.36829,0.47352 0.86327,0.85812 1.23744,1.32582 0.0664,0.083 0.10166,0.19005 0.17677,0.26517 0.0751,0.0751 0.19716,0.0952 0.26517,0.17678 0.0844,0.10122 0.0836,0.26038 0.17678,0.35355 0.0932,0.0932 0.24633,0.10019 0.35355,0.17678 0.29142,0.20815 0.33213,0.31539 0.61872,0.53033 0.0236,0.0177 0.0589,0 0.0884,0 0.11785,0.0884 0.23852,0.17313 0.35355,0.26516 0.30908,0.24727 0.55559,0.57664 0.88388,0.7955 0.19883,0.13254 0.39737,0.34707 0.61872,0.44194 0.11166,0.0478 0.24939,0.0259 0.35355,0.0884 0.0565,0.0339 0.0336,0.14023 0.0884,0.17677 0.1873,0.12487 1.19395,-0.13187 1.32583,0 0.0208,0.0208 -0.0208,0.0676 0,0.0884 0.0996,0.0996 0.26516,-0.13562 -0.0885,-0.0442 -0.16997,-0.31622 -0.0271,-0.29581 0.1767,-0.39772 0.0745,-0.0373 0.10227,-0.13948 0.17677,-0.17678 0.0707,-0.0353 0.19447,0.0354 0.26517,0 0.13537,-0.0677 0.0691,-0.15751 0.17677,-0.26516 0.0417,-0.0417 0.12408,0.0263 0.17678,0 0.18868,-0.0944 -0.0119,-0.0825 0.17678,-0.17678 0.0906,-0.0453 0.26295,-0.0431 0.35355,-0.0884 0.17925,-0.0896 0.21907,-0.30405 0.44194,-0.35355 0.20338,-0.0452 0.41661,-0.0379 0.61872,-0.0884 0.0809,-0.0202 0.10748,-0.13058 0.17678,-0.17678 0.59361,-0.39575 -0.0637,0.0431 0.26516,-0.0884 0.29638,-0.11855 0.92855,-0.48661 1.14905,-0.70711 0.21468,-0.21467 -0.0263,-0.12979 0.17678,-0.26517 0.0775,-0.0517 0.19066,-0.0325 0.26516,-0.0884 0.18409,-0.13807 0.35065,-0.2982 0.53033,-0.44195 0.44786,-0.35828 0.70379,-0.88122 1.14905,-1.23743 0.28952,-0.23162 0.67866,-0.44255 0.97227,-0.61872 0.33513,-0.20108 0.40953,-0.39554 0.70711,-0.61872 0.0236,-0.0177 0.0639,0.0163 0.0884,0 0.20803,-0.13869 0.39722,-0.41958 0.61872,-0.53033 0.0527,-0.0264 0.12777,0.0327 0.17677,0 0.0548,-0.0365 0.0418,-0.13018 0.0884,-0.17678 0.13976,-0.13975 0.36588,-0.15553 0.53033,-0.26516 0.71004,-0.47336 1.10226,-1.35703 1.76777,-1.85616 0.19642,-0.14731 0.22097,-0.29462 0.44194,-0.44194 0.0775,-0.0517 0.18187,-0.0467 0.26517,-0.0884 0.10606,-0.053 0.1591,-0.21216 0.26516,-0.26516 0.68571,-0.34286 1.35122,-0.54303 2.03293,-0.88389 0.0102,-0.005 0.43894,-0.0854 0.44194,-0.0884 0.0208,-0.0209 -0.0253,-0.0732 0,-0.0884 0.20766,-0.12459 0.58163,-0.24662 0.7955,-0.35356 0.095,-0.0475 0.17677,-0.11787 0.26517,-0.17677 0,-0.0295 -0.0245,-0.0721 0,-0.0884 0.16444,-0.10963 0.35872,-0.16707 0.53033,-0.26517 0.29198,-0.16684 0.75057,-0.88243 0.88388,-1.14904 0.0417,-0.0833 0.0367,-0.18767 0.0884,-0.26517 0.0693,-0.10401 0.19896,-0.15916 0.26516,-0.26516 0.0841,-0.13455 0.0981,-0.30419 0.17678,-0.44195 0.0756,-0.13226 0.34934,-0.4953 0.44194,-0.61871 0.15581,-0.20775 0.41781,-0.42988 0.61872,-0.53033 0.12598,-0.063 0.12718,-0.17847 0.17678,-0.26517 0.34737,-0.60791 0.82492,-1.02845 0.75131,-1.23744 0.0442,0.28519 0.0971,-0.0269 0.0442,-0.26515 -0.15717,-0.70729 -0.16936,-0.30932 -0.26516,-0.88388 -0.0145,-0.0872 0.028,-0.18127 0,-0.26517 -0.13331,-0.39992 -0.43541,-0.60566 -0.61872,-0.97227 -0.14348,-0.28695 -0.37987,-0.58297 -0.53033,-0.88389 -0.0417,-0.0833 -0.0405,-0.18526 -0.0884,-0.26516 -0.137,-0.22833 -0.45043,-0.41678 -0.61872,-0.61872 -0.26239,-0.31486 -0.50488,-0.68165 -0.79549,-0.97227 -0.35453,-0.35453 -0.56263,-0.31149 -0.97228,-0.61872 -0.085,-0.0637 -0.10877,-0.18356 -0.17677,-0.26516 -0.17605,-0.21127 -0.46849,-0.56394 -0.70711,-0.70711 -0.0799,-0.048 -0.18767,-0.0367 -0.26517,-0.0884 -0.26897,-0.17932 -0.62362,-0.64327 -0.79549,-0.88388 -0.0955,-0.1337 -0.33881,-0.53622 -0.44194,-0.61872 -0.8418,-0.67344 0.0758,0.37881 -0.53033,-0.53033 -0.31786,-0.47683 -0.0275,0.0609 -0.35356,-0.26517 -0.0466,-0.0466 -0.0418,-0.13017 -0.0884,-0.17677 -0.16272,-0.16272 -0.35065,-0.29819 -0.53033,-0.44194 -0.16591,-0.13273 -0.39761,-0.18766 -0.53033,-0.35356 -0.0582,-0.0727 -0.0288,-0.19356 -0.0884,-0.26516 -0.22921,-0.27505 -0.63172,-0.45495 -0.88389,-0.70711 -0.0466,-0.0466 -0.0472,-0.12538 -0.0884,-0.17678 -0.2391,-0.29887 -0.58274,-0.56475 -0.7955,-0.88388 -0.0731,-0.10963 -0.10368,-0.24392 -0.17678,-0.35355 -0.0906,-0.13599 -0.26285,-0.21757 -0.35355,-0.35356 -0.34494,-0.51741 -0.17678,-1.35423 -0.17678,-1.94454 v -3.62392 c 0,-0.43553 0.0402,-0.8034 0.0884,-1.23744 0.013,-0.11713 -0.0324,-0.24024 0,-0.35355 0.0512,-0.17917 0.14028,-0.34761 0.17678,-0.53033 0.0504,-0.2522 -0.0623,-0.54621 0,-0.7955 0.0226,-0.0904 0.0701,-0.17376 0.0884,-0.26516 0.0231,-0.11557 -0.0373,-0.24175 0,-0.35356 0.0635,-0.19037 0.22746,-0.3925 0.26516,-0.61871 0.0669,-0.40133 -0.0621,-0.83532 0.13258,-0.88389 0.0762,-0.32343 0.0402,-1.10564 -0.13258,-1.76777 -0.40155,-1.53929 -0.30541,-0.39404 -0.61872,-1.85615 -0.0247,-0.11524 0.0146,-0.23661 0,-0.35355 -0.0569,-0.45527 -0.27894,-0.87818 -0.35355,-1.32583 -0.0194,-0.11625 0.0527,-0.24814 0,-0.35355 -0.1527,-0.30541 -0.20962,-0.19708 -0.26516,-0.53033 -0.0504,-0.30229 -0.0617,-2.06794 -0.0884,-2.12132 -0.0475,-0.095 -0.13733,-0.16654 -0.17678,-0.26517 -0.0592,-0.14787 0.0709,-0.38848 0,-0.53033 -0.0659,-0.13176 -0.19928,-0.22179 -0.26516,-0.35355 -0.0264,-0.0527 0,-0.11785 0,-0.17678 -0.0295,-0.11785 -0.0259,-0.24938 -0.0884,-0.35355 -0.0339,-0.0565 -0.13725,-0.0357 -0.17678,-0.0884 -0.0559,-0.0745 -0.0467,-0.18183 -0.0884,-0.26517 -0.0908,-0.18168 -0.19068,-0.0139 -0.35355,-0.17677 -0.0659,-0.0659 -0.0367,-0.18765 -0.0884,-0.26517 -0.0163,-0.0245 -0.0648,0.0177 -0.0884,0 -0.29649,-0.22236 -0.51047,-0.55797 -0.79549,-0.79549 -0.34404,-0.2867 -0.69313,-0.55048 -1.06066,-0.7955 -0.20425,-0.13616 -0.20556,-0.37273 -0.44194,-0.53033 -0.0775,-0.0517 -0.19242,-0.0302 -0.26517,-0.0884 -0.52905,0.0761 -0.0836,-0.26038 -0.17678,-0.35355 -0.10416,-0.10417 -0.24938,-0.161 -0.35355,-0.26516 -0.1077,-0.10771 -0.15746,-0.33424 -0.26517,-0.44195 -0.0466,-0.0466 -0.13019,-0.0418 -0.17677,-0.0884 -0.0425,-0.0426 -0.13662,-0.32679 -0.17678,-0.35356 -0.23976,-0.15984 -0.37932,-0.11693 -0.61872,-0.17677 -0.13518,-0.0338 -0.56991,-0.25541 -0.61872,-0.26517 -0.20223,-0.0404 -0.41648,0.0404 -0.61871,0 -0.26895,-0.0538 -1.19789,-0.55475 -1.50261,-0.70711 -0.12013,-0.0601 -0.23342,-0.20509 -0.35355,-0.26516 -0.0743,-0.0371 -0.30218,-0.037 -0.35355,-0.0884 -0.0208,-0.0208 0.0208,-0.0675 0,-0.0884 -0.0768,-0.0768 -0.6381,-0.25428 -0.70711,-0.53033 -0.0214,-0.0857 0.028,-0.18131 0,-0.26516 -0.0336,-0.10078 -0.12927,-0.17015 -0.17678,-0.26517 -0.0582,-0.1164 0.0414,-0.31789 0,-0.44194 -0.0132,-0.0395 -0.0783,-0.048 -0.0884,-0.0884 -0.11217,-0.44866 0,-1.5388 0,-2.03293 v -4.15425 c 0,-0.47964 -0.10365,-1.88353 0,-2.2981 0.0101,-0.0404 0.0697,-0.0511 0.0884,-0.0884 0.13415,-0.26829 0.003,-0.3034 0.0884,-0.53033 0.0694,-0.18506 0.19577,-0.34527 0.26517,-0.53033 0.0414,-0.11035 -0.0373,-0.24175 0,-0.35355 0.12867,-0.38601 0.61664,-0.96606 0.79549,-1.5026 0.34139,-1.02416 0.26517,-2.09341 0.26517,-3.18198 0,-0.21756 -0.0225,-0.33271 -0.0884,-0.53033 -0.0884,-0.26517 0.0884,-0.61872 0,-0.88389 -0.009,-0.028 -0.0676,0.0208 -0.0884,0 -0.0417,-0.0417 0.0417,-0.13511 0,-0.17677 -0.0208,-0.0208 -0.0675,0.0208 -0.0884,0 -0.1029,-0.1029 0.0609,-0.44195 -0.0442,-0.44191 l -2.7842,4e-5 c -0.16312,0 -0.59857,0.0492 -0.7955,0 -0.0639,-0.016 -0.11785,-0.0589 -0.17678,-0.0884 -0.0884,-0.0295 -0.1738,-0.0701 -0.26516,-0.0884 -0.3391,-0.0678 -1.45096,-0.0122 -1.67938,-0.0884 -0.125,-0.0417 -0.23122,-0.12784 -0.35355,-0.17678 -0.26913,-0.10765 -0.6167,-0.13157 -0.88389,-0.26516 -0.0745,-0.0373 -0.10224,-0.13951 -0.17677,-0.17678 -0.0527,-0.0264 -0.12088,0.0186 -0.17678,0 -0.14569,-0.0486 -0.6229,-0.31145 -0.70711,-0.35355 -0.17532,-0.0877 -0.36127,-0.38559 -0.53033,-0.44194 -0.0559,-0.0186 -0.12407,0.0264 -0.17677,0 -0.73199,-0.366 -0.0761,-0.17187 -0.53033,-0.35356 -0.36802,-0.1472 -0.77515,-0.22892 -1.14905,-0.35355 -0.25601,-0.0853 -0.12007,-0.1308 -0.44194,-0.17678 -0.14584,-0.0208 -0.30219,0.0466 -0.44195,0 -0.0625,-0.0208 -0.11785,-0.0589 -0.17677,-0.0884 -0.0884,-0.0589 -0.16439,-0.14318 -0.26517,-0.17677 -0.16103,-0.40059 -0.4166,-0.0379 -0.61872,-0.0884 -0.21265,-0.0532 -0.2815,-0.1233 -0.44194,-0.17678 -0.1677,-0.0559 -0.3564,0.0316 -0.53033,0 -0.94934,-0.17261 -0.3014,-0.16113 -1.23743,-0.44194 -0.0847,-0.0254 -0.1785,0.0173 -0.26517,0 -0.21033,-0.0421 -0.40769,-0.13841 -0.61872,-0.17678 -0.28987,-0.0527 -0.59046,0.0267 -0.88388,0 -0.14732,-0.0295 -0.29463,-0.0589 -0.44194,-0.0884 -0.0589,-0.0295 -0.11218,-0.0755 -0.17678,-0.0884 -0.71198,-0.1424 -1.55362,-0.26984 -2.2981,-0.17678 -0.42857,0.0536 -0.77785,0.25634 -1.14905,0.44194 -0.0859,0.0429 -0.26765,0.0454 -0.35355,0.0884 -0.095,0.0475 -0.16439,0.14318 -0.26516,0.17678 -0.0839,0.028 -0.1785,-0.0173 -0.26517,0 -0.15558,0.0311 -0.28802,0.13829 -0.44194,0.17677 -0.13876,0.0347 -0.30223,-0.031 -0.44194,0 -0.36476,-0.18449 -0.52433,0.19738 -0.7955,0.26517 -0.24232,0.0606 -0.661,0.043 -0.88388,0.17678 -0.0565,0.0339 -0.0418,0.13019 -0.0884,0.17677 -0.0208,0.0208 -0.062,-0.0132 -0.0884,0 -0.32319,0.1616 -0.53464,0.46904 -0.88388,0.61872 -0.0542,0.0232 -0.12407,-0.0263 -0.17678,0 -0.13176,0.0659 -0.22723,0.18937 -0.35355,0.26517 -0.0253,0.0152 -0.0676,-0.0208 -0.0884,0 -0.0659,0.0659 -0.005,0.22349 -0.0884,0.26516 -0.0527,0.0263 -0.12775,-0.0327 -0.17677,0 -0.0548,0.0365 -0.0336,0.14023 -0.0884,0.17678 -0.049,0.0327 -0.12408,-0.0263 -0.17678,0 -0.005,0.002 -0.42164,0.33325 -0.44194,0.35355 -0.0466,0.0466 -0.0357,0.13725 -0.0884,0.17678 -0.19003,0.14252 -0.42108,0.22179 -0.61872,0.35355 -0.0693,0.0462 -0.0994,0.14583 -0.17678,0.17678 -0.0821,0.0328 -0.1861,-0.0395 -0.26516,0 -0.1118,0.0559 -0.16116,0.19583 -0.26517,0.26516 -0.0775,0.0517 -0.18527,0.0405 -0.26516,0.0884 -0.23272,0.13963 -0.47886,0.37817 -0.70711,0.53033 -0.10963,0.0731 -0.26038,0.0836 -0.35355,0.17678 -0.0466,0.0466 -0.0336,0.14023 -0.0884,0.17677 -0.049,0.0327 -0.11785,0 -0.17678,0 -0.0884,0.0589 -0.19004,0.10167 -0.26516,0.17678 -0.0208,0.0208 0.0184,0.0654 0,0.0884 0.0126,0.39961 -0.36762,0.27923 -0.53033,0.44194 -0.0466,0.0466 -0.0418,0.13019 -0.0884,0.17678 -0.34533,0.34533 -0.84632,0.51613 -1.23744,0.79549 -0.55118,0.3937 -1.08459,0.81862 -1.67937,1.14905 -0.30585,0.16992 -0.67751,0.33382 -0.97228,0.53033 -0.0693,0.0462 -0.11011,0.12678 -0.17677,0.17678 -0.45751,0.34313 -1.03811,0.5521 -1.5026,0.88388 -0.15352,0.10965 -0.28197,0.25357 -0.44195,0.35356 -0.079,0.0494 -0.19241,0.0302 -0.26516,0.0884 -0.0829,0.0664 -0.0952,0.19716 -0.17678,0.26517 -0.10122,0.0844 -0.24814,0.0977 -0.35355,0.17678 -0.13334,0.1 -0.22552,0.24685 -0.35356,0.35355 -0.26025,0.21688 -1.09572,0.60094 -1.41421,0.70711 -0.15944,0.0531 -0.36666,-0.0409 -0.53033,0 -1.03565,0.25891 -2.11341,0.17677 -3.18198,0.17677 -1.0571,0 -0.004,-0.0291 -1.06066,0.0884 -0.74812,0.0831 -1.66169,-0.14496 -2.38648,0 -0.27276,0.0546 -0.27442,0.0884 -0.70707,0.1768 -0.17674,0.85735 -0.4127,0.32435 -0.70707,0.61873 z"
         id="path53" />
    </g>
  </g>
</svg>
