<?xml version="1.0" encoding="UTF-8" standalone="no"?>
<!-- Created with Inkscape (http://www.inkscape.org/) -->

<svg
   version="1.1"
   id="svg1"
   width="86.25"
   height="77.75"
   viewBox="0 0 86.25 77.75"
   xmlns="http://www.w3.org/2000/svg"
   xmlns:svg="http://www.w3.org/2000/svg">
  <defs
     id="defs1" />
  <g
     id="layer1"
     style="display:inline"
     transform="translate(-367.625,-128.5)">
    <g
       id="layer32"
       style="display:inline;fill:#ffffff;fill-opacity:1;stroke:none">
      <path
         style="fill:#ffffff;fill-opacity:1;stroke:none;stroke-linecap:round"
         d="m 380.125,197.875 -2.625,-3.625 -5.125,-1 -4.75,-11.5 0.125,-4.125 3.625,-8.25 3,-3.875 1.5,-14.5 11,-10.25 7.875,-0.375 9.25,-5.75 2.375,-3.375 8.875,-2.75 7.25,1.375 8.5,3 2,-0.75 0.125,19.25 4.625,0.875 4.75,4.875 1.125,19.25 1.75,4 8.5,9.875 -13.375,14 -5.75,2 -13.375,-12.625 -4.125,-0.875 -3,-2.75 -10.5,-4.125 -8.875,2.625 z"
         id="path29" />
    </g>
  </g>
</svg>
