<?xml version="1.0" encoding="UTF-8" standalone="no"?>
<!-- Created with Inkscape (http://www.inkscape.org/) -->

<svg
   version="1.1"
   id="svg1"
   width="155.91702"
   height="128.87021"
   viewBox="0 0 155.91702 128.87021"
   xmlns="http://www.w3.org/2000/svg"
   xmlns:svg="http://www.w3.org/2000/svg">
  <defs
     id="defs1" />
  <g
     id="layer1"
     style="display:inline"
     transform="translate(-910.48837,-256.32621)">
    <g
       id="layer33"
       style="display:inline;fill:#ffffff;fill-opacity:1;stroke:none">
      <path
         style="fill:#ffffff;fill-opacity:1;stroke:none;stroke-linecap:round"
         d="m 910.48837,352.58112 4.68458,-7.95495 2.12132,-1.23744 10.42983,-15.37957 24.30679,-3.00521 0.88389,-2.03293 8.75044,-5.48008 1.85616,-4.94974 4.86136,-5.03814 4.15425,-9.81111 6.71751,-7.86656 11.75565,-1.06066 12.63955,-2.74004 7.6014,-2.65165 0.3535,-2.38648 2.1214,-1.14905 1.8561,-0.26517 7.7782,-6.45235 4.1542,-7.24784 2.8285,-9.54594 3.0052,2.56326 3.8007,0.7955 4.0658,3.97747 2.6517,5.48008 1.4142,13.70019 13.1699,12.81631 1.149,30.49398 5.5685,7.15946 1.2374,3.97747 -0.7955,3.35876 -7.8665,6.0988 -10.9602,12.28598 -0.2652,2.2981 -33.4108,3.44714 -8.662,9.63433 -10.34145,3.27037 -2.82843,2.03293 -0.97227,5.48008 -30.31721,-0.70711 -3.88908,-2.74004 -5.12653,-2.47487 -2.38648,-2.91682 -1.41422,-5.3033 -1.32582,-5.48007 -6.36396,-3.53554 -4.41942,-7.07107 -8.04334,-1.14904 -10.07627,3.09359 z"
         id="path30" />
    </g>
  </g>
</svg>
