<?xml version="1.0" encoding="UTF-8" standalone="no"?>
<!-- Created with Inkscape (http://www.inkscape.org/) -->

<svg
   version="1.1"
   id="svg2"
   width="155.52803"
   height="129.84163"
   viewBox="0 0 155.52803 129.84163"
   xmlns="http://www.w3.org/2000/svg"
   xmlns:svg="http://www.w3.org/2000/svg">
  <defs
     id="defs6">
    <linearGradient
       id="swatch77">
      <stop
         style="stop-color:#e2c69e;stop-opacity:1;"
         offset="0"
         id="stop77" />
    </linearGradient>
  </defs>
  <g
     id="layer66"
     style="display:inline"
     transform="translate(-910.72924,-256.21875)">
    <g
       id="layer77"
       style="display:inline">
      <path
         style="fill:#969696;fill-opacity:1;stroke:none;stroke-opacity:1"
         d="m 960,384.875 c -0.211,-0.0528 -0.44275,-0.48831 -0.625,-0.625 -0.12019,-0.0901 -0.26877,-0.14377 -0.375,-0.25 -0.0295,-0.0295 0.0231,-0.0903 0,-0.125 -0.0654,-0.0981 -0.15194,-0.18463 -0.25,-0.25 -0.0347,-0.0231 -0.10189,0.0347 -0.125,0 -0.5413,-0.81195 0.002,-0.11756 -0.125,-0.5 -0.10272,-0.30816 -0.32726,-0.46209 -0.5,-0.75 -0.0508,-0.0847 0.003,-0.61168 0,-0.625 -0.0143,-0.0572 -0.0987,-0.0723 -0.125,-0.125 -0.0373,-0.0745 0.0589,-0.19108 0,-0.25 -0.0295,-0.0295 -0.10637,0.0373 -0.125,0 -0.0373,-0.0745 0.0589,-0.19108 0,-0.25 -0.0497,-0.0497 -1.84159,-0.35916 -2,-0.375 -0.33168,-0.0332 -0.70186,0.14907 -1,0 -0.49162,-0.24581 -0.22635,-0.27027 -0.75,-0.375 -0.28371,-0.0567 -0.60774,-0.0181 -0.875,-0.125 -0.26619,-0.10648 -0.50144,-0.37572 -0.75,-0.5 -0.20909,-0.10455 -0.41008,-0.0351 -0.625,-0.25 -0.0295,-0.0295 0.0373,-0.10637 0,-0.125 -0.0745,-0.0373 -0.17341,0.0328 -0.25,0 -0.55986,0.26438 -0.48126,-0.36563 -0.75,-0.5 -0.62455,-0.31227 -1.23525,-0.61024 -1.75,-1.125 -0.0659,-0.0659 -0.0591,-0.18412 -0.125,-0.25 -0.0295,-0.0295 -0.0955,0.0295 -0.125,0 -0.0295,-0.0295 0.0231,-0.0903 0,-0.125 -0.17151,-0.25727 -0.41845,-0.4238 -0.5,-0.75 -0.4574,-1.8296 -0.25,-3.85608 -0.25,-5.75 0,-0.28663 0.15191,-1.19618 0,-1.5 -0.2052,-0.41039 -0.72654,-0.86715 -1,-1.25 -0.15418,-0.21585 -0.31199,-0.68699 -0.5,-0.875 -0.0659,-0.0659 -0.18412,-0.0591 -0.25,-0.125 -0.13176,-0.13176 -0.14664,-0.34496 -0.25,-0.5 -0.24467,-0.367 -0.6019,-0.65863 -0.875,-1 -0.10541,-0.13175 -0.834,-1.1475 -0.875,-1.25 -0.0309,-0.0774 0.0263,-0.17094 0,-0.25 -0.0409,-0.12283 -0.30937,-0.20625 -0.375,-0.25 -0.19956,-0.13304 -0.22191,-0.34691 -0.375,-0.5 -0.0688,-0.0688 -1.52101,-0.40841 -1.75,-0.5 -0.0387,-0.0155 0.0347,-0.10189 0,-0.125 -0.10963,-0.0731 -0.26537,-0.0519 -0.375,-0.125 -0.0347,-0.0231 0.0186,-0.0877 0,-0.125 -0.074,-0.14795 -0.36361,-0.29316 -0.5,-0.375 -0.57949,-0.34769 -1.21837,-0.5747 -1.75,-1 -0.18406,-0.14724 -0.31144,-0.35858 -0.5,-0.5 -0.0745,-0.0559 -0.1918,-0.0523 -0.25,-0.125 -0.4747,-0.59337 -0.7388,-1.42846 -1,-2.125 -0.0327,-0.0872 -0.0833,-0.16667 -0.125,-0.25 -0.0833,-0.125 -0.19421,-0.23551 -0.25,-0.375 -0.0309,-0.0774 0.0263,-0.17094 0,-0.25 -0.0508,-0.15249 -0.45186,-0.8076 -0.5,-0.875 -0.42151,-0.59011 -0.43547,-0.34273 -0.75,-0.5 -0.15812,-0.0791 -0.2073,-0.3191 -0.375,-0.375 -0.0791,-0.0263 -0.16916,0.0202 -0.25,0 -0.35294,-0.0882 -0.64706,-0.41177 -1,-0.5 -0.0809,-0.0202 -0.17095,0.0263 -0.25,0 -0.0559,-0.0186 -0.0678,-0.11071 -0.125,-0.125 -0.84268,-0.21067 -1.89466,0.12219 -2.75,0 -0.22213,-0.0317 -0.40925,-0.18836 -0.625,-0.25 -0.59154,-0.16901 -1.38094,-0.16156 -2,-0.25 -1.11863,-0.1598 -3.16147,0 -4.375,0 -0.4042,0 -3.05386,-0.14279 -3.625,0 -0.12783,0.032 -0.24717,0.093 -0.375,0.125 -0.0809,0.0202 -0.19108,-0.0589 -0.25,0 -0.0295,0.0295 0.0358,0.10354 0,0.125 l -3.125,1.875 c -0.11541,0.0692 -0.20286,-0.31762 -0.375,-0.375 -0.0791,-0.0263 -0.17547,0.0373 -0.25,0 -0.11785,-0.0589 -0.0221,-0.29269 -0.125,-0.375 -0.21826,-0.17461 -0.55236,-0.17736 -0.75,-0.375 -0.66724,-0.66724 0.95369,0.32221 -0.625,-0.625 -0.19434,-0.1166 -0.53842,-0.21632 -0.75,-0.375 -0.0943,-0.0707 -0.14459,-0.1973 -0.25,-0.25 -0.0745,-0.0373 -0.17547,0.0373 -0.25,0 -0.37844,0.30845 -0.21501,-0.34001 -0.25,-0.375 -0.15869,-0.15869 -0.62911,-0.25411 -0.75,-0.375 -0.15225,-0.15225 -0.0586,-0.27928 -0.25,-0.375 -0.23089,-0.11545 -0.58123,-0.37184 -0.75,-0.625 -0.0681,-0.10212 0,-0.49704 -0.25,-0.25 -0.1894,-0.0732 -0.3243,-0.55408 -0.25,-1 0.0939,-0.56341 0.50382,-1.13265 0.75,-1.625 0.20832,-0.41664 0.36877,-0.99065 0.625,-1.375 0.0654,-0.0981 0.18463,-0.15194 0.25,-0.25 0.17848,-0.26772 0.44064,-1.14315 0.5,-1.25 0.0452,-0.0815 0.16666,-0.0833 0.25,-0.125 0.125,-0.16667 0.29293,-0.30851 0.375,-0.5 0.0657,-0.15319 -0.0745,-0.35093 0,-0.5 0.35545,-0.7109 0.69326,-1.6137 1.375,-2.125 0.19822,-0.14867 0.42678,-0.35133 0.625,-0.5 0.43675,-0.32757 0.0565,0.0229 0.5,-0.125 0.0559,-0.0186 0.0723,-0.0987 0.125,-0.125 0.11785,-0.0589 0.26537,-0.0519 0.375,-0.125 0.0347,-0.0231 -0.0347,-0.10189 0,-0.125 0.10963,-0.0731 0.25715,-0.0661 0.375,-0.125 0.29028,-0.14514 0.77273,-0.52273 1,-0.75 0.0295,-0.0295 -0.0231,-0.0903 0,-0.125 -0.30845,-0.37844 0.34001,-0.21501 0.375,-0.25 0.12119,-0.12119 0.44926,-0.59779 0.5,-0.75 0.0527,-0.15811 -0.0745,-0.35093 0,-0.5 0.0186,-0.0373 0.10636,0.0373 0.125,0 0.0745,-0.14907 -0.0527,-0.34189 0,-0.5 0.0186,-0.0559 0.11071,-0.0678 0.125,-0.125 0.0303,-0.12127 -0.0303,-0.25373 0,-0.375 0.0535,-0.21411 0.4833,-0.81108 0.625,-1 0.1636,-0.21814 0.47234,-0.55559 0.75,-0.625 0.0808,-0.0202 0.17094,0.0263 0.25,0 0.52662,-0.17554 0.79467,-0.77234 1.25,-1 0.11785,-0.0589 0.25715,-0.0661 0.375,-0.125 0.11958,-0.0598 0.35718,-0.60718 0.5,-0.75 0.14055,-0.14056 0.45806,-0.26371 0.625,-0.375 0.28234,-0.18823 0.4874,-0.53993 0.75,-0.75 0.23628,-0.18903 0.43859,-0.22039 0.625,-0.5 0.0231,-0.0347 -0.0295,-0.0955 0,-0.125 0.0932,-0.0932 0.28183,-0.0318 0.375,-0.125 0.0932,-0.0932 0.0519,-0.26537 0.125,-0.375 0.23235,-0.34853 0.24454,-0.60863 0.375,-1 0.05,-0.15 -0.05,-0.35 0,-0.5 0.0659,-0.19764 0.30912,-0.30236 0.375,-0.5 0.0554,-0.16613 -0.0794,-0.46629 0,-0.625 0.4268,-0.85361 1.54618,-1.69745 2.375,-2.25 0.23955,-0.1597 0.89122,-0.13311 1.125,-0.25 0.15811,-0.0791 0.23358,-0.26893 0.375,-0.375 0.36015,-0.27012 0.96179,-0.15818 1.375,-0.25 0.42465,-0.0944 0.82343,-0.28969 1.25,-0.375 0.12257,-0.0245 0.25,0 0.375,0 0.20833,-0.0417 0.4176,-0.0789 0.625,-0.125 0.8634,-0.19187 1.80625,-0.4351 2.625,-0.75 0.14022,-0.0539 0.23551,-0.19421 0.375,-0.25 0.23965,-0.0959 0.62261,0.0505 0.875,0 0.84902,-0.1698 1.63937,-0.52938 2.5,-0.625 0.86346,-0.0959 1.76699,-0.0177 2.625,-0.125 0.62396,-0.078 0.5957,-0.28678 1.125,-0.375 0.46848,-0.0781 1.02415,0 1.5,0 h 2.75 c 0.30966,0 0.70439,0.0493 1,0 0.38221,-0.0637 0.73205,-0.40176 1.125,-0.5 0.34738,-0.0869 0.95499,-0.0267 1.25,-0.125 0.45502,-0.15168 0.91443,-0.34648 1.375,-0.5 0.97132,-0.32378 1.60942,-1.01254 2.375,-1.625 0.31872,-0.25498 0.41882,-0.13961 0.75,-0.25 0.19764,-0.0659 0.32135,-0.26781 0.5,-0.375 0.1875,-0.1125 0.625,-0.275 0.75,-0.375 0.0728,-0.0582 0.0591,-0.18412 0.125,-0.25 0.9718,-0.9718 -0.4718,0.7218 0.5,-0.25 0.0295,-0.0295 -0.0347,-0.10189 0,-0.125 0.10963,-0.0731 0.25715,-0.0661 0.375,-0.125 0.15811,-0.0791 0.23358,-0.26893 0.375,-0.375 0.6295,-0.47213 1.68672,-0.76953 2.125,-1.5 0.0884,-0.14731 0.004,-0.37852 0.125,-0.5 0.0659,-0.0659 0.18412,-0.0591 0.25,-0.125 0.0295,-0.0295 -0.0231,-0.0903 0,-0.125 0.0981,-0.14709 0.29594,-0.21689 0.375,-0.375 0.30333,-0.60667 0.56613,-1.25727 0.875,-1.875 0.0373,-0.0745 -0.0373,-0.17547 0,-0.25 0.1906,-0.3812 0.0991,0.22862 0.25,-0.375 0.0404,-0.16169 -0.0527,-0.34189 0,-0.5 0.0859,-0.25769 0.23663,-0.47326 0.375,-0.75 0.0798,-0.15959 -0.0978,-0.47823 0,-0.625 0.0517,-0.0775 0.19832,-0.0475 0.25,-0.125 0.0557,-0.0836 0,-0.50211 0.125,-0.5625 0.55896,-0.39401 0.68234,-0.99485 1.125,-1.4375 0.0295,-0.0295 0.0955,0.0295 0.125,0 0.14731,-0.14731 0.24163,-0.33995 0.375,-0.5 0.18861,-0.22634 0.3893,-0.44822 0.625,-0.625 0.0333,-0.025 0.0955,0.0295 0.125,0 0.10623,-0.10623 0.15615,-0.25769 0.25,-0.375 0.0736,-0.092 0.16666,-0.16667 0.25,-0.25 0.125,-0.0833 0.27723,-0.13594 0.375,-0.25 0.15811,-0.18447 0.24023,-0.42285 0.375,-0.625 0.0517,-0.0775 0.20833,-0.0417 0.25,-0.125 0.0373,-0.0745 -0.0373,-0.17547 0,-0.25 0.0186,-0.0373 0.0833,0 0.125,0 0.0417,-0.0417 0.10636,-0.0691 0.125,-0.125 0.0263,-0.0791 -0.0373,-0.17547 0,-0.25 0.0527,-0.10541 0.17638,-0.15797 0.25,-0.25 0.21306,-0.26633 0.43742,-0.59364 0.625,-0.875 0.0731,-0.10963 0.0459,-0.26959 0.125,-0.375 0.2785,-0.37134 0.37369,-0.41493 0.625,-0.75 0.47245,-0.62994 0.69564,-1.53984 1,-2.25 0.14983,-0.34962 0.45246,-0.52993 0.625,-0.875 0.0789,-0.15773 0.0461,-0.46727 0.125,-0.625 0.0527,-0.10541 0.18463,-0.15194 0.25,-0.25 0.11126,-0.16689 -0.0509,-0.54631 0,-0.75 0.0934,-0.37352 0.28037,-0.7465 0.375,-1.125 0.13392,-0.53567 0.0627,-1.2295 0.375,-1.75 0.0479,-0.0799 0.19832,-0.0475 0.25,-0.125 0.0833,-0.125 -0.0417,-0.25 0,-0.375 0.0987,-0.29616 0.25855,-0.72829 0.375,-1 0.0592,-0.13809 0.1942,-0.23551 0.25,-0.375 0.0309,-0.0774 -0.0373,-0.17547 0,-0.25 0.0527,-0.10541 0.18936,-0.14894 0.25,-0.25 0.0678,-0.11299 0.0459,-0.26959 0.125,-0.375 0.102,-0.136 1.02392,-0.66914 1.125,-0.75 0.22866,-0.18293 0.39634,-0.44207 0.625,-0.625 0.60669,-0.48535 1.25471,-0.90979 1.875,-1.375 0.252,-0.189 0.46,-0.634 0.75,-0.75 0.11606,-0.0464 0.25242,0.0245 0.375,0 0.29916,-0.0598 0.4637,-0.2932 0.75,-0.375 0.16025,-0.0458 0.33974,0.0458 0.5,0 0.32685,-0.0934 0.6424,-0.42848 1,-0.5 0.62566,-0.12513 1.39381,-0.0985 2,-0.25 1.85745,-0.46437 -0.85623,-0.0805 1.5,-0.375 0.49786,-0.0622 1.00509,-0.0425 1.5,-0.125 0.70482,-0.11747 1.42813,-0.46418 2.125,-0.625 0.71828,-0.16576 1.41232,-0.0718 2.125,-0.25 0.76791,-0.19198 1.49332,-0.56083 2.25,-0.75 0.24588,-0.0615 0.50724,-0.0522 0.75,-0.125 0.57141,-0.17143 1.06434,-0.54613 1.625,-0.75 0.15663,-0.057 0.33657,0.0327 0.5,0 0.513,-0.1026 0.99209,-0.41535 1.5,-0.5 0.1233,-0.0206 0.25,0 0.375,0 0.29166,-0.0417 0.58739,-0.0611 0.875,-0.125 0.091,-0.0202 0.16666,-0.0833 0.25,-0.125 0.29166,-0.0833 0.57579,-0.20013 0.875,-0.25 0.43986,-0.0733 0.92688,-0.0503 1.375,-0.125 0.8638,-0.14397 1.7549,-0.4209 2.625,-0.5 0.6806,-0.0619 1.3332,0.0973 2,-0.125 0.386,-0.12868 1.4042,-0.5771 1.75,-0.75 0.3282,-0.16411 0.6607,-0.45536 1,-0.625 0.5902,-0.29511 1.1717,-0.46084 1.75,-0.75 0.3428,-0.17141 0.6247,-0.46414 1,-0.625 0.6475,-0.27751 1.3204,-0.55582 2,-0.75 0.5396,-0.15417 -0.9166,0.64578 0.625,-0.125 0.4092,-0.20461 0.8531,-0.86042 1.25,-1.125 0.099,-0.0659 0.5942,-0.34418 0.625,-0.375 0.1754,-0.17543 0.1708,-0.4548 0.375,-0.625 0.5127,-0.42725 1.0822,-0.8623 1.625,-1.25 0.3622,-0.2587 0.1696,0.0102 0.625,-0.25 0.2516,-0.1438 0.9414,-0.78322 1.125,-0.875 0.1178,-0.0589 0.2654,-0.0519 0.375,-0.125 0.035,-0.0231 -0.025,-0.0917 0,-0.125 0.1061,-0.14142 0.25,-0.25 0.375,-0.375 0.125,-0.125 0.237,-0.26457 0.375,-0.375 0.2641,-0.21128 0.3664,-0.0425 0.625,-0.375 1.9736,-2.53754 -0.4164,0.25793 0.75,-1.375 1.1848,-1.65871 -0.215,0.68008 0.5,-0.75 0.093,-0.18634 0.375,-0.20833 0.5,-0.375 0.05,-0.0667 -0.031,-0.17263 0,-0.25 0.1748,-0.43699 0.254,-0.29706 0.5,-0.625 0.056,-0.0745 0.083,-0.16667 0.125,-0.25 0.1667,-0.25 0.3155,-0.51283 0.5,-0.75 0.1085,-0.13954 0.2722,-0.23115 0.375,-0.375 0.2346,-0.32844 0.3314,-0.70642 0.625,-1 0.029,-0.0295 0.096,0.0295 0.125,0 0.1821,-0.18209 0.3982,-0.54643 0.5,-0.75 0.075,-0.15 0.3,-0.225 0.375,-0.375 0.037,-0.0745 -0.037,-0.17547 0,-0.25 0.019,-0.0373 0.083,0 0.125,0 0.083,-0.125 0.1828,-0.24063 0.25,-0.375 0.1579,-0.31575 0.4261,-0.66857 0.625,-1 0.3277,-0.54611 -0.1077,0.0905 0.25,-0.625 0.1028,-0.20559 0.4265,-0.52954 0.5,-0.75 0.026,-0.0791 0,-0.16667 0,-0.25 0.042,-0.16667 0.061,-0.34049 0.125,-0.5 0.044,-0.10942 0.2214,-0.13567 0.25,-0.25 0.03,-0.12127 -0.021,-0.2517 0,-0.375 0.089,-0.53198 0.3351,-1.00521 0.5,-1.5 0.082,-0.24479 0.061,-0.61928 0.125,-0.875 0.1026,-0.41023 0.3297,-0.74177 0.5,-1.125 0.2704,-0.60849 0.4669,-1.18386 0.75,-1.75 0.056,-0.1118 -0.021,-0.2517 0,-0.375 0.047,-0.28284 0.6844,-1.93441 0.875,-2.125 0.042,-0.0417 0.3333,-0.0833 0.375,-0.125 0.2586,-0.25863 -0.3952,0.0101 0.125,-0.25 0.2766,-0.13831 0.5941,-0.31272 0.6875,-0.53125 0.6078,0.95828 1.6465,1.64978 2.6875,2.34375 0.3588,0.23919 0.324,0.26149 0.625,0.5625 0.063,0.0632 0.7031,0.23829 0.75,0.25 0.061,0.0152 0.1258,-0.0103 0.1875,0 0.4804,0.0801 0.859,0.15883 1.375,0.1875 0.2425,0.0135 0.34,-0.0364 0.5625,0.0625 0.6661,0.29604 0.8629,0.66939 1.25,1.25 0.1241,0.18611 0.3567,0.23166 0.5,0.375 0.024,0.0235 0.161,0.28602 0.1875,0.3125 0.053,0.0531 0.1344,0.0719 0.1875,0.125 0.053,0.0531 0.072,0.13438 0.125,0.1875 0,0.003 0.5923,0.35864 0.625,0.375 0.059,0.0295 0.1348,0.023 0.1875,0.0625 0.037,0.0279 0.033,0.0886 0.062,0.125 0.1463,0.18293 0.3537,0.31707 0.5,0.5 0.2857,0.35709 0.6001,0.69602 0.875,1.0625 0.1592,0.21228 -0.073,-0.2003 0.25,0.1875 0.06,0.0716 0.067,0.17725 0.125,0.25 0.029,0.0364 0.083,0.0417 0.125,0.0625 0.062,0.0833 0.1358,0.15956 0.1875,0.25 0.033,0.0572 0.021,0.13606 0.062,0.1875 0.047,0.0587 0.1424,0.0649 0.1875,0.125 0.025,0.0333 -0.021,0.0893 0,0.125 0.091,0.15158 0.2336,0.26893 0.375,0.375 0.017,0.0125 0.048,-0.0147 0.062,0 0.1776,0.17757 0.4268,0.86868 0.5,1.125 0.079,0.27675 0.067,0.52432 0.125,0.8125 0.051,0.2554 0.1508,0.49304 0.1875,0.75 0.042,0.2953 0,0.64062 0,0.9375 v 1.5 1.8125 c 0,0.24557 0.027,0.50609 0,0.75 -0.079,0.70643 -0.062,1.41253 -0.062,2.125 0,0.28421 -0.035,0.5927 0,0.875 0.045,0.36388 0.1345,0.65361 0.25,1 0.2804,0.84106 -0.1292,-0.33088 0.062,0.5 0.441,1.91102 -0.01,-0.20831 0.3125,0.8125 0.077,0.24596 0.1167,0.50222 0.1875,0.75 0.064,0.22396 0.2289,0.4076 0.3125,0.625 0.1912,0.49724 -0.108,0.15893 0.1875,0.75 0.1398,0.27968 0.3602,0.47032 0.5,0.75 0.2322,0.46449 0.3806,0.97313 0.625,1.4375 0.091,0.17392 0.2184,0.32746 0.3125,0.5 0.032,0.0578 0.026,0.13268 0.062,0.1875 0.09,0.13539 0.2222,0.23961 0.3125,0.375 0.036,0.0548 0.028,0.13163 0.062,0.1875 0.1858,0.29729 0.4541,0.49068 0.6875,0.75 0.05,0.0558 0.072,0.13438 0.125,0.1875 0.3607,0.36073 0.5661,0.42529 0.8125,0.8125 0.075,0.1179 0.1074,0.26051 0.1875,0.375 0.068,0.0965 0.1793,0.15572 0.25,0.25 0.1803,0.24037 0.3223,0.5077 0.5,0.75 0.3183,0.43411 0.7512,0.75124 1.125,1.125 0.074,0.0737 0.1022,0.19026 0.1875,0.25 0.13,0.091 0.2997,0.10878 0.4375,0.1875 0.8519,0.48682 0.1903,0.13972 0.5625,0.4375 0.1872,0.14976 0.427,0.24299 0.625,0.375 0.2486,0.16572 0.4929,0.40825 0.75,0.5625 0.5007,0.30043 0.1393,-0.079 0.6875,0.3125 0.1802,0.12872 0.3259,0.30068 0.5,0.4375 0.4453,0.34987 0.9372,0.63521 1.375,1 0.183,0.15251 0.2997,0.37878 0.4375,0.5625 0.08,0.10672 0.1667,0.20833 0.25,0.3125 0.1042,0.10417 0.2205,0.19747 0.3125,0.3125 0.076,0.0949 0.1129,0.21661 0.1875,0.3125 0.072,0.093 0.1824,0.15345 0.25,0.25 0.08,0.11449 0.1119,0.25744 0.1875,0.375 0.2985,0.46437 0.6309,0.91504 0.9375,1.375 0.07,0.10565 0.1182,0.28264 0.1875,0.375 0.028,0.0373 0.099,0.0237 0.125,0.0625 0.023,0.0347 0,0.0833 -0.154,-0.15625 -0.3211,-0.11411 -0.605,0.58681 -0.654,0.78125 -0.01,0.0404 0.015,0.0863 0,0.125 -0.056,0.13949 -0.194,0.23551 -0.25,0.375 -0.015,0.0387 0.01,0.0846 0,0.125 -0.102,0.408 -0.034,-0.23614 -0.125,0.3125 -0.113,0.67943 -0.062,1.42082 -0.062,2.125 0,0.7046 -0.039,1.42162 0,2.125 0.029,0.52029 0.1475,0.68257 0.1875,1.125 0.092,1.01646 0.1482,2.04468 0.25,3.0625 0.036,0.36092 0.1615,0.69781 0.1875,1.0625 0.019,0.27014 -0.034,0.54376 0,0.8125 0.031,0.25149 0.094,0.49851 0.125,0.75 0.062,0.49503 0.082,1.0075 0.1875,1.5 0.032,0.1483 0.097,0.28843 0.125,0.4375 0.034,0.18542 0.041,0.375 0.062,0.5625 0,0.0417 -0.01,0.084 0,0.125 0.055,0.31384 0.1185,0.6264 0.1875,0.9375 0.014,0.0643 0.052,0.1218 0.062,0.1875 0.016,0.18685 -0.016,0.37565 0,0.5625 0.029,0.34803 0.2,0.71551 0.25,1.0625 0.012,0.0825 0,0.1667 0,0.25 0.02,0.125 0.041,0.25 0.062,0.375 0.08,0.42827 0.202,0.87709 0.25,1.3125 0.135,1.20341 0.072,2.41627 0.125,3.625 0.03,0.68948 0.1315,1.32154 0.1875,2 0.034,0.4135 -0.032,0.83652 0,1.25 0,0.0464 0.051,0.0798 0.062,0.125 0.052,0.20611 0.073,0.41888 0.125,0.625 0.011,0.0452 0.052,0.0792 0.062,0.125 0.131,0.69756 0.102,1.479 0.121,2.1875 0.1235,0.12323 0.1155,0.23167 0.1875,0.375 0.013,0.0263 0.041,0.0417 0.062,0.0625 0.02,0 0.051,-0.0179 0.062,0 0.058,0.0962 0.075,0.21215 0.125,0.3125 0.091,0.18235 0.289,0.32841 0.375,0.5 0.019,0.0373 -0.023,0.0903 0,0.125 0.026,0.0388 0.097,0.0252 0.125,0.0625 0.2623,0.3497 -0.098,0.0451 0.125,0.3125 0.1509,0.18107 0.3693,0.30388 0.5,0.5 0.062,0.0933 0.075,0.21215 0.125,0.3125 0.04,0.0791 0.1385,0.114 0.1875,0.1875 0.119,0.17847 0.1557,0.40504 0.3125,0.5625 0.042,0.0596 0.3815,0.44977 0.4375,0.5625 0.038,0.0768 0.01,0.1822 0.062,0.25 0.1,0.12844 0.25,0.20833 0.375,0.3125 0.062,0.125 0.1065,0.26128 0.1875,0.375 0.087,0.12225 0.2688,0.14377 0.375,0.25 0.297,0.29705 0.4838,0.68053 0.75,1 0.132,0.15844 0.3033,0.28091 0.4375,0.4375 0.2455,0.2868 -0.013,0.10409 0.3125,0.375 0.058,0.0481 0.1345,0.0719 0.1875,0.125 0.1,0.0994 0.1705,0.47 0.1875,0.5 0.066,0.11582 0.172,0.20395 0.25,0.3125 0.1106,0.1549 0.167,0.33396 0.25,0.5 0.083,0.16665 0.2295,0.27085 0.3125,0.4375 0.019,0.0373 -0.013,0.0855 0,0.125 0.081,0.24293 0.193,0.37008 0.25,0.625 0.118,0.53461 0.062,1.14566 0.062,1.6875 0,0.48273 0.033,0.96351 -0.062,1.4375 -0.086,0.43507 -0.062,0.20627 -0.062,0.6875 0,0.0897 0.046,0.2989 0,0.375 -0.045,0.0758 -0.1475,0.1084 -0.1875,0.1875 -0.051,0.10212 -0.016,0.516 -0.062,0.5625 -0.319,0.3194 0.087,-0.26206 -0.25,0.1875 -0.2416,0.32207 -0.4995,0.61536 -0.75,0.9375 -0.119,0.1532 0.1837,-0.0388 -0.062,0.125 -0.078,0.0517 -0.172,0.0733 -0.25,0.125 -0.1416,0.0944 -0.212,0.231 -0.375,0.3125 -0.018,0.009 -0.045,-0.0125 -0.062,0 -0.2564,0.19227 -0.2504,0.24243 -0.5625,0.4375 -0.056,0.0349 -0.1315,0.0286 -0.1875,0.0625 -0.051,0.0303 -0.074,0.0947 -0.125,0.125 -0.1847,0.1108 -0.4285,0.1286 -0.625,0.1875 -0.3597,0.10791 -0.7152,0.23609 -1.0625,0.375 -0.09,0.036 -0.2285,0.0622 -0.3125,0.125 -0.1347,0.10106 -0.1726,0.1567 -0.3125,0.25 -0.017,0.0116 -0.045,-0.0125 -0.062,0 -0.071,0.053 -0.1115,0.143 -0.1875,0.1875 -0.1772,0.10339 -0.3824,0.1517 -0.5625,0.25 -0.1035,0.0564 -0.156,0.1793 -0.25,0.25 -0.1045,0.0784 -0.208,0.1716 -0.3125,0.25 -0.016,0.0125 -0.047,-0.0147 -0.062,0 -0.4135,0.4139 0.3153,-0.0644 -0.4375,0.4375 -0.077,0.0517 -0.167,0.0833 -0.25,0.125 -0.02,0.0417 -0.024,0.0979 -0.062,0.125 -0.1137,0.0812 -0.2587,0.11 -0.375,0.1875 -0.073,0.049 -0.1155,0.1361 -0.1875,0.1875 -0.199,0.14214 -0.4294,0.22832 -0.625,0.375 -0.1665,0.12485 -0.5985,0.57123 -0.6875,0.75 -0.019,0.0373 0.016,0.0867 0,0.125 -0.077,0.18065 -0.2435,0.31597 -0.3125,0.5 -0.037,0.0995 -0.026,0.2127 -0.062,0.3125 -0.062,0.17048 -0.3395,0.84355 -0.4375,1 -0.047,0.075 -0.1305,0.1196 -0.1875,0.1875 -0.1617,0.19398 -0.2825,0.43123 -0.4375,0.625 -0.1104,0.13804 -0.2618,0.2392 -0.375,0.375 -0.048,0.0577 -0.072,0.1344 -0.125,0.1875 -0.014,0.0147 -0.047,-0.0147 -0.062,0 -0.1545,0.15494 -0.089,0.16454 -0.1875,0.3125 -0.1357,0.2036 -0.3047,0.36334 -0.4375,0.5625 -0.068,0.1025 -0.1195,0.0225 -0.1875,0.125 -0.1858,0.27866 -0.2908,0.58167 -0.4375,0.875 -0.1282,0.25631 -0.3104,0.49585 -0.4375,0.75 -0.135,0.26011 0,-0.0668 -0.125,0.0625 -0.074,0.074 -0.1245,0.2282 -0.1875,0.3125 -0.2251,0.30018 -0.6517,0.34586 -0.875,0.625 -0.1,0.12389 -0.1055,0.30145 -0.1875,0.4375 -0.1334,0.2224 -0.39,0.32748 -0.5625,0.5 -0.1982,0.19819 -0.3472,0.44557 -0.5625,0.625 -0.1873,0.15609 -0.4128,0.30045 -0.5625,0.5 -0.1478,0.19712 -0.2318,0.42456 -0.375,0.625 -0.2064,0.28896 -0.4764,0.531 -0.6875,0.8125 -0.033,0.0434 -0.095,0.2202 -0.125,0.25 -0.014,0.0147 -0.046,-0.013 -0.062,0 -0.1749,0.13991 -0.3174,0.30705 -0.5,0.4375 -0.1834,0.13098 -0.3929,0.22661 -0.5625,0.375 -0.1951,0.17074 -0.609,0.51507 -0.75,0.75 -0.033,0.0565 -0.022,0.1348 -0.062,0.1875 -0.028,0.0373 -0.092,0.0296 -0.125,0.0625 -0.3369,0.33692 -0.2835,0.82816 -0.2187,1.65625 -3.277,1.62338 0.303,0.41425 -1.5313,0.78125 -0.058,0.0116 -0.083,0.0833 -0.125,0.125 -0.125,0.0417 -0.245,0.10334 -0.375,0.125 -0.2055,0.0342 -0.4229,-0.0505 -0.625,0 -0.2557,0.0639 -0.4907,0.20286 -0.75,0.25 -0.205,0.0373 -0.4177,-0.0207 -0.625,0 -0.8297,0.083 -1.6689,0.17445 -2.5,0.25 -0.6859,0.0623 -1.3336,0.26393 -2,0.375 -0.7703,0.12838 -1.6047,-0.12838 -2.375,0 -0.2781,-0.11656 -0.5157,0.19143 -0.75,0.25 -0.7309,0.18271 -1.8039,-0.23203 -2.5,0 -0.1425,0.0475 -0.2325,0.20249 -0.375,0.25 -0.3541,0.11804 -0.8778,-0.0414 -1.25,0 -1.6212,0.18013 -3.2588,-0.0366 -4.875,0.125 -0.2522,0.0252 -0.5,0.0833 -0.75,0.125 -0.4167,0 -0.8346,-0.032 -1.25,0 -0.3024,0.0233 -0.5747,0.2071 -0.875,0.25 -0.6936,0.0991 -1.4277,-0.0697 -2.125,0 -0.3754,0.0375 -0.7496,0.0875 -1.125,0.125 -0.8154,0.0815 -2.1253,-0.18744 -2.875,0 -0.1808,0.0452 -0.3232,0.19107 -0.5,0.25 -0.2372,0.0791 -0.5025,-0.0354 -0.75,0 -0.4225,0.0604 -0.1083,0.11667 -0.375,0.25 -0.1118,0.0559 -0.2564,-0.0395 -0.375,0 -0.076,0.0254 -0.2987,0.22457 -0.375,0.25 -0.1476,0.0492 -0.9777,0.11159 -1,0.125 -0.1736,0.10417 -0.4398,0.48611 -0.625,0.625 -0.718,0.53853 -1.5528,1.0347 -2.125,1.75 -0.3668,0.2333 -0.3892,0.68553 -0.625,1 0.09,0.49308 -0.5484,0.42337 -0.75,0.625 -0.066,0.0659 -0.073,0.17248 -0.125,0.25 -0.1755,0.26331 -0.4495,0.48669 -0.625,0.75 -0.2499,0.37483 -0.4222,0.79716 -0.75,1.125 -0.029,0.0295 -0.09,-0.0231 -0.125,0 -0.3763,0.25088 -0.571,0.69604 -0.875,1 -0.3161,0.31608 -0.7133,0.51662 -1,0.875 -0.5491,0.68643 -1.0144,1.38463 -1.75,1.875 -0.098,0.0654 -0.1382,0.21273 -0.25,0.25 -0.2164,0.0721 -0.5313,0.0375 -0.75,0.125 -0.7028,0.28111 -1.3785,0.4117 -2.125,0.625 -0.2534,0.0724 -0.4901,0.20668 -0.75,0.25 -0.56434,0.0941 -1.18923,-0.11216 -1.75,0 -0.12921,0.0258 -0.24457,0.10637 -0.375,0.125 -0.16499,0.0236 -0.33831,-0.0404 -0.5,0 -0.0404,0.0101 0.0373,0.10637 0,0.125 -0.30886,0.15443 -0.69443,0.14814 -1,0.25 -0.50622,0.16874 -1.50094,0.87593 -1.875,1.25 -0.0295,0.0295 0.0295,0.0955 0,0.125 -0.16674,0.16674 -0.33326,0.0833 -0.5,0.25 -0.0659,0.0659 -0.0591,0.18412 -0.125,0.25 -0.24083,0.24083 -0.75232,0.38195 -0.875,0.75 -0.0263,0.0791 0.0202,0.16915 0,0.25 -0.0678,0.27116 -0.2712,0.49048 -0.375,0.75 -0.0748,0.18703 -0.0634,0.44026 -0.125,0.625 -0.13519,0.40558 -0.61764,1.10291 -0.75,1.5 -0.0748,0.22444 -0.42581,1.80081 -0.5,1.875 -0.0659,0.0659 -0.1941,0.0505 -0.25,0.125 -0.1715,0.22867 -0.2035,0.64633 -0.375,0.875 -0.0559,0.0745 -0.18412,0.0591 -0.25,0.125 -0.0295,0.0295 0.0295,0.0955 0,0.125 -0.55863,0.55863 -1.06162,0.5779 -1.75,0.75 -0.0904,0.0226 -0.1581,0.10968 -0.25,0.125 -0.44787,0.0746 -1.0455,0 -1.5,0 h -3.375 c -1.77148,0 -3.60908,0.13584 -5.375,0 -1.07069,-0.0824 -2.07789,-0.22541 -3.125,-0.375 -0.47141,-0.0673 -0.37081,-0.23095 -0.875,-0.375 -0.12019,-0.0343 -0.2517,0.0206 -0.375,0 -0.47665,-0.0794 -0.92007,-0.37002 -1.375,-0.5 -0.16567,-0.0473 -1.03834,-0.22354 -1.25,-0.25 -0.76112,-0.0951 -1.612,0 -2.375,0 H 964.5 c -0.14366,0 -2.92441,-0.1003 -3.125,0 -0.0373,0.0186 0.0347,0.10189 0,0.125 -0.3645,0.243 -0.60464,0.10464 -0.8125,0.375 -0.0625,-0.125 -0.31997,-0.0644 -0.5625,-0.125 z"
         id="path152" />
    </g>
  </g>
</svg>
