<?xml version="1.0" encoding="UTF-8" standalone="no"?>
<!-- Created with Inkscape (http://www.inkscape.org/) -->

<svg
   version="1.1"
   id="svg2"
   width="295.40262"
   height="231.53519"
   viewBox="0 0 295.40262 231.53519"
   xmlns="http://www.w3.org/2000/svg"
   xmlns:svg="http://www.w3.org/2000/svg">
  <defs
     id="defs6">
    <linearGradient
       id="swatch77">
      <stop
         style="stop-color:#e2c69e;stop-opacity:1;"
         offset="0"
         id="stop77" />
    </linearGradient>
  </defs>
  <g
     id="layer66"
     style="display:inline"
     transform="translate(-103.66674,-0.17680314)">
    <g
       id="layer14"
       style="display:inline">
      <path
         style="display:inline;fill:#969696;fill-opacity:1;stroke:none;stroke-width:1;stroke-dasharray:none;stroke-opacity:1"
         d="M 379.46875,0.1875 228.43971,0.17680314 c 0.1213,0.12133702 0.0408,0.52019912 0.0884,0.66291261 0.0104,0.03125 0.0382,0.0560877 0.0442,0.0883884 0.0115,0.0577813 -0.0186,0.12087465 0,0.17677665 0.0208,0.0625 0.0755,0.1121757 0.0884,0.1767767 0.0196,0.098216 -0.0165,0.2105493 0,0.3093593 0.008,0.045951 0.0295,0.088388 0.0442,0.1325825 0.0147,0.014731 0.0372,0.02443 0.0442,0.044194 0.0529,0.1587594 0,0.686239 0,0.8396894 0,0.4001083 0.0441,0.8406066 0,1.2374368 -0.03,0.2698245 -0.0442,0.5214374 -0.0442,0.7954951 0,0.5866095 0.0396,1.1916887 -0.0884,1.767767 -0.0801,0.3602607 -0.28061,0.6938079 -0.44194,1.016466 -0.13046,0.2609121 -0.24199,0.5462893 -0.39775,0.7954951 -0.0221,0.035333 -0.0624,0.055852 -0.0884,0.088388 -0.0851,0.1063694 -0.14347,0.2450138 -0.22097,0.3535534 -0.21484,0.3007852 -0.49429,0.5908394 -0.66291,0.9280776 -0.0355,0.070956 -0.0484,0.1524469 -0.0884,0.2209709 -0.11883,0.2037054 -0.26595,0.3553954 -0.35355,0.5745244 -0.0516,0.128999 -0.0762,0.270827 -0.13258,0.397747 -0.14466,0.325465 -0.35759,0.617138 -0.53033,0.928078 -0.0226,0.04072 -0.0234,0.09091 -0.0442,0.132583 -0.0468,0.09349 -0.17097,0.229289 -0.22097,0.309359 -0.0349,0.05587 -0.0462,0.126166 -0.0884,0.176776 -0.034,0.0408 -0.0986,0.04759 -0.13258,0.08839 -0.0422,0.05061 -0.0462,0.126167 -0.0884,0.176777 -0.12297,0.147568 -0.50522,0.354729 -0.66291,0.486135 -0.064,0.05335 -0.11168,0.124717 -0.17678,0.176777 -0.32754,0.262039 -0.18142,0.09171 -0.48613,0.309359 -0.18826,0.134469 -0.36248,0.291725 -0.57453,0.397748 -0.12977,0.06489 -0.27037,0.107297 -0.39775,0.176777 -0.16862,0.09197 -0.15029,0.445479 -0.48613,0.309359 -0.0417,0.02083 -0.0922,0.02108 -0.13258,0.04419 -0.31714,0.181222 -0.61727,0.388038 -0.92808,0.574524 -0.23877,0.143261 -0.22267,0.08479 -0.39775,0.220971 -0.0908,0.07064 -0.17096,0.154991 -0.26516,0.220971 -0.29197,0.204377 -0.69803,0.302625 -1.01647,0.441942 -0.0787,0.03443 -0.14417,0.09416 -0.22097,0.132582 -0.1661,0.08305 -0.36999,0.129351 -0.53033,0.220971 -0.11401,0.06515 -0.15075,0.138637 -0.26517,0.176777 -0.32286,0.1076 -0.041,0.0059 -0.30936,0.04419 -0.16627,0.02375 -0.32088,0.102533 -0.48613,0.132583 -0.25677,0.04669 -0.5371,0.01548 -0.7955,0.04419 -0.0328,0.0036 -0.0559,0.03879 -0.0884,0.04419 -0.4362,0.0727 -0.898,0.04843 -1.32582,0.176777 -0.30402,0.09121 -0.56995,0.230879 -0.88388,0.309359 -0.76635,0.191587 -1.56047,0.374446 -2.3423,0.486136 -0.48173,0.06882 -0.9749,0.01397 -1.4584,0.04419 -0.29735,0.01858 -0.588,0.09777 -0.88389,0.132582 -0.57423,0.06755 -1.1509,-0.0035 -1.72357,0.04419 -0.40289,0.03357 -0.45588,0.06699 -0.88388,0.08839 -0.54129,0.02706 -1.09347,0 -1.63519,0 h -3.22617 c -0.4579,0 -0.95742,-0.05076 -1.41422,0 -0.16364,0.01818 -0.32398,0.05891 -0.48597,0.08837 h -1.37002 c -0.33019,0 -0.79941,-0.04662 -1.14905,0 -0.14891,0.01986 -0.29303,0.06853 -0.44194,0.08839 -0.37644,0.05019 -0.77206,-0.04712 -1.14905,0 -0.20891,0.02611 -0.3264,0.100306 -0.53033,0.176776 -0.0276,0.01035 -0.0594,-0.0053 -0.0884,0 -0.13362,0.0243 -0.26541,0.05785 -0.39775,0.08839 -0.54179,0.124982 0.20415,-0.05332 -0.35355,0.132582 -0.028,0.0093 -0.062,-0.01318 -0.0884,0 -0.0875,0.04373 -0.11427,0.158521 -0.17677,0.220971 -0.0884,0.08839 -0.26516,0.08839 -0.35356,0.176777 -0.0233,0.02329 -0.0209,0.0651 -0.0442,0.08839 -0.0104,0.01042 -0.0338,-0.01042 -0.0442,0 -0.0376,0.03756 -0.0509,0.09502 -0.0884,0.132583 -0.0233,0.02329 -0.0651,0.0209 -0.0884,0.04419 -0.15849,0.158486 -0.17357,0.37284 -0.35356,0.53033 -0.0496,0.04339 -0.12407,0.04886 -0.17677,0.08839 -0.0667,0.05 -0.11788,0.117847 -0.17678,0.176777 -0.0147,0.02946 -0.0196,0.06651 -0.0442,0.08839 -0.26431,0.234942 -0.59102,0.370042 -0.83969,0.618719 -0.0667,0.0667 -0.11008,0.154271 -0.17678,0.220971 -0.0376,0.03756 -0.095,0.05083 -0.13258,0.08839 -0.0551,0.05511 -0.0532,0.234301 -0.17678,0.220971 -0.0559,0.04793 -0.12468,0.0805 -0.17678,0.132582 -0.0521,0.05208 -0.0805,0.124697 -0.13258,0.176777 -0.0521,0.05208 -0.12467,0.0805 -0.17677,0.132582 -0.29695,0.296949 -0.51566,0.618768 -0.83969,0.883884 -0.13918,0.113868 -0.30755,0.189894 -0.44195,0.309359 -0.15571,0.138409 -0.30475,0.285155 -0.44194,0.441942 -0.0485,0.05543 -0.0767,0.128837 -0.13258,0.176777 -0.05,0.04288 -0.12678,0.04552 -0.17678,0.08839 -0.15363,0.131682 -0.2349,0.333586 -0.35355,0.486136 -0.17395,0.223656 -0.44376,0.401376 -0.57452,0.662912 -0.0272,0.05433 -0.0141,0.124037 -0.0442,0.176777 -0.031,0.05426 -0.0963,0.08172 -0.13258,0.132583 -0.11439,0.160145 -0.162,0.368215 -0.26517,0.53033 -0.0618,0.09707 -0.16177,0.166505 -0.22097,0.265165 -0.0313,0.05208 -0.0229,0.119907 -0.0442,0.176777 -0.0463,0.123372 -0.13508,0.228553 -0.17678,0.353553 -0.0238,0.07126 -0.0226,0.149021 -0.0442,0.220971 -0.10465,0.348843 -0.29729,0.745921 -0.48614,1.06066 -0.0214,0.03573 -0.0589,0.05893 -0.0884,0.08839 -0.0736,0.147314 -0.14727,0.294628 -0.22097,0.441942 -0.0485,0.08089 -0.12927,0.139491 -0.17677,0.220971 -0.0565,0.09691 -0.0781,0.211289 -0.13259,0.309359 -0.0202,0.03643 -0.0653,0.05372 -0.0884,0.08839 -0.15553,0.233287 -0.26129,0.534519 -0.44195,0.751301 -0.0211,0.02531 -0.0678,0.01848 -0.0884,0.0442 -0.0412,0.05144 -0.0501,0.123166 -0.0884,0.176776 -0.0363,0.05086 -0.0884,0.08839 -0.13259,0.132583 -0.0589,0.08839 -0.11787,0.176775 -0.17677,0.265165 -0.26208,0.419318 -0.17678,0.757242 -0.17678,1.237437 0,0.819502 0.16522,2.265457 -0.48613,2.916815 -0.0522,0.05219 -0.57482,0.254185 -0.61872,0.265165 -0.0286,0.0071 -0.0604,-0.0093 -0.0884,0 -0.78348,0.261157 0.52952,-0.101403 -0.39775,0.176777 -0.40153,0.12046 -0.0353,-0.02516 -0.48613,0.04419 -0.106,0.01631 -0.2045,0.06592 -0.30936,0.08839 -0.25924,0.05555 -0.53951,0.02439 -0.7955,0.08839 -0.12783,0.03196 -0.18895,0.218676 -0.35355,0.176776 -0.88529,0.208302 -2.18221,0.103924 -3.0494,-0.132582 -0.28318,-0.07723 -0.57318,-0.142163 -0.83969,-0.265165 -0.14954,-0.06902 -0.29693,-0.142891 -0.44194,-0.220971 -0.0468,-0.02518 -0.0822,-0.07159 -0.13258,-0.08839 -0.085,-0.02833 -0.17967,-0.01746 -0.26517,-0.04419 -0.30545,-0.09545 -0.65827,-0.262072 -0.92808,-0.441942 -0.26375,-0.175836 -0.44313,-0.487329 -0.66291,-0.707107 -0.0376,-0.03756 -0.0994,-0.04692 -0.13258,-0.08839 -0.0291,-0.03637 -0.0202,-0.09263 -0.0442,-0.132583 -0.0642,-0.10707 -0.19066,-0.257793 -0.26516,-0.353553 -0.25561,-0.328638 -0.18544,-0.15511 -0.39775,-0.397748 -0.0553,-0.06325 -0.24156,-0.423076 -0.26516,-0.486136 -0.0104,-0.02759 0.0152,-0.06313 0,-0.08839 -0.0322,-0.05359 -0.0935,-0.08378 -0.13259,-0.132583 -0.17164,-0.214559 -0.39281,-0.547961 -0.53033,-0.795495 -0.13471,-0.242493 -0.22218,-0.487645 -0.39774,-0.707107 -0.13648,-0.170649 -0.0625,-0.124997 -0.17678,-0.353553 -0.24882,-0.497642 -0.50088,-1.031219 -0.7955,-1.502602 -0.17248,-0.275979 -0.38865,-0.529971 -0.57452,-0.795495 -0.0915,-0.130661 -0.19597,-0.347657 -0.26517,-0.486136 -0.0709,-0.141911 -0.0888,-0.309927 -0.17677,-0.441942 -0.11939,-0.179079 -0.30412,-0.320742 -0.44194,-0.486135 -0.18159,-0.217905 -0.15842,-0.246491 -0.35356,-0.530331 -0.3436,-0.499789 -0.69588,-1.007576 -1.14899,-1.414207 0,-0.10702 -0.0412,0.003 -0.0884,-0.04419 -0.0376,-0.03756 -0.0508,-0.09502 -0.0884,-0.132583 -0.0667,-0.0667 -0.15427,-0.110077 -0.22097,-0.176777 -0.0667,-0.0667 -0.11008,-0.15427 -0.17678,-0.22097 -0.33846,-0.338456 -0.74916,-0.607956 -1.10485,-0.928078 -0.39757,-0.357807 -0.82045,-0.782489 -1.14905,-1.193243 -0.0206,-0.02572 -0.0295,-0.05893 -0.0442,-0.08839 l -0.30936,-0.309359 c -0.20638,-0.183451 -0.58212,-0.328981 -0.79549,-0.441942 -0.0759,-0.04019 -0.14197,-0.09874 -0.22097,-0.132583 -0.18012,-0.07719 -0.52275,0.0625 -0.66291,0.132583 -0.0186,0.0093 -0.0242,0.03849 -0.0442,0.04419 -0.0862,0.02461 -0.17766,0.02475 -0.26516,0.04419 -0.35598,0.07911 -0.70274,0.22514 -1.06066,0.30936 -0.19132,0.04501 -0.39311,0.05699 -0.57453,0.132582 -0.21284,0.08869 -0.39997,0.236439 -0.61872,0.309359 -0.46413,0.154713 -0.96092,0.203479 -1.41421,0.397748 -0.1657,0.07101 -0.35779,0.196145 -0.53033,0.265165 -0.28197,0.11279 -0.59577,0.124931 -0.88388,0.220971 -0.21808,0.07269 -0.23237,0.17154 -0.39775,0.309359 -0.0253,0.02108 -0.0589,0.02946 -0.0884,0.04419 -0.0147,0.02946 -0.0209,0.0651 -0.0442,0.08839 -0.0104,0.01042 -0.0372,-0.01318 -0.0442,0 -0.0132,0.02635 0.009,0.06044 0,0.08839 -0.0586,0.175824 -0.12577,0.255125 -0.17677,0.441942 -0.0236,0.08645 -0.0225,0.178235 -0.0442,0.265165 -0.0809,0.323688 -0.18306,0.64398 -0.26516,0.972271 -0.008,0.03196 -0.0392,0.05578 -0.0442,0.08839 -0.0372,0.261221 -0.0203,0.532891 -0.0442,0.795495 -0.004,0.04639 -0.0352,0.0869 -0.0442,0.132582 -0.0736,0.368222 -0.11528,0.732676 -0.17678,1.104867 0,0.09252 -0.10169,0.128331 -0.13259,0.220971 -0.0186,0.0559 0.0143,0.119606 0,0.176776 -0.005,0.02021 -0.0372,0.02443 -0.0442,0.04419 -0.009,0.02795 0.007,0.05981 0,0.08839 -0.0288,0.115222 -0.12998,0.200194 -0.17678,0.309359 -0.0352,0.08236 0.0799,0.197445 -0.0442,0.265165 -0.007,0.01318 -0.0352,-0.01178 -0.0442,0 -0.0974,0.12982 -0.12658,0.309818 -0.22098,0.441942 -0.19512,0.273179 -0.2883,0.377382 -0.48613,0.707107 -0.0408,0.06802 -0.0499,0.15162 -0.0884,0.22097 -0.0358,0.06439 -0.0968,0.112387 -0.13258,0.176777 -0.0771,0.138696 -0.10578,0.30003 -0.17678,0.441942 -0.0754,0.150864 -0.20016,0.323604 -0.26516,0.486136 -0.011,0.02736 0.0116,0.06131 0,0.08839 -0.12298,0.286942 -0.19157,0.287495 -0.26517,0.618719 -0.0224,0.10089 -0.0303,0.54166 0,0.662912 0.005,0.02021 0.0412,0.02364 0.0442,0.04419 0.0121,0.07265 -0.0233,0.151091 0,0.220971 0.0104,0.03125 0.0686,0.01784 0.0884,0.04419 0.0279,0.03727 0.0295,0.08839 0.0442,0.132583 0,0.01473 -0.008,0.03156 0,0.04419 0.11792,0.196534 0.22586,0.351868 0.30936,0.574524 0.0103,0.02759 -0.008,0.06006 0,0.08839 0.0907,0.317335 0.23476,0.637585 0.26516,0.972272 0.008,0.08803 -0.0117,0.177555 0,0.265165 0.0443,0.331959 0.17357,0.640682 0.22097,0.972271 0.12031,0.842131 0.25946,1.672382 0.35356,2.519068 0.0447,0.402673 0.13977,0.786482 0.17677,1.193243 0.0804,0.879437 -0.0151,1.771546 0.0884,2.65165 0.0255,0.216994 0.0947,0.347172 0.13258,0.574525 0.0292,0.174976 -0.0661,0.361321 0.0442,0.53033 0.008,0.04583 0.0295,0.08839 0.0442,0.132582 0.0442,0.265165 0.0884,0.53033 0.13258,0.795495 0.0818,0.572315 -0.10606,-0.433102 0,0.30936 0.0192,0.134451 0.0521,0.266885 0.0884,0.397747 0.0748,0.269312 0.15165,0.540077 0.26517,0.795495 0.0658,0.148011 0.16267,0.286439 0.22097,0.441942 0.10367,0.276465 0.17759,0.576151 0.30936,0.839689 0.0531,0.10623 0.13267,0.199086 0.17677,0.30936 0.0164,0.04103 -0.0159,0.09133 0,0.132582 0.15197,0.395111 0.43358,0.627288 0.48618,1.060666 v 1.414214 c 0,0.197374 0.0278,0.424333 0,0.618718 -0.0127,0.08871 -0.0295,0.176775 -0.0442,0.265165 -0.0147,0.02946 -0.0392,0.0559 -0.0442,0.08839 -0.0153,0.09184 0.0361,0.229029 -0.0442,0.309359 -0.0104,0.01042 -0.0352,-0.01179 -0.0442,0 -0.11734,0.156455 -0.16497,0.341754 -0.30936,0.486136 -0.0104,0.01042 -0.0324,-0.0088 -0.0442,0 -0.12661,0.09496 -0.22857,0.212149 -0.35355,0.309359 -0.49082,0.381748 -1.07996,0.61455 -1.59099,0.972272 -0.23531,0.164713 -0.30103,0.298527 -0.53033,0.486136 -0.18425,0.150743 -0.44904,0.228061 -0.61872,0.397747 -0.0521,0.05208 -0.0751,0.130767 -0.13258,0.176777 -0.023,0.01841 -0.066,-0.01917 -0.0884,0 -0.0874,0.07488 -0.13497,0.188725 -0.22097,0.265165 -0.0492,0.04377 -0.12538,0.04724 -0.17678,0.08839 -0.0976,0.07809 -0.17177,0.182125 -0.26517,0.265165 -0.11909,0.105863 -0.27332,0.165625 -0.39774,0.265165 -0.42006,0.336049 -0.67932,0.62173 -1.14905,0.928078 -0.65196,0.425192 -1.39882,0.683825 -2.07713,1.06066 -0.24416,0.135644 -0.21318,0.223903 -0.53033,0.441942 -0.17891,0.123005 -0.78513,0.355192 -1.01646,0.441942 -0.16157,0.06058 -0.30982,0.03063 -0.48614,0.04419 -0.2183,0.01679 -0.39511,0.04419 -0.61872,0.04419 h -2.07712 c -0.33689,0 -0.84065,-0.04599 -1.19325,0 -1.20093,0.156637 -0.14022,0.126907 -1.23743,0.176777 -0.33978,0.01544 -0.72424,-0.05176 -1.06066,0 -0.0784,0.01206 -0.14397,0.06915 -0.22097,0.08839 -0.56328,0.14082 -0.11603,0.0059 -0.44195,0.04419 -0.2069,0.02434 -0.41104,0.07178 -0.61871,0.08839 -0.62941,0.05035 -1.27045,-0.04461 -1.90032,-2e-6 -0.19077,0 -0.43144,-0.03746 -0.61872,0 -0.0323,0.0065 -0.0561,0.03769 -0.0884,0.04419 -0.25349,0.0507 -0.53771,-0.02864 -0.7955,0 -0.10659,0.01185 -0.20419,0.06736 -0.30936,0.08839 -0.42718,0.08539 -0.10756,0.0035 -0.57452,0.08839 -0.11952,0.02173 -0.23282,0.07497 -0.35355,0.08839 -0.31271,0.03475 -0.65813,0 -0.97227,0 h -2.07713 -2.87262 c -0.43787,0 -0.88886,0.03121 -1.32583,0 -0.36968,-0.02641 -0.74495,-0.104797 -1.10485,-0.176777 -0.38858,-0.07772 -0.80147,-0.120806 -1.19324,-0.176776 -0.18959,-0.02708 -0.3845,0.02375 -0.57453,0 -0.0924,-0.01156 -0.17556,-0.06279 -0.26516,-0.08839 -0.3945,-0.112713 -0.79615,-0.210089 -1.19325,-0.309359 -0.0452,-0.0113 -0.0884,-0.02946 -0.13258,-0.04419 -0.0147,-0.01473 -0.0242,-0.03849 -0.0442,-0.04419 -0.0862,-0.02462 -0.17677,-0.02947 -0.26517,-0.0442 -0.0589,-0.01473 -0.11848,-0.02705 -0.17678,-0.04419 -0.91769,-0.269909 -1.85606,-0.559753 -2.74003,-0.928077 -0.49186,-0.20494 -0.97066,-0.446137 -1.45841,-0.662913 -0.41876,-0.186115 -0.27338,-0.0704 -0.66291,-0.265165 -0.18529,-0.09264 -0.40298,-0.326945 -0.53033,-0.486136 -0.0206,-0.02572 -0.0185,-0.06781 -0.0442,-0.08839 -0.0514,-0.04116 -0.13018,-0.0418 -0.17678,-0.08839 -0.0329,-0.03294 -0.0184,-0.09382 -0.0442,-0.132582 -0.0584,-0.08767 -0.28006,-0.224105 -0.30936,-0.265165 -0.0542,-0.07583 -0.20874,-0.402286 -0.30936,-0.486136 -0.3153,-0.262751 -0.92664,-0.270871 -1.32582,-0.220971 -0.16121,0.02015 -0.38194,0.146771 -0.53033,0.220971 -0.0659,0.03294 -0.10528,0.114722 -0.17678,0.132582 -0.21306,0.05325 -0.063,-0.08851 -0.26516,0.08839 -0.23667,0.207085 -0.45074,0.432269 -0.70711,0.618718 -0.12887,0.09372 -0.27534,0.163155 -0.39775,0.265165 -0.048,0.04001 -0.0817,0.09625 -0.13258,0.132583 -0.17645,0.126037 -0.32333,0.19075 -0.48614,0.353553 -0.0521,0.05208 -0.076,0.129627 -0.13258,0.176777 -0.0358,0.02982 -0.0962,0.01509 -0.13258,0.04419 -0.10678,0.08543 -0.11484,0.192215 -0.30936,0.265165 -0.33038,0.123892 -0.68394,0.165405 -1.01647,0.265165 -0.0631,0.01893 -0.11527,0.06474 -0.17677,0.08839 -0.13044,0.05017 -0.26799,0.08068 -0.39775,0.132583 -0.0493,0.01973 -0.0543,0.1104 -0.13258,0.08839 -0.27422,0.07835 -0.56468,0.0982 -0.83969,0.176777 -0.17561,0.05017 -0.31054,0.126607 -0.48614,0.176777 -0.0283,0.0081 -0.0604,-0.0093 -0.0884,0 -0.59333,0.197776 0.17558,-0.0172 -0.30936,0.176776 -0.0274,0.01094 -0.0639,-0.01634 -0.0884,0 -0.0693,0.04622 -0.10897,0.128337 -0.17677,0.176777 -0.0379,0.02707 -0.0938,0.01835 -0.13258,0.04419 -0.54844,0.36562 0.2409,-0.06821 -0.26517,0.220971 -0.0942,0.05385 -0.26315,0.116477 -0.35355,0.176777 -0.1476,0.0984 -0.25429,0.249218 -0.39775,0.353553 -0.0437,0.03178 -0.28725,0.164161 -0.35355,0.220971 -0.20727,0.177658 -0.36506,0.341813 -0.57453,0.53033 -0.13239,0.119149 -0.31039,0.194254 -0.44194,0.309359 -0.1048,0.0917 -0.29723,0.385621 -0.39775,0.486136 -0.0814,0.08136 -0.18376,0.139611 -0.26516,0.220971 -0.0233,0.02329 -0.0231,0.06308 -0.0442,0.08839 -0.24632,0.295591 -0.52942,0.566918 -0.7513,0.883883 -0.1402,0.200295 -0.40373,0.751548 -0.48613,0.928078 -0.0257,0.05504 -0.0208,0.120706 -0.0442,0.176776 -0.0887,0.212846 -0.23056,0.402019 -0.30936,0.618719 -0.0257,0.07059 -0.0178,0.150641 -0.0442,0.220971 -0.0948,0.252874 -0.35816,0.518621 -0.48614,0.751301 -0.0952,0.173177 -0.17676,0.353553 -0.26516,0.53033 -0.0147,0.04419 -0.0247,0.09028 -0.0442,0.132582 -0.0935,0.20251 -0.27715,0.522006 -0.35355,0.751301 -0.16013,0.4804 -0.24316,1.006413 -0.30936,1.502602 -0.0907,0.680091 -0.25216,1.346997 -0.30936,2.032932 -0.0287,0.344112 0,0.764874 0,1.104854 0,0.753656 -0.0307,1.507184 0.0884,2.2539 0.1491,0.149112 0.0574,0.344406 0.0884,0.53033 0.002,0.01453 0.0412,-0.01445 0.0442,0 0.0266,0.133014 0,0.446902 0,0.574525 v 1.149048 c 0,0.3171 0.0232,0.613093 0.0442,0.928078 0.0214,0.320409 0,0.65054 0,0.972272 v 2.209708 1.590991 c 0,0.228348 -0.0406,0.483776 0,0.707106 0.03,0.165255 0.10498,0.320458 0.13258,0.486136 0.007,0.04359 -0.014,0.09065 0,0.132583 0.0533,0.159834 0.17686,0.265315 0.26516,0.397747 0.31935,0.479018 0.52717,0.343378 1.01647,0.397748 0.15966,0.01774 0.32397,0.07037 0.48614,0.08839 1.17055,0.13006 2.4023,-0.07981 3.57972,0.08839 0.15074,0.02153 0.29355,0.116092 0.44195,0.132582 0.16232,0.01803 0.50777,0.01316 0.66291,0.04419 0.0646,0.01292 0.11508,0.06526 0.17678,0.08839 0.22227,0.08335 0.56286,0.15255 0.79549,0.22097 0.46492,0.13674 0.94457,0.32453 1.41421,0.441942 0.0572,0.01429 0.11828,-0.0073 0.17678,0 1.47691,0.184577 -0.14514,-0.0079 0.83969,0.176777 0.62528,0.11724 1.31185,0.04419 1.94454,0.04419 0.13259,0 0.2665,-0.01875 0.39775,0 0.16874,0.02411 0.28857,0.159621 0.44194,0.220971 0.11687,0.04674 0.23571,0.08839 0.35356,0.132582 0.0737,0.01474 0.15067,0.01782 0.22097,0.0442 0.21393,0.08022 0.40419,0.271043 0.61872,0.353553 0.11338,0.04361 0.24296,0.03812 0.35355,0.08839 0.13276,0.06035 0.18516,0.23293 0.30936,0.30936 0.12356,0.07604 0.27333,0.102126 0.39775,0.176776 0.17181,0.103089 0.31941,0.242409 0.48613,0.353554 0.23595,0.157296 0.1298,0.02366 0.39775,0.176776 0.28445,0.162546 0.59404,0.575499 0.88387,0.662909 0.0897,0 0.54462,0.387366 0.61872,0.486136 0.009,0.01178 -0.0104,0.03377 0,0.04419 0.0376,0.03756 0.0918,0.05439 0.13258,0.08839 0.23789,0.198243 0.44746,0.445619 0.70711,0.618719 0.0388,0.02584 0.0938,0.01835 0.13258,0.04419 0.052,0.03467 0.0838,0.09354 0.13259,0.132583 0.0514,0.04116 0.12407,0.04886 0.17677,0.08839 0.25985,0.194883 0.5543,0.415975 0.83969,0.574524 0.0258,0.01431 0.0621,-0.01318 0.0884,0 0.25767,0.128834 0.50007,0.360522 0.7513,0.486136 0.23383,0.116916 0.45961,0.247485 0.70711,0.353553 0.27775,0.119037 -0.24506,-0.0528 0.39775,0.176777 0.14484,0.05173 0.30437,0.0638 0.44194,0.132583 0.0768,0.03841 0.14417,0.09416 0.22097,0.132582 0.19588,0.09794 0.41963,0.129721 0.61872,0.220971 0.19772,0.09063 0.37772,0.216749 0.57452,0.309359 0.12645,0.0595 0.28663,0.02677 0.39775,0.132583 0.0475,0.02376 0.0829,0.06974 0.13258,0.08839 0.0703,0.02637 0.15167,0.0153 0.22097,0.04419 0.10963,0.04568 0.20083,0.128537 0.30936,0.176777 0.0269,0.01197 0.062,-0.01318 0.0884,0 0.0659,0.03294 0.10878,0.104253 0.17678,0.132583 0.11213,0.04672 0.24189,0.04054 0.35355,0.08839 0.0976,0.04185 0.17226,0.125187 0.26516,0.176777 0.17927,0.09959 0.3966,0.161374 0.57453,0.265165 0.10946,0.06385 0.1999,0.15712 0.30936,0.22097 0.0685,0.03997 0.15497,0.04439 0.22097,0.08839 0.113,0.07534 0.19952,0.185285 0.30936,0.265165 0.0533,0.03875 0.12197,0.05185 0.17677,0.08839 0.0693,0.04623 0.11278,0.123427 0.17678,0.176777 0.20628,0.171903 0.40467,0.369794 0.61872,0.53033 0.085,0.06374 0.17676,0.117847 0.26516,0.176777 0.0295,0.01473 0.061,0.02592 0.0884,0.04419 0.20199,0.134655 0.37897,0.305051 0.57453,0.441942 0.17447,0.122131 0.35585,0.231421 0.53033,0.353553 0.15735,0.110147 0.33452,0.191437 0.48613,0.309359 0.0658,0.05116 0.11788,0.117847 0.17678,0.176777 0.11785,0.08839 0.2357,0.176775 0.35355,0.265165 0.89177,0.636975 -0.49339,-0.380729 0.61872,0.397748 0.16237,0.113654 0.28855,0.272245 0.44194,0.397747 0.2244,0.183595 0.0674,-0.02095 0.35356,0.265165 0.0233,0.02329 0.0209,0.0651 0.0442,0.08839 0.22425,0.224249 0.53777,0.473885 0.83969,0.574525 0.32852,0.109508 0.67151,0.260079 1.01647,0.309359 0.26836,0.03829 -0.0135,-0.06342 0.30936,0.04419 0.0937,0.03125 0.17266,0.09788 0.26516,0.132583 0.0839,0.03146 0.18127,0.01273 0.26517,0.04419 0.45185,0.169451 0.13228,0.05502 0.35355,0.220971 0.0797,0.0598 0.17256,0.05753 0.26516,0.08839 0.11533,0.03844 0.16857,0.118807 0.26517,0.176777 0.13976,0.08385 0.11897,0.01982 0.26516,0.04419 0.0679,0.01131 0.39905,0.118272 0.44195,0.132582 0.3514,0.117136 0.69292,0.280004 1.06066,0.353554 0.0578,0.01156 0.11817,-0.0059 0.17677,0 0.29079,0.02908 0.30594,0.07002 0.61872,0.132582 0.90743,0.181477 1.94666,0.176777 2.87262,0.176777 0.5563,0 0.64817,-0.01071 1.19325,0.08839 0.14173,0.02578 0.30531,-0.007 0.44194,0.0442 0.12337,0.04626 0.22855,0.135106 0.35355,0.176776 0.18927,0.06309 -0.31787,-0.263717 0.22097,0.04419 0.0543,0.03101 0.0826,0.09508 0.13258,0.132583 0.1452,0.108896 0.51313,0.214999 0.70711,0.353553 0.25415,0.181539 0.58476,0.583056 0.83969,0.795495 0.0974,0.08113 0.19858,0.159431 0.30936,0.220971 0.0531,0.02949 0.12408,0.01405 0.17678,0.04419 0.18029,0.103027 0.31257,0.326236 0.48613,0.441942 0.0388,0.02584 0.0938,0.01835 0.13258,0.04419 0.052,0.03467 0.0861,0.09077 0.13259,0.132583 0.10095,0.09086 0.20624,0.176775 0.30936,0.265165 0.0442,0.02947 0.0918,0.05439 0.13258,0.08839 0.28285,0.235706 0.73806,0.865146 0.88388,1.193246 0.0247,0.0555 0.025,0.11917 0.0442,0.17677 0.0251,0.0753 0.0589,0.14727 0.0884,0.22097 0.0295,0.0589 0.0676,0.11428 0.0884,0.17678 0.0475,0.14252 0.052,0.2962 0.0884,0.44194 0.0231,0.0924 0.10558,0.28596 0.13258,0.35356 0.0352,0.14101 0.0135,1.10283 -0.0442,1.23743 -0.0209,0.0488 -0.0646,0.0851 -0.0884,0.13259 -0.0498,0.0995 -0.083,0.25435 -0.13258,0.35355 -0.0559,0.1118 -0.16757,0.18706 -0.26517,0.26516 -0.0115,0.009 -0.0327,-0.009 -0.0442,0 -0.20755,0.16604 -0.44575,0.37273 -0.61872,0.57453 -0.0959,0.11185 -0.0223,0.34055 -0.26516,0.35355 -0.0233,0.0233 -0.0627,0.0236 -0.0884,0.0442 -0.15498,0.12398 -0.34756,0.25917 -0.48614,0.39774 -0.28456,0.28456 0.0349,0.0781 -0.30936,0.35356 -0.16648,0.13318 -0.35901,0.26926 -0.53033,0.39774 -0.0264,0.0198 -0.0651,0.0209 -0.0884,0.0442 -0.0376,0.0376 -0.0452,0.10168 -0.0884,0.13258 -0.22989,0.1642 -1.22993,0.41931 -1.32583,0.70711 -0.0186,0.0559 0,0.11787 0,0.17677 0,0.0717 -0.0225,0.19767 0,0.26517 0.0695,0.20863 0.28681,0.42458 0.39775,0.61872 0.11407,0.19963 0.15691,0.44086 0.30936,0.61872 0.0346,0.0403 0.0986,0.0476 0.13258,0.0884 0.0634,0.0761 0.11768,0.22066 0.17678,0.30936 0.0924,0.13868 0.24943,0.22341 0.35355,0.35356 0.0868,0.1085 0.14733,0.23567 0.22093,0.3535 0.15428,0.15424 0.0797,0.15064 0.13258,0.30936 0.0226,0.0679 0.0965,0.0343 0.13259,0.0884 0.0163,0.0245 -0.009,0.0604 0,0.0884 0.0738,0.22128 0.01,-0.0737 0.0884,0.0442 0.0914,0.13705 0.12647,0.36016 0.22097,0.48614 0.37615,0.50153 0.0276,-0.094 0.13259,0.22097 0.0291,0.0873 0.17957,0.13827 0.22097,0.22097 0.0132,0.0264 -0.0132,0.062 0,0.0884 0.007,0.0132 0.032,-0.008 0.0442,0 0.10401,0.0693 0.18287,0.17106 0.26517,0.26516 0.0485,0.0554 0.0805,0.12468 0.13258,0.17678 0.29045,0.29044 0.66607,0.47912 0.97227,0.7513 0.28366,0.25214 0.0783,0.0895 0.30936,0.35355 0.37285,0.42612 -0.029,-0.14926 0.53033,0.57453 0.14242,0.18431 0.26001,0.38669 0.39775,0.57452 0.18788,0.25616 0.0116,-0.18237 0.30936,0.35356 0.0215,0.0387 -0.018,0.0922 0,0.13258 0.1467,0.33007 0.43295,0.61846 0.61872,0.92808 0.15274,0.25457 0.22542,0.53923 0.35355,0.79549 0.13827,0.27653 0.34602,0.51526 0.48614,0.7955 0.16476,0.32952 0.27772,0.68802 0.44194,1.01646 0.0475,0.095 0.12327,0.17337 0.17677,0.26517 0.0664,0.11381 0.0945,0.25066 0.17678,0.35355 0.19502,0.24378 0.34649,0.49852 0.53033,0.7513 0.18543,0.25497 0.42328,0.47009 0.57452,0.7513 0.0622,0.0861 0.10678,0.18527 0.17678,0.26517 0.035,0.04 0.10168,0.0452 0.13258,0.0884 0.11896,0.16653 0.19134,0.36313 0.30936,0.53033 0.0601,0.0851 0.15317,0.14187 0.22097,0.22097 0.10931,0.12752 0.20859,0.26337 0.30936,0.39774 0.28923,0.38564 0.51323,0.82081 0.7513,1.23744 0.0782,0.13685 0.19477,0.25686 0.26517,0.39775 0.23985,0.4797 0.44105,0.97031 0.66291,1.45841 0.0491,0.10812 0.13508,0.19815 0.17678,0.30936 0.0753,0.20083 0.10348,0.41714 0.17678,0.61871 0.0786,0.21618 0.23775,0.40402 0.30935,0.61872 0.0965,0.28933 0.12408,0.59304 0.22098,0.88389 0.27967,0.83896 -0.13963,-0.50551 0.22097,0.48613 0.0827,0.22753 0.023,0.18604 0.0442,0.39775 0.0163,0.16246 0.10098,0.53642 0.13258,0.66291 0.11092,0.44366 0.21913,0.88894 0.35356,1.32583 0.037,0.1203 0.12558,0.22788 0.13258,0.35355 0.0122,0.2206 -4e-5,0.44188 -6e-5,0.66282 0,0.15952 0.23676,0.38513 0.30936,0.53033 0.10083,0.20167 0.21106,0.42208 0.30936,0.61872 0.0567,0.11351 0.15567,0.20059 0.22097,0.30936 0.0486,0.081 0.0511,0.19067 0.0884,0.26517 0.0431,0.0862 0.24496,0.29305 0.26516,0.35355 0.009,0.028 -0.0132,0.062 0,0.0884 0.0187,0.0373 0.0653,0.0537 0.0884,0.0884 0.0337,0.0505 0.017,0.12247 0.0442,0.17677 0.0187,0.0373 0.0698,0.0511 0.0884,0.0884 0.0751,0.1502 0.21976,0.29261 0.30936,0.44194 0.0944,0.1573 0.14143,0.33765 0.26517,0.48614 0.0211,0.0253 0.0651,0.0209 0.0884,0.0442 0.0233,0.0233 0.0244,0.062 0.0442,0.0884 0.13608,0.18145 0.31118,0.34353 0.44194,0.53033 0.0567,0.081 0.0709,0.18797 0.13258,0.26517 0.14827,0.18533 0.30405,0.36768 0.44195,0.57452 0.10096,0.15144 0.15353,0.34262 0.26516,0.48614 0.064,0.0822 0.15587,0.13967 0.22097,0.22097 0.0537,0.0671 0.0776,0.15497 0.13258,0.22097 0.0211,0.0253 0.0721,0.0156 0.0884,0.0442 0.0509,0.089 0.24287,0.63977 0.26517,0.7513 0.05,0.25005 0,0.57592 0,0.83969 v 1.5026 1.67938 c 0,0.41088 0.0117,0.79276 -0.0884,1.19325 -0.057,0.22803 -0.25425,0.37589 -0.35355,0.57452 -0.13425,0.26849 -0.26168,0.58732 -0.44195,0.83969 -0.0789,0.11052 -0.18036,0.2033 -0.26516,0.30936 -0.13209,0.16511 -0.21826,0.36797 -0.35355,0.53033 -0.12046,0.14455 -0.29865,0.28337 -0.39775,0.44194 -0.0421,0.0673 -0.0464,0.15367 -0.0884,0.22097 -0.12665,0.20264 -0.36078,0.29123 -0.53033,0.44194 -0.28744,0.2555 -0.46877,0.48249 -0.7955,0.70711 -0.0979,0.0673 -0.21206,0.10868 -0.30936,0.17678 -0.21772,0.1524 -0.91756,0.84116 -1.01646,1.10485 -0.0377,0.10042 -0.0545,0.20762 -0.0884,0.30936 -0.0714,0.21412 -0.23616,0.38682 -0.26516,0.61872 -0.0169,0.13494 -0.0319,1.27432 0,1.37002 0.0132,0.0395 0.0698,0.0511 0.0884,0.0884 0.0132,0.0264 -0.004,0.0592 0,0.0884 0.0111,0.0889 0.0202,0.17887 0.0442,0.26517 0.0661,0.23794 0.18756,0.69569 0.35355,0.92808 0.21266,0.29771 0.46947,0.53112 0.66295,0.83969 v 3.88908 1.32583 c 0,0.22097 0.022,0.44304 0,0.66291 -0.016,0.15939 -0.4655,0.33164 -0.0884,0.53033 -0.0222,0.46527 0.0514,0.95151 0,1.41421 -0.007,0.0604 -0.0372,0.11638 -0.0442,0.17678 -0.0228,0.20498 0,0.41248 0,0.61872 0,0.36334 0.048,0.7451 0,1.10485 -0.0433,0.32463 -0.13588,0.64537 -0.17678,0.97228 -0.0238,0.19059 -0.01,0.38554 -0.0442,0.57452 -0.0217,0.11952 -0.0684,0.23373 -0.0884,0.35355 -0.0391,0.23431 -0.035,0.47566 -0.0884,0.70711 -0.0631,0.27321 -0.30294,0.79196 -0.39774,1.06066 -0.15697,0.44485 -0.14757,0.91113 -0.22097,1.37002 -0.0384,0.23991 -0.16058,0.46469 -0.17678,0.70711 -0.0467,0.70034 0,1.41886 0,2.12132 v 2.56326 c 0,0.51154 -0.0284,1.03625 0,1.5468 0.0123,0.22112 0.0295,0.44194 0.0442,0.66291 0.0147,0.0737 0.0372,0.14627 0.0442,0.22097 0.0714,0.71469 -0.0573,1.44941 5e-5,2.16551 v 1.19325 c 0,0.18589 0.0231,0.38983 0,0.57452 -0.035,0.28012 -0.0975,0.55903 -0.13259,0.83969 -0.009,0.0731 0.009,0.14787 0,0.22097 -0.0307,0.24564 -0.12327,0.38676 -0.17677,0.61872 -0.0267,0.11573 -0.0295,0.2357 -0.0442,0.35355 -0.0295,0.0737 -0.0692,0.14397 -0.0884,0.22097 -0.0107,0.0429 0.0107,0.0897 0,0.13259 -0.0193,0.077 -0.0738,0.14297 -0.0884,0.22097 -0.21505,1.14689 -0.0137,0.20909 -0.0442,0.57452 -0.0383,0.45922 -0.13517,0.91276 -0.17677,1.37002 -0.007,0.0734 0.009,0.14787 0,0.22097 -0.0204,0.16343 -0.0589,0.32409 -0.0884,0.48614 -0.0327,0.17961 -0.14518,0.35673 -0.17678,0.53033 -0.0239,0.13124 -0.017,0.26715 -0.0442,0.39774 -0.0751,0.36032 -0.18924,0.7887 -0.30936,1.14905 -0.067,0.20093 -0.0861,0.18288 -0.13258,0.35356 -0.032,0.11719 -0.0458,0.23981 -0.0884,0.35355 -0.0463,0.12337 -0.11788,0.2357 -0.17678,0.35355 -0.0147,0.0737 -0.0236,0.14877 -0.0442,0.22097 -0.14111,0.49389 -0.44274,0.98122 -0.48614,1.50261 -0.0314,0.37683 0,0.77112 0,1.14904 0,0.33883 -0.0169,0.67807 0,1.01647 0.003,0.0607 0.0412,0.11608 0.0442,0.17678 0.0303,0.54442 -0.0587,1.09253 0.0442,1.63518 0.004,0.0606 0.0342,0.11688 0.0442,0.17678 0.10679,0.64072 0.23756,1.29835 0.30936,1.94454 0.0554,0.49863 0.0442,1.00071 0.0442,1.5026 0,0.19877 0.0678,0.60884 0,0.7955 -0.0496,0.13634 -0.11778,0.26515 -0.17668,0.39773 0,0.32915 -0.11848,0.45954 -0.17678,0.7513 -0.009,0.0434 0.006,0.0888 0,0.13258 -0.0279,0.19547 -0.10048,0.38204 -0.13258,0.57452 -0.0462,0.27909 0.0503,0.55618 -0.0442,0.83969 -0.10338,0.3101 -0.15128,0.64035 -0.17678,0.97228 -0.0136,0.17625 0.0384,0.35776 0,0.53033 -0.0839,0.3777 -0.25261,0.73473 -0.35355,1.10485 -0.0553,0.20266 -0.12148,0.41606 -0.17678,0.61872 -0.0313,0.11458 -0.007,0.24088 -0.0442,0.35355 -0.0649,0.19466 -0.15608,0.37987 -0.22098,0.57453 -0.0431,0.12922 -0.0579,0.30997 -0.0884,0.44194 -0.053,0.22943 -0.11968,0.43447 -0.17678,0.66291 -0.0824,0.32872 -0.061,0.59941 -0.0884,0.92808 -0.0492,0.58957 -0.0442,1.17503 -0.0442,1.76777 0,0.20623 0.0216,0.41361 0,0.61871 -0.0392,0.37212 -0.0951,0.78129 -0.17678,1.14905 -0.0582,0.26194 -0.0382,0.12718 -0.13258,0.44194 -0.0871,0.2902 -0.12517,0.59659 -0.22097,0.88389 -0.048,0.14388 -0.15937,0.25915 -0.22097,0.39774 -0.0305,0.0686 0.0575,0.16528 -0.0442,0.22098 -0.0531,0.10623 -0.11788,0.20624 -0.17678,0.30935 -0.0295,0.0295 -0.067,0.0527 -0.0884,0.0884 -0.0747,0.12441 -0.10628,0.27092 -0.17678,0.39775 -0.13487,0.24286 -0.0487,0.0222 -0.22097,0.30936 -0.0509,0.0847 -0.0836,0.17937 -0.13258,0.26517 -0.11119,0.19467 0.0425,-0.26101 -0.13259,0.17677 -0.0109,0.0274 0.0132,0.062 0,0.0884 -0.0475,0.095 -0.12677,0.17147 -0.17677,0.26517 -0.18226,0.34173 -0.11954,0.35296 -0.30936,0.61871 -0.17667,0.24732 -0.0317,-0.15995 -0.26517,0.35356 -0.0311,0.0684 -0.0127,0.15277 -0.0442,0.22097 -0.0582,0.12618 -0.14947,0.23438 -0.22097,0.35355 -0.0916,0.15264 -0.13767,0.32882 -0.22097,0.48614 -0.065,0.12282 -0.15877,0.22925 -0.22097,0.35355 -0.0926,0.18513 -0.25936,0.63954 -0.30936,0.83969 -0.047,0.18798 -0.0385,0.38731 -0.0884,0.57452 -0.12768,0.4788 -0.48023,0.86243 -0.48338,1.26625 0.13025,-0.083 0.2172,-0.0732 0.29695,-0.0413 0.27288,0.10915 0.60801,0.68902 0.75,0.9375 0.12976,0.22707 0.26717,0.48879 0.4375,0.6875 0.0767,0.0895 0.17638,0.15797 0.25,0.25 0.10733,0.13416 0.12296,0.41428 0.25,0.5625 0.0959,0.11185 0.21819,0.19933 0.3125,0.3125 0.0133,0.016 -0.0125,0.0458 0,0.0625 0.2569,0.34253 0.60549,0.74025 1,0.9375 0.125,0.0625 0.24524,0.1356 0.375,0.1875 0.0387,0.0155 0.0855,-0.0132 0.125,0 0.0778,0.0259 0.17223,0.16158 0.25,0.1875 0.0593,0.0198 0.12687,-0.0152 0.1875,0 0.0857,0.0214 0.10626,0.15268 0.1875,0.1875 0.0976,0.0419 0.21303,0.0252 0.3125,0.0625 0.25373,0.0951 0.45051,0.30208 0.6875,0.4375 0.26245,0.14997 0.59538,0.19266 0.875,0.3125 0.0856,0.0367 0.15961,0.1024 0.25,0.125 0.0808,0.0202 0.1678,-0.0137 0.25,0 0.046,0.008 0.079,0.0548 0.125,0.0625 0.0822,0.0137 0.16667,0 0.25,0 0.125,0.0208 0.25129,0.035 0.375,0.0625 0.20584,0.0457 0.41649,0.16144 0.625,0.1875 0.3403,0.0425 0.7188,0 1.0625,0 0.99175,0 2.01424,-0.0822 3,0 0.60833,0.0507 0.24569,0.053 0.75,0.125 0.20327,0.029 0.4248,0.0225 0.625,0.0625 0.0646,0.0129 0.12202,0.0552 0.1875,0.0625 0.5212,0.0579 1.03948,0.0269 1.5625,0.125 0.14907,0.028 0.2892,0.0932 0.4375,0.125 0.28899,0.0619 0.58845,0.0772 0.875,0.125 0.66422,0.1107 0.43518,0.12454 1.0625,0.25 0.29729,0.0595 0.64641,0.0522 0.9375,0.125 0.0904,0.0226 0.15777,0.11182 0.25,0.125 0.31476,0.045 0.68369,0 1,0 0.44611,0 0.93181,-0.0554 1.375,0 0.10541,0.0132 0.20658,0.0543 0.3125,0.0625 0.43887,0.0338 0.87774,-0.0462 1.3125,0.0625 0.51567,0.12892 1.03786,0.28376 1.5625,0.375 0.33096,0.0576 0.67893,0.0262 1,0.125 0.23306,0.0717 0.46109,0.15944 0.6875,0.25 0.0865,0.0346 0.15883,0.10581 0.25,0.125 0.3085,0.065 0.62652,0.0732 0.9375,0.125 0.16775,0.028 0.28102,0.14482 0.4375,0.1875 0.35102,0.0957 0.70489,0.18295 1.0625,0.25 0.53596,0.10049 1.08787,0.10486 1.625,0.1875 0.25438,0.0391 0.50625,0.23125 0.75,0.3125 0.16072,0.0536 0.46428,0.13392 0.625,0.1875 0.62444,0.20815 -0.16742,-0.0835 0.5625,0.0625 0.11001,0.022 0.20426,0.0955 0.3125,0.125 0.43518,0.11868 0.28813,0.005 0.6875,0.125 0.15197,0.0456 0.28192,0.15638 0.4375,0.1875 0.0613,0.0123 0.1306,-0.0259 0.1875,0 0.17892,0.0813 0.32746,0.21839 0.5,0.3125 0.0578,0.0316 0.13101,0.0286 0.1875,0.0625 0.1221,0.0733 0.35455,0.31307 0.4375,0.4375 0.0116,0.0173 -0.0147,0.0478 0,0.0625 0.0329,0.0329 0.10103,0.0225 0.125,0.0625 0.0442,0.0737 0.0199,0.17542 0.0625,0.25 0.0438,0.0767 0.13447,0.11679 0.1875,0.1875 0.0125,0.0167 -0.0147,0.0478 0,0.0625 0.0147,0.0147 0.0478,-0.0147 0.0625,0 0.0625,0.0833 0.125,0.16667 0.1875,0.25 0,0.0208 -0.0116,0.0452 0,0.0625 0.14394,0.21592 0.40664,0.35468 0.5625,0.5625 0.028,0.0373 0.0296,0.0921 0.0625,0.125 0.0761,0.0761 0.13964,0.0293 0.1875,0.125 0.009,0.0186 -0.0147,0.0478 0,0.0625 0.0756,0.0756 0.94363,0.0625 1.0625,0.0937 l 7.125,0.0312 c 0.72444,0 1.46691,0.0554 2.1875,0 0.29376,-0.0226 0.58199,-0.0942 0.875,-0.125 0.64951,-0.0684 1.34602,0 2,0 0.626,0 1.31568,0.0777 1.9375,0 0.12575,-0.0157 0.24856,-0.0541 0.375,-0.0625 0.31181,-0.0208 0.62608,0.0259 0.9375,0 1.19085,-0.0992 -0.24352,-0.0164 0.625,-0.125 0.26173,-0.0327 0.54843,0 0.8125,0 h 1.75 l 5.625,0.125 h 0.125 c 0.0208,0 0.0555,0.0198 0.0625,0 0.0329,-0.0988 -0.0329,-0.2137 0,-0.3125 0.0378,-0.11345 0.0874,-0.16213 0.125,-0.3125 0.0245,-0.098 -0.0245,-0.2145 0,-0.3125 0.0659,-0.26378 0.094,-0.53326 0.125,-0.8125 0.0543,-0.48846 0.18654,-0.77718 0.3125,-1.3125 0.0642,-0.27281 0,-0.59033 0,-0.875 V 225.5 c 0,-0.4951 -0.051,-1.02218 -0.1875,-1.5 -0.0308,-0.10787 -0.0978,-0.20366 -0.125,-0.3125 -0.0202,-0.0808 0.0264,-0.1709 0,-0.25 -0.1043,-0.31289 -0.22873,-0.58246 -0.375,-0.875 -0.0373,-0.0745 0.0202,-0.1692 0,-0.25 -0.0295,-0.11785 -0.1541,-0.1957 -0.1875,-0.3125 -0.0172,-0.0601 0.007,-0.1254 0,-0.1875 -0.0494,-0.44484 -0.0625,-0.86398 -0.0625,-1.3125 0,-0.36661 -0.0404,-0.76107 0,-1.125 0.1147,-1.03202 -0.004,0.078 0.125,-0.4375 0.0635,-0.25563 -0.0236,-0.55429 0.0625,-0.8125 0.0976,-0.29288 0.23956,-0.54162 0.375,-0.8125 0.009,-0.0177 0.1136,-0.5053 0.125,-0.5625 0.0218,-0.10896 -0.0358,-0.26748 0,-0.375 0.0833,-0.25 0.06,0.0126 0.125,-0.3125 0.023,-0.11491 -0.0369,-0.26425 0,-0.375 0.0186,-0.0559 0.1107,-0.0678 0.125,-0.125 0.0539,-0.21569 -0.0539,-0.47181 0,-0.6875 0.085,-0.34014 0.0674,-0.0393 0.125,-0.5 0.008,-0.062 -0.0198,-0.1282 0,-0.1875 0.007,-0.0198 0.0625,0.0208 0.0625,0 0,-0.23011 -0.0417,-0.45833 -0.0625,-0.6875 0,-0.18377 -0.4139,-0.95794 -0.5,-1.1875 -0.0146,-0.039 0.0132,-0.0855 0,-0.125 -0.0324,-0.0971 -0.1508,-0.2025 -0.1875,-0.3125 -0.0374,-0.11221 -0.0263,-0.26642 -0.0625,-0.375 -0.009,-0.028 -0.0535,-0.0345 -0.0625,-0.0625 -0.0132,-0.0395 0.0132,-0.0855 0,-0.125 -0.009,-0.028 -0.0535,-0.0345 -0.0625,-0.0625 -0.0336,-0.10078 -0.0417,-0.20833 -0.0625,-0.3125 -0.0208,-0.0208 -0.0516,-0.0351 -0.0625,-0.0625 -0.1285,-0.32116 -0.279,-0.88406 -0.1875,-1.25 0.0113,-0.0452 0.0535,-0.0793 0.0625,-0.125 0.028,-0.14022 -0.0281,-0.29728 0,-0.4375 0.009,-0.0457 0.0545,-0.079 0.0625,-0.125 0.0137,-0.0822 -0.0202,-0.1692 0,-0.25 0.0226,-0.0904 0.0994,-0.1604 0.125,-0.25 0.0172,-0.0601 -0.007,-0.1254 0,-0.1875 0.0321,-0.28921 0.1206,-0.54482 0.1875,-0.8125 0.0467,-0.18671 -0.068,-1.14793 0,-1.25 0.0599,-0.0898 0.3034,-0.1397 0.375,-0.1875 0.12257,-0.0817 0.19747,-0.2205 0.3125,-0.3125 0.21137,-0.16909 0.45191,-0.25721 0.6875,-0.375 0.13383,-0.0669 0.39458,-0.20709 0.5,-0.3125 0.0737,-0.0737 -0.32723,-0.37543 0.1875,-0.25 0.0364,-0.0291 0.0921,-0.0296 0.125,-0.0625 0.0531,-0.0531 0.0719,-0.1344 0.125,-0.1875 0.16785,-0.16785 0.44616,-0.19327 0.625,-0.3125 0.0867,-0.0578 0.1763,-0.1138 0.25,-0.1875 0.0383,-0.0383 0.0867,-0.2117 0.125,-0.25 0.17917,-0.17917 0.42946,-0.33705 0.625,-0.5 0.16005,-0.13337 0.31366,-0.2818 0.5,-0.375 0.0768,-0.0384 0.1732,-0.0241 0.25,-0.0625 0.0553,-0.0277 0.5545,-0.4295 0.5625,-0.4375 0.0147,-0.0147 -0.0167,-0.05 0,-0.0625 0.0745,-0.0559 0.1691,-0.0788 0.25,-0.125 0.79468,-0.45411 -0.30347,0.16064 0.3125,-0.25 0.0875,-0.0585 0.2866,-0.0183 0.375,-0.0625 0.0791,-0.0395 0.1054,-0.1547 0.1875,-0.1875 0.0797,-0.0319 0.1732,-0.0241 0.25,-0.0625 0.0527,-0.0264 0.0806,-0.0862 0.125,-0.125 0.12245,-0.10715 0.25994,-0.19744 0.375,-0.3125 0.0147,-0.0147 -0.0147,-0.0478 0,-0.0625 0.0976,-0.0976 0.37693,-0.251 0.5,-0.3125 0.0745,-0.0373 0.1667,0 0.25,0 h 0.5 c 0.33663,0 0.66444,-0.008 1,0.0625 0.1934,0.0407 0.36992,0.1431 0.5625,0.1875 0.0812,0.0187 0.1675,-0.0118 0.25,0 0.1646,0.0235 0.47829,0.1223 0.625,0.1875 0.30035,0.13349 0.38917,0.30348 0.625,0.5 0.25294,0.21079 0.51301,0.45918 0.6875,0.75 0.0719,0.11984 0.11,0.25872 0.1875,0.375 0.049,0.0735 0.1323,0.1185 0.1875,0.1875 0.35854,0.44817 0.64224,0.92816 1.125,1.25 0.1288,0.0859 0.28033,0.2107 0.4375,0.25 0.21936,0.0548 0.52122,0 0.75,0 h 1.75 2.875 c 0.27199,0 0.99569,0.0632 1.375,0 0.12997,-0.0217 0.24456,-0.1064 0.375,-0.125 0.34058,-0.0487 0.71716,0 1.0625,0 h 2.3125 1.875 c 0.3125,0 0.62655,0.0311 0.9375,0 0.75218,-0.0752 1.49814,-0.2241 2.25,-0.3125 0.46053,-0.0542 0.92592,-0.0502 1.375,-0.125 0.17558,-0.0293 0.32731,-0.1443 0.5,-0.1875 0.14757,-0.0369 0.3635,-0.004 0.5,-0.0625 0.1801,-0.0772 0.33178,-0.2284 0.5,-0.3125 0.0589,-0.0295 0.131,-0.0286 0.1875,-0.0625 0.15158,-0.0909 0.26457,-0.23696 0.375,-0.375 0.013,-0.0163 -0.0147,-0.0478 0,-0.0625 0.10623,-0.10623 0.25769,-0.1561 0.375,-0.25 0.0651,-0.0521 0.2669,-0.2865 0.3125,-0.3125 0.0746,-0.0426 0.1746,-0.0214 0.25,-0.0625 0.47695,-0.26015 0.85839,-0.6763 1.375,-0.875 0.18447,-0.071 0.38305,-0.1047 0.5625,-0.1875 0.69262,-0.3195 -0.0474,-0.0591 0.375,-0.3125 0.25013,-0.15008 0.59739,-0.22239 0.8125,-0.4375 0.0899,-0.0899 0.13992,-0.2244 0.25,-0.3125 0.0813,-0.0651 0.1763,-0.1138 0.25,-0.1875 0.24998,-0.24998 0.3252,-0.58367 0.5,-0.875 0.53767,-0.89612 0.91987,-1.85801 1.1875,-2.875 0.11285,-0.42882 0.17182,-0.89045 0.3125,-1.3125 0.0295,-0.0884 0.0923,-0.1628 0.125,-0.25 0.0901,-0.24035 0.1271,-0.5084 0.1875,-0.75 0.032,-0.12783 0.0787,-0.25163 0.125,-0.375 0.0164,-0.0436 0.0655,-0.0785 0.0625,-0.125 -0.0185,-0.31472 -0.0833,-0.625 -0.125,-0.9375 0.17213,-0.2582 0.10979,-0.56924 0.3125,-0.8125 0.16765,-0.20118 0.36466,-0.26792 0.5625,-0.4375 0.45879,-0.39325 0.83334,-0.51515 1.4375,-0.625 0.62548,-0.11372 1.31017,0.10456 1.9375,0 0.1496,-0.0249 0.23988,-0.24736 0.4375,-0.125 0.10365,-0.0104 0.20938,0.0147 0.3125,0 0.0708,-0.0101 0.282,-0.1753 0.3125,-0.1875 0.0387,-0.0155 0.0903,0.0231 0.125,0 0.0388,-0.0258 0.0252,-0.097 0.0625,-0.125 0.0924,-0.0693 0.26934,-0.1171 0.375,-0.1875 0.0245,-0.0163 0.0417,-0.0417 0.0625,-0.0625 0,-0.0208 -0.0147,-0.0478 0,-0.0625 0.0531,-0.0531 0.1344,-0.0719 0.1875,-0.125 0.0147,-0.0147 -0.0147,-0.0478 0,-0.0625 0.0943,-0.0943 0.2182,-0.1557 0.3125,-0.25 0.0943,-0.0943 0.0442,-0.3003 0.25,-0.3125 0.0577,-0.0481 0.1344,-0.0719 0.1875,-0.125 0.28849,-0.28849 0.42404,-0.67673 0.75,-0.9375 0.12389,-0.0991 0.30295,-0.1034 0.4375,-0.1875 0.075,-0.0469 0.1108,-0.1437 0.1875,-0.1875 0.0746,-0.0426 0.1754,-0.0199 0.25,-0.0625 0.0767,-0.0438 0.1168,-0.1345 0.1875,-0.1875 0.13437,-0.10078 0.61023,0.73828 0.4375,-0.25 0.016,-0.0133 -0.0147,-0.0478 0,-0.0625 0.0227,-0.0227 0.2898,-0.1648 0.3125,-0.1875 0.0329,-0.0329 0.0296,-0.0921 0.0625,-0.125 0.0659,-0.0659 0.1773,-0.0668 0.25,-0.125 0.069,-0.0552 0.1345,-0.1168 0.1875,-0.1875 0.0125,-0.0167 -0.0167,-0.05 0,-0.0625 0.0745,-0.0559 0.1725,-0.0733 0.25,-0.125 0.26387,-0.17591 0.43908,-0.48877 0.6875,-0.6875 0.15375,-0.123 0.19932,-0.0991 0.3125,-0.25 0.0279,-0.0373 0.0296,-0.0921 0.0625,-0.125 0.0329,-0.0329 0.0921,-0.0296 0.125,-0.0625 0.0859,-0.0859 0.1097,-0.2192 0.1875,-0.3125 0.22504,-0.27004 0.46485,-0.5547 0.625,-0.875 0.0295,-0.0589 0.026,-0.1327 0.0625,-0.1875 0.4795,-0.7193 -0.1701,0.64689 0.375,-0.625 0.0776,-0.15528 0.2378,-0.28815 0.3125,-0.4375 0.1789,-0.3577 -0.0388,-0.0394 0.125,-0.3125 0.0536,-0.0893 0.1509,-0.1525 0.1875,-0.25 0.0532,-0.14201 0.077,-0.29361 0.125,-0.4375 0.12811,-0.38434 0.37011,-0.73535 0.5,-1.125 0.048,-0.14389 0.0833,-0.29167 0.125,-0.4375 0,-0.0417 -0.0115,-0.0849 0,-0.125 0.0743,-0.25998 0.2049,-0.47956 0.25,-0.75 0.0199,-0.1194 -0.0293,-0.25785 0,-0.375 0.0547,-0.21893 0.1153,-0.34585 0.1875,-0.5625 0.0732,-0.21959 0.008,-0.46919 0.0625,-0.6875 0.0272,-0.10884 0.1393,-0.18699 0.125,-0.3125 0.0507,-0.20286 0.0517,-0.91588 0.125,-1.0625 0.0466,-0.0932 0.1409,-0.1568 0.1875,-0.25 0.0186,-0.0373 -0.0155,-0.0863 0,-0.125 0.0927,-0.23173 0.34315,-0.37951 0.5,-0.5625 0.38912,-0.45398 0.88454,-0.84263 1.25,-1.3125 0.19714,-0.25347 0.3163,-0.55532 0.5,-0.8125 0.0775,-0.10855 0.176,-0.20151 0.25,-0.3125 0.0517,-0.0775 0.0668,-0.1772 0.125,-0.25 0.12884,-0.16105 0.59011,0.0633 0.4375,-0.4375 0.0534,-0.0763 0.0756,-0.171 0.125,-0.25 0.0862,-0.13798 0.2288,-0.23547 0.3125,-0.375 0.0339,-0.0565 0.023,-0.1348 0.0625,-0.1875 0.0279,-0.0373 0.0947,-0.0271 0.125,-0.0625 0.0978,-0.11406 0.1599,-0.25482 0.25,-0.375 0.12607,-0.16809 0.20618,-0.14368 0.375,-0.3125 0.0147,-0.0147 -0.0116,-0.0452 0,-0.0625 0.13581,-0.20372 0.34999,-0.36963 0.5,-0.5625 0.38085,-0.48967 0.66889,-1.04218 1,-1.5625 0.0806,-0.12674 0.1667,-0.25 0.25,-0.375 0.0417,-0.0417 0.0896,-0.0779 0.125,-0.125 0.16475,-0.21967 0.22902,-0.51644 0.375,-0.75 0.0552,-0.0883 0.1339,-0.1607 0.1875,-0.25 0.1578,-0.26303 0.1765,-0.58094 0.25,-0.875 0.12406,-0.4962 0.0103,0.24009 0.125,-0.5625 0.0278,-0.1944 -0.0833,0.16667 0,-0.25 0.0231,-0.11544 0.0723,-0.33211 0.125,-0.4375 0.0132,-0.0264 0.0555,-0.0339 0.0625,-0.0625 0.0152,-0.0606 -0.0152,-0.1269 0,-0.1875 0.0357,-0.14292 0.2308,-0.18993 0.3125,-0.3125 0.0365,-0.0548 0.033,-0.1286 0.0625,-0.1875 0.0219,-0.0437 0.3194,-0.2129 0.375,-0.25 0.0735,-0.049 0.1385,-0.114 0.1875,-0.1875 0.0116,-0.0173 -0.0198,-0.0555 0,-0.0625 0.0593,-0.0198 0.1262,0.0123 0.1875,0 0.12238,-0.0245 0.21153,-0.137 0.3125,-0.1875 0.11922,-0.0596 0.72971,0 0.875,0 h 1.875 c 0.60553,0 1.32331,-0.10878 1.6875,0.4375 0.0405,0.0608 0.1647,0.119 0.1875,0.1875 0.0132,0.0395 -0.0231,0.0903 0,0.125 0.0258,0.0388 0.0833,0.0417 0.125,0.0625 0.0502,0.13922 0.10044,0.27843 0.15064,0.41765 0.29995,0 0.46717,0.0478 0.7513,0.0884 0.16367,0.0234 0.32025,0.0166 0.48614,0.0442 0.2923,0.0487 0.63077,0 0.92807,0 0.54369,0 1.05109,0.0284 1.59099,0.0884 0.27358,0.0304 0.56808,-0.0453 0.83969,0 0.13731,0.0229 0.26821,0.0625 0.39775,0.0884 0.0434,0.009 0.0897,-0.0107 0.13258,0 0.41014,0.10248 0.023,0.097 0.48614,0.13258 0.37763,0.029 0.77028,0 1.14905,0 0.26876,0 0.57392,0.0443 0.83969,0 0.046,-0.008 0.0884,-0.0295 0.13258,-0.0442 0.14731,-0.0147 0.29463,-0.0295 0.44194,-0.0442 0.51757,-0.0324 1.03017,0.005 1.5468,-0.0884 0.12383,-0.0225 0.005,-0.54045 0.35355,-0.13259 0.25986,-0.0371 0.53564,0.0371 0.7955,0 0.49348,-0.0705 1.00094,-0.0442 1.5026,-0.0442 0.86277,0 1.74545,-0.0539 2.60746,0 0.16239,0.0102 0.32409,0.0295 0.48613,0.0442 0.0295,0.0147 0.0556,0.0412 0.0884,0.0442 0.46133,0.0384 1.50013,0.0366 1.94454,-0.0442 0.10552,-0.0192 0.20385,-0.0692 0.30936,-0.0884 0.24466,-0.0445 0.50733,-0.0152 0.7513,-0.0884 0.34149,-0.10245 0.68004,-0.42172 0.88389,-0.70711 0.0307,-0.043 0.22876,-0.44584 0.30936,-0.48614 0.0417,-0.0208 0.0953,-0.0162 0.13258,-0.0442 0.0264,-0.0198 0.0236,-0.0627 0.0442,-0.0884 0.0705,-0.0881 0.27866,-0.28935 0.35356,-0.35355 0.23349,-0.20014 0.53819,-0.32532 0.79549,-0.48614 0.12367,-0.0773 0.19425,-0.21986 0.30936,-0.30936 0.052,-0.0405 0.13018,-0.0418 0.17678,-0.0884 0.0329,-0.033 0.0144,-0.0968 0.0442,-0.13259 0.1011,-0.12131 0.30345,-0.2278 0.39775,-0.35355 0.0828,-0.1104 0.13957,-0.24502 0.22097,-0.35355 0.025,-0.0334 0.067,-0.0527 0.0884,-0.0884 0.024,-0.04 0.0171,-0.0947 0.0442,-0.13259 0.0484,-0.0678 0.12468,-0.11167 0.17678,-0.17677 0.009,-0.0115 -0.009,-0.0324 0,-0.0442 0.0375,-0.05 0.10038,-0.079 0.13258,-0.13258 0.0152,-0.0253 -0.0163,-0.0639 0,-0.0884 0.0183,-0.0274 0.0651,-0.0209 0.0884,-0.0442 0.22133,-0.22133 0.37213,-0.51518 0.57452,-0.7513 0.0813,-0.0949 0.16517,-0.19017 0.26517,-0.26517 0.0264,-0.0198 0.0651,-0.0209 0.0884,-0.0442 0.0521,-0.0521 0.0805,-0.12468 0.13258,-0.17678 0.0121,-0.0121 0.39375,-0.30736 0.39775,-0.30936 0.0253,-0.0152 0.0639,0.0163 0.0884,0 0.0693,-0.0462 0.11007,-0.12677 0.17677,-0.17677 0.0527,-0.0395 0.12028,-0.0545 0.17678,-0.0884 0.21715,-0.13029 0.4433,-0.26598 0.66291,-0.39775 0.44913,-0.26948 0.90985,-0.5003 1.37002,-0.7513 0.0466,-0.0254 0.0831,-0.069 0.13258,-0.0884 0.29069,-0.11375 0.5932,-0.19561 0.88389,-0.30936 0.12942,-0.0506 0.22925,-0.15887 0.35355,-0.22097 0.35873,-0.17937 0.75467,-0.34673 1.06066,-0.61872 0.0397,-0.0353 0.0508,-0.095 0.0884,-0.13258 0.33456,-0.33457 -0.11304,0.26283 0.30936,-0.26517 0.0283,-0.0353 0.22126,-0.38374 0.26516,-0.48613 0.0832,-0.19408 0.17047,-0.46097 0.22097,-0.66291 0.007,-0.0286 -0.0132,-0.062 0,-0.0884 0.0187,-0.0373 0.0698,-0.0511 0.0884,-0.0884 0.1069,-0.21376 0.006,-0.12034 0.0442,-0.30936 0.0214,-0.10719 0.13707,-0.26085 0.17677,-0.35355 0.0668,-0.15592 0.12358,-0.32652 0.17678,-0.48614 0.11152,-0.33456 0.19086,-0.72492 0.30936,-1.06066 0.0483,-0.13681 0.13408,-0.25908 0.17678,-0.39775 0.0992,-0.32245 -0.11657,-0.032 0.0442,-0.35355 0.0186,-0.0373 0.0677,-0.0522 0.0884,-0.0884 0.0394,-0.0689 0.0589,-0.14727 0.0884,-0.22097 0,-0.0295 -0.0132,-0.062 0,-0.0884 0.0973,-0.19454 0.21206,-0.37998 0.30936,-0.57452 0.21402,-0.42805 0.62068,-0.8035 0.97227,-1.10486 0.15712,-0.13467 0.28038,-0.31269 0.44194,-0.44194 0.27477,-0.21981 0.66545,-0.17499 0.83961,-0.57432 0,-0.0147 -0.0104,-0.0338 0,-0.0442 0.0393,-0.0393 0.51282,-0.28876 0.57452,-0.30936 0.028,-0.009 0.062,0.0132 0.0884,0 0.0659,-0.033 0.11428,-0.0936 0.17678,-0.13258 0.1346,-0.0841 0.31804,-0.12187 0.44194,-0.22097 0.0813,-0.0651 0.12777,-0.17437 0.22097,-0.22097 0.37094,-0.18547 -0.53019,0.38661 0.44194,-0.22097 0.0125,-0.008 -0.0132,-0.0372 0,-0.0442 0.14191,-0.071 0.32975,-0.0646 0.44194,-0.17678 0.0521,-0.0521 0.0805,-0.12468 0.13259,-0.17678 0.0466,-0.0466 0.12197,-0.0518 0.17677,-0.0884 0.24374,-0.16249 0.4403,-0.34481 0.66292,-0.53033 0.0253,-0.0211 0.0651,-0.0209 0.0884,-0.0442 0.0233,-0.0233 0.0244,-0.062 0.0442,-0.0884 0.11132,-0.14842 0.27884,-0.25506 0.39775,-0.39775 0.24006,-0.28805 -0.13327,0.0399 0.30936,-0.35355 0.12765,-0.11347 0.32548,-0.1929 0.44194,-0.30936 0.0233,-0.0233 0.0209,-0.0651 0.0442,-0.0884 0.043,-0.0432 0.12628,-0.0105 0.17678,-0.0442 0.0123,-0.008 0,-0.0295 0,-0.0442 0.0884,-0.0442 0.17676,-0.0884 0.26516,-0.13258 0.0354,-0.0221 0.0537,-0.0653 0.0884,-0.0884 0.0548,-0.0365 0.12408,-0.0489 0.17678,-0.0884 0.0118,-0.009 -0.0126,-0.0362 0,-0.0442 0.0744,-0.0446 0.37837,-0.20297 0.48613,-0.22097 0.0581,-0.01 0.11958,0.0143 0.17678,0 0.25778,-0.0644 0.5184,-0.2813 0.7513,-0.39775 0.0417,-0.0208 0.0922,-0.0211 0.13258,-0.0442 0.17397,-0.0994 0.31433,-0.25047 0.48614,-0.35356 0.04,-0.024 0.0922,-0.0211 0.13258,-0.0442 0.16677,-0.0953 0.32058,-0.21196 0.48614,-0.30936 0.0852,-0.0501 0.17676,-0.0884 0.26516,-0.13258 0.0295,0 0.0621,0.0132 0.0884,0 0.0659,-0.033 0.11358,-0.0947 0.17678,-0.13258 0.092,-0.0552 0.20976,-0.0486 0.30936,-0.0884 0.12234,-0.0489 0.23244,-0.12488 0.35355,-0.17678 0.23152,-0.0992 0.0423,0.0154 0.35355,-0.0884 0.13765,-0.0459 0.2614,-0.12717 0.39775,-0.17677 0.20099,-0.0731 0.42485,-0.0906 0.61872,-0.17678 0.12041,-0.0535 0.22686,-0.14058 0.35355,-0.17678 0.0722,-0.0206 0.15127,-0.0163 0.22097,-0.0442 0.0798,-0.0319 0.14198,-0.0988 0.22098,-0.13258 0.0271,-0.0116 0.0596,0.006 0.0884,0 0.16397,-0.0365 0.32526,-0.0843 0.48614,-0.13259 0.0892,-0.0268 0.17327,-0.0731 0.26517,-0.0884 0.209,-0.0352 0.45515,0.005 0.66291,-0.0442 0.19504,-0.0459 0.38186,-0.12178 0.57452,-0.17678 0.27666,-0.0791 0.56286,-0.073 0.83969,-0.17677 0.0195,-0.007 0.0295,-0.0295 0.0442,-0.0442 0.16204,-0.0442 0.32409,-0.0884 0.48613,-0.13258 0.11282,-0.0266 0.36712,-0.0518 0.48614,-0.0884 0.1203,-0.037 0.2357,-0.0884 0.35355,-0.13258 0.0884,-0.0147 0.17937,-0.0185 0.26517,-0.0442 0.71303,-0.21388 -0.52626,0.051 0.44194,-0.17678 0.69611,-0.16379 1.3742,-0.26453 2.03293,-0.57453 0.2319,-0.10913 0.49804,-0.24841 0.70711,-0.39774 0.0988,-0.0705 0.15027,-0.21036 0.22097,-0.30936 0.21911,-0.30677 0.41173,-0.64551 0.66291,-0.92808 0.21976,-0.24723 0.48226,-0.42307 0.70711,-0.66291 0.35478,-0.37844 0.70555,-0.77211 1.10485,-1.10486 0.15689,-0.13074 0.38956,-0.25697 0.53033,-0.39774 0.0233,-0.0233 0.0209,-0.0651 0.0442,-0.0884 0.14168,-0.14168 0.32967,-0.22839 0.48613,-0.35356 0.2608,-0.20863 0.36267,-0.59611 0.7513,-0.66291 0.12549,-0.0982 0.26947,-0.17066 0.39775,-0.26516 0.15188,-0.11191 0.28981,-0.24199 0.44194,-0.35356 0.0693,-0.0508 0.15677,-0.0755 0.22097,-0.13258 0.24914,-0.22145 0.45521,-0.4888 0.70711,-0.70711 0.17389,-0.1507 0.35355,-0.29462 0.53033,-0.44194 0.0589,-0.0295 0.12678,-0.0455 0.17678,-0.0884 0.10446,-0.0895 0.13497,-0.20903 0.22097,-0.30936 0.14252,-0.16627 0.28708,-0.33128 0.44194,-0.48613 0.60005,-0.60006 0.008,0.13638 0.79549,-0.70711 0.0586,-0.0628 0.0767,-0.15577 0.13259,-0.22097 0.12197,-0.14231 0.26505,-0.26507 0.39758,-0.3976 0,-0.18582 -0.0534,-0.54694 0,-0.7071 0.007,-0.0198 0.0362,-0.0248 0.0442,-0.0442 0.0651,-0.16257 0.0848,-0.36312 0.13258,-0.53033 0.0278,-0.0974 0.0906,-0.12297 0.13258,-0.22097 0.0239,-0.0558 0.017,-0.12248 0.0442,-0.17678 0.0186,-0.0373 0.0698,-0.0511 0.0884,-0.0884 0.0272,-0.0543 0.0216,-0.12038 0.0442,-0.17678 0.10964,-0.27409 0.27939,-0.5292 0.39775,-0.7955 0.0379,-0.0851 0.0517,-0.17956 0.0884,-0.26516 0.0816,-0.19049 0.25405,-0.35118 0.35355,-0.53033 0.0295,-0.0531 0.017,-0.12248 0.0442,-0.17678 0.0475,-0.095 0.12518,-0.17226 0.17678,-0.26516 0.0705,-0.12683 0.0339,-0.30205 0.17678,-0.39775 0.0977,-0.16283 0.24186,-0.29302 0.35355,-0.44194 0.14866,-0.19821 0.30291,-0.41017 0.44194,-0.61872 0.0183,-0.0274 0.0209,-0.0651 0.0442,-0.0884 0.0233,-0.0233 0.0631,-0.0231 0.0884,-0.0442 0.16711,-0.13925 0.3121,-0.26722 0.48614,-0.39775 0.0833,-0.0625 0.14187,-0.15317 0.22097,-0.22097 0.17566,-0.15057 0.11535,-0.027 0.30936,-0.22097 0.0233,-0.0233 0.0189,-0.0673 0.0442,-0.0884 0.14335,-0.11945 0.41389,-0.29066 0.57453,-0.39775 0.0481,-0.032 0.31685,-0.20144 0.39775,-0.30936 0.0198,-0.0264 0.0178,-0.0686 0.0442,-0.0884 0.0373,-0.028 0.0972,-0.0139 0.13258,-0.0442 0.0795,-0.0682 0.17627,-0.22046 0.26517,-0.30936 0.0284,-0.0284 0.14837,-0.10418 0.17677,-0.13258 0.0376,-0.0376 0.0508,-0.095 0.0884,-0.13258 0.0376,-0.0376 0.0918,-0.0544 0.13259,-0.0884 0.0676,-0.0564 0.25455,-0.28056 0.30935,-0.35356 0.14674,-0.19564 0.25326,-0.42606 0.39775,-0.61871 0.025,-0.0334 0.0589,-0.0589 0.0884,-0.0884 0.0147,-0.0147 0.0317,-0.0275 0.0442,-0.0442 0.0319,-0.0425 0.0459,-0.10068 0.0884,-0.13258 0.0236,-0.0177 0.062,0.0132 0.0884,0 0.0373,-0.0186 0.0527,-0.067 0.0884,-0.0884 0.04,-0.024 0.0884,-0.0295 0.13258,-0.0442 0.0147,0 0.0305,0.005 0.0442,0 0.0797,-0.0319 0.13767,-0.11178 0.22097,-0.13258 0.0429,-0.0107 0.0907,0.014 0.13258,0 0.014,-0.005 -0.0143,-0.0402 0,-0.0442 0.0715,-0.0179 0.15107,0.0233 0.22097,0 0.18426,-0.0614 0.38951,-0.0421 0.57452,-0.0884 0.0639,-0.016 0.054,-0.1744 0.17678,-0.0884 0.0436,-0.007 0.0916,0.0164 0.13258,0 0.18168,-0.0727 0.31794,-0.40633 0.44195,-0.53033 0.0104,-0.0104 0.031,0.007 0.0442,0 0.0822,-0.0411 0.17357,-0.23176 0.30936,-0.30936 0.0689,-0.0394 0.14727,-0.0589 0.22097,-0.0884 0.0147,0 0.031,0.007 0.0442,0 0.0732,-0.0366 0.13487,-0.10798 0.22097,-0.13258 0.43077,-0.1231 1.06109,-0.0442 1.50261,-0.0442 h 2.91681 l 13.68692,-0.0122 c 0.10826,0.0292 0.0487,-0.33998 0.0751,-0.47182 0.1134,-0.56718 0.0281,0.59387 0.125,-0.375 0.0166,-0.16584 -0.0327,-0.33657 0,-0.5 0.133,-0.6672 -0.001,0.63795 0.125,-0.625 0.0306,-0.30621 0,-0.62928 0,-0.9375 0,-1.1553 -0.0796,-2.36314 0.0625,-3.5 0.066,-0.52788 0.3105,-0.49699 0.5625,-0.875 0.1408,-0.2112 0.32124,-0.39249 0.4375,-0.625 0.0304,-0.0607 0.0321,-0.1893 0.0625,-0.25 0.0336,-0.0672 0.1012,-0.1162 0.125,-0.1875 0.0198,-0.0593 -0.0103,-0.1258 0,-0.1875 0.0748,-0.44872 0.0625,-0.85494 0.0625,-1.3125 0,-0.68671 -0.0802,-1.73354 0,-2.375 0.0188,-0.1505 0.1389,-0.27808 0.125,-0.4375 0.0115,-0.10353 -0.0129,-0.20914 0,-0.3125 0.008,-0.0654 0.0417,-0.125 0.0625,-0.1875 0.0208,-0.0208 0.0535,-0.0345 0.0625,-0.0625 0.0672,-0.20156 -0.26691,-0.47726 -0.125,-0.625 0,-0.35417 -0.0417,-0.0208 0.0625,-0.125 0.0442,-0.0442 -0.0347,-0.1355 0,-0.1875 0.0258,-0.0388 0.0921,-0.0296 0.125,-0.0625 0.0147,-0.0147 -0.0116,-0.0452 0,-0.0625 0.0903,-0.13539 0.19744,-0.25994 0.3125,-0.375 0.1862,-0.1862 0.41151,-0.29517 0.625,-0.4375 0.22925,-0.15284 0.33077,-0.40801 0.5625,-0.5625 0.063,-0.042 0.2742,-0.0867 0.3125,-0.125 0.0329,-0.0329 0.0296,-0.0921 0.0625,-0.125 0.12167,-0.12167 0.35615,-0.14211 0.5,-0.25 0.15262,-0.11447 0.26774,-0.3526 0.4375,-0.4375 0.0896,-0.0448 0.2206,-0.0561 0.3125,-0.125 0.0471,-0.0354 0.0923,-0.076 0.125,-0.125 0.0116,-0.0173 -0.0186,-0.0535 0,-0.0625 0.0373,-0.0186 0.0903,0.0231 0.125,0 0.0388,-0.0258 0.0296,-0.0921 0.0625,-0.125 0.006,-0.006 0.5963,-0.3627 0.625,-0.375 0.12111,-0.0519 0.25389,-0.0731 0.375,-0.125 0.12364,-0.053 0.24622,-0.1985 0.375,-0.25 0.058,-0.0232 0.1316,0.028 0.1875,0 0.13918,-0.0696 0.24206,-0.246 0.375,-0.3125 0.0373,-0.0186 0.0877,0.0186 0.125,0 0.0527,-0.0263 0.077,-0.0907 0.125,-0.125 0.27482,-0.1963 0.55292,-0.35484 0.8125,-0.5625 0.73758,-0.59007 -0.31814,0.27459 0.375,-0.1875 0.0173,-0.0116 -0.0147,-0.0478 0,-0.0625 0.13995,-0.13995 0.28337,-0.20975 0.4375,-0.3125 0.14423,-0.0961 0.23077,-0.2789 0.375,-0.375 0.0548,-0.0365 0.1652,0.091 0.1875,-0.0625 0.22687,-0.1815 0.50729,-0.46224 0.6875,-0.6875 0.0651,-0.08134 0.125,-0.16667 0.1875,-0.25 0,-0.04167 -0.0186,-0.08773 0,-0.125 0.0664,-0.132825 0.63485,-0.85114 0.75,-0.9375 0.0601,-0.04507 0.1344,-0.07188 0.1875,-0.125 0.0329,-0.03294 0.0252,-0.09705 0.0625,-0.125 0.10943,-0.08208 0.37186,-0.13624 0.5,-0.1875 0.16412,-0.06565 0.32753,-0.22125 0.5,-0.25 0.0822,-0.0137 0.1678,0.0137 0.25,0 0.30916,-0.05153 0.63242,-0.23623 0.9375,-0.3125 0.12294,-0.03074 0.25315,-0.02769 0.375,-0.0625 0.0284,-0.0081 0.5694,-0.44439 0.625,-0.5 0.0329,-0.03294 0.0296,-0.09206 0.0625,-0.125 0.0329,-0.03294 0.0971,-0.02523 0.125,-0.0625 0.0395,-0.05271 0.0286,-0.13101 0.0625,-0.1875 0.0937,-0.156087 0.26506,-0.290916 0.375,-0.4375 0.26107,-0.348092 0.46079,-0.780648 0.5625,-1.1875 0.0452,-0.180776 0.1667,-0.333334 0.25,-0.5 0.0959,-0.191848 0.2254,-0.366495 0.3125,-0.5625 0.0169,-0.03808 -0.0186,-0.08773 0,-0.125 0.10827,-0.216534 0.31729,-0.414632 0.4375,-0.625 0.0327,-0.0572 0.033,-0.12857 0.0625,-0.1875 0.0466,-0.09317 0.1763,-0.11384 0.25,-0.1875 0.15706,-0.157062 0.25436,-0.362646 0.4375,-0.5 0.22586,-0.169396 0.47238,-0.315616 0.6875,-0.5 0.0895,-0.0767 0.1519,-0.18463 0.25,-0.25 0.2441,-0.1627 0.003,0.07074 0.3125,-0.1875 0.39677,-0.330645 0.79229,-0.66125 1.1875,-1 0.23096,-0.197968 0.6487,-0.414496 0.8125,-0.6875 0.0339,-0.05649 0.033,-0.12857 0.0625,-0.1875 0.0395,-0.07906 0.1385,-0.11396 0.1875,-0.1875 0.2725,-0.408804 0.1875,-1.485486 0.1875,-2 0,-0.412771 0.0766,-1.241802 0,-1.625 -0.0129,-0.0646 -0.0496,-0.1229 -0.0625,-0.1875 -0.0346,-0.173082 0.0557,-0.395465 0,-0.5625 -0.009,-0.02795 -0.0417,-0.04167 -0.0625,-0.0625 -0.0208,-0.0625 -0.0417,-0.125 -0.0625,-0.1875 -0.0245,-0.09804 0.0245,-0.21446 0,-0.3125 -0.005,-0.02021 -0.0555,0.01976 -0.0625,0 -0.063,-0.188906 0,-1.016469 0,-1.25 0,-0.348459 0.073,-1.083048 0,-1.375 -0.032,-0.127828 -0.0992,-0.245797 -0.125,-0.375 -0.008,-0.04086 0.0186,-0.08773 0,-0.125 -0.009,-0.01863 -0.0535,0.01863 -0.0625,0 -0.0186,-0.03727 0.0186,-0.08773 0,-0.125 -0.0263,-0.05271 -0.0947,-0.07447 -0.125,-0.125 -0.0339,-0.05649 -0.026,-0.13268 -0.0625,-0.1875 -0.0231,-0.03467 -0.0955,0.02946 -0.125,0 -0.051,-0.05095 -0.0851,-0.35761 -0.125,-0.4375 -0.0682,-0.13644 -0.2263,-0.245747 -0.3125,-0.375 -0.0365,-0.05482 -0.026,-0.13268 -0.0625,-0.1875 -0.0996,-0.149425 -0.1448,-0.07903 -0.1875,-0.25 -0.0866,-0.346285 -0.2204,-0.868329 -0.125,-1.25 0.0253,-0.101057 0.1409,-0.15683 0.1875,-0.25 0.0373,-0.07454 -0.0202,-0.16916 0,-0.25 0.0197,-0.0787 0.1498,-0.17456 0.1875,-0.25 0.0843,-0.168582 0.11215,-0.424655 0.25,-0.5625 0.0147,-0.01473 0.0478,0.01473 0.0625,0 0.0381,-0.03808 0.3115,-0.3734 0.3125,-0.375 0.0775,-0.116283 0.11,-0.258718 0.1875,-0.375 0.0116,-0.01734 0.0478,0.01473 0.0625,0 0.0703,-0.07028 0.1318,-0.22903 0.1875,-0.3125 0.049,-0.07354 0.1345,-0.11679 0.1875,-0.1875 0.20489,-0.273193 0.41772,-0.536134 0.625,-0.8125 0.1436,-0.19145 -0.04,0.102476 0.1875,-0.125 0.0531,-0.05312 0.0719,-0.13438 0.125,-0.1875 0.0329,-0.03294 0.0862,-0.03666 0.125,-0.0625 0.14423,-0.09615 0.23077,-0.27885 0.375,-0.375 0.0173,-0.01156 0.0495,0.01627 0.0625,0 0.0759,-0.09486 0.1075,-0.22108 0.1875,-0.3125 0.0686,-0.07839 0.1763,-0.11384 0.25,-0.1875 0.0329,-0.03294 0.0327,-0.08921 0.0625,-0.125 0.0754,-0.09054 0.1667,-0.16667 0.25,-0.25 0.0417,-0.02083 0.0921,-0.02956 0.125,-0.0625 0.0329,-0.03294 0.0296,-0.09206 0.0625,-0.125 0.0329,-0.03294 0.0877,-0.03455 0.125,-0.0625 0.13856,-0.103919 0.23104,-0.27903 0.375,-0.375 0.29094,-0.193963 0.61832,-0.521229 0.8125,-0.8125 0.0327,-0.04903 0.076,-0.09231 0.125,-0.125 0.0173,-0.01156 0.0535,0.01863 0.0625,0 0.0589,-0.117851 0.0661,-0.257149 0.125,-0.375 0.0263,-0.05271 0.0923,-0.07597 0.125,-0.125 0.19204,-0.288067 0.34616,-0.629829 0.5,-0.9375 0.1801,-0.360207 0.23229,-0.80694 0.375,-1.1875 0.0103,-0.02759 0.0417,-0.04167 0.0625,-0.0625 0.0208,-0.0625 0.0417,-0.125 0.0625,-0.1875 0.0292,-0.102142 0.0231,-0.21387 0.0625,-0.3125 0.1193,-0.298118 0.1204,-0.169254 0.1875,-0.4375 0.0408,-0.163416 -0.0631,-0.404682 0,-0.5625 0.0279,-0.06974 0.0914,-0.12032 0.125,-0.1875 0.0358,-0.07166 0.0625,-0.77504 0.0625,-0.9375 0,-0.833158 0.0375,-1.671551 -0.0625,-2.5 0,-0.222747 -0.008,-0.408423 -0.0625,-0.625 -0.0709,-0.283691 0,-1.380797 0,-1.75 0,-0.486689 0.0778,-1.157967 0,-1.625 -0.0377,-0.22636 -0.0536,-0.04462 -0.125,-0.1875 -0.0496,-0.09927 -0.0599,-0.27731 -0.125,-0.375 -0.0417,-0.0625 -0.2734,0.191508 -0.1875,-0.125 -0.0232,-0.05803 0.0279,-0.1316 0,-0.1875 -0.0208,-0.04167 -0.0921,-0.02956 -0.125,-0.0625 -0.0233,-0.02331 -0.327,-0.36548 -0.375,-0.4375 -0.0601,-0.09016 -0.1067,-0.273982 -0.1875,-0.375 -0.0552,-0.06902 -0.1323,-0.11848 -0.1875,-0.1875 -0.26201,-0.327506 -0.45844,-0.951457 -0.8125,-1.1875 -0.31311,-0.208736 -0.7187,-0.377379 -1.0625,-0.5625 -0.0917,-0.04939 -0.1568,-0.14091 -0.25,-0.1875 -0.11785,-0.05893 -0.25715,-0.06607 -0.375,-0.125 -0.46077,-0.230382 -0.8743,-0.605337 -1.3125,-0.875 -0.14305,-0.08803 -0.29775,-0.15683 -0.4375,-0.25 -0.28366,-0.189108 -0.29182,-0.268323 -0.5625,-0.4375 -0.079,-0.04938 -0.1784,-0.06535 -0.25,-0.125 -0.0577,-0.04809 -0.0719,-0.13439 -0.125,-0.1875 -0.0659,-0.06588 -0.1784,-0.06535 -0.25,-0.125 -0.15021,-0.125178 -0.37039,-0.337987 -0.5,-0.5 -0.0938,-0.117311 -0.14377,-0.268771 -0.25,-0.375 -0.0147,-0.01473 -0.0478,0.01473 -0.0625,0 -0.0329,-0.03294 -0.0334,-0.08862 -0.0625,-0.125 -0.092,-0.115033 -0.2241,-0.194649 -0.3125,-0.3125 -0.072,-0.09601 -0.1208,-0.212447 -0.1875,-0.3125 -0.0163,-0.02452 -0.0417,-0.04167 -0.0625,-0.0625 -0.0208,0 -0.0478,0.01473 -0.0625,0 -0.0731,-0.0731 -0.5535,-0.737 -0.5625,-0.75 -0.18179,-0.259697 -0.5014,-0.774091 -0.625,-1.0625 -0.0164,-0.0383 0.0155,-0.08631 0,-0.125 -0.0279,-0.06974 -0.0914,-0.12031 -0.125,-0.1875 -0.151,-0.30211 -0.0148,-0.07413 -0.0625,-0.3125 -0.0402,-0.201185 -0.1062,-0.234222 -0.1875,-0.4375 -0.0777,-0.194362 -0.0519,-0.423894 -0.125,-0.625 -0.07,-0.192475 -0.231,-0.458974 -0.25,-0.6875 -0.0138,-0.166091 0.0166,-0.334161 0,-0.5 -0.0131,-0.131108 -0.0964,-0.246376 -0.125,-0.375 -0.0231,-0.1037 -0.0417,-0.208333 -0.0625,-0.3125 0,-0.0625 0.0103,-0.12585 0,-0.1875 -0.0914,-0.548636 -0.023,0.09554 -0.125,-0.3125 -0.0307,-0.122941 -0.0277,-0.253152 -0.0625,-0.375 -0.008,-0.02833 -0.0545,-0.03417 -0.0625,-0.0625 -0.0348,-0.121848 -0.0277,-0.253152 -0.0625,-0.375 -0.0256,-0.08958 -0.23987,-0.07815 -0.125,-0.25 -0.0276,-0.13778 0.0784,-0.322395 -0.0625,-0.4375 -0.0529,-0.211673 -0.2058,-0.341236 -0.25,-0.5625 -0.0646,-0.322901 -0.2159,-0.615639 -0.3125,-0.9375 -0.1004,-0.33469 -0.1303,-0.719268 -0.1875,-1.0625 -0.0932,-0.559409 0.0446,-2.473363 -0.125,-2.8125 -0.0637,-0.12744 -0.35102,-0.15025 -0.5,-0.1875 -0.51644,-0.12911 -1.0347,-0.331941 -1.5625,-0.4375 -0.5305,-0.1061 0.33794,0.293972 -0.625,-0.1875 -0.29004,-0.145022 -0.35289,-0.317722 -0.5625,-0.4375 -0.0746,-0.04262 -0.1829,-0.0088 -0.25,-0.0625 -0.0514,-0.04116 -0.026,-0.13268 -0.0625,-0.1875 -0.0134,-0.02012 -0.2266,-0.09375 -0.25,-0.125 -0.0395,-0.05271 -0.023,-0.13479 -0.0625,-0.1875 -0.0555,-0.07405 -0.3445,-0.235433 -0.4375,-0.375 -0.0365,-0.05482 -0.026,-0.13268 -0.0625,-0.1875 -0.0116,-0.01733 -0.0478,0.01473 -0.0625,0 -0.2371,-0.237075 -0.035,-0.120836 -0.1875,-0.375 -0.10987,-0.183115 -0.31881,-0.321967 -0.4375,-0.5 -0.0366,-0.05488 -0.1344,-0.27711 -0.1875,-0.3125 -0.0347,-0.02311 -0.0855,0.01318 -0.125,0 -0.0652,-0.02173 -0.0972,-0.1527 -0.125,-0.1875 -0.4096,-0.511949 0.0296,0.09212 -0.375,-0.3125 -0.0265,-0.02648 -0.164,-0.28903 -0.1875,-0.3125 -0.18686,-0.186857 -0.46065,-0.280869 -0.625,-0.5 -0.11171,-0.148946 -0.18162,-0.369115 -0.3125,-0.5 -0.0531,-0.05311 -0.1344,-0.07189 -0.1875,-0.125 -0.0147,-0.01473 0.007,-0.04274 0,-0.0625 -0.0675,-0.202361 -0.3659,-0.479 -0.4375,-0.5625 -0.0208,0 -0.0535,0.01863 -0.0625,0 -0.0227,-0.04548 -0.0265,-0.28488 -0.0625,-0.375 -0.2008,-0.501934 -0.1875,-1.090634 -0.1875,-1.625 0,-0.568696 -0.078,-1.51654 0,-2.0625 0.007,-0.04612 0.0565,-0.07878 0.0625,-0.125 0.0256,-0.205128 -0.0256,-0.419872 0,-0.625 0.0333,-0.266765 0.0181,-0.608426 0.0625,-0.875 0.0432,-0.259303 0.1244,-0.497585 0.1875,-0.75 0.0844,-0.337663 -0.0154,-0.8758 0.0625,-1.1875 0.1424,-0.56957 0.1239,-0.05247 0.1875,-0.625 0.0243,-0.218743 -0.0434,-0.470664 0,-0.6875 0.009,-0.04568 0.0535,-0.07932 0.0625,-0.125 0.0163,-0.08171 -0.031,-0.17263 0,-0.25 0.134,-0.33579 0.125,-0.141813 0.125,-0.3125 0,-0.45958 0.34259,-1.435185 0.5625,-1.875 0.0806,-0.161114 0.2428,-0.388298 0.3125,-0.5625 0.0155,-0.03869 -0.0186,-0.08773 0,-0.125 0.0263,-0.0527 0.0908,-0.07705 0.125,-0.125 0.17757,-0.248599 0.30157,-0.54065 0.4375,-0.8125 0.0263,-0.0527 0.1031,-0.07029 0.125,-0.125 0.0394,-0.09863 0.0206,-0.21486 0.0625,-0.3125 0.055,-0.128454 0.1384,-0.244144 0.1875,-0.375 0.0146,-0.03901 -0.0186,-0.08773 0,-0.125 0.009,-0.01863 0.0535,0.01863 0.0625,0 0.0285,-0.0571 0.0987,-0.48355 0.125,-0.5625 0.0295,-0.08839 0.1024,-0.15961 0.125,-0.25 0.0324,-0.129534 0.0138,-0.315759 0.0625,-0.4375 0.0279,-0.06974 0.1012,-0.11624 0.125,-0.1875 0.0605,-0.181471 0,-1.823708 0,-2.1875 0,-0.890399 0.063,-1.809284 -0.0625,-2.6875 -0.009,-0.06432 0.022,-0.18401 0,-0.25 -0.0516,-0.154704 -0.1191,-0.584823 -0.1875,-0.6875 -0.0327,-0.04903 -0.0923,-0.07597 -0.125,-0.125 -0.0391,-0.05863 0.0321,-0.18581 0,-0.25 -0.0692,-0.13837 -0.1445,-0.246158 -0.1875,-0.375 -0.0625,-0.1875 0.0312,-0.0625 0,-0.1875 -0.0717,-0.286794 -0.2407,-0.525467 -0.3125,-0.8125 -0.0101,-0.04042 0.0295,-0.09554 0,-0.125 -0.0329,-0.03294 -0.0992,-0.02374 -0.125,-0.0625 -0.0347,-0.052 0.0442,-0.143306 0,-0.1875 -0.0466,-0.046585 -0.1835,0.1134836 -0.1875,-0.0625 -0.051,-0.05101 -0.1393,-0.373196 -0.1875,-0.4375 -0.0279,-0.037268 -0.0862,-0.03666 -0.125,-0.0625 -0.123,-0.082016 -0.0728,-0.1456594 -0.125,-0.25 -0.0263,-0.052705 -0.0987,-0.072295 -0.125,-0.125 C 380.5194,8.8512328 380.5428,8.710627 380.5,8.625 380.4737,8.572295 380.4077,8.549029 380.375,8.5 c -0.0116,-0.017334 0.009,-0.043866 0,-0.0625 -0.0395,-0.079057 -0.1385,-0.113957 -0.1875,-0.1875 -0.0365,-0.054816 0.091,-0.165214 -0.0625,-0.1875 -0.0147,-0.014731 -0.0478,0.014731 -0.0625,0 C 380.0363,8.0363098 380.0189,7.912879 380,7.875 379.9737,7.822295 379.9013,7.802705 379.875,7.75 c -0.0397,-0.079356 0.0277,-0.229435 0,-0.3125 -0.009,-0.027951 -0.0535,-0.034549 -0.0625,-0.0625 -0.0272,-0.08149 -0.0353,-0.16851 -0.0625,-0.25 -0.0758,-0.2272622 0,-0.8491366 0,-1.125 V 3.0625 c 0,-0.334466 0.0132,0.1415569 -0.0625,-0.3125 -0.0171,-0.1027494 0.0253,-0.2114435 0,-0.3125 -0.0113,-0.045194 -0.0565,-0.078775 -0.0625,-0.125 -0.0725,-0.5775495 0.10187,-1.181278 -0.0625,-1.75"
         id="path242" />
    </g>
  </g>
</svg>
