<?xml version="1.0" encoding="UTF-8" standalone="no"?>
<!-- Created with Inkscape (http://www.inkscape.org/) -->

<svg
   version="1.1"
   id="svg1"
   width="295.64813"
   height="231.28125"
   viewBox="0 0 295.64813 231.28125"
   xmlns="http://www.w3.org/2000/svg"
   xmlns:svg="http://www.w3.org/2000/svg">
  <defs
     id="defs1" />
  <g
     id="layer1"
     style="display:inline"
     transform="translate(-103.41436,-0.90625)">
    <g
       id="layer34"
       style="display:inline;fill:#ffffff;fill-opacity:1;stroke:none">
      <path
         style="fill:#ffffff;fill-opacity:1;stroke:none;stroke-linecap:round"
         d="M 228.96875,0.90625 H 379.5625 l 0.19804,6.1869149 2.80633,6.2755731 -0.11049,5.568465 -2.98311,4.397321 0.15468,10.54031 7.20365,5.899922 1.76777,8.905127 4.08813,6.882617 4.0625,1.5 2.3125,2.5625 -1.6875,11.75 -5.625,6.375 -0.125,1.375 2.375,2.5 -0.8125,6.5 -12.3125,13.8125 -7.3125,4.8125 -0.875,13.75 -21.5625,0.9375 -5.875,5.9375 -1.0625,4.9375 -8.4375,8.0625 -12.8125,3.5625 -3,3.0625 -3.0625,1.1875 -2.9375,3.125 -1.8125,4.1875 -10.5625,9.125 -25.0625,-0.875 -6.75,11 -3,8.75 -6.75,6.25 -5,1.5625 -3.375,7.625 -5.75,5.5 -19,0.125 -1.5,-2.3125 -5.3125,-0.3125 -6.5625,4.1875 0.625,25.4375 -25.8125,0.625 -5.8125,-3.375 -21.98676,-2.53833 -8.83884,-6.0988 3.0936,-9.72271 3.09359,-17.76606 2.56326,-43.31029 3.88909,-7.15946 -1.59099,-4.94975 -2.65165,-4.15425 -0.0884,-6.01041 -13.52342,-18.82671 5.3033,-5.30331 -4.94974,-5.480073 h -6.45235 l -9.54595,-7.159456 -6.09879,-3.535534 -13.7002,-4.419417 -6.8059,-0.795495 -0.79549,-15.467961 2.56326,-5.745243 3.88909,-3.535533 7.42462,-3.535534 4.15425,2.916815 8.22012,1.325825 h 7.51301 l 8.13172,-0.353553 11.57888,-3.270369 3.62392,-4.684582 -3.0052,-12.020816 0.7071,-3.005203 -3.0052,-1.679379 1.67938,-2.032932 2.56326,-8.662058 5.3033,-1.237437 7.15946,6.629126 3.44714,7.159456 6.98268,1.325825 2.74004,-1.325825 1.14905,-4.596194 4.5078,-6.982679 5.12653,-3.712311 21.38998,-1.502602 6.36396,-2.474874 2.91681,-6.4523489 3.0936,-2.032932 z"
         id="path31" />
    </g>
  </g>
</svg>
