<?xml version="1.0" encoding="UTF-8" standalone="no"?>
<!-- Created with Inkscape (http://www.inkscape.org/) -->

<svg
   version="1.1"
   id="svg1"
   width="180.57739"
   height="96.3433"
   viewBox="0 0 180.57739 96.3433"
   xmlns="http://www.w3.org/2000/svg"
   xmlns:svg="http://www.w3.org/2000/svg">
  <defs
     id="defs1" />
  <g
     id="layer1"
     style="display:inline"
     transform="translate(-541.55541,-583.00954)">
    <g
       id="layer36"
       style="display:inline;fill:#ffffff;fill-opacity:1;stroke:none">
      <path
         style="fill:#ffffff;fill-opacity:1;stroke:none;stroke-linecap:round"
         d="m 541.55541,612.26608 10.78337,-8.75044 49.93942,-18.29639 50.64652,-2.20971 20.68288,2.03293 47.37615,15.2028 1.14905,1.67938 -5.65685,8.39689 -2.2981,9.98788 0.97227,7.6014 6.18718,13.34664 -7.513,19.97577 -5.92202,3.88909 -2.38649,6.0104 -5.92202,2.2981 -7.86656,5.92202 h -7.07107 l -12.1092,-2.38649 -11.13693,-5.39168 -57.7176,-15.11441 -12.28598,-5.03814 -3.09359,-2.74004 -2.74004,-0.7071 -3.27037,-5.56847 -4.5078,-9.01561 v -1.76777 l -4.77297,-5.65685 -13.08148,-8.48528 -9.98788,-2.56327 -6.18719,0.17678 z"
         id="path33" />
    </g>
  </g>
</svg>
