<?xml version="1.0" encoding="UTF-8" standalone="no"?>
<!-- Created with Inkscape (http://www.inkscape.org/) -->

<svg
   version="1.1"
   id="svg1"
   width="128"
   height="66.53125"
   viewBox="0 0 128 66.53125"
   xmlns="http://www.w3.org/2000/svg"
   xmlns:svg="http://www.w3.org/2000/svg">
  <defs
     id="defs1" />
  <g
     id="layer1"
     style="display:inline"
     transform="translate(-1001.125,-536.75)">
    <g
       id="layer35"
       style="display:inline;fill:#ffffff;fill-opacity:1;stroke:none">
      <path
         style="fill:#ffffff;fill-opacity:1;stroke:none;stroke-linecap:round"
         d="m 1010.375,536.75 -4.875,17.125 -3.75,30 -0.625,17.75 2.2813,1.65625 1.9062,-0.78125 1.0313,-1.5 2.7812,-0.96875 3.875,-3.65625 4.0625,-0.0937 2.0938,-2.4375 0.1875,-2.6875 5.9687,-4.65625 20.4688,-2.9375 4.4687,-0.0625 6.9375,3.4375 2.0625,0.9375 0.5938,2.34375 16.3437,0.0937 2.75,3.03125 18.1875,-6.59375 4.75,-5.25 3.125,-0.375 9.875,-5.375 2.5,-6 4.375,-2.625 7.375,-15.75 -0.75,-10.375 -45.125,2.25 -40.25,-0.75 z"
         id="path32" />
    </g>
  </g>
</svg>
