<?xml version="1.0" encoding="UTF-8" standalone="no"?>
<!-- Created with Inkscape (http://www.inkscape.org/) -->

<svg
   version="1.1"
   id="svg1"
   width="233.33427"
   height="120.55635"
   viewBox="0 0 233.33427 120.55635"
   xmlns="http://www.w3.org/2000/svg"
   xmlns:svg="http://www.w3.org/2000/svg">
  <defs
     id="defs1" />
  <g
     id="layer1"
     style="display:inline"
     transform="translate(-426.91572,-491.88115)">
    <g
       id="layer37"
       style="display:inline;fill:#ffffff;fill-opacity:1;stroke:none">
      <path
         style="fill:#ffffff;fill-opacity:1;stroke:none;stroke-linecap:round"
         d="m 450.07347,509.47044 17.58928,-6.71752 19.62221,-10.87177 22.09709,8.75045 50.20458,12.99309 87.28837,8.62531 13.375,-0.5 -0.75,28 -5.75,22.375 -4.875,10.625 -46.25,2.625 -50.0625,17.5625 -10.3125,9.5 -8,-2.9375 -11.25615,-0.50428 -8.22011,-1.67938 -11.75565,-0.97228 -4.33103,-3.27036 -17.23573,-7.24785 -5.12652,-0.79549 -8.48529,-4.41942 -16.17506,-14.76086 -3.97748,-1.41421 -0.61872,-2.91681 -7.6014,-7.07107 -5.03813,-2.2981 -4.15425,-3.88909 -3.35876,-9.63433 4.33103,-8.57367 2.12132,-5.03813 4.86136,-2.91682 2.91681,-6.89429 0.7955,-5.74524 5.48008,-3.18198 z"
         id="path34" />
    </g>
  </g>
</svg>
