<?xml version="1.0" encoding="UTF-8" standalone="no"?>
<!-- Created with Inkscape (http://www.inkscape.org/) -->

<svg
   version="1.1"
   id="svg2"
   width="179.82487"
   height="97.628853"
   viewBox="0 0 179.82487 97.628853"
   xmlns="http://www.w3.org/2000/svg"
   xmlns:svg="http://www.w3.org/2000/svg">
  <defs
     id="defs6">
    <linearGradient
       id="swatch77">
      <stop
         style="stop-color:#e2c69e;stop-opacity:1;"
         offset="0"
         id="stop77" />
    </linearGradient>
  </defs>
  <g
     id="layer66"
     style="display:inline"
     transform="translate(-543.058,-582.28372)">
    <g
       id="layer69"
       style="display:inline">
      <path
         style="display:inline;fill:#969696;fill-opacity:1;stroke:none;stroke-opacity:1"
         d="m 720.89539,598.91943 c -0.67307,-0.40384 -0.5913,-0.41452 -1.23744,-1.06066 -0.20602,-0.12877 -0.48592,-0.0762 -0.7071,-0.17677 -0.90905,-0.41321 -1.84342,-1.16797 -2.82843,-1.41422 -0.94443,-0.23611 -2.06819,-0.43151 -3.0052,-0.70711 -1.21833,-0.35833 -2.44204,-1.02572 -3.71231,-1.23743 -0.51044,-0.0851 -1.08624,0.11217 -1.59099,0 -0.8236,-0.18302 -1.65638,-0.32571 -2.47488,-0.53033 -1.70592,-0.42648 -0.42154,-0.23849 -1.94454,-0.70711 -2.92716,-0.90066 0.25833,0.36204 -3.53554,-1.06066 -0.6148,-0.23055 -2.173,-0.82134 -3.0052,-1.23744 -0.19003,-0.095 -0.32877,-0.28635 -0.53033,-0.35355 -1.54398,-0.51466 -3.22101,-0.31911 -4.77297,-0.70711 -0.95139,-0.23784 -1.88381,-0.61399 -2.82843,-0.88388 -0.52236,-0.14925 -1.07063,-0.19745 -1.59099,-0.35355 -0.30394,-0.0912 -0.57603,-0.27656 -0.88388,-0.35356 -0.1715,-0.0429 -0.35533,0.025 -0.53033,0 -1.08871,-0.15553 -2.29252,-0.44054 -3.35876,-0.7071 -1.63829,-0.40958 -3.33784,-0.70014 -4.94975,-1.23744 -0.60208,-0.20069 -1.15548,-0.54012 -1.76776,-0.70711 -0.3458,-0.0943 -0.71735,-0.0738 -1.06066,-0.17677 -0.25241,-0.0757 -0.45145,-0.28966 -0.70711,-0.35356 -0.22866,-0.0572 -0.47377,0.0333 -0.70711,0 -0.90382,-0.12912 -1.7797,-0.66589 -2.65165,-0.88388 -0.11433,-0.0286 -0.24175,0.0373 -0.35355,0 -0.0791,-0.0263 -0.0977,-0.15038 -0.17678,-0.17678 -0.1118,-0.0373 -0.23799,0.0231 -0.35355,0 -0.47648,-0.0953 -0.94281,-0.2357 -1.41421,-0.35355 -0.11785,-0.0589 -0.22573,-0.14478 -0.35356,-0.17678 -0.27208,-0.068 -0.61539,0.0805 -0.88388,0 -0.48223,-0.14467 -0.92849,-0.39786 -1.41421,-0.53033 -0.2274,-0.062 -0.4835,0.0745 -0.70711,0 -3.23929,-1.07976 -7.0145,0.57271 -10.28139,0.24602 l -5.11237,-0.65334 c -0.6252,-0.0277 -1.46584,-0.1974 -2.28394,-0.123 -2.20248,0.20023 -0.30151,0.13171 -2.2981,0.35356 -1.45517,0.16168 -2.96424,-0.16169 -4.41941,0 -0.72726,0.0808 -1.38677,0.43851 -2.12133,0.53033 -0.29121,0.0548 -0.59153,-0.0366 -0.88388,0 -0.95984,0.11998 -1.86858,0.41035 -2.82843,0.53033 -0.23388,0.0292 -0.47598,-0.0462 -0.7071,0 -0.97843,0.19568 -0.0658,0.2071 -1.23744,0.35355 -0.34811,0.0435 -0.71255,-0.0435 -1.06066,0 -0.55954,-0.18577 -1.0767,0.26784 -1.59099,0.35355 -0.34874,0.0581 -0.71192,-0.0581 -1.06066,0 -0.54332,0.0906 -1.07231,0.22389 -1.59099,0.35356 -0.32131,0.0803 -0.7403,-0.0641 -1.06066,0 -0.53639,0.10727 -1.00257,0.26949 -1.59099,0.35355 -1.35225,0.19318 -2.72514,0.16202 -4.06586,0.35355 -0.58306,0.0833 -1.04691,0.39431 -1.59099,0.53033 -0.36533,0.0913 -0.86722,-0.0336 -1.23744,0 -1.32115,0.12011 -2.5612,0.17678 -3.88909,0.17678 -0.76603,0 -1.54442,-0.13703 -2.2981,0 -0.20903,0.038 -0.35355,0.2357 -0.53033,0.35355 -0.2357,0.0589 -0.46659,0.14242 -0.7071,0.17678 -1.65991,0.23713 -3.45656,-0.11928 -5.12653,0 -0.24234,0.0173 -0.46602,0.14664 -0.7071,0.17678 -0.23389,0.0292 -0.47141,0 -0.70711,0 -0.29463,0 -0.59153,-0.0366 -0.88388,0 -0.1849,0.0231 -0.34653,0.14614 -0.53033,0.17677 -0.34875,0.0581 -0.71767,-0.0857 -1.06066,0 -0.30785,0.077 -0.57604,0.27659 -0.88389,0.35356 -1.05115,0.26279 -2.29594,-0.21257 -3.35876,0 -0.99773,0.19954 -2.06566,0.68484 -3.0052,1.06066 -0.73991,0.29596 -1.08025,0.21605 -1.76777,0.35355 -0.0817,0.0163 -0.10224,0.13951 -0.17677,0.17678 -0.71926,0.35962 -1.58042,0.42003 -2.2981,0.7071 -0.46899,0.1876 -0.81903,0.49791 -1.23744,0.70711 -0.15811,0.0791 -0.36262,-0.0559 -0.53033,0 -0.2094,0.0698 -0.33155,0.43094 -0.53033,0.53033 -0.18858,0.0943 -0.16497,-0.0943 -0.35355,0 -0.74506,0.37253 -1.24957,0.88631 -2.12132,1.06066 -0.79497,0.15899 -1.64081,0.26088 -2.47487,0.35355 -0.1757,0.0195 -0.36263,-0.0559 -0.53033,0 -0.20156,0.0672 -0.33307,0.27465 -0.53033,0.35356 -0.46556,0.18622 -1.13085,0.0234 -1.59099,0.17677 -0.78184,0.26062 -1.66909,0.54595 -2.47488,0.70711 -0.34669,0.0693 -0.71192,-0.0581 -1.06066,0 -0.80882,0.13481 -1.43185,0.71593 -2.12132,1.06066 -0.54736,0.27368 -1.22201,0.25745 -1.76777,0.53033 -0.14907,0.0745 -0.20448,0.27902 -0.35355,0.35355 -0.74502,0.37252 -1.65023,0.78578 -2.47487,1.06066 -0.36465,0.12155 -0.68836,0.43726 -1.06066,0.53033 -0.80754,0.20189 -2.21869,0.66741 -3.00521,1.06067 -0.0745,0.0373 -0.0977,0.15042 -0.17677,0.17677 -0.49624,0.16541 -1.83802,0.30029 -2.2981,0.53033 -0.40716,0.20358 -0.79112,0.52858 -1.23744,0.70711 -0.74097,0.29639 -1.62052,0.47734 -2.29809,0.88388 -0.14292,0.0857 -0.20037,0.2879 -0.35356,0.35356 -0.27617,0.11835 -0.59884,0.0818 -0.88388,0.17677 -0.25,0.0833 -0.45711,0.27022 -0.70711,0.35356 -0.25605,0.0854 -0.63346,0.0516 -0.88388,0.17677 -0.0745,0.0373 -0.0977,0.15043 -0.17678,0.17678 -0.1677,0.0559 -0.40533,-0.125 -0.53033,0 -0.0417,0.0417 0.0527,0.15042 0,0.17678 -0.10541,0.0527 -0.24175,-0.0373 -0.35355,0 -0.74524,0.24841 -1.39551,1.0513 -2.12132,1.41421 -0.85952,0.42976 -1.81344,0.81833 -2.65165,1.23744 -0.14486,0.0724 -1.74353,1.37785 -1.76777,1.41421 -0.22706,0.34059 -0.33769,0.63761 -0.70711,0.88388 -0.049,0.0327 -0.11785,0 -0.17677,0 -0.11785,0.11785 -0.25356,0.22022 -0.35356,0.35356 -0.30609,0.40812 -0.70851,1.06206 -1.06066,1.41421 -0.65208,0.65208 -0.0713,-0.42333 -0.7071,0.53033 -0.18288,0.27432 0.30029,0.11502 -0.17678,0.35355 -0.0527,0.0264 -0.13511,-0.0417 -0.17678,0 -0.36575,0.36576 0.55893,-0.0143 -0.17677,0.35356 -0.31294,0.15646 -0.0604,-0.26295 -0.35356,0.17677 -0.0761,0.1141 -0.27699,0.63055 -0.35355,0.70711 -0.0417,0.0417 -0.13511,-0.0417 -0.17678,0 -0.1086,0.10861 -0.11678,0.41195 -0.35355,0.53033 -0.24384,0.12192 -0.15812,-0.21409 -0.35355,0.17678 -0.0264,0.0527 0.0417,0.13511 0,0.17677 -0.0812,0.0812 -0.72763,0.37408 -1.06067,0.53033 0.11499,0.0244 0.22032,1.21436 0.35356,1.41422 0.0765,0.11478 1.96411,0.98205 2.12132,1.06066 0.41737,0.20868 1.1296,-0.11535 1.59099,0 0.59035,0.14759 1.19891,0.0346 1.76777,0.17677 0.0808,0.0202 0.0977,0.15043 0.17677,0.17678 0.37222,0.12407 0.85523,-0.0956 1.23744,0 0.42549,0.10637 0.86735,0.40697 1.23744,0.53033 0.1677,0.0559 0.40533,-0.125 0.53033,0 0.0932,0.0932 0.0836,0.26039 0.17677,0.35355 0.0292,0.0292 0.92035,0.1417 1.06066,0.17678 0.56914,0.14229 0.94291,0.55001 1.41422,0.70711 0.1118,0.0373 0.24814,-0.0527 0.35355,0 0.0527,0.0263 -0.0417,0.13511 0,0.17677 0.15023,0.15024 0.3403,0.25854 0.53033,0.35356 0.18956,0.0948 0.50469,0.28608 0.70711,0.35355 0.1677,0.0559 0.40533,-0.125 0.53033,0 0.0417,0.0417 -0.0417,0.13511 0,0.17678 0.0833,0.0833 0.24814,-0.0527 0.35355,0 0.53909,0.26954 -0.32331,0.14014 0.53033,0.35355 0.1715,0.0429 0.36263,-0.0559 0.53033,0 0.25,0.0833 0.45145,0.28964 0.70711,0.35356 0.3244,0.0811 0.74361,-0.10569 1.06066,0 0.26083,0.0869 0.48471,0.27942 0.70711,0.35355 0.1118,0.0373 0.24175,-0.0373 0.35355,0 0.20156,0.0672 0.32877,0.28637 0.53033,0.35355 1.0918,0.36394 1.87534,1.30915 2.82843,1.94455 0.32909,0.21939 0.5324,0.70814 0.88388,0.88388 0.10541,0.0527 0.24814,-0.0527 0.35355,0 0.0527,0.0263 -0.0327,0.12775 0,0.17678 0.0924,0.13867 0.21488,0.2611 0.35356,0.35355 0.12265,0.0818 0.39738,-0.0665 0.53033,0 0.14907,0.0745 0.20448,0.27902 0.35355,0.35355 0.15811,0.0791 0.36263,-0.0559 0.53033,0 0.21213,0.0707 0.3182,0.45962 0.53033,0.53033 0.1118,0.0373 0.24814,-0.0527 0.35355,0 0.0527,0.0263 -0.0417,0.13511 0,0.17678 0.24296,0.24296 0.64093,0.28737 0.88389,0.53033 0.0417,0.0417 -0.0527,0.15042 0,0.17678 0.10541,0.0527 0.25549,-0.0654 0.35355,0 0.10963,0.0731 0.0836,0.26038 0.17678,0.35355 0.0932,0.0932 0.25066,0.0945 0.35355,0.17678 0.19522,0.15617 0.33511,0.37415 0.53033,0.53033 0.42707,0.34165 0.9396,0.64657 1.41421,0.88388 0.4354,0.2177 -0.15958,-0.51314 0.53033,0.17678 0.13177,0.13176 0.045,0.39856 0.17678,0.53033 0.0417,0.0417 0.13511,-0.0417 0.17678,0 0.845,0.845 -0.50553,0.008 0.53033,0.35355 0.27951,0.0932 0.35355,0.4714 0.53033,0.70711 0.40612,0.54149 -0.11307,-0.28985 0.53033,0.35355 0.0833,0.0833 -0.0373,0.24175 0,0.35355 0.0528,0.15834 0.34045,1.21123 0.35355,1.23744 0.0264,0.0527 0.13511,-0.0417 0.17678,0 0.0833,0.0833 -0.0654,0.2555 0,0.35355 0.25802,0.38704 0.52544,0.60651 0.7071,1.06066 0.046,0.11506 0.21537,0.7457 0.35356,0.88389 0.0417,0.0417 0.15042,-0.0527 0.17677,0 0.0527,0.10541 -0.0373,0.24175 0,0.35355 0.13454,0.4036 0.75945,0.68735 0.88389,1.06066 0.0745,0.22361 -0.10541,0.49629 0,0.70711 0.0263,0.0527 0.14409,-0.049 0.17678,0 0.10336,0.15504 0.0934,0.36366 0.17677,0.53033 0.16874,0.33747 0.51991,0.55629 0.70711,0.88388 0.47453,0.83043 0.012,0.22491 0.17678,0.88388 0.1368,0.54723 0.22844,0.20397 0.53033,0.70711 0.45758,0.76264 0.0227,0.26778 0.17677,0.88388 0.15026,0.60102 0.8051,1.96376 1.06066,2.47488 0.0373,0.0745 0.15043,0.0977 0.17678,0.17678 0.0373,0.1118 -0.0438,0.24413 0,0.35355 0.0979,0.24468 0.75399,1.57293 0.88388,1.76777 0.0924,0.13867 0.21488,0.2611 0.35356,0.35355 0.049,0.0327 0.15042,-0.0527 0.17677,0 0.0527,0.10541 -0.0373,0.24175 0,0.35355 0.10541,0.31623 0.47141,0.47141 0.70711,0.70711 0.28896,0.28896 0.35899,0.6228 0.70711,0.88388 0.80823,0.60618 1.75417,1.22384 2.47487,1.94455 0.0932,0.0932 0.0671,0.28046 0.17678,0.35355 0.098,0.0654 0.2357,0 0.35355,0 0.11785,0.0589 0.24814,0.0977 0.35355,0.17678 0.44277,0.33207 0.77403,0.7131 1.23744,1.06066 0.10541,0.079 0.26038,0.0836 0.35355,0.17677 0.0417,0.0417 -0.0417,0.13511 0,0.17678 0.43553,0.43553 1.33028,0.73254 1.76777,1.06066 0.2,0.15 0.33511,0.37416 0.53033,0.53033 0.20974,0.16779 0.95912,0.42879 1.06066,0.53033 0.0932,0.0932 0.0836,0.26038 0.17678,0.35355 0.1142,0.1142 1.49538,0.74769 1.76776,0.88389 0.10541,0.0527 0.2555,-0.0654 0.35356,0 0.20801,0.13867 0.29316,0.45127 0.53033,0.53033 0.27868,0.0929 1.59819,0.42859 1.76776,0.53033 0.14292,0.0857 0.20449,0.27902 0.35356,0.35355 0.10541,0.0527 0.23922,-0.0286 0.35355,0 1.15411,0.28853 -0.66789,0.0949 0.88389,0.35355 1.03937,0.17323 0.0225,-0.2385 1.06066,0.17678 0.17301,0.0692 0.37528,0.0734 0.53033,0.17678 0.13867,0.0924 0.19749,0.29503 0.35355,0.35355 0.33561,0.12585 0.71293,0.0899 1.06066,0.17678 0.46089,0.11522 0.80609,0.50802 1.23744,0.7071 0.45712,0.21098 0.93198,0.38567 1.41421,0.53033 0.11288,0.0339 0.24814,-0.0527 0.35355,0 0.14907,0.0745 0.20448,0.27902 0.35356,0.35356 0.10541,0.0527 0.23922,-0.0286 0.35355,0 0.25565,0.0639 0.45711,0.27022 0.70711,0.35355 0.2236,0.0745 0.47461,-0.0388 0.7071,0 0.65432,0.10905 0.44208,0.30943 0.88389,0.53033 0.15811,0.0791 0.36262,-0.0559 0.53033,0 0.32087,0.10696 0.45857,0.24723 0.88388,0.35355 0.21874,0.0547 0.55279,0.0225 0.70711,0.17678 0.0417,0.0417 -0.0417,0.13511 0,0.17678 0.16666,0.16666 0.47598,-0.0462 0.7071,0 0.97847,0.19569 2.0216,0.68716 3.00521,0.88388 0.2889,0.0578 0.62036,-0.13176 0.88388,0 0.0527,0.0263 -0.0527,0.15043 0,0.17678 0.30881,0.1544 0.90364,-0.0834 1.23744,0 0.25565,0.0639 0.4487,0.30187 0.7071,0.35355 0.2456,0.0491 0.99063,-0.1234 1.23744,0 0.14907,0.0745 0.20448,0.27902 0.35355,0.35356 0.25584,0.12791 0.76977,0.11859 1.06066,0.17677 0.74056,0.14811 0.36541,0.1827 1.06067,0.53033 0.30688,0.15344 1.91586,0.0494 2.29809,0.17678 0.0791,0.0263 0.0977,0.15042 0.17678,0.17678 0.1118,0.0373 0.23922,-0.0286 0.35355,0 0.47371,0.11842 0.92086,0.43165 1.41422,0.53033 0.33995,0.068 0.7207,-0.068 1.06066,0 0.35499,-0.0406 0.57603,0.27659 0.88388,0.35355 0.882,0.2205 1.93242,-0.14934 2.82843,0 0.29637,0.0494 0.58644,0.13428 0.88388,0.17678 0.30076,0.043 0.78608,-0.0915 1.06066,0 0.20156,0.0672 0.3403,0.25853 0.53033,0.35355 0.31426,0.15713 1.07009,0.31054 1.41421,0.35355 0.0672,0.008 1.97307,0.10265 2.12132,0.17678 0.14908,0.0745 0.20449,0.27902 0.35356,0.35355 0.26352,0.13176 0.59805,-0.0715 0.88388,0 0.0809,0.0202 0.0977,0.15043 0.17678,0.17678 0.1118,0.0373 0.24175,-0.0373 0.35355,0 0.63027,0.21009 1.01433,0.38616 1.59099,0.53033 0.25566,0.0639 0.45711,0.27022 0.70711,0.35355 0.23049,0.0768 0.4898,0.0681 0.7071,0.17678 0.0527,0.0263 -0.0527,0.15042 0,0.17678 0.0683,0.0342 1.03475,0.16813 1.06067,0.17677 0.375,0.125 0.67717,0.43446 1.06066,0.53033 0.28583,0.0715 0.59497,-0.0578 0.88388,0 0.0578,0.0116 -0.0527,0.15043 0,0.17678 0.10541,0.0527 0.23799,-0.0231 0.35355,0 0.49114,-0.34387 0.45145,0.28964 0.70711,0.35355 0.52379,0.13095 1.43172,0.006 1.94454,0.17678 0.55057,0.18352 1.02797,0.56635 1.59099,0.70711 0.343,0.0857 0.7324,-0.13131 1.06066,0 0.19727,0.0789 0.35356,0.2357 0.53033,0.35355 0.29463,0.0589 0.59884,0.0818 0.88389,0.17678 0.079,0.0264 0.0959,0.15656 0.17677,0.17677 0.40284,0.10071 1.02394,-0.15611 1.41422,0 0.19726,0.0789 0.3403,0.25854 0.53033,0.35356 0.2854,0.1427 1.0599,0.2945 1.41421,0.35355 0.39529,0.0659 1.05615,-0.002 1.41421,0.17678 0.14908,0.0745 0.20449,0.27901 0.35356,0.35355 0.43461,0.21731 0.95323,0.19989 1.41421,0.35355 0.97511,0.32504 1.929,0.78772 2.82843,1.23744 1.02957,0.51478 0.002,-0.25158 1.41421,0.35355 0.15319,0.0657 0.22022,0.25356 0.35356,0.35356 0.12302,0.0923 2.0826,0.86729 2.12132,0.88388 0.24677,0.10576 0.64485,-0.11951 0.88388,0 0.50339,0.2517 1.04438,0.39368 1.59099,0.53033 0.25565,0.0639 0.45711,0.27022 0.70711,0.35355 0.37421,0.12474 0.85241,-0.0963 1.23743,0 0.56437,-0.13568 0.94699,0.37459 1.41422,0.53033 0.1677,0.0559 0.35698,-0.0347 0.53033,0 0.6588,0.13177 1.28183,0.41988 1.94454,0.53033 0.17437,0.0291 0.36262,-0.0559 0.53033,0 0.0559,0.0186 -0.0417,0.13511 0,0.17678 0.0833,0.0833 0.23922,-0.0286 0.35355,0 0.25566,0.0639 0.4487,0.30187 0.70711,0.35355 0.66457,0.13292 1.26316,0.0405 1.94454,0.17678 0.41345,0.0827 0.824,0.44764 1.23744,0.53033 0.17334,0.0347 0.35699,-0.0347 0.53033,0 0.25841,0.0517 0.45145,0.28964 0.70711,0.35355 0.1715,0.0429 0.37221,-0.0791 0.53033,0 0.8599,0.42995 2.67513,0.80137 3.71231,1.06066 0.16638,0.0416 0.36395,-0.0416 0.53033,0 0.26459,0.0661 0.69378,0.43528 0.88388,0.53033 0.1396,0.0698 0.38125,-0.0497 0.53033,0 0.11785,0.0589 0.2357,0.11786 0.35356,0.17678 0,0.0589 -0.0527,0.15043 0,0.17678 0.1054,0.0527 0.24814,-0.0527 0.35355,0 0.0527,0.0263 -0.0417,0.13511 0,0.17677 0.071,0.071 0.43035,-0.0333 0.53033,0 0.25,0.0833 0.45372,0.28116 0.70711,0.35356 0.34463,0.0985 1.08687,-0.18071 1.06066,0.17677 -0.0195,0.26633 0.64653,0.93487 1.63515,1.1491 0.37312,0.2652 0.78778,0.3445 1.10482,0.2652 0.18078,-0.0452 0.34761,-0.14028 0.53033,-0.17678 0.18595,-0.0372 0.44023,0.0255 0.61872,0 0.0922,-0.0132 0.17327,-0.0731 0.26517,-0.0884 0.43589,-0.0727 0.9969,0.13911 1.41421,0 0.1875,-0.0625 0.33468,-0.23716 0.53033,-0.26516 0.14584,-0.0208 0.29611,0.0208 0.44194,0 0.2049,-0.0293 0.45428,-0.18297 0.61872,-0.26517 0.0791,-0.0395 0.17937,0.0214 0.26517,0 0.42682,-0.10667 -0.004,-0.042 0.26516,-0.17677 0.33945,-0.16972 0.65573,-0.38132 0.97227,-0.61872 0.15557,-0.11667 0.37477,-0.14849 0.53033,-0.26517 0.21418,-0.16063 0.40455,-0.3697 0.61872,-0.53033 0.13744,-0.10307 0.3386,-0.10476 0.44194,-0.26516 0.50957,-0.40766 0.77967,-1.0101 1.14905,-1.5026 0.0791,-0.10541 0.0945,-0.25067 0.17678,-0.35356 0.34629,-0.43287 0.81942,-0.8007 1.23744,-1.14905 0.21197,-0.17664 0.38771,-0.46471 0.61871,-0.61871 0.10964,-0.0731 0.24815,-0.0977 0.35356,-0.17678 0.13333,-0.1 0.21488,-0.26115 0.35355,-0.35355 0.36162,-0.24108 1.16041,-0.51108 1.59099,-0.61872 0.29463,-0.0737 0.19642,0.0491 0.44194,0 0.14732,-0.0295 0.29942,-0.0409 0.44195,-0.0884 0.0791,-0.0263 0.0977,-0.15048 0.17677,-0.17678 0.0838,-0.028 0.18607,0.0395 0.26517,0 0.0373,-0.0186 0.0489,-0.0752 0.0884,-0.0884 0.1118,-0.0373 0.23799,0.0231 0.35355,0 0.18272,-0.0365 0.34653,-0.14617 0.53033,-0.17677 0.27607,-0.046 0.62759,-0.0486 0.88388,-0.17678 0.0745,-0.0373 0.0977,-0.15038 0.17678,-0.17678 0.0559,-0.0186 0.12408,0.0264 0.17678,0 0.0263,-0.0132 -0.0208,-0.0676 0,-0.0884 0.1282,-0.12818 0.29712,-0.0682 0.44194,-0.17678 0.0336,-0.0252 0.84478,-0.90387 0.88388,-0.97227 0.0981,-0.1716 0.16042,-0.36273 0.26517,-0.53033 0.0442,-0.0707 0.14587,-0.0994 0.17677,-0.17678 0.0615,-0.15365 0.0585,-0.6164 0.0884,-0.79549 0.0646,-0.38741 0.40929,-1.82351 0.61872,-2.03294 0.0696,-0.0696 0.34944,-0.11517 0.44194,-0.17677 0.0693,-0.0462 0.10528,-0.13388 0.17678,-0.17678 0.12311,-0.0739 1.01566,-0.42504 1.06066,-0.44194 0.0552,-0.0207 0.12967,0.0353 0.17677,0 0.085,-0.0637 0.10168,-0.19007 0.17678,-0.26517 0.27208,-0.27208 0.90901,-0.61019 1.23744,-0.88388 0.18257,-0.15215 0.32983,-0.41003 0.53033,-0.53033 0.0505,-0.0303 0.12408,0.0263 0.17678,0 0.19208,-0.096 0.42663,-0.34594 0.61871,-0.44194 1.02693,-0.51344 -1.18331,0.85005 0.88389,-0.44194 0.28778,-0.17987 0.8349,-0.78593 0.97227,-1.06066 0.0417,-0.0833 0.0225,-0.19927 0.0884,-0.26517 0.0417,-0.0417 0.13507,0.0417 0.17677,0 0.0417,-0.0417 -0.0186,-0.12088 0,-0.17678 0.0132,-0.0395 0.0698,-0.0511 0.0884,-0.0884 0.0132,-0.0264 -0.0208,-0.0676 0,-0.0884 0.0209,-0.0208 0.0752,0.0263 0.0884,0 0.0221,-0.0442 -0.011,-0.19887 0,-0.26517 0.0247,-0.14819 0.052,-0.29619 0.0884,-0.44194 0.0445,-0.17791 0.15918,-0.44255 0.17678,-0.61872 0.0235,-0.23453 -0.009,-0.47158 0,-0.7071 0.16677,-4.34716 -0.0357,-0.33303 0.17677,-2.03294 0.011,-0.0877 -0.0243,-0.18016 0,-0.26516 0.0362,-0.12669 0.14058,-0.22686 0.17678,-0.35356 0.0243,-0.085 -0.0138,-0.17786 0,-0.26516 0.0606,-0.38385 0.36014,-2.4945 0.53033,-3.0052 0.0917,-0.27527 0.23562,-0.53031 0.35343,-0.79547 0.0662,-0.19855 0.21177,-0.45843 0.26517,-0.61872 0.067,-0.20103 0.20779,-1.18006 0.35355,-1.32582 0.0208,-0.0208 0.0639,0.0163 0.0884,0 0.11786,-0.0786 0.22198,-0.28776 0.35355,-0.35356 0.0527,-0.0263 0.16248,0.0572 0.17678,0 0.0286,-0.11433 -0.0194,-0.2373 0,-0.35355 0.0496,-0.29761 0.29045,-0.5683 0.35355,-0.88388 0.12267,-0.61333 0.20295,-1.48729 0.53033,-2.03294 0.0468,-0.078 0.43594,-0.61371 0.44194,-0.61871 0.046,-0.0368 0.12778,0.0327 0.17678,0 0.0548,-0.0366 0.0519,-0.12198 0.0884,-0.17678 0.0817,-0.12257 0.19926,-0.22179 0.26516,-0.35355 0.0543,-0.10866 0.05,-0.23831 0.0884,-0.35356 0.076,-0.22803 0.26426,-0.39555 0.35356,-0.61872 0.0451,-0.11278 0.021,-0.25247 0.0884,-0.35355 0.0462,-0.0693 0.13948,-0.10228 0.17678,-0.17678 0.0263,-0.0527 -0.0219,-0.12207 0,-0.17677 0.0979,-0.24468 0.2357,-0.47141 0.35355,-0.70711 0.42016,-0.84039 -0.10251,0.57271 0.35356,-0.79549 0.0373,-0.0745 0.13948,-0.10228 0.17678,-0.17678 0.0543,-0.10865 0.0458,-0.23981 0.0884,-0.35355 0.0463,-0.12338 0.14818,-0.22493 0.17678,-0.35356 0.0624,-0.28093 0.0507,-1.60274 0,-1.85615 -0.10551,-0.52756 -0.14818,-1.06458 -0.26516,-1.59099 -0.0615,-0.27688 -0.19867,-0.52967 -0.26517,-0.7955 -0.0587,-0.23476 -0.0991,-0.49957 -0.26517,-0.7071 -0.0781,-0.0976 -0.17676,-0.17677 -0.26516,-0.26517 -0.0295,-0.0884 -0.0405,-0.18527 -0.0884,-0.26517 -0.0429,-0.0715 -0.13948,-0.10227 -0.17678,-0.17677 -0.0263,-0.0527 0,-0.11788 0,-0.17678 -0.0589,-0.0884 -0.11787,-0.17676 -0.17677,-0.26516 -0.18792,-0.25056 -0.45273,-0.44152 -0.61872,-0.70711 -0.69883,-1.11813 0.23435,0.0768 -0.35355,-0.70711 -0.18437,-0.24582 -0.38727,-0.42097 -0.53033,-0.7071 -0.8568,-1.7136 -1.83284,-3.35333 -2.74004,-5.03814 -0.20665,-0.38377 -0.21771,-0.82991 -0.35356,-1.23744 -0.0831,-0.24924 -0.27045,-0.54625 -0.35355,-0.79549 -0.0475,-0.14252 -0.052,-0.2962 -0.0884,-0.44194 -0.14137,-0.5655 -0.38729,-1.10724 -0.53033,-1.67938 -0.0671,-0.26858 -0.21086,-0.52418 -0.26516,-0.7955 -0.0707,-0.35333 -0.0529,-2.51133 0,-2.82842 0.026,-0.156 0.15077,-0.37434 0.17677,-0.53033 0.0804,-0.48341 0.0275,-1.01576 0.0884,-1.50261 0.0589,-0.47092 0.29966,-0.92938 0.35356,-1.41421 0.0485,-0.43655 0.045,-0.89742 0.17677,-1.32582 0.1432,-0.4654 0.42362,-0.93403 0.53033,-1.41422 0.0256,-0.11504 -0.0146,-0.23661 0,-0.35355 0.0416,-0.33282 0.20007,-0.647 0.26517,-0.97227 0.0115,-0.0578 -0.0327,-0.12778 0,-0.17678 0.0365,-0.0548 0.14027,-0.0336 0.17677,-0.0884 0.0981,-0.14709 -0.0316,-0.3564 0,-0.53033 0.0384,-0.21103 0.12858,-0.40972 0.17678,-0.61872 0.0646,-0.27985 0.0206,-0.61267 0.0884,-0.88388 0.13685,-0.54739 0.33145,-1.00541 0.53033,-1.5026 0.11271,-0.28177 0.15246,-0.60212 0.26516,-0.88389 0.17811,-0.44525 0.30594,-0.56836 0.53033,-0.97227 0.064,-0.11518 0.0925,-0.25233 0.17678,-0.35355 0.068,-0.0816 0.19007,-0.10168 0.26517,-0.17678 0.10416,-0.10416 -0.46278,-0.53094 0.26516,-0.35355 0.11858,-0.0949 0.33511,-0.15834 0.44194,-0.26517 0.0466,-0.0466 0.0357,-0.13727 0.0884,-0.17677 0.57513,-0.43133 -0.0508,0.316 0.53033,-0.26517 0.0466,-0.0466 0.0319,-0.14287 0.0884,-0.17677 0.10417,-0.0625 0.24736,-0.0294 0.35355,-0.0884 0.46845,-0.26025 0.79788,-0.76762 1.23744,-1.06066 0.0775,-0.0517 0.19067,-0.0325 0.26517,-0.0884 0.0527,-0.0395 0.0489,-0.12408 0.0884,-0.17678 0.30045,-0.40059 0.91748,-1.00897 1.14905,-1.41421 0.0787,-0.13776 0.10578,-0.30003 0.17678,-0.44194 0.095,-0.19003 0.27465,-0.33307 0.35355,-0.53033 0.0666,-0.1664 -0.15149,-0.39145 0.0884,-0.53033 0.16251,-0.32502 0.40795,-0.30885 0.26518,-1.17116 -0.4002,-0.99683 -1.24374,-1.41359 -1.94453,-1.83406 z"
         id="path71" />
    </g>
  </g>
</svg>
