<?xml version="1.0" encoding="UTF-8" standalone="no"?>
<!-- Created with Inkscape (http://www.inkscape.org/) -->

<svg
   version="1.1"
   id="svg2"
   width="129.20551"
   height="66.863197"
   viewBox="0 0 129.20551 66.863197"
   xmlns="http://www.w3.org/2000/svg"
   xmlns:svg="http://www.w3.org/2000/svg">
  <defs
     id="defs6">
    <linearGradient
       id="swatch77">
      <stop
         style="stop-color:#e2c69e;stop-opacity:1;"
         offset="0"
         id="stop77" />
    </linearGradient>
  </defs>
  <g
     id="layer66"
     style="display:inline"
     transform="translate(-999.52559,-536.58356)">
    <g
       id="layer60"
       style="display:inline">
      <path
         style="display:inline;fill:#969696;fill-opacity:1;stroke:none;stroke-opacity:1"
         d="m 1000.1583,597.94717 c -0.1098,-1.28909 -0.37912,-2.55999 -0.53028,-3.84489 -0.0946,-0.80374 -0.0884,-1.58476 -0.0884,-2.38649 0,-0.52026 -0.052,-1.07806 0.0442,-1.59099 0.0883,-0.47109 0.0674,-0.21748 0.17678,-0.61872 0.12488,-0.45788 0.20175,-0.91268 0.3094,-1.37002 0.1471,-0.62516 0.3877,-1.22895 0.5303,-1.85615 0.039,-0.17298 0.012,-0.3558 0.044,-0.53033 0.045,-0.24767 0.196,-0.46506 0.2651,-0.70711 0.033,-0.1142 0.021,-0.23709 0.044,-0.35355 0.1513,-0.7565 0.018,0.0645 0.1768,-0.53033 0.039,-0.14516 0.05,-0.29678 0.088,-0.44194 0.046,-0.17199 0.1778,-0.31345 0.221,-0.48614 0.1931,-0.77252 0.1818,-1.56932 0.3535,-2.34229 0.073,-0.32922 0.2495,-0.66011 0.3536,-0.97227 0.1188,-0.35655 0.1744,-0.74202 0.2651,-1.10486 0.085,-0.3409 0.2359,-0.67324 0.3094,-1.01646 0.025,-0.11613 0.029,-0.2357 0.044,-0.35356 0.044,-0.2357 0.081,-0.473 0.1326,-0.7071 0.01,-0.0322 0.029,-0.0589 0.044,-0.0884 0.015,-0.0884 0.037,-0.17587 0.044,-0.26517 0.024,-0.28179 -0.056,-0.6062 0,-0.88388 0.034,-0.16887 0.044,-0.31355 0.044,-0.48614 -0.044,-0.10311 -0.098,-0.20223 -0.131,-0.30934 -0.1039,-0.34059 -0.1057,-0.71035 -0.1326,-1.06066 -0.051,-0.6671 -0.088,-1.31628 -0.088,-1.98874 0,-0.35639 -0.047,-0.75201 0,-1.10486 0.014,-0.1063 0.064,-0.20492 0.088,-0.30936 0.079,-0.33766 0.1571,-0.67567 0.221,-1.01646 0.1122,-0.18458 0.017,-0.38438 0.044,-0.57453 0.064,-0.44501 0.1654,-0.88129 0.2209,-1.32582 0.029,-0.23458 0.1129,-0.47036 0.1326,-0.70711 0.01,-0.10276 -0.011,-0.20687 0,-0.30936 0,-0.0327 0.039,-0.0559 0.044,-0.0884 0.073,-0.43579 0.1333,-0.93546 0.1768,-1.37002 0.059,-0.5938 -0.094,0.23191 0.044,-0.53033 0.011,-0.0598 0.029,-0.11785 0.044,-0.17677 0.044,-0.2799 0.095,-0.55881 0.1326,-0.83969 0.065,-0.48911 0.04,-0.7505 0.088,-1.28163 0.024,-0.26694 0.1498,-0.52659 0.1767,-0.7955 0.048,-0.47981 0.092,-0.98029 0.1768,-1.45841 0.06,-0.33917 0.164,-0.6749 0.221,-1.01646 0.09,-0.54029 0.1273,-1.09101 0.1768,-1.63519 0.038,-0.41798 0.058,-0.1335 0.1325,-0.61871 0.011,-0.0728 -0.01,-0.14789 0,-0.22098 0.022,-0.17783 0.059,-0.35355 0.088,-0.53033 0.012,-0.0741 0.029,-0.14731 0.044,-0.22097 0.029,-0.0884 0.07,-0.1738 0.088,-0.26516 0.012,-0.0578 -0.01,-0.11844 0,-0.17678 0.027,-0.18739 0.1228,-0.35495 0.1768,-0.53033 0.3172,-1.03084 -0.01,-0.0122 0.088,-0.57452 0.02,-0.11983 0.07,-0.23349 0.088,-0.35356 0.027,-0.17472 -0.018,-0.35443 0,-0.53033 0.011,-0.10671 0.077,-0.20276 0.088,-0.30935 0.024,-0.2193 -0.01,-0.44558 0.044,-0.66292 0.1239,-0.49527 0.045,-0.0468 0.1768,-0.48613 0.07,-0.23322 0.1102,-0.47408 0.1768,-0.70711 0.035,-0.12102 0.088,-0.2357 0.1326,-0.35355 0.059,-0.16205 0.1306,-0.32 0.1768,-0.48614 0.028,-0.10037 0.029,-0.20624 0.044,-0.30936 0.029,-0.11785 0.053,-0.2372 0.088,-0.35355 0.063,-0.20975 0.1895,-0.41054 0.2652,-0.61872 0.089,-0.24549 0.1485,-0.51801 0.2652,-0.7513 0.053,-0.10623 0.1326,-0.19909 0.1767,-0.30936 0.016,-0.041 -0.01,-0.0887 0,-0.13258 0.01,-0.0745 0.028,-0.14753 0.044,-0.22097 0.029,-0.13281 0.051,-0.26716 0.088,-0.39775 0.052,-0.18038 0.1147,-0.21827 0.1326,-0.39775 0.01,-0.0879 -0.019,-0.17888 0,-0.26516 -0.063,-0.12368 0.1147,-0.10532 0.1326,-0.17678 0.027,-0.1074 -0.035,-0.24868 0,-0.35355 0,-0.01 0.044,0.0235 0.044,-0.0884 0.098,-0.42207 0.022,-0.85469 0.049,-1.28161 0.01,-0.10397 0.037,-0.20546 0.044,-0.30936 0.01,-0.10286 -0.011,-0.20687 0,-0.30936 0.063,-0.57017 0.2788,-1.09149 0.4419,-1.63519 0.035,-0.11635 0.034,-0.2449 0.088,-0.35355 0.033,-0.0659 0.093,-0.11432 0.1326,-0.17678 0.2184,-0.34944 0.3622,-0.75097 0.5745,-1.10485 0.076,-0.12632 0.1921,-0.22565 0.2652,-0.35355 0.1358,-0.23771 0.2267,-0.53148 0.3977,-0.75131 0.096,-0.12361 0.2225,-0.22325 0.3094,-0.35355 0.1144,-0.17158 0.1858,-0.36557 0.3093,-0.53033 0.044,-0.0589 0.088,-0.0589 0.1326,-0.13258 0.1707,-0.28446 -0.126,0.0355 0.1326,-0.30936 0.05,-0.0667 0.1247,-0.1117 0.1768,-0.17678 0.1215,-0.15184 0.2024,-0.32572 0.3093,-0.48613 0.044,-0.0655 0.1331,-0.15546 0.1768,-0.22097 0.05,-0.0747 0.084,-0.2363 0.1326,-0.30936 0.049,-0.0732 0.1326,-0.0875 0.3759,-0.33146 0.3907,0.0221 0.4894,0.25505 0.6854,0.37565 1.1518,0.70885 2.4691,0.68061 3.7565,0.88388 0.4282,0.0676 0.8648,0.10188 1.2816,0.22098 0.2644,0.0755 0.6225,0.2216 0.8839,0.26516 0.1316,0.0219 0.2661,0.0223 0.3977,0.0442 0.1317,0.0219 0.1806,0.0843 0.3094,0.13259 0.2694,0.10103 0.6027,0.17772 0.8839,0.22097 0.058,0.009 0.1192,-0.0128 0.1767,0 0.2148,0.0477 0.3962,0.18918 0.6188,0.22097 1.044,0.14915 2.1021,0.23481 3.1378,0.44194 0.2407,0.0481 0.4974,0.15139 0.7513,0.17678 0.073,0.007 0.1481,-0.0109 0.2209,0 0.2972,0.0446 0.5853,0.14359 0.8839,0.17677 0.8213,0.0913 1.6573,0.14837 2.4749,0.26517 0.4402,0.0629 0.8818,0.18925 1.3258,0.22097 0.1176,0.008 0.2361,-0.01 0.3536,0 0.5081,0.0423 0.9974,0.13792 1.5026,0.17678 0.1909,0.0147 0.3836,-0.0153 0.5745,0 0.2805,0.0224 0.5606,0.052 0.8397,0.0884 0.3205,0.0418 0.6523,0.0726 0.9722,0.13259 0.1335,0.025 0.263,0.0715 0.3978,0.0884 0.1023,0.0128 0.2065,-0.007 0.3094,0 0.2889,0.0193 0.5522,0.11047 0.8396,0.13258 0.4699,0.0361 0.9443,0.0738 1.4143,0.13258 0.3218,0.0402 0.1313,0.0575 0.4861,0.0884 0.7945,0.0691 1.5953,0.11548 2.3865,0.22097 0.7361,0.0981 1.4648,0.33003 2.2097,0.39775 0.1467,0.0133 0.2955,-0.0163 0.4419,0 0.203,0.0226 0.4176,0.0924 0.6187,0.13258 0.2115,0.0423 0.4045,0.0494 0.6188,0.0884 0.2191,0.0398 0.4422,0.10806 0.6629,0.13258 0.1171,0.013 0.238,-0.0231 0.3535,0 0.094,0.0187 0.1725,0.10941 0.2652,0.13258 0.3295,0.0824 0.6442,0.22097 0.9723,0.22097 0.1031,-0.0147 0.2056,-0.0348 0.3093,-0.0442 0.2726,-0.0248 0.5658,0 0.8397,0 h 1.8562 6.0988 2.0771 c 0.444,0 0.8838,-0.0111 1.3258,0.0442 0.8338,0.10423 0.4231,0.0649 1.2817,0.22098 0.5688,0.10342 1.1571,0.10768 1.7235,0.22097 0.1052,0.021 0.2063,0.0589 0.3094,0.0884 0.2357,0.0295 0.4728,0.0493 0.7071,0.0884 0.4932,0.0822 0.9745,0.23258 1.4584,0.35356 0.415,0.10375 0.8602,0.11931 1.2816,0.17677 0.578,0.0788 0.3544,0.0973 0.8839,0.13259 1.5961,0.1064 3.2154,0.0442 4.8172,0.0442 0.4065,0 0.832,-0.0312 1.2374,0 0.2514,0.0193 0.4998,0.071 0.7513,0.0884 0.4177,0.0288 0.8621,0 1.2816,0 h 2.4749 c 0.8919,0 1.8056,0.0556 2.6959,0 0.2662,-0.0166 0.533,-0.0407 0.7955,-0.0884 0.362,-0.0658 0.7135,-0.31572 1.0606,-0.44194 0.1008,-0.0367 0.2086,-0.0517 0.3094,-0.0884 0.3108,-0.11302 0.3115,-0.20386 0.7071,-0.30936 0.087,-0.0231 0.1793,-0.0184 0.2651,-0.0442 0.063,-0.0189 0.1125,-0.0741 0.1768,-0.0884 0.4546,-0.10102 0.1036,0.0202 0.2652,0 0.3793,-0.0474 0.7734,-0.0347 1.149,-0.0884 0.033,-0.005 0.056,-0.0377 0.088,-0.0442 0.043,-0.009 0.089,0.007 0.1326,0 0.2371,-0.0395 0.4803,-0.12007 0.7071,-0.17678 0.1316,-0.0329 0.3077,0 0.442,0 0.2653,0.0442 0.5277,0.11243 0.7959,0.13253 0.3231,0.0242 0.6481,0 0.9722,0 0.6629,0 1.3262,0.0204 1.9888,0 0.2959,-0.009 0.5882,-0.0728 0.8838,-0.0884 0.5444,-0.0286 1.0902,0 1.6352,0 h 2.4307 4.3752 c 0.8198,0 1.6573,-0.043 2.4749,0 0.457,0.024 0.9129,0.0661 1.37,0.0884 1.1425,0.0557 2.3029,0 3.4472,0 h 1.5026 c 0.2521,0 0.5467,0.0383 0.7955,0 0.106,-0.0163 0.2048,-0.0643 0.3093,-0.0884 0.3486,-0.0804 0.7104,-0.10063 1.0607,-0.17677 0.2096,-0.0456 0.4084,-0.13472 0.6187,-0.17678 0.3287,-0.0657 0.6834,-0.0909 1.0165,-0.13258 0.2093,-0.0262 0.4104,-0.0997 0.6187,-0.13259 0.4164,-0.0657 0.3863,-0.0154 0.7513,-0.0884 0.3608,-0.0722 0.7504,-0.14043 1.1048,-0.22097 0.091,-0.0207 0.1739,-0.0701 0.2652,-0.0884 0.6875,-0.1375 0.1458,0.0298 0.6187,-0.0884 0.528,-0.13199 1.0743,-0.22553 1.591,-0.39775 0.1194,-0.0398 0.2311,-0.10375 0.3536,-0.13258 0.3058,-0.072 0.6195,-0.0305 0.9281,-0.0884 0.3393,-0.0636 0.5299,-0.13745 0.8838,-0.17678 0.2636,-0.0293 0.5304,0 0.7955,0 h 1.6794 5.4801 c 0.9341,0.14013 1.885,0.0884 2.6518,0.0884 -0.1766,0.054 -0.2016,0.17118 -0.1766,0.22098 0.018,0.0373 0.069,0.0511 0.088,0.0884 0.04,0.0796 0,0.47613 0,0.57453 0,0.10559 0.026,0.1595 0.044,0.26516 0.055,0.32966 -0.055,0.6868 0,1.01647 0.015,0.0919 0.069,0.17406 0.088,0.26516 0.083,0.38648 0.1088,0.76217 0.1768,1.14905 0.026,0.14794 0.071,0.29263 0.088,0.44194 0.029,0.26354 0,0.53033 0,0.7955 v 1.4584 1.50261 c 0,0.0918 0.015,0.45777 0,0.57452 -0.041,0.32607 -0.042,-0.0804 -0.1768,0.26517 -0.083,0.21314 -0.1258,0.4399 -0.1768,0.66291 -0.023,0.10157 -0.025,0.20687 -0.044,0.30936 -0.043,0.23299 -0.05,0.14747 -0.1325,0.39774 -0.087,0.25988 -0.135,0.53753 -0.221,0.7955 -0.01,0.0198 -0.033,0.0263 -0.044,0.0442 -0.034,0.0565 -0.058,0.11788 -0.088,0.17678 0,0.0295 0.012,0.0613 0,0.0884 -0.055,0.12774 -0.172,0.22343 -0.221,0.35355 -0.026,0.0703 -0.02,0.14967 -0.044,0.22097 -0.061,0.18377 -0.1891,0.35212 -0.2651,0.53033 -0.1028,0.23992 -0.1148,0.50226 -0.1768,0.7513 -0.045,0.18078 -0.1278,0.35056 -0.1768,0.53033 -0.1904,0.69843 -0.3961,1.40143 -0.4861,2.12132 -0.066,0.5253 0,0.2424 -0.2271,0.83952 0,0.10478 0.034,0.29691 0,0.39775 -0.022,0.0669 -0.1166,0.14277 -0.1326,0.22097 -0.01,0.0434 0.011,0.0897 0,0.13259 -0.01,0.0202 -0.034,0.0244 -0.044,0.0442 -0.01,0.028 0.01,0.0598 0,0.0884 -0.033,0.1306 -0.1369,0.32984 -0.2209,0.44194 -0.025,0.0333 -0.067,0.0527 -0.088,0.0884 -0.122,0.20329 -0.2057,0.45552 -0.3094,0.66291 -0.023,0.0471 -0.064,0.0413 -0.088,0.0884 -0.021,0.0417 -0.016,0.0953 -0.044,0.13258 -0.019,0.0263 -0.065,0.0209 -0.088,0.0442 -0.011,0.0104 0.01,0.0305 0,0.0442 -0.058,0.14374 -0.1046,0.1671 -0.1326,0.30936 -0.01,0.0289 0.013,0.062 0,0.0884 -0.018,0.0373 -0.072,0.0501 -0.088,0.0884 -0.029,0.069 -0.024,0.14847 -0.044,0.22097 -0.048,0.17775 -0.1208,0.36116 -0.1768,0.53033 -0.028,0.0834 -0.1258,0.33014 -0.1768,0.39774 -0.025,0.0333 -0.069,0.0511 -0.088,0.0884 -0.013,0.0264 0.01,0.0604 0,0.0884 0,0.0138 -0.1076,0.27166 -0.1326,0.30936 -0.073,0.10903 -0.2564,0.29201 -0.3094,0.39775 -0.013,0.0264 0.012,0.0613 0,0.0884 -0.083,0.19451 -0.2314,0.37889 -0.3094,0.57452 -0.011,0.0274 0.011,0.061 0,0.0884 -0.019,0.0493 -0.068,0.0833 -0.088,0.13258 -0.022,0.0547 0.012,0.11898 0,0.17678 -0.046,0.22997 -0.029,0.0442 -0.088,0.22097 -0.1133,0.33978 -0.1969,0.67905 -0.3094,1.01646 -0.085,0.25572 -0.2506,0.48643 -0.3977,0.70711 -0.08,0.11939 -0.1008,0.28347 -0.1768,0.39775 -0.075,0.11301 -0.2242,0.16703 -0.2652,0.30936 -0.1335,0.21366 -0.2393,0.46484 -0.3977,0.66291 -0.01,0.0115 -0.034,-0.0118 -0.044,0 -0.039,0.0527 -0.047,0.12538 -0.088,0.17678 -0.02,0.0257 -0.065,0.0209 -0.088,0.0442 -0.063,0.0628 -0.083,0.19087 -0.1326,0.26517 -0.1201,0.1802 -0.3167,0.3712 -0.3977,0.57452 -0.011,0.0274 0.013,0.0621 0,0.0884 -0.018,0.0373 -0.067,0.0527 -0.088,0.0884 -0.2152,0.35935 0.091,-0.0473 -0.088,0.22097 -0.051,0.0772 -0.1258,0.14457 -0.1768,0.22097 -0.01,0.0123 0.01,0.0338 0,0.0442 -0.023,0.0233 -0.061,0.0259 -0.088,0.0442 -0.069,0.0462 -0.087,0.15597 -0.1767,0.17677 -0.025,0.0152 -0.06,-0.009 -0.088,0 -0.128,0.0427 -0.2692,0.16588 -0.3978,0.22098 -0.083,0.0356 -0.3237,0.0655 -0.3977,0.0884 -0.1203,0.037 -0.2342,0.0928 -0.3536,0.13259 -0.2032,0.0677 -0.4967,0.0548 -0.6629,0.22097 -0.068,0.068 -0.1088,0.19716 -0.1768,0.26516 -0.023,0.0233 -0.069,0.0174 -0.088,0.0442 -0.057,0.0804 -0.096,0.17336 -0.1325,0.26516 -1.2645,3.18072 -1.2375,2.04846 -1.1201,3.50797 0.1173,0.26615 0.02,0.47005 -0.07,0.60502 -0.026,0.0388 -0.099,0.0237 -0.125,0.0625 -0.066,0.0986 -0.1395,0.2782 -0.1875,0.375 -0.1596,0.31916 -1.0247,0.71138 -1.3125,0.9375 -0.2332,0.1832 -0.4852,0.4565 -0.75,0.625 -0.2682,0.17067 -0.5658,0.29445 -0.8125,0.5 -0.1358,0.11317 -0.2302,0.27362 -0.375,0.375 -0.07,0.0493 -0.17,0.0306 -0.25,0.0625 -0.3028,0.12111 -0.574,0.31208 -0.875,0.4375 -0.6872,0.28634 -1.4208,0.44605 -2.125,0.6875 -0.9568,0.32803 -1.8451,0.75089 -2.6875,1.3125 -0.4663,0.31087 -0.8532,0.74454 -1.3125,1.0625 -0.092,0.0639 -0.2175,0.0655 -0.3125,0.125 -0.075,0.0468 -0.1165,0.1345 -0.1875,0.1875 -0.2295,0.1721 -0.6325,0.39608 -0.875,0.5 -0.2426,0.10399 -0.6174,0.2389 -0.875,0.3125 -0.2117,0.0605 -0.4733,0.0638 -0.6875,0.125 -0.1002,0.0286 -0.157,0.1409 -0.25,0.1875 -0.1382,0.0691 -0.366,0.1543 -0.5,0.25 -0.072,0.0514 -0.1185,0.1323 -0.1875,0.1875 -0.3434,0.27471 -0.7134,0.54394 -1.0625,0.8125 -0.854,0.6571 -0.019,-0.008 -0.875,0.5625 -0.3303,0.22018 -0.6359,0.5913 -0.9375,0.8125 -1.0081,0.73926 0.1665,-0.25682 -0.5,0.1875 -0.3224,0.21496 -0.6151,0.47254 -0.9375,0.6875 -0.1785,0.11898 -0.388,0.18783 -0.5625,0.3125 -0.1199,0.0856 -0.1975,0.2205 -0.3125,0.3125 -0.176,0.14077 -0.3714,0.25557 -0.5625,0.375 -0.2594,0.16213 -0.5506,0.28034 -0.8125,0.4375 -0.089,0.0536 -0.159,0.1369 -0.25,0.1875 -0.098,0.0545 -0.2135,0.0713 -0.3125,0.125 -0.1978,0.10788 -0.7422,0.52477 -0.9375,0.6875 -0.091,0.0755 -0.15,0.1875 -0.25,0.25 -0.073,0.0455 -0.175,0.0214 -0.25,0.0625 -0.2446,0.1334 -0.4961,0.37305 -0.75,0.5 -0.2278,0.1139 -0.4694,0.17619 -0.6875,0.3125 -0.2555,0.15966 -0.47,0.37557 -0.75,0.5 -0.1386,0.0616 -0.2981,0.0652 -0.4375,0.125 -0.2132,0.0914 -0.4829,0.21018 -0.6875,0.3125 -0.6009,0.3004 0.382,-0.0884 -0.5,0.3125 -0.12,0.0545 -0.2572,0.0661 -0.375,0.125 -0.2016,0.10078 -0.3655,0.26556 -0.5625,0.375 -0.2753,0.15292 -0.5675,0.22752 -0.8125,0.4375 -0.2282,0.19558 -0.4047,0.37881 -0.6875,0.5 -0.035,0.015 -0.405,0.1685 -0.5,0.1875 -0.041,0.008 -0.085,-0.0132 -0.125,0 -0.32,0.10666 -0.6136,0.2825 -0.9375,0.375 -0.356,0.1017 -0.7607,0.1268 -1.125,0.1875 -0.2906,0.0484 -0.5824,0.0906 -0.875,0.125 -0.074,0.009 -0.298,-0.0383 -0.375,0 -0.1875,0.0953 0.1143,0.0495 -0.1875,0.125 -0.7825,0.1955 0.055,-0.1017 -0.8125,0.1875 -0.2753,0.0918 -0.4362,0.46424 -0.8125,0.3125 -0.1419,0.0394 -0.2977,0.0159 -0.4375,0.0625 -0.056,0.0186 -0.078,0.0896 -0.125,0.125 -0.1388,0.1041 -0.2614,0.1523 -0.4375,0.1875 -0.2328,0.0466 -1.208,0.0418 -1.4375,-0.0625 -0.3809,-0.17315 -0.6998,-0.486 -1.0625,-0.6875 -0.4655,-0.2585 -0.1707,0.0303 -0.5625,-0.3125 -0.089,-0.0776 -0.159,-0.1745 -0.25,-0.25 -0.095,-0.0794 -1.37,-0.9546 -1.6875,-1 -0.2163,-0.0309 -0.467,0 -0.6875,0 h -1.8125 -4.5625 c -0.8472,0 -1.7174,-0.0604 -2.5625,0 -0.1469,0.0105 -0.2905,0.0525 -0.4375,0.0625 -0.9699,0.0647 -1.9649,0 -2.9375,0 -0.6536,0 -1.347,0.0594 -2,0 -0.1262,-0.0115 -0.25,-0.0417 -0.3929,-0.24425 -0.018,-0.19806 -0.052,-0.21796 -0.062,-0.23696 -10e-4,-0.0105 -10e-4,-0.0242 -0.011,-0.0332 -0.016,-0.0207 -0.045,-0.0272 -0.066,-0.0442 -0.071,-0.0588 -0.1258,-0.0759 -0.1988,-0.12154 -0.02,-0.0125 -0.034,-0.0337 -0.055,-0.0442 -0.111,-0.0555 -0.2275,-0.10708 -0.3425,-0.15468 -0.062,-0.0259 -0.1288,-0.0432 -0.1878,-0.0773 -0.075,-0.0438 -0.1399,-0.10308 -0.1824,-0.22649 0.027,-0.32226 0.057,-0.0865 -0.016,-0.16021 -0.055,-0.0552 0,-0.35644 0,-0.44194 0,-0.42392 0.012,-0.81117 -0.2209,-1.19325 -0.1045,-0.17097 -0.1837,-0.37994 -0.3536,-0.48613 -0.206,-0.12878 -0.4714,-0.11788 -0.6058,-0.0906 -1.888,-1.1453 -0.5103,-0.4074 -2.7737,-1.32006 -0.1383,-0.0558 -0.2728,-0.12081 -0.4062,-0.1875 -0.043,-0.0212 -0.082,-0.0725 -0.125,-0.0937 -0.04,-0.0202 -0.1196,-0.0129 -0.1563,-0.0312 -0.01,-0.005 0,-0.0208 0,-0.0312 -0.01,-0.0104 -0.018,-0.0247 -0.031,-0.0312 -0.03,-0.0152 -0.095,-0.0161 -0.125,-0.0312 -0.013,-0.007 -0.021,-0.0208 -0.031,-0.0312 -0.021,-0.0104 -0.042,-0.0208 -0.07,0.0465 -0.01,-6.5e-4 -0.097,0.0321 -0.1401,-0.0106 -0.01,-0.0104 0.012,-0.0362 0,-0.0442 -0.1248,-0.0832 -0.3074,-0.0653 -0.442,-0.13258 -0.2673,-0.13348 -0.1373,-0.10028 -0.3093,-0.17678 -0.3358,-0.14925 -0.678,-0.25839 -1.0165,-0.39774 -1.5776,-0.64961 -3.4204,-1.32512 -5.1265,-1.37002 -1.4165,-0.0373 -2.8284,0.17676 -4.2727,0.14389 -0.5822,0.20165 -1.1343,0.52457 -1.6864,0.84749 -0.4166,0.21875 -0.8414,0.42276 -1.25,0.65625 -0.1756,0.10034 -0.3317,0.23155 -0.5,0.34375 -0.068,0.0456 -0.1283,0.0659 0.093,-0.13771 l -2.902,-0.26271 c -0.5978,0 -1.2148,-0.0398 -1.812,0 -0.747,0.0498 -0.3067,0.061 -1.2374,0.0884 -0.6332,0.0186 -1.2669,0 -1.9004,0 -0.088,0 -0.1781,-0.0134 -0.2651,0 -0.1628,0.0251 -0.3226,0.0692 -0.4862,0.0884 -0.088,0.0103 -0.1781,-0.0134 -0.5891,0.0847 -0.4111,0.0981 -0.4441,0.0799 -0.4711,0.0921 -0.1381,0.0628 -0.2652,0.14727 -0.5734,0.25371 -0.3082,0.10645 -0.3774,0.12035 -0.4431,0.14405 -0.1989,0.0737 -0.3977,0.14731 -0.5966,0.22097 -0.029,0.007 -0.06,0.0119 -0.088,0.0221 -0.8004,0.28585 0.3075,-0.0878 -0.4198,0.15468 -0.082,0.0272 -0.074,0.0663 -0.2783,0.18779 -0.4315,0.12148 -1.382,0.0696 -1.5377,0.12148 -0.2419,0.0806 -0.536,0.1802 -0.7513,0.30936 -0.1332,0.0799 -0.2531,0.19287 -0.3978,0.26517 -0.013,0.007 -0.029,0 -0.044,0 l -0.1768,0.0884 c -0.1971,0.11826 -0.3566,0.26015 -0.5745,0.35355 -0.3016,0.12924 -0.5922,0.25186 -0.8839,0.39775 -0.1843,0.0921 -0.4962,0.29354 -0.6629,0.39775 -0.026,0.0132 -0.061,-0.011 -0.088,0 -0.2674,0.10693 -0.4966,0.2704 -0.7513,0.39774 -0.071,0.0355 -0.152,0.049 -0.221,0.0884 -0.072,0.0414 -0.1098,0.12678 -0.1768,0.17678 -0.026,0.0198 -0.071,0.016 -0.088,0.0442 -0.031,0.0521 -0.01,0.12628 -0.044,0.17678 -0.029,0.0442 -0.098,0.0476 -0.1325,0.0884 -0.042,0.0506 -0.046,0.12617 -0.088,0.17677 -0.034,0.0408 -0.1016,0.0452 -0.1326,0.0884 -0.046,0.0646 -0.049,0.15207 -0.088,0.22097 -0.05,0.0884 -0.17,0.17677 -0.221,0.26517 -0.088,0.16097 0,0.0929 -0.088,0.22097 -0.055,0.0768 -0.1307,0.13847 -0.1767,0.22097 -0.029,0.0531 -0.017,0.12248 -0.044,0.17678 -0.027,0.0531 -0.1056,0.0796 -0.1326,0.13258 -0.147,0.29307 -0.026,0.17449 -0.221,0.48614 -0.022,0.0354 -0.072,0.0501 -0.088,0.0884 -0.029,0.0691 -0.023,0.14877 -0.044,0.22097 -0.039,0.13388 -0.074,0.0643 -0.1326,0.22098 -0.098,0.25374 -0.062,0.53427 -0.088,0.79549 -0.028,0.27721 -0.072,0.55525 -0.5698,0.84144 -0.5568,0.1431 -0.5488,0.15121 -0.6198,0.283 -0.053,0.0983 -0.1267,0.19 -0.1875,0.28125 -0.018,0.0266 -0.029,0.0796 -0.047,0.10937 -0.047,0.0776 -0.1073,0.15741 -0.1563,0.23438 -0.042,0.0655 -0.072,0.13746 -0.1093,0.20312 -0.035,0.0615 -0.087,0.11211 -0.125,0.17188 -0.013,0.0196 -0.021,0.0417 -0.031,0.0625 -0.031,0.0521 -0.059,0.10631 -0.094,0.15625 -0.055,0.0795 -0.1498,0.13872 -0.2032,0.21875 -0.01,0.009 0,0.0219 0,0.0312 -0.01,0.0132 -0.024,0.0186 -0.031,0.0312 -0.01,0.0141 -0.01,0.0334 -0.016,0.0469 -0.051,0.0721 -0.1391,0.13044 -0.1875,0.20313 -0.01,0.009 0,0.0219 0,0.0312 -0.036,0.0716 -0.1073,0.12626 -0.1563,0.1875 -0.023,0.0288 -0.037,0.0839 -0.062,0.10937 -0.01,0.008 -0.025,0.006 -0.031,0.0156 -0.01,0.009 0,0.0219 0,0.0312 -0.082,0.082 -6e-4,-0.0141 -0.031,0.0625 -0.035,0.0867 -0.099,0.16673 -0.1406,0.25 -0.018,0.0364 0.017,0.0767 -0.2439,0.30675 l -2.9238,0.19738 c -0.1586,0 -0.7843,-0.048 -0.9281,0 -0.135,0.045 -0.2372,0.1876 -0.3536,0.26516 -0.1237,0.0825 -0.067,-0.004 -0.1768,0.13259 -0.059,0.0736 -0.1345,0.1366 -0.1767,0.22097 -0.013,0.0263 0.018,0.0648 0,0.0884 -0.032,0.0425 -0.095,0.0508 -0.1326,0.0884 -0.1587,0.15868 -0.2636,0.40686 -0.3978,0.57453 -0.033,0.0415 -0.099,0.0469 -0.1325,0.0884 -0.029,0.0364 -0.018,0.0938 -0.044,0.13258 -0.1062,0.15916 -0.28,0.29045 -0.3978,0.44194 -0.065,0.0838 -0.113,0.18018 -0.1768,0.26517 -0.079,0.10606 -0.2033,0.2298 -0.3093,0.30935 -0.026,0.0198 -0.065,0.0209 -0.088,0.0442 -0.01,0.0104 0.01,0.0338 0,0.0442 -0.047,0.0466 -0.122,0.0519 -0.1768,0.0884 -0.035,0.0231 -0.051,0.0698 -0.088,0.0884 -0.2252,0.11263 -0.4775,0.13486 -0.7071,0.22097 -0.05,0.0186 -0.082,0.0716 -0.1326,0.0884 -0.1949,0.065 -0.461,0.0922 -0.6629,0.13258 -0.4594,0.0919 0.013,-0.005 -0.2651,0.0884 -0.2001,0.0667 -0.4196,0.0828 -0.6188,0.13258 -0.2671,0.0668 -0.5855,0.36233 -0.7955,0.53033 0.016,0.23908 -0.124,0.0489 -0.1767,0.0884 -0.083,0.0625 -0.1377,0.15847 -0.221,0.22097 -0.4261,0.31958 -0.7553,0.74951 -1.1049,1.14905 -0.1457,0.1665 -0.2767,0.34882 -0.3977,0.53033 -0.026,0.0388 -0.011,0.0996 -0.044,0.13258 -0.087,0.0875 -0.4759,0.36486 -0.5745,0.39775 -0.056,0.0186 -0.1209,-0.0186 -0.1768,0 -0.02,0.007 -0.024,0.0376 -0.044,0.0442 -0.2019,0.0673 -0.538,0.0797 -0.7513,0.0442 -0.098,-0.0163 -0.1734,-0.0959 -0.2652,-0.13258 -0.3629,-0.14519 -0.2032,-0.0176 -0.5745,-0.26517 -0.035,-0.0231 -0.053,-0.067 -0.088,-0.0884 -0.04,-0.024 -0.092,-0.0211 -0.1326,-0.0442 -0.1446,-0.0827 -0.2487,-0.23483 -0.3977,-0.30936 -0.2283,-0.11414 -0.1253,-0.0185 -0.3536,-0.13258 -0.092,-0.0459 -0.1733,-0.17505 -0.2651,-0.22097 -0.088,-0.0442 -0.066,0.0221 -0.1326,0 -0.1511,-0.0504 -0.033,-0.0367 -0.1768,-0.13259 -0.026,-0.0177 -0.1105,0.0221 -0.1326,0 -0.01,-0.0104 0,-0.0295 -0.3544,-0.13263 -0.3985,-1.39952 -0.3755,-2.71461 -0.4871,-4.02171 z"
         id="path36" />
    </g>
  </g>
</svg>
