<?xml version="1.0" encoding="UTF-8" standalone="no"?>
<!-- Created with Inkscape (http://www.inkscape.org/) -->

<svg
   version="1.1"
   id="svg2"
   width="233.21292"
   height="119.14149"
   viewBox="0 0 233.21292 119.14149"
   xmlns="http://www.w3.org/2000/svg"
   xmlns:svg="http://www.w3.org/2000/svg">
  <defs
     id="defs6">
    <linearGradient
       id="swatch77">
      <stop
         style="stop-color:#e2c69e;stop-opacity:1;"
         offset="0"
         id="stop77" />
    </linearGradient>
  </defs>
  <g
     id="layer66"
     style="display:inline"
     transform="translate(-426.86576,-492.91269)">
    <g
       id="layer68"
       style="display:inline">
      <path
         style="display:inline;fill:#969696;fill-opacity:1;stroke:none;stroke-opacity:1"
         d="m 427.08328,546.93068 c -0.0625,0.69403 -0.004,0.13215 -0.1875,0.5 -3e-4,5.9e-4 -0.0674,2.61513 0,2.75 0.0527,0.10541 0.1973,0.14459 0.25,0.25 0.1641,0.32819 0.0131,0.78931 0.125,1.125 0.0475,0.14252 0.3253,0.14876 0.25,0.375 0.0833,0.29167 0.1905,0.57755 0.25,0.875 0.0478,0.2389 0.0128,0.65056 0.125,0.875 0.25409,0.50817 0.68275,0.89913 1,1.375 0.12446,0.1867 0.12553,0.4383 0.25,0.625 0.036,0.054 0.3231,0.0945 0.375,0.25 0.0263,0.0791 -0.031,0.1726 0,0.25 0.11033,0.27583 0.55488,1.13111 0.75,1.375 0.38733,0.48416 0.85298,0.89858 1.25,1.375 0.29775,0.3573 0.42835,0.92835 0.75,1.25 0.23365,0.23365 0.875,0.375 1,0.75 0.0263,0.0791 -0.0373,0.1755 0,0.25 0.0527,0.10541 0.1973,0.14459 0.25,0.25 0.0373,0.0745 -0.0202,0.1691 0,0.25 0.0619,0.24769 0.32397,0.69897 0.5,0.875 0.48784,0.48784 0.0671,-0.0289 0.375,0.125 0.2301,0.11506 0.0199,0.25994 0.25,0.375 0.0745,0.0373 0.1709,-0.0263 0.25,0 0.36897,0.12299 0.44714,0.39303 0.875,0.5 0.44529,0.1113 1.18232,0.0758 1.625,0.125 0.35382,0.0393 0.66227,0.26242 1,0.375 0.33641,0.1121 0.65477,0.0675 1,0.125 0.156,0.026 0.5407,0.3413 0.625,0.375 0.0774,0.0309 0.1692,-0.0202 0.25,0 0.2448,0.0612 0.4196,0.2723 0.625,0.375 0.0373,0.0186 0.0955,-0.0295 0.125,0 0.0659,0.0659 0.0591,0.1841 0.125,0.25 0.0659,0.0659 0.1755,0.0691 0.25,0.125 0.20876,0.15657 0.49645,0.6655 0.75,0.75 0.0791,0.0263 0.1709,-0.0263 0.25,0 0.28839,0.0961 0.41217,0.78717 0.625,1 0.0659,0.0659 0.1841,0.0591 0.25,0.125 0.6388,0.6388 -0.52412,-0.17434 0.375,0.5 0.0745,0.0559 0.1841,0.0591 0.25,0.125 0.0659,0.0659 0.0591,0.1841 0.125,0.25 0.15231,0.15231 0.47268,0.22268 0.625,0.375 0.0659,0.0659 0.0733,0.1725 0.125,0.25 0.30701,0.46051 0.87007,0.74015 1.125,1.25 0.0589,0.11785 0.0572,0.26201 0.125,0.375 0.0606,0.10106 0.1667,0.1667 0.25,0.25 0.0417,0.0417 0.0947,0.0745 0.125,0.125 0.42412,0.70686 0.12143,0.35715 0.25,1 0.0365,0.18272 0.11824,0.36824 0.25,0.5 0.0295,0.0295 0.1019,-0.0347 0.125,0 0.20072,0.30109 0.1615,0.6719 0.5,0.875 0.68554,0.41132 1.47928,0.40479 2.25,0.625 0.17917,0.0512 0.31922,0.2048 0.5,0.25 0.0808,0.0202 0.1833,-0.05 0.25,0 0.12018,0.0901 0.13459,0.2788 0.25,0.375 0.0726,0.0605 0.77316,0.34724 0.875,0.5 0.0462,0.0693 -0.0263,0.1709 0,0.25 0.10291,0.30873 0.46354,0.46745 0.625,0.75 0.13284,0.23247 0.24199,0.55048 0.375,0.75 0.40474,0.60711 1.07596,1.03134 1.5,1.625 0.10831,0.15163 0.1382,0.35093 0.25,0.5 0.96582,1.28776 0.13109,0.10924 0.75,0.625 0.25203,0.21002 1.34642,1.36071 1.625,1.5 0.11785,0.0589 0.26201,0.0572 0.375,0.125 1.3467,0.80802 -0.61764,-0.24448 0.375,0.5 0.6995,0.52459 0.0902,-0.19564 0.625,0.25 0.18107,0.15089 0.3082,0.363 0.5,0.5 0.10722,0.0766 0.26201,0.0572 0.375,0.125 0.625,0.375 0,0.125 0.375,0.375 0.10976,0.0732 0.5542,0.26883 0.625,0.375 0.0462,0.0693 -0.0462,0.1807 0,0.25 0.0659,0.0989 0.8501,0.6001 0.875,0.625 0.6388,0.6388 -0.52412,-0.17434 0.375,0.5 0.63913,0.47935 1.17051,1.04551 1.75,1.625 0.18865,0.18865 0.46492,0.28656 0.625,0.5 0.05,0.0667 -0.0589,0.1911 0,0.25 0.0589,0.0589 0.1911,-0.0589 0.25,0 0.0932,0.0932 0.0519,0.26537 0.125,0.375 0.0462,0.0693 0.1911,-0.0589 0.25,0 0.0659,0.0659 0.0691,0.1755 0.125,0.25 0.3711,0.495 0.13299,0.008 0.625,0.5 0.10623,0.10623 0.13459,0.2788 0.25,0.375 0.14315,0.11929 0.35685,0.13071 0.5,0.25 0.11541,0.0962 0.14377,0.26877 0.25,0.375 0.25345,0.25345 0.59965,0.39554 0.875,0.625 0.18107,0.15089 0.31144,0.35858 0.5,0.5 0.21948,0.16461 0.52151,0.22267 0.75,0.375 0.48504,0.32336 0.99044,0.70882 1.5,1 0.1144,0.0654 0.26537,0.0519 0.375,0.125 0.14709,0.0981 0.23115,0.27225 0.375,0.375 0.20063,0.14331 0.67739,0.30239 0.875,0.5 0.0295,0.0295 -0.0373,0.1064 0,0.125 0.15366,0.0768 0.34049,0.0612 0.5,0.125 0.10942,0.0438 0.1382,0.2127 0.25,0.25 0.24044,0.0802 0.50956,0.0448 0.75,0.125 0.14252,0.0475 0.22925,0.2136 0.375,0.25 0.12127,0.0303 0.2517,-0.0205 0.375,0 0.36209,0.0604 0.63885,0.3093 1,0.375 0.33051,0.0601 0.67267,0.0495 1,0.125 1.28481,0.29649 0.02,0.16851 1.125,0.5 0.10213,0.0306 1.22024,0.1837 1.375,0.25 0.10832,0.0464 0.1519,0.1846 0.25,0.25 0.14294,0.0953 0.34634,0.0482 0.5,0.125 0.13437,0.0672 0.24063,0.1828 0.375,0.25 0.43015,0.2151 0.79448,0.1931 1.25,0.25 1.48862,0.1861 -0.1408,0.0273 0.75,0.25 0.23387,0.0585 0.52323,0.0494 0.75,0.125 0.17678,0.0589 0.16165,0.46244 0.5,0.25 0.1233,0.0205 0.25481,-0.0343 0.375,0 0.17917,0.0512 0.32231,0.1939 0.5,0.25 0.61681,0.19478 1.26135,0.29545 1.875,0.5 0.36015,0.12005 0.87111,0.48291 1.25,0.625 0.40488,0.15183 0.84648,0.2198 1.25,0.375 1.06732,0.41051 2.03426,0.88642 3.125,1.25 0.59893,0.19964 1.27206,0.20273 1.875,0.375 0.0567,0.0162 0.0703,0.1031 0.125,0.125 0.45281,0.18112 0.91233,0.34578 1.375,0.5 0.39666,0.13222 1.13197,0.1651 1.5,0.25 0.25677,0.0593 0.49006,0.2067 0.75,0.25 0.2466,0.0411 0.50103,-0.0226 0.75,0 0.50481,0.0459 1.00435,0.14379 1.5,0.25 0.2966,0.0636 0.57943,0.1818 0.875,0.25 0.24696,0.057 0.50956,0.0448 0.75,0.125 0.35355,0.11785 0.54639,0.5775 1,0.5 0.0801,0.0229 0.1755,-0.0373 0.25,0 0.10541,0.0527 0.1595,0.1745 0.25,0.25 0.16004,0.13337 0.35268,0.22768 0.5,0.375 0.0659,0.0659 0.0591,0.1841 0.125,0.25 0.0659,0.0659 0.1983,0.0475 0.25,0.125 0.28254,0.42381 0.25815,0.93967 0.5,1.375 0.35924,0.64663 0.33132,1.26895 1.66621,2.78346 4.12626,-0.16124 7.68168,0.32524 8.45879,0.46653 0.37122,0.0675 0.75502,0.051 1.125,0.125 0.35953,0.0719 0.60257,0.42051 1,0.5 0.13889,0.0278 0.52083,-0.0417 0.625,0 0.10942,0.0438 0.14894,0.18936 0.25,0.25 0.22597,0.13558 0.49159,0.19832 0.75,0.25 0.24514,0.049 0.50193,-0.031 0.75,0 0.73829,0.0923 1.51397,0.24511 2.25,0.375 1.0917,0.19265 2.1671,0.4703 3.25,0.625 0.94042,0.13434 1.92541,0.14449 2.875,0.25 0.40564,0.0451 0.84694,-0.0672 1.25,0 1.19605,0.19934 2.40257,0.34719 3.625,0.5 0.44054,0.0551 0.9336,0 1.375,0 h 3.25 c 0.11189,0 1.48937,-0.13032 1.75,0 0.25968,0.25968 0.18902,0.24172 0.5,0.375 0.75608,0.32403 0.55772,0.10818 1.125,0.25 0.27116,0.0678 0.48483,0.28661 0.75,0.375 0.15304,0.051 0.34365,-0.0391 0.5,0 0.25565,0.0639 0.50532,0.15213 0.75,0.25 0.31271,0.12508 0.22693,0.23847 0.5,0.375 0.21087,0.10544 0.49832,-8.4e-4 1.232,0.24851 0.63826,-0.0327 1.28469,-0.32562 1.36589,-0.40682 0.0417,-0.0417 -0.0264,-0.12407 0,-0.17677 0.19543,-0.39087 0.10971,-0.0549 0.35355,-0.17678 0.23677,-0.11838 0.24495,-0.42172 0.35355,-0.53033 0.0417,-0.0417 0.13508,0.0417 0.17678,0 0.0766,-0.0766 0.27745,-0.59301 0.35355,-0.70711 0.29316,-0.43972 0.0406,-0.0203 0.35356,-0.17677 0.7357,-0.36786 -0.18898,0.0122 0.17677,-0.35356 0.0417,-0.0417 0.12408,0.0264 0.17678,0 0.47707,-0.23853 -0.006,-0.0792 0.17678,-0.35355 0.6358,-0.95366 0.055,0.12175 0.7071,-0.53033 0.35215,-0.35215 0.75457,-1.00609 1.06066,-1.41421 0.1,-0.13334 0.23571,-0.23571 0.35356,-0.35356 0.0589,0 0.12777,0.0327 0.17677,0 0.36942,-0.24627 0.48005,-0.54329 0.70711,-0.88388 0.0242,-0.0364 1.62291,-1.34181 1.76777,-1.41421 0.83821,-0.41911 1.79213,-0.80768 2.65165,-1.23744 0.72581,-0.36291 1.37608,-1.1658 2.12132,-1.41421 0.1118,-0.0373 0.24814,0.0527 0.35355,0 0.0527,-0.0264 -0.0417,-0.13508 0,-0.17678 0.125,-0.125 0.36263,0.0559 0.53033,0 0.0791,-0.0263 0.10228,-0.13948 0.17678,-0.17678 0.25042,-0.12517 0.62783,-0.0914 0.88388,-0.17677 0.25,-0.0833 0.45711,-0.27026 0.70711,-0.35356 0.28504,-0.095 0.60771,-0.0584 0.88388,-0.17677 0.15319,-0.0657 0.21064,-0.26786 0.35356,-0.35356 0.67757,-0.40654 1.55712,-0.58749 2.29809,-0.88388 0.44632,-0.17853 0.83028,-0.50353 1.23744,-0.70711 0.46008,-0.23004 1.80186,-0.36492 2.2981,-0.53033 0.0791,-0.0263 0.10227,-0.13947 0.17677,-0.17677 0.78652,-0.39326 2.19767,-0.85878 3.00521,-1.06067 0.3723,-0.0931 0.69601,-0.40878 1.06066,-0.53033 0.82464,-0.27488 1.72985,-0.68814 2.47487,-1.06066 0.14907,-0.0745 0.20448,-0.27905 0.35355,-0.35355 0.54576,-0.27288 1.22041,-0.25665 1.76777,-0.53033 0.68947,-0.34473 1.3125,-0.92585 2.12132,-1.06066 0.34874,-0.0581 0.71397,0.0693 1.06066,0 0.80579,-0.16116 1.69304,-0.44649 2.47488,-0.70711 0.46014,-0.15337 1.12543,0.009 1.59099,-0.17677 0.19726,-0.0789 0.32877,-0.28636 0.53033,-0.35356 0.1677,-0.0559 0.35463,0.0195 0.53033,0 0.83406,-0.0927 1.6799,-0.19456 2.47487,-0.35355 0.87175,-0.17435 1.37626,-0.68813 2.12132,-1.06066 0.18858,-0.0943 0.16497,0.0943 0.35355,0 0.19878,-0.0994 0.32093,-0.46053 0.53033,-0.53033 0.16771,-0.0559 0.37222,0.0791 0.53033,0 0.41841,-0.2092 0.76845,-0.51951 1.23744,-0.70711 0.71768,-0.28707 1.57884,-0.34748 2.2981,-0.7071 0.0745,-0.0373 0.0951,-0.16048 0.17677,-0.17678 0.68752,-0.1375 1.02786,-0.0576 1.76777,-0.35355 0.93954,-0.37582 2.00747,-0.86112 3.0052,-1.06066 1.06282,-0.21257 2.30761,0.26279 3.35876,0 0.30785,-0.077 0.57604,-0.27656 0.88389,-0.35356 0.34299,-0.0857 0.71191,0.0581 1.06066,0 0.1838,-0.0306 0.34543,-0.15367 0.53033,-0.17677 0.29235,-0.0366 0.58925,0 0.88388,0 0.2357,0 0.47322,0.0292 0.70711,0 0.24108,-0.0301 0.46476,-0.15948 0.7071,-0.17678 1.66997,-0.11928 3.46662,0.23713 5.12653,0 0.24051,-0.0344 0.4714,-0.11788 0.7071,-0.17678 0.17678,-0.11785 0.3213,-0.31555 0.53033,-0.35355 0.75368,-0.13703 1.53207,0 2.2981,0 1.32789,0 2.56794,-0.0567 3.88909,-0.17678 0.37022,-0.0336 0.87211,0.0913 1.23744,0 0.54408,-0.13602 1.00793,-0.44703 1.59099,-0.53033 1.34072,-0.19153 2.71361,-0.16037 4.06586,-0.35355 0.58842,-0.0841 1.0546,-0.24628 1.59099,-0.35355 0.32036,-0.0641 0.73935,0.0803 1.06066,0 0.51868,-0.12967 1.04767,-0.26296 1.59099,-0.35356 0.34874,-0.0581 0.71192,0.0581 1.06066,0 0.51429,-0.0857 1.03145,-0.53932 1.59099,-0.35355 0.34811,-0.0435 0.71255,0.0435 1.06066,0 1.17164,-0.14645 0.25901,-0.15787 1.23744,-0.35355 0.23112,-0.0462 0.47322,0.0292 0.7071,0 0.95985,-0.11998 1.86859,-0.41035 2.82843,-0.53033 0.29235,-0.0366 0.59267,0.0548 0.88388,0 0.73456,-0.0918 1.39407,-0.44953 2.12133,-0.53033 1.45517,-0.16169 2.96424,0.16168 4.41941,0 1.99659,-0.22185 0.0956,-0.15333 2.2981,-0.35356 0.8181,-0.0744 1.65874,0.0953 2.03293,-0.61872 -0.44194,-0.85624 -0.53214,-1.27702 -0.44194,-1.5026 0.26387,-0.65968 0.60415,-1.04709 0.70711,-1.76776 0.05,-0.35 -0.0693,-0.71398 0,-1.06066 0.0935,-0.46739 0.41415,-0.9495 0.53033,-1.41422 0.0519,-0.20769 -0.0953,-0.69321 0,-0.88388 0.0745,-0.14907 0.28785,-0.20036 0.35355,-0.35356 0.41674,-0.97238 0.2772,-1.99267 0.53033,-3.0052 0.15471,-0.61884 0.54031,-1.09061 0.70711,-1.59099 0.0559,-0.1677 -0.0429,-0.35883 0,-0.53033 0.1221,-0.48843 0.25106,-0.99531 0.53033,-1.41421 0.3837,-0.57556 0.32883,-0.10263 0.53033,-0.70711 0.42028,-1.26085 -0.004,-0.14878 0.17677,-1.41421 0.24984,-1.74886 1.34374,-3.34761 1.94455,-4.94975 0.53033,-1.41421 -0.26517,0.26516 0,-0.53033 0.33512,-1.00536 0.72322,-1.99289 1.06066,-3.0052 0.0932,-0.27951 0,-0.58926 0,-0.88389 0,-1.09451 -0.22702,-3.68812 0,-4.59619 0.12286,-0.49147 0.23515,-0.94061 0.35355,-1.41422 0.0969,-0.3875 -0.0784,-0.8456 0,-1.23743 0.1222,-0.61099 0.52383,-1.04117 0.70711,-1.59099 0.13037,-0.39128 0.0711,-1.94664 0.17677,-2.47488 0.12054,-0.60265 0.41949,-1.27948 0.53033,-1.94454 0.21023,-1.26133 -0.21022,-2.62776 0,-3.88909 0.0681,-0.40862 0.25208,-0.83154 0.35356,-1.23743 0.18149,-0.72597 0.18059,-1.42948 0.35355,-2.12132 0.0572,-0.22867 -0.0388,-0.47462 0,-0.70711 0.15816,-0.94894 0.3028,-1.91829 0.53033,-2.82843 0.15228,-0.60892 0.0233,-1.33042 0.17678,-1.94454 0.0202,-0.0809 0.15047,-0.0977 0.17677,-0.17678 0.42742,-1.28223 0.55068,-2.76229 0.70711,-4.06586 0.29404,-2.45036 0.17678,-2.15085 -0.10492,-5.34432 l -7.6567,-0.041 c -0.70392,0 -1.42272,0.039 -2.125,0 -0.24408,0.12909 -0.41341,-0.10577 -0.625,-0.125 -0.16598,-0.0151 -0.33366,0.0104 -0.5,0 -0.6664,-0.0417 -1.33142,-0.0898 -2,-0.125 -1.22274,-0.0644 -2.46742,0.10167 -3.6875,0 -0.52461,-0.0437 -1.04078,-0.18862 -1.5625,-0.25 -0.86683,-0.10198 -1.75591,-0.13664 -2.625,-0.25 -0.11864,-0.0155 -0.95053,-0.16689 -1.1875,-0.1875 -0.33273,-0.0289 -0.66806,-0.0256 -1,-0.0625 -0.2315,-0.0257 -0.45545,-0.10482 -0.6875,-0.125 -1.15804,-0.1007 -2.34037,0.0828 -3.5,0 -0.35711,-0.0255 -0.70741,-0.0977 -1.0625,-0.125 -0.48737,-0.0375 -0.94823,0.0158 -1.4375,-0.0625 -0.33488,-0.0536 -0.66254,-0.15376 -1,-0.1875 -1.45251,-0.14525 -2.91933,-0.0221 -4.375,-0.0625 -1.13039,-0.0314 -2.18081,-0.12283 -3.3125,-0.1875 -0.37439,-0.0214 -0.75073,0.0234 -1.125,0 -0.43863,-0.0274 -0.87592,-0.0746 -1.3125,-0.125 -1.70016,-0.19617 0.32166,-0.0724 -1.75,-0.25 -0.71571,-0.0613 -1.41807,-0.059 -2.125,-0.1875 -0.47564,-0.0865 -0.95306,-0.2177 -1.4375,-0.25 -0.53228,-0.0355 -1.09107,0 -1.625,0 -1.16904,0 -2.34132,-0.005 -3.5,-0.1875 -0.69923,-0.11041 -1.41673,-0.2963 -2.125,-0.375 -0.14494,-0.0161 -0.29217,0.0121 -0.4375,0 -0.48457,-0.0404 -1.12423,-0.32948 -1.625,-0.375 -0.29047,-0.0264 -0.58434,0.0242 -0.875,0 -0.33669,-0.0281 -0.65872,-0.0625 -1,-0.0625 -1.73149,0.18806 -3.4801,0.008 -5.20816,-0.10678 -0.35277,-0.0235 -0.71143,0.0551 -1.06066,0 -0.86444,-0.13649 -1.68633,-0.38348 -2.56326,-0.44195 -1.46894,-0.0979 -2.95436,0.12091 -4.41942,-0.0884 -0.2689,-0.0384 -0.52756,-0.13212 -0.79549,-0.17678 -0.69505,-0.17783 -1.41841,-0.14801 -2.12132,-0.26517 -2.70899,-0.45149 1.78464,0.1444 -2.03294,-0.35355 -0.64538,-0.0842 -1.29915,-0.0926 -1.94454,-0.17678 -0.29794,-0.0389 -0.58507,-0.14532 -0.88388,-0.17677 -0.66694,-0.0702 -1.36232,-0.0437 -2.03294,-0.0884 -0.5032,-0.0335 -1.00691,-0.0838 -1.5026,-0.17678 -0.21082,-0.0395 -0.4054,-0.15432 -0.61872,-0.17677 -1.81247,-0.19079 -0.31609,0.20761 -2.03293,-0.0884 -0.53537,-0.0923 -1.05385,-0.27217 -1.59099,-0.35356 -0.43792,-0.0664 -0.88669,-0.0306 -1.32582,-0.0884 -1.00852,-0.1327 -2.01837,-0.28362 -3.00521,-0.53033 -1.09894,-0.27474 -2.24543,-0.66356 -3.27037,-1.14905 -0.27413,-0.12986 -0.51592,-0.32423 -0.79549,-0.44194 -0.93138,-0.39216 -0.77142,-0.15522 -1.67938,-0.44195 -0.6419,-0.2027 -1.20994,-0.60701 -1.85616,-0.79549 -0.37202,-0.10851 -0.76725,-0.11038 -1.14904,-0.17678 -0.29602,-0.0515 -0.58926,-0.11785 -0.88389,-0.17678 -0.55979,-0.0884 -1.12036,-0.17199 -1.67938,-0.26516 -0.79519,-0.13253 -1.58483,-0.26448 -2.38648,-0.35355 -0.22435,-0.0249 -1.36795,-0.11005 -1.67938,-0.17678 -0.1822,-0.039 -0.34586,-0.15042 -0.53033,-0.17678 -0.0442,-0.006 -1.23191,0.006 -1.32583,0 -0.79544,-0.0468 -1.52465,-0.21292 -2.29809,-0.35355 -0.32018,-0.0582 -0.6546,-0.0178 -0.97227,-0.0884 -0.4006,-0.089 -0.75447,-0.3292 -1.14905,-0.44194 -0.79777,-0.22793 -0.2517,-0.009 -0.88389,-0.0884 -0.44399,-0.0555 -0.32368,-0.13649 -0.79549,-0.26516 -0.75007,-0.20457 -0.41299,0.019 -1.32583,-0.0884 -0.24129,-0.0284 -0.46886,-0.12913 -0.7071,-0.17678 -0.50053,-0.1001 -1.01068,-0.11759 -1.50261,-0.26516 -0.70205,-0.21062 -1.40096,-0.47465 -2.12132,-0.61872 -0.43644,-0.0873 -0.40721,0.0546 -0.88388,-0.0884 -1.58191,-0.47458 0.38729,0.0842 -0.70711,-0.35355 -0.10942,-0.0438 -0.23922,0.0286 -0.35355,0 -0.29724,-0.0743 -0.47409,-0.26517 -0.79549,-0.26517 -0.41824,-0.17526 -0.81977,-0.39748 -1.25471,-0.52579 -0.81511,-0.24047 -1.67886,-0.28103 -2.5,-0.5 -0.87929,-0.23448 -1.73879,-0.54322 -2.625,-0.75 -0.36744,-0.0857 -0.75416,-0.0555 -1.125,-0.125 -0.29814,-0.0559 -0.57673,-0.19477 -0.875,-0.25 -3.34053,-0.61862 -6.71485,-1.09659 -10,-2 -2.02038,-0.55561 -3.98725,-1.29236 -6,-1.875 -1.11403,-0.32248 -2.26083,-0.54488 -3.375,-0.875 -0.63167,-0.18716 -1.24398,-0.43569 -1.875,-0.625 -0.22607,-0.0678 -0.87768,-0.14695 -1.125,-0.25 -0.95578,-0.39824 -1.86741,-0.84512 -2.875,-1.125 -0.57481,-0.15967 -1.19141,-0.16553 -1.75,-0.375 -0.47741,-0.17903 -1.88088,-0.81791 -2.5,-1 -0.36854,-0.10839 -0.75646,-0.14161 -1.125,-0.25 -0.34154,-0.10045 -0.66667,-0.25 -1,-0.375 -0.58333,-0.16667 -1.16546,-0.33763 -1.75,-0.5 -0.70194,-0.19498 -1.44377,-0.36954 -2.125,-0.625 -0.0552,-0.0207 -0.0833,-0.0833 -0.125,-0.125 -0.375,-0.16667 -0.73854,-0.36198 -1.125,-0.5 -0.59475,-0.21241 -1.26421,-0.31676 -1.875,-0.5 -0.51573,-0.15472 -1.08773,-0.41046 -1.625,-0.5 -0.32525,-0.0542 -0.68012,-0.045 -1,-0.125 -0.18078,-0.0452 -0.33874,-0.34337 -0.5,-0.25 -0.0725,0.042 -1.02842,0.26907 -1.375,0.375 -0.11954,0.0365 -0.25243,-0.0245 -0.375,0 -0.4157,0.0831 -0.0986,0.24121 -0.5,0.375 -0.77814,0.25938 -1.52333,0.63666 -2.25,1 -0.19003,0.095 -0.42774,0.0461 -0.625,0.125 -0.88831,0.35532 -2.2133,0.78497 -3,1.375 -0.7039,0.52792 -1.57595,0.72547 -2.375,1.125 -0.41625,0.20812 -0.81073,0.44929 -1.25,0.625 -0.33696,0.13478 -0.81252,0.21876 -1.125,0.375 -0.10541,0.0527 -0.14894,0.1894 -0.25,0.25 -0.6677,0.40063 -0.078,-0.099 -0.75,0.125 -0.0395,0.0132 0.0333,0.1 0,0.125 -0.14907,0.1118 -0.33333,0.1667 -0.5,0.25 -0.0833,0 -0.1755,-0.0373 -0.25,0 -0.10541,0.0527 -0.1557,0.1793 -0.25,0.25 -0.21948,0.16461 -0.52151,0.22267 -0.75,0.375 -0.30971,0.20647 -0.57965,0.4281 -0.875,0.625 -0.0693,0.0462 -0.1755,-0.0373 -0.25,0 -0.27221,0.1361 -0.66425,0.3078 -1,0.375 -0.12257,0.0245 -0.2632,-0.0559 -0.375,0 -0.5903,0.2951 0.76295,-0.0657 -0.5,0.25 -0.0404,0.0101 -0.0833,0 -0.125,0 -0.16667,0.0417 -0.33333,0.0833 -0.5,0.125 -0.26348,0.10539 -1.03123,0.65623 -1.25,0.875 -0.1522,0.15225 -0.0586,0.2793 -0.25,0.375 -0.0373,0.0186 -0.0955,-0.0295 -0.125,0 -0.0589,0.0589 0.0373,0.1755 0,0.25 -0.088,0.17597 -0.38974,0.35299 -0.5,0.5 -0.18028,0.24037 -0.34076,0.49521 -0.5,0.75 -0.0636,0.10174 -0.3443,0.5943 -0.375,0.625 -0.63263,0.63262 -1.87674,0.96553 -2.625,1.5 -0.14385,0.10275 -0.22342,0.284 -0.375,0.375 -0.0715,0.0429 -0.1709,-0.0263 -0.25,0 -0.36343,0.12114 -0.75681,0.47772 -1.125,0.625 -0.0774,0.031 -0.1709,-0.0263 -0.25,0 -0.26897,0.0897 -0.5588,0.3118 -0.875,0.375 -0.0817,0.0163 -0.1726,-0.031 -0.25,0 -0.0843,0.0337 -0.88124,0.4802 -1,0.5 -0.72946,0.12158 -1.51567,-0.0918 -2.25,0 -0.17047,0.0213 -0.33054,0.0968 -0.5,0.125 -0.1644,0.0274 -0.34526,-0.0619 -0.5,0 -0.13949,0.0558 -0.22835,0.2174 -0.375,0.25 -0.24405,0.0542 -0.5,0 -0.75,0 -1.54687,0.33333 -3.18686,0.10608 -4.4375,0.10938 -0.162,0.32399 -0.14477,1.93015 -0.3125,2.26562 -0.1479,0.29588 -0.046,0.38796 -0.125,0.625 -0.0589,0.17678 -0.2048,0.31922 -0.25,0.5 -0.0294,0.11765 0.0294,0.25735 0,0.375 -0.0873,0.34919 -0.26326,0.66477 -0.375,1 -0.0395,0.11858 0.0303,0.25373 0,0.375 -0.077,0.30785 -0.2878,0.56988 -0.375,0.875 -0.0229,0.0801 0.0202,0.1691 0,0.25 -0.0612,0.2448 -0.2723,0.4196 -0.375,0.625 -0.0186,0.0373 0.0295,0.0955 0,0.125 -0.0659,0.0659 -0.2625,-0.12263 -0.25,0.125 -0.0517,0.0775 -0.0591,0.1841 -0.125,0.25 -0.0461,0.0461 -0.7868,0.572 -0.875,0.625 -0.11299,0.0678 -0.26537,0.0519 -0.375,0.125 -0.27077,0.18051 -0.48519,0.43585 -0.75,0.625 -0.25468,0.18191 -0.70699,0.30466 -1,0.5 -0.51784,0.34523 -1.11888,0.98775 -1.375,1.5 -0.0791,0.15811 -0.2769,0.22791 -0.375,0.375 -0.25704,0.38556 -0.39362,0.95852 -0.625,1.375 -0.0858,0.15453 -0.26894,0.23358 -0.375,0.375 -0.05,0.0667 0.0263,0.1709 0,0.25 -0.071,0.21287 -0.1589,0.41996 -0.25,0.625 -0.12561,0.28263 -0.6957,1.28289 -0.75,1.5 -0.0202,0.0808 0.0263,0.1709 0,0.25 -0.0664,0.19917 -0.3168,0.39206 -0.375,0.625 -0.0404,0.16169 0.0274,0.3356 0,0.5 -0.0935,0.56068 -0.36532,1.08628 -0.5,1.625 -0.1831,0.73251 0.0451,1.56973 -0.125,2.25 -0.032,0.12783 -0.0833,0.25 -0.125,0.375 -0.0417,0.0417 -0.1031,0.0703 -0.125,0.125 -0.0638,0.15951 -0.0833,0.33333 -0.125,0.5 0,0.0833 0.0263,0.1709 0,0.25 -0.17789,0.53365 -0.71609,1.02681 -1,1.5 -0.0678,0.11298 -0.0459,0.26959 -0.125,0.375 -0.0849,0.11316 -1.06481,0.8133 -1.25,0.875 -0.239,0.0797 -0.65469,0.0148 -0.875,0.125 -0.0373,0.0186 0.0295,0.0955 0,0.125 -0.0884,0.0884 -0.25373,-0.0303 -0.375,0 -0.13223,0.0331 -0.50998,0.1733 -0.625,0.25 -0.0981,0.0654 -0.1382,0.2127 -0.25,0.25 -0.0791,0.0263 -0.1692,-0.0202 -0.25,0 -0.41584,0.10396 -1.02195,0.38963 -1.375,0.625 -0.33341,0.22227 -0.47642,0.47642 -0.75,0.75 -0.3036,0.3036 -0.18355,-0.0372 -0.375,0.25 -0.0731,0.10963 -0.0459,0.26959 -0.125,0.375 -0.4176,0.5568 -0.99249,0.92623 -1.375,1.5 -0.14201,0.21302 -0.23189,0.63647 -0.375,0.875 -0.0606,0.10106 -0.1793,0.1557 -0.25,0.25 -0.27322,0.36429 -0.42621,0.85241 -0.625,1.25 -0.12219,0.24438 -0.4312,0.47461 -0.5,0.75 -0.43208,1.7283 -0.71329,3.53252 -1.25,5.25 -0.14547,0.46549 -0.36947,0.90509 -0.5625,1.5"
         id="path52" />
    </g>
  </g>
</svg>
