<?xml version="1.0" encoding="UTF-8" standalone="no"?>
<!-- Created with Inkscape (http://www.inkscape.org/) -->

<svg
   version="1.1"
   id="svg1"
   width="199.875"
   height="75.75"
   viewBox="0 0 199.875 75.75"
   xmlns="http://www.w3.org/2000/svg"
   xmlns:svg="http://www.w3.org/2000/svg">
  <defs
     id="defs1" />
  <g
     id="layer1"
     style="display:inline"
     transform="translate(0.5,-404.375)">
    <g
       id="layer38"
       style="display:inline;fill:#ffffff;fill-opacity:1;stroke:none">
      <path
         style="fill:#ffffff;fill-opacity:1;stroke:none;stroke-linecap:round"
         d="M -0.5,474.75 5.25,475 7.5,472.25 V 469 l 2.125,-1 2.75,-3 5.625,-14.75 5.875,-4.75 7.875,-0.25 2.5,4.625 0.125,4.25 4.25,5.25 29.25,8.5 4.25,3.25 16,4 15.5,5 6.125,-3.25 3.625,-0.25 6.5,2.875 7.375,0.625 50.625,-17.5 7.75,-4.25 2.875,-0.875 4.625,-7 4.25,-0.875 2,-4 -1.75,-10.25 -6.25,-7.75 -7.75,-6.375 -11.75,-10.625 -12,-3.75 -5.125,-2.5 -2.5,2.25 -9.375,2.375 -18.5,10.125 -4.625,7.25 -5.75,2 -27.25,-1.375 -21.5,-4.375 -11.75,4 -4.5,3.5 -7.25,2.625 -11.25,7.75 -6,-1.25 -5,-3.125 -2.875,-6.5 -2,-12.375 -2.25,-4 L 10,411.875 0.375,412.25 Z"
         id="path35" />
    </g>
  </g>
</svg>
