<?xml version="1.0" encoding="UTF-8" standalone="no"?>
<!-- Created with Inkscape (http://www.inkscape.org/) -->

<svg
   version="1.1"
   id="svg2"
   width="198.82796"
   height="75.882744"
   viewBox="0 0 198.82796 75.882744"
   xmlns="http://www.w3.org/2000/svg"
   xmlns:svg="http://www.w3.org/2000/svg">
  <defs
     id="defs6">
    <linearGradient
       id="swatch77">
      <stop
         style="stop-color:#e2c69e;stop-opacity:1;"
         offset="0"
         id="stop77" />
    </linearGradient>
  </defs>
  <g
     id="layer66"
     style="display:inline"
     transform="translate(-0.34597087,-403.95771)">
    <g
       id="layer6"
       style="display:inline">
      <path
         style="fill:#969696;fill-opacity:1;stroke:none;stroke-width:1;stroke-dasharray:none;stroke-opacity:1"
         d="m 156.375,404.4375 c 0.15438,0.0662 0.28887,0.17177 0.4375,0.25 0.87905,0.46266 1.76687,0.94425 2.6875,1.3125 0.15014,0.0601 0.38346,0.2167 0.5,0.25 0.28196,0.0806 0.60619,0.0531 0.875,0.1875 0.067,0.0335 0.10082,0.17138 0.125,0.1875 0.0853,0.0569 0.48348,0.22742 0.5625,0.25 0.0601,0.0172 0.12821,-0.0198 0.1875,0 0.1249,0.0416 0.1876,0.14586 0.3125,0.1875 0.14389,0.048 0.29361,0.077 0.4375,0.125 0.13334,0.0444 0.25802,0.12901 0.375,0.1875 0.25946,0.12973 0.60739,0.13106 0.875,0.25 0.11101,0.0493 0.20385,0.13317 0.3125,0.1875 0.23066,0.11533 0.57665,0.0464 0.8125,0.125 0.14016,0.0259 0.24242,0.1433 0.375,0.1875 0.44638,0.14879 0.0548,-0.019 0.625,0.0625 0.0292,0.004 0.0339,0.0553 0.0625,0.0625 0.0606,0.0152 0.125,0 0.1875,0 0.0625,0.0417 0.11527,0.10436 0.1875,0.125 0.0801,0.0229 0.16865,-0.0181 0.25,0 0.56191,0.12487 1.24547,0.62273 1.75,0.875 0.71276,0.35638 0.35659,0.16053 1,0.375 0.37459,0.12486 -0.15698,-0.016 0.25,0.1875 0.25,0.125 0.0312,-0.0625 0.1875,0 0.17301,0.0692 0.32553,0.18457 0.5,0.25 0.0804,0.0302 0.17317,0.0241 0.25,0.0625 0.0527,0.0263 0.076,0.0923 0.125,0.125 0.28386,0.18924 0.6739,0.3913 1,0.5 0.0815,0.0272 0.17317,0.0241 0.25,0.0625 0.0527,0.0263 0.0767,0.0912 0.125,0.125 0.16101,0.11271 0.32819,0.21705 0.5,0.3125 0.17774,0.0987 0.31973,0.0523 0.5,0.1875 0.17695,0.13271 -0.0986,-0.0183 0.125,0.25 0.15433,0.1852 0.42245,0.28992 0.5625,0.5 0.0891,0.1337 0.10796,0.30494 0.1875,0.4375 0.26727,0.44545 0.67921,0.79799 0.9375,1.25 0.0327,0.0572 0.0417,0.125 0.0625,0.1875 0.0625,0.0625 0.14065,0.11255 0.1875,0.1875 0.0595,0.0951 0.0628,0.21915 0.125,0.3125 0.0654,0.0981 0.17239,0.16131 0.25,0.25 0.13719,0.15679 0.24308,0.33876 0.375,0.5 0.31438,0.38424 0.66991,0.69573 1,1.0625 0.1589,0.17656 0.26954,0.39454 0.4375,0.5625 0.18095,0.18095 0.60808,0.41212 0.75,0.625 0.0775,0.11628 0.0887,0.27618 0.1875,0.375 0.15934,0.15934 0.38222,0.23979 0.5625,0.375 0.28056,0.21042 0.50991,0.50991 0.75,0.75 0.0329,0.0329 0.0921,0.0296 0.125,0.0625 0.0329,0.0329 0.0296,0.0921 0.0625,0.125 0.24372,0.24372 0.59427,0.37534 0.875,0.5625 0.26021,0.17347 0.67322,0.6309 0.875,0.8125 0.0684,0.0616 0.4791,0.29787 0.5,0.3125 0.44748,0.31323 0.95594,0.7407 1.4375,1 0.4266,0.2297 0.31103,0.0412 0.75,0.1875 0.23881,0.0796 0.4518,0.22411 0.6875,0.3125 0.36974,0.13865 0.75394,0.24007 1.125,0.375 0.39128,0.14228 0.75683,0.44091 1.125,0.625 0.0589,0.0295 0.13101,0.0286 0.1875,0.0625 0.3417,0.20502 0.48241,0.65037 0.6875,0.9375 0.21098,0.29537 0.55614,0.68114 0.8125,0.9375 0.0329,0.0329 0.0921,0.0296 0.125,0.0625 0.10623,0.10623 0.16268,0.25275 0.25,0.375 0.0775,0.10855 0.19034,0.19318 0.25,0.3125 0.26632,0.53265 0.35807,1.15363 0.625,1.6875 0.0264,0.0527 0.0974,0.0729 0.125,0.125 0.40839,0.7714 0.43002,1.05315 0.9375,1.6875 0.0582,0.0727 0.0653,0.17842 0.125,0.25 0.18862,0.22634 0.42591,0.40781 0.625,0.625 0.10995,0.11994 0.19744,0.25994 0.3125,0.375 -0.0447,0.39875 0.39123,0.29069 0.5625,0.4375 0.3789,0.32477 0.68954,0.73098 1.0625,1.0625 0.19459,0.17297 0.71295,0.50112 0.8125,0.75 0.0729,0.18223 0.0983,0.3841 0.1875,0.5625 0.0132,0.0263 0.0532,0.0346 0.0625,0.0625 0.0329,0.0988 -0.0204,0.21036 0,0.3125 0.009,0.0457 0.0548,0.079 0.0625,0.125 0.0554,0.33208 -0.10538,0.74636 0,1.0625 0.0833,0.25 0.0625,-0.27083 0.0625,0.0625 0.33097,0.23896 0.30042,0.65861 0.625,0.875 0.0548,0.0365 0.13268,0.026 0.1875,0.0625 0.13822,0.0921 0.90205,0.83682 0.9375,0.875 0.12195,0.13133 0.19344,0.30355 0.3125,0.4375 0.10793,0.12142 0.23648,0.16047 0.3125,0.3125 0.0589,0.11785 0.0731,0.25389 0.125,0.375 0.10924,0.25488 0.31525,0.54365 0.375,0.8125 0.0226,0.10169 -0.0253,0.21144 0,0.3125 0.0468,0.18703 0.38965,0.63573 0.4375,0.875 0.0245,0.12257 -0.0124,0.25062 0,0.375 0.0404,0.404 0.25562,0.78937 0.3125,1.1875 0.0118,0.0825 -0.0137,0.1678 0,0.25 0.0445,0.26689 0.14883,0.54183 0.1875,0.8125 0.0502,0.35134 0.007,0.70352 0.0625,1.0625 0.11261,0.73195 -0.003,0.0536 0.125,0.4375 0.0148,0.0445 0.0578,0.78255 0.0625,0.8125 0.18165,1.15045 0.25,2.27621 0.0625,3.84375 -0.47917,0.51042 -0.77448,0.60488 -1.0625,0.71875 -1.42499,0.56337 -1.76607,0.79923 -3.125,1.1875 -0.14165,0.0405 -0.2964,0.0202 -0.4375,0.0625 -0.0719,0.0216 -0.125,0.0833 -0.1875,0.125 -0.10417,0.0417 -0.20463,0.0942 -0.3125,0.125 -0.10016,0.0286 -0.21036,-0.0204 -0.3125,0 -0.25151,0.0503 -0.0287,0.0456 -0.1875,0.125 -0.0186,0.009 -0.0417,0 -0.0625,0 -0.0625,0.0208 -0.13101,0.0286 -0.1875,0.0625 -0.18845,0.11307 -0.32426,0.30569 -0.5,0.4375 -0.0373,0.0279 -0.0921,0.0296 -0.125,0.0625 -0.10792,0.10792 -0.16142,0.25689 -0.25,0.375 -0.0354,0.0471 -0.0986,0.0723 -0.125,0.125 -0.0186,0.0373 0.0231,0.0903 0,0.125 -0.0654,0.0981 -0.1815,0.1541 -0.25,0.25 -0.0383,0.0536 -0.0286,0.13101 -0.0625,0.1875 -0.1186,0.19766 -0.33113,0.34976 -0.4375,0.5625 -0.0244,0.0488 -0.0704,0.25789 -0.125,0.3125 -0.0329,0.0329 -0.10417,0.0208 -0.125,0.0625 -0.028,0.0559 0.0246,0.13005 0,0.1875 -0.041,0.0957 -0.12972,0.16333 -0.1875,0.25 -0.0258,0.0388 -0.0296,0.0921 -0.0625,0.125 -0.0329,0.0329 -0.0886,0.0334 -0.125,0.0625 -0.29575,0.2366 -0.52794,0.56351 -0.8125,0.8125 -0.0351,0.0307 -0.0896,0.0322 -0.125,0.0625 -0.63346,0.54296 -0.0942,0.0995 -0.4375,0.5 -0.14428,0.16833 -0.38405,0.41974 -0.5625,0.5625 -0.0364,0.0291 -0.0921,0.0296 -0.125,0.0625 -0.0329,0.0329 -0.0296,0.0921 -0.0625,0.125 -0.24015,0.24015 -0.55326,0.40897 -0.8125,0.625 -0.0679,0.0566 -0.11679,0.13447 -0.1875,0.1875 -0.13008,0.0976 -0.50155,0.23534 -0.625,0.3125 -0.05,0.0312 -0.076,0.0923 -0.125,0.125 -0.23737,0.15824 -0.51156,0.27854 -0.75,0.4375 -0.0853,0.0569 -0.15617,0.21867 -0.1875,0.25 -0.0295,0.0295 -0.0863,-0.0155 -0.125,0 -0.31038,0.12415 -0.6079,0.3551 -0.9375,0.4375 -0.0808,0.0202 -0.17094,-0.0263 -0.25,0 -0.10175,0.10174 -0.11672,0.14307 -0.25,0.1875 -0.30377,0.10126 -0.56223,0.27074 -0.875,0.375 -0.19857,0.0662 -0.37043,0.10518 -0.5625,0.1875 -0.34825,0.14925 -0.67276,0.4432 -1,0.625 -0.25143,0.13968 -0.58004,0.30628 -0.8125,0.5 -0.23871,0.19892 -0.44493,0.43094 -0.6875,0.625 -0.0728,0.0582 -0.17725,0.0668 -0.25,0.125 -0.15614,0.12491 -0.18574,0.2368 -0.375,0.3125 -0.0387,0.0155 -0.0863,-0.0155 -0.125,0 -0.24133,0.0965 -0.28457,0.15736 -0.5625,0.25 -0.1755,0.0585 -0.0745,0.129 -0.25,0.1875 -0.0791,0.0263 -0.17035,-0.0245 -0.25,0 -0.19611,0.0603 -0.3731,0.17108 -0.5625,0.25 -0.30816,0.1284 -0.16499,0.01 -0.625,0.125 -0.10884,0.0272 -0.20366,0.0978 -0.3125,0.125 -0.14292,0.0357 -0.29092,0.0478 -0.4375,0.0625 -0.0622,0.006 -0.12898,-0.022 -0.1875,0 -0.11374,0.0426 -0.20385,0.13317 -0.3125,0.1875 -0.16942,0.0847 -0.43857,0.16087 -0.625,0.1875 -0.0825,0.0118 -0.16916,-0.0202 -0.25,0 -0.60362,0.1509 0.006,0.0594 -0.375,0.25 -0.0768,0.0384 -0.16927,0.0331 -0.25,0.0625 -0.26655,0.0969 -0.54189,0.2848 -0.8125,0.375 -0.0395,0.0132 -0.0855,-0.0132 -0.125,0 -0.15052,0.0502 -0.29559,0.11654 -0.4375,0.1875 -0.28604,0.14302 0.26521,-0.0259 -0.1875,0.125 -0.10644,0.0355 -0.26365,0.10273 -0.375,0.125 -0.0613,0.0123 -0.12947,-0.0232 -0.1875,0 -0.0754,0.0302 -0.11207,0.15733 -0.1875,0.1875 -0.0797,0.0319 -0.17317,0.0241 -0.25,0.0625 -0.0527,0.0263 -0.0779,0.0896 -0.125,0.125 -0.13937,0.10453 -0.2737,0.125 -0.4375,0.125 -0.33386,0.19557 -0.69336,0.47734 -1.0625,0.625 -0.0986,0.0394 -0.20833,0.0417 -0.3125,0.0625 -0.20833,0.0833 -0.42167,0.15511 -0.625,0.25 -0.11008,0.0514 -0.20084,0.13965 -0.3125,0.1875 -0.0383,0.0164 -0.086,-0.0146 -0.125,0 -0.72311,0.27117 -0.85717,0.40886 -1.8125,0.6875 -0.08,0.0233 -0.17094,-0.0263 -0.25,0 -0.17678,0.0589 -0.32322,0.19107 -0.5,0.25 -0.13975,0.0466 -0.2919,0.0401 -0.4375,0.0625 -0.52151,0.0802 -1.038,0.15253 -1.5625,0.1875 -0.18709,0.0125 -0.3756,-0.0149 -0.5625,0 -0.63472,0.0508 -1.71617,0.20269 -2.375,0.3125 -0.046,0.008 -0.0833,0.0417 -0.125,0.0625 -0.14583,0.0208 -0.29079,0.0492 -0.4375,0.0625 -0.72084,0.0655 -1.48328,0.12044 -2.1875,0.3125 -0.25038,0.0683 -0.63667,0.21036 -0.875,0.3125 -0.13808,0.0592 -0.23772,0.18898 -0.375,0.25 -0.0785,0.0349 -0.16927,0.0331 -0.25,0.0625 -0.35856,0.13038 -0.52731,0.21316 -0.875,0.3125 -0.16071,0.0459 -0.29292,0.17771 -0.4375,0.25 -0.35508,0.17754 -0.76878,0.25939 -1.125,0.4375 -0.0527,0.0263 -0.0723,0.0987 -0.125,0.125 -0.46257,0.23128 -0.97595,0.33173 -1.4375,0.5625 -0.10865,0.0543 -0.20833,0.125 -0.3125,0.1875 -0.1875,0.0625 -0.38257,0.10571 -0.5625,0.1875 -0.0536,0.0244 -0.076,0.0923 -0.125,0.125 -0.17571,0.11714 -0.48938,0.24174 -0.6875,0.3125 -0.76241,0.27229 -1.56066,0.44926 -2.3125,0.75 -0.18562,0.0743 -0.37688,0.23825 -0.5625,0.3125 -0.39511,0.15804 -0.71519,0.16218 -1.125,0.25 -0.96164,0.20607 -0.0654,0.0426 -0.5,0.1875 -0.69207,0.23069 -0.177,0.0408 -0.8125,0.1875 -0.41523,0.0958 -0.84648,0.24049 -1.25,0.375 -0.29382,0.0979 -0.5713,0.25176 -0.875,0.3125 -0.14445,0.0289 -0.29369,0.0305 -0.4375,0.0625 -0.23623,0.0525 -0.46133,0.22768 -0.6875,0.3125 -0.15722,0.059 -0.4198,0.0537 -0.5625,0.125 -0.231,0.1155 -0.20528,0.0946 -0.4375,0.1875 -0.0967,0.0387 -0.15118,0.15456 -0.25,0.1875 -0.0791,0.0263 -0.17094,-0.0263 -0.25,0 -0.11524,0.0384 -0.19971,0.14238 -0.3125,0.1875 -0.26486,0.10594 -0.60559,0.12015 -0.875,0.1875 -0.51124,0.12781 -0.99037,0.37259 -1.5,0.5 -0.20833,0.0417 -0.41667,0.0833 -0.625,0.125 -0.0625,0 -0.12585,-0.0103 -0.1875,0 -0.56893,0.0948 -1.42449,0.2551 -2,0.375 -0.23254,0.0485 -0.45496,0.13905 -0.6875,0.1875 -0.32887,0.0685 -0.67207,0.0521 -1,0.125 -0.62758,0.13946 -1.18855,0.40651 -1.8125,0.5625 -0.27305,0.54069 -0.66954,0.11124 -1,0.1875 -0.96223,0.22205 -1.93491,0.5612 -2.8125,1 -0.30039,0.15019 -0.62883,0.18389 -0.9375,0.3125 -0.67413,0.28089 -1.24238,0.83079 -1.9375,1.0625 -0.33215,0.11072 -0.72631,0.15831 -1.0625,0.25 -0.0625,0.0208 -0.125,0.0417 -0.1875,0.0625 -0.0208,0.0208 -0.0345,0.0532 -0.0625,0.0625 -0.32753,0.10918 -1.92932,-0.35235 -2.3125,-0.4375 -0.67774,-0.15061 -1.37315,-0.281 -2.0625,-0.375 -0.26914,-0.0367 -0.54403,-0.0212 -0.8125,-0.0625 -0.43412,-0.0668 -0.87714,-0.19195 -1.3125,-0.25 -0.22809,-0.0304 -0.46052,-0.0247 -0.6875,-0.0625 -0.0291,-0.005 -0.0354,-0.0509 -0.0625,-0.0625 -0.29513,-0.12649 -0.6374,-0.23748 -0.9375,-0.3125 -0.14448,-0.0361 -0.22022,-0.125 -0.375,-0.125 -0.40066,0.0916 -0.59651,-0.0738 -0.9375,-0.1875 -0.0791,-0.0263 -0.17094,0.0263 -0.25,0 -0.35132,-0.11711 -0.72685,-0.36015 -1.0625,-0.5 -0.15819,-0.0659 -0.29241,-0.0141 -0.4375,-0.0625 -0.27301,-0.091 0.0441,-0.0449 -0.3125,-0.1875 -0.19414,-0.0777 -0.41727,-0.0328 -0.625,-0.0625 -0.59775,-0.0854 -1.19567,-0.27562 -1.8125,-0.1875 -0.56863,0.0812 -0.99609,0.31055 -1.5,0.5625 -0.18181,0.0909 -0.23725,0.0449 -0.4375,0.125 -0.0967,0.0387 -0.15683,0.14091 -0.25,0.1875 -0.8535,0.3414 0.0222,-0.0565 -0.4375,0.25 -0.21681,0.14454 -0.51143,0.19321 -0.75,0.3125 -0.14498,-0.0168 -0.16068,0.13391 -0.25,0.1875 -0.54071,0.32442 -1.27295,0.57798 -1.875,0.75 -0.21883,0.0625 -0.76832,0.33638 -1,0.375 -0.0617,0.0103 -0.12585,-0.0103 -0.1875,0 -0.21771,0.0363 -0.41639,0.2202 -0.625,0.25 -0.76563,0.10937 -0.0438,-0.0437 -0.4375,0 -0.30003,0.0333 -0.51674,0.0625 -0.8125,0.0625 -0.23883,0 -1.24889,0.0629 -1.4375,0 -0.22144,0.0622 -0.23551,-0.19421 -0.375,-0.25 -0.519425,-0.20777 0.15223,0.23877 -0.375,-0.0625 -0.09044,-0.0517 -0.153284,-0.14881 -0.25,-0.1875 -0.178336,-0.0713 -0.382656,-0.0576 -0.5625,-0.125 -0.324609,-0.12173 -0.664437,-0.29111 -1,-0.375 -0.225969,-0.0565 -0.461008,-0.0706 -0.6875,-0.125 -0.640876,-0.15381 -1.37051,-0.35267 -2,-0.5625 -0.02795,-0.009 -0.03417,-0.0544 -0.0625,-0.0625 C 95.253151,478.0277 95.122259,478.0333 95,478 94.671422,477.9104 94.394718,477.7156 94.0625,477.625 93.960013,477.5971 93.854166,477.5833 93.75,477.5625 93.5,477.5 93.247779,477.44579 93,477.375 c -0.694346,-0.19839 -1.367946,-0.49808 -2.0625,-0.6875 -0.0603,-0.0165 -0.12898,0.0219 -0.1875,0 -0.273484,-0.10256 -0.52541,-0.29298 -0.8125,-0.375 -0.0601,-0.0172 -0.128207,0.0198 -0.1875,0 -0.208156,-0.0694 -0.401677,-0.25667 -0.625,-0.3125 -0.620674,-0.15517 -1.172328,-0.52367 -1.75,-0.8125 -0.141912,-0.071 -0.30019,-0.10801 -0.4375,-0.1875 -0.399251,-0.23115 -0.770125,-0.54131 -1.1875,-0.75 -0.1875,-0.0833 -0.375,-0.16667 -0.5625,-0.25 -0.0625,0 -0.12947,0.0232 -0.1875,0 -0.05471,-0.0219 -0.07384,-0.0958 -0.125,-0.125 -0.289403,-0.16537 -0.634927,-0.19147 -0.9375,-0.3125 -0.02736,-0.0109 -0.04167,-0.0417 -0.0625,-0.0625 -0.104167,-0.0417 -0.205041,-0.0928 -0.3125,-0.125 -0.10175,-0.0305 -0.211722,-0.0289 -0.3125,-0.0625 -0.261325,-0.0871 -0.499047,-0.28089 -0.75,-0.375 -0.396181,-0.14857 -0.838625,-0.19123 -1.25,-0.25 -0.104167,-0.0208 -0.208334,-0.0417 -0.3125,-0.0625 -0.02083,-0.0208 -0.03392,-0.0554 -0.0625,-0.0625 -0.06063,-0.0152 -0.125382,0.007 -0.1875,0 -0.236308,0.19606 -0.329531,-0.10369 -0.5,-0.125 -0.124035,-0.0155 -0.250514,0.0113 -0.375,0 -0.265074,-0.0241 -0.489996,-0.15036 -0.75,-0.1875 -0.314791,-0.045 -0.698317,-0.008 -1,-0.0625 -0.95608,-0.17383 -1.9042,-0.36816 -2.875,-0.4375 -0.332486,-0.0238 -0.66718,0.0185 -1,0 -0.323887,-0.018 -0.627533,-0.0733 -0.9375,-0.125 -0.169381,-0.0282 -0.39842,0.0547 -0.5625,0 -0.180493,-0.0602 -0.392553,-0.22753 -0.5625,-0.3125 -0.183914,-0.092 -0.378587,-0.15804 -0.5625,-0.25 C 71.135538,470.84902 70.805636,470.34384 70.5,470 c -0.001,-10e-4 -0.509491,-0.70759 -0.5625,-0.75 -0.03254,-0.026 -0.08333,0 -0.125,0 -0.0625,-0.0625 -0.129978,-0.12039 -0.1875,-0.1875 -0.182515,-0.21294 -0.214543,-0.34856 -0.375,-0.5625 -0.186912,-0.24922 -0.918814,-0.94588 -1.1875,-1.125 -0.05482,-0.0365 -0.128575,-0.033 -0.1875,-0.0625 -0.02635,-0.0132 -0.04167,-0.0417 -0.0625,-0.0625 -0.0625,-0.0417 -0.118458,-0.0954 -0.1875,-0.125 -0.07895,-0.0338 -0.170246,-0.0306 -0.25,-0.0625 L 67,466.875 c -0.02083,-0.0208 -0.03615,-0.0493 -0.0625,-0.0625 -0.263451,-0.13173 -1.054487,-0.4355 -1.3125,-0.5 -0.142916,-0.0357 -0.297746,-0.0159 -0.4375,-0.0625 -0.15052,-0.0502 -0.283575,-0.14902 -0.4375,-0.1875 -0.101057,-0.0253 -0.208971,0.0115 -0.3125,0 -0.159419,0.0139 -0.287002,-0.10619 -0.4375,-0.125 -0.103362,-0.0129 -0.20885,0.0104 -0.3125,0 -0.271539,-0.0272 -0.610907,-0.12881 -0.875,-0.1875 -0.307405,-0.0683 -0.551433,-0.24723 -0.8125,-0.3125 -0.208333,-0.0521 -0.138889,0.0347 -0.3125,0 -0.178393,-0.0357 -0.32961,-0.15342 -0.5,-0.1875 -0.06129,-0.0123 -0.125628,0.009 -0.1875,0 -0.381138,-0.0544 -0.116951,-0.0538 -0.4375,-0.125 -0.363754,-0.0808 -0.755121,-0.1464 -1.125,-0.1875 -0.247102,-0.0275 -0.502292,0.0225 -0.75,0 -0.316999,-0.0288 -0.621872,-0.0934 -0.9375,-0.125 -0.413811,-0.0414 -0.836344,0.006 -1.25,-0.0625 -0.545822,-0.091 -1.077059,-0.375 -1.625,-0.375 -0.166667,-0.125 -0.316569,-0.27623 -0.5,-0.375 -0.301157,-0.16216 -0.279272,0.003 -0.5625,-0.0625 -0.192581,-0.0444 -0.378031,-0.11655 -0.5625,-0.1875 -0.494105,-0.19004 -1.27647,-0.39279 -1.8125,-0.5 -0.25858,-0.0517 -0.550655,-0.0189 -0.8125,-0.0625 -0.209569,-0.0349 -0.414405,-0.0969 -0.625,-0.125 -0.165205,-0.022 -0.335601,0.0274 -0.5,0 -0.06499,-0.0108 -0.125,-0.0417 -0.1875,-0.0625 -0.08333,0 -0.16731,0.0103 -0.25,0 -0.163553,0.0779 -0.244563,-0.10637 -0.375,-0.125 -0.10312,-0.0147 -0.208971,0.0115 -0.3125,0 -0.159861,-0.0178 -0.286663,-0.0819 -0.4375,-0.125 -0.48974,-0.13993 -1.277461,-0.37843 -1.75,-0.4375 -0.391161,-0.0489 -0.794239,-0.006 -1.1875,-0.0625 -0.482284,-0.0689 -0.945952,-0.20904 -1.4375,-0.25 -0.166091,-0.0138 -0.335009,0.0236 -0.5,0 -0.06522,-0.009 -0.122516,-0.0517 -0.1875,-0.0625 -0.06165,-0.0103 -0.128207,0.0198 -0.1875,0 -0.14679,-0.0489 -0.222056,-0.15691 -0.375,-0.1875 -0.140674,-0.0281 -0.300349,-0.008 -0.4375,-0.0625 -1.062868,-0.42515 -2.032339,-1.08406 -2.9375,-1.6875 -0.07354,-0.049 -0.108443,-0.14797 -0.1875,-0.1875 -0.303287,-0.15164 -0.649291,-0.36108 -0.8125,-0.6875 -0.02946,-0.0589 -0.02297,-0.1348 -0.0625,-0.1875 -0.02795,-0.0373 -0.09206,-0.0296 -0.125,-0.0625 -0.01473,-0.0147 0.01473,-0.0478 0,-0.0625 -0.243369,-0.24337 -0.478021,-0.4082 -0.6875,-0.6875 -0.174167,-0.23222 -0.197247,-0.11067 -0.3125,-0.1875 -0.03876,-0.0258 -0.02956,-0.0921 -0.0625,-0.125 -0.03294,-0.0329 -0.09206,-0.0296 -0.125,-0.0625 -0.489862,-0.65315 0.02839,-0.0398 -0.3125,-0.3125 -0.146483,-0.11719 -0.610059,-0.63384 -0.6875,-0.75 -0.02311,-0.0347 0.01863,-0.0877 0,-0.125 -0.113822,-0.22764 -0.314043,-0.41924 -0.4375,-0.625 -0.0339,-0.0565 -0.03304,-0.12858 -0.0625,-0.1875 -0.108653,-0.21731 -0.233785,-0.4273 -0.375,-0.625 -0.07059,-0.0988 -0.35007,-0.18785 -0.375,-0.3125 -0.01634,-0.0817 0.01634,-0.16829 0,-0.25 -0.0058,-0.0289 -0.04167,-0.0417 -0.0625,-0.0625 -0.02083,-0.0417 -0.05336,-0.0793 -0.0625,-0.125 -0.01226,-0.0613 0,-0.125 0,-0.1875 -0.02083,-0.0625 -0.04652,-0.12359 -0.0625,-0.1875 -0.04374,-0.17497 0,-0.43957 0,-0.625 v -1.5 c 0,-0.21096 0.03512,-0.53929 0,-0.75 -0.07538,-0.45227 -0.02975,0.0983 -0.125,-0.1875 -0.160343,-0.48103 -0.230368,-0.97145 -0.4375,-1.4375 -0.0946,-0.21285 -0.225994,-0.40874 -0.3125,-0.625 -0.319967,-0.79992 -0.77526,-1.80926 -1.3125,-2.5 -0.191483,-0.24619 -0.378438,-0.50459 -0.5625,-0.75 -0.08839,-0.11785 -0.218192,-0.19933 -0.3125,-0.3125 -0.04809,-0.0577 -0.07189,-0.13439 -0.125,-0.1875 -0.01473,-0.0147 -0.04387,0.009 -0.0625,0 -0.06719,-0.0336 -0.128845,-0.0781 -0.1875,-0.125 -0.1132,-0.0906 -0.107666,-0.15192 -0.25,-0.1875 -0.121268,-0.0303 -0.250965,0.0155 -0.375,0 -0.17047,-0.0213 -0.329255,-0.10603 -0.5,-0.125 -0.717946,-0.0798 -1.64546,0 -2.375,0 h -2.625 c -0.383742,0 -0.888493,-0.0821 -1.25,0.0625 -0.338578,0.13543 0.111431,-0.0294 -0.25,0.1875 -0.295287,0.17717 -0.51745,0.20495 -0.75,0.4375 -0.03294,0.0329 -0.02255,0.10103 -0.0625,0.125 -0.07366,0.0442 -0.189261,0.002 -0.25,0.0625 -0.06074,0.0607 -0.01485,0.17853 -0.0625,0.25 -0.08171,0.12257 -0.216629,0.20065 -0.3125,0.3125 -0.08925,0.10412 -0.07271,0.25997 -0.125,0.375 -0.02423,0.26553 -0.274464,0.40382 -0.375,0.625 -0.07366,0.16204 -0.112908,0.33838 -0.1875,0.5 -0.136588,0.29594 -0.334602,0.59933 -0.5,0.875 -0.04793,0.0799 -0.06437,0.17926 -0.125,0.25 -0.06779,0.0791 -0.16866,0.12243 -0.25,0.1875 -0.210168,0.16813 -0.449487,0.42441 -0.625,0.625 -0.09896,0.11309 -0.291686,0.36114 -0.375,0.5 -0.0339,0.0565 -0.02032,0.13689 -0.0625,0.1875 -0.06669,0.08 -0.176343,0.11384 -0.25,0.1875 -0.176147,0.17615 -0.372776,0.47546 -0.5,0.6875 -0.06519,0.10865 -0.08754,0.36259 -0.125,0.4375 -0.04659,0.0932 -0.135819,0.15956 -0.1875,0.25 -0.106636,0.18661 -0.102131,0.43292 -0.1875,0.625 -0.141659,0.31873 -0.414273,0.65709 -0.5,1 -0.1117,0.4468 0.135349,0.0548 -0.0625,0.5 -0.04934,0.11101 -0.133173,0.20385 -0.1875,0.3125 -0.0093,0.0186 0.0125,0.0458 0,0.0625 -0.05303,0.0707 -0.143647,0.11076 -0.1875,0.1875 -0.04262,0.0746 -0.02408,0.17317 -0.0625,0.25 -0.02635,0.0527 -0.09865,0.0723 -0.125,0.125 -0.03842,0.0768 -0.03534,0.16851 -0.0625,0.25 -0.117208,0.35162 -0.274045,0.67309 -0.4375,1 -0.04767,0.0953 -0.067,0.288 -0.125,0.375 -0.03269,0.049 -0.09865,0.0723 -0.125,0.125 -0.03842,0.0768 -0.02408,0.17317 -0.0625,0.25 -0.0093,0.0186 -0.05178,-0.0179 -0.0625,0 -0.142433,0.23739 -0.286972,0.67342 -0.375,0.9375 -0.06669,0.20007 -0.279571,0.37164 -0.375,0.5625 -0.114724,0.22945 -0.228924,0.56177 -0.3125,0.8125 -0.02635,0.0791 0.02021,0.16915 0,0.25 -0.02,0.08 -0.301035,0.53575 -0.3125,0.5625 -0.068,0.15868 -0.01885,0.40245 -0.0625,0.5625 -0.08446,0.30969 -0.290655,0.56573 -0.375,0.875 -0.03334,0.12226 -0.02769,0.25315 -0.0625,0.375 -0.03466,0.12131 -0.246258,0.47595 -0.3125,0.625 -0.04556,0.10252 -0.08952,0.20607 -0.125,0.3125 -0.0066,0.0198 0.01473,0.0478 0,0.0625 -0.03294,0.0329 -0.110269,0.0183 -0.125,0.0625 -0.111111,0.33333 0.06667,0.23333 0,0.5 -0.01822,0.0729 -0.101246,0.11624 -0.125,0.1875 -0.01318,0.0395 0.01863,0.0877 0,0.125 -0.08333,0.16667 -0.154129,0.34021 -0.25,0.5 -0.117604,0.19601 -0.303796,0.37531 -0.4375,0.5625 -0.124671,0.17454 -0.183805,0.39091 -0.3125,0.5625 -0.0125,0.0167 -0.04777,-0.0147 -0.0625,0 -0.05068,0.0507 -0.228575,0.33215 -0.25,0.375 -0.270477,0.54095 -0.67407,1.27453 -1.25,1.5625 -0.07384,0.0369 -0.118552,0.14153 -0.1875,0.1875 -0.03148,0.1377 -0.128574,0.033 -0.1875,0.0625 -1.0147662,0.50738 0.08954,-0.0389 -0.4375,0.3125 -0.1813142,0.12088 -0.3743136,0.15591 -0.5625,0.25 -0.026352,0.0132 -0.041667,0.0417 -0.0625,0.0625 -0.041667,0.0417 -0.072295,0.0987 -0.125,0.125 -0.037268,0.0186 -0.084577,-0.0101 -0.125,0 -0.301809,0.0754 0.0031,0.0297 -0.1875,0.125 -0.1865122,0.0933 -0.3786046,0.15805 -0.5625,0.25 -0.1825934,0.0913 -0.3316419,0.26276 -0.5,0.375 -0.1598995,0.1066 -0.322695,0.14029 -0.4375,0.3125 -0.011556,0.0173 0,0.0417 0,0.0625 -0.041667,0.0833 -0.069098,0.17546 -0.125,0.25 -0.0125,0.0167 -0.053183,-0.0186 -0.0625,0 -0.038415,0.0768 -0.030598,0.17024 -0.0625,0.25 -0.010942,0.0274 -0.041667,0.0417 -0.0625,0.0625 -0.020833,0.0417 -0.047769,0.0808 -0.0625,0.125 -0.038254,0.11476 -0.068306,0.26161 -0.125,0.375 -0.046585,0.0932 -0.1545596,0.15118 -0.1875,0.25 -0.013176,0.0395 0.021437,0.0893 0,0.125 -0.045475,0.0758 -0.1420246,0.11171 -0.1875,0.1875 -0.021437,0.0357 0.013176,0.0855 0,0.125 -0.029463,0.0884 -0.083333,0.16667 -0.125,0.25 -0.066282,0.13256 -0.303241,0.39236 -0.375,0.5 -0.1905663,0.0442 -0.024085,0.17317 -0.0625,0.25 -0.079531,0.15906 -0.2351154,0.28273 -0.3125,0.4375 -0.022136,0.0443 -0.1137183,0.42058 -0.125,0.4375 -0.025841,0.0388 -0.09206,0.0296 -0.125,0.0625 -0.085898,0.0859 -0.1423842,0.19971 -0.1875,0.3125 -0.023212,0.058 0.027951,0.1316 0,0.1875 -0.020004,0.04 -0.099555,0.22455 -0.125,0.25 -0.014731,0.0147 -0.041667,0 -0.0625,0 -0.020833,0.0208 -0.046157,0.038 -0.0625,0.0625 -0.1509674,0.22645 -0.2058302,0.40805 -0.4375,0.5625 -0.2468303,0.16455 -0.7168754,0.0625 -1,0.0625 -0.4570398,0 -0.9415439,0.0459 -1.375,-0.0625 -0.1937988,-0.0485 -0.3113159,0.0318 -0.5,-0.0625 -0.1471853,-0.0736 -1.00841222,0 -1.15402913,0.003 V 411.58094 C 0.625,411.41667 0.97901416,411.16499 1.375,411 c 0.1153846,-0.0481 0.2512563,0.0177 0.375,0 1.2935021,-0.18479 2.5717665,-0.50653 3.875,-0.625 0.6966454,-0.0633 1.5725125,0.16937 2.25,0 0.090388,-0.0226 0.1596123,-0.1024 0.25,-0.125 0.2783768,-0.0696 1.8188804,-0.0374 1.875,0 0.368486,0.24566 0.76511,0.64766 1,1 0.05168,0.0775 0.09554,0.16161 0.125,0.25 0.01318,0.0395 -0.03727,0.10637 0,0.125 0.07454,0.0373 0.175464,-0.0373 0.25,0 0.03727,0.0186 -0.01863,0.0877 0,0.125 0.257635,0.51527 0.810281,0.90292 1.125,1.375 0.02311,0.0347 -0.02311,0.0903 0,0.125 0.49611,0.74416 1.309543,1.3542 1.75,2.125 0.04134,0.0723 -0.03095,0.17263 0,0.25 0.137349,0.34337 0.459334,0.66867 0.625,1 0.198329,0.39666 0.188482,0.94437 0.25,1.375 -0.01184,0.31651 0.200132,0.57579 0.25,0.875 0.118056,0.70833 0,1.52737 0,2.25 0,0.33188 -0.109089,0.92273 0,1.25 0.08452,0.25357 0.299768,0.5243 0.375,0.75 0.162149,0.48645 0.08063,1.11688 0.25,1.625 0.176708,0.53012 0.533054,1.07332 0.625,1.625 0.09776,0.58657 0.09848,1.07195 0.375,1.625 0.203342,0.40668 0.120372,0.98612 0.25,1.375 0.125998,0.37799 0.380686,0.64206 0.5,1 0.03444,0.10333 -0.06638,0.49223 0,0.625 0.05457,0.10914 0.691725,0.97086 0.75,1 0.03727,0.0186 0.09554,-0.0295 0.125,0 0.02946,0.0295 -0.03727,0.10636 0,0.125 0.07454,0.0373 0.170943,-0.0263 0.25,0 0.298451,0.0995 -0.05509,0.375 0.25,0.375 0.291667,0.20833 0.621552,0.37155 0.875,0.625 0.254643,0.25464 0.464703,0.80441 0.625,1.125 0.293115,0.58623 0.963672,1.05234 1.25,1.625 l 0.625,1.25 c 0.125,0.25 0.5,0.375 0.625,0.625 0.179617,0.35923 0.2802,0.2802 0.375,0.375 0.02946,0.0295 -0.03727,0.10636 0,0.125 0.07454,0.0373 0.170943,-0.0263 0.25,0 0.0559,0.0186 0.0691,0.10636 0.125,0.125 0.748818,0.2496 1.604794,0.43245 2.375,0.625 0.32759,0.0819 0.821005,0.098 1.125,0.25 0.345603,0.1728 0.654397,0.4522 1,0.625 0.07454,0.0373 0.170943,-0.0263 0.25,0 0.5,0.16667 -0.02528,0.11994 0.625,0.25 0.334263,0.0668 3.070042,0.10165 3.375,0 0.947214,-0.31574 -0.04514,0.0451 0.25,-0.25 0.487842,-0.48784 0.06713,0.0289 0.375,-0.125 0.200976,-0.10049 0.07117,-0.24088 0.25,-0.375 0.598885,-0.44916 0.261945,-0.26195 0.625,-0.625 0.06588,-0.0659 0.184119,-0.0591 0.25,-0.125 0.02946,-0.0295 -0.02946,-0.0955 0,-0.125 0.02946,-0.0295 0.09554,0.0295 0.125,0 0.227314,-0.22732 0.341916,-0.56128 0.625,-0.75 0.513782,-0.34252 0.574451,-0.10815 1,-0.25 0.111803,-0.0373 0.144591,-0.1973 0.25,-0.25 0.220365,-0.11018 0.554335,-0.17934 0.75,-0.375 0.02946,-0.0295 0,-0.0833 0,-0.125 0.04167,-0.0417 0.07786,-0.0897 0.125,-0.125 0.194365,-0.14577 0.453204,-0.20321 0.625,-0.375 0.0454,-0.0454 0.329601,-0.5796 0.375,-0.625 0.02946,-0.0295 0.09033,0.0231 0.125,0 0.07735,-0.0516 0.549285,-0.42429 0.625,-0.5 0.02946,-0.0295 -0.02946,-0.0955 0,-0.125 0.0031,-0.003 0.709257,-0.46944 0.75,-0.5 0.105409,-0.0791 0.28183,-0.0318 0.375,-0.125 0.06588,-0.0659 0.05912,-0.18412 0.125,-0.25 0.189403,-0.1894 0.570334,-0.24025 0.75,-0.375 0.141421,-0.10607 0.227913,-0.27694 0.375,-0.375 0.29623,-0.19749 1.005715,-0.56536 1.375,-0.75 0.111803,-0.0559 0.252427,0.0245 0.375,0 0.258406,-0.0517 0.503255,-0.15747 0.75,-0.25 0.411278,-0.15423 0.833797,-0.36127 1.25,-0.5 0.375,-0.125 -0.25,0.25 0.375,0 0.139486,-0.0558 0.234334,-0.19725 0.375,-0.25 0.433044,-0.16239 0.85298,0.007 1.25,-0.125 0.230488,-0.0768 0.394511,-0.29817 0.625,-0.375 0.118585,-0.0395 0.254809,0.0343 0.375,0 0.549942,-0.15713 1.851065,-0.85107 2.25,-1.25 0.445124,-0.44513 1.098577,-1.69716 1.375,-2.25 0.04167,-0.0833 0.208333,-0.0417 0.25,-0.125 0.03727,-0.0745 -0.04288,-0.17854 0,-0.25 0.151585,-0.25264 0.351445,-0.51558 0.625,-0.625 0.482862,-0.19315 2.185403,10e-4 2.375,-0.125 0.07752,-0.0517 0.05046,-0.1941 0.125,-0.25 0.105409,-0.0791 0.262015,-0.0572 0.375,-0.125 0.341569,-0.20494 0.262294,-0.2623 0.5,-0.5 0.121478,-0.12148 0.346341,-0.0482 0.5,-0.125 0.386929,-0.19347 0.478656,-0.39852 0.875,-0.625 0.114401,-0.0654 0.25,-0.0833 0.375,-0.125 0.25,-0.0833 0.521198,-0.11926 0.75,-0.25 0.08089,-0.0462 0.05912,-0.18412 0.125,-0.25 0.309873,-0.30987 0.169945,0.007 0.5,-0.125 0.202419,-0.081 0.770586,-0.41617 0.875,-0.625 0.01863,-0.0373 -0.02946,-0.0955 0,-0.125 0.171796,-0.1718 0.453204,-0.20321 0.625,-0.375 0.02946,-0.0295 -0.03727,-0.10637 0,-0.125 0.07453,-0.0373 0.170943,0.0263 0.25,0 0.0559,-0.0186 0.0691,-0.10637 0.125,-0.125 0.07906,-0.0263 0.169155,0.0202 0.25,0 0.373039,-0.0933 0.732179,-0.33135 1.125,-0.375 0.772759,-0.0859 1.607862,0.12786 2.375,0 0.0919,-0.0153 0.159612,-0.1024 0.25,-0.125 0.567754,-0.14194 1.442453,0 2,0 h 4.25 c 0.135817,0 3.633744,-0.12063 3.875,0 0.134371,0.0672 0.234334,0.19725 0.375,0.25 0.247148,0.35719 0.592798,0.0403 0.875,0.125 1.552212,0.46566 3.085902,0.98697 4.625,1.5 0.237171,0.0791 0.507464,-0.0606 0.75,0 0.145746,0.0364 0.240629,0.18281 0.375,0.25 0.385798,0.1929 0.853161,0.32363 1.25,0.5 0.874681,0.38875 1.73007,0.7894 2.625,1.125 0.297119,0.11142 0.563838,0.31277 0.875,0.375 0.122572,0.0245 0.254809,-0.0343 0.375,0 0.179169,0.0512 0.321901,0.1952 0.5,0.25 0.541756,0.16669 1.323567,0.19119 1.875,0.375 1.190169,0.39672 2.368777,0.62438 3.625,0.75 0.528294,0.0528 1.093689,0 1.625,0 h 4 c 0.47998,0 1.023583,-0.0596 1.5,0 0.21082,0.0263 0.41468,0.0949 0.625,0.125 0.28859,0.0412 0.58528,-0.0483 0.875,0 0.8618,0.14363 -0.10011,0.125 0.375,0.125 0.69791,-0.26049 1.4477,0.41534 2.125,0.5 0.16538,0.0207 0.34036,-0.0479 0.5,0 0.12348,0.037 0.83573,0.4737 1.125,0.5 0.33196,0.0302 0.67054,-0.0507 1,0 0.22177,0.0341 0.40636,0.19954 0.625,0.25 0.32732,0.0755 0.67207,0.0521 1,0.125 0.0575,0.0128 0.0672,0.11344 0.125,0.125 0.16343,0.0327 0.3356,-0.0274 0.5,0 0.0919,0.0153 0.15755,0.11344 0.25,0.125 0.80503,0.10063 1.69257,-0.0449 2.5,0 0.69241,0.0385 2.4528,0.47407 3.125,0.25 0.72754,-0.24251 1.03311,-0.9804 1.625,-1.375 0.45396,-0.30264 1.05589,-0.90295 1.5,-1.125 0.15355,-0.0768 0.40586,-0.0617 0.5,-0.25 0.20635,-0.4127 0.4276,-0.57013 0.75,-1 0.1118,-0.14907 0.13359,-0.35449 0.25,-0.5 0.0179,-0.0223 1.05576,-0.82884 1.125,-0.875 0.10963,-0.0731 0.26202,-0.0572 0.375,-0.125 0.23109,-0.13865 0.89132,-0.79047 1,-0.875 0.44347,-0.34492 0.94526,-0.64189 1.375,-1 0.46019,-0.38349 0.75543,-0.91304 1.125,-1.375 0.18245,-0.22806 0.44988,-0.3915 0.625,-0.625 0.21524,-0.28699 0.5091,-0.7591 0.75,-1 0.49201,-0.49201 0.2539,-0.005 0.625,-0.5 0.0559,-0.0745 0.0591,-0.18412 0.125,-0.25 0.0295,-0.0295 0.0877,0.0186 0.125,0 0.13437,-0.0672 0.25481,-0.15986 0.375,-0.25 0.68556,-0.51417 1.13493,-1.28746 1.875,-1.75 1.81264,-0.90632 -0.39529,0.26352 0.75,-0.5 0.0347,-0.0231 0.0833,0 0.125,0 0.0833,-0.0417 0.17546,-0.0691 0.25,-0.125 0.0943,-0.0707 0.14459,-0.1973 0.25,-0.25 0.16827,-0.0841 0.68776,-0.12518 0.875,-0.25 0.14709,-0.0981 0.21689,-0.29594 0.375,-0.375 0.3555,-0.17775 0.76655,-0.22138 1.125,-0.375 0.34321,-0.14709 0.6763,-0.46315 1,-0.625 0.41633,-0.20816 1.0811,-0.57047 1.5,-0.75 0.0766,-0.0328 0.17094,0.0263 0.25,0 0.24329,-0.0811 0.99827,-0.48115 1.25,-0.625 0.43218,-0.24696 0.81314,-0.63671 1.25,-0.875 0.89489,-0.48812 1.79771,-0.71688 2.75,-1.125 0.59842,-0.25647 1.15158,-0.61854 1.75,-0.875 0.24222,-0.10381 0.5143,-0.13215 0.75,-0.25 0.95481,-0.47741 2.43158,-1.375 3.5,-1.375 0.29315,0 -0.0589,0.0295 0.25,-0.125 0.50866,-0.25433 1.20969,-0.28388 1.75,-0.5 0.17623,-0.0705 0.32403,-0.31634 0.5,-0.375 0.0791,-0.0263 0.16915,0.0202 0.25,0 0.30024,-0.0751 0.497,-0.3735 0.75,-0.5 0.25209,-0.12605 0.40656,-0.0862 0.625,-0.25 0.3223,-0.24172 0.63171,-0.56586 1,-0.75 0.0745,-0.0373 0.17546,0.0373 0.25,0 0.10541,-0.0527 0.14894,-0.18937 0.25,-0.25 0.2395,-0.1437 0.72088,-0.30522 1,-0.375 0.0808,-0.0202 0.17546,0.0373 0.25,0 0.10541,-0.0527 0.15572,-0.17929 0.25,-0.25 0.0632,-0.0474 0.46609,-0.0911 0.5,-0.125 0.0295,-0.0295 -0.0295,-0.0955 0,-0.125 0.129,-0.129 0.36327,-0.18164 0.5,-0.25 0.13333,-0.0667 0.11667,-0.18333 0.25,-0.25 0.0373,-0.0186 0.0955,0.0295 0.125,0 0.20347,-0.20347 0.125,-0.61476 0.28125,-0.53125 0.30208,0.38545 0.45434,0.40895 0.59375,0.46875 z"
         id="path23" />
    </g>
  </g>
</svg>
