<?xml version="1.0" encoding="UTF-8" standalone="no"?>
<!-- Created with Inkscape (http://www.inkscape.org/) -->

<svg
   version="1.1"
   id="svg1"
   width="197.51219"
   height="187.125"
   viewBox="0 0 197.51219 187.125"
   xmlns="http://www.w3.org/2000/svg"
   xmlns:svg="http://www.w3.org/2000/svg">
  <defs
     id="defs1" />
  <g
     id="layer1"
     style="display:inline"
     transform="translate(-561.125,-109.375)">
    <g
       id="layer39"
       style="display:inline;fill:#ffffff;fill-opacity:1;stroke:none">
      <path
         style="fill:#ffffff;fill-opacity:1;stroke:none;stroke-linecap:round"
         d="m 568.125,109.375 -0.875,12.75 -5.625,5.625 -0.5,3.25 4.75,5.875 h 3.375 l 8,9.875 0.75,4.625 10.125,12.75 1.75,-0.75 2.375,2.75 4.5,0.25 9,3.375 5.875,12.5 8.75,9.375 13.5,2.875 2.5,5.125 16,8.25 3.25,13 4.375,4.5 8.875,-0.5 7.25,7.75 2.625,1.5 6.375,10.125 -0.375,3.125 7.5,12.625 2,-0.5 2.25,3.625 1.5,11.25 -4.125,8.125 -3.625,4.75 2.375,0.875 2.125,2.25 12.375,6.125 4.75,-0.125 3.5,-1.875 5.5,-6.125 7.09143,-0.93609 5.39169,-2.82843 3.71231,-13.78858 2.82843,-2.65165 2.91681,-1.76777 13.08148,-12.02082 -0.53033,-12.81631 3.27037,-9.63433 -2.38649,-4.59619 -14.14213,-12.28598 -8.92723,-14.93763 -7.07106,-1.5026 -6.0988,-3.88909 -12.63953,-3.09359 -9.01562,-9.01561 -0.79549,-4.86136 -10.25305,-12.81631 -4.06586,-9.104 h -2.47488 l -3.62392,-1.76777 -2.12132,-0.17678 -3.88909,-4.24264 L 646,147.25 643.375,143 h -6.25 L 628.25,125.375 615.75,123.25 606.625,112.125 602,109.375 578.875,111 Z"
         id="path36" />
    </g>
  </g>
</svg>
