<?xml version="1.0" encoding="UTF-8" standalone="no"?>
<!-- Created with Inkscape (http://www.inkscape.org/) -->

<svg
   version="1.1"
   id="svg2"
   width="195.67551"
   height="188.60571"
   viewBox="0 0 195.67551 188.60571"
   xmlns="http://www.w3.org/2000/svg"
   xmlns:svg="http://www.w3.org/2000/svg">
  <defs
     id="defs6">
    <linearGradient
       id="swatch77">
      <stop
         style="stop-color:#e2c69e;stop-opacity:1;"
         offset="0"
         id="stop77" />
    </linearGradient>
  </defs>
  <g
     id="layer66"
     style="display:inline"
     transform="translate(-561.25433,-109.1865)">
    <g
       id="layer21"
       style="display:inline">
      <path
         style="display:inline;fill:#969696;fill-opacity:1;stroke:none;stroke-opacity:1"
         d="m 691.50001,285 c 0.2084,-0.4169 -0.003,-0.99474 0.25,-1.5 0.10541,-0.21082 0.4255,-0.27639 0.5,-0.5 0.1972,-0.5916 0.0328,-1.42072 0.25,-2 0.17061,-0.45497 0.53269,-0.81538 0.75,-1.25 0.0896,-0.17914 -0.11859,-0.59188 0,-0.75 0.21213,-0.28284 0.55388,-0.45582 0.75,-0.75 0.0981,-0.14713 1.1522,-2.20677 1.25,-2.5 0.0527,-0.15811 -0.0745,-0.35093 0,-0.5 0.15811,-0.31623 0.61869,-0.42173 0.75,-0.75 0.1276,-0.31901 0.11465,-0.68419 0.25,-1 0.11835,-0.27617 0.3945,-0.46867 0.5,-0.75 0.14919,-0.39786 0.0922,-0.85547 0.25,-1.25 0.031,-0.0774 0.2236,0.0791 0.25,0 0.37374,-1.12122 -0.21832,-6.62327 -0.5,-7.75 -0.0286,-0.11433 -0.1973,-0.14459 -0.25,-0.25 -0.7221,-1.4442 -0.88588,-1.2269 -2.25,-2.25 -0.76167,-0.57125 -1.52104,-1.39253 -2.25,-2 -1.42989,-1.19157 -2.23701,-2.98051 -3.25,-4.5 -0.22811,-0.34216 -0.30947,-0.96419 -0.5,-1.25 -0.13075,-0.19611 -0.36926,-0.30388 -0.5,-0.5 -0.7645,-1.14674 -1.05711,-2.67132 -1.5,-4 -0.21186,-0.63558 -0.72948,-0.95896 -1,-1.5 -0.0745,-0.14907 0.0745,-0.35093 0,-0.5 -0.10541,-0.21082 -0.36926,-0.30388 -0.5,-0.5 -0.1995,-0.29921 0.0608,-0.58559 -0.25,-1 -0.9523,-1.26973 -1.84525,-2.64287 -2.75,-4 -0.0654,-0.0981 -0.1667,-0.1667 -0.25,-0.25 -0.0833,0 -0.1911,0.0589 -0.25,0 -1.18014,-1.18013 0.0633,-0.28001 -0.75,-1.5 -0.0462,-0.0693 -0.2127,0.0745 -0.25,0 -0.30212,-0.60422 -0.37294,-1.6844 -0.75,-2.25 -0.13075,-0.19611 -0.39459,-0.28918 -0.5,-0.5 -0.1537,-0.30732 -0.1224,-0.68098 -0.25,-1 -0.12851,-0.32126 -0.55886,-0.71329 -0.75,-1 -0.24893,-0.37339 -0.23075,-0.89099 -0.5,-1.25 -0.11181,-0.14907 -0.33334,-0.1667 -0.5,-0.25 -0.0833,0 -0.1911,0.0589 -0.25,0 -0.07,-0.07 0.25687,-1.3669 -0.5,-0.75 -0.14908,-0.0745 -0.35709,0.0857 -0.5,0 -0.30317,-0.1819 -0.46716,-0.53787 -0.75,-0.75 -0.19727,-0.14795 -0.84155,-0.34155 -1,-0.5 -0.53051,-0.53051 -0.71949,-1.46949 -1.25,-2 -0.5173,-0.51726 0.0202,0.79044 -0.5,-0.25 -0.0373,-0.0745 0,-0.1667 0,-0.25 -0.0833,-0.16666 -0.1667,-0.33333 -0.25,-0.5 -0.45993,-0.61323 -0.88292,-0.76583 -1.25,-1.5 -0.11786,-0.2357 -0.10383,-0.53073 -0.25,-0.75 -0.1609,-0.241 -1.09548,-0.1882 -1.25,-0.25 -0.21885,-0.0875 -0.28919,-0.39459 -0.5,-0.5 -0.14908,-0.0745 -0.33561,0.0274 -0.5,0 -0.33892,-0.0565 -0.66459,-0.1755 -1,-0.25 -1.54787,-0.344 -7.48667,0.007 -8,-0.25 -0.60093,-0.30046 -1.1996,-0.61471 -1.75,-1 -0.38619,-0.27033 -0.64209,-0.69321 -1,-1 -1.99258,-1.70792 -2.85141,-3.40561 -3.5,-6 -0.0808,-0.32338 0.0548,-0.6712 0,-1 -0.13703,-0.82212 -0.4175,-1.6751 -0.5,-2.5 -0.0829,-0.8292 0.30949,-1.72627 0,-2.5 -0.20637,-0.51591 -0.97565,-2.72564 -1.25,-3 -0.0589,-0.0589 -0.1911,0.0589 -0.25,0 -0.51726,-0.5173 0.79044,0.0202 -0.25,-0.5 -0.3878,-0.19389 -1.16632,-0.49973 -1.5,-0.75 -0.14908,-0.1118 -0.0833,-0.4167 -0.25,-0.5 -0.22361,-0.1118 -0.51283,0.0791 -0.75,0 -0.0791,-0.0264 0.0589,-0.1911 0,-0.25 -0.29463,-0.29463 -0.65332,-0.51887 -1,-0.75 -0.53101,-0.35401 -1.26434,-0.59528 -1.75,-1 -0.36215,-0.30178 -0.61641,-0.726 -1,-1 -0.21444,-0.1532 -0.5143,-0.13215 -0.75,-0.25 -0.53959,-0.26979 -0.97723,-0.98861 -1.5,-1.25 -0.14908,-0.0745 -0.34681,0.0657 -0.5,0 -0.44663,-0.19141 -0.83334,-0.5 -1.25,-0.75 0,-0.0833 0.0728,-0.2095 0,-0.25 -2.28972,-1.27206 -1.65308,-0.48981 -3,-1.5 -0.24037,-0.18028 -0.53755,-0.28754 -0.75,-0.5 -0.0589,-0.0589 0.0589,-0.1911 0,-0.25 -0.93788,-0.93788 -0.4609,-0.15817 -1.25,-0.75 -0.33334,-0.25 -0.40332,-0.76887 -0.75,-1 -0.13868,-0.0925 -0.35093,0.0745 -0.5,0 -0.1667,-0.0833 0.29462,-0.5934 -0.25,-0.5 -0.15812,-0.0527 -0.34189,0.0527 -0.5,0 -0.4062,-0.1354 -0.4941,-0.62352 -1,-0.75 -0.49177,-0.12294 -1.06363,0.29387 -1.5,-0.25 -0.525,-0.175 -0.975,-0.575 -1.5,-0.75 -0.75,-0.25 -1.75,0.25 -2.5,0 -0.11181,-0.0373 -0.1382,-0.2127 -0.25,-0.25 -0.50969,-0.1699 -1.24032,-0.0801 -1.75,-0.25 -0.46749,-0.15583 -1.15832,-0.55277 -1.75,-0.75 -0.27942,-0.0931 -2.12073,-1.30608 -2.25,-1.5 -0.0924,-0.13867 0.11785,-0.38215 0,-0.5 -0.11786,-0.11785 -0.34189,0.0527 -0.5,0 -0.46464,-0.15488 -0.84139,-0.97759 -1.25,-1.25 -0.0693,-0.0462 -0.1807,0.0462 -0.25,0 -0.64755,-0.4317 -1.05684,-1.40341 -1.75,-1.75 -0.0745,-0.0373 -0.1911,0.0589 -0.25,0 -0.13177,-0.13176 -0.11824,-0.36824 -0.25,-0.5 -0.0461,-0.0461 -0.7039,-0.2039 -0.75,-0.25 -0.0589,-0.0589 0.0693,-0.2038 0,-0.25 -0.8571,-0.5714 -1.66451,-0.4145 -2.5,-1.25 -0.1863,-0.18634 -0.0919,-0.53918 -0.25,-0.75 -0.11181,-0.14907 -0.35093,-0.1382 -0.5,-0.25 -0.55855,-0.41891 -1.32293,-1.18057 -1.75,-1.75 -0.75778,-1.01036 -0.0396,-0.11875 -0.25,-0.75 -0.19787,-0.59359 -0.59554,-0.88215 -0.75,-1.5 -0.27286,-1.09141 0.15158,-0.14366 0,-0.75 -0.24842,-0.99366 -0.50738,-2.02949 -0.75,-3 -0.0904,-0.36155 -0.4096,-0.63845 -0.5,-1 -0.0606,-0.24253 0.0791,-0.51283 0,-0.75 -0.21324,-0.6397 -0.64152,-0.71227 -1,-1.25 -0.9906,-1.48589 -1.93355,-2.32515 -3.5,-3.5 -0.76579,-0.57434 0.4099,0.15991 -0.5,-0.75 -0.35337,-0.35336 -1.35785,-0.80392 -1.75,-1 -0.48429,-0.24214 -0.81545,-0.53272 -1.25,-0.75 -0.80789,-0.40394 -2.34395,0.12944 -3.25,0 -0.34014,-0.0486 -0.66667,-0.1667 -1,-0.25 -0.33334,0 -0.67002,0.0471 -1,0 -0.7794,-0.11134 -0.97856,-0.59571 -1.75,-0.75 -0.16344,-0.0327 -0.34189,0.0527 -0.5,0 -0.49573,-0.16524 -0.78087,-1.01543 -1.25,-1.25 -0.0745,-0.0373 -0.1911,0.0589 -0.25,0 -0.0589,-0.0589 0.0309,-0.1726 0,-0.25 -0.13841,-0.34602 -0.26719,-0.70899 -0.5,-1 -0.11641,-0.1455 -0.3882,-0.10093 -0.5,-0.25 -0.1581,-0.21082 -0.11442,-0.52403 -0.25,-0.75 -0.1075,-0.17915 -1.64928,-1.89927 -1.75001,-2 -0.0589,-0.0589 -0.1833,0.05 -0.25,0 -2.02047,-1.51536 0.44332,-0.084 -1.5,-1.25 -0.6473,-0.38838 -1.39946,-0.59964 -2,-1 -0.098,-0.0654 -0.13566,-0.2214 -0.25,-0.25 -0.24253,-0.0606 -0.50746,0.0606 -0.75,0 -0.34299,-0.0857 -0.45582,-0.55388 -0.75,-0.75 -0.35695,-0.23797 -1.0895,-0.1716 -1.5,-0.5 -0.27607,-0.22086 -0.46715,-0.53787 -0.75,-0.75 -0.19726,-0.14795 -0.84155,-0.34155 -1,-0.5 -0.42491,-0.42492 -0.57508,-1.07508 -1,-1.5 -0.0589,-0.0589 -0.1911,0.0589 -0.25,0 -0.16339,-0.16339 -0.6799,-1.28963 -0.75,-1.5 -0.0527,-0.15811 0.0745,-0.35093 0,-0.5 -0.0373,-0.0745 -0.2127,0.0745 -0.25,0 -0.0745,-0.14907 0.0404,-0.33831 0,-0.5 -0.18442,-0.73768 -0.61408,-1.18451 -0.75,-2 -0.208,-1.2483 0.29921,-2.65159 -0.25,-3.75 -0.33686,-0.67372 0.24149,-1.77555 0,-2.5 -0.0391,-0.11723 -0.9744,-1.9744 -1,-2 -0.13176,-0.13176 -0.39663,-0.095 -0.5,-0.25 -0.0924,-0.13867 0.0745,-0.35093 0,-0.5 -0.0314,-0.0628 -1.4324,-0.39867 -1.5,-0.5 -0.14617,-0.21926 -0.0919,-0.53918 -0.25,-0.75 -0.34951,-0.46601 -1.51266,-0.8845 -2,-1.25 -0.77974,-0.58481 0.67555,-0.0372 -1.25,-1 -0.60924,-0.3046 -1.35113,-0.0337 -2,-0.25 -1.81085,-0.60362 0.39416,0.0721 -0.75,-0.5 -0.2236,-0.1118 -0.51282,0.0791 -0.75,0 -0.32071,-0.1069 -0.67928,-0.3931 -1,-0.5 -0.37202,-0.12401 -0.90472,-0.0774 -1.25,-0.25 -0.64112,-0.32056 -1.64615,-1.41026 -2,-2 -0.0857,-0.14291 0.0527,-0.34188 0,-0.5 -0.14074,-0.42223 -0.64249,-0.46246 -0.75,-1 -0.1144,-0.572 -0.37779,-2.24243 -0.49567,-2.65587 0.4074,-0.63217 3.75756,-4.97061 4.37067,-5.59413 0.33731,-0.67462 0.5305,-1.3688 0.625,-2.125 0.0766,-0.61259 -0.0473,-1.27199 0.125,-1.875 0.5306,-1.85711 1.36586,-3.57929 1.75,-5.5 0.1593,-0.79653 0,-2.74562 0,-3.625 0,-0.2249 -0.0696,-0.54133 0,-0.75 0.0589,-0.17678 0.1988,-0.32083 0.25,-0.5 0.14709,-0.51483 0.0753,-0.99674 0.54798,-1.4385 0.59965,0.0615 1.56862,0.60843 1.88897,0.7686 0.10541,0.0527 0.23922,-0.0286 0.35355,0 0.26749,0.0669 0.61639,0.28666 0.88388,0.35356 0.45626,0.11406 1.42209,0.28825 1.94455,0.35355 0.66046,0.0826 1.4509,0 2.12132,0 h 5.83363 9.19239 c 1.66272,0 3.47228,-0.1838 5.12652,0 0.1852,0.0206 0.34587,0.15048 0.53033,0.17678 1.20094,0.17156 2.93585,-0.28251 4.06587,0 0.21514,0.0538 1.34841,0.6824 1.41421,0.7071 0.34381,0.12893 1.40511,0.34446 1.59099,0.53033 0.53858,0.53858 1.15599,1.71811 1.59099,2.2981 0.35,0.46667 0.92426,0.7453 1.23744,1.23744 0.28295,0.44465 0.42415,0.96956 0.7071,1.41421 0.13422,0.21092 0.38033,0.33033 0.53033,0.53033 0.20616,0.27488 0.33974,0.598 0.53033,0.88389 0.60531,0.90796 1.63924,1.62958 2.47488,2.29809 0.26029,0.20823 0.41769,0.54173 0.7071,0.70711 1.0718,0.61241 0.6472,0.0779 1.59099,0.70711 0.13868,0.0924 0.20126,0.28585 0.35356,0.35355 2.94383,1.30837 6.22397,1.06066 9.36916,1.06066 1.30752,0 2.87972,-0.35814 4.06587,0.35355 0.97616,0.58573 0.14816,0.11955 0.35355,0.53033 0.095,0.19003 0.2357,0.35356 0.35355,0.53033 0.0589,0 0.15048,-0.0527 0.17678,0 0.10868,0.21731 0.0811,0.4838 0.17678,0.70711 0.0837,0.19528 0.25855,0.3403 0.35355,0.53033 0.25,0.5 0.29901,1.08208 0.53033,1.59099 0.14218,0.3128 0.38635,0.57192 0.53033,0.88388 0.55231,1.19668 0.77529,2.1874 1.41421,3.35876 0.20348,0.37303 0.50364,0.68763 0.70711,1.06066 0.55788,1.02277 1.00398,2.17567 1.59099,3.18198 1.02484,1.75687 2.90521,2.94475 4.41942,4.24264 0.15409,0.13209 2.41377,2.85253 2.47487,3.00521 0.0438,0.10942 -0.0373,0.24175 0,0.35355 0.0179,0.0537 1.81458,1.50979 1.94455,1.59099 0.79227,0.49517 1.95334,0.76896 2.82842,1.06066 0.72672,0.24224 1.16795,1.1796 2.12132,0.88388 2.35703,0.70711 1.0312,0.0884 2.65165,0.53033 1.41615,0.38623 2.78849,1.05567 4.24264,1.23744 0.62854,0.0786 0.84853,-0.0471 1.41422,0 0.77237,0.0644 1.52477,0.30205 2.29809,0.35355 4.28252,0.28551 8.61573,-0.18869 13.16986,-0.0884 0.97365,0.754 2.05142,0.98337 2.91682,1.50261 0.14292,0.0858 0.21064,0.2678 0.35356,0.35355 0.41559,0.24936 1.05294,0.34583 1.41421,0.70711 0.0932,0.0932 0.0836,0.26038 0.17678,0.35355 0.27951,0.27951 0.73176,0.31107 1.06066,0.53033 0.13867,0.0924 0.21488,0.2611 0.35355,0.35355 0.0981,0.0654 0.27022,-0.0833 0.35355,0 0.0417,0.0417 -0.0417,0.13511 0,0.17678 0.13177,0.13176 0.37529,0.0734 0.53033,0.17678 0.20398,0.13598 0.32636,0.39435 0.53033,0.53033 0.93064,0.62042 2.311,1.24388 3.35876,1.76776 0.22958,0.39049 0.60491,0.0652 0.88389,0.17678 0.27355,0.10942 0.42127,0.45887 0.7071,0.53033 0.1715,0.0429 0.35883,-0.0429 0.53033,0 0.24254,0.0606 0.32232,0.39166 0.53033,0.53033 0.1849,0.12327 0.74478,0.21445 0.88389,0.35356 0.0833,0.0833 -0.0527,0.24814 0,0.35355 0.0589,0.11785 0.29462,0.0589 0.35355,0.17678 0.0527,0.1054 -0.0286,0.23922 0,0.35355 0.032,0.12783 0.13511,0.22855 0.17678,0.35355 0.26516,0.7955 -0.26517,1.85616 0,2.65165 0.12875,0.38626 0.26894,0.63762 0.35355,1.06066 0.0462,0.23113 -0.0572,0.47844 0,0.70711 0.091,0.3639 0.26258,0.69676 0.35355,1.06066 0.0491,0.19642 -0.0737,0.73657 0,0.88388 0.0589,0.11785 0.26039,0.0836 0.35356,0.17678 0.38007,0.38007 0.51823,1.04856 0.88388,1.41421 0.20833,0.20834 0.49877,0.322 0.70711,0.53033 0.125,0.125 -0.10275,0.38648 0,0.53033 0.52378,0.7333 0.91138,0.78568 1.41421,1.41422 0.0823,0.10289 0.0836,0.26038 0.17678,0.35355 0.0932,0.0932 0.28046,0.0671 0.35355,0.17678 0.0654,0.0981 -0.0654,0.25549 0,0.35355 0.16343,0.24515 0.52305,0.30026 0.70711,0.53033 0.97682,1.22104 1.8953,2.60241 3.0052,3.71231 0.0932,0.0932 0.26038,0.0836 0.35355,0.17678 0.22255,0.22255 0.94164,1.21584 1.06066,1.41421 0.0303,0.0505 -0.0417,0.13511 0,0.17678 0.25452,0.25452 1.10851,0.85064 1.23744,1.23743 0.0373,0.11181 -0.0373,0.24175 0,0.35356 0.0677,0.20306 0.42204,0.24526 0.53033,0.35355 0.15023,0.15023 0.24424,0.34815 0.35355,0.53033 0.34161,0.56935 0.81454,1.32924 1.06066,1.94455 0.0438,0.10942 -0.0654,0.25549 0,0.35355 0.0731,0.10963 0.28047,0.0671 0.35356,0.17678 0.30974,0.46461 0.38799,1.11231 0.7071,1.59099 0.23504,0.35254 0.75087,0.66162 0.88389,1.06066 0.0373,0.1118 -0.0527,0.24814 0,0.35355 0.0745,0.14907 0.25355,0.22022 0.35355,0.35355 0.6039,0.80519 1.13147,1.6795 1.76777,2.47488 0.35408,0.4426 0.85574,0.67896 1.23744,1.06066 0.15446,0.15446 0.28451,0.74581 0.35355,0.88388 0.0614,0.12278 1.55317,1.3953 1.59099,1.41421 0.24729,0.12365 0.65219,0.16048 0.88388,0.35356 0.41751,0.34792 0.88056,1.00872 1.41422,1.23743 0.16248,0.0696 0.36619,-0.0656 0.53033,0 0.15474,0.0619 0.22022,0.25356 0.35355,0.35356 0.58759,0.44069 1.92335,1.10208 2.65165,1.41421 0.46687,0.20009 1.08735,0.53923 1.59099,0.70711 0.26456,0.0882 0.6128,-0.0678 0.88388,0 0.38802,0.097 0.40318,0.37836 0.70711,0.53033 0.31569,0.15784 4.13264,0.029 4.77297,0.17677 0.79741,0.18402 1.26572,0.48084 1.94454,0.70711 0.11181,0.0373 0.24815,-0.0527 0.35356,0 0.44911,0.22456 -0.18104,0.21128 0.53033,0.35355 1.45036,0.29008 -0.7913,-0.66742 1.59099,0.35356 0.0766,0.0328 0.11785,0.11785 0.17678,0.17677 0.35355,0.17678 0.69364,0.38353 1.06066,0.53033 0.35909,0.40074 0.84215,0.045 1.23743,0.17678 0.20156,0.0672 0.32878,0.28637 0.53033,0.35355 0.34004,0.11335 0.71293,0.0899 1.06066,0.17678 0.45215,0.11304 0.81695,0.54943 1.23744,0.70711 0.68291,0.25609 1.33443,0.40205 1.94454,0.70711 0.73571,0.36785 -0.18898,-0.0122 0.17678,0.35355 0.15769,0.15769 0.77947,0.0724 0.88388,0.17678 0.13176,0.13176 0.045,0.39856 0.17678,0.53033 0.0833,0.0833 0.2555,-0.0654 0.35355,0 0.10964,0.0731 0.0836,0.26038 0.17678,0.35355 0.15023,0.15023 0.3801,0.20332 0.53033,0.35355 0.0417,0.0417 -0.0527,0.15043 0,0.17678 0.56012,0.28006 0.16451,-0.36582 0.70711,0.17678 0.0417,0.0417 -0.0417,0.13511 0,0.17677 0.0932,0.0932 0.26038,0.0836 0.35355,0.17678 0.11515,0.11515 0.2576,0.56317 0.35355,0.70711 0.13868,0.20801 0.4697,0.28779 0.53033,0.53033 0.0715,0.28583 -0.0932,0.60437 0,0.88388 0.0883,0.26503 0.41366,0.59219 0.53033,0.88388 0.36264,0.90659 0.53647,1.90198 0.88389,2.82843 0.10447,0.55949 0.49977,1.07264 0.7071,1.59099 0.13841,0.34602 0.18689,0.72733 0.35356,1.06066 0.0263,0.0527 0.13511,-0.0417 0.17677,0 0.15024,0.15023 0.25854,0.3403 0.35356,0.53033 0.27632,0.55264 0.0705,0.68566 0.53033,1.23744 0.13601,0.16321 0.3801,0.20332 0.53033,0.35355 0.0932,0.0932 0.11785,0.2357 0.17677,0.35355 0.17678,0.17678 0.33512,0.37416 0.53033,0.53033 0.19962,0.15969 0.53364,0.23791 0.70711,0.35356 0.45203,0.30135 0.79238,0.74911 1.23744,1.06066 0.94224,0.65957 1.89073,1.27476 2.82843,1.94454 0.5122,0.36586 0.23989,-0.0144 0.88388,0.35355 0.53288,0.30451 0.86754,0.78733 1.41421,1.06066 0.16667,0.0833 0.37529,0.0734 0.53033,0.17678 0.0799,0.0533 1.19208,2.19721 1.41422,2.47488 0.0368,0.046 0.11785,0 0.17677,0 0.0589,0.0589 0.13055,0.10743 0.17678,0.17677 0.14618,0.21927 0.20738,0.48784 0.35355,0.70711 0.13927,0.2089 0.42422,0.24744 0.53033,0.35355 0.45313,0.0497 0.065,0.38126 0.17678,0.53033 0.4288,0.57173 0.96676,1.03168 1.41421,1.59099 0.283,0.35375 1.06242,1.24095 1.23744,1.59099 0.0527,0.10541 -0.0833,0.27022 0,0.35356 0.0417,0.0417 0.12407,-0.0264 0.17678,0 0.31886,0.15943 1.81658,1.68863 1.94454,1.94454 0.0527,0.10541 -0.0527,0.24814 0,0.35355 0.0223,0.0446 0.48049,0.15421 0.53033,0.35356 0.0572,0.22866 -0.0745,0.4835 0,0.7071 0.54011,1.62034 0.14823,5.44604 -0.17678,7.07107 -0.29486,1.47434 -0.55908,1.02767 -0.7071,1.76777 -0.0123,0.0617 0.0741,0.73574 0,0.88388 -0.11267,0.22533 -0.45244,0.47343 -0.53033,0.70711 -0.25773,0.77319 -0.53033,2.48772 -0.53033,3.35876 0,0.65161 -0.16055,1.65591 0,2.29809 0.1231,0.49242 0.56228,0.93146 0.7071,1.41422 0.103,0.34331 0.099,0.71076 0.17678,1.06066 0.10389,0.46749 0.38405,0.79859 0.53033,1.23743 0.0707,0.21213 -0.0707,0.49498 0,0.70711 0.0186,0.0559 0.15042,-0.0527 0.17678,0 0.0527,0.10541 -0.0373,0.24175 0,0.35355 0.12413,0.3724 0.46355,0.59325 0.53033,1.06066 0.0816,0.57121 0.0374,1.21043 0.17677,1.76777 0.0143,0.0572 0.14409,-0.049 0.17678,0 0.0999,0.14983 0.35355,1.66836 -0.17677,1.67938 -0.94281,-0.38301 -1.34026,-0.65434 -1.76776,-0.61872 -0.54973,0.0458 -1.71643,1.0768 -2.12132,1.41422 -0.51871,0.43225 -1.27446,0.63782 -1.76777,1.06066 -0.2237,0.19174 -0.322,0.49877 -0.53033,0.7071 -0.24025,0.24025 -0.80623,0.49508 -1.06066,0.70711 -1.3839,1.15325 -2.55313,3.14722 -3.71231,4.59619 -0.20595,0.25744 -0.21171,0.60019 -0.35356,0.88389 -0.24847,0.49694 -0.66264,1.36975 -1.06066,1.76777 -0.0932,0.0932 -0.26038,0.0836 -0.35355,0.17677 -0.0417,0.0417 0.0417,0.13511 0,0.17678 -0.43825,0.43825 -0.4654,0.25134 -0.88388,0.53033 -0.0651,0.0434 -1.76108,1.58095 -1.76777,1.59099 -0.0731,0.10963 -0.0836,0.26038 -0.17678,0.35355 -0.17179,0.1718 -0.4898,0.0681 -0.7071,0.17678 -0.19878,0.0994 -0.32093,0.46053 -0.53033,0.53033 -0.11181,0.0373 -0.24175,-0.0373 -0.35356,0 -0.23717,0.0791 -0.32231,0.39165 -0.53033,0.53033 -1.2808,0.85386 -1.86837,1.48895 -2.47487,3.0052 -0.0902,0.22558 -0.0811,0.4838 -0.17678,0.70711 -0.0837,0.19528 -0.28637,0.32877 -0.35355,0.53033 -0.0559,0.16771 0.0347,0.35699 0,0.53033 -0.0517,0.25841 -0.30187,0.4487 -0.35355,0.70711 -0.15122,0.75607 0.2507,0.38248 -0.17678,1.23743 -0.0745,0.14907 -0.2611,0.21488 -0.35355,0.35356 -0.16343,0.24514 0.0325,0.59105 0,0.88388 -0.069,0.62059 -0.271,1.01308 -0.35356,1.59099 -0.0234,0.16361 0.0827,0.98941 0,1.23744 -0.0263,0.079 -0.15042,0.0977 -0.17677,0.17677 -0.0373,0.11181 0.0286,0.23923 0,0.35356 -0.11812,0.47247 -0.37528,0.94905 -0.53033,1.41421 -0.25706,0.77117 -0.1638,1.74181 -0.53033,2.47488 -0.0264,0.0527 -0.15043,-0.0527 -0.17678,0 -0.0527,0.1054 0.0373,0.24175 0,0.35355 -0.11129,0.33385 -0.50637,0.75956 -0.70711,1.06066 -0.0731,0.10963 -0.0714,0.2745 -0.17677,0.35355 -0.14908,0.11181 -0.36367,0.0935 -0.53034,0.17678 -1.07368,0.53684 -2.30577,0.89669 -3.53553,1.06066 -0.8198,0.10931 -1.66387,0.0146 -2.47487,0.17678 -0.42066,0.0841 -0.81679,0.26942 -1.23744,0.35355 -0.63494,0.12699 -1.31201,0.11635 -1.94454,0.35355 -0.2231,0.0837 -1.96766,0.94541 -2.12132,1.06066 -0.2,0.15 -0.33512,0.37416 -0.53033,0.53033 -0.14238,0.38016 -0.50496,0.042 -0.70711,0.17678 -0.64593,0.43062 0.18954,0.25878 -0.35355,0.53033 -0.0527,0.0264 -0.11786,0 -0.17678,0 -0.17678,0.11785 -0.36036,0.22608 -0.53033,0.35355 -0.27902,0.20927 -0.67996,0.85674 -0.70711,0.88389 -0.0932,0.0932 -0.26038,0.0836 -0.35355,0.17677 -0.6434,0.6434 0.18794,0.12421 -0.35355,0.53033 -0.16997,0.12748 -0.3801,0.20333 -0.53033,0.35356 -0.0932,0.0932 -0.0756,0.2692 -0.17678,0.35355 -0.26396,0.21996 -0.60901,0.32417 -0.88388,0.53033 -0.26667,0.2 -0.42976,0.52221 -0.70711,0.70711 -0.21927,0.14617 -0.50133,0.18893 -0.70711,0.35355 -0.6516,0.52128 -0.34693,0.52702 -1.06066,0.88388 -0.0527,0.0264 -0.13511,-0.0417 -0.17678,0 -0.15023,0.15024 -0.17677,0.41248 -0.35355,0.53033 -0.20215,0.13477 -0.48153,0.0865 -0.70711,0.17678 -0.38818,0.15527 -0.7243,0.48287 -1.06066,0.70711 -0.0981,0.0654 -0.25549,-0.0654 -0.35355,0 -0.20801,0.13867 -0.30672,0.41852 -0.53033,0.53033 -0.24598,0.12299 -0.49075,0.13719 -1.01939,0.0183 -0.49551,-0.33525 -0.39365,-0.36785 -0.62477,-0.46025 -0.11766,-0.0471 -0.2768,0.10713 -0.375,-0.0625 -0.2622,-0.11237 -0.50032,-0.36129 -0.75,-0.5 -0.18938,-0.10521 -0.45829,-0.17358 -0.625,-0.3125 -0.16685,-0.13904 -0.26526,-0.27166 -0.4375,-0.375 -0.54517,-0.3271 0.27448,0.34332 -0.4375,-0.25 -0.10681,-0.089 -0.19327,-0.241 -0.3125,-0.3125 -0.0799,-0.0479 -0.1742,-0.0709 -0.25,-0.125 -0.28904,-0.20646 -0.42954,-0.58977 -0.75,-0.75 -0.10363,-0.0518 -0.3392,-0.0959 -0.4375,-0.125 -1.42095,-0.42102 -1.27384,-0.38295 -2.5625,-0.8125 -0.3125,-0.10417 -0.64287,-0.16519 -0.9375,-0.3125 -0.14554,-0.0728 -0.23373,-0.2318 -0.375,-0.3125 -0.33351,-0.19058 -0.45653,-0.21522 -0.8125,-0.5 -0.18767,-0.15013 -0.16824,-0.29324 -0.3125,-0.4375 -0.2269,-0.2269 -0.58214,-0.33214 -0.8125,-0.5625 -0.0147,-0.0147 0.0147,-0.0478 0,-0.0625 -0.0531,-0.0531 -0.1344,-0.0719 -0.1875,-0.125 -0.11914,-0.11914 -0.16331,-0.22581 -0.3125,-0.375 -0.0779,-0.0779 -0.3314,-0.0753 -0.3125,-0.25 -0.0878,-0.10039 -0.1513,-0.2228 -0.25,-0.3125 -0.5898,-0.5362 -0.25017,-0.13763 -0.625,-0.4375 -0.12995,-0.10396 -0.23408,-0.2869 -0.375,-0.375 -0.11851,-0.0741 -0.26128,-0.1063 -0.375,-0.1875 -0.10855,-0.0775 -0.0172,-0.3321 -0.25,-0.3125 -0.0548,-0.0365 -0.1327,-0.026 -0.1875,-0.0625 -0.0735,-0.049 -0.1156,-0.1361 -0.1875,-0.1875 -0.4375,-0.3125 -0.0937,0 -0.375,-0.1875 -0.14912,-0.0994 -0.29167,-0.20833 -0.4375,-0.3125 -0.10417,-0.0417 -0.2144,-0.0705 -0.3125,-0.125 -0.5993,-0.33295 0.18906,-0.0617 -0.6875,-0.5 -0.095,-0.0475 -0.2144,-0.0216 -0.3125,-0.0625 -0.15504,-0.0646 -0.28727,-0.1749 -0.4375,-0.25 -0.53552,-0.26776 -1.06466,-0.53256 -1.46875,-0.75 0.0938,-1.03543 0.42195,-0.78138 0.84376,-1.625 z"
         id="path187" />
    </g>
  </g>
</svg>
