<?xml version="1.0" encoding="UTF-8" standalone="no"?>
<!-- Created with Inkscape (http://www.inkscape.org/) -->

<svg
   version="1.1"
   id="svg2"
   width="176.07014"
   height="117.51463"
   viewBox="0 0 176.07014 117.51463"
   xmlns="http://www.w3.org/2000/svg"
   xmlns:svg="http://www.w3.org/2000/svg">
  <defs
     id="defs6">
    <linearGradient
       id="swatch77">
      <stop
         style="stop-color:#e2c69e;stop-opacity:1;"
         offset="0"
         id="stop77" />
    </linearGradient>
  </defs>
  <g
     id="layer66"
     style="display:inline"
     transform="translate(-598.37223,-318.30165)">
    <g
       id="layer71"
       style="display:inline">
      <path
         style="display:inline;fill:#969696;fill-opacity:1;stroke:none;stroke-opacity:1"
         d="m 655.84154,432.04224 c -0.10541,-0.0527 -0.24175,0.0373 -0.35356,0 -0.33199,-0.11066 -1.12799,-0.38722 -1.41421,-0.53033 -0.14907,-0.0745 -0.20448,-0.27905 -0.35355,-0.35355 -1.05422,-0.52711 -2.41378,-0.91694 -3.53554,-1.23744 -0.74865,-0.21387 -1.67375,0.0235 -2.47487,-0.17677 -0.61642,-0.15411 -1.16602,-0.50653 -1.76777,-0.70711 -2.04347,-0.68116 0.61048,0.25708 -1.41421,-0.17678 -0.78368,-0.16793 -1.55395,-0.40945 -2.2981,-0.70711 -0.29169,-0.11667 -0.61885,-0.44203 -0.88388,-0.53033 -0.1118,-0.0373 -0.24175,0.0373 -0.35355,0 -0.27951,-0.0932 -0.43356,-0.4209 -0.70711,-0.53033 -0.24647,-0.0986 -2.02582,-0.25805 -2.12132,-0.35355 -0.0417,-0.0417 0.0417,-0.13508 0,-0.17678 -0.0833,-0.0833 -0.27026,0.0833 -0.35356,0 -0.0417,-0.0417 0.049,-0.14407 0,-0.17677 -0.4206,-0.28046 -0.98079,-0.20908 -1.41421,-0.35356 -0.20156,-0.0672 -0.32877,-0.28635 -0.53033,-0.35355 -0.21213,-0.0707 -0.49497,0.0707 -0.70711,0 -1.34046,-0.44682 -2.63902,-1.14273 -3.88908,-1.76777 -0.15812,-0.079 -0.37222,0.0791 -0.53033,0 -0.0423,-0.0211 -0.0954,-0.42159 -0.53033,-0.53033 -0.1715,-0.0429 -0.36263,0.0559 -0.53033,0 -0.35361,-0.11787 -0.92853,-0.32439 -1.23744,-0.53033 -0.13868,-0.0924 -0.20448,-0.27905 -0.35355,-0.35355 -0.0527,-0.0264 -0.13508,0.0417 -0.17678,0 -0.0932,-0.0932 -0.0671,-0.28045 -0.17678,-0.35355 -0.0981,-0.0654 -0.23922,0.0286 -0.35355,0 -0.43536,-0.10884 -0.82077,-0.36367 -1.23744,-0.53033 -0.68126,-0.27251 -1.26328,-0.61138 -1.94454,-0.88389 -0.35324,-0.14129 -1.10015,-0.29478 -1.41421,-0.53033 -0.2,-0.15 -0.33512,-0.37415 -0.53033,-0.53033 -0.61554,-0.49243 -1.43231,-0.60827 -2.12132,-0.88388 -0.44751,-0.179 -0.2596,-0.35133 -0.70711,-0.53033 -0.16413,-0.0657 -0.35699,0.0347 -0.53033,0 -0.38761,-0.0775 -0.69578,-0.3783 -1.06066,-0.53033 -0.47293,-0.19705 -1.5869,-0.48307 -2.12132,-0.88388 -0.13334,-0.1 -0.20448,-0.27906 -0.35356,-0.35356 -0.56012,-0.28006 -0.1645,0.36582 -0.7071,-0.17677 -0.24624,-0.24624 -0.75773,-0.92204 -0.88389,-1.23744 -0.15457,-0.3863 0.18668,-0.52044 -0.17677,-0.88388 -0.0932,-0.0932 -0.27446,-0.0714 -0.35356,-0.17678 -0.11177,-0.14907 -0.0935,-0.36366 -0.17677,-0.53033 -0.22504,-0.45008 -0.60877,-0.82476 -0.88389,-1.23744 -0.0853,-0.12801 -1.88824,-2.09312 -1.94454,-2.12132 -0.0527,-0.0264 -0.12778,0.0327 -0.17678,0 -0.13867,-0.0925 -0.26115,-0.21488 -0.35355,-0.35355 -0.0327,-0.049 0.0559,-0.15818 0,-0.17678 -0.1677,-0.0559 -0.37222,0.0791 -0.53033,0 -0.19003,-0.095 -0.18359,-0.40285 -0.35355,-0.53033 -0.41622,-0.31216 -0.81298,-0.60091 -1.23744,-0.88388 -0.19501,-0.13001 -0.32149,-0.42591 -0.53033,-0.53033 -0.16667,-0.0834 -0.36366,-0.0935 -0.53033,-0.17678 -0.48921,-0.2446 -0.70042,-0.70042 -1.06066,-1.06066 -0.37513,-0.37513 -1.03909,-0.50876 -1.41421,-0.88388 -0.20834,-0.20834 -0.322,-0.49878 -0.53033,-0.70711 -0.0932,-0.0932 -0.24815,-0.0977 -0.35356,-0.17678 -0.68733,-0.5155 -1.0977,-0.77838 -1.94454,-1.06066 -0.25,-0.0833 -0.44623,-0.31625 -0.88389,-0.44194 -0.0445,-0.0884 0.25846,-0.42861 0.35356,-0.61872 0.16499,-0.32998 -0.16499,-0.90745 0,-1.23743 0.0263,-0.0527 0.14408,0.049 0.17678,0 0.37071,-0.55607 -0.0269,-0.58539 0.17677,-1.06066 0.13535,-0.31581 0.37667,-0.57657 0.53033,-0.88389 0.0191,-0.0382 0.15418,-0.97026 0.17678,-1.06066 0.0832,-0.33275 -0.0832,-0.7279 0,-1.06066 0.032,-0.12782 0.14478,-0.22572 0.17678,-0.35355 0.0286,-0.11433 -0.0527,-0.24814 0,-0.35355 0.0263,-0.0527 0.15817,0.0559 0.17677,0 0.18948,-0.5684 -0.16804,-0.83952 0.17678,-1.41422 0.0858,-0.14291 0.27905,-0.20448 0.35355,-0.35355 0.17072,-0.34144 -0.0897,-1.0552 0,-1.41421 0.0202,-0.0809 0.15048,-0.0977 0.17678,-0.17678 0.10798,-0.32379 0.0442,-0.6629 0.17678,-1.06066 0.33423,-1.0027 -0.22879,-3.09871 0,-4.24264 0.0942,-0.47086 0.38402,-0.79852 0.53033,-1.23744 0.0373,-0.1118 -0.0373,-0.24175 0,-0.35355 0.0672,-0.20156 0.28635,-0.32878 0.35355,-0.53033 0.0373,-0.11181 -0.0527,-0.24815 0,-0.35356 0.0263,-0.0527 0.15038,0.0527 0.17678,0 0.10867,-0.2173 0.0866,-0.48152 0.17677,-0.7071 0.0916,-0.22892 0.45313,-0.47552 0.53033,-0.70711 0.0373,-0.1118 -0.0833,-0.27025 0,-0.35355 0.0833,-0.0833 0.25546,0.0654 0.35356,0 0.37962,-0.25309 0.0451,-0.44379 0.17677,-0.70711 0.36786,-0.7357 -0.0122,0.18898 0.35356,-0.17678 0.0833,-0.0833 -0.0527,-0.24814 0,-0.35355 0.0745,-0.14907 0.27905,-0.20448 0.35355,-0.35355 0.21768,-0.43543 -0.51314,0.15958 0.17678,-0.53033 0.0417,-0.0417 0.13507,0.0417 0.17677,0 0.0962,-0.0962 0.39727,-0.75082 0.53033,-0.88389 0.0417,-0.0417 0.12408,0.0264 0.17678,0 0.14907,-0.0745 0.20448,-0.27905 0.35355,-0.35355 0.10541,-0.0527 0.27026,0.0833 0.35356,0 0.0932,-0.0932 0.10367,-0.24392 0.17677,-0.35355 0.52892,-0.79338 1.69801,-1.2747 2.12132,-2.12132 0.34006,-0.68011 1.11081,-1.12753 1.59099,-1.76777 0.0791,-0.10541 0.0836,-0.26035 0.17678,-0.35355 0.66318,-0.66318 0.3259,-0.11185 0.88388,-0.53033 0.13334,-0.1 0.23571,-0.23571 0.35356,-0.35356 0,-0.0589 -0.0417,-0.13507 0,-0.17677 0.26516,-0.26517 0.79549,-0.26517 1.06066,-0.53033 0.0417,-0.0417 -0.0327,-0.12778 0,-0.17678 0.32771,-0.49157 0.84395,-0.41054 1.06066,-1.06066 0.26891,-0.80672 -0.17678,-3.57955 -0.17678,-4.41942 0,-0.25089 0.0456,-3.13638 0,-3.18198 -0.125,-0.125 -0.36262,0.0559 -0.53033,0 -0.45864,-0.15288 -0.76546,-0.76546 -1.06066,-1.06066 -0.26516,-0.26516 -0.79549,-0.26516 -1.06066,-0.53033 -0.24296,-0.24296 -0.33062,-0.60429 -0.53033,-0.88388 -0.22449,-0.31428 -0.71142,-0.53897 -0.88388,-0.88389 -0.0264,-0.0527 0.0417,-0.13507 0,-0.17677 -0.36576,-0.36576 0.0143,0.55892 -0.35356,-0.17678 -0.12197,-0.24384 0.21409,-0.15812 -0.17677,-0.35355 -0.16596,-0.083 -0.83919,-0.14328 -0.88389,-0.17678 -0.30374,-0.22781 -0.55577,-0.66514 -0.88388,-0.88388 -0.34942,-0.23298 -0.43296,-0.0397 -0.70711,-0.17678 -0.44989,-0.22495 -0.79968,-0.66501 -1.23743,-0.88388 -0.40747,-0.20374 -1.00195,-0.45975 -1.41422,-0.70711 -0.79472,-0.47683 -0.004,-0.18068 -0.53033,-0.70711 -0.2357,-0.23567 -0.16962,0.375 -0.35355,-0.17677 -0.0373,-0.11181 0.0654,-0.25546 0,-0.35356 -0.0731,-0.10967 -0.26035,-0.0836 -0.35355,-0.17677 -0.0417,-0.0417 0.0327,-0.12778 0,-0.17678 -0.0924,-0.13867 -0.26786,-0.21064 -0.35356,-0.35355 -0.21627,-0.36046 -0.29257,-0.70403 -0.53033,-1.06066 -0.23688,-0.35533 -0.74519,-0.6446 -0.88388,-1.06066 -0.0373,-0.11181 0.0373,-0.24175 0,-0.35356 -0.0527,-0.15811 -0.27905,-0.20448 -0.35355,-0.35355 -0.0834,-0.16667 -0.0935,-0.36366 -0.17678,-0.53033 -0.0745,-0.14907 -0.30085,-0.19544 -0.35355,-0.35355 -0.0877,-0.26307 -0.0547,-0.63974 -0.17678,-0.88389 -0.0263,-0.0527 -0.13508,0.0417 -0.17678,0 -0.16664,-0.16664 -0.44493,-1.33465 -0.53033,-1.59099 -0.0791,-0.23717 -0.39165,-0.32232 -0.53033,-0.53033 -0.11672,-0.17508 0.1465,-0.73738 0,-0.88388 -0.0417,-0.0417 -0.13507,0.0417 -0.17677,0 -0.13178,-0.13176 -0.0935,-0.36366 -0.17678,-0.53033 -0.12901,-0.25801 -0.44823,-0.63757 -0.53033,-0.88388 -0.0373,-0.11181 0.0527,-0.24815 0,-0.35356 -0.1118,-0.2236 -1.14439,0.85526 -0.53033,-0.53033 -0.0886,-0.22148 -0.10545,-1.55687 0,-1.76777 0.0263,-0.0527 0.13508,0.0417 0.17678,0 0.0417,-0.0417 -0.0264,-0.12407 0,-0.17677 0.0745,-0.14907 0.27905,-0.20448 0.35355,-0.35356 0.0527,-0.1054 -0.0833,-0.27025 0,-0.35355 0.0708,-0.0708 0.22464,-0.0957 0.35355,-0.35355 0.0527,-0.10541 -0.0527,-0.24815 0,-0.35356 0.26956,-0.53933 0.14014,0.32332 0.35356,-0.53033 0.18834,-0.75336 -0.0792,-0.19514 0.35355,-1.06066 0.0809,-0.16178 -0.11994,-0.58716 0,-0.7071 0.0417,-0.0417 0.15038,0.0527 0.17678,0 0.0652,-0.13036 0.29735,-1.18948 0.35355,-1.41422 0.12545,-0.50179 -0.22885,-1.31007 0,-1.76776 0.1025,-0.205 0.48763,-0.49358 0.53033,-0.70711 0.0693,-0.34669 -0.0857,-0.71766 0,-1.06066 0.21341,-0.85364 0.084,0.009 0.35355,-0.53033 0.095,-0.18996 -0.0682,-0.50258 0,-0.70711 0.24328,-0.72982 0.20059,-1.53325 0.35356,-2.29809 0.0515,-0.2574 0.45893,-0.70539 0.53033,-0.88389 0.0438,-0.10942 -0.0373,-0.24175 0,-0.35355 0.0915,-0.27459 0.42662,-0.57276 0.53033,-0.88388 0.0186,-0.0559 -0.0417,-0.13508 0,-0.17678 0.0417,-0.0417 0.15047,0.0527 0.17677,0 0.0997,-0.19938 0.0991,-0.65086 0.17678,-0.88388 0.0672,-0.20156 0.28635,-0.32878 0.35355,-0.53033 0.0559,-0.16771 -0.0791,-0.37222 0,-0.53033 0.25239,-0.50477 0.71695,-0.91341 0.88389,-1.41422 0.14601,-0.43804 0.10252,-0.97491 0.35355,-1.41421 0.14618,-0.25581 0.35355,-0.47141 0.17677,-0.53033 0.17678,0.0589 0.69716,-0.11991 1.23744,-0.17678 0.42176,-0.0444 6.15698,-0.18433 6.89429,0 0.0809,0.0202 0.10225,0.13951 0.17678,0.17678 0.18856,0.0943 0.51855,-0.0943 0.70711,0 0.2236,0.1118 0.41852,0.30672 0.53033,0.53033 0.0263,0.0527 -0.0527,0.15042 0,0.17678 0.10541,0.0527 0.24814,-0.0527 0.35355,0 0.0527,0.0263 -0.0263,0.12407 0,0.17677 0.36785,0.7357 -0.0122,-0.18898 0.35355,0.17678 0.0417,0.0417 -0.049,0.14409 0,0.17678 0.26403,0.17601 0.6148,0.18537 0.88389,0.35355 0.50791,0.31744 1.3352,0.97629 1.94454,1.23744 0.17755,0.0761 0.83875,0.0658 1.06066,0.17677 0.7357,0.36785 -0.18898,-0.0122 0.17678,0.35356 0.12896,0.12896 0.90294,0.25892 1.06066,0.35355 0.88388,0.53033 0,0.17678 0.53033,0.53033 0.50816,0.33877 0.94321,0.41288 1.41421,0.88388 0.0932,0.0932 0.0671,0.28047 0.17678,0.35356 0.0981,0.0654 0.24175,-0.0373 0.35355,0 0.35501,0.11833 0.0667,0.48694 0.17678,0.7071 0.0264,0.0527 0.13511,-0.0417 0.17678,0 0.41672,0.41672 0.0204,0.54663 0.88388,1.23744 0.27375,0.219 1.24828,0.54117 1.41421,0.70711 0.0932,0.0932 0.0696,0.27696 0.17678,0.35355 0.49367,0.35262 1.04836,0.61257 1.59099,0.88388 0.30431,0.15216 1.76196,0.52452 1.94454,0.70711 0.0417,0.0417 -0.0417,0.13511 0,0.17678 0.0932,0.0932 0.26039,0.0836 0.35356,0.17677 0.20258,0.20259 0.32774,0.6813 0.53033,0.88389 0.0417,0.0417 0.12407,-0.0264 0.17677,0 0.19003,0.095 0.3801,0.20332 0.53033,0.35355 0.0417,0.0417 -0.0417,0.13511 0,0.17678 0.14233,0.14232 0.66811,0.24566 0.88389,0.35355 0.2236,0.1118 0.30672,0.41853 0.53033,0.53033 0.35355,0.17678 0.26516,-0.0884 0.53033,0 0.46357,0.15452 0.38732,0.35355 0.88388,0.35355 0.43625,0 0.69024,0.23008 1.06066,0.35356 0.22361,0.0745 0.47844,-0.0572 0.70711,0 0.47779,0.11945 0.40609,0.0573 0.88388,0.17677 0.0808,0.0202 0.0959,0.15657 0.17678,0.17678 0.43373,0.10843 0.99092,-0.1411 1.41421,0 0.0791,0.0263 0.0977,0.15042 0.17678,0.17678 0.0255,0.009 0.83166,0.0522 0.88388,0 0.0417,-0.0417 -0.0417,-0.13511 0,-0.17678 0.0417,-0.0417 0.13511,0.0417 0.17678,0 0.33505,-0.33505 0.0705,-0.45874 0.17678,-0.88388 0.0545,-0.21781 0.44369,-0.44721 0.53033,-0.70711 0.0682,-0.20453 -0.095,-0.51715 0,-0.70711 0.12837,-0.25676 0.27204,-0.38109 0.35355,-0.7071 0.0286,-0.11434 -0.0606,-0.2525 0,-0.35356 -0.54529,-1.61206 0.54368,-0.28518 0.70711,-0.53033 0.10336,-0.15504 0.0809,-0.37054 0.17677,-0.53033 0.16693,-0.27822 0.77815,-0.56669 0.88389,-0.88388 0.0373,-0.1118 -0.0654,-0.2555 0,-0.35355 0.0731,-0.10964 0.26038,-0.0836 0.35355,-0.17678 0.13176,-0.13176 0.0734,-0.37529 0.17678,-0.53033 0.23604,-0.35406 0.6145,-0.59766 0.7071,-1.06066 0.0347,-0.17334 -0.0429,-0.35883 0,-0.53033 0.091,-0.36412 0.59147,-0.71373 0.70711,-1.06066 0.14897,-0.44693 0.0822,-3.39567 0,-3.88909 -0.0939,-0.56331 -0.36437,-1.80022 -0.53033,-2.2981 -0.18393,-0.55177 -0.11785,0.0589 -0.35355,-0.17677 -0.23827,-0.23827 -0.0549,-0.55781 -0.35356,-0.70711 -0.10541,-0.0527 -0.24814,0.0527 -0.35355,0 -0.51764,-0.25882 -1.14653,-0.17678 -2.2981,-0.61872 2.04586,-0.18509 3.54595,-2.34489 5.83363,-2.91681 0.93984,-0.23496 2.05162,0.17338 3.00521,0 0.42206,-0.0767 0.81678,-0.26943 1.23743,-0.35356 0.34669,-0.0693 0.71066,0.05 1.06066,0 2.14586,-0.30655 4.56379,-0.35895 6.71752,0 0.40029,0.0667 0.8397,-0.0795 1.23743,0 0.51454,0.10291 1.27554,0.33344 1.76777,0.53033 0.0774,0.031 0.0977,0.15043 0.17678,0.17678 0.42431,0.14144 0.2828,-0.14144 0.70711,0 0.15811,0.0527 0.20448,0.27902 0.35355,0.35355 0.22445,0.11223 0.64894,-0.0783 0.88388,0 0.23717,0.0791 0.30673,0.41853 0.53033,0.53033 0.10541,0.0527 0.23922,-0.0286 0.35356,0 0.49913,0.12479 0.91507,0.58233 1.41421,0.70711 0.22866,0.0572 0.4835,-0.0745 0.70711,0 0.079,0.0264 0.10224,0.13951 0.17677,0.17678 0.0273,0.0136 1.31478,0.17677 1.23742,0.17677 0.0305,0.20727 -0.19761,-0.0625 -0.0884,0.26517 0.16878,0.50525 0.0169,-0.53434 0.17678,0.26516 0.0347,0.17335 -0.0347,0.35699 0,0.53033 0.0298,0.14876 0.14697,0.2932 0.17677,0.44195 0.0398,0.19887 -0.0334,0.41857 0,0.61871 0.2667,1.60012 -0.0845,-1.10629 0.0884,0.7955 0.0638,0.70127 0.0895,1.42306 0.17678,2.12132 0.0628,0.50245 0.21916,0.99685 0.26516,1.5026 0.0267,0.29342 -0.0293,0.59072 0,0.88389 0.0299,0.29897 0.14358,0.58525 0.17678,0.88388 0.0688,0.61956 0.0494,1.2316 0.0884,1.85615 0.0187,0.29988 0.19448,0.58394 0.17678,0.88389 -0.0211,0.35781 -0.11793,0.70709 -0.17683,1.06064 0.23571,0 -0.0294,-0.0294 0.0884,0.0884 0.0531,0.053 0.19556,0.0723 0.26516,0.17677 0.0366,0.0548 0.0418,0.13018 0.0884,0.17678 0.0209,0.0208 0.0676,-0.0208 0.0884,0 0.33527,0.33527 0.0495,0.17089 0.26517,0.53033 0.0429,0.0715 0.13387,0.10528 0.17677,0.17678 0.54377,0.90628 -0.69906,-0.69638 0.35356,0.7071 0.32904,0.43874 0.72031,0.82191 0.97227,1.32583 0.15982,0.31964 0.28479,0.65797 0.44194,0.97227 0.0475,0.095 0.13728,0.16657 0.17678,0.26517 0.0219,0.0547 -0.0264,0.12407 0,0.17677 0.16083,0.32167 0.47705,0.55333 0.61871,0.88389 0.12117,0.28273 0.15475,0.59678 0.26517,0.88388 0.0381,0.0992 0.13498,0.16756 0.17678,0.26516 0.19163,0.44716 0.27093,0.9582 0.44194,1.41422 0.19433,0.51821 0.39,1.08781 0.61872,1.59099 0.29605,0.6512 0.0907,-0.21287 0.35355,0.7071 0.0162,0.0567 -0.0186,0.12088 0,0.17678 0.0466,0.13976 0.19926,0.22179 0.26516,0.35355 0.0834,0.16667 0.10108,0.36006 0.17678,0.53034 0.24727,0.55634 0.54646,1.17323 0.88388,1.67937 0.0462,0.0693 0.13388,0.10528 0.17678,0.17678 0.42965,0.71611 -0.48854,-0.34551 0.35355,0.70711 0.0184,0.023 0.0692,-0.0224 0.0884,0 0.16494,0.19243 0.29463,0.41248 0.44194,0.61872 0.0589,0.0884 0.10878,0.18356 0.17678,0.26516 0.08,0.096 0.19897,0.15917 0.26517,0.26517 0.15379,0.24606 0.20426,0.54667 0.35355,0.79549 0.10931,0.18218 0.25182,0.34381 0.35355,0.53033 0.076,0.13929 0.0816,0.31501 0.17678,0.44194 0.0884,0.11785 0.24939,0.161 0.35355,0.26517 0.27552,0.27551 0.23373,0.58727 0.44194,0.79549 0.10417,0.10417 0.26796,0.14529 0.35356,0.26517 0.0706,0.0989 0.0341,0.2449 0.0884,0.35355 0.11019,0.22038 0.42013,0.39834 0.53033,0.61872 0.0263,0.0527 -0.0264,0.12408 0,0.17678 0.10682,0.21364 0.40407,0.49668 0.53033,0.7071 0.22884,0.38141 0.39063,0.84644 0.61872,1.23744 0.44547,0.76368 0.94352,1.49527 1.32582,2.2981 0.13643,0.2865 0.20311,0.60449 0.35355,0.88388 0.13969,0.25941 0.54033,0.33284 0.53033,0.70711 0.14192,0.28382 0.19945,0.60649 0.35356,0.88388 0.252,0.45361 0.28176,0.22658 0.44194,0.70711 0.0186,0.0559 -0.0219,0.12207 0,0.17677 0.13728,0.34321 0.43436,0.64965 0.61872,0.97228 0.16448,0.28784 0.26215,0.70258 0.44194,0.97227 0.18675,0.28012 0.47102,0.47548 0.61872,0.79549 0.11713,0.25379 0.15506,0.53859 0.26516,0.7955 0.13535,0.31581 0.35986,0.58556 0.53033,0.88388 0.22738,0.39792 0.34528,0.92929 0.53033,1.32583 0.58669,1.25718 -0.006,-0.25033 0.44194,0.79549 0.1865,0.43515 0.33683,1.08212 0.44195,1.5026 0.0143,0.0572 -0.0186,0.12088 0,0.17678 0.0539,0.16168 0.90757,1.96823 0.97227,2.03293 0.0466,0.0466 0.12537,0.0472 0.17677,0.0884 0.0976,0.0781 0.16647,0.18847 0.26517,0.26517 1.48994,1.15884 2.52929,0.88388 4.24264,0.88388 0.21089,0 1.06185,0.0878 1.23744,0 0.52045,-0.26023 0.94395,-0.71944 1.32582,-1.14905 0.22878,-0.25738 1.07156,-1.58458 1.23744,-1.67938 0.10232,-0.0585 0.2357,0 0.35355,0 0.0589,0 0.12778,-0.0327 0.17678,0 0.54224,0.3615 0.93568,0.64157 1.5026,0.97227 0.31065,0.18122 0.5695,0.44407 0.88389,0.61872 0.38269,0.21261 0.80198,0.3295 1.14904,0.61872 0.29355,0.24463 0.40333,0.5083 0.61872,0.7955 0.51785,0.69046 1.13155,1.14838 1.19867,2.46657 -0.32537,0.63693 -0.69531,0.93522 -1.07537,1.22026 -0.98955,0.74216 -1.08522,0.78874 -2.375,1.375 -0.49312,0.22414 -0.98613,0.45371 -1.5,0.625 -0.2403,0.0801 -0.63424,0.12962 -0.875,0.25 -0.31382,0.15691 -0.92083,0.80832 -1,1.125 -0.12598,0.50391 0.33429,0.83572 0.5,1.25 0.0309,0.0774 -0.0462,0.18066 0,0.25 0.0517,0.0775 0.1941,0.0505 0.25,0.125 0.0791,0.10541 0.0572,0.26201 0.125,0.375 0.12749,0.21249 0.35906,0.41359 0.5,0.625 0.27822,0.41733 0.53689,0.94879 0.75,1.375 0.0957,0.19145 0.22275,0.0978 0.375,0.25 0.0295,0.0295 -0.0186,0.0877 0,0.125 0.10111,0.20221 0.34289,0.29644 0.5,0.375 0.40884,0.20442 0.78127,0.42188 1.25,0.5 0.1233,0.0206 0.25641,-0.0395 0.375,0 0.18932,0.0631 0.40386,0.33077 0.625,0.375 0.20429,0.0409 0.43351,-0.0821 0.625,0 0.20753,0.0889 1.15789,0.53289 1.375,0.75 0.0659,0.0659 0.0505,0.1941 0.125,0.25 0.10541,0.0791 0.26959,0.0459 0.375,0.125 0.0745,0.0559 0.0505,0.1941 0.125,0.25 0.10541,0.0791 0.26537,0.0519 0.375,0.125 0.14709,0.0981 0.22341,0.28405 0.375,0.375 0.0715,0.0429 0.17546,-0.0373 0.25,0 0.0373,0.0186 -0.0295,0.0955 0,0.125 0.0941,0.0941 0.55697,0.30697 0.625,0.375 0.0295,0.0295 -0.0186,0.0877 0,0.125 0.17329,0.34658 0.65915,0.55122 0.875,0.875 0.12852,0.19279 0.30901,0.68401 0.5,0.875 0.13176,0.13176 0.35685,0.13071 0.5,0.25 0.18107,0.15089 0.33333,0.33333 0.5,0.5 0.12868,0.12868 0.12132,0.24632 0.25,0.375 0.3036,0.3036 0.18355,-0.0372 0.375,0.25 0.0659,0.0989 0.34417,0.59418 0.375,0.625 0.0825,0.0825 0.40079,0.17659 0.5,0.375 0.19188,0.38376 0.93178,1.23407 1.375,1.5 0.11298,0.0678 0.26201,0.0572 0.375,0.125 0.31036,0.0125 0.20165,0.38444 0.375,0.5 0.0693,0.0462 0.1678,-0.0137 0.25,0 0.16946,0.0282 0.33702,0.0707 0.5,0.125 0.21152,0.0705 1.14465,0.74332 1.25,0.875 0.1164,0.14551 0.1356,0.35291 0.25,0.5 0.32559,0.41862 0.8068,0.70073 1.125,1.125 0.1118,0.14907 0.13819,0.35093 0.25,0.5 0.14142,0.18856 0.34661,0.32104 0.5,0.5 0.0978,0.11406 0.14377,0.26877 0.25,0.375 0.0858,0.0858 0.57001,0.41751 0.625,0.5 0.0462,0.0693 -0.0462,0.18066 0,0.25 0.0517,0.0775 0.18412,0.0591 0.25,0.125 0.0932,0.0932 0.0318,0.28183 0.125,0.375 0.0833,0.0417 0.16666,0.0833 0.25,0.125 0,0.0417 -0.0295,0.0955 0,0.125 0.0295,0.0295 0.0955,-0.0295 0.125,0 0.0659,0.0659 0.0591,0.18412 0.125,0.25 0.58293,0.58293 0.14789,0.091 0.625,0.25 0.1677,0.0559 0.22791,0.27694 0.375,0.375 0.0693,0.0462 0.19107,-0.0589 0.25,0 0.0295,0.0295 -0.0295,0.0955 0,0.125 0.1556,0.1556 0.72617,0.0952 0.875,0.125 0.0578,0.0116 0.0723,0.0987 0.125,0.125 1.72163,0.86081 -0.77775,-0.6435 1.5,0.875 0.28382,0.18922 0.76033,0.26033 1,0.5 0.0295,0.0295 -0.0295,0.0955 0,0.125 0.18479,0.1848 1.42518,-0.1834 1.625,-0.25 0.0395,-0.0132 0.0833,0 0.125,0 0.125,-0.0417 0.25715,-0.0661 0.375,-0.125 0.21491,-0.10746 0.22563,-0.30641 0.5,-0.375 0.15085,-0.0377 0.49644,0.0857 0.625,0 0.0981,-0.0654 0.14459,-0.1973 0.25,-0.25 0.0745,-0.0373 0.17094,0.0263 0.25,0 0.38503,-0.12834 0.66468,-0.55953 0.875,-0.875 0.12494,-0.18741 0.40006,-0.30012 0.5,-0.5 0.0373,-0.0745 -0.0309,-0.17263 0,-0.25 0.11404,-0.2851 0.31449,-0.44748 0.375,-0.75 0.0245,-0.12257 -0.0303,-0.25373 0,-0.375 0.0286,-0.11433 0.19729,-0.14459 0.25,-0.25 0.10633,-0.21266 -0.12127,-0.25373 0.125,-0.5 0.0295,-0.0295 0.0955,0.0295 0.125,0 0.0659,-0.0659 0.0591,-0.18412 0.125,-0.25 0.0295,-0.0295 0.10189,0.0347 0.125,0 0.0731,-0.10963 0.0519,-0.26537 0.125,-0.375 0.0231,-0.0347 0.0877,0.0186 0.125,0 0.2409,-0.12045 0.40307,-0.47705 0.625,-0.625 0.0693,-0.0462 0.17094,0.0263 0.25,0 0.90543,-0.30181 -0.19708,0.036 0.375,-0.25 0.11997,-0.06 0.37996,0.04 0.5,0 0.30672,-0.10224 0.50203,-0.28176 0.875,-0.375 0.18934,-0.0473 0.4407,0.0369 0.625,0 0.50301,-0.1006 0.0574,-0.0912 0.375,-0.25 0.25204,-0.12602 0.54252,-0.0213 0.75,-0.125 0.0527,-0.0263 0.0678,-0.11071 0.125,-0.125 0.20211,-0.0505 0.42289,0.0505 0.625,0 0.92841,-0.2321 1.90681,-0.46364 2.875,-0.625 0.77777,-0.12963 1.75432,0.0241 2.5,-0.125 0.37962,-0.0759 0.7438,-0.18647 1.125,-0.25 0.46868,-0.0781 1.02112,0 1.5,0 h 3.75 c 1.01086,0 2.12875,-0.14232 3.125,0 0.34014,0.0486 0.65906,0.20738 1,0.25 0.42369,0.053 0.97345,-0.13385 1.375,0 0.0559,0.0186 0.0691,0.10637 0.125,0.125 0.0791,0.0263 0.17094,-0.0263 0.25,0 0.35397,0.11799 0.49236,0.30248 1,0.375 0.27208,0.0389 0.88048,0.0272 1.125,0.125 0.2801,0.11204 0.56204,0.33029 0.875,0.375 0.28873,0.0412 0.59204,-0.0707 0.875,0 0.0572,0.0143 0.0691,0.10637 0.125,0.125 0.0791,0.0263 0.17094,-0.0263 0.25,0 0.31349,0.1045 0.66098,0.38699 1,0.5 0.0791,0.0263 0.19107,-0.0589 0.25,0 0.28019,0.28019 0.4248,0.5061 0.75,0.75 0.14907,0.1118 0.35093,0.1382 0.5,0.25 0.0943,0.0707 0.15194,0.18463 0.25,0.25 0.0347,0.0231 0.0955,-0.0295 0.125,0 0.15225,0.15225 0.0585,0.27928 0.25,0.375 0.26714,0.13357 0.48637,0.30228 0.75,0.5 0.43675,0.32756 0.0565,-0.0229 0.5,0.125 0.1118,0.0373 0.13444,0.22689 0.25,0.25 0.16343,0.0327 0.33657,-0.0327 0.5,0 0.0578,0.0116 0.0703,0.10311 0.125,0.125 0.3231,0.12924 0.69111,0.14704 1,0.25 0.0559,0.0186 0.0833,0.0833 0.125,0.125 0.0833,0.0417 0.15961,0.1024 0.25,0.125 0.12832,0.0321 0.40382,0.0288 0.5,0.125 0.10444,0.10444 0.0612,0.49913 0.25,0.625 0.0693,0.0462 0.17546,-0.0373 0.25,0 0.41755,0.20878 0.15163,0.3299 0.25,0.625 0.0733,0.21999 0.31028,0.43084 0.375,0.625 0.0999,0.29974 -0.0999,0.20026 0,0.5 0.0373,0.1118 0.19729,0.14459 0.25,0.25 0.0525,0.10505 0.0524,0.42735 0.125,0.5 0.0224,0.0224 0.43737,0.22912 0.5,0.25 0.0791,0.0263 0.18066,-0.0462 0.25,0 0.0775,0.0517 0.0591,0.18412 0.125,0.25 0.0635,0.0635 0.55329,-0.0179 0.625,0 0.0904,0.0226 0.16161,0.0955 0.25,0.125 0.675,0.225 1.575,-0.225 2.25,0 0.0559,0.0186 0.0723,0.0987 0.125,0.125 0.19371,0.0969 0.56904,0.0345 0.75,0.125 0.0373,0.0186 -0.0373,0.10637 0,0.125 0.13215,0.0661 0.36001,0.055 0.5,0.125 0.14056,0.0703 0.22693,0.32564 0.375,0.375 0.0791,0.0263 0.17094,-0.0263 0.25,0 0.31437,0.10479 0.71055,0.48028 1,0.625 0.25564,0.12782 -0.004,0.172 0.25,0.375 0.1252,0.10016 1.03856,0.53856 1.125,0.625 0.0659,0.0659 0.0505,0.1941 0.125,0.25 0.10541,0.0791 0.26959,0.0459 0.375,0.125 0.0745,0.0559 0.0591,0.18412 0.125,0.25 0.28339,0.28339 0.27522,-0.0746 0.5,0.375 0.0373,0.0745 -0.0589,0.19107 0,0.25 0.0589,0.0589 0.18066,-0.0462 0.25,0 0.11553,0.077 0.32977,0.61432 0.375,0.75 0.16045,0.48136 0,1.34305 -0.125,1.5625 -0.125,0.25439 -0.81732,0.0625 -1.25,0.0625 -1.02886,0 -1.9918,-0.10597 -3,-0.25 -0.32321,-0.0462 -0.68009,0.064 -1,0 -0.79302,-0.1586 -1.58005,-0.34101 -2.375,-0.5 -0.60252,-0.12051 -1.26467,-0.14828 -1.875,-0.25 -0.22594,-0.0377 -0.52263,0.0568 -0.75,0 -0.61912,-0.15478 -1.2362,-0.4087 -1.875,-0.5 -0.20624,-0.0295 -0.4195,0.0342 -0.625,0 -0.58082,-0.0968 -1.16586,-0.3101 -1.75,-0.375 -0.20706,-0.023 -0.41794,0.023 -0.625,0 -0.71897,-0.0799 -1.40702,-0.2853 -2.125,-0.375 -0.16538,-0.0207 -0.3356,0.0274 -0.5,0 -0.18381,-0.0306 -0.31554,-0.2237 -0.5,-0.25 -0.20624,-0.0295 -0.41794,0.023 -0.625,0 -0.44621,-0.0496 -1.1663,-0.39989 -1.5,-0.5 -0.26627,-0.0799 -0.61174,0.0878 -0.875,0 -0.26517,-0.0884 -0.47884,-0.3072 -0.75,-0.375 -0.16169,-0.0404 -0.33831,0.0404 -0.5,0 -0.0904,-0.0226 -0.1667,-0.0833 -0.25,-0.125 -0.0417,-0.0417 -0.0691,-0.1064 -0.125,-0.125 -0.8428,-0.28092 0.69869,0.59934 -0.75,-0.125 -0.10541,-0.0527 -0.14895,-0.1894 -0.25,-0.25 -0.40646,-0.24387 -0.93644,-0.39036 -1.375,-0.5 -0.27437,-0.0686 -0.28509,-0.26755 -0.5,-0.375 -0.11785,-0.0589 -0.312,0.15039 -0.375,-0.125 -0.14709,-0.0981 -0.20583,-0.3039 -0.375,-0.375 -0.29466,-0.19644 -0.6972,-0.36546 -1,-0.625 -0.2237,-0.19174 -0.37986,-0.46157 -0.625,-0.625 -0.14228,-0.0949 -0.33572,-0.0702 -0.5,-0.125 -0.14252,-0.0475 -0.14876,-0.3253 -0.375,-0.25 -0.0809,-0.0202 -0.1726,0.031 -0.25,0 -1.01839,-0.4074 0.23565,-0.12859 -0.75,-0.375 -0.37489,-0.0937 -2.47242,-0.0694 -2.75,0 -0.88897,0.22224 -1.55964,0.77556 -2.375,1.125 -0.15791,0.0677 -0.34983,0.0416 -0.5,0.125 -0.14207,0.0789 -0.9157,0.77035 -1.125,0.875 -1.04057,0.52028 -2.05301,0.74367 -3,1.375 -0.16632,0.11088 -0.25781,0.38281 -0.375,0.5 -0.0659,0.0659 -0.1725,0.0733 -0.25,0.125 -0.36402,0.24268 -0.84574,0.78988 -1.125,1.125 -0.55728,0.66873 -1.07919,1.41304 -1.75,2 -0.24795,0.21695 -0.67451,0.44926 -0.875,0.75 -0.12144,0.18216 -0.078,0.26036 -0.25,0.375 -0.15505,0.10336 -0.36824,0.11824 -0.5,0.25 -0.38583,0.38583 -0.61853,0.99353 -1,1.375 -0.2096,0.2096 -0.39152,0.1722 -0.625,0.25 -0.14957,0.0498 -0.8211,1.58832 -0.875,1.75 -0.1408,0.4224 0,1.31756 0,1.75 0,0.39935 -0.12214,1.7586 0,2.125 0.0373,0.1118 0.1973,0.14459 0.25,0.25 0.0768,0.15366 0.0612,0.34049 0.125,0.5 0.13841,0.34602 0.3151,0.67642 0.5,1 0.97354,1.7037 2.63852,2.96026 3.75,4.75 -0.007,0 -0.24707,0.62302 -2.5,2.125 -1.61683,1.07788 -3.3502,2.20134 -5.125,3 -0.52924,0.23815 -1.10103,0.37549 -1.625,0.625 -1.09531,0.52157 -2.04988,1.29769 -3.25,1.625 -0.24452,0.0667 -0.50412,0.0635 -0.75,0.125 -0.47314,0.11828 -0.89678,0.4044 -1.375,0.5 -0.20429,0.0409 -0.41876,-0.0295 -0.625,0 -1.11433,0.15919 -1.83903,0.3964 -2.875,0.5 -0.54057,0.0541 -1.08546,0.0615 -1.625,0.125 -0.17062,0.0201 -0.32864,0.1128 -0.5,0.125 -0.41561,0.0297 -0.83426,-0.0277 -1.25,0 -0.83078,0.0554 -1.6707,0.2921 -2.5,0.375 -0.2073,0.0207 -0.4195,-0.0342 -0.625,0 -0.46861,0.0781 -0.93834,0.18786 -1.375,0.375 -0.13809,0.0592 -0.23434,0.1972 -0.375,0.25 -0.39787,0.1492 -0.83943,0.14051 -1.25,0.25 -0.79098,0.21093 -1.58788,0.40011 -2.375,0.625 -0.61416,0.17547 -1.51555,0.5379 -2.125,0.625 -0.12375,0.0177 -0.25373,-0.0303 -0.375,0 -0.21768,0.0544 -0.40732,0.1956 -0.625,0.25 -0.3907,0.0977 -0.85964,0.0383 -1.25,0.125 -0.21904,0.0487 -0.40498,0.206 -0.625,0.25 -1.50608,0.30121 -3.2405,0.125 -4.75,0.125 H 684 674.875 c -1.64425,0 -3.35957,0.14913 -5,0 -0.33455,-0.0304 -0.66667,-0.0833 -1,-0.125 -0.125,-0.0417 -0.24389,-0.1119 -0.375,-0.125 -5.3162,-0.53162 -3.79988,0.20804 -11,-2 -0.663,-0.20332 -1.16667,-0.75 -1.26229,-1.02622 -0.0255,0.0988 0.0128,-0.22706 -0.39617,-0.43154 z"
         id="path110" />
    </g>
  </g>
</svg>
