<?xml version="1.0" encoding="UTF-8" standalone="no"?>
<!-- Created with Inkscape (http://www.inkscape.org/) -->

<svg
   version="1.1"
   id="svg1"
   width="176.375"
   height="118.375"
   viewBox="0 0 176.375 118.375"
   xmlns="http://www.w3.org/2000/svg"
   xmlns:svg="http://www.w3.org/2000/svg">
  <defs
     id="defs1" />
  <g
     id="layer1"
     style="display:inline"
     transform="translate(-598.25,-317.625)">
    <g
       id="layer40"
       style="display:inline;fill:#ffffff;fill-opacity:1;stroke:none">
      <path
         style="fill:#ffffff;fill-opacity:1;stroke:none;stroke-linecap:round"
         d="m 604.3125,325.8125 9.625,-0.125 9.8125,6.4375 4.875,1.125 2.3125,3.3125 4.75,2.625 3.0625,-0.625 5,-12.125 -4.3125,-5 13.25,-3.8125 15.125,2.875 v 11.1875 l 3.625,4.9375 0.75,4.75 3,5.6875 2.5,0.5 0.5625,1.875 2.3125,2.375 5.125,16.0625 3.8125,4.4375 5.125,-0.0625 4.0625,-2.8125 4.625,5.25 -6.1875,3.875 -0.25,4.375 7.375,2.5625 13.5,13.8125 4.75,2.625 5.3125,-2.75 3,-4.3125 18.625,-1.0625 1.6875,1.0625 3,-0.375 9.3125,4.625 1.375,2.625 6.25,2.25 3.5625,4.4375 -2.75,1.6875 -23.75,-5.3125 -5.6875,-4 -6.0625,2.375 -7.5625,6.9375 -0.9375,4.6875 0.6875,5.4375 2,2.5 -0.375,1.9375 L 699.75,436 672,435 l -40.8125,-10.125 -16.8125,-10.25 -15.6875,-11.4375 3.0625,-5.75 3.6875,-15.3125 3.5625,-0.8125 6.0625,-6.5625 0.4375,-4.875 -2,-5.3125 -3.6875,-3.9375 -1.75,-1 -8.5,-9.5625 -1.3125,-6.375 3.625,-2.6875 z"
         id="path37" />
    </g>
  </g>
</svg>
