<?xml version="1.0" encoding="UTF-8" standalone="no"?>
<!-- Created with Inkscape (http://www.inkscape.org/) -->

<svg
   version="1.1"
   id="svg2"
   width="111.37354"
   height="68.24691"
   viewBox="0 0 111.37354 68.24691"
   xmlns="http://www.w3.org/2000/svg"
   xmlns:svg="http://www.w3.org/2000/svg">
  <defs
     id="defs6">
    <linearGradient
       id="swatch77">
      <stop
         style="stop-color:#e2c69e;stop-opacity:1;"
         offset="0"
         id="stop77" />
    </linearGradient>
  </defs>
  <g
     id="layer66"
     style="display:inline"
     transform="translate(-960.24274,-361.0625)">
    <g
       id="layer76"
       style="display:inline">
      <path
         style="fill:#969696;fill-opacity:1;stroke:none;stroke-opacity:1"
         d="m 981.125,412.5 c -0.45742,-0.22871 -0.68665,-0.23065 -1.25,-0.625 -0.47281,-0.33097 -0.89458,-0.80472 -1.375,-1.125 -0.2076,-0.1384 -0.65054,-0.22536 -0.875,-0.375 -0.0347,-0.0231 0.0347,-0.1019 0,-0.125 -0.10963,-0.0731 -0.2818,-0.0318 -0.375,-0.125 -0.0589,-0.0589 0.0589,-0.1911 0,-0.25 -0.0589,-0.0589 -0.1807,0.0462 -0.25,0 -0.16881,-0.11254 -0.56819,-0.89774 -0.75,-1.125 -0.3678,-0.45975 -0.77141,-0.90354 -1.125,-1.375 -0.22,-0.29333 -0.28,-0.70667 -0.5,-1 -0.025,-0.0333 -0.0983,0.032 -0.125,0 -1.39408,-1.67289 -0.10442,-0.21912 -0.625,-1 -0.25223,-0.37834 -0.65242,-0.73547 -0.875,-1.125 -0.0413,-0.0723 0,-0.1667 0,-0.25 -0.16667,-0.25 -0.33334,-0.5 -0.5,-0.75 -0.15075,-0.22612 -0.52392,-0.6223 -0.625,-0.875 -0.0309,-0.0774 0.0263,-0.1709 0,-0.25 -0.10626,-0.31878 -0.51692,-0.67574 -0.625,-1 -0.0672,-0.20156 -0.0461,-0.42774 -0.125,-0.625 -0.0438,-0.10942 -0.49634,0.28194 -0.25,-0.25 -0.077,-0.2309 0.19074,-0.0593 -0.125,-0.375 -0.0295,-0.0295 -0.0877,0.0186 -0.125,0 -0.52022,-0.2601 0.13363,0.009 -0.125,-0.25 -0.259,-0.25863 0.0101,0.39522 -0.25,-0.125 -0.0373,-0.0745 0.0589,-0.1911 0,-0.25 -0.10623,-0.10623 -0.2849,-0.12982 -0.375,-0.25 -0.05,-0.0667 0.0373,-0.1755 0,-0.25 -0.0527,-0.10541 -0.1793,-0.1557 -0.25,-0.25 -0.1879,-0.25046 -0.1821,-0.47824 -0.25,-0.75 -0.0151,-0.0603 -0.4673,-0.8423 -0.5,-0.875 -0.0295,-0.0295 -0.0955,0.0295 -0.125,0 -0.0295,-0.0295 0.0295,-0.0955 0,-0.125 -0.0515,-0.0515 -0.2917,-0.0972 -0.375,-0.125 -0.0763,-0.0254 -0.2987,-0.2246 -0.375,-0.25 -0.27951,-0.0932 -0.59549,-0.0318 -0.875,-0.125 -0.0559,-0.0186 -0.0678,-0.1107 -0.125,-0.125 -1.03155,-0.258 -1.96596,-0.25 -3,-0.25 -0.45834,0 -0.92557,0.0899 -1.375,0 -0.18201,-0.0364 -0.49879,-0.3245 -0.625,-0.375 -0.0774,-0.031 -0.1755,0.0373 -0.25,0 -0.0142,-0.007 0,-1.55249 0,-2.125 0,-0.56881 0.0549,-1.2102 -0.125,-1.75 -0.0785,-0.23538 -0.2886,-0.49095 -0.375,-0.75 -0.20874,-0.6262 -0.2844,-1.24083 -0.375,-1.875 -0.0798,-0.55841 -0.34641,-1.08741 -0.5,-1.625 -0.2436,-0.85258 -0.0794,-1.74881 -0.0625,-2.4375 0.45786,-0.20786 0.698,-0.0695 1.0625,-0.3125 0.0347,-0.0231 -0.0373,-0.1064 0,-0.125 0.20059,-0.1003 2.98134,0 3.125,0 h 4.625 c 0.763,0 1.61388,-0.0951 2.375,0 0.21166,0.0265 1.08433,0.2027 1.25,0.25 0.45493,0.12998 0.89835,0.4206 1.375,0.5 0.1233,0.0206 0.25481,-0.0343 0.375,0 0.50419,0.14405 0.40359,0.3077 0.875,0.375 1.04711,0.14959 2.05431,0.2926 3.125,0.375 1.76592,0.13584 3.60352,0 5.375,0 h 3.375 c 0.4545,0 1.05213,0.0746 1.5,0 0.0919,-0.0153 0.1596,-0.1024 0.25,-0.125 0.68838,-0.1721 1.19137,-0.19137 1.75,-0.75 0.0295,-0.0295 -0.0295,-0.0955 0,-0.125 0.0659,-0.0659 0.1941,-0.0505 0.25,-0.125 0.1715,-0.22867 0.2035,-0.64633 0.375,-0.875 0.0559,-0.0745 0.1841,-0.0591 0.25,-0.125 0.0742,-0.0742 0.4252,-1.65056 0.5,-1.875 0.13236,-0.39709 0.61481,-1.09442 0.75,-1.5 0.0616,-0.18474 0.0502,-0.43797 0.125,-0.625 0.1038,-0.25952 0.3072,-0.47884 0.375,-0.75 0.0202,-0.0808 -0.0263,-0.1709 0,-0.25 0.12268,-0.36805 0.63417,-0.50917 0.875,-0.75 0.0659,-0.0659 0.0591,-0.1841 0.125,-0.25 0.16674,-0.1667 0.33326,-0.0833 0.5,-0.25 0.0295,-0.0295 -0.0295,-0.0955 0,-0.125 0.37406,-0.37407 1.36878,-1.08126 1.875,-1.25 0.30557,-0.10186 0.69114,-0.0956 1,-0.25 0.0373,-0.0186 -0.0404,-0.1149 0,-0.125 0.16169,-0.0404 0.33501,0.0236 0.5,0 0.13043,-0.0186 0.24579,-0.0992 0.375,-0.125 0.56077,-0.11216 1.18566,0.0941 1.75,0 0.2599,-0.0433 0.4966,-0.1776 0.75,-0.25 0.7465,-0.2133 1.4222,-0.34389 2.125,-0.625 0.2187,-0.0875 0.5336,-0.0529 0.75,-0.125 0.1118,-0.0373 0.152,-0.1846 0.25,-0.25 0.7356,-0.49037 1.2009,-1.18857 1.75,-1.875 0.2867,-0.35838 0.6839,-0.55892 1,-0.875 0.304,-0.30396 0.4987,-0.74912 0.875,-1 0.035,-0.0231 0.096,0.0295 0.125,0 0.3278,-0.32784 0.5001,-0.75017 0.75,-1.125 0.1755,-0.26331 0.4495,-0.48669 0.625,-0.75 0.052,-0.0775 0.059,-0.1841 0.125,-0.25 0.2016,-0.20163 0.84,-0.13192 0.75,-0.625 0.2358,-0.31447 0.2582,-0.7667 0.625,-1 0.5722,-0.7153 1.407,-1.21147 2.125,-1.75 0.1852,-0.13889 0.4514,-0.52083 0.625,-0.625 0.022,-0.0134 0.8524,-0.0758 1,-0.125 0.076,-0.0254 0.299,-0.2246 0.375,-0.25 0.1186,-0.0395 0.2632,0.0559 0.375,0 0.2667,-0.13333 -0.048,-0.1896 0.375,-0.25 0.2475,-0.0354 0.5128,0.0791 0.75,0 0.1768,-0.0589 0.3192,-0.2048 0.5,-0.25 0.7497,-0.18744 2.0596,0.0815 2.875,0 0.3754,-0.0375 0.7496,-0.0875 1.125,-0.125 0.6973,-0.0697 1.4314,0.0991 2.125,0 0.3003,-0.0429 0.5726,-0.2267 0.875,-0.25 0.4154,-0.032 0.8333,0 1.25,0 0.25,-0.0417 0.4978,-0.0998 0.75,-0.125 1.6162,-0.1616 3.2538,0.0551 4.875,-0.125 0.3722,-0.0414 0.8959,0.11804 1.25,0 0.1425,-0.0475 0.2325,-0.2025 0.375,-0.25 0.6961,-0.23203 1.7691,0.18271 2.5,0 0.2343,-0.0586 0.4719,-0.36656 0.75,-0.25 0.7703,-0.12838 1.6047,0.12838 2.375,0 0.6664,-0.11107 1.3141,-0.3127 2,-0.375 0.8311,-0.0756 1.6703,-0.167 2.5,-0.25 0.2073,-0.0207 0.42,0.0373 0.625,0 0.2593,-0.0471 0.4943,-0.1861 0.75,-0.25 0.2021,-0.0505 0.4195,0.0342 0.625,0 0.13,-0.0217 0.25,-0.0833 0.375,-0.125 0.042,-0.0417 0.067,-0.1134 0.125,-0.125 1.8343,-0.367 -1.7457,0.84213 1.5625,-0.4375 0.062,0.20362 0.7468,0.49682 0.9375,0.6875 0.03,0.0295 -0.04,0.1118 0,0.125 0.1186,0.0395 0.2564,-0.0395 0.375,0 0.04,0.0132 -0.019,0.0877 0,0.125 0.053,0.10541 0.1406,0.2062 0.25,0.25 0.1595,0.0638 0.3626,0.0219 0.5,0.125 0.067,0.05 -0.059,0.1911 0,0.25 0.5561,0.5561 0.5654,0.36424 1,0.625 0.3631,0.21783 0.659,0.52265 1,0.75 0.078,0.0517 0.167,0.0833 0.25,0.125 0.042,0 0.088,-0.0186 0.125,0 0.4243,0.21214 0.8341,0.54205 1.25,0.75 0.2121,0.10603 0.5349,0.21365 0.75,0.375 0.2569,0.19268 0.4834,0.32225 0.75,0.5 0.4717,0.31449 0.808,0.89644 1.25,1.25 0.033,0.026 0.09,-0.0231 0.125,0 0.07,0.0469 0.685,0.56 0.75,0.625 0.066,0.0659 0.051,0.1941 0.125,0.25 0.1054,0.0791 0.2654,0.0519 0.375,0.125 0.069,0.0462 -0.059,0.1911 0,0.25 1.3978,1.39779 -0.4734,-0.8351 0.5,0.625 0.023,0.0347 0.102,-0.0347 0.125,0 0.1427,0.21404 0.721,1.1921 0.875,1.5 0.1469,0.29377 0.1137,0.80695 0.25,1.125 0.059,0.13808 0.194,0.23551 0.25,0.375 0.1258,0.31442 0.075,0.77847 0.125,1.125 0.16,1.1232 0.125,2.23604 0.125,3.375 v 3.125 c 0,0.4384 0.1049,0.95536 0,1.375 -0.067,0.26914 -0.192,0.46117 -0.25,0.75 -0.087,0.43679 0.1079,0.94344 0,1.375 -0.032,0.12783 -0.099,0.2458 -0.125,0.375 -0.1344,0.67181 0.075,1.44693 0,2.125 -0.061,0.5525 -0.302,1.07397 -0.375,1.625 -0.027,0.2065 0.021,0.4177 0,0.625 -0.15,1.50347 -0.25,2.97857 -0.25,4.5 0,0.3582 -0.1281,1.42968 0,1.75 0.015,0.0381 0.464,0.9637 0.5,1 0.093,0.0932 0.365,-0.22697 0.375,0.125 0.066,0.0659 0.059,0.1841 0.125,0.25 0.03,0.0295 0.092,-0.025 0.125,0 0.4486,0.33648 0.8014,0.78858 1.25,1.125 0.1616,0.12118 0.5961,0.34614 0.75,0.5 0.1062,0.10623 0.1438,0.26877 0.25,0.375 0.059,0.0589 0.181,-0.0462 0.25,0 0.669,0.4458 -0.2975,0.11311 0.75,0.375 0.3024,0.15118 0.4138,0.53877 0.625,0.75 0.066,0.0659 0.184,0.0591 0.25,0.125 0.062,0.0622 0.479,1.00037 0.5,1.125 0.036,0.21819 -0.1068,0.78633 0,1 0.052,0.10339 0.564,1.06672 0.625,1.25 0.04,0.11858 -0.046,0.25894 0,0.375 0.1313,0.32837 1.3974,1.44872 1.75,1.625 0.083,0.0417 0.389,-0.1118 0.375,0.125 0.094,0.0707 0.1446,0.1973 0.25,0.25 0.1537,0.0768 0.3873,-0.12317 0.5,0.125 0.1663,0.11088 0.2578,0.38281 0.375,0.5 0.1718,0.17179 0.4306,0.22923 0.625,0.375 1.3355,1.00163 2.3753,2.46381 3.5625,3.9375 0.2083,-0.0476 -0.2331,0.35515 -0.5625,0.4375 -0.081,0.0202 -0.1755,-0.0373 -0.25,0 -0.1054,0.0527 -0.1446,0.19729 -0.25,0.25 -0.1537,0.0768 -0.337,0.0707 -0.5,0.125 -0.2214,-0.0622 -0.2355,0.1942 -0.375,0.25 -0.1595,0.0638 -0.3421,0.0573 -0.5,0.125 -0.4031,0.17275 -0.8113,0.51532 -1.25,0.625 -0.081,0.0202 -0.1709,-0.0263 -0.25,0 -0.3287,0.10957 -0.9558,0.65431 -1.25,0.875 -0.074,0.0559 -0.1841,0.0591 -0.25,0.125 -0.3398,0.33984 -0.5853,0.86377 -0.875,1.25 -0.1937,0.2582 -0.6064,0.46278 -0.75,0.75 -0.077,0.15366 -0.048,0.34634 -0.125,0.5 -0.1581,0.31623 -0.5379,0.46716 -0.75,0.75 -0.3881,0.51746 -0.5908,1.18161 -0.875,1.75 -0.125,0.20833 -0.25,0.41667 -0.375,0.625 -0.042,0 -0.1,-0.0333 -0.125,0 -0.233,0.31069 -0.3448,0.84476 -0.625,1.125 -0.066,0.0659 -0.1841,0.0591 -0.25,0.125 -0.1718,0.17179 -0.2232,0.43528 -0.375,0.625 -0.2375,0.2969 -1.6661,1.79145 -1.875,1.875 -0.1595,0.0638 -0.3405,0.0612 -0.5,0.125 -0.016,0.006 -1.1042,0.85416 -1.25,1 -0.1062,0.10623 -0.1438,0.26877 -0.25,0.375 -0.2896,0.2896 -0.6419,0.32095 -1,0.5 -0.94,-0.3657 -0.2279,0.27694 -0.375,0.375 -0.1843,0.12287 -0.7083,0.16665 -0.875,0.25 -0.3892,0.1946 -0.7358,0.6804 -1.125,0.875 -0.074,0.0373 -0.1709,-0.0263 -0.25,0 -0.1307,0.0435 -1.2676,0.44632 -1.375,0.5 -0.037,0.0186 0.033,0.1 0,0.125 -0.047,0.0355 -1.4135,0.72404 -1.5,0.75 -0.3679,0.11038 -0.7606,0.12852 -1.125,0.25 -1.2417,0.4139 -2.4996,0.76773 -3.75,1.125 -0.08,0.0229 -0.1667,0 -0.25,0 -0.1667,0.0417 -0.3348,0.0778 -0.5,0.125 -0.6664,0.1904 -1.3155,0.51091 -2,0.625 -0.2877,0.048 -0.5856,-0.0362 -0.875,0 -0.3409,0.0426 -0.6581,0.21581 -1,0.25 -0.2488,0.0249 -0.5009,-0.0208 -0.75,0 -0.4671,-0.3544 -0.6611,0.19351 -1,0.25 -0.3533,0.0589 -0.7765,-0.0871 -1.125,0 -0.3349,0.0837 -0.6525,0.16312 -1,0.25 -0.5347,0.13368 -1.3208,0 -1.875,0 -0.3847,0 -0.8765,0.0934 -1.25,0 -0.2557,-0.0639 -0.4901,-0.20668 -0.75,-0.25 -0.8676,-0.1446 0.1871,0.22904 -0.875,-0.125 -0.3463,-0.11543 -0.6901,-0.37604 -1,-0.5 -0.5677,-0.22709 -1.1759,-0.39538 -1.75,-0.625 -0.2353,-0.0941 -0.5147,-0.0309 -0.75,-0.125 -0.4859,-0.19437 -0.01,-0.29336 -0.5,-0.375 -0.1644,-0.0274 -0.335,0.0236 -0.5,0 -0.3913,-0.0559 -0.7415,-0.27913 -1.125,-0.375 -0.5655,-0.14138 -1.0701,-0.27804 -1.625,-0.5 -0.3371,-0.13484 -0.7898,-0.13827 -1.125,-0.25 -0.056,-0.0186 -0.083,-0.0833 -0.125,-0.125 -0.125,-0.0417 -0.245,-0.10334 -0.375,-0.125 -0.1233,-0.0206 -0.2524,0.0245 -0.375,0 -0.7541,-0.15082 0.1013,-0.0595 -0.375,-0.25 -0.6374,-0.25497 -1.3515,-0.28383 -2,-0.5 -0.4939,-0.16462 -0.8982,-0.57119 -1.375,-0.75 -0.117,-0.0439 -0.2564,0.0395 -0.375,0 -0.1425,-0.0475 -0.2406,-0.18282 -0.375,-0.25 -0.3447,-0.17233 -0.7542,-0.17584 -1.125,-0.25 -0.1827,-0.0365 -0.3192,-0.20481 -0.5,-0.25 -0.081,-0.0202 -0.1692,0.0202 -0.25,0 -0.1871,-0.0468 -0.4906,-0.30779 -0.625,-0.375 -0.3986,-0.1993 -0.9766,-0.30078 -1.375,-0.5 -0.1344,-0.0672 -0.2325,-0.20249 -0.375,-0.25 -1,-0.33333 -0.056,0.11111 -0.5,0 -0.3383,0.21245 -0.3232,-0.19108 -0.5,-0.25 -0.079,-0.0263 -0.1667,0 -0.25,0 -0.2083,-0.0417 -0.4297,-0.0413 -0.625,-0.125 -0.1083,-0.0464 -0.1489,-0.18937 -0.25,-0.25 -0.4196,-0.25176 -0.5398,-0.01 -1,-0.125 -0.5421,0.136 -0.8243,-0.35809 -1.25,-0.5 -0.2104,-0.0701 -0.5375,0.0354 -0.75,0 -0.32,-0.0533 -0.5727,-0.32461 -0.875,-0.375 -0.2055,-0.0342 -0.4274,0.0659 -0.625,0 -0.5499,-0.18329 -1.076,-0.442 -1.625,-0.625 -0.1976,-0.0659 -0.4229,0.0505 -0.625,0 -0.4096,-0.10241 -1.4537,-0.59202 -1.875,-0.75 -0.284,-0.10651 -0.5978,-0.1268 -0.875,-0.25 -0.1077,-0.0479 -0.1667,-0.16667 -0.25,-0.25 -0.2917,-0.125 -0.5721,-0.28035 -0.875,-0.375 -0.3667,-0.11458 -0.7571,-0.13962 -1.125,-0.25 -0.056,-0.0169 -0.07,-0.10312 -0.125,-0.125 -0.2845,-0.11379 -1.10414,-0.45486 -1.375,-0.5 -0.1233,-0.0206 -0.25373,0.0303 -0.375,0 -0.2357,-0.0589 -0.39667,-0.29197 -0.625,-0.375 -1.91849,-0.69763 0.0925,0.1157 -1.625,-0.375 -0.2065,-0.059 -0.62444,-0.33324 -0.875,-0.375 -0.2466,-0.0411 -0.50962,0.0687 -0.75,0 -0.86842,-0.24812 -1.74436,-0.69887 -2.625,-0.875 -0.86563,-0.17313 0.22037,0.31877 -1,-0.125 -0.26268,-0.0955 -0.48829,-0.27686 -0.75,-0.375 -0.23408,-0.0878 -0.5034,0.0411 -0.75,0 -0.0919,-0.0153 -0.15864,-0.10673 -0.25,-0.125 -0.39851,-0.0797 -0.85675,0.0983 -1.25,0 -0.37957,-0.0949 -0.73551,-0.18509 -1.125,-0.25 -0.17486,-0.0291 -0.45015,-0.22086 -0.625,-0.25 -0.40241,-0.0671 -0.84988,0.08 -1.25,0 -0.59783,-0.11957 -1.1486,-0.39977 -1.75,-0.5 -0.22216,-0.037 -0.81328,0.12448 -1,0 -0.0981,-0.0654 -0.18463,-0.15194 -0.25,-0.25 -0.0231,-0.0347 0.0373,-0.10637 0,-0.125 -0.44597,0.0288 -0.22561,0.0244 -0.5,-0.25 -0.0295,-0.0295 -0.0955,0.0295 -0.125,0 -0.0295,-0.0295 0.0231,-0.0903 0,-0.125 -0.0654,-0.0981 -0.1973,-0.14459 -0.25,-0.25 -0.10882,-0.21764 0.14846,-0.5 -0.0625,-0.4375 0.0203,0.0625 0.005,-0.0912 -0.1875,-0.1875 z"
         id="path145" />
    </g>
  </g>
</svg>
