<?xml version="1.0" encoding="UTF-8" standalone="no"?>
<!-- Created with Inkscape (http://www.inkscape.org/) -->

<svg
   version="1.1"
   id="svg2"
   width="44.622437"
   height="76.814987"
   viewBox="0 0 44.622437 76.814987"
   xmlns="http://www.w3.org/2000/svg"
   xmlns:svg="http://www.w3.org/2000/svg">
  <defs
     id="defs6">
    <linearGradient
       id="swatch77">
      <stop
         style="stop-color:#e2c69e;stop-opacity:1;"
         offset="0"
         id="stop77" />
    </linearGradient>
  </defs>
  <g
     id="layer66"
     style="display:inline"
     transform="translate(-1117.1756,-522.62864)">
    <g
       id="layer49"
       style="display:inline">
      <path
         style="display:inline;fill:#969696;fill-opacity:1;stroke:none;stroke-opacity:1"
         d="m 1158.5931,595.99614 c 0,-1.04344 -0.049,-2.09552 0.098,-3.125 0.018,-0.1289 -0.025,-0.26295 0,-0.39063 0.04,-0.20188 0.1663,-0.38213 0.1953,-0.58594 0.1686,-1.18033 -0.1686,-2.43294 0,-3.61328 0.051,-0.3549 0.1363,-0.72027 0.1953,-1.07422 0.092,-0.55495 0.1343,-0.0175 0.1953,-0.68359 0.173,-1.90234 -0.1892,-4.06474 0,-5.95703 0.046,-0.46336 0.1594,-0.89713 0.1954,-1.36719 0.027,-0.35702 -0.064,-0.72192 0,-1.07422 0.1812,-0.99676 0.1822,-0.20138 0.2929,-0.97656 0.056,-0.38903 0.1513,-0.77356 0.1953,-1.17187 0.022,-0.19412 -0.047,-0.39646 0,-0.58594 0.011,-0.0447 0.081,-0.055 0.098,-0.0977 0.193,-0.4824 0.1695,-1.06851 0.293,-1.5625 0.075,-0.29959 0.2119,-0.58097 0.2929,-0.8789 0.079,-0.28954 0.1003,-0.5942 0.1953,-0.87891 0.078,-0.23519 0.215,-0.44841 0.293,-0.68359 0.085,-0.25656 0.256,-1.00881 0.293,-1.26954 0.032,-0.22557 -0.072,-0.46742 0,-0.68359 0.1029,-0.30882 0.4919,-0.48117 0.3357,-0.75747 -0.3874,-0.95762 -0.3362,-1.9431 -0.6922,-2.89305 -0.037,-0.0995 -0.1432,-0.16438 -0.1767,-0.26516 -0.028,-0.0838 0,-0.17678 0,-0.26517 -0.029,-0.0884 -0.052,-0.17953 -0.088,-0.26516 -0.1649,-0.38475 -0.3821,-0.75363 -0.5304,-1.14905 -0.043,-0.11374 -0.046,-0.23981 -0.088,-0.35355 -0.069,-0.18506 -0.2026,-0.34283 -0.2651,-0.53033 -0.038,-0.11525 -0.034,-0.2449 -0.088,-0.35356 -0.037,-0.0745 -0.1475,-0.0987 -0.1768,-0.17677 -0.1641,-0.98458 0.046,-0.17408 -0.2651,-0.7955 -0.1847,-0.36935 -0.1266,-0.76779 -0.2652,-1.14905 -0.1309,-0.35995 -0.3668,-0.68508 -0.442,-1.06066 -0.029,-0.14445 0.024,-0.29663 0,-0.44194 -0.01,-0.0411 -0.075,-0.0489 -0.088,-0.0884 -0.1218,-0.36538 -0.2017,-0.70622 -0.3536,-1.06066 -0.084,-0.19528 -0.2442,-0.34815 -0.3535,-0.53033 -0.034,-0.0565 -0.059,-0.11785 -0.088,-0.17677 -0.029,-0.0884 -0.043,-0.18372 -0.088,-0.26517 -0.2056,-0.37001 -0.4892,-0.69746 -0.7071,-1.06066 -0.082,-0.13605 -0.089,-0.30993 -0.1768,-0.44194 -0.016,-0.0245 -0.071,0.0236 -0.088,0 -0.1031,-0.13744 -0.1883,-0.28828 -0.2652,-0.44194 -0.1518,-0.30376 -0.2095,-0.63858 -0.2651,-0.97227 -0.082,-0.49397 -0.082,-0.0417 -0.2652,-0.53034 -0.2164,-0.5771 -0.1656,-1.2587 -0.2652,-1.85615 -0.073,-0.4374 -0.1211,-0.88067 -0.1767,-1.32583 -0.044,-0.35329 -0.181,-0.63533 -0.2652,-0.97227 -0.1093,-0.43723 -0.1638,-0.88667 -0.2652,-1.32582 -0.2,-0.86667 0.052,0.49204 -0.2651,-0.61872 -0.024,-0.085 0.014,-0.17798 0,-0.26517 -0.058,-0.34889 -0.2554,-0.64504 -0.3536,-0.97227 -0.1047,-0.34906 -0.1372,-0.71943 -0.2651,-1.06066 -0.046,-0.12337 -0.1352,-0.22855 -0.1768,-0.35355 -0.051,-0.15206 0.071,-0.38828 0,-0.53033 -0.056,-0.1118 -0.2009,-0.15798 -0.2652,-0.26517 -0.075,-0.12462 -0.027,-0.56447 -0.088,-0.7071 -0.042,-0.0976 -0.1292,-0.17015 -0.1768,-0.26517 -0.1891,-0.37823 -0.368,-0.83184 -0.5303,-1.23744 -0.069,-0.17301 -0.073,-0.37528 -0.1768,-0.53033 -0.016,-0.0245 -0.072,0.0245 -0.088,0 -0.1492,-0.22374 -0.1885,-0.56534 -0.2652,-0.79549 -0.013,-0.0395 -0.075,-0.0489 -0.088,-0.0884 -0.019,-0.0559 0.026,-0.12407 0,-0.17678 -0.1761,-0.35219 -0.1769,-3.8e-4 -0.2652,-0.35355 -0.073,-0.29051 -0.1482,-0.59158 -0.2651,-0.88388 -0.024,-0.0612 -0.059,-0.11785 -0.088,-0.17678 -0.059,-0.0589 -0.1395,-0.10224 -0.1768,-0.17678 -0.076,-0.15258 -0.032,-0.4482 -0.088,-0.61871 -0.1378,-0.4134 -0.1588,-0.63522 -0.2652,-1.06066 -0.045,-0.18078 -0.1461,-0.34653 -0.1767,-0.53033 -0.04,-0.24207 -0.04,-0.46691 -0.088,-0.70711 -0.042,-0.20781 -0.2136,-0.41245 -0.2652,-0.61872 -0.035,-0.13865 0.035,-0.30329 0,-0.44194 -0.036,-0.14292 -0.2186,-0.2138 -0.2651,-0.35355 -0.097,-0.28939 0,-0.90353 0,-1.23744 0,-0.67118 -0.071,-1.3954 0.088,-2.03293 0.036,-0.14292 -0.036,-0.29903 0,-0.44195 0.01,-0.0404 0.075,-0.0489 0.088,-0.0884 0.097,-0.29165 -0.075,-0.67317 0,-0.97228 0.057,-0.22608 0.1768,-0.37245 0.351,-0.30934 0.1743,0.21804 0.2273,-0.053 0.1743,-0.13257 -0.1404,-0.21048 -0.3059,-0.32625 -0.442,-0.53033 -0.07,-0.10579 0.022,-0.20704 -0.088,-0.35355 -0.2377,-0.31693 -0.5581,-0.56737 -0.7955,-0.88388 -0.079,-0.10541 -0.098,-0.24815 -0.1767,-0.35356 -0.05,-0.0667 -0.1398,-0.10227 -0.1768,-0.17677 -0.026,-0.0527 0.033,-0.12778 0,-0.17678 -0.037,-0.0548 -0.1408,-0.0336 -0.1768,-0.0884 -0.033,-0.049 0.014,-0.11958 0,-0.17678 -0.044,-0.17564 -0.1982,-0.27418 -0.2652,-0.44194 -0.1161,-0.29047 -0.2141,-0.60504 -0.3535,-0.88388 -0.1043,-0.20851 -0.2485,-0.26691 -0.3536,-0.44194 -0.1154,-0.19241 -0.1407,-0.43202 -0.2651,-0.61872 -0.016,-0.0245 -0.075,0.0263 -0.088,0 -0.026,-0.0527 0.026,-0.12408 0,-0.17678 -0.075,-0.14907 -0.2536,-0.22022 -0.3536,-0.35355 -0.095,-0.12693 -0.082,-0.31501 -0.1768,-0.44194 -0.1105,-0.1473 -2.5225,-0.0884 -2.74,-0.0884 -0.2146,0 -0.4216,-0.0299 -0.6187,0.0884 -0.072,0.0429 -0.098,0.15047 -0.1768,0.17677 -0.1364,0.0455 -0.6248,0.0543 -0.7955,0.0884 -0.2353,0.0471 -0.4601,0.22987 -0.7071,0.26517 -0.6235,0.0891 -1.2329,0.14052 -1.8561,0.26516 -0.5197,0.10393 -1.9726,0 -2.5633,0 h -5.2149 c -1.6818,0 -1.0086,-0.0823 -2.519,0.13259 -0.4612,1.22704 -0.4862,2.40492 -0.5742,3.57973 -0.014,0.17626 0.022,0.35492 0,0.53033 -0.01,0.0654 -0.077,0.11196 -0.088,0.17678 -0.075,0.40995 -0.1308,0.82332 -0.1768,1.23744 -0.071,0.63848 0.038,1.30309 0,1.94454 -0.049,0.83356 -0.2118,1.34196 -0.3535,2.12132 -0.075,0.40995 -0.1391,0.82248 -0.1768,1.23744 -0.013,0.14671 0.032,0.29813 0,0.44194 -0.1658,0.33167 -0.205,0.34607 -0.2652,0.70711 -0.2431,0.3065 -0.035,0.65127 -0.088,0.97227 -0.054,0.32442 -0.2025,0.65913 -0.2651,0.97227 -0.029,0.14445 0.036,0.29903 0,0.44194 -0.016,0.0639 -0.072,0.11286 -0.088,0.17678 -0.1016,0.40648 0,1.60056 0.1099,2.29808 0.1098,0.23071 0.085,0.34793 0.1098,0.39773 0.018,0.0373 0.069,0.0511 0.088,0.0884 0.04,0.0796 0,0.47613 0,0.57453 0,0.10559 0.026,0.1595 0.044,0.26516 0.055,0.32966 -0.055,0.6868 0,1.01647 0.015,0.0919 0.069,0.17406 0.088,0.26516 0.083,0.38648 0.1088,0.76217 0.1768,1.14905 0.026,0.14794 0.071,0.29263 0.088,0.44194 0.029,0.26354 0,0.53033 0,0.7955 v 1.4584 1.50261 c 0,0.0918 0.015,0.45777 0,0.57452 -0.041,0.32607 -0.042,-0.0804 -0.1768,0.26517 -0.083,0.21314 -0.1258,0.4399 -0.1768,0.66291 -0.023,0.10157 -0.025,0.20687 -0.044,0.30936 -0.043,0.23299 -0.05,0.14747 -0.1325,0.39774 -0.087,0.25988 -0.135,0.53753 -0.221,0.7955 -0.01,0.0198 -0.033,0.0263 -0.044,0.0442 -0.034,0.0565 -0.058,0.11788 -0.088,0.17678 0,0.0295 0.012,0.0613 0,0.0884 -0.055,0.12774 -0.172,0.22343 -0.221,0.35355 -0.026,0.0703 -0.02,0.14967 -0.044,0.22097 -0.061,0.18377 -0.1891,0.35212 -0.2651,0.53033 -0.1028,0.23992 -0.1148,0.50226 -0.1768,0.7513 -0.045,0.18078 -0.1278,0.35056 -0.1768,0.53033 -0.1904,0.69843 -0.3961,1.40143 -0.4861,2.12132 -0.066,0.5253 0,0.2424 -0.2271,0.83952 0,0.10478 0.034,0.29691 0,0.39775 -0.022,0.0669 -0.1166,0.14277 -0.1326,0.22097 -0.01,0.0434 0.011,0.0897 0,0.13259 -0.01,0.0202 -0.034,0.0244 -0.044,0.0442 -0.01,0.028 0.01,0.0598 0,0.0884 -0.033,0.1306 -0.1369,0.32984 -0.2209,0.44194 -0.025,0.0333 -0.067,0.0527 -0.088,0.0884 -0.122,0.20329 -0.2057,0.45552 -0.3094,0.66291 -0.023,0.0471 -0.064,0.0413 -0.088,0.0884 -0.021,0.0417 -0.016,0.0953 -0.044,0.13258 -0.019,0.0263 -0.065,0.0209 -0.088,0.0442 -0.011,0.0104 0.01,0.0305 0,0.0442 -0.058,0.14374 -0.1046,0.1671 -0.1326,0.30936 -0.01,0.0289 0.013,0.062 0,0.0884 -0.018,0.0373 -0.072,0.0501 -0.088,0.0884 -0.029,0.069 -0.024,0.14847 -0.044,0.22097 -0.048,0.17775 -0.1208,0.36116 -0.1768,0.53033 -0.028,0.0834 -0.1258,0.33014 -0.1768,0.39774 -0.025,0.0333 -0.069,0.0511 -0.088,0.0884 -0.013,0.0264 0.01,0.0604 0,0.0884 0,0.0138 -0.1076,0.27166 -0.1326,0.30936 -0.073,0.10903 -0.2564,0.29201 -0.3094,0.39775 -0.013,0.0264 0.012,0.0613 0,0.0884 -0.083,0.19451 -0.2314,0.37889 -0.3094,0.57452 -0.011,0.0274 0.011,0.061 0,0.0884 -0.019,0.0493 -0.068,0.0833 -0.088,0.13258 -0.022,0.0547 0.012,0.11898 0,0.17678 -0.046,0.22997 -0.029,0.0442 -0.088,0.22097 -0.1133,0.33978 -0.1969,0.67905 -0.3094,1.01646 -0.085,0.25572 -0.2506,0.48643 -0.3977,0.70711 -0.08,0.11939 -0.1008,0.28347 -0.1768,0.39775 -0.075,0.11301 -0.2242,0.16703 -0.2652,0.30936 -0.1335,0.21366 -0.2393,0.46484 -0.3977,0.66291 -0.01,0.0115 -0.034,-0.0118 -0.044,0 -0.039,0.0527 -0.047,0.12538 -0.088,0.17678 -0.02,0.0257 -0.065,0.0209 -0.088,0.0442 -0.063,0.0628 -0.083,0.19087 -0.1326,0.26517 -0.1201,0.1802 -0.3167,0.3712 -0.3977,0.57452 -0.011,0.0274 0.013,0.0621 0,0.0884 -0.018,0.0373 -0.067,0.0527 -0.088,0.0884 -0.2152,0.35935 0.091,-0.0473 -0.088,0.22097 -0.051,0.0772 -0.1258,0.14457 -0.1768,0.22097 -0.01,0.0123 0.01,0.0338 0,0.0442 -0.023,0.0233 -0.061,0.0259 -0.088,0.0442 -0.069,0.0462 -0.087,0.15597 -0.1767,0.17677 -0.025,0.0152 -0.06,-0.009 -0.088,0 -0.128,0.0427 -0.2692,0.16588 -0.3978,0.22098 -0.083,0.0356 -0.3237,0.0655 -0.3977,0.0884 -0.1203,0.037 -0.2342,0.0928 -0.3536,0.13259 -0.2032,0.0677 -0.4967,0.0548 -0.6629,0.22097 -0.068,0.068 -0.1088,0.19716 -0.1768,0.26516 -0.023,0.0233 -0.069,0.0174 -0.088,0.0442 -0.057,0.0804 -0.096,0.17336 -0.1325,0.26516 -1.2645,3.18072 -1.2375,2.04846 -1.1826,3.16422 0.1168,-0.11373 0.1622,0.0218 0.2423,0.13627 0.1183,0.16896 0.2917,0.29167 0.4375,0.4375 0.6362,0.63618 1.3532,1.19827 1.875,1.9375 0.097,0.13722 0.1588,0.29648 0.25,0.4375 0.1381,0.2135 0.3113,0.4042 0.4375,0.625 0.1249,0.21856 0.1625,0.48533 0.3125,0.6875 0.032,0.0435 1.0533,1.30593 1.5,1.625 1.1184,0.79886 -0.5975,-0.54787 0.625,0.5 0.375,0.32143 -0.25,-0.39286 0.375,0.1875 1.1247,1.04441 0.2598,0.3106 0.875,1.0625 0.2961,0.36196 0.6524,0.69181 0.9375,1.0625 0.1374,0.17861 0.2291,0.3908 0.375,0.5625 0.2099,0.24694 0.4722,0.44527 0.6875,0.6875 1.0611,1.19375 -0.7634,-0.53836 0.9375,1.0625 0.1399,0.13164 0.2859,0.25708 0.4375,0.375 0.037,0.0286 0.092,0.0296 0.125,0.0625 0.3367,0.33675 0.475,0.64994 0.75,1.0625 0.016,0.0245 0.042,0.0417 0.062,0.0625 0.062,0.0833 0.1323,0.16167 0.1875,0.25 0.1657,0.26508 0.1018,0.26616 0.25,0.5625 0.1864,0.37275 0.4099,0.65566 0.5625,1.0625 0.053,0.14201 0.048,0.30677 0.125,0.4375 0.1353,0.22996 0.3676,0.39335 0.5,0.625 0.041,0.0724 -0.024,0.17018 0,0.25 0.04,0.13386 0.1337,0.24599 0.1875,0.375 0.076,0.18244 0.1072,0.38189 0.1875,0.5625 0.057,0.12771 0.1433,0.24242 0.1875,0.375 0.04,0.12022 0.026,0.25362 0.062,0.375 0.1525,0.50847 0.5989,1.02863 0.8125,1.5625 0.2633,0.65828 0.4804,1.34524 0.75,2 0.046,0.11233 0.1361,0.20242 0.1875,0.3125 0.1145,0.24542 0.2004,0.50344 0.3125,0.75 0.085,0.18679 0.1851,0.36784 0.25,0.5625 0.02,0.0593 -0.028,0.1316 0,0.1875 0.3905,0.78108 0.1328,-0.0833 0.375,0.5625 0.3283,0.87553 0.6651,1.40385 1.1875,2.1875 0.052,0.0775 0.067,0.17725 0.125,0.25 0.029,0.0364 0.099,0.0237 0.125,0.0625 0.2056,0.30836 0.1597,0.53469 0.7965,0.81863 0.9079,-0.44391 1.1805,-1.03014 1.5965,-1.58485 0.2092,-0.27899 -0.066,-0.11035 0.2651,-0.44194 0.2035,-0.20348 0.724,-0.32906 0.9723,-0.44194 0.2043,-0.0928 0.4226,-0.1562 0.6187,-0.26517 0.4317,-0.23981 -0.062,-0.1265 0.3536,-0.26516 0.4482,-0.14942 1.1309,-0.19944 1.591,-0.26517 0.2213,-0.0316 0.4206,-0.18594 0.6187,-0.26516 0.2915,-0.11659 0.7416,-0.27379 1.0607,-0.35355 0.2644,-0.0661 0.9143,0 1.0606,0 h 3.0052 4.1543 c 0.7552,0 1.5452,-0.0579 2.2981,0 0.266,0.0205 0.5303,0.0589 0.7955,0.0884 0.3241,0.0295 0.6476,0.0652 0.9722,0.0884 0.5135,0.0367 1.081,-0.085 1.591,0 0.1799,-0.0307 0.2864,0.14566 0.442,0.17678 0.1171,0.0234 0.3092,0 0.093,-0.0654 -1.0454,-0.19634 -1.6129,-0.0746 -2.1264,-0.11134 -0.3246,-0.0232 -0.6481,-0.0589 -0.9722,-0.0884 -0.2652,-0.0295 -0.5295,-0.0679 -0.7955,-0.0884 -0.7529,-0.0579 -1.5429,0 -2.2981,0 h -4.1543 -3.0052 c -0.1463,0 -0.7962,-0.0661 -1.0606,0 -0.3191,0.0798 -0.7692,0.23696 -1.0607,0.35355 -0.1981,0.0792 -0.3974,0.23356 -0.6187,0.26516 -0.4601,0.0657 -1.1428,0.11575 -1.591,0.26517 -0.4156,0.13866 0.078,0.0254 -1.6845,1.51527"
         id="path33" />
    </g>
  </g>
</svg>
