<?xml version="1.0" encoding="UTF-8" standalone="no"?>
<!-- Created with Inkscape (http://www.inkscape.org/) -->

<svg
   version="1.1"
   id="svg2"
   width="228.81702"
   height="116.24485"
   viewBox="0 0 228.81702 116.24485"
   xmlns="http://www.w3.org/2000/svg"
   xmlns:svg="http://www.w3.org/2000/svg">
  <defs
     id="defs6">
    <linearGradient
       id="swatch77">
      <stop
         style="stop-color:#e2c69e;stop-opacity:1;"
         offset="0"
         id="stop77" />
    </linearGradient>
  </defs>
  <g
     id="layer66"
     style="display:inline"
     transform="translate(-462.89192,-604.95552)">
    <g
       id="layer43"
       style="display:inline">
      <path
         style="display:inline;fill:#969696;fill-opacity:1;stroke:none;stroke-opacity:1"
         d="m 541.52078,611.80567 c -0.27307,-0.13653 -0.18729,-0.24992 -0.5,-0.375 -0.24468,-0.0979 -0.49435,-0.1861 -0.75,-0.25 -0.15635,-0.0391 -0.34696,0.051 -0.5,0 -0.26517,-0.0884 -0.47884,-0.3072 -0.75,-0.375 -0.56728,-0.14182 -0.36892,0.074 -1.125,-0.25 -0.31098,-0.13328 -0.24032,-0.11532 -0.5,-0.375 -0.26063,-0.13032 -1.63811,0 -1.75,0 h -3.25 c -0.4414,0 -0.93446,0.0551 -1.375,0 -1.22243,-0.15281 -2.42895,-0.30066 -3.625,-0.5 -0.40306,-0.0672 -0.84436,0.0451 -1.25,0 -0.94959,-0.10551 -1.93458,-0.11566 -2.875,-0.25 -1.0829,-0.1547 -2.1583,-0.43235 -3.25,-0.625 -0.73603,-0.12989 -1.51171,-0.2827 -2.25,-0.375 -0.24807,-0.031 -0.50486,0.049 -0.75,0 -0.25841,-0.0517 -0.52403,-0.11442 -0.75,-0.25 -0.10106,-0.0606 -0.14058,-0.2062 -0.25,-0.25 -0.10417,-0.0417 -0.48611,0.0278 -0.625,0 -0.39743,-0.0795 -0.64047,-0.4281 -1,-0.5 -0.36998,-0.074 -0.75378,-0.0575 -1.125,-0.125 -0.77711,-0.14129 -1.59249,-0.4289 -2.375,-0.5 -2.10755,-0.1916 -4.25965,0.10571 -6.76039,-0.90284 C 503.75,605.33333 503.41667,606 503.75,606 c 0.33333,0 0.14907,-1.29814 0,-1 -0.336,0.672 -0.414,1.578 -0.75,2.25 -0.35776,0.71553 -0.50213,1.75638 -0.75,2.5 -0.0373,0.1118 -0.21273,0.1382 -0.25,0.25 -0.0791,0.23717 0.13868,0.54199 0,0.75 -1.51743,2.27614 0.1361,-0.90829 -0.5,1 -0.0987,0.29614 -0.60944,0.46889 -0.75,0.75 -0.0745,0.14907 0.11785,0.38215 0,0.5 -0.0589,0.0589 -0.19107,-0.0589 -0.25,0 -0.13176,0.13176 -0.14664,0.34496 -0.25,0.5 -0.41457,0.62186 -0.0574,0.0287 -0.5,0.25 -0.5901,0.29505 -0.95245,1.13497 -1.5,1.5 -0.69914,0.46609 -2.03454,0.35636 -2.25,0.5 -0.19612,0.13075 -0.30388,0.36926 -0.5,0.5 -0.16969,0.11313 -1.69269,0.18854 -2,0.25 -0.83435,0.16687 -1.53784,0.57196 -2.25,0.75 -0.16169,0.0404 -0.34189,-0.0527 -0.5,0 -0.3,0.1 -0.45,0.65 -0.75,0.75 -0.88708,0.29569 -0.12649,-0.40513 -1,0.25 -0.33333,0.25 -0.70537,0.45537 -1,0.75 -0.0589,0.0589 0.0589,0.19108 0,0.25 -0.97568,0.97568 -0.13426,-0.0579 -0.75,0.25 -0.29534,0.14767 -0.47421,0.56614 -0.75,0.75 -0.32475,0.2165 -1.29567,0.54567 -1.5,0.75 -0.59027,0.59027 1.39443,-0.13147 -0.5,0.5 -0.375,0.125 -0.875,-0.125 -1.25,0 -0.28504,0.095 -0.46496,0.40499 -0.75,0.5 -0.39528,0.13176 -0.85471,-0.13176 -1.25,0 -0.28504,0.095 -0.47103,0.38841 -0.75,0.5 -0.6498,0.25992 -1.58978,0.0299 -2.25,0.25 -0.22361,0.0745 -0.27133,0.44283 -0.5,0.5 -0.24253,0.0606 -0.51283,-0.0791 -0.75,0 -0.0791,0.0263 0.0745,0.21273 0,0.25 -0.14907,0.0745 -0.35093,-0.0745 -0.5,0 -0.21082,0.10541 -0.29789,0.37873 -0.5,0.5 -0.56207,0.33725 -1.16396,0.20698 -1.75,0.5 -0.10541,0.0527 -0.1382,0.21273 -0.25,0.25 -0.15811,0.0527 -0.33831,-0.0404 -0.5,0 -0.36155,0.0904 -0.64645,0.38215 -1,0.5 -0.45042,0.15014 -1.03065,-0.0939 -1.5,0 -1.28277,0.25656 -2.5301,0.69503 -3.75,1 -0.5256,0.1314 -1.93097,-0.31903 -2.25,0 -0.0589,0.0589 0.0745,0.21273 0,0.25 -0.40419,0.2021 -1.47683,0.25 -2.03301,0.51553 -0.26173,2.43004 0.22167,4.53426 0.51941,6.61844 0.10417,0.72917 -0.20235,1.50148 0,2.20971 0.14749,0.51621 0.65887,0.87175 0.82864,1.38107 0.11049,0.33145 -0.11048,0.77339 0,1.10485 0.18545,0.55633 0.71397,1.08394 0.82864,1.65728 0.20674,1.03368 -0.38978,5.29714 0,6.0767 0.0921,0.18414 0.13064,0.40685 0.27622,0.55243 0.0651,0.0651 0.23503,-0.0823 0.27621,0 0.43759,0.87519 -0.5716,0.25704 0.27621,1.10485 0.0651,0.0651 0.21111,-0.0651 0.27622,0 0.34283,0.34284 0.0715,0.90013 0.27621,1.10486 0.022,0.022 4.51982,0.49592 4.97184,0.55242 0.44523,0.0557 1.44128,-0.16407 1.9335,0 0.821,0.27367 1.60099,0.37545 2.48592,0.55243 0.3056,0.0611 0.82992,-0.13747 1.10486,0 1.18088,0.59044 2.52509,0.63694 3.86699,0.82864 2.76216,0.3946 -0.1867,0.0358 1.10485,0.55243 0.89363,0.35745 1.67721,0.007 2.48592,0.27621 0.51199,0.17067 1.06322,0.68013 1.65728,0.82864 0.72203,0.18051 1.74278,0 2.48593,0 2.0011,0 3.84395,-0.003 5.80048,0.27622 0.45514,0.065 1.19134,-0.11649 1.65728,0 0.4816,0.1204 0.89947,0.43202 1.38107,0.55242 0.17865,0.0447 0.38773,-0.0824 0.55243,0 0.0824,0.0412 -0.0766,0.22515 0,0.27622 0.20716,0.13811 2.00403,0.89917 2.20971,1.10485 0.28368,0.28369 0.45956,1.28821 0.82864,1.65728 0.13021,0.13021 0.38772,-0.0824 0.55243,0 0.82679,0.4134 1.93533,0.69146 2.76213,1.10486 0.59366,0.29683 1.57296,-0.21225 2.20971,0 0.12353,0.0412 0.18414,0.18414 0.27621,0.27621 0.18415,0.0921 0.35712,0.21111 0.55243,0.27622 0.17469,0.0582 0.42222,-0.13021 0.55243,0 0.0651,0.0651 -0.0651,0.21111 0,0.27621 0.19698,0.19698 1.37956,0.20678 1.65728,0.27621 1.15561,-0.50018 0.3195,0.43597 0.55243,0.55243 0.1647,0.0824 0.38772,-0.0824 0.55242,0 0.0823,0.0412 -0.0651,0.21111 0,0.27621 0.26301,0.26301 1.27036,-0.12897 1.65729,0 0.54635,0.18212 0.61268,0.42437 1.38106,0.55243 0.27246,0.0454 0.56068,-0.067 0.82864,0 0.32206,0.0805 0.50659,0.47191 0.82864,0.55243 0.66135,0.16534 1.27292,0.22213 1.9335,0.55243 0.27402,0.13701 0.54253,0.45705 0.82864,0.55242 0.34939,0.11646 0.75547,-0.11646 1.10485,0 1.5789,0.5263 -1.66979,0.0527 0.82865,0.55243 0.17335,0.0347 1.91036,0.26465 1.93349,0.27621 0.90053,0.45027 1.86161,0.65459 2.76214,1.10486 0.38401,0.19201 0.90449,0.0379 1.38106,0.27621 0.35368,0.17684 0.73657,0.42967 1.10486,0.55243 0.82864,0.27621 1.93349,-0.27622 2.76213,0 0.26204,0.0873 -0.15321,0.59882 0,0.82864 0.16968,0.25452 0.94475,0.39232 1.10486,0.55243 0.0651,0.0651 -0.0651,0.21111 0,0.27621 0.13021,0.13021 0.42222,-0.13021 0.55243,0 0.0651,0.0651 -0.0412,0.19386 0,0.27621 0.16572,0.33146 0.66291,0.49719 0.82864,0.82864 0.0824,0.16471 -0.13021,0.42222 0,0.55243 0.13021,0.13021 0.37773,-0.0582 0.55242,0 0.27182,0.0906 2.11091,1.73589 2.20971,1.9335 0.11049,0.22097 -0.11048,0.60767 0,0.82864 0.0824,0.1647 0.42222,-0.13021 0.55243,0 0.20959,0.20959 0.26305,1.09169 0.55243,1.38107 0.0651,0.0651 0.21111,-0.0651 0.27621,0 0.29116,0.29115 0.32403,0.76225 0.55243,1.10485 0.2261,0.33915 0.7184,1.27083 0.82864,1.38107 0.14558,0.14557 0.40685,0.13063 0.55243,0.27621 0.11151,0.11151 1.00539,2.18755 1.10485,2.48592 0.0582,0.1747 -0.0582,0.37774 0,0.55243 0.0824,0.24705 0.40797,0.33575 0.55243,0.55243 0.2499,0.37484 0.38296,0.76592 0.55242,1.10485 0.30176,0.60351 1.08595,1.06704 1.38107,1.65728 0.58351,1.16702 1.301,1.49714 1.9335,2.76214 0.0824,0.1647 -0.1647,0.47008 0,0.55243 0.1647,0.0824 0.37773,-0.0582 0.55242,0 0.31729,0.10576 0.38323,0.65944 0.55243,0.82864 0.0651,0.0651 0.21111,-0.0651 0.27622,0 0.1302,0.13021 -0.13021,0.42222 0,0.55242 0.37941,0.37942 0.97026,0.69405 1.38106,1.10486 0.23474,0.23474 0.28686,0.62946 0.55243,0.82864 0.46169,0.34627 1.21496,0.38632 1.65728,0.82864 0.13021,0.13021 -0.1647,0.47008 0,0.55243 0.1647,0.0823 0.36829,0 0.55243,0 0.18414,0.18414 0.33575,0.40797 0.55243,0.55242 0.0766,0.0511 0.23503,-0.0824 0.27621,0 0.2635,0.52701 -0.31653,0.53227 0.27621,0.82865 0.0824,0.0412 0.21111,-0.0651 0.27622,0 0.13021,0.1302 -0.13021,0.42221 0,0.55242 0.14028,0.14028 1.26129,0.70886 1.38107,0.82864 0.14557,0.14558 0.16201,0.38113 0.27621,0.55243 0.47731,0.71597 1.51788,1.47228 2.20971,1.9335 0.0766,0.0511 0.21111,-0.0651 0.27621,0 0.0651,0.0651 -0.0651,0.21111 0,0.27621 0.0651,0.0651 0.18414,0 0.27621,0 0.0921,0.18414 0.13064,0.40685 0.27622,0.55243 0.0651,0.0651 0.19386,-0.0412 0.27621,0 0.66669,0.33334 0.23416,0.37828 1.10486,0.55242 3.67247,0.7345 -9.4e-4,-0.13857 1.38106,0.55243 0.98304,0.49152 3.71379,-0.49092 4.69564,0 0.91477,0.45739 1.62847,1.22856 2.48592,1.65728 0.23292,0.11646 0.3195,0.43597 0.55242,0.55243 0.16471,0.0823 0.47008,-0.1647 0.55243,0 0.17968,0.35935 -0.25726,0.65082 0.27622,0.82864 0.17469,0.0582 0.38772,-0.0824 0.55242,0 0.0824,0.0412 -0.0651,0.21111 0,0.27621 0.44103,0.44103 1.39532,0.83577 1.9335,1.10486 0.22097,0.11048 0.60767,-0.11049 0.82864,0 0.23292,0.11646 0.30537,0.47007 0.55243,0.55243 0.26203,0.0873 0.58158,-0.12353 0.82864,0 0.67762,0.3388 1.25587,1.04225 1.93349,1.38106 0.1647,0.0824 0.38773,-0.0824 0.55243,0 0.23292,0.11647 0.33575,0.40798 0.55243,0.55243 0.60471,0.40314 1.06134,0.98377 1.65728,1.38107 0.0766,0.0511 0.21111,-0.0651 0.27621,0 0.67087,0.67087 -0.0821,0.4056 0.55243,0.82864 0.17827,0.11884 0.98523,0.4328 1.10485,0.55243 0.12456,0.12456 0.55791,1.10759 1.10486,1.38106 0.0823,0.0412 0.21111,-0.0651 0.27621,0 0.15829,0.1583 0.80227,1.90713 0.82864,1.9335 0.0651,0.0651 0.19386,-0.0412 0.27621,0 0.42305,0.21152 0.21601,0.49222 0.55243,0.82864 0.0651,0.0651 0.22514,-0.0766 0.27622,0 0.1615,0.24226 0.11471,0.58639 0.27621,0.82864 0.0511,0.0766 0.21111,-0.0651 0.27621,0 0.11209,0.11209 0.66321,1.13292 0.82864,1.38107 0.1142,0.1713 0.13064,0.40685 0.27622,0.55243 0.11962,0.11962 0.92658,0.43358 1.10485,0.55242 0.32502,0.21668 0.50362,0.61196 0.82864,0.82864 0.25461,0.16975 0.80423,-0.1002 1.10486,0 0.31493,0.10498 0.50658,0.47192 0.82864,0.55243 1.33847,0.33462 3.28857,0 4.69563,0 1.4024,0 8.17248,0.31419 9.11505,0 0.12352,-0.0412 0.15975,-0.21798 0.27621,-0.27621 0.73657,-0.36829 2.02557,0.36828 2.76214,0 1.26412,-0.63206 -1.17209,0.11448 0.82864,-0.55243 0.43643,-0.14548 0.91029,-0.11929 1.38106,-0.27621 0.31958,-0.10653 0.80805,0.1484 1.10486,0 2.34004,-1.17002 5.66293,-1.07713 8.28641,-0.55243 1.49348,0.2987 3.22023,-0.36885 4.69563,0 0.12632,0.0316 0.15975,0.21798 0.27621,0.27621 0.16759,0.0838 1.6512,0.27622 1.9335,0.27622 0.48968,0 1.38106,0.0682 1.31188,1.16355 0.25634,0.48092 0.57478,0.33137 0.90738,0.2205 0.39918,-0.13306 6.17339,-0.14297 7.03125,0 0.81078,0.13513 1.8652,0.66648 2.53906,1.17188 0.14732,0.11048 0.22593,0.30827 0.39063,0.39062 0.11646,0.0582 0.29855,-0.0921 0.39062,0 0.55897,0.55897 -0.48732,0.24462 0.19532,0.58594 0.11646,0.0582 0.26709,-0.0412 0.39062,0 0.77442,0.25814 1.37008,0.97729 2.14844,1.17188 0.89387,0.22346 -0.20308,-0.39451 0.97656,0.19531 0.0823,0.0412 0.10599,0.17298 0.19531,0.19531 0.18948,0.0474 0.39442,-0.0383 0.58594,0 0.48619,0.0972 0.88318,0.47838 1.36719,0.58594 2.92315,0.64959 -1.52088,-0.84273 1.5625,0.39062 0.54762,0.21905 1.21492,0.0596 1.75781,0.19532 0.0632,0.0158 -0.0632,0.17952 0,0.19531 0.52083,0.13021 0.71615,-0.0651 1.17188,0 0.94187,0.13455 1.81446,0.43262 2.73437,0.58594 0.32109,0.0535 0.65736,-0.0638 0.97656,0 0.60031,0.12006 1.18284,0.24688 1.75782,0.39062 0.56353,0.14088 1.4432,-0.25496 1.95312,0 0.0823,0.0412 0.10599,0.17298 0.19531,0.19531 0.61899,0.15475 3.26135,0.12898 3.90625,0 0.66592,-0.13318 1.14219,-0.77135 1.75782,-0.97656 0.2891,-0.0964 0.67713,0.0599 0.97656,0 0.20188,-0.0404 0.38286,-0.16147 0.58594,-0.19531 0.19265,-0.0321 0.40064,0.0618 0.58593,0 0.0618,-0.0206 -0.0582,-0.1662 0,-0.19531 0.40762,-0.20381 0.91604,0.0644 1.36719,0 0.14411,-0.0206 0.24939,-0.16001 0.39063,-0.19532 0.59928,-0.14982 1.36813,0.195 1.95312,0 0.22269,-0.0742 0.36325,-0.31639 0.58594,-0.39062 0.60044,-0.20015 1.54117,-0.0435 2.14844,-0.19531 0.53421,-0.13356 1.0423,-0.45589 1.5625,-0.58594 0.27113,-0.0678 0.72762,0.12447 0.97656,0 1.16328,-0.58164 0.94245,-0.91021 1.75781,-1.5625 0.11368,-0.0909 0.28769,-0.0924 0.39063,-0.19531 0.10293,-0.10294 0.0924,-0.28769 0.19531,-0.39063 0.10294,-0.10294 0.28768,-0.0924 0.39062,-0.19531 0.0979,-0.0979 0.31926,-0.60347 0.58594,-0.78125 0.51198,-0.34132 0.34132,-0.073 0.97656,-0.39063 0.82139,-0.41069 1.48113,-1.21745 2.34375,-1.5625 0.1209,-0.0484 0.27417,0.0582 0.39063,0 0.0582,-0.0291 -0.046,-0.14927 0,-0.19531 0.16598,-0.16598 0.37598,-0.28565 0.58594,-0.39062 0.58801,-0.29401 1.33421,-0.66711 1.95312,-0.97657 0.0582,-0.0291 0.13021,0 0.19531,0 0.13021,-0.0651 0.27417,-0.10796 0.39063,-0.19531 0.14731,-0.11048 0.22592,-0.30827 0.39062,-0.39062 0.11647,-0.0582 0.26431,0.0316 0.39063,0 0.38012,-0.095 1.19854,-0.59928 1.5625,-0.78125 0.33954,-0.16978 0.70813,-0.31751 0.97656,-0.58594 0.10294,-0.10294 0.0705,-0.31573 0.19531,-0.39063 0.71027,-0.42615 1.28273,-0.24493 1.95313,-0.78125 0.14379,-0.11503 0.28848,-0.23741 0.39062,-0.39062 0.0361,-0.0542 -0.0542,-0.1592 0,-0.19531 0.1713,-0.1142 0.4094,-0.0894 0.58594,-0.19532 0.58571,-0.35142 0.9349,-1.05339 1.5625,-1.36718 0.11646,-0.0582 0.29855,0.0921 0.39063,0 0.046,-0.046 0,-0.13021 0,-0.19532 0.1302,0 0.27416,0.0582 0.39062,0 0.0582,-0.0291 0,-0.1302 0,-0.19531 0.0651,-0.0651 0.10797,-0.1662 0.19531,-0.19531 0.28823,-0.0961 1.13978,-0.16321 1.36719,-0.39063 0.046,-0.046 -0.046,-0.14927 0,-0.19531 0.10294,-0.10294 0.28769,-0.0924 0.39063,-0.19531 0.046,-0.046 -0.0618,-0.17473 0,-0.19531 0.31387,-0.10463 0.97656,0.0536 0.8789,0 -0.0976,-0.87731 -0.0947,-2.13969 -0.48828,-3.32032 -0.23382,-0.70147 0.17964,-1.62519 0,-2.34375 -0.0999,-0.39946 -0.29072,-0.77241 -0.39062,-1.17187 -0.0691,-0.27637 -0.11572,-1.28759 -0.19532,-1.36719 -0.046,-0.046 -0.14931,0.046 -0.19531,0 -0.14847,-0.14847 -0.35062,-1.26715 -0.39062,-1.36719 -0.0342,-0.0855 -0.16622,-0.10801 -0.19532,-0.19531 -0.13672,-0.41016 0.13672,-0.95703 0,-1.36719 -0.0954,-0.28624 -0.47222,-0.4401 -0.58593,-0.78125 -0.0781,-0.23437 0.0781,-0.54687 0,-0.78125 -0.36441,-1.0932 -0.96613,-2.05549 -1.36719,-3.125 -0.0942,-0.25134 -0.0896,-0.53452 -0.19531,-0.78125 -0.25319,-0.59077 -0.6489,-0.90074 -0.78125,-1.5625 -0.10924,-0.54616 0.17505,-1.23265 0,-1.75781 -0.6028,-1.8084 0.0399,-3.96258 0.62953,-5.55696 0.82485,-0.0953 0.88378,0.33187 0.4713,0.12563 -0.0527,-0.0264 0,-0.11787 0,-0.17677 h -0.53033 c -0.3473,-0.0868 -1.12685,-0.72917 -1.59099,-0.88389 -0.34004,-0.11337 -0.71603,-0.0783 -1.06066,-0.17677 -0.25339,-0.0724 -0.45711,-0.27026 -0.70711,-0.35356 -0.1,-0.0333 -0.45933,0.071 -0.53033,0 -0.0417,-0.0417 0.0527,-0.15047 0,-0.17677 -0.10541,-0.0527 -0.24815,0.0527 -0.35355,0 -0.0527,-0.0263 0,-0.11788 0,-0.17678 -0.11786,-0.0589 -0.23571,-0.11788 -0.35356,-0.17678 -0.14908,-0.0497 -0.39073,0.0698 -0.53033,0 -0.1901,-0.0951 -0.61929,-0.46423 -0.88388,-0.53033 -0.16638,-0.0416 -0.36395,0.0416 -0.53033,0 -1.03718,-0.25929 -2.85241,-0.63071 -3.71231,-1.06066 -0.15812,-0.0791 -0.35883,0.0429 -0.53033,0 -0.25566,-0.0639 -0.4487,-0.30185 -0.70711,-0.35355 -0.17334,-0.0347 -0.35699,0.0347 -0.53033,0 -0.41344,-0.0827 -0.82399,-0.44763 -1.23744,-0.53033 -0.68138,-0.13628 -1.27997,-0.0439 -1.94454,-0.17678 -0.25841,-0.0517 -0.45145,-0.28965 -0.70711,-0.35355 -0.11433,-0.0286 -0.27025,0.0833 -0.35355,0 -0.0417,-0.0417 0.0559,-0.15818 0,-0.17678 -0.16771,-0.0559 -0.35596,0.0291 -0.53033,0 -0.66271,-0.11045 -1.28574,-0.39856 -1.94454,-0.53033 -0.17335,-0.0347 -0.36263,0.0559 -0.53033,0 -0.46723,-0.15574 -0.84985,-0.66601 -1.41422,-0.53033 -0.38502,-0.0963 -0.86322,0.12474 -1.23743,0 -0.25,-0.0833 -0.45146,-0.28965 -0.70711,-0.35355 -0.54661,-0.13665 -1.0876,-0.27863 -1.59099,-0.53033 -0.23903,-0.11951 -0.63711,0.10576 -0.88388,0 -0.0387,-0.0166 -1.9983,-0.79158 -2.12132,-0.88388 -0.13334,-0.1 -0.20037,-0.28786 -0.35356,-0.35356 -1.41221,-0.60513 -0.38464,0.16123 -1.41421,-0.35355 -0.89943,-0.44972 -1.85332,-0.9124 -2.82843,-1.23744 -0.46098,-0.15366 -0.9796,-0.13624 -1.41421,-0.35355 -0.14907,-0.0745 -0.20448,-0.27905 -0.35356,-0.35355 -0.35806,-0.17878 -1.01892,-0.11088 -1.41421,-0.17678 -0.35431,-0.0591 -1.12881,-0.21085 -1.41421,-0.35355 -0.19003,-0.095 -0.33307,-0.27466 -0.53033,-0.35356 -0.39028,-0.15611 -1.01138,0.10071 -1.41422,0 -0.0809,-0.0202 -0.0978,-0.15037 -0.17677,-0.17677 -0.28505,-0.095 -0.58926,-0.11788 -0.88389,-0.17678 -0.17677,-0.11785 -0.33306,-0.27465 -0.53033,-0.35355 -0.32826,-0.13131 -0.71766,0.0857 -1.06066,0 -0.56302,-0.14076 -1.04042,-0.52359 -1.59099,-0.70711 -0.51282,-0.17078 -1.42075,-0.0458 -1.94454,-0.17678 -0.25566,-0.0639 -0.21597,-0.69742 -0.70711,-0.35355 -0.11556,-0.0231 -0.24814,0.0527 -0.35355,0 -0.0527,-0.0263 0.0578,-0.16518 0,-0.17678 -0.28891,-0.0578 -0.59805,0.0715 -0.88388,0 -0.38349,-0.0959 -0.68566,-0.40533 -1.06066,-0.53033 -0.0259,-0.009 -0.99237,-0.14257 -1.06067,-0.17677 -0.0527,-0.0264 0.0527,-0.15048 0,-0.17678 -0.2173,-0.10868 -0.47661,-0.1 -0.7071,-0.17678 -0.25,-0.0833 -0.45145,-0.28965 -0.70711,-0.35355 -0.57666,-0.14417 -0.96072,-0.32024 -1.59099,-0.53033 -0.1118,-0.0373 -0.24175,0.0373 -0.35355,0 -0.0791,-0.0263 -0.0959,-0.15658 -0.17678,-0.17678 -0.28583,-0.0715 -0.62036,0.13176 -0.88388,0 -0.14907,-0.0745 -0.20448,-0.27905 -0.35356,-0.35355 -0.14825,-0.0741 -2.05412,-0.16878 -2.12132,-0.17678 -0.34412,-0.043 -1.09995,-0.19642 -1.41421,-0.35355 -0.19003,-0.095 -0.32877,-0.28635 -0.53033,-0.35355 -0.27458,-0.0915 -0.7599,0.043 -1.06066,0 -0.29744,-0.0425 -0.58751,-0.12738 -0.88388,-0.17678 -0.89601,-0.14934 -1.94643,0.2205 -2.82843,0 -0.30785,-0.077 -0.52889,-0.39415 -0.88388,-0.35355 -0.33996,-0.068 -0.72071,0.068 -1.06066,0 -0.49336,-0.0987 -0.94051,-0.41191 -1.41422,-0.53033 -0.11433,-0.0286 -0.24175,0.0373 -0.35355,0 -0.0791,-0.0264 -0.0977,-0.15048 -0.17678,-0.17678 -0.38223,-0.12738 -1.99121,-0.0233 -2.29809,-0.17678 -0.69526,-0.34763 -0.32011,-0.38222 -1.06067,-0.53033 -0.29089,-0.0582 -0.80482,-0.0489 -1.06066,-0.17677 -0.14907,-0.0745 -0.20448,-0.27906 -0.35355,-0.35356 -0.24681,-0.1234 -0.99184,0.0491 -1.23744,0 -0.2584,-0.0517 -0.45145,-0.28965 -0.7071,-0.35355 -0.3338,-0.0834 -0.92863,0.1544 -1.23744,0 -0.0527,-0.0263 0.0527,-0.15048 0,-0.17678 -0.26352,-0.13176 -0.59498,0.0578 -0.88388,0 -0.98361,-0.19672 -2.02674,-0.68819 -3.00521,-0.88388 -0.23112,-0.0462 -0.54044,0.16666 -0.7071,0 -0.0417,-0.0417 0.0417,-0.13508 0,-0.17678 -0.15432,-0.15428 -0.48837,-0.12208 -0.70711,-0.17678 -0.42531,-0.10632 -0.56301,-0.24659 -0.88388,-0.35355 -0.16771,-0.0559 -0.37222,0.0791 -0.53033,0 -0.44181,-0.2209 -0.22957,-0.42128 -0.88389,-0.53033 -0.23249,-0.0388 -0.4835,0.0745 -0.7071,0 -0.25,-0.0833 -0.45146,-0.28965 -0.70711,-0.35355 -0.11433,-0.0286 -0.24814,0.0527 -0.35355,0 -0.14908,-0.0745 -0.20449,-0.27906 -0.35356,-0.35356 -0.10541,-0.0527 -0.24067,0.0339 -0.35355,0 -0.48223,-0.14466 -0.95709,-0.31935 -1.41421,-0.53033 -0.43135,-0.19908 -0.77655,-0.59188 -1.23744,-0.7071 -0.34773,-0.0869 -0.72505,-0.0509 -1.06066,-0.17678 -0.15606,-0.0585 -0.21488,-0.26115 -0.35355,-0.35355 -0.15505,-0.10338 -0.35732,-0.10758 -0.53033,-0.17678 -1.03816,-0.41528 -0.0213,-0.004 -1.06066,-0.17678 -1.55178,-0.25865 0.27022,-0.065 -0.88389,-0.35355 -0.11433,-0.0286 -0.24814,0.0527 -0.35355,0 -0.14907,-0.0745 -0.21064,-0.26785 -0.35356,-0.35355 -0.16957,-0.10174 -1.48908,-0.43743 -1.76776,-0.53033 -0.23717,-0.0791 -0.32232,-0.39166 -0.53033,-0.53033 -0.0981,-0.0654 -0.24815,0.0527 -0.35356,0 -0.27238,-0.1362 -1.65356,-0.76969 -1.76776,-0.88389 -0.0932,-0.0932 -0.0836,-0.26035 -0.17678,-0.35355 -0.10154,-0.10154 -0.85092,-0.36254 -1.06066,-0.53033 -0.19522,-0.15617 -0.33033,-0.38033 -0.53033,-0.53033 -0.43749,-0.32812 -1.33224,-0.62513 -1.76777,-1.06066 -0.0417,-0.0417 0.0417,-0.13508 0,-0.17678 -0.0932,-0.0932 -0.24814,-0.0978 -0.35355,-0.17677 -0.46341,-0.34756 -0.79467,-0.72859 -1.23744,-1.06066 -0.10541,-0.0791 -0.2357,-0.11788 -0.35355,-0.17678 -0.11785,0 -0.25555,0.0654 -0.35355,0 -0.10968,-0.0731 -0.0836,-0.26035 -0.17678,-0.35355 -0.7207,-0.72071 -1.66664,-1.33837 -2.47487,-1.94455 -0.34812,-0.26108 -0.41815,-0.59492 -0.70711,-0.88388 -0.2357,-0.2357 -0.6017,-0.39088 -0.70711,-0.70711 -0.0373,-0.1118 0.0527,-0.24814 0,-0.35355 -0.0263,-0.0527 -0.12777,0.0327 -0.17677,0 -0.13868,-0.0924 -0.26116,-0.21488 -0.35356,-0.35355 -0.12989,-0.19484 -0.78598,-1.52309 -0.88388,-1.76777 -0.0438,-0.10942 0.0373,-0.24175 0,-0.35355 -0.0263,-0.0791 -0.13948,-0.10228 -0.17678,-0.17678 -0.25556,-0.51112 -0.9104,-1.87386 -1.06066,-2.47488 -0.15407,-0.6161 0.28081,-0.12124 -0.17677,-0.88388 -0.30189,-0.50314 -0.39353,-0.15988 -0.53033,-0.70711 -0.16478,-0.65897 0.29775,-0.0534 -0.17678,-0.88388 -0.1872,-0.32759 -0.53837,-0.54641 -0.70711,-0.88388 -0.0834,-0.16667 -0.0734,-0.37529 -0.17677,-0.53033 -0.0327,-0.049 -0.15048,0.0527 -0.17678,0 -0.10541,-0.21082 0.0745,-0.4835 0,-0.70711 -0.12444,-0.37331 -0.74935,-0.65706 -0.88389,-1.06066 -0.0373,-0.1118 0.0527,-0.24814 0,-0.35355 -0.0263,-0.0527 -0.13507,0.0417 -0.17677,0 -0.13819,-0.13819 -0.30756,-0.76883 -0.35356,-0.88389 -0.18166,-0.45415 -0.44908,-0.67362 -0.7071,-1.06066 -0.0654,-0.098 0.0833,-0.27025 0,-0.35355 -0.0417,-0.0417 -0.15038,0.0527 -0.17678,0 -0.0131,-0.0262 -0.30075,-1.0791 -0.35355,-1.23744 -0.0373,-0.1118 0.0833,-0.27025 0,-0.35355 -0.6434,-0.6434 -0.12421,0.18794 -0.53033,-0.35355 -0.17678,-0.23571 -0.25082,-0.61391 -0.53033,-0.70711 -1.03586,-0.34555 0.31467,0.49145 -0.53033,-0.35355 -0.0417,-0.0417 -0.13508,0.0417 -0.17678,0 -0.13178,-0.13177 -0.045,-0.39857 -0.17678,-0.53033 -0.68991,-0.68992 -0.0949,0.0409 -0.53033,-0.17678 -0.47461,-0.23731 -0.98714,-0.54223 -1.41421,-0.88388 -0.19522,-0.15618 -0.33511,-0.37416 -0.53033,-0.53033 -0.10289,-0.0823 -0.26035,-0.0836 -0.35355,-0.17678 -0.0932,-0.0932 -0.0672,-0.28045 -0.17678,-0.35355 -0.0981,-0.0654 -0.24814,0.0527 -0.35355,0 -0.0527,-0.0264 0.0417,-0.13508 0,-0.17678 -0.24296,-0.24296 -0.64093,-0.28737 -0.88389,-0.53033 -0.0417,-0.0417 0.0527,-0.15048 0,-0.17678 -0.10541,-0.0527 -0.24175,0.0373 -0.35355,0 -0.21213,-0.0707 -0.3182,-0.45963 -0.53033,-0.53033 -0.1677,-0.0559 -0.37222,0.0791 -0.53033,0 -0.14907,-0.0745 -0.20448,-0.27905 -0.35355,-0.35355 -0.13295,-0.0665 -0.40768,0.0818 -0.53033,0 -0.13868,-0.0924 -0.26116,-0.21488 -0.35356,-0.35355 -0.0327,-0.049 0.0527,-0.15048 0,-0.17678 -0.10541,-0.0527 -0.24814,0.0527 -0.35355,0 -0.35148,-0.17574 -0.55479,-0.66449 -0.88388,-0.88388 -0.95309,-0.6354 -1.73663,-1.58061 -2.82843,-1.94455 -0.20156,-0.0672 -0.32877,-0.28635 -0.53033,-0.35355 -0.1118,-0.0373 -0.24175,0.0373 -0.35355,0 -0.2224,-0.0741 -0.44628,-0.26665 -0.70711,-0.35355 -0.31705,-0.10569 -0.73626,0.0811 -1.06066,0 -0.25566,-0.0639 -0.45711,-0.27026 -0.70711,-0.35356 -0.1677,-0.0559 -0.35883,0.0429 -0.53033,0 -0.85364,-0.21341 0.009,-0.084 -0.53033,-0.35355 -0.10541,-0.0527 -0.27025,0.0833 -0.35355,0 -0.0417,-0.0417 0.0417,-0.13508 0,-0.17678 -0.125,-0.125 -0.36263,0.0559 -0.53033,0 -0.20242,-0.0675 -0.51755,-0.25875 -0.70711,-0.35355 -0.19003,-0.095 -0.3801,-0.20332 -0.53033,-0.35356 -0.0417,-0.0417 0.0527,-0.15047 0,-0.17677 -0.10541,-0.0527 -0.24175,0.0373 -0.35355,0 -0.47131,-0.1571 -0.84508,-0.56482 -1.41422,-0.70711 -0.14031,-0.0351 -1.03146,-0.14758 -1.06066,-0.17678 -0.0932,-0.0932 -0.0836,-0.26035 -0.17677,-0.35355 -0.125,-0.125 -0.36263,0.0559 -0.53033,0 -0.37009,-0.12336 -0.81195,-0.42396 -1.23744,-0.53033 -0.38221,-0.0956 -0.86522,0.12407 -1.23744,0 -0.0791,-0.0263 -0.096,-0.15658 -0.17677,-0.17678 -0.56886,-0.14217 -1.17742,-0.0292 -1.76777,-0.17677 -0.46139,-0.11535 -1.17362,0.20868 -1.59099,0 -0.15721,-0.0786 -2.04482,-0.94588 -2.12132,-1.06066 -0.13324,-0.19986 -0.23857,-1.38982 -0.83556,-1.53773 -0.5569,-0.24935 -0.84435,-0.14307 -1.05522,-0.24851 z"
         id="path96" />
    </g>
  </g>
</svg>
