<?xml version="1.0" encoding="UTF-8" standalone="no"?>
<!-- Created with Inkscape (http://www.inkscape.org/) -->

<svg
   version="1.1"
   id="svg1"
   width="228.11478"
   height="114.66051"
   viewBox="0 0 228.11478 114.66051"
   xmlns="http://www.w3.org/2000/svg"
   xmlns:svg="http://www.w3.org/2000/svg">
  <defs
     id="defs1" />
  <g
     id="layer1"
     style="display:inline"
     transform="translate(-462.375,-606.5)">
    <g
       id="layer42"
       style="display:inline;fill:#ffffff;fill-opacity:1;stroke:none">
      <path
         style="fill:#ffffff;fill-opacity:1;stroke:none;stroke-linecap:round"
         d="m 462.375,627.375 15.625,-3.5 14.375,-4.75 9.125,-8.625 2.25,-4 11,0.125 9.125,2.625 11.625,0.125 7.375,3.125 0.875,2.375 7.875,0.5 9.125,2.625 6.5,4.375 5.63908,4.12161 4.59619,4.552 0.7513,3.66812 2.03293,3.88908 3.27037,7.55721 2.25391,1.90035 2.47487,0.30936 3.18198,2.74003 12.59534,5.70105 27.97491,6.18719 23.77647,7.20365 8.13172,1.94454 7.68979,4.24264 9.94369,1.59099 2.87262,1.19324 3.13779,-0.0884 2.91681,26.11875 -22.49483,13.52342 -11.79985,1.10485 -2.2097,0.97228 -5.03814,0.35355 -12.02082,-2.43068 -2.87262,-3.35876 -29.69848,-1.72357 -13.7002,2.2539 -6.98267,-1.63518 -1.591,-2.43068 -0.92807,-3.44715 -5.70105,-6.0104 -6.36396,-4.11006 -5.96622,-2.78423 -9.63433,-2.78424 -10.6066,-9.59013 -8.17592,-14.71666 -4.94975,-4.86136 -18.69413,-3.35876 -10.91596,-3.8007 -8.13173,-4.99394 -26.16295,-3.0052 z"
         id="path40" />
    </g>
  </g>
</svg>
