<?xml version="1.0" encoding="UTF-8" standalone="no"?>
<!-- Created with Inkscape (http://www.inkscape.org/) -->

<svg
   version="1.1"
   id="svg2"
   width="221.69899"
   height="109.38334"
   viewBox="0 0 221.69899 109.38334"
   xmlns="http://www.w3.org/2000/svg"
   xmlns:svg="http://www.w3.org/2000/svg">
  <defs
     id="defs6">
    <linearGradient
       id="swatch77">
      <stop
         style="stop-color:#e2c69e;stop-opacity:1;"
         offset="0"
         id="stop77" />
    </linearGradient>
  </defs>
  <g
     id="layer66"
     style="display:inline"
     transform="translate(-649.14585,-499.45938)">
    <g
       id="layer67"
       style="display:inline">
      <path
         style="display:inline;fill:#969696;fill-opacity:1;stroke:none;stroke-opacity:1"
         d="m 830.4375,598.25 c 0.49318,-0.0329 1.00398,0 1.5,0 h 3.1875 c 0.65121,0 1.35537,-0.0806 2,0 0.0852,0.0107 0.1643,0.0565 0.25,0.0625 0.31181,0.0208 0.62608,-0.0259 0.9375,0 0.4219,0.0352 0.77995,0.13885 1.1875,0.25 0.25174,0.0687 0.94234,0.44234 1.125,0.625 0.11505,0.11505 0.19744,0.25994 0.3125,0.375 0.21665,0.21665 0.5372,0.42485 0.8125,0.5625 0.25936,0.1297 0.59607,0.0829 0.875,0.1875 0.0872,0.0327 0.1635,0.0904 0.25,0.125 0.15766,0.0631 0.46255,0.1063 0.625,0.1875 0.0263,0.0132 0.0345,0.0535 0.0625,0.0625 0.11858,0.0395 0.2517,-0.0205 0.375,0 0.0752,0.0125 0.2749,0.1714 0.3125,0.1875 0.0789,0.0338 0.1732,0.0241 0.25,0.0625 0.0932,0.0466 0.1667,0.125 0.25,0.1875 0.0417,0.0417 0.0723,0.0987 0.125,0.125 0.0373,0.0186 0.0863,-0.0155 0.125,0 0.60726,0.2429 1.05225,0.80482 1.5625,1.1875 0.0972,0.0729 0.2266,0.1016 0.3125,0.1875 0.0531,0.0531 0.0719,0.1344 0.125,0.1875 0.15481,0.15481 0.43923,0.2329 0.625,0.3125 0.0621,0.0266 0.4215,0.2965 0.4375,0.3125 0.0147,0.0147 -0.0147,0.0478 0,0.0625 0.0963,0.0963 1.2156,-0.0969 1.3125,0 0.0147,0.0147 -0.0147,0.0478 0,0.0625 0.0531,0.0531 0.241,-0.16496 0.1875,0.125 0.27362,0.34203 0.55188,0.66627 0.75,1.0625 0.11258,0.22515 0.0581,0.52207 0.3125,0.6875 0.0759,0.13908 0.22,0.44693 0.3125,0.5625 0.0291,0.0364 0.097,0.0252 0.125,0.0625 0.14098,0.18798 0.16511,0.49099 0.3125,0.6875 0.0353,0.0471 0.0987,0.0723 0.125,0.125 0.0186,0.0373 -0.0186,0.0877 0,0.125 0.0263,0.0527 0.0923,0.076 0.125,0.125 0.0878,0.13164 0.1523,0.35342 0.25,0.5 0.0764,0.1146 0.70437,0.598 0.8125,0.625 0.286,0.0715 -0.065,-0.12624 0.3125,0.0625 0.0932,0.0466 0.0952,0.2222 0.25,0.1875 0.11984,0.0479 0.31354,-0.031 0.4375,0 0.12393,0.031 0.1976,0.13 0.3125,0.1875 0.0667,0.0333 0.1833,-0.0333 0.25,0 0.0527,0.0263 0.0691,0.1064 0.125,0.125 0.20415,0.068 0.97936,0 1.1875,0 0.51276,0 1.05252,0.0464 1.5625,0 0.0855,-0.008 0.1648,-0.0518 0.25,-0.0625 0.22312,-0.0279 0.99088,-0.0575 1.125,-0.0625 0.13683,-0.005 2.3109,0.005 2.375,0 0.81622,-0.0692 1.625,-0.20833 2.59375,-0.3125 0.17705,0 0.20405,0.0147 0.21875,0 0.0295,-0.0295 0,-0.0833 0,-0.125 0,-0.23238 0.0808,-0.40408 0.125,-0.625 0.0321,-0.1604 -0.0204,-0.33723 0,-0.5 0.0503,-0.40208 0.2002,-0.78942 0.25,-1.1875 0.026,-0.20776 0.0451,-0.41635 0.0625,-0.625 0.0127,-0.15302 -0.0567,-0.51748 0,-0.6875 0.009,-0.028 0.0565,-0.0336 0.0625,-0.0625 0.024,-0.12019 -0.024,-0.25481 0,-0.375 0.0258,-0.1292 0.1033,-0.24503 0.125,-0.375 0.0438,-0.26301 -0.066,-0.11806 0.0625,-0.375 0.0597,-0.11932 0.1903,-0.19318 0.25,-0.3125 0.0186,-0.0373 -0.0214,-0.0893 0,-0.125 0.0455,-0.0758 0.1565,-0.1047 0.1875,-0.1875 0.16406,-0.4375 -0.0656,-0.175 0,-0.4375 0.0569,-0.22744 0.216,-0.44937 0.25,-0.6875 0.0866,-0.6063 0.13761,-1.07538 0.3125,-1.6875 0.0781,-0.27344 0.0938,0.0469 0.1875,-0.375 0.0226,-0.10169 0,-0.20833 0,-0.3125 0.0208,-0.0833 0.0399,-0.1671 0.0625,-0.25 0.05,-0.18327 0.14696,-0.56453 0.25,-0.75 0.0506,-0.0911 0.1452,-0.1548 0.1875,-0.25 0.0431,-0.0971 0.0289,-0.21172 0.0625,-0.3125 0.0692,-0.20765 0.2435,-0.52563 0.3125,-0.75 0.14897,-0.48415 0.18665,-1.02912 0.375,-1.5 0.19443,-0.48609 0.44488,-0.94216 0.625,-1.4375 0.0998,-0.27446 0.1305,-0.58984 0.1875,-0.875 0.0649,-0.32476 0.16,-0.67045 0.1875,-1 0.0426,-0.51125 0,-1.04856 0,-1.5625 v -7.25 c 0,-0.30659 0.0402,-0.16096 0.125,-0.5 0.0556,-0.22232 -0.0208,-0.45927 0,-0.6875 0.0532,-0.58482 0.0353,-0.0161 0.125,-0.375 0.0253,-0.10106 -0.0147,-0.20938 0,-0.3125 0.0122,-0.085 0.0417,-0.1667 0.0625,-0.25 0.0208,-0.0625 0.0517,-0.1225 0.0625,-0.1875 0.0542,-0.3253 0.0706,-0.67377 0.125,-1 0.0909,-0.54522 0.2473,-1.07054 0.3125,-1.625 0.0146,-0.12414 -0.0104,-0.25043 0,-0.375 0.021,-0.25257 0.097,-0.4981 0.125,-0.75 0.0481,-0.43335 0.008,-0.87815 0.0625,-1.3125 0.0502,-0.40133 0.1845,-0.79482 0.25,-1.1875 0.0338,-0.20283 -0.0255,-0.4207 0,-0.625 0.0879,-0.70355 0.18191,-1.42853 0.3125,-2.125 0.12448,-0.66388 0.39967,-1.2862 0.5625,-1.9375 0.0458,-0.18302 0.0107,-0.3811 0.0625,-0.5625 0.0308,-0.10787 0.0998,-0.20318 0.125,-0.3125 0.0904,-0.39167 0.0257,-0.51093 0.125,-0.875 0.35458,-1.30011 -0.14003,0.94013 0.25,-0.75 0.13237,-0.57358 0.1535,-1.17132 0.25,-1.75 0.0108,-0.065 0.0555,-0.1219 0.0625,-0.1875 0.055,-0.54965 0,-1.13439 0,-1.6875 0,-1.02375 0.10463,-2.12223 -0.0625,-3.125 -0.0343,-0.2055 0.0173,-0.41739 0,-0.625 -0.0497,-0.5958 -0.0607,-0.0485 -0.125,-0.5625 -0.0436,-0.3488 0.0388,-0.71307 0,-1.0625 -0.019,-0.17075 -0.0913,-0.33154 -0.125,-0.5 -0.0614,-0.30699 -0.0972,-0.63649 -0.1875,-0.9375 -0.19208,-0.64026 -0.36583,-1.29831 -0.5625,-1.9375 -0.19968,-0.64895 -0.44301,-1.28232 -0.625,-1.9375 -0.12771,-0.45975 -0.19775,-0.91598 -0.3125,-1.375 -0.0976,-0.39038 -0.3517,-0.72465 -0.4375,-1.125 -0.10736,-0.50101 -0.14825,-1.00725 -0.3125,-1.5 -0.19739,-0.59217 -0.19157,-0.27035 -0.3125,-0.875 -0.1061,-0.53045 -0.125,-1.08604 -0.125,-1.625 0,-0.27083 0.0316,-0.54352 0,-0.8125 -0.0272,-0.23133 -0.0833,-0.45833 -0.125,-0.6875 0,-0.49128 0.0762,-1.29263 0,-1.75 -0.0348,-0.20894 -0.0946,-0.41206 -0.125,-0.625 -0.031,-0.21712 0.0533,-0.47424 0,-0.6875 -0.1013,-0.405 -0.0506,0.29488 -0.125,-0.375 -0.0218,-0.19624 0.0557,-0.4926 0,-0.6875 -0.0256,-0.0896 -0.0833,-0.1667 -0.125,-0.25 -0.0208,-0.0625 -0.0465,-0.1236 -0.0625,-0.1875 -0.1129,-0.4515 -0.098,-0.92737 -0.1875,-1.375 -0.0929,-0.46446 -0.3481,-0.94576 -0.4375,-1.4375 -0.0261,-0.14348 0.0419,-0.29782 0,-0.4375 -0.0456,-0.15197 -0.1341,-0.28808 -0.1875,-0.4375 -0.22947,-0.64253 -0.40856,-1.33293 -0.5625,-2 -0.0285,-0.12348 -0.0277,-0.25315 -0.0625,-0.375 -0.20602,-0.72106 -0.50213,-1.4227 -0.75,-2.125 -0.22739,-0.64426 -0.20813,-0.70768 -0.375,-1.25 -0.0717,-0.23306 -0.1909,-0.45093 -0.25,-0.6875 -0.0741,-0.29658 -0.0271,-0.42634 -0.125,-0.6875 -0.20427,-0.54473 -0.38899,-1.1236 -0.5625,-1.6875 -0.0312,-0.10153 -0.0417,-0.20833 -0.0625,-0.3125 0,-0.0417 0.0101,-0.0846 0,-0.125 -0.1835,-0.7324 -0.0794,-0.0389 -0.1875,-0.6875 -0.0242,-0.14531 -0.0417,-0.29167 -0.0625,-0.4375 0,-0.0833 0.0118,-0.1675 0,-0.25 -0.009,-0.0652 -0.0555,-0.1219 -0.0625,-0.1875 -0.0145,-0.14511 0.0112,-0.2921 0,-0.4375 -0.0246,-0.32043 -0.1425,-0.62278 -0.1875,-0.9375 -0.0411,-0.2879 -0.0145,-0.58705 -0.0625,-0.875 -0.0558,-0.33455 -0.23972,-1.07061 -0.375,-1.375 -0.10219,-0.22994 -0.2871,-0.45296 -0.375,-0.6875 -0.0373,-0.0995 -0.0116,-0.2192 -0.0625,-0.3125 -0.0402,-0.0737 -0.3701,-0.40535 -0.4375,-0.5625 -0.2685,-0.62647 0.32473,0.25136 -0.3125,-0.75 -0.10352,-0.16268 -0.3516,-0.32818 -0.4375,-0.5 -0.028,-0.0559 0.0198,-0.1282 0,-0.1875 -0.0475,-0.14252 -0.1727,-0.24618 -0.25,-0.375 -0.21141,-0.35234 -0.41359,-0.71016 -0.625,-1.0625 -0.0686,-0.11439 -0.1903,-0.19318 -0.25,-0.3125 -0.0384,-0.0768 -0.0208,-0.1749 -0.0625,-0.25 -0.19988,-0.35978 -0.53969,-0.69446 -0.75,-1.0625 -0.0693,-0.12134 -0.125,-0.25 -0.1875,-0.375 -0.0208,-0.0625 -0.033,-0.1286 -0.0625,-0.1875 -0.0833,-0.16665 -0.2292,-0.27085 -0.3125,-0.4375 -0.0384,-0.0768 -0.0241,-0.1732 -0.0625,-0.25 -0.10722,-0.21443 -0.33028,-0.41057 -0.4375,-0.625 -0.0589,-0.11785 -0.0743,-0.25337 -0.125,-0.375 -0.14125,-0.339 -0.38489,-0.69553 -0.5625,-1 -0.08,-0.13705 -0.1059,-0.30145 -0.1875,-0.4375 -0.20612,-0.34353 -0.49119,-0.64663 -0.6875,-1 -0.16521,-0.29738 -0.25024,-0.65661 -0.4375,-0.9375 -0.0578,-0.0867 -0.1409,-0.1568 -0.1875,-0.25 -0.0384,-0.0768 -0.0353,-0.1685 -0.0625,-0.25 -0.20518,-0.61553 -0.35791,-1.26122 -0.5625,-1.875 -0.0132,-0.0395 0.0172,-0.0871 0,-0.125 -0.20047,-0.44104 -0.42918,-0.7854 -0.75125,-1.65533 -0.38543,-0.40533 -0.17417,-0.5056 -0.36553,-0.5821 -0.63205,-0.25278 -0.12852,0.0464 -0.53033,-0.17678 -0.23411,-0.13006 -1.12852,-0.5098 -1.32582,-0.70711 -0.0751,-0.0751 -0.10168,-0.19006 -0.17678,-0.26516 -0.0772,-0.0772 -0.48433,-0.40744 -0.53033,-0.44194 -0.0236,-0.0177 -0.0676,0.0208 -0.0884,0 -0.0785,-0.0785 -0.12337,-0.3356 -0.26516,-0.44195 -0.26769,-0.20076 -0.54384,-0.34159 -0.7955,-0.53033 -0.36621,-0.27465 -0.72104,-0.31965 -1.14905,-0.44194 -0.25338,-0.0724 -0.46243,-0.25565 -0.7071,-0.35355 -0.11279,-0.0451 -0.2449,-0.0341 -0.35356,-0.0884 -0.58449,-0.29225 -1.19212,-0.71593 -1.67937,-1.14905 -0.4394,-0.39057 -0.14794,-0.25381 -0.7955,-0.70711 -0.29381,-0.20566 -0.66634,-0.42751 -0.97227,-0.61871 -0.22347,-0.13967 -0.50466,-0.18485 -0.70711,-0.35356 -0.0816,-0.068 -0.0938,-0.19876 -0.17678,-0.26516 -0.1708,-0.13668 -1.08919,-0.17678 -1.32582,-0.17678 -0.1416,0 -0.61295,-0.0521 -0.7955,0 -0.32252,0.0922 -0.64846,0.27265 -0.97227,0.35355 -0.0572,0.0143 -0.12207,-0.0219 -0.17677,0 -0.0986,0.0395 -0.17017,0.12928 -0.26517,0.17678 -0.14191,0.071 -0.3074,0.0927 -0.44194,0.17678 -0.106,0.0663 -0.16517,0.19016 -0.26517,0.26516 -0.87869,0.65903 -0.0399,-0.0618 -0.79549,0.44194 -0.0497,0.0331 -0.48433,0.39595 -0.53033,0.44195 -0.0208,0.0208 0.0245,0.0721 0,0.0884 -0.0775,0.0517 -0.18427,0.0422 -0.26517,0.0884 -0.1279,0.0731 -0.22179,0.19927 -0.35355,0.26517 -0.32336,0.16168 -1.85682,-0.15158 -2.03293,-0.17678 -0.98676,-0.14096 -2.02835,-0.26287 -2.91682,-0.70711 -0.25299,-0.12649 -0.77005,0 -1.06066,0 h -2.74004 c -0.35314,0 -2.3605,0.10138 -2.56326,0 -0.095,-0.0475 -0.16438,-0.14317 -0.26516,-0.17677 -0.0839,-0.0279 -0.17847,0.0173 -0.26517,0 -0.0646,-0.0129 -0.11157,-0.0794 -0.17677,-0.0884 -0.38029,-0.0543 -0.7782,0.10586 -1.14905,-0.0884 -0.84469,-0.14906 -0.73301,-0.23086 -1.59099,-0.26516 -1.94144,-0.0777 -3.89136,0.0566 -5.96622,-0.17678 -0.70698,-0.17678 -1.74233,-0.3814 -2.2539,-0.17678 -1.16635,0.46654 -0.61056,0.15747 -1.59099,0.35356 -0.18272,0.0365 -0.35355,0.11787 -0.53033,0.17677 -0.11785,0.0589 -0.22573,0.14478 -0.35355,0.17678 -0.45308,0.11327 -0.97147,0.13218 -1.41422,0.35355 -0.0745,0.0373 -0.0978,0.15048 -0.17677,0.17678 -0.39132,0.13044 -0.82815,-0.0512 -1.23744,0 -0.48216,0.0603 -0.95924,0.18294 -1.41421,0.35355 -0.19894,0.0746 -0.32878,0.28636 -0.53033,0.35356 -0.34004,0.11337 -0.71735,0.0738 -1.06067,0.17677 -0.2524,0.0757 -0.46036,0.26106 -0.7071,0.35356 -1.59332,0.59749 -3.34472,0.70242 -4.94975,1.23743 -0.30104,0.10035 -0.57994,0.26236 -0.88388,0.35356 -1.17751,0.35325 -0.84799,0.0449 -2.2981,0.17677 -0.42722,0.0388 -0.81678,0.26946 -1.23744,0.35356 -0.22097,0.0442 -0.26516,-0.0884 -0.53033,0 -0.25,0.0833 -0.45469,0.27785 -0.7071,0.35355 -1.07943,0.32383 -2.28333,0.34863 -3.35876,0.70711 -0.91617,0.30539 -0.55245,0.48456 -1.59099,0.7071 -0.52175,0.11178 -1.0636,0.0957 -1.59099,0.17678 -0.60043,0.0924 -1.01232,0.4146 -1.59099,0.53033 -1.03608,0.20722 -2.12915,0.37993 -3.18198,0.53033 -0.23334,0.0333 -0.47461,-0.0387 -0.70711,0 -0.97424,0.16237 -1.87235,0.64486 -2.82843,0.88388 -1.54192,0.38549 -3.05233,0.22156 -4.59619,0.53033 -0.42065,0.0841 -0.81944,0.25706 -1.23744,0.35356 -0.28938,0.0668 -1.60417,0.24009 -1.94454,0.35355 -0.76738,0.25579 -1.46809,0.60336 -2.2981,0.70711 -0.76584,0.0958 -1.52759,0.10677 -2.29809,0.17677 -1.02326,0.093 -1.97736,0.43693 -3.00521,0.53033 -0.23473,0.0213 -0.47702,-0.0511 -0.70711,0 -0.30976,0.0688 -0.57603,0.27656 -0.88388,0.35356 -0.1715,0.0429 -0.35776,-0.0384 -0.53033,0 -0.3638,0.0808 -0.70111,0.25545 -1.06066,0.35355 -1.33228,0.36335 -3.53474,0.59826 -4.94975,0.70711 -2.49263,0.19174 -0.0547,-0.17257 -2.29809,0 -0.77277,0.0594 -1.52534,0.29415 -2.2981,0.35355 -0.52877,0.0407 -1.07096,-0.104 -1.59099,0 -1.47786,0.29557 -2.91564,0.69591 -4.41942,0.88389 -0.52623,0.0658 -1.07329,-0.11505 -1.59099,0 -0.30977,0.0688 -0.57468,0.28215 -0.88388,0.35355 -0.7552,0.17427 -1.52779,0.26795 -2.2981,0.35355 -0.81874,0.091 -1.45791,0.009 -2.2981,0.17678 -1.66706,0.33341 0.27412,-0.0324 -1.41421,0.53033 -0.8216,0.27387 -1.98333,0.46533 -2.82843,0.53033 -0.35251,0.0271 -0.70814,-0.0271 -1.06066,0 -1.48788,0.11445 -2.94185,0.54879 -4.41941,0.70711 -1.81005,0.19393 -3.68407,0.14547 -5.48008,0.53033 -0.36441,0.0781 -0.69753,0.26975 -1.06066,0.35355 -1.62496,0.37499 -0.78893,0.051 -2.2981,0.17678 -0.35719,0.0298 -0.70711,0.11787 -1.06066,0.17677 -0.29463,0.0589 -0.58465,0.14958 -0.88388,0.17678 -0.3521,0.032 -0.70711,0 -1.06066,0 -0.29463,0.0589 -0.58574,0.13948 -0.88389,0.17678 -0.56974,0.0712 -1.20537,-0.11248 -1.76776,0 -0.31116,0.0622 -0.57272,0.29135 -0.88389,0.35355 -0.2889,0.0578 -0.59326,-0.0484 -0.88388,0 -0.42315,0.0705 -0.81678,0.26945 -1.23744,0.35355 -0.34668,0.0693 -0.70886,-0.0352 -1.06066,0 -0.29897,0.0299 -0.58491,0.14688 -0.88388,0.17678 -0.99211,0.0992 -2.01134,-0.0828 -3.0052,0 -1.61469,0.13458 -3.14155,0.17678 -4.77298,0.17678 -0.91809,0 -1.91742,-0.11388 -2.82842,0 -0.73034,0.0913 -1.38254,0.43793 -2.12132,0.53033 -1.7058,0.21322 -3.5798,0 -5.3033,0 -0.87065,0 -1.61774,0.17677 -2.47488,0.17677 -0.83128,0 -1.82636,-0.13755 -2.65165,0 -0.83231,0.13872 -1.43304,0.44383 -2.29809,0.53033 -0.64497,0.0645 -1.29861,-0.0538 -1.94455,0 -0.65653,0.0547 -1.278,0.35656 -1.94454,0.35356 -3.93702,0.32808 4.63649,-1.00538 -4.06587,0.53033 -1.56969,0.21405 -3.35568,0 -4.94974,0 -1.69592,0 -3.43336,-0.10583 -5.12653,0 -1.0554,0.066 -1.8263,0.18326 -2.82842,0.17677 l -3.99892,-0.0259 c -0.0827,3.02542 0.10602,2.85364 -0.20849,5.21492 -0.17335,1.30143 0.39218,2.72113 -0.0352,4.00336 -0.0263,0.0791 -0.15656,0.0959 -0.17677,0.17678 -0.15353,0.61412 -0.0245,1.33562 -0.17678,1.94454 -0.22753,0.91014 -0.37217,1.87949 -0.53033,2.82843 -0.0388,0.23249 0.0572,0.47844 0,0.70711 -0.17296,0.69184 -0.17206,1.39535 -0.35355,2.12132 -0.10148,0.40589 -0.28545,0.82881 -0.35356,1.23743 -0.21022,1.26133 0.21023,2.62776 0,3.88909 -0.11084,0.66506 -0.40979,1.34189 -0.53033,1.94454 -0.10564,0.52824 -0.0464,2.0836 -0.17677,2.47488 -0.18328,0.54982 -0.58491,0.98 -0.70711,1.59099 -0.0784,0.39183 0.0969,0.84993 0,1.23743 -0.1184,0.47361 -0.23069,0.92275 -0.35355,1.41422 -0.22702,0.90807 0,3.50168 0,4.59619 0,0.29463 0.0932,0.60438 0,0.88389 -0.33744,1.01231 -0.72554,1.99984 -1.06066,3.0052 -0.26517,0.79549 0.53033,-0.88388 0,0.53033 -0.60081,1.60214 -1.69471,3.20089 -1.94455,4.94975 -0.18077,1.26543 0.24351,0.15336 -0.17677,1.41421 -0.2015,0.60448 -0.14663,0.13155 -0.53033,0.70711 -0.27927,0.4189 -0.40823,0.92578 -0.53033,1.41421 -0.0429,0.1715 0.0559,0.36263 0,0.53033 -0.1668,0.50038 -0.5524,0.97215 -0.70711,1.59099 -0.25313,1.01253 -0.11359,2.03282 -0.53033,3.0052 -0.0657,0.1532 -0.27902,0.20449 -0.35355,0.35356 -0.0953,0.19067 0.0519,0.67619 0,0.88388 -0.11618,0.46472 -0.43686,0.94683 -0.53033,1.41422 -0.0693,0.34668 0.05,0.71066 0,1.06066 -0.10296,0.72067 0.0584,1.06285 -0.004,1.80682 -0.0623,0.74397 -0.55468,1.56042 -0.20113,2.32828 l 5.3033,0.53033 c 3.26689,0.32669 7.0421,-1.32578 10.28139,-0.24602 0.22361,0.0745 0.47971,-0.062 0.70711,0 0.48572,0.13247 0.93198,0.38566 1.41421,0.53033 0.26849,0.0805 0.6118,-0.068 0.88388,0 0.12783,0.032 0.23571,0.11785 0.35356,0.17678 0.4714,0.11785 0.93773,0.25826 1.41421,0.35355 0.11556,0.0231 0.24175,-0.0373 0.35355,0 0.0791,0.0264 0.0977,0.15043 0.17678,0.17678 0.1118,0.0373 0.23922,-0.0286 0.35355,0 0.87195,0.21799 1.74783,0.75476 2.65165,0.88388 0.23334,0.0333 0.47845,-0.0572 0.70711,0 0.25566,0.0639 0.4547,0.27783 0.70711,0.35356 0.34331,0.10299 0.71486,0.0825 1.06066,0.17677 0.61228,0.16699 1.16568,0.50642 1.76776,0.70711 1.61191,0.5373 3.31146,0.82786 4.94975,1.23744 1.06624,0.26656 2.27005,0.55157 3.35876,0.7071 0.175,0.025 0.35883,-0.0429 0.53033,0 0.30785,0.077 0.57994,0.26237 0.88388,0.35356 0.52036,0.1561 1.06863,0.2043 1.59099,0.35355 0.94462,0.26989 1.87704,0.64604 2.82843,0.88388 1.55196,0.388 3.22899,0.19245 4.77297,0.70711 0.20156,0.0672 0.3403,0.25854 0.53033,0.35355 0.8322,0.4161 2.3904,1.00689 3.0052,1.23744 3.79387,1.4227 0.60838,0.16 3.53554,1.06066 1.523,0.46862 0.23862,0.28063 1.94454,0.70711 0.8185,0.20462 1.65128,0.34731 2.47488,0.53033 0.50475,0.11217 1.08055,-0.0851 1.59099,0 1.27027,0.21171 2.49398,0.8791 3.71231,1.23743 0.93701,0.2756 2.06077,0.471 3.0052,0.70711 0.98501,0.24625 1.91938,1.00101 2.82843,1.41422 0.22118,0.10053 0.50108,0.048 0.7071,0.17677 0.64614,0.64614 0.56437,0.65682 1.23744,1.06066 0.70079,0.42047 1.54433,0.83723 1.85615,1.45841 0.51992,-1.52595 0.45806,-1.57095 2.03294,-3.31456 0.18631,-0.20627 0.49198,-0.26594 0.70711,-0.44194 0.11401,-0.0933 0.16099,-0.24939 0.26516,-0.35356 0.42827,-0.42827 1.72666,-0.50443 2.2981,-0.61872 0.41365,-0.0827 0.81817,-0.21858 1.23743,-0.26516 0.33113,-0.0368 0.80194,-0.006 1.06066,-0.26517 0.0466,-0.0466 0.0418,-0.13019 0.0884,-0.17677 0.27826,-0.27826 0.46221,-0.19021 0.7955,-0.61872 0.11162,-0.14352 0.16697,-0.60892 0.35355,-0.7955 0.0466,-0.0466 0.13019,-0.0418 0.17678,-0.0884 0.0658,-0.0658 0.12683,-0.30361 0.17678,-0.35355 0.10765,-0.10765 0.19747,-0.0414 0.26516,-0.17678 0.10785,-0.2157 0.12726,-0.47725 0.26517,-0.7071 0.0631,-0.10517 0.30969,-0.214 0.35355,-0.26517 0.1118,-0.13043 0.16209,-0.3045 0.26516,-0.44194 0.075,-0.1 0.19251,-0.16345 0.26517,-0.26516 0.0766,-0.10722 0.0945,-0.25067 0.17678,-0.35356 0.0412,-0.0514 0.13019,-0.0418 0.17677,-0.0884 0.0466,-0.0466 0.0369,-0.13562 0.0884,-0.17677 0.10289,-0.0823 0.24814,-0.0977 0.35355,-0.17678 0.21731,-0.16298 0.41248,-0.35355 0.61872,-0.53033 0.12655,-0.10846 0.22701,-0.24509 0.35356,-0.35355 0.35131,-0.30113 0.23069,-0.0539 0.61871,-0.44194 0.0751,-0.0751 0.10167,-0.19005 0.17678,-0.26517 0.70431,-0.70431 0.15032,-0.0719 0.88388,-0.53033 0.106,-0.0663 0.16517,-0.19016 0.26517,-0.26516 0.56062,-0.42047 1.26458,-0.94553 1.85615,-1.32583 0.16626,-0.10688 0.35962,-0.16558 0.53033,-0.26516 0.60974,-0.35568 1.258,-0.8547 1.94455,-1.06066 0.17166,-0.0515 0.36393,-0.0218 0.53033,-0.0884 0.13678,-0.0547 0.21677,-0.21046 0.35355,-0.26517 0.1664,-0.0666 0.35588,-0.0473 0.53033,-0.0884 0.61269,-0.14416 1.24371,-0.28883 1.85616,-0.44194 0.56174,-0.14043 1.13957,-0.3279 1.67938,-0.53033 0.12337,-0.0463 0.22686,-0.14058 0.35355,-0.17678 0.085,-0.0243 0.17798,0.0145 0.26516,0 0.26339,-0.0439 0.36113,-0.16856 0.61872,-0.26516 0.36663,-0.13748 0.77677,-0.15348 1.14905,-0.26517 0.15197,-0.0456 0.28584,-0.14839 0.44194,-0.17677 0.17393,-0.0316 0.35533,0.025 0.53033,0 0.77155,-0.11022 0.56585,-0.18566 1.23744,-0.35356 0.33172,-0.0829 0.72894,-0.0938 1.06066,-0.17677 0.29842,-0.0746 0.58005,-0.21719 0.88388,-0.26517 0.43654,-0.0689 0.89102,0.0791 1.32583,0 0.44075,-0.0801 0.88823,-0.35442 1.32582,-0.44194 0.47524,-0.0951 0.0577,0.15207 0.61872,-0.0884 0.0976,-0.0418 0.16654,-0.13732 0.26517,-0.17677 0.13677,-0.0547 0.29663,0.0242 0.44194,0 0.0919,-0.0153 0.17293,-0.0752 0.26516,-0.0884 0.34374,-0.0491 0.5156,0.0737 0.88389,0 0.28454,-0.0569 0.51554,-0.27721 0.79549,-0.35356 0.1729,-0.0471 0.35743,-0.0412 0.53033,-0.0884 1.08081,-0.29477 -0.18648,-0.0868 0.88389,-0.26517 0.29637,-0.0494 0.58644,-0.13428 0.88388,-0.17678 0.37123,-0.053 0.39775,0.0663 0.79549,0 0.21158,-0.0353 0.40715,-0.14151 0.61872,-0.17677 0.14531,-0.0242 0.29553,0.0163 0.44195,0 0.64977,-0.0722 1.32749,-0.14787 1.94454,-0.35356 0.34493,-0.11497 1.21031,0 1.59099,0 h 3.09359 c 2.02796,0 4.07997,-0.0951 6.0988,0.0884 0.55066,0.0501 1.05727,0.23039 1.59099,0.35356 0.92231,0.21284 0.14835,0.006 0.97227,0.0884 0.54131,0.0541 1.05768,0.26467 1.59099,0.35356 0.4969,0.0828 -0.2899,-0.18502 0.53033,0.0884 0.34271,0.11423 0.61116,0.28133 0.97227,0.35355 0.11556,0.0231 0.2376,-0.0211 0.35355,0 0.38675,0.0703 0.76982,0.16174 1.14905,0.26516 0.45339,0.12366 0.93693,0.35946 1.32583,0.61872 0.12257,0.0817 0.22179,0.19929 0.35355,0.26517 0.10866,0.0543 0.24939,0.0259 0.35356,0.0884 0.0565,0.0339 0.0336,0.14023 0.0884,0.17677 0.049,0.0327 0.12408,-0.0263 0.17678,0 0.0745,0.0373 0.11011,0.12678 0.17678,0.17678 0.40655,0.30492 -0.0928,-0.17974 0.44194,0.17678 0.21921,0.14614 0.39792,0.38313 0.61872,0.53033 0.31927,0.21284 0.66789,0.37521 0.97227,0.61871 0.68852,0.55082 0.23895,0.25139 0.61872,0.70711 0.25919,0.31103 0.61734,0.49087 0.88388,0.7955 0.2948,0.33691 0.5057,0.72256 0.7955,1.06066 0.17214,0.20083 0.46501,0.40352 0.61871,0.61872 0.0766,0.10721 0.0977,0.24814 0.17678,0.35355 0.1,0.13333 0.24944,0.22341 0.35355,0.35355 0.43638,0.54548 0.77781,1.15409 1.23744,1.67938 0.35449,0.40513 0.77791,0.68952 1.14905,1.06066 0.58394,0.58394 -0.5302,-0.0706 0.70711,0.7955 0.0995,0.0697 0.25247,0.021 0.35355,0.0884 0.0884,0.0589 0.10166,0.19005 0.17678,0.26517 0.27505,0.27505 0.67203,0.45691 0.97227,0.70711 0.096,0.08 0.15589,0.20446 0.26516,0.26516 0.16289,0.0905 0.35586,0.11135 0.53033,0.17678 0.0617,0.0231 0.11785,0.0589 0.17678,0.0884 0.0589,0.0589 0.10063,0.14293 0.17678,0.17677 1.41489,0.62884 -0.0565,-0.20503 1.06066,0.35356 0.41844,0.20922 0.42978,0.32841 0.88388,0.44194 0.56713,0.14178 1.19274,0.16933 1.76777,0.26516 1.21888,0.20315 2.30329,0.26517 3.53553,0.26517 0.60656,0 1.25351,0.067 1.85616,0 0.31895,-0.0354 0.49533,-0.0884 0.79549,-0.0884 1.5373,-0.0947 3.02607,0.38314 4.54468,0.54732 0.58143,0.0629 1.16584,0.0972 1.75,0.125 0.18729,0.009 0.37603,-0.0196 0.5625,0 0.3922,0.0413 0.74174,0.19525 1.125,0.25 0.10312,0.0147 0.21368,-0.0329 0.3125,0 1.0182,0.3394 -0.8693,-0.1392 0.6875,0.25 0.67274,0.16818 1.38111,0.31725 2.0625,0.4375 0.0821,0.0145 0.16828,-0.0163 0.25,0 0.1292,0.0258 0.24717,0.093 0.375,0.125 0.56342,0.14085 1.17594,0.24496 1.75,0.3125 0.3171,0.0373 0.62393,0.0466 0.9375,0.125 0.0761,0.019 0.17795,-0.0288 0.25,0 0.93489,0.37396 -0.61929,-0.15185 0.625,0.1875 0.23525,0.0642 0.45616,0.17289 0.6875,0.25 0.94749,0.31583 1.89453,0.63423 2.875,0.8125 0.43284,0.0787 0.81319,0.34043 1.25,0.4375 0.34462,0.0766 0.71281,0.13754 1.0625,0.1875 0.12374,0.0177 0.25076,-0.0138 0.375,0 0.3865,0.082 0.88035,0.002 1.19141,-0.008 0.1868,-0.42744 0.49196,-0.38699 1.30859,-0.55469 z"
         id="path62" />
    </g>
  </g>
</svg>
