<?xml version="1.0" encoding="UTF-8" standalone="no"?>
<!-- Created with Inkscape (http://www.inkscape.org/) -->

<svg
   version="1.1"
   id="svg1"
   width="180.87495"
   height="141.84375"
   viewBox="0 0 180.87495 141.84375"
   xmlns="http://www.w3.org/2000/svg"
   xmlns:svg="http://www.w3.org/2000/svg">
  <defs
     id="defs1" />
  <g
     id="layer1"
     style="display:inline"
     transform="translate(-257.43755,-186.125)">
    <g
       id="layer43"
       style="display:inline;fill:#ffffff;fill-opacity:1;stroke:none">
      <path
         style="fill:#ffffff;fill-opacity:1;stroke:none;stroke-linecap:round"
         d="M 380.3125,198.25 392,189.5625 l 5.9375,-2.9375 4.5,-0.5 5.8125,0.5625 6.25,3.25 2.4375,2.75 3.4375,0.9375 7.4375,6.3125 6.625,5.1875 1.125,9.5 2.75,10.375 -13.75,4 -11.25,10.25 0.3125,2.75 -3.5,3.9375 -1.5625,9.25 -2.3125,0.9375 -0.8125,-1.125 -8.4375,2.1875 -6.4375,5.9375 -2.125,6.125 0.5,0.5625 2.875,1.125 -0.9375,2.3125 -1.96875,2.375 -0.0937,1.46875 2.65625,1.28125 0.84375,3.375 1.75,2.375 -0.75,4.4375 -1.1875,0.78125 0.75,4.375 2.59375,0.53125 4.375,3.75 0.625,4.78125 -3.21875,1.375 V 306.5 l -2.15625,2.34375 -5.78125,0.5625 -2.9375,3.53125 -6.5625,-1.4375 -4.5,0.78125 -2.28125,10.8125 -17.28125,4.03125 -40.96875,0.84375 -12.75,-0.9375 -1.5,-3.34375 1.6875,-4.65625 1.84375,-10.15625 -6.125,-11.9375 -4.125,-9.5625 -6.34375,-7.34375 -10.6875,-8.34375 -16.34375,-6.96875 -3,-2.40625 6.9375,-8.28125 -2.375,-11.5625 -2.59375,-3.78125 1.65625,-6.34375 3.125,-7.875 4.15625,-3.59375 8.375,-4.25 10.34375,-1.09375 4.65625,1.78125 4.8125,2.84375 10.40625,-2.125 10.03125,3.96875 13.5,2.375 13.6875,-0.75 3.71875,-1.8125 L 349.59375,219 354,217.65625 355.40625,214 l 20.71875,-8.625 3.46875,-3.90625 0.6875,-3.5 z"
         id="path41" />
    </g>
  </g>
</svg>
