<?xml version="1.0" encoding="UTF-8" standalone="no"?>
<!-- Created with Inkscape (http://www.inkscape.org/) -->

<svg
   version="1.1"
   id="svg2"
   width="178.89809"
   height="142.12929"
   viewBox="0 0 178.89809 142.12929"
   xmlns="http://www.w3.org/2000/svg"
   xmlns:svg="http://www.w3.org/2000/svg">
  <defs
     id="defs6">
    <linearGradient
       id="swatch77">
      <stop
         style="stop-color:#e2c69e;stop-opacity:1;"
         offset="0"
         id="stop77" />
    </linearGradient>
  </defs>
  <g
     id="layer66"
     style="display:inline"
     transform="translate(-258.88945,-185.57622)">
    <g
       id="layer23"
       style="display:inline">
      <path
         style="fill:#969696;fill-opacity:1;stroke:none;stroke-width:1;stroke-dasharray:none;stroke-opacity:1"
         d="m 382.54477,197.1944 c 0.0208,-0.0208 -0.0208,-0.0676 0,-0.0884 0.0208,-0.0208 0.0675,0.0208 0.0884,0 0.0466,-0.0466 0.0418,-0.13019 0.0884,-0.17677 0.0466,-0.0466 0.1302,-0.0418 0.17678,-0.0884 0.0658,-0.0658 0.12684,-0.30361 0.17678,-0.35355 0.0208,-0.0208 0.0675,0.0208 0.0884,0 0.0932,-0.0932 0.10368,-0.24392 0.17677,-0.35356 0.0693,-0.104 0.19017,-0.16516 0.26517,-0.26516 0.19473,-0.0445 0.0467,-0.18183 0.0884,-0.26517 0.0888,-0.17771 0.30274,-0.32708 0.35355,-0.53033 0.0143,-0.0572 -0.0327,-0.12774 0,-0.17677 0.001,-0.002 0.4381,-0.35099 0.44194,-0.35356 0.24206,-0.16137 0.62072,-0.0226 0.88388,-0.0884 0.0639,-0.016 0.11287,-0.0724 0.17678,-0.0884 0.11433,-0.0286 0.24815,0.0527 0.35355,0 0.0745,-0.0373 0.10744,-0.13056 0.17678,-0.17678 0.22302,-0.14868 0.36053,-0.0954 0.61872,-0.35355 0.0225,-0.0225 0.30438,-0.48116 0.35355,-0.53033 0.0751,-0.0751 0.18222,-0.11042 0.26517,-0.17678 0.56943,-0.45554 0.0453,-0.002 0.17678,-0.26517 0.0674,-0.13475 1.16824,-0.99762 1.32582,-1.06066 0.19149,-0.0766 0.41407,0.0256 0.61872,0 0.38716,-0.0484 0.75928,-0.2002 1.14905,-0.26516 0.26588,-0.0443 0.31511,0.0634 0.61872,-0.0884 0.17038,-0.17038 0.14412,-0.18139 0.35355,-0.26516 0.0865,-0.0346 0.18764,-0.0367 0.26516,-0.0884 0.0245,-0.0163 -0.0208,-0.0676 0,-0.0884 0.29988,-0.29987 0.006,0.0765 0.17678,-0.26517 0.0862,-0.17238 0.82745,-1.20922 1.06066,-1.32582 0.0773,-0.0386 0.27892,0.0187 0.35355,0 0.19245,-0.0481 0.32152,-0.14198 0.53033,-0.17678 0.17438,-0.0291 0.35533,0.025 0.53033,0 0.56364,-0.0805 1.25887,-0.0991 1.76777,-0.35355 0.16335,-0.0817 0.87482,-0.68897 0.97227,-0.88388 0.0264,-0.0527 -0.0219,-0.12207 0,-0.17678 0.0947,-0.23676 0.66935,-0.865 0.88389,-0.97227 0.0747,-0.0374 0.2796,-0.15829 0.35355,-0.17678 0.49593,-0.12398 0.0363,0.15864 0.53033,-0.0884 0.095,-0.0475 0.17015,-0.12927 0.26517,-0.17678 0.079,-0.0395 0.17849,0.0173 0.26516,0 0.29026,-0.0581 0.49343,-0.22201 0.7955,-0.26516 0.1737,-0.0248 1.22322,-0.0813 1.23743,-0.0884 0.12014,-0.0601 0.23342,-0.2051 0.35356,-0.26516 0.1664,-0.0832 0.43319,0.0464 0.61871,0 0.0639,-0.016 0.11786,-0.0589 0.17678,-0.0884 0.11785,-0.0295 0.23373,-0.0684 0.35355,-0.0884 0.29196,-0.0487 2.72685,-0.0557 3.00521,0 0.16019,0.032 0.37013,0.14474 0.53033,0.17678 0.39284,0.0786 -0.58926,-0.23571 0.35355,0 0.0404,0.0101 0.0511,0.0698 0.0884,0.0884 0.0743,0.0371 0.30218,0.037 0.35355,0.0884 0.0751,0.0751 0.10166,0.19005 0.17678,0.26517 0.0417,0.0417 0.13511,-0.0417 0.17678,0 0.11197,0.11197 0.32272,0.52931 0.44194,0.61872 0.0884,0.0295 0.17678,0.0589 0.26516,0.0884 0,0.0295 -0.0208,0.0676 0,0.0884 0.0923,0.0923 0.33186,0.0569 0.44195,0.0884 0.32109,-0.17696 0.28243,0.20136 0.44194,0.26517 0.23372,0.0935 0.46829,0.18556 0.7071,0.26516 0.0839,0.028 0.18132,-0.028 0.26517,0 0.2468,0.0823 0.46534,0.25685 0.70711,0.35356 0.28353,0.11341 0.63213,0.0638 0.88388,0.26516 0.12552,0.10042 0.7106,0.53382 0.79549,0.61872 0.0208,0.0208 -0.0163,0.0639 0,0.0884 0.16343,0.24514 0.34945,0.47454 0.53033,0.7071 0.75812,0.97473 0.0289,0.10283 0.35356,0.26517 0.36785,0.18392 -0.0945,-0.006 0.0884,0.17678 0.0466,0.0466 0.12407,0.0489 0.17677,0.0884 0.63578,0.47684 -0.18653,-0.0981 0.26517,0.35356 0.0665,0.0665 0.39384,0.21706 0.44194,0.26516 0.0466,0.0466 0.0418,0.13019 0.0884,0.17678 0.0208,0.0208 0.062,-0.0132 0.0884,0 0.24785,0.12393 0.51022,0.28223 0.79549,0.35355 0.14575,0.0364 0.30128,0.0356 0.44194,0.0884 0.0995,0.0373 0.17015,0.12927 0.26517,0.17678 0.22172,0.11086 0.55926,0.0587 0.79549,0.17677 0.56471,0.28236 0.7165,1.02351 1.23744,1.41422 0.0471,0.0354 0.12407,-0.0263 0.17678,0 0.60743,0.30372 1.29964,0.46527 1.94454,0.7071 0.31184,0.11695 0.43351,0.27779 0.70711,0.44195 0.22544,0.13526 0.48944,0.22295 0.7071,0.35355 0.25157,0.15094 0.0799,0.19676 0.35356,0.26516 0.0572,0.0143 0.12775,-0.0327 0.17677,0 0.0548,0.0366 0.0369,0.13563 0.0884,0.17678 0.14309,0.11448 0.45617,0.27228 0.61872,0.35355 0.13537,0.0677 0.0691,0.15751 0.17678,0.26517 0.0295,0.0295 0.2357,0.0589 0.26516,0.0884 0.0831,0.083 0.14151,0.47742 0.17678,0.53033 0.0365,0.0548 0.13019,0.0418 0.17678,0.0884 0.11009,0.11009 0.11401,0.40481 0.17677,0.53033 0.0707,0.14142 0.28285,0.21213 0.35356,0.35355 0.0884,0.17678 -0.17678,0 0,0.26516 0.0365,0.0548 0.13019,0.0418 0.17677,0.0884 0.0466,0.0466 0.0418,0.1302 0.0884,0.17678 0.0208,0.0208 0.0707,-0.0236 0.0884,0 0.25659,0.34213 0.40083,0.84277 0.70711,1.14905 0.0751,0.0751 0.19603,0.0961 0.26516,0.17678 0.1118,0.13043 0.16987,0.29899 0.26517,0.44194 0.18069,0.27104 0.50294,0.4519 0.7071,0.7071 0.0664,0.083 0.0918,0.20143 0.17678,0.26517 0.0471,0.0353 0.12625,-0.0303 0.17678,0 0.20632,0.12379 0.77416,0.91959 0.88388,1.06066 0.36829,0.47352 0.86327,0.85812 1.23744,1.32582 0.0664,0.083 0.10166,0.19005 0.17677,0.26517 0.0751,0.0751 0.19716,0.0952 0.26517,0.17678 0.0844,0.10122 0.0836,0.26038 0.17678,0.35355 0.0932,0.0932 0.24633,0.10019 0.35355,0.17678 0.29142,0.20815 0.33213,0.31539 0.61872,0.53033 0.0236,0.0177 0.0589,0 0.0884,0 0.11785,0.0884 0.23852,0.17313 0.35355,0.26516 0.30908,0.24727 0.55559,0.57664 0.88388,0.7955 0.1392,0.0344 0.23235,0.21805 0.35343,0.28724 0.0264,0.0151 0.0602,0.0108 0.0884,0.0221 0.0657,0.0263 0.12834,0.10906 0.19888,0.13258 0.021,0.007 0.0448,-0.005 0.0663,0 0.0258,0.006 0.0411,0.0358 0.0663,0.0442 0.007,0.002 0.0147,0 0.0221,0 0.0295,0.007 0.0596,0.0125 0.0884,0.0221 0.0698,0.0233 0.12777,0.0521 0.19887,0.0663 0.12876,0.0258 0.26998,0.0186 0.39775,0.0442 0.0893,0.0179 0.17476,0.055 0.26516,0.0663 0.0292,0.004 0.0593,-0.005 0.0884,0 0.0163,0.003 0.0279,0.0194 0.0442,0.0221 0.13811,0.023 0.30138,0 0.0994,-0.1768 l -0.34256,3.66809 c 0,0.60717 -0.006,1.20747 0.0442,1.81196 0.004,0.0441 -0.014,0.0907 0,0.13259 0.0168,0.0504 0.0738,0.0815 0.0884,0.13258 0.0362,0.12826 -0.0583,0.27659 0.0442,0.39775 0.007,0.0198 0.0372,0.0244 0.0442,0.0442 0.0919,0.27554 0.11437,0.55879 0.17677,0.83969 0.0634,0.28507 0.21136,0.5654 0.30936,0.83969 0.25638,0.71786 -0.0612,-0.18037 0.13259,0.53033 0.0694,0.2544 0.23231,0.44065 0.35355,0.66291 0.19019,0.34868 0.33889,0.73674 0.48614,1.10486 0.0784,0.19605 0.19046,0.37538 0.26516,0.57452 0.0896,0.23893 0.21497,0.5004 0.26517,0.7513 0.0115,0.0578 -0.0143,0.11958 0,0.17678 0.0258,0.10304 0.10218,0.21806 0.13258,0.30936 0.0965,0.28954 0.14727,0.58912 0.22097,0.88388 0.0333,0.13322 0.0796,0.31832 0.13258,0.44194 0.0209,0.0488 0.0716,0.0822 0.0884,0.13259 0.014,0.0419 -0.006,0.0888 0,0.13258 0.0238,0.16627 0.0843,0.32525 0.13258,0.48613 0.0362,0.12056 0.0995,0.23213 0.13258,0.35356 0.0508,0.18622 0.0649,0.39413 0.13259,0.57452 0.0394,0.10505 0.0971,0.20293 0.13258,0.30936 0.16635,0.49905 0.21166,1.03382 0.30936,1.5468 0.0201,0.10535 0.0651,0.20466 0.0884,0.30936 0.10111,0.45498 0.12011,0.9323 0.39777,1.34788 -0.48517,0.61179 -0.76137,0.43114 -1.14904,0.50819 -0.26966,0.0536 -0.42956,0.12847 -0.70711,0.22097 -0.15052,0.0502 -0.28997,0.13118 -0.44194,0.17678 -0.48089,0.14426 -0.89798,0.33594 -1.37002,0.48613 -0.12942,0.0412 -0.26766,0.0494 -0.39775,0.0884 -0.28788,0.0864 -0.68627,0.23314 -0.97227,0.35356 -0.59251,0.24948 -1.16841,0.56497 -1.76777,0.79549 -0.24364,0.0937 -0.5018,0.14417 -0.7513,0.22097 -0.17023,0.0524 -0.37319,0.13748 -0.53033,0.17678 -0.7006,0.17517 -0.26941,-0.0143 -0.92808,0.22097 -0.22412,0.08 -0.39457,0.28956 -0.66291,0.26516 -0.17571,0.062 -0.35906,0.10338 -0.53033,0.17678 -0.12111,0.0519 -0.23057,0.12948 -0.35355,0.17678 -0.0701,0.027 -0.14737,0.0295 -0.22097,0.0442 -0.0737,0.0295 -0.14737,0.0589 -0.22097,0.0884 -0.10357,0.0432 -0.20624,0.0884 -0.30936,0.13258 -0.0442,0.0295 -0.0844,0.0661 -0.13259,0.0884 -0.3172,0.1464 -0.65919,0.24121 -0.97227,0.39775 -0.0475,0.0238 -0.0841,0.0668 -0.13258,0.0884 -0.42642,0.18952 -0.88233,0.32042 -1.28163,0.57452 -0.28209,0.17951 -0.54822,0.4126 -0.83969,0.57453 -0.0693,0.0385 -0.15677,0.0417 -0.22097,0.0884 -0.10109,0.0735 -0.17177,0.18217 -0.26517,0.26517 -0.55259,0.4912 -1.13222,0.95685 -1.67938,1.45841 -0.15431,0.14145 -0.18939,0.28198 -0.30935,0.44194 -0.16593,0.22123 -0.41642,0.31273 -0.61872,0.48613 -0.15774,0.13521 -0.26827,0.2737 -0.44194,0.39775 -0.0913,0.0652 -0.21126,0.0781 -0.30936,0.13258 -0.14383,0.0799 -0.30787,0.21356 -0.44195,0.30936 -0.18185,0.1299 -0.40141,0.21891 -0.57452,0.35356 -0.10721,0.0834 -0.2033,0.18036 -0.30936,0.26516 -0.10732,0.0859 -0.24853,0.13697 -0.35355,0.22097 -0.20525,0.1642 -0.34755,0.39174 -0.53033,0.57453 -0.0233,0.0233 -0.0589,0.0295 -0.0884,0.0442 -0.19151,0.2357 -0.38302,0.47141 -0.57452,0.70711 -0.065,0.0841 -0.10568,0.18616 -0.17678,0.26516 -0.0631,0.0701 -0.15427,0.11008 -0.22097,0.17678 -0.15989,0.15988 -0.57725,0.71705 -0.70711,0.92808 -0.0691,0.11221 -0.10208,0.24497 -0.17678,0.35355 -0.0887,0.12904 -0.21726,0.22691 -0.30936,0.35355 -0.0274,0.0377 -0.019,0.0934 -0.0442,0.13259 -0.15932,0.24783 -0.37874,0.45446 -0.53033,0.7071 -0.0408,0.068 -0.0508,0.15117 -0.0884,0.22097 -0.0659,0.12237 -0.15597,0.23073 -0.22097,0.35356 -0.75656,1.42906 0.33279,-0.533 -0.30936,0.7513 -0.0475,0.095 -0.13737,0.16656 -0.17677,0.26516 -0.14588,0.36478 -0.16778,0.80621 -0.0221,1.10477 0.15472,0.28101 -0.005,0.21319 -0.11045,0.53023 -0.0265,0.0796 0.0265,0.18556 0,0.26516 -0.0378,0.11339 -0.13897,0.24017 -0.17677,0.35356 -0.0926,0.27766 -0.10247,0.63984 -0.26517,0.88388 -0.10465,0.15697 -0.22015,0.30854 -0.35355,0.44194 -0.0209,0.0208 -0.0721,-0.0245 -0.0884,0 -0.14638,0.2196 -0.002,0.23734 -0.17678,0.35356 -0.90716,0.60477 -2.20563,1.40198 -2.56326,2.47487 -0.10967,0.32901 -0.16986,0.63882 -0.26516,0.97227 -0.0793,0.27764 -0.30446,0.50073 -0.35356,0.7955 -0.0452,0.27125 0,0.61098 0,0.88388 v 2.38649 1.85615 c 0,0.25036 0.0484,0.55339 0,0.7955 -0.0258,0.1292 -0.13507,0.22855 -0.17677,0.35355 -0.0729,0.21855 0.23967,-0.0565 -0.0884,0.35355 -0.19579,0.24478 -0.43688,0.17678 -0.70711,0.17678 -0.37245,0 -0.65823,-0.0198 -0.97227,-0.17678 -0.14079,-0.0704 -0.28166,-0.34614 -0.35356,-0.44194 -0.1176,-0.15681 -0.17074,-0.0824 -0.35355,-0.26516 -0.54574,-0.54572 -0.41003,-0.61872 -1.14905,-0.61872 -0.0589,0 -0.12407,-0.0264 -0.17677,0 -0.0264,0.0132 0.0279,0.0794 0,0.0884 -0.37607,0.12537 -0.19719,-0.0782 -0.70711,0.17677 -0.32591,0.16296 -0.51155,0.583 -0.88388,0.70711 -0.39016,0.13008 0.0488,-0.22559 -0.35356,0.17678 -0.10416,0.0625 -0.26765,0.002 -0.35355,0.0884 -0.0208,0.0208 0,0.0589 0,0.0884 -0.11785,0.0589 -0.2357,0.11788 -0.35355,0.17678 -0.56602,0.18868 0.38245,-0.37282 -0.44195,0.17678 -0.0547,0.0219 -0.12257,-0.0232 -0.17677,0 -0.15791,0.0677 -0.28404,0.19746 -0.44194,0.26516 -0.0542,0.0232 -0.12408,-0.0263 -0.17678,0 -0.51024,0.25517 0.20146,0.13649 -0.44194,0.26517 -0.16594,0.0332 -0.37109,-0.0531 -0.53033,0 -0.13976,0.0466 -0.21191,0.22466 -0.35356,0.26516 -0.14164,0.0405 -0.29462,0 -0.44194,0 -0.0295,0 -0.0595,-0.006 -0.0884,0 -0.50217,0.10048 -1.11281,0.0174 -1.59099,0.17678 -0.5941,0.19803 -1.15068,0.53142 -1.67938,0.88388 -0.0538,0.0359 -0.51183,0.42344 -0.53033,0.44194 -0.0208,0.0208 0.0208,0.0676 0,0.0884 -0.0466,0.0466 -0.12537,0.0472 -0.17677,0.0884 -0.5351,0.42807 -0.96792,0.98646 -1.5026,1.41421 -0.083,0.0664 -0.19007,0.10168 -0.26517,0.17678 -0.12148,0.12148 -0.16209,0.3045 -0.26516,0.44194 -0.11829,0.15772 -0.30972,0.39811 -0.44195,0.53033 -0.0466,0.0466 -0.13457,0.0378 -0.17677,0.0884 -0.17794,0.21353 -0.2713,0.48771 -0.44194,0.70711 -0.14128,0.18164 -0.3143,0.33886 -0.44195,0.53033 -0.0517,0.0775 -0.0467,0.18186 -0.0884,0.26516 -0.0582,0.11643 -0.20697,0.23713 -0.26517,0.35356 -0.0928,0.1855 -0.11388,0.43011 -0.17678,0.61871 -0.0852,0.25552 -0.30592,0.5688 -0.44194,0.7955 -0.0709,0.11811 -0.40414,0.59042 -0.44194,0.61872 -0.085,0.0637 -0.20146,0.0918 -0.26516,0.17677 -0.0729,0.0972 -0.021,0.25248 -0.0884,0.35356 -0.0885,0.13279 -0.28276,0.21199 -0.35356,0.35355 -0.0132,0.0264 0.0208,0.0676 0,0.0884 -0.0466,0.0466 -0.14727,0.0295 -0.17677,0.0884 -0.44555,0.89109 0.31429,-0.28811 -0.17678,0.53033 -0.33876,0.5646 -0.61872,0.54835 -0.61872,1.32582 0,0.29324 -0.0749,0.76098 0,1.06066 0.032,0.12783 0.14478,0.22573 0.17678,0.35356 0.0837,0.33486 -0.10115,0.55128 0.26516,0.79549 0.30046,0.20032 0.0474,0.0119 0.35356,0.0884 0.24421,0.061 0.46026,0.21576 0.7071,0.26516 0.68287,0.13658 2.0244,0.29655 2.47488,0.97228 0.0547,0.082 0,0.74149 0,0.79549 0,0.15439 0.0736,0.63351 0,0.70711 -0.0209,0.0208 -0.0676,-0.0208 -0.0884,0 -0.0658,0.0658 -0.12678,0.30365 -0.17678,0.35355 -0.19191,0.19192 -0.48103,0.29123 -0.7071,0.44194 -0.24515,0.16343 -0.46197,0.3669 -0.70711,0.53033 -0.27522,0.18349 -0.66056,0.34845 -0.97227,0.44195 -0.1439,0.0432 -0.30466,0.0274 -0.44194,0.0884 -0.26924,0.11966 -0.4513,0.38416 -0.70711,0.53033 -0.55231,0.31561 -0.70711,0.25481 -0.70711,0.97228 0,0.14731 -0.0659,0.31018 0,0.44194 0.0132,0.0263 0.0676,-0.0208 0.0884,0 0.0417,0.0417 -0.0417,0.13507 0,0.17677 0.0208,0.0208 0.0676,-0.0208 0.0884,0 0.0293,0.0293 0.15068,0.30136 0.17678,0.35356 0.0559,0.1118 0.19586,0.16116 0.26516,0.26516 0.0163,0.0245 -0.0208,0.0676 0,0.0884 0.28657,0.28657 0.70794,0.44236 1.06066,0.61872 0.13061,0.0653 0.2876,0.22106 0.44194,0.26516 0.14445,0.0413 0.30128,0.0356 0.44194,0.0884 0.24304,0.0911 0.40382,0.33449 0.61872,0.44194 0.0527,0.0264 0.12878,-0.0342 0.17678,0 0.16953,0.1211 0.28189,0.30857 0.44194,0.44195 0.0873,0.0728 0.34036,0.16358 0.44194,0.26516 0.0208,0.0208 -0.0208,0.0676 0,0.0884 0.0466,0.0466 0.12408,0.0489 0.17678,0.0884 0.24977,0.18732 0.27969,0.34829 0.44194,0.61872 0.0643,0.10718 0.19587,0.16116 0.26517,0.26516 0.19746,0.2962 0.34611,0.69595 0.53033,0.97227 0.14087,0.21132 0.20466,0.11177 0.26516,0.35356 0.0552,0.22083 0.0378,2.23516 0,2.38648 -0.0226,0.0904 -0.0731,0.17327 -0.0884,0.26517 -0.0339,0.20343 0.0292,0.41455 0,0.61872 -0.0423,0.29584 -0.30875,0.70372 -0.35355,0.97227 -0.063,0.37802 0.0294,0.57956 -0.0884,0.97227 -0.0456,0.15197 -0.11788,0.29463 -0.17678,0.44194 -0.0295,0.0295 -0.0752,0.0489 -0.0884,0.0884 -0.1348,0.40434 0.23171,-0.0916 -0.0884,0.44194 -0.14145,0.23575 -0.44136,0.35297 -0.61872,0.53033 -0.0751,0.0751 -0.10168,0.19007 -0.17678,0.26517 -0.10416,0.10416 -0.2357,0.17676 -0.35355,0.26516 -0.0295,0.0589 -0.0472,0.12538 -0.0884,0.17678 -0.0781,0.0976 -0.21596,0.15027 -0.26516,0.26516 -0.11606,0.27081 0,0.58926 0,0.88389 0,0.24406 -0.0542,0.49322 0.0884,0.7071 0.0963,0.14436 0.13098,0.0363 0.17678,0.26517 0.0173,0.0867 -0.0214,0.17936 0,0.26516 0.0343,0.13725 0.29935,0.21087 0.35355,0.26517 0.13125,0.13124 0.23913,0.37434 0.44195,0.44194 0.0559,0.0186 0.12777,-0.0327 0.17677,0 0.0548,0.0365 0.0357,0.13728 0.0884,0.17678 0.17951,0.13463 0.41248,0.17676 0.61872,0.26516 0.1902,0.0815 0.42157,0.19947 0.61872,0.26517 0.0796,0.0265 0.18566,-0.0265 0.26516,0 0.1047,0.0349 0.16577,0.21546 0.26517,0.26516 0.0527,0.0264 0.13507,-0.0417 0.17677,0 0.0625,0.0625 -0.049,0.19157 0,0.26517 0.0365,0.0548 0.13018,0.0418 0.17678,0.0884 0.11348,0.11348 0.088,0.30876 0.17678,0.44194 0.0784,0.1176 0.27065,0.18226 0.35355,0.26516 0.0208,0.0208 -0.0208,0.0676 0,0.0884 0.10417,0.10417 0.24939,0.161 0.35355,0.26517 0.55715,0.55714 -0.74153,-0.37938 0.35356,0.44194 0.13744,0.10307 0.3045,0.16208 0.44194,0.26516 0.28382,0.21287 0.54463,0.45624 0.7955,0.70711 0.66906,0.66902 -0.52567,-0.22608 0.53033,0.61872 0.31292,0.25034 0.62433,0.50828 0.97227,0.7071 0.0512,0.0292 0.12407,-0.0264 0.17677,0 0.34867,0.17434 0.63,0.52005 1.14906,0.53034 0.17679,-0.0676 0.23539,0.38334 0.17679,0.44194 -0.0208,0.0208 -0.0589,0 -0.0884,0 -0.0295,0.0884 -0.0589,0.17676 -0.0884,0.26516 -0.0442,0.17677 0.0884,0 0,0.26517 -0.0625,0.1875 -0.22636,0.33652 -0.26516,0.53033 -0.0492,0.24614 -0.0439,3.13861 0,3.27037 0.0543,0.16298 0.17676,0.29462 0.1326,0.48614 -0.33982,0.25149 -0.07,0.0234 -0.39772,0.13259 -0.14361,0.0479 -0.17469,0.22047 -0.35355,0.26517 -0.0858,0.0214 -0.18607,-0.0395 -0.26517,0 -0.22214,0.11107 -0.56771,0.46686 -0.79549,0.61872 -0.10963,0.0731 -0.24815,0.0978 -0.35355,0.17677 -0.35968,0.26976 -0.63161,0.59386 -0.88389,0.97228 -0.0365,0.0548 -0.0418,0.13017 -0.0884,0.17677 -0.21408,0.21408 -0.64768,0.59866 -0.88388,0.7955 -0.44441,0.37034 -0.91236,0.59711 -1.41421,0.88388 -0.17236,0.0985 -0.34126,0.27795 -0.53033,0.35355 -0.0547,0.0219 -0.12628,-0.0303 -0.17678,0 -0.10719,0.0643 -0.16517,0.19017 -0.26517,0.26517 -0.1399,0.10493 -0.45446,0.16666 -0.61871,0.26516 -0.0715,0.0429 -0.10748,0.13058 -0.17678,0.17678 -0.52766,0.35174 -1.23898,0.0388 -1.94454,0.44194 -0.18791,0.10737 -0.79899,0.67667 -0.88389,0.7955 -0.0542,0.0758 -0.0302,0.19236 -0.0884,0.26516 -0.0664,0.083 -0.19006,0.10168 -0.26516,0.17678 -0.22394,0.22394 -0.35529,0.53294 -0.53033,0.79549 -0.27722,0.41583 -1.6813,1.23773 -2.20971,1.32583 -0.0872,0.0145 -0.18126,-0.0279 -0.26516,0 -0.78217,0.26116 0.22106,0.11489 -0.53033,0.26516 -0.47667,0.0953 -2.92805,0.0331 -3.53554,-0.0884 -0.17334,-0.0347 -0.35699,0.0347 -0.53033,0 -0.0409,-0.008 -0.0489,-0.0752 -0.0884,-0.0884 -0.49095,-0.16365 -1.01381,-0.19063 -1.5026,-0.35356 -0.37605,-0.12535 -0.42482,-0.21216 -0.79549,-0.26516 -0.0875,-0.0125 -0.17847,0.0173 -0.26517,0 -0.1292,-0.0258 -0.22573,-0.14478 -0.35355,-0.17678 -0.48738,-0.12184 -1.16985,0 -1.67938,0 -0.59442,0 -1.30068,-0.0968 -1.85616,0.0884 -0.37893,0.12631 -0.53033,0.80958 -0.53033,1.14905 0,0.35096 0.10073,2.27342 0,2.47487 -0.19787,0.39582 -0.0797,0.27013 -0.17677,0.70711 -0.0344,0.15488 -0.13828,0.28802 -0.17678,0.44194 -0.10696,0.42784 0,1.22185 0,1.67938 0,0.35709 -0.0181,0.62052 -0.0884,0.97227 -0.0805,0.40239 0,0.91197 0,1.32583 0,0.0863 -0.049,0.45153 -0.0884,0.53033 -0.0319,0.0637 -1.54819,1.40521 -1.59099,1.41421 -0.11556,0.0231 -0.2357,0 -0.48614,-0.13256 -0.45056,-0.13257 -0.79248,-0.17157 -1.10485,-0.13257 -0.51607,0.0645 -1.28189,0.30312 -1.76776,0.44194 -0.15256,0.0436 -0.29463,0.11787 -0.44195,0.17677 -0.11785,0.0589 -0.22734,0.13888 -0.35355,0.17678 -0.17166,0.0515 -0.3619,0.0271 -0.53033,0.0884 -0.16145,0.0587 -0.28336,0.19906 -0.44194,0.26516 -0.19799,0.0825 -0.42464,0.0855 -0.61872,0.17678 -0.31089,0.1463 -0.58926,0.35356 -0.88388,0.53033 -0.0589,0.0589 -0.10478,0.13478 -0.17678,0.17678 -0.90671,0.52891 -1.87684,0.75255 -2.82843,1.14905 -0.0981,0.0408 -0.16866,0.13227 -0.26516,0.17677 -0.54809,0.25297 -1.27336,0.51285 -1.85616,0.70711 -0.0559,0.0186 -0.12047,-0.0173 -0.17677,0 -0.83184,0.25595 -1.59694,0.53892 -2.47488,0.61872 -0.77808,0.0707 -1.60781,0 -2.38648,0 -1.50465,0 -3.00681,0.0367 -4.50781,-0.0884 -0.23671,-0.0197 -0.4714,-0.0589 -0.70711,-0.0884 -0.20624,-0.0589 -0.40588,-0.15017 -0.61871,-0.17677 -2.22263,-0.27784 0.53327,0.28176 -1.50261,-0.0884 -0.66282,-0.12052 -1.34965,-0.32246 -2.03293,-0.35356 -2.02427,-0.092 -4.07846,0.14966 -6.09879,0 -0.47378,-0.0351 -0.9411,-0.13377 -1.41422,-0.17677 -1.21597,-0.11055 -2.49021,0 -3.71231,0 -1.73453,0 -3.48235,-0.0693 -5.21491,0 -0.68725,0.0275 -1.35253,0.22516 -2.03293,0.26516 -0.32353,0.019 -0.64901,-0.0231 -0.97227,0 -0.0929,0.007 -0.17377,0.0701 -0.26517,0.0884 -0.72808,0.14562 -1.48013,0.2209 -2.20971,0.35355 -0.96724,0.17587 -0.54476,0.11924 -1.32582,0.35356 -0.75732,0.22717 0.0855,-0.0878 -1.14905,0.17677 -0.15514,0.0333 -0.2868,0.14358 -0.44194,0.17678 -0.37892,0.0812 -0.76452,0.12868 -1.14905,0.17678 -0.20465,0.0256 -0.41455,-0.0292 -0.61872,0 -1.08116,0.15447 0.73917,0.0568 -1.06066,0.17677 -1.1382,0.0759 -2.3045,0 -3.44715,0 h -5.74524 -4.77297 c -0.49741,0 -1.45172,0.15801 -1.94454,-0.0884 -0.16897,-0.0845 -0.15825,-0.45835 -0.26517,-0.61872 -0.24969,-0.37454 -0.48554,-0.23531 -0.79549,-0.44194 -0.17335,-0.11557 -0.28516,-0.30476 -0.44195,-0.44195 -0.5169,-0.45229 -0.97401,-1.00191 -1.41423,-0.97225 0.3781,-0.0491 0.83885,-0.79238 0.88385,-0.97226 0.0275,-0.11014 0.0666,-0.752 0.0884,-0.7955 0.0187,-0.0373 0.0783,-0.048 0.0884,-0.0884 0.0614,-0.24561 0,-0.62988 0,-0.88389 v -2.47487 c 0,-0.29463 -0.0578,-0.59498 0,-0.88388 0.0258,-0.12921 0.16228,-0.2226 0.17678,-0.35356 0.0228,-0.20498 -0.0187,-0.41332 0,-0.61872 0.0252,-0.27753 0.12227,-0.61119 0.17677,-0.88388 0.17887,-0.89435 -0.0223,0.5312 0.26517,-0.61872 0.0647,-0.25883 -0.0309,-0.55686 0.0884,-0.79549 0.0475,-0.095 0.14047,-0.16537 0.17677,-0.26517 0.0831,-0.22833 0.11788,-0.4714 0.17678,-0.7071 0,-0.0589 -0.0162,-0.12008 0,-0.17678 0.0436,-0.15256 0.11788,-0.29463 0.17678,-0.44194 0.0295,-0.0295 0.072,-0.0501 0.0884,-0.0884 0.0845,-0.19729 0.21676,-0.6418 0.26516,-0.88389 0.0953,-0.47654 0.0711,-0.93881 0.17678,-1.41421 0.0143,-0.0643 0.0814,-0.11128 0.0884,-0.17678 0.0775,-0.69791 -0.13439,-1.09076 0.26516,-1.76776 l -1.32575,-2.82835 c 0,-0.24145 -0.16186,-0.32372 -0.26517,-0.53033 -0.23237,-0.46473 -0.48255,-1.00332 -0.61872,-1.5026 -0.18059,-0.66217 -0.31272,-1.38012 -0.53033,-2.03293 -0.0132,-0.0395 -0.0677,-0.0522 -0.0884,-0.0884 -0.0593,-0.10377 -0.48333,-1.07295 -0.53033,-1.23744 -0.0573,-0.20032 -0.0225,-0.42107 -0.0884,-0.61872 -0.17677,-0.53033 -0.13259,-0.17677 -0.26517,-0.53033 -0.14146,-0.37722 -0.21499,-0.77955 -0.35355,-1.14905 -0.15048,-0.40126 -0.50748,-0.87811 -0.70711,-1.23743 -0.15997,-0.28795 -0.2443,-0.62036 -0.44194,-0.88389 -0.19144,-0.25525 -0.50517,-0.3663 -0.70711,-0.61871 -0.14839,-0.18549 -0.20148,-0.43624 -0.35355,-0.61872 -0.068,-0.0816 -0.19717,-0.0952 -0.26517,-0.17678 -0.18148,-0.21777 -0.2737,-0.55997 -0.44194,-0.79549 -0.0594,-0.0832 -0.4878,-0.66458 -0.61872,-0.7955 -0.0751,-0.0751 -0.19006,-0.10168 -0.26516,-0.17678 -0.0208,-0.0208 0.0152,-0.0631 0,-0.0884 -0.27288,-0.45481 -0.60404,-0.87808 -0.88388,-1.32583 -0.62081,-0.99328 0.0119,0.0748 -0.44195,-0.53033 -0.16542,-0.22056 -0.21589,-0.5546 -0.35355,-0.7955 -0.16266,-0.28466 -0.29906,-0.37371 -0.44194,-0.7071 -0.0232,-0.0542 0.0207,-0.12158 0,-0.17678 -0.23006,-0.61349 -0.57538,-1.11378 -0.88388,-1.67938 -0.076,-0.13929 -0.11788,-0.29463 -0.17678,-0.44194 0,-0.0295 0.0132,-0.062 0,-0.0884 -0.0475,-0.0951 -0.23207,-0.30964 -0.26517,-0.44194 -0.0143,-0.0572 0.0219,-0.12208 0,-0.17678 -0.0789,-0.19726 -0.18358,-0.40285 -0.35355,-0.53033 -0.0471,-0.0353 -0.13508,0.0417 -0.17678,0 -0.17676,-0.17677 -0.13258,-0.35355 -0.26516,-0.53033 -0.22072,-0.29429 -0.47055,-0.60001 -0.70711,-0.88388 -0.46961,-0.56353 -1.14262,-1.04942 -1.5026,-1.67938 -0.098,-0.17156 -0.39804,-0.62005 -0.44194,-0.79549 -0.0214,-0.0857 0.028,-0.18137 0,-0.26517 -0.21338,-0.64023 0.0255,0.13936 -0.17678,-0.26516 -0.20048,-0.40096 -0.27248,-0.73005 -0.53033,-1.14905 -0.1672,-0.27171 -0.45773,-0.51377 -0.61872,-0.7955 -0.17987,-0.31477 -0.21586,-0.54392 -0.53033,-0.79549 -0.36402,-0.29122 -0.75222,-0.53095 -1.14905,-0.7955 -0.178,-0.11867 -0.35232,-0.32327 -0.53033,-0.44194 -0.17775,-0.1185 -0.67102,-0.30004 -0.88388,-0.44194 -0.0693,-0.0462 -0.10528,-0.13388 -0.17678,-0.17678 -0.15978,-0.0959 -0.36366,-0.0935 -0.53033,-0.17677 -0.095,-0.0475 -0.17676,-0.11788 -0.26516,-0.17678 -0.0589,-0.0589 -0.10438,-0.13548 -0.17678,-0.17678 -0.13776,-0.0787 -0.30003,-0.10587 -0.44194,-0.17677 -0.095,-0.0475 -0.16656,-0.13738 -0.26516,-0.17678 -0.37336,-0.1494 0.0221,0.19332 -0.35356,-0.0884 -0.74469,-0.55849 1.00168,0.45664 -0.79549,-0.44194 -0.11181,-0.0559 -0.15337,-0.20927 -0.26517,-0.26517 -0.0527,-0.0263 -0.11958,0.0143 -0.17678,0 -0.18575,-0.0464 -0.26046,-0.20466 -0.44194,-0.26516 -0.26709,-0.089 -0.61893,-0.22108 -0.88388,-0.35355 -0.27334,-0.13667 -0.44067,-0.37808 -0.70711,-0.53033 -0.0809,-0.0462 -0.19066,-0.0325 -0.26516,-0.0884 -0.0201,-0.0151 -0.48893,-0.57732 -0.53033,-0.61872 -0.1334,-0.1334 -0.29463,-0.2357 -0.44194,-0.35355 -0.0295,0 -0.0639,0.0163 -0.0884,0 -0.26299,-0.17533 -0.46439,-0.51294 -0.70711,-0.70711 -0.34664,-0.27731 -0.71479,-0.5188 -1.06066,-0.7955 -0.2821,-0.22567 -0.46152,-0.54991 -0.70711,-0.79549 -0.31306,-0.31306 -0.83997,-0.39803 -1.14904,-0.70711 -0.10189,-0.10188 -0.52382,-0.63591 -0.61872,-0.70711 -0.0471,-0.0353 -0.12778,0.0327 -0.17678,0 -0.12222,-0.0815 -0.28205,-0.42306 -0.35355,-0.53033 -0.054,-0.0811 -0.63171,-0.55841 -0.70711,-0.61871 -0.11147,-0.0892 -0.45403,-0.18887 -0.53033,-0.26517 -0.0466,-0.0466 -0.0336,-0.14018 -0.0884,-0.17678 -0.049,-0.0327 -0.11958,0.0143 -0.17678,0 -0.23044,-0.0576 -0.40038,-0.25995 -0.61871,-0.35355 -0.0542,-0.0232 -0.12088,0.0186 -0.17678,0 -0.25,-0.0833 -0.4663,-0.24653 -0.70711,-0.35355 -0.42459,-0.18871 -0.92249,-0.32866 -1.32582,-0.53033 -0.17944,-0.0897 -0.43806,-0.39674 -0.61872,-0.44194 -0.14731,-0.0368 -0.29463,0.0245 -0.44194,0 -0.52428,-0.0874 -0.98456,-0.33834 -1.5026,-0.44195 -0.79851,-0.1597 -1.83855,0.1296 -2.56327,-0.35355 -0.0245,-0.0164 0.0245,-0.0721 0,-0.0884 -0.22741,-0.1516 -0.55914,-0.19598 -0.79549,-0.35355 -0.20801,-0.13868 -0.33511,-0.37416 -0.53033,-0.53033 -0.023,-0.0184 -0.0676,0.0208 -0.0884,0 -0.0466,-0.0466 -0.0319,-0.14288 -0.0884,-0.17678 -0.10416,-0.0625 -0.2449,-0.0341 -0.35355,-0.0884 -0.0745,-0.0373 -0.11348,-0.12257 -0.17678,-0.17677 -1.36761,-1.17224 0.51835,0.57594 -0.79549,-0.88389 -0.12621,-0.14022 -0.32409,-0.20624 -0.44195,-0.35355 -0.42238,-0.52797 -0.55696,-1.3183 -1.32582,-2.16551 0.17635,-0.33896 0.21353,-0.74493 0.53033,-1.01647 0.13044,-0.1118 0.3045,-0.16209 0.44194,-0.26517 0.20205,-0.15153 1.04905,-0.92066 1.14905,-1.06066 0.2287,-0.32017 0.36235,-0.72469 0.53033,-1.06066 0.0559,-0.1118 0.20085,-0.15797 0.26517,-0.26516 0.0567,-0.17002 0.0839,-0.29331 0.17677,-0.44194 0.16891,-0.27025 0.38781,-0.51045 0.53033,-0.7955 0.12875,-0.2575 0.18434,-0.45328 0.35356,-0.7071 0.18664,-0.27998 0.68565,-0.76775 0.79549,-1.06066 0.0414,-0.11035 -0.0231,-0.238 0,-0.35356 0.008,-0.0409 0.0752,-0.0489 0.0884,-0.0884 0.0768,-0.23048 0.12913,-0.46886 0.17678,-0.7071 0.0988,-0.49428 0,-1.08896 0,-1.59099 0,-0.57529 0.10574,-1.4158 0,-1.94455 -0.0504,-0.25201 -0.20285,-0.45784 -0.26517,-0.7071 -0.007,-0.0286 0,-0.0589 0,-0.0884 -0.0295,-0.11785 -0.0433,-0.24077 -0.0884,-0.35356 -0.0155,-0.0387 -0.0752,-0.0489 -0.0884,-0.0884 -0.07,-0.21018 -0.0286,-0.49779 -0.0884,-0.70711 -0.064,-0.22409 -0.26816,-0.71607 -0.35356,-0.97227 -0.0927,-0.27815 -0.31439,-0.452 -0.44194,-0.70711 -0.0672,-0.13437 -0.0111,-0.31312 -0.0884,-0.44194 -0.0758,-0.12632 -0.20533,-0.21894 -0.26516,-0.35355 -0.061,-0.13729 -0.0471,-0.29749 -0.0884,-0.44195 -0.0543,-0.19003 -0.19762,-0.34458 -0.26517,-0.53033 -0.73116,-2.0107 0.52626,1.13682 -0.35355,-1.5026 -0.0263,-0.079 -0.13951,-0.10224 -0.17678,-0.17677 -0.32558,-0.092 -0.0326,-0.30246 -0.0884,-0.44195 -0.0489,-0.12233 -0.14058,-0.22686 -0.17678,-0.35355 -0.0243,-0.085 0.0173,-0.17849 0,-0.26516 -0.0453,-0.22667 -0.1303,-0.4747 -0.17678,-0.70711 -0.0477,-0.23846 -0.1981,-0.41753 -0.26516,-0.61872 -0.0373,-0.1118 0.0464,-0.24523 0,-0.35355 -0.0677,-0.15791 -0.20485,-0.28109 -0.26517,-0.44195 -0.031,-0.0828 0.0145,-0.17797 0,-0.26516 -0.0207,-0.12413 -0.25452,-0.67517 -0.26516,-0.70711 -0.0711,-0.21332 0.0547,-0.48813 0,-0.7071 -0.10671,-0.42683 -0.042,0.004 -0.17678,-0.26517 -0.0626,-0.12521 -0.0457,-0.31391 -0.0884,-0.44194 -0.11251,-0.33753 -0.17678,-0.11826 -0.35351,-0.97226 -0.3948,-1.09807 0.0129,-1.64249 0.17681,-2.29807 0.0945,-0.37792 0.0541,-0.8693 0.17678,-1.23744 0.42682,-1.28046 -0.051,0.27871 0.35355,-0.53033 0.17925,-0.35849 -0.17671,-0.70716 0.17678,-1.06066 0.0932,-0.0932 0.27697,-0.0695 0.35355,-0.17677 0.22976,-0.32166 0.33422,-0.71746 0.53033,-1.06066 0.0827,-0.14471 0.30085,-0.19544 0.35356,-0.35356 0.26954,-0.80863 -0.46346,0.18318 0.17677,-0.88388 0.0857,-0.14292 0.29166,-0.19881 0.35356,-0.35355 0.0751,-0.18768 -0.10445,-0.67499 0,-0.88389 0.19129,-0.38258 0.21462,-0.82064 0.35355,-1.23743 0.0263,-0.0791 0.13951,-0.10225 0.17678,-0.17678 0.0527,-0.10541 -0.0286,-0.23922 0,-0.35355 0.077,-0.30785 0.27659,-0.57604 0.35355,-0.88389 0.0572,-0.22866 -0.13074,-0.51099 0,-0.7071 0.0731,-0.10964 0.26039,-0.0836 0.35356,-0.17678 0.0588,-0.0588 -0.0119,-0.67143 0,-0.70711 0.0717,-0.21526 0.53571,-0.88926 0.7071,-1.06066 0.0417,-0.0417 0.12407,0.0264 0.17678,0 0.14907,-0.0745 0.20448,-0.27902 0.35355,-0.35355 0.60442,-0.30221 2.93569,0.29992 3.53554,0 0.2236,-0.1118 0.32231,-0.39166 0.53033,-0.53033 0.049,-0.0327 0.12774,0.0327 0.17677,0 0.3274,-0.21826 0.57646,-0.63794 0.88389,-0.88388 0.23006,-0.18406 0.61393,-0.25083 0.7071,-0.53033 0.0373,-0.11181 -0.0527,-0.24815 0,-0.35356 0.0264,-0.0527 0.13511,0.0417 0.17678,0 0.32934,-0.32934 0.60254,-1.00837 1.06066,-1.23744 0.35199,-0.17599 0.69999,-0.46666 1.06066,-0.7071 0.17833,-0.11889 0.77564,-0.24531 0.88388,-0.35356 0.36576,-0.36575 -0.55892,0.0143 0.17678,-0.35355 0.80048,-0.40024 1.53402,-0.35355 2.47487,-0.35355 0.23571,0 0.4835,0.0745 0.70711,0 0.0791,-0.0264 0.0977,-0.15043 0.17678,-0.17678 0.1677,-0.0559 0.36262,0.0559 0.53033,0 1.09727,-0.36576 -0.58752,0.0143 0.88388,-0.35355 0.28583,-0.0715 0.59222,0.0417 0.88388,0 0.69207,-0.0989 1.30461,-0.45113 1.94455,-0.70711 0.20395,-0.0816 0.49811,0.0697 0.7071,0 0.91785,-0.30595 1.90489,0.0541 2.82843,-0.17678 0.25566,-0.0639 0.45711,-0.27022 0.70711,-0.35355 0.33892,-0.11297 3.812,-0.12148 4.41942,0 0.60971,0.12194 1.95155,1.06534 2.47487,1.41421 0.13867,0.0924 0.2611,0.21488 0.35355,0.35356 0.0327,0.049 -0.0527,0.15042 0,0.17677 0.31136,0.15568 0.33989,-0.0137 0.53033,0.17678 0.13589,0.13589 0.51432,1.3982 0.70711,1.59099 0.1614,0.1614 0.62658,-0.0805 0.88388,0.17678 0.23571,0.2357 -0.375,0.16963 0.17678,0.35355 0.47643,0.15881 1.10257,-0.1221 1.59099,0 0.45382,0.11346 1.09059,0.34358 1.59099,0.17678 0.14912,-0.0497 0.98207,-0.45174 1.06066,-0.53033 0.0417,-0.0417 -0.0527,-0.15043 0,-0.17678 0.10541,-0.0527 0.23799,0.0231 0.35355,0 0.55761,-0.11152 1.12849,-0.1223 1.59099,-0.35355 0.16967,-0.0848 0.53735,0.0566 0.70711,0 0.0791,-0.0264 0.11785,-0.11785 0.17678,-0.17678 0.17677,-0.0589 0.34652,-0.14614 0.53033,-0.17678 0.38672,-0.0645 0.85574,0.0954 1.23744,0 0.87247,-0.21811 2.65282,-0.39745 3.53553,-0.17677 0.0572,0.0143 -0.0527,0.15042 0,0.17677 0.10541,0.0527 0.24814,-0.0527 0.35355,0 0.0527,0.0264 -0.0417,0.13511 0,0.17678 0.0417,0.0417 0.12964,-0.0353 0.17678,0 0.2,0.15 0.33033,0.38033 0.53033,0.53033 0.26205,0.19654 0.97525,0.26815 1.23744,0.53033 0.0417,0.0417 -0.0417,0.13511 0,0.17678 0.2647,0.2647 2.60878,1.13833 3.0052,1.23744 0.81676,0.20419 1.66158,0.436 2.47487,0.7071 0.11181,0.0373 0.2555,-0.0654 0.35356,0 0.13867,0.0924 0.20448,0.27902 0.35355,0.35356 0.31175,0.15587 3.12106,0.008 3.71231,0.17677 0.32415,0.0926 0.60517,0.39098 0.88388,0.53033 0.44906,0.22453 0.96965,0.20537 1.41422,0.35356 0.55936,0.18645 1.06123,0.619 1.59099,0.88388 0.57151,0.28575 1.50729,-0.20468 2.12132,0 0.0791,0.0263 0.0959,0.15656 0.17678,0.17678 0.93281,0.2332 4.58884,0 5.83363,0 0.41248,0 0.83727,-0.10005 1.23743,0 0.12783,0.032 0.22359,0.15511 0.35356,0.17677 0.37681,0.0628 1.03155,-0.12755 1.41421,0 0.0791,0.0264 0.10224,0.13951 0.17678,0.17678 0.35284,0.17642 3.58896,0 4.24264,0 0.9951,0 2.63599,0.22489 3.53553,0 0.2357,-0.0589 0.53531,-0.005 0.70711,-0.17678 0.0417,-0.0417 -0.0559,-0.15814 0,-0.17677 0.1677,-0.0559 0.35883,0.0429 0.53033,0 0.0808,-0.0202 0.0951,-0.16044 0.17677,-0.17678 0.23113,-0.0462 0.47462,0.0387 0.70711,0 0.31301,-0.0522 0.57604,-0.27659 0.88388,-0.35355 0.1715,-0.0429 0.35884,0.0429 0.53034,0 0.11785,-0.0589 0.2357,-0.11786 0.35355,-0.17678 0,-0.0589 -0.049,-0.14409 0,-0.17678 0.40552,-0.27034 0.76439,-0.26271 1.06066,-0.7071 0.30639,-0.45959 1.09936,-2.8823 1.59099,-3.00521 0.22734,-0.0568 1.37334,-0.13591 1.41421,-0.17678 0.0417,-0.0417 -0.0417,-0.13511 0,-0.17677 0.15023,-0.15023 0.3403,-0.25854 0.53033,-0.35356 0.27931,-0.13965 0.75234,0.0771 1.06066,0 0.54853,-0.13713 1.06975,-0.35658 1.59099,-0.53033 0.20994,-0.07 0.74266,0.14123 0.88389,0 0.36575,-0.36575 -0.55893,0.0143 0.17677,-0.35355 0.43123,-0.21561 0.23496,0.35467 0.70711,-0.35355 0.048,-0.0719 0.31289,-0.44901 0.35355,-0.53033 0.14601,-0.29201 -0.0981,-0.34066 0.17678,-0.70711 0.27386,-0.36515 0.85757,-0.65447 1.06066,-1.06066 0.0527,-0.10541 -0.0231,-0.23799 0,-0.35355 0.14199,-0.70993 0.36019,-1.24408 0.88388,-1.76777 0.82237,-0.82236 0.58781,-1.00101 1.76777,-1.59099 0.53909,-0.26955 -0.32331,-0.14014 0.53033,-0.35355 1.18271,-0.29568 0.93225,-0.20096 1.94454,-0.70711 0.22329,-0.11164 0.6783,0.13706 0.88389,0 0.13867,-0.0924 0.22022,-0.25355 0.35355,-0.35355 0.40602,-0.30452 0.45509,-0.0696 0.88388,-0.17678 0.53322,-0.1333 1.1458,-0.72839 1.76777,-0.88388 0.11433,-0.0286 0.24815,0.0527 0.35355,0 0.57706,-0.28853 -0.85774,-0.0949 0.17678,-0.35356 0.64707,-0.16176 1.31932,-0.14514 1.94455,-0.35355 0.27458,-0.0915 0.57276,-0.42662 0.88388,-0.53033 0.48219,-0.16073 1.09591,0.12377 1.59099,0 0.15741,-0.0394 0.54186,-0.27093 0.70711,-0.35355 0.18022,-0.0901 1.08213,-0.0661 1.41421,-0.17678 0.41461,-0.1382 1.21538,-0.63348 1.59099,-0.88388 0.10963,-0.0731 0.0589,-0.29463 0.17678,-0.35356 0.10541,-0.0527 0.24175,0.0373 0.35355,0 0.0791,-0.0264 0.10224,-0.13951 0.17678,-0.17677 0.16666,-0.0833 0.37528,-0.0734 0.53033,-0.17678 0.049,-0.0327 -0.0417,-0.13511 0,-0.17678 0.26962,-0.26963 0.75307,-0.47641 1.06066,-0.7071 0.53519,0.43621 0.30406,-0.48085 0.35355,-0.53033 0.2564,-0.25641 0.59425,-0.13633 0.88388,-0.35356 0.2,-0.15 0.30673,-0.41852 0.53033,-0.53033 0.384,-0.19199 1.41422,-0.66592 1.41422,-1.23743 0.0261,-0.70604 -0.18072,-1.37468 -0.2672,-2.06649 -0.0116,-0.093 0.008,-0.18789 0,-0.28125 -0.012,-0.13255 -0.094,-0.25085 -0.125,-0.375 -0.02,-0.08 -0.0224,-0.4415 0,-0.53125 0.004,-0.0143 0.0266,-0.0173 0.0312,-0.0312 0.0227,-0.068 0.0181,-0.15215 0.0625,-0.21875 0.006,-0.009 0.0219,0.005 0.0312,0 0.0676,-0.0338 0.125,-0.11778 0.50551,-0.16479 0.48107,-0.015 1.79068,-0.92348 1.88311,-1.01586 z"
         id="path65" />
    </g>
  </g>
</svg>
