<?xml version="1.0" encoding="UTF-8" standalone="no"?>
<!-- Created with Inkscape (http://www.inkscape.org/) -->

<svg
   version="1.1"
   id="svg1"
   width="188.125"
   height="168.625"
   viewBox="0 0 188.125 168.625"
   xmlns="http://www.w3.org/2000/svg"
   xmlns:svg="http://www.w3.org/2000/svg">
  <defs
     id="defs1" />
  <g
     id="layer1"
     style="display:inline"
     transform="translate(-0.1875,-204.5625)">
    <g
       id="layer44"
       style="display:inline;fill:#ffffff;fill-opacity:1;stroke:none">
      <path
         style="fill:#ffffff;fill-opacity:1;stroke:none;stroke-linecap:round"
         d="m 0.1875,204.5625 10.75,0.6875 13.0625,3.625 17.6875,-0.5 48.6875,2.8125 4.375,2.5625 1.8125,2.5625 27.875,3.625 25.6875,0.9375 1.25,-1.3125 8.875,6.1875 22.3125,2.9375 5.75,3.3125 -24.4375,23.5 -23.4375,3.5 -9,9.125 -7.625,1.5 -5.75,3.75 -7.6875,3 -6.5,6.8125 -10.125,4.875 -7.0625,7 -0.625,14.625 -5,4.3125 -2.25,6.125 -2.4375,3.125 -0.375,6.9375 3.8125,5.9375 -6.5625,6.5625 -13.4375,1.125 -5.25,2.75 -4,0.4375 -1.5,3.8125 -6.9375,3.9375 -7,3 -9.875,1.6875 -5.5625,7.9375 -6.625,5.25 -12.5,0.5625 z"
         id="path42" />
    </g>
  </g>
</svg>
