<?xml version="1.0" encoding="UTF-8" standalone="no"?>
<!-- Created with Inkscape (http://www.inkscape.org/) -->

<svg
   version="1.1"
   id="svg2"
   width="188.57591"
   height="168.60983"
   viewBox="0 0 188.57591 168.60983"
   xmlns="http://www.w3.org/2000/svg"
   xmlns:svg="http://www.w3.org/2000/svg">
  <defs
     id="defs6">
    <linearGradient
       id="swatch77">
      <stop
         style="stop-color:#e2c69e;stop-opacity:1;"
         offset="0"
         id="stop77" />
    </linearGradient>
  </defs>
  <g
     id="layer66"
     style="display:inline"
     transform="translate(-0.5625,-204.0625)">
    <g
       id="layer4"
       style="display:inline">
      <path
         style="display:inline;fill:#969696;fill-opacity:1;stroke:none;stroke-width:1;stroke-dasharray:none;stroke-opacity:1"
         d="m 152.0625,219.5 c 0.29241,-0.0119 0.60801,0.68902 0.75,0.9375 0.12976,0.22707 0.26717,0.48879 0.4375,0.6875 0.0767,0.0895 0.17638,0.15797 0.25,0.25 0.10733,0.13416 0.12296,0.41428 0.25,0.5625 0.0959,0.11185 0.21819,0.19933 0.3125,0.3125 0.0133,0.016 -0.0125,0.0458 0,0.0625 0.2569,0.34253 0.60549,0.74025 1,0.9375 0.125,0.0625 0.24524,0.1356 0.375,0.1875 0.0387,0.0155 0.0855,-0.0132 0.125,0 0.0778,0.0259 0.17223,0.16158 0.25,0.1875 0.0593,0.0198 0.12687,-0.0152 0.1875,0 0.0857,0.0214 0.10626,0.15268 0.1875,0.1875 0.0976,0.0419 0.21303,0.0252 0.3125,0.0625 0.25373,0.0951 0.45051,0.30208 0.6875,0.4375 0.26245,0.14997 0.59538,0.19266 0.875,0.3125 0.0856,0.0367 0.15961,0.1024 0.25,0.125 0.0808,0.0202 0.1678,-0.0137 0.25,0 0.046,0.008 0.079,0.0548 0.125,0.0625 0.0822,0.0137 0.16667,0 0.25,0 0.125,0.0208 0.25129,0.035 0.375,0.0625 0.20584,0.0457 0.41649,0.16144 0.625,0.1875 0.3403,0.0425 0.7188,0 1.0625,0 0.99175,0 2.01424,-0.0822 3,0 0.60833,0.0507 0.24569,0.053 0.75,0.125 0.20327,0.029 0.4248,0.0225 0.625,0.0625 0.0646,0.0129 0.12202,0.0552 0.1875,0.0625 0.5212,0.0579 1.03948,0.0269 1.5625,0.125 0.14907,0.028 0.2892,0.0932 0.4375,0.125 0.28899,0.0619 0.58845,0.0772 0.875,0.125 0.66422,0.1107 0.43518,0.12454 1.0625,0.25 0.29729,0.0595 0.64641,0.0522 0.9375,0.125 0.0904,0.0226 0.15777,0.11182 0.25,0.125 0.31476,0.045 0.68369,0 1,0 0.44611,0 0.93181,-0.0554 1.375,0 0.10541,0.0132 0.20658,0.0543 0.3125,0.0625 0.43887,0.0338 0.87774,-0.0462 1.3125,0.0625 0.51567,0.12892 1.03786,0.28376 1.5625,0.375 0.33096,0.0576 0.67893,0.0262 1,0.125 0.23306,0.0717 0.46109,0.15944 0.6875,0.25 0.0865,0.0346 0.15883,0.10581 0.25,0.125 0.3085,0.065 0.62652,0.0732 0.9375,0.125 0.16775,0.028 0.28102,0.14482 0.4375,0.1875 0.35102,0.0957 0.70489,0.18295 1.0625,0.25 0.53596,0.10049 1.08787,0.10486 1.625,0.1875 0.25438,0.0391 0.50625,0.23125 0.75,0.3125 0.16072,0.0536 0.46428,0.13392 0.625,0.1875 0.62444,0.20815 -0.16742,-0.0835 0.5625,0.0625 0.11001,0.022 0.20426,0.0955 0.3125,0.125 0.43518,0.11868 0.28813,0.005 0.6875,0.125 0.15197,0.0456 0.28192,0.15638 0.4375,0.1875 0.0613,0.0123 0.1306,-0.0259 0.1875,0 0.17892,0.0813 0.32746,0.21839 0.5,0.3125 0.0578,0.0316 0.13101,0.0286 0.1875,0.0625 0.1221,0.0733 0.35455,0.31307 0.4375,0.4375 0.0116,0.0173 -0.0147,0.0478 0,0.0625 0.0329,0.0329 0.10103,0.0225 0.125,0.0625 0.0442,0.0737 0.0199,0.17542 0.0625,0.25 0.0438,0.0767 0.13447,0.11679 0.1875,0.1875 0.0125,0.0167 -0.0147,0.0478 0,0.0625 0.0147,0.0147 0.0478,-0.0147 0.0625,0 0.0625,0.0833 0.125,0.16667 0.1875,0.25 0,0.0208 -0.0116,0.0452 0,0.0625 0.14394,0.21592 0.40664,0.35468 0.5625,0.5625 0.028,0.0373 0.0296,0.0921 0.0625,0.125 0.0761,0.0761 0.13964,0.0293 0.1875,0.125 0.009,0.0186 -0.0147,0.0478 0,0.0625 0.0756,0.0756 0.94363,0.0625 0.72956,0.21551 -1.15393,0.53225 -0.42604,0.0952 -0.92577,0.59495 -0.1488,0.14879 -0.31737,0.14593 -0.44194,0.35355 -0.0479,0.0799 -0.0467,0.18184 -0.0884,0.26517 -0.225,0.44999 -0.69086,0.92047 -1.06066,1.23744 -0.05,0.0429 -0.13019,0.0418 -0.17678,0.0884 -0.0466,0.0466 -0.0462,0.12617 -0.0884,0.17678 -0.20183,0.2422 -0.68848,0.67104 -0.97227,0.88388 -0.0527,0.0395 -0.11785,0.0589 -0.17678,0.0884 -0.0884,0.0589 -0.18221,0.11042 -0.26516,0.17678 -0.41007,-0.0756 -0.10166,0.19005 -0.17678,0.26516 -0.0751,0.0751 -0.1988,0.0938 -0.26516,0.17678 -0.0582,0.0727 -0.0467,0.18183 -0.0884,0.26517 -0.0732,0.14649 -0.25338,0.16499 -0.35355,0.26516 -0.0466,0.0466 -0.0336,0.14023 -0.0884,0.17678 -0.049,0.0327 -0.12408,-0.0264 -0.17678,0 -0.16439,0.0822 -0.2888,0.33984 -0.44194,0.44194 -0.0245,0.0163 -0.0676,-0.0208 -0.0884,0 -0.14769,0.14769 -0.0291,0.20586 -0.17678,0.35355 -0.0466,0.0466 -0.14023,0.0336 -0.17677,0.0884 -0.0327,0.049 0.0417,0.13511 0,0.17678 -0.0417,0.0417 -0.12775,-0.0327 -0.17678,0 -0.25872,0.17248 -0.0181,0.1246 -0.0884,0.26516 -0.0186,0.0372 -0.56696,0.85801 -0.61872,0.88389 -0.15439,0.0772 -0.46996,0.23541 -0.61872,0.26516 -0.23112,0.0462 -0.48826,-0.0875 -0.7071,0 -0.0774,0.031 -0.10897,0.12834 -0.17678,0.17678 -0.33508,0.23934 -0.85347,0.41153 -1.14905,0.7071 -0.0208,0.0208 0.0208,0.0676 0,0.0884 -0.97735,0.65157 0.19003,-0.19003 -0.35355,0.35356 -0.0208,0.0208 -0.0639,-0.0163 -0.0884,0 -0.26516,0.17677 -0.0884,0.13258 -0.26516,0.26516 -0.13744,0.10308 -0.32047,0.14369 -0.44195,0.26517 -0.45169,0.45169 0.37061,-0.12328 -0.26516,0.35355 -0.22383,0.16787 -0.50658,0.3298 -0.70711,0.53033 -0.0466,0.0466 -0.0418,0.13019 -0.0884,0.17678 -0.19229,0.1923 -0.51397,0.33719 -0.7071,0.53033 -0.0208,0.0208 0.0163,0.0639 0,0.0884 -0.13458,0.20187 -0.29147,0.20309 -0.44194,0.35356 -0.0751,0.0751 -0.10167,0.19005 -0.17678,0.26516 -0.0208,0.0208 -0.0639,-0.0163 -0.0884,0 -0.045,0.03 -0.48469,0.39631 -0.53033,0.44195 -0.0466,0.0466 -0.0418,0.13019 -0.0884,0.17677 -0.0932,0.0932 -0.24392,0.10369 -0.35355,0.17678 -0.13591,0.0906 -0.22558,0.25117 -0.35355,0.35355 -0.34754,0.27803 -0.5099,0.29235 -0.88389,0.44194 -0.23656,0.0946 -0.4635,0.27236 -0.7071,0.35356 -0.11525,0.0384 -0.2449,0.0341 -0.35356,0.0884 -0.0745,0.0373 -0.10532,0.1339 -0.17677,0.17677 -0.0799,0.0479 -0.18765,0.0367 -0.26517,0.0884 -0.0706,0.0471 -0.5416,0.41466 -0.61872,0.53033 -0.0365,0.0548 -0.0418,0.13019 -0.0884,0.17678 -0.13975,0.13975 -0.39057,0.30218 -0.53033,0.44194 -0.20725,0.20725 -0.27298,0.48182 -0.44194,0.70711 -0.05,0.0667 -0.13055,0.10743 -0.17678,0.17677 -0.32029,0.48045 0.0553,1.63499 -0.0884,2.20971 -0.0905,0.36216 -0.28182,0.44024 -0.44195,0.70711 -0.0479,0.0799 -0.0302,0.19241 -0.0884,0.26516 -0.33505,0.41882 -1.17173,0.63233 -1.59099,0.88389 -0.0715,0.0429 -0.10744,0.13055 -0.17678,0.17677 -0.15721,0.19778 -0.42631,0.14972 -0.61872,0.26517 -0.82212,0.49327 0.61946,-0.17715 -0.44194,0.35355 -0.30623,0.15312 -0.51433,0.16611 -0.7955,0.35355 -0.0693,0.0462 -0.11785,0.11786 -0.17677,0.17678 -0.0884,0.0295 -0.18528,0.0405 -0.26517,0.0884 -0.32009,0.19206 -0.553,0.63005 -0.88388,0.79549 -0.0791,0.0395 -0.18611,-0.0395 -0.26517,0 -0.0589,0.0295 -0.0418,0.1302 -0.0884,0.17678 -0.18768,0.18768 -0.54988,0.40752 -0.7955,0.53033 -0.0264,0.0132 -0.0675,-0.0208 -0.0884,0 -0.047,0.047 -0.0511,0.23374 -0.17677,0.26517 -0.11434,0.0286 -0.27022,-0.0833 -0.35356,0 -0.0466,0.0466 -0.0295,0.14731 -0.0884,0.17677 -0.079,0.0395 -0.17849,-0.0173 -0.26516,0 -0.37955,0.0759 -0.75596,0.2974 -1.14905,0.35356 -0.32083,0.0458 -0.64979,-0.0323 -0.97227,0 -0.55888,0.0559 -1.11891,0.28349 -1.67938,0.35355 -0.14618,0.0183 -0.29663,-0.0242 -0.44194,0 -0.0822,0.0137 -0.10224,0.13951 -0.17678,0.17678 -0.0451,0.0225 -0.68585,0.24391 -0.70711,0.26516 -0.20869,0.20869 0.49301,-0.0465 -0.17677,0.17678 -0.14593,0.0486 -0.30249,0.0838 -0.44194,0.17678 -0.0884,0.0589 -0.19005,0.10166 -0.26517,0.17677 -0.0208,0.0208 0.0263,0.0752 0,0.0884 -0.1833,0.0916 -0.51306,-0.0647 -0.70711,0 -0.0395,0.0132 -0.0589,0.0589 -0.0884,0.0884 -0.0884,0.0295 -0.17294,0.0752 -0.26517,0.0884 -0.47142,0.0673 -1.46036,-0.13193 -1.85615,0 -0.2288,0.0763 -0.46329,0.13614 -0.70711,0.17677 -0.14531,0.0242 -0.3003,-0.0405 -0.44194,0 -0.15256,0.0436 -0.28802,0.1383 -0.44194,0.17678 -0.21538,0.0539 -0.48704,-0.0314 -0.70711,0 -0.292,0.0417 -0.3722,0.11515 -0.61872,0.17678 -0.19642,0.0491 -0.22097,-0.0737 -0.44194,0 -0.028,0.009 0.0264,0.0752 0,0.0884 -0.10865,0.0543 -0.23831,0.05 -0.35355,0.0884 -0.21116,0.0704 -0.49073,0.0163 -0.70711,0.0884 -0.0395,0.0132 -0.048,0.0783 -0.0884,0.0884 -0.29463,0.0737 -0.19642,-0.0491 -0.44194,0 -0.1775,-0.0203 -0.28802,0.1383 -0.44194,0.17678 -0.34031,0.0851 -0.70278,0.19359 -1.06066,0.26516 -0.16456,0.0329 -0.37192,-0.0528 -0.53033,0 -0.0395,0.0132 -0.0489,0.0752 -0.0884,0.0884 -0.26156,0.0872 -0.61061,-0.0455 -0.88389,0 -1.23186,0.20531 -2.54755,0.0884 -3.80069,0.0884 -0.27352,0 -0.61601,-0.0536 -0.88389,0 -0.33477,0.067 -0.62934,0.17678 -0.97227,0.17678 -0.14724,0.23563 -0.2783,0.48218 -0.44171,0.7069 -0.12253,0.1685 -0.32085,0.27242 -0.44194,0.44194 -0.0999,0.1398 -0.15519,0.30997 -0.26517,0.44195 -0.0422,0.0506 -0.12196,0.0518 -0.17677,0.0884 -0.22602,0.15068 -0.37245,0.39769 -0.53033,0.61872 -0.13754,0.19255 -0.28171,0.49347 -0.44195,0.70711 -0.1,0.13333 -0.24943,0.22341 -0.35355,0.35355 -0.0411,0.0514 -0.0418,0.13019 -0.0884,0.17678 -0.0466,0.0466 -0.13019,0.0418 -0.17677,0.0884 -0.21468,0.21468 0.0263,0.12979 -0.17678,0.26516 -0.10963,0.0731 -0.2745,0.0714 -0.35355,0.17678 -0.0559,0.0745 -0.0467,0.18183 -0.0884,0.26516 -0.0677,0.13538 -0.15751,0.0691 -0.26517,0.17678 -0.0994,0.0994 -0.18647,0.3239 -0.26516,0.44194 -0.13538,0.20306 -0.0505,-0.0379 -0.26517,0.17678 -0.1077,0.1077 -0.15746,0.33424 -0.26516,0.44194 -0.0208,0.0208 -0.0676,-0.0208 -0.0884,0 -0.0208,0.0208 0.0132,0.062 0,0.0884 -0.0559,0.1118 -0.19583,0.16116 -0.26517,0.26516 -0.0163,0.0245 0.0208,0.0676 0,0.0884 -0.18288,0.18288 0.007,-0.27946 -0.17677,0.0884 -0.10356,0.20711 -0.11778,0.22085 -0.26517,0.44194 -0.0163,0.0245 0.0208,0.0676 0,0.0884 -0.0466,0.0466 -0.13019,0.0418 -0.17677,0.0884 -0.15993,0.15993 -0.30145,0.51978 -0.44195,0.70711 -0.20306,0.27074 0.0565,-0.14493 -0.26516,0.17677 -0.18288,0.18288 0.27946,-0.007 -0.0884,0.17678 -0.0264,0.0132 -0.0676,-0.0208 -0.0884,0 -0.0208,0.0208 0.0208,0.0675 0,0.0884 -0.0293,0.0293 -0.30136,0.15068 -0.35355,0.17677 -0.13176,0.0659 -0.24939,0.161 -0.35356,0.26517 -0.0208,0.0208 0.0208,0.0675 0,0.0884 -0.14969,0.14969 -0.29225,0.0271 -0.44194,0.17677 -0.0466,0.0466 -0.0418,0.1302 -0.0884,0.17678 -0.0745,0.0745 -1.37305,0.8407 -1.5026,0.88389 -0.0796,0.0265 -0.18561,-0.0265 -0.26516,0 -0.18562,0.0619 -0.34472,0.20329 -0.53033,0.26516 -0.0839,0.0279 -0.1785,-0.0173 -0.26517,0 -0.27117,0.0542 -0.53398,0.19979 -0.79549,0.26517 -0.11433,0.0286 -0.23922,-0.0286 -0.35356,0 -0.15997,-0.0533 -0.16438,0.14318 -0.26516,0.17677 -0.19566,0.0652 -0.41333,-0.0187 -0.61872,0 -0.45272,0.0412 -0.88129,0.19108 -1.32582,0.26517 -0.11625,0.0194 -0.23923,-0.0286 -0.35356,0 -0.26678,0.0667 -0.51901,0.20372 -0.79549,0.26516 -0.11505,0.0256 -0.23689,-0.0167 -0.35356,0 -0.0922,0.0132 -0.1738,0.0701 -0.26516,0.0884 -0.48247,0.0965 -1.08413,0.0559 -1.5026,0.26517 -0.1164,0.0582 -0.3179,-0.0414 -0.44194,0 -0.30534,0.10177 -0.64651,0.48841 -0.97228,0.61871 -0.0547,0.0219 -0.12206,-0.0219 -0.17677,0 -0.0318,0.0127 -0.46138,0.2192 -0.53033,0.26517 -0.0693,0.0462 -0.0959,0.15656 -0.17678,0.17678 -0.0857,0.0214 -0.17942,-0.0214 -0.26517,0 -0.29488,0.0737 -0.5775,0.50972 -0.79549,0.61871 -0.0833,0.0417 -0.19063,0.0325 -0.26517,0.0884 -0.0527,0.0395 -0.0418,0.13019 -0.0884,0.17678 -0.2713,0.2713 -0.0735,-0.0516 -0.35356,0.0884 -0.0745,0.0373 -0.10532,0.1339 -0.17677,0.17677 -0.0799,0.0479 -0.18765,0.0367 -0.26517,0.0884 -0.10401,0.0693 -0.16516,0.19017 -0.26516,0.26517 -0.0236,0.0177 -0.0639,-0.0163 -0.0884,0 -0.28749,0.19166 -0.72763,0.49741 -0.97227,0.7071 -0.05,0.0429 -0.037,0.13563 -0.0884,0.17678 -0.10289,0.0823 -0.25067,0.0945 -0.35356,0.17678 -0.0514,0.0411 -0.0357,0.13725 -0.0884,0.17677 -0.0745,0.0559 -0.18528,0.0405 -0.26517,0.0884 -0.16411,0.0985 -0.35465,0.37167 -0.53033,0.44194 -0.0821,0.0328 -0.1831,-0.0328 -0.26516,0 -0.0774,0.031 -0.11011,0.12678 -0.17678,0.17678 -0.2264,0.1698 -0.2217,0.0225 -0.53033,0.17678 -0.17038,0.17038 -0.14413,0.18139 -0.35355,0.26516 -0.466,0.1864 -0.95651,0.32228 -1.41422,0.53033 -0.17992,0.0818 -0.34527,0.19577 -0.53033,0.26517 -0.22241,0.0834 -0.47522,0.0369 -0.7071,0.0884 -0.6736,0.14968 0.16313,0.005 -0.53033,0.26516 -0.26901,0.10088 -0.61943,0.0886 -0.88389,0.17678 -0.16298,0.0543 -0.27896,0.21084 -0.44194,0.26516 -0.1118,0.0373 -0.23922,-0.0286 -0.35355,0 -0.42683,0.10671 0.004,0.042 -0.26517,0.17678 -0.0527,0.0263 -0.12407,-0.0264 -0.17678,0 -0.044,0.022 -0.49304,0.22788 -0.53033,0.26516 -0.18287,0.18288 0.27947,-0.007 -0.0884,0.17678 -0.0833,0.0417 -0.18184,0.0467 -0.26517,0.0884 -0.1773,0.0886 -0.23104,0.31943 -0.35355,0.44194 -0.0751,0.0751 -0.19005,0.10166 -0.26517,0.17678 -0.17921,0.17922 -0.1369,0.22529 -0.35355,0.44194 -0.0422,0.0422 -0.29219,0.13075 -0.35355,0.17678 -0.26646,0.19984 -0.60305,0.53889 -0.7955,0.79549 -0.0791,0.10541 -0.0945,0.25067 -0.17678,0.35355 -0.13766,0.17208 -0.4044,0.34145 -0.53033,0.53034 -0.0163,0.0245 0.0208,0.0675 0,0.0884 -0.3217,0.3217 -0.0621,-0.094 -0.26516,0.17678 -0.10308,0.13744 -0.15785,0.30779 -0.26517,0.44194 -0.27994,0.34994 -0.21243,0.18762 -0.53033,0.44194 -0.25812,0.2065 -0.44283,0.5089 -0.7071,0.70711 -0.28253,0.21189 -0.59449,0.42579 -0.88389,0.61872 -0.37203,0.24802 -0.8063,0.23037 -1.23743,0.35355 -0.10215,0.0292 -0.16211,0.15101 -0.26517,0.17678 -0.0857,0.0214 -0.17941,-0.0214 -0.26516,0 -0.0404,0.0101 -0.0489,0.0752 -0.0884,0.0884 -0.15735,0.0525 -0.37298,0.0359 -0.53033,0.0884 -0.14738,0.0491 -0.48712,0.22129 -0.61872,0.26516 -0.0559,0.0186 -0.124072,-0.0263 -0.176776,0 -0.198951,0.0995 -0.314491,0.33402 -0.53033,0.44194 -0.0859,0.043 -0.267656,0.0454 -0.353554,0.0884 -0.15696,0.0785 -0.27757,0.29876 -0.441942,0.35355 -0.0559,0.0186 -0.129636,-0.0353 -0.176776,0 -0.08498,0.0637 -0.09383,0.19881 -0.176777,0.26517 -0.163325,0.13066 -0.683683,0.29179 -0.883883,0.44194 -0.247367,0.18553 -0.450453,0.44762 -0.707107,0.61872 -0.02452,0.0163 -0.06755,-0.0208 -0.08839,0 -0.07512,0.0751 -0.101662,0.19005 -0.176777,0.26516 -0.04167,0.0417 -0.141422,-0.0471 -0.176777,0 -0.07906,0.10541 -0.09447,0.25067 -0.176777,0.35356 -0.0819,0.10237 -0.360046,0.25118 -0.441941,0.35355 -0.117581,0.14698 -0.190881,0.38176 -0.265165,0.53033 -0.03727,0.0745 -0.139509,0.10224 -0.176777,0.17678 -0.191122,0.38224 -0.474397,0.87606 -0.883883,1.14905 -0.04186,0.0279 -0.478116,0.24776 -0.530331,0.26516 -0.111803,0.0373 -0.24175,-0.0373 -0.353553,0 -0.190498,0.0635 -0.347984,0.35077 -0.53033,0.44194 -0.0527,0.0264 -0.120875,-0.0186 -0.176777,0 -0.10153,0.0338 -0.122632,0.21102 -0.176776,0.26517 -0.06588,0.0659 -0.187644,0.0367 -0.265165,0.0884 -0.07297,0.0486 -0.3953,0.30691 -0.441942,0.35355 -0.04658,0.0466 -0.0418,0.13019 -0.08839,0.17678 -0.02083,0.0208 -0.06482,-0.0177 -0.08839,0 -0.203242,0.15243 -0.327088,0.28951 -0.53033,0.44194 -0.24603,0.18452 -0.347451,0.43584 -0.53033,0.61872 -0.04658,0.0466 -0.130192,0.0418 -0.176777,0.0884 -0.07511,0.0751 -0.107643,0.18451 -0.176776,0.26517 -0.425051,0.49589 -1.021489,0.89058 -1.414214,1.41421 -0.01175,0.0157 -0.24676,0.36833 -0.265165,0.44195 -0.02144,0.0857 0.03953,0.1861 0,0.26516 -0.02946,0.0589 -0.130192,0.0418 -0.176777,0.0884 -0.05225,0.0522 -0.152928,0.39424 -0.176776,0.44194 -0.190131,0.38026 -0.963021,0.86538 -1.149049,1.23744 -0.02635,0.0527 0.01863,0.12087 0,0.17677 -0.02635,0.0791 -0.139509,0.10224 -0.176776,0.17678 -0.03953,0.0791 0.03953,0.18611 0,0.26517 -0.01318,0.0264 -0.05893,0 -0.08839,0 -0.02946,0.0589 -0.07241,0.11286 -0.08839,0.17677 -0.08802,0.35208 -0.133473,0.70948 -0.265165,1.06066 -0.07879,0.2101 -0.228277,0.39739 -0.265165,0.61872 -0.02906,0.17437 0.0559,0.36263 0,0.53033 -0.01318,0.0395 -0.07521,0.0489 -0.08839,0.0884 -0.03841,0.11524 -0.04997,0.23831 -0.08839,0.35355 -0.09723,0.29168 0.09723,0.68059 0,0.97227 -0.01318,0.0395 -0.05893,0.0589 -0.08839,0.0884 -0.02946,0.0589 -0.07241,0.11287 -0.08839,0.17678 -0.10726,0.42904 0,1.21217 0,1.67938 0,1.62283 0.145865,3.71665 -0.353553,5.21491 -0.06597,0.19791 0.08839,0.34878 0.08839,0.53033 0,0.46978 -0.06978,0.89783 -0.176776,1.32583 -0.106706,0.42682 -0.042,-0.004 -0.176777,0.26516 -0.08425,0.1685 -0.09448,0.45412 -0.176777,0.61872 -0.06588,0.13176 -0.21858,0.2138 -0.265165,0.35355 -0.03727,0.11181 0.05271,0.24815 0,0.35356 -0.0069,0.0138 -0.34665,0.16297 -0.353553,0.17677 -0.05433,0.10866 -0.03406,0.2449 -0.08839,0.35356 -0.03727,0.0745 -0.133903,0.10531 -0.176777,0.17677 -0.04793,0.0799 -0.04045,0.18528 -0.08839,0.26517 -0.132798,0.22133 -0.758622,0.82984 -0.972271,0.97227 -0.138642,0.0924 -0.37167,0.16997 -0.53033,0.26516 -0.359724,0.21584 0.0056,0.14546 -0.353554,0.26517 -0.105604,0.0352 -0.358911,0.1145 -0.441942,0.17678 -0.0527,0.0395 -0.03357,0.14023 -0.08839,0.17677 -0.04903,0.0327 -0.120875,-0.0186 -0.176777,0 -0.125358,0.0418 -0.126202,0.21459 -0.176776,0.26517 -0.02083,0.0208 -0.05893,0 -0.08839,0 -0.05893,0.0589 -0.133902,0.10532 -0.176776,0.17677 -0.04908,0.0818 -0.231889,0.43051 -0.265165,0.53033 -0.01863,0.0559 0.02635,0.12408 0,0.17678 -0.01318,0.0263 -0.06755,-0.0208 -0.08839,0 -0.04167,0.0417 0.02635,0.12407 0,0.17678 -0.01863,0.0373 -0.07521,0.0489 -0.08839,0.0884 -0.01863,0.0559 0.01863,0.12087 0,0.17677 -0.02635,0.0791 -0.156565,0.0959 -0.176777,0.17678 -0.216383,0.86553 0.484127,-0.69154 -0.176776,0.79549 -0.05432,0.12221 -0.227881,0.29281 -0.265165,0.44195 -0.05494,0.21976 0.032,0.48307 0,0.7071 -0.02125,0.14872 -0.06714,0.29322 -0.08839,0.44195 -0.0083,0.0583 0.02635,0.12407 0,0.17677 -0.01318,0.0263 -0.07521,-0.0263 -0.08839,0 -0.02635,0.0527 0.01863,0.12088 0,0.17678 -0.04525,0.13575 -0.189776,0.2279 -0.265165,0.35355 -0.09425,0.15708 -0.132166,0.48572 -0.265165,0.61872 -0.04659,0.0466 -0.130192,0.0418 -0.176777,0.0884 -0.02083,0.0208 0.01318,0.062 0,0.0884 -0.04751,0.095 -0.113039,0.18018 -0.176777,0.26516 -0.09466,0.12622 -0.265165,0.18506 -0.265165,0.35356 -0.206181,0.0588 -0.426747,0.0806 -0.618544,0.17646 -0.196039,0.098 -0.03809,0.46781 -0.08839,0.61872 -0.06717,0.2015 -0.174271,0.34854 -0.265165,0.53033 -0.180834,0.36167 0.214279,0.6696 -0.353554,1.23744 -0.133706,0.1337 -0.230955,0.31934 -0.353553,0.44194 -0.04659,0.0466 -0.140233,0.0336 -0.176777,0.0884 -0.03269,0.049 0.02635,0.12407 0,0.17677 -0.01318,0.0264 -0.06204,-0.0132 -0.08839,0 -0.03439,0.0172 -0.864689,0.93389 -0.883884,0.97228 -0.02635,0.0527 0.02635,0.12407 0,0.17677 -0.229463,0.45893 -0.176776,1.53855 -0.176776,2.12132 0,0.55301 -0.10933,1.86078 0,2.2981 0.01011,0.0404 0.06975,0.0511 0.08839,0.0884 0.07225,0.1445 0.132573,0.53031 0.176777,0.61872 0.07043,0.14085 0.263298,0.34982 0.353553,0.53033 0.02635,0.0527 -0.04167,0.13511 0,0.17677 0.11669,0.11669 0.210198,0.10027 0.265165,0.26517 0.02795,0.0838 -0.04903,0.19162 0,0.26516 0.112602,0.16891 0.205629,0.26334 0.265165,0.44195 0.01863,0.0559 -0.02635,0.12407 0,0.17677 0.01318,0.0264 0.07521,-0.0263 0.08839,0 0.03953,0.0791 -0.04903,0.19162 0,0.26517 0.04623,0.0693 0.130552,0.10744 0.176777,0.17677 0.0828,0.1242 0.03384,0.59801 0.08839,0.70711 0.05148,0.10296 0.125296,0.1622 0.176776,0.26517 0.02635,0.0527 -0.02635,0.12407 0,0.17677 0.104424,0.20885 0.334303,0.40344 0.441942,0.61872 0.01318,0.0263 0,0.0589 0,0.0884 0.02946,0.11785 0.03406,0.2449 0.08839,0.35355 0.02946,0.0589 0.147314,0.0295 0.176777,0.0884 0.07791,0.15582 0.126809,0.39197 0.265165,0.53033 0.182879,0.18288 -0.0071,-0.27946 0.176777,0.0884 0.04167,0.0833 0.04672,0.18183 0.08839,0.26516 0.08033,0.16066 0.365113,0.40064 0.53033,0.44195 0.05717,0.0143 0.124072,-0.0264 0.176777,0 0.05893,0.0295 0.02946,0.14731 0.08839,0.17677 0.05271,0.0264 0.127748,-0.0327 0.176777,0 0.05482,0.0366 0.03357,0.14024 0.08839,0.17678 0.265165,0.17678 0.08839,-0.0884 0.265165,0 0.192179,0.0961 0.361404,0.31525 0.53033,0.44194 0.02357,0.0177 0.05893,0 0.08839,0 0.05893,0.0295 0.130192,0.0418 0.176776,0.0884 0.02083,0.0208 -0.02083,0.0676 0,0.0884 0.118981,0.11898 0.265165,0.11876 0.26518,0.0882 1.5e-5,0.0624 -0.20646,0.0889 -0.26515,0.26496 -0.02829,0.0849 0.04242,0.26875 0,0.35355 -0.202256,0.40452 0.03663,-0.37506 -0.176776,0.26517 -0.163846,0.49154 -0.02268,0.81817 -0.441942,1.23744 -0.04659,0.0466 -0.130197,0.0418 -0.176777,0.0884 -0.107656,0.10766 -0.0414,0.19747 -0.176776,0.26517 -0.05271,0.0263 -0.124077,-0.0263 -0.176777,0 -0.07454,0.0373 -0.09369,0.17078 -0.176777,0.17678 -0.388523,0.0299 -1.209001,0 -1.679378,0 -0.05893,0 -0.124067,-0.0264 -0.176777,0 -0.106066,0.053 -0.159099,0.21216 -0.265165,0.26516 -0.369643,0.18482 -0.646104,0.40127 -0.972272,0.61872 -0.02452,0.0163 -0.06756,-0.0208 -0.08839,0 -0.09003,0.09 -0.260414,0.36434 -0.353554,0.44194 -0.131977,0.10998 -0.294627,0.17677 -0.441941,0.26517 -0.05893,0 -0.127747,-0.0327 -0.176777,0 -0.650275,0.43351 0.709814,-0.0893 -0.353553,0.26516 -0.02451,0.0163 0.01318,0.062 0,0.0884 -0.07015,0.1403 -0.295224,0.20687 -0.353554,0.26517 -0.07511,0.0751 0.233293,0.34076 -0.176777,0.26516 -0.101075,0.0674 -0.240763,0.0433 -0.353553,0.0884 -0.369593,0.14784 -0.700725,0.37036 -1.06066,0.53033 -0.230595,0.10248 -0.574833,0.0664 -0.795495,0.17678 -0.07454,0.0373 -0.102237,0.13947 -0.176777,0.17677 -0.166667,0.0834 -0.375287,0.0734 -0.53033,0.17678 -0.02451,0.0164 0.02795,0.0794 0,0.0884 -0.08385,0.0279 -0.178495,-0.0173 -0.265165,0 -0.210327,0.0421 -0.342082,0.3343 -0.618718,0.17677 -0.348228,0.0435 -0.711309,-0.0349 -1.060661,0 -0.957188,0.0957 -1.881411,0.42511 -2.828427,0.53033 -1.781325,0.19794 -3.602346,0.0884 -5.391689,0.0884 -0.394018,0 -1.721902,-0.10367 -2.032932,0 -0.03953,0.0132 -0.04886,0.0752 -0.08839,0.0884 -0.0559,0.0186 -0.119607,-0.0143 -0.176777,0 -0.323028,0.0808 -0.535747,0.26878 -0.795495,0.44194 -0.02452,0.0163 -0.06756,-0.0208 -0.08839,0 -0.04659,0.0466 -0.03252,0.14188 -0.08839,0.17678 -0.190276,0.11892 -0.412479,0.17676 -0.618719,0.26516 -0.05893,0.0589 -0.107437,0.13058 -0.176777,0.17678 -0.101075,0.0674 -0.252477,0.021 -0.353553,0.0884 -0.08839,0.0589 0.270833,0.38659 -0.176777,0.26516 -0.07989,0.0479 -0.187645,0.0367 -0.265165,0.0884 -0.05482,0.0365 0.09835,0.19978 -0.08839,0.17678 -0.131651,0.0878 -0.334651,0.18466 -0.441942,0.26516 -0.341953,0.25647 -0.415457,0.71892 -0.795495,0.97228 -0.424498,0.28301 -1.105056,-0.009 -1.59099,0.0884 -0.280729,0.0562 -1.264934,0.44047 -1.502602,0.61872 -0.24211,0.18159 -0.53365,0.55533 -0.707107,0.70711 -0.09916,0.0868 -0.260383,0.0836 -0.353553,0.17678 -0.07512,0.0751 -0.101657,0.19006 -0.176777,0.26516 -0.04659,0.0466 -0.124076,0.0489 -0.176776,0.0884 -0.135162,0.10137 -0.356762,0.38837 -0.441942,0.53033 -0.04794,0.0799 -0.03249,0.19066 -0.08839,0.26516 -0.03953,0.0527 -0.137246,0.0357 -0.176776,0.0884 -0.04153,0.0554 -0.117807,0.38294 -0.176777,0.44194 -0.02084,0.0208 -0.07521,-0.0263 -0.08839,0 -0.06804,0.13608 -0.05333,0.3822 -0.176777,0.53033 -0.228726,0.27448 -0.442425,0.42021 -0.707107,0.61872 -0.06667,0.05 -0.117846,0.11788 -0.176776,0.17678 0,0.0295 0.02083,0.0676 0,0.0884 -0.103359,0.10336 -0.49657,0.36054 -0.618719,0.44194 -0.02452,0.0163 -0.06756,-0.0208 -0.08839,0 -0.04659,0.0466 -0.0418,0.13018 -0.08839,0.17678 -0.0596,0.0596 -0.281793,-0.0478 -0.353553,0 -0.06934,0.0462 -0.117847,0.11787 -0.176777,0.17677 0,0.0295 0.02083,0.0676 0,0.0884 -0.05863,0.0586 -0.349741,0.10768 -0.441941,0.17678 -0.1,0.075 -0.14658,0.22566 -0.265165,0.26516 -0.189312,0.0631 -0.258005,0.0388 -0.441942,0.17678 -0.06667,0.05 -0.102237,0.13948 -0.176777,0.17678 -0.07906,0.0395 -0.191625,-0.049 -0.265165,0 -0.30345,0.2023 -0.588243,0.48537 -0.883883,0.7071 -0.231985,0.17399 -0.441029,0.60068 -0.707107,0.70711 -0.11279,0.0451 -0.248081,0.0281 -0.353553,0.0884 -0.184006,0.10514 -0.269097,0.32671 -0.441942,0.44194 -0.257893,0.17193 -0.618684,0.39773 -0.883884,0.53033 -0.188901,0.0944 -0.420304,0.14116 -0.618718,0.26517 -0.124922,0.0781 -0.221792,0.19926 -0.353553,0.26516 -0.74789,0.37394 -0.277106,0.0756 -0.883884,0.17678 -0.484786,0.0808 -1.199276,0.20952 -1.679378,0.35355 -0.151971,0.0456 -0.294628,0.11788 -0.441942,0.17678 -0.08839,0.0589 -0.164387,0.14317 -0.265165,0.17677 -0.170019,0.0567 -0.353554,0.0589 -0.53033,0.0884 -0.08839,0 -0.179415,-0.0214 -0.265165,0 -0.04042,0.0101 -0.05112,0.0698 -0.08839,0.0884 -0.141911,0.071 -0.289384,0.13318 -0.441941,0.17678 -0.357306,0.1021 -0.920432,-0.0173 -1.237437,0.0884 -0.03953,0.0132 -0.05009,0.072 -0.08839,0.0884 -0.171272,0.0734 -0.360693,0.0997 -0.53033,0.17678 -0.216245,0.0983 -0.393371,0.27845 -0.618718,0.35355 -0.454756,0.15159 -0.883691,0.42924 -1.325825,0.61872 -0.111656,0.0479 -0.23981,0.0458 -0.353554,0.0884 -0.160857,0.0603 -0.278961,0.21087 -0.441941,0.26517 -0.606778,0.20228 0.411703,-0.33842 -0.441942,0.0884 -0.03727,0.0187 -0.04797,0.0783 -0.08839,0.0884 -0.08575,0.0214 -0.181315,-0.0279 -0.265165,0 -0.100779,0.0336 -0.170155,0.12928 -0.265165,0.17678 -0.406931,0.20347 -0.117055,0.006 -0.530331,0.0884 -0.129202,0.0258 -0.228553,0.13507 -0.353553,0.17677 -0.09827,0.0328 -0.571838,0.0572 -0.618718,0.0884 -0.104007,0.0693 -0.153362,0.20927 -0.265165,0.26517 -0.07727,0.0386 -0.278914,-0.0187 -0.353554,0 -0.710948,0.17773 0.184078,-0.003 -0.265165,0.17677 -0.442472,0.17699 -0.359047,0.002 -0.883883,0.17678 -0.822163,0.27406 -0.929823,0.40923 -1.767767,0.61872 -0.09039,0.0226 -0.176775,0.0589 -0.265165,0.0884 -0.02946,0.0295 -0.04797,0.0783 -0.08839,0.0884 -0.06014,0.015 -0.45034,-0.0533 -0.53033,0 -0.198689,0.13246 -0.463561,0.48572 -0.618718,0.61871 -0.09899,0.0849 -0.368392,0.20646 -0.441942,0.35356 -0.01318,0.0264 0.02083,0.0676 0,0.0884 -0.02474,0.0247 -0.483273,-0.0908 -0.265165,0.17677 -0.06636,0.083 -0.101656,0.19007 -0.176776,0.26517 -0.02084,0.0208 -0.06756,-0.0208 -0.08839,0 -0.366054,0.36604 -0.02882,0.22001 -0.176776,0.44194 -0.127511,0.19127 -0.52046,0.75945 -0.707107,0.88388 -0.05482,0.0366 -0.130187,0.0418 -0.176777,0.0884 -0.02083,0.0208 0.01634,0.0639 0,0.0884 -0.09065,0.13598 -0.262903,0.21757 -0.353553,0.35355 -0.03654,0.0548 -0.03357,0.14028 -0.08839,0.17678 -0.132014,0.088 -0.30003,0.10578 -0.441941,0.17678 -0.271547,0.13577 0.14619,0.0498 -0.176777,0.26516 -0.04903,0.0327 -0.127747,-0.0327 -0.176777,0 -0.05482,0.0365 -0.0418,0.13018 -0.08839,0.17678 -0.06822,0.0682 -0.43734,0.20316 -0.53033,0.26516 -0.122573,0.0817 -0.249387,0.161 -0.353554,0.26517 -0.04659,0.0466 -0.0418,0.13018 -0.08839,0.17678 -0.02083,0.0208 -0.07521,-0.0264 -0.08839,0 -0.02635,0.0527 0.02635,0.12407 0,0.17677 -0.01318,0.0263 -0.06756,-0.0208 -0.08839,0 -0.02083,0.0209 0.01318,0.0621 0,0.0884 -0.03727,0.0745 -0.139506,0.10228 -0.176776,0.17678 -0.04683,0.0937 0.03338,0.2534 0,0.35355 -0.04167,0.125 -0.150937,0.22435 -0.176777,0.35355 -0.06142,0.3071 -0.0128,0.66993 -0.08839,0.97228 -0.05215,0.20859 -0.417724,1.21321 -0.53033,1.32582 -0.02084,0.0208 -0.06204,-0.0132 -0.08839,0 -0.210379,0.10519 -0.395334,0.33025 -0.618718,0.44194 -0.0527,0.0263 -0.124077,-0.0263 -0.176777,0 -0.131688,0.0658 -0.301454,0.21837 -0.441942,0.26517 -0.421079,0.14036 -0.897312,0.17946 -1.325825,0.26516 -0.130729,0.0262 -0.78107,0.037 -0.883883,0.0884 -0.149559,0.0748 -0.557069,0.257 -0.618719,0.44194 -0.01863,0.0559 0.03269,0.12778 0,0.17678 -0.03654,0.0548 -0.117846,0.0589 -0.176776,0.0884 -0.02946,0.0295 -0.06528,0.0537 -0.08839,0.0884 -0.05893,0.0884 -0.143186,0.16438 -0.176776,0.26516 -0.01863,0.0559 0.02635,0.12408 0,0.17678 -0.01318,0.0264 -0.06756,-0.0208 -0.08839,0 -0.07716,0.0772 -0.06105,0.24418 -0.08839,0.35355 -0.0226,0.0904 -0.05893,0.17677 -0.08839,0.26517 -0.02946,0 -0.07521,-0.0264 -0.08839,0 -0.02635,0.0527 0.01863,0.12087 0,0.17677 -0.05668,0.17 -0.166525,0.0391 -0.265165,0.0884 -0.17823,0.0891 -0.218408,0.30885 -0.441942,0.35355 -0.304143,0.0608 -0.75473,0 -1.06066,0 H 10.16466 c -0.08756,0 -0.661632,0.0455 -0.707107,0 -0.020833,-0.0208 0.020833,-0.0676 0,-0.0884 -0.024055,-0.0241 -0.3477834,9.6e-4 -0.3535534,0 -0.1198253,-0.02 -0.2325741,-0.0774 -0.3535534,-0.0884 -0.5743921,-0.0522 -1.1915062,0 -1.7677669,0 L 0.70710676,372.51268 0.5625,204.0625 H 6 c 0.6186124,0 1.1931361,0.0183 1.8125,0.0625 0.038043,0.003 0.173913,-0.005 0.1875,0 0.063107,0.0252 0.221498,0.1693 0.3125,0.1875 0.3049436,0.061 0.5253292,0.0388 0.8125,0.125 0.2149188,0.0645 0.4092514,0.1884 0.625,0.25 0.33371,0.0953 -0.1403628,-0.16393 0.3125,0.0625 0.02635,0.0132 0.04167,0.0417 0.0625,0.0625 0.08333,0.0417 0.16161,0.0955 0.25,0.125 0.03953,0.0132 0.08547,-0.0132 0.125,0 0.132582,0.0442 0.239418,0.1536 0.375,0.1875 0.06063,0.0152 0.1355,-0.0347 0.1875,0 0.266912,0.17794 0.498041,0.42343 0.75,0.625 0.285083,0.22807 0.963172,0.499 1.3125,0.5625 0.597172,0.1086 0.358564,0.0244 1.0625,0.125 0.297154,0.0425 0.569995,0.1875 0.875,0.1875 0.248806,0 2.056001,-0.0647 2.25,0 0.174333,0.0581 0.3621,0.1999 0.5625,0.25 0.0625,0.0156 0.125,-0.0312 0.1875,0 0.0527,0.0264 0.07447,0.0947 0.125,0.125 0.05649,0.0339 0.12857,0.033 0.1875,0.0625 0.228539,0.11427 0.46804,0.31209 0.6875,0.4375 0.12317,0.0704 0.47337,0.1493 0.5625,0.1875 0.185946,0.0797 0.274789,0.14153 0.4375,0.25 0.185341,0.12356 1.619117,0.4554 1.8125,0.5 0.388912,0.0898 0.795444,0.0858 1.1875,0.125 0.498088,0.0498 1.002329,0.1878 1.5,0.25 0.409893,0.0512 0.839094,0.0214 1.25,0.0625 0.06555,0.007 0.12185,0.0565 0.1875,0.0625 0.269898,0.0225 0.542779,-0.0245 0.8125,0 0.41361,0.0376 0.768931,0.1495 1.1875,0.1875 0.269721,0.0245 0.541946,-0.0123 0.8125,0 0.229874,0.0104 0.457898,0.0472 0.6875,0.0625 0.393228,0.0262 0.793097,0 1.1875,0 H 33.375 42 c 0.347155,-0.0404 0.709916,-0.0896 1.0625,-0.0625 1.534057,0.118 3.084412,0.0625 4.625,0.0625 0.477194,0 1.182454,-0.0388 1.6875,0 1.050835,0.0808 1.125695,0.16081 2.1875,0.3125 0.80671,0.1152 1.625265,0.1216 2.4375,0.1875 0.314234,0.0255 0.623036,0.1025 0.9375,0.125 0.517809,0.037 1.044044,-0.0259 1.5625,0 0.209111,0.0105 0.416091,0.0486 0.625,0.0625 0.582041,0.0388 1.166667,0 1.75,0 1.497304,0 3.004215,-0.0534 4.5,0 0.292223,0.0104 0.58279,0.0517 0.875,0.0625 1.78507,0.0661 3.588793,0 5.375,0 0.875,0 1.751275,0.0472 2.625,0 0.657136,-0.0355 1.357315,-0.0572 2,-0.25 0.107459,-0.0322 0.202488,-0.103 0.3125,-0.125 0.460037,-0.092 0.800939,-0.0251 1.25,-0.0625 0.346143,-0.0289 0.662042,-0.1885 1,-0.25 0.883456,-0.1606 1.791067,-0.1875 2.6875,-0.1875 h 1.3125 c 0.1875,0 0.382214,-0.0515 0.5625,0 0.07223,0.0206 0.12031,0.0914 0.1875,0.125 0.551532,0.27577 1.115618,0.52125 1.6875,0.75 0.117187,0.0469 0.265625,0.1563 0.375,0.1875 0.228578,0.0653 0.513621,-0.0338 0.75,0 0.453972,0.0649 0.912725,0.1922 1.375,0.25 0.265714,0.0332 0.549475,0.0249 0.8125,0.0625 0.291475,-0.10577 0.495302,0.1483 0.75,0.1875 0.206938,0.0318 0.420613,0.0171 0.625,0.0625 0.173761,0.0386 0.331134,0.1312 0.5,0.1875 0.345346,0.11511 0.662446,0.24842 1,0.375 0.08043,0.0302 0.17317,0.0241 0.25,0.0625 0.09317,0.0466 0.15894,0.1369 0.25,0.1875 0.236751,0.13153 0.501065,0.20581 0.75,0.3125 0.36949,0.15835 0.73914,0.32174 1.125,0.4375 0.167047,0.0501 0.56441,0.0947 0.75,0.1875 0.128041,0.064 0.314365,0.1679 0.4375,0.25 0.09561,0.0637 0.15173,0.191 0.25,0.25 0.230404,0.13824 0.476761,0.29701 0.6875,0.4375 0.225254,0.15017 0.332346,0.43339 0.5,0.625 0.205426,0.23477 0.899603,0.59658 1.1875,0.8125 0.1537,0.1153 0.122426,-0.004 0.25,0.1875 0.179265,0.2689 0.260202,0.6977 0.5,0.9375 0.119357,0.11936 0.32142,0.19642 0.4375,0.3125 0.07366,0.0737 0.11384,0.1763 0.1875,0.25 0.02946,0.0295 0.09554,-0.0295 0.125,0 0.08333,0.0833 -0.104167,0.0625 0.0625,0.0625 0.995992,0.123 2.000365,0.0341 3,0.125 0.0622,0.006 0.1269,-0.0152 0.1875,0 0.0904,0.0226 0.1628,0.0923 0.25,0.125 0.52858,0.19822 0.38189,0.20081 1.1875,0.375 0.47537,0.10278 0.95776,0.17 1.4375,0.25 0.16843,0.0281 0.71446,0.0447 0.875,0.125 0.54718,0.27359 0.13858,0.0883 1.0625,0.375 0.3587,0.11132 0.70435,0.2619 1.0625,0.375 0.0795,0.0251 0.1709,-0.0264 0.25,0 0.0988,0.0329 0.1521,0.1519 0.25,0.1875 0.27998,0.10181 0.69515,0.1992 1,0.25 0.20396,0.034 0.41927,0.0368 0.625,0.0625 0.58212,0.0728 0.0376,0.0482 0.6875,0.1875 0.36444,0.0781 1.16467,0.0947 1.4375,0.125 0.57192,0.0635 0.78147,0.1831 1.25,0.25 0.39966,0.0571 0.84337,0 1.25,0 h 3.375 c 0.47424,0 0.96541,-0.0393 1.4375,0 0.12629,0.0105 0.24856,0.0545 0.375,0.0625 0.97493,0.065 1.96226,-0.0609 2.9375,0 1.66649,0.10415 3.32981,0.3311 5,0.375 1.53908,0.0405 3.08553,0 4.625,0 0.62044,0 1.25714,-0.0475 1.875,0 0.23224,0.0179 0.4549,0.1128 0.6875,0.125 0.84928,0.0447 1.71408,-0.0628 2.5625,0 0.4176,0.0309 0.83249,0.0929 1.25,0.125 0.86918,0.0665 1.76519,-0.0987 2.625,0.0625 1.0081,0.18902 2.04478,0.31537 3.0625,0.4375 0.10342,0.0124 0.20925,-0.0138 0.3125,0 0.2106,0.0281 0.41384,0.1015 0.625,0.125 0.26918,0.0299 0.54167,0 0.8125,0 h 2.25 2.125 c 0.2554,0 0.55986,0.0505 0.8125,0 0.11743,-0.0235 0.6767,-0.2637 0.75,-0.3125 0.049,-0.0327 0.0723,-0.0986 0.125,-0.125 0.0373,-0.0186 0.0903,0.0231 0.125,0 0.0388,-0.0258 0.0237,-0.0992 0.0625,-0.125 0.0933,-0.0622 0.21215,-0.0748 0.3125,-0.125 0.17548,-0.0877 0.39029,-0.27294 0.5,-0.4375 0.0116,-0.0173 -0.0202,-0.0675 0,-0.0625 0.29074,0.0725 0.19479,0.041 0.29297,0.0352 0.0495,-0.003 0.0587,-0.0316 0.14453,-0.0352 z"
         id="path248" />
    </g>
  </g>
</svg>
