<?xml version="1.0" encoding="UTF-8" standalone="no"?>
<!-- Created with Inkscape (http://www.inkscape.org/) -->

<svg
   version="1.1"
   id="svg1"
   width="221.25652"
   height="108.71767"
   viewBox="0 0 221.25652 108.71767"
   xmlns="http://www.w3.org/2000/svg"
   xmlns:svg="http://www.w3.org/2000/svg">
  <defs
     id="defs1" />
  <g
     id="layer1"
     style="display:inline"
     transform="translate(-648.75,-499.39416)">
    <g
       id="layer45"
       style="display:inline;fill:#ffffff;fill-opacity:1;stroke:none">
      <path
         style="fill:#ffffff;fill-opacity:1;stroke:none;stroke-linecap:round"
         d="m 660.25,521.375 -0.75,28 -6.375,22.75 -4.375,11.125 3.65625,-0.28125 20,1.9375 48.90625,15.5625 2.90625,-2.8125 3.875,-1.46875 5.65625,-6.4375 12.96875,-6.84375 6.25,-1.15625 8.46875,-1.375 10.65625,0.46875 15.09375,3.21875 7.09375,7.40625 3.125,1.65625 25.6875,4.65625 17.30266,0.38689 1.76777,2.12132 2.51907,0.30936 8.08753,7.51301 h 11.31371 l 4.94975,-29.96365 0.97227,-14.23052 -1.94455,-20.68287 -7.42462,-22.62742 -7.42462,-15.2028 -1.85615,-0.35355 -2.56327,-2.74004 -5.74524,-1.94454 -3.18198,1.06066 -2.12132,1.32582 -2.74004,-0.17677 -3.44714,-2.20971 -10.34144,-0.0884 -6.18718,-0.88388 -28.54944,10.16466 -73.45072,10.51821 z"
         id="path43" />
    </g>
  </g>
</svg>
