<?xml version="1.0" encoding="UTF-8" standalone="no"?>
<!-- Created with Inkscape (http://www.inkscape.org/) -->

<svg
   version="1.1"
   id="svg2"
   width="147.98688"
   height="108.70629"
   viewBox="0 0 147.98688 108.70629"
   xmlns="http://www.w3.org/2000/svg"
   xmlns:svg="http://www.w3.org/2000/svg">
  <defs
     id="defs6">
    <linearGradient
       id="swatch77">
      <stop
         style="stop-color:#e2c69e;stop-opacity:1;"
         offset="0"
         id="stop77" />
    </linearGradient>
  </defs>
  <g
     id="layer66"
     style="display:inline"
     transform="translate(-708.34427,-252.54027)">
    <g
       id="layer38"
       style="display:inline">
      <path
         style="display:inline;fill:#969696;fill-opacity:1;stroke:none;stroke-opacity:1"
         d="m 731.32519,359.5638 c 0.49415,0.14824 1.13223,0.0239 1.591,0.17678 0.78657,0.26219 1.47463,0.71919 2.29809,0.88388 0.41591,0.0832 1.21398,-0.1885 1.59099,0 0.73185,0.36592 2.31511,0.81929 3.18198,0.53033 0.0791,-0.0263 0.0994,-0.14583 0.17678,-0.17678 0.33279,-0.13311 0.74007,-0.0165 1.06066,-0.17677 0.14907,-0.0745 0.21064,-0.26781 0.35355,-0.35356 0.12515,-0.539 0.4898,-0.0681 0.70711,-0.17677 1.01516,-0.50758 1.9932,-1.08499 3.0052,-1.59099 0.75109,-0.37555 1.75894,-0.48792 2.47488,-1.06066 0.19521,-0.15618 0.31595,-0.40171 0.53033,-0.53033 0.10105,-0.0606 0.23688,0.0167 0.35355,0 0.29744,-0.0425 0.60772,-0.0584 0.88388,-0.17678 0.426,-0.18257 0.64551,-0.85308 1.06066,-1.06066 0.10541,-0.0527 0.24414,0.0438 0.35356,0 0.42808,-0.17123 0.79101,-0.5397 1.23744,-0.70711 0.67101,-0.25163 2.31034,-0.73585 2.82842,-0.88388 0.34464,-0.0985 0.72063,-0.0634 1.06066,-0.17678 0.25415,-0.0847 0.44658,-0.44348 0.70711,-0.53033 0.27003,-0.09 0.80008,0.0521 1.06066,0 1.599,-0.3198 -0.48017,-0.0167 0.53033,-0.35355 0.59074,-0.19691 4.46567,0 6.14298,-0.39775 l 0.66291,-5.17072 c 0,-0.51462 0.0327,-1.10659 -0.0884,-1.59099 -0.0258,-0.10306 -0.14319,-0.16439 -0.17678,-0.26516 -0.0445,-0.13338 -0.0439,-0.48535 -0.0884,-0.61872 -0.0336,-0.10078 -0.14318,-0.16439 -0.17678,-0.26517 -0.028,-0.0838 0.0359,-0.18439 0,-0.26516 -0.2574,-0.57915 -0.68427,-0.99216 -0.88388,-1.59099 -0.0265,-0.0796 0.0265,-0.18562 0,-0.26517 -0.2618,-0.78541 -0.25239,-1.74323 -0.0884,-2.56326 0.0231,-0.11556 -0.0231,-0.23799 0,-0.35355 0.2265,-1.13251 -0.0825,0.68637 0.26517,-0.53033 0.11003,-0.38512 -0.0695,-1.07953 0.26516,-1.41422 0.0208,-0.0208 0.072,0.0245 0.0884,0 0.23878,-0.0919 0.005,-0.31694 0.0884,-0.44194 0.0365,-0.0548 0.13019,-0.0418 0.17678,-0.0884 0.0466,-0.0466 0.0418,-0.13019 0.0884,-0.17677 0.0466,-0.0466 0.12534,-0.0472 0.17678,-0.0884 0.13015,-0.10412 0.20448,-0.27902 0.35355,-0.35356 0.0833,-0.0417 0.18765,-0.0367 0.26517,-0.0884 0.0245,-0.0163 0,-0.0589 0,-0.0884 0.17678,-0.0884 0.34682,-0.19177 0.53033,-0.26517 0.3833,-0.15332 0.35128,0.002 0.70711,-0.26516 0.0236,-0.0177 -0.0245,-0.072 0,-0.0884 0.0775,-0.0517 0.18183,-0.0467 0.26516,-0.0884 0.13537,-0.0677 0.0691,-0.15751 0.17678,-0.26516 0.16827,-0.16827 0.5334,-0.38558 0.7071,-0.53033 0.27274,-0.22729 0.48292,-0.52648 0.70711,-0.7955 0.14731,-0.17678 0.32355,-0.33301 0.44194,-0.53033 0.0625,-0.10417 0.021,-0.25248 0.0884,-0.35355 l 0.17678,-0.17678 c 0.0295,0 0.0675,0.0208 0.0884,0 0.037,-0.037 0.0616,-0.2116 0.0884,-0.26517 0.053,-0.10606 0.21214,-0.15909 0.26517,-0.26516 0.0263,-0.0527 -0.0354,-0.12964 0,-0.17678 0.0637,-0.085 0.19005,-0.10166 0.26516,-0.17677 0.0208,-0.0208 -0.0132,-0.062 0,-0.0884 0.14556,-0.29111 0.29665,-0.59328 0.44195,-0.88389 0.13521,-0.27043 0.36908,-0.46523 0.53033,-0.7071 0.23171,-0.34757 0.20685,-0.49146 0.53033,-0.70711 0.0568,-0.0378 0.28251,0 0.35355,0 0.18978,0 0.52947,-0.0508 0.70711,0 0.11906,0.034 1.928,1.34521 2.03293,1.5026 0.0867,0.13006 0.12886,0.29821 0.17678,0.44194 0.0589,0.17678 0.14023,0.34761 0.17677,0.53033 0.0709,0.35471 0.0862,1.77223 -0.0884,2.12133 -0.0938,0.18767 -0.3864,0.3864 -0.53033,0.53033 -0.40436,0.40436 -0.82299,0.80269 -1.14904,1.23743 -0.11585,0.15446 -0.0877,0.26369 -0.17678,0.44194 -0.0761,0.15222 -0.28992,0.40307 -0.35356,0.53033 -0.0263,0.0527 0.01,0.11866 0,0.17678 -0.0406,0.24349 -0.13694,0.46811 -0.17677,0.70711 -0.0242,0.14531 0.0289,0.29749 0,0.44194 -0.0735,0.36764 -0.0884,0.68197 -0.0884,1.06066 0,0.21481 -0.089,1.2362 0,1.41421 0.0683,0.13657 0.27643,0.22502 0.35355,0.35356 0.0479,0.0799 0.0325,0.19063 0.0884,0.26516 0.0395,0.0527 0.13019,0.0418 0.17678,0.0884 0.013,0.013 0.74686,0.91391 0.79549,0.97227 0.2047,0.24563 0.27599,0.6073 0.44195,0.88388 0.11727,0.19546 0.22709,0.42903 0.35355,0.61872 0.0462,0.0693 0.15042,0.0977 0.17678,0.17678 0.0186,0.0559 -0.0186,0.12087 0,0.17678 0.035,0.10495 0.35207,0.34616 0.35355,0.35355 0.0347,0.17334 -0.0791,0.37222 0,0.53033 0.82496,1.64992 -0.0295,-0.10312 0.61872,0.70711 0.0582,0.0728 0.0422,0.18427 0.0884,0.26516 0.19967,0.34943 0.4681,0.74199 0.7071,1.06066 0.075,0.1 0.19583,0.16116 0.26517,0.26517 0.11993,0.1799 0.24261,0.47079 0.35355,0.61872 0.27861,0.37148 0.40752,0.46149 0.61872,0.88388 0.19588,0.39175 0.63579,0.60348 0.97227,0.88388 0.0506,0.0422 0.1339,0.0384 0.17678,0.0884 0.13826,0.16131 0.21528,0.36902 0.35355,0.53033 0.0828,0.0966 0.34847,0.26008 0.44194,0.35355 0.007,0.007 0.42436,0.51861 0.44194,0.53033 0.049,0.0327 0.12775,-0.0327 0.17678,0 0.0548,0.0366 0.0336,0.14024 0.0884,0.17678 0.049,0.0327 0.12407,-0.0263 0.17678,0 0.0263,0.0132 -0.0208,0.0676 0,0.0884 0.0466,0.0466 0.13019,0.0418 0.17677,0.0884 0.0208,0.0208 -0.0245,0.072 0,0.0884 0.24144,0.16096 0.54356,0.20958 0.7955,0.35355 0.0724,0.0413 0.10224,0.13951 0.17677,0.17678 0.15982,0.0799 0.43904,-0.0359 0.61872,0 0.43301,0.0866 0.90765,0.21416 1.32583,0.35355 0.50922,0.16974 1.10518,0.63334 1.67938,0.44194 0.27724,-0.0924 0.16431,-0.20216 0.35355,-0.35355 0.13415,-0.10732 0.27896,-0.21084 0.44194,-0.26517 0.0559,-0.0186 0.12407,0.0264 0.17678,0 0.0745,-0.0373 0.10744,-0.13055 0.17678,-0.17677 0.1798,-0.11987 0.42615,0.10417 0.61871,-0.0884 0.0208,-0.0208 -0.0208,-0.0676 0,-0.0884 0.0659,-0.0659 0.18765,-0.0367 0.26517,-0.0884 0.10637,-0.0709 0.50269,-0.35903 0.53033,-0.44194 0.20226,-0.60678 -0.33843,0.4117 0.0884,-0.44194 0.0616,-0.12318 0.14514,-0.19536 0.17677,-0.35356 0.0254,-0.12692 0.0526,-2.2551 0,-2.38648 -0.17718,-0.44295 -0.65693,-0.74533 -0.97227,-1.06066 -0.10416,-0.10417 -0.161,-0.24939 -0.26516,-0.35355 -0.0751,-0.0751 -0.19881,-0.0938 -0.26517,-0.17678 -0.0582,-0.0728 -0.0325,-0.19063 -0.0884,-0.26517 -0.0884,-0.11785 -0.26152,-0.15013 -0.35355,-0.26516 -0.45334,-0.56668 -1.07671,-0.98833 -1.59099,-1.5026 -0.0466,-0.0466 -0.0369,-0.13562 -0.0884,-0.17678 -0.10289,-0.0823 -0.24057,-0.10899 -0.35355,-0.17678 -0.19732,-0.11839 -0.34308,-0.30819 -0.53033,-0.44194 -0.24412,-0.17437 -0.16659,0.0102 -0.44194,-0.26516 -0.0751,-0.0751 -0.0938,-0.19881 -0.17678,-0.26517 -0.0728,-0.0582 -0.18183,-0.0467 -0.26517,-0.0884 -0.1118,-0.0559 -0.16913,-0.18514 -0.26516,-0.26516 -0.35273,-0.29395 -0.75756,-0.6392 -1.14905,-0.88389 0.10464,-0.43995 -0.33014,-0.12087 -0.44194,-0.17677 -0.11876,-0.0594 -0.3413,-0.42969 -0.44194,-0.53033 -0.20945,-0.20945 -0.28621,-0.0842 -0.35356,-0.35356 -0.0143,-0.0572 0.0264,-0.12407 0,-0.17677 -0.0132,-0.0263 -0.0826,0.0289 -0.0884,0 -0.0289,-0.14446 0.0242,-0.29663 0,-0.44194 -0.0217,-0.12997 -0.15512,-0.22359 -0.17678,-0.35356 -0.0718,-0.43073 -0.0639,-2.09424 0.0884,-2.47487 0.0109,-0.0274 0.062,0.0132 0.0884,0 0.0373,-0.0186 0.0511,-0.0698 0.0884,-0.0884 0.69733,-0.34866 1.45084,-0.26516 2.20971,-0.26516 0.23691,0 0.57243,-0.0558 0.7955,0 0.74843,0.1871 1.51147,0.60327 2.12132,1.06066 0.0589,0.0589 0.11785,0.11785 0.17678,0.17677 0,0.0295 -0.0208,0.0676 0,0.0884 0.0466,0.0466 0.13019,0.0418 0.17677,0.0884 0.12037,0.12037 0.60341,0.94166 0.70711,1.14905 0.071,0.14191 0.0888,0.30992 0.17678,0.44194 0.0462,0.0693 0.11785,0.11785 0.17677,0.17678 0.0589,0.0884 0.12212,0.17407 0.17678,0.26516 0.13525,0.22543 0.25737,0.61092 0.44194,0.7955 0.0466,0.0466 0.13725,0.0357 0.17678,0.0884 0.0559,0.0745 0.0325,0.19063 0.0884,0.26517 0.125,0.16667 0.3018,0.28779 0.44194,0.44194 0.15479,0.17027 0.27923,0.36762 0.44194,0.53033 0.0466,0.0466 0.13019,0.0418 0.17678,0.0884 0.0751,0.0751 0.0918,0.20143 0.17677,0.26516 0.0471,0.0354 0.12775,-0.0327 0.17678,0 0.29869,0.19913 0.70213,0.64487 1.06066,0.88389 0.16966,0.11311 0.48199,0.12844 0.61872,0.26516 0.2113,0.21131 0.34782,0.52651 0.61872,0.70711 0.2585,0.17234 0.45878,0.2557 0.7071,0.44194 0.098,0.0735 0.16338,0.19731 0.26517,0.26517 0.21039,0.14026 0.42983,0.1235 0.61872,0.26516 0.42753,0.32065 0.10375,0.0906 0.7071,0.17678 0.28325,0.0405 0.58455,0.22775 0.88389,0.26516 0.48229,0.0603 1.82172,0.20749 2.29809,0.0884 0.21866,-0.0547 0.38068,-0.29228 0.53033,-0.44194 0.2281,-0.22809 0.26517,-0.12598 0.26517,-0.44194 0,-0.75427 -0.0402,-1.13302 -0.26517,-2.03293 0.30703,-0.6928 -0.20926,-0.15337 -0.26516,-0.26517 -0.0264,-0.0527 0.0417,-0.13511 0,-0.17678 -0.0659,-0.0659 -0.17866,-0.0538 -0.26517,-0.0884 -0.20833,-0.0833 -0.41367,-0.17404 -0.61871,-0.26517 -0.0602,-0.0268 -0.11786,-0.0589 -0.17678,-0.0884 -0.0589,-0.0589 -0.10224,-0.13951 -0.17678,-0.17677 -0.0527,-0.0264 -0.12087,0.0186 -0.17677,0 -0.11859,-0.0395 -0.15798,-0.20086 -0.26517,-0.26517 -0.3168,-0.19008 -0.73944,-0.19294 -1.06066,-0.35355 -0.2602,-0.1301 -1.07632,-0.89954 -1.23744,-1.06066 -0.0751,-0.0751 -0.10166,-0.19005 -0.17677,-0.26517 -0.0466,-0.0466 -0.12408,-0.0489 -0.17678,-0.0884 -0.335,-0.25124 -0.67617,-0.49939 -0.97227,-0.79549 -0.19654,-0.19654 -0.26106,-0.49607 -0.44194,-0.70711 -0.20383,-0.23779 -0.39726,-0.48564 -0.61872,-0.7071 -0.19401,-0.19401 -0.62934,-0.39718 -0.7955,-0.61872 -0.0353,-0.0471 0.0327,-0.12775 0,-0.17678 -0.0365,-0.0548 -0.13019,-0.0418 -0.17677,-0.0884 -0.18835,-0.18835 -0.22322,-0.48987 -0.35356,-0.7071 -0.0429,-0.0715 -0.12677,-0.11011 -0.17677,-0.17678 -0.14144,-0.18858 -0.3769,-0.7446 -0.44195,-0.97227 -0.054,-0.189 0.0477,-0.428 0,-0.61872 -0.0101,-0.0404 -0.0783,-0.048 -0.0884,-0.0884 -0.024,-0.0958 -0.0525,-0.77879 0,-0.88388 0.0397,-0.0793 0.43027,-0.44695 0.53033,-0.53033 0.60977,-0.50815 2.10538,-0.80347 2.82842,-0.44195 0.11181,0.0559 0.16345,0.19252 0.26517,0.26517 0.16083,0.11488 0.37221,0.14658 0.53033,0.26516 0.22116,0.16587 0.401,0.35616 0.61872,0.53034 0.20577,0.16462 0.49267,0.20038 0.7071,0.35355 0.0321,0.0229 0.38702,0.47541 0.44195,0.53033 0.0985,0.0985 0.39063,0.28514 0.44194,0.35355 0.0559,0.0745 0.0467,0.18183 0.0884,0.26517 0.25315,0.5063 0.57296,0.94783 0.88388,1.41421 0.1615,0.24226 0.19205,0.55324 0.35355,0.7955 0.57773,0.86659 -0.0368,-0.0368 0.53033,0.53033 0.20022,0.20021 0.44143,0.82427 0.61872,1.06066 0.4508,0.60107 0.96379,1.02221 1.59099,1.41421 0.15998,0.1 0.28017,0.25649 0.44194,0.35355 0.11299,0.0678 0.24815,0.0977 0.35356,0.17678 0.0236,0.0177 -0.0132,0.062 0,0.0884 0.004,0.009 0.64869,0.59535 0.7071,0.61872 1.00757,0.40302 1.44051,0.35355 2.47488,0.35355 0.72105,0 1.41496,0.17529 1.76776,-0.53033 0.0475,-0.095 0.14319,-0.16439 0.17678,-0.26517 0.0506,-0.15187 0.0719,-0.85238 0,-0.97227 -0.0643,-0.10718 -0.20085,-0.15798 -0.26516,-0.26516 -0.0303,-0.0505 0.0143,-0.11961 0,-0.17678 -0.13869,-0.55474 -0.0381,0.20119 -0.17678,-0.35355 -0.0549,-0.21958 -0.0335,-0.48754 -0.0884,-0.70711 -0.11432,-0.45727 -0.87269,-1.75657 -1.23744,-2.12132 -0.0751,-0.0751 -0.19716,-0.0952 -0.26516,-0.17678 -0.13906,-0.16686 -0.21859,-0.43876 -0.35356,-0.61871 -0.31193,-0.41591 -0.63618,-0.83413 -0.97227,-1.23744 -0.462,-0.5544 -0.6729,-1.09703 -1.23743,-1.59099 -0.28396,-0.24846 -0.60344,-0.4547 -0.88389,-0.70711 -0.0219,-0.0197 0,-0.0589 0,-0.0884 -0.14731,-0.11785 -0.28937,-0.24259 -0.44194,-0.35355 -0.17182,-0.12496 -0.35355,-0.2357 -0.53033,-0.35355 -0.2357,-0.20624 -0.45989,-0.42644 -0.70711,-0.61872 -0.0233,-0.0181 -0.0675,0.0208 -0.0884,0 -0.16272,-0.16272 -0.25048,-0.40269 -0.44195,-0.53033 -0.24987,-0.16659 -0.58872,-0.32356 -0.79549,-0.53033 -0.0466,-0.0466 -0.0489,-0.12407 -0.0884,-0.17678 -0.24719,-0.32959 -0.6229,-0.5649 -0.88388,-0.88388 -0.50034,-0.61152 -0.84271,-1.19626 -1.41422,-1.76777 -0.0751,-0.0751 -0.17677,-0.11785 -0.26516,-0.17678 -0.17678,-0.20624 -0.33826,-0.42664 -0.53033,-0.61871 -0.22015,-0.22015 -0.57461,-0.39783 -0.7955,-0.61872 -0.20038,-0.20039 0.0527,-0.19461 -0.26516,-0.35356 -0.0527,-0.0264 -0.12775,0.0327 -0.17678,0 -0.0427,-0.0285 -0.56452,-0.95226 -0.61872,-1.06066 -0.0896,-0.17919 0,-0.60362 0,-0.79549 0,-0.13093 -0.028,-0.41833 0,-0.53033 0.0357,-0.14292 0.19929,-0.22179 0.26517,-0.35356 0.0417,-0.0833 0.0467,-0.18183 0.0884,-0.26516 0.0677,-0.13537 0.15751,-0.0691 0.26516,-0.17678 0.24874,-0.24874 0.078,-0.32931 0.53033,-0.53033 0.13728,-0.061 0.29529,-0.0558 0.44194,-0.0884 0.62087,-0.13797 1.23104,-0.32473 1.85616,-0.44194 0.23347,-0.0438 0.47418,-0.0418 0.70711,-0.0884 0.44314,-0.0886 0.8921,-0.29736 1.32582,-0.44194 0.48252,-0.16084 0.87909,-0.39535 1.32583,-0.61872 0.0833,-0.0417 0.18527,-0.0404 0.26516,-0.0884 0.35972,-0.21584 -0.006,-0.14546 0.35355,-0.26517 0.60828,-0.20276 1.58344,-0.52655 2.12132,-0.79549 0.13177,-0.0659 0.2218,-0.19929 0.35356,-0.26517 0.16666,-0.0833 0.35832,-0.10511 0.53033,-0.17678 0.40426,-0.16844 0.8095,-0.42334 1.23743,-0.53033 0.17387,-0.0435 0.36032,-0.0317 0.53033,-0.0884 0.17678,-0.0884 0.35356,-0.17678 0.53033,-0.26517 0.0295,-0.0295 0.0522,-0.0677 0.0884,-0.0884 0.55065,-0.31465 1.13354,-0.55637 1.67938,-0.88388 0.43537,-0.26122 0.8164,-0.60319 1.23744,-0.88388 0.5734,-0.38227 1.22328,-0.72556 1.76777,-1.14905 0.13155,-0.10233 0.22701,-0.24509 0.35355,-0.35356 0.23734,-0.20343 0.64401,-0.44738 0.88388,-0.61871 0.23529,-0.16806 0.54411,-0.20991 0.7955,-0.35356 0.20624,-0.11785 0.42869,-0.21103 0.61872,-0.35355 0.0667,-0.05 0.10224,-0.13951 0.17677,-0.17678 0.69252,-0.34626 1.68457,-0.33657 2.47488,-0.44194 0.43818,-0.0584 0.89188,-0.09 1.32582,-0.17678 0.23824,-0.0476 0.46499,-0.1566 0.70711,-0.17677 0.61192,-0.051 1.16958,0.0312 1.76777,-0.0884 0.2837,-0.0567 0.59789,0.0477 0.88388,0 0.43149,-0.0719 0.99597,-0.27465 1.41421,-0.44194 0.27605,-0.11042 0.49638,-0.27878 0.7955,-0.35356 0.0857,-0.0214 0.1831,0.0328 0.26516,0 0.0774,-0.031 0.10224,-0.13951 0.17678,-0.17677 0.26582,-0.13291 0.82303,-0.009 1.06066,-0.0884 0.125,-0.0417 0.22855,-0.13511 0.35355,-0.17678 0.73041,-0.2059 1.50719,-0.0136 2.25387,-0.0882 0.61065,-0.0611 0.0669,0.007 0.48613,-0.13258 0.0955,-0.0318 0.21225,-0.0199 0.30936,-0.0442 0.0202,-0.005 0.024,-0.0391 0.0442,-0.0442 0.30532,-0.0763 0.8511,-0.0442 1.14904,-0.0442 0.33856,0 0.71901,-0.038 1.06066,0 0.26901,0.0299 0.49128,0.14668 0.75131,0.22097 0.29707,0.0849 0.79918,0.2177 1.10485,0.35355 0.10853,0.0482 0.19414,0.14797 0.30936,0.17678 0.90102,0.22525 -0.11655,-0.0415 0.39775,0.0442 0.25088,0.0418 0.63105,0.23185 0.83969,0.35356 0.054,0.0315 0.0806,0.0979 0.13258,0.13258 0.0694,0.0463 0.30368,0.07 0.35355,0.0884 0.21055,0.0776 0.41539,0.17027 0.61872,0.26516 0.17069,0.0797 0.29122,0.19214 0.44194,0.30936 0.16334,0.12704 0.36979,0.22512 0.53033,0.35356 0.3417,0.27335 0.66252,0.64061 1.06066,0.83968 0.2079,0.10395 0.44533,0.17192 0.66291,0.26517 0.0488,0.0209 0.0822,0.0716 0.13259,0.0884 0.0419,0.014 0.0892,-0.009 0.13258,0 0.10516,0.021 0.20467,0.0651 0.30936,0.0884 0.22097,0.0491 -0.0737,-0.0737 0.22097,0 0.0202,0.005 0.024,0.0391 0.0442,0.0442 0.0925,0.0231 0.58637,0.0402 0.70711,0 0.0676,-0.0225 0.50086,-0.29252 0.53033,-0.30936 0.086,-0.0491 0.13744,-0.17085 0.22097,-0.22097 0.0253,-0.0152 0.0631,0.0152 0.0884,0 0.27377,-0.16426 0.49404,-0.39077 0.7513,-0.57452 0.15812,-0.11294 0.32452,-0.24581 0.48614,-0.35356 0.17028,-0.11352 0.36004,-0.19583 0.53033,-0.30936 0.38879,-0.25919 0.75531,-0.54494 1.14905,-0.79549 0.33719,-0.21458 0.0303,0.007 0.30935,-0.13258 0.0756,-0.0378 0.16706,-0.12773 0.20582,-0.10836 -0.0593,-0.1753 -0.11745,-0.51153 -0.0593,-0.74409 0.0129,-0.0518 0.1146,-0.1356 0.125,-0.1875 0.125,-0.625 -0.0625,0 0,-0.375 0.0886,-0.53129 0.32804,-0.96859 0.5625,-1.4375 0.17848,-0.35696 0.24557,-0.76856 0.4375,-1.125 0.0932,-0.17305 0.2312,-0.32108 0.3125,-0.5 0.0259,-0.0569 -0.018,-0.1276 0,-0.1875 0.0456,-0.15197 0.1318,-0.28894 0.1875,-0.4375 0.16267,-0.43379 0.33389,-0.98855 0.4375,-1.4375 0.0424,-0.18382 -0.0963,-0.39025 0.0625,-0.5625 0.0467,-0.15165 0.1373,-0.28698 0.1875,-0.4375 0.0132,-0.0395 -0.009,-0.0843 0,-0.125 0.0848,-0.3816 0.2012,-0.73447 0.25,-1.125 0.0961,-0.76888 0.0895,-1.55002 0.25,-2.3125 0.14053,-0.66751 0.30398,-1.33239 0.4375,-2 0.0977,-0.48866 0.0273,-0.95696 0.1875,-1.4375 0.12275,-0.36825 0.26461,-0.77922 0.4375,-1.125 0.0336,-0.0672 0.0971,-0.1178 0.125,-0.1875 0.0155,-0.0387 -0.0155,-0.0863 0,-0.125 0.0698,-0.17463 0.2216,-0.28602 0.3125,-0.4375 0.2772,-0.4621 -0.19182,0.0992 0.1875,-0.375 0.0552,-0.069 0.1595,-0.1037 0.1875,-0.1875 0.0132,-0.0395 -0.0186,-0.0877 0,-0.125 0.3155,-0.63148 0.0495,-0.0495 0.3125,-0.3125 0.0478,-0.0478 0.2649,-0.366 0.3125,-0.4375 0.077,-0.11552 0.0997,-0.30574 0.1875,-0.4375 0.28492,-0.42738 0.52964,-0.88821 0.8125,-1.3125 0.32717,-0.49076 0.89134,-0.63317 1.375,-0.875 0.1023,-0.0512 0.21019,-0.1363 0.3125,-0.1875 0.14933,-0.0747 0.3613,-0.1182 0.5,-0.1875 0.25607,-0.12803 0.49393,-0.30947 0.75,-0.4375 0.10034,-0.0502 0.2174,-0.0655 0.3125,-0.125 0.0749,-0.0469 0.1084,-0.148 0.1875,-0.1875 0.095,-0.0475 0.2196,-0.0109 0.3125,-0.0625 0.10302,-0.0572 0.157,-0.1777 0.25,-0.25 0.0959,-0.0746 0.2153,-0.1146 0.3125,-0.1875 0.15318,-0.11488 0.32644,-0.37044 0.4375,-0.5 0.23243,-0.27117 0.63463,-0.58535 0.9375,-0.8125 0.0972,-0.0729 0.21142,-0.1201 0.3125,-0.1875 0.16645,-0.11097 0.23728,-0.31126 0.375,-0.4375 0.19667,-0.18028 0.41156,-0.33992 0.625,-0.5 0.40179,-0.30135 0.78689,-0.63704 1.1875,-0.9375 0.12018,-0.0901 0.26093,-0.1522 0.375,-0.25 0.29337,-0.25146 0.1875,-1.0852 0.1875,-1.4375 0,-1.80024 -0.0665,-3.57568 -0.21112,-5.34641 -0.56849,0.0286 -1.57507,-0.1543 -1.91639,-0.32497 -0.33175,-0.16587 -1.35476,-0.0391 -1.76777,-0.17677 -0.0559,-0.0186 0.0527,-0.15048 0,-0.17678 -0.24831,-0.12418 -1.12383,-0.08 -1.41421,-0.17678 -0.60448,-0.20149 -0.13155,-0.14662 -0.70711,-0.53033 -0.37339,-0.24893 -0.85688,-0.29248 -1.23743,-0.53033 -0.46037,-0.28772 -0.77361,-0.80685 -1.06067,-1.23743 -0.17669,-0.26505 -0.56576,-0.42443 -0.7071,-0.70711 -0.0527,-0.10541 0.0373,-0.24175 0,-0.35355 -0.0791,-0.23717 -0.39166,-0.32232 -0.53033,-0.53033 -0.18734,-0.281 -0.31236,-0.94681 -0.53033,-1.23744 -0.0791,-0.10538 -0.28046,-0.0671 -0.35356,-0.17678 -0.0654,-0.0981 0.0527,-0.24814 0,-0.35355 -0.0263,-0.0527 -0.12407,0.0264 -0.17677,0 -0.26353,-0.13176 -0.53033,-0.29463 -0.70711,-0.53033 -0.0707,-0.0943 0.0707,-0.25925 0,-0.35355 -0.033,-0.0441 -0.90506,-0.80609 -1.06066,-0.88389 -0.21731,-0.10867 -0.4898,-0.0681 -0.70711,-0.17677 -0.49721,-0.24861 -0.89807,-0.67743 -1.41421,-0.88389 -0.10942,-0.0438 -0.24814,0.0527 -0.35355,0 -0.14907,-0.0745 -0.21488,-0.26105 -0.35356,-0.35355 -0.19611,-0.13074 -0.47844,0.0572 -0.7071,0 -0.0809,-0.0202 -0.10448,-0.13548 -0.17678,-0.17678 -0.3432,-0.19611 -0.68566,-0.40533 -1.06066,-0.53033 -0.0248,-0.008 -1.86774,-0.34255 -1.94454,-0.35355 -0.51596,-0.0737 -1.08082,0.10203 -1.59099,0 -1.04929,-0.20986 -2.10338,-0.19947 -3.18198,-0.35355 -0.26937,-0.0385 -0.63019,0.0846 -0.88389,0 -0.0791,-0.0264 -0.0951,-0.16048 -0.17677,-0.17678 -0.23113,-0.0462 -0.48048,0.0648 -0.70711,0 -0.33037,-0.0944 -0.56487,-0.40272 -0.88388,-0.53033 -0.47926,-0.1917 -0.66333,-0.133 -1.06066,-0.53033 -0.64669,-0.64669 -1.26031,-1.5369 -1.76777,-2.2981 -0.0731,-0.10963 -0.0714,-0.27445 -0.17678,-0.35355 -0.14907,-0.11178 -0.37054,-0.0809 -0.53033,-0.17678 -0.93848,-0.56306 0.28335,-0.12349 -0.88388,-0.7071 -0.53033,-0.26517 0.35355,-0.17678 -0.53033,-0.53033 -0.16414,-0.0657 -0.3662,0.0657 -0.53033,0 -0.30949,-0.1238 -0.41769,-0.54173 -0.70711,-0.70711 -0.27551,-0.15744 -0.60006,-0.21164 -0.88388,-0.35356 -1.16071,-0.58035 -2.38555,-1.28713 -3.35876,-2.12132 -0.2237,-0.19174 -0.51537,-0.30663 -0.70711,-0.53033 -0.1715,-0.20008 -0.21207,-0.48478 -0.35355,-0.7071 -0.38616,-0.60683 -0.88057,-1.14326 -1.23744,-1.76777 -0.29601,-0.51803 -0.3869,-1.11069 -0.7071,-1.59099 -0.0327,-0.049 -0.13508,0.0417 -0.17678,0 -0.50364,-0.50364 -0.5698,-1.32268 -1.23744,-1.76777 -0.41848,-0.27899 -0.44563,-0.0921 -0.88388,-0.53033 -0.0417,-0.0417 0.0527,-0.15037 0,-0.17677 -0.33131,-0.16566 -4.77023,0 -5.65685,0 h -4.41942 c -0.41245,0 -1.24528,-0.0576 -1.59099,0 -0.19707,0.0328 -0.50831,0.28725 -0.70711,0.35355 -0.49236,0.16412 -1.07188,0.18052 -1.59099,0.35355 -0.59162,0.19721 -1.17204,0.52839 -1.76777,0.70711 -1.06262,0.31879 -2.10821,0.46849 -3.18198,0.70711 -1.68753,0.375 -3.27768,1.17297 -4.94974,1.59099 -0.22867,0.0572 -0.4835,-0.0745 -0.70711,0 -0.53477,0.17825 -0.69682,0.45313 -1.23744,0.53033 -0.23333,0.0333 -0.47461,-0.0387 -0.7071,0 -0.31301,0.0522 -0.5216,0.42915 -0.88389,0.35355 -0.91731,0.15289 -4.09887,0.0934 -5.12652,0 -0.18558,-0.0169 -0.34653,-0.14618 -0.53033,-0.17678 -0.50646,-0.0844 -1.10211,0.007 -1.59099,-0.17677 -0.42019,-0.15757 -0.8117,-0.38842 -1.23744,-0.53033 -0.1677,-0.0559 -0.38324,0.0981 -0.53033,0 -0.13867,-0.0924 -0.20448,-0.27906 -0.35355,-0.35356 -0.31141,-0.15567 -0.753,0.0283 -1.06066,-0.17677 -1.0229,-0.68194 -1.00554,-1.44406 -2.47488,-1.59099 -1.96192,-0.19619 -4.03294,0 -6.0104,0 -3.23643,0 -6.49018,-0.10775 -9.72272,0 -0.70917,0.0236 -1.41422,0.11787 -2.03293,0.17677 -0.32409,-0.11784 -0.72154,-0.38917 -1.14904,-0.35355 -0.54973,0.0458 -1.71643,1.0768 -2.12132,1.41422 -0.51871,0.43225 -1.27446,0.63782 -1.76777,1.06066 -0.2237,0.19174 -0.322,0.49877 -0.53033,0.7071 -0.24025,0.24025 -0.80623,0.49508 -1.06066,0.70711 -1.3839,1.15325 -2.55313,3.14722 -3.71231,4.59619 -0.20595,0.25744 -0.21171,0.60019 -0.35356,0.88389 -0.24847,0.49694 -0.66264,1.36975 -1.06066,1.76777 -0.0932,0.0932 -0.26038,0.0836 -0.35355,0.17677 -0.0417,0.0417 0.0417,0.13511 0,0.17678 -0.43825,0.43825 -0.4654,0.25134 -0.88388,0.53033 -0.0651,0.0434 -1.76108,1.58095 -1.76777,1.59099 -0.0731,0.10963 -0.0836,0.26038 -0.17678,0.35355 -0.17179,0.1718 -0.4898,0.0681 -0.7071,0.17678 -0.19878,0.0994 -0.32093,0.46053 -0.53033,0.53033 -0.11181,0.0373 -0.24175,-0.0373 -0.35356,0 -0.23717,0.0791 -0.32231,0.39165 -0.53033,0.53033 -1.2808,0.85386 -1.86837,1.48895 -2.47487,3.0052 -0.0902,0.22558 -0.0811,0.4838 -0.17678,0.70711 -0.0837,0.19528 -0.28637,0.32877 -0.35355,0.53033 -0.0559,0.16771 0.0347,0.35699 0,0.53033 -0.0517,0.25841 -0.30187,0.4487 -0.35355,0.70711 -0.15122,0.75607 0.2507,0.38248 -0.17678,1.23743 -0.0745,0.14907 -0.2611,0.21488 -0.35355,0.35356 -0.16343,0.24514 0.0325,0.59105 0,0.88388 -0.069,0.62059 -0.271,1.01308 -0.35356,1.59099 -0.0234,0.16361 0.0827,0.98941 0,1.23744 -0.0263,0.079 -0.15042,0.0977 -0.17677,0.17677 -0.0373,0.11181 0.0286,0.23923 0,0.35356 -0.11812,0.47247 -0.37528,0.94905 -0.53033,1.41421 -0.25706,0.77117 -0.1638,1.74181 -0.53033,2.47488 -0.0264,0.0527 -0.15043,-0.0527 -0.17678,0 -0.0527,0.1054 0.0373,0.24175 0,0.35355 -0.11129,0.33385 -0.50637,0.75956 -0.70711,1.06066 -0.0731,0.10963 -0.0714,0.2745 -0.17677,0.35355 -0.14908,0.11181 -0.36367,0.0935 -0.53034,0.17678 -1.07368,0.53684 -2.30577,0.89669 -3.53553,1.06066 -0.8198,0.10931 -1.66387,0.0146 -2.47487,0.17678 -0.42066,0.0841 -0.81679,0.26942 -1.23744,0.35355 -0.63494,0.12699 -1.31201,0.11635 -1.94454,0.35355 -0.2231,0.0837 -1.96766,0.94541 -2.12132,1.06066 -0.2,0.15 -0.33512,0.37416 -0.53033,0.53033 -0.14238,0.38016 -0.50496,0.042 -0.70711,0.17678 -0.64593,0.43062 0.18954,0.25878 -0.35355,0.53033 -0.0527,0.0264 -0.11786,0 -0.17678,0 -0.17678,0.11785 -0.36036,0.22608 -0.53033,0.35355 -0.27902,0.20927 -0.67996,0.85674 -0.70711,0.88389 -0.0932,0.0932 -0.26038,0.0836 -0.35355,0.17677 -0.6434,0.6434 0.18794,0.12421 -0.35355,0.53033 -0.16997,0.12748 -0.3801,0.20333 -0.53033,0.35356 -0.0932,0.0932 -0.0756,0.2692 -0.17678,0.35355 -0.26396,0.21996 -0.60901,0.32417 -0.88388,0.53033 -0.26667,0.2 -0.42976,0.52221 -0.70711,0.70711 -0.21927,0.14617 -0.50133,0.18893 -0.70711,0.35355 -0.6516,0.52128 -0.34693,0.52702 -1.06066,0.88388 -0.0527,0.0264 -0.13511,-0.0417 -0.17678,0 -0.15023,0.15024 -0.17677,0.41248 -0.35355,0.53033 -0.20215,0.13477 -0.48153,0.0865 -0.70711,0.17678 -0.38818,0.15527 -0.7243,0.48287 -1.06066,0.70711 -0.0981,0.0654 -0.25549,-0.0654 -0.35355,0 -0.20801,0.13867 -0.30672,0.41852 -0.53033,0.53033 -0.24598,0.12299 -0.49075,0.13719 -0.97228,-0.48614 l -0.26516,19.93157 c 0.29463,-0.14731 0.56947,-0.34369 0.88388,-0.44194 0.19407,-0.0607 2.08436,-0.071 2.47487,0 0.024,0.004 1.13493,0.33943 1.23744,0.44194 0.0466,0.0466 0.0336,0.14023 0.0884,0.17678 0.43011,0.28673 0.86996,0.42802 1.23744,0.79549 0.16159,0.1616 0.22297,0.39895 0.44194,0.53033 0.0799,0.0479 0.19241,0.0302 0.26516,0.0884 0.0829,0.0664 0.10166,0.19005 0.17678,0.26517 0.0208,0.0208 0.062,-0.0132 0.0884,0 0.10693,0.0535 0.28225,0.35281 0.35355,0.44194 0.10732,0.13415 0.14369,0.32046 0.26517,0.44194 0.18287,0.18288 -0.007,-0.27946 0.17677,0.0884 0.16559,0.33118 0.3581,0.71618 0.53033,1.06066 0.2695,0.0626 0.0341,0.2449 0.0884,0.35355 0.0475,0.095 0.13733,0.16653 0.17678,0.26517 0.0219,0.0547 0,0.11785 0,0.17677 0.0295,0.0884 0.0467,0.18183 0.0884,0.26517 0.17153,0.34306 0.44558,0.71439 0.61871,1.06066 0.0932,0.18634 0.0312,0.4184 0.0884,0.61872 0.10507,0.36775 0.28101,0.66166 0.35356,1.06066 0.0211,0.11595 -0.0231,0.23799 0,0.35355 0.10106,0.5053 0.34803,1.40501 0.61871,1.85616 0.0429,0.0714 0.14752,0.0987 0.17678,0.17677 0.0629,0.16781 0.0449,0.35647 0.0884,0.53033 0.0822,0.3288 0.28588,0.74854 0.44194,1.06066 0.11617,0.23235 0.32577,0.47476 0.44194,0.70711 0.0591,0.11813 0.24421,0.67053 0.35356,0.79549 0.12423,0.14198 0.32117,0.20863 0.44194,0.35356 0.0377,0.0453 -0.0286,0.12526 0,0.17677 0.41293,0.74329 1.03652,1.47445 1.59099,2.12132 0.18141,0.21165 0.34542,0.20281 0.61872,0.44195 0.0799,0.07 0.11041,0.18221 0.17677,0.26516 0.63578,0.79472 -0.2238,-0.31219 0.35356,0.26517 0.12012,0.12012 0.24754,0.40311 0.35355,0.53033 0.22974,0.27569 0.51936,0.57458 0.7955,0.79549 0.11503,0.092 0.25568,0.15506 0.35355,0.26517 0.14115,0.15879 0.21529,0.36902 0.35355,0.53033 0.0429,0.05 0.12617,0.0462 0.17678,0.0884 0.32058,0.26715 0.6773,0.58891 0.97227,0.88388 0.5275,0.5275 1.15237,0.91556 1.76777,1.32582 0.10198,0.068 0.16318,0.19718 0.26516,0.26517 0.19616,0.13077 0.39097,0.13122 0.61872,0.17678 0.29431,0.0589 0.0758,0.12629 0.35355,0.26516 0.0527,0.0263 0.12088,-0.0186 0.17678,0 0.36075,0.12025 0.70675,0.53015 1.06066,0.70711 0.37285,0.18642 0.80735,0.42281 1.23744,0.53033 0.17386,0.0435 0.35291,0.063 0.53033,0.0884 0.0292,0.004 0.0675,-0.0208 0.0884,0 0.0208,0.0208 0,0.0589 0,0.0884 l -0.79557,10.1646 c -0.21662,0.28105 -0.15981,0.7446 -0.26516,1.06066 -0.10467,0.31401 -0.31907,0.4883 -0.44195,0.7955 -0.25522,0.63805 -0.46543,1.30009 -0.7071,1.94454 -0.31663,0.84435 -0.38714,1.74655 -0.7955,2.56327 -0.18751,0.37501 -0.39727,0.74988 -0.53033,1.14904 -0.0328,0.0984 -0.12552,0.807 -0.17677,0.88389 -0.17658,0.26487 -0.17678,-0.043 -0.26516,0.17677 1.00351,-0.6174 1.90516,0.0501 2.91681,0.35356 z"
         id="path13" />
    </g>
  </g>
</svg>
