<?xml version="1.0" encoding="UTF-8" standalone="no"?>
<!-- Created with Inkscape (http://www.inkscape.org/) -->

<svg
   version="1.1"
   id="svg1"
   width="148.29817"
   height="109.37798"
   viewBox="0 0 148.29817 109.37798"
   xmlns="http://www.w3.org/2000/svg"
   xmlns:svg="http://www.w3.org/2000/svg">
  <defs
     id="defs1" />
  <g
     id="layer1"
     style="display:inline"
     transform="translate(-707.85808,-252.21876)">
    <g
       id="layer46"
       style="display:inline;fill:#ffffff;fill-opacity:1;stroke:none">
      <path
         style="fill:#ffffff;fill-opacity:1;stroke:none;stroke-linecap:round"
         d="m 765.90713,352.80209 -8.39689,-0.28726 -12.9268,7.07107 -2.67374,1.94454 -4.94975,0.0663 -6.8722,-2.45278 1.41422,-10.47401 0.41984,-7.35833 -1.43631,-1.63519 -8.02124,-6.43025 -4.92765,-11.04854 -5.08233,-4.24265 -3.71231,-1.59099 -0.88389,-19.7106 3.35876,-0.19887 4.44152,-2.71794 5.23701,-5.3254 6.16508,-1.14905 6.31977,-2.85052 3.22617,-13.45713 3.88909,-3.33666 2.78423,-1.5026 9.63433,-9.54594 3.33666,-2.09923 12.33018,-0.15468 6.45037,3.18463 10.9375,0.0625 17.09375,-5.1875 7.625,-0.15625 4.21875,2.28125 12.46875,12.6875 13.34375,2.59375 9.75,9.90625 5.6875,-0.28125 -0.375,5.78125 -5.125,5.8125 -2.40625,0.3125 -3.40625,3.25 -3.3125,16.96875 -4.5,2.34375 -4.59375,-2.0625 -11.21875,-0.28125 -9.6875,2.375 -16.03125,7.46875 -4.0625,2.03125 0.46875,1.96875 8.25,7.0625 0.625,1.375 3.34375,2.96875 0.78125,5.78125 -4.28125,0.0312 -9.6875,-8.6875 -2.40625,1.65625 7.34375,7.9375 1.34375,0.71875 L 797,346.125 l -4.28125,0.21875 -9.09375,-8.125 -3.3125,2.03125 8.40625,8.125 -0.75,4.65625 -5.3125,0.0937 -6.1875,-6.25 -3.03125,-5.84375 -0.4375,-5 1,-1.5625 0.625,-2.53125 -3.8125,-1.9375 -6.09375,7.96875 z"
         id="path44" />
    </g>
  </g>
</svg>
