<?xml version="1.0" encoding="UTF-8" standalone="no"?>
<!-- Created with Inkscape (http://www.inkscape.org/) -->

<svg
   version="1.1"
   id="svg1"
   width="228.74995"
   height="109.96875"
   viewBox="0 0 228.74995 109.96875"
   xmlns="http://www.w3.org/2000/svg"
   xmlns:svg="http://www.w3.org/2000/svg">
  <defs
     id="defs1" />
  <g
     id="layer1"
     style="display:inline"
     transform="translate(-614.8438,-673.21875)">
    <g
       id="layer47"
       style="display:inline;fill:#ffffff;fill-opacity:1;stroke:none">
      <path
         style="fill:#ffffff;fill-opacity:1;stroke:none;stroke-linecap:round"
         d="m 624.3125,714.5625 9.90625,0.75 2.78125,3.25 17.125,2.78125 2.46875,-1.40625 11.5,-1.25 22.40625,-13.25 17.8125,0.28125 24.875,-13.125 1.25,-2.25 6.96875,-4.96875 9.375,-2.40625 5.6875,-5.8125 26.25,-3.9375 17.25,4.09375 15.03125,5.96875 4.5625,9.84375 4.5625,5.09375 11,0.71875 4.46875,2.28125 4,6.1875 -1.3125,2.78125 -3.75,3.90625 -0.0937,13.09375 2.5,9.46875 -9.8125,8.28125 -3.21875,0.4375 -10.8125,10.875 -2.625,10.40625 -7.84375,8.4375 -7.03125,4.34375 -10.46875,3.75 -10.125,-4.375 -14.5625,-2.75 -10.1875,-0.1875 -8.875,-5.1875 -25.21875,-0.0937 -15.9375,3 -20.15625,-4.0625 -6.125,-4.15625 -15.78125,-0.28125 -5.3125,4.3125 -6.21875,1.6875 -6.6875,-3.1875 -7.875,-0.8125 -10.46875,-5.21875 -4.0625,-0.9375 -3.15625,-5.40625 -1.53125,-10.1875 -2,-8 0.8125,-6.25 2.78125,-4.53125 1.09375,-4.5625 3.625,-3.1875 z"
         id="path45" />
    </g>
  </g>
</svg>
