<?xml version="1.0" encoding="UTF-8" standalone="no"?>
<!-- Created with Inkscape (http://www.inkscape.org/) -->

<svg
   version="1.1"
   id="svg2"
   width="230.21667"
   height="109.02061"
   viewBox="0 0 230.21667 109.02061"
   xmlns="http://www.w3.org/2000/svg"
   xmlns:svg="http://www.w3.org/2000/svg">
  <defs
     id="defs6">
    <linearGradient
       id="swatch77">
      <stop
         style="stop-color:#e2c69e;stop-opacity:1;"
         offset="0"
         id="stop77" />
    </linearGradient>
  </defs>
  <g
     id="layer66"
     style="display:inline"
     transform="translate(-614.16394,-673.92199)">
    <g
       id="layer12"
       style="display:inline">
      <path
         style="display:inline;fill:#969696;fill-opacity:1;stroke:none;stroke-opacity:1"
         d="m 843.83251,736.93785 c 0,0.61776 -0.68635,0.8956 -1.10485,1.10486 -1.14954,0.57472 0.29528,-0.0191 -0.27622,0.55242 -0.29573,0.29573 -1.67725,0.65116 -2.20971,0.82864 -0.43673,0.14558 -0.92965,-0.0903 -1.38106,0 -0.45142,0.0903 -0.67743,0.65767 -1.10486,0.82864 -0.17097,0.0684 -0.37378,-0.0447 -0.55243,0 -0.7276,0.18191 -1.20588,0.92296 -1.93349,1.10486 -2.68005,0.67001 -5.79694,2.75947 -8.0102,4.41942 -1.09335,0.82001 -0.0177,0.29386 -1.10485,1.38106 -0.14558,0.14558 -0.38772,0.15269 -0.55243,0.27622 -0.3984,0.2988 -0.68695,0.82625 -1.10485,1.10485 -0.62505,0.4167 -1.41554,0.86311 -1.9335,1.38107 -0.0509,0.0509 -0.22531,0.77774 -0.27621,0.82864 -0.32552,0.32552 -0.77933,0.50312 -1.10485,0.82864 -0.28435,0.28435 -0.26809,0.5443 -0.55243,0.82864 -0.0651,0.0651 -0.21111,-0.0651 -0.27621,0 -0.14558,0.14558 -0.13064,0.40685 -0.27622,0.55243 -0.14558,0.14558 -0.43823,0.10491 -0.55243,0.27621 -0.10214,0.15322 0.0824,0.38773 0,0.55243 -0.0412,0.0824 -0.22511,-0.0766 -0.27621,0 -0.1615,0.24226 -0.18411,0.55243 -0.27621,0.82864 -0.18415,0.0921 -0.40685,0.13064 -0.55243,0.27622 -0.84781,0.84781 0.16138,0.22966 -0.27621,1.10485 -0.0412,0.0824 -0.23502,-0.0824 -0.27622,0 -0.0824,0.1647 0.0582,0.37773 0,0.55243 -0.0412,0.12352 -0.23501,0.15268 -0.27621,0.27621 -0.22097,0.66291 0.22097,1.5468 0,2.20971 -0.40218,1.20653 -0.19829,-0.19481 -0.82864,1.38107 -0.0684,0.17097 0.0823,0.38772 0,0.55242 -0.27621,0.55243 -0.55243,0.41432 -0.82864,0.82864 -0.70751,1.06127 0.25595,0.0405 -0.55243,1.65729 -0.29692,0.59384 -1.30031,0.71437 -1.10485,1.65728 -0.0876,0.20437 -0.50873,1.84609 -0.55243,1.93349 -0.0412,0.0824 -0.21111,-0.0651 -0.27621,0 -0.23474,0.23474 -0.40397,0.53172 -0.55243,0.82864 -0.34662,0.69324 -0.81936,1.49598 -1.10486,2.20971 -0.17435,0.4359 -0.0663,0.96116 -0.27621,1.38107 -0.22354,0.44708 -1.00638,1.00638 -1.38107,1.38107 -0.21313,0.21313 -0.9423,0.77976 -1.10485,1.10485 -0.0412,0.0824 0.0651,0.21112 0,0.27622 -0.23474,0.23473 -0.59391,0.31769 -0.82864,0.55242 -0.0651,0.0651 0.0651,0.21112 0,0.27622 -0.29116,0.29115 -0.76226,0.32402 -1.10486,0.55242 -0.10834,0.0722 -0.18411,0.18412 -0.27621,0.27622 0,0.0921 0.0651,0.21111 0,0.27621 -0.83366,0.83366 -2.47044,1.6418 -3.31456,2.48592 -0.14558,0.14558 -0.11152,0.4289 -0.27622,0.55243 -0.23292,0.17469 -0.56822,0.14601 -0.82864,0.27621 -0.49512,0.24756 -1.04462,0.79853 -1.65728,1.10486 -0.78669,0.39334 -2.31381,1.75236 -3.03835,1.93349 -1.31066,0.32772 -5.81566,0.61769 -7.18155,0.27622 -1.33382,-0.33346 0.0137,-0.13126 -0.82864,-0.55243 -0.24706,-0.12353 -0.56068,0.067 -0.82864,0 -0.65146,-0.16286 -1.28204,-0.66578 -1.9335,-0.82864 -0.17864,-0.0447 -0.37773,0.0582 -0.55243,0 -1.26287,-0.42096 1.17011,-0.2193 -0.82864,-0.55243 -0.54491,-0.0908 -1.12611,0.15177 -1.65728,0 -0.18518,-0.0529 -2.52653,-0.71084 -2.76213,-0.82864 -0.48019,-0.24009 -0.87176,-0.65887 -1.38107,-0.82864 -0.34939,-0.11646 -0.74158,0.0606 -1.10486,0 -0.24133,-0.0402 -1.21346,-0.51053 -1.38106,-0.55243 -0.26797,-0.067 -0.56068,0.067 -0.82865,0 -0.25264,-0.0632 -0.30537,-0.47002 -0.55242,-0.55242 -0.34939,-0.11647 -0.74757,0.0893 -1.10486,0 -0.53623,-0.13406 -0.886,-0.63062 -1.38106,-0.82864 -0.34195,-0.13678 -0.74757,0.0893 -1.10486,0 -0.39946,-0.0999 -0.72255,-0.39951 -1.10485,-0.55243 -0.27033,-0.10813 -0.55243,-0.18412 -0.82864,-0.27622 -0.18415,0 -0.37774,0.0582 -0.55243,0 -0.39063,-0.1302 -0.71423,-0.42221 -1.10486,-0.55242 -0.57487,-0.19163 -1.33534,0.11963 -1.93349,0 -0.38595,-0.0772 -1.24668,-0.17357 -1.65728,-0.27622 -0.39946,-0.0999 -0.7011,-0.47172 -1.10486,-0.55242 -1.06236,-0.21248 -2.2522,0.21247 -3.31456,0 -0.46488,-0.093 -1.60316,-0.19362 -1.93349,-0.27622 -0.39947,-0.0999 -0.7011,-0.47162 -1.10486,-0.55242 -0.79677,-0.15936 -1.68915,0.15935 -2.48592,0 -0.12768,-0.0255 -0.15269,-0.23502 -0.27621,-0.27622 -0.51975,-0.17325 -1.13533,-0.0152 -1.65729,-0.27621 -0.71181,-0.35591 -1.3233,-0.92342 -1.93349,-1.38107 -0.96824,-0.72618 -3.21722,-1.73313 -4.41942,-1.93349 -1.79197,-0.29867 -3.97866,0 -5.80048,0 h -12.1534 c -2.63025,0 -7.92103,-0.49008 -10.2199,0.27621 -0.63806,0.21269 -1.61576,-0.29698 -2.20971,0 -0.23293,0.11646 -0.3441,0.39618 -0.55243,0.55243 -0.55969,0.41976 -0.92844,-0.0255 -1.38107,0.27621 -0.1713,0.1142 -0.11151,0.4289 -0.27621,0.55243 -0.61919,0.46439 -1.81682,0.63747 -2.48592,0.82864 -0.58337,0.16667 -1.08125,0.63663 -1.65729,0.82864 -0.44661,0.14887 -1.19802,0 -1.65728,0 -1.07884,0 -2.83711,0.34329 -3.86699,0 -1.42328,-0.47443 -2.93115,-0.5806 -4.41942,-0.82864 -1.849,-0.30817 -3.98589,0.45365 -5.80048,0 -0.39946,-0.0999 -0.70539,-0.45253 -1.10486,-0.55243 -1.05165,-0.26291 -2.24446,-0.0979 -3.31456,-0.27621 -0.6242,-0.10404 -1.29482,-0.66897 -1.93349,-0.82864 -0.5633,-0.14083 -1.42756,-0.21514 -1.9335,-0.55243 -0.0766,-0.0511 0.0874,-0.24711 0,-0.27621 -0.26204,-0.0874 -0.55779,0.0542 -0.82864,0 -0.3999,-0.08 -0.98116,-0.47243 -1.38107,-0.55243 -0.6384,-0.12768 -1.29795,-0.13498 -1.93349,-0.27621 -0.48755,-0.10835 -1.4535,-0.98841 -1.65728,-1.10486 -0.81973,-0.46841 -1.98215,-0.43865 -2.76214,-0.82864 -0.23292,-0.11646 -0.3195,-0.43597 -0.55243,-0.55243 -0.28367,-0.14183 -0.84575,0.17274 -1.10485,0 -0.21668,-0.14445 -0.3195,-0.43596 -0.55243,-0.55242 -0.24705,-0.12353 -0.58159,0.12352 -0.82864,0 -1.14174,-0.57088 -2.36214,-0.4191 -3.59078,-0.82865 -2.09306,-0.69768 0.0997,0.0997 -0.55242,-0.55242 -0.42961,-0.42961 -0.99186,-0.21972 -1.65728,-0.55243 -0.38816,-0.19408 -1.49108,0 -1.9335,0 -0.71254,0 -1.81576,-0.22339 -2.48592,0 -2.00073,0.66691 0.43548,-0.0796 -0.82864,0.55243 -0.1647,0.0824 -0.38773,-0.0824 -0.55243,0 -0.42304,0.21152 -0.216,0.49221 -0.55243,0.82864 -0.14557,0.14558 -0.38112,0.16201 -0.55242,0.27621 -0.41413,0.27609 -0.66317,0.88401 -1.10486,1.10486 -0.1647,0.0823 -0.42222,-0.13021 -0.55243,0 -0.1302,0.1302 0.0824,0.38772 0,0.55242 -0.0824,0.16471 -0.42221,-0.1302 -0.55242,0 -0.14558,0.14558 -0.13064,0.40685 -0.27622,0.55243 -0.70931,0.70932 -1.9079,1.23017 -2.76213,1.65728 -0.61801,0.309 -2.68393,0 -3.31457,0 -0.61876,0 -3.88954,0.26494 -4.41941,0 -0.11646,-0.0582 -0.1499,-0.24461 -0.27622,-0.27621 -0.53593,-0.13398 -1.11237,0.0908 -1.65728,0 -0.73944,-0.12324 -1.25049,-0.60097 -1.93349,-0.82864 -0.5189,-0.17297 -1.17583,-0.0355 -1.65728,-0.27622 -0.36829,-0.18414 -0.76226,-0.32402 -1.10486,-0.55242 -0.0766,-0.0511 0.0651,-0.21112 0,-0.27622 -0.11136,-0.11136 -0.68542,-0.18071 -0.82864,-0.27621 -0.21668,-0.14445 -0.3195,-0.43597 -0.55243,-0.55243 -0.1647,-0.0824 -0.38772,0.0824 -0.55242,0 -0.0824,-0.0412 0.0824,-0.23501 0,-0.27621 -0.55243,-0.27621 -0.41432,0.13811 -0.82864,0 -0.75738,-0.25246 -1.49862,-0.86782 -2.20971,-1.10486 -0.49719,-0.16572 -1.1601,0.16573 -1.65728,0 -0.31494,-0.10497 -0.32872,-0.7189 -0.82865,-0.55242 -0.89402,-0.22351 -1.73984,-0.21166 -2.76213,-0.55243 -0.82864,-0.27621 0.55243,0.55243 -0.82864,0 -0.43818,-0.17527 -0.95272,-0.68586 -1.38107,-0.82864 -0.54075,-0.18025 -1.47165,-0.0906 -1.9335,-0.55243 -0.0651,-0.0651 0.0824,-0.23501 0,-0.27621 -0.39298,-0.1965 -2.85515,-0.92166 -3.03834,-1.10486 -0.14558,-0.14557 -0.13064,-0.40685 -0.27622,-0.55242 -0.15607,-0.15607 -0.89909,-0.34667 -1.10485,-0.55243 -0.23474,-0.23474 -0.28686,-0.62946 -0.55243,-0.82864 -0.14731,-0.11049 -0.37773,0.0582 -0.55243,0 -0.72092,-0.24031 -2.35381,-2.34399 -2.76213,-2.20971 0,0.53735 -0.45443,-0.58361 -0.55243,-0.82864 -0.20801,-0.51999 -0.0258,-1.15636 -0.27621,-1.65728 -0.0824,-0.1647 -0.42222,0.13021 -0.55243,0 -0.20591,-0.20588 -0.10152,-0.59572 -0.27621,-0.82864 -0.15625,-0.20834 -0.43597,-0.31951 -0.55243,-0.55243 -0.0824,-0.1647 0.0582,-0.37773 0,-0.55243 -0.26957,-0.80872 -1.20048,-1.58297 -1.38107,-2.48592 -0.0542,-0.27085 0.067,-0.56067 0,-0.82864 -0.10934,-0.43738 -0.95117,-0.92002 -1.10485,-1.38107 -0.25342,-0.76025 -0.28978,-1.69796 -0.55243,-2.48592 -0.16453,-0.49358 -0.19505,-4.74407 0,-5.52427 0.30181,-1.20726 0.86393,-2.38615 1.10485,-3.59078 0.0616,-0.30775 -0.13247,-0.8399 0,-1.10485 0.11647,-0.23293 0.43597,-0.31951 0.55243,-0.55243 0.53261,-1.06523 -0.50872,-5.05926 0.27621,-6.62913 0.18188,-0.36375 -0.12921,-0.99341 0,-1.38106 0.28739,-0.86215 0.18415,0.0921 0.55243,-0.27622 0.20959,-0.20959 0.26305,-1.09169 0.55243,-1.38107 0.0431,-0.0431 0.78554,-0.50932 0.82864,-0.55242 0.55023,-0.55023 1.17901,-1.57202 1.65728,-2.20971 0.3867,-0.5156 0.99437,-0.86547 1.38107,-1.38107 0.92254,-1.23005 1.46159,-2.17508 1.93349,-3.59078 0.16082,-0.48246 0.69371,-0.70004 0.82864,-1.10485 0.37756,-1.13267 -0.15389,-2.47846 0.20703,-2.56533 -0.0199,0.89524 0.29857,0.74569 0.63117,0.63482 0.39918,-0.13306 6.17339,-0.14297 7.03125,0 0.81078,0.13513 1.8652,0.66648 2.53906,1.17188 0.14732,0.11048 0.22593,0.30827 0.39063,0.39062 0.11646,0.0582 0.29855,-0.0921 0.39062,0 0.55897,0.55897 -0.48732,0.24462 0.19532,0.58594 0.11646,0.0582 0.26709,-0.0412 0.39062,0 0.77442,0.25814 1.37008,0.97729 2.14844,1.17188 0.89387,0.22346 -0.20308,-0.39451 0.97656,0.19531 0.0823,0.0412 0.10599,0.17298 0.19531,0.19531 0.18948,0.0474 0.39442,-0.0383 0.58594,0 0.48619,0.0972 0.88318,0.47838 1.36719,0.58594 2.92315,0.64959 -1.52088,-0.84273 1.5625,0.39062 0.54762,0.21905 1.21492,0.0596 1.75781,0.19532 0.0632,0.0158 -0.0632,0.17952 0,0.19531 0.52083,0.13021 0.71615,-0.0651 1.17188,0 0.94187,0.13455 1.81446,0.43262 2.73437,0.58594 0.32109,0.0535 0.65736,-0.0638 0.97656,0 0.60031,0.12006 1.18284,0.24688 1.75782,0.39062 0.56353,0.14088 1.4432,-0.25496 1.95312,0 0.0823,0.0412 0.10599,0.17298 0.19531,0.19531 0.61899,0.15475 3.26135,0.12898 3.90625,0 0.66592,-0.13318 1.14219,-0.77135 1.75782,-0.97656 0.2891,-0.0964 0.67713,0.0599 0.97656,0 0.20188,-0.0404 0.38286,-0.16147 0.58594,-0.19531 0.19265,-0.0321 0.40064,0.0618 0.58593,0 0.0618,-0.0206 -0.0582,-0.1662 0,-0.19531 0.40762,-0.20381 0.91604,0.0644 1.36719,0 0.14411,-0.0206 0.24939,-0.16001 0.39063,-0.19532 0.59928,-0.14982 1.36813,0.195 1.95312,0 0.22269,-0.0742 0.36325,-0.31639 0.58594,-0.39062 0.60044,-0.20015 1.54117,-0.0435 2.14844,-0.19531 0.53421,-0.13356 1.0423,-0.45589 1.5625,-0.58594 0.27113,-0.0678 0.72762,0.12447 0.97656,0 1.16328,-0.58164 0.94245,-0.91021 1.75781,-1.5625 0.11368,-0.0909 0.28769,-0.0924 0.39063,-0.19531 0.10293,-0.10294 0.0924,-0.28769 0.19531,-0.39063 0.10294,-0.10294 0.28768,-0.0924 0.39062,-0.19531 0.0979,-0.0979 0.31926,-0.60347 0.58594,-0.78125 0.51198,-0.34132 0.34132,-0.073 0.97656,-0.39063 0.82139,-0.41069 1.48113,-1.21745 2.34375,-1.5625 0.1209,-0.0484 0.27417,0.0582 0.39063,0 0.0582,-0.0291 -0.046,-0.14927 0,-0.19531 0.16598,-0.16598 0.37598,-0.28565 0.58594,-0.39062 0.58801,-0.29401 1.33421,-0.66711 1.95312,-0.97657 0.0582,-0.0291 0.13021,0 0.19531,0 0.13021,-0.0651 0.27417,-0.10796 0.39063,-0.19531 0.14731,-0.11048 0.22592,-0.30827 0.39062,-0.39062 0.11647,-0.0582 0.26431,0.0316 0.39063,0 0.38012,-0.095 1.19854,-0.59928 1.5625,-0.78125 0.33954,-0.16978 0.70813,-0.31751 0.97656,-0.58594 0.10294,-0.10294 0.0705,-0.31573 0.19531,-0.39063 0.71027,-0.42615 1.28273,-0.24493 1.95313,-0.78125 0.14379,-0.11503 0.28848,-0.23741 0.39062,-0.39062 0.0361,-0.0542 -0.0542,-0.1592 0,-0.19531 0.1713,-0.1142 0.4094,-0.0894 0.58594,-0.19532 0.58571,-0.35142 0.9349,-1.05339 1.5625,-1.36718 0.11646,-0.0582 0.29855,0.0921 0.39063,0 0.046,-0.046 0,-0.13021 0,-0.19532 0.1302,0 0.27416,0.0582 0.39062,0 0.0582,-0.0291 0,-0.1302 0,-0.19531 0.0651,-0.0651 0.10797,-0.1662 0.19531,-0.19531 0.28823,-0.0961 1.13978,-0.16321 1.36719,-0.39063 0.046,-0.046 -0.046,-0.14927 0,-0.19531 0.10294,-0.10294 0.28769,-0.0924 0.39063,-0.19531 0.046,-0.046 -0.0618,-0.17473 0,-0.19531 0.31387,-0.10463 0.97656,0.0536 1.07421,-0.29297 l 14.7461,0.0977 c 1.40366,0 2.77636,-0.0593 4.10156,-0.39062 0.35051,-0.0876 0.84554,-0.0322 1.17188,-0.19531 0.46841,-0.23421 1.24443,-1.01285 1.5625,-1.17188 0.24009,-0.12005 0.54115,-0.0753 0.78125,-0.19531 0.1647,-0.0824 0.24683,-0.27559 0.39062,-0.39063 1.30988,-1.0479 3.03014,-2.28954 4.49219,-3.125 0.41592,-0.23767 1.56828,-0.68504 1.95312,-0.78125 0.18948,-0.0474 0.39442,0.0383 0.58594,0 0.65033,-0.13006 0.16752,-0.27907 0.78125,-0.58593 0.24009,-0.12005 0.52659,-0.11043 0.78125,-0.19532 0.88176,-0.29392 1.94403,-0.89297 2.73438,-1.36718 0.0789,-0.0474 0.1302,-0.13021 0.19531,-0.19532 0.0651,-0.13021 0.0742,-0.30987 0.19531,-0.39062 0.10834,-0.0722 0.26543,0.0358 0.39063,0 0.3371,-0.0963 0.66298,-0.23384 0.97656,-0.39063 0.77713,-0.38856 1.53463,-0.82511 2.34375,-1.17187 0.64559,-0.27668 1.37259,-0.34586 1.95312,-0.78125 0.0521,-0.0391 -0.0542,-0.1592 0,-0.19531 1.18169,-0.7878 0.0782,0.28315 0.97657,-0.39063 0.74324,-0.55743 1.61991,-1.07994 2.34375,-1.5625 0.433,-0.28867 0.42656,-0.62188 0.58593,-0.78125 0.30242,-0.30242 0.81834,-0.52872 1.17188,-0.78125 0.67474,-0.48196 1.11913,-1.08349 1.75781,-1.5625 0.57605,-0.43204 1.32524,-1.05324 1.95313,-1.36719 0.61885,-0.30942 0.18175,0.40418 0.78125,-0.19531 0.16598,-0.16598 0.19531,-0.45573 0.39062,-0.58594 0.22335,-0.1489 0.53452,-0.0896 0.78125,-0.19531 0.2992,-0.12823 0.47243,-0.483 0.78125,-0.58594 0.12353,-0.0412 0.27416,0.0582 0.39063,0 0.90793,-0.45396 1.30267,-0.8094 2.14843,-1.17187 0.66347,-0.28435 1.51867,-0.20808 2.14844,-0.58594 0.1579,-0.0947 0.21965,-0.32224 0.39063,-0.39062 0.18134,-0.0725 0.39886,0.0561 0.58593,0 1.48692,1.32596 1.01008,-0.59711 1.5625,-0.78125 0.12353,-0.0412 0.26431,0.0316 0.39063,0 0.54822,-0.13706 1.03506,-0.57028 1.5625,-0.78125 0.3823,-0.15293 0.82927,-0.16223 1.17187,-0.39063 0.22983,-0.15321 0.33889,-0.46241 0.58594,-0.58594 0.17469,-0.0873 0.40065,0.0618 0.58594,0 0.0618,-0.0206 -0.0542,-0.1592 0,-0.19531 0.58048,-0.38698 1.08847,-0.44109 1.75781,-0.97656 0.56969,-0.45575 1.75949,-1.85631 2.34375,-2.14844 0.27636,-0.13818 0.89842,-0.013 1.17188,-0.19531 0.15321,-0.10215 0.21593,-0.3324 0.39062,-0.39063 0.24705,-0.0824 0.52589,0.0511 0.78125,0 0.0903,-0.0181 0.10983,-0.16111 0.19531,-0.19531 0.81289,-0.32515 1.88199,-0.49712 2.73438,-0.78125 0.24705,-0.0824 0.52589,0.0511 0.78125,0 0.64956,-0.12991 1.32076,-0.57046 1.95312,-0.78125 0.24706,-0.0824 0.52345,0.0368 0.78125,0 0.66748,-0.0954 1.11643,-0.45766 1.75782,-0.58594 0.61478,-0.12295 1.3329,0.0689 1.95312,0 2.70696,-0.30077 5.4679,-0.19531 8.20313,-0.19531 h 6.44531 c 0.9392,0 2.21153,-0.22837 3.125,0 0.64509,0.16127 1.27477,0.47288 1.95312,0.58594 0.44953,0.0749 0.91372,-0.0453 1.36719,0 0.88579,0.0886 1.86249,0.24531 2.73438,0.39062 0.20307,0.0339 0.39062,0.13021 0.58593,0.19532 0.26042,0.0651 0.51647,0.15118 0.78125,0.19531 0.25688,0.0428 0.5342,-0.0824 0.78125,0 0.0874,0.0291 0.10797,0.1662 0.19532,0.19531 0.89214,0.29738 2.36556,0.40725 3.125,0.58594 0.0251,0.006 1.31491,0.55057 1.5625,0.58594 0.58273,0.0832 1.79209,0.0574 2.34375,0.19531 0.3295,0.0824 1.21902,0.66676 1.5625,0.78125 1.3408,0.44693 -0.90975,-0.74784 0.97656,0.19531 0.34814,0.17407 0.75895,0.50335 1.17187,0.58594 0.19152,0.0383 0.40642,-0.0769 0.58594,0 0.67477,0.28919 2.34614,1.892 2.73438,2.53906 0.26267,0.43779 0.40148,1.37805 0.78125,1.75781 0.33341,0.33342 0.98987,0.69358 1.36718,0.97657 0.27206,0.20404 0.4789,0.63007 0.78125,0.78125 0.69486,0.34743 -0.79824,-1.52006 0.78125,0.58593 0.16106,0.21475 0.0753,0.54116 0.19532,0.78125 0.18643,0.37286 0.59482,0.60371 0.78125,0.97657 0.57752,1.15505 -0.70393,-0.41774 0.19531,0.78125 0.11048,0.14731 0.30827,0.22592 0.39062,0.39062 0.0582,0.11646 -0.0316,0.26431 0,0.39063 0.14542,0.58167 0.55426,1.19034 0.78125,1.75781 0.51237,1.28092 1.40132,2.39495 2.14844,3.51562 0.10602,0.15903 0.2634,0.65403 0.39063,0.78125 0.17066,0.17066 0.82401,0.31435 0.97656,0.39063 0.4962,0.2481 -0.20002,0.23343 0.58594,0.39062 0.49016,0.098 1.06526,-0.0553 1.5625,0 0.85766,0.0953 1.70486,0.28635 2.53906,0.39063 1.19338,0.14917 1.06887,-0.088 2.34375,0.19531 1.00171,0.2226 0.17613,0.22047 1.36719,0.39063 0.32183,0.046 0.8424,-0.0824 1.17187,0 1.42462,0.35615 2.09329,1.2169 3.32031,1.95312 0.26485,0.15891 0.68361,0.36622 0.97657,0.58594 0.36458,0.27344 0.61198,0.70312 0.97656,0.97656 0.23292,0.17469 0.57537,0.18475 0.78125,0.39063 0.10294,0.10293 0.0924,0.28768 0.19531,0.39062 0.33442,0.33442 0.9885,0.35873 1.36719,0.58594 0.59636,0.35781 1.00765,0.95105 1.5625,1.36719 -0.0222,0.37 0.45573,0.1302 0.58594,0.19531 0.1302,0.0651 0.0572,0.34459 0.19531,0.39062 0.18529,0.0618 0.42969,-0.11718 0.58594,0 0.1647,0.12353 0.0894,0.4094 0.19531,0.58594 0.36189,0.60314 1.06195,0.95202 1.36719,1.5625 0.0334,0.0667 0.38164,1.3582 0.39062,1.36719 0.046,0.046 0.14928,-0.046 0.19531,0 0.12874,0.12873 0.31184,1.0143 0.39063,1.17187 0.21602,0.43205 0.39062,0.0151 0.0412,0.35441 -1.91152,0.59359 -2.68022,2.04763 -3.66393,3.35924 0.68158,0.83623 -0.75132,0.47511 -0.82864,0.55243 -0.21122,0.21122 -1.17053,1.61768 -1.38107,1.93349 -0.15322,0.22983 0.0873,0.56661 0,0.82864 -0.0562,0.16857 -0.49624,0.66008 -0.55243,0.82865 -0.0706,0.21193 -0.0504,4.31852 0,4.41941 0.14846,0.29692 0.44745,0.51371 0.55243,0.82864 0.0873,0.26204 -0.0542,0.55779 0,0.82864 0.2223,1.11152 0.20156,0.12691 0.55243,0.82865 0.10906,0.21812 -0.0777,0.59569 0,0.82864 0.0651,0.19531 0.21111,0.35711 0.27621,0.55242 0.27692,0.83077 -0.21317,1.90948 0,2.76214 0.0499,0.19973 0.22628,0.3527 0.27621,0.55243 0.13835,0.5534 -0.25317,1.42715 0,1.93349 0.25314,0.50628 0.64953,1.11994 0.82864,1.65728 0.27622,0.82864 -0.1381,0.27622 0,0.82864 0.69769,2.79076 -0.0997,-0.19947 0.55243,1.10486 0.42905,0.85809 0.55243,2.07618 0.55243,3.03835"
         id="path73" />
    </g>
  </g>
</svg>
