<?xml version="1.0" encoding="UTF-8" standalone="no"?>
<!-- Created with Inkscape (http://www.inkscape.org/) -->

<svg
   version="1.1"
   id="svg2"
   width="173.44048"
   height="119.14919"
   viewBox="0 0 173.44048 119.14919"
   xmlns="http://www.w3.org/2000/svg"
   xmlns:svg="http://www.w3.org/2000/svg">
  <defs
     id="defs6">
    <linearGradient
       id="swatch77">
      <stop
         style="stop-color:#e2c69e;stop-opacity:1;"
         offset="0"
         id="stop77" />
    </linearGradient>
  </defs>
  <g
     id="layer66"
     style="display:inline"
     transform="translate(-213.34692,-120.16396)">
    <g
       id="layer22"
       style="display:inline">
      <path
         style="display:inline;fill:#969696;fill-opacity:1;stroke:none;stroke-opacity:1"
         d="m 215.22563,232.37297 c 0.1835,0.0734 0.35355,0.17676 0.53033,0.26516 0.20624,0.0589 0.41788,0.10148 0.61871,0.17678 0.13794,0.0517 0.21678,0.21046 0.35356,0.26516 0.0547,0.0219 0.12087,-0.0186 0.17677,0 0.35151,0.11717 0.70916,0.32478 1.06066,0.44194 0.11181,0.0373 0.23689,-0.0167 0.35356,0 0.44652,0.0638 0.28271,0.0954 0.7071,0.26517 0.15834,0.0633 0.36732,0.0476 0.53034,0.0884 0.13229,0.0331 0.34684,0.21766 0.44194,0.26516 0.12288,0.0615 0.28943,0.0121 0.44194,0.0884 0.15237,0.0762 0.25836,0.19627 0.44194,0.26517 0.14067,0.0528 0.29942,0.0409 0.44194,0.0884 0.0395,0.0132 0.0473,0.0814 0.0884,0.0884 0.14531,0.0242 0.29814,-0.032 0.44194,0 0.19294,0.0429 0.33653,0.22637 0.53033,0.26517 0.0867,0.0173 0.17847,-0.0173 0.26517,0 0.20624,0.0589 0.41248,0.11787 0.61872,0.17677 0.0295,0.0295 0.0497,0.0729 0.0884,0.0884 0.3025,0.12098 0.67586,0.078 0.97228,0.17678 0.125,0.0417 0.23121,0.12788 0.35355,0.17678 0.0274,0.0109 0.0676,-0.0208 0.0884,0 0.0208,0.0208 -0.0208,0.0676 0,0.0884 0.0664,0.0664 0.35044,-0.0366 0.44194,0 0.57725,0.23087 0.13735,0.19057 0.88388,0.26517 0.93747,0.0937 1.88629,0.18666 2.82843,0.26516 0.4008,0.0334 0.94758,-0.12608 1.32583,0 0.0395,0.0132 0.0589,0.0589 0.0884,0.0884 0.0884,0.0295 0.17277,0.0768 0.26517,0.0884 0.58998,0.0738 1.18124,-0.0582 1.76777,0.0884 0.18077,0.0452 0.34955,0.13158 0.53033,0.17678 0.25883,0.0647 0.53666,0.0237 0.79549,0.0884 0.91387,0.22848 -0.0597,0.14717 0.97227,0.35356 0.88389,0.17677 0,-0.0884 0.53033,0 0.25049,0.0418 0.47296,0.12997 0.70711,0.17677 0.0867,0.0173 0.17946,-0.0214 0.26516,0 0.0404,0.0101 0.0475,0.0804 0.0884,0.0884 0.1393,0.0969 0.29663,-0.0242 0.44194,0 0.15129,0.0252 0.53634,0.0914 0.70711,0.17678 0.0373,0.0186 0.0473,0.0814 0.0884,0.0884 0.36764,0.0613 0.78082,0.0147 1.14905,0.0884 0.26636,0.0533 0.5378,0.0909 0.79549,0.17677 0.125,0.0417 0.22686,0.14058 0.35356,0.17678 0.22663,0.0648 0.47377,-0.0333 0.7071,0 0.0652,0.009 0.11218,0.0755 0.17678,0.0884 0.48292,0.0966 1.01654,0.0958 1.5026,0.17677 0.721,0.12018 -0.37643,0.12098 0.7955,0.17678 0.58859,0.028 1.18054,-0.0489 1.76776,0 0.38968,0.009 0.76287,0.14458 1.14905,0.17678 1.34956,0.11247 -0.57834,-0.25709 1.59099,0.17677 0.62962,0.12598 -0.15015,0.0669 0.61872,0.17678 0.175,0.025 0.35596,-0.0291 0.53033,0 0.30342,0.0506 0.58125,0.21017 0.88388,0.26517 0.37684,0.0685 0.76604,0 1.14905,0 h 2.20971 c 0.41682,0 1.84964,0.10287 2.20971,0 0.30187,-0.0863 0.56783,-0.28336 0.88388,-0.35356 0.1872,-0.0416 0.67681,-0.0732 0.88389,-0.17677 0.095,-0.0475 0.16656,-0.13728 0.26516,-0.17678 0.0547,-0.0219 0.12088,0.0186 0.17678,0 0.35232,-0.11744 0.77038,-0.4894 1.06066,-0.70711 0.10541,-0.079 0.24392,-0.10367 0.35355,-0.17677 0.086,-0.0573 0.16827,-0.23287 0.26517,-0.26517 0.0559,-0.0186 0.11787,0 0.17677,0 0.11786,-0.0295 0.23975,-0.0459 0.26513,-0.663 -0.30649,-1.31915 0.10123,-1.86357 0.26512,-2.51915 0.0945,-0.37792 0.0541,-0.8693 0.17678,-1.23744 0.42682,-1.28046 -0.051,0.27871 0.35355,-0.53033 0.17925,-0.35849 -0.17671,-0.70716 0.17678,-1.06066 0.0932,-0.0932 0.27697,-0.0695 0.35355,-0.17677 0.22976,-0.32166 0.33422,-0.71746 0.53033,-1.06066 0.0827,-0.14471 0.30085,-0.19544 0.35356,-0.35356 0.26954,-0.80863 -0.46346,0.18318 0.17677,-0.88388 0.0857,-0.14292 0.29166,-0.19881 0.35356,-0.35355 0.0751,-0.18768 -0.10445,-0.67499 0,-0.88389 0.19129,-0.38258 0.21462,-0.82064 0.35355,-1.23743 0.0263,-0.0791 0.13951,-0.10225 0.17678,-0.17678 0.0527,-0.10541 -0.0286,-0.23922 0,-0.35355 0.077,-0.30785 0.27659,-0.57604 0.35355,-0.88389 0.0572,-0.22866 -0.13074,-0.51099 0,-0.7071 0.0731,-0.10964 0.26039,-0.0836 0.35356,-0.17678 0.0588,-0.0588 -0.0119,-0.67143 0,-0.70711 0.0717,-0.21526 0.53571,-0.88926 0.7071,-1.06066 0.0417,-0.0417 0.12407,0.0264 0.17678,0 0.14907,-0.0745 0.20448,-0.27902 0.35355,-0.35355 0.60442,-0.30221 2.93569,0.29992 3.53554,0 0.2236,-0.1118 0.32231,-0.39166 0.53033,-0.53033 0.049,-0.0327 0.12774,0.0327 0.17677,0 0.3274,-0.21826 0.57646,-0.63794 0.88389,-0.88388 0.23006,-0.18406 0.61393,-0.25083 0.7071,-0.53033 0.0373,-0.11181 -0.0527,-0.24815 0,-0.35356 0.0264,-0.0527 0.13511,0.0417 0.17678,0 0.32934,-0.32934 0.60254,-1.00837 1.06066,-1.23744 0.35199,-0.17599 0.69999,-0.46666 1.06066,-0.7071 0.17833,-0.11889 0.77564,-0.24531 0.88388,-0.35356 0.36576,-0.36575 -0.55892,0.0143 0.17678,-0.35355 0.80048,-0.40024 1.53402,-0.35355 2.47487,-0.35355 0.23571,0 0.4835,0.0745 0.70711,0 0.0791,-0.0264 0.0977,-0.15043 0.17678,-0.17678 0.1677,-0.0559 0.36262,0.0559 0.53033,0 1.09727,-0.36576 -0.58752,0.0143 0.88388,-0.35355 0.28583,-0.0715 0.59222,0.0417 0.88388,0 0.69207,-0.0989 1.30461,-0.45113 1.94455,-0.70711 0.20395,-0.0816 0.49811,0.0697 0.7071,0 0.91785,-0.30595 1.90489,0.0541 2.82843,-0.17678 0.25566,-0.0639 0.45711,-0.27022 0.70711,-0.35355 0.33892,-0.11297 3.812,-0.12148 4.41942,0 0.60971,0.12194 1.95155,1.06534 2.47487,1.41421 0.13867,0.0924 0.2611,0.21488 0.35355,0.35356 0.0327,0.049 -0.0527,0.15042 0,0.17677 0.31136,0.15568 0.33989,-0.0137 0.53033,0.17678 0.13589,0.13589 0.51432,1.3982 0.70711,1.59099 0.1614,0.1614 0.62658,-0.0805 0.88388,0.17678 0.23571,0.2357 -0.375,0.16963 0.17678,0.35355 0.47643,0.15881 1.10257,-0.1221 1.59099,0 0.45382,0.11346 1.09059,0.34358 1.59099,0.17678 0.14912,-0.0497 0.98207,-0.45174 1.06066,-0.53033 0.0417,-0.0417 -0.0527,-0.15043 0,-0.17678 0.10541,-0.0527 0.23799,0.0231 0.35355,0 0.55761,-0.11152 1.12849,-0.1223 1.59099,-0.35355 0.16967,-0.0848 0.53735,0.0566 0.70711,0 0.0791,-0.0264 0.11785,-0.11785 0.17678,-0.17678 0.17677,-0.0589 0.34652,-0.14614 0.53033,-0.17678 0.38672,-0.0645 0.85574,0.0954 1.23744,0 0.87247,-0.21811 2.65282,-0.39745 3.53553,-0.17677 0.0572,0.0143 -0.0527,0.15042 0,0.17677 0.10541,0.0527 0.24814,-0.0527 0.35355,0 0.0527,0.0264 -0.0417,0.13511 0,0.17678 0.0417,0.0417 0.12964,-0.0353 0.17678,0 0.2,0.15 0.33033,0.38033 0.53033,0.53033 0.26205,0.19654 0.97525,0.26815 1.23744,0.53033 0.0417,0.0417 -0.0417,0.13511 0,0.17678 0.2647,0.2647 2.60878,1.13833 3.0052,1.23744 0.81676,0.20419 1.66158,0.436 2.47487,0.7071 0.11181,0.0373 0.2555,-0.0654 0.35356,0 0.13867,0.0924 0.20448,0.27902 0.35355,0.35356 0.31175,0.15587 3.12106,0.008 3.71231,0.17677 0.32415,0.0926 0.60517,0.39098 0.88388,0.53033 0.44906,0.22453 0.96965,0.20537 1.41422,0.35356 0.55936,0.18645 1.06123,0.619 1.59099,0.88388 0.57151,0.28575 1.50729,-0.20468 2.12132,0 0.0791,0.0263 0.0959,0.15656 0.17678,0.17678 0.93281,0.2332 4.58884,0 5.83363,0 0.41248,0 0.83727,-0.10005 1.23743,0 0.12783,0.032 0.22359,0.15511 0.35356,0.17677 0.37681,0.0628 1.03155,-0.12755 1.41421,0 0.0791,0.0264 0.10224,0.13951 0.17678,0.17678 0.35284,0.17642 3.58896,0 4.24264,0 0.9951,0 2.63599,0.22489 3.53553,0 0.2357,-0.0589 0.53531,-0.005 0.70711,-0.17678 0.0417,-0.0417 -0.0559,-0.15814 0,-0.17677 0.1677,-0.0559 0.35883,0.0429 0.53033,0 0.0808,-0.0202 0.0951,-0.16044 0.17677,-0.17678 0.23113,-0.0462 0.47462,0.0387 0.70711,0 0.31301,-0.0522 0.57604,-0.27659 0.88388,-0.35355 0.1715,-0.0429 0.35884,0.0429 0.53034,0 0.11785,-0.0589 0.2357,-0.11786 0.35355,-0.17678 0,-0.0589 -0.049,-0.14409 0,-0.17678 0.40552,-0.27034 0.76439,-0.26271 1.06066,-0.7071 0.30639,-0.45959 1.09936,-2.8823 1.59099,-3.00521 0.22734,-0.0568 1.37334,-0.13591 1.41421,-0.17678 0.0417,-0.0417 -0.0417,-0.13511 0,-0.17677 0.15023,-0.15023 0.3403,-0.25854 0.53033,-0.35356 0.27931,-0.13965 0.75234,0.0771 1.06066,0 0.54853,-0.13713 1.06975,-0.35658 1.59099,-0.53033 0.20994,-0.07 0.74266,0.14123 0.88389,0 0.36575,-0.36575 -0.55893,0.0143 0.17677,-0.35355 0.43123,-0.21561 0.23496,0.35467 0.70711,-0.35355 0.048,-0.0719 0.31289,-0.44901 0.35355,-0.53033 0.14601,-0.29201 -0.0981,-0.34066 0.17678,-0.70711 0.27386,-0.36515 0.85757,-0.65447 1.06066,-1.06066 0.0527,-0.10541 -0.0231,-0.23799 0,-0.35355 0.14199,-0.70993 0.36019,-1.24408 0.88388,-1.76777 0.82237,-0.82236 0.58781,-1.00101 1.76777,-1.59099 0.53909,-0.26955 -0.32331,-0.14014 0.53033,-0.35355 1.18271,-0.29568 0.93225,-0.20096 1.94454,-0.70711 0.22329,-0.11164 0.6783,0.13706 0.88389,0 0.13867,-0.0924 0.22022,-0.25355 0.35355,-0.35355 0.40602,-0.30452 0.45509,-0.0696 0.88388,-0.17678 0.53322,-0.1333 1.1458,-0.72839 1.76777,-0.88388 0.11433,-0.0286 0.24815,0.0527 0.35355,0 0.57706,-0.28853 -0.85774,-0.0949 0.17678,-0.35356 0.64707,-0.16176 1.31932,-0.14514 1.94455,-0.35355 0.27458,-0.0915 0.57276,-0.42662 0.88388,-0.53033 0.48219,-0.16073 1.09591,0.12377 1.59099,0 0.15741,-0.0394 0.54186,-0.27093 0.70711,-0.35355 0.18022,-0.0901 1.08213,-0.0661 1.41421,-0.17678 0.41461,-0.1382 1.21538,-0.63348 1.59099,-0.88388 0.10963,-0.0731 0.0589,-0.29463 0.17678,-0.35356 0.10541,-0.0527 0.24175,0.0373 0.35355,0 0.0791,-0.0264 0.10224,-0.13951 0.17678,-0.17677 0.16666,-0.0833 0.37528,-0.0734 0.53033,-0.17678 0.049,-0.0327 -0.0417,-0.13511 0,-0.17678 0.26962,-0.26963 0.75307,-0.47641 1.06066,-0.7071 0.53519,0.43621 0.30406,-0.48085 0.35355,-0.53033 0.2564,-0.25641 0.59425,-0.13633 0.88388,-0.35356 0.2,-0.15 0.30673,-0.41852 0.53033,-0.53033 0.384,-0.19199 1.41422,-0.66592 1.41422,-1.23743 0.0261,-0.70604 -0.18072,-1.37468 -0.2672,-2.06649 -0.0116,-0.093 0.008,-0.18789 0,-0.28125 -0.012,-0.13255 -0.094,-0.25085 -0.125,-0.375 -0.02,-0.08 -0.0224,-0.4415 0,-0.53125 0.004,-0.0143 0.0266,-0.0173 0.0312,-0.0312 0.0227,-0.068 0.0181,-0.15215 0.0625,-0.21875 0.006,-0.009 0.0219,0.005 0.0312,0 0.0676,-0.0338 0.125,-0.11778 0.28453,-0.10955 -0.0371,-0.78311 0.0383,-1.07625 -0.37079,-1.68982 -0.0924,-0.13867 -0.27901,-0.20448 -0.35355,-0.35355 -0.13828,-0.27656 -0.17411,-0.70577 -0.53033,-0.88388 -0.4453,-0.22265 0.15298,0.67141 -0.53033,-0.35356 -0.0327,-0.049 0,-0.11785 0,-0.17677 -0.0589,-0.11785 -0.0836,-0.26039 -0.17678,-0.35356 -0.15963,-0.15963 -1.16324,-0.46758 -1.41421,-0.53033 -0.91089,-0.22772 -1.91137,0.12891 -2.82843,-0.17677 -0.14498,-0.0483 -0.62343,-0.18621 -0.7071,-0.35356 -0.0264,-0.0527 0.0417,-0.13511 0,-0.17677 -0.10274,-0.10274 -0.55855,-0.1025 -0.70711,-0.17678 -0.7357,-0.36785 0.18898,0.0122 -0.17678,-0.35355 -0.0417,-0.0417 -0.12407,0.0264 -0.17677,0 -0.20807,-0.10403 -0.57071,-0.5707 -0.70711,-0.70711 -0.12784,-0.12783 -0.86607,-0.65367 -0.88388,-0.70711 -0.0566,-0.16976 0.0848,-0.53744 0,-0.7071 -0.18335,-0.36669 -0.34867,-0.69733 -0.53033,-1.06066 -0.10541,-0.21082 0.0745,-0.4835 0,-0.70711 -0.0186,-0.0559 -0.13511,0.0417 -0.17678,0 -0.1545,-0.1545 -0.0893,-0.7089 -0.17678,-0.88388 -0.0264,-0.0527 -0.15814,0.0559 -0.17677,0 -0.058,-0.17396 -0.0838,-1.49807 -0.17678,-1.59099 -0.47141,-0.47141 -0.29463,0.17677 -0.53033,-0.53033 -0.1397,-0.41911 0.005,-1.05589 -0.35355,-1.41422 -0.0417,-0.0417 -0.13511,0.0417 -0.17678,0 -0.19408,-0.19407 0.0551,-1.31538 0,-1.59099 -0.10843,-0.54213 -0.24514,-1.04893 -0.35355,-1.59099 -0.10199,-0.50993 0.10198,-1.08106 0,-1.59099 -0.38478,-1.92387 0.0694,-0.10733 -0.35356,-0.53033 -0.0417,-0.0417 0,-0.11785 0,-0.17677 0,-0.69733 -0.21589,-1.82721 0,-2.47488 0.0441,-0.13228 0.1751,-0.8822 0.17678,-0.88388 0.0417,-0.0417 0.13511,0.0417 0.17678,0 0.0417,-0.0417 -0.0264,-0.12407 0,-0.17678 0.18823,-0.37647 0.16531,0.0229 0.35355,-0.35355 0.14237,-0.28474 0.20314,-0.75984 0.35355,-1.06066 0.0745,-0.14907 0.27087,-0.20885 0.35356,-0.35356 0.26148,-0.4576 0.57927,-0.9029 0.7071,-1.41421 0.0286,-0.11433 -0.0373,-0.24175 0,-0.35355 0.17072,-0.51216 0.67745,-1.07489 0.88389,-1.59099 0.33683,-0.84208 -0.56985,0.23605 0.17677,-0.88389 0.0327,-0.049 0.13511,0.0417 0.17678,0 0.17678,-0.17677 0,-0.7071 0.17678,-0.88388 0.0932,-0.0932 0.26038,-0.0836 0.35355,-0.17678 0.0744,-0.0744 -0.0324,-0.64236 0,-0.7071 0.17678,-0.35356 0.35355,-0.26517 0.53033,-0.53033 0.15993,-0.23991 0.24509,-0.49019 0.35355,-0.70711 0.36785,-0.7357 -0.0122,0.18898 0.35356,-0.17678 0.44652,-0.44652 0.0679,-0.20378 0.17677,-0.53033 0.0833,-0.25 0.16722,-0.52076 0.35356,-0.7071 0.0417,-0.0417 0.15042,0.0527 0.17677,0 0.0527,-0.10541 -0.0286,-0.23922 0,-0.35356 0.0852,-0.34087 0.34753,-0.60967 0.53033,-0.88388 0.10337,-0.15504 0.045,-0.39857 0.17678,-0.53033 0.0932,-0.0932 0.28046,-0.0672 0.35355,-0.17678 0.0654,-0.0981 -0.0286,-0.23922 0,-0.35355 0.032,-0.12783 0.13511,-0.22855 0.17678,-0.35355 0.11764,-0.35294 -0.0713,-0.88092 0,-1.23744 0.14227,-0.71137 0.129,-0.0812 0.35355,-0.53033 0.31008,-0.62016 -0.31142,-3.08947 0,-3.71231 0.19996,-0.39991 0.2166,-0.64978 0.35356,-1.06066 0.0263,-0.0791 0.15042,-0.0977 0.17677,-0.17678 0.0884,-0.26516 -0.0884,-0.61872 0,-0.88388 0.14374,-0.43122 0.20994,-0.8066 0.35356,-1.23744 0.18745,-0.56237 -0.26139,-1.42176 0,-1.94454 0.0745,-0.14907 0.30085,-0.19544 0.35355,-0.35356 0.13387,-0.40161 0.002,-0.35678 0.17678,-0.7071 0.0809,-0.16179 -0.11995,-0.58717 0,-0.70711 0.68991,-0.68991 0.0949,0.0409 0.53033,-0.17678 0.39086,-0.19543 0.0548,-0.10971 0.17677,-0.35355 0.16273,-0.32545 0.36761,-0.0281 0.53033,-0.35355 0.13765,-0.2753 0.28463,-0.81496 0.53033,-1.06066 0.0932,-0.0932 0.26039,-0.0836 0.35356,-0.17678 0.0417,-0.0417 -0.0417,-0.13511 0,-0.17678 0.0932,-0.0932 0.26038,-0.0836 0.35355,-0.17677 0.36576,-0.36576 -0.55893,0.0143 0.17678,-0.35356 0.0527,-0.0264 0.13511,0.0417 0.17677,0 0.0932,-0.0932 0.0836,-0.26038 0.17678,-0.35355 0.0417,-0.0417 0.13511,0.0417 0.17678,0 0.19094,-0.19094 0.0888,-0.58953 0.53033,-0.88388 0.049,-0.0327 0.13511,0.0417 0.17677,0 0.0417,-0.0417 -0.0263,-0.12408 0,-0.17678 0.0854,-0.17084 0.53627,-0.62168 0.70711,-0.70711 0.0527,-0.0264 0.13511,0.0417 0.17678,0 0.0417,-0.0417 0,-0.11785 0,-0.17677 0.0589,-0.0589 0.10744,-0.13056 0.17677,-0.17678 0.21927,-0.14618 0.52077,-0.16721 0.70711,-0.35355 0.0417,-0.0417 -0.0417,-0.13511 0,-0.17678 0.0417,-0.0417 0.13511,0.0417 0.17678,0 0.0932,-0.0932 0.10369,-0.24392 0.17677,-0.35355 0.12197,-0.18296 0.84221,-0.56148 1.06066,-0.70711 0.0589,-0.0589 0.11786,-0.11785 0.17678,-0.17678 0,-0.0589 -0.0417,-0.13511 0,-0.17677 0.0589,-0.0589 0.47141,-0.11786 0.53033,-0.17678 0.33977,-0.33977 -0.46685,-0.20217 0.35355,-0.53033 0.18439,-0.0738 1.1391,-0.51043 1.23744,-0.70711 0.0263,-0.0527 -0.0417,-0.13511 0,-0.17677 0.29437,-0.29438 0.53033,0.23862 0.7071,-0.7955 -0.10748,-0.26516 -0.68404,-0.34204 -0.88388,-0.44194 -0.0527,-0.0264 0.0417,-0.13508 0,-0.17678 -0.0833,-0.0833 -0.27025,0.0833 -0.35355,0 -0.0417,-0.0417 0.0417,-0.13507 0,-0.17677 -0.125,-0.125 -0.38324,0.0981 -0.53033,0 -0.10958,-0.0731 -0.0836,-0.26036 -0.17678,-0.35356 -0.20026,-0.20026 -1.03717,-0.33007 -1.23743,-0.53033 -0.36576,-0.36575 0.55892,0.0143 -0.17678,-0.35355 -0.27377,-0.13689 -0.45777,-0.28099 -0.70711,-0.53033 -0.35358,-0.35359 -0.57717,-0.91512 -1.06066,-1.23744 -0.26712,-0.17808 -0.61448,-0.26375 -0.88388,-0.35355 -0.64087,-0.21362 -0.12581,-0.0839 -0.53033,-0.35356 -0.46072,-0.30714 -1.16055,-0.42014 -1.59099,-0.7071 -0.13867,-0.0924 -0.21488,-0.26116 -0.35355,-0.35356 -0.34381,-0.2292 -1.18909,0.13397 -1.59099,0 -0.15812,-0.0527 -0.20449,-0.27905 -0.35356,-0.35355 -0.16666,-0.0834 -0.36366,-0.0935 -0.53033,-0.17678 -0.11787,-0.0589 -0.0589,-0.29465 -0.17677,-0.35355 -0.10541,-0.0527 -0.24815,0.0527 -0.35356,0 -0.10541,-0.0527 0.0373,-0.24175 0,-0.35355 -0.0472,-0.14171 -0.24584,-0.77617 -0.35355,-0.88389 -0.0417,-0.0417 -0.13508,0.0417 -0.17678,0 -0.0833,-0.0833 0.0373,-0.24175 0,-0.35355 -0.13097,-0.39291 -0.2471,-0.63486 -0.35355,-1.06066 -0.0685,-0.27389 0.089,-0.61679 0,-0.88388 -0.0672,-0.20156 -0.4601,-0.21038 -0.35355,-0.53033 -0.0665,-0.2661 0.0871,-0.62264 0,-0.88389 -0.12166,-0.36497 -0.38138,-0.4092 -0.53033,-0.7071 -0.10368,-0.20743 -0.003,-0.70998 -0.17678,-0.88389 -0.0417,-0.0417 -0.13508,0.0417 -0.17678,0 -0.071,-0.071 0.0333,-0.43033 0,-0.53033 -0.0833,-0.25 -0.30185,-0.4487 -0.35355,-0.7071 -0.12378,-0.61882 -0.10158,-4.09229 -0.17678,-4.24264 -0.26233,-0.52467 -0.47566,-0.96301 -0.55242,-1.45841 l -13.85488,0.13258 h -2.91681 c -0.44152,0 -1.07184,-0.0789 -1.50261,0.0442 -0.0861,0.0246 -0.14779,0.096 -0.22097,0.13258 -0.0132,0.007 -0.0295,0 -0.0442,0 -0.0737,0.0295 -0.15209,0.049 -0.22097,0.0884 -0.13579,0.0776 -0.2272,0.26827 -0.30936,0.30936 -0.0132,0.007 -0.0338,-0.0104 -0.0442,0 -0.12401,0.124 -0.26027,0.45765 -0.44195,0.53033 -0.041,0.0164 -0.089,-0.007 -0.13258,0 -0.12278,-0.086 -0.11286,0.0724 -0.17678,0.0884 -0.18501,0.0463 -0.39026,0.027 -0.57452,0.0884 -0.0699,0.0233 -0.14951,-0.0179 -0.22097,0 -0.0143,0.004 0.014,0.0395 0,0.0442 -0.0419,0.014 -0.0897,-0.0107 -0.13258,0 -0.0833,0.0208 -0.14122,0.10068 -0.22097,0.13258 -0.0137,0.005 -0.0295,0 -0.0442,0 -0.0442,0.0147 -0.0926,0.0202 -0.13258,0.0442 -0.0357,0.0214 -0.0511,0.0698 -0.0884,0.0884 -0.0264,0.0132 -0.0648,-0.0177 -0.0884,0 -0.0425,0.0319 -0.0565,0.0901 -0.0884,0.13258 -0.0125,0.0167 -0.0295,0.0295 -0.0442,0.0442 -0.0295,0.0295 -0.0634,0.055 -0.0884,0.0884 -0.14449,0.19265 -0.25101,0.42307 -0.39775,0.61871 -0.0548,0.073 -0.24173,0.2972 -0.30935,0.35356 -0.0408,0.034 -0.095,0.0508 -0.13259,0.0884 -0.0376,0.0376 -0.0508,0.095 -0.0884,0.13258 -0.0284,0.0284 -0.14836,0.10417 -0.17677,0.13258 -0.0889,0.0889 -0.18565,0.24121 -0.26517,0.30936 -0.0354,0.0303 -0.0953,0.0162 -0.13258,0.0442 -0.0264,0.0198 -0.0244,0.062 -0.0442,0.0884 -0.0809,0.10792 -0.34968,0.27732 -0.39775,0.30936 -0.16064,0.10709 -0.43118,0.2783 -0.57453,0.39775 -0.0253,0.0211 -0.0209,0.0651 -0.0442,0.0884 -0.19401,0.19401 -0.1337,0.0704 -0.30936,0.22097 -0.0791,0.0678 -0.13764,0.15847 -0.22097,0.22097 -0.17404,0.13053 -0.31903,0.2585 -0.48614,0.39775 -0.0253,0.0211 -0.0651,0.0209 -0.0884,0.0442 -0.0233,0.0233 -0.0259,0.061 -0.0442,0.0884 -0.13903,0.20855 -0.29328,0.42051 -0.44194,0.61872 -0.11169,0.14892 -0.25586,0.27911 -0.35355,0.44194 -0.14285,0.0957 -0.10632,0.27092 -0.17678,0.39775 -0.0516,0.0929 -0.12927,0.17015 -0.17678,0.26516 -0.0272,0.0543 -0.0147,0.12368 -0.0442,0.17678 -0.0995,0.17915 -0.27191,0.33984 -0.35355,0.53033 -0.0367,0.0856 -0.0505,0.18003 -0.0884,0.26516 -0.11836,0.2663 -0.28811,0.52141 -0.39775,0.7955 -0.0226,0.0564 -0.017,0.12245 -0.0442,0.17678 -0.0186,0.0373 -0.0698,0.0511 -0.0884,0.0884 -0.0272,0.0543 -0.0203,0.12095 -0.0442,0.17678 -0.042,0.098 -0.10474,0.12355 -0.13258,0.22097 -0.0478,0.16721 -0.0675,0.36776 -0.13258,0.53033 -0.008,0.0194 -0.0376,0.0244 -0.0442,0.0442 -0.0534,0.16016 0,0.52128 0,0.7071 -0.13253,0.13253 -0.27561,0.25529 -0.39758,0.3976 -0.0559,0.0652 -0.074,0.15818 -0.13259,0.22097 -0.78725,0.84349 -0.19544,0.10705 -0.79549,0.70711 -0.15486,0.15485 -0.29942,0.31986 -0.44194,0.48613 -0.086,0.10033 -0.11651,0.21982 -0.22097,0.30936 -0.05,0.0429 -0.11786,0.0589 -0.17678,0.0884 -0.17678,0.14732 -0.35644,0.29124 -0.53033,0.44194 -0.2519,0.21831 -0.45797,0.48566 -0.70711,0.70711 -0.0642,0.0571 -0.1517,0.0818 -0.22097,0.13258 -0.15213,0.11157 -0.29006,0.24165 -0.44194,0.35356 -0.12828,0.0945 -0.27226,0.16696 -0.39775,0.26516 -0.38863,0.0668 -0.4905,0.45428 -0.7513,0.66291 -0.15646,0.12517 -0.34445,0.21188 -0.48613,0.35356 -0.0233,0.0233 -0.0209,0.0651 -0.0442,0.0884 -0.14077,0.14077 -0.37344,0.267 -0.53033,0.39774 -0.3993,0.33275 -0.75007,0.72642 -1.10485,1.10486 -0.22485,0.23984 -0.48735,0.41568 -0.70711,0.66291 -0.25118,0.28257 -0.4438,0.62131 -0.66291,0.92808 -0.0707,0.099 -0.12221,0.23881 -0.22097,0.30936 -0.20907,0.14933 -0.47521,0.28861 -0.70711,0.39774 -0.65873,0.31 -1.33682,0.41074 -2.03293,0.57453 -0.9682,0.22781 0.27109,-0.0371 -0.44194,0.17678 -0.0858,0.0257 -0.17678,0.0295 -0.26517,0.0442 -0.11785,0.0442 -0.23325,0.0956 -0.35355,0.13258 -0.11902,0.0366 -0.37332,0.0618 -0.48614,0.0884 -0.16204,0.0442 -0.32409,0.0884 -0.48613,0.13258 -0.0147,0.0147 -0.0247,0.0369 -0.0442,0.0442 -0.27683,0.10381 -0.56303,0.0977 -0.83969,0.17677 -0.19266,0.055 -0.37948,0.13089 -0.57452,0.17678 -0.20776,0.0489 -0.45391,0.009 -0.66291,0.0442 -0.0919,0.0153 -0.17593,0.0616 -0.26517,0.0884 -0.16088,0.0483 -0.32217,0.0961 -0.48614,0.13259 -0.0288,0.006 -0.0613,-0.0116 -0.0884,0 -0.079,0.0338 -0.14122,0.10068 -0.22098,0.13258 -0.0697,0.0279 -0.14874,0.0236 -0.22097,0.0442 -0.12669,0.0362 -0.23314,0.12327 -0.35355,0.17678 -0.19387,0.0862 -0.41773,0.10369 -0.61872,0.17678 -0.13635,0.0496 -0.2601,0.13089 -0.39775,0.17677 -0.31127,0.10376 -0.12203,-0.0108 -0.35355,0.0884 -0.12111,0.0519 -0.23121,0.12784 -0.35355,0.17678 -0.0996,0.0398 -0.2174,0.0332 -0.30936,0.0884 -0.0632,0.0379 -0.1109,0.0996 -0.17678,0.13258 -0.0263,0.0132 -0.0589,0 -0.0884,0 -0.0884,0.0442 -0.17998,0.0825 -0.26516,0.13258 -0.16556,0.0974 -0.31937,0.21407 -0.48614,0.30936 -0.0404,0.0231 -0.0926,0.0202 -0.13258,0.0442 -0.17181,0.10309 -0.31217,0.25415 -0.48614,0.35356 -0.0404,0.0231 -0.0909,0.0234 -0.13258,0.0442 -0.2329,0.11645 -0.49352,0.33331 -0.7513,0.39775 -0.0572,0.0143 -0.11865,-0.01 -0.17678,0 -0.10776,0.018 -0.41177,0.17635 -0.48613,0.22097 -0.0126,0.008 0.0118,0.0354 0,0.0442 -0.0527,0.0395 -0.12196,0.0519 -0.17678,0.0884 -0.0347,0.0231 -0.053,0.0663 -0.0884,0.0884 -0.0884,0.0442 -0.17677,0.0884 -0.26516,0.13258 0,0.0147 0.0123,0.036 0,0.0442 -0.0505,0.0337 -0.13383,0.001 -0.17678,0.0442 -0.0233,0.0233 -0.0209,0.0651 -0.0442,0.0884 -0.11646,0.11646 -0.31429,0.19589 -0.44194,0.30936 -0.44263,0.39344 -0.0693,0.0655 -0.30936,0.35355 -0.11891,0.14269 -0.28643,0.24933 -0.39775,0.39775 -0.0198,0.0264 -0.0209,0.0651 -0.0442,0.0884 -0.0233,0.0233 -0.0631,0.0231 -0.0884,0.0442 -0.22262,0.18552 -0.41918,0.36784 -0.66292,0.53033 -0.0548,0.0366 -0.13019,0.0418 -0.17677,0.0884 -0.0521,0.0521 -0.0805,0.1247 -0.13259,0.17678 -0.11219,0.11219 -0.30003,0.10582 -0.44194,0.17678 -0.0132,0.007 0.0125,0.0364 0,0.0442 -0.97213,0.60758 -0.071,0.0355 -0.44194,0.22097 -0.0932,0.0466 -0.13963,0.1559 -0.22097,0.22097 -0.1239,0.0991 -0.30734,0.13685 -0.44194,0.22097 -0.0625,0.039 -0.1109,0.0996 -0.17678,0.13258 -0.0264,0.0132 -0.0604,-0.009 -0.0884,0 -0.0617,0.0206 -0.53525,0.27009 -0.57452,0.30936 -0.0104,0.0104 0,0.0295 0,0.0442 -0.17416,0.39933 -0.56484,0.35451 -0.83961,0.57432 -0.16156,0.12925 -0.28482,0.30727 -0.44194,0.44194 -0.35159,0.30136 -0.75825,0.67681 -0.97227,1.10486 -0.0973,0.19454 -0.21209,0.37998 -0.30936,0.57452 -0.0132,0.0264 0,0.0589 0,0.0884 -0.0295,0.0737 -0.049,0.15209 -0.0884,0.22097 -0.0207,0.0362 -0.0698,0.0511 -0.0884,0.0884 -0.16077,0.32154 0.055,0.0311 -0.0442,0.35355 -0.0427,0.13867 -0.12849,0.26094 -0.17678,0.39775 -0.1185,0.33574 -0.19784,0.7261 -0.30936,1.06066 -0.0532,0.15962 -0.10995,0.33022 -0.17678,0.48614 -0.0397,0.0927 -0.15534,0.24636 -0.17677,0.35355 -0.0378,0.18902 0.0627,0.0956 -0.0442,0.30936 -0.0186,0.0373 -0.0697,0.0511 -0.0884,0.0884 -0.0132,0.0264 0.007,0.0598 0,0.0884 -0.0505,0.20194 -0.13779,0.46883 -0.22097,0.66291 -0.0439,0.10239 -0.23689,0.4508 -0.26516,0.48613 -0.4224,0.528 0.0252,-0.0694 -0.30936,0.26517 -0.0376,0.0376 -0.0487,0.0973 -0.0884,0.13258 -0.30599,0.27199 -0.70193,0.43935 -1.06066,0.61872 -0.1243,0.0621 -0.22413,0.17033 -0.35355,0.22097 -0.29069,0.11375 -0.5932,0.19561 -0.88389,0.30936 -0.0495,0.0194 -0.086,0.063 -0.13258,0.0884 -0.46017,0.251 -0.92089,0.48182 -1.37002,0.7513 -0.21961,0.13177 -0.44576,0.26746 -0.66291,0.39775 -0.0565,0.0339 -0.12407,0.0489 -0.17678,0.0884 -0.0667,0.05 -0.10744,0.13055 -0.17677,0.17677 -0.0245,0.0163 -0.0631,-0.0152 -0.0884,0 -0.004,0.002 -0.38565,0.29726 -0.39775,0.30936 -0.0521,0.0521 -0.0805,0.1247 -0.13258,0.17678 -0.0233,0.0233 -0.062,0.0244 -0.0884,0.0442 -0.1,0.075 -0.18382,0.17026 -0.26517,0.26517 -0.20239,0.23612 -0.35319,0.52997 -0.57452,0.7513 -0.0233,0.0233 -0.0701,0.0168 -0.0884,0.0442 -0.0163,0.0245 0.0152,0.0631 0,0.0884 -0.0322,0.0536 -0.0951,0.0826 -0.13258,0.13258 -0.009,0.0118 0.009,0.0327 0,0.0442 -0.0521,0.0651 -0.12834,0.10896 -0.17678,0.17677 -0.0271,0.0379 -0.0202,0.0926 -0.0442,0.13259 -0.0214,0.0357 -0.0634,0.055 -0.0884,0.0884 -0.0814,0.10853 -0.13817,0.24315 -0.22097,0.35355 -0.0943,0.12575 -0.29665,0.23224 -0.39775,0.35355 -0.0298,0.0358 -0.0113,0.0996 -0.0442,0.13259 -0.0466,0.0466 -0.12478,0.0479 -0.17678,0.0884 -0.11511,0.0895 -0.18569,0.23207 -0.30936,0.30936 -0.2573,0.16082 -0.562,0.286 -0.79549,0.48614 -0.0749,0.0642 -0.28307,0.26544 -0.35356,0.35355 -0.0206,0.0257 -0.0178,0.0686 -0.0442,0.0884 -0.0373,0.028 -0.0909,0.0234 -0.13258,0.0442 -0.0806,0.0403 -0.27866,0.44316 -0.30936,0.48614 -0.20385,0.28539 -0.5424,0.60466 -0.88389,0.70711 -0.24397,0.0732 -0.50664,0.0439 -0.7513,0.0884 -0.10551,0.0192 -0.20384,0.0692 -0.30936,0.0884 -0.44441,0.0808 -1.48321,0.0826 -1.94454,0.0442 -0.0328,-0.003 -0.0589,-0.0295 -0.0884,-0.0442 -0.16204,-0.0147 -0.32374,-0.034 -0.48613,-0.0442 -0.86201,-0.0539 -1.74469,0 -2.60746,0 -0.50166,0 -1.00912,-0.0263 -1.5026,0.0442 -0.25986,0.0371 -0.53564,-0.0371 -0.7955,0 -0.34898,-0.40786 -0.22972,0.11007 -0.35355,0.13259 -0.51663,0.0939 -1.02923,0.056 -1.5468,0.0884 -0.14731,0.0147 -0.29463,0.0295 -0.44194,0.0442 -0.0442,0.0147 -0.0866,0.0365 -0.13258,0.0442 -0.26577,0.0443 -0.57093,0 -0.83969,0 -0.37877,0 -0.77142,0.029 -1.14905,0 -0.46311,-0.0356 -0.076,-0.0301 -0.48614,-0.13258 -0.0429,-0.0107 -0.0892,0.009 -0.13258,0 -0.12954,-0.0259 -0.26044,-0.0655 -0.39775,-0.0884 -0.27161,-0.0453 -0.56611,0.0304 -0.83969,0 -0.5399,-0.06 -1.0473,-0.0884 -1.59099,-0.0884 -0.2973,0 -0.63577,0.0487 -0.92807,0 -0.16589,-0.0276 -0.32247,-0.0208 -0.48614,-0.0442 -0.28413,-0.0406 -0.45135,-0.0884 -0.7513,-0.0884 -0.0502,-0.13922 -0.10043,-0.27843 -0.15064,-0.41765 -0.0417,-0.0208 -0.0992,-0.0237 -0.125,-0.0625 -0.0231,-0.0347 0.0132,-0.0855 0,-0.125 -0.0228,-0.0685 -0.14698,-0.12671 -0.1875,-0.1875 -0.36419,-0.54628 -1.08197,-0.4375 -1.6875,-0.4375 h -1.875 c -0.14529,0 -0.75578,-0.0596 -0.875,0 -0.10097,0.0505 -0.19012,0.16302 -0.3125,0.1875 -0.0613,0.0123 -0.12821,-0.0198 -0.1875,0 -0.0198,0.007 0.0116,0.0452 0,0.0625 -0.049,0.0735 -0.11396,0.13847 -0.1875,0.1875 -0.0556,0.0371 -0.35313,0.20626 -0.375,0.25 -0.0295,0.0589 -0.026,0.13268 -0.0625,0.1875 -0.0817,0.12257 -0.27677,0.16958 -0.3125,0.3125 -0.0152,0.0606 0.0152,0.12687 0,0.1875 -0.007,0.0286 -0.0493,0.0361 -0.0625,0.0625 -0.0527,0.10539 -0.10191,0.32206 -0.125,0.4375 -0.0833,0.41667 0.0278,0.0556 0,0.25 -0.11466,0.80259 -9.4e-4,0.0663 -0.125,0.5625 -0.0735,0.29406 -0.0922,0.61197 -0.25,0.875 -0.0536,0.0893 -0.13229,0.16167 -0.1875,0.25 -0.14598,0.23356 -0.21025,0.53033 -0.375,0.75 -0.0354,0.0471 -0.0833,0.0833 -0.125,0.125 -0.0833,0.125 -0.16935,0.24826 -0.25,0.375 -0.33111,0.52032 -0.61915,1.07283 -1,1.5625 -0.15001,0.19287 -0.36419,0.35878 -0.5,0.5625 -0.0116,0.0173 0.0147,0.0478 0,0.0625 -0.16882,0.16882 -0.24893,0.14441 -0.375,0.3125 -0.0901,0.12018 -0.15223,0.26094 -0.25,0.375 -0.0303,0.0354 -0.0971,0.0252 -0.125,0.0625 -0.0395,0.0527 -0.0286,0.13101 -0.0625,0.1875 -0.0837,0.13953 -0.22626,0.23702 -0.3125,0.375 -0.0494,0.079 -0.0716,0.17367 -0.125,0.25 0.15261,0.50083 -0.30866,0.27645 -0.4375,0.4375 -0.0582,0.0728 -0.0733,0.17248 -0.125,0.25 -0.074,0.11099 -0.17246,0.20395 -0.25,0.3125 -0.1837,0.25718 -0.30286,0.55903 -0.5,0.8125 -0.36546,0.46987 -0.86088,0.85852 -1.25,1.3125 -0.15685,0.18299 -0.40731,0.33077 -0.5,0.5625 -0.0155,0.0387 0.0186,0.0877 0,0.125 -0.0466,0.0932 -0.14092,0.15683 -0.1875,0.25 -0.0733,0.14662 -0.0743,0.85964 -0.125,1.0625 0.0143,0.12551 -0.0978,0.20366 -0.125,0.3125 -0.0546,0.21831 0.0107,0.46791 -0.0625,0.6875 -0.0722,0.21665 -0.13277,0.34357 -0.1875,0.5625 -0.0293,0.11715 0.0199,0.2556 0,0.375 -0.0451,0.27044 -0.17572,0.49002 -0.25,0.75 -0.0115,0.0401 0,0.0833 0,0.125 -0.0417,0.14583 -0.077,0.29361 -0.125,0.4375 -0.12989,0.38965 -0.37189,0.74066 -0.5,1.125 -0.048,0.14389 -0.0718,0.29549 -0.125,0.4375 -0.0366,0.0975 -0.13391,0.16068 -0.1875,0.25 -0.16383,0.27305 0.0539,-0.0452 -0.125,0.3125 -0.0747,0.14935 -0.23486,0.28222 -0.3125,0.4375 -0.5451,1.27189 0.1045,-0.0943 -0.375,0.625 -0.0365,0.0548 -0.033,0.12857 -0.0625,0.1875 -0.16015,0.3203 -0.39996,0.60496 -0.625,0.875 -0.0778,0.0933 -0.1016,0.2266 -0.1875,0.3125 -0.0329,0.0329 -0.0921,0.0296 -0.125,0.0625 -0.0329,0.0329 -0.0346,0.0877 -0.0625,0.125 -0.11318,0.15091 -0.15875,0.127 -0.3125,0.25 -0.24842,0.19873 -0.42363,0.51159 -0.6875,0.6875 -0.0775,0.0517 -0.17546,0.0691 -0.25,0.125 -0.0167,0.0125 0.0125,0.0458 0,0.0625 -0.053,0.0707 -0.11848,0.13228 -0.1875,0.1875 -0.0727,0.0582 -0.18412,0.0591 -0.25,0.125 -0.0329,0.0329 -0.0296,0.0921 -0.0625,0.125 -0.0227,0.0227 -0.2898,0.1648 -0.3125,0.1875 -0.0147,0.0147 0.016,0.0492 0,0.0625 0.17273,0.98828 -0.30313,0.14922 -0.4375,0.25 -0.0707,0.053 -0.11076,0.14365 -0.1875,0.1875 -0.0746,0.0426 -0.17542,0.0199 -0.25,0.0625 -0.0767,0.0438 -0.11255,0.14065 -0.1875,0.1875 -0.13455,0.0841 -0.31361,0.0884 -0.4375,0.1875 -0.32596,0.26077 -0.46151,0.64901 -0.75,0.9375 -0.0531,0.0531 -0.1298,0.0769 -0.1875,0.125 -0.20583,0.0122 -0.15567,0.21817 -0.25,0.3125 -0.0943,0.0943 -0.21817,0.15567 -0.3125,0.25 -0.0147,0.0147 0.0147,0.0478 0,0.0625 -0.0531,0.0531 -0.13439,0.0719 -0.1875,0.125 -0.0147,0.0147 0,0.0417 0,0.0625 -0.0208,0.0208 -0.038,0.0462 -0.0625,0.0625 -0.10566,0.0704 -0.28264,0.11823 -0.375,0.1875 -0.0373,0.028 -0.0237,0.0992 -0.0625,0.125 -0.0347,0.0231 -0.0863,-0.0155 -0.125,0 -0.0305,0.0122 -0.24172,0.17739 -0.3125,0.1875 -0.10312,0.0147 -0.20885,-0.0104 -0.3125,0 -0.19762,-0.12236 -0.2879,0.10007 -0.4375,0.125 -0.62733,0.10456 -1.31202,-0.11372 -1.9375,0 -0.60416,0.10985 -0.97871,0.23175 -1.4375,0.625 -0.19784,0.16958 -0.39485,0.23632 -0.5625,0.4375 -0.20271,0.24326 -0.14037,0.5543 -0.3125,0.8125 0.0417,0.3125 0.10649,0.62278 0.125,0.9375 0.003,0.0465 -0.0461,0.0814 -0.0625,0.125 -0.0463,0.12337 -0.093,0.24717 -0.125,0.375 -0.0604,0.2416 -0.0974,0.50965 -0.1875,0.75 -0.0327,0.0872 -0.0955,0.16161 -0.125,0.25 -0.14068,0.42205 -0.19965,0.88368 -0.3125,1.3125 -0.26763,1.01699 -0.64983,1.97888 -1.1875,2.875 -0.1748,0.29133 -0.25002,0.62502 -0.5,0.875 -0.0737,0.0737 -0.16866,0.12243 -0.25,0.1875 -0.11008,0.0881 -0.1601,0.2226 -0.25,0.3125 -0.21511,0.21511 -0.56237,0.28742 -0.8125,0.4375 -0.42237,0.25342 0.31762,-0.007 -0.375,0.3125 -0.17945,0.0828 -0.37803,0.11655 -0.5625,0.1875 -0.51661,0.1987 -0.89805,0.61485 -1.375,0.875 -0.0754,0.0411 -0.17542,0.0199 -0.25,0.0625 -0.0456,0.026 -0.2474,0.26042 -0.3125,0.3125 -0.11731,0.0939 -0.26877,0.14377 -0.375,0.25 -0.0147,0.0147 0.013,0.0462 0,0.0625 -0.11043,0.13804 -0.22342,0.28405 -0.375,0.375 -0.0565,0.0339 -0.12857,0.033 -0.1875,0.0625 -0.16822,0.0841 -0.3199,0.23531 -0.5,0.3125 -0.1365,0.0585 -0.35243,0.0256 -0.5,0.0625 -0.17269,0.0432 -0.32442,0.15824 -0.5,0.1875 -0.44908,0.0748 -0.91447,0.0708 -1.375,0.125 -0.75186,0.0884 -1.49782,0.23728 -2.25,0.3125 -0.31095,0.0311 -0.625,0 -0.9375,0 h -1.875 -2.3125 c -0.34534,0 -0.72192,-0.0487 -1.0625,0 -0.13044,0.0186 -0.24503,0.10334 -0.375,0.125 -0.37931,0.0632 -1.10301,0 -1.375,0 h -2.875 -1.75 c -0.22878,0 -0.53064,0.0548 -0.75,0 -0.15717,-0.0393 -0.3087,-0.16414 -0.4375,-0.25 -0.48276,-0.32184 -0.76646,-0.80183 -1.125,-1.25 -0.0552,-0.069 -0.13847,-0.11396 -0.1875,-0.1875 -0.0775,-0.11628 -0.1156,-0.25516 -0.1875,-0.375 -0.17449,-0.29082 -0.43456,-0.53921 -0.6875,-0.75 -0.23583,-0.19652 -0.32465,-0.36651 -0.625,-0.5 -0.14671,-0.0652 -0.4604,-0.16399 -0.625,-0.1875 -0.0825,-0.0118 -0.1688,0.0187 -0.25,0 -0.19258,-0.0444 -0.3691,-0.14678 -0.5625,-0.1875 -0.33556,-0.0707 -0.66337,-0.0625 -1,-0.0625 h -0.5 c -0.0833,0 -0.17546,-0.0373 -0.25,0 -0.12307,0.0615 -0.40236,0.21486 -0.5,0.3125 -0.0147,0.0147 0.0147,0.0478 0,0.0625 -0.11506,0.11506 -0.25255,0.20535 -0.375,0.3125 -0.0444,0.0388 -0.0723,0.0986 -0.125,0.125 -0.0768,0.0384 -0.17025,0.0306 -0.25,0.0625 -0.0821,0.0328 -0.10844,0.14797 -0.1875,0.1875 -0.0884,0.0442 -0.28749,0.004 -0.375,0.0625 -0.61597,0.41064 0.48218,-0.20411 -0.3125,0.25 -0.0809,0.0462 -0.17546,0.0691 -0.25,0.125 -0.0167,0.0125 0.0147,0.0478 0,0.0625 -0.008,0.008 -0.50716,0.40983 -0.5625,0.4375 -0.0768,0.0384 -0.17317,0.0241 -0.25,0.0625 -0.18634,0.0932 -0.33995,0.24163 -0.5,0.375 -0.19554,0.16295 -0.44583,0.32083 -0.625,0.5 -0.0383,0.0383 -0.0867,0.21174 -0.125,0.25 -0.0737,0.0737 -0.16333,0.12972 -0.25,0.1875 -0.17884,0.11923 -0.45715,0.14465 -0.625,0.3125 -0.0531,0.0531 -0.0719,0.13438 -0.125,0.1875 -0.0329,0.0329 -0.0886,0.0334 -0.125,0.0625 -0.51473,-0.12543 -0.11384,0.17634 -0.1875,0.25 -0.10542,0.10541 -0.36617,0.24558 -0.5,0.3125 -0.23559,0.11779 -0.47613,0.20591 -0.6875,0.375 -0.11503,0.092 -0.18993,0.23078 -0.3125,0.3125 -0.0716,0.0478 -0.31511,0.0977 -0.375,0.1875 -0.068,0.10207 0.0467,1.06329 0,1.25 -0.0669,0.26768 -0.15537,0.52329 -0.1875,0.8125 -0.007,0.0621 0.0172,0.1274 0,0.1875 -0.0256,0.0896 -0.1024,0.15961 -0.125,0.25 -0.0202,0.0808 0.0137,0.1678 0,0.25 -0.008,0.046 -0.0534,0.0793 -0.0625,0.125 -0.0281,0.14022 0.028,0.29728 0,0.4375 -0.009,0.0457 -0.0512,0.0798 -0.0625,0.125 -0.0915,0.36594 0.059,0.92884 0.1875,1.25 0.0109,0.0274 0.0417,0.0417 0.0625,0.0625 0.0208,0.10417 0.0289,0.21172 0.0625,0.3125 0.009,0.028 0.0532,0.0345 0.0625,0.0625 0.0132,0.0395 -0.0132,0.0855 0,0.125 0.009,0.028 0.0532,0.0345 0.0625,0.0625 0.0362,0.10858 0.0251,0.26279 0.0625,0.375 0.0367,0.11 0.15514,0.21542 0.1875,0.3125 0.0132,0.0395 -0.0146,0.086 0,0.125 0.0861,0.22956 0.5,1.00373 0.5,1.1875 0.0208,0.22917 0.0625,0.45739 0.0625,0.6875 0,0.0208 -0.0559,-0.0198 -0.0625,0 -0.0198,0.0593 0.008,0.12548 0,0.1875 -0.0576,0.46073 -0.04,0.15986 -0.125,0.5 -0.0539,0.21569 0.0539,0.47181 0,0.6875 -0.0143,0.0572 -0.10637,0.0691 -0.125,0.125 -0.0369,0.11075 0.023,0.26009 0,0.375 -0.065,0.32514 -0.0417,0.0625 -0.125,0.3125 -0.0358,0.10752 0.0218,0.26604 0,0.375 -0.0114,0.0572 -0.11616,0.54482 -0.125,0.5625 -0.13544,0.27088 -0.27737,0.51962 -0.375,0.8125 -0.0861,0.25821 0.001,0.55687 -0.0625,0.8125 -0.12888,0.51551 -0.0103,-0.59452 -0.125,0.4375 -0.0404,0.36393 0,0.75839 0,1.125 0,0.44852 0.0131,0.86766 0.0625,1.3125 0.007,0.0621 -0.0172,0.1274 0,0.1875 0.0334,0.1168 0.15804,0.19465 0.1875,0.3125 0.0202,0.0808 -0.0373,0.17546 0,0.25 0.14627,0.29254 0.2707,0.56211 0.375,0.875 0.0264,0.0791 -0.0202,0.16915 0,0.25 0.0272,0.10884 0.0942,0.20463 0.125,0.3125 0.13652,0.47782 0.1875,1.0049 0.1875,1.5 v 2.0625 c 0,0.28467 0.0642,0.60219 0,0.875 -0.12596,0.53532 -0.25823,0.82404 -0.3125,1.3125 -0.031,0.27924 -0.0591,0.54872 -0.125,0.8125 -0.0245,0.098 0.0245,0.21446 0,0.3125 -0.0376,0.15037 -0.0872,0.19905 -0.125,0.3125 -0.0329,0.0988 0.0329,0.21368 0,0.3125 -0.007,0.0198 -0.0417,0 -0.0625,0 l -0.0628,0.24949 c 0.67857,0.17779 1.07831,0.4644 1.4759,0.62348 z"
         id="path1" />
    </g>
  </g>
</svg>
