<?xml version="1.0" encoding="UTF-8" standalone="no"?>
<!-- Created with Inkscape (http://www.inkscape.org/) -->

<svg
   version="1.1"
   id="svg1"
   width="173.375"
   height="118.24999"
   viewBox="0 0 173.375 118.24999"
   xmlns="http://www.w3.org/2000/svg"
   xmlns:svg="http://www.w3.org/2000/svg">
  <defs
     id="defs1" />
  <g
     id="layer1"
     style="display:inline"
     transform="translate(-213.81249,-120.5)">
    <g
       id="layer49"
       style="display:inline;fill:#ffffff;fill-opacity:1;stroke:none">
      <path
         style="fill:#ffffff;fill-opacity:1;stroke:none;stroke-linecap:round"
         d="m 213.93749,231.37499 24.375,7.375 17.1875,-0.625 4.125,-1.0625 1.25,-4.5 3.375,-7.1875 3.0625,-4.3125 9.8125,-4.9375 9.6875,-0.9375 4.4375,1.875 5.1875,3.125 4.8125,-1.625 6.125,-0.5 9.75,4.3125 13.9375,2.3125 13.9375,-1.125 3.0625,-1.625 2.25,-2.75 3.6875,-1.3125 1.5,-3.625 7.6875,-4.25 13.125,-4.625 3.5,-4.12499 0.5,-3.0625 -2.875,-3.6875 -5,-0.75 -5.125,-12.5625 0.8125,-3.5 2.75,-8 3.3125,-4.3125 1.3125,-14.5 11.6875,-10 -13.4375,-8.6875 -1.25,-11.6875 -21.0625,0.9375 -6.0625,5.6875 -1.3125,5 -8.5625,8.75 -12.4375,2.875 -3.125,3.6875 -3.25,0.625 -3.375,3.5 -1.1875,3.3125 -10.5,9.8125 -25.1875,-1.0625 -6.8125,11.125 -3.1875,8.75 -6.4375,6.5 -5,1.5 -3.25,7.125 -6,6.06249 -18.75,-0.0625 -1.625,-2.93749 h -5.125 l -6.4375,4.37499 z"
         id="path47" />
    </g>
  </g>
</svg>
