<?xml version="1.0" encoding="UTF-8" standalone="no"?>
<!-- Created with Inkscape (http://www.inkscape.org/) -->

<svg
   version="1.1"
   id="svg2"
   width="308.51263"
   height="222.74832"
   viewBox="0 0 308.51263 222.74832"
   xmlns="http://www.w3.org/2000/svg"
   xmlns:svg="http://www.w3.org/2000/svg">
  <defs
     id="defs6">
    <linearGradient
       id="swatch77">
      <stop
         style="stop-color:#e2c69e;stop-opacity:1;"
         offset="0"
         id="stop77" />
    </linearGradient>
  </defs>
  <g
     id="layer66"
     style="display:inline"
     transform="translate(-0.34597087,-439.19267)">
    <g
       id="layer1"
       style="display:inline">
      <path
         style="fill:#969696;fill-opacity:1;stroke:none;stroke-width:1;stroke-dasharray:none;stroke-opacity:1"
         d="m 274.125,589.75 c -0.12667,-1.07671 -0.0206,-2.17091 -0.125,-3.25 -0.0216,-0.22334 -0.18836,-0.40925 -0.25,-0.625 -0.0229,-0.0801 0,-0.16667 0,-0.25 -0.0417,-0.20833 -0.0504,-0.42607 -0.125,-0.625 -0.3459,-0.9224 -0.11898,-0.0733 -0.375,-0.5 -0.52838,-0.88063 -0.019,-0.10997 -0.375,-1 -0.23733,-0.59333 -0.79271,-1.00156 -1.125,-1.5 -0.2754,-0.063 -0.0661,-0.25715 -0.125,-0.375 -0.16902,-0.33803 -0.57704,-0.55136 -0.875,-0.75 -0.28617,-0.19078 0.0294,-0.11404 -0.125,-0.5 -0.038,-0.095 -1.00478,-0.68989 -1.125,-0.75 -0.57988,-0.28994 -1.11803,-0.20265 -1.75,-0.375 -0.30614,-0.0835 -0.56715,-0.29804 -0.875,-0.375 -0.14041,-0.0351 -1.18816,-0.17994 -1.375,-0.25 -0.69404,-0.26027 -1.19989,-0.80819 -1.625,-1.375 -0.5127,-0.68361 -0.7097,-1.79847 -0.875,-2.625 -0.12731,-0.63653 -0.51026,-1.18655 -0.625,-1.875 -0.0383,-0.23001 -0.18251,-1.26251 -0.25,-1.375 -0.091,-0.15159 -0.28405,-0.22342 -0.375,-0.375 -0.10719,-0.17865 0.0572,-0.42468 0,-0.625 -0.25,-0.875 -0.1875,-0.1875 -0.375,-0.75 -0.0516,-0.1547 -0.21785,-0.80711 -0.25,-1 -0.0206,-0.1233 0.0343,-0.25481 0,-0.375 -0.0512,-0.17917 -0.19108,-0.32322 -0.25,-0.5 -0.27639,-0.82917 -0.125,-2.00224 -0.125,-2.875 v -4 V 556 c 0,-1.00777 -0.12483,-2.12637 0,-3.125 0.0338,-0.27084 0.18409,-0.61137 0.25,-0.875 0.0639,-0.25566 0.0919,-0.53918 0.25,-0.75 0.0559,-0.0745 0.1918,-0.0522 0.25,-0.125 0.625,-0.78125 0,-0.23438 0.375,-0.75 0.27942,-0.38421 0.59557,-0.74079 0.875,-1.125 0.0548,-0.0753 0.0591,-0.18412 0.125,-0.25 0.14731,-0.14732 0.34182,-0.23942 0.5,-0.375 0.60194,-0.51595 1.08806,-1.18371 1.75,-1.625 0.0347,-0.0231 0.0925,0.026 0.125,0 0.71476,-0.57181 0.32321,-0.44821 1,-1.125 0.0659,-0.0659 0.18412,-0.0591 0.25,-0.125 0.0362,-0.0362 0.32382,-0.53691 0.5,-0.625 0.31991,-0.15996 0.76038,-0.43051 1,-0.75 0.20382,-0.27176 0.19226,-1.00952 0.375,-1.375 0.0912,-1.70401 0.33921,-3.55395 0,-5.25 -0.12911,-0.64553 -0.51551,-1.21805 -0.625,-1.875 -0.0552,-0.33136 -0.0285,-0.67824 -0.125,-1 -0.0594,-0.19799 -0.64206,-0.7472 -0.75,-1.125 -0.0489,-0.17109 -0.12105,-0.78508 -0.25,-1 -0.0606,-0.10106 -0.21273,-0.1382 -0.25,-0.25 -0.0527,-0.15812 0.0527,-0.34189 0,-0.5 -0.0373,-0.1118 -0.17929,-0.15572 -0.25,-0.25 -0.26246,-0.34994 -0.72748,-1.15578 -0.875,-1.5 -0.25369,-0.59195 -0.25613,-1.26531 -0.5,-1.875 -0.0558,-0.13949 -0.19421,-0.23552 -0.25,-0.375 -0.0789,-0.19726 -0.0578,-0.42344 -0.125,-0.625 -0.071,-0.21287 -0.22217,-0.40235 -0.25,-0.625 -0.031,-0.24807 0.0276,-0.50153 0,-0.75 -0.05,-0.44956 -0.15957,-0.92283 -0.25,-1.375 -0.0572,-0.286 0.0322,-0.58512 0,-0.875 -0.0291,-0.26191 -0.19832,-0.4916 -0.25,-0.75 -0.16402,-0.82011 -0.125,-1.65934 -0.125,-2.5 0,-0.77641 -0.13627,-3.39805 0,-3.875 0.0512,-0.17917 0.18457,-0.32553 0.25,-0.5 0.38863,-1.03636 -0.0448,-0.0262 0.125,-0.875 0.0364,-0.18201 0.32451,-0.49879 0.375,-0.625 0.14064,-0.3516 -0.0104,-0.91158 0.125,-1.25 0.0438,-0.10942 0.19729,-0.14459 0.25,-0.25 0.125,-0.25 -0.0625,-0.1875 0,-0.375 0.0589,-0.17678 0.19107,-0.32322 0.25,-0.5 0.1452,-0.4356 0.0348,-0.51428 0.125,-0.875 -0.0753,-0.22624 0.20249,-0.23248 0.25,-0.375 0.0395,-0.11859 -0.0693,-0.271 0,-0.375 0.0654,-0.0981 0.18463,-0.15194 0.25,-0.25 0.15906,-0.2386 0.20902,-0.59836 0.375,-0.875 0.006,-0.0105 1.11087,-1.05544 1.25,-1.125 0.15366,-0.0768 0.35706,-0.0297 0.5,-0.125 0.31488,-0.20992 0.57187,-0.42291 0.875,-0.625 0.0347,-0.0231 0.0833,0 0.125,0 0.0833,-0.0417 0.18412,-0.0591 0.25,-0.125 0.0295,-0.0295 -0.0295,-0.0955 0,-0.125 0.28018,-0.28018 0.96347,-0.71347 1.25,-1 0.27085,-0.27085 0.38575,-0.70095 0.625,-1 0.14724,-0.18405 0.35858,-0.31144 0.5,-0.5 0.0437,-0.0583 0.3549,-0.6049 0.375,-0.625 0.0295,-0.0295 0.0955,0.0295 0.125,0 0.21169,-0.2117 0.0383,-0.41331 0.25,-0.625 0.0295,-0.0295 0.1,0.0333 0.125,0 0.37218,-0.49625 0.55091,-1.17591 1,-1.625 0.0659,-0.0659 0.18412,-0.0591 0.25,-0.125 0.13176,-0.13176 0.11824,-0.36824 0.25,-0.5 0.46109,-0.46109 0.0504,0.29934 0.5,-0.375 0.18634,-0.27951 0.30475,-0.60165 0.5,-0.875 0.0242,-0.0339 0.0955,0.0295 0.125,0 0.10623,-0.10623 0.15223,-0.26094 0.25,-0.375 0.22196,-0.25896 0.66828,-0.56492 0.875,-0.875 0.0417,-0.0833 0.0833,-0.16667 0.125,-0.25 0,-0.0833 -0.0373,-0.17547 0,-0.25 0.0527,-0.10541 0.18463,-0.15194 0.25,-0.25 0.0231,-0.0347 0,-0.0833 0,-0.125 0.0417,-0.0833 0.0591,-0.18412 0.125,-0.25 0.0295,-0.0295 0.0955,0.0295 0.125,0 0.23696,-0.23696 0.35474,-0.58447 0.5,-0.875 0.12071,-0.24143 0.46289,-0.40886 0.625,-0.625 0.4724,-0.62987 0.97569,-1.38802 1.625,-1.875 0.0745,-0.0559 0.18412,-0.0591 0.25,-0.125 0.37796,-0.37796 0.66412,-0.94275 1.125,-1.25 0.44689,-0.29793 1.02325,-0.38663 1.5,-0.625 1.24261,-0.62131 2.50557,-1.25152 3.875,-1.625 0.34683,-0.27434 0.75896,-0.0335 1.125,-0.125 0.0404,-0.0101 0,-0.0833 0,-0.125 0.20833,-0.0833 0.40732,-0.19558 0.625,-0.25 0.34644,-0.0866 0.76974,0.0444 1.125,0 0.93226,-0.11653 1.82624,-0.50953 2.75,-0.625 0.16538,-0.0207 0.3356,0.0274 0.5,0 0.26406,-0.044 0.48722,-0.32244 0.75,-0.375 0.59818,-0.11964 1.26751,-0.0145 1.875,-0.125 0.49779,-0.0905 1.50398,-0.25199 2,-0.5 0.13437,-0.0672 0.23551,-0.19421 0.375,-0.25 0.37691,-0.15077 0.87981,-0.002 1.25,-0.125 0.17678,-0.0589 0.31922,-0.20481 0.5,-0.25 0.0808,-0.0202 0.16667,0 0.25,0 0.16667,-0.0417 0.33702,-0.0707 0.5,-0.125 0.17678,-0.0589 0.31728,-0.21346 0.5,-0.25 0.20429,-0.0409 0.42993,0.0731 0.625,0 0.83037,-0.31139 0.5025,-0.34438 1.125,-0.5 0.25,-0.0625 0,0.125 0.375,0 0.1118,-0.0373 0.13567,-0.22142 0.25,-0.25 0.12127,-0.0303 0.25373,0.0303 0.375,0 0.1952,-0.0488 0.43076,-0.31025 0.625,-0.375 0.0791,-0.0263 0.17094,0.0263 0.25,0 0.0559,-0.0186 0.0723,-0.0987 0.125,-0.125 0.24365,-0.12183 0.62338,-0.14935 0.875,-0.25 0.20833,-0.0833 0.42431,-0.14965 0.625,-0.25 0.13118,-0.0656 0.23447,-0.33987 0.375,-0.375 0.16169,-0.0404 0.34189,0.0527 0.5,0 0.125,-0.0417 0.28183,-0.0318 0.375,-0.125 0.0295,-0.0295 -0.0395,-0.11183 0,-0.125 0.11858,-0.0395 0.25373,0.0303 0.375,0 0.11433,-0.0286 0.1382,-0.21273 0.25,-0.25 0.11858,-0.0395 0.2632,0.0559 0.375,0 0.10541,-0.0527 0.15194,-0.18463 0.25,-0.25 0.0833,-0.0417 0.16667,-0.0833 0.25,-0.125 0.0417,0 0.0877,0.0186 0.125,0 0.18115,-0.0906 0.30105,-0.27553 0.49525,-0.007 -0.005,-3.92634 0.71641,-2.00048 -1.41897,-4.6697 -0.0759,-0.0949 -0.0405,-0.2419 -0.0884,-0.35356 -0.0936,-0.21833 -0.2853,-0.3912 -0.35356,-0.61872 -0.12482,-0.41607 -0.0925,-0.90427 -0.17677,-1.32582 -0.0183,-0.0914 -0.0781,-0.17257 -0.0884,-0.26517 -0.026,-0.23426 0.0462,-0.47598 0,-0.7071 -0.045,-0.22493 -0.22232,-0.40446 -0.26517,-0.61872 -0.0347,-0.17334 0.0429,-0.35883 0,-0.53033 0.29203,-0.41562 -0.19176,-0.34682 -0.26516,-0.53033 -0.25649,-0.64122 0.0183,-0.0852 -0.0884,-0.61872 -0.12891,-0.64456 -0.36931,-1.30045 -0.53033,-1.94454 -0.0208,-0.0832 0.0208,-0.18198 0,-0.26517 -0.0605,-0.24179 -0.12429,-0.14223 -0.26517,-0.35355 -0.0503,-0.0754 -0.25597,-0.59114 -0.26516,-0.61872 -0.0186,-0.0559 0.0207,-0.1216 0,-0.17678 -0.0786,-0.20971 -0.36137,-0.92377 -0.53033,-1.14905 -0.075,-0.1 -0.19583,-0.16115 -0.26517,-0.26516 -0.0731,-0.10963 -0.0836,-0.26038 -0.17677,-0.35355 -0.042,-0.042 -0.31155,-0.13477 -0.35356,-0.17678 -0.25664,-0.25665 -0.43123,-0.69104 -0.61871,-0.97227 -0.0503,-0.11963 -0.19583,-0.16116 -0.26517,-0.26517 -0.43221,-0.64831 -0.89311,-1.29546 -1.32583,-1.94454 -0.0163,-0.0245 0.0177,-0.0648 0,-0.0884 -0.23498,-0.31332 -0.54556,-0.58396 -0.79549,-0.88388 -0.17386,-0.20863 -0.38105,-0.61636 -0.53033,-0.7955 -0.2832,-0.33984 -0.65035,-0.67144 -0.88388,-1.06066 -0.0479,-0.0799 -0.0367,-0.18764 -0.0884,-0.26516 -0.13868,-0.20802 -0.38502,-0.3269 -0.53033,-0.53033 -0.0766,-0.10722 -0.10019,-0.24634 -0.17678,-0.35356 -0.12141,-0.16997 -0.31745,-0.27595 -0.44194,-0.44194 -0.15207,-0.20276 -0.30135,-0.40783 -0.44194,-0.61872 -0.088,-0.13201 -0.0816,-0.31501 -0.17678,-0.44194 -0.0395,-0.0527 -0.13019,-0.0418 -0.17678,-0.0884 -0.23431,-0.23431 -0.96031,-1.28996 -1.06066,-1.59099 -0.0123,-0.0368 0.008,-0.36828 0,-0.44194 -0.0766,-0.68906 -0.0884,-1.33571 -0.0884,-2.03293 0,-0.67256 -0.11001,-1.46128 0,-2.12132 0.0388,-0.23287 0.10276,-0.57345 0.17677,-0.7955 0.0417,-0.125 0.14482,-0.22572 0.17678,-0.35355 0.10113,-0.40452 -0.17854,0.0919 0.0884,-0.44194 0.0894,-0.17874 0.16007,-0.44356 0.26516,-0.61872 7.4e-4,-10e-4 0.26443,-0.17555 0.26517,-0.17678 0.30775,-0.51291 0.502,-1.1842 0.61872,-1.76776 0.0755,-0.37734 0,-0.85481 0,-1.23744 v -3.53553 c 0,-0.40191 -0.033,-0.84112 0,-1.23744 0.0332,-0.39855 0.17228,-0.77751 0.26516,-1.14905 0.0894,-0.35755 0,-0.87384 0,-1.23744 l 0.0884,-2.2981 c -0.17638,0.35354 -0.53955,0.41754 -0.79547,0.35354 -0.28529,-0.0713 -0.59449,-0.14788 -0.88388,-0.17678 -0.20522,-0.0205 -0.41374,0.0228 -0.61872,0 -0.24147,-0.0268 -0.37185,-0.46304 -0.7071,-0.17677 -1.06075,-0.10608 -2.20783,0 -3.27037,0 h -6.80591 -9.63433 -3.53553 c -0.48333,0 -1.01537,-0.0406 -1.5026,0 -0.68213,0.0568 -1.36284,0.0811 -2.03293,0.17677 -0.37917,0.0542 -0.76651,-0.0191 -1.14905,0 -0.56219,0.0281 -1.11698,0.15338 -1.67938,0.17678 -1.11289,0.0464 -2.24394,0 -3.35876,0 H 254.912 c -1.15492,0 -2.39027,-0.11453 -3.53553,0 -0.47272,0.0473 -0.94466,0.10458 -1.41421,0.17678 -0.3602,0.0554 -0.64846,0.41474 -1.06066,0.26516 -0.43904,0.0585 -0.89508,-0.10786 -1.32583,0.0884 -1.2653,0.21088 -2.69984,0.60881 -3.97747,0.70711 -1.18405,0.0911 0.2219,-0.10546 -1.14905,0 -0.40633,0.0312 -0.83111,0.14557 -1.23744,0.17677 -0.14688,0.0113 -0.29663,-0.0242 -0.44194,0 -0.14505,0.0242 -0.34864,0.9028 -0.61872,0.17678 -0.75515,0.0944 -1.627,0 -2.38649,0 h -4.77297 c -0.85032,0 -1.71457,-0.0447 -2.56326,0 -0.62066,0.0327 -1.23559,0.14228 -1.85615,0.17678 -1.05041,0.0584 -2.12715,0 -3.18198,0 -0.34493,0 -0.71756,-0.0381 -1.06066,0 -1.20863,0.13429 -2.42689,0.27093 -3.62393,0.44194 -0.3513,0.0502 -0.70615,0.20606 -1.06066,0.26516 -0.4079,0.068 -0.83193,0.007 -1.23743,0.0884 -0.0884,0.0177 -0.39775,0.21217 -0.53033,0.26517 -0.38102,0.1524 -0.75974,0.31217 -1.14905,0.44194 -0.14252,0.0475 -0.29836,0.0442 -0.44194,0.0884 -0.2406,0.074 -0.46425,0.19896 -0.70711,0.26516 -0.26346,0.0719 -0.75271,0.0888 -1.06066,0.17678 -0.32558,0.093 -0.65211,0.32188 -0.97227,0.44194 -0.20084,0.0753 -0.42687,0.0809 -0.61872,0.17678 -0.19003,0.095 -0.33692,0.26565 -0.53033,0.35355 -0.13677,0.0622 -0.30246,0.0326 -0.44194,0.0884 -0.58572,0.23428 -1.13253,0.66845 -1.76777,0.79549 -0.53543,0.10709 -1.22391,0 -1.76777,0 h -4.5078 c -0.22352,0 -1.54289,-0.0481 -1.59099,0 -0.0659,0.0659 -0.0367,0.18767 -0.0884,0.26517 -0.1495,0.22425 -0.24049,0.48097 -0.35355,0.70711 -0.0601,0.12013 -0.20507,0.23342 -0.26517,0.35355 -0.0527,0.10541 0.0231,0.23799 0,0.35355 -0.0221,0.11025 -0.23546,0.38244 -0.26516,0.44194 -0.30019,0.60038 -0.63697,0.95053 -1.23744,1.32583 -0.44306,0.27691 -0.77825,0.62948 -1.28103,0.69848 -0.24686,0.0956 -0.54217,0.19001 -0.83019,0.30388 -1.42499,0.56337 -1.76607,0.79923 -3.125,1.1875 -0.14165,0.0405 -0.2964,0.0202 -0.4375,0.0625 -0.0719,0.0216 -0.125,0.0833 -0.1875,0.125 -0.10417,0.0417 -0.20463,0.0942 -0.3125,0.125 -0.10016,0.0286 -0.21036,-0.0204 -0.3125,0 -0.2515,0.0503 -0.0287,0.0456 -0.1875,0.125 -0.0186,0.009 -0.0417,0 -0.0625,0 -0.0625,0.0208 -0.131,0.0286 -0.1875,0.0625 -0.18845,0.11307 -0.32426,0.30569 -0.5,0.4375 -0.0373,0.0279 -0.0921,0.0296 -0.125,0.0625 -0.10792,0.10792 -0.1614,0.25689 -0.25,0.375 -0.0354,0.0471 -0.0986,0.0723 -0.125,0.125 -0.0186,0.0373 0.0231,0.0903 0,0.125 -0.0654,0.0981 -0.1815,0.1541 -0.25,0.25 -0.0383,0.0536 -0.0286,0.131 -0.0625,0.1875 -0.1186,0.19766 -0.33113,0.34976 -0.4375,0.5625 -0.0244,0.0488 -0.0704,0.2579 -0.125,0.3125 -0.0329,0.0329 -0.1042,0.0208 -0.125,0.0625 -0.028,0.0559 0.0246,0.13 0,0.1875 -0.041,0.0957 -0.1297,0.1633 -0.1875,0.25 -0.0258,0.0388 -0.0296,0.0921 -0.0625,0.125 -0.0329,0.0329 -0.0886,0.0334 -0.125,0.0625 -0.29575,0.2366 -0.52794,0.56351 -0.8125,0.8125 -0.0351,0.0307 -0.0896,0.0322 -0.125,0.0625 -0.63346,0.543 -0.0942,0.0995 -0.4375,0.5 -0.14428,0.16833 -0.38405,0.41974 -0.5625,0.5625 -0.0364,0.0291 -0.0921,0.0296 -0.125,0.0625 -0.0329,0.0329 -0.0296,0.0921 -0.0625,0.125 -0.24015,0.24015 -0.55326,0.40897 -0.8125,0.625 -0.0679,0.0566 -0.1168,0.1345 -0.1875,0.1875 -0.13008,0.0976 -0.50155,0.2353 -0.625,0.3125 -0.05,0.0312 -0.076,0.0923 -0.125,0.125 -0.23737,0.15824 -0.51156,0.27854 -0.75,0.4375 -0.0853,0.0569 -0.1562,0.2187 -0.1875,0.25 -0.0295,0.0295 -0.0863,-0.0155 -0.125,0 -0.31038,0.12415 -0.6079,0.3551 -0.9375,0.4375 -0.0808,0.0202 -0.1709,-0.0263 -0.25,0 -0.10175,0.1017 -0.11672,0.1431 -0.25,0.1875 -0.30377,0.10126 -0.56223,0.27074 -0.875,0.375 -0.19857,0.0662 -0.37043,0.1052 -0.5625,0.1875 -0.34825,0.14925 -0.67276,0.4432 -1,0.625 -0.25143,0.13968 -0.58004,0.30628 -0.8125,0.5 -0.23871,0.19892 -0.44493,0.43094 -0.6875,0.625 -0.0728,0.0582 -0.1772,0.0668 -0.25,0.125 -0.15614,0.12491 -0.18574,0.2368 -0.375,0.3125 -0.0387,0.0155 -0.0863,-0.0155 -0.125,0 -0.24133,0.0965 -0.28457,0.1574 -0.5625,0.25 -0.1755,0.0585 -0.0745,0.129 -0.25,0.1875 -0.0791,0.0263 -0.1704,-0.0245 -0.25,0 -0.19611,0.0603 -0.3731,0.1711 -0.5625,0.25 -0.30816,0.128 -0.16499,0.01 -0.625,0.125 -0.10884,0.0272 -0.20366,0.0978 -0.3125,0.125 -0.14292,0.0357 -0.29092,0.0478 -0.4375,0.0625 -0.0622,0.006 -0.129,-0.022 -0.1875,0 -0.11374,0.0426 -0.20385,0.1332 -0.3125,0.1875 -0.16942,0.0847 -0.43857,0.1609 -0.625,0.1875 -0.0825,0.0118 -0.1692,-0.0202 -0.25,0 -0.60362,0.1509 0.006,0.0594 -0.375,0.25 -0.0768,0.0384 -0.1693,0.0331 -0.25,0.0625 -0.26655,0.0969 -0.54189,0.2848 -0.8125,0.375 -0.0395,0.0132 -0.0855,-0.0132 -0.125,0 -0.15052,0.0502 -0.29559,0.1165 -0.4375,0.1875 -0.286,0.143 0.26521,-0.0259 -0.1875,0.125 -0.10644,0.0355 -0.26365,0.1027 -0.375,0.125 -0.0613,0.0123 -0.1295,-0.0232 -0.1875,0 -0.0754,0.0302 -0.1121,0.1573 -0.1875,0.1875 -0.0797,0.0319 -0.1732,0.0241 -0.25,0.0625 -0.0527,0.0263 -0.0779,0.0896 -0.125,0.125 -0.13937,0.1045 -0.2737,0.125 -0.4375,0.125 -0.33386,0.19557 -0.69336,0.47734 -1.0625,0.625 -0.0986,0.0394 -0.20833,0.0417 -0.3125,0.0625 -0.20833,0.0833 -0.42167,0.1551 -0.625,0.25 -0.11008,0.0514 -0.20084,0.1397 -0.3125,0.1875 -0.0383,0.0164 -0.086,-0.0146 -0.125,0 -0.72311,0.27117 -0.85717,0.40886 -1.8125,0.6875 -0.08,0.0233 -0.1709,-0.0263 -0.25,0 -0.17678,0.0589 -0.32322,0.1911 -0.5,0.25 -0.13975,0.0466 -0.2919,0.0401 -0.4375,0.0625 -0.52151,0.0802 -1.038,0.1525 -1.5625,0.1875 -0.18709,0.0125 -0.3756,-0.0149 -0.5625,0 -0.63472,0.0508 -1.71617,0.20269 -2.375,0.3125 -0.046,0.008 -0.0833,0.0417 -0.125,0.0625 -0.14583,0.0208 -0.29079,0.0492 -0.4375,0.0625 -0.72084,0.0655 -1.48328,0.12044 -2.1875,0.3125 -0.25038,0.0683 -0.63667,0.21036 -0.875,0.3125 -0.13808,0.0592 -0.23772,0.189 -0.375,0.25 -0.0785,0.0349 -0.1693,0.0331 -0.25,0.0625 -0.35856,0.13038 -0.52731,0.2132 -0.875,0.3125 -0.16071,0.0459 -0.29292,0.1777 -0.4375,0.25 -0.35508,0.17754 -0.76878,0.25939 -1.125,0.4375 -0.0527,0.0263 -0.0723,0.0987 -0.125,0.125 -0.46257,0.23128 -0.97595,0.33173 -1.4375,0.5625 -0.10865,0.0543 -0.20833,0.125 -0.3125,0.1875 -0.1875,0.0625 -0.38257,0.1057 -0.5625,0.1875 -0.0536,0.0244 -0.076,0.0923 -0.125,0.125 -0.17571,0.11714 -0.48938,0.2417 -0.6875,0.3125 -0.76241,0.27229 -1.56066,0.44926 -2.3125,0.75 -0.18562,0.0743 -0.37688,0.2382 -0.5625,0.3125 -0.39511,0.158 -0.71519,0.1622 -1.125,0.25 -0.96164,0.2061 -0.0654,0.0426 -0.5,0.1875 -0.69207,0.2307 -0.177,0.0408 -0.8125,0.1875 -0.41523,0.0958 -0.84648,0.24049 -1.25,0.375 -0.29382,0.0979 -0.5713,0.2518 -0.875,0.3125 -0.14445,0.0289 -0.29369,0.0305 -0.4375,0.0625 -0.23623,0.0525 -0.46133,0.2277 -0.6875,0.3125 -0.15722,0.059 -0.4198,0.0537 -0.5625,0.125 -0.231,0.1155 -0.20528,0.0946 -0.4375,0.1875 -0.0967,0.0387 -0.1512,0.1546 -0.25,0.1875 -0.0791,0.0263 -0.1709,-0.0263 -0.25,0 -0.11524,0.0384 -0.19971,0.1424 -0.3125,0.1875 -0.26486,0.1059 -0.60559,0.1202 -0.875,0.1875 -0.51124,0.12781 -0.99037,0.37259 -1.5,0.5 -0.20833,0.0417 -0.41667,0.0833 -0.625,0.125 -0.0625,0 -0.1259,-0.0103 -0.1875,0 -0.56893,0.0948 -1.42449,0.2551 -2,0.375 -0.23254,0.0485 -0.45496,0.139 -0.6875,0.1875 -0.32887,0.0685 -0.67207,0.0521 -1,0.125 -0.62758,0.13946 -1.18855,0.40651 -1.8125,0.5625 -0.27305,0.54069 -0.66954,0.1112 -1,0.1875 -0.96223,0.22205 -1.93491,0.5612 -2.8125,1 -0.30039,0.15019 -0.62883,0.18389 -0.9375,0.3125 -0.67413,0.28089 -1.24238,0.83079 -1.9375,1.0625 -0.33215,0.11072 -0.72631,0.1583 -1.0625,0.25 -0.0625,0.0208 -0.125,0.0417 -0.1875,0.0625 -0.0208,0.0208 -0.0345,0.0535 -0.0625,0.0625 -0.32753,0.10918 -1.92932,-0.3524 -2.3125,-0.4375 -0.67774,-0.15061 -1.37315,-0.281 -2.0625,-0.375 -0.26914,-0.0367 -0.54403,-0.0212 -0.8125,-0.0625 -0.43412,-0.0668 -0.87714,-0.192 -1.3125,-0.25 -0.22809,-0.0304 -0.46052,-0.0247 -0.6875,-0.0625 -0.0291,-0.005 -0.0354,-0.0509 -0.0625,-0.0625 -0.29513,-0.12649 -0.6374,-0.2375 -0.9375,-0.3125 -0.14448,-0.0361 -0.22022,-0.125 -0.375,-0.125 -0.40066,0.0916 -0.59651,-0.0738 -0.9375,-0.1875 -0.0791,-0.0263 -0.1709,0.0263 -0.25,0 -0.35132,-0.11711 -0.72685,-0.36015 -1.0625,-0.5 -0.15819,-0.0655 -0.29241,-0.0141 -0.4375,-0.0625 -0.273,-0.091 0.0441,-0.0449 -0.3125,-0.1875 -0.19414,-0.0777 -0.41727,-0.0328 -0.625,-0.0625 -0.59775,-0.0854 -1.19567,-0.2756 -1.8125,-0.1875 -0.56863,0.0812 -0.99609,0.31055 -1.5,0.5625 -0.18181,0.0909 -0.23725,0.0449 -0.4375,0.125 -0.0967,0.0387 -0.1568,0.1409 -0.25,0.1875 -0.8535,0.3414 0.0222,-0.0565 -0.4375,0.25 -0.21681,0.14454 -0.51143,0.19321 -0.75,0.3125 -0.14498,-0.0168 -0.1607,0.1339 -0.25,0.1875 -0.54071,0.32442 -1.27295,0.57798 -1.875,0.75 -0.21883,0.0625 -0.76832,0.3364 -1,0.375 -0.0617,0.0103 -0.1258,-0.0103 -0.1875,0 -0.21771,0.0363 -0.41639,0.2202 -0.625,0.25 -0.76563,0.10937 -0.0438,-0.0437 -0.4375,0 -0.30003,0.0333 -0.51674,0.0625 -0.8125,0.0625 -0.23883,0 -1.24889,0.0629 -1.4375,0 -0.22144,0.0622 -0.23551,-0.1942 -0.375,-0.25 -0.519425,-0.20777 0.15223,0.23877 -0.375,-0.0625 -0.09044,-0.0517 -0.15328,-0.1488 -0.25,-0.1875 -0.178336,-0.0713 -0.382656,-0.0576 -0.5625,-0.125 -0.324609,-0.12173 -0.664437,-0.2911 -1,-0.375 -0.225969,-0.0565 -0.461008,-0.0706 -0.6875,-0.125 -0.640876,-0.15381 -1.37051,-0.35267 -2,-0.5625 -0.02795,-0.009 -0.03417,-0.0545 -0.0625,-0.0625 C 95.253151,478.0277 95.122259,478.0333 95,478 94.671422,477.9104 94.394718,477.7156 94.0625,477.625 93.960013,477.5971 93.854166,477.5833 93.75,477.5625 93.5,477.5 93.247779,477.4458 93,477.375 c -0.694346,-0.19839 -1.367946,-0.49808 -2.0625,-0.6875 -0.0603,-0.0165 -0.12898,0.0219 -0.1875,0 -0.273484,-0.10256 -0.52541,-0.293 -0.8125,-0.375 -0.0601,-0.0172 -0.12821,0.0198 -0.1875,0 -0.208156,-0.0694 -0.401677,-0.2567 -0.625,-0.3125 -0.620674,-0.15517 -1.172328,-0.52367 -1.75,-0.8125 -0.141912,-0.071 -0.30019,-0.108 -0.4375,-0.1875 -0.399251,-0.23115 -0.770125,-0.54131 -1.1875,-0.75 -0.1875,-0.0833 -0.375,-0.1667 -0.5625,-0.25 -0.0625,0 -0.12947,0.0232 -0.1875,0 -0.05471,-0.0219 -0.07384,-0.0958 -0.125,-0.125 -0.289403,-0.16537 -0.634927,-0.19147 -0.9375,-0.3125 -0.02736,-0.0109 -0.04167,-0.0417 -0.0625,-0.0625 -0.104167,-0.0417 -0.205041,-0.0928 -0.3125,-0.125 -0.10175,-0.0305 -0.211722,-0.0289 -0.3125,-0.0625 -0.261325,-0.0871 -0.499047,-0.2809 -0.75,-0.375 -0.396181,-0.14857 -0.838625,-0.1912 -1.25,-0.25 -0.104167,-0.0208 -0.208334,-0.0417 -0.3125,-0.0625 -0.02083,-0.0208 -0.03392,-0.0555 -0.0625,-0.0625 -0.06063,-0.0152 -0.12538,0.007 -0.1875,0 -0.236308,0.19606 -0.329531,-0.1037 -0.5,-0.125 -0.124035,-0.0155 -0.250514,0.0113 -0.375,0 -0.265074,-0.0241 -0.489996,-0.1504 -0.75,-0.1875 -0.314791,-0.045 -0.698317,-0.008 -1,-0.0625 -0.95608,-0.17383 -1.9042,-0.3682 -2.875,-0.4375 -0.332486,-0.0238 -0.66718,0.0185 -1,0 -0.323887,-0.018 -0.627533,-0.0733 -0.9375,-0.125 -0.169381,-0.0282 -0.39842,0.0547 -0.5625,0 -0.180493,-0.0602 -0.392553,-0.2275 -0.5625,-0.3125 -0.183914,-0.092 -0.378587,-0.158 -0.5625,-0.25 C 71.135538,470.84902 70.805636,470.34384 70.5,470 c -0.001,-10e-4 -0.50949,-0.7076 -0.5625,-0.75 -0.03254,-0.026 -0.08333,0 -0.125,0 -0.0625,-0.0625 -0.12998,-0.1204 -0.1875,-0.1875 -0.182515,-0.21294 -0.214543,-0.34856 -0.375,-0.5625 -0.186912,-0.24922 -0.918814,-0.94588 -1.1875,-1.125 -0.05482,-0.0365 -0.12857,-0.033 -0.1875,-0.0625 -0.02635,-0.0132 -0.04167,-0.0417 -0.0625,-0.0625 -0.0625,-0.0417 -0.11846,-0.0954 -0.1875,-0.125 -0.07895,-0.0338 -0.17025,-0.0306 -0.25,-0.0625 L 67,466.875 c -0.02083,-0.0208 -0.03615,-0.0493 -0.0625,-0.0625 -0.263451,-0.13173 -1.054487,-0.4355 -1.3125,-0.5 -0.142916,-0.0357 -0.297746,-0.0159 -0.4375,-0.0625 -0.15052,-0.0502 -0.283575,-0.149 -0.4375,-0.1875 -0.101057,-0.0253 -0.208971,0.0115 -0.3125,0 -0.159419,0.0139 -0.287002,-0.1062 -0.4375,-0.125 -0.103362,-0.0129 -0.20885,0.0104 -0.3125,0 -0.271539,-0.0272 -0.610907,-0.1288 -0.875,-0.1875 -0.307405,-0.0683 -0.551433,-0.2472 -0.8125,-0.3125 -0.208333,-0.0521 -0.138889,0.0347 -0.3125,0 -0.178393,-0.0357 -0.32961,-0.1534 -0.5,-0.1875 -0.06129,-0.0123 -0.12563,0.009 -0.1875,0 -0.38114,-0.0544 -0.116951,-0.0538 -0.4375,-0.125 -0.363754,-0.0808 -0.755121,-0.1464 -1.125,-0.1875 -0.247102,-0.0275 -0.502292,0.0225 -0.75,0 -0.316999,-0.0288 -0.621872,-0.0934 -0.9375,-0.125 -0.413811,-0.0414 -0.836344,0.006 -1.25,-0.0625 -0.545822,-0.091 -1.077059,-0.375 -1.625,-0.375 -0.166667,-0.125 -0.316569,-0.2762 -0.5,-0.375 -0.301157,-0.1622 -0.279272,0.003 -0.5625,-0.0625 -0.192581,-0.0444 -0.378031,-0.1166 -0.5625,-0.1875 -0.494105,-0.19004 -1.27647,-0.39279 -1.8125,-0.5 -0.25858,-0.0517 -0.550655,-0.0189 -0.8125,-0.0625 -0.209569,-0.0349 -0.414405,-0.0969 -0.625,-0.125 -0.165205,-0.022 -0.335601,0.0274 -0.5,0 -0.06499,-0.0108 -0.125,-0.0417 -0.1875,-0.0625 -0.08333,0 -0.16731,0.0103 -0.25,0 -0.163553,0.0779 -0.244563,-0.1064 -0.375,-0.125 -0.10312,-0.0147 -0.208971,0.0115 -0.3125,0 -0.159861,-0.0178 -0.286663,-0.0819 -0.4375,-0.125 -0.48974,-0.13993 -1.277461,-0.3784 -1.75,-0.4375 -0.391161,-0.0489 -0.794239,-0.006 -1.1875,-0.0625 -0.482284,-0.0689 -0.945952,-0.209 -1.4375,-0.25 -0.166091,-0.0138 -0.335009,0.0236 -0.5,0 -0.06522,-0.009 -0.12252,-0.0517 -0.1875,-0.0625 -0.06165,-0.0103 -0.12821,0.0198 -0.1875,0 -0.14679,-0.0489 -0.222056,-0.1569 -0.375,-0.1875 -0.140674,-0.0281 -0.300349,-0.008 -0.4375,-0.0625 -1.062868,-0.42515 -2.032339,-1.08406 -2.9375,-1.6875 -0.07354,-0.049 -0.10844,-0.148 -0.1875,-0.1875 -0.303287,-0.15164 -0.649291,-0.36108 -0.8125,-0.6875 -0.02946,-0.0589 -0.02297,-0.1348 -0.0625,-0.1875 -0.02795,-0.0373 -0.09206,-0.0296 -0.125,-0.0625 -0.01473,-0.0147 0.01473,-0.0478 0,-0.0625 -0.243369,-0.24337 -0.478021,-0.4082 -0.6875,-0.6875 -0.174167,-0.2322 -0.197247,-0.1107 -0.3125,-0.1875 -0.03876,-0.0258 -0.02956,-0.0921 -0.0625,-0.125 -0.03294,-0.0329 -0.09206,-0.0296 -0.125,-0.0625 -0.489862,-0.65315 0.02839,-0.0398 -0.3125,-0.3125 -0.146483,-0.11719 -0.61006,-0.63384 -0.6875,-0.75 -0.02311,-0.0347 0.01863,-0.0877 0,-0.125 -0.113822,-0.22764 -0.314043,-0.41924 -0.4375,-0.625 -0.0339,-0.0565 -0.03304,-0.1286 -0.0625,-0.1875 -0.108653,-0.21731 -0.233785,-0.4273 -0.375,-0.625 -0.07059,-0.0988 -0.35007,-0.18785 -0.375,-0.3125 -0.01634,-0.0817 0.01634,-0.1683 0,-0.25 -0.0058,-0.0289 -0.04167,-0.0417 -0.0625,-0.0625 -0.02083,-0.0417 -0.0534,-0.0793 -0.0625,-0.125 -0.01226,-0.0613 0,-0.125 0,-0.1875 -0.02083,-0.0625 -0.04652,-0.1236 -0.0625,-0.1875 -0.04374,-0.17497 0,-0.43957 0,-0.625 v -1.5 c 0,-0.21096 0.03512,-0.53929 0,-0.75 -0.07538,-0.45227 -0.02975,0.0983 -0.125,-0.1875 -0.160343,-0.48103 -0.230368,-0.97145 -0.4375,-1.4375 -0.0946,-0.21285 -0.22599,-0.40874 -0.3125,-0.625 -0.319967,-0.79992 -0.77526,-1.80926 -1.3125,-2.5 -0.191483,-0.24619 -0.378438,-0.50459 -0.5625,-0.75 -0.08839,-0.11785 -0.21819,-0.19933 -0.3125,-0.3125 -0.04809,-0.0577 -0.07189,-0.1344 -0.125,-0.1875 -0.01473,-0.0147 -0.04387,0.009 -0.0625,0 -0.06719,-0.0336 -0.12884,-0.0781 -0.1875,-0.125 -0.1132,-0.0906 -0.107666,-0.1519 -0.25,-0.1875 -0.121268,-0.0303 -0.250965,0.0155 -0.375,0 -0.17047,-0.0213 -0.329255,-0.106 -0.5,-0.125 -0.717946,-0.0798 -1.64546,0 -2.375,0 h -2.625 c -0.383742,0 -0.888493,-0.0821 -1.25,0.0625 -0.33858,0.1354 0.111431,-0.0294 -0.25,0.1875 -0.295287,0.17717 -0.51745,0.20495 -0.75,0.4375 -0.03294,0.0329 -0.02255,0.101 -0.0625,0.125 -0.07366,0.0442 -0.18926,0.002 -0.25,0.0625 -0.0607,0.0607 -0.01485,0.1785 -0.0625,0.25 -0.08171,0.12257 -0.21663,0.20065 -0.3125,0.3125 -0.08925,0.10412 -0.07271,0.25997 -0.125,0.375 -0.02423,0.26553 -0.274464,0.40382 -0.375,0.625 -0.07366,0.16204 -0.11291,0.33838 -0.1875,0.5 -0.136588,0.29594 -0.334602,0.59933 -0.5,0.875 -0.04793,0.0799 -0.06437,0.1793 -0.125,0.25 -0.06779,0.0791 -0.16866,0.1224 -0.25,0.1875 -0.210168,0.16813 -0.449487,0.42441 -0.625,0.625 -0.09896,0.11309 -0.29169,0.36114 -0.375,0.5 -0.0339,0.0565 -0.02032,0.1369 -0.0625,0.1875 -0.06669,0.08 -0.17634,0.1138 -0.25,0.1875 -0.176147,0.17615 -0.372776,0.47546 -0.5,0.6875 -0.06519,0.10865 -0.08754,0.3626 -0.125,0.4375 -0.04659,0.0932 -0.13582,0.1596 -0.1875,0.25 -0.10664,0.18661 -0.10213,0.43292 -0.1875,0.625 -0.141659,0.31873 -0.41427,0.65709 -0.5,1 -0.1117,0.4468 0.135349,0.0548 -0.0625,0.5 -0.04934,0.11101 -0.13317,0.20385 -0.1875,0.3125 -0.0093,0.0186 0.0125,0.0458 0,0.0625 -0.05303,0.0707 -0.14365,0.1108 -0.1875,0.1875 -0.04262,0.0746 -0.02408,0.1732 -0.0625,0.25 -0.02635,0.0527 -0.09865,0.0723 -0.125,0.125 -0.03842,0.0768 -0.03534,0.1685 -0.0625,0.25 -0.117208,0.35162 -0.274045,0.67309 -0.4375,1 -0.04767,0.0953 -0.067,0.288 -0.125,0.375 -0.03269,0.049 -0.09865,0.0723 -0.125,0.125 -0.03842,0.0768 -0.02408,0.1732 -0.0625,0.25 -0.0093,0.0186 -0.05178,-0.0179 -0.0625,0 -0.142433,0.23739 -0.28697,0.67342 -0.375,0.9375 -0.06669,0.20007 -0.27957,0.37164 -0.375,0.5625 -0.114724,0.22945 -0.22892,0.56177 -0.3125,0.8125 -0.02635,0.0791 0.02021,0.1692 0,0.25 -0.02,0.08 -0.30104,0.5358 -0.3125,0.5625 -0.068,0.15868 -0.01885,0.40245 -0.0625,0.5625 -0.08446,0.30969 -0.29065,0.56573 -0.375,0.875 -0.03334,0.12226 -0.02769,0.25315 -0.0625,0.375 -0.03466,0.12131 -0.24626,0.47595 -0.3125,0.625 -0.04556,0.10252 -0.08952,0.20607 -0.125,0.3125 -0.0066,0.0198 0.01473,0.0478 0,0.0625 -0.03294,0.0329 -0.11027,0.0183 -0.125,0.0625 -0.111111,0.33333 0.06667,0.23333 0,0.5 -0.01822,0.0729 -0.10125,0.1162 -0.125,0.1875 -0.01318,0.0395 0.01863,0.0877 0,0.125 -0.08333,0.16667 -0.15413,0.34021 -0.25,0.5 -0.117604,0.19601 -0.303796,0.37531 -0.4375,0.5625 -0.124671,0.17454 -0.183805,0.39091 -0.3125,0.5625 -0.0125,0.0167 -0.04777,-0.0147 -0.0625,0 -0.05068,0.0507 -0.22857,0.3322 -0.25,0.375 -0.270477,0.54095 -0.67407,1.27453 -1.25,1.5625 -0.07384,0.0369 -0.11855,0.1415 -0.1875,0.1875 -0.03148,0.1377 -0.12857,0.033 -0.1875,0.0625 -1.0147662,0.50738 0.08954,-0.0389 -0.4375,0.3125 -0.1813142,0.12088 -0.3743136,0.1559 -0.5625,0.25 -0.026352,0.0132 -0.041667,0.0417 -0.0625,0.0625 -0.041667,0.0417 -0.072295,0.0987 -0.125,0.125 -0.037268,0.0186 -0.084577,-0.0101 -0.125,0 -0.301809,0.0754 0.0031,0.0297 -0.1875,0.125 -0.1865122,0.0933 -0.3786046,0.1581 -0.5625,0.25 -0.1825934,0.0913 -0.3316419,0.26276 -0.5,0.375 -0.1598995,0.1066 -0.322695,0.14029 -0.4375,0.3125 -0.011556,0.0173 0,0.0417 0,0.0625 -0.041667,0.0833 -0.069098,0.1755 -0.125,0.25 -0.0125,0.0167 -0.05318,-0.0186 -0.0625,0 -0.038415,0.0768 -0.030598,0.1702 -0.0625,0.25 -0.010942,0.0274 -0.041667,0.0417 -0.0625,0.0625 -0.020833,0.0417 -0.047769,0.0808 -0.0625,0.125 -0.038254,0.11476 -0.068306,0.26161 -0.125,0.375 -0.046585,0.0932 -0.15456,0.1512 -0.1875,0.25 -0.013176,0.0395 0.021437,0.0893 0,0.125 -0.045475,0.0758 -0.142025,0.1117 -0.1875,0.1875 -0.021437,0.0357 0.013176,0.0855 0,0.125 -0.029463,0.0884 -0.083333,0.1667 -0.125,0.25 -0.066282,0.13256 -0.303241,0.39236 -0.375,0.5 -0.1905663,0.0442 -0.024085,0.1732 -0.0625,0.25 -0.079531,0.15906 -0.235115,0.28273 -0.3125,0.4375 -0.022136,0.0443 -0.113718,0.4206 -0.125,0.4375 -0.025841,0.0388 -0.09206,0.0296 -0.125,0.0625 -0.085898,0.0859 -0.142384,0.19971 -0.1875,0.3125 -0.023212,0.058 0.027951,0.1316 0,0.1875 -0.020004,0.04 -0.099555,0.2246 -0.125,0.25 -0.014731,0.0147 -0.041667,0 -0.0625,0 -0.020833,0.0208 -0.046157,0.038 -0.0625,0.0625 -0.1509674,0.22645 -0.2058302,0.40805 -0.4375,0.5625 -0.2468303,0.16455 -0.7168754,0.0625 -1,0.0625 -0.4570398,0 -0.9415439,0.0459 -1.375,-0.0625 -0.1937988,-0.0485 -0.3113159,0.0318 -0.5,-0.0625 -0.1471853,-0.0736 -1.00841222,0 -1.15402913,-0.17415 l 0.0959709,187.51852 11.04854323,0.13258 c 2.400901,0 5.090607,0.29002 7.424621,-0.17678 0.565546,-0.11311 1.196391,0.0816 1.767767,0 0.732066,-0.10458 1.390014,-0.36782 2.121321,-0.53033 0.402656,-0.0895 0.829103,0.0583 1.237436,0 0.166468,-0.0238 4.864738,-1.00396 4.949748,-1.06066 0.138675,-0.0924 0.195439,-0.30086 0.353553,-0.35356 0.223607,-0.0745 0.4835,0.0745 0.707107,0 0.32596,-0.10865 0.568073,-0.39498 0.883884,-0.53033 0.108322,-0.0464 0.255493,0.0654 0.353553,0 0.109627,-0.0731 0.06714,-0.28045 0.176777,-0.35355 0.09806,-0.0654 0.252497,0.0606 0.353553,0 0.214373,-0.12862 0.335113,-0.37415 0.53033,-0.53033 0.102889,-0.0823 0.260384,-0.0836 0.353554,-0.17678 0.09317,-0.0932 0.08361,-0.26035 0.176776,-0.35355 0.186339,-0.18634 0.487843,-0.20738 0.707107,-0.35355 0.203973,-0.13598 0.326357,-0.39435 0.53033,-0.53033 0.622977,-0.41532 1.052632,-0.6117 1.767767,-1.23744 0.950844,-0.83199 -0.434042,0.25727 0.883884,-1.06066 0.04167,-0.0417 0.129636,0.0354 0.176776,0 0.368179,-0.27613 0.707107,-0.58925 1.06066,-0.88388 0.192056,-0.16005 0.315957,-0.40171 0.53033,-0.53033 0.101057,-0.0606 0.248145,0.0527 0.353554,0 0.356206,-0.17811 0.738616,-0.64235 1.06066,-0.88389 0.841111,-0.63083 1.822365,-1.10434 2.65165,-1.76776 0.195218,-0.15618 0.322318,-0.39166 0.530331,-0.53033 0.225904,-0.15061 0.708019,-0.22166 0.883883,-0.35356 0.693553,-0.52016 0.818124,-0.67422 1.59099,-1.06066 0.447213,-0.2236 0.820634,-0.78279 1.237437,-1.06066 0.155044,-0.10337 0.4673,0.25748 0.53033,-0.17677 0.04167,-0.0417 -0.02635,-0.12408 0,-0.17678 0.118384,-0.23677 0.421724,-0.24495 0.53033,-0.35355 0.04167,-0.0417 -0.03269,-0.12778 0,-0.17678 0.271447,-0.40717 0.766734,-0.66876 1.06066,-1.06066 0.178383,-0.23784 0.708228,-1.1057 0.883884,-1.23744 0.149071,-0.11177 0.381259,-0.065 0.53033,-0.17677 0.105407,-0.0791 0.103687,-0.24393 0.176777,-0.35356 0.270747,-0.40615 0.100974,0.0758 0.53033,-0.35355 0.297819,-0.29782 0.45792,-0.84768 0.883883,-1.06066 1.609476,-0.80474 -0.227686,0.40446 0.707107,-0.53033 0.199706,-0.19971 0.925435,-0.29633 1.237437,-0.53033 0.133333,-0.1 0.204482,-0.27905 0.353553,-0.35355 0.10541,-0.0527 0.24175,0.0373 0.353554,0 0.201556,-0.0672 0.353553,-0.23571 0.53033,-0.35356 0.261523,-0.17435 0.42724,-0.56717 0.707107,-0.7071 0.166666,-0.0834 0.44131,0.21269 0.53033,-0.17678 0.520593,-0.39045 0.877845,-0.96925 1.414213,-1.23744 0.204769,-0.10238 0.508741,-0.0776 0.707107,-0.17678 0.735702,-0.36785 -0.188981,0.0122 0.176777,-0.35355 0.504224,-0.50422 1.216247,-0.95461 1.767767,-1.41421 0.128036,-0.1067 0.261103,-0.21488 0.353553,-0.35356 0.03269,-0.049 -0.0559,-0.15817 0,-0.17677 0.167705,-0.0559 0.372216,0.079 0.53033,0 0.117847,-0.0589 0.08361,-0.26036 0.176777,-0.35356 0.20104,-0.20104 1.285384,-0.44443 1.414213,-0.53033 0.138675,-0.0925 0.204483,-0.27905 0.353554,-0.35355 0.346938,-0.17378 0.860634,-0.0826 1.237437,-0.17678 0.32812,-0.082 0.746406,-0.2488 1.06066,-0.35355 2.069789,-0.68993 4.235524,-1.41243 6.363961,-1.94454 0.454459,-0.11358 0.954634,-0.0849 1.414213,-0.17678 0.129203,-0.0258 0.235703,-0.11788 0.353554,-0.17678 0,-0.0589 -0.0559,-0.15817 0,-0.17677 0.167705,-0.0559 0.353553,0 0.53033,0 0.117851,0 0.24175,0.0373 0.353553,0 0.201557,-0.0672 0.210375,-0.4601 0.53033,-0.35356 0.400265,-0.13337 0.83343,-0.096 1.237437,-0.17677 0.413033,-0.0826 2.950284,-1.0332 3.358757,-1.23744 1.680831,-0.84042 -1.145415,0.20503 1.590991,-0.70711 0.07659,-0.0328 0.09696,-0.15287 0.176776,-0.17677 0.75301,-0.22591 1.552276,-0.28173 2.298097,-0.53033 0.347148,-0.11572 1.298814,-0.66475 1.590991,-0.88389 0.133333,-0.1 0.204482,-0.27905 0.353553,-0.35355 0.105409,-0.0527 0.239221,0.0286 0.353553,0 0.231688,-0.0579 0.872335,-0.43613 1.060661,-0.53033 0.720233,-0.36012 1.251603,-0.99845 1.944543,-1.41421 0.3826,-0.22956 1.514028,-0.79779 1.944544,-0.88389 0.173344,-0.0347 0.362625,0.0559 0.53033,0 0.499148,-0.16638 0.865653,-0.3736 1.414213,-0.53033 0.970259,-0.27721 2.250752,0.28542 3.181981,0.17678 0.471404,0 -0.05893,-0.0589 0.176777,0.17678 0.0181,0.0181 0.674176,0.15487 0.707106,0.17677 0.475848,0.31723 0.870323,0.82757 1.414214,1.06066 0.162483,0.0696 0.366197,-0.0657 0.53033,0 0.154746,0.0619 0.217931,0.25666 0.353553,0.35356 0.279593,0.19971 0.585562,0.35986 0.883888,0.53033 0.47762,0.27292 1.42815,0.44891 1.94454,0.7071 0.38006,0.19003 0.69173,0.49629 1.06066,0.70711 0.48544,0.27739 1.22171,0.47308 1.76777,0.70711 1.79442,0.769 -0.0726,-0.0484 1.06066,0.7071 0.31008,0.20673 0.72732,0.18689 1.06066,0.35356 0.0745,0.0373 0.0978,0.15047 0.17677,0.17677 0.46098,0.15366 0.95924,0.18294 1.41422,0.35356 0.0552,0.0207 -0.0417,0.13507 0,0.17677 0.15751,0.15752 1.03115,0.79549 1.23743,0.88389 0.563,0.24128 1.04181,0.21625 1.59099,0.35355 0.33334,0.0833 0.55793,0.42168 0.88389,0.53033 0.27951,0.0932 0.59326,-0.0484 0.88388,0 0.59243,0.0987 1.03504,0.52179 1.59099,0.70711 0.26517,0.0884 0.61872,-0.0884 0.88389,0 0.0559,0.0186 -0.049,0.14407 0,0.17677 0.45285,0.30196 1.09302,0.25396 1.59099,0.35356 0.46351,0.0927 0.79905,0.42073 1.23743,0.53033 0.47311,0.11827 0.91259,0.22814 1.41422,0.35355 0.40016,0.10004 0.82495,0 1.23743,0 h 4.24264 c 1.79291,0 3.70553,0.19717 5.48008,0 0.44054,-0.0489 0.97368,-0.30465 1.41421,-0.35355 0.46853,-0.0521 0.94645,0.0585 1.41422,0 0.24108,-0.0301 0.4714,-0.11788 0.7071,-0.17678 0.11786,-0.0589 0.22312,-0.15818 0.35356,-0.17678 0.29166,-0.0417 0.59106,0.0325 0.88388,0 0.24147,-0.0268 0.47141,-0.11787 0.70711,-0.17677 0.0589,-0.0589 0.0951,-0.16048 0.17678,-0.17678 0.34668,-0.0693 0.71766,0.0858 1.06066,0 0.65688,-0.16422 1.16739,-0.62658 1.76776,-0.88388 0.22331,-0.0957 0.47141,-0.11788 0.70711,-0.17678 0.0589,0 0.12088,0.0186 0.17678,0 0.34851,-0.11617 0.69977,-0.47013 1.06066,-0.53033 0.23249,-0.0387 0.47844,0.0572 0.7071,0 1.27234,-0.31807 0.18538,-0.31258 1.23744,-0.70711 0.85995,-0.32248 1.76174,-0.33257 2.65165,-0.53033 0.28761,-0.0639 0.43355,-0.4209 0.70711,-0.53033 0.10942,-0.0438 0.23922,0.0286 0.35355,0 0.25566,-0.0639 0.45145,-0.28965 0.70711,-0.35355 0.1715,-0.0429 0.37221,0.0791 0.53033,0 0.32244,-0.16122 0.68329,-0.43603 1.06066,-0.53033 0.11433,-0.0286 0.24814,0.0527 0.35355,0 0.14907,-0.0745 0.22022,-0.25355 0.35355,-0.35355 0.53023,-0.39767 1.37481,-0.59902 1.94455,-0.88389 0.27075,-0.13537 0.13824,-0.31502 0.35355,-0.53033 0.0417,-0.0417 0.12408,0.0264 0.17678,0 0.33747,-0.16873 0.55629,-0.51991 0.88388,-0.7071 0.6764,-0.38652 2.08713,-0.73563 2.82843,-0.88389 0.54672,-0.10934 1.38883,0 1.94454,0 1.53162,0 3.09845,-0.12277 4.5962,0.17678 0.39661,0.0793 0.84082,-0.0793 1.23743,0 1.06692,0.21338 2.12867,0.44378 3.18198,0.70711 0.21904,0.0548 0.49412,-0.071 0.70711,0 0.53922,0.17974 1.05177,0.17381 1.59099,0.35355 0.90557,0.30186 2.07497,-0.23256 3.0052,0 0.48899,0.12225 1.14162,0.1738 1.59099,0.35355 0.0774,0.0309 0.0951,0.16048 0.17678,0.17678 0.35345,0.0707 1.9643,0.01 2.2981,0.17678 0.69526,0.34762 0.3201,0.38222 1.06066,0.53033 1.19267,0.23857 2.5131,-0.0631 3.71231,0.17677 0.36544,0.0731 0.6045,0.53636 1.06066,0.35356 0.6435,0.0919 1.90477,0.14252 2.47487,0 0.79152,-0.19788 1.74014,-0.33974 2.47488,-0.70711 0.49747,-0.24874 1.21675,-1.7264 1.41421,-2.12132 0.36785,-0.7357 -0.0122,0.18898 0.35355,-0.17678 0.0932,-0.0932 0.11788,-0.2357 0.17678,-0.35355 0,-0.0589 -0.0327,-0.12778 0,-0.17678 0.1849,-0.27735 0.53561,-0.42127 0.70711,-0.7071 0.0959,-0.15979 0.0809,-0.37055 0.17677,-0.53033 0.18049,-0.30082 0.88218,-1.05981 1.23744,-1.23744 0.43543,-0.21768 -0.15958,0.51313 0.53033,-0.17678 0.0417,-0.0417 -0.0417,-0.13507 0,-0.17677 0.27097,-0.27098 0.89614,-0.71324 1.23744,-0.88389 0.16666,-0.0834 0.3787,-0.0685 0.53033,-0.17677 0.27124,-0.19375 0.45103,-0.49372 0.7071,-0.70711 0.7382,-0.61517 2.32596,-1.60771 3.18198,-2.12132 0.15979,-0.0959 0.37529,-0.0734 0.53033,-0.17678 0.049,-0.0327 -0.0354,-0.12958 0,-0.17678 0.15,-0.2 0.33512,-0.37415 0.53033,-0.53033 0.99773,-0.79817 1.83684,-1.82532 2.82843,-2.65165 0.10122,-0.0844 0.26036,-0.0836 0.35356,-0.17677 0.15023,-0.15023 0.21754,-0.36712 0.35355,-0.53033 0.16004,-0.19206 0.4017,-0.31596 0.53033,-0.53033 0.0606,-0.10106 -0.0373,-0.24175 0,-0.35356 0.0921,-0.27628 0.59085,-0.41407 0.70711,-0.53033 0.20207,-0.20209 0.0629,-0.79848 0.17677,-0.88388 0.65144,-0.48858 1.53852,-0.83141 2.12132,-1.41421 0.25928,-0.25928 0.77328,-1.24831 0.88389,-1.41422 0.13867,-0.20801 0.38033,-0.33033 0.53033,-0.53033 0.26925,-0.35901 0.2814,-0.86404 0.53033,-1.23743 0.13128,-0.19692 0.72476,-0.42426 0.88388,-0.53033 0.20801,-0.13868 0.30672,-0.41853 0.53033,-0.53033 0.36045,-0.18023 0.84317,-0.43173 1.23744,-0.53033 0.11433,-0.0286 0.24175,0.0373 0.35355,0 0.25,-0.0833 0.45711,-0.27026 0.70711,-0.35356 0.62638,-0.20879 1.51664,-0.11168 2.12132,-0.35355 0.17849,-0.0714 0.62649,-0.47883 0.88388,-0.53033 0.26058,-0.0521 0.79063,0.09 1.06066,0 0.10788,-0.036 0.42245,-0.31755 0.53033,-0.35355 0.16771,-0.0559 0.36036,0.0486 0.53033,0 0.64885,-0.18539 1.29589,-0.57738 1.94454,-0.70711 0.95536,-0.19107 0.37588,0.0772 1.23744,-0.35355 0.42544,-0.21273 1.97449,0 2.2981,0 h 5.65685 c 0.68175,0 1.62581,0.16807 2.2981,0 0.30785,-0.077 0.52889,-0.39416 0.88388,-0.35356 0.17335,-0.0347 0.37222,0.0791 0.53033,0 0.61108,-0.30554 1.09341,-0.65909 1.76777,-0.88388 0.1118,-0.0373 0.24175,0.0373 0.35355,0 0.41883,-0.13961 1.02996,-0.36565 1.41422,-0.53033 0.19528,-0.0837 0.35355,-0.2357 0.53033,-0.35355 0.0589,-0.0589 0.10227,-0.13948 0.17677,-0.17678 0.16667,-0.0834 0.36367,-0.0935 0.53033,-0.17678 0.22361,-0.1118 0.32232,-0.39165 0.53033,-0.53033 0.19609,-0.13072 0.67538,0.10425 0.88389,0 0.30145,-0.15072 0.61242,-0.50351 0.88388,-0.7071 0.4585,-0.34388 1.6109,-0.62868 2.12132,-0.88389 0.14907,-0.0745 0.20448,-0.27905 0.35355,-0.35355 0.40051,-0.20028 1.27151,0.0362 1.591,-0.17678 0.13867,-0.0924 0.20448,-0.27905 0.35355,-0.35355 0.36006,-0.17978 1.0376,-0.12298 1.41421,-0.17678 0.47303,-0.0676 0.80295,-0.3855 1.23744,-0.53033 0.26456,-0.0882 0.6128,0.0678 0.88388,0 1.33952,-0.33489 -1.57542,-0.17678 1.41422,-0.17678 0.0825,-0.0118 0.0978,-0.15047 0.17677,-0.17677 0.27951,-0.0932 0.59498,0.0578 0.88389,0 1.599,-0.31976 -0.48017,-0.0167 0.53033,-0.35356 0.42353,-0.14117 0.28357,0.14118 0.7071,0 0.36834,-0.12277 0.8131,-0.42424 1.23744,-0.53033 0.45175,-0.11297 0.97173,0.0445 1.41421,-0.17677 0.14907,-0.0745 0.21488,-0.26116 0.35356,-0.35356 0.24194,-0.16129 0.68179,-0.21882 0.88388,-0.35355 0.80346,-0.53564 0.55151,-0.53335 1.76777,-0.70711 0.27339,-0.039 2.29766,-0.0886 2.47487,0 0.0745,0.0373 0.0951,0.16048 0.17678,0.17678 0.55904,0.11181 1.2149,-0.13821 1.76776,0 0.58814,0.14704 0.50264,0.40786 1.23744,0.53033 0.2454,0.0409 0.64829,-0.0785 0.88389,0 0.15811,0.0527 0.20448,0.27905 0.35355,0.35355 0.15811,0.0791 0.35883,-0.0429 0.53033,0 0.29354,0.0734 0.46711,0.27356 0.70711,0.35356 0.30817,0.10272 0.91696,0 1.23743,0 0.82496,0 1.65013,0.0187 2.47488,0 1.82717,-0.0415 3.65338,-0.11788 6.42007,-0.28035 0.64834,-1.85356 0.2723,-3.59157 0.065,-5.35356 z"
         id="path29" />
    </g>
  </g>
</svg>
