<?xml version="1.0" encoding="UTF-8" standalone="no"?>
<!-- Created with Inkscape (http://www.inkscape.org/) -->

<svg
   version="1.1"
   id="svg1"
   width="308.16599"
   height="222.32733"
   viewBox="0 0 308.16599 222.32733"
   xmlns="http://www.w3.org/2000/svg"
   xmlns:svg="http://www.w3.org/2000/svg">
  <defs
     id="defs1" />
  <g
     id="layer1"
     style="display:inline"
     transform="translate(0,-439.42267)">
    <g
       id="layer48"
       style="display:inline;fill:#ffffff;fill-opacity:1;stroke:none">
      <path
         style="fill:#ffffff;fill-opacity:1;stroke:none;stroke-linecap:round"
         d="m 0.015625,474.46875 4.90625,0.0625 2.421875,-3.0625 0.046875,-2.875 2.578125,-0.42187 1.96875,-2.84375 6.137917,-15.43144 5.303301,-4.552 h 8.308505 l 3.137786,4.94975 0.08839,4.15425 4.198447,5.25911 28.240077,7.73398 5.745243,3.97747 15.423766,3.71231 14.672468,5.03814 6.49654,-3.57973 3.44715,-0.17678 7.73398,3.8007 h 5.70104 l 51.70719,-17.45669 7.95495,-4.33103 2.69584,-0.70711 5.03814,-7.6014 3.66812,-0.17678 3.93328,-4.02167 19.93157,-4.28683 76.54431,-2.20971 -1.10486,20.24093 8.3527,11.57888 2.87262,13.43503 -25.94198,7.11526 -11.26951,12.81631 -5.87782,5.2591 -2.47488,9.72272 3.09359,13.78859 2.2981,3.0052 1.23744,3.7565 -2.56326,5.25911 -3.22618,4.72878 -3.40295,11.44629 1.45841,2.96101 1.14905,10.42982 5.34749,4.5962 6.0546,8.70625 0.17678,7.24784 -11.31371,-0.26516 -4.86136,-1.76777 -14.27472,3.71231 -8.92722,3.75651 -22.40645,3.57973 -15.33537,12.81631 -8.26431,10.20885 -15.82152,-0.39775 -10.42982,-2.91681 -7.15946,1.72357 -17.81025,7.29204 -17.76606,0.0884 -7.91076,-4.552 L 97.138796,623.624 58.910836,636.61709 47.625,647.875 34.75,657 9.625,661.75 H 0 Z"
         id="path46" />
    </g>
  </g>
</svg>
