<?xml version="1.0" encoding="UTF-8" standalone="no"?>
<!-- Created with Inkscape (http://www.inkscape.org/) -->

<svg
   version="1.1"
   id="svg1"
   width="247.53159"
   height="143.80785"
   viewBox="0 0 247.53159 143.80785"
   xmlns="http://www.w3.org/2000/svg"
   xmlns:svg="http://www.w3.org/2000/svg">
  <defs
     id="defs1" />
  <g
     id="layer1"
     style="display:inline"
     transform="translate(-838.62862,-636.74963)">
    <g
       id="layer50"
       style="display:inline;fill:#ffffff;fill-opacity:1;stroke:none">
      <path
         style="fill:#ffffff;fill-opacity:1;stroke:none;stroke-linecap:round"
         d="m 864.12866,681.47414 -2.34229,11.4021 -3.88909,6.31977 -6.71751,2.78423 -7.33624,4.86136 -0.97227,2.38648 -4.24264,4.72878 v 13.03728 l 2.34229,9.8995 12.99309,0.7513 11.00435,-3.18198 12.99309,0.13258 5.56846,2.12132 5.03814,4.64039 1.72357,3.22617 3.88909,1.37002 23.64388,1.94455 7.73398,3.53553 10.03208,10.6066 15.55635,-0.48614 2.16551,-1.81196 4.99394,-0.0442 1.85616,-1.19324 13.87697,-1.01647 12.06501,6.98268 9.59013,7.64559 4.15425,6.98268 8.44114,1.45841 10.6507,-2.60746 19.5781,-10.82757 12.5953,-1.14905 13.3908,7.6014 4.3311,-0.26517 2.6516,2.07713 4.8614,-3.71231 4.2426,-5.12652 5.5685,-12.63954 -5.5685,-11.75565 -5.7894,-3.88908 2.1213,-13.12567 -4.1101,-6.67332 -0.7071,-4.64039 -4.8613,-2.69585 1.0164,-8.70625 2.1656,-2.43068 0.2209,-1.5026 -1.0606,-0.48614 -4.4194,0.88389 -4.7288,-0.61872 -10.2089,-6.23138 -6.4081,-14.18633 -0.3978,-5.92202 -1.2816,-5.56846 1.5026,-5.17072 2.5633,-3.66812 -1.9888,-6.0546 4.552,-11.44629 -0.088,-3.27037 -18.2522,0.17678 -14.9818,7.42462 -7.9549,0.57452 -21.87616,24.96971 -12.72792,-0.44194 -12.86051,-2.38649 -15.07021,6.14299 -0.48613,2.47488 -2.78424,2.07712 -9.45755,1.94455 -17.27992,-2.82843 -6.89429,1.85615 -14.4515,11.53468 -6.0546,0.0884 -3.49134,-4.72877 -11.97662,-4.19845 z"
         id="path48" />
    </g>
  </g>
</svg>
