<?xml version="1.0" encoding="UTF-8" standalone="no"?>
<!-- Created with Inkscape (http://www.inkscape.org/) -->

<svg
   version="1.1"
   id="svg2"
   width="248.4193"
   height="143.13676"
   viewBox="0 0 248.4193 143.13676"
   xmlns="http://www.w3.org/2000/svg"
   xmlns:svg="http://www.w3.org/2000/svg">
  <defs
     id="defs6">
    <linearGradient
       id="swatch77">
      <stop
         style="stop-color:#e2c69e;stop-opacity:1;"
         offset="0"
         id="stop77" />
    </linearGradient>
  </defs>
  <g
     id="layer66"
     style="display:inline"
     transform="translate(-837.71012,-636.20795)">
    <g
       id="layer46"
       style="display:inline">
      <path
         style="display:inline;fill:#969696;fill-opacity:1;stroke:none;stroke-opacity:1"
         d="m 1071.4325,773.95047 c 0.922,1.45521 0.6723,1.53316 0.4914,2.19681 -0.2951,0.40868 0.7325,-0.46837 1.2011,-0.99103 0.025,-0.028 0.039,-0.0649 0.062,-0.0937 0.055,-0.066 0.014,0.004 0.1094,-0.0781 0.014,-0.0122 0.019,-0.0324 0.031,-0.0469 0.014,-0.017 0.034,-0.0292 0.047,-0.0469 0.018,-0.0243 0.029,-0.0538 0.047,-0.0781 0.073,-0.0971 0.1603,-0.18545 0.2343,-0.28125 0.072,-0.0867 -0.081,0.0497 0.062,-0.0937 0.013,-0.0133 0.034,-0.018 0.047,-0.0312 0.029,-0.0288 0.049,-0.065 0.078,-0.0937 0,-0.004 0.016,0.003 0.016,0 0.04,-0.0322 0.078,-0.0681 0.1093,-0.10938 0.083,-0.11113 0.1343,-0.24367 0.2344,-0.34375 0.01,-0.008 0.021,-0.007 0.031,-0.0156 0.052,-0.052 0.083,-0.12558 0.1406,-0.17188 0.058,-0.0466 0.1259,-0.0951 0.1719,-0.15625 0.018,-0.0243 0.028,-0.0544 0.047,-0.0781 0.088,-0.10957 0.1908,-0.2196 0.2969,-0.3125 0.1243,-0.1087 0.2734,-0.18635 0.4063,-0.28125 0.032,-0.0231 0.075,-0.0276 0.1093,-0.0469 0.023,-0.0126 0.038,-0.0369 0.062,-0.0469 0.03,-0.0116 0.063,-0.007 0.094,-0.0156 0.027,-0.008 0.077,-0.0399 0.1094,-0.0469 0.067,-0.0136 0.034,0.0222 0.1093,-0.0156 0.023,-0.0116 0.039,-0.0358 0.062,-0.0469 0.1469,-0.0691 0.2753,-0.082 0.4219,-0.14063 0.061,-0.0242 0.1129,-0.0664 0.1719,-0.0937 0.2169,-0.1002 0.023,-0.013 0.1719,-0.0625 0.052,-0.0178 0.012,-0.013 0.062,-0.0469 0.053,-0.0355 0.1198,-0.0571 0.1718,-0.0937 0.03,-0.0212 0.235,-0.1735 0.25,-0.1875 0.019,-0.0175 0.029,-0.0441 0.047,-0.0625 0.2901,-0.25335 -0.013,0.0283 0.2031,-0.21875 0.01,-0.009 0.021,-0.007 0.031,-0.0156 0.088,-0.0881 0.2205,-0.2269 0.3125,-0.32812 0.022,-0.0247 0.042,-0.0521 0.062,-0.0781 0.021,-0.0312 0.037,-0.0658 0.062,-0.0937 0.022,-0.0248 0.053,-0.04 0.078,-0.0625 0.078,-0.0719 0.1564,-0.14665 0.2344,-0.21875 0.054,-0.05 0.1002,-0.10835 0.1562,-0.15625 0.045,-0.0386 0.099,-0.0674 0.1407,-0.10937 0.032,-0.0317 0.046,-0.0777 0.078,-0.10938 0.034,-0.034 0.07,-0.0662 0.1094,-0.0937 0.034,-0.0241 0.077,-0.0363 0.1093,-0.0625 0.02,-0.0163 0.027,-0.0458 0.047,-0.0625 0.1205,-0.10042 0.255,-0.18122 0.375,-0.28125 0.094,-0.0785 0.1833,-0.16077 0.2813,-0.23437 0.031,-0.026 0.062,-0.0521 0.094,-0.0781 v -0.0156 c 0.019,-0.014 0.043,-0.0183 0.062,-0.0312 0.1098,-0.0732 0.2109,-0.21218 0.3125,-0.29688 0.01,-0.007 0.021,-0.007 0.031,-0.0156 0.099,-0.0985 0.164,-0.2207 0.25,-0.32813 0.026,-0.0328 0.07,-0.0584 0.094,-0.0937 0.01,-0.01 0.01,-0.0232 0.016,-0.0312 -0.01,-0.0845 0.044,-0.0173 0.062,-0.0312 0.049,-0.037 0.1229,-0.1875 0.1719,-0.1875 -0.013,-0.32324 0.065,-0.63652 0.1131,-0.95381 0.017,-0.11437 0.037,-0.22829 0.047,-0.34375 0.01,-0.17507 0,-0.35983 0.047,-0.53125 0.045,-0.16373 0.1225,-0.31288 0.1875,-0.46875 0.015,-0.035 0.014,-0.0755 0.031,-0.10938 0.022,-0.0439 0.053,-0.0825 0.078,-0.125 0.042,-0.0727 0.071,-0.15425 0.125,-0.21875 0.1344,-0.16128 0.2854,-0.32506 0.4375,-0.46875 0.038,-0.0361 0.2034,-0.17022 0.2344,-0.20312 0.048,-0.0519 0.079,-0.11808 0.125,-0.17188 0.038,-0.0447 0.086,-0.0806 0.125,-0.125 0.07,-0.08 0.098,-0.18642 0.1719,-0.26562 0.131,-0.13973 0.2799,-0.26373 0.3906,-0.42188 0.136,-0.19442 -0.026,0.023 0.078,-0.14062 0.102,-0.1603 0.069,-0.0551 0.125,-0.25 0.024,-0.0826 0.052,-0.1644 0.062,-0.25 0,-0.0519 -0.01,-0.10485 0,-0.15625 0.011,-0.0685 0.047,-0.13383 0.047,-0.20313 0.01,-0.11224 0,-0.23061 0,-0.34375 v -0.64062 -1.84375 -0.54688 c 0,-0.0725 0.022,-0.1832 0,-0.25 -0.01,-0.0278 -0.037,-0.0613 -0.047,-0.0937 -0.01,-0.0521 -0.016,-0.10175 -0.016,-0.15625 0,-0.0249 0.011,-0.0721 0,-0.0937 -0.026,-0.046 -0.016,0.0243 -0.016,-0.0469 0.01,-0.0115 0.081,-0.1875 0.095,-0.2032 0.04,-0.0436 0.096,-0.0699 0.1406,-0.10937 0.2792,-0.24775 -0.01,-0.0397 0.3282,-0.28125 0.082,-0.0588 0.166,-0.11578 0.25,-0.17188 0.025,-0.0168 0.055,-0.0274 0.078,-0.0469 0.4287,-0.3571 0.1838,-0.15895 0.3437,-0.3125 0.1568,-0.1505 0.3265,-0.2889 0.4688,-0.45313 0.1443,-0.1665 0.2414,-0.36249 0.3594,-0.54687 0.062,-0.0964 0.1657,-0.22268 0.2187,-0.34375 0.027,-0.062 0.052,-0.125 0.078,-0.1875 0.026,-0.0677 0.05,-0.13643 0.078,-0.20313 0.018,-0.0426 0.1352,-0.0941 0.1562,-0.125 0.021,-0.0315 0.017,-0.0742 0.031,-0.10937 0.017,-0.0432 0.04,-0.084 0.062,-0.125 0.093,-0.17375 0.1573,-0.27134 0.2343,-0.4375 0.052,-0.11968 -0.059,0.0511 0.062,-0.17188 0.011,-0.0194 0.034,-0.029 0.047,-0.0469 0.029,-0.0397 0.055,-0.0819 0.078,-0.125 0.037,-0.0699 0.031,-0.15638 0.047,-0.23438 0.048,-0.22962 0.1094,-0.45113 0.1094,-0.6875 0,-0.0526 0.014,-0.38867 0,-0.42187 -0.019,-0.0454 -0.056,-0.0811 -0.078,-0.125 -0.01,-0.0192 -0.01,-0.0439 -0.016,-0.0625 -0.078,-0.13653 -0.1353,-0.17389 -0.2343,-0.28125 -0.098,-0.10591 -0.1843,-0.22148 -0.2813,-0.32813 -0.032,-0.0355 -0.06,-0.0754 -0.094,-0.10937 -0.018,-0.0184 -0.047,-0.026 -0.062,-0.0469 -0.017,-0.0224 -0.016,-0.0543 -0.031,-0.0781 -0.012,-0.0187 -0.033,-0.0301 -0.047,-0.0469 -0.067,-0.0781 -0.1155,-0.1782 -0.1875,-0.25 -0.023,-0.0236 -0.057,-0.0369 -0.078,-0.0625 -0.01,-0.008 0.01,-0.0232 0,-0.0312 0,-0.004 -0.1152,-0.14062 -0.1562,-0.14062 -0.1298,-0.29407 -0.1328,-0.60944 -0.1548,-0.92185 0,-0.0367 -0.01,-0.0729 -0.016,-0.10937 -0.01,-0.0781 -0.016,-0.15618 -0.016,-0.23438 -0.012,-0.22859 0.011,-0.4589 0,-0.6875 0,-0.0834 -0.016,-0.1666 -0.016,-0.25 0,-0.0625 0.01,-0.1253 0,-0.1875 -0.047,-0.54946 -0.018,0.39169 -0.047,-0.34375 -0.01,-0.22609 0.024,-0.46244 0,-0.6875 -0.017,-0.16274 -0.061,-0.293 -0.125,-0.4375 -0.027,-0.0602 -0.035,-0.1277 -0.062,-0.1875 -0.08,-0.17227 -0.2096,-0.3658 -0.3438,-0.5 -0.2162,-0.2162 -0.4492,-0.39185 -0.6406,-0.64062 -0.018,-0.0241 -0.029,-0.0536 -0.047,-0.0781 -0.085,-0.1175 -0.1836,-0.2245 -0.2656,-0.34375 -0.075,-0.10909 -0.1758,-0.21443 -0.2188,-0.34375 -0.021,-0.0641 -0.023,-0.13992 -0.047,-0.20312 -0.01,-0.0176 -0.031,-0.0286 -0.031,-0.0469 -0.031,-0.13508 0,-0.27058 -0.016,-0.40625 -0.015,-0.18199 -0.047,-0.36336 -0.047,-0.54687 0.036,-0.045 -0.027,-0.10556 -0.014,-0.15626 0.022,-0.0873 0.037,-0.0869 0.047,-0.17188 0.011,-0.12254 0,-0.25188 0,-0.375 0,-0.0602 0.022,-0.2043 -0.031,-0.25 -0.028,-0.0244 -0.067,-0.0359 -0.094,-0.0625 -0.016,-0.0116 0,-0.0362 -0.016,-0.0469 -0.057,-0.0485 -0.1255,-0.0819 -0.1875,-0.125 -0.088,0.001 -0.1022,-0.0862 -0.1562,-0.125 -0.1966,-0.1406 0.022,0.0189 -0.1406,-0.0625 -0.013,-0.007 -0.019,-0.0232 -0.031,-0.0312 -0.04,-0.0282 -0.084,-0.0509 -0.125,-0.0781 -0.1355,-0.0903 -0.244,-0.2164 -0.375,-0.3125 -0.023,-0.0831 -0.1092,-0.0443 -0.1562,-0.0781 -0.048,-0.0343 -0.087,-0.0797 -0.125,-0.125 -0.01,-0.009 -0.01,-0.0232 -0.016,-0.0312 -0.013,-0.0133 -0.034,-0.018 -0.047,-0.0312 -0.02,-0.0199 -0.046,-0.0727 -0.062,-0.0937 -0.1359,-0.17466 -0.2578,-0.3565 -0.3438,-0.5625 -0.016,-0.0397 -0.016,-0.0849 -0.031,-0.125 -0.018,-0.0479 -0.045,-0.0923 -0.062,-0.14063 -0.06,-0.17108 -0.073,-0.3663 -0.1875,-0.51562 -0.027,-0.035 -0.066,-0.0595 -0.094,-0.0937 -0.031,-0.038 -0.043,-0.0903 -0.078,-0.125 -0.071,-0.071 -0.2245,-0.0718 -0.3125,-0.0937 -0.1431,-0.0358 -0.2881,-0.0731 -0.4375,-0.0781 -0.1041,-0.004 -0.2084,0.003 -0.3125,0 -0.3523,-0.011 -0.059,-0.009 -0.2813,-0.0312 -0.093,-0.009 -0.1882,0.009 -0.2812,0 -0.016,-0.002 -0.031,-0.0106 -0.047,-0.0156 -0.031,-0.005 -0.062,-0.0136 -0.094,-0.0156 -0.1807,-0.01 -0.1617,0.0156 -0.2969,-0.0156 -0.1281,-0.0295 -0.2807,-0.08 -0.3906,-0.15625 -0.3453,-0.23935 0.1988,0.0813 -0.2813,-0.21875 -0.024,-0.0149 -0.055,-0.0157 -0.078,-0.0312 -0.1665,-0.11097 -0.1703,-0.13498 -0.2969,-0.23438 -0.123,-0.0966 -0.2516,-0.18525 -0.375,-0.28125 -0.015,-0.0115 -0.031,-0.0208 -0.047,-0.0312 -0.047,-0.0312 -0.097,-0.0585 -0.1406,-0.0937 -0.01,-0.007 -0.01,-0.0208 -0.016,-0.0312 -0.026,-0.0208 -0.05,-0.0453 -0.078,-0.0625 -0.024,-0.0144 -0.055,-0.0148 -0.078,-0.0312 -0.089,-0.065 -0.1533,-0.15967 -0.2343,-0.23437 -0.1012,-0.0928 -0.2009,-0.17846 -0.2969,-0.28125 -0.171,-0.1824 0.011,5e-5 -0.094,-0.125 -0.116,-0.1392 -0.236,-0.27833 -0.3437,-0.42188 -0.025,-0.0337 -0.026,-0.0905 -0.047,-0.125 -0.02,-0.0337 -0.078,-0.0811 -0.078,-0.125 -0.042,-0.15983 0,-0.32476 -0.032,-0.48509 -0.042,-0.19158 -0.2225,-0.34162 -0.3281,-0.5 -0.041,-0.0614 -0.067,-0.13523 -0.094,-0.20313 -0.011,-0.0282 -0.037,-0.0493 -0.047,-0.0781 -0.013,-0.0804 -0.01,-0.0791 -0.031,-0.14063 -0.02,-0.0525 -0.049,-0.10185 -0.062,-0.15625 -0.028,-0.11219 -0.028,-0.22968 -0.047,-0.34375 -0.01,-0.0474 -0.021,-0.0931 -0.031,-0.14062 v -0.0781 c -0.017,-0.1307 -0.043,-0.26015 -0.062,-0.39062 -0.02,-0.14 -0.025,-0.28212 -0.047,-0.42188 -0.01,-0.0424 -0.021,-0.0825 -0.031,-0.125 -0.01,-0.0566 0,-0.11457 0,-0.17187 v -0.34375 -0.90625 -0.60938 c 0,-0.086 -0.014,-0.18202 0,-0.26562 0,-0.0163 0.016,-0.0305 0.016,-0.0469 0.01,-0.0965 -0.014,-0.20067 0,-0.29687 0.01,-0.0489 0.031,-0.0937 0.047,-0.14063 0.017,-0.0516 0.019,-0.10965 0.047,-0.15625 0.1401,-0.23351 0.3012,-0.45276 0.4843,-0.65625 0.095,-0.10519 0.2054,-0.20507 0.3125,-0.29687 0.014,-0.0122 0.035,-0.017 0.047,-0.0312 0.02,-0.0231 0.03,-0.0529 0.047,-0.0781 0.02,-0.0306 0.053,-0.0507 0.078,-0.0781 0.072,-0.0799 0.1345,-0.17263 0.1875,-0.26563 0.01,-0.0177 0.1094,-0.14927 0.1094,-0.17187 0.2631,0.0455 0.017,-0.091 0.045,-0.12513 0.024,-0.0283 0.055,-0.0496 0.078,-0.0781 0.039,-0.048 0.069,-0.10875 0.1094,-0.15625 0.064,-0.0745 0.1507,-0.1191 0.2187,-0.1875 0.1253,-0.12529 0.2419,-0.28184 0.2969,-0.45312 0.138,-0.43137 0.2316,-0.89157 0.2656,-1.34375 0.01,-0.12415 0,-0.25052 0,-0.375 0.016,-0.43497 0.034,-0.87706 0.016,-1.3125 0,-0.0627 -0.016,-0.1248 -0.016,-0.1875 -0.014,-0.37434 0.018,-0.75085 0,-1.125 -0.01,-0.1438 -0.04,-0.28028 -0.062,-0.42188 -0.041,-0.2626 -0.067,-0.53779 -0.2187,-0.76562 -0.09,-0.13442 -0.2034,-0.24185 -0.3125,-0.35938 -0.053,-0.0567 -0.1003,-0.11887 -0.1563,-0.17187 -0.027,-0.0257 -0.063,-0.0402 -0.094,-0.0625 -0.1564,-0.11524 -0.3143,-0.22792 -0.4688,-0.34375 -0.021,-0.0771 -0.096,-0.0484 -0.1406,-0.0781 -0.055,-0.037 -0.1053,-0.0816 -0.1563,-0.125 -0.075,-0.0646 -0.1188,-0.15267 -0.1718,-0.23437 -0.084,-0.13009 -0.185,-0.26382 -0.25,-0.40625 -0.014,-0.03 -0.016,-0.0643 -0.031,-0.0937 -0.012,-0.0233 -0.035,-0.0392 -0.047,-0.0625 -0.055,-0.11033 -0.078,-0.24616 -0.125,-0.35938 -0.026,-0.0634 -0.057,-0.14202 -0.094,-0.20312 -0.02,-0.0324 -0.061,-0.0593 -0.078,-0.0937 -0.032,-0.0645 0,-0.0331 -0.016,-0.10938 0,-0.0115 -0.016,-0.0197 -0.016,-0.0312 -0.013,-0.10589 0,-0.22061 0,-0.32812 -0.05,-0.10628 -0.03,-0.21519 -0.03,-0.32834 0,-0.0626 -0.016,-0.1249 -0.016,-0.1875 v -0.0625 c -0.047,-0.21789 -0.099,-0.37655 -0.1562,-0.57812 -0.01,-0.0255 -0.01,-0.0532 -0.016,-0.0781 -0.012,-0.0328 -0.031,-0.0625 -0.047,-0.0937 -0.016,-0.0365 -0.034,-0.072 -0.047,-0.10937 -0.035,-0.0978 -0.024,-0.12645 -0.078,-0.21875 -0.032,-0.0548 -0.075,-0.10275 -0.1094,-0.15625 -0.013,-0.0196 -0.017,-0.044 -0.031,-0.0625 -0.099,-0.1281 -0.2234,-0.23712 -0.3282,-0.35938 -0.094,-0.10937 -0.1902,-0.21663 -0.2812,-0.32812 -0.063,-0.0181 -0.047,-0.0866 -0.078,-0.125 -0.035,-0.0432 -0.078,-0.0798 -0.1094,-0.125 -0.079,-0.11242 -0.1331,-0.24077 -0.2031,-0.35938 -0.067,-0.11342 -0.1405,-0.23523 -0.1875,-0.35937 -0.083,-0.2222 -0.093,-0.47151 -0.125,-0.70313 -0.01,-0.0577 -0.021,-0.11417 -0.031,-0.17187 -0.012,-0.0929 0,-0.18755 0,-0.28125 0,-0.17604 0.01,-0.35541 0,-0.53125 -0.01,-0.19833 -0.037,-0.39548 -0.047,-0.59375 -0.01,-0.18264 -0.016,-0.36477 -0.031,-0.54688 -0.021,-0.26363 0.051,-0.65982 -0.031,-0.90625 0.025,-0.0657 0.055,-0.11728 0.015,-0.18758 -0.07,-0.12475 -0.274,-0.3208 -0.375,-0.42187 -0.1409,-0.14091 -0.2715,-0.29295 -0.4219,-0.42188 -0.055,-0.0471 -0.1265,-0.071 -0.1875,-0.10937 -0.1004,-0.0627 -0.1999,-0.13833 -0.2969,-0.20313 -0.1218,-0.0812 -0.2638,-0.1787 -0.3906,-0.25 -0.081,-0.0457 -0.171,-0.0745 -0.25,-0.125 -0.028,-0.0179 -0.048,-0.0476 -0.078,-0.0625 -0.075,-0.0376 -0.1614,-0.052 -0.2344,-0.0937 -0.075,-0.0429 -0.1554,-0.10672 -0.2344,-0.14062 -0.01,-0.004 -0.021,0 -0.031,0 -0.037,-0.0156 -0.073,-0.0305 -0.1094,-0.0469 -0.038,-0.0174 -0.071,-0.046 -0.1094,-0.0625 -0.056,-0.0242 -0.081,-0.009 -0.1406,-0.0312 -0.125,-0.0464 0.05,-0.0249 -0.125,-0.0625 -0.1155,-0.0247 -0.1993,-0.0248 -0.3125,-0.0625 -0.051,-0.017 -0.092,-0.0559 -0.1406,-0.0781 -0.015,-0.007 -0.034,-0.005 -0.047,-0.0156 -0.057,-0.046 -0.099,-0.11025 -0.1563,-0.15625 -0.064,-0.0514 -0.1411,-0.0859 -0.2031,-0.14062 -0.019,-0.0173 -0.027,-0.0453 -0.047,-0.0625 -0.023,-0.02 -0.056,-0.0263 -0.078,-0.0469 -0.076,-0.0857 -0.1484,-0.1731 -0.2344,-0.25 -0.073,-0.0658 -0.1457,-0.13632 -0.2187,-0.20312 -0.033,-0.0302 -0.1066,-0.0831 -0.1406,-0.125 -0.028,-0.035 -0.051,-0.074 -0.078,-0.10938 -0.062,-0.0796 -0.1345,-0.14637 -0.1875,-0.23437 -0.053,-0.0886 -0.067,-0.2875 -0.078,-0.39063 -0.014,-0.12466 -0.052,-0.25171 -0.062,-0.375 v -0.14062 c -0.01,-0.1513 -0.015,-0.062 -0.031,-0.1875 -0.01,-0.0672 0,-0.13543 0,-0.20313 v -0.42187 c 0,-0.0845 0.01,-0.19645 0,-0.28125 -0.01,-0.0792 -0.037,-0.15498 -0.047,-0.23438 -0.02,-0.2211 0,-0.47772 0,-0.70312 0,-0.46357 -7e-4,-0.92716 -7e-4,-1.39074 0,-0.25655 -0.026,-0.49512 0.094,-0.73437 0.079,-0.15849 0.1969,-0.27611 0.3125,-0.40625 0.044,-0.0498 0.076,-0.11135 0.125,-0.15625 0.128,-0.11632 0.2891,-0.20184 0.4219,-0.3125 0.2069,-0.17253 0.029,-0.0398 0.1719,-0.20313 0.049,-0.0554 0.1102,-0.0987 0.1562,-0.15625 0.038,-0.0474 0.059,-0.10635 0.094,-0.15625 0.013,-0.0182 0.033,-0.0296 0.047,-0.0469 0.1645,-0.20561 0.3285,-0.4093 0.5,-0.60938 0.071,-0.0832 0.1441,-0.17292 0.2031,-0.26562 0.023,-0.0354 0.038,-0.075 0.062,-0.10938 0.013,-0.0181 0.034,-0.0292 0.047,-0.0469 0.04,-0.0249 0.038,-0.0752 0.062,-0.10938 0.056,-0.0787 0.1285,-0.14345 0.1875,-0.21875 0.03,-0.0388 0.049,-0.085 0.078,-0.125 0.039,-0.0543 0.088,-0.10075 0.125,-0.15625 0.019,-0.0291 0.031,-0.0625 0.047,-0.0937 0.021,-0.0312 0.041,-0.063 0.062,-0.0937 0.034,-0.0487 0.077,-0.0907 0.1093,-0.14062 0.1226,-0.19063 0.174,-0.40011 0.25,-0.60938 0.01,-0.0219 0.021,-0.0417 0.031,-0.0625 0.01,-0.026 0.021,-0.0515 0.031,-0.0781 0.017,-0.0516 0.025,-0.10655 0.047,-0.15625 0.022,-0.049 0.056,-0.0916 0.078,-0.14063 0.013,-0.0301 0.018,-0.0638 0.031,-0.0937 0.1099,-0.24169 0.3384,-0.39177 0.5,-0.59375 0.028,-0.0347 0.031,-0.0833 0.047,-0.125 0.028,-0.0749 0.068,-0.15297 0.078,-0.23437 0.015,-0.16896 0,-0.34598 0,-0.51563 0,-0.10653 0.022,-0.23172 -0.031,-0.32812 -0.013,-0.0228 -0.033,-0.0404 -0.047,-0.0625 -0.012,-0.0198 -0.017,-0.0441 -0.031,-0.0625 -0.023,-0.0291 -0.057,-0.0482 -0.078,-0.0781 -0.01,-0.008 0.01,-0.0222 0,-0.0312 -0.022,-0.0345 -0.053,-0.062 -0.078,-0.0937 -0.078,-0.0979 -0.1594,-0.1967 -0.2344,-0.29687 -0.038,-0.0509 -0.069,-0.10705 -0.1094,-0.15625 -0.01,-0.009 -0.021,-0.0106 -0.031,-0.0156 -0.031,-0.0365 -0.066,-0.0705 -0.094,-0.10937 -0.042,-0.0571 -0.062,-0.122 -0.078,-0.1875 -0.011,-0.0427 -0.022,-0.0251 -0.047,-0.0625 -0.014,-0.021 -0.047,-0.19425 -0.047,-0.21875 -0.064,-0.008 0.013,-0.28342 -0.014,-0.34402 -0.1113,-0.25048 -0.5565,-0.16188 -0.7656,-0.17188 -0.3436,-0.0164 -0.7056,-0.0725 -1.0469,-0.0156 -0.043,-0.0304 -0.04,0.0252 -0.062,0.0312 -0.015,0.004 -0.032,-0.006 -0.047,0 -0.038,0.015 -0.053,0.0688 -0.078,0.0937 -0.042,0.0418 -0.047,0.0161 -0.078,0.0625 -0.013,0.0194 -0.018,0.0431 -0.031,0.0625 -0.066,0.099 -0.1746,0.20545 -0.2656,0.28125 -0.2244,0.18705 -0.516,0.34145 -0.7812,0.45312 -0.014,0.006 -0.033,-0.007 -0.047,0 -0.3649,0.18245 0.127,-0.0238 -0.2031,0.15625 -0.023,0.0126 -0.054,0.004 -0.078,0.0156 -0.02,0.01 -0.1256,0.1058 -0.1406,0.125 -0.01,0.009 -0.01,0.0232 -0.016,0.0312 -0.082,0.0817 -0.064,0.0402 -0.1406,0.10937 -0.208,0.18904 -0.3141,0.32405 -0.5938,0.40625 -0.081,0.0239 -0.1836,0.0617 -0.2656,0.0781 -0.1413,0.0283 -0.2946,0.0156 -0.4375,0.0156 -0.091,0 -0.1903,0.0114 -0.2813,0 -0.1147,-0.0143 -0.2299,-0.0262 -0.3437,-0.0469 -0.012,-0.002 -0.02,-0.0147 -0.031,-0.0156 -0.2573,-0.0198 -0.5513,0 -0.8125,0 h -1.625 c -0.1676,0.007 -0.3354,0.0139 -0.5014,0.0471 -0.037,0.007 -0.072,0.0252 -0.1093,0.0312 -0.1195,0.0199 -0.2839,0 -0.4063,0 -0.088,0 -0.2381,0.0181 -0.3281,0 -0.048,-0.01 -0.094,-0.0915 -0.1094,-0.10938 -0.017,-0.0196 -0.048,-0.0252 -0.062,-0.0469 -0.046,-0.0684 -0.09,-0.20705 -0.125,-0.28125 -0.058,-0.12199 -0.1155,-0.2448 -0.1875,-0.35938 -0.028,-0.0442 -0.066,-0.0811 -0.094,-0.125 -0.01,-0.0139 -0.01,-0.0327 -0.016,-0.0469 -0.048,-0.0795 -0.1271,-0.1928 -0.2031,-0.25 -0.013,-0.01 -0.035,-0.005 -0.047,-0.0156 -0.041,-0.037 -0.07,-0.0859 -0.1093,-0.125 -0.071,-0.0711 -0.1787,-0.15222 -0.2657,-0.20312 -0.1259,-0.0735 -0.2611,-0.13833 -0.3906,-0.20313 -0.017,-0.008 -0.029,-0.0252 -0.047,-0.0312 -0.03,-0.01 -0.063,0.008 -0.094,0 -0.059,-0.0148 -0.1149,-0.0417 -0.1719,-0.0625 -0.089,-0.0323 -0.1882,-0.0794 -0.2812,-0.0937 -0.036,-0.006 -0.073,0.005 -0.1094,0 -0.015,-0.002 -0.1881,-0.0449 -0.2031,-0.0469 -0.236,-0.0337 -0.4693,-0.0509 -0.7032,-0.10938 -0.059,-0.0148 -0.1128,-0.0454 -0.1718,-0.0625 -0.067,-0.0195 -0.1362,-0.0274 -0.2032,-0.0469 -0.151,-0.044 -0.3055,-0.10095 -0.4531,-0.15625 -0.059,-0.0223 -0.092,-0.0733 -0.1406,-0.10938 -0.024,-0.0182 -0.054,-0.0282 -0.078,-0.0469 -0.023,-0.0181 -0.042,-0.0417 -0.062,-0.0625 -0.026,-0.0208 -0.051,-0.0428 -0.078,-0.0625 -0.051,-0.0376 -0.1062,-0.0702 -0.1562,-0.10938 -0.2528,-0.19781 -0.1792,-0.15245 -0.4063,-0.40625 -0.1618,-0.1817 0.072,0.12993 -0.1718,-0.25 -0.01,-0.0124 -0.031,-0.017 -0.031,-0.0312 -0.016,-0.0455 -0.01,-0.0941 -0.016,-0.14062 -0.029,-0.1727 -0.1706,-0.30613 -0.2656,-0.45313 -0.1545,-0.2395 -0.023,-0.0352 -0.1875,-0.1875 -0.088,-0.0247 -0.09,-0.11777 -0.1407,-0.17187 -0.051,-0.0545 -0.1453,-0.16955 -0.2343,-0.21875 -0.031,-0.017 -0.067,-0.025 -0.094,-0.0469 -0.026,-0.0208 -0.037,-0.0566 -0.062,-0.0781 -0.043,-0.0364 -0.094,-0.0614 -0.1406,-0.0937 -0.091,-0.0639 -0.1736,-0.13973 -0.2656,-0.20313 -0.074,-0.0511 -0.3304,-0.1716 -0.3594,-0.1875 -0.1843,-0.10053 -0.3303,-0.24395 -0.5156,-0.34375 -0.1029,-0.0554 -0.2434,-0.1373 -0.3438,-0.1875 -0.029,-0.0147 -0.062,-0.0208 -0.094,-0.0312 -0.042,-0.0208 -0.084,-0.0397 -0.125,-0.0625 -0.1179,-0.0663 -0.1189,-0.0829 -0.2344,-0.14062 -0.015,-0.007 -0.034,-0.006 -0.047,-0.0156 -0.06,-0.043 -0.1099,-0.0996 -0.1719,-0.14062 -0.048,-0.0323 -0.1062,-0.0478 -0.1562,-0.0781 -0.044,-0.0272 -0.08,-0.067 -0.125,-0.0937 -0.3179,-0.19057 -0.073,-0.004 -0.2969,-0.17187 -0.081,-0.061 -0.1155,-0.1156 -0.1875,-0.1875 -0.069,-0.0693 -0.1461,-0.12223 -0.2031,-0.20313 -0.2704,-0.40552 0.01,0.005 -0.2344,-0.32812 -0.022,-0.0303 -0.038,-0.0654 -0.062,-0.0937 -0.08,-0.0918 -0.169,-0.17453 -0.25,-0.26563 -0.1102,-0.12458 -0.172,-0.24613 -0.25,-0.39062 -0.045,-0.0828 -0.034,-0.0173 -0.078,-0.14063 -0.014,-0.0404 -0.017,-0.0846 -0.031,-0.125 -0.01,-0.0176 -0.021,-0.0294 -0.031,-0.0469 -0.053,-0.13327 -0.076,-0.2763 -0.1406,-0.40625 0,-0.007 -0.01,-0.0106 -0.016,-0.0156 -0.016,-0.0365 -0.029,-0.0739 -0.047,-0.10937 -0.026,-0.0511 -0.074,-0.0652 -0.094,-0.125 -0.016,-0.0313 -0.024,-0.0682 -0.047,-0.094 -0.095,-0.10293 -0.1095,-0.0657 -0.1875,-0.14063 -0.6942,-0.66269 0.055,0.0465 -0.4687,-0.5 -0.07,-0.0735 -0.182,-0.14917 -0.25,-0.23437 -0.1063,-0.13286 -0.2145,-0.26698 -0.3125,-0.40625 -0.052,-0.0252 -0.037,-0.0857 -0.062,-0.125 -0.1611,-0.25375 -0.041,0.0211 -0.2031,-0.34375 -0.081,-0.18242 -0.1213,-0.57199 -0.1563,-0.76563 -0.047,-0.2599 -0.1002,-0.53794 -0.1562,-0.79687 -0.014,-0.0629 -0.037,-0.1238 -0.047,-0.1875 -0.021,-0.13704 -0.01,-0.37088 -0.078,-0.51563 -0.046,-0.091 -0.098,-0.15457 -0.1563,-0.23437 -0.193,-0.26544 -0.3441,-0.38515 -0.6406,-0.54688 -0.3658,-0.19954 -0.7787,-0.31662 -1.0469,-0.65625 -0.1016,-0.12919 -0.083,-0.14715 -0.1406,-0.28125 -0.1146,-0.26673 -0.1156,-0.41127 -0.1406,-0.70312 -0.01,-0.11462 -0.037,-0.22984 -0.047,-0.34375 v -0.17188 c -0.01,-0.12243 -0.034,-0.30996 -0.062,-0.42187 0,-0.0143 -0.021,-0.0177 -0.031,-0.0312 -0.026,-0.0606 -0.04,-0.1257 -0.062,-0.1875 -0.048,-0.13085 -0.1205,-0.25835 -0.2343,-0.34375 -0.043,-0.0322 -0.094,-0.0513 -0.1407,-0.0781 -0.3013,-0.17425 -0.045,-0.021 -0.2343,-0.15625 -0.01,-0.007 -0.021,-0.007 -0.031,-0.0156 -0.014,-0.0182 -0.018,-0.0431 -0.031,-0.0625 -0.01,-0.0123 -0.021,-0.019 -0.031,-0.0312 -0.062,-0.0937 -0.062,-0.20852 -0.094,-0.3125 -0.03,-0.0976 -0.069,-0.18225 -0.094,-0.28125 -0.01,-0.0408 -0.031,-0.0679 -0.031,-0.10938 -0.017,-0.20743 -0.093,-0.26947 -0.19,-0.45327 -0.088,-0.0255 -0.014,-0.0855 -0.031,-0.125 -0.095,-0.22193 0.01,0.0583 -0.1094,-0.14063 -0.045,-0.0765 -0.048,-0.15377 -0.078,-0.23437 0,-0.007 -0.016,-0.009 -0.016,-0.0156 -0.041,-0.10343 -0.048,-0.22211 -0.078,-0.32812 -0.044,-0.15885 -0.094,-0.26585 -0.125,-0.42188 -0.033,-0.0599 0,-0.1259 -0.016,-0.1875 -0.014,-0.0749 -0.048,-0.14385 -0.062,-0.21875 -0.027,-0.1456 -0.055,-0.29122 -0.078,-0.4375 0,-0.003 -0.021,-0.2304 -0.031,-0.25 -0.024,-0.0656 -0.066,-0.1233 -0.094,-0.1875 v -0.0312 c -0.022,-0.0517 -0.074,-0.11485 -0.1094,-0.15625 -0.081,-0.0946 -0.2242,-0.1291 -0.3281,-0.1875 -0.033,-0.0184 -0.062,-0.0417 -0.094,-0.0625 -0.083,-0.0365 -0.168,-0.0701 -0.25,-0.10937 -0.1662,-0.0795 -0.4328,-0.24104 -0.5469,-0.34375 -0.038,-0.0345 -0.072,-0.0741 -0.1094,-0.10938 -0.09,-0.084 -0.2199,-0.18175 -0.2969,-0.28125 -0.088,-0.11447 -0.1242,-0.28399 -0.1562,-0.42187 -0.025,-0.10923 -0.06,-0.21725 -0.078,-0.32813 -0.059,-0.35066 0.018,0.0815 -0.016,-0.23437 0.1557,-0.12325 -0.037,-0.14475 -0.047,-0.21875 v -0.0937 c -0.01,-0.0781 -0.017,-0.15688 -0.031,-0.23438 -0.01,-0.0373 -0.021,-0.0719 -0.031,-0.10937 v -0.0937 c -0.01,-0.0365 -0.01,-0.0731 -0.016,-0.10938 -0.013,-0.0734 -0.037,-0.14485 -0.047,-0.21875 -0.01,-0.0776 -0.01,-0.15677 -0.016,-0.23437 -0.01,-0.0577 -0.021,-0.11408 -0.031,-0.17188 v -0.0937 c -0.016,-0.21913 -0.016,-0.43667 -0.016,-0.65625 v -0.39062 c 0,-0.0418 -0.01,-0.11525 0,-0.15625 0,-0.007 0.016,-0.009 0.016,-0.0156 0.01,-0.0252 0.01,-0.0529 0.016,-0.0781 0,-0.007 0.016,-0.009 0.016,-0.0156 0.04,-0.0789 0.1177,-0.24482 0.1407,-0.32812 0.017,-0.0611 0.017,-0.1258 0.031,-0.1875 0.017,-0.0723 0.039,-0.14795 0.062,-0.21875 -0.036,-0.0733 -0.073,-0.10079 -0.062,-0.17219 0.02,-0.12941 0.029,-0.16555 0.078,-0.28125 0.024,-0.058 0.061,-0.11137 0.078,-0.17187 0.051,-0.17477 0.098,-0.35137 0.125,-0.53125 0.018,-0.12263 0,-0.66555 0,-0.76563 v -1.76562 -1.73438 c 0,-0.31178 -0.01,-0.62585 0,-0.9375 0,-0.13576 0.021,-0.27054 0.031,-0.40625 0.016,-0.38928 0,-0.78202 0,-1.17187 0.1953,-0.27305 0.4715,-0.47639 0.7503,-0.65625 0.067,-0.0431 0.1391,-0.0778 0.2031,-0.125 0.04,-0.0298 0.192,-0.16095 0.25,-0.21875 0.055,-0.0548 0.095,-0.12438 0.1563,-0.17188 0.1113,-0.0865 0.2321,-0.15901 0.3281,-0.26562 0.1503,-0.16702 0.2944,-0.37577 0.3594,-0.59375 v -0.0469 c 0.01,-0.0322 0.031,-0.0611 0.031,-0.0937 0.01,-0.0412 0,-0.0833 0,-0.125 v -0.42187 c 0,-0.25901 -0.016,-0.52251 0,-0.78125 0,-0.0581 0.031,-0.11368 0.031,-0.17188 0,-0.0937 -0.01,-0.18775 0,-0.28125 0.01,-0.11959 0.084,-0.2267 0.1406,-0.32812 0.098,-0.17554 0.313,-0.25815 0.4688,-0.375 0.1217,-0.0913 0.1319,-0.11935 0.2812,-0.25 0.042,-0.0371 0.096,-0.0589 0.1406,-0.0937 0.187,-0.14688 0.3335,-0.27045 0.5,-0.42188 0.1842,-0.1676 -0.049,0.0586 0.2032,-0.125 0.021,-0.0153 0.03,-0.0427 0.047,-0.0625 0.014,-0.0168 0.033,-0.0294 0.047,-0.0469 0.2045,-0.26288 0.025,-0.0117 0.062,-0.125 0.028,-0.0848 0.069,-0.14848 0.094,-0.23438 0.029,-0.10321 0.016,-0.2209 0.016,-0.32812 0,-0.0664 0.012,-0.15355 0,-0.21875 -0.017,-0.0957 -0.054,-0.18705 -0.078,-0.28125 -0.019,-0.0734 -0.052,-0.14355 -0.062,-0.21875 -0.016,-0.12391 -0.028,-0.2232 -0.047,-0.34375 -0.02,-0.13205 -0.01,-0.267 -0.062,-0.39063 -0.061,-0.13765 -0.1338,-0.27746 -0.2344,-0.39062 -0.1406,-0.1608 0.025,0.0405 -0.1406,-0.125 -0.01,-0.008 -0.01,-0.0232 -0.016,-0.0312 -0.058,-0.0575 -0.1275,-0.10125 -0.1875,-0.15625 -0.033,-0.0299 -0.06,-0.0658 -0.094,-0.0937 -0.024,-0.0192 -0.054,-0.0279 -0.078,-0.0469 -0.1302,-0.10417 -0.2113,-0.25818 -0.3281,-0.375 -0.01,-0.008 -0.021,-0.008 -0.031,-0.0156 -0.039,-0.0314 -0.074,-0.0736 -0.1094,-0.10938 -0.014,-0.0137 -0.2663,-0.26077 -0.2663,-0.26577 -0.137,-0.15989 -0.167,-0.22948 -0.3125,-0.375 -0.068,-0.0677 -0.1321,-0.13873 -0.2031,-0.20313 -0.031,-0.0283 -0.081,-0.0492 -0.1094,-0.0781 -0.068,-0.0684 -0.1196,-0.20908 -0.1406,-0.29688 -0.026,-0.10778 -0.016,-0.25179 -0.016,-0.35937 0,-0.16523 -0.018,-0.3361 0,-0.5 0.027,-0.24795 0.1667,-0.60169 0.2187,-0.78125 0.014,-0.0461 0.018,-0.0944 0.031,-0.14063 0.1004,-0.35862 0.2098,-0.71568 0.2968,-1.07812 0.072,-0.30005 0.1155,-0.60673 0.1875,-0.90625 0.03,-0.12525 0.06,-0.25079 0.094,-0.375 0.094,-0.33962 -0.047,0.28844 0.062,-0.20313 0.133,-0.60062 -0.042,0.17941 0.047,-0.26562 0.01,-0.0485 0.035,-0.0927 0.047,-0.14063 0.01,-0.0222 0.021,-0.14457 0.031,-0.17187 0.069,-0.19229 0.15,-0.36785 0.25,-0.54688 0.059,-0.10589 0.1544,-0.17722 0.2344,-0.26562 0.2695,-0.29935 -0.4379,0.40662 0.3125,-0.34375 0.1323,-0.13228 0.3018,-0.22824 0.4218,-0.375 0.1087,-0.13285 0.2057,-0.29215 0.2657,-0.45313 0.023,-0.0603 0.029,-0.1255 0.047,-0.1875 0,-0.0158 0.016,-0.0305 0.016,-0.0469 v -0.125 c 0.01,-0.08 0.031,-0.13915 0.047,-0.21875 0.016,-0.0658 0.016,-0.13553 0.016,-0.20313 0.016,-0.0417 0.034,-0.0824 0.047,-0.12499 0.017,-0.0558 -0.021,-0.11447 -0.031,-0.17187 -0.017,-0.0997 -0.034,-0.39228 -0.016,-0.48438 0.019,-0.096 0.078,-0.28417 0.1406,-0.35937 0.01,-0.009 0.021,-0.006 0.031,-0.0156 0.02,-0.0284 0.028,-0.0647 0.047,-0.0937 0.1254,-0.188 -0.05,0.14774 0.1094,-0.125 0.02,-0.0343 0.027,-0.0751 0.047,-0.10937 0.049,-0.0836 0.057,-0.0623 0.1093,-0.125 0.1183,-0.14191 0.2397,-0.28082 0.3907,-0.39063 0.1179,-0.0857 0.084,-0.0479 0.2187,-0.14062 0.049,-0.0336 0.09,-0.0788 0.1406,-0.10938 0.2206,-0.13234 0.3329,-0.17207 0.5469,-0.35937 0.037,-0.0358 0.03,-0.10465 0.047,-0.15625 0.01,-0.0221 0.021,-0.0402 0.031,-0.0625 0.031,-0.11173 0.031,-0.22867 0.031,-0.34375 0,-0.10241 0.013,-0.23726 0,-0.34375 -0.023,-0.18352 -0.069,-0.36346 -0.094,-0.54688 -0.015,-0.11271 -0.016,-0.23017 -0.031,-0.34375 -0.012,-0.0891 -0.037,-0.17602 -0.047,-0.26562 0,-0.0571 0.01,-0.11538 0,-0.17188 -0.01,-0.0346 -0.021,-0.0748 -0.031,-0.10937 -0.012,-0.0707 -0.021,-0.14715 -0.031,-0.21875 -0.01,-0.0569 0,-0.11468 0,-0.17188 0,-0.0316 -0.016,-0.0622 -0.016,-0.0937 -0.01,-0.13501 0,-0.27083 0,-0.40625 v -0.60937 c 0,0 0.3986,-3.27355 -0.4583,-3.51823 -1.6223,0.10909 -1.7472,-0.15762 -2.303,-0.15762 -1.1186,0 -2.2521,-0.0508 -3.3692,0 -0.1957,0.009 -0.39,0.0418 -0.5859,0.0488 -0.3904,0.0139 -0.782,-0.0244 -1.1719,0 -0.5066,0.0317 -1.0049,0.12108 -1.5136,0.14648 -0.729,0.0364 -1.468,-0.0122 -2.1973,0 -0.3707,0.006 -2.5127,0.0828 -3.125,0.0488 -0.4738,-0.0263 -0.944,-0.0977 -1.416,-0.14648 -1.6403,0 -4.7125,1.44897 -6.0547,2.34375 -0.3064,0.20429 -0.4519,0.61655 -0.7813,0.78125 -0.24,0.12001 -0.5579,0.0464 -0.7812,0.19531 -0.1953,0.13021 -0.2103,0.43566 -0.3906,0.58594 -0.6357,0.52968 -1.0741,0.43937 -1.7578,0.78125 -0.1647,0.0824 -0.2328,0.29592 -0.3907,0.39062 -0.1765,0.10592 -0.4059,0.0953 -0.5859,0.19532 -0.8025,0.44582 -1.4854,1.02383 -2.3438,1.36718 -1.0877,0.43509 -2.2426,0.7408 -3.3203,1.17188 -0.9927,0.39662 0.9851,-0.002 -0.5859,0.39062 -0.4702,0.11752 -1.1159,0.0278 -1.5625,0.19532 -0.4721,0.17705 -1.1742,0.68395 -1.7578,0.78125 -0.1927,0.0321 -0.4031,-0.0686 -0.586,0 -0.8091,0.30341 -0.9569,0.74773 -1.7578,0.97656 -0.1878,0.0537 -0.4046,-0.0725 -0.5859,0 -0.171,0.0684 -0.2374,0.28848 -0.3906,0.39062 -1.1682,0.7788 -2.4691,1.33219 -3.711,1.95313 -0.7572,0.3786 -1.2659,1.10438 -1.9531,1.5625 -0.2423,0.1615 -0.5208,0.26041 -0.7812,0.39062 -0.1954,0.0651 -0.4094,0.0894 -0.586,0.19532 -0.2169,0.13012 -1.4695,1.03302 -1.5625,1.17187 -0.081,0.12113 -0.092,0.28769 -0.1953,0.39063 -0.10293,0.10291 -0.28768,0.0924 -0.39062,0.19531 -0.11898,0.11898 -0.97356,1.16687 -0.97656,1.17187 -0.7878,1.18169 0.28315,0.0782 -0.39063,0.97657 -0.38819,0.51758 -0.71368,0.9491 -0.97656,1.5625 -0.13811,0.32224 -0.19615,0.68484 -0.39063,0.97656 -0.0807,0.12111 -0.27416,0.10791 -0.39062,0.19531 -0.87515,0.65636 -1.48904,1.65998 -2.34375,2.34375 -0.31827,0.25461 -0.74679,0.39829 -0.97656,0.78125 -0.51321,0.85534 -0.93864,1.87727 -1.36719,2.73438 -0.10498,0.20995 -0.30343,0.36799 -0.39063,0.58593 -0.0484,0.1209 0.0582,0.27417 0,0.39063 -0.0291,0.0582 -0.14931,-0.046 -0.19531,0 -0.73271,0.73272 -0.12357,0.36007 -0.58594,0.97656 -0.36543,0.48725 -1.04964,1.05947 -1.5625,1.36719 -0.53286,0.31971 -1.36961,0.41922 -1.95312,0.58594 -0.39591,0.11311 -0.76812,0.30982 -1.17188,0.39062 -1.18832,0.23767 -3.58726,0 -4.88281,0 -3.49653,0 -7.12458,0.29384 -10.54687,-0.39062 -0.42505,-0.085 -0.94729,0.0525 -1.36719,0 -3.08485,-0.38561 1.25739,0.0702 -1.36719,-0.58594 -0.3158,-0.0789 -0.66356,0.0894 -0.97656,0 -0.17706,-0.0506 -0.23272,-0.29593 -0.39063,-0.39063 -0.35307,-0.21184 -0.76572,-0.32292 -1.17187,-0.39062 -0.43927,-0.0732 -0.93024,0.0874 -1.36719,0 -0.40376,-0.0807 -0.76811,-0.30993 -1.17187,-0.39063 -0.97515,-0.19503 -3.52022,-0.0824 -4.49219,0.19532 -1.64982,0.47132 0.45661,-0.0562 -0.58594,0.39062 -0.94039,0.40303 -2.08387,0.41268 -2.92969,0.97656 -0.91376,0.60918 1.60466,-0.50936 -0.97656,0.78125 -0.24009,0.12002 -0.53202,0.0956 -0.78125,0.19532 -0.54066,0.21626 -1.01007,0.5971 -1.5625,0.78125 -0.25465,0.0849 -0.54116,0.0753 -0.78125,0.19531 -0.41575,0.20788 -0.75331,0.76728 -1.17187,0.97656 -0.50104,0.25052 -0.91413,0.44146 -1.36719,0.78125 -0.14731,0.11049 -0.21965,0.32223 -0.39063,0.39063 -0.18134,0.0725 -0.39441,-0.0383 -0.58593,0 -0.75681,0.15136 -1.30328,0.84695 -1.95313,1.17187 -0.59504,0.29752 -1.15355,0.73486 -1.75781,0.97656 -0.23509,0.094 -0.74754,0.20741 -0.97656,0.39063 -0.38926,0.3114 -0.90592,0.94124 -1.36719,1.17187 -0.39689,0.19845 -0.99835,0.24309 -1.36719,0.39063 -0.35006,0.14002 -0.59739,0.49114 -0.97656,0.58594 -0.12632,0.0316 -0.2671,-0.0412 -0.39063,0 -0.16713,0.0557 -0.85157,0.46095 -0.97656,0.58593 -0.16598,0.16599 -0.20283,0.4451 -0.39062,0.58594 -0.10417,0.0781 -0.26431,-0.0316 -0.39063,0 -0.94315,0.23579 0.01,0.0928 -0.58594,0.39063 -0.90348,0.45174 -1.97428,0.78548 -2.92968,0.97656 -1.31667,0.26333 -4.95295,-0.0332 -6.25,-0.19531 -1.28719,-0.16092 -2.63172,0.0596 -3.90625,-0.19532 -0.66651,-0.1333 -1.28961,-0.43849 -1.95313,-0.58593 -1.07961,-0.23992 -2.58368,0.0301 -3.71094,-0.19532 -0.40375,-0.0807 -0.76425,-0.33242 -1.17187,-0.39062 -0.38408,-0.0549 -1.54234,-0.1027 -1.95313,0 -0.14123,0.0353 -0.24651,0.17471 -0.39062,0.19531 -0.94178,0.13451 -0.93507,0.0308 -1.75781,0.19531 -0.43452,0.0869 -0.93791,-0.10732 -1.36719,0 -0.68049,0.17012 -1.27123,0.41547 -1.95313,0.58594 -0.39062,0.0977 0,-0.19531 -0.58593,0 -0.58143,0.19381 -1.06829,0.87535 -1.5625,1.17188 -0.11166,0.067 -0.2671,-0.0412 -0.39063,0 -0.39548,0.13182 -0.48648,0.68179 -0.78125,0.97656 -0.47437,0.47442 -0.2868,-0.0581 -0.58594,0.39062 -0.60428,0.90643 -2.44247,3.12571 -3.32031,3.71094 -0.9921,0.6614 -2.15853,1.03296 -3.125,1.75781 -0.003,0.002 -0.69065,1.02085 -0.78125,1.17188 -0.33354,0.5559 -0.85052,1.02691 -1.17187,1.5625 -0.83642,1.39402 -1.54955,2.51303 -3.32032,2.73437 -0.74446,0.0931 -3.11426,0.007 -3.71093,-0.39062 -0.0542,-0.0361 0.046,-0.14931 0,-0.19531 -0.23848,-0.23849 -1.07335,-0.78067 -1.36719,-0.97657 -0.67164,-0.44772 -0.43297,-0.7471 -0.58594,-0.97656 -0.0808,-0.12111 -0.2695,-0.11461 -0.39062,-0.19531 -0.58594,-0.39063 0.39062,0 -0.58594,-0.58594 -0.17654,-0.10591 -0.4018,-0.10321 -0.58594,-0.19531 -0.5496,-0.2748 -0.96697,-0.82768 -1.5625,-0.97656 -0.12632,-0.0316 -0.29852,0.0921 -0.39062,0 -0.0921,-0.0921 0.0921,-0.29853 0,-0.39063 -0.27247,-0.27247 -1.02799,-0.31458 -1.36719,-0.58594 -0.21569,-0.17255 -0.34909,-0.44382 -0.58594,-0.58593 -0.17613,-0.10568 -0.67204,-0.0861 -0.97656,-0.39063 -0.046,-0.046 0.0542,-0.15921 0,-0.19531 -0.11947,-0.0796 -0.85024,-0.26431 -0.97656,-0.39063 -0.10292,-0.10294 -0.0742,-0.30992 -0.19532,-0.39062 -0.10834,-0.0722 -0.27416,0.0582 -0.39062,0 -0.1647,-0.0824 -0.23741,-0.28848 -0.39063,-0.39063 -0.3295,-0.21971 -0.79109,-0.0865 -1.17187,-0.19531 -0.65208,-0.18631 -1.29035,-0.42024 -1.95313,-0.58594 -0.28246,-0.0706 -0.49575,-0.33352 -0.78125,-0.39062 -0.3192,-0.0638 -0.66774,0.10294 -0.97656,0 -0.41432,-0.13811 -0.74818,-0.48002 -1.17187,-0.58594 -1.17412,-0.29352 -1.88903,-0.39062 -3.125,-0.39062 l -5.85938,-0.39062 c -0.3148,-0.0758 -0.0747,0.0288 -0.19531,0.39062 -0.22262,0.66786 -0.162,0.14534 -0.58594,0.78125 -0.0722,0.10834 0.0412,0.26709 0,0.39062 -0.14617,0.4385 -0.36307,0.53084 -0.58594,0.97656 -0.30045,0.60092 -0.34592,1.3531 -0.58593,1.95313 -0.21627,0.54066 -0.62128,1.00259 -0.78125,1.5625 -0.0537,0.1878 0.0321,0.39328 0,0.58594 -0.0677,0.40615 -0.32293,0.76572 -0.39063,1.17187 -0.0535,0.32109 0.10294,0.66775 0,0.97656 -0.0291,0.0874 -0.17721,0.10502 -0.19531,0.19532 -0.0511,0.25536 0.0428,0.52437 0,0.78125 -0.0239,0.14359 -0.16681,0.24787 -0.19531,0.39062 -0.0753,0.37628 0.0543,0.79156 0,1.17188 -0.011,0.0772 -0.13412,1.57413 -0.19532,1.75781 -0.046,0.13811 -0.16681,0.24787 -0.19531,0.39062 -0.0136,0.0682 0.0818,0.8129 0,0.97657 -0.14549,0.29099 -0.48246,0.66612 -0.58594,0.97656 -0.23101,0.69305 0.31651,0.0988 -0.19531,0.78125 -0.11048,0.14731 -0.28848,0.23741 -0.39062,0.39062 -0.0722,0.10834 0.0582,0.27417 0,0.39063 -0.10498,0.20995 -0.26042,0.39062 -0.39063,0.58594 -0.33875,0.50812 -1.62106,1.10349 -2.14844,1.36718 -0.24705,0.12353 -0.28714,0.53424 -0.58593,0.58594 -0.11647,0.0582 -0.27417,-0.0582 -0.39063,0 -0.62073,0.31037 -0.99132,1.15452 -1.5625,1.5625 -0.28607,0.20434 -1.74826,0.7717 -1.95312,0.97656 -0.46113,0.46113 1.08939,-0.10271 -0.39063,0.39063 -0.51923,0.17307 -1.24787,0.44024 -1.75781,0.58594 -0.1252,0.0358 -0.27416,-0.0582 -0.39063,0 -0.1647,0.0823 -0.23272,0.29592 -0.39062,0.39062 -0.29508,0.17705 -1.48706,0.71355 -1.75781,0.78125 -0.25264,0.0632 -0.53946,-0.0967 -0.78125,0 -0.13512,0.0541 -0.0788,0.30323 -0.19532,0.39063 -0.1647,0.12351 -0.40179,0.10321 -0.58593,0.19531 -0.93953,0.46976 -0.77722,1.71338 -1.71657,2.11225 -1.52089,0.78892 -2.28959,2.24296 -3.2733,3.55457 0.68158,0.83623 -0.75134,0.47513 -0.82864,0.55243 -0.21122,0.21122 -1.17053,1.61768 -1.38107,1.93349 -0.15322,0.22983 0.0873,0.56661 0,0.82864 -0.0562,0.16857 -0.49623,0.66008 -0.55243,0.82865 -0.0706,0.21193 -0.0504,4.31852 0,4.41941 0.14846,0.29692 0.44745,0.51371 0.55243,0.82864 0.0873,0.26204 -0.0542,0.55779 0,0.82864 0.2223,1.11152 0.20156,0.12691 0.55243,0.82865 0.10906,0.21812 -0.0777,0.59569 0,0.82864 0.0651,0.19531 0.21111,0.35711 0.27621,0.55242 0.27692,0.83077 -0.21317,1.90948 0,2.76214 0.0499,0.19973 0.22631,0.3527 0.27621,0.55243 0.13835,0.5534 -0.25317,1.42715 0,1.93349 0.25314,0.50628 0.64953,1.11994 0.82864,1.65728 0.27622,0.82864 -0.1381,0.27622 0,0.82864 0.69769,2.79076 -0.0997,-0.19947 0.55243,1.10486 0.42905,0.85809 0.55243,2.07618 1.65728,3.5908 3.40304,0.62765 5.99048,0.42997 8.56262,0.55245 v -5e-5 c 1.04385,0.0497 8.33543,1.08035 9.39127,0.55243 0.54069,-0.27035 1.47533,-0.37048 1.93349,-0.82864 0.0651,-0.0651 -0.0824,-0.23504 0,-0.27622 0.3294,-0.1647 0.75547,0.11647 1.10485,0 0.12353,-0.0412 0.16317,-0.21161 0.27622,-0.27621 1.20335,-0.68763 1.9582,-1.2134 3.03835,-1.93349 0.30643,-0.20429 0.74756,0.0893 1.10485,0 0.26845,-0.0671 0.79986,-0.45076 1.10486,-0.55243 0.37819,-0.12607 6.02151,-0.11047 6.35291,0 0.55335,0.18445 1.16965,0.77976 1.65728,1.10485 1.06878,0.71252 4.32701,1.9104 5.52427,2.20971 0.19973,0.0499 0.3527,0.22628 0.55243,0.27622 0.17864,0.0447 0.38772,-0.0824 0.55243,0 0.0824,0.0412 -0.0412,0.19386 0,0.27621 0.57476,1.14953 -0.0191,-0.29528 0.55242,0.27621 0.0651,0.0651 -0.0873,0.2471 0,0.27622 0.26204,0.0873 0.56661,-0.0874 0.82864,0 0.0874,0.0291 -0.0552,0.20255 0,0.27621 0.3125,0.41667 0.68819,0.79235 1.10486,1.10485 0.64194,0.48146 1.44761,1.20467 1.93349,1.9335 0.1142,0.1713 0.13064,0.40685 0.27622,0.55243 0.14558,0.14557 0.43822,0.10491 0.55243,0.27621 0.10214,0.15322 -0.0824,0.38773 0,0.55243 0.0412,0.0824 0.19386,-0.0412 0.27621,0 0.33145,0.16573 0.49718,0.66291 0.82864,0.82864 0.0824,0.0412 0.21111,-0.0651 0.27621,0 0.36829,0.36828 -0.58593,0.26504 0.27622,0.55243 0.17469,0.0582 0.38772,-0.0824 0.55242,0 0.34939,0.17469 0.45807,0.70511 0.82864,0.82864 0.56074,0.18691 1.34459,0.12898 1.9335,0.27621 2.05599,0.514 4.21403,0.6342 6.35291,0.82864 1.12532,0.1023 1.53452,-0.15345 2.76214,0 0.66511,0.0831 1.26994,0.45763 1.93349,0.55243 0.9023,0.1289 1.85984,-0.1289 2.76214,0 1.47213,0.2103 2.96079,0.64631 4.41942,0.82864 0.4568,0.0571 0.92697,-0.0757 1.38106,0 0.12844,0.0214 0.1499,0.24463 0.27622,0.27621 0.93776,0.23444 2.11141,-0.0328 3.03835,0.27622 0.56975,0.18991 1.07555,0.6832 1.65728,0.82864 0.96982,0.24245 4.31183,0.72105 4.97184,1.38106 0.14558,0.14558 0.11152,0.4289 0.27622,0.55243 0.0274,0.0206 3.682,1.61104 3.86699,1.65728 0.17864,0.0447 0.39921,-0.10214 0.55242,0 0.1713,0.1142 0.13064,0.40685 0.27622,0.55243 0.0509,0.0509 0.77774,0.22532 0.82864,0.27621 0.14558,0.14558 0.13064,0.40685 0.27621,0.55243 0.0651,0.0651 0.19387,-0.0412 0.27622,0 0.4407,0.22035 1.83318,2.19735 2.2097,2.76214 0.52668,0.79001 0.10592,0.35925 0.27622,1.38106 0.14811,0.88869 0.73709,2.11817 1.38107,2.76214 0.19531,0.19531 0.5666,-0.0874 0.82864,0 0.12352,0.0412 0.18414,0.18414 0.27621,0.27621 0.36829,0.0921 0.72905,0.22253 1.10485,0.27622 0.82032,0.11719 1.66235,-0.0915 2.48593,0 0.28937,0.0322 0.54314,0.21911 0.82864,0.27621 0.7021,0.14042 3.64175,0.19442 4.41942,0 0.32205,-0.0805 0.50658,-0.47191 0.82864,-0.55243 1.01761,-0.2544 2.32146,0.33104 3.31456,0 0.12353,-0.0412 0.15975,-0.21798 0.27621,-0.27621 0.32941,-0.1647 0.74158,0.0606 1.10486,0 0.6586,-0.10977 1.12746,-0.69619 1.65728,-0.82864 2.17549,-0.54387 -0.67317,0.68475 2.20971,-0.27621 0.19531,-0.0651 0.10491,-0.43823 0.27621,-0.55243 0.15322,-0.10214 0.37378,0.0447 0.55243,0 0.41342,-0.10336 1.08403,-0.68012 1.38107,-0.82864 0.33469,-0.16735 1.01149,0.0616 1.38106,0 1.4069,-0.23449 2.69975,-0.27622 4.14321,-0.27622 2.49579,0 5.36797,-0.31528 7.73398,0.27622 0.86655,0.21664 1.89558,-0.21664 2.76213,0 0.12632,0.0316 0.15269,0.23504 0.27622,0.27621 0.34938,0.11646 0.74756,-0.0893 1.10485,0 0.39946,0.0999 0.7054,0.45256 1.10486,0.55243 0.71348,0.17837 1.52293,0.15999 2.20971,0.55243 0.3997,0.2284 0.71447,0.58465 1.10485,0.82864 1.72417,1.0776 3.63283,1.82692 5.24806,3.03835 0.62086,0.46564 1.55815,0.71392 2.20971,1.10485 0.39475,0.23685 0.77933,0.50312 1.10485,0.82864 0.0651,0.0651 -0.0766,0.22514 0,0.27621 0.24226,0.16151 0.59572,0.10153 0.82864,0.27622 0.1647,0.12352 0.13064,0.40685 0.27622,0.55243 0.24663,0.24663 2.63977,1.08213 3.03834,1.38106 0.16471,0.12353 0.13064,0.40685 0.27622,0.55243 0.0985,0.67852 0.58638,0.11471 0.82864,0.27621 0.21668,0.14446 0.34409,0.39618 0.55243,0.55243 0.55582,0.41687 1.44359,0.33874 1.93349,0.82864 0.14558,0.14558 0.15269,0.38773 0.27621,0.55243 0.82002,1.09336 0.29387,0.0177 1.38107,1.10485 0.31654,0.31654 0.5121,1.06453 0.82864,1.38107 0.37962,0.37962 1.00145,0.44902 1.38107,0.82864 0.14558,0.14558 0.13064,0.40685 0.27621,0.55243 0.49315,0.49315 1.36295,0.95315 1.9335,1.38107 0.26557,0.19918 0.27621,0.6445 0.55243,0.82864 0.82861,0.55243 0.27621,-0.27622 0.82861,0 0.4802,0.24009 1.0015,0.44902 1.3811,0.82864 0.065,0.0651 -0.077,0.22514 0,0.27621 0.4462,0.29744 3.4079,1.10486 3.867,1.10486 1.0551,0 0.043,-0.0582 1.3811,0.27621 0.9904,0.24762 6.2427,0.13412 7.1815,0 1.0265,-0.14665 2.0592,-0.77848 3.0384,-1.10485 2.5367,-0.84559 0.391,0.0269 2.2097,-0.27622 0.7887,-0.13146 2.5634,-0.80442 3.3145,-1.10485 1.8415,-0.73657 -0.6445,0.27621 0.8287,-0.82864 0.4642,-0.34818 2.1766,-0.79559 2.4859,-1.10486 0.1456,-0.14557 0.1306,-0.40685 0.2762,-0.55242 0.1456,-0.14558 0.3917,-0.14761 0.5524,-0.27622 0.4067,-0.32536 0.6715,-0.81595 1.1049,-1.10485 0.6573,-0.4382 1.3052,-0.87847 1.9335,-1.38107 0.2033,-0.16268 0.408,-0.33575 0.5524,-0.55243 0.051,-0.0766 -0.082,-0.23503 0,-0.27621 0.5524,-0.27621 0.4143,0.13811 0.8286,0 0.6202,-0.20671 0.7508,-0.51347 1.3811,-0.82864 0.9294,-0.46468 2.3474,-0.55231 3.3146,-0.82864 0.1252,-0.0358 0.1527,-0.23504 0.2762,-0.27622 0.1747,-0.0582 0.3777,0.0582 0.5524,0 0.6823,-0.22742 1.4545,-0.91604 2.2097,-1.10485 0.4466,-0.11165 0.9297,0.0903 1.3811,0 0.071,-0.0142 1.034,-0.53826 1.1049,-0.55243 1.5725,-0.31451 7.1441,-0.007 8.5626,0.27622 0.5264,0.10528 0.8755,0.64807 1.381,0.82864 0.9053,0.3233 1.8223,0.62723 2.7622,0.82864 0.3601,0.0772 0.7394,-0.0457 1.1048,0 1.5966,0.19958 3.2458,0.80112 4.6957,1.38107 0.4274,0.17097 0.9384,-0.12647 1.381,0 0.7063,0.20179 1.5472,0.9171 2.486,1.10485 0.2708,0.0542 0.5606,-0.067 0.8286,0 0.6645,0.16614 0.8797,0.38531 1.3811,0.55243 0.9098,0.30328 1.9412,0.41817 2.7621,0.82864 0.1647,0.0823 0.3877,-0.0824 0.5524,0 0.2329,0.11646 0.3195,0.43596 0.5525,0.55243 0.3355,0.16778 0.8778,0.0985 1.1048,0.55242"
         id="path99" />
    </g>
  </g>
</svg>
