<?xml version="1.0" encoding="UTF-8" standalone="no"?>
<!-- Created with Inkscape (http://www.inkscape.org/) -->

<svg
   version="1.1"
   id="svg1"
   width="160.24808"
   height="98.95076"
   viewBox="0 0 160.24808 98.95076"
   xmlns="http://www.w3.org/2000/svg"
   xmlns:svg="http://www.w3.org/2000/svg">
  <defs
     id="defs1" />
  <g
     id="layer1"
     style="display:inline"
     transform="translate(-655.77523,-422.62887)">
    <g
       id="layer51"
       style="display:inline;fill:#ffffff;fill-opacity:1;stroke:none">
      <path
         style="fill:#ffffff;fill-opacity:1;stroke:none;stroke-linecap:round"
         d="m 655.77523,431.35722 16.35185,3.99958 27.62135,0.33145 22.76,-7.20365 7.68979,-3.86699 0.0884,-1.98874 2.91681,2.3202 3.8449,7.22575 2.05503,19.26865 4.19844,5.78944 4.30893,0.15468 3.00521,-7.68979 2.43068,0.7955 7.09316,10.25305 6.96058,0.64081 4.70668,-14.16423 13.94326,12.26388 6.67332,10.93806 8.83884,6.8722 14.76085,8.88302 -1.76776,6.54074 -1.19325,1.25954 -0.48613,1.65728 2.9831,3.38085 -29.61009,9.98788 -31.55464,5.81154 -42.91254,5.34749 -51.13266,1.41422 0.61872,-12.33018 3.62392,-30.71495 z"
         id="path49" />
    </g>
  </g>
</svg>
