<?xml version="1.0" encoding="UTF-8" standalone="no"?>
<!-- Created with Inkscape (http://www.inkscape.org/) -->

<svg
   version="1.1"
   id="svg2"
   width="159.3421"
   height="97.564468"
   viewBox="0 0 159.3421 97.564468"
   xmlns="http://www.w3.org/2000/svg"
   xmlns:svg="http://www.w3.org/2000/svg">
  <defs
     id="defs6">
    <linearGradient
       id="swatch77">
      <stop
         style="stop-color:#e2c69e;stop-opacity:1;"
         offset="0"
         id="stop77" />
    </linearGradient>
  </defs>
  <g
     id="layer66"
     style="display:inline"
     transform="translate(-657.36623,-423.75)">
    <g
       id="layer65"
       style="display:inline">
      <path
         style="display:inline;fill:#969696;fill-opacity:1;stroke:none;stroke-opacity:1"
         d="m 657.36623,433.36807 c 0,1.04212 0.15727,8.07466 0.24307,9.104 0.0202,0.24211 0.14998,0.46563 0.17678,0.7071 0.20696,1.86263 -0.20696,3.79424 0,5.65686 0.14209,1.2788 0.34828,2.61474 0.53033,3.88909 0.26648,1.86537 0.009,-0.32769 0.53033,1.23743 0.0559,0.16771 -0.016,0.35428 0,0.53033 0.043,0.47312 0.10458,0.94467 0.17678,1.41422 0.15317,0.99563 0.43923,2.00337 0.53033,3.0052 0.0587,0.64552 -0.0645,1.29958 0,1.94454 0.23457,2.34558 0.17677,-0.56659 0.17677,1.76777 0,0.75484 -0.18083,1.75155 0,2.47487 0.032,0.12783 0.15098,0.22435 0.17678,0.35356 0.11556,0.57781 0,1.17851 0,1.76776 0,1.38014 0.006,2.70216 0.17678,4.06587 0.15039,1.20314 -0.23745,2.52505 0,3.71231 0.0258,0.1292 0.14478,0.22572 0.17678,0.35355 0.17777,0.71254 0.0735,1.57483 0.17677,2.2981 0.0186,0.13044 0.14058,0.22686 0.17678,0.35355 0.45476,1.59166 0.0336,0.26899 0.17678,1.41422 0.0373,0.29814 0.11787,0.58925 0.17677,0.88388 0.0589,0.17678 0.14618,0.34653 0.17678,0.53033 0.0872,0.52311 -0.0586,1.0639 0,1.59099 0.0206,0.1852 0.14618,0.34653 0.17678,0.53033 0.17597,1.05584 0,2.29162 0,3.35876 v 7.6014 c 0,0.833 -0.19442,2.06296 0,2.82842 0.1265,0.4981 0.47142,0.91335 0.70713,1.37002 0,0.22961 -0.0215,0.43605 -0.0442,0.66291 -0.0418,0.41802 0,0.86179 0,1.28164 0,0.61109 0.0552,1.24916 0,1.85615 -0.046,0.50596 -0.0918,0.99273 -0.17678,1.5026 -0.0855,0.5127 -0.18617,1.0256 -0.22097,1.5468 -0.0137,0.20578 0.0241,0.41389 0,0.61872 -0.0618,0.52555 -0.12747,0.4115 -0.22097,0.97227 -0.0192,0.11502 -0.0804,1.07765 -0.0884,1.14905 -0.0836,0.78059 -0.18995,1.56614 -0.30936,2.34229 -0.19896,1.29332 0.0506,-0.51174 -0.26516,1.19324 -0.0296,0.16 -0.0234,0.32476 -0.0442,0.48614 -0.44286,3.43221 0.14345,-1.26929 -0.26516,1.59099 -0.0104,0.0729 0.008,0.14777 0,0.22097 -0.0329,0.2961 -0.0742,0.59174 -0.13258,0.88388 -0.0238,0.11912 -0.0733,0.23302 -0.0884,0.35356 -0.0146,0.11694 0.0107,0.23618 0,0.35355 -0.0349,0.38397 -0.0827,0.76673 -0.13259,1.14905 -0.0213,0.16332 -0.0728,0.32217 -0.0884,0.48613 -0.0461,0.48395 0,0.97228 0,1.45841 0,0.92985 -0.0251,1.86028 0.0884,2.78423 l -0.48613,0.30936 h 3.88909 c 1.00214,0 1.77302,-0.11081 2.82842,-0.17677 1.69317,-0.10583 3.43061,0 5.12653,0 1.59406,0 3.38005,0.21405 4.94974,0 8.70236,-1.53571 0.12885,-0.20225 4.06587,-0.53033 0.66654,0.003 1.28801,-0.29885 1.94454,-0.35356 0.64594,-0.0538 1.29958,0.0645 1.94455,0 0.86505,-0.0865 1.46578,-0.39161 2.29809,-0.53033 0.82529,-0.13755 1.82037,0 2.65165,0 0.85714,0 1.60423,-0.17677 2.47488,-0.17677 1.7235,0 3.5975,0.21322 5.3033,0 0.73878,-0.0924 1.39098,-0.43904 2.12132,-0.53033 0.911,-0.11388 1.91033,0 2.82842,0 1.63143,0 3.15829,-0.0422 4.77298,-0.17678 0.99386,-0.0828 2.01309,0.0992 3.0052,0 0.29897,-0.0299 0.58491,-0.14688 0.88388,-0.17678 0.3518,-0.0352 0.71398,0.0693 1.06066,0 0.42066,-0.0841 0.81429,-0.28303 1.23744,-0.35355 0.29062,-0.0484 0.59498,0.0578 0.88388,0 0.31117,-0.0622 0.57273,-0.29132 0.88389,-0.35355 0.56239,-0.11248 1.19802,0.0712 1.76776,0 0.29815,-0.0373 0.58926,-0.11786 0.88389,-0.17678 0.35355,0 0.70856,0.032 1.06066,0 0.29923,-0.0272 0.58925,-0.11785 0.88388,-0.17678 0.35355,-0.0589 0.70347,-0.14701 1.06066,-0.17677 1.50917,-0.12577 0.67314,0.19821 2.2981,-0.17678 0.36313,-0.0838 0.69625,-0.27547 1.06066,-0.35355 1.79601,-0.38486 3.67003,-0.3364 5.48008,-0.53033 1.47756,-0.15832 2.93153,-0.59266 4.41941,-0.70711 0.35252,-0.0271 0.70815,0.0271 1.06066,0 0.8451,-0.065 2.00683,-0.25646 2.82843,-0.53033 1.68833,-0.56278 -0.25285,-0.19692 1.41421,-0.53033 0.84019,-0.16804 1.47936,-0.0858 2.2981,-0.17678 0.77031,-0.0856 1.5429,-0.17928 2.2981,-0.35355 0.3092,-0.0714 0.57411,-0.28472 0.88388,-0.35355 0.5177,-0.11505 1.06476,0.0658 1.59099,0 1.50378,-0.18798 2.94156,-0.58832 4.41942,-0.88389 0.52003,-0.104 1.06222,0.0407 1.59099,0 0.77276,-0.0594 1.52533,-0.29411 2.2981,-0.35355 2.24337,-0.17257 -0.19454,0.19174 2.29809,0 1.41501,-0.10885 3.61747,-0.34376 4.94975,-0.70711 0.35955,-0.0981 0.69686,-0.27271 1.06066,-0.35355 0.17257,-0.0384 0.35883,0.0429 0.53033,0 0.30785,-0.077 0.57412,-0.28472 0.88388,-0.35356 0.23009,-0.0511 0.47238,0.0213 0.70711,0 1.02785,-0.0934 1.98195,-0.4373 3.00521,-0.53033 0.7705,-0.07 1.53225,-0.081 2.29809,-0.17677 0.83001,-0.10375 1.53072,-0.45132 2.2981,-0.70711 0.34037,-0.11346 1.65516,-0.28677 1.94454,-0.35355 0.418,-0.0965 0.81679,-0.26942 1.23744,-0.35356 1.54386,-0.30877 3.05427,-0.14484 4.59619,-0.53033 0.95608,-0.23902 1.85419,-0.72151 2.82843,-0.88388 0.2325,-0.0387 0.47377,0.0333 0.70711,0 1.05283,-0.1504 2.1459,-0.32311 3.18198,-0.53033 0.57867,-0.11573 0.99056,-0.43796 1.59099,-0.53033 0.52739,-0.0811 1.06924,-0.065 1.59099,-0.17678 1.03854,-0.22254 0.67482,-0.40171 1.59099,-0.7071 1.07543,-0.35848 2.27933,-0.38328 3.35876,-0.70711 0.25241,-0.0757 0.4571,-0.27022 0.7071,-0.35355 0.26517,-0.0884 0.30936,0.0442 0.53033,0 0.42066,-0.0841 0.81022,-0.31472 1.23744,-0.35356 1.45011,-0.13182 1.12059,0.17648 2.2981,-0.17677 0.30394,-0.0912 0.58284,-0.25321 0.88388,-0.35356 1.60503,-0.53501 3.35643,-0.63994 4.94975,-1.23743 0.24674,-0.0925 0.4547,-0.27783 0.7071,-0.35356 0.34332,-0.10299 0.72063,-0.0634 1.06067,-0.17677 0.20155,-0.0672 0.33139,-0.27896 0.53033,-0.35356 0.45497,-0.17061 0.93205,-0.29328 1.41421,-0.35355 0.40929,-0.0512 0.84612,0.13044 1.23744,0 0.079,-0.0263 0.10224,-0.13951 0.17677,-0.17678 0.44275,-0.22137 0.96114,-0.24028 1.41422,-0.35355 0.12782,-0.032 0.2357,-0.11785 0.35355,-0.17678 0.17678,-0.0589 0.34761,-0.14023 0.53033,-0.17677 0.98043,-0.19609 0.42464,0.11298 1.59099,-0.35356 0.51157,-0.20462 1.54692,0 2.12132,0 l -0.26516,-0.7071 c -1.01139,0.0418 -1.73584,-2.50194 -2.20971,-3.0936 -0.0184,-0.023 -0.0676,0.0208 -0.0884,0 -0.0499,-0.0499 -0.11094,-0.28771 -0.17678,-0.35355 -0.0466,-0.0466 -0.13019,-0.0418 -0.17678,-0.0884 -0.24887,-0.005 -0.0225,-0.19928 -0.0884,-0.26516 -0.61493,-0.61493 0.008,0.0481 -0.44195,-0.17678 -0.0527,-0.0264 0.0417,-0.13511 0,-0.17678 -0.11785,-0.11785 -0.0848,0.1875 -0.17677,-0.0884 -0.0186,-0.0559 0.0186,-0.12088 0,-0.17678 -0.0962,-0.2885 -0.35857,-0.55038 -0.44194,-0.88388 -0.0482,-0.19297 0.0327,-0.42229 0,-0.61872 -0.046,-0.27599 -0.27633,-0.58523 -0.17678,-0.88389 0.10287,-0.30861 0.37554,-0.44911 0.53033,-0.7071 0.25356,-0.42261 -0.57955,0.1212 0.26516,-0.44194 0.10356,-0.069 0.34031,-0.0751 0.44195,-0.17678 0.0208,-0.0208 -0.0163,-0.0639 0,-0.0884 0.0462,-0.0693 0.11785,-0.11785 0.17677,-0.17678 0.091,-0.091 0.17418,-0.0858 0.26517,-0.17677 0.0417,-0.0417 -0.0417,-0.13511 0,-0.17678 0.0466,-0.0466 0.14023,-0.0336 0.17677,-0.0884 0.0631,-0.0947 0.0661,-0.48516 0.0884,-0.61872 0.0239,-0.14309 0.12566,-0.55375 0.17678,-0.7071 0.0132,-0.0395 0.0783,-0.048 0.0884,-0.0884 0.0214,-0.0858 -0.0279,-0.18131 0,-0.26517 0.009,-0.0279 0.0752,0.0264 0.0884,0 0,-0.64818 -0.0589,0.0442 0.0884,-0.17677 0.12427,-0.18642 0.10855,-0.50243 0.17677,-0.70711 0.0589,-0.14731 0.11785,-0.29463 0.17678,-0.44194 0.0295,0 0.0752,0.0263 0.0884,0 0.0395,-0.0791 -0.0625,-0.20267 0,-0.26517 0.14731,-0.14731 0.0884,0.32409 0.0884,-0.17677 l -3e-5,-0.0883 c -1.22087,-0.32198 -4.2513,-1.21736 -7.15946,-3.09359 -0.12381,-0.0799 -0.161,-0.24939 -0.26517,-0.35356 -0.23753,-0.23753 -0.55795,-0.38118 -0.79549,-0.61872 -0.0466,-0.0466 -0.0336,-0.14023 -0.0884,-0.17677 -0.13201,-0.088 -0.3074,-0.0927 -0.44194,-0.17678 -0.0598,-0.0374 -0.63706,-0.54867 -0.70711,-0.61872 -0.0208,-0.0208 0.0208,-0.0676 0,-0.0884 -0.31186,-0.31186 -0.48242,-0.34477 -0.79549,-0.61871 -0.9191,-0.80421 0.18992,0.12866 -0.61872,-0.7955 -0.097,-0.11087 -0.24939,-0.161 -0.35356,-0.26517 -0.3097,-0.3097 -0.58432,-0.65273 -0.88388,-0.97227 -0.19948,-0.21278 -0.37604,-0.45693 -0.61872,-0.61872 -0.10963,-0.0731 -0.24633,-0.10019 -0.35355,-0.17677 -0.38025,-0.27161 -0.63647,-0.78082 -0.97227,-1.06066 -0.0716,-0.0596 -0.20696,-0.0156 -0.26517,-0.0884 -0.0759,-0.0949 -0.0589,-0.2357 -0.0884,-0.35355 -0.11785,-0.11786 -0.24943,-0.22341 -0.35355,-0.35356 -0.0184,-0.023 0.0208,-0.0675 0,-0.0884 -0.0208,-0.0208 -0.0676,0.0208 -0.0884,0 -0.0751,-0.0751 -0.10166,-0.19005 -0.17677,-0.26516 -0.0466,-0.0466 -0.1346,-0.0378 -0.17678,-0.0884 -0.45266,-0.5432 -0.8177,-1.11973 -1.23744,-1.67938 -0.175,-0.23333 -0.42252,-0.4029 -0.61872,-0.61872 -0.37706,-0.41477 -0.70915,-0.90402 -1.06066,-1.32582 -0.46436,-0.55724 -1.03308,-1.03611 -1.5026,-1.59099 -0.78096,-0.92296 -1.44083,-1.97117 -2.2981,-2.82843 -0.29609,-0.2961 -0.67617,-0.4994 -0.97227,-0.79549 -0.20833,-0.20834 -0.32199,-0.49878 -0.53033,-0.70711 -0.1334,-0.1334 -0.31446,-0.21449 -0.44194,-0.35355 -0.5326,-0.58103 -0.98973,-1.25781 -1.5026,-1.85616 -0.39826,-0.46463 -0.8957,-0.8957 -1.32583,-1.32582 -0.10135,-0.10136 -0.28488,-0.23911 -0.35355,-0.35356 -0.1842,-0.307 -0.26745,-0.70939 -0.53033,-0.97227 -0.16117,-0.16117 -0.16363,-0.008 -0.26516,-0.17678 -0.16397,-0.27327 -0.37222,-0.51879 -0.53033,-0.79549 -0.0292,-0.0512 0.0327,-0.12775 0,-0.17678 -0.0366,-0.0548 -0.1302,-0.0418 -0.17678,-0.0884 -0.23162,-0.23162 -0.18561,-0.29166 -0.26517,-0.53033 -0.0579,-0.17365 -0.26516,-0.0238 -0.26516,-0.26516 L 785.75,459.5 c 0,-0.10371 -0.23139,-0.4043 -0.375,-0.5 -0.0347,-0.0231 -0.0955,0.0295 -0.125,0 -0.0274,-0.0274 -0.3396,-0.5541 -0.375,-0.625 -0.2601,-0.52022 0.009,0.13363 -0.25,-0.125 -0.0295,-0.0295 0.0373,-0.1064 0,-0.125 -0.0745,-0.0373 -0.1755,0.0373 -0.25,0 -0.0373,-0.0186 0.0231,-0.0903 0,-0.125 -0.0654,-0.0981 -0.1519,-0.1846 -0.25,-0.25 -0.0648,-0.0432 -0.3246,-0.0746 -0.375,-0.125 -0.0295,-0.0295 0.0295,-0.0955 0,-0.125 -0.0295,-0.0295 -0.0877,0.0186 -0.125,0 -0.40395,-0.20198 -0.85652,-0.52516 -1.25,-0.75 -0.19482,-0.11133 -0.4326,-0.13456 -0.625,-0.25 -0.10106,-0.0606 -0.14459,-0.1973 -0.25,-0.25 -0.53603,-0.26801 -1.22471,-0.29669 -1.75,-0.625 -0.14991,-0.0937 -0.2251,-0.2813 -0.375,-0.375 -0.57493,-0.35933 -1.33698,-0.56958 -1.875,-1 -0.35183,-0.28146 -0.36038,-0.34576 -0.5,-0.625 -0.0716,-0.1433 -0.26082,-0.1739 -0.375,-0.25 -0.22435,-0.14957 -0.52002,-0.59252 -0.625,-0.75 -0.0517,-0.0775 -0.0833,-0.1667 -0.125,-0.25 0,-0.0417 0.0186,-0.0877 0,-0.125 -0.19344,-0.38688 -0.64081,-0.79714 -0.875,-1.125 -0.67688,-0.94764 -1.38976,-1.96818 -2.375,-2.625 -0.79552,-0.53035 -1.29721,-0.838 -1.875,0.125 -0.096,0.15991 -0.4737,0.89494 -0.5,1 -0.0953,0.38108 0.17699,0.17202 -0.125,0.625 -0.0231,0.0347 -0.0833,0 -0.125,0 -0.0417,0.125 -0.0833,0.25 -0.125,0.375 -0.16024,0.80119 0.13438,1.6937 0,2.5 -0.0829,0.49715 -0.1681,1.00884 -0.25,1.5 -0.12016,0.7209 -0.12985,0.0291 -0.25,0.75 -0.0343,0.2055 0.0774,0.43157 0,0.625 -0.25629,0.64072 -0.82608,1.17931 -1,1.875 -0.0202,0.0808 0.0202,0.1692 0,0.25 -0.0122,0.0489 -0.5325,0.9075 -0.625,1 -0.10623,0.10623 -0.2788,0.13459 -0.375,0.25 -0.505,0.606 -0.0613,0.40565 -0.75,0.75 -0.7223,0.36115 -0.6024,0.6506 -1.5,0.875 -0.49662,0.12415 -3.54292,0.0274 -4,-0.125 -0.34167,-0.11389 -0.69449,-0.39816 -1,-0.5 -0.0791,-0.0263 -0.1709,0.0263 -0.25,0 -0.40457,-0.13486 -0.58488,-0.81366 -1,-1.125 -0.0745,-0.0559 -0.1667,-0.0833 -0.25,-0.125 -0.0417,-0.0833 -0.0591,-0.1841 -0.125,-0.25 -0.0295,-0.0295 -0.0955,0.0295 -0.125,0 -0.3036,-0.3036 0.0372,-0.18355 -0.25,-0.375 -0.53908,-0.35939 -0.8113,-0.8113 -1.25,-1.25 -0.526,-0.526 0.006,0.63795 -0.625,-0.625 -0.0373,-0.0745 0.0373,-0.1755 0,-0.25 -0.0527,-0.10541 -0.1793,-0.1557 -0.25,-0.25 -0.26222,-0.34963 -0.43337,-0.74174 -0.625,-1.125 -0.10866,-0.21731 -0.20321,-0.45321 -0.375,-0.625 -0.0295,-0.0295 -0.1064,0.0373 -0.125,0 -0.0373,-0.0745 0.0373,-0.1755 0,-0.25 -0.0527,-0.10541 -0.1793,-0.1557 -0.25,-0.25 -0.0559,-0.0745 -0.0591,-0.1841 -0.125,-0.25 -0.0295,-0.0295 -0.0955,0.0295 -0.125,0 -0.0589,-0.0589 0.0373,-0.1755 0,-0.25 -0.22199,-0.44399 -0.75,-0.85663 -0.75,-1.25 0,-0.16508 0.0835,-0.7914 0,-0.875 -0.0295,-0.0295 -0.0877,0.0186 -0.125,0 -0.10541,-0.0527 -0.1519,-0.1846 -0.25,-0.25 -1.765,-1.17667 -0.37372,-0.15529 -1.5,-1 -0.52585,-0.39439 -0.98064,-1.05458 -1.625,-0.625 -0.45158,0.30105 -0.4457,0.71208 -0.625,1.25 -0.23672,0.71014 -0.77632,1.20395 -1,1.875 -0.0659,0.19764 0.0409,0.42071 0,0.625 -0.0116,0.0578 -0.118,0.0664 -0.125,0.125 -0.0933,0.83972 0.16636,1.79321 0,2.625 -0.0362,0.18097 -0.2138,0.44402 -0.25,0.625 -0.1561,0.78028 0.17222,0.0306 -0.125,0.625 -0.31846,0.63692 -0.28458,0.68972 -0.75,1 -0.22361,0.14907 -0.54876,-0.0847 -0.75,-0.125 -0.48872,-0.0978 -1.01034,-0.0868 -1.5,-0.25 -0.52966,-0.17655 -0.72194,-0.39869 -1.25,-0.625 -0.0766,-0.0328 -0.1755,0.0373 -0.25,0 -0.4099,-0.20495 -0.81077,-0.73646 -1.25,-1 -0.28837,-0.17302 -0.83952,-0.46452 -1.125,-0.75 -0.14732,-0.14732 -0.21682,-0.36442 -0.375,-0.5 -0.14148,-0.12127 -0.36824,-0.11824 -0.5,-0.25 -0.26941,-0.2694 -0.37853,-0.81692 -0.625,-1.125 -0.11043,-0.13804 -0.26894,-0.23358 -0.375,-0.375 -0.13013,-0.17351 -0.5955,-1.5433 -0.625,-1.75 -0.0878,-0.61435 0.1946,-1.41619 0,-2 -0.2255,-0.67638 -0.17,-1.52999 -0.25,-2.25 -0.023,-0.20663 -0.0792,-1.02079 -0.125,-1.25 -0.0258,-0.1292 -0.0833,-0.25 -0.125,-0.375 -0.0417,-0.0833 -0.1024,-0.1596 -0.125,-0.25 -0.058,-0.23216 0.0293,-0.66991 0,-0.875 -0.0723,-0.50627 -0.2934,-1.01017 -0.375,-1.5 -0.0274,-0.1644 0.0404,-0.33831 0,-0.5 -0.0101,-0.0404 -0.1118,0.0395 -0.125,0 -0.0347,-0.10417 0.0231,-0.48611 0,-0.625 -0.0282,-0.16946 -0.0833,-0.33333 -0.125,-0.5 -0.0417,-0.125 -0.1033,-0.24503 -0.125,-0.375 -0.12459,-0.74755 0.20745,-1.64892 0,-2.375 -0.0616,-0.21575 -0.1956,-0.40732 -0.25,-0.625 -0.0696,-0.27834 0,-0.85352 0,-1.125 0,-1.14013 0.15596,-2.78328 0,-3.875 -0.0828,-0.57922 -0.32999,-0.93249 -0.625,-1.375 -0.62473,-0.9371 0.14961,-0.0423 -0.5,-1.125 -0.091,-0.15159 -0.76632,0.58121 -0.375,-0.375 -0.12104,-0.24208 -0.17003,-0.67003 -0.375,-0.875 -0.2951,-0.2951 0.0657,0.69721 -0.25,-0.25 -0.18594,-0.55782 0.10221,-2.28451 0,-3 -0.0738,-0.51637 -0.11099,-0.25538 -0.375,-0.625 -0.14122,-0.1977 -0.21947,-0.43836 -0.375,-0.625 -0.42411,-0.50893 -1.91187,-0.50999 -2.25,-0.625 l -0.125,-0.25 c -0.27023,0 -0.56159,0.56159 -0.75,0.75 -0.0589,0.0589 -0.1755,-0.0373 -0.25,0 -0.0889,0.0444 -0.1611,0.2056 -0.25,0.25 -0.0745,0.0373 -0.1911,-0.0589 -0.25,0 -0.0295,0.0295 0.0186,0.0877 0,0.125 -0.21652,0.43303 -0.89662,0.76441 -1.25,1 -1.61683,1.07788 -3.3502,2.20134 -5.125,3 -0.52924,0.23815 -1.10103,0.37549 -1.625,0.625 -1.09531,0.52157 -2.04988,1.29769 -3.25,1.625 -0.24452,0.0667 -0.50412,0.0635 -0.75,0.125 -0.47314,0.11828 -0.89678,0.4044 -1.375,0.5 -0.20429,0.0409 -0.41876,-0.0295 -0.625,0 -1.11433,0.15919 -1.83903,0.3964 -2.875,0.5 -0.54057,0.0541 -1.08546,0.0615 -1.625,0.125 -0.17062,0.0201 -0.32864,0.1128 -0.5,0.125 -0.41561,0.0297 -0.83426,-0.0277 -1.25,0 -0.83078,0.0554 -1.6707,0.2921 -2.5,0.375 -0.2073,0.0207 -0.4195,-0.0342 -0.625,0 -0.46861,0.0781 -0.93834,0.18786 -1.375,0.375 -0.13809,0.0592 -0.23434,0.1972 -0.375,0.25 -0.39787,0.1492 -0.83943,0.14051 -1.25,0.25 -0.79098,0.21093 -1.58788,0.40011 -2.375,0.625 -0.61416,0.17547 -1.51555,0.5379 -2.125,0.625 -0.12375,0.0177 -0.25373,-0.0303 -0.375,0 -0.21768,0.0544 -0.40732,0.1956 -0.625,0.25 -0.3907,0.0977 -0.85964,0.0383 -1.25,0.125 -0.21904,0.0487 -0.40498,0.206 -0.625,0.25 -1.50608,0.30121 -3.2405,0.125 -4.75,0.125 H 684 674.875 c -1.64425,0 -3.35957,0.14913 -5,0 -0.33455,-0.0304 -0.66667,-0.0833 -1,-0.125 -0.125,-0.0417 -0.24389,-0.1119 -0.375,-0.125 z"
         id="path105" />
    </g>
  </g>
</svg>
