<?xml version="1.0" encoding="UTF-8" standalone="no"?>
<!-- Created with Inkscape (http://www.inkscape.org/) -->

<svg
   version="1.1"
   id="svg2"
   width="130.82706"
   height="91.085121"
   viewBox="0 0 130.82706 91.085121"
   xmlns="http://www.w3.org/2000/svg"
   xmlns:svg="http://www.w3.org/2000/svg">
  <defs
     id="defs6">
    <linearGradient
       id="swatch77">
      <stop
         style="stop-color:#e2c69e;stop-opacity:1;"
         offset="0"
         id="stop77" />
    </linearGradient>
  </defs>
  <g
     id="layer66"
     style="display:inline"
     transform="translate(-850.54794,-350.19762)">
    <g
       id="layer55"
       style="display:inline">
      <path
         style="display:inline;fill:#969696;fill-opacity:1;stroke:none;stroke-opacity:1"
         d="m 889.23096,434.64972 c -0.11795,-0.0786 -0.19819,-0.15427 -0.30936,-0.22097 -0.04,-0.024 -0.0927,-0.0202 -0.13258,-0.0442 -0.0737,-0.0442 -0.0737,-0.0884 -0.13258,-0.13258 -0.37332,-0.27999 -0.73288,-0.59415 -1.01647,-0.97227 -0.009,-0.0118 0.009,-0.0324 0,-0.0442 -0.0375,-0.05 -0.0979,-0.0806 -0.13258,-0.13259 -0.0258,-0.0388 -0.0202,-0.0927 -0.0442,-0.13258 -0.0214,-0.0357 -0.067,-0.0527 -0.0884,-0.0884 -0.048,-0.0799 -0.0467,-0.18186 -0.0884,-0.26516 -0.009,-0.0186 -0.0472,-0.0235 -0.0442,-0.0442 0.0133,-0.1064 0.059,-0.20621 0.0884,-0.30931 0,-0.23353 -0.1785,-0.34713 -0.30936,-0.53033 -0.0594,-0.0831 -0.18437,-0.21786 -0.22097,-0.30936 -0.0226,-0.0564 -0.0216,-0.12037 -0.0442,-0.17677 -0.0274,-0.0684 -0.10519,-0.10838 -0.13259,-0.17678 -0.0109,-0.0274 0.0132,-0.0621 0,-0.0884 -0.0373,-0.0745 -0.12837,-0.10897 -0.17677,-0.17677 -0.0737,-0.10312 -0.15067,-0.20392 -0.22097,-0.30936 -0.002,-0.003 -0.005,-0.59512 0,-0.61872 0.0744,-0.37224 0.22305,-0.71265 0.35355,-1.06066 0.0213,-0.0569 0.0141,-0.12408 0.0442,-0.17678 0.031,-0.0543 0.0942,-0.0833 0.13259,-0.13258 0.14676,-0.1887 0.24686,-0.43766 0.39774,-0.61872 0.17019,-0.20422 0.30591,-0.2624 0.53033,-0.44194 0.26869,-0.21495 -0.21791,0.0382 0.39775,-0.35355 0.13337,-0.0849 0.42781,-0.0371 0.61872,-0.13259 0.11328,-0.0566 0.27006,-0.17837 0.39775,-0.22097 0.0713,-0.0238 0.15037,-0.0185 0.22097,-0.0442 0.25747,-0.0936 0.47801,-0.24866 0.7513,-0.30936 0.0432,-0.01 0.0895,0.01 0.13258,0 0.26117,-0.058 0.24614,-0.10098 0.48614,-0.17678 0.26243,-0.0829 0.53441,-0.13397 0.79549,-0.22097 0.2636,-0.0879 0.19725,-0.10458 0.48614,-0.17678 0.34864,-0.0872 0.80154,-0.14017 1.14905,-0.17677 0.0879,-0.009 0.17726,0.01 0.26516,0 0.71798,-0.0798 1.44911,-0.16967 2.16552,-0.26517 0.21261,-0.0283 0.40992,-0.12767 0.61872,-0.17677 0.25043,-0.0589 0.50015,-0.12098 0.7513,-0.17678 0.20337,-0.0452 0.4166,-0.0379 0.61871,-0.0884 0.077,-0.0193 0.14268,-0.0754 0.22098,-0.0884 0.26758,-0.0446 0.57288,0.0174 0.83968,-0.0442 0.14987,-0.0346 0.29086,-0.10378 0.44195,-0.13258 0.15984,-0.0304 0.32468,-0.024 0.48613,-0.0442 0.80381,-0.10047 1.6327,-0.19396 2.43068,-0.35355 0.27655,-0.0553 0.52046,-0.12178 0.7955,-0.17678 0.10214,-0.0204 0.20862,-0.0177 0.30936,-0.0442 0.28385,-0.0747 0.55651,-0.18797 0.83969,-0.26517 0.16204,-0.0442 0.32012,-0.10708 0.48613,-0.13258 0.0874,-0.0134 0.17797,0.0145 0.26517,0 1.73897,-0.28983 0.06,-0.0376 0.66291,-0.17678 0.75567,-0.17438 0.97367,-0.2685 1.63518,-0.61872 0.19479,-0.10312 0.30839,-0.14073 0.48614,-0.26516 0.35051,-0.24536 0.62234,-0.54762 0.88388,-0.88388 0.20671,-0.26577 -0.0571,-0.0232 0.30936,-0.44195 0.0217,-0.0248 0.067,-0.0192 0.0884,-0.0442 0.0374,-0.0436 0.23837,-0.34157 0.26517,-0.44194 0.0944,-0.35434 0.0884,-0.66075 0.0884,-1.01647 0,-0.28626 -0.0697,-0.6558 -0.26516,-0.88388 -0.0346,-0.0403 -0.0921,-0.0541 -0.13258,-0.0884 -0.31299,-0.26484 -0.5164,-0.58061 -0.92808,-0.66291 -0.33207,-0.0664 -0.92754,0 -1.28163,0 -0.43291,0 -0.89494,-0.0479 -1.32583,0 -0.12626,0.014 -0.33529,0.10588 -0.44194,0.13258 -0.12594,0.0315 -0.27639,0.048 -0.39775,0.0884 -0.25725,0.0857 -0.55971,0.22659 -0.79549,0.35355 -0.15126,0.0815 -0.28109,0.20487 -0.44194,0.26517 -0.0414,0.0155 -0.0901,-0.0121 -0.13259,0 -0.19095,0.0546 -0.38279,0.16197 -0.57452,0.22097 -0.49845,0.15337 -1.03118,0.31185 -1.5468,0.39775 -0.69019,0.1151 -1.46121,0.018 -2.16551,0.0884 -0.95564,0.0956 -1.91015,0.33482 -2.87259,0.22103 h -2.69585 c -0.43888,0 -0.88788,0.0243 -1.32582,0 -0.11859,-0.007 -0.2357,-0.0295 -0.35356,-0.0442 -0.33882,-0.0147 -0.67764,-0.0295 -1.01646,-0.0442 -0.5282,-0.0196 -1.06231,0 -1.59099,0 -0.90951,0 -1.83153,0.0478 -2.74004,0 -0.2916,-0.0154 -0.55679,-0.0891 -0.83969,-0.13259 -0.30275,-0.0466 -0.73459,-0.0179 -1.01647,-0.0884 -0.24274,-0.0607 -0.74538,-0.19592 -0.97227,-0.30936 -0.0659,-0.033 -0.11237,-0.0968 -0.17677,-0.13259 -0.0693,-0.0385 -0.15208,-0.049 -0.22098,-0.0884 -0.18455,-0.10546 -0.26916,-0.37603 -0.39774,-0.53033 -0.23077,-0.27696 -0.12008,-0.0676 -0.26517,-0.30936 -0.0611,-0.10185 -0.10547,-0.21436 -0.17677,-0.30936 -0.0198,-0.0264 -0.0686,-0.0178 -0.0884,-0.0442 -0.0713,-0.095 -0.11298,-0.20916 -0.17678,-0.30936 -0.0396,-0.0621 -0.0968,-0.11237 -0.13258,-0.17677 -0.0545,-0.0981 -0.0653,-0.21966 -0.13258,-0.30936 -0.069,-0.0921 -0.15498,-0.17087 -0.22098,-0.26517 -0.0378,-0.054 -0.0489,-0.12407 -0.0884,-0.17677 -0.05,-0.0667 -0.12898,-0.10848 -0.17678,-0.17678 -0.0567,-0.081 -0.0796,-0.18177 -0.13258,-0.26517 -0.0421,-0.0662 -0.36825,-0.44683 -0.39775,-0.48613 -0.17678,-0.2357 -0.36137,-0.46574 -0.53033,-0.70711 -0.23062,-0.32945 -0.20699,-0.46888 -0.44191,-0.79527 0,-0.13373 -0.032,-0.31389 0,-0.44195 0.008,-0.032 0.0382,-0.0561 0.0442,-0.0884 0.009,-0.0434 -0.0198,-0.0931 0,-0.13259 0.028,-0.0559 0.0936,-0.0838 0.13258,-0.13258 0.056,-0.07 0.26616,-0.45941 0.30936,-0.57452 0.0264,-0.0703 0.0163,-0.15127 0.0442,-0.22097 0.005,-0.0137 0.0319,0.008 0.0442,0 0.0347,-0.0231 0.067,-0.0527 0.0884,-0.0884 0.25486,-0.42477 -0.20269,0.18186 0.13258,-0.26517 0.0896,-0.11942 0.61699,-0.46313 0.7513,-0.53033 0.26138,-0.13069 0.59667,-0.21726 0.88389,-0.26516 0.0804,-0.0134 0.50958,-0.0563 0.61872,-0.0884 0.32365,-0.0952 0.6565,-0.23514 0.97227,-0.35355 0.144,-0.054 0.29914,-0.0755 0.44194,-0.13259 0.0193,-0.008 0.024,-0.0392 0.0442,-0.0442 0.28223,-0.0706 0.55485,-0.0647 0.83969,-0.0884 0.25653,-0.0214 0.50195,-0.12688 0.7513,-0.17678 0.13081,-0.0262 0.27428,0.0603 0.39775,-0.0442 0.28432,-0.0569 0.58049,-0.13556 0.83969,-0.26517 0.0768,-0.0384 0.14277,-0.097 0.22097,-0.13258 0.21357,-0.0971 0.45571,-0.15005 0.66291,-0.26516 0.14147,-0.0786 0.30048,-0.18657 0.44195,-0.26517 0.0465,-0.0258 0.095,-0.0508 0.13258,-0.0884 0.0577,-0.0577 0.1443,-0.55222 0.0884,-0.57452 -0.0697,-0.0279 -0.14877,-0.0236 -0.22097,-0.0442 -0.18982,-0.0542 -0.3915,-0.18387 -0.57453,-0.26517 -0.12739,-0.0566 -0.28079,-0.23006 -0.39775,-0.26516 -0.13009,-0.039 -0.26516,-0.0589 -0.39774,-0.0884 -0.0295,-0.0295 -0.0511,-0.0698 -0.0884,-0.0884 -0.1833,-0.0917 -0.38391,-0.017 -0.57453,-0.0442 -0.20831,-0.0298 -0.42,-0.0884 -0.61871,-0.13258 -0.24834,-0.0552 -0.50188,-0.0607 -0.75131,-0.0884 -0.32672,-0.0363 -0.70143,-0.0426 -1.01646,-0.13258 -0.10788,-0.0308 -0.20392,-0.0943 -0.30936,-0.13258 -0.27195,-0.0989 -0.0792,-0.005 -0.35355,-0.0442 -0.43971,-0.0628 0.23792,-0.0337 -0.30936,-0.0884 -0.11727,-0.0117 -0.23689,0.0167 -0.35356,0 -0.22308,-0.0319 -0.43946,-0.10339 -0.66291,-0.13259 -0.29361,-0.0383 -0.58926,-0.0589 -0.88388,-0.0884 -0.11785,-0.0295 -0.23349,-0.0699 -0.35356,-0.0884 -0.0728,-0.0112 -0.14907,0.016 -0.22097,0 -0.19559,-0.0435 -0.38229,-0.12028 -0.57452,-0.17678 -0.1303,-0.0383 -0.2689,-0.0455 -0.39775,-0.0884 -0.23588,-0.0786 -0.43373,-0.27025 -0.66291,-0.35355 -0.0842,-0.0306 -0.18497,-0.004 -0.26517,-0.0442 -0.13176,-0.0659 -0.23098,-0.18346 -0.35355,-0.26516 -0.24819,-0.16546 -0.49678,-0.33059 -0.7513,-0.48614 -0.0677,-0.0414 -0.15407,-0.0458 -0.22097,-0.0884 -0.0971,-0.0618 -0.16757,-0.15997 -0.26517,-0.22097 -0.025,-0.0156 -0.0634,0.0156 -0.0884,0 -0.26054,-0.16284 -0.49892,-0.39425 -0.7513,-0.57452 -0.38141,-0.27244 -0.73445,-0.54866 -1.10485,-0.83969 -0.0418,-0.0328 -0.0986,-0.0476 -0.13258,-0.0884 -0.0422,-0.0506 -0.0455,-0.12677 -0.0884,-0.17677 -0.17441,-0.20348 -0.38145,-0.26234 -0.53033,-0.53033 -0.0295,-0.0531 -0.008,-0.12818 -0.0442,-0.17678 -0.0566,-0.0755 -0.15957,-0.10518 -0.22097,-0.17678 -0.0303,-0.0354 -0.0211,-0.0922 -0.0442,-0.13258 -0.22176,-0.38804 -0.0551,0.0666 -0.30936,-0.44194 -0.0132,-0.0264 0.0156,-0.0634 0,-0.0884 -0.11433,-0.18293 -0.32015,-0.34106 -0.35355,-0.57452 -0.0104,-0.0729 0.0154,-0.14898 0,-0.22098 -0.003,-0.0133 -0.16338,-0.45429 -0.17678,-0.57452 -0.008,-0.0732 0.008,-0.14777 0,-0.22097 -0.0182,-0.1637 -0.0702,-0.32244 -0.0884,-0.48614 -0.0501,-0.45104 0.0411,-0.91798 0,-1.37002 -0.0486,-0.53424 -0.11553,-1.10796 -0.22097,-1.63518 -0.0637,-0.31869 -0.18096,-0.65648 -0.26516,-0.97227 -0.1321,-0.49514 0.0521,0.0757 -0.0884,-0.48614 -0.0901,-0.36048 -0.26346,-0.70017 -0.35356,-1.06066 -0.0217,-0.0869 -0.0206,-0.17866 -0.0442,-0.26516 -0.05,-0.18343 -0.16427,-0.35072 -0.22097,-0.53033 -0.0786,-0.24893 -0.15767,-0.49806 -0.22097,-0.7513 -0.0107,-0.0429 0.005,-0.0887 0,-0.13259 -0.0884,-0.70711 0,0.53033 -0.13258,-0.66291 -0.0823,-0.7404 0.10613,0.0504 -0.0442,-0.7513 -0.04,-0.21314 -0.15508,-0.44587 -0.17678,-0.66291 -0.0103,-0.10261 0.0114,-0.20687 0,-0.30936 -0.004,-0.0328 -0.0295,-0.0589 -0.0442,-0.0884 0.0147,-0.14729 0.0295,-0.29458 0.0442,-0.44187 -0.1194,-0.23871 -0.0884,-0.62081 -0.0884,-0.88389 0,-0.57302 0.0965,-1.74551 -0.0884,-2.2539 -0.0483,-0.13296 -0.39004,-0.31905 -0.48614,-0.39775 -0.4994,-0.4086 -1.04306,-0.77789 -1.5026,-1.23743 -0.0521,-0.0521 -0.0805,-0.12468 -0.13258,-0.17678 -0.16054,-0.16054 -0.42448,-0.22269 -0.57453,-0.39775 -0.13044,-0.15219 -0.49852,-0.71905 -0.57452,-0.92808 -0.0306,-0.0842 -0.0159,-0.18016 -0.0442,-0.26516 -0.0168,-0.0504 -0.0646,-0.0851 -0.0884,-0.13258 -0.0563,-0.11258 -0.0815,-0.23854 -0.13259,-0.35356 -0.0891,-0.20036 -0.21196,-0.37969 -0.30936,-0.57452 -0.007,-0.0132 0.009,-0.0324 0,-0.0442 -0.26369,-0.35156 -0.47095,-0.23211 -0.88388,-0.35356 -0.0824,-0.0242 -0.13947,-0.10538 -0.22097,-0.13258 -0.27318,-0.0911 -1.32527,-0.0774 -1.59099,-0.0442 -0.39005,0.0487 -0.53854,0.36792 -0.70711,0.66291 -0.1422,0.24885 -0.40831,0.51385 -0.57452,0.7513 -0.19199,0.27427 -0.37822,0.56486 -0.57453,0.83969 -0.0178,0.0249 -0.29455,0.34245 -0.30935,0.35355 -0.0236,0.0177 -0.0634,-0.0156 -0.0884,0 -0.17755,0.11097 -0.31193,0.28161 -0.48614,0.39775 -0.1871,0.12473 -0.38573,0.23139 -0.57452,0.35355 -0.0618,0.04 -0.11208,0.0973 -0.17678,0.13259 -0.0985,0.0537 -0.21466,0.0724 -0.30936,0.13258 -0.21756,0.13844 -0.17373,0.19621 -0.35355,0.35355 -0.0646,0.0566 -0.14947,0.085 -0.22097,0.13258 -0.39064,0.26043 -0.77593,0.54265 -1.19325,0.7513 -0.16797,0.084 -0.30662,0.27376 -0.48613,0.35356 -0.5954,0.26462 -1.63056,-0.004 -2.16552,-0.30936 -0.13596,-0.0777 -0.22827,-0.21536 -0.35355,-0.30936 -0.46695,-0.35021 -0.17657,-0.14594 -0.66291,-0.70711 -0.0682,-0.0787 -0.16167,-0.13527 -0.22097,-0.22097 -0.075,-0.10833 -0.11368,-0.23788 -0.17678,-0.35355 -0.24088,-0.44152 0.0506,0.12012 -0.17678,-0.22097 -0.10359,-0.15539 -0.17255,-0.30514 -0.30936,-0.44194 -0.0233,-0.0233 -0.0624,-0.024 -0.0884,-0.0442 -0.10721,-0.0834 -0.20071,-0.18366 -0.30936,-0.26516 -0.38243,-0.28682 -0.80316,-0.51919 -1.19325,-0.7955 -0.41452,-0.29362 -0.76985,-0.80007 -1.06066,-1.14905 -0.12547,-0.15056 -0.0617,-0.15014 -0.22097,-0.30936 -0.0521,-0.0521 -0.12887,-0.0767 -0.17677,-0.13258 -0.0429,-0.05 -0.0497,-0.12348 -0.0884,-0.17678 -0.30884,-0.42464 -0.38688,-0.36975 -0.53033,-0.97227 -0.0373,-0.15656 0.0142,-0.69966 0.0442,-0.83969 0.0166,-0.0776 0.0675,-0.14447 0.0884,-0.22097 0.0829,-0.30376 0.10936,-0.63046 0.22097,-0.92808 0.11418,-0.30442 0.0901,-0.0516 0.17678,-0.44194 0.0342,-0.15417 -0.0501,-0.117 0.0442,-0.26516 0.0791,-0.12429 0.18607,-0.22927 0.26517,-0.35356 0.025,-0.0393 0.0234,-0.0909 0.0442,-0.13258 0.112,-0.22399 0.22471,-0.44817 0.35355,-0.66291 0.0485,-0.0809 0.12578,-0.14167 0.17678,-0.22097 0.16485,-0.25643 0.3381,-0.61741 0.48614,-0.88388 0.13603,-0.24486 0.32587,-0.53434 0.44194,-0.7955 0.0247,-0.0555 0.0216,-0.12038 0.0442,-0.17678 0.0693,-0.17334 0.19657,-0.34746 0.26517,-0.53033 0.1578,-0.42081 0.35288,-0.82339 0.53033,-1.23743 0.0909,-0.21203 0.16324,-0.45906 0.26516,-0.66292 0.033,-0.0659 0.0997,-0.11087 0.13259,-0.17677 0.0272,-0.0543 0.0105,-0.12628 0.0442,-0.17678 0.0295,-0.0442 0.0923,-0.0538 0.13258,-0.0884 0.0633,-0.0542 0.10748,-0.13057 0.17678,-0.17677 0.0245,-0.0163 0.0621,0.0132 0.0884,0 0.0659,-0.033 0.11787,-0.0884 0.17677,-0.13259 0.0295,-0.0295 0.0522,-0.0677 0.0884,-0.0884 0.3292,-0.18811 0.29435,-0.0528 0.61872,0.13259 0.0974,0.0557 0.20797,0.0846 0.30936,0.13258 0.387,0.18332 0.77582,0.36458 1.14905,0.57452 0.0545,0.0306 0.0767,0.10459 0.13258,0.13259 0.0132,0.007 0.0338,-0.0104 0.0442,0 0.19901,0.19901 0.40173,0.39656 0.57452,0.61871 0.0405,0.052 0.0476,0.12508 0.0884,0.17678 0.61821,0.78307 0.41849,0.46996 0.97227,1.06066 0.14187,0.15133 0.30783,0.3966 0.48614,0.53033 0.0259,0.0194 0.19797,-0.0654 0.22097,-0.0884 0.0733,-0.0733 0.44213,-0.46673 0.48613,-0.53033 0.0863,-0.1247 0.14727,-0.26516 0.22097,-0.39774 0.0442,-0.0589 0.0898,-0.11688 0.13259,-0.17678 0.10793,-0.15111 0.3281,-0.50489 0.44194,-0.61872 0.19726,-0.19726 0.46475,-0.33217 0.66291,-0.53033 0.19376,-0.19376 0.31496,-0.44894 0.48614,-0.66291 0.0822,-0.10276 0.34294,-0.33232 0.39774,-0.44194 0.15889,-0.31778 0.1255,-0.86786 0.0442,-1.19325 -0.007,-0.0286 0.0208,-0.0676 0,-0.0884 -0.033,-0.033 -0.0997,-0.0113 -0.13258,-0.0442 -0.0329,-0.033 -0.0295,-0.0884 -0.0442,-0.13258 -0.0295,-0.0884 -0.0658,-0.17477 -0.0884,-0.26517 -0.18929,-0.75719 -0.24608,-1.29668 -1.06063,-1.63514 -0.20578,-0.20587 0.0303,0.0606 -0.13258,-0.26517 -0.007,-0.0132 -0.0362,0.0123 -0.0442,0 -0.0258,-0.0388 -0.0202,-0.0926 -0.0442,-0.13258 -0.0214,-0.0357 -0.0698,-0.0511 -0.0884,-0.0884 -0.0417,-0.0833 -0.0467,-0.18186 -0.0884,-0.26516 -0.0567,-0.11335 -0.16428,-0.19602 -0.22098,-0.30936 -0.0342,-0.0687 -0.01,-0.19647 -0.0442,-0.26517 -0.0768,-0.15368 -0.31605,-0.42451 -0.35355,-0.57452 -0.0179,-0.0715 0.0233,-0.15107 0,-0.22097 -0.0737,-0.22103 -0.29216,-0.44798 -0.35356,-0.66291 -0.0734,-0.25693 -0.14463,-0.51024 -0.26516,-0.7513 -0.0238,-0.0475 -0.0668,-0.0841 -0.0884,-0.13259 -0.18,-0.40494 -0.0422,-0.11894 -0.0884,-0.44194 -0.0212,-0.14841 -0.13667,-0.30169 -0.17677,-0.44194 -0.1005,-0.35166 -0.0442,-0.78668 -0.0442,-1.14905 v -1.81196 -2.07713 c 0,-0.33267 -0.0411,-0.68759 0,-1.01646 0.033,-0.26369 0.16337,-0.49218 0.22097,-0.7513 0.006,-0.0288 -0.0132,-0.0621 0,-0.0884 0.0187,-0.0373 0.067,-0.0527 0.0884,-0.0884 0.0479,-0.0799 0.0517,-0.17957 0.0884,-0.26517 0.0493,-0.11501 0.13668,-0.23322 0.17678,-0.35355 0.0192,-0.0576 0.017,-0.12248 0.0442,-0.17678 0.033,-0.0659 0.0884,-0.11787 0.13258,-0.17677 0.0147,-0.0147 0.0339,-0.0261 0.0442,-0.0442 0.0491,-0.0858 0.0759,-0.18416 0.13258,-0.26516 0.0478,-0.0683 0.12838,-0.10898 0.17678,-0.17678 0.0271,-0.0379 0.0195,-0.0931 0.0442,-0.13258 0.1624,-0.25985 0.3809,-0.47476 0.57452,-0.70711 0.25601,-0.3072 0.51639,-0.64926 0.7513,-0.97227 0.0194,-0.0266 0.0179,-0.0686 0.0442,-0.0884 0.095,-0.0713 0.20624,-0.11787 -0.20884,-0.54121 3.16368,-2.81342 7.5833,-1.65349 11.73181,-2.11443 2.54269,-0.28252 5.2084,-0.50832 7.75,0 0.51708,0.10342 1.62696,0.64342 2,0.75 1.52663,0.43618 3.37869,0.42574 5,0.75 0.61036,0.12207 1.40929,-0.1969 2,0 0.35355,0.11785 0.64644,0.38215 1,0.5 0.75365,0.25122 1.72506,-0.19374 2.5,0 0.43536,0.10884 0.82426,0.35809 1.25,0.5 0.58566,0.19522 1.38107,-0.0884 2,0 0.42064,0.0601 0.82935,0.18991 1.25,0.25 1.20431,0.17204 2.56388,-0.26358 3.75,0 0.43807,0.0974 0.82016,0.37105 1.25,0.5 0.91087,0.27326 6.4104,1.1698 7.25,0.75 0.46474,-0.23237 0.81235,-0.87471 1,-1.25 0.17839,-0.35678 0.5,-0.30297 0.375,-1 -0.125,-0.12204 -0.1931,0.27288 -0.125,0.375 0.16877,0.25316 0.51911,0.50955 0.75,0.625 0.1914,0.0957 0.0978,0.22275 0.25,0.375 0.12089,0.12089 0.59131,0.21631 0.75,0.375 0.035,0.035 -0.12844,0.68345 0.25,0.375 0.0745,0.0373 0.1755,-0.0373 0.25,0 0.10541,0.0527 0.1557,0.1793 0.25,0.25 0.21158,0.15868 0.55566,0.2584 0.75,0.375 1.57869,0.94721 -0.0422,-0.0422 0.625,0.625 0.19764,0.19764 0.53174,0.20039 0.75,0.375 0.1029,0.0823 0.007,0.3161 0.125,0.375 0.0745,0.0373 0.1709,-0.0263 0.25,0 0.17214,0.0574 0.25959,0.4442 0.375,0.375 l 3.125,-1.875 c 0.0358,-0.0215 -0.0295,-0.0955 0,-0.125 0.0589,-0.0589 0.1691,0.0202 0.25,0 0.12783,-0.032 0.24717,-0.093 0.375,-0.125 0.57114,-0.14279 3.2208,0 3.625,0 1.21353,0 3.25637,-0.1598 4.375,0 0.61906,0.0884 1.40846,0.081 2,0.25 0.21575,0.0616 0.40287,0.2183 0.625,0.25 0.85534,0.12219 1.90732,-0.21067 2.75,0 0.0572,0.0143 0.0691,0.1064 0.125,0.125 0.0791,0.0263 0.1691,-0.0202 0.25,0 0.35294,0.0882 0.64706,0.4118 1,0.5 0.0808,0.0202 0.1709,-0.0263 0.25,0 0.1677,0.0559 0.21688,0.2959 0.375,0.375 0.31453,0.15727 0.32849,-0.0901 0.75,0.5 0.0481,0.0674 0.4492,0.72251 0.5,0.875 0.0263,0.0791 -0.0309,0.1726 0,0.25 0.0558,0.13949 0.1667,0.25 0.25,0.375 0.0417,0.0833 0.0923,0.1628 0.125,0.25 0.2612,0.69654 0.5253,1.53163 1,2.125 0.0582,0.0727 0.1755,0.0691 0.25,0.125 0.18856,0.14142 0.31594,0.35276 0.5,0.5 0.53163,0.4253 1.17051,0.65231 1.75,1 0.13639,0.0818 0.426,0.22705 0.5,0.375 0.0186,0.0373 -0.0347,0.1019 0,0.125 0.10963,0.0731 0.26537,0.0519 0.375,0.125 0.0347,0.0231 -0.0387,0.1095 0,0.125 0.22899,0.0916 1.6812,0.4312 1.75,0.5 0.15309,0.15309 0.17544,0.36696 0.375,0.5 0.0656,0.0437 0.3341,0.12717 0.375,0.25 0.0263,0.0791 -0.0309,0.1726 0,0.25 0.041,0.1025 0.76959,1.11825 0.875,1.25 0.2731,0.34137 0.63033,0.633 0.875,1 0.10336,0.15504 0.11824,0.36824 0.25,0.5 0.0659,0.0659 0.1841,0.0591 0.25,0.125 0.18801,0.18801 0.34582,0.65915 0.5,0.875 0.27346,0.38285 0.7948,0.83961 1,1.25 0.15191,0.30382 0,1.21337 0,1.5 0,1.89392 -0.2074,3.9204 0.25,5.75 0.0815,0.3262 0.32849,0.49273 0.5,0.75 0.0231,0.0347 -0.0295,0.0955 0,0.125 0.0295,0.0295 0.0955,-0.0295 0.125,0 0.0659,0.0659 0.0591,0.1841 0.125,0.25 0.51475,0.51476 1.12545,0.81273 1.75,1.125 0.26874,0.13437 0.19014,0.76438 0.75,0.5 0.0766,0.0328 0.1755,-0.0373 0.25,0 0.0373,0.0186 -0.0295,0.0955 0,0.125 0.21492,0.2149 0.41591,0.14545 0.625,0.25 0.24856,0.12428 0.48381,0.39352 0.75,0.5 0.26726,0.1069 0.59129,0.0683 0.875,0.125 0.52365,0.10473 0.25838,0.12919 0.75,0.375 0.29814,0.14907 0.66832,-0.0332 1,0 0.15841,0.0158 1.9503,0.3253 2,0.375 0.0589,0.0589 -0.0373,0.1755 0,0.25 0.0186,0.0373 0.0955,-0.0295 0.125,0 0.0589,0.0589 -0.0373,0.1755 0,0.25 0.0263,0.0527 0.1107,0.0678 0.125,0.125 0.003,0.0133 -0.0508,0.5403 0,0.625 0.17274,0.28791 0.39728,0.44184 0.5,0.75 0.127,0.38244 -0.4163,-0.31195 0.125,0.5 0.0231,0.0347 0.0903,-0.0231 0.125,0 0.0981,0.0654 0.1846,0.1519 0.25,0.25 0.0231,0.0347 -0.0295,0.0955 0,0.125 0.10623,0.10623 0.25481,0.1599 0.375,0.25 0.18225,0.13669 0.414,0.5722 0.625,0.625 0.24253,0.0606 0.5,0 0.5,-0.0625 -0.2044,0.81369 -0.3686,1.70992 -0.125,2.5625 0.15359,0.53759 0.42022,1.06659 0.5,1.625 0.0906,0.63417 0.16626,1.2488 0.375,1.875 0.0864,0.25905 0.29654,0.51462 0.375,0.75 0.17993,0.5398 0.125,1.18119 0.125,1.75 0,0.57251 -0.0142,2.11792 0,2.125 0.0745,0.0373 0.17262,-0.031 0.25,0 0.12621,0.0505 0.44299,0.3386 0.625,0.375 0.44943,0.0899 0.91666,0 1.375,0 1.03404,0 1.96845,-0.008 3,0.25 0.0572,0.0143 0.0691,0.10637 0.125,0.125 0.27951,0.0932 0.59549,0.0318 0.875,0.125 0.0763,0.0254 0.29871,0.22457 0.375,0.25 0.0833,0.0278 0.32351,0.0735 0.375,0.125 0.0295,0.0295 -0.0295,0.0955 0,0.125 0.0295,0.0295 0.0955,-0.0295 0.125,0 0.0327,0.0327 0.48493,0.81472 0.5,0.875 0.0679,0.27176 0.0621,0.49954 0.25,0.75 0.0707,0.0943 0.19729,0.14459 0.25,0.25 0.0373,0.0745 -0.05,0.18333 0,0.25 0.0901,0.12018 0.26877,0.14377 0.375,0.25 0.0589,0.0589 -0.0373,0.17546 0,0.25 0.26011,0.52022 -0.009,-0.13363 0.25,0.125 0.25863,0.25863 -0.39522,-0.0101 0.125,0.25 0.0373,0.0186 0.0955,-0.0295 0.125,0 0.31574,0.31574 0.048,0.1441 0.125,0.375 -0.24634,0.53194 0.20623,0.14058 0.25,0.25 0.0789,0.19726 0.0578,0.42344 0.125,0.625 0.10808,0.32426 0.51874,0.68122 0.625,1 0.0263,0.0791 -0.0309,0.17263 0,0.25 0.10108,0.2527 0.47425,0.64888 0.625,0.875 0.16666,0.25 0.33333,0.5 0.5,0.75 0,0.0833 -0.0413,0.17765 0,0.25 0.22258,0.38953 0.62277,0.74666 0.875,1.125 0.52058,0.78088 -0.76908,-0.67289 0.625,1 0.0267,0.032 0.1,-0.0333 0.125,0 0.22,0.29333 0.28,0.70667 0.5,1 0.35359,0.47146 0.7572,0.91525 1.125,1.375 0.18181,0.22726 0.58119,1.01246 0.75,1.125 0.0693,0.0462 0.19107,-0.0589 0.25,0 0.0589,0.0589 -0.0589,0.19107 0,0.25 0.0932,0.0932 0.26537,0.0519 0.375,0.125 0.0347,0.0231 -0.0347,0.10189 0,0.125 0.22446,0.14964 0.6674,0.2366 0.875,0.375 0.48042,0.32028 0.90219,0.79403 1.375,1.125 0.56335,0.39435 0.79258,0.39629 1.25,0.625 0.19252,0.0963 0.20781,0.25 0.25,0.1875 -0.73314,0.45301 -1.81611,0.99327 -2.25,1.6875 -0.2175,0.34799 -0.3035,0.76474 -0.5,1.125 -0.51455,0.94334 -1.15777,1.84831 -1.5,2.875 -0.0934,0.28026 -0.18704,1.12315 -0.25,1.375 -0.0678,0.27116 -0.2649,0.49309 -0.375,0.75 -0.0417,0.125 -0.0833,0.25 -0.125,0.375 0,0.0833 0.0263,0.17094 0,0.25 -0.0589,0.17678 -0.19108,0.32322 -0.25,0.5 -0.0263,0.0791 0.0202,0.16915 0,0.25 -0.16143,0.64572 -0.37968,1.21322 -0.5,1.875 -0.0298,0.16398 0.0236,0.33501 0,0.5 -0.0657,0.45955 -0.2298,0.9394 -0.375,1.375 -0.14975,0.44925 -0.15984,0.92419 -0.25,1.375 -0.0866,0.43293 -0.42738,0.68925 -0.5,1.125 -0.13377,0.8026 -0.37473,1.74945 -0.75,2.5 -0.0186,0.0373 -0.0955,-0.0295 -0.125,0 -0.0932,0.0932 -0.29596,0.69056 -0.375,0.875 -0.2094,0.4886 -0.34454,1.15755 -0.625,1.625 -0.0606,0.10106 -0.20623,0.14058 -0.25,0.25 -0.0464,0.11606 0.0439,0.25796 0,0.375 -0.0149,0.0398 -1.35589,2.48088 -1.5,2.625 -0.39273,0.39272 -1.70376,0.80672 -2.25,0.875 -0.26822,0.0335 -0.61068,-0.0661 -0.875,0 -0.0904,0.0226 -0.15961,0.1024 -0.25,0.125 -0.38409,0.096 -0.74083,-0.003 -1.125,0.125 -0.2625,0.0875 -0.6125,-0.0875 -0.875,0 -0.23683,0.0789 -0.19662,0.125 -0.5,0.1875 -0.49999,-0.10416 -0.99999,-0.27083 -1.49999,-0.4375 -0.0833,-0.0833 -0.14459,-0.19729 -0.25,-0.25 -0.51957,-0.25978 -2.74023,0 -3.5,0 -0.85528,0 -2.19847,-0.26717 -3,0 -1.00476,0.33492 -2.23202,0.74551 -3.25,1 -0.32338,0.0808 -0.67314,-0.0654 -1,0 -0.67352,0.13471 -1.63585,0.44293 -2.25,0.75 -1.04044,0.52022 0.26726,-0.0173 -0.25,0.5 -0.0589,0.0589 -0.17094,-0.0263 -0.25,0 -0.79953,0.26651 -1.6865,0.8373 -2.5,1 -0.32686,0.0654 -0.67662,-0.0808 -1,0 -0.52652,0.13163 -0.98432,0.57811 -1.5,0.75 -0.97789,0.32597 -2.24589,-0.25102 -3.25,0 -1.66438,0.4161 -3.49198,0.25 -5.25,0.25 -1.92675,0 -3.91845,0.11052 -5.75,-0.5 -0.64247,-0.21415 -1.12769,-0.73329 -1.75,-1 -0.41248,-0.17677 -0.87661,-0.25107 -1.25,-0.5 -0.15505,-0.10336 -0.14664,-0.34495 -0.25,-0.5 -0.10336,-0.15504 -0.41667,-0.0833 -0.5,-0.25 -0.0745,-0.14907 0.0527,-0.34188 0,-0.5 -0.11819,-0.35456 -0.60696,-0.35695 -0.75,-0.5 -0.0589,-0.0589 0.0263,-0.17094 0,-0.25 -0.1871,-0.56128 -0.46474,-0.67947 -0.75,-1.25 -0.37419,-0.74838 -0.21474,-1.1442 -0.5,-2 -0.11785,-0.35355 -0.36159,-0.65397 -0.5,-1 -0.14363,-0.35905 -0.0677,-1.22655 -0.25,-1.5 -0.19612,-0.29417 -0.59189,-0.43377 -0.75,-0.75 -0.14907,-0.29814 0.10541,-0.68377 0,-1 -0.0263,-0.079 -0.19108,0.0589 -0.25,0 -0.54595,-0.54594 -0.052,-0.4059 -0.25,-1 -0.14884,-0.44651 -0.96761,-0.87347 -1.25,-1.25 -0.11181,-0.14907 -0.095,-0.39663 -0.25,-0.5 -0.13868,-0.0924 -0.35093,0.0745 -0.5,0 -0.0745,-0.0373 0.0745,-0.21273 0,-0.25 -0.30004,-0.15002 -0.62195,0.064 -1.25,-0.25 -0.51203,-0.25601 -1.64845,0 -2.25,0 -0.73025,0 -2.77194,-0.23903 -3.25,0 -0.0745,0.0373 0,0.16667 0,0.25 -0.16667,0.0833 -0.32323,0.19108 -0.5,0.25 -0.0791,0.0264 -0.16667,0 -0.25,0 -0.16667,0 -0.34189,-0.0527 -0.5,0 -0.28505,0.095 -0.53754,0.28754 -0.75,0.5 -0.0589,0.0589 0.0745,0.21274 0,0.25 -0.14907,0.0745 -0.33334,0 -0.5,0 -0.16667,0.16667 -0.30389,0.36926 -0.5,0.5 -0.37226,0.24818 -0.51942,-0.23058 -1,0.25 -0.0589,0.0589 0.0373,0.17547 0,0.25 -0.17646,0.35291 -0.49213,0.37107 -0.75,0.5 -0.41434,0.20717 -0.46667,0.71667 -0.75,1 -0.3045,0.3045 -0.55856,0.11711 -0.75,0.5 -0.30787,0.61574 0.72568,-0.22568 -0.25,0.75 -0.0589,0.0589 -0.19108,-0.0589 -0.25,0 -0.11785,0.11785 0.0527,0.34189 0,0.5 -0.17243,0.51729 -0.75,0.67125 -0.75,1 0,0.82591 -3.20227,0.5 -3.75,0.5 -0.51459,0 -1.98979,-0.48978 -2.25,-0.75 -0.13176,-0.13176 -0.11824,-0.36823 -0.25,-0.5 -0.24296,-0.24295 -0.68099,-0.12239 -1,-0.25 -2.10492,-0.84196 0.18441,0.18441 -0.5,-0.5 -0.14102,-0.14102 -0.80021,0.0666 -1,0 -1.6886,-0.56286 -2.74641,-0.25179 -4.25,0.5 -0.26667,0.13334 -0.23334,-0.13333 -0.5,0 -1.04044,0.52022 0.26726,-0.0173 -0.25,0.5 -0.14316,0.14316 -0.76932,0.17311 -1,0.25 -0.47972,0.15991 -0.83421,0.54211 -1.25,0.75 -1.33334,0.66667 0.75,-0.75 -0.25,0.25 -0.32008,0.32008 -1.25,-0.43659 -0.97985,0.78825 0.27016,0.2239 0.0411,0.16497 -0.0392,0.11147 z"
         id="path115" />
    </g>
  </g>
</svg>
