<?xml version="1.0" encoding="UTF-8" standalone="no"?>
<!-- Created with Inkscape (http://www.inkscape.org/) -->

<svg
   version="1.1"
   id="svg1"
   width="131.38928"
   height="91.879677"
   viewBox="0 0 131.38928 91.879677"
   xmlns="http://www.w3.org/2000/svg"
   xmlns:svg="http://www.w3.org/2000/svg">
  <defs
     id="defs1" />
  <g
     id="layer1"
     style="display:inline"
     transform="translate(-850.47266,-349.35494)">
    <g
       id="layer52"
       style="display:inline;fill:#ffffff;fill-opacity:1;stroke:none">
      <path
         style="fill:#ffffff;fill-opacity:1;stroke:none;stroke-linecap:round"
         d="m 861.38862,352.93466 4.81717,-3.57972 9.67852,2.2539 33.80854,1.81196 0.88389,-0.61872 5.61266,3.57973 10.5624,-2.82843 8.57367,0.97227 3.53554,6.89429 7.15945,4.24265 2.87262,11.57887 3.0494,2.47487 5.3475,1.72357 2.96101,3.0494 1.67937,9.32497 7.99915,4.46361 1.01647,3.66812 10.91596,12.1534 -1.41422,0.79549 -3.62392,4.50781 -5.39169,16.44023 -34.33887,5.39169 -9.94369,-2.78423 -4.19845,-9.50175 -3.8007,-3.22617 -7.29203,1.67937 -3.8007,2.60746 -0.0442,2.56326 -5.03813,0.44194 -3.53554,-2.12132 -4.46361,0.88389 -6.31976,2.56326 -2.56327,-3.71231 1.06066,-2.20971 2.34229,-1.85615 18.60575,-4.50781 0.92808,-1.63518 -1.76777,-2.43068 -5.48008,0.88388 -16.52862,0.53033 -5.43588,-4.19845 2.03293,-3.27037 4.99394,-1.37002 1.01647,-1.67937 -0.30936,-1.23744 -10.07627,-0.83969 -5.25911,-5.48008 -1.81196,-15.29118 -3.53553,-4.5962 -2.34229,0.0442 -1.98874,3.35876 -3.35876,1.59099 -5.17072,-1.23744 -3.53553,-5.61266 3.84489,-7.99915 3.75651,3.35876 3.97747,-2.2539 -0.48613,-2.16552 -1.59099,-4.24264 -0.44194,-10.87176 z"
         id="path50" />
    </g>
  </g>
</svg>
