<?xml version="1.0" encoding="UTF-8" standalone="no"?>
<!-- Created with Inkscape (http://www.inkscape.org/) -->

<svg
   version="1.1"
   id="svg1"
   width="106.08811"
   height="72.522652"
   viewBox="0 0 106.08811 72.522652"
   xmlns="http://www.w3.org/2000/svg"
   xmlns:svg="http://www.w3.org/2000/svg">
  <defs
     id="defs1" />
  <g
     id="layer1"
     style="display:inline"
     transform="translate(-863.90769,-426.23069)">
    <g
       id="layer53"
       style="display:inline;fill:#ffffff;fill-opacity:1;stroke:none">
      <path
         style="fill:#ffffff;fill-opacity:1;stroke:none;stroke-linecap:round"
         d="m 888.12609,432.83773 -1.85615,18.38477 -6.01041,14.4073 -16.35184,20.5061 2.17823,2.06721 3.14843,0.86719 4.63282,0.36719 6.78125,-1.71875 3.82812,-2.29688 3,-0.11718 2.00781,4.46093 -0.5625,2.59375 22.36199,3.74233 30.44979,2.65165 14.29681,-2.93892 5.63476,-12.72792 1.92245,-12.30807 6.40815,-10.51822 -3.46924,-9.30287 -2.56326,-13.56761 -27.20152,4.04376 -9.76691,-2.82842 -1.06066,-5.14862 -2.98311,-4.37523 -2.91681,-2.78423 -4.88346,-0.0663 -7.18155,3.71231 -0.41985,2.74004 -5.17071,0.7513 -2.69585,-2.51907 -4.39732,0.92808 -6.0325,2.71794 z"
         id="path51" />
    </g>
  </g>
</svg>
