<?xml version="1.0" encoding="UTF-8" standalone="no"?>
<!-- Created with Inkscape (http://www.inkscape.org/) -->

<svg
   version="1.1"
   id="svg2"
   width="105.02834"
   height="72.02327"
   viewBox="0 0 105.02834 72.02327"
   xmlns="http://www.w3.org/2000/svg"
   xmlns:svg="http://www.w3.org/2000/svg">
  <defs
     id="defs6">
    <linearGradient
       id="swatch77">
      <stop
         style="stop-color:#e2c69e;stop-opacity:1;"
         offset="0"
         id="stop77" />
    </linearGradient>
  </defs>
  <g
     id="layer66"
     style="display:inline"
     transform="translate(-863.40832,-426.38622)">
    <g
       id="layer64"
       style="display:inline">
      <path
         style="display:inline;fill:#969696;fill-opacity:1;stroke:none;stroke-opacity:1"
         d="m 888.625,492.8125 c 0.0904,0.0904 0.31611,0.14081 0.4375,0.1875 0.49068,0.18872 0.98712,0.43428 1.5,0.5625 0.12294,0.0307 0.25362,0.0261 0.375,0.0625 0.0892,0.0268 0.16161,0.0955 0.25,0.125 0.10078,0.0336 0.21749,0.015 0.3125,0.0625 0.0791,0.0395 0.10703,0.15092 0.1875,0.1875 0.17188,0.0781 0.53906,0.11719 0.75,0.1875 0.23133,0.0771 0.45497,0.17657 0.6875,0.25 0.34695,0.10956 0.71555,0.14044 1.0625,0.25 0.21397,0.0676 0.40974,0.18669 0.625,0.25 0.14133,0.0416 0.29516,0.0245 0.4375,0.0625 0.17199,0.0459 0.32923,0.13727 0.5,0.1875 0.18427,0.0542 0.37743,0.0736 0.5625,0.125 0.19043,0.0529 0.3687,0.14874 0.5625,0.1875 0.61829,0.12366 1.25081,0.16083 1.875,0.25 1.64031,0.23433 -1.45633,-0.22067 1.25,0.25 0.37173,0.0646 0.75028,0.0809 1.125,0.125 1.20839,0.14216 -0.17655,-0.0109 1.4375,0.0625 0.52542,0.0239 1.64386,0.17719 2.0625,0.25 0.11053,0.0192 0.20212,0.10493 0.3125,0.125 0.28343,0.0515 0.59033,0.015 0.875,0.0625 1.62714,0.27119 -1.19474,-0.0284 1.125,0.25 0.29033,0.0348 0.58553,0.0211 0.875,0.0625 0.29529,0.0422 0.58105,0.13682 0.875,0.1875 0.98456,0.16975 2.06808,0.36647 3.0625,0.4375 1.07796,0.077 2.17104,-0.0635 3.25,0 0.39733,0.0234 0.79025,0.10017 1.1875,0.125 0.70078,0.0438 1.42352,0 2.125,0 h 4.125 c 0.74507,0 1.50658,-0.0372 2.25,0 0.52319,0.0262 1.04433,0.13568 1.5625,0.1875 0.37364,0.0374 0.74994,0.0375 1.125,0.0625 1.0478,0.0698 -0.072,0.062 1.0625,0.125 0.51837,0.0288 1.0446,-0.037 1.5625,0 0.36054,-0.0149 0.70694,0.0976 1.0625,0.125 0.95265,0.0733 1.92061,-0.0502 2.875,0 0.69191,0.0364 1.37427,0.13834 2.0625,0.1875 0.69876,0.0499 1.42592,0 2.125,0 h 4.375 2.875 c 0.35994,0 0.83817,0.0776 1.1875,0 0.0733,-0.0163 0.11846,-0.0954 0.1875,-0.125 0.15791,-0.0677 0.33702,-0.0707 0.5,-0.125 0.46513,-0.15504 0.56136,-0.23939 1,-0.3125 0.4028,-0.0671 0.78711,-0.29492 1.1875,-0.375 0.64838,-0.12968 1.35753,-0.18604 2,-0.375 0.55388,-0.1629 1.58615,-0.5625 2.1875,-0.5625 0.33462,0 0.67378,-0.0435 1,-0.125 0.0452,-0.0113 0.0788,-0.0567 0.125,-0.0625 0.15831,-0.0198 0.81245,5e-5 0.9375,-0.125 0.0991,-0.0991 0.0382,-0.28817 0.125,-0.375 0.14363,-0.14363 0.125,0.0162 0.40625,-0.34375 0.69462,-0.21875 0.22427,-0.78677 0.40625,-0.96875 0.0295,-0.0295 0.0955,0.0295 0.125,0 0.049,-0.0491 0.0961,-0.6922 0.125,-0.75 0.0527,-0.10541 0.2062,-0.14058 0.25,-0.25 0.0928,-0.23212 -0.0687,-0.50962 0,-0.75 0.5413,-1.89455 0.0344,0.0561 0.375,-0.625 0.0768,-0.15366 -0.25614,-0.4115 0.125,-0.5 0.10865,-0.21731 0.2793,-0.40169 0.375,-0.625 0.0328,-0.0766 -0.0328,-0.1734 0,-0.25 0.0957,-0.22331 0.26634,-0.40769 0.375,-0.625 0.14319,-0.28638 0.547,-1.29203 0.625,-1.5 0.0293,-0.078 -0.0328,-0.1734 0,-0.25 0.15484,-0.3613 0.47015,-0.6387 0.625,-1 0.52173,-1.21738 -0.0576,-0.0194 0.125,-0.75 0.15969,-0.63877 0.40273,-1.42123 0.75,-2 0.26559,-0.44266 0.27162,-0.83891 0.5,-1.25 0.41362,-0.74453 0.90656,-1.42235 1.375,-2.125 0.29999,-0.45 0.5433,-1.05291 0.625,-1.625 0.0118,-0.0825 -0.0309,-0.1726 0,-0.25 0.0558,-0.13949 0.2025,-0.23248 0.25,-0.375 0.0395,-0.11859 -0.0205,-0.2517 0,-0.375 0.0217,-0.12997 0.0833,-0.25 0.125,-0.375 0.0417,-0.0833 0.1067,-0.1586 0.125,-0.25 0.0705,-0.35255 -0.0984,-0.78059 0,-1.125 0.0413,-0.14445 0.2087,-0.23055 0.25,-0.375 0.0458,-0.16026 -0.0128,-0.33383 0,-0.5 0.0289,-0.3762 0.074,-0.75115 0.125,-1.125 0.572,-4.19473 -0.0714,-0.15485 0.5,-2.25 0.20215,-0.74122 0.0789,-1.55575 0.5,-2.25 0.13831,-0.48409 0.45567,-0.90087 0.625,-1.375 0.0715,-0.20008 0.0639,-0.4215 0.125,-0.625 0.20615,-0.68719 0.55692,-1.48885 0.875,-2.125 0.25445,-0.5089 0.64323,-0.97853 0.875,-1.5 0.0698,-0.15699 0.0573,-0.3421 0.125,-0.5 0.22391,-0.52247 0.66251,-0.96879 0.875,-1.5 0.12681,-0.31702 0.0223,-2.3936 0,-2.75 -0.0391,-0.62517 -0.002,-1.26078 -0.125,-1.875 -0.14527,-0.72632 -0.4315,-1.3711 -0.5,-2.125 -0.0969,-1.06576 -0.18232,-2.19025 -0.375,-3.25 -0.0105,-0.058 -0.1064,-0.0691 -0.125,-0.125 -0.0672,-0.20156 -0.0833,-0.41667 -0.125,-0.625 -0.0802,-0.40095 0.0673,-0.84629 0,-1.25 -0.0282,-0.16946 -0.0833,-0.33333 -0.125,-0.5 -0.0417,0 -0.1136,0.0401 -0.125,0 -0.86198,-3.01694 0.18017,0.27587 -0.125,-1.25 -0.0889,-0.44463 -0.46507,-0.85017 -0.625,-1.25 -0.0789,-0.19726 -0.0387,-0.43085 -0.125,-0.625 -0.0846,-0.19038 -0.2929,-0.30851 -0.375,-0.5 -0.0657,-0.15319 0.0657,-0.34681 0,-0.5 -0.73647,-1.7184 -0.01,-0.0342 -0.5,-1.75 -0.0114,-0.0401 -0.1019,0.0347 -0.125,0 -0.22375,-0.33563 -0.19093,-0.88186 -0.375,-1.25 -0.0263,-0.0527 -0.115,-0.0669 -0.125,-0.125 -0.142,-0.85201 0.032,-1.78836 0.125,-2.625 0.047,-0.4228 -0.162,-1.49702 0,-1.875 0.0957,-0.22331 0.25,-0.41667 0.375,-0.6875 -0.49999,-0.22916 -0.99999,-0.39583 -1.49999,-0.5625 -0.0833,-0.0833 -0.14459,-0.19729 -0.25,-0.25 -0.51957,-0.25978 -2.74023,0 -3.5,0 -0.85528,0 -2.19847,-0.26717 -3,0 -1.00476,0.33492 -2.23202,0.74551 -3.25,1 -0.32338,0.0808 -0.67314,-0.0654 -1,0 -0.67352,0.13471 -1.63585,0.44293 -2.25,0.75 -1.04044,0.52022 0.26726,-0.0173 -0.25,0.5 -0.0589,0.0589 -0.17094,-0.0263 -0.25,0 -0.79953,0.26651 -1.6865,0.8373 -2.5,1 -0.32686,0.0654 -0.67662,-0.0808 -1,0 -0.52652,0.13163 -0.98432,0.57811 -1.5,0.75 -0.97789,0.32597 -2.24589,-0.25102 -3.25,0 -1.66438,0.4161 -3.49198,0.25 -5.25,0.25 -1.92675,0 -3.91845,0.11052 -5.75,-0.5 -0.64247,-0.21415 -1.12769,-0.73329 -1.75,-1 -0.41248,-0.17677 -0.87661,-0.25107 -1.25,-0.5 -0.15505,-0.10336 -0.14664,-0.34495 -0.25,-0.5 -0.10336,-0.15504 -0.41667,-0.0833 -0.5,-0.25 -0.0745,-0.14907 0.0527,-0.34188 0,-0.5 -0.11819,-0.35456 -0.60696,-0.35695 -0.75,-0.5 -0.0589,-0.0589 0.0263,-0.17094 0,-0.25 -0.1871,-0.56128 -0.46474,-0.67947 -0.75,-1.25 -0.37419,-0.74838 -0.21474,-1.1442 -0.5,-2 -0.11785,-0.35355 -0.36159,-0.65397 -0.5,-1 -0.14363,-0.35905 -0.0677,-1.22655 -0.25,-1.5 -0.19612,-0.29417 -0.59189,-0.43377 -0.75,-0.75 -0.14907,-0.29814 0.10541,-0.68377 0,-1 -0.0263,-0.079 -0.19108,0.0589 -0.25,0 -0.54595,-0.54594 -0.052,-0.4059 -0.25,-1 -0.14884,-0.44651 -0.96761,-0.87347 -1.25,-1.25 -0.11181,-0.14907 -0.095,-0.39663 -0.25,-0.5 -0.13868,-0.0924 -0.35093,0.0745 -0.5,0 -0.0745,-0.0373 0.0745,-0.21273 0,-0.25 -0.30004,-0.15002 -0.62195,0.064 -1.25,-0.25 -0.51203,-0.25601 -1.64845,0 -2.25,0 -0.73025,0 -2.77194,-0.23903 -3.25,0 -0.0745,0.0373 0,0.16667 0,0.25 -0.16667,0.0833 -0.32323,0.19108 -0.5,0.25 -0.0791,0.0264 -0.16667,0 -0.25,0 -0.16667,0 -0.34189,-0.0527 -0.5,0 -0.28505,0.095 -0.53754,0.28754 -0.75,0.5 -0.0589,0.0589 0.0745,0.21274 0,0.25 -0.14907,0.0745 -0.33334,0 -0.5,0 -0.16667,0.16667 -0.30389,0.36926 -0.5,0.5 -0.37226,0.24818 -0.51942,-0.23058 -1,0.25 -0.0589,0.0589 0.0373,0.17547 0,0.25 -0.17646,0.35291 -0.49213,0.37107 -0.75,0.5 -0.41434,0.20717 -0.46667,0.71667 -0.75,1 -0.3045,0.3045 -0.55856,0.11711 -0.75,0.5 -0.30787,0.61574 0.72568,-0.22568 -0.25,0.75 -0.0589,0.0589 -0.19108,-0.0589 -0.25,0 -0.11785,0.11785 0.0527,0.34189 0,0.5 -0.17243,0.51729 -0.75,0.67125 -0.75,1 0,0.82591 -3.20227,0.5 -3.75,0.5 -0.51459,0 -1.98979,-0.48978 -2.25,-0.75 -0.13176,-0.13176 -0.11824,-0.36823 -0.25,-0.5 -0.24296,-0.24295 -0.68099,-0.12239 -1,-0.25 -2.10492,-0.84196 0.18441,0.18441 -0.5,-0.5 -0.14102,-0.14102 -0.80021,0.0666 -1,0 -1.6886,-0.56286 -2.74641,-0.25179 -4.25,0.5 -0.26667,0.13334 -0.23334,-0.13333 -0.5,0 -1.04044,0.52022 0.26726,-0.0173 -0.25,0.5 -0.14316,0.14316 -0.76932,0.17311 -1,0.25 -0.47972,0.15991 -0.83421,0.54211 -1.25,0.75 -1.33334,0.66667 0.75,-0.75 -0.25,0.25 -0.32008,0.32008 -1.25,-0.43659 -1.2892,0.83243 -0.0392,0.56814 -0.0179,0.80481 -0.0392,1.03954 -0.0306,0.33619 -0.32525,0.64859 -0.35355,1.01647 -0.0102,0.13219 0.007,0.26534 0,0.39774 -0.003,0.0624 -0.0851,0.73309 -0.0884,0.7955 -0.0393,0.74625 0,1.50583 0,2.2539 v 2.91682 0.88388 c 0,0.14731 0.0423,0.30084 0,0.44194 -0.0829,0.27637 -0.22208,0.5633 -0.30936,0.83969 -0.0987,0.31254 -0.11977,0.58028 -0.22097,0.88389 -0.0208,0.0625 -0.0755,0.11217 -0.0884,0.17677 -0.009,0.0433 0.007,0.089 0,0.13258 -0.0488,0.29303 -0.13524,0.59812 -0.22097,0.88389 -0.11236,0.37452 -0.38311,0.67432 -0.48614,1.06066 -0.0534,0.20018 -0.0248,0.33956 -0.0884,0.53033 -0.0208,0.0625 -0.0653,0.11509 -0.0884,0.17678 -0.0962,0.25656 -0.13446,0.53594 -0.22097,0.79549 -0.0796,0.23881 -0.18556,0.46829 -0.26517,0.70711 -0.10651,0.31954 -0.16944,0.66445 -0.30936,0.97227 -0.0818,0.17993 -0.20266,0.34283 -0.26516,0.53033 -0.0238,0.0713 -0.0236,0.14874 -0.0442,0.22097 -0.0747,0.26143 -0.18016,0.49628 -0.26516,0.7513 -0.0924,0.1646 -0.079,0.35617 -0.13258,0.53033 -0.037,0.1203 -0.0884,0.2357 -0.13259,0.35355 -0.0442,0.19151 -0.0786,0.38555 -0.13258,0.57453 -0.0346,0.12102 -0.098,0.23253 -0.13258,0.35355 -0.10739,0.37585 -0.1703,0.76958 -0.26517,1.14905 -0.0477,0.19067 -0.10269,0.38027 -0.13258,0.57452 -0.0247,0.16083 0.007,0.33178 -0.0442,0.48614 -0.0502,0.15052 -0.12661,0.29142 -0.17678,0.44194 -0.0237,0.0713 -0.0163,0.15123 -0.0442,0.22097 -0.0319,0.0798 -0.10322,0.14025 -0.13258,0.22097 -0.0306,0.0842 -0.0175,0.17964 -0.0442,0.26517 -0.12683,0.40583 -0.34267,0.77373 -0.53033,1.14905 -0.0502,0.10034 -0.0789,0.21086 -0.13258,0.30936 -0.14717,0.26979 -0.66292,0.80217 -0.66292,1.10485 0.58551,0.60022 -0.37599,0.24432 -0.44187,0.44194 -0.009,0.0279 0.0109,0.061 0,0.0884 -0.0519,0.0778 -0.0986,0.13604 -0.13258,0.22097 -0.0467,0.11686 -0.0688,0.24507 -0.13258,0.35356 -0.43789,0.7444 -0.16478,0.11372 -0.48614,0.61871 -0.053,0.0834 -0.0795,0.1818 -0.13258,0.26517 -0.0506,0.0796 -0.12577,0.14162 -0.17678,0.22097 -0.25719,0.40008 -0.43232,0.84669 -0.61872,1.28163 -0.0442,0.10312 -0.0884,0.20624 -0.13258,0.30936 -0.0442,0.13258 -0.0807,0.26799 -0.13258,0.39775 -0.1028,0.25698 -0.22978,0.50374 -0.35356,0.7513 -0.009,0.0186 -0.0382,0.0242 -0.0442,0.0442 -0.039,0.13009 -0.0396,0.27099 -0.0884,0.39775 -0.0264,0.0688 -0.0973,0.11211 -0.13258,0.17678 -0.14326,0.26264 -0.23912,0.56504 -0.35355,0.83969 -0.16018,0.38442 -0.005,-0.0344 -0.22098,0.35355 -0.0295,0.0737 -0.0589,0.14731 -0.0884,0.22097 0,0.0442 0.0155,0.0912 0,0.13258 -0.12152,0.32405 -0.39417,0.64466 -0.57453,0.92808 -0.025,0.0393 -0.0192,0.0933 -0.0442,0.13258 -0.29569,0.46466 -0.43498,0.39166 -0.7955,0.70711 -0.14455,0.12648 -0.20003,0.32821 -0.30936,0.48614 -0.14426,0.20838 -0.29462,0.41248 -0.44194,0.61871 -0.28622,0.40072 -0.6109,0.78377 -0.88388,1.19325 -0.29313,0.0786 -0.1578,0.36439 -0.26517,0.53033 -0.13768,0.21279 -0.29882,0.40954 -0.44194,0.61872 -0.12333,0.18025 -0.39865,0.72072 -0.44194,0.79549 -0.36605,0.63227 0.0106,-0.0435 -0.35355,0.44194 -0.15056,0.20075 -0.25004,0.45612 -0.39775,0.66292 l -0.30936,0.39774 c -0.0737,0.0737 -0.15661,0.13907 -0.22097,0.22097 -0.19964,0.25409 -0.19179,0.36182 -0.39775,0.53033 -0.35619,0.29143 -0.69738,0.60134 -1.06066,0.88389 -0.56776,0.44159 -1.17731,0.82668 -1.76777,1.23743 -0.38241,0.26603 -0.76144,0.53709 -1.14904,0.7955 -0.34884,0.23256 -0.76078,0.40722 -1.06066,0.70711 -0.0667,0.0667 -0.0959,0.17244 -0.17678,0.22097 -0.16733,0.1004 -0.19218,0.0569 -0.30936,0.22097 -0.0383,0.0536 -0.0467,0.12579 -0.0884,0.17677 -0.0924,0.11287 -0.21247,0.20037 -0.30936,0.30936 -0.0219,0.0246 -0.0209,0.0651 -0.0442,0.0884 -0.084,0.084 -0.20865,0.11383 -0.30936,0.17678 -0.17162,0.10726 -0.37442,0.22883 -0.53033,0.35355 -0.4362,0.34896 -0.84457,0.81746 -1.23744,1.19324 -0.79257,0.66048 0.17969,-0.17968 -0.44194,0.44195 -0.0233,0.0233 -0.0651,0.0209 -0.0884,0.0442 -0.095,0.0388 -0.0718,0.16023 -0.13258,0.22097 -0.0376,0.0376 -0.095,0.0508 -0.13258,0.0884 -0.0699,0.0699 -0.0759,0.18421 -0.13259,0.26516 -0.066,0.0943 -0.1452,0.17858 -0.22097,0.26517 -0.0274,0.0314 -0.0589,0.0589 -0.0884,0.0884 -0.0737,0.0737 -0.15238,0.14258 -0.22098,0.22097 -0.035,0.04 -0.0469,0.0994 -0.0884,0.13258 -0.0364,0.0291 -0.0953,0.0162 -0.13259,0.0442 -0.071,0.0533 -0.2049,0.33348 -0.22097,0.39774 -0.036,0.14409 0,0.37799 0.13303,0.89513 0.34726,0.74195 1.38997,2.22014 1.88303,2.30231 0.13,0.0217 0.30554,-0.033 0.4375,0 0.12783,0.032 0.24503,0.10334 0.375,0.125 0.13871,0.0231 0.24497,0.0192 0.375,0.0625 0.16452,0.0548 0.42681,0.14824 0.5625,0.25 0.0471,0.0354 0.0723,0.0987 0.125,0.125 0.22169,0.11085 0.48597,0.14924 0.6875,0.25 0.33198,0.16599 0.77519,0.004 1.125,0.0625 0.046,0.008 0.0793,0.0534 0.125,0.0625 0.70318,0.14064 1.47956,0.0787 2.1875,0 0.28539,-0.0317 0.59188,0.0472 0.875,0 0.2665,-0.0444 0.54444,-0.15771 0.8125,-0.1875 0.16565,-0.0184 0.33657,0.0327 0.5,0 0.18083,-0.0362 0.38751,-0.0813 0.5625,-0.125 0.38325,-0.0958 0.81757,-0.21645 1.1875,-0.375 0.0856,-0.0367 0.16041,-0.0994 0.25,-0.125 0.18985,-0.0542 0.42898,-0.038 0.625,-0.0625 0.77505,-0.0969 -0.18517,-0.0212 0.4375,-0.125 0.12768,-0.0213 0.55217,-0.0456 0.6875,-0.0625 0.17943,-0.0224 0.39344,0.005 0.5625,-0.0625 0.18009,-0.072 0.37195,-0.20236 0.5625,-0.25 0.15709,-0.0393 0.3396,0.0267 0.5,0 0.28856,-0.0481 0.58895,-0.15889 0.875,-0.1875 0.37938,-0.0379 0.75133,-0.01 1.125,-0.125 0.15164,-0.0467 0.28698,-0.13732 0.4375,-0.1875 0.22824,-0.0761 0.51048,-0.10766 0.75,-0.1875 0.55287,-0.18428 1.06591,-0.40276 1.625,-0.5625 0.14988,-0.0428 0.24043,-0.18271 0.375,-0.25 0.0688,-0.0344 0.17671,0.0244 0.25,0 0.2539,-0.0846 0.54288,-0.24509 0.8125,-0.3125 0.24224,-0.0606 1.72144,-0.0303 2,0.0625 0.20894,0.0697 0.48876,0.39221 0.625,0.5625 0.0291,0.0364 0.0296,0.0921 0.0625,0.125 0.0147,0.0147 0.0532,-0.0186 0.0625,0 0.0384,0.0768 0.0417,0.16667 0.0625,0.25 0.0417,0.0833 0.0788,0.16911 0.125,0.25 0.23259,0.40704 0.21188,0.5922 0.375,1 0.0965,0.24125 0.26094,0.5547 0.3125,0.8125 0.0204,0.10215 -0.0115,0.20898 0,0.3125 0.009,0.0854 0.0484,0.16528 0.0625,0.25 0.034,0.20424 0,0.49274 0,0.6875 v 1.4375 c 0,0.1408 0.072,1.1059 0,1.25 -0.0386,0.0772 -0.0603,0.0625 -0.31251,-0.0312 -0.125,0.0104 -0.0859,0.13285 0,0.21875 z"
         id="path28" />
    </g>
  </g>
</svg>
