<?xml version="1.0" encoding="UTF-8" standalone="no"?>
<!-- Created with Inkscape (http://www.inkscape.org/) -->

<svg
   version="1.1"
   id="svg2"
   width="141.91718"
   height="266.00113"
   viewBox="0 0 141.91718 266.00113"
   xmlns="http://www.w3.org/2000/svg"
   xmlns:svg="http://www.w3.org/2000/svg">
  <defs
     id="defs6">
    <linearGradient
       id="swatch77">
      <stop
         style="stop-color:#e2c69e;stop-opacity:1;"
         offset="0"
         id="stop77" />
    </linearGradient>
  </defs>
  <g
     id="layer66"
     style="display:inline"
     transform="translate(-1157.8834,-568.66685)">
    <g
       id="layer7"
       style="display:inline">
      <path
         style="display:inline;fill:#969696;fill-opacity:1;stroke:none;stroke-opacity:1"
         d="m 1166.75,682.5 c 0.1262,0.0631 0.163,0.2257 0.25,0.3125 0.033,0.0329 0.099,0.0237 0.125,0.0625 0.023,0.0347 -0.023,0.0903 0,0.125 0.026,0.0388 0.097,0.0252 0.125,0.0625 0.638,0.8506 -0.015,0.10299 0.375,0.6875 0.033,0.049 0.092,0.076 0.125,0.125 0.1034,0.15504 0.151,0.34198 0.25,0.5 0.055,0.0883 0.1405,0.1568 0.1875,0.25 0.019,0.0373 -0.015,0.0863 0,0.125 0.1143,0.28571 0.4138,0.48973 0.5625,0.75 0.2736,0.47875 0.8265,1.33341 1.3125,1.625 0.1741,0.10445 0.5128,0.3001 0.6875,0.375 0.038,0.0164 0.085,-0.012 0.125,0 0.084,0.0252 0.9116,0.2995 1.0625,0.375 0.2432,0.12162 0.5896,0.27826 0.8125,0.4375 0.072,0.0514 0.1125,0.1407 0.1875,0.1875 0.174,0.10875 0.3853,0.14661 0.5625,0.25 0.3567,0.20805 0.7416,0.48743 1.0625,0.75 0.091,0.0746 0.161,0.1724 0.25,0.25 0.7323,0.64077 1.6082,1.09644 2.3785,1.6875 0.076,0 0.2395,-0.0183 0.3125,0 0.3018,0.0755 0,0.0297 0.1875,0.125 0.2607,0.13035 0.5394,0.30094 0.8125,0.4375 0.2891,0.14457 0.5465,0.17547 0.8125,0.375 0.3263,0.24473 0.5954,0.52193 0.9375,0.75 0.3925,0.26167 0.5818,0.76612 0.9375,1.0625 0.157,0.13086 0.3355,0.30588 0.5,0.4375 0.1173,0.0938 0.2688,0.14377 0.375,0.25 0.032,0.0329 0.029,0.0921 0.062,0.125 0.1528,0.15276 0.4187,0.26973 0.5625,0.4375 0.1939,0.22623 0.3011,0.52269 0.5,0.75 0.05,0.0565 0.1345,0.0719 0.1875,0.125 0.1426,0.14259 0.2324,0.2949 0.375,0.4375 0.053,0.0531 0.1275,0.0799 0.1875,0.125 0.1358,0.10183 0.2041,0.26661 0.3125,0.375 0.033,0.0329 0.088,0.0345 0.125,0.0625 0.224,0.16797 0.835,0.76896 1,1 0.054,0.0758 0.077,0.1701 0.125,0.25 0.2088,0.348 0.4724,0.65587 0.6875,1 0.1481,0.23702 0.2342,0.50856 0.375,0.75 0.067,0.11523 0.234,0.15614 0.25,0.3125 0.068,0.12217 0.1095,0.25872 0.1875,0.375 0.011,0.0173 0.052,-0.0186 0.062,0 0.074,0.14833 0.091,0.43332 0.1875,0.5625 0.071,0.0943 0.189,0.14894 0.25,0.25 0.132,0.22007 0.2637,0.4024 0.375,0.625 0.075,0.15001 0.289,0.23076 0.375,0.375 0.3604,0.60071 -0.2867,-0.2572 0.1875,0.375 0.2,0.26708 -0.054,-0.0717 0.125,0.0625 0.7743,0.58075 -0.144,-0.0815 0.25,0.3125 0.053,0.0531 0.1385,0.068 0.1875,0.125 0.1614,0.18827 0.2723,0.43231 0.4375,0.625 0.106,0.12364 0.2964,0.3434 0.4375,0.4375 0.017,0.0116 0.047,-0.0147 0.062,0 0.053,0.0531 0.072,0.1344 0.125,0.1875 0.014,0.0147 0.047,-0.0147 0.062,0 0.032,0.0329 0.041,0.0833 0.062,0.125 0,0.0208 -0.014,0.0467 0,0.0625 0.2296,0.26781 0.7808,0.68723 1.0625,0.875 0.049,0.0327 0.092,0.076 0.125,0.125 0.012,0.0173 -0.018,0.0518 0,0.0625 0.096,0.0577 0.2122,0.0748 0.3125,0.125 0.1718,0.0859 0.2801,0.26485 0.4375,0.375 0.1757,0.123 0.4086,0.1505 0.5625,0.3125 0.1199,0.0856 0.1926,0.2269 0.3125,0.3125 0.076,0.0542 0.172,0.0733 0.25,0.125 0.5005,0.3337 -0.4557,-0.14899 0.375,0.3125 0.098,0.0545 0.2175,0.0655 0.3125,0.125 0.2127,0.13296 0.375,0.33333 0.5625,0.5 0.4996,0.4445 -0.1116,-0.0926 0.3125,0.4375 0.029,0.0364 0.097,0.0252 0.125,0.0625 0.1086,0.14487 0.2155,0.51794 0.3125,0.6875 0.052,0.0904 0.1355,0.1596 0.1875,0.25 0.032,0.0572 0.032,0.1286 0.062,0.1875 0.1626,0.32525 0.3957,0.5998 0.625,0.875 0.1785,0.21425 0.1842,0.53553 0.4375,0.6875 0.1839,0.11035 0.375,0.20833 0.5625,0.3125 0.042,0.0625 0.064,0.1438 0.125,0.1875 0.091,0.0652 0.2175,0.0655 0.3125,0.125 0.1405,0.0878 0.6964,0.57142 0.8125,0.6875 0.053,0.0531 0.072,0.1344 0.125,0.1875 0.1062,0.10623 0.2688,0.14377 0.375,0.25 0.015,0.0147 -0.016,0.0495 0,0.0625 0.095,0.0759 0.2175,0.1116 0.3125,0.1875 0.15,0.11999 0.2917,0.25 0.4375,0.375 0.2932,0.25133 0.5607,0.58798 0.875,0.8125 0.076,0.0542 0.171,0.0756 0.25,0.125 0.479,0.29919 0.024,0.0675 0.5,0.4375 0.2237,0.17397 0.4608,0.32998 0.6875,0.5 0.4197,0.31481 0.8806,0.629 1.3125,0.9375 0.038,0.0271 0.092,0.0296 0.125,0.0625 0.053,0.0531 0.066,0.1414 0.125,0.1875 0.1326,0.10312 0.2977,0.1568 0.4375,0.25 0.2505,0.16698 0.4399,0.45991 0.6875,0.625 0.093,0.0622 0.2215,0.059 0.3125,0.125 0.143,0.10397 0.2436,0.25674 0.375,0.375 0.3155,0.28392 0.7,0.51249 1,0.8125 0.032,0.0329 0.029,0.0921 0.062,0.125 0.219,0.219 0.4397,0.43917 0.6875,0.625 0.097,0.0729 0.2175,0.1116 0.3125,0.1875 0.3962,0.31692 0.6895,0.73684 1,1.125 0.074,0.092 0.178,0.157 0.25,0.25 0.075,0.0959 0.1085,0.2203 0.1875,0.3125 0.1397,0.16297 0.4104,0.28536 0.5625,0.4375 0.094,0.0943 0.165,0.21002 0.25,0.3125 0.1856,0.22271 0.4264,0.36388 0.625,0.5625 0.1151,0.11505 0.1974,0.25994 0.3125,0.375 0.033,0.0329 0.092,0.0296 0.125,0.0625 0.1151,0.11505 0.1974,0.25994 0.3125,0.375 0.1151,0.11505 0.2646,0.19294 0.375,0.3125 0.1413,0.15308 0.2349,0.34584 0.375,0.5 0.07,0.0771 0.176,0.1138 0.25,0.1875 0.2202,0.2202 0.4161,0.51786 0.6875,0.6875 0.095,0.0595 0.2195,0.0628 0.3125,0.125 0.098,0.0654 0.157,0.1776 0.25,0.25 0.096,0.0746 0.2155,0.1146 0.3125,0.1875 0.4423,0.33174 0.8334,0.77502 1.3125,1.0625 0.3691,0.22145 0.7961,0.32606 1.1875,0.5 0.6921,0.3076 -0.2849,-0.10921 0.5625,0.375 0.036,0.0207 0.089,-0.0207 0.125,0 0.1413,0.0807 0.2226,0.2554 0.375,0.3125 0.142,0.0533 0.3018,0.0572 0.4375,0.125 0.1863,0.0932 0.2314,0.3897 0.5,0.375 0.099,0.0394 0.2117,0.0289 0.3125,0.0625 0.1425,0.0475 0.2476,0.1704 0.375,0.25 0.1926,0.12037 0.4244,0.31591 0.5625,0.5 0.013,0.0167 0,0.0417 0,0.0625 0.062,0.0833 0.1255,0.1667 0.1875,0.25 0.238,0.28557 0.5431,0.44475 0.8125,0.6875 0.1543,0.13902 0.2957,0.29167 0.4435,0.4375 0.163,0 -0.067,-0.0186 0.125,0.125 0.053,0.0395 0.1345,0.023 0.1875,0.0625 0.1178,0.0884 0.1946,0.2241 0.3125,0.3125 0.053,0.0395 0.1285,0.033 0.1875,0.0625 0.4541,0.227 -0.036,0.0175 0.3125,0.25 0.017,0.0116 0.047,-0.0147 0.062,0 0.032,0.0329 0.029,0.0921 0.062,0.125 0.053,0.0531 0.1255,0.0833 0.1875,0.125 0.02,0 0.045,-0.0125 0.062,0 0.071,0.053 0.1185,0.1323 0.1875,0.1875 0.3471,0.27764 0.7532,0.50211 1.125,0.75 0.2275,0.15169 0.4107,0.33929 0.625,0.5 0.3057,0.22927 0.7086,0.385 1,0.625 0.5533,0.45568 0.6061,0.66855 1.0625,1.125 0.074,0.0737 0.176,0.1138 0.25,0.1875 0.2057,0.20571 0.4635,0.50774 0.625,0.75 0.3224,0.48356 0.6466,0.95914 1.0625,1.375 0.074,0.0737 0.17,0.1208 0.25,0.1875 0.4891,0.40758 0.8764,0.86689 1.4375,1.1875 0.3222,0.18412 0.6834,0.3065 1,0.5 0.2564,0.15667 0.5024,0.32978 0.75,0.5 0.1341,0.0922 0.2355,0.2288 0.375,0.3125 0.056,0.0339 0.1315,0.0286 0.1875,0.0625 0.1537,0.0922 0.2917,0.20833 0.4375,0.3125 0.2011,0.14362 0.3319,0.39435 0.5,0.5625 0.014,0.0147 0.047,-0.0147 0.062,0 0.353,0.3534 0.1442,0.2115 0.375,0.5 0.092,0.11503 0.2205,0.19747 0.3125,0.3125 0.2339,0.29242 0.4238,0.71582 0.5625,1.0625 0.1185,0.29601 0.074,0.3007 0.1875,0.5 0.195,0.34122 0.3902,0.74946 0.625,1.0625 0.053,0.0707 0.1425,0.1117 0.1875,0.1875 0.021,0.0357 -0.015,0.0863 0,0.125 0.09,0.22568 0.3051,0.42637 0.4375,0.625 0.1579,0.23682 0.2171,0.45068 0.375,0.6875 0.049,0.0735 0.1445,0.1102 0.1875,0.1875 0.064,0.11518 0.066,0.25715 0.125,0.375 0.026,0.0527 0.093,0.0753 0.125,0.125 0.1152,0.18096 0.2165,0.37065 0.3125,0.5625 0.074,0.1475 0.051,0.29 0.125,0.4375 0.026,0.0527 0.103,0.0703 0.125,0.125 0.023,0.058 -0.023,0.1295 0,0.1875 0.022,0.0547 0.095,0.0745 0.125,0.125 0.022,0.0372 0.04,0.2753 0.062,0.3125 0.045,0.0758 0.1325,0.1185 0.1875,0.1875 0.029,0.0364 0.041,0.0833 0.062,0.125 0,0.0208 -0.012,0.0452 0,0.0625 0.1012,0.15185 0.2205,0.27096 0.3125,0.4375 0.2762,0.4972 0.5102,1.0164 0.8125,1.5 0.2046,0.32744 0.501,0.75299 0.625,1.125 0.1195,0.35806 -0.01,0.17126 0.1875,0.5625 0.1087,0.21731 0.8164,0.0139 0.375,0.625 0.065,0.15885 0.063,0.33965 0.125,0.5 0.044,0.11338 0.1375,0.20191 0.1875,0.3125 0.054,0.11995 0.072,0.25459 0.125,0.375 0.031,0.0686 0.099,0.1172 0.125,0.1875 0.037,0.0995 0.019,0.2154 0.062,0.3125 0.1351,0.30394 0.4247,0.56503 0.5625,0.875 0.096,0.21534 0.1433,0.4741 0.25,0.6875 0.2446,0.48911 0.5009,1.00189 0.75,1.5 0.013,0.0263 0.052,0.0345 0.062,0.0625 0.013,0.0395 -0.015,0.086 0,0.125 0.3965,1.05732 -0.01,-0.41045 0.3125,0.875 0.026,0.0706 0.099,0.1172 0.125,0.1875 0.037,0.0995 0.031,0.21097 0.062,0.3125 0.052,0.17013 0.1445,0.32731 0.1875,0.5 0.03,0.12127 -0.051,0.26077 0,0.375 0.106,0.23854 0.3,0.43747 0.375,0.6875 0.093,0.31042 0.046,0.62317 0.125,0.9375 0.048,0.19174 0.318,0.30458 0.1875,0.5625 0.1,0.44875 0.1493,0.92177 0.25,1.375 0.067,0.30277 0.06,0.24348 0.1875,0.5625 0.024,0.0974 0.024,0.4861 0.062,0.5625 0.01,0.0186 0.052,-0.02 0.062,0 0.04,0.14164 0.019,0.2967 0.062,0.4375 0.1212,0.39398 0.4606,0.7202 0.5675,1.125 0,0.128 0.073,0.0735 0.125,0.125 0.032,0.0329 0.029,0.0921 0.062,0.125 0.047,0.0466 0.1875,-0.11349 0.1875,0.0625 0.032,0.0329 0.029,0.0921 0.062,0.125 0.032,0.0323 0.341,0.2898 0.375,0.3125 0.035,0.0231 0.102,-0.0347 0.125,0 0.062,0.0884 0,0.2296 0.062,0.3125 0.065,0.0813 0.169,0.1224 0.25,0.1875 0.1591,0.12726 0.2369,0.29943 0.375,0.4375 0.033,0.0329 0.097,0.0252 0.125,0.0625 0.084,0.1118 0.029,0.3002 0.1875,0.375 0.4525,0.5657 -0.5351,-0.93122 0.4375,0.625 0.047,0.0586 0.1405,0.0663 0.1875,0.125 0.041,0.0514 0.032,0.1286 0.062,0.1875 0.09,0.17987 0.1944,0.22739 0.3125,0.375 0.1427,0.17842 0.2317,0.38341 0.375,0.5625 0.1528,0.191 0.1325,0.0984 0.375,0.25 0.088,0.0552 0.167,0.125 0.25,0.1875 0,0.0208 -0.017,0.0509 0,0.0625 0.055,0.0365 0.1365,0.0203 0.1875,0.0625 0.08,0.0667 0.1065,0.1849 0.1875,0.25 0.1091,0.0873 0.392,-0.24326 0.375,0.1875 0.053,0.0531 0.072,0.1344 0.125,0.1875 0.1267,0.12672 0.2998,0.19777 0.4375,0.3125 0.3495,0.29167 -0.2188,-0.0729 0.4375,0.4375 0.1551,0.12066 0.3857,0.12603 0.5,0.3125 0.336,0.27998 0.6123,0.59043 0.9375,0.875 0.078,0.0686 0.182,0.1084 0.25,0.1875 0.061,0.0707 0.064,0.1793 0.125,0.25 0.207,0.24148 0.5836,0.45862 0.8125,0.6875 0.3646,0.36464 0.6678,0.78666 1.0625,1.125 0.1931,0.1655 0.4216,0.28492 0.625,0.4375 0.1343,0.10072 0.4145,0.3635 0.5625,0.4375 0.077,0.0384 0.17,0.0306 0.25,0.0625 0.2432,0.0973 0.4592,0.41028 0.6875,0.5625 0.2138,0.1425 0.5229,0.22359 0.75,0.375 0.087,0.0578 0.16,0.1358 0.25,0.1875 0.1932,0.11042 0.4417,0.17505 0.625,0.3125 0.3921,0.29405 0.8072,0.57078 1.1875,0.875 0.138,0.11043 0.237,0.26457 0.375,0.375 0.036,0.0291 0.092,0.0296 0.125,0.0625 0.085,0.0845 0.302,0.3544 0.375,0.5 0.038,0.0768 0.01,0.1813 0.062,0.25 0.053,0.0707 0.1365,0.1156 0.1875,0.1875 0.1267,0.17732 0.2043,0.43571 0.3125,0.625 0.1971,0.34484 0.5449,0.59565 0.75,0.9375 0.1083,0.18052 0.151,0.38403 0.25,0.5625 0.1909,0.34361 0.4013,0.67681 0.625,1 0.05,0.0727 0.1385,0.114 0.1875,0.1875 0.036,0.0548 0.027,0.1316 0.062,0.1875 0.2131,0.34102 0.4953,0.63182 0.75,0.9375 0.1651,0.1981 0.2828,0.41879 0.4375,0.625 0.4806,0.64074 0.9277,1.26649 1.375,1.9375 0.1672,0.25087 0.377,0.45561 0.5625,0.6875 0.1705,0.21314 0.4,0.65061 0.5,0.875 0.025,0.0571 -0.028,0.1316 0,0.1875 0.2635,0.52767 0.1115,0.4649 0.1875,1 0.01,0.0461 0.051,0.0798 0.062,0.125 0.093,0.37568 0.1545,0.79644 0.1875,1.1875 0.084,1.01154 -0.1113,2.12325 0,3.125 10e-4,0.014 0.038,0.6167 0.062,0.6875 0.03,0.0884 0.101,0.16 0.125,0.25 0.06,0.22506 0.079,0.4591 0.125,0.6875 0.016,0.0842 0.062,0.1641 0.062,0.25 0,0.1678 -0.039,0.33333 -0.059,0.5 0.033,0.0329 0.092,0.0296 0.125,0.0625 0.03,0.0295 -0.019,0.0877 0,0.125 0.075,0.1495 0.2425,0.20079 0.3125,0.375 0.015,0.0387 -0.013,0.0855 0,0.125 0.019,0.0559 0.106,0.0691 0.125,0.125 0.033,0.0988 -0.017,0.20975 0,0.3125 0.01,0.065 0.051,0.1225 0.062,0.1875 0.023,0.13582 0,0.29917 0,0.4375 0,0.72308 -0.074,1.35276 0.25,2 0.1128,0.22567 0.4003,0.40028 0.5625,0.5625 0.053,0.0531 0.083,0.125 0.125,0.1875 0,0.0208 -0.012,0.0452 0,0.0625 0.09,0.13538 0.2083,0.25 0.3125,0.375 0.1554,0.18643 0.4858,0.4905 0.6875,0.625 0.055,0.0365 0.1375,0.0196 0.1875,0.0625 0.1013,0.0868 0.156,0.2182 0.25,0.3125 0.2204,0.22036 0.6547,0.44876 0.875,0.625 0.1088,0.087 0.252,0.251 0.375,0.3125 0.077,0.0384 0.173,0.0241 0.25,0.0625 0.093,0.0466 0.161,0.1339 0.25,0.1875 0.1889,0.11333 0.4513,0.20129 0.625,0.375 0.074,0.0737 0.1135,0.1763 0.1875,0.25 0.033,0.0329 0.086,0.0367 0.125,0.0625 0.1722,0.11483 0.298,0.4457 0.375,0.625 0.068,0.15826 0.1635,0.39232 0.1875,0.5625 0.051,0.35827 0,0.76136 0,1.125 v 2.3125 c 0,0.20563 -0.061,0.97323 0,1.125 0.062,0.15402 0.2741,0.55291 0.375,0.6875 0.012,0.0167 0.047,-0.0147 0.062,0 0.1052,0.10521 0.1032,0.2244 0.25,0.3125 0.057,0.0339 0.1315,0.0286 0.1875,0.0625 0.1011,0.0606 0.154,0.1815 0.25,0.25 0.2208,0.15774 0.4736,0.27709 0.6875,0.4375 0.047,0.0353 0.072,0.0987 0.125,0.125 0.037,0.0186 0.086,-0.0155 0.125,0 0.07,0.0279 0.1205,0.0914 0.1875,0.125 0.1592,0.0796 0.3373,0.1152 0.5,0.1875 0.223,0.0991 0.4129,0.26893 0.625,0.375 0.05,0.025 0.1375,-0.025 0.1875,0 0.091,0.0456 0.1,0.1 0.125,0.125 0.1137,0.11369 0.3168,0.12928 0.4375,0.25 0.062,0.0622 0.2715,0.3154 0.3125,0.4375 0.025,0.075 -0.025,0.175 0,0.25 0.024,0.0713 0.091,0.1203 0.125,0.1875 0.028,0.0559 -0.02,0.1282 0,0.1875 0.01,0.028 0.052,0.0345 0.062,0.0625 0.115,0.34505 0.062,0.79574 0.25,1.125 0.052,0.0904 0.1405,0.1568 0.1875,0.25 0.019,0.0373 -0.01,0.0846 0,0.125 0.045,0.1815 0.049,0.0731 0.125,0.1875 0.155,0.23256 0.2649,0.49309 0.375,0.75 0.025,0.0583 0.076,0.3645 0.125,0.4375 0.049,0.0735 0.1325,0.1185 0.1875,0.1875 0.2898,0.36229 0.4873,0.91216 0.6875,1.3125 0.076,0.15207 0.3588,0.4153 0.5,0.5 0.056,0.0339 0.1255,0.0417 0.1875,0.0625 0.02,0 0.043,-0.009 0.062,0 0.1087,0.0543 0.2083,0.125 0.3125,0.1875 0.062,0.0625 0.1115,0.142 0.1875,0.1875 0.036,0.0214 0.085,-0.0132 0.125,0 0.094,0.0312 0.166,0.1317 0.25,0.1875 0.049,0.0328 0.201,-0.0219 0.25,0 0.1535,0.0682 0.2917,0.1667 0.4375,0.25 0.062,0.0625 0.1085,0.148 0.1875,0.1875 0.056,0.028 0.1315,-0.028 0.1875,0 0.041,0.0208 0.023,0.0992 0.062,0.125 0.035,0.0231 0.09,-0.0231 0.125,0 0.1226,0.0817 0.1727,0.2659 0.3125,0.3125 0.04,0.0132 0.088,-0.0186 0.125,0 0.019,0.009 -0.01,0.0439 0,0.0625 0.047,0.0932 0.1135,0.1763 0.1875,0.25 0.014,0.0147 0.047,-0.0147 0.062,0 0.25,0.246 0,0.12695 0.25,0.3125 0.3027,0.22703 0,-0.0662 0.1875,0.125 0.01,0.01 0.115,0.1775 0.125,0.1875 0.014,0.0147 0.047,-0.0147 0.062,0 0.015,0.0147 -0.015,0.0478 0,0.0625 0.03,0.0295 0.092,-0.025 0.125,0 0.1592,0.11937 0.2158,0.2169 0.375,0.3125 0.056,0.0338 0.4375,0.1805 0.4375,0.1875 0.019,0.0373 -0.025,0.0917 0,0.125 0.1075,0.14337 0.2988,0.19901 0.4375,0.3125 0.08,0.0653 0.928,0.7855 1,0.875 0.083,0.1042 -0.042,0.1042 0,0.1875 0.055,0.10927 0.2415,0.1786 0.3125,0.25 0.036,0.0363 -0.1689,0.53374 0.1875,0.25 0.079,0.0678 0.176,0.1138 0.25,0.1875 0.2241,0.22408 0.3413,0.5288 0.5625,0.75 0.033,0.0329 0.092,0.0296 0.125,0.0625 0.3339,0.33386 0.5859,0.79294 1,1 0.1965,0.0982 0.3169,0.37792 0.5,0.5 0.2165,0.14436 0.5496,0.43105 0.8125,0.5625 0.2455,0.12274 0.5546,0.18353 0.8125,0.3125 0.7781,0.38905 -0.7275,-0.23373 0.5625,0.25 0.044,0.0164 0.083,0.0417 0.125,0.0625 0.02,0.0208 0.035,0.0516 0.062,0.0625 0.3654,0.14615 0.7533,0.18861 1.125,0.3125 0.3304,0.11014 0.9811,0.44571 1.25,0.625 0.1823,0.12152 0.2642,0.27127 0.375,0.4375 0.033,0.049 0.09,0.0779 0.125,0.125 0.2928,0.3904 0.1875,1.30915 0.1875,1.75 l -0.016,2.36133 5.209,0.30664 -0.019,-215.36498 c 0.2631,0.21099 -0.335,0.28749 -0.8702,0.21099 -0.092,-0.0132 -0.1732,-0.0752 -0.2652,-0.0884 -0.2917,-0.0417 -0.59,0.021 -0.8839,0 -0.2369,-0.0169 -0.4705,-0.0669 -0.7071,-0.0884 -0.176,-0.016 -0.357,0.0347 -0.5303,0 -0.2103,-0.0421 -0.4059,-0.15018 -0.6187,-0.17678 -0.7247,-0.0906 -1.4814,0.0607 -2.2097,0 -0.6737,-0.0561 -1.3629,-0.10977 -2.033,-0.17677 -0.3643,-0.0364 -0.6919,-0.22417 -1.0606,-0.26517 -0.436,-0.0485 -0.8892,-0.0399 -1.3259,-0.0884 -0.8901,-0.0989 -1.7631,-0.34324 -2.6516,-0.44194 -0.3228,-0.0359 -1.8707,-0.1636 -2.2981,-0.35355 -0.2692,-0.11966 -0.4436,-0.39857 -0.7071,-0.53033 -0.1087,-0.0543 -0.2414,-0.0417 -0.3536,-0.0884 -0.5856,-0.24401 -1.107,-0.62375 -1.6794,-0.88388 -0.1696,-0.0771 -0.3636,-0.0935 -0.5303,-0.17678 -0.1317,-0.0659 -0.231,-0.18347 -0.3535,-0.26517 -0.06,-0.0397 -0.5918,-0.34304 -0.7071,-0.44194 -0.5691,-0.48778 -1.1159,-1.0095 -1.6794,-1.5026 -0.3737,-0.32696 -0.6693,-0.75626 -1.0607,-1.06066 -0.2219,-0.17257 -0.8778,-0.70304 -1.149,-0.88388 -0.7454,-0.4969 0.053,0.31848 -0.9723,-0.70711 -0.1334,-0.1334 -0.2202,-0.30854 -0.3536,-0.44194 -0.3261,-0.32614 -0.9785,-0.74078 -1.3258,-0.97227 -0.1644,-0.10963 -0.3722,-0.14658 -0.5303,-0.26517 -0.5053,-0.379 -0.9612,-0.99215 -1.3258,-1.5026 -0.038,-0.0536 -0.041,-0.13018 -0.088,-0.17678 -0.075,-0.0751 -0.1992,-0.0939 -0.2652,-0.17677 -0.058,-0.0728 -0.028,-0.19357 -0.088,-0.26517 -0.348,-0.41754 -0.2963,-0.1195 -0.6187,-0.44194 -0.021,-0.0208 0.021,-0.0676 0,-0.0884 -0.2769,-0.27695 -0.6589,-0.47205 -0.9723,-0.7071 -0.4651,-0.34885 -0.9129,-0.67152 -1.4142,-0.97228 -0.2505,-0.15032 -0.5432,-0.21338 -0.7955,-0.35355 -0.1287,-0.0715 -0.2156,-0.21347 -0.3535,-0.26517 -0.1104,-0.0414 -0.2385,0.0256 -0.3536,0 -1.044,-0.23201 0.027,-0.0782 -0.7071,-0.35355 -0.1748,-0.0656 -0.9469,-0.15548 -1.0606,-0.17678 -0.9957,-0.18667 -2.0159,-0.31525 -3.0053,-0.53033 -1.0757,-0.23385 -2.1156,-0.59953 -3.1819,-0.88388 -0.3798,-0.10128 -0.7726,-0.15221 -1.1491,-0.26516 -0.6209,-0.18627 -1.2324,-0.44052 -1.8561,-0.61872 -0.2889,-0.0826 -0.5924,-0.10388 -0.8839,-0.17678 -0.7505,-0.18762 -1.4909,-0.41957 -2.2097,-0.70711 -0.458,-0.18319 -0.8989,-0.46989 -1.3259,-0.7071 -0.5263,-0.29239 -1.0957,-0.53722 -1.5909,-0.88389 -0.8203,-0.57415 -1.5918,-1.23819 -2.2981,-1.94454 -0.1474,-0.14731 -0.3209,-0.27241 -0.442,-0.44194 -0.1763,-0.24684 -0.2477,-0.56247 -0.4419,-0.7955 -0.068,-0.0816 -0.1962,-0.0962 -0.2652,-0.17677 -0.5233,-0.61056 -0.8592,-1.51624 -1.2374,-2.20971 -0.1765,-0.3235 -0.5913,-0.80153 -0.7071,-1.14905 -0.068,-0.20349 -0.09,-0.42271 -0.1768,-0.61872 -0.088,-0.1987 -0.4152,-0.47675 -0.5303,-0.70711 -0.061,-0.12215 -0.2806,-0.6159 -0.3536,-0.7071 -0.1178,-0.14732 -0.3192,-0.21032 -0.4419,-0.35356 -0.3142,-0.36657 -0.569,-0.74578 -0.8839,-1.06066 -0.226,-0.22597 -0.4223,-0.19529 -0.7071,-0.35355 -0.2201,-0.12226 -0.5055,-0.36901 -0.7071,-0.53033 -0.4227,-0.33813 -0.9786,-0.89015 -1.3259,-1.23744 -0.1041,-0.10416 -0.161,-0.24938 -0.2651,-0.35355 -1.491,-1.49096 0.7781,1.15727 -1.3258,-1.41416 -0.3786,-0.37856 -1.004,-0.28236 -1.5026,-0.35356 -0.3967,-0.0567 -0.7584,-0.30475 -1.1491,-0.35355 -0.6668,-0.0834 -1.3696,-0.0346 -2.0329,-0.17678 -0.637,-0.1365 -0.3765,-0.21096 -0.9723,-0.26516 -1.6475,-0.14978 -3.302,-0.33648 -4.9497,-0.53033 -1.1048,-0.12997 0.097,-0.0427 -1.2375,-0.26517 -0.6453,-0.10754 -1.2944,-0.19296 -1.9445,-0.26516 -0.9881,-0.10979 -2.0261,-0.14742 -3.0052,-0.35356 -0.6224,-0.13102 -1.2411,-0.28008 -1.8562,-0.44194 -0.2703,-0.0711 -0.5226,-0.20456 -0.7955,-0.26516 -0.2604,-0.0579 -0.5323,-0.0445 -0.7955,-0.0884 -0.2679,-0.0447 -0.528,-0.12958 -0.7955,-0.17678 -0.8055,-0.14214 -1.6849,-0.13413 -2.4748,-0.35355 -0.3323,-0.0923 -0.6452,-0.2445 -0.9723,-0.35355 -0.7492,-0.24973 -1.5351,-0.50364 -2.2981,-0.70711 -0.1765,-0.0471 -0.8619,-0.18067 -1.1491,-0.26517 -0.7243,-0.21302 -1.4802,-0.50586 -2.2097,-0.7071 -0.6131,-0.16914 -1.2333,-0.31308 -1.8561,-0.44194 -0.2326,-0.0481 -0.4793,-0.0214 -0.7071,-0.0884 -0.2784,-0.0819 -0.5216,-0.25766 -0.7955,-0.35356 -0.3171,-0.11097 -0.655,-0.1548 -0.9723,-0.26516 -0.3618,-0.12583 -0.6957,-0.32581 -1.0607,-0.44194 -0.2863,-0.0911 -0.5892,-0.11788 -0.8838,-0.17678 -0.2063,-0.0589 -0.4153,-0.10898 -0.6188,-0.17678 -0.6281,-0.20937 -1.2305,-0.49053 -1.8561,-0.7071 -0.2907,-0.10062 -0.5992,-0.1487 -0.8839,-0.26517 -0.2682,-0.10972 -1.9942,-0.9087 -2.2981,-1.06066 -0.2713,-0.13566 -0.5167,-0.32245 -0.7955,-0.44194 -0.3425,-0.1468 -0.7201,-0.20219 -1.0607,-0.35355 -0.8089,-0.35952 -1.5768,-0.8776 -2.3864,-1.23744 -0.111,-0.0494 -0.2384,-0.05 -0.3536,-0.0884 -0.616,-0.20533 -1.2254,-0.4552 -1.8562,-0.61872 -0.4362,-0.1131 -0.8899,-0.15046 -1.3258,-0.26516 -0.1274,-0.0335 -0.2278,-0.13748 -0.3535,-0.17678 -0.7377,-0.23052 -1.6186,-0.47474 -2.3865,-0.61872 -0.643,-0.12055 -1.2993,-0.15762 -1.9446,-0.26516 -0.6784,-0.11308 -1.3552,-0.2357 -2.0329,-0.35356 -0.2062,-0.0295 -0.4129,-0.0559 -0.6187,-0.0884 -0.7368,-0.11634 -1.4844,-0.17948 -2.2097,-0.35356 -0.3624,-0.087 -0.6998,-0.26045 -1.0607,-0.35355 -4.312,-1.11278 -0.1151,0.0123 -2.3865,-0.44194 -1.0711,-0.21423 -0.1793,-0.19787 -1.5026,-0.35356 -0.2048,-0.0241 -0.4133,0.0187 -0.6187,0 -0.3915,-0.0356 -0.7605,-0.20536 -1.149,-0.26516 -0.5564,-0.0856 -1.1213,-0.10398 -1.6794,-0.17678 -0.3843,-0.0501 -0.7631,-0.14167 -1.1491,-0.17677 -0.4401,-0.04 -0.8838,0 -1.3258,0 l -5.4066,-0.11217 c 0.068,0.18792 -0.3212,0.36027 -0.4241,0.66909 -0.072,0.21617 0.032,0.45802 0,0.68359 -0.037,0.26073 -0.2075,1.01298 -0.293,1.26954 -0.078,0.23518 -0.2146,0.4484 -0.293,0.68359 -0.095,0.28471 -0.1163,0.58937 -0.1953,0.87891 -0.081,0.29793 -0.218,0.57931 -0.2929,0.8789 -0.1235,0.49399 -0.1,1.0801 -0.293,1.5625 -0.017,0.0427 -0.087,0.053 -0.098,0.0977 -0.047,0.18948 0.022,0.39182 0,0.58594 -0.044,0.39831 -0.1397,0.78284 -0.1953,1.17187 -0.1107,0.77518 -0.1117,-0.0202 -0.2929,0.97656 -0.064,0.3523 0.027,0.7172 0,1.07422 -0.036,0.47006 -0.149,0.90383 -0.1954,1.36719 -0.1892,1.89229 0.173,4.05469 0,5.95703 -0.061,0.66606 -0.1028,0.12864 -0.1953,0.68359 -0.059,0.35395 -0.1446,0.71932 -0.1953,1.07422 -0.1686,1.18034 0.1686,2.43295 0,3.61328 -0.029,0.20381 -0.1549,0.38406 -0.1953,0.58594 -0.025,0.12768 0.018,0.26173 0,0.39063 -0.1471,1.02948 -0.098,2.08156 -0.4493,2.86301 -0.3513,-0.20306 -0.3773,-0.13791 -0.3513,-0.0852 0.026,0.0527 0.1237,-0.0264 0.1767,0 0.1188,0.0592 0.1228,0.21087 0.1768,0.26517 0.02,0.0208 0.075,-0.0263 0.088,0 0.026,0.0527 -0.026,0.12408 0,0.17678 0.013,0.0264 0.067,-0.0208 0.088,0 0.046,0.0466 0.041,0.13017 0.088,0.17677 0.02,0.0208 0.067,-0.0208 0.088,0 0.2085,0.20855 0.7676,1.04675 0.9722,1.14905 0.053,0.0263 0.1278,-0.0327 0.1768,0 0.3447,0.2298 0.7439,0.52396 1.0607,0.7955 0.095,0.0813 0.1611,0.19586 0.2651,0.26516 0.1746,0.11636 0.7229,0.35254 0.8839,0.44194 0.3446,0.19145 0.6299,0.51148 0.9723,0.70711 0.081,0.0462 0.1842,0.0422 0.2652,0.0884 0.2239,0.12796 0.8812,0.72279 0.9722,0.79549 0.4414,0.35314 0.9519,0.64861 1.4142,0.97227 0.558,0.39059 1.0866,0.81971 1.6794,1.14905 0.9349,0.51941 -0.4632,-0.39497 1.2375,0.7955 0.4816,0.28898 1.5466,0.7102 2.0329,0.88388 0.1144,0.0409 0.2449,0.0341 0.3535,0.0884 0.1318,0.0659 0.2176,0.20856 0.3536,0.26516 0.2243,0.0935 0.4766,0.1 0.7071,0.17678 0.039,0.0132 0.051,0.0698 0.088,0.0884 0.3773,0.18865 0.7643,0.35722 1.149,0.53033 0.465,0.20921 0.9436,0.42263 1.4142,0.61872 0.284,0.11831 0.6039,0.13788 0.8839,0.26516 0.1934,0.0879 0.3446,0.25038 0.5304,0.35356 0.1935,0.10747 0.4184,0.091 0.6187,0.17677 0.098,0.0419 0.1771,0.11788 0.2651,0.17678 0.059,0.0295 0.1158,0.0639 0.1768,0.0884 0.6409,0.25636 -0.03,-0.006 0.442,0.0884 0.3016,0.0603 0.8279,0.26175 1.149,0.35355 0.6251,0.17858 -0.1778,-0.0257 0.7071,0.35355 0.054,0.0232 0.1188,-0.0128 0.1768,0 0.3279,0.0729 0.6536,0.15894 0.9723,0.26517 0.2128,0.0709 0.4029,0.20356 0.6187,0.26516 0.145,0.0414 0.8603,0.12078 0.9723,0.17678 0.074,0.0373 0.1027,0.13948 0.1767,0.17678 1.1883,0.59414 0,-0.11547 0.8839,0.26516 0.3158,0.13535 0.5711,0.38815 0.8839,0.53033 0.3196,0.14529 0.5759,0.14826 0.8839,0.35356 0.4405,0.29376 -0.07,0.0838 0.3535,0.26516 0.1459,0.0625 0.3129,0.0846 0.442,0.17678 0.087,0.0617 0.094,0.19876 0.1768,0.26516 0.1854,0.14839 0.5377,0.0113 0.6187,0.35356 0.2231,0.18595 0.3956,0.43276 0.6187,0.61871 0.2263,0.18862 0.5299,0.27524 0.7071,0.53033 0.063,0.0542 0.1018,0.13948 0.1768,0.17678 0.1086,0.0543 0.2449,0.0341 0.3535,0.0884 0.2403,0.12013 0.4669,0.4102 0.7071,0.53033 0.3175,0.15871 0.658,0.19639 0.9723,0.35355 0.1318,0.0659 0.2106,0.22947 0.3536,0.26517 0.086,0.0214 0.1801,-0.0243 0.2651,0 0.1122,0.0321 0.6828,0.26905 0.7955,0.35355 0.025,0.0186 0.418,0.51463 0.442,0.53033 0.049,0.0327 0.1277,-0.0327 0.1767,0 0.086,0.0573 0.1992,0.35934 0.2652,0.44194 0.078,0.0976 0.1872,0.16757 0.2652,0.26517 0.2497,0.31214 0.3577,0.74752 0.6187,1.06066 0.149,0.17881 0.7035,0.58388 0.7955,0.70711 0.035,0.0471 -0.035,0.12967 0,0.17677 0.1132,0.15092 0.3241,0.20624 0.4419,0.35356 0.092,0.11503 0.1334,0.28765 0.2652,0.35355 0.3839,0.19197 0.7902,0.37951 1.149,0.61872 0.1321,0.088 0.3151,0.0816 0.442,0.17677 0.052,0.0395 0.041,0.13018 0.088,0.17678 0.093,0.0932 0.2439,0.10368 0.3535,0.17678 0.2652,0.17676 -0.1768,0 0.2652,0.26516 0.08,0.048 0.1902,0.0325 0.2652,0.0884 0.052,0.0395 0.042,0.13018 0.088,0.17678 0.119,0.11894 0.7889,0.6389 0.8839,0.7071 0.5507,0.39332 1.1972,0.75519 1.6794,1.23744 0.075,0.0751 0.094,0.19877 0.1768,0.26517 0.073,0.0582 0.1851,0.0405 0.2651,0.0884 0.2077,0.12458 0.2048,0.29315 0.3536,0.44195 0.5571,0.55714 -0.3794,-0.74154 0.4419,0.35355 0.018,0.0236 -0.016,0.0639 0,0.0884 0.046,0.0693 0.1178,0.11787 0.1768,0.17677 0.059,0.0295 0.1368,0.0357 0.1768,0.0884 0.1118,0.14866 0.065,0.29328 0.1768,0.44194 0.05,0.0667 0.1437,0.10018 0.1767,0.17678 0.059,0.13809 0.041,0.29942 0.088,0.44194 0.047,0.13976 0.1992,0.22179 0.2652,0.35356 0.3687,0.73741 0.017,0.13866 0.2652,0.88388 0.1447,0.43434 0.3686,0.92158 0.5303,1.32582 0.1859,0.46469 0.2482,1.22044 0.6187,1.591 0.075,0.0751 0.1902,0.10167 0.2652,0.17677 0.2225,0.22255 0.3911,0.56788 0.6187,0.7955 0.2578,0.25775 0.5945,0.49007 0.8839,0.7071 0.4169,0.3127 0.7024,0.7908 1.0606,1.14905 0.047,0.0466 0.1178,0.0589 0.1768,0.0884 0.088,0.11785 0.1772,0.2357 0.2652,0.35355 0.047,0.0466 0.1358,0.037 0.1768,0.0884 0.083,0.10289 0.1077,0.24134 0.1767,0.35356 0.4925,0.80019 0.7969,1.06772 0.8819,2.03286 0,0.20727 -0.021,-0.0417 0.088,0.17677 0.039,0.0791 -0.024,0.18017 0,0.26517 0.081,0.2842 0.1972,0.5222 0.2652,0.79549 0.1023,0.40944 -0.047,0.9044 0,1.32583 0.026,0.23608 0.013,0.48176 0.088,0.70711 0.013,0.0395 0.078,0.0475 0.088,0.0884 0.079,0.39735 -0.067,0.83736 0,1.23743 0.04,0.23942 0.1367,0.46769 0.1767,0.70711 0.1768,1.04565 0.2963,2.8134 0.1768,3.88909 -0.055,0.49358 -0.4103,0.90908 -0.6187,1.32582 -0.041,0.0833 -0.03,0.19237 -0.088,0.26517 -0.6771,0.84679 0.277,-1.17275 -0.7071,0.79549 -0.04,0.0791 0.033,0.18307 0,0.26517 -0.031,0.0774 -0.1338,0.10527 -0.1768,0.17677 -0.047,0.0799 -0.046,0.18187 -0.088,0.26517 -0.087,0.17334 -0.7356,0.78691 -0.8839,0.97227 -0.092,0.11503 -0.1891,0.22723 -0.2651,0.35355 -0.048,0.0799 -0.032,0.19067 -0.088,0.26517 -0.04,0.0527 -0.1258,0.0472 -0.1768,0.0884 -0.098,0.0781 -0.1872,0.16756 -0.2652,0.26516 -0.2891,0.3615 -0.4151,0.88707 -0.7071,1.23744 -0.068,0.0816 -0.1991,0.0938 -0.2651,0.17678 -0.058,0.0728 -0.034,0.18936 -0.088,0.26516 -0.097,0.13562 -0.2566,0.21793 -0.3536,0.35355 -0.054,0.0758 -0.036,0.18767 -0.088,0.26517 -0.069,0.10401 -0.1961,0.16116 -0.2651,0.26516 -0.051,0.0775 -0.04,0.18527 -0.088,0.26517 -0.043,0.0715 -0.1338,0.10528 -0.1768,0.17678 -0.1915,0.31918 -0.2292,0.74159 -0.4419,1.06066 -0.1881,0.28204 -0.5384,0.51434 -0.7071,0.79549 -0.03,0.0505 0.03,0.12628 0,0.17678 -0.064,0.10718 -0.1872,0.16756 -0.2652,0.26516 -0.1235,0.15434 -0.1503,0.3695 -0.2652,0.53033 -0.205,0.287 -0.6004,0.75966 -0.8838,0.97227 -0.085,0.0637 -0.2062,0.0884 -0.2652,0.17678 -0.067,0.10108 -0.04,0.2419 -0.088,0.35355 -0.06,0.14066 -0.2606,0.39083 -0.3536,0.53033 -0.1046,0.15697 -0.2201,0.30855 -0.3535,0.44195 -0.047,0.0466 -0.1298,0.0418 -0.1768,0.0884 -0.1802,0.18019 -0.2939,0.49988 -0.4419,0.70711 -0.1534,0.21468 -0.3865,0.40296 -0.5304,0.61872 -0.1819,0.27288 -0.3172,0.62817 -0.5303,0.88388 -0.6271,0.75232 0.1685,-0.48704 -0.7071,0.97228 -0.479,0.79834 -0.9366,1.79225 -1.6794,2.38648 -0.023,0.0184 -0.065,-0.0184 -0.088,0 -0.2546,0.2037 -0.5061,0.54179 -0.7955,0.70711 -0.1377,0.0787 -0.3,0.10577 -0.4419,0.17677 -0.6359,0.31798 -1.2198,0.7425 -1.8562,1.06066 -0.083,0.0417 -0.1771,0.0589 -0.2651,0.0884 -0.3536,0.17678 -0.7071,0.35356 -1.0607,0.53033 -0.3134,0.17632 -0.5804,0.42564 -0.8839,0.61872 -0.2898,0.18447 -0.6126,0.31939 -0.8838,0.53033 -0.6405,0.49814 -1.1761,1.24494 -1.6794,1.85616 -1.796,2.18083 0.8259,-0.98178 -0.8839,0.97227 -0.2099,0.23984 -0.336,0.54289 -0.5303,0.79549 -0.1657,0.21531 -0.3674,0.40142 -0.5304,0.61872 -0.2842,0.37896 -0.5687,0.86083 -0.9722,1.14905 -0.1073,0.0766 -0.2524,0.0925 -0.3536,0.17678 -0.082,0.068 -0.1018,0.19006 -0.1768,0.26516 -0.075,0.0751 -0.1901,0.10168 -0.2651,0.17678 -0.1042,0.10417 -0.1489,0.26315 -0.2652,0.35355 -0.156,0.12134 -0.3609,0.16348 -0.5303,0.26517 -0.3686,0.22116 -0.6027,0.57375 -0.9723,0.79549 -0.2879,0.17273 -0.5902,0.29508 -0.8839,0.44194 -0.6422,0.32116 0.051,0.0247 -0.4419,0.35356 -0.1097,0.0731 -0.2439,0.10367 -0.3536,0.17677 -0.4484,0.29893 -0.8293,0.85117 -1.3258,1.14905 -0.1042,0.0625 -0.2505,0.024 -0.3536,0.0884 -0.3334,0.20838 -0.9157,0.881 -1.2374,1.14905 -0.3217,0.26807 -0.6373,0.54425 -0.9723,0.79549 -0.1054,0.0791 -0.2439,0.10368 -0.3535,0.17678 -0.1387,0.0924 -0.2149,0.26115 -0.3536,0.35355 -0.1096,0.0731 -0.2523,0.0925 -0.3535,0.17678 -0.082,0.068 -0.095,0.19717 -0.1768,0.26517 -0.1012,0.0844 -0.2406,0.10897 -0.3536,0.17677 -0.3083,0.18504 -0.5622,0.45789 -0.8838,0.61872 -0.7771,0.38866 0.076,-0.25696 -0.7071,0.26517 -0.5369,0.35788 -0.2788,0.32365 -0.7955,0.53033 -0.4433,0.1773 -1.0447,0.42856 -1.5026,0.53033 -0.2034,0.0452 -0.4211,0.0225 -0.6188,0.0884 -0.2877,0.0959 -0.5193,0.31641 -0.7955,0.44194 -1.1228,0.51038 -2.3155,0.83967 -3.4847,1.3968 0.012,0.096 0.1,0.046 0.1498,0.071 z"
         id="path12" />
    </g>
  </g>
</svg>
