<?xml version="1.0" encoding="UTF-8" standalone="no"?>
<!-- Created with Inkscape (http://www.inkscape.org/) -->

<svg
   version="1.1"
   id="svg1"
   width="109.37499"
   height="141.375"
   viewBox="0 0 109.37499 141.375"
   xmlns="http://www.w3.org/2000/svg"
   xmlns:svg="http://www.w3.org/2000/svg">
  <defs
     id="defs1" />
  <g
     id="layer1"
     style="display:inline"
     transform="translate(-506.37499,-275.49999)">
    <g
       id="layer55"
       style="display:inline;fill:#ffffff;fill-opacity:1;stroke:none">
      <path
         style="fill:#ffffff;fill-opacity:1;stroke:none;stroke-linecap:round"
         d="m 506.37499,296.68749 4.625,-16.3125 3.375,-3.875 17,-1 5.375,2.0625 8.3125,8.375 4.75,10.1875 4.5625,0.4375 1.75,3.125 5.0625,2.0625 4.8125,5 9.75,2 12.75,5.3125 2.0625,4.0625 5.5625,4.25 8.5,3 -2.625,15.25 -3.0625,2.9375 -0.375,1.5625 1,5.5625 8.62499,9.125 1.6875,0.5 4.25,5.3125 1.625,5.0625 -0.125,3.4375 -6.0625,6.75 -4.12499,1.625 -2.75,8.125 -1.0625,7.25 -6.375,13.3125 -7.375,5.6875 -5.6875,-1.5 -1.625,-4.5625 0.125,-9.3125 1,-4.5 3.25,-6.5625 3.375,-5.0625 -2.3125,-13.875 -3,-2.125 -3.75,-17.0625 -25.125,-16.75 -4.8125,-11.125 -15.875,-4.5625 -4,-4.1875 -7.3125,-11.0625 -5.125,-2.4375 -8.5625,-2.5 z"
         id="path53" />
    </g>
  </g>
</svg>
