<?xml version="1.0" encoding="UTF-8" standalone="no"?>
<!-- Created with Inkscape (http://www.inkscape.org/) -->

<svg
   version="1.1"
   id="svg2"
   width="109.46679"
   height="140.88191"
   viewBox="0 0 109.46679 140.88191"
   xmlns="http://www.w3.org/2000/svg"
   xmlns:svg="http://www.w3.org/2000/svg">
  <defs
     id="defs6">
    <linearGradient
       id="swatch77">
      <stop
         style="stop-color:#e2c69e;stop-opacity:1;"
         offset="0"
         id="stop77" />
    </linearGradient>
  </defs>
  <g
     id="layer66"
     style="display:inline"
     transform="translate(-505.80237,-275.65528)">
    <g
       id="layer20"
       style="display:inline">
      <path
         style="display:inline;fill:#969696;fill-opacity:1;stroke:none;stroke-opacity:1"
         d="m 605.46018,324.56201 c -0.17678,0.2357 -0.38415,0.4513 -0.53033,0.70711 -0.25103,0.4393 -0.20754,0.97617 -0.35355,1.41421 -0.16694,0.50081 -0.6315,0.90945 -0.88389,1.41422 -0.0791,0.15811 0.0559,0.36262 0,0.53033 -0.0672,0.20155 -0.28637,0.32877 -0.35355,0.53033 -0.0777,0.23302 -0.0771,0.6845 -0.17678,0.88388 -0.0263,0.0527 -0.13511,-0.0417 -0.17677,0 -0.0417,0.0417 0.0186,0.12087 0,0.17678 -0.10371,0.31112 -0.4388,0.60929 -0.53033,0.88388 -0.0373,0.1118 0.0438,0.24413 0,0.35355 -0.0714,0.1785 -0.47886,0.62649 -0.53033,0.88389 -0.15297,0.76484 -0.11028,1.56827 -0.35356,2.29809 -0.0682,0.20453 0.095,0.51715 0,0.70711 -0.26954,0.53909 -0.14014,-0.32331 -0.35355,0.53033 -0.0857,0.343 0.0693,0.71397 0,1.06066 -0.0427,0.21353 -0.42783,0.50211 -0.53033,0.70711 -0.22885,0.45769 0.12545,1.26597 0,1.76776 -0.0562,0.22474 -0.28838,1.28386 -0.35355,1.41422 -0.0264,0.0527 -0.13511,-0.0417 -0.17678,0 -0.11994,0.11994 0.0809,0.54532 0,0.7071 -0.43276,0.86552 -0.16521,0.3073 -0.35355,1.06066 -0.21342,0.85365 -0.084,-0.009 -0.35356,0.53033 -0.0527,0.10541 0.0527,0.24815 0,0.35356 -0.12891,0.25781 -0.28279,0.28279 -0.35355,0.35355 -0.0833,0.0833 0.0527,0.24815 0,0.35355 -0.0745,0.14908 -0.27902,0.20449 -0.35355,0.35356 -0.0264,0.0527 0.0417,0.13511 0,0.17677 -0.0417,0.0417 -0.15043,-0.0527 -0.17678,0 -0.10545,0.2109 -0.0886,1.54629 0,1.76777 -0.61406,1.38559 0.41853,0.30673 0.53033,0.53033 0.0527,0.10541 -0.0373,0.24175 0,0.35356 0.0821,0.24631 0.40132,0.62587 0.53033,0.88388 0.0833,0.16667 0.045,0.39857 0.17678,0.53033 0.0417,0.0417 0.13511,-0.0417 0.17677,0 0.1465,0.1465 -0.11672,0.7088 0,0.88388 0.13868,0.20801 0.45128,0.29316 0.53033,0.53033 0.0854,0.25634 0.36369,1.42435 0.53033,1.59099 0.0417,0.0417 0.15043,-0.0527 0.17678,0 0.12207,0.24415 0.0891,0.62082 0.17678,0.88389 0.0527,0.15811 0.27901,0.20448 0.35355,0.35355 0.0833,0.16667 0.0934,0.36366 0.17678,0.53033 0.0745,0.14907 0.30084,0.19544 0.35355,0.35355 0.0373,0.11181 -0.0373,0.24175 0,0.35356 0.13869,0.41606 0.647,0.70533 0.88388,1.06066 0.23776,0.35663 0.31406,0.7002 0.53033,1.06066 0.0857,0.14291 0.26111,0.21488 0.35356,0.35355 0.0327,0.049 -0.0417,0.13511 0,0.17678 0.0932,0.0932 0.28046,0.0671 0.35355,0.17677 0.0654,0.0981 -0.0373,0.24175 0,0.35356 0.18393,0.55177 0.11785,-0.0589 0.35355,0.17677 0.52643,0.52643 -0.26439,0.23028 0.53033,0.70711 0.41227,0.24736 1.00675,0.50337 1.41422,0.70711 0.43775,0.21887 0.78754,0.65893 1.23743,0.88388 0.27415,0.13707 0.35769,-0.0562 0.70711,0.17678 0.32811,0.21874 0.58014,0.65607 0.88388,0.88388 0.0447,0.0335 0.71793,0.0938 0.88389,0.17678 0.39086,0.19543 0.0548,0.10971 0.17677,0.35355 0.36785,0.7357 -0.0122,-0.18898 0.35356,0.17678 0.0417,0.0417 -0.0264,0.12407 0,0.17677 0.17246,0.34492 0.65939,0.56961 0.88388,0.88389 0.19971,0.27959 0.28737,0.64092 0.53033,0.88388 0.26517,0.26517 0.7955,0.26517 1.06066,0.53033 0.2952,0.2952 0.60202,0.90778 1.06066,1.06066 0.16771,0.0559 0.40533,-0.125 0.53033,0 0.0456,0.0456 0,2.93109 0,3.18198 0,0.83987 0.44569,3.6127 0.17678,4.41942 -0.21671,0.65012 -0.73295,0.56909 -1.06066,1.06066 -0.0327,0.049 0.0417,0.13511 0,0.17678 -0.26517,0.26516 -0.7955,0.26516 -1.06066,0.53033 -0.0417,0.0417 0,0.11785 0,0.17677 -0.11785,0.11785 -0.22022,0.25356 -0.35356,0.35356 -0.55798,0.41848 -0.2207,-0.13285 -0.88388,0.53033 -0.0932,0.0932 -0.0977,0.24814 -0.17678,0.35355 -0.48018,0.64024 -1.25093,1.08766 -1.59099,1.76777 -0.42331,0.84662 -1.5924,1.32794 -2.12132,2.12132 -0.0731,0.10963 -0.0836,0.26038 -0.17677,0.35355 -0.0833,0.0833 -0.24815,-0.0527 -0.35356,0 -0.14907,0.0745 -0.20448,0.27902 -0.35355,0.35355 -0.0527,0.0264 -0.13511,-0.0417 -0.17678,0 -0.13306,0.13307 -0.43412,0.78768 -0.53033,0.88389 -0.0417,0.0417 -0.13511,-0.0417 -0.17677,0 -0.68992,0.68991 0.0409,0.0949 -0.17678,0.53033 -0.0745,0.14907 -0.27902,0.20448 -0.35355,0.35355 -0.0527,0.10541 0.0833,0.27022 0,0.35355 -0.36576,0.36576 0.0143,-0.55892 -0.35356,0.17678 -0.13166,0.26332 0.20285,0.45402 -0.17677,0.70711 -0.0981,0.0654 -0.27022,-0.0833 -0.35356,0 -0.0833,0.0833 0.0373,0.24175 0,0.35355 -0.0772,0.23159 -0.43876,0.47819 -0.53033,0.70711 -0.0902,0.22558 -0.0681,0.4898 -0.17677,0.7071 -0.0264,0.0527 -0.15043,-0.0527 -0.17678,0 -0.0527,0.10541 0.0373,0.24175 0,0.35356 -0.0672,0.20155 -0.28637,0.32877 -0.35355,0.53033 -0.0373,0.1118 0.0373,0.24175 0,0.35355 -0.14631,0.43892 -0.43616,0.76658 -0.53033,1.23744 -0.22879,1.14393 0.33423,3.23994 0,4.24264 -0.13259,0.39776 -0.0688,0.73687 -0.17678,1.06066 -0.0263,0.0791 -0.15657,0.0959 -0.17678,0.17678 -0.0897,0.35901 0.17072,1.07277 0,1.41421 -0.0745,0.14907 -0.2678,0.21064 -0.35355,0.35355 -0.34482,0.5747 0.0127,0.84582 -0.17678,1.41422 -0.0186,0.0559 -0.15042,-0.0527 -0.17677,0 -0.0527,0.10541 0.0286,0.23922 0,0.35355 -0.032,0.12783 -0.14482,0.22573 -0.17678,0.35355 -0.0832,0.33276 0.0832,0.72791 0,1.06066 -0.0226,0.0904 -0.15769,1.02248 -0.17678,1.06066 -0.15366,0.30732 -0.39498,0.56808 -0.53033,0.88389 -0.20368,0.47527 0.19394,0.50459 -0.17677,1.06066 -0.0327,0.049 -0.15043,-0.0527 -0.17678,0 -0.16499,0.32998 0.16499,0.90745 0,1.23743 -0.0951,0.19011 -0.39802,0.53033 -0.82765,0.62995 -0.29731,0.15942 -0.31621,0.16302 -0.32851,0.22462 -0.023,0.1152 0.0371,0.26376 0,0.375 -0.007,0.0221 -0.0208,0.0417 -0.0312,0.0625 -0.0104,0.0104 -0.0262,0.0175 -0.0312,0.0312 -0.0159,0.0399 -0.0176,0.0842 -0.0312,0.125 -0.0674,0.20207 -0.24271,0.435 -0.375,0.59375 -0.0471,0.0566 -0.10965,0.0993 -0.15625,0.15625 -0.14117,0.17253 -0.27083,0.35417 -0.40625,0.53125 -0.0625,0.0937 -0.1177,0.19285 -0.1875,0.28125 -0.0868,0.10999 -0.18965,0.20644 -0.28125,0.3125 -0.48659,0.56342 -0.85016,1.20898 -1.28125,1.8125 -0.0993,0.13902 -0.21179,0.26824 -0.3125,0.40625 -0.18059,0.24748 -0.34871,0.50396 -0.53125,0.75 -0.0572,0.0771 -0.1331,0.13965 -0.1875,0.21875 -0.0607,0.0884 -0.0968,0.19205 -0.15625,0.28125 -0.14912,0.22367 -0.31781,0.43381 -0.46875,0.65625 -0.14642,0.21577 -0.23747,0.46745 -0.375,0.6875 -0.0796,0.1274 -0.1776,0.24336 -0.25,0.375 -0.0428,0.078 -0.0518,0.1715 -0.0937,0.25 -0.12732,0.23872 -0.35165,0.39918 -0.53125,0.59375 -0.0651,0.0706 -0.1196,0.15085 -0.1875,0.21875 -0.38491,0.3849 -0.19475,0.17184 -0.53125,0.4375 -0.19157,0.15124 -0.35719,0.33677 -0.5625,0.46875 -0.0784,0.0504 -0.1707,0.0762 -0.25,0.125 -0.3264,0.20085 0.0127,0.0561 -0.3125,0.21875 -0.24881,0.1244 -0.50463,0.24116 -0.75,0.375 -0.21324,0.11631 -0.23799,0.16694 -0.5,0.3125 -0.81957,0.45531 0.36523,-0.24512 -0.4375,0.15625 -0.0597,0.0298 -0.10335,0.0843 -0.15625,0.125 -0.0826,0.0635 -0.1674,0.124 -0.25,0.1875 -0.41937,0.32259 -0.86012,0.64011 -1.25,1 -0.0276,0.0254 -0.0369,0.0662 -0.0625,0.0937 -0.19043,0.20403 -0.68783,0.76798 -0.96875,0.875 -0.26211,0.0998 -0.57638,0.0723 -0.84375,0.0312 -0.11372,-0.0174 -0.23026,-0.0123 -0.34375,-0.0312 -0.1496,-0.0249 -0.26795,-0.10435 -0.40625,-0.15625 -0.1804,-0.0677 -0.29807,-0.13345 -0.46875,-0.21875 -0.04,-0.02 -0.27795,-0.11235 -0.34375,-0.15625 -0.0245,-0.0163 -0.0372,-0.0473 -0.0625,-0.0625 -0.13053,-0.0783 -0.30039,-0.1189 -0.4375,-0.1875 -0.0825,-0.0413 -0.14305,-0.11295 -0.21875,-0.15625 -0.11529,-0.0659 -0.2856,-0.0763 -0.375,-0.1875 -0.1898,-0.12147 -0.375,-0.25 -0.5625,-0.375 -0.0729,-0.0417 -0.14755,-0.0805 -0.21875,-0.125 -0.14582,-0.0911 -0.26077,-0.24965 -0.40625,-0.34375 -0.10958,-0.0709 -0.23125,-0.1213 -0.34375,-0.1875 -0.23413,-0.13772 -0.46149,-0.28683 -0.6875,-0.4375 -0.81303,-0.54205 0.0373,0.0186 -0.5625,-0.46875 -0.491,-0.3989 -0.0797,0.0453 -0.5625,-0.4375 -0.35313,-0.35313 -0.60429,-0.79495 -0.9742,-1.00069 -0.0679,-0.29806 -0.17673,-1.46536 -0.0679,-1.84611 0.27017,-0.94577 0.0985,0.13128 0.26517,-0.61872 0.12367,-0.55669 0.0843,-1.12454 0.17677,-1.67937 0.0306,-0.18381 0.15988,-0.34476 0.17678,-0.53034 0.0347,-0.38144 -0.0542,-0.76988 0,-1.14904 0.0344,-0.24052 0.44256,-0.37446 0.17678,-0.70711 0.0402,-0.38204 0.0376,-0.76827 0.0884,-1.14905 0.009,-0.0653 0.0724,-0.11288 0.0884,-0.17678 0.0435,-0.17386 0.0449,-0.35646 0.0884,-0.53033 0.0995,-0.39811 0.32921,-0.75446 0.44194,-1.14904 0.0243,-0.085 -0.009,-0.17727 0,-0.26517 0.0434,-0.4336 0.082,-0.89912 0.17678,-1.32582 0.0729,-0.32793 0.19926,-0.64287 0.26516,-0.97228 0.0173,-0.0867 -0.0192,-0.17886 0,-0.26516 0.11272,-0.50721 0.3395,-0.99036 0.44195,-1.5026 0.11593,-0.57967 0.25699,-1.12452 0.44194,-1.67938 0.0567,-0.17002 0.008,-0.37004 0.0884,-0.53033 0.0132,-0.0263 0.0752,0.0263 0.0884,0 0.20321,-0.40641 0.18746,-0.91059 0.35356,-1.32583 0.10301,-0.25753 0.49103,-0.9036 0.53033,-1.06066 0.0214,-0.0857 -0.0173,-0.17846 0,-0.26516 0.0481,-0.24064 0.31764,-0.34388 0.44194,-0.53033 0.2349,-0.35235 0.32381,-0.78764 0.53033,-1.14905 0.0744,-0.13021 0.25465,-0.23488 0.35355,-0.35355 0.20495,-0.24594 0.56105,-0.81086 0.88389,-0.97228 0.0833,-0.0417 0.18936,-0.0343 0.26516,-0.0884 1.25889,-0.89921 -0.93234,0.28906 1.06072,-0.70696 0.16878,-0.1689 0.10338,-0.34684 0.17678,-0.53033 0.3076,-0.76899 0.66766,-1.37879 0.79549,-2.20971 0.0599,-0.3895 0,-0.84314 0,-1.23744 0,-1.03363 0.11115,-2.17426 -0.17677,-3.18198 -0.0362,-0.12669 -0.33923,-0.11052 -0.17678,-0.35355 -0.0116,-0.0578 0.0239,-0.12298 0,-0.17678 -0.2883,-0.64867 -0.29683,-0.48943 -0.61872,-0.97227 -0.26805,-0.40208 -0.38321,-0.88447 -0.53033,-1.32582 -0.0684,-0.2051 -0.31605,-0.48239 -0.35355,-0.70711 -0.0598,-0.35894 0,-0.8846 0,-1.23744 0,-1.41287 0.0518,-2.8409 -0.0884,-4.24264 -0.0117,-0.11727 0.0231,-0.23799 0,-0.35355 -0.008,-0.0409 -0.072,-0.0501 -0.0884,-0.0884 -0.0734,-0.17127 -0.0935,-0.36366 -0.17677,-0.53033 -0.3131,-0.62618 -0.79749,-0.53232 -1.14905,-0.88388 -0.10417,-0.10417 -0.152,-0.25926 -0.26517,-0.35356 -0.0716,-0.0596 -0.18766,-0.0367 -0.26516,-0.0884 -0.11664,-0.0778 -0.61571,-0.53881 -0.70711,-0.61871 -0.32827,-0.28724 -1.33681,-1.83365 -1.41421,-2.2981 -0.0194,-0.11625 0.0286,-0.23922 0,-0.35355 -0.11073,-0.4429 -0.41842,-0.87816 -0.53033,-1.32583 -0.0435,-0.17386 -0.0589,-0.35355 -0.0884,-0.53033 0,-0.11785 0.0256,-0.23851 0,-0.35355 -0.0779,-0.35041 -0.39814,-0.97514 -0.44194,-1.32583 -0.0364,-0.29139 0.0271,-0.70273 -0.0884,-0.97227 -0.0677,-0.15791 -0.21577,-0.27739 -0.26517,-0.44194 -0.0423,-0.1411 0.0242,-0.29663 0,-0.44194 -0.0743,-0.44562 -0.22046,-0.79016 -0.26516,-1.23744 -0.0439,-0.43879 0,-0.98418 0,-1.41421 v -3.53554 c 0,-0.38383 0.10261,-1.7251 0,-2.03293 -0.092,-0.2759 -0.0589,0.0294 -0.17678,-0.0884 -0.0659,-0.0659 -0.0225,-0.19926 -0.0884,-0.26516 -0.0627,-0.0627 -0.45063,-0.22227 -0.53033,-0.26517 -0.30252,-0.1629 -0.58136,-0.36743 -0.88388,-0.53033 -0.19756,-0.10638 -0.45421,-0.0802 -0.61872,-0.26516 -0.41734,-0.23186 -0.75526,-0.53298 -1.14905,-0.7955 -0.18877,-0.12585 -0.43906,-0.21881 -0.61872,-0.35355 -0.0667,-0.05 -0.10227,-0.13948 -0.17677,-0.17678 -0.19185,-0.0959 -0.4348,-0.0664 -0.61872,-0.17678 -0.1481,-0.0888 -0.44396,-0.46483 -0.61872,-0.53033 -0.20084,-0.0753 -0.42073,-0.0943 -0.61872,-0.17677 -0.15858,-0.0661 -0.28828,-0.18837 -0.44194,-0.26517 -0.0833,-0.0417 -0.18527,-0.0405 -0.26517,-0.0884 -0.0715,-0.0429 -0.10447,-0.13547 -0.17677,-0.17677 -0.13776,-0.0787 -0.30419,-0.0981 -0.44194,-0.17678 -0.0724,-0.0413 -0.10748,-0.13058 -0.17678,-0.17678 -0.10963,-0.0731 -0.24057,-0.10897 -0.35355,-0.17677 -0.62142,-0.37285 -1.5337,-1.36936 -1.94455,-1.94455 -0.0766,-0.10722 -0.10017,-0.24633 -0.17677,-0.35355 -0.0727,-0.10172 -0.19587,-0.16116 -0.26517,-0.26516 -0.0517,-0.0775 -0.0325,-0.19067 -0.0884,-0.26517 -0.10986,-0.14649 -0.48722,-0.31045 -0.61872,-0.44194 -0.0208,-0.0208 0.0208,-0.0676 0,-0.0884 -0.0466,-0.0466 -0.12197,-0.0519 -0.17677,-0.0884 -0.18381,-0.12254 -0.7804,-0.65752 -0.88389,-0.79549 -0.0637,-0.085 -0.12927,-0.17017 -0.17677,-0.26517 -0.0132,-0.0264 0.0208,-0.0676 0,-0.0884 -0.17159,-0.17159 -0.66143,-0.35157 -0.7955,-0.53033 -0.0559,-0.0745 -0.0467,-0.18186 -0.0884,-0.26516 -0.10438,-0.20878 -0.55374,-0.37697 -0.7071,-0.53033 -0.0751,-0.0751 -0.12928,-0.17017 -0.17678,-0.26517 -0.0132,-0.0264 0.0245,-0.0721 0,-0.0884 -0.0775,-0.0517 -0.18526,-0.0405 -0.26516,-0.0884 -0.16177,-0.0971 -0.30855,-0.22016 -0.44195,-0.35356 -0.0208,-0.0208 0.0245,-0.0721 0,-0.0884 -0.0775,-0.0517 -0.19236,-0.0302 -0.26516,-0.0884 -0.16899,-0.13519 -0.36135,-0.48353 -0.53033,-0.61872 -0.023,-0.0184 -0.0639,0.0163 -0.0884,0 -0.32519,-0.21679 -0.64426,-0.49625 -0.97227,-0.70711 -0.45497,-0.29248 -0.96419,-0.49548 -1.41422,-0.79549 -1.08443,-0.72296 -2.12541,-1.52969 -3.18198,-2.2981 -2.12949,-1.54873 0.99437,0.7513 -1.06066,-0.61872 -0.29519,-0.1968 -0.5003,-0.51031 -0.79549,-0.70711 -0.0775,-0.0517 -0.18767,-0.0367 -0.26517,-0.0884 -0.104,-0.0693 -0.15916,-0.19887 -0.26516,-0.26517 -0.49214,-0.30758 -1.07191,-0.44757 -1.59099,-0.70711 -0.33019,-0.16509 -0.64208,-0.36523 -0.97227,-0.53033 -0.2007,-0.10034 -0.47855,-0.0899 -0.61872,-0.26516 -0.1301,-0.16266 -0.0589,-0.41243 -0.0883,-0.61864 0,-0.38623 -0.0989,-0.15156 -0.17678,-0.61872 -0.11732,-0.70395 -0.38669,-1.33684 -0.61872,-2.03293 -0.11537,-0.34616 -0.0762,-0.79713 -0.17677,-1.14905 -0.18311,-0.64086 -0.44649,-1.24804 -0.70711,-1.85615 -0.243,-0.56701 -0.63887,-1.00251 -0.97227,-1.50261 -0.10963,-0.16444 -0.15553,-0.36588 -0.26517,-0.53033 -0.0462,-0.0693 -0.13947,-0.10227 -0.17677,-0.17677 -0.036,-0.0719 -0.0524,-0.37004 -0.0884,-0.44194 -0.21654,-0.43308 -0.81223,-1.5093 -1.23744,-1.67938 -0.11279,-0.0451 -0.23831,-0.05 -0.35355,-0.0884 -0.85687,-0.28563 -1.15325,-0.64187 -2.12132,-0.88389 -1.13528,-0.28381 -2.33258,-0.37273 -3.44715,-0.7071 -1.04544,-0.31367 0.58711,0.18181 -0.53033,-0.26517 -0.0547,-0.0219 -0.12087,0.0186 -0.17677,0 -0.23882,-0.0796 -0.47141,-0.17676 -0.70711,-0.26516 -0.37995,-0.14248 -0.74339,-0.36084 -1.14905,-0.44194 -0.40358,-0.0804 0.0975,0.18068 -0.53033,-0.0884 -0.0976,-0.0419 -0.17016,-0.12928 -0.26516,-0.17678 -0.35863,-0.17931 -0.94914,-0.26985 -1.32583,-0.35355 -1.10584,-0.24574 -2.24336,-0.45924 -3.35876,-0.70711 -0.51573,-0.1146 -0.0169,-0.0451 -0.53033,-0.26516 -0.3796,-0.16269 -0.84418,-0.16687 -1.23743,-0.26517 -0.53043,-0.1326 -0.94275,-0.63001 -1.41422,-0.88388 -0.47455,-0.25553 -0.61988,-0.26604 -0.97227,-0.53033 -0.41217,-0.30913 -0.44182,-0.30918 -0.70711,-0.70711 -0.0366,-0.0548 -0.0418,-0.13018 -0.0884,-0.17678 -0.0466,-0.0466 -0.13018,-0.0418 -0.17678,-0.0884 -0.0466,-0.0466 -0.0418,-0.13018 -0.0884,-0.17678 -0.0466,-0.0466 -0.13018,-0.0418 -0.17678,-0.0884 -0.0258,-0.0258 -0.59461,-0.75929 -0.61871,-0.79549 -0.13411,-0.20116 -0.51265,-0.91039 -0.61872,-1.14905 -0.17278,-0.38802 0.003,-0.26087 -0.17678,-0.53033 -0.54863,-0.82298 0.0159,0.0641 -0.53033,-0.61872 -0.21936,-0.27421 -0.23503,-0.6826 -0.44194,-0.97227 -0.0727,-0.10172 -0.19247,-0.16345 -0.26517,-0.26517 -0.33676,-0.4714 -0.0475,-0.21725 -0.26516,-0.70711 -0.0965,-0.21706 -0.27845,-0.39337 -0.35355,-0.61871 -0.0384,-0.11525 -0.0406,-0.2419 -0.0884,-0.35356 -0.12554,-0.29292 -0.37773,-0.51572 -0.53033,-0.79549 -0.21359,-0.39158 -0.42853,-0.91862 -0.53033,-1.32583 -0.10773,-0.43092 -0.5188,-0.9492 -0.70711,-1.32582 -0.44763,-0.89525 -0.96183,-1.69804 -1.5026,-2.56326 -0.24271,-0.38834 -0.44685,-0.4444 -0.7955,-0.61872 -0.40452,-0.20228 0.37507,0.0366 -0.26516,-0.17678 -0.27046,-0.0904 0.22058,0.29436 -0.35356,-0.0884 -0.0245,-0.0164 0.0208,-0.0676 0,-0.0884 -0.41723,-0.41724 -0.099,0.0224 -0.53033,-0.26516 -0.104,-0.0693 -0.15589,-0.20447 -0.26516,-0.26517 -0.16289,-0.0905 -0.36069,-0.0997 -0.53033,-0.17677 -0.1564,-0.0711 -0.28596,-0.19317 -0.44194,-0.26517 -0.51326,-0.23688 -1.08381,-0.36512 -1.59099,-0.61872 -0.41224,-0.20612 -0.13937,-0.14872 -0.53033,-0.44194 -0.18337,-0.13748 -0.41034,-0.11728 -0.61872,-0.17678 -1.5001,-0.42855 0.97852,0.09 -0.7955,-0.35355 -0.0857,-0.0214 -0.18136,0.028 -0.26516,0 -0.78217,-0.26116 0.22106,-0.11489 -0.53033,-0.26516 -0.3302,-0.066 -0.72407,0 -1.06066,0 -0.99253,0 -2.02749,0.0745 -3.00521,-0.0884 -0.18338,-0.0306 -0.21611,-0.16209 -0.35355,-0.26517 -0.10541,-0.0791 -0.24392,-0.10367 -0.35355,-0.17677 -0.58266,-0.38845 -0.4839,-1.20974 -0.70711,-1.76777 -0.12225,-0.30565 -0.0461,-0.0615 -0.26516,-0.35355 -0.36879,-0.49172 -0.16849,-0.44716 -0.7955,-0.7955 -0.19081,-0.106 -0.56665,-0.22706 -0.79549,-0.26516 -0.0737,-0.0123 -0.40515,0.0184 -0.44195,0 -0.0589,-0.0295 -0.0418,-0.13018 -0.0884,-0.17678 -0.13976,-0.13976 -0.35756,-0.16917 -0.53033,-0.26517 -0.8599,-0.47814 -0.0789,-0.20931 -1.45841,-0.48614 0.46483,-0.0442 0.78462,-0.69623 1.01646,-0.92807 0.0782,-0.0782 0.75425,-0.40069 0.88389,-0.53033 0.24295,-0.24296 0.28737,-0.64093 0.53033,-0.88388 0.20833,-0.20834 0.57534,-0.26681 0.7071,-0.53033 0.16667,-0.33334 0.14683,-0.75058 0.35356,-1.06066 0.0327,-0.049 0.15037,0.0527 0.17677,0 0.0527,-0.10541 -0.0527,-0.24815 0,-0.35356 0.0264,-0.0527 0.15048,0.0527 0.17678,0 0.17678,-0.35355 -0.0884,-0.26516 0,-0.53033 0.0417,-0.125 0.13508,-0.22855 0.17678,-0.35355 0.20257,-0.60774 -0.003,-2.45928 0.17677,-3.35876 0.41756,-2.08772 0.21138,-0.43583 0.70711,-2.12132 0.27422,-0.93233 0.36588,-1.91848 0.70711,-2.82842 0.91005,-2.42682 1.95031,-4.89479 3.09357,-7.07114 0.093,-0.35363 0.98256,-0.31724 1.85614,-0.44203 0.43807,-0.0626 0.98048,0 1.41421,0 h 3.53553 c 0.69883,0 1.34424,0.0195 2.03294,0.0884 0.40001,0.04 0.84704,-0.0867 1.23743,0 0.58827,0.13073 0.57657,0.22117 1.14905,0.26517 1.41563,0.1089 -0.23021,-0.15099 1.32583,0.0884 0.33202,0.0511 0.63893,0.22346 0.97227,0.26516 0.77916,0.0974 1.61259,-0.12898 2.38648,0 0.92901,0.15484 1.84398,0.40842 2.74004,0.70711 0.35661,0.1189 0.38814,0.009 0.70711,0.0884 0.16667,0.0417 0.27896,0.21086 0.44194,0.26516 0.22361,0.0745 0.47521,-0.0422 0.70711,0 0.40375,0.0734 0.75974,0.31217 1.14905,0.44194 0.89868,0.29957 1.79721,0.45667 2.65165,0.88389 0.15265,0.0763 0.52791,0.49767 0.61871,0.61872 0.0177,0.0236 -0.0177,0.0648 0,0.0884 0.74489,0.99318 -0.27742,-0.54504 0.61872,0.53033 0.0597,0.0716 0.039,0.18617 0.0884,0.26517 0.19997,0.31996 0.44031,0.61709 0.70711,0.88388 0.16271,0.16272 0.37745,0.26996 0.53033,0.44194 0.0876,0.0985 0.0911,0.25352 0.17677,0.35356 0.0959,0.11185 0.25766,0.15331 0.35356,0.26516 0.0858,0.10004 0.10017,0.24634 0.17677,0.35356 0.20622,0.28869 0.45625,0.54463 0.70711,0.79549 0.0208,0.0208 0.0639,-0.0163 0.0884,0 0.24515,0.16343 0.48811,0.33324 0.70711,0.53033 0.2019,0.18172 0.20728,0.53852 0.53033,0.61872 0.24512,0.20427 0.56591,0.38913 0.79549,0.61872 0.16272,0.16271 0.27923,0.36762 0.44194,0.53033 0.10417,0.10417 0.25656,0.1543 0.35356,0.26516 0.26164,0.29903 0.68316,1.00467 0.88388,1.32583 0.11049,0.17676 0.13258,0 0.26517,0.26516 0.40118,0.80238 0.68579,1.66268 1.06066,2.47488 0.072,0.15598 0.19906,0.28336 0.26516,0.44194 0.0825,0.19799 0.0809,0.42687 0.17678,0.61872 0.4714,0.94281 0.11785,-0.0393 0.35355,0.35355 0.19731,0.32885 0.48773,0.82157 0.61872,1.14905 0.0333,0.0832 0.0726,0.42616 0.17678,0.53033 0.0751,0.0751 0.19716,0.0952 0.26516,0.17678 0.0844,0.10122 0.10898,0.24057 0.17678,0.35355 0.23082,0.3847 0.58622,0.79186 0.88388,1.14905 0.0943,0.11317 0.161,0.24939 0.26517,0.35355 0.0466,0.0466 0.14027,0.0336 0.17677,0.0884 0.0327,0.049 -0.0353,0.12968 0,0.17678 0.0637,0.085 0.18017,0.11307 0.26517,0.17677 0.1321,0.0991 0.21908,0.25756 0.35355,0.35356 0.50836,0.36311 1.02832,0.6338 1.5026,1.06066 0.48356,0.4352 0.87109,0.95947 1.32583,1.41421 0.10417,0.10417 0.24939,0.161 0.35355,0.26517 0.34216,0.34216 0.60576,0.73487 0.97227,1.06066 0.375,0.33333 0.74767,0.67123 1.14905,0.97227 0.10541,0.0791 0.24392,0.10367 0.35356,0.17677 0.63639,0.42427 1.23301,1.12364 1.85615,1.59099 0.16997,0.12748 0.35355,0.23571 0.53033,0.35356 0.0589,0.0295 0.12198,0.0518 0.17678,0.0884 0.32806,0.2187 0.61739,0.52966 0.97227,0.7071 0.4477,0.22385 0.90567,0.48993 1.32582,0.7955 0.6018,0.43766 1.17137,1.02147 1.85616,1.32582 0.31513,0.14006 0.6553,0.21771 0.97227,0.35356 0.23837,0.10215 0.44912,0.27985 0.70711,0.35355 0.14445,0.0413 0.297,0.0489 0.44194,0.0884 0.24286,0.0662 0.45732,0.23396 0.70711,0.26516 0.62939,0.0784 0.37423,-0.0969 0.88388,0.0884 0.29822,0.10845 0.57168,0.29676 0.88388,0.35356 0.23371,0.0425 0.47485,0.0386 0.70711,0.0884 0.36441,0.0781 0.69598,0.27676 1.06066,0.35356 0.37921,0.0799 0.77566,0.0731 1.14905,0.17677 1.61299,0.44795 -0.81791,0.11646 0.97227,0.44195 0.14494,0.0263 0.29749,-0.0289 0.44194,0 0.53493,0.10698 1.17723,0.43041 1.67938,0.61871 0.22241,0.0834 0.47589,0.034 0.70711,0.0884 0.38263,0.09 0.7677,0.16987 1.14905,0.26517 0.44373,0.11093 0.88455,0.23321 1.32582,0.35355 0.14553,0.0397 0.32556,0.20697 0.44194,0.26517 0.43245,0.21622 0.98431,0.22698 1.41422,0.44194 0.15366,0.0768 0.28828,0.18836 0.44194,0.26516 0.65704,0.32852 1.49357,0.46539 2.12132,0.88389 0.0693,0.0462 0.10608,0.13257 0.17678,0.17677 0.45677,0.28548 0.79703,0.3768 1.23743,0.70711 0.0667,0.05 0.11788,0.11788 0.17678,0.17678 0.35355,0.2357 0.70711,0.4714 1.06066,0.7071 0.45659,0.29352 0.96426,0.36964 1.41421,0.70711 0.0527,0.0395 0.0384,0.13388 0.0884,0.17678 0.27306,0.23405 0.56221,0.45788 0.88389,0.61872 0.16666,0.0834 0.36366,0.0935 0.53033,0.17677 0.13176,0.0659 0.22863,0.18707 0.35355,0.26517 0.11173,0.0698 0.25066,0.0945 0.35355,0.17677 0.0515,0.0412 0.0357,0.13728 0.0884,0.17678 0.27575,0.20681 1.16751,0.71634 1.5026,0.88388 0.0375,0.0187 0.49338,0.18157 0.61872,0.26517 0.27684,0.18456 0.53073,0.42015 0.7955,0.61872 0.42653,0.3199 1.01491,0.52451 1.41421,0.88388 0.17104,0.15394 0.27923,0.36762 0.44194,0.53033 0.17012,0.17012 0.85391,0.66627 1.06066,0.7955 0.079,0.0494 0.19237,0.0302 0.26517,0.0884 0.22775,0.18221 0.39727,0.42891 0.61872,0.61872 0.19243,0.16494 0.41247,0.29463 0.61871,0.44194 0.17678,0.17678 0.34348,0.36424 0.53033,0.53033 0.30902,0.27469 0.74031,0.45083 1.06066,0.70711 0.64439,0.51551 -0.22943,0.0238 0.7955,0.70711 0.0775,0.0517 0.18186,0.0467 0.26516,0.0884 0.92101,0.4605 1.9411,0.71219 2.91682,1.06066 0.33526,0.11973 0.56168,0.49514 0.97227,0.44194 0.60448,0.21588 1.25379,0.20857 1.67938,0.79549"
         id="path125" />
    </g>
  </g>
</svg>
