<?xml version="1.0" encoding="UTF-8" standalone="no"?>
<!-- Created with Inkscape (http://www.inkscape.org/) -->

<svg
   version="1.1"
   id="svg1"
   width="149.875"
   height="80.999992"
   viewBox="0 0 149.875 80.999992"
   xmlns="http://www.w3.org/2000/svg"
   xmlns:svg="http://www.w3.org/2000/svg">
  <defs
     id="defs1" />
  <g
     id="layer1"
     style="display:inline"
     transform="translate(-353.49999,-548.62499)">
    <g
       id="layer56"
       style="display:inline;fill:#ffffff;fill-opacity:1;stroke:none">
      <path
         style="fill:#ffffff;fill-opacity:1;stroke:none;stroke-linecap:round"
         d="m 355.34374,553.43749 25.09375,3.3125 16.875,3.4375 5.5625,3 h 4.125 l 5.8125,-2.1875 14.3125,-12.375 3.625,9.8125 3.875,3.9375 5.0625,1.4375 7.5,8.25 0.75,2.25 3.25,1.4375 5.0625,3.25 10.625,11.0625 9.3125,5.375 5.0625,0.375 18.625,7.875 3.5,2.43749 -2.125,4.8125 -8.5,8.1875 -30.0625,8.0625 -13.5,2.4375 -8,-1.875 -6.375,-2.5625 -8.1875,-9.6875 -25.4375,-2.9375 -6.3125,-4.1875 -1.625,-3.99999 -8.25,-0.875 -1.125,-6.1875 -6.5625,-6.1875 -0.625,-7 -4.5,-4.375 -7.9375,-3.625 -5.75,-5.125 -4.875,-9.125 -0.125,-4.75 z"
         id="path54" />
    </g>
  </g>
</svg>
