<?xml version="1.0" encoding="UTF-8" standalone="no"?>
<!-- Created with Inkscape (http://www.inkscape.org/) -->

<svg
   version="1.1"
   id="svg2"
   width="151.01482"
   height="81.763794"
   viewBox="0 0 151.01482 81.763794"
   xmlns="http://www.w3.org/2000/svg"
   xmlns:svg="http://www.w3.org/2000/svg">
  <defs
     id="defs6">
    <linearGradient
       id="swatch77">
      <stop
         style="stop-color:#e2c69e;stop-opacity:1;"
         offset="0"
         id="stop77" />
    </linearGradient>
  </defs>
  <g
     id="layer66"
     style="display:inline"
     transform="translate(-352.92226,-547.31537)">
    <g
       id="layer42"
       style="display:inline">
      <path
         style="display:inline;fill:#969696;fill-opacity:1;stroke:none;stroke-opacity:1"
         d="m 465,626.5 c 0.0745,-0.0373 -0.0589,-0.1911 0,-0.25 0.31903,-0.31903 1.7244,0.1314 2.25,0 1.2199,-0.30497 2.46723,-0.74344 3.75,-1 0.46935,-0.0939 1.04958,0.15014 1.5,0 0.35355,-0.11785 0.63845,-0.4096 1,-0.5 0.16169,-0.0404 0.34189,0.0527 0.5,0 0.1118,-0.0373 0.14459,-0.1973 0.25,-0.25 0.58604,-0.29302 1.18793,-0.16275 1.75,-0.5 0.20211,-0.12127 0.28918,-0.39459 0.5,-0.5 0.14907,-0.0745 0.35093,0.0745 0.5,0 0.0745,-0.0373 -0.0791,-0.2237 0,-0.25 0.23717,-0.0791 0.50747,0.0606 0.75,0 0.22867,-0.0572 0.27639,-0.4255 0.5,-0.5 0.66022,-0.2201 1.6002,0.01 2.25,-0.25 0.27897,-0.11159 0.46496,-0.405 0.75,-0.5 0.39529,-0.13176 0.85472,0.13176 1.25,0 0.28504,-0.095 0.46496,-0.405 0.75,-0.5 0.375,-0.125 0.875,0.125 1.25,0 1.89443,-0.63147 -0.0903,0.0903 0.5,-0.5 0.20433,-0.20433 1.17525,-0.5335 1.5,-0.75 0.27579,-0.18386 0.45466,-0.60233 0.75,-0.75 0.61574,-0.3079 -0.22568,0.72568 0.75,-0.25 0.0589,-0.0589 -0.0589,-0.1911 0,-0.25 0.29463,-0.29463 0.66667,-0.5 1,-0.75 0.87351,-0.65513 0.11292,0.0457 1,-0.25 0.3,-0.1 0.45,-0.65 0.75,-0.75 0.15811,-0.0527 0.33831,0.0404 0.5,0 0.71216,-0.17804 1.41565,-0.58313 2.25,-0.75 0.30731,-0.0615 1.83031,-0.13687 2,-0.25 0.19612,-0.13074 0.30388,-0.36925 0.5,-0.5 0.21546,-0.14364 1.55086,-0.0339 2.25,-0.5 0.54755,-0.36503 0.9099,-1.20495 1.5,-1.5 0.4426,-0.2213 0.0854,0.37186 0.5,-0.25 0.10336,-0.15504 0.11824,-0.36824 0.25,-0.5 0.0589,-0.0589 0.1911,0.0589 0.25,0 0.11785,-0.11785 -0.0745,-0.35093 0,-0.5 0.14056,-0.28111 0.6513,-0.45386 0.75,-0.75 0.6361,-1.90829 -1.01743,1.27614 0.5,-1 0.13868,-0.20801 -0.0791,-0.51283 0,-0.75 0.0373,-0.1118 0.2127,-0.1382 0.25,-0.25 0.24787,-0.74362 0.39224,-1.78447 0.75,-2.5 0.336,-0.672 0.414,-1.578 0.75,-2.25 0.14907,-0.29814 0.33333,1 0,1 -0.33333,0 0,-0.66667 0.0729,-0.47217 0.15139,-0.2474 -0.31787,-0.82553 -0.67711,-1.47216 -0.24185,-0.43533 -0.21746,-0.95119 -0.5,-1.375 -0.0517,-0.0775 -0.18412,-0.0591 -0.25,-0.125 -0.0659,-0.0659 -0.0591,-0.18412 -0.125,-0.25 -0.14732,-0.14732 -0.33996,-0.24163 -0.5,-0.375 -0.0905,-0.0755 -0.14459,-0.1973 -0.25,-0.25 -0.0745,-0.0373 -0.16987,0.0229 -0.25,0 -0.45361,0.0775 -0.64645,-0.38215 -1,-0.5 -0.24044,-0.0802 -0.50304,-0.068 -0.75,-0.125 -0.29557,-0.0682 -0.5784,-0.18644 -0.875,-0.25 -0.49565,-0.10621 -0.99519,-0.20411 -1.5,-0.25 -0.24897,-0.0226 -0.5034,0.0411 -0.75,0 -0.25994,-0.0433 -0.49323,-0.19075 -0.75,-0.25 -0.36803,-0.0849 -1.10334,-0.11778 -1.5,-0.25 -0.46267,-0.15422 -0.92219,-0.31888 -1.375,-0.5 -0.0547,-0.0219 -0.0683,-0.10881 -0.125,-0.125 -0.60294,-0.17227 -1.27607,-0.17536 -1.875,-0.375 -1.09074,-0.36358 -2.05768,-0.83949 -3.125,-1.25 -0.40352,-0.1552 -0.84512,-0.22317 -1.25,-0.375 -0.37889,-0.14209 -0.88985,-0.50495 -1.25,-0.625 -0.61365,-0.20455 -1.25819,-0.30522 -1.875,-0.5 -0.17769,-0.0561 -0.32083,-0.19881 -0.5,-0.25 -0.12019,-0.0343 -0.2517,0.0205 -0.375,0 -0.33835,0.21244 -0.32322,-0.19108 -0.5,-0.25 -0.22677,-0.0756 -0.51613,-0.0665 -0.75,-0.125 -0.8908,-0.2227 0.73862,-0.0639 -0.75,-0.25 -0.45552,-0.0569 -0.81985,-0.0349 -1.25,-0.25 -0.13437,-0.0672 -0.24063,-0.18282 -0.375,-0.25 -0.15366,-0.0768 -0.35706,-0.0297 -0.5,-0.125 -0.0981,-0.0654 -0.14168,-0.20358 -0.25,-0.25 -0.15476,-0.0663 -1.27287,-0.21936 -1.375,-0.25 -1.10496,-0.33149 0.15981,-0.20351 -1.125,-0.5 -0.32733,-0.0755 -0.66949,-0.0649 -1,-0.125 -0.36115,-0.0657 -0.63791,-0.31465 -1,-0.375 -0.1233,-0.0205 -0.25373,0.0303 -0.375,0 -0.14575,-0.0364 -0.23248,-0.20249 -0.375,-0.25 -0.24044,-0.0802 -0.50956,-0.0448 -0.75,-0.125 -0.1118,-0.0373 -0.14058,-0.20623 -0.25,-0.25 -0.15951,-0.0638 -0.34634,-0.0482 -0.5,-0.125 -0.0373,-0.0186 0.0295,-0.0955 0,-0.125 -0.19761,-0.19761 -0.67437,-0.35669 -0.875,-0.5 -0.14385,-0.10275 -0.22791,-0.27694 -0.375,-0.375 -0.10963,-0.0731 -0.2606,-0.0596 -0.375,-0.125 -0.50956,-0.29118 -1.01496,-0.67664 -1.5,-1 -0.22849,-0.15233 -0.53052,-0.21039 -0.75,-0.375 -0.18856,-0.14142 -0.31893,-0.34911 -0.5,-0.5 -0.27535,-0.22946 -0.62155,-0.37155 -0.875,-0.625 -0.10623,-0.10623 -0.13459,-0.27883 -0.25,-0.375 -0.14315,-0.11929 -0.35685,-0.13071 -0.5,-0.25 -0.11541,-0.0962 -0.14377,-0.26877 -0.25,-0.375 -0.49201,-0.49201 -0.2539,-0.005 -0.625,-0.5 -0.0559,-0.0745 -0.0591,-0.18412 -0.125,-0.25 -0.0589,-0.0589 -0.20378,0.0693 -0.25,0 -0.0731,-0.10963 -0.0318,-0.28183 -0.125,-0.375 -0.0589,-0.0589 -0.19108,0.0589 -0.25,0 -0.0589,-0.0589 0.05,-0.18333 0,-0.25 -0.16008,-0.21344 -0.43635,-0.31135 -0.625,-0.5 -0.57949,-0.57949 -1.11087,-1.14565 -1.75,-1.625 -0.89912,-0.67434 0.2638,0.1388 -0.375,-0.5 -0.0249,-0.0249 -0.80906,-0.52609 -0.875,-0.625 -0.0462,-0.0693 0.0462,-0.18066 0,-0.25 -0.0708,-0.10617 -0.51524,-0.30183 -0.625,-0.375 -0.375,-0.25 0.25,0 -0.375,-0.375 -0.11299,-0.0678 -0.26778,-0.0484 -0.375,-0.125 -0.1918,-0.137 -0.31893,-0.34911 -0.5,-0.5 -0.53477,-0.44564 0.0745,0.27459 -0.625,-0.25 -0.99264,-0.74448 0.9717,0.30802 -0.375,-0.5 -0.11299,-0.0678 -0.25715,-0.0661 -0.375,-0.125 -0.27858,-0.13929 -1.37297,-1.28998 -1.625,-1.5 -0.61891,-0.51576 0.21582,0.66276 -0.75,-0.625 -0.1118,-0.14907 -0.14169,-0.34837 -0.25,-0.5 -0.42404,-0.59366 -1.09526,-1.01789 -1.5,-1.625 -0.13301,-0.19952 -0.24216,-0.51753 -0.375,-0.75 -0.16146,-0.28255 -0.52209,-0.44127 -0.625,-0.75 -0.0263,-0.0791 0.0462,-0.18066 0,-0.25 -0.10184,-0.15276 -0.8024,-0.4395 -0.875,-0.5 -0.11541,-0.0962 -0.12982,-0.28486 -0.25,-0.375 -0.0667,-0.05 -0.16916,0.0202 -0.25,0 -0.18078,-0.0452 -0.32083,-0.19881 -0.5,-0.25 -0.77072,-0.22021 -1.56446,-0.21368 -2.25,-0.625 -0.3385,-0.2031 -0.29928,-0.57391 -0.5,-0.875 -0.0231,-0.0347 -0.0955,0.0295 -0.125,0 -0.13176,-0.13176 -0.21346,-0.31728 -0.25,-0.5 -0.12857,-0.64285 0.17412,-0.29314 -0.25,-1 -0.0303,-0.0505 -0.0833,-0.0833 -0.125,-0.125 -0.0833,-0.0833 -0.18937,-0.14894 -0.25,-0.25 -0.0678,-0.11299 -0.0661,-0.25715 -0.125,-0.375 -0.25493,-0.50985 -0.81799,-0.78949 -1.125,-1.25 -0.0517,-0.0775 -0.0591,-0.18412 -0.125,-0.25 -0.15232,-0.15232 -0.47269,-0.22269 -0.625,-0.375 -0.0659,-0.0659 -0.0591,-0.18412 -0.125,-0.25 -0.0659,-0.0659 -0.17547,-0.0691 -0.25,-0.125 -0.89912,-0.67434 0.2638,0.1388 -0.375,-0.5 -0.0659,-0.0659 -0.18412,-0.0591 -0.25,-0.125 -0.21283,-0.21283 -0.33661,-0.90387 -0.625,-1 -0.0791,-0.0263 -0.17094,0.0263 -0.25,0 -0.25355,-0.0845 -0.54124,-0.59343 -0.75,-0.75 -0.0745,-0.0559 -0.18412,-0.0591 -0.25,-0.125 -0.0659,-0.0659 -0.0591,-0.18412 -0.125,-0.25 -0.0295,-0.0295 -0.0877,0.0186 -0.125,0 -0.2054,-0.1027 -0.3802,-0.3138 -0.625,-0.375 -0.0808,-0.0202 -0.17263,0.0309 -0.25,0 -0.0843,-0.0337 -0.469,-0.349 -0.625,-0.375 -0.34523,-0.0575 -0.66359,-0.0129 -1,-0.125 -0.33773,-0.11258 -0.64618,-0.33569 -1,-0.375 -0.44268,-0.0492 -1.17971,-0.0137 -1.625,-0.125 -0.42786,-0.10697 -0.50603,-0.37701 -0.875,-0.5 -0.0791,-0.0263 -0.17547,0.0373 -0.25,0 -0.23013,-0.11506 -0.0199,-0.25994 -0.25,-0.375 -0.30787,-0.15394 0.11284,0.36284 -0.375,-0.125 -0.17603,-0.17603 -0.43808,-0.62731 -0.5,-0.875 -0.0202,-0.0809 0.0373,-0.17547 0,-0.25 -0.0527,-0.10541 -0.1973,-0.14459 -0.25,-0.25 -0.0373,-0.0745 0.0263,-0.17094 0,-0.25 -0.125,-0.375 -0.76635,-0.51635 -1,-0.75 -0.32165,-0.32165 -0.45225,-0.8927 -0.75,-1.25 -0.39702,-0.47642 -0.86267,-0.89084 -1.25,-1.375 -0.19512,-0.24389 -0.63967,-1.09917 -0.75,-1.375 -0.031,-0.0774 0.0263,-0.17094 0,-0.25 -0.0519,-0.15554 -0.33901,-0.19602 -0.375,-0.25 -0.12447,-0.1867 -0.12554,-0.4383 -0.25,-0.625 -0.31725,-0.47587 -0.74591,-0.86683 -1,-1.375 -0.11222,-0.22444 -0.0772,-0.6361 -0.125,-0.875 -0.0595,-0.29745 -0.16667,-0.58333 -0.25,-0.875 0.0753,-0.22624 -0.20249,-0.23248 -0.25,-0.375 -0.1119,-0.33569 0.0391,-0.79681 -0.125,-1.125 -0.0527,-0.10541 -0.1973,-0.14459 -0.25,-0.25 -0.0674,-0.13487 -3e-4,-2.74941 0,-2.75 0.18392,-0.36785 0.125,0.19403 -0.0159,0.98493 -0.14092,1.69798 -0.40002,1.44225 -0.67125,1.71348 -0.0417,0.0417 0.0417,0.13507 0,0.17677 -0.69312,0.69313 -2.18244,0.82606 -3.0052,1.23744 -0.75178,0.37589 -1.42936,0.95291 -2.12132,1.41421 -0.21927,0.14618 -0.50703,0.18206 -0.70711,0.35356 -0.60117,0.51529 -0.47178,0.64855 -0.88388,1.06066 -0.0932,0.0932 -0.28045,0.0671 -0.35355,0.17677 -0.0654,0.0981 0.0286,0.23923 0,0.35356 -0.032,0.12783 -0.11788,0.2357 -0.17678,0.35355 -0.0589,0.0589 -0.15048,0.0977 -0.17678,0.17678 -0.0373,0.1118 0.0527,0.24814 0,0.35355 -0.0264,0.0527 -0.12407,-0.0263 -0.17677,0 -0.23571,0.11785 -0.47141,0.2357 -0.70711,0.35355 -0.22361,0.11181 -0.25989,0.48353 -0.53033,0.53033 -0.10541,0.0527 -0.24815,-0.0527 -0.35356,0 -0.0527,0.0264 0.0264,0.12408 0,0.17678 -0.13537,0.27075 -0.31501,0.13824 -0.53033,0.35355 -0.13413,0.13414 -0.16835,0.69869 -0.35355,0.88389 -0.0417,0.0417 -0.13508,-0.0417 -0.17678,0 -0.32912,0.32912 -0.55551,0.90907 -0.88388,1.23743 -0.0932,0.0932 -0.26035,0.0836 -0.35355,0.17678 -0.0417,0.0417 0.049,0.14408 0,0.17678 -0.15505,0.10338 -0.37055,0.0809 -0.53033,0.17678 -0.21438,0.12862 -0.30673,0.41852 -0.53033,0.53033 -0.23,0.11499 -0.68216,0.21907 -0.88389,0.35355 -0.46962,0.31308 -1.00424,0.73719 -1.59099,0.88388 -0.68036,0.16978 -1.44369,0.007 -2.12132,0.17678 -0.46637,0.11659 -0.9424,0.43593 -1.41421,0.53033 -0.32036,0.0641 -0.73935,-0.0803 -1.06066,0 -0.12783,0.032 -0.22855,0.13508 -0.35355,0.17678 -0.30506,0.10168 -4.58186,0.0478 -4.77297,0 -2.03712,-0.50923 0.57441,-0.24625 -1.41422,-0.53033 -0.29166,-0.0417 -0.59805,0.0715 -0.88388,0 -0.31885,-0.0797 -0.45141,-0.46643 -0.70711,-0.53033 -0.1715,-0.0429 -0.36262,0.0559 -0.53033,0 -0.0559,-0.0186 0.0527,-0.15048 0,-0.17678 -0.10541,-0.0527 -0.24175,0.0373 -0.35355,0 -0.24246,-0.0808 -0.59458,-0.27095 -0.88389,-0.35355 -1.38498,-0.39572 -0.37163,-0.0413 -1.59099,-0.17678 -1.17916,-0.13102 -0.54626,-0.17943 -1.59099,-0.35355 -0.23249,-0.0387 -0.4835,0.0745 -0.7071,0 -0.50975,-0.16992 -1.05403,-0.59972 -1.59099,-0.70711 -0.28891,-0.0578 -0.60438,0.0932 -0.88389,0 -0.1831,-0.061 -0.35495,-0.26586 -0.53033,-0.35356 -0.19992,-0.1 -1.61185,-0.11027 -1.94454,-0.17677 -0.71424,-0.14285 -0.51769,-0.16835 -1.06066,-0.53033 -0.24515,-0.16343 -0.59222,0.0417 -0.88388,0 -0.8255,-0.11793 -1.5187,-0.27053 -2.2981,-0.53033 -0.1591,-0.053 -0.37123,0.053 -0.53033,0 -0.0791,-0.0263 -0.0977,-0.15048 -0.17678,-0.17678 -0.3182,-0.10606 -0.74246,0.10607 -1.06066,0 -0.0791,-0.0263 -0.0978,-0.15038 -0.17677,-0.17678 -0.37715,-0.12571 -0.90454,-0.0206 -1.23744,-0.35355 -0.0417,-0.0417 0.0417,-0.13508 0,-0.17678 -0.25974,-0.25973 -1.43711,0.13227 -1.76777,0 -0.19726,-0.0789 -0.3403,-0.25855 -0.53033,-0.35355 -1.06769,-0.53384 -0.0748,0.0255 -0.88388,-0.17678 -0.25566,-0.0639 -0.46243,-0.25565 -0.70711,-0.35355 -0.84296,-0.33715 -0.39924,-0.0556 -1.59099,-0.35355 -0.9387,-0.23468 -1.78068,-0.86417 -2.65165,-1.23744 -0.54957,-0.23553 -1.20377,-0.30473 -1.76777,-0.53033 -0.36217,-0.14487 -0.69088,-0.40707 -1.06066,-0.53033 -0.28684,-0.0956 -0.80836,-0.0506 -1.06066,-0.17678 -0.0527,-0.0263 0.0559,-0.15817 0,-0.17677 -0.1677,-0.0559 -0.35883,0.0429 -0.53033,0 -0.0809,-0.0202 -0.0978,-0.15048 -0.17677,-0.17678 -1.70915,-0.56971 -4.45479,-0.35355 -6.36396,-0.35355 -0.49342,0 -3.7189,-0.11346 -3.88909,0 -0.13868,0.0925 -0.20448,0.27905 -0.35355,0.35355 -0.50873,0.25436 -1.43648,0.0979 -2.34632,0.28975 -0.39776,0.10311 -1.00158,0.49427 -1.09886,0.88337 -0.0315,0.1262 0.0411,0.26683 0,0.39023 -0.12835,0.38508 -0.52267,0.65749 -0.65037,1.04059 -0.16009,0.48029 0,1.3285 0,1.82104 0,0.65305 -0.15268,1.73062 0,2.34134 0.0599,0.23989 0.16569,0.33137 0.26015,0.5203 0.17303,0.34607 0.20645,0.80311 0.39022,1.17067 0.0699,0.13982 0.2021,0.24507 0.26015,0.39022 0.0323,0.0805 -0.0388,0.18259 0,0.26015 0.10416,0.2083 0.38358,0.44529 0.5203,0.65037 0.52646,0.78969 -0.37444,-0.40728 0.26015,0.65037 0.26621,0.44369 0.60691,0.76586 0.91052,1.17067 0.11634,0.15512 0.12304,0.38319 0.26015,0.5203 0.0686,0.0686 0.20198,0.0525 0.26015,0.13007 0.0823,0.10969 0.054,0.27615 0.13007,0.39023 0.10208,0.15306 0.27531,0.24657 0.39022,0.39022 0.38058,0.47572 0.70225,1.05336 1.0406,1.56089 0.26015,0.39022 0,-0.26015 0.39022,0.39022 0.0705,0.11758 0.0688,0.26759 0.13008,0.39023 -0.70204,0.49591 0.37735,0.37092 0.39022,0.39022 0.0761,0.11408 0.0688,0.26759 0.13007,0.39022 0.0823,0.16454 0.27531,0.24658 0.39023,0.39023 0.78943,0.98679 -0.1868,-0.18126 0.39022,0.78044 0.1496,0.24934 0.52059,0.39082 0.65037,0.65037 0.091,0.18209 0.25922,0.60578 0.39022,0.78045 0.11634,0.15512 0.40396,0.10503 0.5203,0.26015 0.0823,0.10969 0.0478,0.28053 0.13008,0.39022 0.0741,0.0987 1.04286,0.78272 1.17067,0.91052 0.49714,0.49715 1.13435,1.25233 1.56089,1.82104 0.0582,0.0775 0.0615,0.1916 0.13007,0.26015 0.33373,0.33373 0.84399,0.58384 1.17067,0.91052 0.0686,0.0686 0.0494,0.20637 0.13008,0.26015 0.0721,0.0481 0.17787,-0.0274 0.26014,0 0.17452,0.0582 0.23717,0.28818 0.39023,0.39022 1.00895,0.67263 2.25695,1.0609 3.38193,1.5609 0.26579,0.11812 0.49524,0.33318 0.78045,0.39022 0.12754,0.0255 0.26191,-0.0213 0.39022,0 0.40344,0.0672 1.49856,0.48913 1.82104,0.65037 0.15609,0.078 0.23413,0.31218 0.39022,0.39022 0.9618,0.4809 1.50949,1.56998 2.47142,2.21127 0.16133,0.10755 0.38318,0.12304 0.52029,0.26015 0.0307,0.0307 -0.0194,0.0913 0,0.13007 0.0823,0.16454 0.27531,0.24658 0.39023,0.39022 0.69325,0.86657 0.0466,0.009 0.26014,0.65037 0.0194,0.0582 0.0985,0.0775 0.13008,0.13008 0.2874,0.47901 0.29735,0.74348 0.39022,1.30074 0.0356,0.21375 0.0555,1.05883 0.13008,1.17067 0.17067,0.25602 0.30069,0.38175 0.39022,0.65037 0.0411,0.12341 -0.0411,0.26683 0,0.39023 0.0895,0.26855 0.28063,0.30109 0.39022,0.52029 0.0624,0.1248 0.2171,0.39114 0.26015,0.5203 0.0274,0.0823 -0.0274,0.17788 0,0.26015 0.0388,0.11634 0.20531,0.15046 0.26015,0.26015 0.30839,0.61678 0.67522,1.21209 1.04059,1.82104 0.13325,0.22207 0.12692,0.4283 0.26015,0.65037 0.0631,0.10516 0.19213,0.15811 0.26015,0.26015 0.13035,0.19553 0.26267,0.58911 0.39022,0.78045 0.37611,0.56415 0.16784,-0.0357 0.39023,0.52029 0.25901,0.64754 0.63885,0.99845 1.04059,1.56089 0.18173,0.25443 0.38048,0.5008 0.5203,0.78045 0.0613,0.12263 0.054,0.27614 0.13007,0.39022 l 0.39023,0.39023 c 0.0434,0 0.094,-0.024 0.13007,0 0.0444,0.0296 1.01335,1.13434 1.0406,1.17067 0.19223,0.25629 0.3797,0.88948 0.52029,1.17066 0.10698,0.21394 0.44384,0.55105 0.5203,0.78045 0.0613,0.18402 -0.1126,0.63031 0,0.78045 0.11038,0.14716 0.27985,0.24306 0.39022,0.39022 0.15092,0.20122 0,1.04909 0,1.30074 0,0.72151 0.002,1.55843 -0.20109,2.21336 1.08646,0.73101 5.31819,-0.36832 6.3192,0.13218 0.0717,0.0358 0.81708,1.56708 1,1.75 0.0589,0.0589 0.19108,-0.0589 0.25,0 0.39345,0.39345 0.57484,0.82484 1,1.25 0.0589,0.0589 0.19108,-0.0589 0.25,0 0.30463,0.30463 0.44537,0.94537 0.75,1.25 0.22179,0.22179 0.93653,0.29102 1.25,0.5 0.27579,0.18386 0.45466,0.60233 0.75,0.75 0.24884,0.12442 0.7234,-0.0553 1,0 0.69725,0.13945 1.31531,0.36306 2,0.5 0.32686,0.0654 0.70186,-0.14907 1,0 0.0745,0.0373 0,0.16667 0,0.25 0.16667,0.0833 0.32322,0.19108 0.5,0.25 0.43943,0.14648 1.4466,0.0983 1.75,0.25 0.85759,0.42879 1.56097,0.43699 2.5,0.75 0.87456,0.29152 1.63656,0.92621 2.5,1.25 0.66667,0.25 1.49654,0.24654 2,0.75 0.0589,0.0589 -0.0589,0.19108 0,0.25 0.17678,0.17678 0.51283,-0.0791 0.75,0 0.25896,0.0863 0.50198,0.37599 0.75,0.5 0.22361,0.1118 0.50486,-0.049 0.75,0 0.49705,0.0994 1.00824,0.12706 1.5,0.25 0.11433,0.0286 0.16667,0.16667 0.25,0.25 0.16667,0.0833 0.31728,0.21346 0.5,0.25 0.91875,0.18375 2.11285,-0.29572 3,0 0.1118,0.0373 0.1382,0.21273 0.25,0.25 0.59757,0.19919 1.38839,-0.1529 2,0 0.51131,0.12783 0.98013,0.41336 1.5,0.5 0.64532,0.10755 1.35886,-0.12823 2,0 0.5632,0.11264 1.1868,0.38736 1.75,0.5 0.40663,0.0813 0.84089,-0.10228 1.25,0 0.11433,0.0286 0.1382,0.21273 0.25,0.25 0.54443,0.18148 2.09116,0.0456 2.5,0.25 0.0105,0.005 0.34862,0.64908 0.5,0.75 1.08029,0.72019 1.33409,1.39014 2,2.5 0.21437,0.35729 0.56366,0.62732 0.75,1 0.11785,0.2357 0.11442,0.52403 0.25,0.75 -0.6169,0.75687 0.68002,0.43002 0.75,0.5 0.0939,0.0939 0.64408,1.14408 0.75,1.25 0.0589,0.0589 0.21273,-0.0745 0.25,0 0.0556,0.11126 0.23797,1.23797 0.25,1.25 0.13176,0.13176 0.36824,0.11824 0.5,0.25 0.0589,0.0589 -0.0373,0.17547 0,0.25 0.75353,1.50706 3.25774,2.45155 4.75,2.75 0.78659,0.15732 2.00079,-0.29968 2.75,0 0.27897,0.11159 0.48126,0.36563 0.75,0.5 0.12318,0.0616 5.42759,0.21418 5.75,0.25 0.26191,0.0291 0.49435,0.18609 0.75,0.25 0.66109,0.16527 1.55996,0 2.25,0 h 5 c 0.75815,0 1.78749,0.17813 2.5,0 0.44658,-0.11164 0.60228,-0.40057 1,-0.5 0.33333,-0.0833 0.75704,-0.007 1,-0.25 0.0589,-0.0589 -0.0462,-0.18066 0,-0.25 0.32715,-0.49072 1.25,-0.70756 1.375,-1.25 0.64817,0 1.72081,-0.0479 2.125,-0.25 z"
         id="path30" />
    </g>
  </g>
</svg>
