<?xml version="1.0" encoding="UTF-8" standalone="no"?>
<!-- Created with Inkscape (http://www.inkscape.org/) -->

<svg
   version="1.1"
   id="svg2"
   width="72.551086"
   height="87.612671"
   viewBox="0 0 72.551086 87.612671"
   xmlns="http://www.w3.org/2000/svg"
   xmlns:svg="http://www.w3.org/2000/svg">
  <defs
     id="defs6">
    <linearGradient
       id="swatch77">
      <stop
         style="stop-color:#e2c69e;stop-opacity:1;"
         offset="0"
         id="stop77" />
    </linearGradient>
  </defs>
  <g
     id="layer66"
     style="display:inline"
     transform="translate(-1136.5581,-594.81635)">
    <g
       id="layer8"
       style="display:inline">
      <path
         style="font-variation-settings:normal;display:inline;opacity:1;fill:#969696;fill-opacity:1;stroke:none;stroke-width:1;stroke-linecap:butt;stroke-linejoin:miter;stroke-miterlimit:4;stroke-dasharray:none;stroke-dashoffset:0;stroke-opacity:1;stop-color:#000000;stop-opacity:1"
         d="m 1170.0849,681.03222 c 0.2762,-0.12553 0.5078,-0.34602 0.7955,-0.44194 0.1977,-0.0659 0.4154,-0.0432 0.6188,-0.0884 0.4579,-0.10177 1.0593,-0.35303 1.5026,-0.53033 0.5167,-0.20668 0.2586,-0.17245 0.7955,-0.53033 0.7832,-0.52213 -0.07,0.12349 0.7071,-0.26517 0.3216,-0.16083 0.5755,-0.43368 0.8838,-0.61872 0.113,-0.0678 0.2524,-0.0924 0.3536,-0.17677 0.082,-0.068 0.095,-0.19716 0.1768,-0.26517 0.1012,-0.0843 0.2439,-0.10369 0.3535,-0.17678 0.1387,-0.0924 0.2149,-0.2611 0.3536,-0.35355 0.1096,-0.0731 0.2481,-0.0977 0.3535,-0.17678 0.335,-0.25124 0.6506,-0.52742 0.9723,-0.79549 0.3217,-0.26805 0.904,-0.94067 1.2374,-1.14905 0.1031,-0.0644 0.2494,-0.0259 0.3536,-0.0884 0.4965,-0.29788 0.8774,-0.85012 1.3258,-1.14905 0.1097,-0.0731 0.2439,-0.10368 0.3536,-0.17677 0.4932,-0.32885 -0.2003,-0.0324 0.4419,-0.35356 0.2937,-0.14686 0.596,-0.26921 0.8839,-0.44194 0.3696,-0.22174 0.6037,-0.57433 0.9723,-0.79549 0.1694,-0.10169 0.3743,-0.14383 0.5303,-0.26517 0.1163,-0.0904 0.161,-0.24938 0.2652,-0.35355 0.075,-0.0751 0.19,-0.10166 0.2651,-0.17678 0.075,-0.0751 0.095,-0.19716 0.1768,-0.26516 0.1012,-0.0843 0.2463,-0.10019 0.3536,-0.17678 0.4035,-0.28822 0.688,-0.77009 0.9722,-1.14905 0.163,-0.2173 0.3647,-0.40341 0.5304,-0.61872 0.1943,-0.2526 0.3204,-0.55565 0.5303,-0.79549 1.7098,-1.95405 -0.9121,1.20856 0.8839,-0.97227 0.5033,-0.61122 1.0389,-1.35802 1.6794,-1.85616 0.2712,-0.21094 0.594,-0.34586 0.8838,-0.53033 0.3035,-0.19308 0.5705,-0.4424 0.8839,-0.61872 0.3536,-0.17677 0.7071,-0.35355 1.0607,-0.53033 0.088,-0.0295 0.1818,-0.0467 0.2651,-0.0884 0.6364,-0.31816 1.2203,-0.74268 1.8562,-1.06066 0.1419,-0.071 0.3042,-0.0981 0.4419,-0.17677 0.2894,-0.16532 0.5409,-0.50341 0.7955,-0.70711 0.023,-0.0184 0.065,0.0184 0.088,0 0.7428,-0.59423 1.2004,-1.58814 1.6794,-2.38648 0.8756,-1.45932 0.08,-0.21996 0.7071,-0.97228 0.2131,-0.25571 0.3484,-0.611 0.5303,-0.88388 0.1439,-0.21576 0.377,-0.40404 0.5304,-0.61872 0.148,-0.20723 0.2617,-0.52692 0.4419,-0.70711 0.047,-0.0466 0.1302,-0.0418 0.1768,-0.0884 0.1334,-0.1334 0.2489,-0.28498 0.3535,-0.44195 0.093,-0.1395 0.2933,-0.38967 0.3536,-0.53033 0.048,-0.11165 0.021,-0.25247 0.088,-0.35355 0.059,-0.0884 0.1802,-0.11304 0.2652,-0.17678 0.2834,-0.21261 0.6788,-0.68527 0.8838,-0.97227 0.1149,-0.16083 0.1417,-0.37599 0.2652,-0.53033 0.078,-0.0976 0.2009,-0.15798 0.2652,-0.26516 0.03,-0.0505 -0.03,-0.12625 0,-0.17678 0.1687,-0.28115 0.519,-0.51345 0.7071,-0.79549 0.2127,-0.31907 0.2504,-0.74148 0.4419,-1.06066 0.043,-0.0715 0.1339,-0.10532 0.1768,-0.17678 0.048,-0.0799 0.037,-0.18764 0.088,-0.26517 0.069,-0.104 0.1958,-0.16115 0.2651,-0.26516 0.052,-0.0775 0.034,-0.18935 0.088,-0.26517 0.097,-0.13562 0.2567,-0.21793 0.3536,-0.35355 0.054,-0.0758 0.03,-0.19241 0.088,-0.26516 0.066,-0.083 0.1971,-0.0952 0.2651,-0.17678 0.292,-0.35037 0.418,-0.87594 0.7071,-1.23744 0.078,-0.0976 0.1676,-0.18708 0.2652,-0.26516 0.051,-0.0412 0.1373,-0.0357 0.1768,-0.0884 0.056,-0.0745 0.04,-0.18527 0.088,-0.26517 0.076,-0.12632 0.1731,-0.23852 0.2651,-0.35355 0.1483,-0.18536 0.7973,-0.79893 0.8839,-0.97227 0.042,-0.0833 0.041,-0.18527 0.088,-0.26517 0.043,-0.0715 0.1458,-0.0994 0.1768,-0.17677 0.033,-0.0821 -0.04,-0.18611 0,-0.26517 0.9841,-1.96824 0.03,0.0513 0.7071,-0.79549 0.058,-0.0728 0.047,-0.18184 0.088,-0.26517 0.2084,-0.41674 0.5639,-0.83224 0.6187,-1.32582 0.1195,-1.07569 0,-2.84344 -0.1768,-3.88909 -0.04,-0.23942 -0.1368,-0.46769 -0.1767,-0.70711 -0.067,-0.40007 0.079,-0.84008 0,-1.23743 -0.01,-0.0409 -0.075,-0.0489 -0.088,-0.0884 -0.075,-0.22535 -0.062,-0.47103 -0.088,-0.70711 -0.047,-0.42143 0.1023,-0.91639 0,-1.32583 -0.068,-0.27329 -0.184,-0.51129 -0.2652,-0.79549 -0.024,-0.085 0.039,-0.18611 0,-0.26517 -0.1092,-0.21844 -0.088,0.0305 -0.088,-0.17677 -0.085,-0.96514 -0.3894,-1.23267 -0.8819,-2.03286 -0.069,-0.11222 -0.094,-0.25067 -0.1767,-0.35356 -0.041,-0.0514 -0.1302,-0.0418 -0.1768,-0.0884 -0.088,-0.11785 -0.1768,-0.2357 -0.2652,-0.35355 -0.059,-0.0295 -0.1302,-0.0418 -0.1768,-0.0884 -0.3582,-0.35825 -0.6437,-0.83635 -1.0606,-1.14905 -0.2894,-0.21703 -0.6261,-0.44935 -0.8839,-0.7071 -0.2276,-0.22762 -0.3962,-0.57295 -0.6187,-0.7955 -0.075,-0.0751 -0.1901,-0.10166 -0.2652,-0.17677 -0.3705,-0.37056 -0.4328,-1.12631 -0.6187,-1.591 -0.1617,-0.40424 -0.3856,-0.89148 -0.5303,-1.32582 -0.2484,-0.74522 0.1035,-0.14647 -0.2652,-0.88388 -0.066,-0.13177 -0.2186,-0.2138 -0.2652,-0.35356 -0.047,-0.14252 -0.029,-0.30385 -0.088,-0.44194 -0.033,-0.0766 -0.1267,-0.11011 -0.1767,-0.17678 -0.1115,-0.14866 -0.065,-0.29328 -0.1768,-0.44194 -0.04,-0.0527 -0.1179,-0.0589 -0.1768,-0.0884 -0.059,-0.0589 -0.1305,-0.10743 -0.1768,-0.17677 -0.016,-0.0245 0.018,-0.0648 0,-0.0884 -0.8213,-1.09509 0.1152,0.20359 -0.4419,-0.35355 -0.1488,-0.1488 -0.1459,-0.31737 -0.3536,-0.44195 -0.08,-0.0479 -0.1924,-0.0302 -0.2651,-0.0884 -0.083,-0.0664 -0.1017,-0.19005 -0.1768,-0.26517 -0.4822,-0.48225 -1.1287,-0.84412 -1.6794,-1.23744 -0.095,-0.0682 -0.7649,-0.58816 -0.8839,-0.7071 -0.046,-0.0466 -0.036,-0.13725 -0.088,-0.17678 -0.075,-0.0559 -0.1853,-0.0404 -0.2652,-0.0884 -0.442,-0.26516 0,-0.0884 -0.2652,-0.26516 -0.1096,-0.0731 -0.2604,-0.0836 -0.3535,-0.17678 -0.047,-0.0466 -0.036,-0.13725 -0.088,-0.17678 -0.1269,-0.0952 -0.3099,-0.0888 -0.442,-0.17677 -0.3588,-0.23921 -0.7651,-0.42675 -1.149,-0.61872 -0.1318,-0.0659 -0.1731,-0.23852 -0.2652,-0.35355 -0.1178,-0.14732 -0.3287,-0.20264 -0.4419,-0.35356 -0.035,-0.0471 0.035,-0.12963 0,-0.17677 -0.092,-0.12323 -0.6465,-0.5283 -0.7955,-0.70711 -0.261,-0.31314 -0.369,-0.74852 -0.6187,-1.06066 -0.078,-0.0976 -0.1871,-0.16756 -0.2652,-0.26517 -0.066,-0.0826 -0.1792,-0.3846 -0.2652,-0.44194 -0.049,-0.0327 -0.1277,0.0327 -0.1767,0 -0.024,-0.0157 -0.4172,-0.51177 -0.442,-0.53033 -0.1127,-0.0845 -0.6833,-0.32149 -0.7955,-0.35355 -0.085,-0.0243 -0.1794,0.0214 -0.2651,0 -0.143,-0.0357 -0.2218,-0.19929 -0.3536,-0.26517 -0.3143,-0.15716 -0.6548,-0.19484 -0.9723,-0.35355 -0.2402,-0.12013 -0.4668,-0.4102 -0.7071,-0.53033 -0.1086,-0.0543 -0.2449,-0.0341 -0.3535,-0.0884 -0.075,-0.0373 -0.1135,-0.12254 -0.1768,-0.17678 -0.1772,-0.25509 -0.4808,-0.34171 -0.7071,-0.53033 -0.2231,-0.18595 -0.3956,-0.43276 -0.6187,-0.61871 -0.081,-0.34228 -0.4333,-0.20517 -0.6187,-0.35356 -0.083,-0.0664 -0.09,-0.20342 -0.1768,-0.26516 -0.1291,-0.0922 -0.2961,-0.11428 -0.442,-0.17678 -0.4231,-0.18134 0.087,0.0286 -0.3535,-0.26516 -0.308,-0.2053 -0.5643,-0.20827 -0.8839,-0.35356 -0.3128,-0.14218 -0.5681,-0.39498 -0.8839,-0.53033 -0.8881,-0.38063 0.3044,0.32898 -0.8839,-0.26516 -0.074,-0.0373 -0.1022,-0.13951 -0.1767,-0.17678 -0.112,-0.056 -0.8273,-0.13535 -0.9723,-0.17678 -0.2158,-0.0616 -0.4059,-0.19421 -0.6187,-0.26516 -0.3187,-0.10623 -0.6444,-0.19229 -0.9723,-0.26517 -0.058,-0.0128 -0.1226,0.0232 -0.1768,0 -0.8849,-0.37923 -0.082,-0.17497 -0.7071,-0.35355 -0.3211,-0.0918 -0.8474,-0.29322 -1.149,-0.35355 -0.4722,-0.0944 0.1989,0.16796 -0.442,-0.0884 -0.061,-0.0245 -0.1178,-0.0589 -0.1768,-0.0884 -0.088,-0.0589 -0.1675,-0.13493 -0.2651,-0.17678 -0.2003,-0.0858 -0.4252,-0.0693 -0.6187,-0.17677 -0.1858,-0.10318 -0.337,-0.26564 -0.5304,-0.35356 -0.28,-0.12728 -0.5999,-0.14685 -0.8839,-0.26516 -0.4706,-0.19609 -0.9492,-0.40951 -1.4142,-0.61872 -0.3847,-0.17311 -0.7717,-0.34168 -1.149,-0.53033 -0.037,-0.0186 -0.049,-0.0752 -0.088,-0.0884 -0.2305,-0.0768 -0.4828,-0.0833 -0.7071,-0.17678 -0.136,-0.0566 -0.2218,-0.19928 -0.3536,-0.26516 -0.1086,-0.0543 -0.2391,-0.0475 -0.3535,-0.0884 -0.4863,-0.17368 -1.5513,-0.5949 -2.0329,-0.88388 -1.7007,-1.19047 -0.3026,-0.27609 -1.2375,-0.7955 -0.5928,-0.32934 -1.1214,-0.75846 -1.6794,-1.14905 -0.4623,-0.32366 -0.9728,-0.61913 -1.4142,-0.97227 -0.091,-0.0727 -0.7483,-0.66753 -0.9722,-0.79549 -0.081,-0.0462 -0.1843,-0.0422 -0.2652,-0.0884 -0.3424,-0.19563 -0.6277,-0.51566 -0.9723,-0.70711 -0.161,-0.0894 -0.7093,-0.32558 -0.8839,-0.44194 -0.104,-0.0693 -0.1702,-0.18382 -0.2651,-0.26516 -0.3168,-0.27154 -0.716,-0.5657 -1.0607,-0.7955 -0.049,-0.0327 -0.1241,0.0263 -0.1768,0 -0.2046,-0.1023 -0.7637,-0.9405 -2.1897,-1.36611 -1.426,-0.4256 -1.9702,-0.32353 -2.3785,-0.4256 -0.333,-0.0833 -0.6648,-0.183 -1,-0.25 -0.2451,-0.049 -0.5049,0.049 -0.75,0 -0.091,-0.0183 -0.159,-0.1067 -0.25,-0.125 -0.7613,-0.15226 -1.5103,-0.12842 -2.25,-0.375 -0.3959,-0.13197 -3.1704,0 -3.75,0 h -3.875 c -0.561,0 -1.1949,-0.0793 -1.75,0 -0.4581,0.0654 -1.1041,0.26247 -1.5,0.5 -0.1011,0.0606 -0.1489,0.1894 -0.25,0.25 -0.474,0.28442 -1.1339,0.25445 -1.625,0.5 -0.1054,0.0527 -0.156,0.1793 -0.79,2.63075 -0.634,2.45145 -0.668,2.5384 -0.648,2.61925 0.054,0.21768 0.191,0.40852 0.25,0.625 0.073,0.2677 0.1202,0.54324 0.1875,0.8125 0.071,0.28307 0.1375,0.25927 0.25,0.625 0.037,0.12112 0.032,0.25206 0.062,0.375 0.057,0.22692 0.1696,0.46651 0.25,0.6875 0.1989,0.54704 0.3586,1.12204 0.5,1.6875 0.053,0.21101 0.1517,0.41045 0.1875,0.625 0.058,0.34621 0.048,0.71426 0.125,1.0625 0.01,0.0288 0.054,0.0342 0.062,0.0625 0.104,0.36406 0.053,0.76297 0.125,1.125 0.03,0.14872 0.098,0.28828 0.125,0.4375 0.015,0.082 -0.01,0.16731 0,0.25 0.061,0.48466 0.1277,0.95935 0.1875,1.4375 0.056,0.45143 0.1578,0.77271 0.25,1.1875 0.1136,0.51137 0.1227,1.0443 0.1875,1.5625 0.047,0.37248 0,1.20384 0,1.4375 0,0.44353 0.021,0.33846 0.062,0.75 0.045,0.45379 -0.045,0.9212 0,1.375 0.011,0.1057 0.052,0.2068 0.062,0.3125 0.025,0.24876 -0.021,0.50086 0,0.75 0.047,0.56974 0.1875,1.11211 0.1267,1.4375 0.037,-0.25 0.018,0.033 0.064,0.125 0.026,0.0527 0.099,0.0723 0.125,0.125 0.1446,0.2893 0.2206,0.75366 0.375,1.0625 0.047,0.0932 0.1705,0.14725 0.1875,0.25 0.062,0.38143 -0.074,0.21175 0.062,0.5 0.1865,0.39631 0.4675,0.75993 0.5625,1.1875 0.018,0.0814 -0.026,0.1709 0,0.25 0.038,0.11524 0.1335,0.20385 0.1875,0.3125 0.1029,0.20588 0.212,0.60184 0.25,0.8125 0.03,0.16398 0,0.33333 0,0.5 v 1.9375 c 0,2.44145 0.021,4.87394 0.065,7.3125 0.101,0.10136 0.091,0.98242 0.125,1.1875 0.015,0.0919 0.095,0.1616 0.125,0.25 0.024,0.0724 -0.018,0.1773 0,0.25 0.011,0.0452 0.052,0.0793 0.062,0.125 0.1002,0.5008 -0.1002,1.0617 0,1.5625 0.039,0.19369 0.064,0.37977 0.125,0.5625 0.04,0.11858 -0.018,0.25125 0,0.375 0.024,0.17007 0.3129,0.26478 0.125,0.5 0.022,0.22386 0.01,0.46912 0.062,0.6875 0.095,0.38167 0.2389,0.76197 0.375,1.125 0.1185,0.31586 0.1145,0.67342 0.1875,1 0.079,0.35517 0.154,0.71148 0.25,1.0625 0.053,0.19245 0.197,0.43255 0.25,0.625 0.091,0.33498 0.018,0.50257 0.062,0.8125 0.108,0.75239 0.031,-0.62545 0.125,0.5 0.039,0.46983 0,0.9661 0,1.4375 v 3 c 0,0.63617 -0.049,1.30306 0,1.9375 0.01,0.10592 0.052,0.20658 0.062,0.3125 0.072,0.929 -0.082,0.10573 0.062,0.875 0.055,0.29318 0.1605,0.57794 0.1875,0.875 0.034,0.37058 -0.026,0.75399 0,1.125 0.018,0.2528 0.102,0.49759 0.125,0.75 0.017,0.18596 -0.017,0.37654 0,0.5625 0.034,0.37744 0.093,0.74654 0.125,1.125 0.014,0.16609 -0.021,0.33462 0,0.5 0.041,0.32908 0.078,0.67126 0.125,1 0.056,0.38908 0.228,0.63944 0.25,1.0625 0.021,0.39528 -0.046,0.79438 0,1.1875 0.022,0.19076 0.104,0.3716 0.125,0.5625 0.204,1.83212 -0.3464,-1.15517 0.125,1.4375 0.054,0.29844 0.21,0.57432 0.25,0.875 0.267,2.00619 -0.1888,-0.37911 0.062,0.875 0.1438,0.006 0.4765,0.4781 0.6875,0.5625 0.1408,0.0563 0.2955,0.0717 0.4375,0.125 0.028,0.0103 0.034,0.054 0.062,0.0625 0.4073,0.12218 0.781,0.12943 1.1875,0.1875 0.7916,0.11309 1.5941,0.3198 2.375,0.5 0.304,0.0702 0.613,0.34717 0.875,0.5 0.3426,0.19983 0.6354,0.26968 0.9375,0.4375 0.304,0.16891 0.5063,0.3976 0.8125,0.5625 0.3389,0.18246 0.7183,0.26539 1.0625,0.4375 0.9631,0.48154 -0.4067,-0.12238 0.6875,0.375 0.2217,0.10075 0.4786,0.19067 0.6875,0.3125 0.1946,0.11354 0.3668,0.2632 0.5625,0.375 0.097,0.0557 0.214,0.0713 0.3125,0.125 0.5324,0.29043 0.2164,0.18596 0.6875,0.5 0.017,0.0116 0.046,-0.013 0.062,0 0.5738,0.45903 0.4549,0.45781 0.8125,0.875 0.2717,0.31696 0.6177,0.66335 0.9375,0.9375 0.3269,0.28022 0.6648,0.54436 1,0.8125 0.1857,0.14856 0.4866,0.28682 0.6875,0.4375 0.5208,0.39061 1.0214,1.05791 1.4375,1.5 0.1582,0.16805 0.4007,0.27569 0.5625,0.4375 0.086,0.0859 0.1016,0.2266 0.1875,0.3125 0.2163,0.21628 0.4398,0.37804 0.625,0.625 0.1908,0.2544 0.313,0.55531 0.5,0.8125 0.052,0.0715 0.1436,0.11076 0.1875,0.1875 0.043,0.0746 0.024,0.17317 0.062,0.25 0.1555,0.31093 0.4725,0.54372 0.6875,0.8125 0.079,0.0992 0.1929,0.19827 0.25,0.3125 0.019,0.0373 -0.03,0.0955 0,0.125 0.015,0.0147 0.042,0 0.062,0 7e-4,0.20833 -0.033,0.41956 0,0.625 0.062,0.16667 0.125,0.33333 0.1875,0.5 0.021,0.0208 0.049,0.0362 0.062,0.0625 0.1956,0.39124 0.068,0.20443 0.1875,0.5625 0.095,0.28417 0.2236,0.5236 0.3125,0.8125 0.079,0.25628 0.1122,0.63392 0.25,0.875 0.029,0.0512 0.092,0.076 0.125,0.125 0.023,0.0347 -0.025,0.0917 0,0.125 0.1624,0.2165 0.3227,0.3954 0.4375,0.625 0.059,0.11809 0.1875,0.0571 0.5076,0.11652 1.4518,-0.55713 2.6445,-0.88642 3.7673,-1.3968 z"
         id="path60" />
    </g>
  </g>
</svg>
