<?xml version="1.0" encoding="UTF-8" standalone="no"?>
<!-- Created with Inkscape (http://www.inkscape.org/) -->

<svg
   version="1.1"
   id="svg1"
   width="74"
   height="87.874992"
   viewBox="0 0 74 87.874992"
   xmlns="http://www.w3.org/2000/svg"
   xmlns:svg="http://www.w3.org/2000/svg">
  <defs
     id="defs1" />
  <g
     id="layer1"
     style="display:inline"
     transform="translate(-1135.4375,-594.56249)">
    <g
       id="layer57"
       style="display:inline;fill:#ffffff;fill-opacity:1;stroke:none">
      <path
         style="fill:#ffffff;fill-opacity:1;stroke:none;stroke-linecap:round"
         d="m 1140.1875,619.93748 -1.25,-8.875 -3.5,-11.74999 2.25,-3.8125 9,-0.9375 12.1875,0.75 5.5625,4.9375 3.625,1.375 2.5,3.0625 21.4375,9.37499 1.625,2.4375 5.625,3.875 0.3125,2.5 9.5,12.3125 0.375,8.3125 -4.1875,4.8125 -1.1875,3.8125 -4.625,4.6875 -2.375,3.8125 -20.9375,18.3125 -3.4375,-0.0625 -6.875,3.5625 -1.25,-1.375 -3.875,-6.9375 -12.8125,-8.5625 -2.875,-0.375 -3,-29.25 -0.625,-14.625 z"
         id="path55" />
    </g>
  </g>
</svg>
