<?xml version="1.0" encoding="UTF-8" standalone="no"?>
<!-- Created with Inkscape (http://www.inkscape.org/) -->

<svg
   version="1.1"
   id="svg2"
   width="286.82309"
   height="167.85988"
   viewBox="0 0 286.82309 167.85988"
   xmlns="http://www.w3.org/2000/svg"
   xmlns:svg="http://www.w3.org/2000/svg">
  <defs
     id="defs6">
    <linearGradient
       id="swatch77">
      <stop
         style="stop-color:#e2c69e;stop-opacity:1;"
         offset="0"
         id="stop77" />
    </linearGradient>
  </defs>
  <g
     id="layer66"
     style="display:inline"
     transform="translate(-337.4196,-603.46969)">
    <g
       id="layer29"
       style="display:inline">
      <path
         style="display:inline;fill:#969696;fill-opacity:1;stroke:none;stroke-opacity:1"
         d="m 341.625,617 c 0.16667,-0.0833 0.32322,-0.19107 0.5,-0.25 0.0791,-0.0263 0.17854,0.0429 0.25,0 0.68484,-0.4109 1.20417,-1.32917 1.75,-1.875 0.2469,-0.2469 0.6281,-0.50309 0.875,-0.75 0.20833,-0.20833 0.44095,-0.39493 0.625,-0.625 0.026,-0.0325 -0.0295,-0.0955 0,-0.125 0.0932,-0.0932 0.28183,-0.0318 0.375,-0.125 0.0659,-0.0659 0.0505,-0.1941 0.125,-0.25 0.10541,-0.0791 0.26537,-0.0519 0.375,-0.125 0.14709,-0.0981 0.22791,-0.27694 0.375,-0.375 0.10963,-0.0731 0.2606,-0.0596 0.375,-0.125 0.26088,-0.14907 0.5,-0.33333 0.75,-0.5 0.375,-0.25 -0.25,0 0.375,-0.375 0.11299,-0.0678 0.25715,-0.0661 0.375,-0.125 0.10541,-0.0527 0.14459,-0.19729 0.25,-0.25 0.30007,-0.15003 0.79711,-0.41803 1.125,-0.5 0.20211,-0.0505 0.42071,0.0409 0.625,0 0.21037,-0.0421 0.41463,-0.20793 0.625,-0.25 0.68135,-0.13627 1.7341,0 2.375,0 h 4.125 c 0.61918,0 1.38809,0.12238 2,0 0.28641,-0.0573 0.57138,-0.18927 0.875,-0.25 0.55556,-0.11111 -0.83333,0.33333 0.5,0 0.0572,-0.0143 0.0691,-0.10636 0.125,-0.125 0.23116,-0.077 0.98553,-0.0872 1.25,-0.125 0.76005,-0.10858 1.49102,-0.38323 2.25,-0.5 0.37292,-0.0574 0.76221,-0.0213 1.125,-0.125 0.23361,-0.0667 0.39751,-0.28969 0.625,-0.375 0.26667,-0.1 0.3,0.0333 0.5,0 0.67278,-0.11213 1.34242,-0.11848 2,-0.25 0.29253,-0.0585 1.21145,-0.35572 1.5,-0.5 0.0527,-0.0263 0.0678,-0.11071 0.125,-0.125 0.12127,-0.0303 0.25243,0.0245 0.375,0 0.4433,-0.0887 1.1065,-0.2639 1.5,-0.5 0.22878,-0.13726 0.38637,-0.38068 0.625,-0.5 0.15366,-0.0768 0.34049,-0.0612 0.5,-0.125 0.30215,-0.12086 0.45893,-0.47946 0.75,-0.625 0.1118,-0.0559 0.2632,0.0559 0.375,0 0.0833,-0.0417 0.0591,-0.18412 0.125,-0.25 0.0564,-0.0564 2.224,-1.61633 2.25,-1.625 0.0791,-0.0263 0.16916,0.0202 0.25,0 0.10573,-0.0264 1.55583,-0.59041 1.625,-0.625 0.0373,-0.0186 0,-0.0833 0,-0.125 0.16667,-0.0417 0.32993,-0.1007 0.5,-0.125 0.47751,-0.0682 1.01309,0 1.5,0 l 3.8125,0.25 c 1.32976,0.84883 5.56149,-0.2505 6.5625,0.25 0.0717,0.0358 0.81708,1.56708 1,1.75 0.0589,0.0589 0.19108,-0.0589 0.25,0 0.39345,0.39345 0.57484,0.82484 1,1.25 0.0589,0.0589 0.19108,-0.0589 0.25,0 0.30463,0.30463 0.44537,0.94537 0.75,1.25 0.22179,0.22179 0.93653,0.29102 1.25,0.5 0.27579,0.18386 0.45466,0.60233 0.75,0.75 0.24884,0.12442 0.7234,-0.0553 1,0 0.69725,0.13945 1.31531,0.36306 2,0.5 0.32686,0.0654 0.70186,-0.14907 1,0 0.0745,0.0373 0,0.16667 0,0.25 0.16667,0.0833 0.32322,0.19108 0.5,0.25 0.43943,0.14648 1.4466,0.0983 1.75,0.25 0.85759,0.42879 1.56097,0.43699 2.5,0.75 0.87456,0.29152 1.63656,0.92621 2.5,1.25 0.66667,0.25 1.49654,0.24654 2,0.75 0.0589,0.0589 -0.0589,0.19108 0,0.25 0.17678,0.17678 0.51283,-0.0791 0.75,0 0.25896,0.0863 0.50198,0.37599 0.75,0.5 0.22361,0.1118 0.50486,-0.049 0.75,0 0.49705,0.0994 1.00824,0.12706 1.5,0.25 0.11433,0.0286 0.16667,0.16667 0.25,0.25 0.16667,0.0833 0.31728,0.21346 0.5,0.25 0.91875,0.18375 2.11285,-0.29572 3,0 0.1118,0.0373 0.1382,0.21273 0.25,0.25 0.59757,0.19919 1.38839,-0.1529 2,0 0.51131,0.12783 0.98013,0.41336 1.5,0.5 0.64532,0.10755 1.35886,-0.12823 2,0 0.5632,0.11264 1.1868,0.38736 1.75,0.5 0.40663,0.0813 0.84089,-0.10228 1.25,0 0.11433,0.0286 0.1382,0.21273 0.25,0.25 0.54443,0.18148 2.09116,0.0456 2.5,0.25 0.0105,0.005 0.34862,0.64908 0.5,0.75 1.08029,0.72019 1.33409,1.39014 2,2.5 0.21437,0.35729 0.56366,0.62732 0.75,1 0.11785,0.2357 0.11442,0.52403 0.25,0.75 -0.6169,0.75687 0.68002,0.43002 0.75,0.5 0.0939,0.0939 0.64408,1.14408 0.75,1.25 0.0589,0.0589 0.21273,-0.0745 0.25,0 0.0556,0.11126 0.23797,1.23797 0.25,1.25 0.13176,0.13176 0.36824,0.11824 0.5,0.25 0.0589,0.0589 -0.0373,0.17547 0,0.25 0.75353,1.50706 3.25774,2.45155 4.75,2.75 0.78659,0.15732 2.00079,-0.29968 2.75,0 0.27897,0.11159 0.48126,0.36563 0.75,0.5 0.12318,0.0616 5.42759,0.21418 5.75,0.25 0.26191,0.0291 0.49435,0.18609 0.75,0.25 0.66109,0.16527 1.55996,0 2.25,0 h 5 c 0.75815,0 1.78749,0.17813 2.5,0 0.44658,-0.11164 0.60228,-0.40057 1,-0.5 0.33333,-0.0833 0.75704,-0.007 1,-0.25 0.0589,-0.0589 -0.0462,-0.18066 0,-0.25 0.32715,-0.49072 1.25,-0.70756 1.34199,-0.98447 -0.13673,2.43004 0.34667,4.53426 0.64441,6.61844 0.10417,0.72917 -0.20235,1.50148 0,2.20971 0.14749,0.51621 0.65887,0.87175 0.82864,1.38107 0.11049,0.33145 -0.11048,0.77339 0,1.10485 0.18545,0.55633 0.71397,1.08394 0.82864,1.65728 0.20674,1.03368 -0.38978,5.29714 0,6.0767 0.0921,0.18414 0.13064,0.40685 0.27622,0.55243 0.0651,0.0651 0.23503,-0.0823 0.27621,0 0.43759,0.87519 -0.5716,0.25704 0.27621,1.10485 0.0651,0.0651 0.21111,-0.0651 0.27622,0 0.34283,0.34284 0.0715,0.90013 0.27621,1.10486 0.022,0.022 4.51982,0.49592 4.97184,0.55242 0.44523,0.0557 1.44128,-0.16407 1.9335,0 0.821,0.27367 1.60099,0.37545 2.48592,0.55243 0.3056,0.0611 0.82992,-0.13747 1.10486,0 1.18088,0.59044 2.52509,0.63694 3.86699,0.82864 2.76216,0.3946 -0.1867,0.0358 1.10485,0.55243 0.89363,0.35745 1.67721,0.007 2.48592,0.27621 0.51199,0.17067 1.06322,0.68013 1.65728,0.82864 0.72203,0.18051 1.74278,0 2.48593,0 2.0011,0 3.84395,-0.003 5.80048,0.27622 0.45514,0.065 1.19134,-0.11649 1.65728,0 0.4816,0.1204 0.89947,0.43202 1.38107,0.55242 0.17865,0.0447 0.38773,-0.0824 0.55243,0 0.0824,0.0412 -0.0766,0.22515 0,0.27622 0.20716,0.13811 2.00403,0.89917 2.20971,1.10485 0.28368,0.28369 0.45956,1.28821 0.82864,1.65728 0.13021,0.13021 0.38772,-0.0824 0.55243,0 0.82679,0.4134 1.93533,0.69146 2.76213,1.10486 0.59366,0.29683 1.57296,-0.21225 2.20971,0 0.12353,0.0412 0.18414,0.18414 0.27621,0.27621 0.18415,0.0921 0.35712,0.21111 0.55243,0.27622 0.17469,0.0582 0.42222,-0.13021 0.55243,0 0.0651,0.0651 -0.0651,0.21111 0,0.27621 0.19698,0.19698 1.37956,0.20678 1.65728,0.27621 1.15561,-0.50018 0.3195,0.43597 0.55243,0.55243 0.1647,0.0824 0.38772,-0.0824 0.55242,0 0.0823,0.0412 -0.0651,0.21111 0,0.27621 0.26301,0.26301 1.27036,-0.12897 1.65729,0 0.54635,0.18212 0.61268,0.42437 1.38106,0.55243 0.27246,0.0454 0.56068,-0.067 0.82864,0 0.32206,0.0805 0.50659,0.47191 0.82864,0.55243 0.66135,0.16534 1.27292,0.22213 1.9335,0.55243 0.27402,0.13701 0.54253,0.45705 0.82864,0.55242 0.34939,0.11646 0.75547,-0.11646 1.10485,0 1.5789,0.5263 -1.66979,0.0527 0.82865,0.55243 0.17335,0.0347 1.91036,0.26465 1.93349,0.27621 0.90053,0.45027 1.86161,0.65459 2.76214,1.10486 0.38401,0.19201 0.90449,0.0379 1.38106,0.27621 0.35368,0.17684 0.73657,0.42967 1.10486,0.55243 0.82864,0.27621 1.93349,-0.27622 2.76213,0 0.26204,0.0873 -0.15321,0.59882 0,0.82864 0.16968,0.25452 0.94475,0.39232 1.10486,0.55243 0.0651,0.0651 -0.0651,0.21111 0,0.27621 0.13021,0.13021 0.42222,-0.13021 0.55243,0 0.0651,0.0651 -0.0412,0.19386 0,0.27621 0.16572,0.33146 0.66291,0.49719 0.82864,0.82864 0.0824,0.16471 -0.13021,0.42222 0,0.55243 0.13021,0.13021 0.37773,-0.0582 0.55242,0 0.27182,0.0906 2.11091,1.73589 2.20971,1.9335 0.11049,0.22097 -0.11048,0.60767 0,0.82864 0.0824,0.1647 0.42222,-0.13021 0.55243,0 0.20959,0.20959 0.26305,1.09169 0.55243,1.38107 0.0651,0.0651 0.21111,-0.0651 0.27621,0 0.29116,0.29115 0.32403,0.76225 0.55243,1.10485 0.2261,0.33915 0.7184,1.27083 0.82864,1.38107 0.14558,0.14557 0.40685,0.13063 0.55243,0.27621 0.11151,0.11151 1.00539,2.18755 1.10485,2.48592 0.0582,0.1747 -0.0582,0.37774 0,0.55243 0.0824,0.24705 0.40797,0.33575 0.55243,0.55243 0.2499,0.37484 0.38296,0.76592 0.55242,1.10485 0.30176,0.60351 1.08595,1.06704 1.38107,1.65728 0.58351,1.16702 1.301,1.49714 1.9335,2.76214 0.0824,0.1647 -0.1647,0.47008 0,0.55243 0.1647,0.0824 0.37773,-0.0582 0.55242,0 0.31729,0.10576 0.38323,0.65944 0.55243,0.82864 0.0651,0.0651 0.21111,-0.0651 0.27622,0 0.1302,0.13021 -0.13021,0.42222 0,0.55242 0.37941,0.37942 0.97026,0.69405 1.38106,1.10486 0.23474,0.23474 0.28686,0.62946 0.55243,0.82864 0.46169,0.34627 1.21496,0.38632 1.65728,0.82864 0.13021,0.13021 -0.1647,0.47008 0,0.55243 0.1647,0.0823 0.36829,0 0.55243,0 0.18414,0.18414 0.33575,0.40797 0.55243,0.55242 0.0766,0.0511 0.23503,-0.0824 0.27621,0 0.2635,0.52701 -0.31653,0.53227 0.27621,0.82865 0.0824,0.0412 0.21111,-0.0651 0.27622,0 0.13021,0.1302 -0.13021,0.42221 0,0.55242 0.14028,0.14028 1.26129,0.70886 1.38107,0.82864 0.14557,0.14558 0.16201,0.38113 0.27621,0.55243 0.47731,0.71597 1.51788,1.47228 2.20971,1.9335 0.0766,0.0511 0.21111,-0.0651 0.27621,0 0.0651,0.0651 -0.0651,0.21111 0,0.27621 0.0651,0.0651 0.18414,0 0.27621,0 0.0921,0.18414 0.13064,0.40685 0.27622,0.55243 0.0651,0.0651 0.19386,-0.0412 0.27621,0 0.66669,0.33334 0.23416,0.37828 1.10486,0.55242 3.67247,0.7345 -9.4e-4,-0.13857 1.38106,0.55243 0.98304,0.49152 3.71379,-0.49092 4.69564,0 0.91477,0.45739 1.62847,1.22856 2.48592,1.65728 0.23292,0.11646 0.3195,0.43597 0.55242,0.55243 0.16471,0.0823 0.47008,-0.1647 0.55243,0 0.17968,0.35935 -0.25726,0.65082 0.27622,0.82864 0.17469,0.0582 0.38772,-0.0824 0.55242,0 0.0824,0.0412 -0.0651,0.21111 0,0.27621 0.44103,0.44103 1.39532,0.83577 1.9335,1.10486 0.22097,0.11048 0.60767,-0.11049 0.82864,0 0.23292,0.11646 0.30537,0.47007 0.55243,0.55243 0.26203,0.0873 0.58158,-0.12353 0.82864,0 0.67762,0.3388 1.25587,1.04225 1.93349,1.38106 0.1647,0.0824 0.38773,-0.0824 0.55243,0 0.23292,0.11647 0.33575,0.40798 0.55243,0.55243 0.60471,0.40314 1.06134,0.98377 1.65728,1.38107 0.0766,0.0511 0.21111,-0.0651 0.27621,0 0.67087,0.67087 -0.0821,0.4056 0.55243,0.82864 0.17827,0.11884 0.98523,0.4328 1.10485,0.55243 0.12456,0.12456 0.55791,1.10759 1.10486,1.38106 0.0823,0.0412 0.21111,-0.0651 0.27621,0 0.15829,0.1583 0.80227,1.90713 0.82864,1.9335 0.0651,0.0651 0.19386,-0.0412 0.27621,0 0.42305,0.21152 0.21601,0.49222 0.55243,0.82864 0.0651,0.0651 0.22514,-0.0766 0.27622,0 0.1615,0.24226 0.11471,0.58639 0.27621,0.82864 0.0511,0.0766 0.21111,-0.0651 0.27621,0 0.11209,0.11209 0.66321,1.13292 0.82864,1.38107 0.1142,0.1713 0.13064,0.40685 0.27622,0.55243 0.11962,0.11962 0.92658,0.43358 1.10485,0.55242 0.32502,0.21668 0.50362,0.61196 0.82864,0.82864 0.25461,0.16975 0.80423,-0.1002 1.10486,0 0.31493,0.10498 0.50658,0.47192 0.82864,0.55243 1.33847,0.33462 3.28857,0 4.69563,0 1.4024,0 8.17248,0.31419 9.11505,0 0.12352,-0.0412 0.15975,-0.21798 0.27621,-0.27621 0.73657,-0.36829 2.02557,0.36828 2.76214,0 1.26412,-0.63206 -1.17209,0.11448 0.82864,-0.55243 0.43643,-0.14548 0.91029,-0.11929 1.38106,-0.27621 0.31958,-0.10653 0.80805,0.1484 1.10486,0 2.34004,-1.17002 5.66293,-1.07713 8.28641,-0.55243 1.49348,0.2987 3.22023,-0.36885 4.69563,0 0.12632,0.0316 0.15975,0.21798 0.27621,0.27621 0.16759,0.0838 1.6512,0.27622 1.9335,0.27622 0.48968,0 1.38106,0.0682 1.65727,0.1381 -0.4301,0.698 0.10135,2.04379 -0.27621,3.17646 -0.13493,0.40481 -0.66782,0.62239 -0.82864,1.10485 -0.4719,1.4157 -1.01095,2.36073 -1.93349,3.59078 -0.3867,0.5156 -0.99437,0.86547 -1.38107,1.38107 -0.47827,0.63769 -1.10705,1.65948 -1.65728,2.20971 -0.0431,0.0431 -0.78557,0.50935 -0.82864,0.55242 -0.28938,0.28938 -0.34284,1.17148 -0.55243,1.38107 -0.36828,0.36829 -0.26504,-0.58593 -0.55243,0.27622 -0.12921,0.38765 0.18188,1.01731 0,1.38106 -0.78493,1.56987 0.2564,5.5639 -0.27621,6.62913 -0.11646,0.23292 -0.43596,0.3195 -0.55243,0.55243 -0.13247,0.26495 0.0616,0.7971 0,1.10485 -0.24092,1.20463 -0.80304,2.38352 -1.10485,3.59078 -0.19505,0.7802 -0.16453,5.03069 0,5.52427 0.26265,0.78796 0.29901,1.72567 0.55243,2.48592 0.15368,0.46105 0.99551,0.94369 1.10485,1.38107 0.067,0.26797 -0.0542,0.55779 0,0.82864 0.18059,0.90295 1.1115,1.6772 1.38107,2.48592 0.0582,0.1747 -0.0824,0.38773 0,0.55243 0.11646,0.23292 0.39618,0.34409 0.55243,0.55243 0.17469,0.23292 0.0703,0.62276 0.27621,0.82864 0.13021,0.13021 0.47008,-0.1647 0.55243,0 0.25046,0.50092 0.0682,1.13729 0.27621,1.65728 0.098,0.24503 0.55243,1.36599 0.27621,1.24296 -1.19692,-0.13811 0,-0.23018 -0.55242,0.13811 -0.24226,0.1615 -0.59572,0.10152 -0.82864,0.27621 -0.16471,0.12353 -0.13064,0.40685 -0.27622,0.55243 -0.0651,0.0651 -0.18411,0 -0.27621,0 -0.18414,0.18414 -0.36829,0.36828 -0.55243,0.55243 -0.12353,0.1647 -0.18411,0.36828 -0.27621,0.55242 0,0.0921 0.0412,0.19382 0,0.27622 -0.19496,0.38991 -0.54374,0.40997 -0.82864,0.55242 -0.36995,0.18498 -0.38273,0.65895 -0.55243,0.82864 -1.03622,1.03622 -0.50922,0.17476 -1.38107,0.82865 -0.20833,0.15625 -0.31063,0.45572 -0.55243,0.55242 -0.25645,0.10259 -0.5666,-0.0873 -0.82864,0 -0.0873,0.0291 0.0651,0.21112 0,0.27622 -0.26843,0.26821 -0.75238,0.13522 -1.10485,0.27621 -0.30822,0.12329 -0.51371,0.44745 -0.82864,0.55243 -0.58821,0.19611 -1.35161,0.0822 -1.9335,0.27621 -1.06946,0.35649 -2.47676,0.82253 -3.31456,1.38107 -1.60151,1.06767 -0.20454,0.13286 -0.55243,0.82864 -0.15529,0.31059 -0.71957,0.50145 -0.82864,0.82864 -0.0582,0.17469 0.0824,0.38773 0,0.55243 -0.0412,0.0824 -0.19381,-0.0412 -0.27621,0 -0.56924,0.28461 -0.57606,1.11667 -1.10486,1.38107 -0.86968,0.43484 -1.86287,1.20765 -2.76213,1.65728 -0.63553,0.31776 -2.36486,0 -3.03835,0 -3.90164,0 -7.69867,-0.27822 -11.54573,-0.2707 -0.0502,-0.0531 -0.68946,-0.47214 -1.00542,-0.5248 -0.0872,-0.0145 -0.1831,0.0328 -0.26517,0 -0.0774,-0.0309 -0.10531,-0.13391 -0.17677,-0.17678 -0.35132,-0.21079 -0.79318,-0.32697 -1.14905,-0.53033 -0.1279,-0.0731 -0.22863,-0.18709 -0.35355,-0.26517 -0.41244,-0.25777 -0.90509,-0.36627 -1.32583,-0.61871 -0.0357,-0.0214 -0.0589,-0.0589 -0.0884,-0.0884 -0.0884,-0.0884 -0.15663,-0.20315 -0.26516,-0.26517 -0.10547,-0.0603 -0.24077,-0.0433 -0.35356,-0.0884 -0.1835,-0.0734 -0.34527,-0.19576 -0.53033,-0.26516 -0.0552,-0.0207 -0.12407,0.0263 -0.17677,0 -0.13176,-0.0659 -0.22565,-0.19208 -0.35356,-0.26517 -0.0809,-0.0462 -0.18183,-0.0467 -0.26516,-0.0884 -0.39042,-0.19521 -0.77982,-0.46096 -1.14905,-0.70711 -0.17678,-0.11785 -0.35355,-0.11785 -0.53033,-0.26517 -0.0816,-0.068 -0.0952,-0.19715 -0.17678,-0.26516 -0.21352,-0.17794 -0.49006,-0.26831 -0.7071,-0.44194 -0.70612,-0.56489 -1.04819,-1.54566 -1.76777,-2.12132 -0.22162,-0.1773 -0.55969,-0.23565 -0.7955,-0.35356 -0.55447,-0.27723 -1.10569,-0.54963 -1.67937,-0.79549 -0.17128,-0.0734 -0.34653,-0.14614 -0.53033,-0.17678 -0.0872,-0.0145 -0.1831,0.0328 -0.26517,0 -0.0774,-0.0309 -0.10532,-0.1339 -0.17678,-0.17677 -0.23913,-0.14349 -0.46459,-0.0313 -0.7071,-0.17678 -0.0565,-0.0339 -0.0418,-0.13019 -0.0884,-0.17678 -0.16796,-0.16796 -0.43837,-0.19897 -0.61872,-0.35355 -0.0806,-0.0691 -0.11041,-0.18222 -0.17678,-0.26517 -0.0971,-0.12136 -0.26589,-0.22206 -0.35355,-0.35355 l -0.53033,-0.7955 c -0.14533,-0.21799 -0.15195,-0.48068 -0.26516,-0.7071 -0.2289,-0.45779 -0.95251,-1.37158 -1.41422,-1.67938 -0.1546,-0.10307 -0.78949,-0.48677 -0.88388,-0.53033 -0.37044,-0.17097 -0.80513,-0.2012 -1.14905,-0.44194 -0.17067,-0.11947 -0.27241,-0.32085 -0.44194,-0.44194 -0.048,-0.0342 -0.12407,0.0264 -0.17678,0 -0.30352,-0.15177 -0.57604,-0.37641 -0.88388,-0.53033 -0.24439,-0.1222 -0.55831,-0.14657 -0.7955,-0.26517 -0.0745,-0.0373 -0.10532,-0.1339 -0.17677,-0.17678 -0.37793,-0.22675 -0.90649,-0.30216 -1.32583,-0.44194 -0.2346,-0.0782 -0.39227,-0.27807 -0.61872,-0.35355 -0.10721,-0.0357 -0.41449,-0.16991 -0.44194,-0.17678 -0.19766,-0.0494 -0.42209,-0.0322 -0.61872,-0.0884 -0.30511,-0.0872 -0.57877,-0.26637 -0.88388,-0.35355 -0.14165,-0.0405 -0.29903,0.0357 -0.44194,0 -0.29201,-0.073 -0.7725,-0.23829 -1.06066,-0.35355 -0.0387,-0.0155 -0.048,-0.0783 -0.0884,-0.0884 -0.0857,-0.0214 -0.17798,0.0145 -0.26517,0 -0.47329,-0.0789 -0.93101,-0.19614 -1.41421,-0.26517 -0.0583,-0.008 -0.11785,0 -0.17678,0 -0.32409,-0.0295 -0.65063,-0.0389 -0.97227,-0.0884 -0.0651,-0.01 -0.11286,-0.0724 -0.17677,-0.0884 -1.02571,-0.25643 -0.10181,0.009 -0.88389,-0.0884 -0.35735,-0.0447 -0.70907,-0.12655 -1.06066,-0.17678 -0.25859,-0.0369 -0.53777,0.043 -0.79549,0 -0.23965,-0.0399 -0.4666,-0.14242 -0.70711,-0.17677 -0.28821,-0.0412 -0.59419,0.0263 -0.88388,0 -0.83401,-0.0758 -1.63865,-0.0884 -2.47488,-0.0884 -0.45634,0 -0.96749,-0.0745 -1.41421,0 -0.64506,0.10751 -1.23158,0.37418 -1.85616,0.53033 -0.0858,0.0214 -0.18017,-0.0243 -0.26516,0 -0.12669,0.0362 -0.22855,0.13511 -0.35355,0.17677 -0.38087,0.12696 -0.68382,0.0256 -1.06067,0.0884 -0.40629,0.0677 -0.75333,0.18602 -1.14904,0.26517 -0.54519,0.10903 -1.20937,0 -1.76777,0 -0.99093,0 -1.95585,0.073 -2.91682,0.26516 -0.21027,0.0421 -0.43337,0.20339 -0.61871,0.26517 -0.0839,0.028 -0.20267,-0.0625 -0.26517,0 -0.0466,0.0466 -0.0319,0.14288 -0.0884,0.17677 -0.20519,0.12312 -0.5695,0.15217 -0.79549,0.26517 -0.23281,0.1164 -0.4427,0.35381 -0.70711,0.44194 -0.15428,0.19229 -0.35647,0.0449 -0.53033,0.0884 -0.17159,0.0429 -0.28352,0.2018 -0.44194,0.26516 -0.0631,0.0253 -0.18941,-0.0126 -0.26517,0 -0.42836,0.0714 -1.06603,0.19754 -1.5026,0.0884 -0.23624,-0.0591 -0.47453,-0.18764 -0.70711,-0.26516 -0.15109,-0.20418 -0.35801,-0.0392 -0.53033,-0.0884 -0.13188,-0.0377 -0.52428,-0.2286 -0.7071,-0.26517 -0.62112,-0.12422 0.54599,0.27039 -0.53033,-0.0884 -0.35912,-0.11971 0.006,-0.0493 -0.35356,-0.26517 -0.0799,-0.0479 -0.18183,-0.0467 -0.26516,-0.0884 -0.30531,-0.15265 -0.59168,-0.355 -0.88388,-0.53033 -0.2259,-0.13553 -0.48448,-0.18658 -0.70711,-0.35355 -0.23718,-0.17788 -0.44304,-0.37944 -0.70711,-0.53033 -0.16175,-0.0924 -0.47515,-0.20999 -0.61872,-0.35355 -0.3217,-0.3217 0.094,-0.0621 -0.17677,-0.26517 -0.50327,-0.37745 -1.10801,-0.71833 -1.67938,-0.97227 -0.0539,-0.0239 -0.12207,0.0219 -0.17678,0 -0.37042,-0.14817 -0.6836,-0.4737 -1.06066,-0.61872 -0.16727,-0.0643 -0.36031,-0.0317 -0.53033,-0.0884 -0.3606,-0.1803 -0.597,-0.31685 -0.97227,-0.44194 -0.46061,-0.15354 -0.95819,-0.20155 -1.41421,-0.35355 -0.74006,-0.24669 -1.24164,-0.77655 -1.85616,-1.23744 -0.0527,-0.0395 -0.13019,-0.0418 -0.17678,-0.0884 -0.50229,0.0513 -0.091,-0.25351 -0.17677,-0.35355 -0.1627,-0.18982 -0.36424,-0.34348 -0.53033,-0.53033 -0.21679,-0.24389 -0.40856,-0.54331 -0.61872,-0.7955 -0.13798,-0.16557 -0.24402,-0.47268 -0.35355,-0.61872 -0.2749,-0.36652 -0.39608,-0.4386 -0.61872,-0.88388 -0.0844,-0.16874 -0.26919,-0.2732 -0.35356,-0.44194 -0.0543,-0.10865 -0.0341,-0.2449 -0.0884,-0.35355 -0.16084,-0.32168 -0.3819,-0.61323 -0.61872,-0.88389 -0.07,-0.0799 -0.19005,-0.10166 -0.26517,-0.17677 -0.0466,-0.0466 -0.0589,-0.11786 -0.0884,-0.17678 -0.0589,-0.0884 -0.10166,-0.19005 -0.17677,-0.26517 -0.0208,-0.0208 -0.062,0.0132 -0.0884,0 -0.15366,-0.0768 -0.299,-0.16987 -0.44194,-0.26516 -0.23797,-0.15865 -0.38075,-0.46007 -0.61872,-0.61872 -0.10108,-0.0674 -0.25248,-0.021 -0.35356,-0.0884 -0.19575,-0.1305 -0.42711,-0.29824 -0.61871,-0.44194 -0.34665,-0.25998 -0.60444,-0.63866 -0.97228,-0.88388 -0.33739,-0.22494 -0.81546,-0.48472 -1.14904,-0.70711 -0.49328,-0.32885 0.20026,-0.0325 -0.44195,-0.35355 -0.0263,-0.0132 -0.0589,0 -0.0884,0 -0.0884,-0.0589 -0.18019,-0.11304 -0.26517,-0.17678 -0.27244,-0.20433 -0.49042,-0.44439 -0.79549,-0.61872 -0.59815,-0.34179 -1.28345,-0.59047 -1.85616,-0.97227 -0.0693,-0.0462 -0.10532,-0.1339 -0.17678,-0.17678 -0.0799,-0.0479 -0.18764,-0.0367 -0.26516,-0.0884 -0.0245,-0.0163 0.0245,-0.072 0,-0.0884 -0.9594,-0.6396 0.23172,0.24844 -0.44194,-0.0884 -0.11181,-0.0559 -0.14658,-0.22564 -0.26517,-0.26517 -0.15206,-0.0507 -0.38828,0.071 -0.53033,0 -0.0589,-0.0295 -0.0357,-0.13725 -0.0884,-0.17677 -0.0606,-0.0455 -0.78702,-0.40966 -0.88388,-0.44195 -0.028,-0.009 -0.0589,0 -0.0884,0 -0.11785,-0.0295 -0.2449,-0.0341 -0.35355,-0.0884 -0.31385,-0.15693 -0.52543,-0.44072 -0.88388,-0.53033 -0.11434,-0.0286 -0.24414,0.0438 -0.35356,0 -0.0612,-0.0245 -0.0418,-0.1302 -0.0884,-0.17678 -0.0535,-0.0535 -1.28292,-0.60646 -1.32582,-0.61872 -0.5059,-0.14454 -1.06935,-0.26661 -1.59099,-0.35355 -0.0291,-0.005 -0.0589,0 -0.0884,0 -0.14731,0 -0.29749,0.0289 -0.44194,0 -0.30163,-0.0603 -0.58547,-0.19056 -0.88389,-0.26517 -0.30587,-0.0765 -0.65905,-0.0436 -0.97227,-0.0884 -0.24051,-0.0344 -0.46602,-0.14664 -0.7071,-0.17677 -0.11695,-0.0146 -0.23851,0.0256 -0.35356,0 -0.38903,-0.15561 -0.41488,-0.18905 -0.79549,-0.26517 -0.29221,-0.0584 -0.59178,-0.0397 -0.88389,-0.0884 -0.17983,0.0307 -0.28636,-0.14566 -0.44194,-0.17677 -0.24143,-0.0483 -0.5619,0.0779 -0.79549,0 -0.84417,-0.28139 0.12642,-0.0985 -0.70711,-0.26517 -0.29929,-0.0599 -0.684,0.0961 -0.97227,0 -0.0395,-0.0132 -0.0511,-0.0697 -0.0884,-0.0884 -0.088,-0.044 -0.25576,0.0196 -0.35355,0 -0.11785,-0.0295 -0.23571,-0.0589 -0.35356,-0.0884 0,-0.0295 0.0208,-0.0676 0,-0.0884 -0.0706,-0.0707 -0.49878,0 -0.61872,0 -0.29334,-0.77824 -0.96883,-1.27643 -1.41406,-1.94428 -0.0163,-0.0245 0.0177,-0.0648 0,-0.0884 -0.82131,-1.09509 0.1152,0.20359 -0.44194,-0.35356 -0.0208,-0.0208 0.0263,-0.0752 0,-0.0884 -0.36302,-0.18151 -0.77639,-0.21022 -1.14905,-0.35355 -0.27083,-0.10417 -0.52161,-0.25769 -0.79549,-0.35355 -0.31707,-0.11098 -0.65774,-0.14722 -0.97228,-0.26517 -0.16085,-0.0603 -0.28828,-0.18833 -0.44194,-0.26516 -0.45662,-0.22831 -0.80373,-0.27341 -1.14905,-0.61872 -0.0208,-0.0208 0.0184,-0.0654 0,-0.0884 -0.23942,-0.29928 -0.49629,-0.56767 -0.7071,-0.88388 -0.20032,-0.30047 -0.0118,-0.0474 -0.0884,-0.35356 -0.016,-0.0639 -0.0589,-0.11785 -0.0884,-0.17677 -0.0295,-0.0884 -0.0701,-0.17381 -0.0884,-0.26517 -0.0511,-0.25528 0.0429,-0.53841 0,-0.79549 -0.0997,-0.59841 -0.52375,-1.14083 -0.88388,-1.59099 -0.19908,-0.24886 -0.30498,-0.57015 -0.53033,-0.7955 -0.39273,-0.39272 -0.88961,-0.73349 -1.32583,-1.06066 -0.26666,-0.2 -0.44399,-0.50246 -0.7071,-0.70711 -0.0736,-0.0572 -0.18765,-0.0367 -0.26517,-0.0884 -0.10401,-0.0693 -0.15336,-0.20927 -0.26516,-0.26517 -0.0791,-0.0395 -0.19163,0.049 -0.26517,0 -0.12257,-0.0817 -0.15199,-0.25925 -0.26516,-0.35355 -0.0716,-0.0597 -0.18765,-0.0367 -0.26517,-0.0884 -0.27166,-0.18111 -0.44133,-0.51727 -0.70711,-0.70711 -0.10721,-0.0766 -0.25233,-0.0924 -0.35355,-0.17677 -0.41645,-0.34705 -0.7383,-0.79698 -1.14905,-1.14905 -0.34943,-0.29951 -0.69738,-0.60134 -1.06066,-0.88389 -0.052,-0.0404 -0.13019,-0.0418 -0.17677,-0.0884 -0.0466,-0.0466 -0.0418,-0.13019 -0.0884,-0.17677 -0.24115,-0.24115 -0.35194,-0.16351 -0.61872,-0.53033 -0.13971,-0.19211 -0.21103,-0.42869 -0.35355,-0.61872 -0.0395,-0.0527 -0.1302,-0.0418 -0.17678,-0.0884 -0.28918,-0.28918 -0.52217,-0.78733 -0.7955,-1.06066 -0.0208,-0.0208 -0.0675,0.0208 -0.0884,0 -0.0751,-0.0751 -0.11042,-0.18221 -0.17678,-0.26516 -0.17815,-0.22269 -0.42537,-0.33699 -0.61872,-0.53033 -0.25087,-0.25087 -0.43774,-0.56461 -0.70711,-0.7955 -0.15006,-0.12862 -0.3695,-0.15029 -0.53033,-0.26516 -0.10171,-0.0727 -0.25183,-0.36929 -0.35355,-0.44195 -0.49011,-0.35007 -0.24279,0.0224 -0.70711,-0.44194 -0.0466,-0.0466 -0.0418,-0.13019 -0.0884,-0.17677 -0.10416,-0.10417 -0.2357,-0.17678 -0.35355,-0.26517 -0.39718,-0.29788 -0.90502,-0.42657 -1.32582,-0.70711 -0.49328,-0.32884 0.20026,-0.0325 -0.44195,-0.35355 -0.33641,-0.16821 -0.79404,-0.34051 -1.14904,-0.44194 -0.97146,-0.27756 -2.00139,-0.45142 -3.00521,-0.61872 -0.23249,-0.0387 -0.47322,0.0292 -0.7071,0 -0.0654,-0.008 -0.11218,-0.0755 -0.17678,-0.0884 -0.0867,-0.0173 -0.17798,0.0145 -0.26517,0 -0.93079,-0.15513 0.66968,-0.0391 -0.7071,-0.17677 -1.10983,-0.11099 -2.17992,-0.2602 -3.27037,-0.44195 -0.17437,-0.0291 -0.35533,0.025 -0.53033,0 -0.38434,-0.0549 -0.76056,-0.13361 -1.14905,-0.17677 -0.42117,-0.0468 -0.81347,-0.0177 -1.23744,-0.0884 -0.23249,-0.0387 -0.47257,0.0235 -0.7071,0 -0.0927,-0.009 -0.17294,-0.0752 -0.26517,-0.0884 -0.34632,-0.0495 -0.80738,0 -1.14905,0 h -2.56326 c -0.5789,0 -1.08699,0.0752 -1.59099,-0.17678 -0.10541,-0.0527 -0.23799,0.0231 -0.35355,0 -0.23687,-0.0474 -0.75487,-0.17199 -0.97228,-0.26516 -0.26025,-0.11154 -0.4807,-0.19184 -0.7071,-0.35356 -0.15352,-0.10965 -0.27321,-0.26918 -0.44194,-0.35355 -0.28748,-0.14374 -0.21025,-0.0223 -0.44195,-0.17678 -0.1176,-0.0784 -0.18229,-0.27068 -0.26516,-0.35355 -0.0466,-0.0466 -0.12196,-0.0518 -0.17678,-0.0884 -0.2042,-0.13613 -0.4667,-0.42869 -0.61872,-0.61872 -0.0412,-0.0514 -0.0418,-0.13019 -0.0884,-0.17677 -0.29237,-0.29237 -0.45887,-0.27786 -0.7955,-0.53033 -0.58499,-0.43875 0.0468,-0.11215 -0.53033,-0.44194 -0.42074,-0.24043 -0.8759,-0.36161 -1.32582,-0.53033 -0.42426,-0.1591 -0.92763,-0.50801 -1.32583,-0.70711 -0.42573,-0.21287 -0.90009,-0.31746 -1.32583,-0.53033 -0.0264,-0.0132 0.0264,-0.0752 0,-0.0884 -0.10865,-0.0543 -0.24189,-0.0405 -0.35355,-0.0884 -0.30677,-0.13147 -0.58461,-0.38069 -0.88388,-0.53033 -0.16667,-0.0833 -0.37055,-0.0809 -0.53033,-0.17677 -0.0715,-0.0429 -0.10018,-0.14395 -0.17678,-0.17678 -0.13808,-0.0592 -0.29942,-0.0409 -0.44194,-0.0884 -0.35249,-0.1175 -0.79937,-0.30207 -1.14905,-0.44194 -0.47029,-0.18812 -0.93526,-0.45907 -1.41421,-0.61872 -0.38293,-0.12764 -0.83289,-0.37452 -1.23744,-0.44194 -0.0872,-0.0145 -0.18392,0.0348 -0.26516,0 -0.13541,-0.058 -0.22724,-0.18937 -0.35356,-0.26517 -0.12882,-0.0773 -0.30386,-0.0292 -0.44194,-0.0884 -0.0976,-0.0418 -0.16302,-0.1476 -0.26516,-0.17678 -0.32284,-0.0922 -0.75335,0.0281 -1.06066,-0.17678 -0.0693,-0.0462 -0.10532,-0.1339 -0.17678,-0.17677 -0.0756,-0.24038 -0.24077,-0.0433 -0.35355,-0.0884 -0.18351,-0.0734 -0.33538,-0.23268 -0.53034,-0.26517 -0.11624,-0.0194 -0.23688,0.0167 -0.35355,0 -0.27556,-0.0394 -0.34597,-0.21061 -0.61872,-0.26516 -0.35587,-0.0712 -0.80403,-0.0618 -1.14905,-0.17678 -0.25998,-0.0867 -0.53058,-0.19894 -0.79549,-0.26516 -0.0572,-0.0143 -0.12407,0.0264 -0.17678,0 -0.0896,-0.0448 0.10607,-0.0884 -0.17677,-0.0884 0.0228,-0.0683 -0.80244,-1.29851 -1.14896,-1.41402 -0.0559,-0.0186 -0.12964,0.0354 -0.17678,0 -0.085,-0.0637 -0.0884,-0.20624 -0.17678,-0.26516 -0.10107,-0.0674 -0.24076,-0.0433 -0.35355,-0.0884 -0.90149,-0.3606 -0.16278,-0.17211 -0.97227,-0.44194 -0.60252,-0.20084 -1.25461,-0.24143 -1.85616,-0.44194 -0.21335,-0.0711 -0.49042,0.0619 -0.7071,0 -0.33208,0.20693 -0.27896,-0.21084 -0.44194,-0.26517 -0.82671,-0.27557 -0.0561,0.0668 -0.88389,-0.0884 -0.58995,-0.11061 -1.19646,-0.33989 -1.76777,-0.53033 -0.15997,0.0533 -0.16438,-0.14318 -0.26516,-0.17677 -0.0559,-0.0186 -0.11785,0 -0.17678,0 -0.0884,-0.0295 -0.18034,-0.0498 -0.26516,-0.0884 -0.2399,-0.10905 -0.45945,-0.2635 -0.70711,-0.35356 -0.0831,-0.0302 -0.17849,0.0173 -0.26516,0 -0.60727,-0.12145 -1.92553,-0.68808 -2.38649,-1.14904 -0.17921,-0.17922 -0.27356,-0.42929 -0.44194,-0.61872 -0.49144,-0.55287 -0.42862,-0.43406 -0.70711,-1.06066 -0.0698,-0.15699 -0.20136,-0.28244 -0.26516,-0.44194 -0.0451,-0.11279 -0.0341,-0.2449 -0.0884,-0.35356 -0.0659,-0.13176 -0.20714,-0.21815 -0.26517,-0.35355 -0.0348,-0.0812 0.0279,-0.18131 0,-0.26517 -0.1379,-0.41371 -0.54654,-0.74765 -0.7071,-1.14904 -0.0219,-0.0547 0.0186,-0.12088 0,-0.17678 -0.0625,-0.1875 -0.20267,-0.34283 -0.26517,-0.53033 -0.11284,-0.33853 -0.27765,-0.73209 -0.44194,-1.06066 -0.13258,-0.26517 -0.0884,0.17677 -0.26516,-0.26517 -0.0328,-0.0821 0.0395,-0.1861 0,-0.26516 -0.12834,-0.25667 -0.61604,-0.84995 -0.7955,-1.14905 -0.0985,-0.16426 -0.16023,-0.47881 -0.26516,-0.61872 -0.075,-0.1 -0.20927,-0.15336 -0.26517,-0.26516 -0.0395,-0.0791 0.0214,-0.17942 0,-0.26517 -0.0385,-0.15392 -0.11428,-0.29611 -0.17678,-0.44194 -0.23645,-0.55172 0.13306,0.36908 -0.35355,-0.44194 -0.11544,-0.19241 -0.15772,-0.42174 -0.26517,-0.61872 -0.27449,-0.50324 -0.21278,-0.17842 -0.35355,-0.53033 -0.0949,-0.2372 -0.15039,-0.47755 -0.26516,-0.70711 -0.23468,-0.46935 -0.64799,-0.89794 -0.7955,-1.41421 -0.0243,-0.085 0.0243,-0.18018 0,-0.26517 -0.19778,-0.69222 -0.12506,-0.0475 -0.35355,-0.61871 -0.0219,-0.0547 0.0186,-0.12088 0,-0.17678 -0.10942,-0.32825 -0.38407,-0.59137 -0.53033,-0.88388 -0.14426,-0.28851 -0.18961,-0.70996 -0.35356,-0.97228 -0.0563,-0.0901 -0.19004,-0.10166 -0.26516,-0.17677 -0.0208,-0.0208 0.0132,-0.062 0,-0.0884 -0.0475,-0.095 -0.11304,-0.18018 -0.17678,-0.26517 -0.20306,-0.27074 0.0565,0.14493 -0.26516,-0.17677 -0.0284,-0.0284 -0.39942,-0.71046 -0.44194,-0.7955 -0.20971,-0.4194 -0.44412,-0.88931 -0.61872,-1.32582 -0.0451,-0.11279 -0.0405,-0.2419 -0.0884,-0.35356 -0.10793,-0.25184 -0.31848,-0.54857 -0.44194,-0.79549 -0.0941,-0.18811 -0.16132,-0.44564 -0.26517,-0.61872 -0.12929,-0.21548 -0.32331,-0.38146 -0.44194,-0.61872 -0.0417,-0.0833 -0.0422,-0.18427 -0.0884,-0.26516 -0.0731,-0.12791 -0.18709,-0.22864 -0.26516,-0.35356 -0.2502,-0.40031 -0.43488,-0.84854 -0.70711,-1.23743 -0.0717,-0.10241 -0.20085,-0.15798 -0.26516,-0.26517 -0.0303,-0.0505 0.0263,-0.12407 0,-0.17678 -0.0373,-0.0745 -0.13391,-0.10532 -0.17678,-0.17677 -0.0479,-0.0799 -0.0467,-0.18183 -0.0884,-0.26517 -0.0703,-0.14063 -0.2434,-0.21009 -0.35355,-0.26516 -0.13389,-0.067 -0.24617,-0.24617 -0.35356,-0.35356 -0.19103,-0.19103 -0.43365,-0.34526 -0.61871,-0.53033 -0.17492,-0.17491 -0.32161,-0.54665 -0.44195,-0.7071 -0.19799,-0.26399 -0.50911,-0.44312 -0.7071,-0.70711 -0.23896,-0.31861 -0.44714,-0.66031 -0.70711,-0.97227 -0.15713,-0.18856 -0.11785,-0.0236 -0.35355,-0.35356 -0.55502,-0.004 -0.0951,-0.30589 -0.17678,-0.44194 -0.25357,-0.42261 -0.66609,-0.94309 -0.97227,-1.32582 -0.35732,-0.44665 -0.8293,-0.8462 -1.14905,-1.32583 -0.17189,-0.25784 -0.34527,-0.60629 -0.53033,-0.88388 -0.0462,-0.0693 -0.15042,-0.0977 -0.17678,-0.17678 -0.0186,-0.0559 0.0264,-0.12407 0,-0.17677 -0.0559,-0.11181 -0.22563,-0.14658 -0.26516,-0.26517 -0.0602,-0.18061 -0.0573,-0.43956 -0.17678,-0.61872 -0.1323,-0.19846 -0.37991,-0.3423 -0.53033,-0.53033 -0.33843,-0.42304 -0.62239,-0.81758 -0.97227,-1.23743 -0.18329,-0.21995 -0.44669,-0.38935 -0.61872,-0.61872 -0.29894,-0.39859 -0.66929,-0.74508 -0.97227,-1.14905 -0.0971,-0.12943 -0.27085,-0.21572 -0.35355,-0.35356 -0.0479,-0.0799 -0.0325,-0.19062 -0.0884,-0.26516 -0.0395,-0.0527 -0.13019,-0.0418 -0.17678,-0.0884 -0.0466,-0.0466 -0.0455,-0.12675 -0.0884,-0.17678 -0.13558,-0.15817 -0.30353,-0.28623 -0.44194,-0.44194 -0.42547,-0.47865 -0.78322,-1.04839 -1.23744,-1.5026 -0.20725,-0.20725 -0.4945,-0.3002 -0.7071,-0.44194 -0.57725,-0.38483 -1.10206,-0.85255 -1.67938,-1.23744 -0.19764,-0.13176 -0.42108,-0.22179 -0.61872,-0.35355 -0.27189,-0.18126 -0.53567,-0.42385 -0.7955,-0.61872 -0.22035,-0.16527 -0.40023,-0.61872 -0.7071,-0.61872 -0.18612,-0.70685 -0.61118,-1.16599 -0.97221,-1.76771 -0.20009,-0.33347 -0.36517,-0.8327 -0.70711,-1.06066 -0.29163,-0.19442 -0.67775,-0.2456 -0.97227,-0.44195 -0.0693,-0.0462 -0.0977,-0.15042 -0.17678,-0.17677 -0.1118,-0.0373 -0.24024,0.0324 -0.35355,0 -0.26726,-0.0764 -0.45163,-0.33245 -0.70711,-0.44194 -0.0542,-0.0232 -0.12207,0.0219 -0.17678,0 -0.12314,-0.0493 -1.00293,-0.49185 -1.06066,-0.53034 -0.0548,-0.0365 -0.0369,-0.13562 -0.0884,-0.17677 -0.15434,-0.12347 -0.39058,-0.12541 -0.53033,-0.26517 -0.0208,-0.0208 0.0132,-0.062 0,-0.0884 -0.0844,-0.16873 -0.22016,-0.30854 -0.35356,-0.44194 -0.0208,-0.0208 -0.0589,0 -0.0884,0 -0.0589,-0.0589 -0.13055,-0.10744 -0.17677,-0.17677 -0.28291,-0.42436 -0.6071,-1.0002 -0.7955,-1.50261 -0.0426,-0.11374 -0.0259,-0.24938 -0.0884,-0.35355 -0.0339,-0.0565 -0.13019,-0.0418 -0.17677,-0.0884 -0.10417,-0.10416 -0.18938,-0.22723 -0.26517,-0.35355 -0.0479,-0.0799 -0.0325,-0.19063 -0.0884,-0.26517 -0.0395,-0.0527 -0.13725,-0.0357 -0.17677,-0.0884 -0.14253,-0.19003 -0.2218,-0.42108 -0.35356,-0.61872 -0.2237,-0.33556 -1.00158,-1.04791 -1.32582,-1.32583 -0.34668,-0.29715 -0.86553,-0.42817 -1.23744,-0.7071 -0.1,-0.075 -0.15336,-0.20927 -0.26516,-0.26517 -0.13438,-0.0672 -0.31151,-0.0138 -0.44195,-0.0884 -0.0922,-0.0527 -0.10166,-0.19005 -0.17677,-0.26516 -0.12148,-0.12148 -0.28244,-0.20136 -0.44194,-0.26517 -0.33877,-0.1355 -0.71317,-0.002 -1.06066,-0.0884 -0.12783,-0.032 -0.22573,-0.14482 -0.35356,-0.17677 -0.4257,-0.10643 -1.62833,0 -2.12132,0 -0.32378,0 -0.91791,0.10651 -1.23743,0 -0.25602,-0.0853 -0.12008,-0.1308 -0.44195,-0.17678 -0.175,-0.025 -0.35776,0.0384 -0.53033,0 -0.3585,-0.0797 -0.69182,-0.23163 -1.06066,-0.26516 -0.37124,-0.0337 -0.69912,-0.0367 -1.06066,-0.0884 -1.22805,-0.17544 0.1947,0.004 -0.53033,-0.17678 -0.23044,-0.0576 -0.47054,-0.0669 -0.7071,-0.0884 -0.23474,-0.0213 -0.47323,0.0292 -0.70711,0 -0.50798,-0.0635 -0.99925,-0.26966 -1.5026,-0.35355 -0.36287,-0.0605 -0.79705,0.10057 -1.14905,0 -0.21575,-0.0616 -0.39739,-0.22828 -0.61872,-0.26517 -0.60232,-0.10038 -1.26457,0.0204 -1.85615,-0.17677 -0.0395,-0.0132 -0.0589,-0.0589 -0.0884,-0.0884 -0.11785,-0.0589 -0.22686,-0.14058 -0.35356,-0.17678 -0.2936,-0.0839 -0.66954,0.0433 -0.97227,0 -0.0922,-0.0132 -0.17326,-0.0731 -0.26516,-0.0884 -0.0872,-0.0145 -0.1831,0.0328 -0.26517,0 -0.0774,-0.0309 -0.10224,-0.13951 -0.17678,-0.17677 -0.19965,-0.0998 -0.58401,0.0529 -0.79549,0 -0.21252,-0.0531 -0.41207,-0.22384 -0.61872,-0.26517 -0.0867,-0.0173 -0.17849,0.0173 -0.26516,0 -0.24685,-0.0494 -0.4629,-0.20411 -0.70711,-0.26516 -0.0572,-0.0143 -0.12207,0.0219 -0.17678,0 -0.52144,-0.20858 -0.008,-0.16062 -0.53033,-0.26517 -0.59608,-0.11921 -1.39672,-0.43319 -1.94454,-0.70711 -0.47368,-0.23683 -0.90782,-0.65876 -1.32583,-0.97227 -0.20488,-0.15366 -0.19238,-0.0342 -0.44194,-0.17677 -0.22005,-0.12575 -0.40379,-0.30762 -0.61872,-0.44195 -0.14731,-0.0884 -0.29462,-0.17677 -0.44194,-0.26516 -0.0884,-0.0295 -0.18427,-0.0422 -0.26516,-0.0884 -0.22794,-0.13025 -1.17931,-0.84089 -1.32583,-1.06066 -0.28143,-0.42215 -0.57666,-0.82781 -0.88388,-1.23744 -0.20875,-0.0368 -0.0405,-0.18527 -0.0884,-0.26516 -0.0758,-0.12632 -0.17678,-0.2357 -0.26517,-0.35355 -0.0884,-0.17678 -0.1671,-0.35873 -0.26516,-0.53033 -0.11521,-0.20162 -0.40545,-0.23381 -0.53033,-0.44195 -0.0479,-0.0799 -0.0325,-0.19063 -0.0884,-0.26516 -0.0395,-0.0527 -0.13019,-0.0418 -0.17678,-0.0884 -0.0208,-0.0208 0.0152,-0.0631 0,-0.0884 -0.0758,-0.12632 -0.19928,-0.22179 -0.26516,-0.35355 -0.0263,-0.0527 0.0264,-0.12407 0,-0.17678 -0.0132,-0.0263 -0.0676,0.0208 -0.0884,0 -0.37404,0.14064 -0.1266,-0.27828 -0.17678,-0.35355 -0.49689,-0.74534 0.27561,0.81638 -0.44194,-0.61872 -0.0353,-0.0707 0.0354,-0.19445 0,-0.26516 -0.28778,-0.57556 -0.0886,0.17619 -0.26516,-0.35356 -0.25035,-0.75104 0.0138,-0.005 -0.0884,-0.61872 -0.0613,-0.36785 -0.0806,-0.15341 -0.17678,-0.44194 -0.11253,-0.33761 -0.10863,-0.74759 -0.26516,-1.06066 -0.13478,-0.26954 -0.0701,0.16166 -0.17678,-0.26516 -0.0143,-0.0572 0.0219,-0.12207 0,-0.17678 -0.12151,-0.30379 -0.41496,-0.59547 -0.53033,-0.88388 -0.0219,-0.0547 0.0186,-0.12088 0,-0.17678 -0.0336,-0.10078 -0.14318,-0.16439 -0.17678,-0.26517 -0.0702,-0.21052 -0.17147,-0.43133 -0.26516,-0.61871 -0.0405,-0.0809 0.0115,-0.39596 0,-0.44195 -0.0433,-0.17325 -0.25896,-0.38843 -0.35355,-0.53033 -0.093,-0.13949 -0.0506,-0.37935 -0.0884,-0.53033 -0.0204,-0.0817 -0.14988,-0.18445 -0.17678,-0.26516 -0.0585,-0.17546 -0.029,-0.35209 -0.0884,-0.53033 -0.0132,-0.0395 -0.0589,-0.0589 -0.0884,-0.0884 -0.0295,-0.0884 -0.0701,-0.1738 -0.0884,-0.26516 -0.0231,-0.11557 0.0286,-0.23923 0,-0.35356 -0.0382,-0.15265 -0.12691,-0.29232 -0.17678,-0.44194 -0.0441,-0.13228 0.0339,-0.3064 0,-0.44194 -0.0828,-0.33113 -0.17678,-0.6166 -0.11586,-1.19884 1.65991,0.0199 2.88877,-0.57799 4.18591,-1.22656 z"
         id="path24" />
    </g>
  </g>
</svg>
