<?xml version="1.0" encoding="UTF-8" standalone="no"?>
<!-- Created with Inkscape (http://www.inkscape.org/) -->

<svg
   version="1.1"
   id="svg1"
   width="286.125"
   height="168.43748"
   viewBox="0 0 286.125 168.43748"
   xmlns="http://www.w3.org/2000/svg"
   xmlns:svg="http://www.w3.org/2000/svg">
  <defs
     id="defs1" />
  <g
     id="layer1"
     style="display:inline"
     transform="translate(-338.37499,-603.43749)">
    <g
       id="layer58"
       style="display:inline;fill:#ffffff;fill-opacity:1;stroke:none">
      <path
         style="fill:#ffffff;fill-opacity:1;stroke:none;stroke-linecap:round"
         d="m 462.12499,626.81248 4.0625,21.8125 25.9375,2.75 8,5.0625 11.5625,4 18,3.1875 5.5625,5.125 7.5,14.5625 10.9375,9.5625 15.75,5.125 5.3125,4.25 6.375,6.0625 2.125,5.1875 7.375,2.4375 14,-2.5625 19.87499,1.125 -1.4375,4.375 -3.3125,3.0625 -3.625,9.3125 -1.375,6.125 4.1875,19.625 -3.625,4 -9,5.5625 -5.18749,4.4375 -5.25,0.875 -9.75,-0.6875 -6.125,-2 -4.75,-4.5 -7.125,-3.875 0.0625,-1.75 -9.625,-4.625 -10,-1.5625 -16.625,3 -13.25,-6.9375 -11.3125,-10.1875 -13.6875,-4.6875 -4.5,-0.1875 -19.9375,-20.25 -3,-2.25 -20.625,-0.6875 -4.8125,-5.5 -24.8125,-7.5625 -5.9375,-6.625 -11.25,-23.8125 -17.0625,-17.5 -9.875,-8.25 -24.5625,-4.1875 -6.5,-6.6875 -1.4375,-4.125 -1,-8.9375 4.6875,-0.4375 5.3125,-6.1875 7.4375,-1.875 14,0.125 10.75,-5.37499 6.75,-0.3125 5.5625,1.1875 2.125,3.81249 6.75,3.75 25.375,2.9375 8.1875,10.0625 5.5,2.5 7.875,2.125 z"
         id="path56" />
    </g>
  </g>
</svg>
