<?xml version="1.0" encoding="UTF-8" standalone="no"?>
<!-- Created with Inkscape (http://www.inkscape.org/) -->

<svg
   version="1.1"
   id="svg2"
   width="167.44745"
   height="147.85172"
   viewBox="0 0 167.44745 147.85172"
   xmlns="http://www.w3.org/2000/svg"
   xmlns:svg="http://www.w3.org/2000/svg">
  <defs
     id="defs6">
    <linearGradient
       id="swatch77">
      <stop
         style="stop-color:#e2c69e;stop-opacity:1;"
         offset="0"
         id="stop77" />
    </linearGradient>
  </defs>
  <g
     id="layer66"
     style="display:inline"
     transform="translate(-344.15728,-360.35296)">
    <g
       id="layer35"
       style="display:inline">
      <path
         style="fill:#969696;fill-opacity:1;stroke:none;stroke-opacity:1"
         d="m 346.39393,439.90881 c 0.12175,-0.85223 0,-1.95445 0,-2.82843 v -2.65165 c 0,-0.38302 0.0475,-0.76899 0,-1.14905 -0.005,-0.0413 -0.079,-0.0478 -0.0884,-0.0884 -0.0806,-0.34925 -0.12609,-0.70583 -0.17678,-1.06066 -0.0402,-0.28108 0,-0.60041 0,-0.88388 0,-0.76376 0.0195,-1.543 -0.0884,-2.2981 -0.0224,-0.15707 -0.16241,-0.28393 -0.17678,-0.44194 -0.0518,-0.56951 -0.0175,-1.11263 -0.0884,-1.67938 -0.0645,-0.51625 -0.1698,-0.76056 -0.26517,-1.23744 -0.3419,-1.7095 0.0656,0.34786 -0.0884,-0.88388 -0.0368,-0.2947 -0.18353,-0.5234 -0.26516,-0.7955 -0.18061,-0.60201 -0.2888,-1.24357 -0.44194,-1.85615 -0.11455,-0.45819 -0.0218,-0.68295 -0.0884,-1.14905 -0.006,-0.0412 -0.0729,-0.0497 -0.0884,-0.0884 -0.0451,-0.11279 -0.0712,-0.23329 -0.0884,-0.35355 -0.05,-0.35028 -0.14096,-0.70252 -0.17678,-1.06066 -0.10868,-1.08684 -0.0884,-2.17767 -0.0884,-3.27037 0,-0.42806 -0.0604,-0.90308 0,-1.32583 0.0682,-0.47766 0.26012,-0.94703 0.35356,-1.41421 0.0368,-0.18414 -0.0245,-0.27007 0,-0.44194 0.0657,-0.45991 0.24194,-0.74905 0.44194,-1.14905 0.0709,-0.14185 0.0738,-0.31322 0.17678,-0.44194 0.54001,-0.67501 -0.01,0.23835 0.53033,-0.70711 0.27946,-0.48906 -0.23719,0.29759 0.26516,-0.7071 0.0659,-0.13177 0.18796,-0.2281 0.26517,-0.35356 0.19348,-0.3144 0.29008,-0.69198 0.53033,-0.97227 0.3473,-0.40518 0.70374,-0.76751 0.97227,-1.23744 0.45509,-0.7964 0.73374,-1.71327 1.06066,-2.56326 0.0943,-0.24511 0.3077,-0.60879 0.35355,-0.88388 0.0291,-0.17437 -0.0219,-0.35492 0,-0.53033 0.18495,-1.4796 0.0884,-3.01314 0.0884,-4.50781 -0.0607,-0.46774 -0.16875,-0.94987 9e-5,-1.41419 0.0587,-0.16145 0.19909,-0.28336 0.26517,-0.44194 0.0825,-0.198 0.0971,-0.41957 0.17677,-0.61872 0.0395,-0.0986 0.13493,-0.16753 0.17678,-0.26517 0.0992,-0.23137 0.166,-0.47573 0.26516,-0.7071 0.15144,-0.35336 0.11193,-0.67756 0.26517,-1.06066 0.0394,-0.0986 0.12927,-0.17015 0.17678,-0.26517 0.18686,-0.37374 0.17564,-0.43968 0.35355,-0.79549 0.0132,-0.0264 0,-0.0589 0,-0.0884 0.0589,-0.14732 0.0951,-0.30589 0.17678,-0.44194 0.23741,-0.3957 0.3916,-0.50537 0.61871,-0.88389 0.0986,-0.16434 0.12218,-0.35159 0.26517,-0.53033 0.2623,-0.32787 0.57519,-0.80341 0.88388,-1.06066 0.0453,-0.0377 0.13077,0.0368 0.17678,0 0.28003,-0.22402 0.37028,-0.63544 0.61872,-0.88388 0.0751,-0.0751 0.18221,-0.11042 0.26516,-0.17678 0.26154,-0.20923 0.29747,-0.40771 0.53033,-0.7071 0.0768,-0.0987 0.19251,-0.16345 0.26517,-0.26517 0.13806,-0.19329 0.25998,-0.40039 0.35355,-0.61872 0.0478,-0.11165 0.021,-0.25248 0.0884,-0.35355 0.0589,-0.0884 0.20143,-0.0918 0.26517,-0.17678 0.20615,-0.27487 0.33218,-0.60318 0.53033,-0.88388 0.38227,-0.54156 0.81672,-0.9884 1.23743,-1.5026 0.1605,-0.19616 0.27505,-0.42798 0.44194,-0.61872 0.0434,-0.0496 0.11785,-0.0589 0.17678,-0.0884 0.0884,-0.0884 0.19251,-0.16345 0.26517,-0.26517 0.0766,-0.10721 0.0945,-0.25066 0.17677,-0.35355 0.0412,-0.0514 0.11785,-0.0589 0.17678,-0.0884 0.0884,-0.0884 0.19251,-0.16345 0.26516,-0.26516 0.0766,-0.10722 0.0993,-0.247 0.17678,-0.35356 0.19758,-0.27167 0.41716,-0.52675 0.61872,-0.79549 0.23694,-0.31592 0.64156,-0.7518 0.97227,-0.97227 0.0548,-0.0365 0.13019,-0.0418 0.17678,-0.0884 0.0649,-0.0649 0.47912,-0.53338 0.53033,-0.61872 0.0479,-0.0799 0.0367,-0.18764 0.0884,-0.26516 0.19336,-0.29006 0.57481,-0.53068 0.79549,-0.7955 0.27212,-0.32654 0.61428,-0.63526 0.88388,-0.97227 0.0412,-0.0514 0.0418,-0.13019 0.0884,-0.17678 0.1826,-0.1826 0.50789,-0.36432 0.70711,-0.53033 0.11785,-0.0982 0.33882,-0.36828 0.44194,-0.44194 0.10722,-0.0766 0.25067,-0.0945 0.35355,-0.17678 0.0515,-0.0411 0.0472,-0.12533 0.0884,-0.17677 0.15926,-0.19907 0.69429,-0.6533 0.88389,-0.7955 0.45411,-0.34059 0.71517,-0.41786 1.14905,-0.70711 0.13867,-0.0924 0.21793,-0.25668 0.35355,-0.35355 0.24263,-0.17331 0.40995,-0.14478 0.61872,-0.35355 0.0466,-0.0466 0.0418,-0.13019 0.0884,-0.17678 0.0932,-0.0932 0.24814,-0.0977 0.35355,-0.17678 0.16667,-0.125 0.28376,-0.30636 0.44194,-0.44194 0.27546,-0.23611 0.6362,-0.28264 0.88388,-0.53033 0.0466,-0.0466 0.0378,-0.1346 0.0884,-0.17677 0.36315,-0.30263 0.83826,-0.51094 1.14905,-0.88389 0.26627,-0.31951 0.52986,-0.73625 0.88388,-0.97227 0.32302,-0.21534 0.69557,-0.4304 0.97228,-0.70711 0.0208,-0.0208 -0.0208,-0.0675 0,-0.0884 0.0751,-0.0751 0.18451,-0.10765 0.26516,-0.17678 0.26115,-0.22384 0.50714,-0.60326 0.7955,-0.7955 0.28164,-0.18776 0.58691,-0.429 0.79549,-0.7071 0.0458,-0.0611 0.19235,-0.45751 0.26517,-0.53033 0.0466,-0.0466 0.12196,-0.0519 0.17677,-0.0884 0.046,-0.0307 0.68219,-0.72074 0.70711,-0.7955 0.0186,-0.0559 -0.0264,-0.12407 0,-0.17677 0.29225,-0.58451 0.06,-0.04 0.26516,-0.17678 0.51249,-0.34166 0.0655,-0.0425 0.17678,-0.26516 0.12206,-0.24412 0.61872,-0.36322 1.16401,-0.37676 0.97347,0.24196 0.98348,0.55561 1.17029,0.86696 0.0606,0.10106 0.1846,0.1519 0.25,0.25 0.0231,0.0347 -0.0295,0.0955 0,0.125 0.0659,0.0659 0.1841,0.0591 0.25,0.125 0.32771,0.32771 0.31134,0.68557 0.5,1 0.0606,0.10106 0.1793,0.1557 0.25,0.25 0.0765,0.10207 0.3207,0.86424 0.375,1 0.0692,0.17301 0.1911,0.32322 0.25,0.5 0.13728,0.41184 0.11342,0.96525 0.25,1.375 0.0589,0.17678 0.1911,0.32322 0.25,0.5 0.0672,0.20156 0.0578,0.42344 0.125,0.625 0.0884,0.26517 0.3202,0.47592 0.375,0.75 0.0245,0.12257 -0.0206,0.2517 0,0.375 0.0655,0.39294 0.2849,0.88941 0.375,1.25 0.127,0.50887 -0.002,1.11614 0.125,1.625 0.0689,0.2755 0.14164,0.6041 0.25,0.875 0.0558,0.13949 0.2025,0.23248 0.25,0.375 0.0263,0.0791 -0.0263,0.1709 0,0.25 0.064,0.192 0.2729,0.0969 0.375,0.25 0.0953,0.14294 0.0297,0.35706 0.125,0.5 0.14103,0.21155 0.66837,0.37602 0.875,0.5 0.20833,0.125 0.20833,0.25 0.375,0.375 0.19437,0.14577 0.43528,0.22323 0.625,0.375 0.35994,0.28795 0.61162,0.73662 0.875,1 0.29463,0.29463 0.67991,0.48326 1,0.75 0.125,0.10417 0.25,0.2917 0.375,0.375 0.0347,0.0231 0.0955,-0.0295 0.125,0 0.526,0.526 -0.63795,-0.006 0.625,0.625 0.0745,0.0373 0.1755,-0.0373 0.25,0 0.21082,0.10541 0.30388,0.36926 0.5,0.5 0.66962,0.44641 2.71767,0.25 3.625,0.25 0.8452,0 1.78821,0.11954 2.625,0 0.49689,-0.071 0.81859,-0.1805 1.375,-0.25 0.1,-0.0125 0.3,0.025 0.375,0 0.34629,-0.11543 0.86601,-0.49101 1.125,-0.75 0.0833,-0.0833 0.2062,-0.14058 0.25,-0.25 0.0464,-0.11606 -0.0559,-0.2632 0,-0.375 0.0417,-0.0833 0.1983,-0.0475 0.25,-0.125 0.0924,-0.13867 -0.0404,-0.33831 0,-0.5 0.0226,-0.0904 0.0833,-0.1667 0.125,-0.25 0.0833,-0.0417 0.2154,-0.0385 0.25,-0.125 0.25,-0.625 -0.0625,-0.3125 0,-0.625 0.0795,-0.39749 0.3097,-0.73342 0.375,-1.125 0.11504,-0.69023 0.15599,-0.59298 0.375,-1.25 0.0263,-0.0791 -0.031,-0.1726 0,-0.25 0.13491,-0.33727 0.36509,-0.53773 0.5,-0.875 0.031,-0.0774 -0.0462,-0.1807 0,-0.25 0.0517,-0.0775 1.4601,-0.992 1.5,-1 0.68985,-0.13797 3.42364,-0.34257 4.125,0.125 0.0347,0.0231 -0.0295,0.0955 0,0.125 0.10922,0.10922 0.5274,0.2012 0.625,0.25 0.6118,0.3059 0.15994,0.1512 0.625,0.5 0.23129,0.1735 1.06647,0.22784 1.375,0.125 0.16298,-0.0543 0.34634,-0.0482 0.5,-0.125 0.0833,-0.0417 0.0475,-0.1983 0.125,-0.25 0.14027,-0.0935 0.35857,-0.1793 0.5,-0.25 0.0745,-0.0373 0.1755,0.0373 0.25,0 0.10541,-0.0527 0.14459,-0.1973 0.25,-0.25 0.75497,-0.37748 0.0529,0.018 0.625,-0.125 0.27633,-0.0691 0.8558,-0.40871 1,-0.625 0.0517,-0.0775 0.0591,-0.1841 0.125,-0.25 0.0822,-0.0822 0.4349,-0.17964 0.5,-0.375 0.0263,-0.0791 -0.0263,-0.1709 0,-0.25 0.13006,-0.39016 0.0833,0.0417 0.25,-0.125 0.0589,-0.0589 -0.0373,-0.1755 0,-0.25 0.0672,-0.13442 0.3282,-0.4379 0.375,-0.625 0.24886,-0.99545 0.9027,-2.18039 1.375,-3.125 0.30574,-0.61149 0.81831,-1.26162 1.125,-1.875 0.0774,-0.15488 -0.034,-0.45474 0,-0.625 0.1872,-0.93595 0.125,-1.90952 0.125,-2.875 0,-0.375 -0.091,-0.7612 0,-1.125 0.2664,-1.0656 1.84444,-3.2899 3,-3.5 0.28696,-0.0522 0.58333,0 1.06877,0.0363 l 15.21979,0.0363 c 1.46216,0 2.96041,-0.0858 4.41942,0 6.65954,0.39174 -1.9686,-0.029 3.00521,0.35356 1.11256,0.0856 2.2493,0.0658 3.35875,0.17677 0.87624,0.0876 1.77742,0.38463 2.65165,0.53033 1.45895,0.24316 2.97908,0.37472 4.41942,0.70711 0.65545,-0.32708 1.07141,0.38188 1.59099,0.53033 0.52236,0.14925 1.05318,0.27672 1.59099,0.35355 0.175,0.025 0.36036,-0.0486 0.53033,0 1.51479,0.4328 2.70154,1.68101 4.24264,2.12132 0.40064,0.11447 0.8439,0.0399 1.23744,0.17678 0.97197,0.33808 1.89728,0.79925 2.82843,1.23744 0.0754,0.0355 0.0966,0.15388 0.17677,0.17677 0.40064,0.11447 0.85446,0.0127 1.23744,0.17678 0.55424,0.23753 2.33003,0.88856 2.82843,1.23744 0.37703,0.26392 0.69738,0.60133 1.06066,0.88388 0.88072,0.68501 1.9126,1.15722 2.82842,1.76777 0.70465,0.26649 1.00539,1.01353 1.59099,1.41421 0.85071,0.58206 1.75059,1.0904 2.65165,1.59099 1.25978,0.69988 -0.37344,-0.68329 1.41422,0.70711 1.75968,1.36864 -0.61971,0.0524 1.94454,1.59099 0.15979,0.0959 0.38483,0.0604 0.53033,0.17677 0.29463,0.23571 0.44031,0.61709 0.70711,0.88389 0.56116,0.56116 1.29484,1.1372 1.76777,1.76777 0.33354,0.44472 0.54259,0.97541 0.88388,1.41421 0.0809,0.104 0.27697,0.0696 0.35355,0.17678 0.22976,0.32165 0.31811,0.72717 0.53033,1.06066 0.57494,0.90348 1.46564,1.47849 2.12132,2.29809 1.28015,1.60019 -0.41125,-0.38869 1.41422,2.12132 0.50422,0.69331 1.26794,1.24479 1.76776,1.94455 0.92167,1.29033 1.78312,2.53803 2.65165,3.88908 1.76146,2.74004 4.29559,5.54627 6.36396,8.13173 0.60092,0.75114 0.95313,1.66798 1.41422,2.47488 0.14617,0.2558 0.41427,0.4363 0.53033,0.7071 0.0696,0.16249 -0.0429,0.35883 0,0.53033 0.0497,0.19874 0.43757,0.34481 0.53033,0.53033 0.81664,1.63329 0.53033,3.69283 0.53033,5.48008 0,0.102 -0.0562,1.24546 0,1.41421 0.0133,0.04 0.17678,-0.0939 0.92808,0.35356 0.60398,-0.0295 0.45754,-0.11309 0.30936,-0.0884 -0.065,0.0108 -0.0369,0.13562 -0.0884,0.17678 -0.10289,0.0823 -0.24955,0.0959 -0.35356,0.17677 -0.16444,0.12791 -0.27926,0.3118 -0.44194,0.44194 -0.13415,0.10732 -0.3045,0.16209 -0.44194,0.26517 -0.36888,0.27666 -1.39986,1.30429 -1.59099,1.59099 -0.23813,0.35719 -0.7877,1.02063 -1.14905,1.23744 -0.0578,0.0347 -0.57593,0.0245 -0.61872,0 -0.16379,-0.0936 -0.2732,-0.26919 -0.44194,-0.35356 -0.45437,-0.22718 -1.08063,-0.35355 -1.59099,-0.35355 -0.42002,0 -1.01299,-0.11463 -1.41421,0 -0.323,0.0923 -0.57688,0.36366 -0.7955,0.61872 -0.0384,0.0447 0.0354,0.12963 0,0.17677 -0.0637,0.085 -0.19005,0.10167 -0.26516,0.17678 -0.10566,0.10566 -0.20629,0.32418 -0.26517,0.44194 -0.18392,0.36785 0.006,-0.0945 -0.17677,0.0884 -0.0659,0.0659 -0.0278,0.19443 -0.0884,0.26517 -0.13558,0.15817 -0.2819,0.30857 -0.44194,0.44194 -0.0226,0.0189 -0.0764,-0.0269 -0.0884,0 -0.21358,0.48055 -0.38345,1.07688 -0.53033,1.59099 -0.0334,0.1168 -0.0281,0.24808 -0.0884,0.35355 -0.062,0.10853 -0.18708,0.16756 -0.26517,0.26517 -0.28988,0.36235 -0.41347,0.8599 -0.7071,1.23743 -0.38068,0.48945 -1.00912,1.07646 -1.59099,1.32583 -0.169,0.0724 -0.52834,0.0874 -0.70711,0.17678 -0.22215,0.11107 -0.39193,0.41693 -0.61872,0.53033 -0.40452,0.20226 -0.19126,-0.0739 -0.61872,0.35355 -0.0466,0.0466 -0.0418,0.13019 -0.0884,0.17678 -0.0466,0.0466 -0.13562,0.0369 -0.17677,0.0884 -0.0823,0.10289 -0.10695,0.24182 -0.17678,0.35356 -0.0781,0.12492 -0.19928,0.22179 -0.26516,0.35355 -0.0447,0.0894 -0.14948,1.43827 -0.0884,1.59099 0.12395,0.30989 0.31663,0.62745 0.53033,0.88388 0.1067,0.12804 0.2678,0.21064 0.35355,0.35356 0.15479,0.25798 0.27465,0.54455 0.44194,0.79549 0.0924,0.13868 0.25668,0.21793 0.35356,0.35356 0.13042,0.18258 0.11609,0.45101 0.26516,0.61871 0.18046,0.20303 0.42665,0.33826 0.61872,0.53034 0.15047,0.15047 0.15168,0.30736 0.35355,0.44194 0.0245,0.0163 0.0676,-0.0208 0.0884,0 0.0545,0.0544 0.59747,0.66461 0.61872,0.7071 0.0263,0.0527 -0.0368,0.13077 0,0.17678 0.12051,0.15063 0.53379,0.40653 0.70711,0.53033 0.60062,0.42901 1.31418,1.09903 1.94454,1.41421 0.14191,0.071 0.30003,0.10582 0.44194,0.17678 0.22669,0.11335 0.3886,0.33573 0.61872,0.44194 0.25378,0.11713 0.5455,0.14017 0.7955,0.26517 0.1118,0.0559 0.16344,0.19251 0.26516,0.26516 0.10722,0.0766 0.24057,0.10899 0.35355,0.17678 0.0715,0.0429 0.10225,0.13951 0.17678,0.17678 0.0833,0.0417 0.18764,0.0367 0.26517,0.0884 0.104,0.0693 0.15797,0.20086 0.26516,0.26517 0.0505,0.0303 0.11785,0 0.17678,0 0.11785,0.0589 0.24182,0.10694 0.35355,0.17678 0.52119,0.32574 0.96418,0.76153 1.5026,1.06066 0.50318,0.27954 0.98968,0.62742 1.5026,0.88388 0.38474,0.19237 0.76344,0.42591 1.14905,0.61872 0.14192,0.0709 0.30589,0.0951 0.44195,0.17677 0.0253,0.0152 -0.0208,0.0676 0,0.0884 0.13455,0.13456 0.90488,0.62922 1.06066,0.70711 0.13437,0.0672 0.31311,0.0111 0.44194,0.0884 0.12632,0.0758 0.22179,0.19928 0.35355,0.26516 0.0527,0.0264 0.12407,-0.0264 0.17678,0 0.0745,0.0373 0.10224,0.13951 0.17677,0.17678 0.0527,0.0264 0.12408,-0.0263 0.17678,0 0.85491,0.64118 -0.0562,0.0161 0.61872,0.35355 0.30046,0.15023 0.52029,0.42608 0.79549,0.61872 0.34599,0.24219 0.78108,0.40845 1.14905,0.61872 0.18447,0.10541 0.3403,0.25854 0.53033,0.35355 0.30211,0.15105 0.96826,0.32658 1.23744,0.44195 1.86504,0.7993 -0.30044,-0.10603 0.79549,0.44194 0.20066,0.10032 0.53906,0.15313 0.70711,0.26516 0.10401,0.0693 0.15336,0.20927 0.26517,0.26517 0.0527,0.0263 0.13511,-0.0417 0.17677,0 0.0208,0.0208 -0.0163,0.0639 0,0.0884 0.0693,0.104 0.22564,0.14658 0.26517,0.26516 0.028,0.0839 -0.0395,0.18611 0,0.26517 0.11565,0.2313 0.23834,0.47667 0.35355,0.7071 0.0395,0.0791 -0.0214,0.17942 0,0.26517 0.0469,0.18744 0.17129,0.21273 0.26517,0.35355 0.0295,0.0589 0.0589,0.11785 0.0884,0.17678 0,0.0295 -0.0132,0.062 0,0.0884 0.0964,0.19285 0.35355,0.17236 0.41438,0.072 0.0608,0.0601 0.0903,-0.4655 -0.18916,0.0934 -0.0932,0.18634 0,0.41667 0,0.625 0,0.42006 -0.0226,0.71529 -0.125,1.125 -0.14433,0.57732 0,2.1858 0,2.875 0,1.25722 0.17498,2.67508 -0.125,3.875 -0.0782,0.3128 0.0633,0.68369 0,1 -0.044,0.22002 -0.2934,0.37067 -0.25,0.625 -0.14583,0.875 0.19444,-0.19445 0,0.875 -0.0543,0.29844 -0.1667,0.58333 -0.25,0.875 -0.0417,0.0833 -0.1024,0.1596 -0.125,0.25 -0.0667,0.2667 -0.0389,0.61666 -0.125,0.875 -0.0186,0.0559 -0.0987,0.0723 -0.125,0.125 -0.24818,0.49635 -0.59226,1.07289 -0.75,1.625 -0.19077,0.6677 -0.44327,1.33363 -0.625,2 -0.0439,0.16079 0.0527,0.34188 0,0.5 -0.0186,0.0559 -0.0987,0.0723 -0.125,0.125 -0.0745,0.14907 0.0404,0.33831 0,0.5 -0.0376,0.15048 -0.71963,0.3477 -0.25,0.625 -0.0137,0.0822 0.05,0.1833 0,0.25 -0.0901,0.12018 -0.2849,0.12981 -0.375,0.25 -0.05,0.0667 0.031,0.1726 0,0.25 -0.12972,0.3243 -0.47537,0.57573 -0.625,0.875 -0.0186,0.0373 0.0295,0.0955 0,0.125 -0.0659,0.0659 -0.1983,0.0475 -0.25,0.125 -0.0462,0.0693 0.0263,0.1709 0,0.25 -0.0902,0.27051 -0.49449,0.53247 -0.625,0.75 -0.0429,0.0715 0.0373,0.1755 0,0.25 -0.0527,0.10541 -0.1846,0.1519 -0.25,0.25 -0.2606,0.39089 -0.39323,0.82293 -0.5,1.25 -0.3218,1.28699 0.12308,-0.99424 -0.375,0.5 -0.0527,0.15811 0.0527,0.34188 0,0.5 -0.0373,0.1118 -0.1973,0.14459 -0.25,0.25 -0.0373,0.0745 0.031,0.1726 0,0.25 -0.0558,0.13949 -0.189,0.23772 -0.25,0.375 -0.12604,0.28358 -0.50578,1.14233 -0.625,1.5 -0.14907,0.4472 -0.007,0.97054 -0.25,1.375 -0.0606,0.10106 -0.2062,0.14058 -0.25,0.25 -0.0464,0.11606 0.0303,0.25373 0,0.375 -0.0452,0.1808 -0.3186,0.27454 -0.375,0.5 -0.13233,0.52931 -0.58928,1.82141 -0.875,2.25 -0.0231,0.0347 -0.1019,-0.0347 -0.125,0 -1.01515,1.52272 0.088,0.17433 -0.625,1.125 -0.14237,0.18983 -0.34711,0.22211 -0.5,0.375 -0.0295,0.0295 0.0186,0.0877 0,0.125 -0.0672,0.13437 -0.1538,0.25959 -0.25,0.375 -0.11317,0.1358 -0.26894,0.23358 -0.375,0.375 -0.11151,0.14867 -0.12876,0.54794 -0.25,0.75 -0.36379,0.60632 -0.73527,1.1654 -1.125,1.75 -0.10336,0.15504 -0.14169,0.34837 -0.25,0.5 -0.39238,0.54933 -1.28711,1.18685 -1.625,1.75 -0.0429,0.0715 0.0373,0.1755 0,0.25 -0.29051,0.58102 -2.1501,1.90462 -2.625,2.25 -0.70313,0.51136 -1.43998,0.98623 -2.125,1.5 -0.68996,0.51747 -1.31599,1.11199 -2,1.625 -0.89912,0.67434 0.2638,-0.1388 -0.375,0.5 -0.3036,0.3036 -0.18355,-0.0372 -0.375,0.25 -0.16359,0.24538 -0.2139,0.6602 -0.375,0.875 -0.10607,0.14142 -0.26894,0.23358 -0.375,0.375 -0.025,0.0333 0.0186,0.0877 0,0.125 -0.14006,0.28012 -0.80495,1.30495 -1,1.5 -0.18866,0.18865 -0.42559,0.32275 -0.625,0.5 -0.44679,0.39715 -0.72632,0.80615 -1.36461,1.09033 -0.11461,0.0487 -0.0355,0.18904 -0.11461,0.21534 -0.11859,0.0395 -0.25243,-0.0245 -0.375,0 -0.4157,0.0831 -0.0986,0.24121 -0.5,0.375 -0.77814,0.25938 -1.52333,0.63666 -2.25,1 -0.19003,0.095 -0.42774,0.0461 -0.625,0.125 -0.88831,0.35532 -2.2133,0.78497 -3,1.375 -0.7039,0.52792 -1.57595,0.72547 -2.375,1.125 -0.41625,0.20812 -0.81073,0.44929 -1.25,0.625 -0.33696,0.13478 -0.81252,0.21876 -1.125,0.375 -0.10541,0.0527 -0.14894,0.1894 -0.25,0.25 -0.6677,0.40063 -0.078,-0.099 -0.75,0.125 -0.0395,0.0132 0.0333,0.1 0,0.125 -0.14907,0.1118 -0.33333,0.1667 -0.5,0.25 -0.0833,0 -0.1755,-0.0373 -0.25,0 -0.10541,0.0527 -0.1557,0.1793 -0.25,0.25 -0.21948,0.16461 -0.52151,0.22267 -0.75,0.375 -0.30971,0.20647 -0.57965,0.4281 -0.875,0.625 -0.0693,0.0462 -0.1755,-0.0373 -0.25,0 -0.27221,0.1361 -0.66425,0.3078 -1,0.375 -0.12257,0.0245 -0.2632,-0.0559 -0.375,0 -0.5903,0.2951 0.76295,-0.0657 -0.5,0.25 -0.0404,0.0101 -0.0833,0 -0.125,0 -0.16667,0.0417 -0.33333,0.0833 -0.5,0.125 -0.26348,0.10539 -1.03123,0.65623 -1.25,0.875 -0.1522,0.15225 -0.0586,0.2793 -0.25,0.375 -0.0373,0.0186 -0.0955,-0.0295 -0.125,0 -0.0589,0.0589 0.0373,0.1755 0,0.25 -0.088,0.17597 -0.38974,0.35299 -0.5,0.5 -0.18028,0.24037 -0.34076,0.49521 -0.5,0.75 -0.0636,0.10174 -0.3443,0.5943 -0.375,0.625 -0.63263,0.63262 -1.87674,0.96553 -2.625,1.5 -0.14385,0.10275 -0.22342,0.284 -0.375,0.375 -0.0715,0.0429 -0.1709,-0.0263 -0.25,0 -0.36343,0.12114 -0.75681,0.47772 -1.125,0.625 -0.0774,0.031 -0.1709,-0.0263 -0.25,0 -0.26897,0.0897 -0.5588,0.3118 -0.875,0.375 -0.0817,0.0163 -0.1726,-0.031 -0.25,0 -0.0843,0.0337 -0.88124,0.4802 -1,0.5 -0.72946,0.12158 -1.51567,-0.0918 -2.25,0 -0.17047,0.0213 -0.33054,0.0968 -0.5,0.125 -0.1644,0.0274 -0.34526,-0.0619 -0.5,0 -0.13949,0.0558 -0.22835,0.2174 -0.375,0.25 -0.24405,0.0542 -0.5,0 -0.75,0 -1.65689,0 -3.3692,-0.1216 -4.9781,2.7e-4 0.0219,-0.44082 -0.20551,-0.40277 -0.33165,-0.65505 -0.32373,-0.64746 0.32515,-2.35489 0,-3.0052 -0.0745,-0.14907 -0.31315,-0.19186 -0.35355,-0.35355 -0.0429,-0.1715 0,-0.35356 0,-0.53033 0,-0.11786 0.0286,-0.23923 0,-0.35356 -0.0661,-0.26459 -0.43533,-0.69378 -0.53033,-0.88388 -0.31416,-0.62822 -0.0395,-0.43244 -0.35356,-1.06066 -0.15366,-0.30732 -0.40968,-0.56217 -0.53033,-0.88389 -0.0621,-0.16552 0.0791,-0.37221 0,-0.53033 -0.1118,-0.2236 -0.38033,-0.33033 -0.53033,-0.53033 -0.10517,-0.14024 -0.10597,-0.53002 -0.17677,-0.7071 -0.335,-0.8375 -0.69707,-1.62648 -1.06066,-2.47488 -0.58328,-1.36097 -1.1847,-2.70537 -1.76777,-4.06586 -0.30253,-0.70589 -0.41144,-1.43143 -0.70711,-2.12132 -0.0837,-0.19528 -0.27465,-0.33307 -0.35355,-0.53033 -0.0438,-0.10942 0.0286,-0.23922 0,-0.35355 -0.0307,-0.12297 -1.16554,-2.40298 -1.23744,-2.47488 -0.74526,-0.74526 -0.40226,0.0905 -1.23744,-0.88388 -0.17149,-0.20008 -0.2228,-0.47831 -0.35355,-0.70711 -0.33839,-0.59219 -0.85151,-0.87392 -1.23744,-1.41421 -1.34973,-1.88962 1.11326,0.7597 -0.79549,-0.7955 0.44194,0.16205 0.33091,-0.94745 0.44194,-1.5026 0.0622,-0.31113 0.59527,-0.46189 0.35346,-0.88382 0,-0.14774 0.12638,-0.2023 0.17678,-0.35356 0.078,-0.23411 -0.25608,0.10576 0.0884,-0.35355 0.0395,-0.0527 0.14028,-0.0336 0.17678,-0.0884 0.0817,-0.12257 -0.0289,-0.29749 0,-0.44194 0.0626,-0.31315 0.30231,-0.69301 0.44194,-0.97227 0.0547,-0.10952 -0.0241,-0.32156 0,-0.44194 0.074,-0.37025 0.29985,-0.68502 0.35355,-1.06066 0.0443,-0.31002 0.0131,-0.67103 0.0884,-0.97228 0.0101,-0.0404 0.0698,-0.0511 0.0884,-0.0884 0.096,-0.1919 0.10667,-0.49679 0.17677,-0.70711 0.0415,-0.1244 -0.0584,-0.3251 0,-0.44194 0.1201,-0.24007 0.0884,-0.50617 0.0884,-0.7955 0,-0.81707 -0.19304,-1.87595 0.26517,-2.56326 0.19314,-0.28971 0.66503,-0.77774 0.88388,-0.97227 0.0794,-0.0706 0.19007,-0.10168 0.26517,-0.17678 0.25529,-0.2553 0.24519,-0.67714 0.44194,-0.97227 0.14646,-0.21969 0.84382,-0.98642 1.06066,-1.14905 0.39519,-0.29639 1.39376,-1.01975 1.59099,-1.41421 0.13187,-0.26374 0.34854,-0.6921 0.44194,-0.97227 0.0769,-0.23049 0.0866,-0.48153 0.17678,-0.70711 0.0155,-0.0387 0.0589,-0.0589 0.0884,-0.0884 0.0295,-0.0884 0.0589,-0.17676 0.0884,-0.26516 0.0678,-0.27105 0.0897,-0.53428 0.17678,-0.7955 0.053,-0.1591 -0.053,-0.37123 0,-0.53033 0.009,-0.028 0.0676,0.0208 0.0884,0 0.0751,-0.0751 0.13727,-0.16656 0.17677,-0.26516 0.0219,-0.0547 -0.0264,-0.12408 0,-0.17678 0.14133,-0.28266 1.42073,-1.28489 1.67938,-1.41421 0.0833,-0.0417 0.18527,-0.0405 0.26517,-0.0884 0.42472,-0.25483 0.77735,-0.64704 1.14905,-0.97227 0.11584,-0.10137 0.33343,-0.15666 0.44194,-0.26517 0.38245,-0.38247 -0.0289,-0.14786 0.35355,-0.53033 0.0311,-0.0311 0.43294,-0.25217 0.44194,-0.26517 0.10768,-0.16151 0.10918,-0.48354 0.17678,-0.61871 0.0373,-0.0745 0.13058,-0.10748 0.17678,-0.17678 0.0794,-0.11873 0.0587,-0.55839 0.0884,-0.70711 0.1183,-0.5915 0.19178,-1.50109 0.0884,-2.12132 -0.12289,-0.73735 -0.22643,-1.97236 0,-2.65165 0.0395,-0.11858 0.17677,-0.17676 0.26517,-0.26516 0.17678,-0.17678 0.33827,-0.37029 0.53033,-0.53033 0.48526,-0.40439 1.13313,-0.6028 1.59099,-1.06066 0.33403,-0.33404 0.38839,-0.99098 0.17678,-1.41422 -0.0373,-0.0745 -0.13948,-0.10227 -0.17678,-0.17677 -0.0417,-0.0833 -0.0467,-0.18187 -0.0884,-0.26517 -0.0559,-0.1118 -0.19016,-0.16516 -0.26516,-0.26516 -0.20954,-0.27939 -0.45506,-0.63183 -0.70711,-0.88389 -0.57736,-0.57735 0.28222,0.52956 -0.35355,-0.26516 -0.13742,-0.17177 -0.4271,-0.78809 -0.61872,-0.88389 -0.35427,-0.17713 -0.71827,-0.55092 -1.06066,-0.79549 -0.2222,-0.15871 -0.47934,-0.18273 -0.70711,-0.35355 -0.25591,-0.19193 -0.53564,-0.33545 -0.7955,-0.53033 -0.12759,-0.0957 -0.0948,-0.26517 -0.26516,-0.26517 -1.30903,0 -2.15029,0.17001 -3.35876,0.70711 -0.36775,0.16344 -0.88523,0.319 -1.23743,0.53033 -0.51901,0.3114 -0.90736,0.81114 -1.41422,1.14905 -1.20022,0.80014 0.18071,-0.0602 -0.79549,0.26516 -0.0344,0.0115 -0.46823,0.33285 -0.53033,0.35355 -0.0839,0.028 -0.17797,-0.0145 -0.26517,0 -0.4,0.0667 -0.16792,0.13637 -0.61872,0.26517 -0.37862,0.10818 -1.93396,0 -2.38648,0 h -2.56326 c -0.27315,0 -0.6239,0.078 -0.88389,0 -0.26772,-0.0803 -0.52583,-0.19157 -0.79549,-0.26517 -0.0568,-0.0155 -0.12208,0.0219 -0.17678,0 -0.19726,-0.0789 -0.3403,-0.25855 -0.53033,-0.35355 -0.285,-0.1425 -0.67303,-0.20393 -0.97227,-0.35355 -0.15366,-0.0768 -0.29463,-0.17677 -0.44194,-0.26517 -0.0295,-0.0295 -0.0537,-0.0653 -0.0884,-0.0884 -0.23439,-0.15627 -0.20698,-0.0474 -0.53033,-0.17677 -0.13678,-0.0547 -0.22179,-0.19927 -0.35355,-0.26517 -0.28488,-0.14244 -1.29227,-0.5965 -1.67938,-0.7071 -0.16998,-0.0486 -0.36263,0.0559 -0.53033,0 -0.10078,-0.0336 -0.17187,-0.12588 -0.26517,-0.17678 -0.23134,-0.12619 -0.4672,-0.24451 -0.70711,-0.35355 -1.07094,-0.4868 -2.20596,-0.91529 -3.18198,-1.59099 -0.13703,-0.0949 -0.2234,-0.24944 -0.35355,-0.35356 -0.1659,-0.13272 -0.35355,-0.2357 -0.53033,-0.35355 -0.14731,-0.14731 -0.27926,-0.3118 -0.44194,-0.44194 -0.13415,-0.10732 -0.29463,-0.17677 -0.44194,-0.26517 -0.20623,-0.17679 -0.41245,-0.35357 -0.61867,-0.53036 0,-0.12247 -0.31589,-0.14527 -0.44194,-0.17677 -0.13725,-0.0343 -0.30834,0.0445 -0.44194,0 -0.51677,-0.17178 0.35669,-0.0374 -0.61872,-0.17678 -0.0875,-0.0125 -0.20267,0.0625 -0.26517,0 -0.0208,-0.0208 0.0208,-0.0676 0,-0.0884 -0.10623,-0.1062 -0.30757,-0.0212 -0.44194,-0.0884 -0.0745,-0.0373 -0.10228,-0.13947 -0.17678,-0.17677 -0.0527,-0.0264 -0.12407,0.0263 -0.17677,0 -0.0264,-0.0132 0.0208,-0.0676 0,-0.0884 -0.0932,-0.0932 -0.26036,-0.0836 -0.35356,-0.17678 -0.0466,-0.0466 -0.0418,-0.13018 -0.0884,-0.17678 -0.15098,-0.15097 -0.36087,-0.12027 -0.53033,-0.17677 -0.14207,-0.0474 -0.88505,-0.79609 -1.06067,-0.88389 -0.35134,-0.17567 -0.73778,-0.28817 -1.06066,-0.53033 -0.0667,-0.05 -0.0994,-0.14587 -0.17677,-0.17677 -0.36834,-0.14732 -0.14732,0.0982 -0.44194,0 -0.25,-0.0833 -0.46244,-0.25566 -0.70711,-0.35356 -0.23509,-0.094 -1.16206,0 -1.5026,0 -0.45884,0 -0.97088,-0.0887 -1.41422,0 -0.42673,0.0854 -0.80317,0.22948 -1.23743,0.35356 -0.23521,0.0672 -0.55969,0.0884 -0.7955,0.17677 -0.14856,0.0557 -0.30003,0.10578 -0.44194,0.17678 -0.0745,0.0373 -0.0994,0.14578 -0.17678,0.17678 -0.33227,0.13291 -0.74651,0.19647 -1.06066,0.35355 -0.2486,0.1243 -0.4585,0.31764 -0.7071,0.44194 -0.3413,0.17065 -0.73756,0.31493 -1.06066,0.53033 -0.0693,0.0462 -0.10528,0.13388 -0.17678,0.17678 -0.74662,0.44798 0.0971,-0.12724 -0.44194,0.0884 -0.36864,0.14745 -0.84769,0.45168 -1.23744,0.61872 -0.17127,0.0734 -0.36366,0.0935 -0.53033,0.17677 -0.15053,0.0753 -0.5599,0.30446 -0.70711,0.35356 -0.0838,0.028 -0.17766,-0.0125 -0.26516,0 -0.68897,0.0984 1.2e-4,0.0972 -0.7955,0.17677 -0.50532,0.0505 -1.10311,0.0374 -1.59099,0.17678 -0.2885,0.0824 -0.52197,0.18706 -0.79549,0.26516 -0.40287,0.11508 -0.83608,0.0965 -1.23744,0.17678 -0.26928,0.0539 -0.5239,0.22637 -0.79549,0.26517 -0.27497,0.0393 -0.52783,0.0289 -0.7955,0.0884 -0.1819,0.0404 -0.347,0.14348 -0.53033,0.17678 -0.3871,0.0704 -0.8449,0 -1.23744,0 h -3.44714 -3.53553 c -0.42339,0 -0.90302,0.0528 -1.32583,0 -0.6606,-0.0826 -1.28923,-0.23441 -1.94454,-0.35355 -0.7379,-0.13417 -1.4808,-0.20777 -2.20971,-0.35356 -0.50074,-0.10015 -0.0593,-0.0356 -0.44194,-0.26516 -0.0825,-0.0495 -0.6968,-0.25287 -0.7955,-0.26517 -0.45952,-0.0575 -0.96011,0.0125 -1.41421,-0.0884 -0.73587,-0.16353 -1.47052,-0.3825 -2.20971,-0.53033 -0.34131,-0.0683 -0.71971,-0.0316 -1.06066,-0.0884 -0.56704,-0.0945 -0.57065,-0.19022 -1.06066,-0.35356 -0.26517,-0.0884 0.17677,0.17678 -0.26517,0 -0.45437,-0.18175 -0.78164,-0.4001 -1.23743,-0.53033 -0.49489,-0.14139 -1.00758,-0.21854 -1.50261,-0.35355 -0.17977,-0.049 -0.34652,-0.14618 -0.53033,-0.17678 -0.47687,-0.0795 -0.91095,0.0307 -1.32582,-0.17677 -0.17718,-0.0886 -2.15493,0 -2.56326,0 -1.08407,0 -2.29687,-0.12398 -3.35876,0.0884 -0.0737,0.0147 -0.20627,-0.0295 -0.26517,0 -0.0263,0.0132 0.0208,0.0676 0,0.0884 -0.0751,0.0751 -0.17016,0.12928 -0.26516,0.17678 -0.16254,0.0813 -0.45182,0.11418 -0.61872,0.17678 -0.61972,0.23244 -0.10584,0.0971 -0.61872,0.35355 -0.0833,0.0417 -0.17676,0.0589 -0.26516,0.0884 -0.0295,0 -0.0613,-0.0116 -0.0884,0 -0.5551,0.2379 -1.11434,0.51876 -1.67938,0.70711 -0.22535,0.0751 -0.40039,0.25995 -0.61872,0.35355 -0.0542,0.0232 -0.12407,-0.0263 -0.17677,0 -0.13177,0.0659 -0.21815,0.20716 -0.35356,0.26516 -0.0812,0.0348 -0.18616,-0.0395 -0.26516,0 -0.0589,0.0295 -0.0336,0.14028 -0.0884,0.17678 -0.16445,0.10963 -0.34682,0.19177 -0.53033,0.26517 -0.13949,0.0558 -0.32176,-0.002 -0.44194,0.0884 -0.34688,0.26016 -0.21174,0.27216 -0.61872,0.35356 -0.0578,0.0115 -0.12088,-0.0186 -0.17678,0 -0.0395,0.0132 -0.048,0.0783 -0.0884,0.0884 -0.40698,0.10174 -1.01553,0 -1.41421,0 -1.50238,0 -3.01046,0.055 -4.50781,-0.0884 -0.43598,0.16116 -0.85254,0.18154 -1.32582,0.13258 -1.87513,-0.19398 0.0859,-0.0798 -0.88388,-0.17678 -0.17129,-0.0171 -0.41089,0.0546 -0.57453,0 -0.027,-0.009 -0.10561,-0.0794 -0.13258,-0.0884 -0.22653,-0.0755 -0.51044,-0.054 -0.7513,-0.0884 -0.16731,0.14872 -0.14401,-0.0691 -0.22097,-0.0884 -0.12981,-0.0324 -0.26589,-0.0178 -0.39775,-0.0442 -0.0566,-0.0113 -0.0596,-0.0442 -0.7071,-0.68499 -0.48613,-1.1122 -0.37719,-1.58021 -0.30937,-2.055 z"
         id="path49" />
    </g>
  </g>
</svg>
