<?xml version="1.0" encoding="UTF-8" standalone="no"?>
<!-- Created with Inkscape (http://www.inkscape.org/) -->

<svg
   version="1.1"
   id="svg1"
   width="167.5"
   height="149.4375"
   viewBox="0 0 167.5 149.4375"
   xmlns="http://www.w3.org/2000/svg"
   xmlns:svg="http://www.w3.org/2000/svg">
  <defs
     id="defs1" />
  <g
     id="layer1"
     style="display:inline"
     transform="translate(-344.31249,-359.87499)">
    <g
       id="layer59"
       style="display:inline;fill:#ffffff;fill-opacity:1;stroke:none">
      <path
         style="fill:#ffffff;fill-opacity:1;stroke:none;stroke-linecap:round"
         d="m 346.96874,442.40624 -2.65625,-24.125 5.34375,-18.875 6.5,-13.0625 6.25,-7.25 14.34375,-12.46875 4.0625,3.90625 -0.59375,2.03125 1.53125,5.25 5.8125,4.8125 5.21875,1.6875 3.5625,-1.875 1.84375,-2.375 1.125,-4.1875 6,0.65625 1.90625,0.53125 5.375,-3.84375 1.90625,-6.3125 3.5625,-7.03125 23.8125,2.03125 21.34375,7.9375 17.15625,10.8125 18.65625,21.6875 4.1875,9.65625 -2.4375,3.21875 -2.15625,-0.9375 -6.53125,1.96875 -5.6875,7.6875 1.53125,5.125 15.96875,10.03125 3.5625,-0.125 2.40625,4.375 1.9375,0.75 -4.34375,20.71875 -7.34375,14.28125 -13.09375,13.5 -19.53125,10.3125 -17.875,6.40625 -1.1875,-7.46875 -3.875,-3.71875 -3.5,-9.875 -3.03125,-3.65625 0.4375,-6.28125 6.125,-13.09375 5.87746,-6.96936 0.7955,-2.87262 -0.30936,-3.22618 2.2539,-3.13778 -6.40815,-4.5962 -2.56327,0.88388 -3.7565,2.91682 -5.48008,0.39775 -5.3033,-1.41422 -4.99394,-3.18198 -1.45841,-1.98873 -11.97662,-3.97748 -4.99394,1.90035 -2.20971,2.47487 -9.67852,2.03294 -13.83278,-1.67938 -5.87782,-2.47488 -10.69499,-0.48613 -7.29204,3.0494 z"
         id="path57" />
    </g>
  </g>
</svg>
