<?xml version="1.0" encoding="UTF-8" standalone="no"?>
<!-- Created with Inkscape (http://www.inkscape.org/) -->

<svg
   version="1.1"
   id="svg2"
   width="90.585602"
   height="90.035217"
   viewBox="0 0 90.585602 90.035217"
   xmlns="http://www.w3.org/2000/svg"
   xmlns:svg="http://www.w3.org/2000/svg">
  <defs
     id="defs6">
    <linearGradient
       id="swatch77">
      <stop
         style="stop-color:#e2c69e;stop-opacity:1;"
         offset="0"
         id="stop77" />
    </linearGradient>
  </defs>
  <g
     id="layer66"
     style="display:inline"
     transform="translate(-443.13817,-152.79745)">
    <g
       id="layer17"
       style="display:inline">
      <path
         style="display:inline;fill:#969696;fill-opacity:1;stroke:none;stroke-opacity:1"
         d="m 531.39098,232.90336 c 0.10274,-0.0685 0.31896,-0.0474 0.44195,-0.0884 0.48357,-0.16119 1.62602,-0.77718 1.85615,-1.23744 0.059,-0.11796 0.0315,-1.49659 0,-1.59099 -0.0208,-0.0625 -0.0418,-0.13018 -0.0884,-0.17678 -0.0209,-0.0208 -0.0794,0.028 -0.0884,0 -0.028,-0.0839 0.028,-0.18136 0,-0.26516 -0.009,-0.028 -0.0639,0.0163 -0.0884,0 -0.51249,-0.34167 -0.0655,-0.0425 -0.17678,-0.26517 -0.0623,-0.12457 -0.41634,-0.32795 -0.44194,-0.35355 -0.0208,-0.0208 0.0208,-0.0676 0,-0.0884 -0.16722,-0.16721 -0.60206,-0.46397 -0.7955,-0.61872 -0.25451,-0.20361 -0.36702,-0.60672 -0.61872,-0.79549 -0.0471,-0.0354 -0.12967,0.0354 -0.17677,0 -0.085,-0.0637 -0.10168,-0.19007 -0.17678,-0.26517 -0.0208,-0.0208 -0.0648,0.0177 -0.0884,0 -0.15985,-0.11988 -0.50067,-0.44164 -0.61872,-0.61872 -0.32715,-0.49073 0.42832,0.25154 -0.53033,-0.7071 -0.0209,-0.0208 -0.0752,0.0263 -0.0884,0 -0.0264,-0.0527 0.0303,-0.12628 0,-0.17678 -0.0643,-0.10719 -0.20087,-0.15798 -0.26517,-0.26516 -0.0303,-0.0505 0.0263,-0.12408 0,-0.17678 -0.0132,-0.0264 -0.0676,0.0208 -0.0884,0 -0.30679,-0.3068 -0.61872,-1.01164 -0.61872,-1.41421 0,-0.39892 -0.34674,-0.94492 -0.44194,-1.32583 -0.0924,-0.36955 -0.0102,-0.93472 -0.0884,-1.32582 -0.0711,-0.35567 -0.0645,-0.0406 -0.17677,-0.26517 -0.11447,-0.22893 -0.14975,-0.5033 -0.35356,-0.70711 -0.0209,-0.0208 -0.0676,0.0208 -0.0884,0 -0.13148,-0.13147 -0.19044,-0.33319 -0.35356,-0.44194 -0.26143,-0.17429 -0.55907,-0.37272 -0.79549,-0.53033 -0.10199,-0.068 -0.16318,-0.19716 -0.26517,-0.26516 -0.13201,-0.088 -0.30992,-0.0888 -0.44194,-0.17678 -0.0245,-0.0164 0.0163,-0.0639 0,-0.0884 -0.0462,-0.0693 -0.10748,-0.13058 -0.17678,-0.17678 -0.14771,-0.0985 -0.44859,-0.13757 -0.61871,-0.26516 -0.0667,-0.05 -0.10748,-0.13058 -0.17678,-0.17678 -0.0607,-0.0405 -0.29645,0.019 -0.35355,0 -0.14112,-0.047 -0.27248,-0.23696 -0.44195,-0.26516 -0.11624,-0.0194 -0.24175,0.0373 -0.35355,0 -0.16298,-0.0543 -0.28828,-0.18837 -0.44194,-0.26517 -0.52176,-0.26088 -0.96271,-0.16995 -1.59099,-0.61872 -0.1818,-0.12985 -0.69146,-0.71049 -0.7955,-0.88388 -0.0987,-0.16449 -0.15024,-0.3771 -0.26516,-0.53033 -0.16212,-0.21615 -0.35894,-0.45797 -0.44194,-0.70711 -0.0186,-0.0559 0.0263,-0.12407 0,-0.17677 -0.0373,-0.0745 -0.11788,-0.11788 -0.17678,-0.17678 -0.0295,0 -0.0676,0.0208 -0.0884,0 -0.0659,-0.0659 -0.0467,-0.18186 -0.0884,-0.26516 -0.0709,-0.14192 -0.0952,-0.30589 -0.17677,-0.44195 -0.0429,-0.0714 -0.13948,-0.10227 -0.17678,-0.17677 -0.0263,-0.0527 0.0264,-0.12408 0,-0.17678 -0.0566,-0.11313 -0.42461,-0.45983 -0.53033,-0.53033 -0.0245,-0.0163 -0.0676,0.0208 -0.0884,0 -0.19765,-0.19765 -0.36669,-0.4675 -0.61872,-0.61872 -0.16759,-0.10055 -0.98256,-0.6811 -1.06066,-0.7071 -0.0559,-0.0186 -0.11957,0.0143 -0.17677,0 -0.33678,-0.0842 -0.76524,-0.39903 -1.06066,-0.53033 -0.11101,-0.0493 -0.26766,-0.002 -0.35356,-0.0884 -0.0466,-0.0466 -0.0418,-0.13018 -0.0884,-0.17678 -0.0209,-0.0208 -0.0639,0.0163 -0.0884,0 -0.80474,-0.53649 0.32113,0.0481 -0.35356,-0.17678 -0.11858,-0.0395 -0.15336,-0.20926 -0.26516,-0.26516 -0.0527,-0.0264 -0.12778,0.0327 -0.17678,0 -0.0548,-0.0366 -0.0418,-0.13018 -0.0884,-0.17678 -0.21911,-0.21912 -0.12017,0.005 -0.35355,-0.0884 -0.26041,-0.10416 -0.41508,-0.36063 -0.61872,-0.53033 -0.10122,-0.0844 -0.26035,-0.0836 -0.35355,-0.17677 -0.0466,-0.0466 -0.0418,-0.13018 -0.0884,-0.17678 -0.10417,-0.10417 -0.23098,-0.18347 -0.35355,-0.26517 -0.0245,-0.0163 -0.0676,0.0208 -0.0884,0 -0.10417,-0.10416 -0.161,-0.24938 -0.26517,-0.35355 -0.10354,-0.10354 -0.34724,-0.19406 -0.44194,-0.26516 -0.1,-0.075 -0.16116,-0.19587 -0.26517,-0.26517 -0.25806,-0.17204 -0.6171,-0.26409 -0.88388,-0.44194 -0.51582,-0.34388 -0.97625,-0.73169 -1.5026,-1.06066 -0.2769,-0.17307 -0.59147,-0.18157 -0.88388,-0.26517 -0.15256,-0.0436 -0.29463,-0.11787 -0.44195,-0.17677 -0.0295,-0.0295 -0.0499,-0.0724 -0.0884,-0.0884 -0.31833,-0.13264 -0.64512,-0.2445 -0.97228,-0.35355 -0.78011,-0.26004 -1.62379,-0.38024 -2.38648,-0.70711 -0.30698,-0.13156 -0.54918,-0.41876 -0.88388,-0.53033 -0.32958,-0.10986 -0.56585,-0.17687 -0.88389,-0.35355 -0.12877,-0.0716 -0.22179,-0.19927 -0.35355,-0.26517 -0.0527,-0.0264 -0.12088,0.0186 -0.17678,0 -0.44256,-0.14748 0.14731,-0.0196 -0.0884,-0.17678 -0.17222,-0.11481 -0.44139,-0.17646 -0.61871,-0.26516 -0.47389,-0.23694 -0.98489,-0.59767 -1.41422,-0.88388 -0.14307,-0.0954 -0.55972,-0.44176 -0.61872,-0.61872 -0.0631,-0.18931 -0.0388,-0.25801 -0.17677,-0.44194 -0.17324,-0.23099 -0.44548,-0.38773 -0.61872,-0.61872 -0.20927,-0.27899 0.0664,-0.11035 -0.26517,-0.44194 -0.22638,-0.22639 -0.57488,-0.39811 -0.79549,-0.61872 -0.38612,-0.38612 -2.00308,-2.91478 -2.12132,-3.44715 -0.0452,-0.20336 -0.0589,-0.41245 -0.0883,-0.61867 0,-0.0248 -0.0814,-0.16977 -0.0884,-0.17677 -0.0631,-0.0631 -0.35244,0.0298 -0.44194,0 -0.0896,-0.0299 -0.37704,-0.20027 -0.44194,-0.26517 -0.34368,-0.34355 0.0583,-9.4e-4 -0.17678,-0.35355 -0.0365,-0.0548 -0.13018,-0.0418 -0.17678,-0.0884 -0.19278,-0.19278 -0.33276,-0.50954 -0.53033,-0.70711 -0.0209,-0.0208 -0.0639,0.0164 -0.0884,0 -0.43973,-0.29315 -0.0203,-0.0406 -0.17678,-0.35355 -0.0373,-0.0745 -0.13948,-0.10228 -0.17678,-0.17678 -0.0543,-0.10865 -0.05,-0.23831 -0.0884,-0.35355 -0.0478,-0.14326 -0.23376,-0.31645 -0.26516,-0.44194 -0.0214,-0.0858 0.0145,-0.17797 0,-0.26517 -0.0637,-0.38225 -0.22187,-0.75936 -0.26517,-1.14905 -0.0163,-0.14641 0.0133,-0.29523 0,-0.44194 -0.0162,-0.17848 -0.0589,-0.35355 -0.0884,-0.53033 -0.0295,-0.0589 -0.0776,-0.11177 -0.0884,-0.17677 -0.0578,-0.34704 -0.0386,-0.44703 -0.0884,-0.7955 -0.0132,-0.0922 -0.0589,-0.17676 -0.0884,-0.26516 -0.0295,-0.0589 -0.0776,-0.11178 -0.0884,-0.17678 -0.0506,-0.30349 -0.004,-0.67601 -0.0884,-0.97227 -0.0908,-0.31767 -0.32716,-0.68532 -0.44194,-0.97228 -0.18697,-0.46743 0.0107,-0.21781 -0.17677,-0.53033 -0.24286,-0.40476 -0.2103,-0.21638 -0.44195,-0.79549 -0.12937,-0.32335 -0.0205,-0.29594 -0.17677,-0.53033 -0.18784,-0.28176 -0.26864,-0.58061 -0.44195,-0.88388 -0.0413,-0.0724 -0.13057,-0.10748 -0.17677,-0.17678 -0.0985,-0.14771 -0.13758,-0.4486 -0.26517,-0.61872 -0.05,-0.0667 -0.13057,-0.10748 -0.17677,-0.17678 -0.0674,-0.10107 -0.0259,-0.24938 -0.0884,-0.35355 -0.0429,-0.0715 -0.13388,-0.10528 -0.17678,-0.17678 -0.0479,-0.0799 -0.0438,-0.18336 -0.0884,-0.26516 -0.13309,-0.24401 -0.30884,-0.4631 -0.44194,-0.70711 -0.26201,-0.48034 -0.4624,-1.05848 -0.79549,-1.5026 -0.25158,-0.33544 -0.52842,-0.35164 -0.7955,-0.61872 -0.0751,-0.0751 -0.11308,-0.18016 -0.17678,-0.26516 -0.1232,-0.16427 -0.32843,-0.27168 -0.44194,-0.44194 -0.25536,-0.38305 -0.54246,-0.68112 -0.79549,-1.06066 -0.17677,-0.26517 0,0.17677 -0.26517,-0.26517 -0.0817,-0.13605 -0.0952,-0.30589 -0.17677,-0.44194 -0.0756,-0.12607 -0.21467,-0.29041 -0.26517,-0.44194 -0.1286,-0.38581 -0.1698,-1.00713 -0.0884,-1.41422 0.0129,-0.0646 0.0589,-0.11787 0.0884,-0.17677 0.0295,0 0.0721,0.0245 0.0884,0 0.0517,-0.0775 0.0467,-0.18187 0.0884,-0.26517 0.11015,-0.2203 0.51443,-0.26962 0.61872,-0.53033 0.0328,-0.0821 -0.0395,-0.18616 0,-0.26516 0.0295,-0.0589 0.13727,-0.0357 0.17677,-0.0884 0.0559,-0.0745 0.0367,-0.18767 0.0884,-0.26517 0.0163,-0.0245 0.0676,0.0208 0.0884,0 0.13606,-0.13606 0.21749,-0.39426 0.35355,-0.53033 0.036,-0.036 0.48263,-0.41804 0.53033,-0.44194 0.0264,-0.0132 0.0676,0.0208 0.0884,0 0.0466,-0.0466 0.0336,-0.14018 0.0884,-0.17678 0.049,-0.0327 0.12088,0.0186 0.17678,0 0.13975,-0.0466 0.22179,-0.19926 0.35355,-0.26516 0.0264,-0.0132 0.0676,0.0208 0.0884,0 0.0466,-0.0466 0.0518,-0.12198 0.0884,-0.17678 0.0804,-0.12068 0.30925,-0.22086 0.35355,-0.26516 0.0583,-0.0583 0.38814,-0.42269 0.44194,-0.53033 0.0132,-0.0264 -0.0208,-0.0676 0,-0.0884 0.0417,-0.0417 0.13508,0.0417 0.17678,0 0.0208,-0.0208 -0.0208,-0.0676 0,-0.0884 0.30734,-0.30734 0.86891,-0.37304 1.23743,-0.61872 0.47558,-0.31705 0.87844,-0.79113 1.32583,-1.14905 0.67267,-0.53813 1.25098,-0.82934 1.59099,-1.67937 0.0438,-0.10943 0,-0.23571 0,-0.35356 0,-0.47859 0.0521,-0.52506 -0.35355,-0.79549 -0.0245,-0.0164 -0.0676,0.0208 -0.0884,0 -0.06,-0.06 0.0404,-0.27266 0,-0.35356 -0.0677,-0.13537 -0.15751,-0.0691 -0.26517,-0.17677 -0.10057,-0.10057 -0.15683,-0.54461 -0.26516,-0.70711 -0.30814,-0.4622 -0.72672,-0.88057 -1.06066,-1.32583 -0.16928,-0.2257 -0.40049,-0.66565 -0.61872,-0.88388 -0.0514,-0.0514 -0.75482,0.2389 -0.35355,-0.26516 -0.0517,-0.0775 -0.0325,-0.19067 -0.0884,-0.26517 -0.0395,-0.0527 -0.12408,-0.0489 -0.17678,-0.0884 -0.1605,-0.12037 -0.32287,-0.37156 -0.44194,-0.53033 -0.28173,-0.37565 0.0609,0.0198 -0.0884,-0.35355 -0.0394,-0.0986 -0.12928,-0.17017 -0.17678,-0.26517 -0.22232,-0.44461 -0.0884,-1.88257 -0.0884,-2.38648 l -0.18262,-6.1248 c -0.18261,0.42255 -0.59731,0.42925 -0.68261,0.45255 -0.66322,0.1809 -0.15109,0.0589 -0.8125,0.125 -0.38224,0.0382 -0.74608,0.1868 -1.125,0.25 -0.3699,0.0616 -0.75,0 -1.125,0 h -7.4375 c -1.00946,0 -2.05749,-0.0718 -3.0625,0 -0.89533,0.064 -1.79984,0.24185 -2.6875,0.375 -0.62274,0.0934 -1.25483,0.14664 -1.875,0.25 -1.45023,0.242 0.42726,0.0104 -1.25,0.25 -0.6815,0.0974 0.75067,-0.26939 -0.6875,0.0625 -0.25678,0.0593 -0.47033,0.259 -0.75,0.25 -0.57836,0.12852 -1.31,0.20357 -1.8125,0.5625 -0.3646,0.2604 -0.0347,0.10417 -0.3125,0.3125 -0.0373,0.028 -0.0833,0.0417 -0.125,0.0625 -0.0208,0.0417 -0.0296,0.0921 -0.0625,0.125 -0.0147,0.0147 -0.0518,-0.0179 -0.0625,0 -0.2643,0.44045 -0.1875,1.52209 -0.1875,2 0,0.82928 0.0394,1.67269 0,2.5 -0.0177,0.37131 -0.18,0.64977 -0.25,1 -0.0289,0.14445 -0.0237,0.29538 -0.0625,0.4375 -0.0245,0.0899 -0.101,0.16 -0.125,0.25 -0.06,0.22506 -0.0565,0.46488 -0.125,0.6875 -0.0173,0.0563 -0.0833,0.0833 -0.125,0.125 -0.0208,0.0208 -0.0535,0.0345 -0.0625,0.0625 -0.0132,0.0395 0.025,0.0917 0,0.125 -0.0597,0.0796 -0.789,0.6445 -0.875,0.6875 -0.0768,0.0384 -0.1763,0.0183 -0.25,0.0625 -0.13953,0.0837 -0.23962,0.2222 -0.375,0.3125 -0.0548,0.0365 -0.1286,0.033 -0.1875,0.0625 -0.26175,0.13087 -0.47672,0.32819 -0.75,0.4375 -0.12234,0.0489 -0.25715,0.0661 -0.375,0.125 -0.0527,0.0264 -0.0803,0.0866 -0.125,0.125 -0.27168,0.23287 -0.52639,0.53542 -0.8125,0.75 -0.0373,0.028 -0.0921,0.0296 -0.125,0.0625 -0.0329,0.0329 -0.0296,0.0921 -0.0625,0.125 -0.0147,0.0147 -0.0462,-0.013 -0.0625,0 -0.79176,0.63341 0.13861,0.0244 -0.4375,0.3125 -0.3838,0.1919 -0.68066,0.60128 -1,0.875 -0.10611,0.0909 -0.25516,0.1156 -0.375,0.1875 -0.27249,0.16349 -0.5143,0.38072 -0.8125,0.5 -0.42481,0.16992 -0.82615,0.39296 -1.25,0.5625 -0.16527,0.0661 -0.34079,0.1079 -0.5,0.1875 -0.0527,0.0264 -0.075,0.0938 -0.125,0.125 -0.11851,0.0741 -0.25366,0.1182 -0.375,0.1875 -0.25495,0.14568 -0.46284,0.37528 -0.6875,0.5625 -0.28199,0.23499 -0.66338,0.41823 -1,0.5625 -0.84924,0.364 -1.81718,0.5308 -2.75,0.4375 -0.39681,-0.0397 -0.78979,-0.1932 -1.1875,-0.25 -0.55386,-0.0791 -1.03064,-0.18729 -1.5625,-0.375 -1.13118,-0.39924 -1.77579,-0.52386 -2.75,-1.3125 -0.42586,-0.34474 -0.7452,-0.5796 -1.1323,-1.53237 -0.38191,-0.005 -0.25291,0.42874 -0.31981,0.83007 -0.0377,0.22621 -0.2017,0.42834 -0.26516,0.61871 -0.0373,0.11181 0.0231,0.23799 0,0.35356 -0.0183,0.0914 -0.0658,0.17477 -0.0884,0.26516 -0.0623,0.24929 0.0504,0.5433 0,0.7955 -0.0365,0.18272 -0.12559,0.35116 -0.17678,0.53033 -0.0324,0.11331 0.013,0.23642 0,0.35355 -0.0482,0.43404 -0.0884,0.80191 -0.0884,1.23744 v 3.62392 c 0,0.59031 -0.16816,1.42713 0.17678,1.94454 0.0907,0.13599 0.2629,0.21757 0.35355,0.35356 0.0731,0.10963 0.10369,0.24392 0.17678,0.35355 0.21276,0.31913 0.5564,0.58501 0.7955,0.88388 0.0412,0.0514 0.0418,0.1302 0.0884,0.17678 0.25217,0.25216 0.65468,0.43206 0.88389,0.70711 0.0596,0.0716 0.0302,0.19241 0.0884,0.26516 0.13272,0.1659 0.36442,0.22083 0.53033,0.35356 0.17968,0.14375 0.36761,0.27922 0.53033,0.44194 0.0466,0.0466 0.0418,0.13019 0.0884,0.17677 0.32605,0.32605 0.0357,-0.21166 0.35356,0.26517 0.60609,0.90914 -0.31147,-0.14311 0.53033,0.53033 0.10313,0.0825 0.34644,0.48502 0.44194,0.61872 0.17187,0.24061 0.52652,0.70456 0.79549,0.88388 0.0775,0.0517 0.18528,0.0404 0.26517,0.0884 0.23862,0.14317 0.53106,0.49584 0.70711,0.70711 0.068,0.0816 0.0918,0.20142 0.17677,0.26516 0.40965,0.30723 0.61775,0.26419 0.97228,0.61872 0.29061,0.29062 0.5331,0.65741 0.79549,0.97227 0.16829,0.20194 0.48172,0.39039 0.61872,0.61872 0.0479,0.0799 0.0467,0.18183 0.0884,0.26516 0.15046,0.30092 0.38685,0.59694 0.53033,0.88389 0.18331,0.36661 0.48541,0.57235 0.61872,0.97227 0.028,0.0839 -0.0145,0.17798 0,0.26517 0.0958,0.57456 0.10799,0.17659 0.26516,0.88388 0.0529,0.23821 0,0.55034 0.0442,0.53032 0.39773,0.0884 0.77559,0.41921 1.10484,0.79549 0.43425,0.063 0.0734,0.37529 0.17678,0.53033 0.40683,0.61025 0.98855,0.99507 1.41421,1.59099 0.10831,0.15163 0.0604,0.38483 0.17678,0.53033 0.13272,0.16591 0.41247,0.17678 0.53033,0.35356 0.13476,0.20215 0.0562,0.49616 0.17677,0.7071 0.32067,0.56117 1.08166,0.85996 1.41422,1.41422 0.0959,0.15978 0.0934,0.36366 0.17677,0.53033 0.35496,0.70991 0.53822,0.53822 1.06066,1.06066 0.20834,0.20833 0.322,0.49877 0.53033,0.7071 0.97169,0.97169 3.29508,1.6404 3.88909,2.82843 -0.0376,0.36752 0.2745,0.0714 0.35355,0.17678 0.1904,0.25386 0.15533,0.63609 0.35356,0.88388 0.20823,0.26029 0.49017,0.45402 0.7071,0.70711 0.84555,0.98647 1.54947,2.0798 2.47488,3.0052 0.0589,0.0589 0.11785,0.11785 0.17677,0.17678 0.0589,0 0.12775,-0.0327 0.17678,0 0.95366,0.63577 -0.12175,0.055 0.53033,0.70711 0.31796,0.31796 0.76309,0.48712 1.06066,0.88388 0.12748,0.16997 0.25854,0.3403 0.35355,0.53033 0.0264,0.0527 -0.0417,0.13511 0,0.17678 0.18634,0.18634 0.48785,0.20737 0.70711,0.35355 0.20359,0.13572 0.33438,0.38337 0.53033,0.53033 0.36516,0.27387 0.92182,0.56827 1.23744,0.88388 0.0782,0.0782 0.40069,0.75425 0.53033,0.88389 0.0417,0.0417 0.11785,0 0.17678,0 0.11785,0.0589 0.28046,0.0671 0.35355,0.17677 0.0654,0.0981 -0.0833,0.27022 0,0.35356 0.0833,0.0833 0.25549,-0.0654 0.35355,0 0.10963,0.0731 0.0836,0.26038 0.17678,0.35355 0.56917,0.56917 1.34019,0.80986 1.94454,1.41421 0.0417,0.0417 -0.0417,0.13511 0,0.17678 0.21531,0.21531 0.39496,0.0828 0.53033,0.35355 0.0263,0.0527 0,0.11786 0,0.17678 0.0589,0.17678 0.0734,0.37529 0.17678,0.53033 0.0327,0.049 0.13511,-0.0417 0.17678,0 0.0833,0.0833 -0.0527,0.24814 0,0.35355 0.38165,0.76331 0.71751,1.46624 0.88388,2.2981 0.068,0.33996 -0.068,0.72071 0,1.06066 0.1038,0.51901 0.48988,0.97976 0.70711,1.41422 0.0709,0.14184 -0.0592,0.38245 0,0.53033 0.0979,0.24467 0.27022,0.4571 0.35355,0.7071 0.15496,0.46487 0.0319,1.08404 0.17678,1.59099 0.26129,0.91452 0.82868,1.72374 1.06066,2.65165 0.0429,0.1715 -0.0429,0.35883 0,0.53033 0.0404,0.16169 0.27901,0.20448 0.35355,0.35356 0.069,0.13807 0.19909,0.72942 0.35355,0.88388 0.0417,0.0417 0.15043,-0.0527 0.17678,0 0.15446,0.30892 -0.009,0.61177 0.35355,0.88388 0.49226,0.3692 1.1703,0.73452 1.76777,0.88389 0.42361,0.1059 1.94886,0.13969 2.2981,0 0.15474,-0.0619 0.20448,-0.27902 0.35355,-0.35356 0.34574,-0.17286 1.82566,0 2.2981,0 0.0728,0 0.48353,-0.0468 0.53033,0 0.15528,0.15528 0.47099,0.88264 0.53033,1.06066 0.0559,0.16771 -0.0791,0.37222 0,0.53033 0.0373,0.0745 0.15042,0.0977 0.17677,0.17678 0.0559,0.16771 -0.079,0.37222 0,0.53033 0.36786,0.7357 -0.0122,-0.18898 0.35356,0.17678 0.11665,0.11665 0.24974,0.56681 0.53033,0.7071 0.67748,0.33874 1.43263,0.005 2.12132,0.17678 1.70139,0.42535 -0.29268,-0.13619 0.70711,0.53033 0.0981,0.0654 0.24814,-0.0527 0.35355,0 0.29814,0.14907 0.42976,0.52221 0.70711,0.70711 0.049,0.0327 0.13511,-0.0417 0.17677,0 0.125,0.125 -0.0981,0.38324 0,0.53033 0.12413,0.18619 0.54881,0.29288 0.70711,0.53033 0.30479,0.45719 0.4372,0.96437 0.70711,1.41421 0.32748,0.5458 0.71246,1.0687 1.06066,1.59099 0.18131,0.27197 0.52579,0.43514 0.7071,0.70711 0.0327,0.049 -0.0417,0.13511 0,0.17677 0.0417,0.0417 0.13511,-0.0417 0.17678,0 0.15023,0.15024 0.20332,0.3801 0.35355,0.53033 0.0417,0.0417 0.13511,-0.0417 0.17678,0 0.34156,0.34157 0.54232,0.89588 0.88388,1.23744 0.36576,0.36576 -0.0143,-0.55892 0.35356,0.17678 0.15037,0.30074 -0.1715,0.35883 0.17677,0.7071 0.0987,0.0987 0.52575,0.2583 0.70711,0.53034 0.18839,0.28259 0.23816,0.66475 0.53033,0.88388 0.0943,0.0707 0.24175,-0.0373 0.35355,0 0.38511,-0.0661 0.0589,0.29463 0.17678,0.35355 0.15811,0.0791 0.40533,-0.125 0.53033,0 0.16464,0.16465 -0.0139,0.17678 0.7513,-0.0884 0.42725,-0.38302 0.40835,-0.5254 0.48615,-0.61872 0.18893,-0.22673 1.03276,-0.38054 1.23743,-0.44195 0.18199,-0.0546 0.43349,-0.15993 0.61872,-0.17677 0.36808,-0.0335 2.11335,0.0924 2.2981,0 0.0745,-0.0373 0.0951,-0.16044 0.17678,-0.17678 0.23112,-0.0462 0.47598,0.0462 0.7071,0 0.0409,-0.008 0.0527,-0.067 0.0884,-0.0884 1.06148,-0.63688 -0.12976,0.24411 0.44194,-0.44194 0.12078,-0.14493 0.28498,-0.24891 0.44194,-0.35355 0.1414,-0.0943 0.30376,-0.27065 0.44195,-0.35356 0.18798,-0.11279 0.66927,-0.27365 0.79549,-0.44194 0.0857,-0.11425 0.24476,-0.42153 0.35355,-0.53033 0.0208,-0.0208 0.0676,0.0208 0.0884,0 0.13976,-0.13975 0.16348,-0.36085 0.26517,-0.53033 0.11492,-0.19154 0.31966,-0.34691 0.44194,-0.53033 0.0163,-0.0245 -0.0245,-0.072 0,-0.0884 0.0775,-0.0517 0.18183,-0.0467 0.26517,-0.0884 0.10606,-0.053 0.15909,-0.21213 0.26516,-0.26516 0.25238,-0.12619 0.44912,-0.0515 0.70711,-0.0884 0.62134,-0.0888 1.24807,-0.0552 1.85615,-0.17678 0.11556,-0.0231 0.24175,0.0373 0.35356,0 0.31255,-0.10418 0.37415,-0.50773 0.7071,-0.61871 0.18488,-0.0616 0.44571,-0.0903 0.61872,-0.17678 0.0373,-0.0186 0.048,-0.0783 0.0884,-0.0884 0.22866,-0.0572 0.47322,0.0292 0.70711,0 0.0924,-0.0116 0.1738,-0.0701 0.26516,-0.0884 0.20224,-0.0404 0.41529,0.0339 0.61872,0 0.0411,-0.007 0.0511,-0.0697 0.0884,-0.0884 0.14191,-0.071 0.28997,-0.13118 0.44194,-0.17677 0.1439,-0.0432 0.29375,-0.0637 0.44194,-0.0884 0.0581,-0.01 0.12625,0.0303 0.17678,0 0.12632,-0.0758 0.22723,-0.18937 0.35355,-0.26517 0.0505,-0.0303 0.12407,0.0264 0.17678,0 0.10747,-0.0537 0.25192,-0.12596 0.35355,-0.17677 0.095,-0.0475 0.19005,-0.10166 0.26517,-0.17678 0.0208,-0.0208 -0.0245,-0.072 0,-0.0884 0.0621,-0.0414 0.44356,-0.23624 0.53033,-0.26516 0.0559,-0.0186 0.12087,0.0186 0.17677,0 0.16583,-0.0553 0.29731,-0.25714 0.44195,-0.35356 0.0548,-0.0365 0.11785,-0.0589 0.17677,-0.0884 0.0589,0 0.12775,0.0327 0.17678,0 0.0548,-0.0366 0.0418,-0.1302 0.0884,-0.17678 0.0625,-0.0625 0.1861,0.0395 0.26516,0 0.13176,-0.0659 0.22179,-0.19929 0.35356,-0.26517 0.1054,-0.0527 0.23922,0.0286 0.35355,0 0.12783,-0.0319 0.22686,-0.14057 0.35355,-0.17677 0.40709,-0.11631 0.83161,-0.16371 1.23744,-0.26517 0.19055,-0.0476 0.42361,0.0244 0.61872,0 0.14731,-0.0295 0.29463,-0.0589 0.44194,-0.0884 0,-0.0295 -0.028,-0.0791 0,-0.0884 0.27483,-0.0916 0.85728,0 1.14905,0 0.42295,0 2.27378,-0.0965 2.56326,0 0.0395,0.0132 0.0489,0.0752 0.0884,0.0884 0.14688,0.049 0.47236,0 0.70719,-0.22088 0.36048,-0.22088 0.28151,-0.23172 0.53041,-0.39765 z"
         id="path216" />
    </g>
  </g>
</svg>
