<?xml version="1.0" encoding="UTF-8" standalone="no"?>
<!-- Created with Inkscape (http://www.inkscape.org/) -->

<svg
   version="1.1"
   id="svg1"
   width="90.6875"
   height="88.906189"
   viewBox="0 0 90.6875 88.906189"
   xmlns="http://www.w3.org/2000/svg"
   xmlns:svg="http://www.w3.org/2000/svg">
  <defs
     id="defs1" />
  <g
     id="layer1"
     style="display:inline"
     transform="translate(-443.15624,-152.65625)">
    <g
       id="layer60"
       style="display:inline;fill:#ffffff;fill-opacity:1;stroke:none">
      <path
         style="fill:#ffffff;fill-opacity:1;stroke:none;stroke-linecap:round"
         d="m 443.15624,162.6875 2.21875,5.3125 3.96875,1.34375 7.375,-1.28125 3.3125,-2.90625 2.875,-1.0625 1.65625,-6.1875 2.84375,-3.53125 22.15625,-1.71875 -0.375,6.875 1.875,3.9375 2.625,3 -8.59375,8.40625 4.8125,7.25 3.6875,11.1875 4.5625,6.65625 5.15625,4.1875 8.46875,3.18749 3.125,3.40625 2.34375,1.15625 2.78125,2.375 2.40625,3.46875 3.40625,0.0312 4.6875,7.71875 3.3125,3.53125 -0.125,3.46875 -22.25,4.9375 -1.8125,2.65625 -7,1.46875 -9.28125,-8.9375 -0.78125,0.0312 -5.21875,-5.4375 -4.90625,-0.21875 -1.75,-1.53125 -1.96875,-8.3125 -2.15625,-4.65625 -12.21875,-9.56249 -3.09375,-5 -1.6875,-0.0625 -8.15625,-11.21875 -6.75,-6.71875 -1.03125,-3.28125 z"
         id="path58" />
    </g>
  </g>
</svg>
