<?xml version="1.0" encoding="UTF-8" standalone="no"?>
<!-- Created with Inkscape (http://www.inkscape.org/) -->

<svg
   version="1.1"
   id="svg2"
   width="225.01669"
   height="221.07326"
   viewBox="0 0 225.01669 221.07326"
   xmlns="http://www.w3.org/2000/svg"
   xmlns:svg="http://www.w3.org/2000/svg">
  <defs
     id="defs6">
    <linearGradient
       id="swatch77">
      <stop
         style="stop-color:#e2c69e;stop-opacity:1;"
         offset="0"
         id="stop77" />
    </linearGradient>
  </defs>
  <g
     id="layer66"
     style="display:inline"
     transform="translate(-1069.5642,-613.05174)">
    <g
       id="layer9"
       style="display:inline">
      <path
         style="fill:#969696;fill-opacity:1;stroke:none;stroke-opacity:1"
         d="m 1294.5625,832 c 0,-0.44085 0.1053,-1.3596 -0.1875,-1.75 -0.035,-0.0471 -0.092,-0.076 -0.125,-0.125 -0.1108,-0.16623 -0.1927,-0.31598 -0.375,-0.4375 -0.2689,-0.17929 -0.9196,-0.51486 -1.25,-0.625 -0.3717,-0.12389 -0.7596,-0.16635 -1.125,-0.3125 -0.027,-0.0109 -0.042,-0.0417 -0.062,-0.0625 -0.042,-0.0208 -0.081,-0.0461 -0.125,-0.0625 -1.29,-0.48373 0.2156,0.13905 -0.5625,-0.25 -0.2579,-0.12897 -0.567,-0.18976 -0.8125,-0.3125 -0.2629,-0.13145 -0.596,-0.41814 -0.8125,-0.5625 -0.1831,-0.12208 -0.3035,-0.40176 -0.5,-0.5 -0.4141,-0.20706 -0.6661,-0.66614 -1,-1 -0.033,-0.0329 -0.092,-0.0296 -0.125,-0.0625 -0.2212,-0.2212 -0.3384,-0.52592 -0.5625,-0.75 -0.074,-0.0737 -0.1709,-0.11971 -0.25,-0.1875 -0.3564,0.28374 -0.1512,-0.21366 -0.1875,-0.25 -0.071,-0.0714 -0.2579,-0.14073 -0.3125,-0.25 -0.042,-0.0833 0.083,-0.0833 0,-0.1875 -0.072,-0.0895 -0.9202,-0.80969 -1,-0.875 -0.1387,-0.11349 -0.33,-0.16913 -0.4375,-0.3125 -0.025,-0.0333 0.019,-0.0877 0,-0.125 0,-0.007 -0.3811,-0.15367 -0.4375,-0.1875 -0.1592,-0.0956 -0.2158,-0.19313 -0.375,-0.3125 -0.033,-0.025 -0.095,0.0295 -0.125,0 -0.015,-0.0147 0.015,-0.0478 0,-0.0625 -0.015,-0.0147 -0.048,0.0147 -0.062,0 -0.01,-0.01 -0.1155,-0.17797 -0.125,-0.1875 -0.1912,-0.19117 0.1152,0.10203 -0.1875,-0.125 -0.2474,-0.18555 0,-0.0665 -0.25,-0.3125 -0.015,-0.0147 -0.048,0.0147 -0.062,0 -0.074,-0.0737 -0.1409,-0.15683 -0.1875,-0.25 -0.01,-0.0186 0.019,-0.0532 0,-0.0625 -0.037,-0.0186 -0.085,0.0132 -0.125,0 -0.1398,-0.0466 -0.1899,-0.23079 -0.3125,-0.3125 -0.035,-0.0231 -0.09,0.0231 -0.125,0 -0.039,-0.0258 -0.021,-0.10417 -0.062,-0.125 -0.056,-0.028 -0.1316,0.028 -0.1875,0 -0.079,-0.0395 -0.125,-0.125 -0.1875,-0.1875 -0.1458,-0.0833 -0.284,-0.18179 -0.4375,-0.25 -0.049,-0.0219 -0.2007,0.0328 -0.25,0 -0.084,-0.0558 -0.1563,-0.15627 -0.25,-0.1875 -0.04,-0.0132 -0.089,0.0214 -0.125,0 -0.076,-0.0455 -0.125,-0.125 -0.1875,-0.1875 -0.1042,-0.0625 -0.2038,-0.13318 -0.3125,-0.1875 -0.019,-0.009 -0.042,0 -0.062,0 -0.062,-0.0208 -0.131,-0.0286 -0.1875,-0.0625 -0.1412,-0.0847 -0.424,-0.34793 -0.5,-0.5 -0.2002,-0.40034 -0.3977,-0.95021 -0.6875,-1.3125 -0.055,-0.069 -0.1385,-0.11396 -0.1875,-0.1875 -0.049,-0.073 -0.1,-0.37916 -0.125,-0.4375 -0.1101,-0.25691 -0.22,-0.51744 -0.375,-0.75 -0.076,-0.11436 -0.08,-0.006 -0.125,-0.1875 -0.01,-0.0404 0.019,-0.0877 0,-0.125 -0.047,-0.0932 -0.1358,-0.15956 -0.1875,-0.25 -0.1881,-0.32926 -0.135,-0.77995 -0.25,-1.125 -0.01,-0.028 -0.053,-0.0345 -0.062,-0.0625 -0.02,-0.0593 0.028,-0.1316 0,-0.1875 -0.034,-0.0672 -0.1012,-0.11624 -0.125,-0.1875 -0.025,-0.075 0.025,-0.175 0,-0.25 -0.041,-0.1221 -0.2502,-0.37525 -0.3125,-0.4375 -0.1207,-0.12072 -0.3238,-0.13631 -0.4375,-0.25 -0.025,-0.025 -0.034,-0.0794 -0.125,-0.125 -0.05,-0.025 -0.1375,0.025 -0.1875,0 -0.2121,-0.10607 -0.402,-0.27589 -0.625,-0.375 -0.1627,-0.0723 -0.3408,-0.1079 -0.5,-0.1875 -0.067,-0.0336 -0.1178,-0.0971 -0.1875,-0.125 -0.039,-0.0155 -0.088,0.0186 -0.125,0 -0.053,-0.0263 -0.078,-0.0897 -0.125,-0.125 -0.2139,-0.16041 -0.4667,-0.27976 -0.6875,-0.4375 -0.096,-0.0685 -0.1489,-0.18937 -0.25,-0.25 -0.056,-0.0339 -0.131,-0.0286 -0.1875,-0.0625 -0.1468,-0.0881 -0.1448,-0.20729 -0.25,-0.3125 -0.015,-0.0147 -0.05,0.0167 -0.062,0 -0.1009,-0.13459 -0.3134,-0.53348 -0.375,-0.6875 -0.061,-0.15177 0,-0.91937 0,-1.125 v -2.3125 c 0,-0.36364 0.051,-0.76673 0,-1.125 -0.024,-0.17018 -0.1197,-0.40424 -0.1875,-0.5625 -0.077,-0.1793 -0.2028,-0.51017 -0.375,-0.625 -0.039,-0.0258 -0.092,-0.0296 -0.125,-0.0625 -0.074,-0.0737 -0.1138,-0.17634 -0.1875,-0.25 -0.1737,-0.17371 -0.4361,-0.26167 -0.625,-0.375 -0.089,-0.0536 -0.1568,-0.14092 -0.25,-0.1875 -0.077,-0.0384 -0.1732,-0.0241 -0.25,-0.0625 -0.123,-0.0615 -0.2662,-0.22549 -0.375,-0.3125 -0.2203,-0.17624 -0.6546,-0.40464 -0.875,-0.625 -0.094,-0.0943 -0.1487,-0.22569 -0.25,-0.3125 -0.05,-0.0429 -0.1327,-0.026 -0.1875,-0.0625 -0.2017,-0.1345 -0.5321,-0.43857 -0.6875,-0.625 -0.1042,-0.125 -0.2222,-0.23962 -0.3125,-0.375 -0.012,-0.0173 0,-0.0417 0,-0.0625 -0.042,-0.0625 -0.072,-0.13439 -0.125,-0.1875 -0.1622,-0.16222 -0.4497,-0.33683 -0.5625,-0.5625 -0.3236,-0.64724 -0.25,-1.27692 -0.25,-2 0,-0.13833 0.023,-0.30168 0,-0.4375 -0.011,-0.065 -0.052,-0.12252 -0.062,-0.1875 -0.017,-0.10275 0.033,-0.21368 0,-0.3125 -0.019,-0.0559 -0.1064,-0.0691 -0.125,-0.125 -0.013,-0.0395 0.015,-0.0863 0,-0.125 -0.07,-0.17421 -0.2378,-0.2255 -0.3125,-0.375 -0.019,-0.0373 0.03,-0.0955 0,-0.125 -0.033,-0.0329 -0.092,-0.0296 -0.125,-0.0625 0.02,-0.16667 0.059,-0.3322 0.059,-0.5 -5e-4,-0.0859 -0.046,-0.16577 -0.062,-0.25 -0.046,-0.2284 -0.065,-0.46244 -0.125,-0.6875 -0.024,-0.09 -0.095,-0.16161 -0.125,-0.25 -0.024,-0.0708 -0.061,-0.67345 -0.062,-0.6875 -0.1113,-1.00175 0.084,-2.11346 0,-3.125 -0.033,-0.39106 -0.094,-0.81182 -0.1875,-1.1875 -0.011,-0.0452 -0.056,-0.0789 -0.062,-0.125 -0.076,-0.5351 0.076,-0.47233 -0.1875,-1 -0.028,-0.0559 0.025,-0.13039 0,-0.1875 -0.1,-0.22439 -0.3295,-0.66186 -0.5,-0.875 -0.1855,-0.23189 -0.3953,-0.43663 -0.5625,-0.6875 -0.4473,-0.67101 -0.8944,-1.29676 -1.375,-1.9375 -0.1547,-0.20621 -0.2724,-0.4269 -0.4375,-0.625 -0.2547,-0.30568 -0.5369,-0.59648 -0.75,-0.9375 -0.035,-0.0559 -0.026,-0.13269 -0.062,-0.1875 -0.049,-0.0735 -0.1372,-0.11483 -0.1875,-0.1875 -0.2237,-0.32319 -0.4341,-0.65639 -0.625,-1 -0.099,-0.17847 -0.1417,-0.38198 -0.25,-0.5625 -0.2051,-0.34185 -0.5529,-0.59266 -0.75,-0.9375 -0.1082,-0.18929 -0.1858,-0.44768 -0.3125,-0.625 -0.051,-0.0719 -0.1345,-0.11679 -0.1875,-0.1875 -0.052,-0.0687 -0.024,-0.17317 -0.062,-0.25 -0.073,-0.1456 -0.2905,-0.41553 -0.375,-0.5 -0.033,-0.0329 -0.089,-0.0334 -0.125,-0.0625 -0.138,-0.11043 -0.237,-0.26457 -0.375,-0.375 -0.3803,-0.30422 -0.7954,-0.58095 -1.1875,-0.875 -0.1833,-0.13745 -0.4318,-0.20208 -0.625,-0.3125 -0.09,-0.0517 -0.1633,-0.12972 -0.25,-0.1875 -0.2271,-0.15141 -0.5362,-0.2325 -0.75,-0.375 -0.2283,-0.15222 -0.4443,-0.4652 -0.6875,-0.5625 -0.08,-0.0319 -0.1732,-0.0241 -0.25,-0.0625 -0.148,-0.074 -0.4282,-0.33678 -0.5625,-0.4375 -0.2034,-0.15258 -0.4319,-0.272 -0.625,-0.4375 -0.3947,-0.33834 -0.6979,-0.76036 -1.0625,-1.125 -0.2289,-0.22888 -0.6055,-0.44602 -0.8125,-0.6875 -0.061,-0.0707 -0.064,-0.17926 -0.125,-0.25 -0.068,-0.0791 -0.1716,-0.11891 -0.25,-0.1875 -0.3252,-0.28457 -0.6015,-0.59502 -0.9375,-0.875 -0.1143,-0.18647 -0.3449,-0.19184 -0.5,-0.3125 -0.6563,-0.51042 -0.088,-0.14583 -0.4375,-0.4375 -0.1377,-0.11473 -0.3108,-0.18578 -0.4375,-0.3125 -0.053,-0.0531 -0.072,-0.13439 -0.125,-0.1875 0.017,-0.43076 -0.2659,-0.1002 -0.375,-0.1875 -0.081,-0.0651 -0.1075,-0.18332 -0.1875,-0.25 -0.051,-0.0422 -0.1327,-0.026 -0.1875,-0.0625 -0.017,-0.0116 0,-0.0417 0,-0.0625 -0.083,-0.0625 -0.1617,-0.13229 -0.25,-0.1875 -0.2425,-0.15158 -0.2222,-0.059 -0.375,-0.25 -0.1433,-0.17909 -0.2323,-0.38408 -0.375,-0.5625 -0.1181,-0.14761 -0.2226,-0.19513 -0.3125,-0.375 -0.03,-0.0589 -0.021,-0.13606 -0.062,-0.1875 -0.047,-0.0587 -0.1406,-0.0664 -0.1875,-0.125 -0.9726,-1.55622 0.015,-0.0593 -0.4375,-0.625 -0.1588,-0.0748 -0.1037,-0.2632 -0.1875,-0.375 -0.028,-0.0373 -0.092,-0.0296 -0.125,-0.0625 -0.1381,-0.13807 -0.2159,-0.31024 -0.375,-0.4375 -0.081,-0.0651 -0.1849,-0.10616 -0.25,-0.1875 -0.066,-0.0829 0,-0.22411 -0.062,-0.3125 -0.023,-0.0347 -0.09,0.0231 -0.125,0 -0.034,-0.0227 -0.3427,-0.28018 -0.375,-0.3125 -0.033,-0.0329 -0.03,-0.0921 -0.062,-0.125 0,-0.17599 -0.1409,-0.0159 -0.1875,-0.0625 -0.033,-0.0329 -0.03,-0.0921 -0.062,-0.125 -0.052,-0.0515 -0.125,0.003 -0.125,-0.125 -0.1069,-0.4048 -0.4463,-0.73102 -0.5675,-1.125 -0.043,-0.1408 -0.022,-0.29586 -0.062,-0.4375 -0.01,-0.02 -0.053,0.0186 -0.062,0 -0.038,-0.0764 -0.038,-0.46513 -0.062,-0.5625 -0.1276,-0.31902 -0.1202,-0.25973 -0.1875,-0.5625 -0.1007,-0.45323 -0.1503,-0.92625 -0.25,-1.375 0.1305,-0.25792 -0.1396,-0.37076 -0.1875,-0.5625 -0.079,-0.31433 -0.032,-0.62708 -0.125,-0.9375 -0.075,-0.25003 -0.269,-0.44896 -0.375,-0.6875 -0.051,-0.11423 0.03,-0.25373 0,-0.375 -0.043,-0.17269 -0.1352,-0.32987 -0.1875,-0.5 -0.031,-0.10153 -0.025,-0.21304 -0.062,-0.3125 -0.026,-0.0703 -0.099,-0.11691 -0.125,-0.1875 -0.3214,-1.28545 0.084,0.18232 -0.3125,-0.875 -0.015,-0.039 0.013,-0.0855 0,-0.125 -0.01,-0.028 -0.049,-0.0362 -0.062,-0.0625 -0.2491,-0.49811 -0.5054,-1.01089 -0.75,-1.5 -0.1067,-0.2134 -0.1543,-0.47216 -0.25,-0.6875 -0.1378,-0.30997 -0.4274,-0.57106 -0.5625,-0.875 -0.043,-0.0971 -0.025,-0.21304 -0.062,-0.3125 -0.026,-0.0703 -0.094,-0.11886 -0.125,-0.1875 -0.053,-0.12041 -0.071,-0.25505 -0.125,-0.375 -0.05,-0.11059 -0.1439,-0.19912 -0.1875,-0.3125 -0.062,-0.16035 -0.06,-0.34115 -0.125,-0.5 0.4414,-0.6111 -0.2663,-0.40769 -0.375,-0.625 -0.1956,-0.39124 -0.068,-0.20444 -0.1875,-0.5625 -0.124,-0.37201 -0.4204,-0.79756 -0.625,-1.125 -0.3023,-0.4836 -0.5363,-1.0028 -0.8125,-1.5 -0.092,-0.16654 -0.2113,-0.28565 -0.3125,-0.4375 -0.012,-0.0173 0,-0.0417 0,-0.0625 -0.021,-0.0417 -0.033,-0.0886 -0.062,-0.125 -0.055,-0.069 -0.142,-0.11171 -0.1875,-0.1875 -0.022,-0.0372 -0.04,-0.27533 -0.062,-0.3125 -0.03,-0.0505 -0.1031,-0.0703 -0.125,-0.125 -0.023,-0.058 0.023,-0.12947 0,-0.1875 -0.022,-0.0547 -0.099,-0.0723 -0.125,-0.125 -0.074,-0.1475 -0.051,-0.29 -0.125,-0.4375 -0.096,-0.19185 -0.1973,-0.38154 -0.3125,-0.5625 -0.032,-0.0497 -0.099,-0.0723 -0.125,-0.125 -0.059,-0.11785 -0.061,-0.25982 -0.125,-0.375 -0.043,-0.0773 -0.1385,-0.11396 -0.1875,-0.1875 -0.1579,-0.23682 -0.2171,-0.45068 -0.375,-0.6875 -0.1324,-0.19863 -0.3472,-0.39932 -0.4375,-0.625 -0.015,-0.0387 0.021,-0.0893 0,-0.125 -0.045,-0.0758 -0.1345,-0.11679 -0.1875,-0.1875 -0.2348,-0.31304 -0.43,-0.72128 -0.625,-1.0625 -0.1139,-0.1993 -0.069,-0.20399 -0.1875,-0.5 -0.1387,-0.34668 -0.3286,-0.77008 -0.5625,-1.0625 -0.092,-0.11503 -0.2205,-0.19747 -0.3125,-0.3125 -0.2308,-0.2885 -0.022,-0.1466 -0.375,-0.5 -0.015,-0.0147 -0.048,0.0147 -0.062,0 -0.1681,-0.16815 -0.2989,-0.41888 -0.5,-0.5625 -0.1458,-0.10417 -0.2838,-0.2203 -0.4375,-0.3125 -0.056,-0.0339 -0.131,-0.0286 -0.1875,-0.0625 -0.1395,-0.0837 -0.2409,-0.22032 -0.375,-0.3125 -0.2476,-0.17022 -0.4936,-0.34333 -0.75,-0.5 -0.3166,-0.1935 -0.6778,-0.31588 -1,-0.5 -0.5611,-0.32061 -0.9484,-0.77992 -1.4375,-1.1875 -0.08,-0.0667 -0.1763,-0.11384 -0.25,-0.1875 -0.4159,-0.41586 -0.7401,-0.89144 -1.0625,-1.375 -0.1615,-0.24226 -0.4193,-0.54429 -0.625,-0.75 -0.074,-0.0737 -0.1763,-0.11384 -0.25,-0.1875 -0.4564,-0.45645 -0.5092,-0.66932 -1.0625,-1.125 -0.2914,-0.24 -0.6943,-0.39573 -1,-0.625 -0.2143,-0.16071 -0.3975,-0.34831 -0.625,-0.5 -0.3718,-0.24789 -0.7779,-0.47236 -1.125,-0.75 -0.069,-0.0552 -0.1168,-0.13447 -0.1875,-0.1875 -0.017,-0.0125 -0.042,0 -0.062,0 -0.062,-0.0417 -0.1344,-0.0719 -0.1875,-0.125 -0.033,-0.0329 -0.03,-0.0921 -0.062,-0.125 -0.015,-0.0147 -0.045,0.0116 -0.062,0 -0.3488,-0.23253 0.1416,-0.023 -0.3125,-0.25 -0.059,-0.0295 -0.1348,-0.023 -0.1875,-0.0625 -0.1179,-0.0884 -0.1947,-0.22411 -0.3125,-0.3125 -0.053,-0.0395 -0.1348,-0.023 -0.1875,-0.0625 -0.1915,-0.14364 0.038,-0.125 -0.125,-0.125 -0.1478,-0.14583 -0.2892,-0.29848 -0.4435,-0.4375 -0.2694,-0.24275 -0.5745,-0.40193 -0.8125,-0.6875 -0.062,-0.0833 -0.125,-0.16667 -0.1875,-0.25 0,-0.0208 0.013,-0.0458 0,-0.0625 -0.1381,-0.18409 -0.3699,-0.37963 -0.5625,-0.5 -0.1274,-0.0796 -0.2325,-0.20249 -0.375,-0.25 -0.1008,-0.0336 -0.2139,-0.0231 -0.3125,-0.0625 -0.2686,0.0147 -0.3137,-0.28183 -0.5,-0.375 -0.1357,-0.0678 -0.2955,-0.0717 -0.4375,-0.125 -0.1524,-0.0571 -0.2337,-0.23177 -0.375,-0.3125 -0.036,-0.0207 -0.089,0.0207 -0.125,0 -0.8474,-0.48421 0.1296,-0.0674 -0.5625,-0.375 -0.3914,-0.17394 -0.8184,-0.27855 -1.1875,-0.5 -0.4791,-0.28748 -0.8702,-0.73076 -1.3125,-1.0625 -0.097,-0.0729 -0.2166,-0.11292 -0.3125,-0.1875 -0.093,-0.0724 -0.1519,-0.18463 -0.25,-0.25 -0.093,-0.0622 -0.2174,-0.0655 -0.3125,-0.125 -0.2714,-0.16964 -0.4673,-0.4673 -0.6875,-0.6875 -0.074,-0.0737 -0.1799,-0.11042 -0.25,-0.1875 -0.1401,-0.15416 -0.2337,-0.34692 -0.375,-0.5 -0.1104,-0.11956 -0.2599,-0.19745 -0.375,-0.3125 -0.1151,-0.11506 -0.1974,-0.25995 -0.3125,-0.375 -0.033,-0.0329 -0.092,-0.0296 -0.125,-0.0625 -0.1151,-0.11506 -0.1974,-0.25995 -0.3125,-0.375 -0.1986,-0.19862 -0.4394,-0.33979 -0.625,-0.5625 -0.085,-0.10248 -0.1557,-0.21817 -0.25,-0.3125 -0.1521,-0.15214 -0.4228,-0.27453 -0.5625,-0.4375 -0.079,-0.0922 -0.1129,-0.21661 -0.1875,-0.3125 -0.072,-0.093 -0.1764,-0.15798 -0.25,-0.25 -0.3105,-0.38816 -0.6038,-0.80808 -1,-1.125 -0.095,-0.0759 -0.2153,-0.11461 -0.3125,-0.1875 -0.2478,-0.18583 -0.4685,-0.406 -0.6875,-0.625 -0.033,-0.0329 -0.03,-0.0921 -0.062,-0.125 -0.3,-0.30001 -0.6845,-0.52858 -1,-0.8125 -0.1314,-0.11826 -0.232,-0.27103 -0.375,-0.375 -0.091,-0.066 -0.2192,-0.0628 -0.3125,-0.125 -0.2476,-0.16509 -0.437,-0.45802 -0.6875,-0.625 -0.1398,-0.0932 -0.3049,-0.14688 -0.4375,-0.25 -0.059,-0.0461 -0.072,-0.13439 -0.125,-0.1875 -0.033,-0.0329 -0.087,-0.0354 -0.125,-0.0625 -0.4319,-0.3085 -0.8928,-0.62269 -1.3125,-0.9375 -0.2267,-0.17002 -0.4638,-0.32603 -0.6875,-0.5 -0.4757,-0.37002 -0.021,-0.13831 -0.5,-0.4375 -0.079,-0.0494 -0.1742,-0.0708 -0.25,-0.125 -0.3143,-0.22452 -0.5818,-0.56117 -0.875,-0.8125 -0.1458,-0.125 -0.2875,-0.25501 -0.4375,-0.375 -0.095,-0.0759 -0.2176,-0.11161 -0.3125,-0.1875 -0.016,-0.013 0.015,-0.0478 0,-0.0625 -0.1062,-0.10623 -0.2688,-0.14377 -0.375,-0.25 -0.053,-0.0531 -0.072,-0.13439 -0.125,-0.1875 -0.1161,-0.11608 -0.672,-0.59966 -0.8125,-0.6875 -0.095,-0.0595 -0.2212,-0.0598 -0.3125,-0.125 -0.061,-0.0437 -0.083,-0.125 -0.125,-0.1875 -0.1875,-0.10417 -0.3786,-0.20215 -0.5625,-0.3125 -0.2533,-0.15197 -0.259,-0.47325 -0.4375,-0.6875 -0.2293,-0.2752 -0.4624,-0.54975 -0.625,-0.875 -0.03,-0.0589 -0.03,-0.1303 -0.062,-0.1875 -0.052,-0.0904 -0.1358,-0.15956 -0.1875,-0.25 -0.097,-0.16956 -0.2039,-0.54263 -0.3125,-0.6875 -0.028,-0.0373 -0.096,-0.0261 -0.125,-0.0625 -0.4241,-0.53008 0.1871,0.007 -0.3125,-0.4375 -0.1875,-0.16667 -0.3498,-0.36704 -0.5625,-0.5 -0.095,-0.0595 -0.2144,-0.0705 -0.3125,-0.125 -0.8307,-0.46149 0.1255,0.0212 -0.375,-0.3125 -0.078,-0.0517 -0.1742,-0.0708 -0.25,-0.125 -0.1199,-0.0856 -0.1926,-0.22688 -0.3125,-0.3125 -0.1539,-0.162 -0.3868,-0.1895 -0.5625,-0.3125 -0.1574,-0.11015 -0.2657,-0.2891 -0.4375,-0.375 -0.1003,-0.0502 -0.2163,-0.0673 -0.3125,-0.125 -0.018,-0.0107 0.012,-0.0452 0,-0.0625 -0.033,-0.049 -0.076,-0.0923 -0.125,-0.125 -0.2817,-0.18777 -0.8329,-0.60719 -1.0625,-0.875 -0.014,-0.0158 0,-0.0417 0,-0.0625 -0.021,-0.0417 -0.03,-0.0921 -0.062,-0.125 -0.015,-0.0147 -0.048,0.0147 -0.062,0 -0.053,-0.0531 -0.072,-0.13439 -0.125,-0.1875 -0.015,-0.0147 -0.045,0.0116 -0.062,0 -0.1411,-0.0941 -0.3315,-0.31386 -0.4375,-0.4375 -0.1652,-0.19269 -0.2761,-0.43673 -0.4375,-0.625 -0.049,-0.057 -0.1344,-0.0719 -0.1875,-0.125 -0.394,-0.39396 0.5243,0.26825 -0.25,-0.3125 -0.179,-0.13425 0.075,0.20458 -0.125,-0.0625 -0.4742,-0.6322 0.1729,0.22571 -0.1875,-0.375 -0.086,-0.14424 -0.3,-0.22499 -0.375,-0.375 -0.1113,-0.2226 -0.243,-0.40493 -0.375,-0.625 -0.061,-0.10106 -0.1793,-0.15572 -0.25,-0.25 -0.097,-0.12918 -0.1133,-0.41417 -0.1875,-0.5625 -0.01,-0.0186 -0.051,0.0173 -0.062,0 -0.078,-0.11628 -0.1196,-0.25283 -0.1875,-0.375 -0.016,-0.15636 -0.1828,-0.19727 -0.25,-0.3125 -0.1408,-0.24144 -0.2269,-0.51298 -0.375,-0.75 -0.2151,-0.34413 -0.4787,-0.652 -0.6875,-1 -0.048,-0.0799 -0.071,-0.17419 -0.125,-0.25 -0.165,-0.23104 -0.776,-0.83203 -1,-1 -0.037,-0.028 -0.092,-0.0296 -0.125,-0.0625 -0.1084,-0.10839 -0.1767,-0.27317 -0.3125,-0.375 -0.06,-0.0451 -0.1344,-0.0719 -0.1875,-0.125 -0.1426,-0.1426 -0.2324,-0.29491 -0.375,-0.4375 -0.053,-0.0531 -0.138,-0.0685 -0.1875,-0.125 -0.1989,-0.22731 -0.3061,-0.52377 -0.5,-0.75 -0.1438,-0.16777 -0.4097,-0.28474 -0.5625,-0.4375 -0.033,-0.0329 -0.03,-0.0921 -0.062,-0.125 -0.1062,-0.10623 -0.2577,-0.15615 -0.375,-0.25 -0.1645,-0.13162 -0.343,-0.30664 -0.5,-0.4375 -0.3557,-0.29638 -0.545,-0.80083 -0.9375,-1.0625 -0.3421,-0.22807 -0.6112,-0.50527 -0.9375,-0.75 -0.266,-0.19953 -0.5234,-0.23043 -0.8125,-0.375 -0.2731,-0.13656 -0.5518,-0.30715 -0.8125,-0.4375 -0.1906,-0.0953 0.1143,-0.0495 -0.1875,-0.125 -0.073,-0.0183 -0.2369,0 -0.3125,0 -0.7703,-0.59106 -1.6462,-1.04673 -2.3785,-1.6875 -0.089,-0.0776 -0.1588,-0.17537 -0.25,-0.25 -0.3209,-0.26257 -0.7058,-0.54195 -1.0625,-0.75 -0.1772,-0.10339 -0.3885,-0.14125 -0.5625,-0.25 -0.075,-0.0468 -0.1156,-0.13613 -0.1875,-0.1875 -0.2229,-0.15924 -0.5693,-0.31588 -0.8125,-0.4375 -0.1509,-0.0755 -0.9784,-0.34976 -1.0625,-0.375 -0.04,-0.012 -0.087,0.0164 -0.125,0 -0.1747,-0.0749 -0.5134,-0.27055 -0.6875,-0.375 -0.486,-0.29159 -1.0389,-1.14625 -1.3125,-1.625 -0.1487,-0.26027 -0.4482,-0.46429 -0.5625,-0.75 -0.015,-0.0387 0.019,-0.0877 0,-0.125 -0.047,-0.0932 -0.1323,-0.16167 -0.1875,-0.25 -0.099,-0.15802 -0.1466,-0.34496 -0.25,-0.5 -0.033,-0.049 -0.092,-0.076 -0.125,-0.125 -0.3897,-0.58451 0.263,0.1631 -0.375,-0.6875 -0.028,-0.0373 -0.099,-0.0237 -0.125,-0.0625 -0.023,-0.0347 0.023,-0.0903 0,-0.125 -0.026,-0.0388 -0.092,-0.0296 -0.125,-0.0625 -0.087,-0.0868 -0.1238,-0.24938 -0.25,-0.3125 -0.05,-0.025 -0.1375,0.025 -0.1875,0 -0.1362,0.0234 -0.021,-0.10417 -0.062,-0.125 -0.037,-0.0186 -0.088,0.0186 -0.125,0 -0.29,0.0535 -0.072,-0.13439 -0.125,-0.1875 -0.047,-0.0466 -0.1327,-0.026 -0.1875,-0.0625 -0.1022,-0.0681 -0.01,-0.125 -0.095,0.125 0.03,0.1196 -0.099,0.18059 -0.1578,0.0625 -0.1148,-0.2296 -0.2751,-0.4085 -0.4375,-0.625 -0.025,-0.0333 0.023,-0.0903 0,-0.125 -0.033,-0.049 -0.096,-0.0738 -0.125,-0.125 -0.1378,-0.24108 -0.171,-0.61872 -0.25,-0.875 -0.089,-0.2889 -0.2175,-0.52833 -0.3125,-0.8125 -0.1195,-0.35807 0.01,-0.17126 -0.1875,-0.5625 -0.013,-0.0263 -0.041,-0.0417 -0.062,-0.0625 -0.062,-0.16667 -0.1255,-0.33333 -0.1875,-0.5 -0.033,-0.20544 7e-4,-0.41667 0,-0.625 -0.02,0 -0.047,0.0147 -0.062,0 -0.03,-0.0295 0.019,-0.0877 0,-0.125 -0.057,-0.11423 -0.171,-0.2133 -0.25,-0.3125 -0.215,-0.26878 -0.532,-0.50157 -0.6875,-0.8125 -0.038,-0.0768 -0.019,-0.1754 -0.062,-0.25 -0.044,-0.0767 -0.1355,-0.116 -0.1875,-0.1875 -0.187,-0.25719 -0.3092,-0.5581 -0.5,-0.8125 -0.1852,-0.24696 -0.4087,-0.40872 -0.625,-0.625 -0.086,-0.0859 -0.1015,-0.2266 -0.1875,-0.3125 -0.1618,-0.16181 -0.4043,-0.26945 -0.5625,-0.4375 -0.4161,-0.44209 -0.9167,-1.10939 -1.4375,-1.5 -0.2009,-0.15068 -0.5018,-0.28894 -0.6875,-0.4375 -0.3352,-0.26814 -0.6731,-0.53228 -1,-0.8125 -0.3198,-0.27415 -0.6658,-0.62054 -0.9375,-0.9375 -0.3576,-0.41719 -0.2387,-0.41597 -0.8125,-0.875 -0.016,-0.013 -0.045,0.0116 -0.062,0 -0.4711,-0.31404 -0.1551,-0.20957 -0.6875,-0.5 -0.098,-0.0537 -0.2155,-0.0693 -0.3125,-0.125 -0.1957,-0.1118 -0.3679,-0.26146 -0.5625,-0.375 -0.2089,-0.12183 -0.4658,-0.21175 -0.6875,-0.3125 -1.0942,-0.49738 0.2756,0.10654 -0.6875,-0.375 -0.3442,-0.17211 -0.7236,-0.25504 -1.0625,-0.4375 -0.3062,-0.1649 -0.5085,-0.39359 -0.8125,-0.5625 -0.3021,-0.16782 -0.5949,-0.23767 -0.9375,-0.4375 -0.262,-0.15283 -0.571,-0.4298 -0.875,-0.5 -0.7809,-0.1802 -1.5834,-0.38691 -2.375,-0.5 -0.4065,-0.0581 -0.7802,-0.0653 -1.1875,-0.1875 -0.028,-0.009 -0.034,-0.0522 -0.062,-0.0625 -0.142,-0.0533 -0.2967,-0.0687 -0.4375,-0.125 -0.211,-0.0844 -0.5437,-0.5565 -0.6875,-0.5625 -0.2508,-1.25411 0.205,1.13119 -0.062,-0.875 -0.04,-0.30068 -0.196,-0.57656 -0.25,-0.875 -0.4714,-2.59267 0.079,0.39462 -0.125,-1.4375 -0.021,-0.1909 -0.103,-0.37174 -0.125,-0.5625 -0.046,-0.39312 0.021,-0.79222 0,-1.1875 -0.022,-0.42306 -0.194,-0.67342 -0.25,-1.0625 -0.047,-0.32874 -0.084,-0.67092 -0.125,-1 -0.021,-0.16538 0.014,-0.33391 0,-0.5 -0.032,-0.37846 -0.091,-0.74756 -0.125,-1.125 -0.017,-0.18596 0.017,-0.37654 0,-0.5625 -0.023,-0.25241 -0.107,-0.4972 -0.125,-0.75 -0.026,-0.37101 0.034,-0.75442 0,-1.125 -0.027,-0.29706 -0.1325,-0.58182 -0.1875,-0.875 -0.144,-0.76927 0.01,0.054 -0.062,-0.875 -0.01,-0.10592 -0.052,-0.20658 -0.062,-0.3125 -0.049,-0.63444 0,-1.30133 0,-1.9375 v -3 c 0,-0.4714 0.039,-0.96767 0,-1.4375 -0.094,-1.12545 -0.017,0.25239 -0.125,-0.5 -0.044,-0.30993 0.029,-0.47752 -0.062,-0.8125 -0.053,-0.19245 -0.197,-0.43255 -0.25,-0.625 -0.096,-0.35102 -0.171,-0.70733 -0.25,-1.0625 -0.073,-0.32658 -0.069,-0.68414 -0.1875,-1 -0.1361,-0.36303 -0.28,-0.74333 -0.375,-1.125 -0.052,-0.21838 -0.04,-0.46364 -0.062,-0.6875 0.1879,-0.23522 -0.101,-0.32993 -0.125,-0.5 -0.018,-0.12375 0.04,-0.25642 0,-0.375 -0.061,-0.18273 -0.086,-0.36881 -0.125,-0.5625 -0.1002,-0.5008 0.1002,-1.0617 0,-1.5625 -0.01,-0.0457 -0.051,-0.0798 -0.062,-0.125 -0.018,-0.0727 0.024,-0.1776 0,-0.25 -0.03,-0.0884 -0.11,-0.1581 -0.125,-0.25 -0.034,-0.20508 -0.024,-1.08614 -0.125,-1.1875 -0.044,-2.43856 -0.065,-4.87105 -0.065,-7.3125 v -1.9375 c 0,-0.16667 0.03,-0.33602 0,-0.5 -0.038,-0.21066 -0.1471,-0.60662 -0.25,-0.8125 -0.054,-0.10865 -0.1495,-0.19726 -0.1875,-0.3125 -0.026,-0.0791 0.018,-0.1686 0,-0.25 -0.095,-0.42757 -0.376,-0.79119 -0.5625,-1.1875 -0.136,-0.28825 0,-0.11857 -0.062,-0.5 -0.017,-0.10275 -0.1405,-0.1568 -0.1875,-0.25 -0.1544,-0.30884 -0.2304,-0.7732 -0.375,-1.0625 -0.026,-0.0527 -0.099,-0.0723 -0.1932,-0.4424 -0.094,-0.3701 -0.2908,-0.4117 -0.3738,-0.3701 -0.4252,0.21262 -0.5196,0.52283 -0.875,0.9375 -0.077,0.0895 -0.1489,0.1894 -0.25,0.25 -0.25,0.1485 0,-0.18469 -0.25,0.0625 -0.032,0.0329 -0.023,0.0992 -0.062,0.125 -0.035,0.0231 -0.085,-0.0132 -0.125,0 -0.1013,0.0338 -0.2119,0.1997 -0.3125,0.25 -0.051,0.0254 -0.2615,0.0371 -0.3125,0.0625 -0.093,0.0466 -0.161,0.1339 -0.25,0.1875 -0.091,0.0545 -0.2175,0.015 -0.3125,0.0625 -0.019,0.009 0.015,0.0478 0,0.0625 -0.066,0.0659 -0.184,0.0591 -0.25,0.125 -0.078,0.0776 -0.2735,0.32061 -0.3125,0.4375 -0.027,0.0815 0.093,0.191 -0.062,0.25 -0.013,0.0263 -0.052,0.0345 -0.062,0.0625 -0.013,0.0395 0.013,0.0855 0,0.125 -0.01,0.028 -0.062,0.0334 -0.062,0.0625 -0.024,0.14385 0.029,0.2945 0,0.4375 -0.022,0.10971 -0.1675,0.4401 -0.1875,0.5 -0.027,0.0815 -0.041,0.1667 -0.062,0.25 0,0.0417 0.013,0.0855 0,0.125 -0.03,0.0884 -0.092,0.1628 -0.125,0.25 -0.095,0.25298 -0.032,0.57988 -0.125,0.8125 -0.028,0.0697 -0.083,0.125 -0.125,0.1875 -0.02,0.0208 -0.051,0.0353 -0.062,0.0625 -0.6919,1.66062 -0.045,0.13657 -0.3125,0.9375 -0.035,0.10652 -0.1775,0.287 -0.1875,0.375 -0.014,0.14645 0.039,0.29167 0.059,0.4375 0,0.58864 -0.1045,1.16543 -0.1875,1.75 -0.026,0.18311 0.03,0.38009 0,0.5625 -0.023,0.1359 -0.1265,0.37736 -0.1875,0.5 -0.079,0.1588 -0.075,-0.064 -0.125,0.1875 -0.023,0.11563 0.029,0.25929 0,0.375 -0.046,0.18188 -0.1435,0.17907 -0.1875,0.3125 -0.087,0.26234 -0.027,0.59496 -0.062,0.875 -0.053,0.42028 -0.203,0.82915 -0.25,1.25 -0.035,0.31282 -0.081,0.62932 -0.125,0.9375 -0.034,0.24136 0,0.51245 -0.062,0.75 -0.062,0.24692 -0.1255,0.50308 -0.1875,0.75 -0.043,0.17268 -0.2695,0.27926 -0.1875,0.5 -0.021,0.1233 0.015,0.25096 0,0.375 -0.01,0.0462 -0.05,0.0801 -0.062,0.125 -0.1747,0.64061 -0.2906,1.2469 -0.5,1.875 -0.04,0.11858 0.018,0.25125 0,0.375 -0.023,0.15718 -0.1475,0.33994 -0.1875,0.5 -0.02,0.0808 0.012,0.1675 0,0.25 -0.059,0.4126 -0.053,0.0949 -0.1875,0.5 -0.08,0.24267 0.017,0.57671 -0.062,0.8125 -0.03,0.0884 -0.095,0.1616 -0.125,0.25 -0.081,0.24583 -0.03,0.55747 -0.062,0.8125 -0.01,0.0654 -0.052,0.1223 -0.062,0.1875 -0.053,0.37286 0,0.81229 0,1.1875 0,0.48529 -0.077,1.09931 0,1.5625 0.012,0.0741 0.097,0.1178 0.125,0.1875 0.047,0.11659 -0.016,0.3897 0,0.5 0.019,0.13642 0.105,0.30108 0.125,0.4375 0.01,0.0619 -0.012,0.1262 0,0.1875 0.018,0.0905 0.107,0.222 0.125,0.3125 0.089,0.44717 0,0.93231 0.125,1.375 0.01,0.0283 0.052,0.0345 0.062,0.0625 0.082,0.24447 0.1365,0.49731 0.1875,0.75 0.102,0.5144 -0.1876,-0.24887 0.062,0.5 0.03,0.0884 0.099,0.1604 0.125,0.25 0.076,0.26726 0.1335,0.53994 0.1875,0.8125 0.07,0.35195 0.1165,0.71016 0.1875,1.0625 0.041,0.20531 -0.3746,0.45696 0.062,0.625 0.021,0.0908 0.108,0.1583 0.125,0.25 0.078,0.43302 -0.01,0.94569 0.062,1.375 0.015,0.0919 0.09,0.1635 0.125,0.25 0.147,0.3688 -0.012,-0.008 0.062,0.4375 0.034,0.20287 0.276,0.45995 0.375,0.625 0.067,0.1123 0.1025,0.31047 0.1875,0.4375 0.049,0.074 0.1605,0.1689 0.1875,0.25 0.036,0.10852 -0.023,0.26257 0,0.375 0.012,0.0646 0.026,0.1327 0.062,0.1875 0.011,0.0173 0.062,-0.0207 0.062,0 0.046,0.41621 0.02,0.83387 0.062,1.25 0.036,0.35736 0.1615,0.7043 0.1875,1.0625 0.032,0.44316 0,1.1749 0,1.5625 v 2.25 7.75 c 0,0.37674 0.1168,1.03738 -0.25,1.3125 -0.033,0.025 -0.085,-0.0132 -0.125,0 -0.056,0.0186 -0.072,0.0987 -0.125,0.125 -0.059,0.0295 -0.1285,0.033 -0.1875,0.0625 -0.083,0.0417 -0.184,0.0591 -0.25,0.125 -0.032,0.0329 -0.029,0.0921 -0.062,0.125 -0.03,0.0295 -0.095,-0.0295 -0.125,0 -0.015,0.0147 0.015,0.0478 0,0.0625 -0.03,0.0295 -0.085,-0.0132 -0.125,0 -0.1994,0.0665 -0.3956,0.007 -0.5625,0.0625 -0.1064,0.0355 -0.2046,0.0942 -0.3125,0.125 -0.2558,0.0731 -0.9557,0 -1.25,0 -0.6748,0 -1.3942,0.051 -2,-0.3125 -0.09,-0.0536 -0.094,-0.2034 -0.1875,-0.25 -0.1414,-0.0707 -0.1702,-0.0926 -0.3125,-0.1875 -0.017,-0.0116 -0.047,0.0147 -0.062,0 -0.042,-0.0424 -0.1273,-0.3137 -0.25,-0.375 -0.2033,-0.1016 -0.1487,-0.0158 -0.3125,-0.125 -0.3084,-0.20562 -0.5392,-0.50407 -0.8125,-0.75 -0.628,-0.56519 0.1288,0.16556 -0.3125,-0.1875 -0.1372,-0.10978 -0.2707,-0.3273 -0.4375,-0.375 -0.646,-0.1846 -0.1257,0.0415 -0.625,-0.125 -0.1947,-0.0649 -0.3634,-0.2002 -0.5625,-0.25 -0.081,-0.0202 -0.169,0.0202 -0.25,0 -0.09,-0.0226 -0.164,-0.0904 -0.25,-0.125 -0.3316,-0.13265 -0.6655,-0.24955 -1,-0.375 -0.421,-0.15787 -0.717,-0.3591 -1.1875,-0.4375 -0.3518,-0.0586 -0.7341,0.20545 -1.0625,-0.125 -2.2338,-0.40614 0.678,0.10899 -0.9375,-0.25 -0.1975,-0.0439 -0.4257,0.0332 -0.625,0 -0.2929,-0.0488 -0.5817,-0.0717 -0.875,-0.125 -0.2585,-0.047 -0.5098,-0.1539 -0.75,-0.25 -0.07,-0.0279 -0.1175,-0.0971 -0.1875,-0.125 -0.1929,-0.0772 -0.3173,-0.0961 -0.5,-0.1875 -0.079,-0.0395 -0.1255,-0.125 -0.1875,-0.1875 -0.1,-0.1 -0.285,-0.25483 -0.375,-0.375 -0.1287,-0.1716 -0.1895,-0.38678 -0.3125,-0.5625 -0.1475,-0.21074 -0.3904,-0.48103 -0.5625,-0.6875 -0.057,-0.0679 -0.1425,-0.1117 -0.1875,-0.1875 -0.021,-0.0357 0.023,-0.0903 0,-0.125 -0.065,-0.0981 -0.179,-0.1557 -0.25,-0.25 -0.056,-0.0745 -0.072,-0.1737 -0.125,-0.25 -0.153,-0.21857 -0.3949,-0.37978 -0.5,-0.625 -0.025,-0.0575 0.023,-0.1295 0,-0.1875 -0.022,-0.0547 -0.092,-0.076 -0.125,-0.125 -0.098,-0.14644 -0.2665,-0.614 -0.3125,-0.6875 -0.01,-0.0177 -0.047,0.0147 -0.062,0 -0.1536,-0.15358 -0.3109,-0.44207 -0.4375,-0.625 -0.1283,-0.18528 -0.25,-0.375 -0.375,-0.5625 -0.02,-0.0625 -0.027,-0.1316 -0.062,-0.1875 -0.071,-0.11312 -0.194,-0.19162 -0.25,-0.3125 -0.1839,-0.39405 -0.2187,-0.74201 -0.4375,-1.125 -0.2622,-0.45892 -0.5965,-0.8891 -0.8125,-1.375 -0.017,-0.0381 0.013,-0.0855 0,-0.125 -0.01,-0.028 -0.049,-0.0362 -0.062,-0.0625 -0.097,-0.19336 -0.1296,-0.38184 -0.25,-0.5625 -0.081,-0.12206 -0.2681,-0.39309 -0.375,-0.5 -0.033,-0.0329 -0.092,-0.0296 -0.125,-0.0625 -0.032,-0.0329 -0.034,-0.0877 -0.062,-0.125 -0.098,-0.13017 -0.1974,-0.25995 -0.3125,-0.375 -0.014,-0.0147 -0.047,0.0147 -0.062,0 -0.053,-0.0531 -0.072,-0.1344 -0.125,-0.1875 -0.089,-0.0891 -0.2145,-0.0518 -0.3125,-0.125 -0.037,-0.028 -0.022,-0.101 -0.062,-0.125 -0.074,-0.0442 -0.173,-0.0241 -0.25,-0.0625 -0.019,-0.009 0.019,-0.0535 0,-0.0625 -0.3196,-0.1598 -0.6677,-0.1946 -1,-0.25 -0.1703,-0.0284 -0.2405,-0.1203 -0.375,-0.1875 -0.037,-0.0186 -0.095,0.0295 -0.125,0 -0.032,-0.0329 -0.029,-0.0921 -0.062,-0.125 -0.047,-0.0466 -0.1405,-0.0159 -0.1875,-0.0625 -0.032,-0.0329 -0.029,-0.0921 -0.062,-0.125 -0.033,-0.0329 -0.092,-0.0296 -0.125,-0.0625 -0.14,-0.14003 -0.3809,-0.656 -0.5045,-0.6875 0,-0.1199 -0.043,-0.035 -0.125,-0.0625 -0.1591,-0.053 -0.2974,-0.1799 -0.4375,-0.25 -0.5713,-0.2857 -0.046,0.0417 -0.6875,-0.25 -0.2293,-0.10422 -0.4737,-0.3187 -0.6875,-0.4375 -0.058,-0.032 -0.1315,-0.0286 -0.1875,-0.0625 -0.1533,-0.092 -0.1348,-0.1431 -0.3125,-0.1875 -0.1011,-0.0253 -0.2114,0.0253 -0.3125,0 -0.083,-0.0208 -0.697,-0.3286 -0.75,-0.375 -0.1004,-0.0878 -0.163,-0.21122 -0.25,-0.3125 -0.2629,-0.30674 -0.6275,-0.56756 -0.8125,-0.9375 -0.019,-0.0373 0.013,-0.0855 0,-0.125 -0.033,-0.0988 -0.1485,-0.1533 -0.1875,-0.25 -0.039,-0.0967 0.025,-0.21144 0,-0.3125 0,-0.0152 -0.344,-0.4749 -0.375,-0.5 -0.073,-0.0582 -0.179,-0.0644 -0.25,-0.125 -0.2275,-0.19498 -0.3759,-0.50068 -0.625,-0.6875 -0.5569,-0.41771 -0.3359,-0.2227 -0.875,-0.3125 -0.1665,-0.0278 -0.1525,-0.0895 -0.1875,-0.125 -0.03,-0.0295 -0.088,0.0186 -0.125,0 -0.2006,-0.1003 -0.4971,-0.41334 -0.625,-0.5625 -0.2603,-0.30365 -0.3745,-0.71342 -0.5625,-1.0625 -0.2098,-0.38959 -0.4691,-0.74278 -0.6875,-1.125 -0.096,-0.16754 -0.083,-0.37374 -0.125,-0.5 -0.026,-0.0767 -0.22,-0.252 -0.25,-0.3125 -0.029,-0.0589 0.076,-0.156 -0.062,-0.1875 -0.1042,-0.13889 -0.2083,-0.15625 -0.3125,-0.3125 -0.036,-0.0548 -0.015,-0.1409 -0.062,-0.1875 -0.047,-0.0466 -0.1405,-0.0159 -0.1875,-0.0625 -0.046,-0.0466 -0.032,-0.1286 -0.062,-0.1875 -0.1082,-0.21636 -0.3608,-0.36759 -0.5,-0.5625 -0.054,-0.0758 -0.076,-0.171 -0.125,-0.25 -0.055,-0.0883 -0.1405,-0.1568 -0.1875,-0.25 -0.019,-0.0373 0.023,-0.0903 0,-0.125 -0.065,-0.0981 -0.172,-0.1613 -0.25,-0.25 -0.2178,-0.24888 -0.3396,-0.51458 -0.5,-0.8125 -0.1629,-0.30248 -0.2488,-0.62205 -0.375,-0.9375 -0.028,-0.0697 -0.101,-0.1162 -0.125,-0.1875 -0.013,-0.0395 0.013,-0.0855 0,-0.125 -0.019,-0.0559 -0.103,-0.0703 -0.125,-0.125 -0.031,-0.0798 -0.024,-0.1732 -0.062,-0.25 -0.01,-0.0186 -0.049,0.0167 -0.062,0 -0.121,-0.16138 -0.2087,-0.42944 -0.375,-0.5625 -0.051,-0.0412 -0.1455,-0.0119 -0.1875,-0.0625 -0.072,-0.0862 -0.083,-0.20833 -0.125,-0.3125 -0.1042,-0.10417 -0.2083,-0.20833 -0.3125,-0.3125 -0.098,-0.11407 -0.154,-0.25959 -0.25,-0.375 -0.3095,-0.3714 -0.7612,-0.76968 -1,-1.1875 -0.032,-0.0572 -0.022,-0.1348 -0.062,-0.1875 -0.066,-0.0877 -0.2325,-0.14746 -0.3125,-0.25 -0.3759,-0.48332 -0.5739,-0.6705 -1,-1.125 -0.2899,-0.30918 -0.5732,-0.69821 -0.875,-1 -0.033,-0.0329 -0.095,-0.0267 -0.125,-0.0625 -0.078,-0.0933 -0.1125,-0.2166 -0.1875,-0.3125 -0.2329,-0.29939 -0.5149,-0.57278 -0.75,-0.875 -0.075,-0.0959 -0.1115,-0.2176 -0.1875,-0.3125 -0.2721,-0.3402 -0.1039,-0.0414 -0.4375,-0.375 -0.053,-0.0531 -0.075,-0.131 -0.125,-0.1875 -0.097,-0.11087 -0.2265,-0.19263 -0.3125,-0.3125 -0.024,-0.0339 0.024,-0.0909 0,-0.125 -0.127,-0.18143 -0.2917,-0.33333 -0.4375,-0.5 -0.042,-0.0208 -0.094,-0.0274 -0.125,-0.0625 -0.2289,-0.26162 -0.5517,-0.78984 -0.75,-1.0625 -0.4067,-0.55918 -0.7429,-1.17691 -1.125,-1.75 -0.077,-0.11628 -0.1065,-0.26128 -0.1875,-0.375 -0.1458,-0.20414 -0.3709,-0.34739 -0.5,-0.5625 -0.021,-0.0357 0.023,-0.0903 0,-0.125 -0.065,-0.0981 -0.179,-0.1557 -0.25,-0.25 -0.056,-0.0745 -0.071,-0.1742 -0.125,-0.25 -0.051,-0.0719 -0.1325,-0.1185 -0.1875,-0.1875 -0.1049,-0.13116 -0.152,-0.30082 -0.25,-0.4375 -0.1663,-0.23276 -0.4764,-0.62483 -0.6875,-0.8125 -0.091,-0.0807 -0.2315,-0.0972 -0.3125,-0.1875 -0.1124,-0.12485 -0.1492,-0.30313 -0.25,-0.4375 -0.028,-0.0373 -0.092,-0.0296 -0.125,-0.0625 -0.2667,-0.26674 -0.4515,-0.58661 -0.6875,-0.875 -0.093,-0.11402 -0.2175,-0.20004 -0.3125,-0.3125 -0.1346,-0.15904 -0.25,-0.33333 -0.375,-0.5 0,-0.0625 0.028,-0.1316 0,-0.1875 -0.039,-0.0791 -0.1325,-0.1185 -0.1875,-0.1875 -0.087,-0.10913 -0.1065,-0.26128 -0.1875,-0.375 -0.051,-0.0719 -0.1255,-0.125 -0.1875,-0.1875 -0.042,-0.0208 -0.095,-0.0267 -0.125,-0.0625 -0.078,-0.0933 -0.1205,-0.21143 -0.1875,-0.3125 -0.1228,-0.18427 -0.5355,-0.13172 -0.4375,-0.5 -0.032,-0.0536 0.035,-0.1355 0,-0.1875 -0.058,-0.0867 -0.183,-0.1075 -0.25,-0.1875 -0.042,-0.0506 -0.027,-0.1316 -0.062,-0.1875 -0.071,-0.11312 -0.176,-0.20151 -0.25,-0.3125 -0.052,-0.0775 -0.065,-0.1784 -0.125,-0.25 -0.048,-0.0577 -0.1405,-0.0664 -0.1875,-0.125 -0.041,-0.0515 -0.027,-0.1316 -0.062,-0.1875 -0.086,-0.13798 -0.2395,-0.22947 -0.3125,-0.375 -0.1788,-0.35758 0.1309,-0.0698 -0.3125,-0.5625 -0.089,-0.0992 -0.2185,-0.1557 -0.3125,-0.25 -0.086,-0.0859 -0.1015,-0.2266 -0.1875,-0.3125 -0.094,-0.0943 -0.2121,-0.1622 -0.3125,-0.25 -0.3077,-0.26921 -0.5588,-0.62032 -0.8125,-0.9375 -0.065,-0.0813 -0.1405,-0.1568 -0.1875,-0.25 -0.019,-0.0373 0,-0.0833 0,-0.125 -0.042,-0.0625 -0.083,-0.125 -0.125,-0.1875 -0.1931,-0.24136 -0.4323,-0.44658 -0.625,-0.6875 -0.1214,-0.15178 -0.1937,-0.35148 -0.3125,-0.5 -0.163,-0.20372 -0.3845,-0.32204 -0.5625,-0.5 -0.017,-0.0175 0.064,-0.34173 -0.125,-0.1875 -0.017,-0.0116 -0.049,0.0167 -0.062,0 -0.056,-0.0745 -0.064,-0.1799 -0.125,-0.25 -0.1303,-0.14895 -1.118,-0.9352 -1.3125,-1 -0.04,-0.0132 -0.085,0.0132 -0.125,0 -0.056,-0.0186 -0.069,-0.1064 -0.125,-0.125 -0.3533,-0.1178 0.073,0.19457 -0.5,-0.1875 -0.8036,-0.53576 -1.6934,-1.0068 -2.4161,-0.90481 0.1913,0.0224 0.1083,0.045 0.028,0.0327 -0.09,-0.0139 -0.1753,-0.0513 -0.2652,-0.0663 -0.2122,-0.0354 -0.4478,0.0265 -0.6187,0.15468 -0.076,0.0571 -0.2757,0.21043 -0.3094,0.28726 -0.076,0.17331 -0.1699,0.50492 -0.1988,0.70711 -0.012,0.0851 -0.01,0.18009 -0.022,0.26516 -0.026,0.18424 -0.07,0.3676 -0.088,0.55243 -0.01,0.0614 0,0.1555 0,0.22097 -0.015,0.23602 -0.044,0.47026 -0.044,0.70711 0,0.4468 -0.011,0.90148 0.022,1.34792 0.019,0.26208 0.076,0.53311 0.088,0.79549 0.026,0.55273 -0.026,1.10563 0.022,1.65729 0.01,0.0958 0.015,0.1915 0.022,0.28726 0.01,0.0442 0.018,0.088 0.022,0.13258 0,0.0293 -0.01,0.0601 0,0.0884 0.089,0.31116 0.2975,0.72889 0.464,1.01646 0.1135,0.19603 0.2629,0.38818 0.3536,0.59663 0.044,0.10041 0.067,0.20904 0.1105,0.30936 0.01,0.0191 0.035,0.0256 0.044,0.0442 0.056,0.11258 0.095,0.23353 0.1326,0.35355 0.072,0.22721 0.071,0.331 0.1105,0.55243 0.02,0.11096 0.05,0.22003 0.066,0.33146 0.014,0.0947 0,0.1915 0,0.28726 v 0.59662 0.7513 c 0,0.11175 -0.018,0.24229 0,0.35355 0,0.0163 0.02,0.0279 0.022,0.0442 0.01,0.0512 0,0.10312 0,0.15468 -0.017,0.0883 -0.056,0.20928 -0.044,0.30935 0.015,0.12147 0.031,0.0745 0.088,0.19887 0.1595,0.34564 -0.063,0.0311 0.2652,0.53033 0.095,0.14528 0.21,0.27714 0.3093,0.41985 0.019,0.027 0.029,0.0589 0.044,0.0884 0.066,0.0958 0.1267,0.19586 0.1989,0.28727 0.149,0.18875 0.3138,0.36463 0.464,0.55242 0.027,0.0335 0.038,0.0782 0.066,0.11049 0.1779,0.20325 0.398,0.37012 0.5745,0.57452 0.1862,0.18209 0.2976,0.42192 0.4641,0.61872 0.1218,0.14396 0.4188,0.4028 0.5524,0.53033 0.2195,0.20948 0.4049,0.44905 0.6187,0.66291 0.206,0.20602 0.4404,0.36695 0.6629,0.55243 0.1403,0.11688 0.2796,0.23668 0.4199,0.35355 0.056,0.0467 0.095,0.11287 0.1547,0.15468 0.049,0.0341 0.1113,0.0478 0.1546,0.0884 0.155,0.14524 0.1985,0.26452 0.3094,0.41985 0.1284,0.17981 0.2573,0.35975 0.3977,0.53033 0.017,0.0205 0.048,0.0247 0.066,0.0442 0.274,0.29676 0.2948,0.39803 0.5304,0.7955 0.019,0.0317 0.051,0.0551 0.066,0.0884 0.051,0.10754 0.086,0.22178 0.1325,0.33145 0.015,0.0358 0.062,0.10904 0.066,0.15468 0.01,0.0513 -0.01,0.10364 0,0.15468 0.01,0.0531 0.033,0.10233 0.044,0.15468 0.036,0.16322 0.03,0.34286 0.066,0.50823 0.07,0.32051 0.1751,0.61284 0.2652,0.92808 0.1373,0.48075 -0.066,-0.11385 0.1105,0.44194 0.083,0.26179 0.194,0.51525 0.2872,0.7734 0.1005,0.27824 0.1824,0.5631 0.2873,0.83969 0.062,0.1637 0.1379,0.32201 0.1989,0.48614 0.06,0.16059 0.091,0.32715 0.1546,0.48613 0.078,0.1955 0.232,0.34545 0.3315,0.53033 0.08,0.14795 0.1538,0.29914 0.2431,0.44194 0.1477,0.23633 0.1063,0.13861 0.2209,0.35356 0.064,0.12009 0.1235,0.26251 0.1989,0.37565 0.5358,0.80361 -0.1123,-0.22696 0.2431,0.33145 0.073,0.11412 0.2326,0.36777 0.2872,0.48614 0.016,0.0341 0.01,0.0748 0.022,0.11049 0.033,0.0994 0.039,0.0608 0.066,0.13258 10e-4,0.002 0.1885,0.56412 0.1989,0.57452 0.031,0.0736 0.064,0.14596 0.091,0.22092 0.018,0.0504 0.03,0.10312 0.044,0.15468 0.037,0.13258 0.063,0.26843 0.1105,0.39775 0.042,0.11458 0.1027,0.22114 0.1547,0.33146 0.066,0.14011 0.1274,0.28245 0.1988,0.41984 0.024,0.0471 0.064,0.0856 0.088,0.13258 0.049,0.0933 0.084,0.19364 0.1326,0.28727 0.1472,0.28389 0.3073,0.56096 0.464,0.83968 0.1576,0.2801 0.3571,0.54461 0.4862,0.83969 0.2154,0.49243 -0.14,-0.1915 0.1105,0.30936 0.034,0.0678 0.084,0.12776 0.1104,0.19888 0.048,0.12903 0.058,0.27066 0.1105,0.39774 0.1099,0.26471 0.2527,0.51452 0.3757,0.7734 0.087,0.18411 0.1628,0.37505 0.2651,0.55243 0.094,0.16304 0.1945,0.32238 0.2873,0.48614 0.019,0.0339 0.1915,0.38858 0.1989,0.39774 0.1047,0.12966 0.2447,0.22732 0.3535,0.35356 0.1588,0.18418 0.2611,0.41243 0.4199,0.59662 0.6696,0.77674 0.1205,0.0848 0.4419,0.44194 0.098,0.10867 0.186,0.22599 0.2873,0.33146 0.2862,0.29817 0.6228,0.55704 0.9723,0.77339 0.4481,0.27743 0.8852,0.54355 1.37,0.75131 0.097,0.0415 0.1856,0.10435 0.2872,0.13258 0.086,0.024 0.177,0.0286 0.2652,0.0442 0.088,0.0156 0.1752,0.0442 0.2652,0.0442 0.1453,0.28933 0.2847,0.59119 0.4651,0.86177 0.026,0.0392 0.063,0.0707 0.088,0.11049 0.1543,0.24247 0.2567,0.51203 0.4198,0.7513 0.1534,0.22486 0.347,0.4219 0.5083,0.64081 0.4455,0.60464 -0.214,-0.23022 0.3093,0.39775 0.017,0.0204 0.025,0.0481 0.044,0.0663 0.099,0.0929 0.2082,0.17461 0.3094,0.26517 0.039,0.0347 0.07,0.0784 0.1105,0.11048 0.7668,0.60015 0.042,-0.015 0.7513,0.55243 0.033,0.026 0.055,0.0631 0.088,0.0884 0.1611,0.12323 0.4213,0.25987 0.5745,0.39775 0.035,0.0315 0.055,0.0771 0.088,0.11048 0.019,0.0188 0.046,0.0269 0.066,0.0442 0.2201,0.18868 0.5208,0.55711 0.6629,0.81759 0.031,0.0559 0.037,0.17694 0.044,0.22097 0.019,0.11188 0.05,0.21888 0.066,0.33146 0.01,0.0588 0.015,0.11785 0.022,0.17677 0.01,0.081 0.011,0.16243 0.022,0.24307 0.015,0.11169 0.048,0.2202 0.066,0.33146 0.047,0.2913 0.082,0.68463 0.2651,0.92807 0.025,0.0333 0.061,0.0568 0.088,0.0884 0.121,0.14111 0.2545,0.27651 0.3978,0.39775 0.2791,0.23619 0.6024,0.41637 0.9059,0.61872 0.053,0.0352 0.1032,0.0737 0.1547,0.11048 0.059,0.0516 0.1116,0.11125 0.1768,0.15468 0.097,0.11677 0.2565,0.12226 0.3756,0.19888 0.1568,0.10078 0.3086,0.23249 0.4641,0.33145 0.2014,0.12818 0.4087,0.24745 0.5966,0.39775 0.1504,0.1203 0.2694,0.25647 0.4419,0.35355 0.041,0.0228 0.092,0.0219 0.1326,0.0442 0.041,0.0226 0.071,0.0631 0.1105,0.0884 0.1924,0.12243 0.4083,0.22078 0.6187,0.30936 0.1486,0.0625 0.2948,0.11547 0.442,0.17677 0.046,0.019 0.09,0.0418 0.1326,0.0663 0.01,0.005 0.012,0.0196 0.022,0.0221 0.022,0.005 0.045,-0.004 0.066,0 0.044,0.009 0.082,0.0596 0.1105,0.0884 0.065,0.0571 0.1223,0.12564 0.1961,0.17128 0.5274,0.32603 0.6168,0.33439 1.0937,0.5625 0.447,0.21378 0.8705,0.46646 1.3125,0.6875 0.3085,0.15422 0.6291,0.28328 0.9375,0.4375 0.067,0.0336 0.1222,0.088 0.1875,0.125 0.3199,0.18077 0.6855,0.39292 1.0313,0.53125 0.1132,0.0453 0.2305,0.0797 0.3437,0.125 0.047,0.0189 0.1091,0.0749 0.1563,0.0937 0.04,0.0159 0.087,0.0105 0.125,0.0312 0.1722,0.0947 0.3298,0.21428 0.5,0.3125 0.2149,0.12399 0.5174,0.22855 0.7187,0.375 0.06,0.0433 0.1004,0.10831 0.1563,0.15625 0.018,0.0152 0.042,0.0208 0.062,0.0312 0.1458,0.125 0.2935,0.24792 0.4375,0.375 0.2094,0.18477 0.3827,0.41086 0.5937,0.59375 0.079,0.0682 0.1719,0.11858 0.25,0.1875 0.1989,0.17544 0.363,0.38789 0.5625,0.5625 0.068,0.059 0.1494,0.0995 0.2188,0.15625 0.091,0.0746 0.1613,0.17239 0.25,0.25 0.1539,0.13468 0.3241,0.26157 0.4687,0.40625 0.027,0.0266 0.036,0.0672 0.062,0.0937 0.037,0.0368 0.088,0.0569 0.125,0.0937 0.073,0.0725 0.079,0.18949 0.125,0.28125 0.2334,0.46664 0.154,0.59051 0.1875,1.09375 0.018,0.26117 0.048,0.51972 0.062,0.78125 0.012,0.21752 -0.02,0.43938 0,0.65625 0.024,0.2577 0.084,0.56797 0.125,0.8125 0.018,0.10727 0.074,0.2055 0.094,0.3125 0.038,0.20893 -0.067,0.0488 0.062,0.28125 0.025,0.0455 0.071,0.0784 0.094,0.125 0.097,0.19282 0.1208,0.35887 0.25,0.53125 0.027,0.0353 0.069,0.057 0.094,0.0937 0.028,0.0417 0.059,0.12111 0.094,0.15625 0.015,0.0147 0.048,-0.0147 0.062,0 0,0.003 0.027,0.11918 0.031,0.125 0.046,0.0689 0.1875,0.0696 0.1875,0.21875 0.4233,0.35615 0.5475,0.8851 0.7518,1.3753 0.027,0.0645 0.073,0.12071 0.094,0.1875 0.022,0.0704 0.013,0.14729 0.031,0.21875 0.03,0.11828 0.093,0.22612 0.125,0.34375 0.089,0.32622 0.2102,0.68849 0.3437,1 0.066,0.15438 0.1704,0.28961 0.25,0.4375 0.1172,0.21752 0.2253,0.43907 0.3438,0.65625 0.1581,0.28985 -0.05,-0.24743 0.2187,0.40625 0.074,0.18032 0.081,0.38248 0.1563,0.5625 0.2027,0.4864 0.4303,0.98199 0.625,1.46875 0.1854,0.46348 0.3079,0.89676 0.5937,1.3125 0.033,0.0486 0.087,0.0803 0.125,0.125 0.087,0.10128 0.1712,0.20493 0.25,0.3125 0.083,0.11296 0.1796,0.25754 0.25,0.375 0.024,0.0399 0.033,0.0889 0.062,0.125 0.065,0.0798 0.1506,0.14143 0.2188,0.21875 0.3024,0.34267 0.5854,0.70204 0.9375,1 0.2355,0.19928 0.5032,0.3774 0.75,0.5625 0.1466,0.10992 0.254,0.27184 0.375,0.40625 0.027,0.0296 0.2714,0.26768 0.2812,0.28125 0.041,0.0565 0.05,0.13293 0.094,0.1875 0.042,0.0521 0.1091,0.0778 0.1562,0.125 0.2342,0.23414 0.4064,0.54174 0.5938,0.8125 0.068,0.0977 0.1611,0.17743 0.2187,0.28125 0.039,0.0693 0.062,0.14583 0.094,0.21875 0.052,0.10417 0.098,0.2119 0.1562,0.3125 0.015,0.0254 0.047,0.0375 0.062,0.0625 0.098,0.1565 0.1754,0.33203 0.25,0.5 0.034,0.0767 0.096,0.13982 0.125,0.21875 0.029,0.0807 0.033,0.16927 0.062,0.25 0.013,0.0353 0.047,0.0594 0.062,0.0937 0.016,0.0355 0.086,0.24926 0.094,0.3125 0.017,0.13333 -0.017,0.27292 0,0.40625 0.01,0.0426 0.021,0.0833 0.031,0.125 0.011,0.0625 0.023,0.12463 0.031,0.1875 0.012,0.0923 -0.012,0.18894 0,0.28125 -0.01,0.0795 0.052,0.14368 0.062,0.21875 0.026,0.18376 -0.023,0.37826 0,0.5625 0,0.0289 0.041,0.27024 0.062,0.3125 0.056,0.11227 0.023,-0.1118 0.062,0.125 0.023,0.14028 -0.015,0.26731 0.031,0.40625 0.079,0.35533 0.1078,0.60075 0.2224,0.9063 0.1393,0.37152 0.3985,0.64472 0.5625,1 0.086,0.1863 0.1667,0.375 0.25,0.5625 0.3147,0.70813 0.612,1.41984 0.9375,2.125 0.1875,0.40625 -0.125,-0.0625 0.1875,0.5625 0.067,0.13437 0.177,0.24367 0.25,0.375 0.032,0.0576 0.042,0.125 0.062,0.1875 0.042,0.0833 0.079,0.1691 0.125,0.25 0.1242,0.2173 0.2751,0.37687 0.4375,0.5625 0.1991,0.22752 0.3139,0.45492 0.5,0.6875 0.091,0.11424 0.2173,0.2014 0.3125,0.3125 0.1546,0.18035 0.2695,0.39453 0.4375,0.5625 0.033,0.0329 0.095,0.0271 0.125,0.0625 0.098,0.11406 0.1511,0.26194 0.25,0.375 0.05,0.0565 0.1394,0.0673 0.1875,0.125 0.06,0.0716 0.063,0.18075 0.125,0.25 0.042,0.0463 0.7696,0.74224 0.875,0.8125 0.078,0.0517 0.1772,0.0668 0.25,0.125 0.036,0.0291 0.034,0.0877 0.062,0.125 0.2026,0.27017 0.42,0.53918 0.625,0.8125 0.035,0.0471 0.099,0.0723 0.125,0.125 0.1325,0.26499 0.229,0.5497 0.375,0.8125 0.1094,0.19699 0.2656,0.36551 0.375,0.5625 0.2808,0.50545 0.4898,1.07841 0.8125,1.5625 0.049,0.0735 0.1368,0.11509 0.1875,0.1875 0.1558,0.22253 0.3043,0.45075 0.4375,0.6875 0.137,0.24361 0.2442,0.50297 0.375,0.75 0.07,0.13277 0.1908,0.23691 0.25,0.375 0.127,0.29632 0.2011,0.70109 0.4375,0.9375 0.053,0.0531 0.1406,0.0663 0.1875,0.125 0.085,0.10663 0.2237,0.59457 0.3125,0.75 0.1508,0.2639 0.4146,0.4212 0.5625,0.6875 0.096,0.17277 0.1047,0.38305 0.1875,0.5625 0.1171,0.25378 0.22,0.51743 0.375,0.75 0.4721,0.70815 0.2537,0.25665 0.5625,0.8125 0.4971,0.89471 -0.2052,-0.36395 0.1875,0.5 0.1583,0.34817 0.3572,0.67734 0.5625,1 0.2006,0.31524 0.4774,0.62241 0.6875,0.9375 0.2086,0.3129 0.4159,0.62384 0.625,0.9375 0.1192,0.17875 0.1857,0.38493 0.3125,0.5625 0.1986,0.27804 0.4279,0.53335 0.625,0.8125 0.1133,0.16057 0.1946,0.34277 0.3125,0.5 0.3375,0.45 0.1375,0.0375 0.4375,0.4375 0.073,0.0972 0.1201,0.21142 0.1875,0.3125 0.356,0.53406 0.8805,1.03197 1.3125,1.5 0.368,0.39871 0.7827,0.7083 1.1875,1.0625 0.4959,0.43396 0.9709,0.9157 1.5,1.3125 0.1491,0.1118 0.345,0.14664 0.5,0.25 0.6286,0.4191 1.2328,0.90382 1.875,1.3125 0.3605,0.2294 0.7585,0.40508 1.125,0.625 0.5059,0.30353 0.9853,0.64337 1.5,0.9375 0.1158,0.0662 0.2015,0.176 0.3125,0.25 0.2678,0.17856 0.8397,0.60737 1.125,0.75 0.2758,0.13792 0.5507,0.20048 0.8125,0.375 0.1312,0.0874 0.3487,0.2418 0.4375,0.375 0.012,0.0173 -0.013,0.0458 0,0.0625 0.5808,0.77434 -0.082,-0.14396 0.3125,0.25 0.1211,0.12106 0.2148,0.2447 0.3125,0.375 0.2012,0.26831 0.5947,0.44251 0.8125,0.6875 0.028,0.0311 -0.03,0.0955 0,0.125 0.041,0.0407 0.9275,0.71374 1,0.75 0.077,0.0384 0.1732,0.0241 0.25,0.0625 0.072,0.0359 0.4435,0.31848 0.5,0.375 0.03,0.0297 0.095,0.22029 0.125,0.25 0.033,0.0329 0.092,0.0296 0.125,0.0625 0.061,0.0607 0.031,0.17024 0.062,0.25 0.093,0.23387 0.041,0.019 0.1875,0.3125 0.069,0.13699 0.022,0.35122 0.062,0.5 0.052,0.19068 0.1072,0.38189 0.1875,0.5625 0.01,0.019 0.048,-0.0147 0.062,0 0.053,0.0531 0.091,0.12031 0.125,0.1875 0.1206,0.24118 0.2921,0.53184 0.4375,0.75 -0.1542,0.18922 0.17,0.1075 0.1875,0.125 0.042,0.0417 -0.042,0.0833 0,0.125 0.015,0.0147 0.048,-0.0147 0.062,0 0.033,0.0329 0.03,0.0921 0.062,0.125 0.1111,0.94282 -0.031,0.69331 0.7018,1.58927 0.042,0.051 0.1302,0.0418 0.1768,0.0884 1.0773,1.25688 0.068,0.17031 0.8839,0.88389 0.1254,0.10975 0.2357,0.2357 0.3535,0.35355 0.1474,0.0884 0.31,0.15518 0.442,0.26516 0.051,0.0422 0.042,0.1302 0.088,0.17678 0.3088,0.30887 0.4862,0.32414 0.7955,0.53033 0.069,0.0462 0.099,0.14583 0.1767,0.17678 0.5365,0.21458 0.1614,0.0122 0.6188,0.0884 0.1838,0.0306 0.3465,0.14614 0.5303,0.17677 0.6183,0.10306 1.2303,0.26415 1.8561,0.35356 2.3056,0.32936 0.047,-0.0765 1.0607,0.17677 0.057,0.0143 0.1256,-0.0292 0.1768,0 0.1768,0.11785 0.3535,0.23571 0.5303,0.35356 0.03,0.0589 0.036,0.13724 0.088,0.17677 0.074,0.0559 0.1853,0.0405 0.2652,0.0884 0.3438,0.20633 0.6363,0.71589 0.9722,0.88388 0.026,0.0132 0.068,-0.0208 0.088,0 0.066,0.0659 0.047,0.18184 0.088,0.26517 0.1335,0.26694 0.2934,0.49459 0.3536,0.79549 0.058,0.29035 0.03,0.59354 0.088,0.88389 0.078,0.38823 0.2397,1.05 0.3535,1.41421 0.1029,0.32916 0.2969,0.63211 0.3536,0.97227 0.1009,0.60564 0.2241,1.18701 0.4419,1.76777 0.1233,0.32875 0.3305,0.63804 0.4419,0.97227 0.08,0.23871 0.087,0.5704 0.1768,0.7955 0.1462,0.36535 0.3868,0.70173 0.5304,1.06066 0.094,0.23591 0.2118,0.70548 0.2651,0.97227 0.012,0.0578 -0.022,0.12207 0,0.17678 0.04,0.0986 0.151,0.1621 0.1768,0.26516 0.3991,1.59629 -0.6215,-1.06815 0.1768,1.06066 -0.4859,0.56939 0.3991,0.67711 0.5303,0.97227 0.087,0.19601 0.109,0.41524 0.1768,0.61872 0.088,0.26369 0.3088,0.4631 0.4419,0.70711 0.1075,0.19698 0.1065,0.46006 0.2652,0.61872 0.047,0.0466 0.1339,0.0384 0.1768,0.0884 0.3528,0.4116 0.5296,0.9072 0.8838,1.32582 0.4836,0.57151 1.0943,1.12291 1.6794,1.59099 0.083,0.0664 0.1901,0.10166 0.2652,0.17678 0.075,0.0751 0.1017,0.19005 0.1768,0.26516 0.444,0.44406 0.093,-0.0138 0.4419,0.26517 0.3855,0.30838 0.7786,0.64808 1.1491,0.97227 0.1881,0.16463 0.3223,0.39165 0.5303,0.53033 0.118,0.0787 0.3425,0.16578 0.4419,0.26516 0.093,0.0932 0.095,0.25067 0.1768,0.35356 0.1302,0.16268 0.3914,0.23983 0.4419,0.44194 0.022,0.0857 -0.017,0.17849 0,0.26516 0.057,0.28506 0.2208,0.48468 0.2652,0.7955 0.1,0.69817 -0.1868,-0.30213 0.088,0.70711 0.1063,0.38973 0.1894,0.49246 0.2652,0.79549 0.046,0.18301 0.3098,0.57497 0.4419,0.70711 0.047,0.0466 0.1373,0.0357 0.1768,0.0884 0.056,0.0745 0.03,0.19241 0.088,0.26516 0.066,0.0829 0.1988,0.0938 0.2651,0.17678 0.058,0.0728 0.033,0.19063 0.088,0.26516 0.04,0.0527 0.1302,0.0418 0.1768,0.0884 0.1334,0.1334 0.2103,0.31917 0.3536,0.44194 0.071,0.0606 0.1852,0.0405 0.2651,0.0884 0.1263,0.0758 0.231,0.18345 0.3536,0.26517 0.1759,0.11726 0.9234,0.82895 0.9722,0.88388 0.088,0.0985 0.095,0.25067 0.1768,0.35355 0.1489,0.18605 0.7607,0.46472 0.8839,0.61872 0.1998,0.24977 0.3481,0.51765 0.6187,0.70711 0.2159,0.15112 0.4963,0.19544 0.7071,0.35355 0.067,0.05 0.1023,0.13951 0.1768,0.17678 0.053,0.0263 0.1241,-0.0264 0.1768,0 0.074,0.0373 0.1061,0.13261 0.1768,0.17678 0.2234,0.13966 0.4571,0.27022 0.7071,0.35355 0.106,0.0353 0.2475,-0.0354 0.3535,0 0.3371,0.11236 0.425,0.19476 0.7955,0.35355 0.1625,0.0696 0.356,-0.0291 0.5303,0 0.1148,0.0191 0.3752,0.24013 0.442,0.26517 0.3246,0.12173 0.5072,0.0163 0.7955,0.0884 0.16,-0.0533 0.1644,0.14318 0.2651,0.17677 0.08,0.0265 0.1857,-0.0265 0.2652,0 0.6402,0.21341 -0.1393,-0.0255 0.2652,0.17678 0.1513,0.0757 0.398,-0.044 0.5303,0.0884 0.021,0.0208 -0.021,0.0675 0,0.0884 0.044,0.0442 0.1326,0.0442 0.1768,0.0884 0.047,0.0466 0.038,0.13461 0.088,0.17678 0.256,0.21338 0.477,0.30026 0.7071,0.53033 0,0.009 0.5413,1.35367 0.7107,1.59087 0.038,0.0536 0.1302,0.0418 0.1768,0.0884 0.1093,0.10929 0.3566,0.44808 0.4419,0.61872 0.091,0.18142 0.192,0.45714 0.3536,0.61872 0.021,0.0208 0.067,-0.0208 0.088,0 0.066,0.0659 0.01,0.2235 0.088,0.26516 0.053,0.0263 0.1241,-0.0263 0.1768,0 0.1686,0.0843 0.6699,0.6792 0.7071,0.70711 0.075,0.0559 0.1924,0.0302 0.2652,0.0884 0.083,0.0664 0.092,0.20142 0.1768,0.26516 0.047,0.0354 0.1296,-0.0353 0.1767,0 0.085,0.0637 0.088,0.20624 0.1768,0.26517 0.1011,0.0674 0.2474,0.0294 0.3536,0.0884 0.3433,0.0733 0.4385,0.45758 0.7071,0.61871 0.051,0.0303 0.122,-0.0219 0.1768,0 0.2296,0.0919 0.4832,0.27895 0.7071,0.35356 0.2933,0.0978 0.6894,0.12376 0.9722,0.26516 0.2486,0.12431 0.4624,0.31017 0.7071,0.44194 0.3339,0.17976 0.9391,0.30423 1.2375,0.44195 0.1337,0.0617 0.2272,0.18937 0.3535,0.26516 0.6419,0.38515 1.2829,0.71968 1.7678,1.32583 0.2858,0.35719 0.5347,0.60453 0.8839,0.88388 0.098,0.0781 0.1591,0.19891 0.2651,0.26516 0.3797,0.23728 0.8715,0.34426 1.2375,0.61872 0.1283,0.0963 0.2142,0.20945 0.3535,0.26517 0.3774,0.15093 0.8007,0.2097 1.1491,0.44194 0.6005,0.40036 1.0464,1.00577 1.591,1.41421 1.2275,0.92066 -0.7374,-0.96649 1.5026,1.14905 0.1768,0.20624 0.3535,0.41248 0.5303,0.61872 0.03,0.0589 0.047,0.12533 0.088,0.17678 0.1041,0.13014 0.2611,0.21488 0.3535,0.35355 0.082,0.12332 0.029,0.26472 0.088,0.35355 0.046,0.0693 0.1306,0.10744 0.1768,0.17678 0.049,0.0735 -0.024,0.18018 0,0.26517 0.044,0.15255 0.1058,0.30003 0.1768,0.44194 0.019,0.0373 0.078,0.048 0.088,0.0884 0.049,0.19422 0.025,0.42777 0.088,0.61871 0.095,0.28493 0.2169,0.50612 0.2651,0.7955 0.019,0.11625 -0.025,0.23851 0,0.35355 0.061,0.27443 0.2329,0.64257 0.3536,0.88389 0.1493,0.29863 0.1607,0.65885 0.2651,0.97227 0.1028,0.30819 0.3245,0.57051 0.442,0.88388 0.2282,0.60869 0.3689,1.25659 0.6187,1.85616 0.041,0.098 0.1432,0.16438 0.1768,0.26516 0.066,0.19764 0.011,0.42529 0.088,0.61872 0.073,0.18351 0.2172,0.33859 0.2651,0.53033 0.029,0.11433 -0.044,0.24413 0,0.35355 0.04,0.0986 0.1179,0.17678 0.1768,0.26517 0.03,0.14731 0.036,0.30127 0.088,0.44194 0.075,0.19893 0.2585,0.3403 0.3536,0.53033 0.058,0.11532 0.039,0.31957 0.088,0.44194 0.1714,0.42828 0.4359,0.81077 0.6188,1.23744 0.1557,0.36349 0.2813,0.91629 0.4419,1.23744 0.095,0.19003 0.2673,0.33618 0.3536,0.53033 0.036,0.0808 -0.028,0.18131 0,0.26516 0.029,0.0866 0.4314,0.59777 0.4419,0.61872 0.026,0.0527 -0.019,0.12087 0,0.17678 0.1389,0.41665 0.4645,0.85187 0.6187,1.23743 0.2914,0.10447 0.041,0.29942 0.088,0.44194 0.357,1.07089 -0.04,-0.30723 0.5303,1.06066 0.058,0.13868 0.047,0.2975 0.088,0.44195 0.082,0.28657 0.5175,0.65557 0.6187,1.06066 0.066,0.26592 0.02,0.52344 0.088,0.79549 0.078,0.31338 0.2652,0.47294 0.2652,0.7955 0.6249,0.48361 0.505,1.08913 0.8001,1.67934 0.1527,0.30541 0.2096,0.19708 0.2652,0.53033 0.014,0.0872 -0.035,0.18392 0,0.26516 0.058,0.1354 0.2053,0.21894 0.2651,0.35355 0.061,0.13729 0.029,0.30386 0.088,0.44195 0.033,0.0766 0.1395,0.10224 0.1768,0.17677 0.1309,0.26176 0.1284,0.65873 0.3535,0.88389 0.021,0.0208 0.068,-0.0208 0.088,0 0.042,0.0417 -0.026,0.12407 0,0.17677 0.053,0.10607 0.2122,0.1591 0.2652,0.26517 0.026,0.0527 -0.026,0.12407 0,0.17677 0.013,0.0264 0.075,-0.0264 0.088,0 0.067,0.13438 0.029,0.30386 0.088,0.44195 0.2105,0.49133 0.8807,1.72198 1.3258,1.94454 0.1305,0.0652 0.037,0.23957 0.088,0.26516 0.053,0.0264 0.1196,-0.0143 0.1768,0 0.2921,0.0731 0.4766,0.30369 0.7071,0.44195 0.211,0.12662 0.4139,0.0402 0.6187,0.17677 0.024,0.0163 -0.021,0.0676 0,0.0884 0.062,0.0625 0.1794,-0.0214 0.2652,0 0.1278,0.032 0.2439,0.10369 0.3535,0.17678 0.2645,0.17631 0.7654,0.62533 0.9723,0.88388 0.041,0.0515 0.042,0.13019 0.088,0.17678 0.1041,0.10417 0.2218,0.19928 0.3535,0.26516 0.026,0.0132 0.07,-0.023 0.088,0 0.1883,0.23541 0.6298,1.10486 0.7071,1.41422 0.014,0.0572 -0.019,0.12087 0,0.17677 0.04,0.11859 0.2093,0.15337 0.2652,0.26517 0.1542,0.30844 0.1761,0.67656 0.3535,0.97227 0.1779,0.29638 0.5497,0.54966 0.7955,0.7955 0.067,0.0674 0.215,0.32008 0.2652,0.35355 0.049,0.0327 0.1241,-0.0264 0.1768,0 0.02,0.01 0.1232,0.3527 0.1767,0.44194 0.076,0.12632 0.1993,0.22179 0.2652,0.35355 0.026,0.0527 -0.022,0.12207 0,0.17678 0.073,0.18351 0.1683,0.35807 0.2652,0.53033 0.4161,0.73983 1.0153,1.67779 1.5026,2.38649 0.1903,0.27681 0.3812,0.55796 0.6187,0.79549 0.021,0.0208 0.068,-0.0208 0.088,0 0.087,0.0869 0.1487,0.40312 0.2651,0.44194 0.056,0.0186 0.1241,-0.0263 0.1768,0 0.1,0.0497 0.3696,0.33339 0.442,0.44195 0.4301,0.64525 0.7466,1.36225 1.149,2.03293 0.4863,0.81043 0.8907,1.60811 1.2375,2.47487 0.055,0.13678 0.2185,0.2138 0.2651,0.35355 0.037,0.11181 -0.015,0.23662 0,0.35356 0.045,0.36303 0.1773,0.70929 0.2652,1.06066 0.024,0.0939 0.042,1.06461 0,1.14905 -0.064,0.12757 -0.1768,0.29422 -0.4376,0.3449 l 65.6455,0.27795 z"
         id="path37" />
    </g>
  </g>
</svg>
