<?xml version="1.0" encoding="UTF-8" standalone="no"?>
<!-- Created with Inkscape (http://www.inkscape.org/) -->

<svg
   version="1.1"
   id="svg1"
   width="224.5"
   height="221.1875"
   viewBox="0 0 224.5 221.1875"
   xmlns="http://www.w3.org/2000/svg"
   xmlns:svg="http://www.w3.org/2000/svg">
  <defs
     id="defs1" />
  <g
     id="layer1"
     style="display:inline"
     transform="translate(-1069.9375,-613.49998)">
    <g
       id="layer62"
       style="display:inline;fill:#ffffff;fill-opacity:1;stroke:none">
      <path
         style="fill:#ffffff;fill-opacity:1;stroke:none;stroke-linecap:round"
         d="m 1294.4375,834.62498 -0.125,-3.1875 -5.3125,-2.9375 -11.0625,-10.625 0.125,-3 -1.25,-1.1875 -2.5,-0.75 -2.5,-3.625 0.375,-3.875 -5,-4.6875 -3,-13.5 -2.5625,-5.1875 -9.4375,-6.6875 -7.375,-8.6875 -1.5625,-9.1875 -3.25,-2.125 -6.5625,-15.5625 -9.375,-7.875 -2.0625,-0.1875 -1.25,-0.1875 -22.0625,-18.125 -6.375,-3.9375 0.125,-2.625 -2.6875,-1.375 -6.3125,-10.1875 -18.25,-14 -4.5,-7.3125 -12.75,-8.1875 -3.125,-0.0625 -3.3125,-43.8125 -1.375,-1.625 -2.0625,-0.0625 -0.75,1.5 -1.125,0.375 -3.9375,21 2.0625,16 -0.25,12.4375 -6.5,0.1875 -2.4375,-2.75 -4.5625,-0.875 -6.125,-5.5625 -2.1875,-4.5625 -7.1875,-6.5 -3.75,-0.1875 0.4375,-2.4375 -1.625,-0.6875 -27.1875,-34.625 -2.3125,-0.0625 -0.6875,7.4375 1.1875,5.5 6.625,6.5 5.0625,15.4375 10,7.9375 1.1875,4.4375 8.6875,4.8125 6.875,6.1875 0.9375,6 8,9.3125 2.5,9.5 19.9375,27.1875 5.0625,1.9375 3.75,2.625 4.375,7.6875 2.3125,1.8125 3.375,0.75 2.75,2.625 1.625,7.375 4.6875,8.5625 3.25,2.9375 2.375,4.4375 6.3125,4.125 3.75,2.1875 4.5,4.125 4,1.6875 4,3.375 4.3125,2.125 3.3125,4.0625 4.5625,13.0625 5.5,12.4375 5.375,5.125 3.125,6.25 3,3.125 2.6875,6.75 -0.25,1.75 z"
         id="path60" />
    </g>
  </g>
</svg>
