<?xml version="1.0" encoding="UTF-8" standalone="no"?>
<!-- Created with Inkscape (http://www.inkscape.org/) -->

<svg
   version="1.1"
   id="svg1"
   width="161.57388"
   height="139.87456"
   viewBox="0 0 161.57388 139.87456"
   xmlns="http://www.w3.org/2000/svg"
   xmlns:svg="http://www.w3.org/2000/svg">
  <defs
     id="defs1" />
  <g
     id="layer1"
     style="display:inline"
     transform="translate(-372.2917,-0.83968928)">
    <g
       id="layer61"
       style="display:inline;fill:#ffffff;fill-opacity:1;stroke:none">
      <path
         style="fill:#ffffff;fill-opacity:1;stroke:none;stroke-linecap:round"
         d="m 379.62794,0.83968928 0.26517,6.40815502 2.65165,6.0104077 -0.0884,5.170718 -2.78423,4.728777 0.13258,10.91596 6.8501,5.656854 1.76776,8.971417 4.5962,6.894291 3.8007,1.37002 2.47487,2.209708 -2.16551,12.59534 -5.3475,5.524271 -0.13258,2.298097 2.20971,2.253903 -0.97227,6.452349 -12.77212,14.186333 -3.97748,1.90035 -2.47487,2.78423 -1.37002,13.6118 1.37002,11.18113 13.52342,8.75045 7.99914,-0.26517 7.64559,-5.39169 4.33103,-3.62392 8.22012,-2.96101 7.29204,0.44194 8.22011,3.75651 2.25391,-0.61872 1.5026,-6.98268 2.47487,-0.7513 5.08233,-5.61266 5.56847,-0.17678 6.0546,2.38649 12.55114,-5.52427 11.79985,-12.28598 12.41856,-0.22098 -0.0442,-16.970558 2.78423,-5.524272 0.22097,-6.098796 -1.72357,-5.966213 0.44194,-3.579728 11.57887,-11.136931 0.53033,-2.916816 3.62393,-2.12132 9.45755,-1.281631 7.51301,-5.524272 1.5026,-0.08839 2.65165,-3.977476 1.14905,-12.639533 3.57973,-3.005204 -0.39775,-6.717514 -1.90035,-4.640388 2.2539,-5.4358834 -0.48613,-4.37522315 z"
         id="path59" />
    </g>
  </g>
</svg>
