<?xml version="1.0" encoding="UTF-8" standalone="no"?>
<!-- Created with Inkscape (http://www.inkscape.org/) -->

<svg
   version="1.1"
   id="svg2"
   width="162.05212"
   height="139.48402"
   viewBox="0 0 162.05212 139.48402"
   xmlns="http://www.w3.org/2000/svg"
   xmlns:svg="http://www.w3.org/2000/svg">
  <defs
     id="defs6">
    <linearGradient
       id="swatch77">
      <stop
         style="stop-color:#e2c69e;stop-opacity:1;"
         offset="0"
         id="stop77" />
    </linearGradient>
  </defs>
  <g
     id="layer66"
     style="display:inline"
     transform="translate(-371.96908,-0.6553301)">
    <g
       id="layer13"
       style="display:inline">
      <path
         style="display:inline;fill:#969696;fill-opacity:1;stroke:none;stroke-width:1;stroke-dasharray:none;stroke-opacity:1"
         d="m 385.90352,139.65359 c -0.0527,-0.0264 0.0417,-0.13508 0,-0.17678 -0.0833,-0.0833 -0.27025,0.0833 -0.35355,0 -0.0417,-0.0417 0.0417,-0.13507 0,-0.17677 -0.125,-0.125 -0.38324,0.0981 -0.53033,0 -0.10958,-0.0731 -0.0836,-0.26036 -0.17678,-0.35356 -0.20026,-0.20026 -1.03717,-0.33007 -1.23743,-0.53033 -0.36576,-0.36575 0.55892,0.0143 -0.17678,-0.35355 -0.27377,-0.13689 -0.45777,-0.28099 -0.70711,-0.53033 -0.35358,-0.35359 -0.57717,-0.91512 -1.06066,-1.23744 -0.26712,-0.17808 -0.61448,-0.26375 -0.88388,-0.35355 -0.64087,-0.21362 -0.12581,-0.0839 -0.53033,-0.35356 -0.46072,-0.30714 -1.16055,-0.42014 -1.59099,-0.7071 -0.13867,-0.0924 -0.21488,-0.26116 -0.35355,-0.35356 -0.34381,-0.2292 -1.18909,0.13397 -1.59099,0 -0.15812,-0.0527 -0.20449,-0.27905 -0.35356,-0.35355 -0.16666,-0.0834 -0.36366,-0.0935 -0.53033,-0.17678 -0.11787,-0.0589 -0.0589,-0.29465 -0.17677,-0.35355 -0.10541,-0.0527 -0.24815,0.0527 -0.35356,0 -0.10541,-0.0527 0.0373,-0.24175 0,-0.35355 -0.0472,-0.14171 -0.24584,-0.77617 -0.35355,-0.88389 -0.0417,-0.0417 -0.13508,0.0417 -0.17678,0 -0.0833,-0.0833 0.0373,-0.24175 0,-0.35355 -0.13097,-0.39291 -0.2471,-0.63486 -0.35355,-1.06066 -0.0685,-0.27389 0.089,-0.61679 0,-0.88388 -0.0672,-0.20156 -0.4601,-0.21038 -0.35355,-0.53033 -0.0665,-0.2661 0.0871,-0.62264 0,-0.88389 -0.12166,-0.36497 -0.38138,-0.4092 -0.53033,-0.7071 -0.10368,-0.20743 -0.003,-0.70998 -0.17678,-0.88389 -0.0417,-0.0417 -0.13508,0.0417 -0.17678,0 -0.071,-0.071 0.0333,-0.43033 0,-0.53033 -0.0833,-0.25 -0.30185,-0.4487 -0.35355,-0.7071 -0.12378,-0.61882 -0.10158,-4.09229 -0.17678,-4.24264 -0.26233,-0.52467 -0.47566,-0.96301 -0.67619,-1.48168 0.0309,-0.026 0.005,-0.19635 0.0309,-0.32819 0.1134,-0.56718 0.0281,0.59387 0.125,-0.375 0.0166,-0.16584 -0.0327,-0.33657 0,-0.5 0.133,-0.6672 -10e-4,0.63795 0.125,-0.625 0.0306,-0.30621 0,-0.62928 0,-0.9375 0,-1.1553 -0.0796,-2.36314 0.0625,-3.5 0.066,-0.52788 0.3105,-0.49699 0.5625,-0.875 0.1408,-0.2112 0.32124,-0.39249 0.4375,-0.625 0.0304,-0.0607 0.0321,-0.1893 0.0625,-0.25 0.0336,-0.0672 0.1012,-0.1162 0.125,-0.1875 0.0198,-0.0593 -0.0103,-0.1258 0,-0.1875 0.0748,-0.44872 0.0625,-0.85494 0.0625,-1.3125 0,-0.68671 -0.0802,-1.73354 0,-2.375 0.0188,-0.1505 0.1389,-0.27808 0.125,-0.4375 0.0115,-0.10353 -0.0129,-0.20914 0,-0.3125 0.008,-0.0654 0.0417,-0.125 0.0625,-0.1875 0.0208,-0.0208 0.0535,-0.0345 0.0625,-0.0625 0.0672,-0.20156 -0.26691,-0.47726 -0.125,-0.625 0,-0.35417 -0.0417,-0.0208 0.0625,-0.125 0.0442,-0.0442 -0.0347,-0.1355 0,-0.1875 0.0258,-0.0388 0.0921,-0.0296 0.125,-0.0625 0.0147,-0.0147 -0.0116,-0.0452 0,-0.0625 0.0903,-0.13539 0.19744,-0.25994 0.3125,-0.375 0.1862,-0.1862 0.41151,-0.29517 0.625,-0.4375 0.22925,-0.15284 0.33077,-0.40801 0.5625,-0.5625 0.063,-0.042 0.2742,-0.0867 0.3125,-0.125 0.0329,-0.0329 0.0296,-0.0921 0.0625,-0.125 0.12167,-0.12167 0.35615,-0.14211 0.5,-0.25 0.15262,-0.11447 0.26774,-0.3526 0.4375,-0.4375 0.0896,-0.0448 0.2206,-0.0561 0.3125,-0.125 0.0471,-0.0354 0.0923,-0.076 0.125,-0.125 0.0116,-0.0173 -0.0186,-0.0535 0,-0.0625 0.0373,-0.0186 0.0903,0.0231 0.125,0 0.0388,-0.0258 0.0296,-0.0921 0.0625,-0.125 0.006,-0.006 0.5963,-0.3627 0.625,-0.375 0.12111,-0.0519 0.25389,-0.0731 0.375,-0.125 0.12364,-0.053 0.24622,-0.1985 0.375,-0.25 0.058,-0.0232 0.1316,0.028 0.1875,0 0.13918,-0.0696 0.24206,-0.246 0.375,-0.3125 0.0373,-0.0186 0.0877,0.0186 0.125,0 0.0527,-0.0263 0.077,-0.0907 0.125,-0.125 0.27482,-0.1963 0.55292,-0.35484 0.8125,-0.5625 0.73758,-0.59007 -0.31814,0.27459 0.375,-0.1875 0.0173,-0.0116 -0.0147,-0.0478 0,-0.0625 0.13995,-0.13995 0.28337,-0.20975 0.4375,-0.3125 0.14423,-0.0961 0.23077,-0.2789 0.375,-0.375 0.0548,-0.0365 0.1652,0.091 0.1875,-0.0625 0.22687,-0.1815 0.50729,-0.46224 0.6875,-0.6875 0.0651,-0.08134 0.125,-0.16667 0.1875,-0.25 0,-0.04167 -0.0186,-0.08773 0,-0.125 0.0664,-0.132825 0.63485,-0.85114 0.75,-0.9375 0.0601,-0.04507 0.1344,-0.07188 0.1875,-0.125 0.0329,-0.03294 0.0252,-0.09705 0.0625,-0.125 0.10943,-0.08208 0.37186,-0.13624 0.5,-0.1875 0.16412,-0.06565 0.32753,-0.22125 0.5,-0.25 0.0822,-0.0137 0.1678,0.0137 0.25,0 0.30916,-0.05153 0.63242,-0.23623 0.9375,-0.3125 0.12294,-0.03074 0.25315,-0.02769 0.375,-0.0625 0.0284,-0.0081 0.5694,-0.44439 0.625,-0.5 0.0329,-0.03294 0.0296,-0.09206 0.0625,-0.125 0.0329,-0.03294 0.0971,-0.02523 0.125,-0.0625 0.0395,-0.05271 0.0286,-0.13101 0.0625,-0.1875 0.0937,-0.156087 0.26506,-0.290916 0.375,-0.4375 0.26107,-0.348092 0.46079,-0.780648 0.5625,-1.1875 0.0452,-0.180776 0.1667,-0.333334 0.25,-0.5 0.0959,-0.191848 0.2254,-0.366495 0.3125,-0.5625 0.0169,-0.03808 -0.0186,-0.08773 0,-0.125 0.10827,-0.216534 0.31729,-0.414632 0.4375,-0.625 0.0327,-0.0572 0.033,-0.12857 0.0625,-0.1875 0.0466,-0.09317 0.1763,-0.11384 0.25,-0.1875 0.15706,-0.157062 0.25436,-0.362646 0.4375,-0.5 0.22586,-0.169396 0.47238,-0.315616 0.6875,-0.5 0.0895,-0.0767 0.1519,-0.18463 0.25,-0.25 0.2441,-0.1627 0.003,0.07074 0.3125,-0.1875 0.39677,-0.330645 0.79229,-0.66125 1.1875,-1 0.23096,-0.197968 0.6487,-0.414496 0.8125,-0.6875 0.0339,-0.05649 0.033,-0.12857 0.0625,-0.1875 0.0395,-0.07906 0.1385,-0.11396 0.1875,-0.1875 0.2725,-0.408804 0.1875,-1.485486 0.1875,-2 0,-0.412771 0.0766,-1.241802 0,-1.625 -0.0129,-0.0646 -0.0496,-0.1229 -0.0625,-0.1875 -0.0346,-0.173082 0.0557,-0.395465 0,-0.5625 -0.009,-0.02795 -0.0417,-0.04167 -0.0625,-0.0625 -0.0208,-0.0625 -0.0417,-0.125 -0.0625,-0.1875 -0.0245,-0.09804 0.0245,-0.21446 0,-0.3125 -0.005,-0.02021 -0.0555,0.01976 -0.0625,0 -0.063,-0.188906 0,-1.016469 0,-1.25 0,-0.348459 0.073,-1.083048 0,-1.375 -0.032,-0.127828 -0.0992,-0.245797 -0.125,-0.375 -0.008,-0.04086 0.0186,-0.08773 0,-0.125 -0.009,-0.01863 -0.0535,0.01863 -0.0625,0 -0.0186,-0.03727 0.0186,-0.08773 0,-0.125 -0.0263,-0.05271 -0.0947,-0.07447 -0.125,-0.125 -0.0339,-0.05649 -0.026,-0.13268 -0.0625,-0.1875 -0.0231,-0.03467 -0.0955,0.02946 -0.125,0 -0.051,-0.05095 -0.0851,-0.35761 -0.125,-0.4375 -0.0682,-0.13644 -0.2263,-0.245747 -0.3125,-0.375 -0.0365,-0.05482 -0.026,-0.13268 -0.0625,-0.1875 -0.0996,-0.149425 -0.1448,-0.07903 -0.1875,-0.25 -0.0866,-0.346285 -0.2204,-0.868329 -0.125,-1.25 0.0253,-0.101057 0.1409,-0.15683 0.1875,-0.25 0.0373,-0.07454 -0.0202,-0.16916 0,-0.25 0.0197,-0.0787 0.1498,-0.17456 0.1875,-0.25 0.0843,-0.168582 0.11215,-0.424655 0.25,-0.5625 0.0147,-0.01473 0.0478,0.01473 0.0625,0 0.0381,-0.03808 0.3115,-0.3734 0.3125,-0.375 0.0775,-0.116283 0.11,-0.258718 0.1875,-0.375 0.0116,-0.01734 0.0478,0.01473 0.0625,0 0.0703,-0.07028 0.1318,-0.22903 0.1875,-0.3125 0.049,-0.07354 0.1345,-0.11679 0.1875,-0.1875 0.20489,-0.273193 0.41772,-0.536134 0.625,-0.8125 0.1436,-0.19145 -0.04,0.102476 0.1875,-0.125 0.0531,-0.05312 0.0719,-0.13438 0.125,-0.1875 0.0329,-0.03294 0.0862,-0.03666 0.125,-0.0625 0.14423,-0.09615 0.23077,-0.27885 0.375,-0.375 0.0173,-0.01156 0.0495,0.01627 0.0625,0 0.0759,-0.09486 0.1075,-0.22108 0.1875,-0.3125 0.0686,-0.07839 0.1763,-0.11384 0.25,-0.1875 0.0329,-0.03294 0.0327,-0.08921 0.0625,-0.125 0.0754,-0.09054 0.1667,-0.16667 0.25,-0.25 0.0417,-0.02083 0.0921,-0.02956 0.125,-0.0625 0.0329,-0.03294 0.0296,-0.09206 0.0625,-0.125 0.0329,-0.03294 0.0877,-0.03455 0.125,-0.0625 0.13856,-0.103919 0.23104,-0.27903 0.375,-0.375 0.29094,-0.193963 0.61832,-0.521229 0.8125,-0.8125 0.0327,-0.04903 0.076,-0.09231 0.125,-0.125 0.0173,-0.01156 0.0535,0.01863 0.0625,0 0.0589,-0.117851 0.0661,-0.257149 0.125,-0.375 0.0263,-0.05271 0.0923,-0.07597 0.125,-0.125 0.19204,-0.288067 0.34616,-0.629829 0.5,-0.9375 0.1801,-0.360207 0.23229,-0.80694 0.375,-1.1875 0.0103,-0.02759 0.0417,-0.04167 0.0625,-0.0625 0.0208,-0.0625 0.0417,-0.125 0.0625,-0.1875 0.0292,-0.102142 0.0231,-0.21387 0.0625,-0.3125 0.1193,-0.298118 0.1204,-0.169254 0.1875,-0.4375 0.0408,-0.163416 -0.0631,-0.404682 0,-0.5625 0.0279,-0.06974 0.0914,-0.12032 0.125,-0.1875 0.0358,-0.07166 0.0625,-0.77504 0.0625,-0.9375 0,-0.833158 0.0375,-1.671551 -0.0625,-2.5 0,-0.222747 -0.008,-0.408423 -0.0625,-0.625 -0.0709,-0.283691 0,-1.380797 0,-1.75 0,-0.486689 0.0778,-1.157967 0,-1.625 -0.0377,-0.22636 -0.0536,-0.04462 -0.125,-0.1875 -0.0496,-0.09927 -0.0599,-0.27731 -0.125,-0.375 -0.0417,-0.0625 -0.2734,0.191508 -0.1875,-0.125 -0.0232,-0.05803 0.0279,-0.1316 0,-0.1875 -0.0208,-0.04167 -0.0921,-0.02956 -0.125,-0.0625 -0.0233,-0.02331 -0.327,-0.36548 -0.375,-0.4375 -0.0601,-0.09016 -0.1067,-0.273982 -0.1875,-0.375 -0.0552,-0.06902 -0.1323,-0.11848 -0.1875,-0.1875 -0.26201,-0.327506 -0.45844,-0.951457 -0.8125,-1.1875 -0.31311,-0.208736 -0.7187,-0.377379 -1.0625,-0.5625 -0.0917,-0.04939 -0.1568,-0.14091 -0.25,-0.1875 -0.11785,-0.05893 -0.25715,-0.06607 -0.375,-0.125 -0.46077,-0.230382 -0.8743,-0.605337 -1.3125,-0.875 -0.14305,-0.08803 -0.29775,-0.15683 -0.4375,-0.25 -0.28366,-0.189108 -0.29182,-0.268323 -0.5625,-0.4375 -0.079,-0.04938 -0.1784,-0.06535 -0.25,-0.125 -0.0577,-0.04809 -0.0719,-0.13439 -0.125,-0.1875 -0.0659,-0.06588 -0.1784,-0.06535 -0.25,-0.125 -0.15021,-0.125178 -0.37039,-0.337987 -0.5,-0.5 -0.0938,-0.117311 -0.14377,-0.268771 -0.25,-0.375 -0.0147,-0.01473 -0.0478,0.01473 -0.0625,0 -0.0329,-0.03294 -0.0334,-0.08862 -0.0625,-0.125 -0.092,-0.115033 -0.2241,-0.194649 -0.3125,-0.3125 -0.072,-0.09601 -0.1208,-0.212447 -0.1875,-0.3125 -0.0163,-0.02452 -0.0417,-0.04167 -0.0625,-0.0625 -0.0208,0 -0.0478,0.01473 -0.0625,0 -0.0731,-0.0731 -0.5535,-0.737 -0.5625,-0.75 -0.18179,-0.259697 -0.5014,-0.774091 -0.625,-1.0625 -0.0164,-0.0383 0.0155,-0.08631 0,-0.125 -0.0279,-0.06974 -0.0914,-0.12031 -0.125,-0.1875 -0.151,-0.30211 -0.0148,-0.07413 -0.0625,-0.3125 -0.0402,-0.201185 -0.1062,-0.234222 -0.1875,-0.4375 -0.0777,-0.194362 -0.0519,-0.423894 -0.125,-0.625 -0.07,-0.192475 -0.231,-0.458974 -0.25,-0.6875 -0.0138,-0.166091 0.0166,-0.334161 0,-0.5 -0.0131,-0.131108 -0.0964,-0.246376 -0.125,-0.375 -0.0231,-0.1037 -0.0417,-0.208333 -0.0625,-0.3125 0,-0.0625 0.0103,-0.12585 0,-0.1875 -0.0914,-0.548636 -0.023,0.09554 -0.125,-0.3125 -0.0307,-0.122941 -0.0277,-0.253152 -0.0625,-0.375 -0.008,-0.02833 -0.0545,-0.03417 -0.0625,-0.0625 -0.0348,-0.121848 -0.0277,-0.253152 -0.0625,-0.375 -0.0256,-0.08958 -0.23987,-0.07815 -0.125,-0.25 -0.0276,-0.13778 0.0784,-0.322395 -0.0625,-0.4375 -0.0529,-0.211673 -0.2058,-0.341236 -0.25,-0.5625 -0.0646,-0.322901 -0.2159,-0.615639 -0.3125,-0.9375 -0.1004,-0.33469 -0.1303,-0.719268 -0.1875,-1.0625 -0.0932,-0.559409 0.0446,-2.473363 -0.125,-2.8125 -0.0637,-0.12744 -0.35102,-0.15025 -0.5,-0.1875 -0.51644,-0.12911 -1.0347,-0.331941 -1.5625,-0.4375 -0.5305,-0.1061 0.33794,0.293972 -0.625,-0.1875 -0.29004,-0.145022 -0.35289,-0.317722 -0.5625,-0.4375 -0.0746,-0.04262 -0.1829,-0.0088 -0.25,-0.0625 -0.0514,-0.04116 -0.026,-0.13268 -0.0625,-0.1875 -0.0134,-0.02012 -0.2266,-0.09375 -0.25,-0.125 -0.0395,-0.05271 -0.023,-0.13479 -0.0625,-0.1875 -0.0555,-0.07405 -0.3445,-0.235433 -0.4375,-0.375 -0.0365,-0.05482 -0.026,-0.13268 -0.0625,-0.1875 -0.0116,-0.01733 -0.0478,0.01473 -0.0625,0 -0.2371,-0.237075 -0.035,-0.120836 -0.1875,-0.375 -0.10987,-0.183115 -0.31881,-0.321967 -0.4375,-0.5 -0.0366,-0.05488 -0.1344,-0.27711 -0.1875,-0.3125 -0.0347,-0.02311 -0.0855,0.01318 -0.125,0 -0.0652,-0.02173 -0.0972,-0.1527 -0.125,-0.1875 -0.4096,-0.511949 0.0296,0.09212 -0.375,-0.3125 -0.0265,-0.02648 -0.164,-0.28903 -0.1875,-0.3125 -0.18686,-0.186857 -0.46065,-0.280869 -0.625,-0.5 -0.11171,-0.148946 -0.18162,-0.369115 -0.3125,-0.5 -0.0531,-0.05311 -0.1344,-0.07189 -0.1875,-0.125 -0.0147,-0.01473 0.007,-0.04274 0,-0.0625 -0.0675,-0.202361 -0.3659,-0.479 -0.4375,-0.5625 -0.0208,0 -0.0535,0.01863 -0.0625,0 -0.0227,-0.04548 -0.0265,-0.28488 -0.0625,-0.375 -0.2008,-0.501934 -0.1875,-1.090634 -0.1875,-1.625 0,-0.568696 -0.078,-1.51654 0,-2.0625 0.007,-0.04612 0.0565,-0.07878 0.0625,-0.125 0.0256,-0.205128 -0.0256,-0.419872 0,-0.625 0.0333,-0.266765 0.0181,-0.608426 0.0625,-0.875 0.0432,-0.259303 0.1244,-0.497585 0.1875,-0.75 0.0844,-0.337663 -0.0154,-0.8758 0.0625,-1.1875 0.1424,-0.56957 0.1239,-0.05247 0.1875,-0.625 0.0243,-0.218743 -0.0434,-0.470664 0,-0.6875 0.009,-0.04568 0.0535,-0.07932 0.0625,-0.125 0.0163,-0.08171 -0.031,-0.17263 0,-0.25 0.134,-0.33579 0.125,-0.141813 0.125,-0.3125 0,-0.45958 0.34259,-1.435185 0.5625,-1.875 0.0806,-0.161114 0.2428,-0.388298 0.3125,-0.5625 0.0155,-0.03869 -0.0186,-0.08773 0,-0.125 0.0263,-0.0527 0.0908,-0.07705 0.125,-0.125 0.17757,-0.248599 0.30157,-0.54065 0.4375,-0.8125 0.0263,-0.0527 0.1031,-0.07029 0.125,-0.125 0.0394,-0.09863 0.0206,-0.21486 0.0625,-0.3125 0.055,-0.128454 0.1384,-0.244144 0.1875,-0.375 0.0146,-0.03901 -0.0186,-0.08773 0,-0.125 0.009,-0.01863 0.0535,0.01863 0.0625,0 0.0285,-0.0571 0.0987,-0.48355 0.125,-0.5625 0.0295,-0.08839 0.1024,-0.15961 0.125,-0.25 0.0324,-0.129534 0.0138,-0.315759 0.0625,-0.4375 0.0279,-0.06974 0.1012,-0.11624 0.125,-0.1875 0.0605,-0.181471 0,-1.823708 0,-2.1875 0,-0.890399 0.063,-1.809284 -0.0625,-2.6875 -0.009,-0.06432 0.022,-0.18401 0,-0.25 -0.0516,-0.154704 -0.1191,-0.584823 -0.1875,-0.6875 -0.0327,-0.04903 -0.0923,-0.07597 -0.125,-0.125 -0.0391,-0.05863 0.0321,-0.18581 0,-0.25 -0.0692,-0.13837 -0.1445,-0.246158 -0.1875,-0.375 -0.0625,-0.1875 0.0312,-0.0625 0,-0.1875 -0.0717,-0.286794 -0.2407,-0.525467 -0.3125,-0.8125 -0.0101,-0.04042 0.0295,-0.09554 0,-0.125 -0.0329,-0.03294 -0.0992,-0.02374 -0.125,-0.0625 -0.0347,-0.052 0.0442,-0.143306 0,-0.1875 -0.0466,-0.046585 -0.1835,0.1134836 -0.1875,-0.0625 -0.051,-0.05101 -0.1393,-0.373196 -0.1875,-0.4375 -0.0279,-0.037268 -0.0862,-0.03666 -0.125,-0.0625 -0.123,-0.082016 -0.0728,-0.1456594 -0.125,-0.25 -0.0263,-0.052705 -0.0987,-0.072295 -0.125,-0.125 C 380.5194,8.8512328 380.5428,8.710627 380.5,8.625 380.4737,8.572295 380.4077,8.549029 380.375,8.5 c -0.0116,-0.017334 0.009,-0.043866 0,-0.0625 -0.0395,-0.079057 -0.1385,-0.113957 -0.1875,-0.1875 -0.0365,-0.054816 0.091,-0.165214 -0.0625,-0.1875 -0.0147,-0.014731 -0.0478,0.014731 -0.0625,0 C 380.0363,8.0363098 380.0189,7.912879 380,7.875 379.9737,7.822295 379.9013,7.802705 379.875,7.75 c -0.0397,-0.079356 0.0277,-0.229435 0,-0.3125 -0.009,-0.027951 -0.0535,-0.034549 -0.0625,-0.0625 -0.0272,-0.08149 -0.0353,-0.16851 -0.0625,-0.25 -0.0758,-0.2272622 0,-0.8491366 0,-1.125 V 3.0625 c 0,-0.334466 0.0132,0.1415569 -0.0625,-0.3125 -0.0171,-0.1027494 0.0253,-0.2114435 0,-0.3125 -0.0113,-0.045194 -0.0565,-0.078775 -0.0625,-0.125 -0.0725,-0.5775495 0.10187,-1.181278 -0.21875,-1.53125 L 534.0212,0.6553301 c -0.072,0.4984998 -0.23916,0.4889368 -0.33236,0.5821068 -0.0847,0.084647 0.0186,0.7908164 0,0.8838834 -0.0365,0.1827205 -0.12328,0.3518497 -0.17678,0.5303301 -0.21417,0.7139216 -0.54541,1.3937135 -0.7071,2.1213204 -0.12663,0.5698413 -0.0951,3.7669759 0,4.2426406 0.0841,0.420654 0.27685,0.8153719 0.35355,1.2374366 0.0422,0.231901 -0.0462,0.475982 0,0.707107 0.0163,0.08172 0.14588,0.09941 0.17678,0.176777 0.20761,0.519034 0.40463,1.046289 0.53033,1.59099 0.13611,0.589808 0.10838,5.006582 0,5.656854 -0.11402,0.68411 -0.70747,1.532665 -1.06066,2.121321 -0.41023,0.683717 -0.70035,1.387189 -0.88389,2.12132 -0.1713,0.685238 -0.81435,1.287737 -1.06066,1.944544 -0.0621,0.165521 0.0347,0.356986 0,0.53033 -0.0935,0.467387 -0.41415,0.949494 -0.53033,1.414213 -0.0286,0.114333 0.0373,0.24175 0,0.353554 -0.27585,0.827557 -0.60446,1.63662 -0.88388,2.474873 -0.15018,0.450694 -0.0737,0.950454 -0.17678,1.414214 -0.0572,0.257248 -0.30185,0.448701 -0.35355,0.707107 -0.16878,0.846067 -0.0345,1.798001 -0.17678,2.65165 -0.42938,2.576323 -1.04949,4.871614 -2.97126,6.888194 C 525.05758,41 524.4324,41.067596 524,41.5 c -0.0295,0.02946 0.0347,0.10189 0,0.125 -0.14645,0.09763 -0.48126,0.10626 -0.625,0.25 -0.0909,0.09094 -0.0834,0.375028 -0.25,0.5 -0.19437,0.145774 -0.47323,0.185283 -0.625,0.375 -0.11641,0.145506 -0.14664,0.344956 -0.25,0.5 -0.0536,0.08033 -1.00836,0.91251 -1.125,1 -0.23749,0.178115 -0.336,0.378995 -0.5,0.625 -0.10289,0.08231 -0.25715,0.06607 -0.375,0.125 -0.29517,0.147583 -0.57262,0.473808 -0.875,0.625 -0.24565,0.122825 -0.62252,0.194654 -0.875,0.375 -0.39168,0.27977 -0.67486,0.586312 -1.125,0.75 -2.68095,0.974889 -5.46272,1.73136 -8,3 -0.35,0.175 -0.775,0.2 -1.125,0.375 -0.0502,0.02511 -0.65875,0.41891 -0.875,0.5 -0.69849,0.261933 -1.39629,0.547217 -2,1 -0.4374,0.328046 -0.10123,0.134973 -0.375,0.5 -0.125,0.166667 -0.38444,0.201656 -0.5,0.375 -0.25,0.375 0.125,0.125 0,0.375 -0.19135,0.382688 -0.53888,0.648132 -0.75,1 -0.0858,0.142915 0.0527,0.341886 0,0.5 -0.0988,0.29651 -0.3782,0.695509 -0.5,1 -0.1094,0.273555 -0.0535,0.589169 -0.125,0.875 -0.12707,0.508264 -0.73619,1.083392 -1.125,1.375 -0.42696,0.320218 -0.90619,0.607106 -1.375,0.875 -0.27552,0.157437 -0.64784,0.103535 -0.875,0.375 -0.47238,0.283428 -1.07615,0.794182 -1.625,1 -0.19893,0.0746 -0.43848,0.02326 -0.625,0.125 -0.36579,0.199522 -0.67991,0.483256 -1,0.75 -0.18107,0.150893 -0.33333,0.333333 -0.5,0.5 0,0.04167 0.0295,0.09554 0,0.125 -0.62029,0.62029 -1.39291,1.117431 -1.875,1.875 -1.74701,2.745305 -0.10504,0.120079 -0.75,1.625 -0.0592,0.138084 -0.1667,0.25 -0.25,0.375 -0.0417,0.08333 -0.0904,0.16349 -0.125,0.25 -0.50331,1.258284 0.0976,-0.2654 -0.125,0.625 -0.2205,0.881993 -0.5285,1.739001 -0.75,2.625 -0.32018,1.280731 0.16102,-0.98307 -0.5,1 -0.13911,0.417334 0,1.059771 0,1.5 0,1.706007 -0.0517,3.421131 0.625,5 0.33153,0.773576 0.98325,1.399518 1.125,2.25 0.0811,0.48655 0.0788,1.276875 0,1.75 -0.0342,0.205499 -0.3091,0.302357 -0.375,0.5 -0.0521,0.15625 0.0347,0.451389 0,0.625 -0.0733,0.366434 -0.22254,0.519263 -0.375,0.875 -0.0519,0.121108 -0.0833,0.25 -0.125,0.375 0,0.08333 0.0263,0.17094 0,0.25 -0.0729,0.218546 -0.3942,0.413396 -0.5,0.625 -0.1729,0.345806 -0.24689,0.865653 -0.375,1.25 -0.0295,0.08839 -0.0833,0.16667 -0.125,0.25 -0.0417,0 -0.1118,-0.03953 -0.125,0 -0.0395,0.118585 0.0245,0.252427 0,0.375 -0.0922,0.460751 -0.28333,1.066649 -0.5,1.5 -0.0323,0.06465 -0.495,0.96821 -0.5,1 -0.0354,0.247487 0.0276,0.501529 0,0.75 -0.0455,0.409439 -0.2034,0.830111 -0.25,1.25 -0.0773,0.695774 0,1.423726 0,2.125 v 5.125 c 0,1.448774 0.19436,2.9935 -0.6875,4.25 -1.00434,-0.125 -1.9084,-0.30137 -2.4375,-0.125 -1.81086,0.60362 0.39415,-0.0721 -0.75,0.5 -0.38339,0.19169 -1.06557,0.35519 -1.5,0.5 -0.24639,0.0821 -1.06711,-0.1829 -1.25,0 -0.0589,0.0589 0.0745,0.2127 0,0.25 -0.14907,0.0745 -0.34526,-0.0619 -0.5,0 -0.27897,0.11159 -0.48126,0.36563 -0.75,0.5 -0.46667,0.23333 -1.28333,-0.23333 -1.75,0 -0.43841,0.2192 -0.79896,0.77448 -1.25,1 -0.47141,0.2357 -1.06147,0.20765 -1.5,0.5 -0.0693,0.0462 0.0589,0.1911 0,0.25 -0.11785,0.11785 -0.38215,-0.11785 -0.5,0 -0.15359,0.15359 -0.16516,0.58258 -0.5,0.75 -0.15152,0.0758 -0.64524,0.14524 -0.75,0.25 -0.44831,0.44831 -7.3e-4,0.70029 -0.75,1 -0.23212,0.0928 -0.55,-0.15 -0.75,0 -0.61464,0.46098 -0.86074,1.32383 -1.5,1.75 -0.42541,0.28361 -0.82459,0.21639 -1.25,0.5 -0.0693,0.0462 0.0589,0.1911 0,0.25 -0.13176,0.13176 -0.36824,0.11824 -0.5,0.25 -0.13176,0.13176 -0.095,0.39664 -0.25,0.5 -0.20801,0.13867 -0.61133,-0.20801 -0.75,0 -0.14618,0.21926 -0.10383,0.53074 -0.25,0.75 -0.13868,0.20801 -0.52639,-0.1118 -0.75,0 -0.0745,0.0373 0.0589,0.1911 0,0.25 -0.5879,0.58789 -1.46192,0.78256 -2,1.5 -0.44718,0.59623 -1.16597,1.33194 -1.5,2 -0.29416,0.58832 -0.71982,1.96982 -1.25,2.5 -0.39417,0.39417 -1.11645,0.61645 -1.5,1 -0.13176,0.13176 -0.095,0.39664 -0.25,0.5 -0.13868,0.0924 -0.35093,-0.0745 -0.5,0 -0.21082,0.10541 -0.28918,0.39459 -0.5,0.5 -0.45357,0.22678 -2.58973,0 -3.25,0 -0.88227,0 -4.28387,0.23307 -4.75,0 -0.53676,-0.2684 -0.61567,-0.12313 -1.25,-0.25 -0.4298,-0.086 -1.37866,-0.31433 -1.75,-0.5 -0.10541,-0.0527 -0.1382,-0.2127 -0.25,-0.25 -0.31623,-0.10541 -0.67662,0.0808 -1,0 -0.18078,-0.0452 -0.31923,-0.2048 -0.5,-0.25 -0.89655,-0.22414 -2.0608,0 -3,0 -1.56892,0 -3.45327,-0.30935 -5,0 -0.3963,0.0793 -2.4344,1.61884 -2.5,1.75 -0.0373,0.0745 0,0.1667 0,0.25 -0.0833,0.16667 -0.1667,0.33333 -0.25,0.5 -0.28284,0.37712 -0.69822,0.63786 -1,1 -1.25061,1.50074 -2.76348,3.30391 -3.25,5.25 -0.0606,0.24254 0.0928,0.51788 0,0.75 -0.13841,0.34602 -0.38215,0.64645 -0.5,1 -0.22458,0.67374 0.17267,1.5593 0,2.25 -0.17034,0.68136 -0.88585,1.20789 -0.26419,1.95287 l -2.431,-0.0471 c -0.16312,0 -0.59857,0.0492 -0.7955,0 -0.0639,-0.016 -0.11785,-0.0589 -0.17678,-0.0884 -0.0884,-0.0295 -0.1738,-0.0701 -0.26516,-0.0884 -0.3391,-0.0678 -1.45096,-0.0122 -1.67938,-0.0884 -0.125,-0.0417 -0.23122,-0.12784 -0.35355,-0.17678 -0.26913,-0.10765 -0.6167,-0.13157 -0.88389,-0.26516 -0.0745,-0.0373 -0.10224,-0.13951 -0.17677,-0.17678 -0.0527,-0.0264 -0.12088,0.0186 -0.17678,0 -0.14569,-0.0486 -0.6229,-0.31145 -0.70711,-0.35355 -0.17532,-0.0877 -0.36127,-0.38559 -0.53033,-0.44194 -0.0559,-0.0186 -0.12407,0.0264 -0.17677,0 -0.73199,-0.366 -0.0761,-0.17187 -0.53033,-0.35356 -0.36802,-0.1472 -0.77515,-0.22892 -1.14905,-0.35355 -0.25601,-0.0853 -0.12007,-0.1308 -0.44194,-0.17678 -0.14584,-0.0208 -0.30219,0.0466 -0.44195,0 -0.0625,-0.0208 -0.11785,-0.0589 -0.17677,-0.0884 -0.0884,-0.0589 -0.16439,-0.14318 -0.26517,-0.17677 -0.16103,-0.40059 -0.4166,-0.0379 -0.61872,-0.0884 -0.21265,-0.0532 -0.2815,-0.1233 -0.44194,-0.17678 -0.1677,-0.0559 -0.3564,0.0316 -0.53033,0 -0.94934,-0.17261 -0.3014,-0.16113 -1.23743,-0.44194 -0.0847,-0.0254 -0.1785,0.0173 -0.26517,0 -0.21033,-0.0421 -0.40769,-0.13841 -0.61872,-0.17678 -0.28987,-0.0527 -0.59046,0.0267 -0.88388,0 -0.14732,-0.0295 -0.29463,-0.0589 -0.44194,-0.0884 -0.0589,-0.0295 -0.11218,-0.0755 -0.17678,-0.0884 -0.71198,-0.1424 -1.55362,-0.26984 -2.2981,-0.17678 -0.42857,0.0536 -0.77785,0.25634 -1.14905,0.44194 -0.0859,0.0429 -0.26765,0.0454 -0.35355,0.0884 -0.095,0.0475 -0.16439,0.14318 -0.26516,0.17678 -0.0839,0.028 -0.1785,-0.0173 -0.26517,0 -0.15558,0.0311 -0.28802,0.13829 -0.44194,0.17677 -0.13876,0.0347 -0.30223,-0.031 -0.44194,0 -0.36476,-0.18449 -0.52433,0.19738 -0.7955,0.26517 -0.24232,0.0606 -0.661,0.043 -0.88388,0.17678 -0.0565,0.0339 -0.0418,0.13019 -0.0884,0.17677 -0.0208,0.0208 -0.062,-0.0132 -0.0884,0 -0.32319,0.1616 -0.53464,0.46904 -0.88388,0.61872 -0.0542,0.0232 -0.12407,-0.0263 -0.17678,0 -0.13176,0.0659 -0.22723,0.18937 -0.35355,0.26517 -0.0253,0.0152 -0.0676,-0.0208 -0.0884,0 -0.0659,0.0659 -0.005,0.22349 -0.0884,0.26516 -0.0527,0.0263 -0.12775,-0.0327 -0.17677,0 -0.0548,0.0365 -0.0336,0.14023 -0.0884,0.17678 -0.049,0.0327 -0.12408,-0.0263 -0.17678,0 -0.005,0.002 -0.42164,0.33325 -0.44194,0.35355 -0.0466,0.0466 -0.0357,0.13725 -0.0884,0.17678 -0.19003,0.14252 -0.42108,0.22179 -0.61872,0.35355 -0.0693,0.0462 -0.0994,0.14583 -0.17678,0.17678 -0.0821,0.0328 -0.1861,-0.0395 -0.26516,0 -0.1118,0.0559 -0.16116,0.19583 -0.26517,0.26516 -0.0775,0.0517 -0.18527,0.0405 -0.26516,0.0884 -0.23272,0.13963 -0.47886,0.37817 -0.70711,0.53033 -0.10963,0.0731 -0.26038,0.0836 -0.35355,0.17678 -0.0466,0.0466 -0.0336,0.14023 -0.0884,0.17677 -0.049,0.0327 -0.11785,0 -0.17678,0 -0.0884,0.0589 -0.19004,0.10167 -0.26516,0.17678 -0.0208,0.0208 0.0184,0.0654 0,0.0884 0.0126,0.39961 -0.36762,0.27923 -0.53033,0.44194 -0.0466,0.0466 -0.0418,0.13019 -0.0884,0.17678 -0.34533,0.34533 -0.84632,0.51613 -1.23744,0.79549 -0.55118,0.3937 -1.08459,0.81862 -1.67937,1.14905 -0.30585,0.16992 -0.67751,0.33382 -0.97228,0.53033 -0.0693,0.0462 -0.11011,0.12678 -0.17677,0.17678 -0.45751,0.34313 -1.03811,0.5521 -1.5026,0.88388 -0.15352,0.10965 -0.28197,0.25357 -0.44195,0.35356 -0.079,0.0494 -0.19241,0.0302 -0.26516,0.0884 -0.0829,0.0664 -0.0952,0.19716 -0.17678,0.26517 -0.10122,0.0844 -0.24814,0.0977 -0.35355,0.17678 -0.13334,0.1 -0.22552,0.24685 -0.35356,0.35355 -0.26025,0.21688 -1.09572,0.60094 -1.41421,0.70711 -0.15944,0.0531 -0.36666,-0.0409 -0.53033,0 -1.03565,0.25891 -2.11341,0.17677 -3.18198,0.17677 -1.0571,0 -0.004,-0.0291 -1.06066,0.0884 -0.74812,0.0831 -1.66169,-0.14496 -2.38648,0 -0.27276,0.0546 -0.27442,0.0884 -0.53029,-0.0884 -0.28423,-0.17677 -0.86079,-0.25365 -1.06063,-0.35355 z"
         id="path251" />
    </g>
  </g>
</svg>
