<?xml version="1.0" encoding="UTF-8" standalone="no"?>
<!-- Created with Inkscape (http://www.inkscape.org/) -->

<svg
   version="1.1"
   id="svg2"
   width="80.743042"
   height="106.96927"
   viewBox="0 0 80.743042 106.96927"
   xmlns="http://www.w3.org/2000/svg"
   xmlns:svg="http://www.w3.org/2000/svg">
  <defs
     id="defs6">
    <linearGradient
       id="swatch77">
      <stop
         style="stop-color:#e2c69e;stop-opacity:1;"
         offset="0"
         id="stop77" />
    </linearGradient>
  </defs>
  <g
     id="layer66"
     style="display:inline"
     transform="translate(-433.67714,-189.94655)">
    <g
       id="layer18"
       style="display:inline">
      <path
         style="display:inline;fill:#969696;fill-opacity:1;stroke:none;stroke-width:1;stroke-dasharray:none;stroke-opacity:1"
         d="m 505.58135,296.63129 c -0.15812,-0.079 -0.35699,0.0347 -0.53033,0 -1.2868,-0.25736 0.13661,-0.0201 -0.88389,-0.53033 -0.10541,-0.0527 -0.24814,0.0527 -0.35355,0 -0.0527,-0.0263 0.0417,-0.13507 0,-0.17677 -0.24296,-0.24296 -0.60901,-0.32418 -0.88388,-0.53033 -0.16997,-0.12748 -0.17678,-0.41248 -0.35356,-0.53033 -0.0981,-0.0654 -0.24175,0.0373 -0.35355,0 -0.2094,-0.0698 -0.33155,-0.43093 -0.53033,-0.53033 -0.36513,-0.18257 -0.87878,-0.26134 -1.23744,-0.53033 -0.13333,-0.1 -0.21488,-0.26116 -0.35355,-0.35356 -0.20209,-0.13473 -0.64194,-0.19225 -0.88388,-0.35355 -0.40087,-0.26725 -0.90339,-0.75618 -1.41422,-0.88388 -0.51136,-0.12785 -1.17579,-0.25354 -1.59099,-0.53033 -0.20801,-0.13868 -0.29821,-0.43753 -0.53033,-0.53033 -1.65858,-0.66344 -2.95002,-1.19605 -4.41942,-2.2981 -0.1054,-0.0791 -0.26035,-0.0836 -0.35355,-0.17678 -0.18634,-0.18634 0.70454,-0.8593 -0.35355,-0.7071 -0.14551,-0.11638 -0.38483,-0.0604 -0.53033,-0.17678 -0.1659,-0.13272 -0.21754,-0.36712 -0.35356,-0.53033 -0.16004,-0.19206 -0.38033,-0.33033 -0.53033,-0.53033 -0.0354,-0.0471 0.0417,-0.13508 0,-0.17678 -0.41388,-0.41388 -1.25898,-0.86087 -1.59099,-1.41421 -0.0959,-0.15979 -0.0575,-0.38718 -0.17677,-0.53033 -0.0716,-0.0859 -0.93371,-0.62998 -1.06066,-0.88388 -0.0527,-0.10541 0.0833,-0.27026 0,-0.35356 -0.13176,-0.13177 -0.39857,-0.045 -0.53033,-0.17677 -0.13178,-0.13177 -0.0809,-0.37055 -0.17678,-0.53034 -0.0857,-0.14291 -0.24944,-0.2234 -0.35355,-0.35355 -0.13272,-0.1659 -0.18765,-0.39761 -0.35356,-0.53033 -0.1455,-0.11638 -0.37528,-0.0734 -0.53033,-0.17678 -0.15507,-0.10336 -0.045,-0.39856 -0.17677,-0.53033 -0.18634,-0.18633 -0.49629,-0.19543 -0.70711,-0.35355 -0.4,-0.3 -0.67023,-0.74831 -1.06066,-1.06066 -0.046,-0.0368 -0.13508,0.0417 -0.17678,0 -0.16232,-0.16232 -0.58674,-0.88237 -0.88388,-1.06066 -0.15978,-0.0959 -0.38482,-0.0604 -0.53033,-0.17678 -0.3461,-0.27687 -0.54896,-0.96949 -0.88388,-1.23743 -0.20578,-0.16462 -0.52077,-0.16722 -0.70711,-0.35356 -0.24296,-0.24295 -0.31939,-0.61266 -0.53033,-0.88388 -0.33254,-0.42755 -0.92967,-0.77579 -1.23744,-1.23744 -0.29058,-0.43588 -0.52132,-1.05165 -0.88388,-1.41421 -0.0932,-0.0932 -0.27455,-0.0714 -0.35355,-0.17678 -0.11178,-0.14907 -0.0935,-0.36366 -0.17678,-0.53033 -0.0331,-0.0662 -1.04216,-1.40031 -1.06066,-1.41421 -0.14907,-0.11178 -0.37529,-0.0734 -0.53033,-0.17678 -0.049,-0.0327 0.0327,-0.12777 0,-0.17677 -0.11785,-0.17678 -0.70711,-0.76604 -0.88388,-0.88389 -0.43515,-0.29009 -0.97908,-0.41701 -1.41422,-0.7071 -0.33574,-0.22383 -0.5738,-0.62548 -0.88388,-0.88389 -0.47954,-0.39962 -1.14958,-0.79602 -1.59099,-1.23743 -0.14088,-0.14088 -1.93755,-2.10682 -1.94455,-2.12132 -0.0263,-0.0527 0.0417,-0.13508 0,-0.17678 -0.0932,-0.0932 -0.26035,-0.0836 -0.35355,-0.17678 -0.13178,-0.13176 -0.045,-0.39857 -0.17678,-0.53033 -0.0932,-0.0932 -0.24392,-0.10367 -0.35355,-0.17677 -0.23521,-0.15681 -0.36459,-0.54138 -0.53033,-0.70711 -0.18634,-0.18634 -0.49629,-0.19544 -0.70711,-0.35355 -0.43605,-0.32705 -0.59685,-0.8069 -0.88388,-1.23744 -0.27075,-0.40616 -0.10097,0.0758 -0.53033,-0.35356 -0.18634,-0.18633 -0.19544,-0.49628 -0.35355,-0.7071 -1.34357,-1.79142 0.85563,1.38032 -0.88389,-0.70711 -0.1687,-0.20244 -0.19544,-0.49629 -0.35355,-0.70711 -0.55452,-0.73935 -1.27992,-1.30823 -1.76777,-2.12132 -0.46339,-0.77231 0.15237,0.12797 -0.35355,-0.88388 -0.1118,-0.22361 -0.39166,-0.32232 -0.53033,-0.53033 -0.10036,-0.15054 0.39453,-0.98839 -0.35355,-0.70711 -0.0932,-0.0932 -0.37116,0.17343 -0.35356,-0.17677 -0.38022,-0.57034 -0.85082,-1.16845 -1.41421,-1.59099 -0.10541,-0.0791 -0.2357,-0.11788 -0.35355,-0.17678 -0.0589,0 -0.12408,0.0263 -0.17678,0 -0.94261,-0.4713 0.33528,0.0854 -0.17678,-0.35355 -0.48393,-0.4148 -1.14029,-0.60997 -1.59099,-1.06066 -0.20833,-0.20834 -0.35355,-0.47141 -0.53033,-0.70711 0,-0.11785 0.0606,-0.2525 0,-0.35355 -0.12862,-0.21438 -0.37028,-0.33828 -0.53033,-0.53033 -0.13601,-0.16322 -0.20332,-0.3801 -0.35355,-0.53033 -0.0417,-0.0417 -0.13508,0.0417 -0.17678,0 -0.11072,-0.11072 -0.29105,-0.77978 -0.35355,-0.88389 -0.12863,-0.21437 -0.45123,-0.29316 -0.53033,-0.53033 -0.0373,-0.1118 0.0373,-0.24175 0,-0.35355 -0.1052,-0.3156 -0.70377,-1.40753 -0.88388,-1.76777 -0.65161,-1.30314 -0.024,-0.024 -0.70711,-0.7071 -0.10775,-0.10775 -1.12532,-1.5809 -1.23744,-1.76777 -0.86244,-1.4374 0.36193,0.18934 -0.35355,-0.88388 -0.49686,-0.7453 -2.16455,-1.05989 -2.82843,-1.591 -0.39043,-0.31234 -0.68103,-0.73526 -1.06066,-1.06066 -0.14719,-0.12616 -0.72935,-0.26085 -0.88388,-0.35355 -0.41641,-0.24984 -0.65586,-0.79079 -1.06066,-1.06066 -0.43385,-0.28923 -0.98206,-0.36138 -1.41422,-0.70711 -0.80744,-0.64595 -2.27991,-2.71277 -2.82842,-3.53553 -0.73571,-1.10355 -0.0589,-0.29463 -0.53033,-1.23744 -1.22229,-2.44458 -1.43282,-5.35052 -1.45841,-8.26431 -0.32183,-0.5261 -0.34083,-1.00342 -0.44194,-1.4584 -0.0233,-0.1047 -0.0683,-0.20401 -0.0884,-0.30936 -0.0977,-0.51298 -0.14301,-1.04775 -0.30936,-1.5468 -0.0355,-0.10643 -0.0932,-0.20431 -0.13258,-0.30936 -0.0677,-0.18039 -0.0818,-0.3883 -0.13259,-0.57452 -0.0331,-0.12143 -0.0964,-0.233 -0.13258,-0.35356 -0.0483,-0.16088 -0.10883,-0.31986 -0.13258,-0.48613 -0.006,-0.0438 0.014,-0.0907 0,-0.13258 -0.0168,-0.0504 -0.0675,-0.0838 -0.0884,-0.13259 -0.053,-0.12362 -0.0993,-0.30872 -0.13258,-0.44194 -0.0737,-0.29476 -0.12446,-0.59434 -0.22097,-0.88388 -0.0304,-0.0913 -0.10682,-0.20632 -0.13258,-0.30936 -0.0143,-0.0572 0.0115,-0.119 0,-0.17678 -0.0502,-0.2509 -0.17557,-0.51237 -0.26517,-0.7513 -0.0747,-0.19914 -0.18674,-0.37847 -0.26516,-0.57452 -0.14725,-0.36812 -0.29595,-0.75618 -0.48614,-1.10486 -0.12124,-0.22226 -0.28417,-0.40851 -0.35355,-0.66291 -0.19383,-0.7107 0.12379,0.18753 -0.13259,-0.53033 -0.098,-0.27429 -0.24601,-0.55462 -0.30936,-0.83969 -0.0624,-0.2809 -0.0849,-0.56415 -0.17677,-0.83969 -0.007,-0.0198 -0.0376,-0.0244 -0.0442,-0.0442 -0.10246,-0.12116 -0.008,-0.26949 -0.0442,-0.39775 -0.0146,-0.0511 -0.0716,-0.0822 -0.0884,-0.13258 -0.014,-0.0419 0.004,-0.0885 0,-0.13259 -0.0504,-0.60449 -0.0442,-1.20479 -0.0442,-1.81196 l 0.15469,-3.71225 c 0.33835,-0.051 0.48119,-0.0306 0.68502,-0.13252 0.0745,-0.0373 0.10227,-0.13948 0.17677,-0.17678 0.0707,-0.0353 0.19447,0.0354 0.26517,0 0.13537,-0.0677 0.0691,-0.15751 0.17677,-0.26516 0.0417,-0.0417 0.12408,0.0263 0.17678,0 0.18868,-0.0944 -0.0119,-0.0825 0.17678,-0.17678 0.0906,-0.0453 0.26295,-0.0431 0.35355,-0.0884 0.17925,-0.0896 0.21907,-0.30405 0.44194,-0.35355 0.20338,-0.0452 0.41661,-0.0379 0.61872,-0.0884 0.0809,-0.0202 0.10748,-0.13058 0.17678,-0.17678 0.59361,-0.39575 -0.0637,0.0431 0.26516,-0.0884 0.29638,-0.11855 0.92855,-0.48661 1.14905,-0.70711 0.21468,-0.21467 -0.0263,-0.12979 0.17678,-0.26517 0.0775,-0.0517 0.19066,-0.0325 0.26516,-0.0884 0.18409,-0.13807 0.35065,-0.2982 0.53033,-0.44195 0.44786,-0.35828 0.70379,-0.88122 1.14905,-1.23743 0.28952,-0.23162 0.67866,-0.44255 0.97227,-0.61872 0.33513,-0.20108 0.40953,-0.39554 0.70711,-0.61872 0.0236,-0.0177 0.0639,0.0163 0.0884,0 0.20803,-0.13869 0.39722,-0.41958 0.61872,-0.53033 0.0527,-0.0264 0.12777,0.0327 0.17677,0 0.0548,-0.0365 0.0418,-0.13018 0.0884,-0.17678 0.13976,-0.13975 0.36588,-0.15553 0.53033,-0.26516 0.71004,-0.47336 1.10226,-1.35703 1.76777,-1.85616 0.19642,-0.14731 0.22097,-0.29462 0.44194,-0.44194 0.0775,-0.0517 0.18187,-0.0467 0.26517,-0.0884 0.10606,-0.053 0.1591,-0.21216 0.26516,-0.26516 0.68571,-0.34286 1.35122,-0.54303 2.03293,-0.88389 0.0102,-0.005 0.43894,-0.0854 0.44194,-0.0884 0.0208,-0.0209 -0.0253,-0.0732 0,-0.0884 0.20766,-0.12459 0.58163,-0.24662 0.7955,-0.35356 0.095,-0.0475 0.17677,-0.11787 0.26517,-0.17677 0,-0.0295 -0.0245,-0.0721 0,-0.0884 0.16444,-0.10963 0.35872,-0.16707 0.53033,-0.26517 0.29198,-0.16684 0.75057,-0.88243 0.88388,-1.14904 0.0417,-0.0833 0.0367,-0.18767 0.0884,-0.26517 0.0693,-0.10401 0.19896,-0.15916 0.26516,-0.26516 0.0841,-0.13455 0.0981,-0.30419 0.17678,-0.44195 0.0756,-0.13226 0.34934,-0.4953 0.44194,-0.61871 0.15581,-0.20775 0.41781,-0.42988 0.61872,-0.53033 0.12598,-0.063 0.12718,-0.17847 0.17678,-0.26517 0.34737,-0.60791 0.82492,-1.02845 0.79549,-1.50261 0.44194,0.61873 0.8198,0.94955 1.14905,1.32583 0.43425,0.063 0.0734,0.37529 0.17678,0.53033 0.40683,0.61025 0.98855,0.99507 1.41421,1.59099 0.10831,0.15163 0.0604,0.38483 0.17678,0.53033 0.13272,0.16591 0.41247,0.17678 0.53033,0.35356 0.13476,0.20215 0.0562,0.49616 0.17677,0.7071 0.32067,0.56117 1.08166,0.85996 1.41422,1.41422 0.0959,0.15978 0.0934,0.36366 0.17677,0.53033 0.35496,0.70991 0.53822,0.53822 1.06066,1.06066 0.20834,0.20833 0.322,0.49877 0.53033,0.7071 0.97169,0.97169 3.29508,1.6404 3.88909,2.82843 -0.0376,0.36752 0.2745,0.0714 0.35355,0.17678 0.1904,0.25386 0.15533,0.63609 0.35356,0.88388 0.20823,0.26029 0.49017,0.45402 0.7071,0.70711 0.84555,0.98647 1.54947,2.0798 2.47488,3.0052 0.0589,0.0589 0.11785,0.11785 0.17677,0.17678 0.0589,0 0.12775,-0.0327 0.17678,0 0.95366,0.63577 -0.12175,0.055 0.53033,0.70711 0.31796,0.31796 0.76309,0.48712 1.06066,0.88388 0.12748,0.16997 0.25854,0.3403 0.35355,0.53033 0.0264,0.0527 -0.0417,0.13511 0,0.17678 0.18634,0.18634 0.48785,0.20737 0.70711,0.35355 0.20359,0.13572 0.33438,0.38337 0.53033,0.53033 0.36516,0.27387 0.92182,0.56827 1.23744,0.88388 0.0782,0.0782 0.40069,0.75425 0.53033,0.88389 0.0417,0.0417 0.11785,0 0.17678,0 0.11785,0.0589 0.28046,0.0671 0.35355,0.17677 0.0654,0.0981 -0.0833,0.27022 0,0.35356 0.0833,0.0833 0.25549,-0.0654 0.35355,0 0.10963,0.0731 0.0836,0.26038 0.17678,0.35355 0.56917,0.56917 1.34019,0.80986 1.94454,1.41421 0.0417,0.0417 -0.0417,0.13511 0,0.17678 0.21531,0.21531 0.39496,0.0828 0.53033,0.35355 0.0263,0.0527 0,0.11786 0,0.17678 0.0589,0.17678 0.0734,0.37529 0.17678,0.53033 0.0327,0.049 0.13511,-0.0417 0.17678,0 0.0833,0.0833 -0.0527,0.24814 0,0.35355 0.38165,0.76331 0.71751,1.46624 0.88388,2.2981 0.068,0.33996 -0.068,0.72071 0,1.06066 0.1038,0.51901 0.48988,0.97976 0.70711,1.41422 0.0709,0.14184 -0.0592,0.38245 0,0.53033 0.0979,0.24467 0.27022,0.4571 0.35355,0.7071 0.15496,0.46487 0.0319,1.08404 0.17678,1.59099 0.26129,0.91452 0.82868,1.72374 1.06066,2.65165 0.0429,0.1715 -0.0429,0.35883 0,0.53033 0.0404,0.16169 0.27901,0.20448 0.35355,0.35356 0.069,0.13807 0.19909,0.72942 0.35355,0.88388 0.0417,0.0417 0.15043,-0.0527 0.17678,0 0.15446,0.30892 -0.009,0.61177 0.35355,0.88388 0.49226,0.3692 1.1703,0.73452 1.76777,0.88389 0.42361,0.1059 1.94886,0.13969 2.2981,0 0.15474,-0.0619 0.20448,-0.27902 0.35355,-0.35356 0.34574,-0.17286 1.82566,0 2.2981,0 0.0728,0 0.48353,-0.0468 0.53033,0 0.15528,0.15528 0.47099,0.88264 0.53033,1.06066 0.0559,0.16771 -0.0791,0.37222 0,0.53033 0.0373,0.0745 0.15042,0.0977 0.17677,0.17678 0.0559,0.16771 -0.079,0.37222 0,0.53033 0.36786,0.7357 -0.0122,-0.18898 0.35356,0.17678 0.11665,0.11665 0.24974,0.56681 0.53033,0.7071 0.67748,0.33874 1.43263,0.005 2.12132,0.17678 1.70139,0.42535 -0.29268,-0.13619 0.70711,0.53033 0.0981,0.0654 0.24814,-0.0527 0.35355,0 0.29814,0.14907 0.42976,0.52221 0.70711,0.70711 0.049,0.0327 0.13511,-0.0417 0.17677,0 0.125,0.125 -0.0981,0.38324 0,0.53033 0.12413,0.18619 0.54881,0.29288 0.70711,0.53033 0.30479,0.45719 0.4372,0.96437 0.70711,1.41421 0.32748,0.5458 0.71246,1.0687 1.06066,1.59099 0.18131,0.27197 0.52579,0.43514 0.7071,0.70711 0.0327,0.049 -0.0417,0.13511 0,0.17677 0.0417,0.0417 0.13511,-0.0417 0.17678,0 0.15023,0.15024 0.20332,0.3801 0.35355,0.53033 0.0417,0.0417 0.13511,-0.0417 0.17678,0 0.34156,0.34157 0.54232,0.89588 0.88388,1.23744 0.36576,0.36576 -0.0143,-0.55892 0.35356,0.17678 0.15037,0.30074 -0.1715,0.35883 0.17677,0.7071 0.0987,0.0987 0.52575,0.2583 0.70711,0.53034 0.18839,0.28259 0.23816,0.66475 0.53033,0.88388 0.0943,0.0707 0.24175,-0.0373 0.35355,0 0.38511,-0.0661 0.0589,0.29463 0.17678,0.35355 0.15811,0.0791 0.40533,-0.125 0.53033,0 0.16464,0.16465 -0.0139,0.17678 0.44189,-0.26516 0.0883,-0.21642 0.20653,-0.17587 0.26513,-1e-5 0.0854,0.25478 -0.0219,0.51977 0.0884,0.79549 0.13229,0.33074 0.0576,0.0269 0.26516,0.44194 0.0833,0.16667 0.0935,0.36367 0.17678,0.53033 0.10623,0.21246 0.25705,0.40166 0.35355,0.61872 0.25514,0.57403 -0.31158,-0.24641 0.0884,0.35356 0.36503,0.54754 0.69143,1.03714 1.06066,1.59099 0.0731,0.10963 0.11788,0.2357 0.17678,0.35355 0,0.0589 -0.0264,0.12408 0,0.17678 0.16999,0.33998 0.43383,0.63948 0.61871,0.97227 0.31229,0.56211 0.50978,1.19632 0.7955,1.76776 0.0659,0.13177 0.19366,0.22478 0.26516,0.35356 0.0771,0.13869 0.11788,0.29463 0.17678,0.44194 0.0295,0.0884 0.0438,0.18337 0.0884,0.26517 0.1331,0.24401 0.31764,0.45849 0.44194,0.7071 0.0543,0.10866 0.0341,0.2449 0.0884,0.35356 0.13044,0.26087 0.44919,0.38137 0.61872,0.61871 0.0342,0.0479 -0.0263,0.12408 0,0.17678 0.11107,0.22215 0.41693,0.39193 0.53033,0.61872 0.19681,0.39363 0.33936,0.85551 0.53033,1.23744 0.0559,0.1118 0.20086,0.15797 0.26516,0.26516 0.0479,0.0799 0.0405,0.18527 0.0884,0.26517 0.0429,0.0714 0.13948,0.10227 0.17678,0.17677 0.0264,0.0527 -0.0186,0.12088 0,0.17678 0.0417,0.125 0.13247,0.22947 0.17677,0.35355 0.10346,0.28968 0.16171,0.59421 0.26517,0.88389 0.13019,0.36452 0.42702,0.44882 0.53033,0.7071 0.17362,0.43405 0.22369,0.95969 0.35355,1.41422 0.0755,0.26421 0.17857,0.53573 0.26517,0.79549 0.0417,0.125 0.15508,0.22359 0.17678,0.35355 0.0194,0.11625 -0.013,0.23643 0,0.35356 0.0514,0.46291 0.26265,0.87137 0.35355,1.32582 0.0801,0.40036 0.11868,0.83066 0.17678,1.23744 0.17577,1.22805 -0.004,-0.1947 0.17677,0.53033 0.0357,0.14292 -0.0357,0.29903 0,0.44194 0.0101,0.0404 0.0752,0.0489 0.0884,0.0884 0.0475,0.14252 0.0452,0.29805 0.0884,0.44194 0.14947,0.49822 0.19376,0.33128 0.26516,0.7955 0.0485,0.31539 0.0237,1.24401 0.0884,1.5026 0.0548,0.21919 0.21887,0.38696 0.26517,0.61872 0.0453,0.22675 -0.0381,0.47872 0,0.7071 0.1266,0.75948 0.0884,1.5271 0.0884,2.2981 v 1.94455 c 0,0.35407 0.0581,0.80034 0,1.14904 -0.0701,0.42026 -0.13618,0.79115 -0.17678,1.23744 -0.0478,0.52598 0.0373,1.06405 0.88388,1.59099 -1.05489,1.82273 -2.09515,4.2907 -3.0052,6.71752 -0.34123,0.90994 -0.43289,1.89609 -0.70711,2.82842 -0.49573,1.68549 -0.28955,0.0336 -0.70711,2.12132 -0.17989,0.89948 0.0258,2.75102 -0.17677,3.35876 -0.0417,0.125 -0.13511,0.22855 -0.17678,0.35355 -0.0884,0.26517 0.17678,0.17678 0,0.53033 -0.0263,0.0527 -0.15042,-0.0527 -0.17678,0 -0.0527,0.10541 0.0527,0.24815 0,0.35356 -0.0264,0.0527 -0.14409,-0.049 -0.17677,0 -0.20673,0.31008 -0.18689,0.72732 -0.35356,1.06066 -0.13176,0.26352 -0.49877,0.32199 -0.7071,0.53033 -0.24296,0.24295 -0.28738,0.64092 -0.53033,0.88388 -0.12964,0.12964 -0.80568,0.45212 -0.88389,0.53033 -0.23184,0.23184 -0.55163,0.88388 -0.88388,1.14904 -0.17599,0.0892 -0.12777,-0.15227 -0.35355,-0.26516 z"
         id="path57" />
    </g>
  </g>
</svg>
