<?xml version="1.0" encoding="UTF-8" standalone="no"?>
<!-- Created with Inkscape (http://www.inkscape.org/) -->

<svg
   version="1.1"
   id="svg1"
   width="79.372726"
   height="108.18733"
   viewBox="0 0 79.372726 108.18733"
   xmlns="http://www.w3.org/2000/svg"
   xmlns:svg="http://www.w3.org/2000/svg">
  <defs
     id="defs1" />
  <g
     id="layer1"
     style="display:inline"
     transform="translate(-434.82647,-190.16753)">
    <g
       id="layer63"
       style="display:inline;fill:#ffffff;fill-opacity:1;stroke:none">
      <path
         style="fill:#ffffff;fill-opacity:1;stroke:none;stroke-linecap:round"
         d="m 434.82647,206.16582 5.43588,-1.90035 12.1534,-12.1976 0.83969,-1.90034 6.67332,8.04333 1.54679,0.0442 3.57973,5.03813 11.84404,9.23659 2.51907,4.86136 1.67937,8.48528 1.67938,1.67938 4.68459,-0.61872 4.94974,6.36396 1.5468,-0.66291 11.62307,11.75565 5.61266,13.47922 3.0052,18.25219 -2.43068,4.64039 -5.56847,16.21926 -3.40295,1.37002 -15.82151,-14.49569 -4.99394,-6.67332 -13.56761,-11.93243 -9.41336,-13.30244 -4.90556,-4.28684 -2.65165,-5.92202 -8.22011,-4.68458 -3.88909,-8.66206 -4.41942,-14.3631 z"
         id="path61" />
    </g>
  </g>
</svg>
