<?xml version="1.0" encoding="UTF-8" standalone="no"?>
<!-- Created with Inkscape (http://www.inkscape.org/) -->

<svg
   version="1.1"
   id="svg1"
   width="178.1909"
   height="113.7558"
   viewBox="0 0 178.1909 113.7558"
   xmlns="http://www.w3.org/2000/svg"
   xmlns:svg="http://www.w3.org/2000/svg">
  <defs
     id="defs1" />
  <g
     id="layer1"
     style="display:inline"
     transform="translate(-0.26516504,-326.55073)">
    <g
       id="layer64"
       style="display:inline;fill:#ffffff;fill-opacity:1;stroke:none">
      <path
         style="fill:#ffffff;fill-opacity:1;stroke:none;stroke-linecap:round"
         d="m 0.26516504,411.53614 0.0883883,-38.84668 12.15339766,-0.0884 7.513009,-5.25911 4.772971,-7.24784 10.429825,-2.34229 8.573669,-3.62392 4.772971,-3.0494 1.811961,-4.06587 4.375223,-0.48613 4.286835,-2.82843 14.318912,-1.14905 6.540737,-6.09879 17.942834,-1.76777 2.386482,-3.62392 6.49655,-2.20971 51.88396,-2.2981 10.25304,4.72878 0.57453,2.51907 -2.2981,3.40295 -1.59099,6.49654 1.28163,7.11526 11.62307,19.53383 -1.10485,2.91681 -4.68459,4.24264 -3.13778,1.06066 -4.68459,6.58494 -4.64038,1.76776 -3.53554,11.3579 -0.61872,4.99395 -3.27036,3.57972 -8.79465,2.03294 -10.5624,4.68458 -8.92723,5.52427 -3.88908,7.15946 -6.27558,2.65165 h -7.95495 l -12.904695,-1.72358 -7.645592,0.0442 -8.396892,-2.82843 -12.330175,-1.72357 -11.932426,3.8007 -3.933282,3.97747 -7.468815,2.65165 -5.922019,4.86136 -5.745242,2.34229 -5.966214,-0.83969 -4.110058,-2.60745 -4.286835,-11.71146 -1.016465,-8.3527 -3.535534,-4.24264 -2.3422915,-1.10485 z"
         id="path63" />
    </g>
  </g>
</svg>
