<?xml version="1.0" encoding="UTF-8" standalone="no"?>
<!-- Created with Inkscape (http://www.inkscape.org/) -->

<svg
   version="1.1"
   id="svg2"
   width="177.66771"
   height="113.70279"
   viewBox="0 0 177.66771 113.70279"
   xmlns="http://www.w3.org/2000/svg"
   xmlns:svg="http://www.w3.org/2000/svg">
  <defs
     id="defs6">
    <linearGradient
       id="swatch77">
      <stop
         style="stop-color:#e2c69e;stop-opacity:1;"
         offset="0"
         id="stop77" />
    </linearGradient>
  </defs>
  <g
     id="layer66"
     style="display:inline"
     transform="translate(-0.51539502,-326.48604)">
    <g
       id="layer3"
       style="display:inline">
      <path
         style="display:inline;fill:#969696;fill-opacity:1;stroke:none;stroke-opacity:1"
         d="m 80.433434,336.49409 c -0.02829,0.0849 0.04242,0.26875 0,0.35355 -0.202256,0.40452 0.03663,-0.37506 -0.176776,0.26517 -0.163846,0.49154 -0.02268,0.81817 -0.441942,1.23744 -0.04659,0.0466 -0.130197,0.0418 -0.176777,0.0884 -0.107656,0.10766 -0.0414,0.19747 -0.176776,0.26517 -0.05271,0.0263 -0.124077,-0.0263 -0.176777,0 -0.07454,0.0373 -0.09369,0.17078 -0.176777,0.17678 -0.388523,0.0299 -1.209001,0 -1.679378,0 -0.05893,0 -0.124067,-0.0264 -0.176777,0 -0.106066,0.053 -0.159099,0.21216 -0.265165,0.26516 -0.369643,0.18482 -0.646104,0.40127 -0.972272,0.61872 -0.02452,0.0163 -0.06756,-0.0208 -0.08839,0 -0.09003,0.09 -0.260414,0.36434 -0.353554,0.44194 -0.131977,0.10998 -0.294627,0.17677 -0.441941,0.26517 -0.05893,0 -0.127747,-0.0327 -0.176777,0 -0.650275,0.43351 0.709814,-0.0893 -0.353553,0.26516 -0.02451,0.0163 0.01318,0.062 0,0.0884 -0.07015,0.1403 -0.295224,0.20687 -0.353554,0.26517 -0.07511,0.0751 0.233293,0.34076 -0.176777,0.26516 -0.101075,0.0674 -0.240763,0.0433 -0.353553,0.0884 -0.369593,0.14784 -0.700725,0.37036 -1.06066,0.53033 -0.230595,0.10248 -0.574833,0.0664 -0.795495,0.17678 -0.07454,0.0373 -0.102237,0.13947 -0.176777,0.17677 -0.166667,0.0834 -0.375287,0.0734 -0.53033,0.17678 -0.02451,0.0164 0.02795,0.0794 0,0.0884 -0.08385,0.0279 -0.178495,-0.0173 -0.265165,0 -0.210327,0.0421 -0.342082,0.3343 -0.618718,0.17677 -0.348228,0.0435 -0.711309,-0.0349 -1.060661,0 -0.957188,0.0957 -1.881411,0.42511 -2.828427,0.53033 -1.781325,0.19794 -3.602346,0.0884 -5.391689,0.0884 -0.394018,0 -1.721902,-0.10367 -2.032932,0 -0.03953,0.0132 -0.04886,0.0752 -0.08839,0.0884 -0.0559,0.0186 -0.119607,-0.0143 -0.176777,0 -0.323028,0.0808 -0.535747,0.26878 -0.795495,0.44194 -0.02452,0.0163 -0.06756,-0.0208 -0.08839,0 -0.04659,0.0466 -0.03252,0.14188 -0.08839,0.17678 -0.190276,0.11892 -0.412479,0.17676 -0.618719,0.26516 -0.05893,0.0589 -0.107437,0.13058 -0.176777,0.17678 -0.101075,0.0674 -0.252477,0.021 -0.353553,0.0884 -0.08839,0.0589 0.270833,0.38659 -0.176777,0.26516 -0.07989,0.0479 -0.187645,0.0367 -0.265165,0.0884 -0.05482,0.0365 0.09835,0.19978 -0.08839,0.17678 -0.131651,0.0878 -0.334651,0.18466 -0.441942,0.26516 -0.341953,0.25647 -0.415457,0.71892 -0.795495,0.97228 -0.424498,0.28301 -1.105056,-0.009 -1.59099,0.0884 -0.280729,0.0562 -1.264934,0.44047 -1.502602,0.61872 -0.24211,0.18159 -0.53365,0.55533 -0.707107,0.70711 -0.09916,0.0868 -0.260383,0.0836 -0.353553,0.17678 -0.07512,0.0751 -0.101657,0.19006 -0.176777,0.26516 -0.04659,0.0466 -0.124076,0.0489 -0.176776,0.0884 -0.135162,0.10137 -0.356762,0.38837 -0.441942,0.53033 -0.04794,0.0799 -0.03249,0.19066 -0.08839,0.26516 -0.03953,0.0527 -0.137246,0.0357 -0.176776,0.0884 -0.04153,0.0554 -0.117807,0.38294 -0.176777,0.44194 -0.02084,0.0208 -0.07521,-0.0263 -0.08839,0 -0.06804,0.13608 -0.05333,0.3822 -0.176777,0.53033 -0.228726,0.27448 -0.442425,0.42021 -0.707107,0.61872 -0.06667,0.05 -0.117846,0.11788 -0.176776,0.17678 0,0.0295 0.02083,0.0676 0,0.0884 -0.103359,0.10336 -0.49657,0.36054 -0.618719,0.44194 -0.02452,0.0163 -0.06756,-0.0208 -0.08839,0 -0.04659,0.0466 -0.0418,0.13018 -0.08839,0.17678 -0.0596,0.0596 -0.281793,-0.0478 -0.353553,0 -0.06934,0.0462 -0.117847,0.11787 -0.176777,0.17677 0,0.0295 0.02083,0.0676 0,0.0884 -0.05863,0.0586 -0.349741,0.10768 -0.441941,0.17678 -0.1,0.075 -0.14658,0.22566 -0.265165,0.26516 -0.189312,0.0631 -0.258005,0.0388 -0.441942,0.17678 -0.06667,0.05 -0.102237,0.13948 -0.176777,0.17678 -0.07906,0.0395 -0.191625,-0.049 -0.265165,0 -0.30345,0.2023 -0.588243,0.48537 -0.883883,0.7071 -0.231985,0.17399 -0.441029,0.60068 -0.707107,0.70711 -0.11279,0.0451 -0.248081,0.0281 -0.353553,0.0884 -0.184006,0.10514 -0.269097,0.32671 -0.441942,0.44194 -0.257893,0.17193 -0.618684,0.39773 -0.883884,0.53033 -0.188901,0.0944 -0.420304,0.14116 -0.618718,0.26517 -0.124922,0.0781 -0.221792,0.19926 -0.353553,0.26516 -0.74789,0.37394 -0.277106,0.0756 -0.883884,0.17678 -0.484786,0.0808 -1.199276,0.20952 -1.679378,0.35355 -0.151971,0.0456 -0.294628,0.11788 -0.441942,0.17678 -0.08839,0.0589 -0.164387,0.14317 -0.265165,0.17677 -0.170019,0.0567 -0.353554,0.0589 -0.53033,0.0884 -0.08839,0 -0.179415,-0.0214 -0.265165,0 -0.04042,0.0101 -0.05112,0.0698 -0.08839,0.0884 -0.141911,0.071 -0.289384,0.13318 -0.441941,0.17678 -0.357306,0.1021 -0.920432,-0.0173 -1.237437,0.0884 -0.03953,0.0132 -0.05009,0.072 -0.08839,0.0884 -0.171272,0.0734 -0.360693,0.0997 -0.53033,0.17678 -0.216245,0.0983 -0.393371,0.27845 -0.618718,0.35355 -0.454756,0.15159 -0.883691,0.42924 -1.325825,0.61872 -0.111656,0.0479 -0.23981,0.0458 -0.353554,0.0884 -0.160857,0.0603 -0.278961,0.21087 -0.441941,0.26517 -0.606778,0.20228 0.411703,-0.33842 -0.441942,0.0884 -0.03727,0.0187 -0.04797,0.0783 -0.08839,0.0884 -0.08575,0.0214 -0.181315,-0.0279 -0.265165,0 -0.100779,0.0336 -0.170155,0.12928 -0.265165,0.17678 -0.406931,0.20347 -0.117055,0.006 -0.530331,0.0884 -0.129202,0.0258 -0.228553,0.13507 -0.353553,0.17677 -0.09827,0.0328 -0.571838,0.0572 -0.618718,0.0884 -0.104007,0.0693 -0.153362,0.20927 -0.265165,0.26517 -0.07727,0.0386 -0.278914,-0.0187 -0.353554,0 -0.710948,0.17773 0.184078,-0.003 -0.265165,0.17677 -0.442472,0.17699 -0.359047,0.002 -0.883883,0.17678 -0.822163,0.27406 -0.929823,0.40923 -1.767767,0.61872 -0.09039,0.0226 -0.176775,0.0589 -0.265165,0.0884 -0.02946,0.0295 -0.04797,0.0783 -0.08839,0.0884 -0.06014,0.015 -0.45034,-0.0533 -0.53033,0 -0.198689,0.13246 -0.463561,0.48572 -0.618718,0.61871 -0.09899,0.0849 -0.368392,0.20646 -0.441942,0.35356 -0.01318,0.0264 0.02083,0.0676 0,0.0884 -0.02474,0.0247 -0.483273,-0.0908 -0.265165,0.17677 -0.06636,0.083 -0.101656,0.19007 -0.176776,0.26517 -0.02084,0.0208 -0.06756,-0.0208 -0.08839,0 -0.366054,0.36604 -0.02882,0.22001 -0.176776,0.44194 -0.127511,0.19127 -0.52046,0.75945 -0.707107,0.88388 -0.05482,0.0366 -0.130187,0.0418 -0.176777,0.0884 -0.02083,0.0208 0.01634,0.0639 0,0.0884 -0.09065,0.13598 -0.262903,0.21757 -0.353553,0.35355 -0.03654,0.0548 -0.03357,0.14028 -0.08839,0.17678 -0.132014,0.088 -0.30003,0.10578 -0.441941,0.17678 -0.271547,0.13577 0.14619,0.0498 -0.176777,0.26516 -0.04903,0.0327 -0.127747,-0.0327 -0.176777,0 -0.05482,0.0365 -0.0418,0.13018 -0.08839,0.17678 -0.06822,0.0682 -0.43734,0.20316 -0.53033,0.26516 -0.122573,0.0817 -0.249387,0.161 -0.353554,0.26517 -0.04659,0.0466 -0.0418,0.13018 -0.08839,0.17678 -0.02083,0.0208 -0.07521,-0.0264 -0.08839,0 -0.02635,0.0527 0.02635,0.12407 0,0.17677 -0.01318,0.0263 -0.06756,-0.0208 -0.08839,0 -0.02083,0.0209 0.01318,0.0621 0,0.0884 -0.03727,0.0745 -0.139506,0.10228 -0.176776,0.17678 -0.04683,0.0937 0.03338,0.2534 0,0.35355 -0.04167,0.125 -0.150937,0.22435 -0.176777,0.35355 -0.06142,0.3071 -0.0128,0.66993 -0.08839,0.97228 -0.05215,0.20859 -0.417724,1.21321 -0.53033,1.32582 -0.02084,0.0208 -0.06204,-0.0132 -0.08839,0 -0.210379,0.10519 -0.395334,0.33025 -0.618718,0.44194 -0.0527,0.0263 -0.124077,-0.0263 -0.176777,0 -0.131688,0.0658 -0.301454,0.21837 -0.441942,0.26517 -0.421079,0.14036 -0.897312,0.17946 -1.325825,0.26516 -0.130729,0.0262 -0.78107,0.037 -0.883883,0.0884 -0.149559,0.0748 -0.557069,0.257 -0.618719,0.44194 -0.01863,0.0559 0.03269,0.12778 0,0.17678 -0.03654,0.0548 -0.117846,0.0589 -0.176776,0.0884 -0.02946,0.0295 -0.06528,0.0537 -0.08839,0.0884 -0.05893,0.0884 -0.143186,0.16438 -0.176776,0.26516 -0.01863,0.0559 0.02635,0.12408 0,0.17678 -0.01318,0.0264 -0.06756,-0.0208 -0.08839,0 -0.07716,0.0772 -0.06105,0.24418 -0.08839,0.35355 -0.0226,0.0904 -0.05893,0.17677 -0.08839,0.26517 -0.02946,0 -0.07521,-0.0264 -0.08839,0 -0.02635,0.0527 0.01863,0.12087 0,0.17677 -0.05668,0.17 -0.166525,0.0391 -0.265165,0.0884 -0.17823,0.0891 -0.218408,0.30885 -0.441942,0.35355 -0.304143,0.0608 -0.75473,0 -1.06066,0 H 10.16466 c -0.08756,0 -0.661632,0.0455 -0.707107,0 -0.020833,-0.0208 0.020833,-0.0676 0,-0.0884 -0.024055,-0.0241 -0.3477834,9.6e-4 -0.3535534,0 -0.1198253,-0.02 -0.2325741,-0.0774 -0.3535534,-0.0884 -0.5743921,-0.0522 -1.1915062,0 -1.7677669,0 l -6.36396088,-0.0221 -0.1033234,38.78396 C 0.8828125,411.08855 0.97901416,411.16499 1.375,411 c 0.1153846,-0.0481 0.2512563,0.0177 0.375,0 1.2935021,-0.18479 2.5717665,-0.50653 3.875,-0.625 0.6966454,-0.0633 1.5725125,0.16937 2.25,0 0.090388,-0.0226 0.1596123,-0.1024 0.25,-0.125 0.2783768,-0.0696 1.8188804,-0.0374 1.875,0 0.368486,0.24566 0.76511,0.64766 1,1 0.05168,0.0775 0.09554,0.16161 0.125,0.25 0.01318,0.0395 -0.03727,0.10637 0,0.125 0.07454,0.0373 0.175464,-0.0373 0.25,0 0.03727,0.0186 -0.01863,0.0877 0,0.125 0.257635,0.51527 0.810281,0.90292 1.125,1.375 0.02311,0.0347 -0.02311,0.0903 0,0.125 0.49611,0.74416 1.309543,1.3542 1.75,2.125 0.04134,0.0723 -0.03095,0.17263 0,0.25 0.137349,0.34337 0.459334,0.66867 0.625,1 0.198329,0.39666 0.188482,0.94437 0.25,1.375 -0.01184,0.31651 0.200132,0.57579 0.25,0.875 0.118056,0.70833 0,1.52737 0,2.25 0,0.33188 -0.109089,0.92273 0,1.25 0.08452,0.25357 0.299768,0.5243 0.375,0.75 0.162149,0.48645 0.08063,1.11688 0.25,1.625 0.176708,0.53012 0.533054,1.07332 0.625,1.625 0.09776,0.58657 0.09848,1.07195 0.375,1.625 0.203342,0.40668 0.120372,0.98612 0.25,1.375 0.125998,0.37799 0.380686,0.64206 0.5,1 0.03444,0.10333 -0.06638,0.49223 0,0.625 0.05457,0.10914 0.691725,0.97086 0.75,1 0.03727,0.0186 0.09554,-0.0295 0.125,0 0.02946,0.0295 -0.03727,0.10636 0,0.125 0.07454,0.0373 0.170943,-0.0263 0.25,0 0.298451,0.0995 -0.05509,0.375 0.25,0.375 0.291667,0.20833 0.621552,0.37155 0.875,0.625 0.254643,0.25464 0.464703,0.80441 0.625,1.125 0.293115,0.58623 0.963672,1.05234 1.25,1.625 l 0.625,1.25 c 0.125,0.25 0.5,0.375 0.625,0.625 0.179617,0.35923 0.2802,0.2802 0.375,0.375 0.02946,0.0295 -0.03727,0.10636 0,0.125 0.07454,0.0373 0.170943,-0.0263 0.25,0 0.0559,0.0186 0.0691,0.10636 0.125,0.125 0.748818,0.2496 1.604794,0.43245 2.375,0.625 0.32759,0.0819 0.821005,0.098 1.125,0.25 0.345603,0.1728 0.654397,0.4522 1,0.625 0.07454,0.0373 0.170943,-0.0263 0.25,0 0.5,0.16667 -0.02528,0.11994 0.625,0.25 0.334263,0.0668 3.070042,0.10165 3.375,0 0.947214,-0.31574 -0.04514,0.0451 0.25,-0.25 0.487842,-0.48784 0.06713,0.0289 0.375,-0.125 0.200976,-0.10049 0.07117,-0.24088 0.25,-0.375 0.598885,-0.44916 0.261945,-0.26195 0.625,-0.625 0.06588,-0.0659 0.184119,-0.0591 0.25,-0.125 0.02946,-0.0295 -0.02946,-0.0955 0,-0.125 0.02946,-0.0295 0.09554,0.0295 0.125,0 0.227314,-0.22732 0.341916,-0.56128 0.625,-0.75 0.513782,-0.34252 0.574451,-0.10815 1,-0.25 0.111803,-0.0373 0.144591,-0.1973 0.25,-0.25 0.220365,-0.11018 0.554335,-0.17934 0.75,-0.375 0.02946,-0.0295 0,-0.0833 0,-0.125 0.04167,-0.0417 0.07786,-0.0897 0.125,-0.125 0.194365,-0.14577 0.453204,-0.20321 0.625,-0.375 0.0454,-0.0454 0.329601,-0.5796 0.375,-0.625 0.02946,-0.0295 0.09033,0.0231 0.125,0 0.07735,-0.0516 0.549285,-0.42429 0.625,-0.5 0.02946,-0.0295 -0.02946,-0.0955 0,-0.125 0.0031,-0.003 0.709257,-0.46944 0.75,-0.5 0.105409,-0.0791 0.28183,-0.0318 0.375,-0.125 0.06588,-0.0659 0.05912,-0.18412 0.125,-0.25 0.189403,-0.1894 0.570334,-0.24025 0.75,-0.375 0.141421,-0.10607 0.227913,-0.27694 0.375,-0.375 0.29623,-0.19749 1.005715,-0.56536 1.375,-0.75 0.111803,-0.0559 0.252427,0.0245 0.375,0 0.258406,-0.0517 0.503255,-0.15747 0.75,-0.25 0.411278,-0.15423 0.833797,-0.36127 1.25,-0.5 0.375,-0.125 -0.25,0.25 0.375,0 0.139486,-0.0558 0.234334,-0.19725 0.375,-0.25 0.433044,-0.16239 0.85298,0.007 1.25,-0.125 0.230488,-0.0768 0.394511,-0.29817 0.625,-0.375 0.118585,-0.0395 0.254809,0.0343 0.375,0 0.549942,-0.15713 1.851065,-0.85107 2.25,-1.25 0.445124,-0.44513 1.098577,-1.69716 1.375,-2.25 0.04167,-0.0833 0.208333,-0.0417 0.25,-0.125 0.03727,-0.0745 -0.04288,-0.17854 0,-0.25 0.151585,-0.25264 0.351445,-0.51558 0.625,-0.625 0.482862,-0.19315 2.185403,10e-4 2.375,-0.125 0.07752,-0.0517 0.05046,-0.1941 0.125,-0.25 0.105409,-0.0791 0.262015,-0.0572 0.375,-0.125 0.341569,-0.20494 0.262294,-0.2623 0.5,-0.5 0.121478,-0.12148 0.346341,-0.0482 0.5,-0.125 0.386929,-0.19347 0.478656,-0.39852 0.875,-0.625 0.114401,-0.0654 0.25,-0.0833 0.375,-0.125 0.25,-0.0833 0.521198,-0.11926 0.75,-0.25 0.08089,-0.0462 0.05912,-0.18412 0.125,-0.25 0.309873,-0.30987 0.169945,0.007 0.5,-0.125 0.202419,-0.081 0.770586,-0.41617 0.875,-0.625 0.01863,-0.0373 -0.02946,-0.0955 0,-0.125 0.171796,-0.1718 0.453204,-0.20321 0.625,-0.375 0.02946,-0.0295 -0.03727,-0.10637 0,-0.125 0.07453,-0.0373 0.170943,0.0263 0.25,0 0.0559,-0.0186 0.0691,-0.10637 0.125,-0.125 0.07906,-0.0263 0.169155,0.0202 0.25,0 0.373039,-0.0933 0.732179,-0.33135 1.125,-0.375 0.772759,-0.0859 1.607862,0.12786 2.375,0 0.0919,-0.0153 0.159612,-0.1024 0.25,-0.125 0.567754,-0.14194 1.442453,0 2,0 h 4.25 c 0.135817,0 3.633744,-0.12063 3.875,0 0.134371,0.0672 0.234334,0.19725 0.375,0.25 0.247148,0.35719 0.592798,0.0403 0.875,0.125 1.552212,0.46566 3.085902,0.98697 4.625,1.5 0.237171,0.0791 0.507464,-0.0606 0.75,0 0.145746,0.0364 0.240629,0.18281 0.375,0.25 0.385798,0.1929 0.853161,0.32363 1.25,0.5 0.874681,0.38875 1.73007,0.7894 2.625,1.125 0.297119,0.11142 0.563838,0.31277 0.875,0.375 0.122572,0.0245 0.254809,-0.0343 0.375,0 0.179169,0.0512 0.321901,0.1952 0.5,0.25 0.541756,0.16669 1.323567,0.19119 1.875,0.375 1.190169,0.39672 2.368777,0.62438 3.625,0.75 0.528294,0.0528 1.093689,0 1.625,0 h 4 c 0.47998,0 1.023583,-0.0596 1.5,0 0.21082,0.0263 0.41468,0.0949 0.625,0.125 0.28859,0.0412 0.58528,-0.0483 0.875,0 0.8618,0.14363 -0.10011,0.125 0.375,0.125 0.69791,-0.26049 1.4477,0.41534 2.125,0.5 0.16538,0.0207 0.34036,-0.0479 0.5,0 0.12348,0.037 0.83573,0.4737 1.125,0.5 0.33196,0.0302 0.67054,-0.0507 1,0 0.22177,0.0341 0.40636,0.19954 0.625,0.25 0.32732,0.0755 0.67207,0.0521 1,0.125 0.0575,0.0128 0.0672,0.11344 0.125,0.125 0.16343,0.0327 0.3356,-0.0274 0.5,0 0.0919,0.0153 0.15755,0.11344 0.25,0.125 0.80503,0.10063 1.69257,-0.0449 2.5,0 0.69241,0.0385 2.4528,0.47407 3.125,0.25 0.72754,-0.24251 1.03311,-0.9804 1.625,-1.375 0.45396,-0.30264 1.05589,-0.90295 1.5,-1.125 0.15355,-0.0768 0.40586,-0.0617 0.5,-0.25 0.20635,-0.4127 0.4276,-0.57013 0.75,-1 0.1118,-0.14907 0.13359,-0.35449 0.25,-0.5 0.0179,-0.0223 1.05576,-0.82884 1.125,-0.875 0.10963,-0.0731 0.26202,-0.0572 0.375,-0.125 0.23109,-0.13865 0.89132,-0.79047 1,-0.875 0.44347,-0.34492 0.94526,-0.64189 1.375,-1 0.46019,-0.38349 0.75543,-0.91304 1.125,-1.375 0.18245,-0.22806 0.44988,-0.3915 0.625,-0.625 0.21524,-0.28699 0.5091,-0.7591 0.75,-1 0.49201,-0.49201 0.2539,-0.005 0.625,-0.5 0.0559,-0.0745 0.0591,-0.18412 0.125,-0.25 0.0295,-0.0295 0.0877,0.0186 0.125,0 0.13437,-0.0672 0.25481,-0.15986 0.375,-0.25 0.68556,-0.51417 1.13493,-1.28746 1.875,-1.75 1.81264,-0.90632 -0.39529,0.26352 0.75,-0.5 0.0347,-0.0231 0.0833,0 0.125,0 0.0833,-0.0417 0.17546,-0.0691 0.25,-0.125 0.0943,-0.0707 0.14459,-0.1973 0.25,-0.25 0.16827,-0.0841 0.68776,-0.12518 0.875,-0.25 0.14709,-0.0981 0.21689,-0.29594 0.375,-0.375 0.3555,-0.17775 0.76655,-0.22138 1.125,-0.375 0.34321,-0.14709 0.6763,-0.46315 1,-0.625 0.41633,-0.20816 1.0811,-0.57047 1.5,-0.75 0.0766,-0.0328 0.17094,0.0263 0.25,0 0.24329,-0.0811 0.99827,-0.48115 1.25,-0.625 0.43218,-0.24696 0.81314,-0.63671 1.25,-0.875 0.89489,-0.48812 1.79771,-0.71688 2.75,-1.125 0.59842,-0.25647 1.15158,-0.61854 1.75,-0.875 0.24222,-0.10381 0.5143,-0.13215 0.75,-0.25 0.95481,-0.47741 2.43158,-1.375 3.5,-1.375 0.29315,0 -0.0589,0.0295 0.25,-0.125 0.50866,-0.25433 1.20969,-0.28388 1.75,-0.5 0.17623,-0.0705 0.32403,-0.31634 0.5,-0.375 0.0791,-0.0263 0.16915,0.0202 0.25,0 0.30024,-0.0751 0.497,-0.3735 0.75,-0.5 0.25209,-0.12605 0.40656,-0.0862 0.625,-0.25 0.3223,-0.24172 0.63171,-0.56586 1,-0.75 0.0745,-0.0373 0.17546,0.0373 0.25,0 0.10541,-0.0527 0.14894,-0.18937 0.25,-0.25 0.2395,-0.1437 0.72088,-0.30522 1,-0.375 0.0808,-0.0202 0.17546,0.0373 0.25,0 0.10541,-0.0527 0.15572,-0.17929 0.25,-0.25 0.0632,-0.0474 0.46609,-0.0911 0.5,-0.125 0.0295,-0.0295 -0.0295,-0.0955 0,-0.125 0.129,-0.129 0.36327,-0.18164 0.5,-0.25 0.13333,-0.0667 0.11667,-0.18333 0.25,-0.25 0.0373,-0.0186 0.0955,0.0295 0.125,0 0.20347,-0.20347 0.125,-0.61476 0.36948,-1.17354 0.11912,-1.0396 0.52131,-1.68263 0.66105,-2.38132 0.0901,-0.45056 9.4e-4,-0.96523 0.0833,-1.41629 0.0785,-0.43202 0.25894,-0.83985 0.41656,-1.24968 0.18402,-0.47846 0.59624,-0.83392 0.7498,-1.33298 0.0753,-0.24471 0.12453,-0.49726 0.16663,-0.74981 0.0137,-0.0822 -0.0264,-0.17089 0,-0.24993 0.0317,-0.095 0.12943,-0.15697 0.16662,-0.24994 0.0729,-0.18232 0.0269,-0.39509 0.0833,-0.58318 0.0833,-0.2777 0.15086,-0.56063 0.24994,-0.83311 0.0636,-0.17507 0.19102,-0.32314 0.24993,-0.49987 0.0867,-0.26019 0.002,-1.3366 0.0833,-1.49961 0.25497,-0.50994 0.1368,0.29203 0.24994,-0.49986 0.0495,-0.34655 -0.0416,-0.54183 0.0833,-0.91643 0.0317,-0.095 0.12597,-0.15843 0.16663,-0.24994 0.17949,-0.40387 0.16299,-0.85239 0.33324,-1.24967 0.143,-0.33365 0.3808,-0.64251 0.49987,-0.99973 0.0175,-0.0527 -0.0248,-0.11696 0,-0.16663 0.0621,-0.12419 0.1785,-0.21418 0.24994,-0.33324 0.0143,-0.0238 0,-0.0555 0,-0.0833 0.0278,-0.0833 0.0306,-0.17969 0.0833,-0.24994 0.0372,-0.0497 0.12271,-0.0394 0.16662,-0.0833 0.008,-0.008 0.0729,-0.31772 0.0833,-0.33325 0.0933,-0.14001 0.25923,-0.26852 0.33325,-0.41655 0.0393,-0.0785 0.0381,-0.17463 0.0833,-0.24993 0.164,-0.27334 0.43051,-0.35829 0.66649,-0.49988 0.0674,-0.0404 0.0937,-0.13745 0.16663,-0.16662 0.0774,-0.0309 0.1691,0.0202 0.24993,0 0.0381,-0.01 0.0461,-0.0709 0.0833,-0.0833 0.56713,-0.18904 1.32641,-0.0533 1.91616,-0.24994 0.0506,-0.0169 0.37914,-0.62907 0.41656,-0.66649 0.0196,-0.0196 0.0709,0.0248 0.0833,0 0.0633,-0.12665 0.02,-0.2899 0.0833,-0.41655 0.0702,-0.14051 0.23511,-0.21058 0.33324,-0.33325 0.24784,-0.3098 -0.0417,-0.0209 0.0833,-0.33325 0.0744,-0.18593 0.24369,-0.32075 0.33325,-0.49987 0.0249,-0.0497 -0.0249,-0.11694 0,-0.16662 0.39291,-0.78583 0.0156,0.0183 0.24993,-0.33324 0.17944,-0.26917 0.30224,-0.56961 0.49987,-0.83312 0.19139,-0.25519 -0.0533,0.1366 0.24994,-0.16662 0.0589,-0.0589 -0.0462,-0.18062 0,-0.24994 0.0344,-0.0517 0.12271,-0.0394 0.16661,-0.0833 0.0552,-0.0552 0.10145,-0.32966 0.16663,-0.41657 0.0471,-0.0629 0.1315,-0.0964 0.16663,-0.16662 0.0249,-0.0497 -0.0308,-0.12041 0,-0.16662 0.34017,-0.51026 1.06523,-0.96545 1.4996,-1.33298 0.11992,-0.10148 0.20254,-0.24611 0.33325,-0.33325 0.12443,-0.0829 0.29691,-0.0769 0.41655,-0.16662 0.11108,-0.0833 0.14673,-0.24036 0.24994,-0.33325 0.19439,-0.13885 0.38879,-0.2777 0.58318,-0.41656 0.0278,0 0.0584,0.0124 0.0833,0 0.12761,-0.0638 0.0651,-0.14846 0.16663,-0.24993 0.0172,-0.0172 0.46897,-0.24552 0.49987,-0.24994 0.59408,-0.0848 1.31087,0.015 1.91616,-0.16661 0.0752,-0.0226 0.10127,-0.12307 0.16663,-0.16663 0.0578,-0.0385 0.18728,0.0313 0.24993,0 0.11109,-0.0555 0.22217,-0.11108 0.33325,-0.16663 0.0558,-0.0279 0.55186,-0.68717 0.58318,-0.7498 0.0124,-0.0249 -0.0196,-0.0637 0,-0.0833 0.0708,-0.0708 0.17914,-0.0958 0.24993,-0.16662 0.0196,-0.0196 0,-0.0555 0,-0.0833 0.11108,-0.13885 0.20752,-0.29081 0.33324,-0.41655 0.0439,-0.0439 0.12937,-0.0336 0.16663,-0.0833 0.0527,-0.0702 0.044,-0.17138 0.0833,-0.24992 0.20563,-0.41126 0.42389,-0.85546 0.6665,-1.24968 -0.15789,-0.48637 0.34582,-0.43543 0.49987,-0.66649 0.10036,-0.15054 0.13708,-0.35882 0.24993,-0.49987 0.13289,-0.1661 0.28208,-0.21187 0.33324,-0.41656 0.0135,-0.0539 -0.0175,-0.11393 0,-0.16662 0.0124,-0.0372 0.0555,-0.0555 0.0833,-0.0833 0.0278,-0.0555 0.0637,-0.10772 0.0833,-0.16663 0.0731,-0.21938 0.0252,-0.76717 0.0833,-0.99973 0.11446,-0.45784 0.16662,-0.24184 0.7963,-0.6804 0.62967,-0.24649 0.4259,-0.3601 0.3645,-0.54424 -0.0475,-0.14252 -0.0409,-0.29942 -0.0884,-0.44194 -0.0395,-0.11859 -0.19586,-0.16116 -0.26516,-0.26517 -0.0635,-0.0953 -0.11328,-0.34664 -0.17678,-0.44194 -0.2253,-0.33795 -0.51058,-0.51058 -0.7955,-0.7955 -0.41672,-0.41672 -1.02118,-1.17164 -1.32582,-1.67937 -0.19496,-0.32494 -0.38049,-0.67449 -0.61872,-0.97228 -0.34332,-0.42915 -0.81197,-1.00523 -1.06066,-1.5026 -0.14113,-0.28225 -0.43019,-0.71016 -0.53033,-1.06066 -0.1063,-0.37204 -0.20165,-0.70621 -0.35355,-1.06066 -0.0892,-0.2081 -0.29626,-0.38953 -0.35356,-0.61872 -0.0143,-0.0572 0.0264,-0.12407 0,-0.17677 -0.0373,-0.0745 -0.12677,-0.11008 -0.17677,-0.17678 -0.13176,-0.17568 -0.18607,-0.42086 -0.26517,-0.61872 -0.13229,-0.33074 -0.0576,-0.0269 -0.26516,-0.44194 -0.20447,-0.40893 -0.22208,-1.13617 -0.44194,-1.5026 -0.11935,-0.19891 -0.31507,-0.0613 -0.44195,-0.44194 -0.028,-0.0839 0.0328,-0.18307 0,-0.26517 -0.0309,-0.0774 -0.12837,-0.10898 -0.17677,-0.17678 -0.0999,-0.13979 -0.18177,-0.29176 -0.26517,-0.44194 -0.15627,-0.28128 -0.40442,-0.68898 -0.53033,-0.97227 -0.0493,-0.11101 -0.0391,-0.24255 -0.0884,-0.35355 -0.0863,-0.19415 -0.29515,-0.32605 -0.35355,-0.53033 -0.0572,-0.20032 -0.0225,-0.42108 -0.0884,-0.61872 -0.0803,-0.24083 -0.29005,-0.54169 -0.35355,-0.7955 -0.0143,-0.0572 0.0219,-0.12207 0,-0.17677 -0.20167,-0.50425 -0.13647,-0.0559 -0.26517,-0.44195 -0.0678,-0.20348 -0.088,-0.42345 -0.17677,-0.61871 -0.061,-0.13411 -0.19927,-0.2218 -0.26517,-0.35356 -0.0558,-0.11153 -0.0326,-0.33041 -0.0884,-0.44194 -0.0991,-0.19819 -0.29745,-0.39441 -0.35355,-0.61872 -0.0143,-0.0572 0.0186,-0.12087 0,-0.17677 -0.0259,-0.0777 -0.39184,-0.51847 -0.44194,-0.61872 -0.42683,-0.85365 0.11386,0.16483 -0.0884,-0.44194 -0.0878,-0.26339 -0.40988,-0.52448 -0.53033,-0.7955 -0.20128,-0.45288 -0.32514,-0.94702 -0.44194,-1.41421 -0.18031,-0.72125 -0.49344,-1.36964 -0.61872,-2.12132 -0.10543,-0.63259 0,-1.3838 0,-2.03294 0,-0.46476 -0.10121,-1.64092 0,-1.94454 0.0354,-0.10606 0.22976,-0.1591 0.26516,-0.26516 0.0528,-0.1584 -0.0406,-0.36809 0,-0.53033 0.0295,-0.11786 0.0341,-0.2449 0.0884,-0.35356 0.076,-0.15196 0.21667,-0.15954 0.26517,-0.35355 0.0428,-0.17131 0.0312,-0.35886 0.0884,-0.53033 0.034,-0.10204 0.41914,-0.49233 0.44194,-0.53033 0.0997,-0.16617 0.15204,-0.44903 0.26516,-0.61872 0.0164,-0.0245 0.0721,0.0245 0.0884,0 0.0517,-0.0775 0.0589,-0.17676 0.0884,-0.26516 0.0589,-0.0589 0.13058,-0.10748 0.17678,-0.17678 0.0741,-0.11118 0.0664,-0.33153 0.17677,-0.44194 0.0209,-0.0208 0.0676,0.0208 0.0884,0 0.1334,-0.1334 0.28346,-0.26678 0.35356,-0.44194 0.0451,-0.11279 0.05,-0.23831 0.0884,-0.35356 0.12416,-0.37248 0.43253,-0.66946 0.53033,-1.06066 0.0143,-0.0572 -0.0219,-0.12207 0,-0.17677 0.10097,-0.25243 0.37415,-0.43589 0.44195,-0.70711 0.0491,-0.19642 -0.0737,-0.22097 0,-0.44194 0.009,-0.0279 0.0721,0.0245 0.0884,0 0.10768,-0.16152 0.10918,-0.48354 0.17678,-0.61872 0.35255,-0.70448 0.25615,-0.0829 0.22485,-0.90531 -0.1287,0.10641 -0.0975,-0.12595 -0.1287,-0.15715 -0.129,-0.1293 0.005,0.19761 -0.125,-0.0625 -0.047,-0.094 -0.20996,-0.3862 -0.3125,-0.4375 -0.11283,-0.0564 -0.32501,-0.1125 -0.4375,-0.1875 -0.0735,-0.049 -0.1177,-0.1332 -0.1875,-0.1875 -0.35374,-0.27513 -0.83321,-0.63388 -1.25,-0.8125 -0.4375,-0.1875 -0.25,-0.0625 -0.5625,-0.1875 -0.11587,-0.0464 -0.20904,-0.1358 -0.3125,-0.1875 -0.11335,-0.0565 -0.25478,-0.0224 -0.375,-0.0625 -0.58383,-0.19461 -1.18687,-0.47297 -1.75,-0.6875 -0.3096,-0.11794 -0.581,-0.2905 -0.875,-0.4375 -0.0589,-0.0295 -0.1303,-0.0298 -0.1875,-0.0625 -0.32926,-0.18815 -0.18158,-0.21815 -0.5625,-0.375 -0.24367,-0.10034 -0.50633,-0.14966 -0.75,-0.25 -0.27958,-0.11512 -0.48792,-0.30646 -0.75,-0.4375 -0.0872,-0.0436 -0.2253,-0.0189 -0.3125,-0.0625 -0.13006,-0.065 -0.23062,-0.2019 -0.375,-0.25 -0.0878,-0.0293 -0.70747,-0.1916 -0.8125,-0.25 -0.1751,-0.0973 -0.31741,-0.3462 -0.5,-0.4375 -0.0373,-0.0186 -0.0877,0.0186 -0.125,0 -0.0186,-0.009 0.0186,-0.0535 0,-0.0625 -0.0902,-0.0451 -0.56645,-0.0423 -0.6875,-0.0625 -0.54053,-0.0901 -1.07879,-0.1893 -1.625,-0.25 -0.28253,-0.0314 -0.59041,0 -0.875,0 h -2 c -0.67224,0 -1.33012,0.011 -2,0.0625 -0.66305,0.051 -1.33601,-0.0391 -2,0 -0.22971,0.0135 -0.45774,0.0497 -0.6875,0.0625 -0.36389,0.0202 -0.76366,-0.0516 -1.125,0 -0.76774,0.10968 -1.52678,0.2711 -2.3125,0.3125 -1.16696,0.0615 -2.33991,-0.0535 -3.5,0.0625 -0.1261,0.0126 -0.24925,0.0468 -0.375,0.0625 -0.062,0.008 -0.1282,-0.0198 -0.1875,0 -0.1754,0.0585 -0.3232,0.1433 -0.5,0.1875 -0.7119,0.17798 -1.42837,0.30126 -2.125,0.5625 -0.2385,0.0894 -0.68958,0.3621 -0.9375,0.3125 -1.00639,-0.20128 -2.05781,-0.8213 -3.125,-0.875 -0.55205,0 -1.01566,-0.006 -1.5625,0.0625 -0.30355,0.0379 -0.63791,-0.0599 -0.9375,0 -0.2104,0.0421 -0.35965,0.1993 -0.5625,0.25 -0.0808,0.0202 -0.1678,-0.0137 -0.25,0 -0.1885,0.0314 -0.3829,0.1752 -0.5625,0.25 -0.20712,0.0863 -0.41667,0.1667 -0.625,0.25 -0.0625,0 -0.1269,-0.0152 -0.1875,0 -1.14326,0.2858 0.62593,-0.0419 -0.6875,0.25 -0.21866,0.0486 -0.52944,0 -0.75,0 H 127 123.9375 c -0.49759,0 -1.00443,0.033 -1.5,0 -0.55068,-0.0367 -1.02818,-0.1832 -1.5625,-0.25 -0.28941,-0.0362 -0.58333,0 -0.875,0 h -2.125 c -1.01403,0 -2.04967,-0.0633 -3.0625,0 -0.90651,0.0567 -1.79475,0.17154 -2.6875,0.3125 -1.43806,0.22706 -2.90643,0.22326 -4.3125,0.625 -0.39913,0.11404 -0.80433,0.21534 -1.1875,0.375 -0.33285,0.13869 -0.61609,0.3393 -0.9375,0.5 -0.42085,0.21043 -0.87675,0.3882 -1.3125,0.5625 -0.90816,0.36326 -1.90616,0.4393 -2.8125,0.8125 -0.11233,0.0462 -0.2022,0.1366 -0.3125,0.1875 -0.17945,0.0828 -0.39302,0.0858 -0.5625,0.1875 -0.26724,0.16034 -0.46044,0.43107 -0.764477,0.53827 -0.05961,0.0593 0.02362,-0.0178 -0.132583,0.0663 -0.141318,0.0761 -0.3336,0.20026 -0.464038,0.28726 -0.115194,0.0768 -0.239831,0.16037 -0.353554,0.24307 -0.187995,0.13668 -0.07123,0.0857 -0.265165,0.19888 -0.04268,0.0249 -0.0905,0.0404 -0.132582,0.0663 -0.150085,0.0924 -0.307214,0.19535 -0.441942,0.30936 -0.05977,0.0506 -0.112397,0.11008 -0.176777,0.15468 -0.03262,0.0226 -0.07501,0.0265 -0.110485,0.0442 -0.141452,0.0707 -0.27684,0.15347 -0.419845,0.22097 -0.12245,0.0578 -0.250434,0.10308 -0.37565,0.15468 -0.04419,0.0147 -0.09017,0.0249 -0.132583,0.0442 -0.119951,0.0545 -0.232719,0.12428 -0.353553,0.17678 -0.132712,0.0577 -0.281235,0.0689 -0.419845,0.11049 -0.258925,0.0777 -0.503323,0.18626 -0.773398,0.24306 -0.06527,0.0141 -0.132844,0.0131 -0.198874,0.0221 -1.455979,0.20801 0.177733,-0.0112 -0.618718,0.0884 -0.339405,0.0425 -0.674977,0.10758 -1.016466,0.13258 -0.16178,0.0118 -0.324091,0.0151 -0.486136,0.0221 -0.06629,0 -0.132744,-0.005 -0.198874,0 -0.250811,0.0173 -0.500504,0.0488 -0.751301,0.0663 -0.338718,0.0236 -0.679391,0.0254 -1.016466,0.0663 -0.379686,0.046 -0.754101,0.14107 -1.126951,0.22097 -0.05093,0.0109 -0.10312,0.0151 -0.15468,0.0221 -0.272531,0.0589 -0.545061,0.11788 -0.817592,0.17678 -0.09255,0.0246 -0.175375,0.0772 -0.265165,0.11048 -0.109212,0.0405 -0.223844,0.066 -0.331456,0.11049 -0.0356,0.0147 -0.516655,0.26096 -0.574525,0.28726 -0.102905,0.0468 -0.347473,0.16557 -0.464039,0.19887 -0.01416,0.004 -0.03021,-0.005 -0.04419,0 -0.03935,0.0131 -0.08671,0.0573 -0.132582,0.0663 -0.08386,0.0168 -0.520752,0.077 -0.596622,0.0884 -0.08144,0.0122 -0.161128,0.0362 -0.243068,0.0442 -0.03665,0.004 -0.07403,-0.005 -0.110485,0 -0.132656,0.019 -0.26469,0.0718 -0.397748,0.0884 -0.146905,0.0184 -0.294627,0.0295 -0.441941,0.0442 -0.06629,0 -0.132984,-0.007 -0.198874,0 -0.06749,0.008 -0.131954,0.0327 -0.198874,0.0442 -0.146796,0.0253 -0.294321,0.0464 -0.441942,0.0663 -0.457222,0.0618 -0.912311,0.13678 -1.370019,0.19888 -0.935505,0.12687 -0.920872,0.14747 -1.657281,0.19887 -0.139803,0.01 -0.279781,0.0171 -0.419845,0.0221 -0.08098,0.003 -0.162668,-0.01 -0.243068,0 -0.03936,0.005 -0.07366,0.0295 -0.132564,-0.38686 -0.02208,-0.19173 -0.228553,-0.16521 -0.287243,0.0109 z"
         id="path4" />
    </g>
  </g>
</svg>
