<?xml version="1.0" encoding="UTF-8" standalone="no"?>
<!-- Created with Inkscape (http://www.inkscape.org/) -->

<svg
   version="1.1"
   id="svg2"
   width="609.63116"
   height="240.36281"
   viewBox="0 0 609.63116 240.36281"
   xmlns="http://www.w3.org/2000/svg"
   xmlns:svg="http://www.w3.org/2000/svg">
  <defs
     id="defs6">
    <linearGradient
       id="swatch77">
      <stop
         style="stop-color:#e2c69e;stop-opacity:1;"
         offset="0"
         id="stop77" />
    </linearGradient>
  </defs>
  <g
     id="layer66"
     style="display:inline"
     transform="translate(-0.33839834,-593.92015)">
    <g
       id="layer25"
       style="display:inline">
      <path
         style="fill:#969696;fill-opacity:1;stroke:none;stroke-width:1;stroke-dasharray:none;stroke-opacity:1"
         d="m 0.375,834.125 609.58311,0.15796 c -0.1227,-1.16439 0.13912,-2.91552 -0.0785,-3.78605 -0.29766,-1.19072 -0.003,-0.003 -0.35356,-0.35355 -0.0884,-0.0884 0.0884,-0.44193 0,-0.53033 -0.0417,-0.0417 -0.15047,0.0527 -0.17677,0 -0.0527,-0.10541 0.0527,-0.24815 0,-0.35355 -0.0527,-0.10541 -0.30086,0.1054 -0.35356,0 -0.0527,-0.10541 0.0373,-0.24175 0,-0.35356 -0.0672,-0.20155 -0.4601,-0.21037 -0.35355,-0.53033 -0.0286,-0.11433 0.0606,-0.2525 0,-0.35355 -0.12862,-0.21437 -0.40171,-0.31596 -0.53033,-0.53033 -0.0606,-0.10106 0.0654,-0.25546 0,-0.35356 -0.0731,-0.10967 -0.27455,-0.0714 -0.35355,-0.17677 -0.24207,-0.32275 -0.40467,-1.03722 -0.53033,-1.41422 -0.0672,-0.20155 -0.31186,-0.32199 -0.35356,-0.53033 -0.0462,-0.23112 0.0462,-0.47598 0,-0.7071 -0.0409,-0.20443 -0.46383,-0.33091 -0.53033,-0.53033 -0.0373,-0.11181 0.0286,-0.23922 0,-0.35356 -0.11512,-0.46049 -0.53837,-0.81561 -0.7071,-1.23743 -0.0976,-0.24396 -0.0363,-0.84994 -0.17678,-1.06066 -0.2011,-0.30165 -0.55145,-0.21902 -0.70711,-0.53033 -0.099,-0.19798 -0.0834,-0.52022 -0.17677,-0.70711 -0.0527,-0.10541 -0.27026,0.0833 -0.35356,0 -0.0833,-0.0833 0.0833,-0.27025 0,-0.35355 -0.0417,-0.0417 -0.12407,0.0264 -0.17677,0 -0.23677,-0.11839 -0.24495,-0.42173 -0.35356,-0.53033 -0.6434,-0.6434 -0.12421,0.18794 -0.53033,-0.35356 -0.25495,-0.33993 -0.40664,-0.76019 -0.7071,-1.06066 -0.21532,-0.21531 -0.39496,-0.0828 -0.53033,-0.35355 -0.11858,-0.23711 -0.0654,-0.66101 -0.17678,-0.88388 -0.26566,-0.53131 -0.44145,-1.23646 -0.70711,-1.76777 -0.0943,-0.18856 0.0943,-0.51855 0,-0.70711 -0.23872,-0.47745 -0.80588,-0.72781 -0.88388,-0.88388 -0.12188,-0.24384 0.21409,-0.15812 -0.17678,-0.35355 -0.0527,-0.0264 -0.13507,0.0417 -0.17677,0 -0.0417,-0.0417 0.0417,-0.13508 0,-0.17678 -0.0934,-0.0934 -0.79049,-0.43693 -0.88389,-0.53033 -0.0932,-0.0932 -0.0671,-0.28045 -0.17677,-0.35355 -0.0981,-0.0654 -0.24815,0.0527 -0.35356,0 -0.0527,-0.0264 0.0417,-0.13508 0,-0.17678 -0.15023,-0.15023 -0.3403,-0.25855 -0.53033,-0.35355 -0.22088,-0.11045 -1.07042,-0.18655 -1.23744,-0.35356 -0.0417,-0.0417 0.0417,-0.13507 0,-0.17677 -0.0496,-0.0496 -0.6103,-0.32126 -0.7071,-0.35356 -0.16771,-0.0559 -0.40533,0.125 -0.53033,0 -0.0833,-0.0833 0.0833,-0.27025 0,-0.35355 -0.0833,-0.0833 -0.24175,0.0373 -0.35356,0 -0.51758,-0.17253 -0.95272,-0.47637 -1.41421,-0.70711 -0.21731,-0.10867 -0.53531,-0.005 -0.70711,-0.17677 -0.0417,-0.0417 0,-0.11788 0,-0.17678 l -0.35355,-0.35355 c -0.10607,-0.0707 -0.44193,0.0884 -0.53033,0 -0.0932,-0.0932 -0.0836,-0.26036 -0.17678,-0.35356 -0.12963,-0.12963 -0.80568,-0.45213 -0.88388,-0.53033 -0.0932,-0.0932 -0.0671,-0.28045 -0.17678,-0.35355 -0.098,-0.0654 -0.27025,0.0833 -0.35355,0 -0.0833,-0.0833 0.0654,-0.25546 0,-0.35356 -0.34496,-0.51743 -0.24921,-0.0362 -0.53033,-0.17677 -0.0745,-0.0373 -0.11788,-0.11788 -0.17678,-0.17678 0,-0.0589 0.0527,-0.15038 0,-0.17678 -0.15811,-0.0791 -0.40533,0.125 -0.53033,0 -0.0417,-0.0417 0.0417,-0.13507 0,-0.17677 -0.048,-0.048 -0.6177,-0.10978 -0.7071,-0.17678 -0.26667,-0.2 -0.44044,-0.50711 -0.70711,-0.70711 -0.37505,-0.28128 -0.85723,-0.517 -1.23744,-0.7071 -0.95871,-0.47936 -1.73006,-1.44604 -2.29809,-2.2981 -0.0731,-0.10963 -0.11788,-0.2357 -0.17678,-0.35355 0,-0.11785 0.0527,-0.24815 0,-0.35356 -0.0263,-0.0527 -0.13508,0.0417 -0.17678,0 -0.058,-0.058 -0.28755,-0.57518 -0.35355,-0.7071 -0.14142,-0.28285 0.14142,-0.77782 0,-1.06066 -0.1118,-0.22361 -0.38033,-0.33033 -0.53033,-0.53033 -0.14142,-0.18856 0,-0.47141 0,-0.70711 0,-0.49438 -0.22597,-1.66938 0,-2.12132 0.19848,-0.39694 0.0497,-0.50262 0.17678,-0.88388 0.15722,-0.47167 0.42285,-0.5233 0.53033,-1.06066 0.068,-0.33996 -0.068,-0.72071 0,-1.06066 0.21254,-1.06272 0.49403,-2.11663 0.7071,-3.18198 0.0365,-0.18272 0.11788,-0.35356 0.17678,-0.53033 0.0589,-0.0589 0.15038,-0.0977 0.17678,-0.17678 0.17793,-0.53381 0.21618,-1.21831 0.35355,-1.76777 0.21341,-0.85364 0.084,0.009 0.35355,-0.53033 0.30109,-0.60218 0.70711,-1.2298 0.70711,-1.94454 0,-1.38312 0.17048,-2.87877 0,-4.24264 -0.0231,-0.1849 -0.14018,-0.34761 -0.17678,-0.53033 -0.15957,-0.79775 0.0166,-1.87818 -0.17677,-2.65165 -0.60374,-2.41495 -0.61474,-4.71966 -0.7513,-6.96058 0.13765,0.31705 -0.7447,-0.21251 -1.06066,-0.26517 -0.0872,-0.0145 -0.1831,0.0328 -0.26517,0 -0.0774,-0.0309 -0.10531,-0.13391 -0.17677,-0.17678 -0.35132,-0.21079 -0.74899,-0.52584 -1.10486,-0.7292 -0.1279,-0.0731 -0.22863,-0.18709 -0.35355,-0.26517 -0.41244,-0.25777 -0.90509,-0.36627 -1.32583,-0.61871 -0.0357,-0.0214 -0.0589,-0.0589 -0.0884,-0.0884 -0.0884,-0.0884 -0.15663,-0.20315 -0.26516,-0.26517 -0.10547,-0.0603 -0.24077,-0.0433 -0.35356,-0.0884 -0.1835,-0.0734 -0.34527,-0.19576 -0.53033,-0.26516 -0.0552,-0.0207 -0.12407,0.0263 -0.17677,0 -0.13176,-0.0659 -0.22565,-0.19208 -0.35356,-0.26517 -0.0809,-0.0462 -0.18183,-0.0467 -0.26516,-0.0884 -0.39042,-0.19521 -0.77982,-0.46096 -1.14905,-0.70711 -0.17678,-0.11785 -0.35355,-0.11785 -0.53033,-0.26517 -0.0816,-0.068 -0.0952,-0.19715 -0.17678,-0.26516 -0.21352,-0.17794 -0.49006,-0.26831 -0.7071,-0.44194 -0.70612,-0.56489 -1.04819,-1.54566 -1.76777,-2.12132 -0.22162,-0.1773 -0.55969,-0.23565 -0.7955,-0.35356 -0.55447,-0.27723 -1.10569,-0.54963 -1.67937,-0.79549 -0.17128,-0.0734 -0.34653,-0.14614 -0.53033,-0.17678 -0.0872,-0.0145 -0.1831,0.0328 -0.26517,0 -0.0774,-0.0309 -0.10532,-0.1339 -0.17678,-0.17677 -0.23913,-0.14349 -0.46459,-0.0313 -0.7071,-0.17678 -0.0565,-0.0339 -0.0418,-0.13019 -0.0884,-0.17678 -0.16796,-0.16796 -0.43837,-0.19897 -0.61872,-0.35355 -0.0806,-0.0691 -0.11041,-0.18222 -0.17678,-0.26517 -0.0971,-0.12136 -0.26589,-0.22206 -0.35355,-0.35355 l -0.53033,-0.7955 c -0.14533,-0.21799 -0.15195,-0.48068 -0.26516,-0.7071 -0.2289,-0.45779 -0.95251,-1.37158 -1.41422,-1.67938 -0.1546,-0.10307 -0.78949,-0.48677 -0.88388,-0.53033 -0.37044,-0.17097 -0.80513,-0.2012 -1.14905,-0.44194 -0.17067,-0.11947 -0.27241,-0.32085 -0.44194,-0.44194 -0.048,-0.0342 -0.12407,0.0264 -0.17678,0 -0.30352,-0.15177 -0.57604,-0.37641 -0.88388,-0.53033 -0.24439,-0.1222 -0.55831,-0.14657 -0.7955,-0.26517 -0.0745,-0.0373 -0.10532,-0.1339 -0.17677,-0.17678 -0.37793,-0.22675 -0.90649,-0.30216 -1.32583,-0.44194 -0.2346,-0.0782 -0.39227,-0.27807 -0.61872,-0.35355 -0.10721,-0.0357 -0.41449,-0.16991 -0.44194,-0.17678 -0.19766,-0.0494 -0.42209,-0.0322 -0.61872,-0.0884 -0.30511,-0.0872 -0.57877,-0.26637 -0.88388,-0.35355 -0.14165,-0.0405 -0.29903,0.0357 -0.44194,0 -0.29201,-0.073 -0.7725,-0.23829 -1.06066,-0.35355 -0.0387,-0.0155 -0.048,-0.0783 -0.0884,-0.0884 -0.0857,-0.0214 -0.17798,0.0145 -0.26517,0 -0.47329,-0.0789 -0.93101,-0.19614 -1.41421,-0.26517 -0.0583,-0.008 -0.11785,0 -0.17678,0 -0.32409,-0.0295 -0.65063,-0.0389 -0.97227,-0.0884 -0.0651,-0.01 -0.11286,-0.0724 -0.17677,-0.0884 -1.02571,-0.25643 -0.10181,0.009 -0.88389,-0.0884 -0.35735,-0.0447 -0.70907,-0.12655 -1.06066,-0.17678 -0.25859,-0.0369 -0.53777,0.043 -0.79549,0 -0.23965,-0.0399 -0.4666,-0.14242 -0.70711,-0.17677 -0.28821,-0.0412 -0.59419,0.0263 -0.88388,0 -0.83401,-0.0758 -1.63865,-0.0884 -2.47488,-0.0884 -0.45634,0 -0.96749,-0.0745 -1.41421,0 -0.64506,0.10751 -1.23158,0.37418 -1.85616,0.53033 -0.0858,0.0214 -0.18017,-0.0243 -0.26516,0 -0.12669,0.0362 -0.22855,0.13511 -0.35355,0.17677 -0.38087,0.12696 -0.68382,0.0256 -1.06067,0.0884 -0.40629,0.0677 -0.75333,0.18602 -1.14904,0.26517 -0.54519,0.10903 -1.20937,0 -1.76777,0 -0.99093,0 -1.95585,0.073 -2.91682,0.26516 -0.21027,0.0421 -0.43337,0.20339 -0.61871,0.26517 -0.0839,0.028 -0.20267,-0.0625 -0.26517,0 -0.0466,0.0466 -0.0319,0.14288 -0.0884,0.17677 -0.20519,0.12312 -0.5695,0.15217 -0.79549,0.26517 -0.23281,0.1164 -0.4427,0.35381 -0.70711,0.44194 -0.15428,0.19229 -0.35647,0.0449 -0.53033,0.0884 -0.17159,0.0429 -0.28352,0.2018 -0.44194,0.26516 -0.0631,0.0253 -0.18941,-0.0126 -0.26517,0 -0.42836,0.0714 -1.06603,0.19754 -1.5026,0.0884 -0.23624,-0.0591 -0.47453,-0.18764 -0.70711,-0.26516 -0.15109,-0.20418 -0.35801,-0.0392 -0.53033,-0.0884 -0.13188,-0.0377 -0.52428,-0.2286 -0.7071,-0.26517 -0.62112,-0.12422 0.54599,0.27039 -0.53033,-0.0884 -0.35912,-0.11971 0.006,-0.0493 -0.35356,-0.26517 -0.0799,-0.0479 -0.18183,-0.0467 -0.26516,-0.0884 -0.30531,-0.15265 -0.59168,-0.355 -0.88388,-0.53033 -0.2259,-0.13553 -0.48448,-0.18658 -0.70711,-0.35355 -0.23718,-0.17788 -0.44304,-0.37944 -0.70711,-0.53033 -0.16175,-0.0924 -0.47515,-0.20999 -0.61872,-0.35355 -0.3217,-0.3217 0.094,-0.0621 -0.17677,-0.26517 -0.50327,-0.37745 -1.10801,-0.71833 -1.67938,-0.97227 -0.0539,-0.0239 -0.12207,0.0219 -0.17678,0 -0.37042,-0.14817 -0.6836,-0.4737 -1.06066,-0.61872 -0.16727,-0.0643 -0.36031,-0.0317 -0.53033,-0.0884 -0.3606,-0.1803 -0.597,-0.31685 -0.97227,-0.44194 -0.46061,-0.15354 -0.95819,-0.20155 -1.41421,-0.35355 -0.74006,-0.24669 -1.24164,-0.77655 -1.85616,-1.23744 -0.0527,-0.0395 -0.13019,-0.0418 -0.17678,-0.0884 -0.50229,0.0513 -0.091,-0.25351 -0.17677,-0.35355 -0.1627,-0.18982 -0.36424,-0.34348 -0.53033,-0.53033 -0.21679,-0.24389 -0.40856,-0.54331 -0.61872,-0.7955 -0.13798,-0.16557 -0.24402,-0.47268 -0.35355,-0.61872 -0.2749,-0.36652 -0.39608,-0.4386 -0.61872,-0.88388 -0.0844,-0.16874 -0.26919,-0.2732 -0.35356,-0.44194 -0.0543,-0.10865 -0.0341,-0.2449 -0.0884,-0.35355 -0.16084,-0.32168 -0.3819,-0.61323 -0.61872,-0.88389 -0.07,-0.0799 -0.19005,-0.10166 -0.26517,-0.17677 -0.0466,-0.0466 -0.0589,-0.11786 -0.0884,-0.17678 -0.0589,-0.0884 -0.10166,-0.19005 -0.17677,-0.26517 -0.0208,-0.0208 -0.062,0.0132 -0.0884,0 -0.15366,-0.0768 -0.299,-0.16987 -0.44194,-0.26516 -0.23797,-0.15865 -0.38075,-0.46007 -0.61872,-0.61872 -0.10108,-0.0674 -0.25248,-0.021 -0.35356,-0.0884 -0.19575,-0.1305 -0.42711,-0.29824 -0.61871,-0.44194 -0.34665,-0.25998 -0.60444,-0.63866 -0.97228,-0.88388 -0.33739,-0.22494 -0.81546,-0.48472 -1.14904,-0.70711 -0.49328,-0.32885 0.20026,-0.0325 -0.44195,-0.35355 -0.0263,-0.0132 -0.0589,0 -0.0884,0 -0.0884,-0.0589 -0.18019,-0.11304 -0.26517,-0.17678 -0.27244,-0.20433 -0.49042,-0.44439 -0.79549,-0.61872 -0.59815,-0.34179 -1.28345,-0.59047 -1.85616,-0.97227 -0.0693,-0.0462 -0.10532,-0.1339 -0.17678,-0.17678 -0.0799,-0.0479 -0.18764,-0.0367 -0.26516,-0.0884 -0.0245,-0.0163 0.0245,-0.072 0,-0.0884 -0.9594,-0.6396 0.23172,0.24844 -0.44194,-0.0884 -0.11181,-0.0559 -0.14658,-0.22564 -0.26517,-0.26517 -0.15206,-0.0507 -0.38828,0.071 -0.53033,0 -0.0589,-0.0295 -0.0357,-0.13725 -0.0884,-0.17677 -0.0606,-0.0455 -0.78702,-0.40966 -0.88388,-0.44195 -0.028,-0.009 -0.0589,0 -0.0884,0 -0.11785,-0.0295 -0.2449,-0.0341 -0.35355,-0.0884 -0.31385,-0.15693 -0.52543,-0.44072 -0.88388,-0.53033 -0.11434,-0.0286 -0.24414,0.0438 -0.35356,0 -0.0612,-0.0245 -0.0418,-0.1302 -0.0884,-0.17678 -0.0535,-0.0535 -1.28292,-0.60646 -1.32582,-0.61872 -0.5059,-0.14454 -1.06935,-0.26661 -1.59099,-0.35355 -0.0291,-0.005 -0.0589,0 -0.0884,0 -0.14731,0 -0.29749,0.0289 -0.44194,0 -0.30163,-0.0603 -0.58547,-0.19056 -0.88389,-0.26517 -0.30587,-0.0765 -0.65905,-0.0436 -0.97227,-0.0884 -0.24051,-0.0344 -0.46602,-0.14664 -0.7071,-0.17677 -0.11695,-0.0146 -0.23851,0.0256 -0.35356,0 -0.38903,-0.15561 -0.41488,-0.18905 -0.79549,-0.26517 -0.29221,-0.0584 -0.59178,-0.0397 -0.88389,-0.0884 -0.17983,0.0307 -0.28636,-0.14566 -0.44194,-0.17677 -0.24143,-0.0483 -0.5619,0.0779 -0.79549,0 -0.84417,-0.28139 0.12642,-0.0985 -0.70711,-0.26517 -0.29929,-0.0599 -0.684,0.0961 -0.97227,0 -0.0395,-0.0132 -0.0511,-0.0697 -0.0884,-0.0884 -0.088,-0.044 -0.25576,0.0196 -0.35355,0 -0.11785,-0.0295 -0.23571,-0.0589 -0.35356,-0.0884 0,-0.0295 0.0208,-0.0676 0,-0.0884 -0.0706,-0.0707 -0.49878,0 -0.61872,0 -0.29334,-0.77824 -0.96883,-1.27643 -1.41406,-1.94428 -0.0163,-0.0245 0.0177,-0.0648 0,-0.0884 -0.82131,-1.09509 0.1152,0.20359 -0.44194,-0.35356 -0.0208,-0.0208 0.0263,-0.0752 0,-0.0884 -0.36302,-0.18151 -0.77639,-0.21022 -1.14905,-0.35355 -0.27083,-0.10417 -0.52161,-0.25769 -0.79549,-0.35355 -0.31707,-0.11098 -0.65774,-0.14722 -0.97228,-0.26517 -0.16085,-0.0603 -0.28828,-0.18833 -0.44194,-0.26516 -0.45662,-0.22831 -0.80373,-0.27341 -1.14905,-0.61872 -0.0208,-0.0208 0.0184,-0.0654 0,-0.0884 -0.23942,-0.29928 -0.49629,-0.56767 -0.7071,-0.88388 -0.20032,-0.30047 -0.0118,-0.0474 -0.0884,-0.35356 -0.016,-0.0639 -0.0589,-0.11785 -0.0884,-0.17677 -0.0295,-0.0884 -0.0701,-0.17381 -0.0884,-0.26517 -0.0511,-0.25528 0.0429,-0.53841 0,-0.79549 -0.0997,-0.59841 -0.52375,-1.14083 -0.88388,-1.59099 -0.19908,-0.24886 -0.30498,-0.57015 -0.53033,-0.7955 -0.39273,-0.39272 -0.88961,-0.73349 -1.32583,-1.06066 -0.26666,-0.2 -0.44399,-0.50246 -0.7071,-0.70711 -0.0736,-0.0572 -0.18765,-0.0367 -0.26517,-0.0884 -0.10401,-0.0693 -0.15336,-0.20927 -0.26516,-0.26517 -0.0791,-0.0395 -0.19163,0.049 -0.26517,0 -0.12257,-0.0817 -0.15199,-0.25925 -0.26516,-0.35355 -0.0716,-0.0597 -0.18765,-0.0367 -0.26517,-0.0884 -0.27166,-0.18111 -0.44133,-0.51727 -0.70711,-0.70711 -0.10721,-0.0766 -0.25233,-0.0924 -0.35355,-0.17677 -0.41645,-0.34705 -0.7383,-0.79698 -1.14905,-1.14905 -0.34943,-0.29951 -0.69738,-0.60134 -1.06066,-0.88389 -0.052,-0.0404 -0.13019,-0.0418 -0.17677,-0.0884 -0.0466,-0.0466 -0.0418,-0.13019 -0.0884,-0.17677 -0.24115,-0.24115 -0.35194,-0.16351 -0.61872,-0.53033 -0.13971,-0.19211 -0.21103,-0.42869 -0.35355,-0.61872 -0.0395,-0.0527 -0.1302,-0.0418 -0.17678,-0.0884 -0.28918,-0.28918 -0.52217,-0.78733 -0.7955,-1.06066 -0.0208,-0.0208 -0.0675,0.0208 -0.0884,0 -0.0751,-0.0751 -0.11042,-0.18221 -0.17678,-0.26516 -0.17815,-0.22269 -0.42537,-0.33699 -0.61872,-0.53033 -0.25087,-0.25087 -0.43774,-0.56461 -0.70711,-0.7955 -0.15006,-0.12862 -0.3695,-0.15029 -0.53033,-0.26516 -0.10171,-0.0727 -0.25183,-0.36929 -0.35355,-0.44195 -0.49011,-0.35007 -0.24279,0.0224 -0.70711,-0.44194 -0.0466,-0.0466 -0.0418,-0.13019 -0.0884,-0.17677 -0.10416,-0.10417 -0.2357,-0.17678 -0.35355,-0.26517 -0.39718,-0.29788 -0.90502,-0.42657 -1.32582,-0.70711 -0.49328,-0.32884 0.20026,-0.0325 -0.44195,-0.35355 -0.33641,-0.16821 -0.79404,-0.34051 -1.14904,-0.44194 -0.97146,-0.27756 -2.00139,-0.45142 -3.00521,-0.61872 -0.23249,-0.0387 -0.47322,0.0292 -0.7071,0 -0.0654,-0.008 -0.11218,-0.0755 -0.17678,-0.0884 -0.0867,-0.0173 -0.17798,0.0145 -0.26517,0 -0.93079,-0.15513 0.66968,-0.0391 -0.7071,-0.17677 -1.10983,-0.11099 -2.17992,-0.2602 -3.27037,-0.44195 -0.17437,-0.0291 -0.35533,0.025 -0.53033,0 -0.38434,-0.0549 -0.76056,-0.13361 -1.14905,-0.17677 -0.42117,-0.0468 -0.81347,-0.0177 -1.23744,-0.0884 -0.23249,-0.0387 -0.47257,0.0235 -0.7071,0 -0.0927,-0.009 -0.17294,-0.0752 -0.26517,-0.0884 -0.34632,-0.0495 -0.80738,0 -1.14905,0 h -2.56326 c -0.5789,0 -1.08699,0.0752 -1.59099,-0.17678 -0.10541,-0.0527 -0.23799,0.0231 -0.35355,0 -0.23687,-0.0474 -0.75487,-0.17199 -0.97228,-0.26516 -0.26025,-0.11154 -0.4807,-0.19184 -0.7071,-0.35356 -0.15352,-0.10965 -0.27321,-0.26918 -0.44194,-0.35355 -0.28748,-0.14374 -0.21025,-0.0223 -0.44195,-0.17678 -0.1176,-0.0784 -0.18229,-0.27068 -0.26516,-0.35355 -0.0466,-0.0466 -0.12196,-0.0518 -0.17678,-0.0884 -0.2042,-0.13613 -0.4667,-0.42869 -0.61872,-0.61872 -0.0412,-0.0514 -0.0418,-0.13019 -0.0884,-0.17677 -0.29237,-0.29237 -0.45887,-0.27786 -0.7955,-0.53033 -0.58499,-0.43875 0.0468,-0.11215 -0.53033,-0.44194 -0.42074,-0.24043 -0.8759,-0.36161 -1.32582,-0.53033 -0.42426,-0.1591 -0.92763,-0.50801 -1.32583,-0.70711 -0.42573,-0.21287 -0.90009,-0.31746 -1.32583,-0.53033 -0.0264,-0.0132 0.0264,-0.0752 0,-0.0884 -0.10865,-0.0543 -0.24189,-0.0405 -0.35355,-0.0884 -0.30677,-0.13147 -0.58461,-0.38069 -0.88388,-0.53033 -0.16667,-0.0833 -0.37055,-0.0809 -0.53033,-0.17677 -0.0715,-0.0429 -0.10018,-0.14395 -0.17678,-0.17678 -0.13808,-0.0592 -0.29942,-0.0409 -0.44194,-0.0884 -0.35249,-0.1175 -0.79937,-0.30207 -1.14905,-0.44194 -0.47029,-0.18812 -0.93526,-0.45907 -1.41421,-0.61872 -0.38293,-0.12764 -0.83289,-0.37452 -1.23744,-0.44194 -0.0872,-0.0145 -0.18392,0.0348 -0.26516,0 -0.13541,-0.058 -0.22724,-0.18937 -0.35356,-0.26517 -0.12882,-0.0773 -0.30386,-0.0292 -0.44194,-0.0884 -0.0976,-0.0418 -0.16302,-0.1476 -0.26516,-0.17678 -0.32284,-0.0922 -0.75335,0.0281 -1.06066,-0.17678 -0.0693,-0.0462 -0.10532,-0.1339 -0.17678,-0.17677 -0.0756,-0.24038 -0.24077,-0.0433 -0.35355,-0.0884 -0.18351,-0.0734 -0.33538,-0.23268 -0.53034,-0.26517 -0.11624,-0.0194 -0.23688,0.0167 -0.35355,0 -0.27556,-0.0394 -0.34597,-0.21061 -0.61872,-0.26516 -0.35587,-0.0712 -0.80403,-0.0618 -1.14905,-0.17678 -0.25998,-0.0867 -0.53058,-0.19894 -0.79549,-0.26516 -0.0572,-0.0143 -0.12407,0.0264 -0.17678,0 -0.0896,-0.0448 0.10607,-0.0884 -0.17677,-0.0884 0.0228,-0.0683 -0.80244,-1.29851 -1.14896,-1.41402 -0.0559,-0.0186 -0.12964,0.0354 -0.17678,0 -0.085,-0.0637 -0.0884,-0.20624 -0.17678,-0.26516 -0.10107,-0.0674 -0.24076,-0.0433 -0.35355,-0.0884 -0.90149,-0.3606 -0.16278,-0.17211 -0.97227,-0.44194 -0.60252,-0.20084 -1.25461,-0.24143 -1.85616,-0.44194 -0.21335,-0.0711 -0.49042,0.0619 -0.7071,0 -0.33208,0.20693 -0.27896,-0.21084 -0.44194,-0.26517 -0.82671,-0.27557 -0.0561,0.0668 -0.88389,-0.0884 -0.58995,-0.11061 -1.19646,-0.33989 -1.76777,-0.53033 -0.15997,0.0533 -0.16438,-0.14318 -0.26516,-0.17677 -0.0559,-0.0186 -0.11785,0 -0.17678,0 -0.0884,-0.0295 -0.18034,-0.0498 -0.26516,-0.0884 -0.2399,-0.10905 -0.45945,-0.2635 -0.70711,-0.35356 -0.0831,-0.0302 -0.17849,0.0173 -0.26516,0 -0.60727,-0.12145 -1.92553,-0.68808 -2.38649,-1.14904 -0.17921,-0.17922 -0.27356,-0.42929 -0.44194,-0.61872 -0.49144,-0.55287 -0.42862,-0.43406 -0.70711,-1.06066 -0.0698,-0.15699 -0.20136,-0.28244 -0.26516,-0.44194 -0.0451,-0.11279 -0.0341,-0.2449 -0.0884,-0.35356 -0.0659,-0.13176 -0.20714,-0.21815 -0.26517,-0.35355 -0.0348,-0.0812 0.0279,-0.18131 0,-0.26517 -0.1379,-0.41371 -0.54654,-0.74765 -0.7071,-1.14904 -0.0219,-0.0547 0.0186,-0.12088 0,-0.17678 -0.0625,-0.1875 -0.20267,-0.34283 -0.26517,-0.53033 -0.11284,-0.33853 -0.27765,-0.73209 -0.44194,-1.06066 -0.13258,-0.26517 -0.0884,0.17677 -0.26516,-0.26517 -0.0328,-0.0821 0.0395,-0.1861 0,-0.26516 -0.12834,-0.25667 -0.61604,-0.84995 -0.7955,-1.14905 -0.0985,-0.16426 -0.16023,-0.47881 -0.26516,-0.61872 -0.075,-0.1 -0.20927,-0.15336 -0.26517,-0.26516 -0.0395,-0.0791 0.0214,-0.17942 0,-0.26517 -0.0385,-0.15392 -0.11428,-0.29611 -0.17678,-0.44194 -0.23645,-0.55172 0.13306,0.36908 -0.35355,-0.44194 -0.11544,-0.19241 -0.15772,-0.42174 -0.26517,-0.61872 -0.27449,-0.50324 -0.21278,-0.17842 -0.35355,-0.53033 -0.0949,-0.2372 -0.15039,-0.47755 -0.26516,-0.70711 -0.23468,-0.46935 -0.64799,-0.89794 -0.7955,-1.41421 -0.0243,-0.085 0.0243,-0.18018 0,-0.26517 -0.19778,-0.69222 -0.12506,-0.0475 -0.35355,-0.61871 -0.0219,-0.0547 0.0186,-0.12088 0,-0.17678 -0.10942,-0.32825 -0.38407,-0.59137 -0.53033,-0.88388 -0.14426,-0.28851 -0.18961,-0.70996 -0.35356,-0.97228 -0.0563,-0.0901 -0.19004,-0.10166 -0.26516,-0.17677 -0.0208,-0.0208 0.0132,-0.062 0,-0.0884 -0.0475,-0.095 -0.11304,-0.18018 -0.17678,-0.26517 -0.20306,-0.27074 0.0565,0.14493 -0.26516,-0.17677 -0.0284,-0.0284 -0.39942,-0.71046 -0.44194,-0.7955 -0.20971,-0.4194 -0.44412,-0.88931 -0.61872,-1.32582 -0.0451,-0.11279 -0.0405,-0.2419 -0.0884,-0.35356 -0.10793,-0.25184 -0.31848,-0.54857 -0.44194,-0.79549 -0.0941,-0.18811 -0.16132,-0.44564 -0.26517,-0.61872 -0.12929,-0.21548 -0.32331,-0.38146 -0.44194,-0.61872 -0.0417,-0.0833 -0.0422,-0.18427 -0.0884,-0.26516 -0.0731,-0.12791 -0.18709,-0.22864 -0.26516,-0.35356 -0.2502,-0.40031 -0.43488,-0.84854 -0.70711,-1.23743 -0.0717,-0.10241 -0.20085,-0.15798 -0.26516,-0.26517 -0.0303,-0.0505 0.0263,-0.12407 0,-0.17678 -0.0373,-0.0745 -0.13391,-0.10532 -0.17678,-0.17677 -0.0479,-0.0799 -0.0467,-0.18183 -0.0884,-0.26517 -0.0703,-0.14063 -0.2434,-0.21009 -0.35355,-0.26516 -0.13389,-0.067 -0.24617,-0.24617 -0.35356,-0.35356 -0.19103,-0.19103 -0.43365,-0.34526 -0.61871,-0.53033 -0.17492,-0.17491 -0.32161,-0.54665 -0.44195,-0.7071 -0.19799,-0.26399 -0.50911,-0.44312 -0.7071,-0.70711 -0.23896,-0.31861 -0.44714,-0.66031 -0.70711,-0.97227 -0.15713,-0.18856 -0.11785,-0.0236 -0.35355,-0.35356 -0.55502,-0.004 -0.0951,-0.30589 -0.17678,-0.44194 -0.25357,-0.42261 -0.66609,-0.94309 -0.97227,-1.32582 -0.35732,-0.44665 -0.8293,-0.8462 -1.14905,-1.32583 -0.17189,-0.25784 -0.34527,-0.60629 -0.53033,-0.88388 -0.0462,-0.0693 -0.15042,-0.0977 -0.17678,-0.17678 -0.0186,-0.0559 0.0264,-0.12407 0,-0.17677 -0.0559,-0.11181 -0.22563,-0.14658 -0.26516,-0.26517 -0.0602,-0.18061 -0.0573,-0.43956 -0.17678,-0.61872 -0.1323,-0.19846 -0.37991,-0.3423 -0.53033,-0.53033 -0.33843,-0.42304 -0.62239,-0.81758 -0.97227,-1.23743 -0.18329,-0.21995 -0.44669,-0.38935 -0.61872,-0.61872 -0.29894,-0.39859 -0.66929,-0.74508 -0.97227,-1.14905 -0.0971,-0.12943 -0.27085,-0.21572 -0.35355,-0.35356 -0.0479,-0.0799 -0.0325,-0.19062 -0.0884,-0.26516 -0.0395,-0.0527 -0.13019,-0.0418 -0.17678,-0.0884 -0.0466,-0.0466 -0.0455,-0.12675 -0.0884,-0.17678 -0.13558,-0.15817 -0.30353,-0.28623 -0.44194,-0.44194 -0.42547,-0.47865 -0.78322,-1.04839 -1.23744,-1.5026 -0.20725,-0.20725 -0.4945,-0.3002 -0.7071,-0.44194 -0.57725,-0.38483 -1.10206,-0.85255 -1.67938,-1.23744 -0.19764,-0.13176 -0.42108,-0.22179 -0.61872,-0.35355 -0.27189,-0.18126 -0.53567,-0.42385 -0.7955,-0.61872 -0.22035,-0.16527 -0.40023,-0.61872 -0.7071,-0.61872 -0.18612,-0.70685 -0.61118,-1.16599 -0.97221,-1.76771 -0.20009,-0.33347 -0.36517,-0.8327 -0.70711,-1.06066 -0.29163,-0.19442 -0.67775,-0.2456 -0.97227,-0.44195 -0.0693,-0.0462 -0.0977,-0.15042 -0.17678,-0.17677 -0.1118,-0.0373 -0.24024,0.0324 -0.35355,0 -0.26726,-0.0764 -0.45163,-0.33245 -0.70711,-0.44194 -0.0542,-0.0232 -0.12207,0.0219 -0.17678,0 -0.12314,-0.0493 -1.00293,-0.49185 -1.06066,-0.53034 -0.0548,-0.0365 -0.0369,-0.13562 -0.0884,-0.17677 -0.15434,-0.12347 -0.39058,-0.12541 -0.53033,-0.26517 -0.0208,-0.0208 0.0132,-0.062 0,-0.0884 -0.0844,-0.16873 -0.22016,-0.30854 -0.35356,-0.44194 -0.0208,-0.0208 -0.0589,0 -0.0884,0 -0.0589,-0.0589 -0.13055,-0.10744 -0.17677,-0.17677 -0.28291,-0.42436 -0.6071,-1.0002 -0.7955,-1.50261 -0.0426,-0.11374 -0.0259,-0.24938 -0.0884,-0.35355 -0.0339,-0.0565 -0.13019,-0.0418 -0.17677,-0.0884 -0.10417,-0.10416 -0.18938,-0.22723 -0.26517,-0.35355 -0.0479,-0.0799 -0.0325,-0.19063 -0.0884,-0.26517 -0.0395,-0.0527 -0.13725,-0.0357 -0.17677,-0.0884 -0.14253,-0.19003 -0.2218,-0.42108 -0.35356,-0.61872 -0.2237,-0.33556 -1.00158,-1.04791 -1.32582,-1.32583 -0.34668,-0.29715 -0.86553,-0.42817 -1.23744,-0.7071 -0.1,-0.075 -0.15336,-0.20927 -0.26516,-0.26517 -0.13438,-0.0672 -0.31151,-0.0138 -0.44195,-0.0884 -0.0922,-0.0527 -0.10166,-0.19005 -0.17677,-0.26516 -0.12148,-0.12148 -0.28244,-0.20136 -0.44194,-0.26517 -0.33877,-0.1355 -0.71317,-0.002 -1.06066,-0.0884 -0.12783,-0.032 -0.22573,-0.14482 -0.35356,-0.17677 -0.4257,-0.10643 -1.62833,0 -2.12132,0 -0.32378,0 -0.91791,0.10651 -1.23743,0 -0.25602,-0.0853 -0.12008,-0.1308 -0.44195,-0.17678 -0.175,-0.025 -0.35776,0.0384 -0.53033,0 -0.3585,-0.0797 -0.69182,-0.23163 -1.06066,-0.26516 -0.37124,-0.0337 -0.69912,-0.0367 -1.06066,-0.0884 -1.22805,-0.17544 0.1947,0.004 -0.53033,-0.17678 -0.23044,-0.0576 -0.47054,-0.0669 -0.7071,-0.0884 -0.23474,-0.0213 -0.47323,0.0292 -0.70711,0 -0.50798,-0.0635 -0.99925,-0.26966 -1.5026,-0.35355 -0.36287,-0.0605 -0.79705,0.10057 -1.14905,0 -0.21575,-0.0616 -0.39739,-0.22828 -0.61872,-0.26517 -0.60232,-0.10038 -1.26457,0.0204 -1.85615,-0.17677 -0.0395,-0.0132 -0.0589,-0.0589 -0.0884,-0.0884 -0.11785,-0.0589 -0.22686,-0.14058 -0.35356,-0.17678 -0.2936,-0.0839 -0.66954,0.0433 -0.97227,0 -0.0922,-0.0132 -0.17326,-0.0731 -0.26516,-0.0884 -0.0872,-0.0145 -0.1831,0.0328 -0.26517,0 -0.0774,-0.0309 -0.10224,-0.13951 -0.17678,-0.17677 -0.19965,-0.0998 -0.58401,0.0529 -0.79549,0 -0.21252,-0.0531 -0.41207,-0.22384 -0.61872,-0.26517 -0.0867,-0.0173 -0.17849,0.0173 -0.26516,0 -0.24685,-0.0494 -0.4629,-0.20411 -0.70711,-0.26516 -0.0572,-0.0143 -0.12207,0.0219 -0.17678,0 -0.52144,-0.20858 -0.008,-0.16062 -0.53033,-0.26517 -0.59608,-0.11921 -1.39672,-0.43319 -1.94454,-0.70711 -0.47368,-0.23683 -0.90782,-0.65876 -1.32583,-0.97227 -0.20488,-0.15366 -0.19238,-0.0342 -0.44194,-0.17677 -0.22005,-0.12575 -0.40379,-0.30762 -0.61872,-0.44195 -0.14731,-0.0884 -0.29462,-0.17677 -0.44194,-0.26516 -0.0884,-0.0295 -0.18427,-0.0422 -0.26516,-0.0884 -0.22794,-0.13025 -1.17931,-0.84089 -1.32583,-1.06066 -0.28143,-0.42215 -0.57666,-0.82781 -0.88388,-1.23744 -0.20875,-0.0368 -0.0405,-0.18527 -0.0884,-0.26516 -0.0758,-0.12632 -0.17678,-0.2357 -0.26517,-0.35355 -0.0884,-0.17678 -0.1671,-0.35873 -0.26516,-0.53033 -0.11521,-0.20162 -0.40545,-0.23381 -0.53033,-0.44195 -0.0479,-0.0799 -0.0325,-0.19063 -0.0884,-0.26516 -0.0395,-0.0527 -0.13019,-0.0418 -0.17678,-0.0884 -0.0208,-0.0208 0.0152,-0.0631 0,-0.0884 -0.0758,-0.12632 -0.19928,-0.22179 -0.26516,-0.35355 -0.0263,-0.0527 0.0264,-0.12407 0,-0.17678 -0.0132,-0.0263 -0.0676,0.0208 -0.0884,0 -0.37404,0.14064 -0.1266,-0.27828 -0.17678,-0.35355 -0.49689,-0.74534 0.27561,0.81638 -0.44194,-0.61872 -0.0353,-0.0707 0.0354,-0.19445 0,-0.26516 -0.28778,-0.57556 -0.0886,0.17619 -0.26516,-0.35356 -0.25035,-0.75104 0.0138,-0.005 -0.0884,-0.61872 -0.0613,-0.36785 -0.0806,-0.15341 -0.17678,-0.44194 -0.11253,-0.33761 -0.10863,-0.74759 -0.26516,-1.06066 -0.13478,-0.26954 -0.0701,0.16166 -0.17678,-0.26516 -0.0143,-0.0572 0.0219,-0.12207 0,-0.17678 -0.12151,-0.30379 -0.41496,-0.59547 -0.53033,-0.88388 -0.0219,-0.0547 0.0186,-0.12088 0,-0.17678 -0.0336,-0.10078 -0.14318,-0.16439 -0.17678,-0.26517 -0.0702,-0.21052 -0.17147,-0.43133 -0.26516,-0.61871 -0.0405,-0.0809 0.0115,-0.39596 0,-0.44195 -0.0433,-0.17325 -0.25896,-0.38843 -0.35355,-0.53033 -0.093,-0.13949 -0.0506,-0.37935 -0.0884,-0.53033 -0.0204,-0.0817 -0.14988,-0.18445 -0.17678,-0.26516 -0.0585,-0.17546 -0.029,-0.35209 -0.0884,-0.53033 -0.0132,-0.0395 -0.0589,-0.0589 -0.0884,-0.0884 -0.0295,-0.0884 -0.0701,-0.1738 -0.0884,-0.26516 -0.0231,-0.11557 0.0286,-0.23923 0,-0.35356 -0.0382,-0.15265 -0.12691,-0.29232 -0.17678,-0.44194 -0.0441,-0.13228 0.0339,-0.3064 0,-0.44194 -0.0828,-0.33113 0.21657,-0.46159 0.22105,-1.0164 0.004,-0.5548 0.16474,-0.16066 -0.30929,-0.39768 -0.15184,-0.0759 -0.27291,-0.0481 -0.53033,-0.17677 -0.31535,-0.15768 -1.43777,-0.0668 -1.76777,-0.17678 -0.15811,-0.0527 -0.21488,-0.26115 -0.35355,-0.35355 -0.13418,-0.0895 -3.42702,-0.0844 -3.88909,-0.17678 -0.36544,-0.0731 -0.7071,-0.2357 -1.06066,-0.35355 -0.0589,-0.0589 -0.0978,-0.15048 -0.17677,-0.17678 -0.35887,-0.11958 -0.86054,-0.0826 -1.23744,-0.17678 -0.69731,-0.17432 -1.28096,-0.48591 -1.94454,-0.7071 -1.19185,-0.39728 0.98809,0.8476 -1.06066,-0.17678 -0.14908,-0.0745 -0.21064,-0.26785 -0.35356,-0.35355 -0.15978,-0.0959 -0.35355,-0.11788 -0.53033,-0.17678 -0.11785,0 -0.24814,0.0527 -0.35355,0 -0.26352,-0.13176 -0.44359,-0.39857 -0.70711,-0.53033 -0.10541,-0.0527 -0.2525,0.0606 -0.35355,0 -0.33971,-0.20382 -0.82659,-0.92371 -1.23744,-1.06066 -0.1118,-0.0373 -0.24175,0.0373 -0.35355,0 -0.36689,-0.1223 -1.10333,-1.03018 -1.41422,-1.23744 -0.15504,-0.10337 -0.37054,-0.0809 -0.53033,-0.17677 -0.14291,-0.0857 -0.2357,-0.2357 -0.35355,-0.35356 0,-0.0589 0.049,-0.14407 0,-0.17677 -0.15504,-0.10338 -0.37529,-0.0734 -0.53033,-0.17678 -0.20801,-0.13867 -0.31327,-0.40629 -0.53033,-0.53033 -0.21094,-0.12058 -0.51739,-0.025 -0.70711,-0.17678 -0.14547,-0.1164 -0.045,-0.39856 -0.17677,-0.53033 -0.0833,-0.0833 -0.25546,0.0654 -0.35356,0 -0.10967,-0.0731 -0.0836,-0.26035 -0.17677,-0.35355 -0.18634,-0.18634 -0.48785,-0.20738 -0.70711,-0.35355 -0.79083,-0.52722 -1.33508,-1.42039 -2.12132,-1.94455 -0.049,-0.0327 -0.13508,0.0417 -0.17678,0 -0.24295,-0.24295 -0.28737,-0.64092 -0.53033,-0.88388 -0.0417,-0.0417 -0.12407,0.0263 -0.17677,0 -0.73571,-0.36785 0.18898,0.0122 -0.17678,-0.35355 -0.48192,-0.48192 -1.21414,-0.96291 -1.59099,-1.59099 -0.0959,-0.15979 -0.0935,-0.36367 -0.17678,-0.53033 -0.14155,-0.28312 -0.53005,-0.44152 -0.7071,-0.70711 -0.16826,-0.25238 -0.47106,-0.88362 -0.70711,-1.06066 -0.14907,-0.11178 -0.37529,-0.0734 -0.53033,-0.17678 -0.10958,-0.0731 -0.0714,-0.27445 -0.17678,-0.35355 -0.31473,-0.23605 -0.96195,-0.43163 -1.23743,-0.70711 -0.0417,-0.0417 0.0417,-0.13507 0,-0.17677 -0.18866,-0.18866 -0.99408,-0.72164 -1.23744,-0.88389 -0.10222,-0.0681 -0.82958,-0.14957 -0.88388,-0.17677 -0.26558,-0.13279 -1.21145,-0.73905 -1.41422,-0.88389 -0.20343,-0.14531 -0.33511,-0.37415 -0.53033,-0.53033 -0.10289,-0.0823 -0.26035,-0.0836 -0.35355,-0.17677 -0.0932,-0.0932 -0.0672,-0.28046 -0.17678,-0.35356 -0.0981,-0.0654 -0.24175,0.0373 -0.35355,0 -0.15812,-0.0527 -0.20448,-0.27905 -0.35356,-0.35355 -0.1054,-0.0527 -0.24814,0.0527 -0.35355,0 -0.23285,-0.11643 -0.47425,-0.41391 -0.70711,-0.53033 -0.26327,-0.13164 -0.62182,-0.22253 -0.88388,-0.35356 -0.22531,-0.11265 -0.63848,0.0614 -0.88388,0 -0.20612,-0.0515 -0.32076,-0.31865 -0.53033,-0.35355 -0.29062,-0.0484 -0.59222,0.0417 -0.88389,0 -0.13043,-0.0186 -0.22281,-0.16048 -0.35355,-0.17678 -0.65514,-0.0819 -1.46238,0.13179 -2.12132,0 -0.53471,-0.10694 -1.05955,-0.46393 -1.59099,-0.53033 -0.29235,-0.0365 -0.59153,0.0365 -0.88388,0 -0.42778,-0.0535 -0.83253,-0.27255 -1.23744,-0.35355 -0.50993,-0.10199 -1.08106,0.10199 -1.59099,0 -1.76765,-0.35353 -3.67155,-0.17678 -5.48008,-0.17678 h -7.07107 c -0.98908,0 -2.02247,-0.10919 -3.0052,0 -0.24147,0.0268 -0.4714,0.11788 -1.23744,0.17678 -2.35702,0.0589 -4.18323,0.13525 -6.0104,0.17678 -0.82475,0.0187 -1.64992,0 -2.47488,0 -0.32047,0 -0.92926,0.10272 -1.23743,0 -0.24,-0.08 -0.41357,-0.28017 -0.70711,-0.35356 -0.1715,-0.0429 -0.37222,0.0791 -0.53033,0 -0.14907,-0.0745 -0.19544,-0.30084 -0.35355,-0.35355 -0.2356,-0.0785 -0.63849,0.0409 -0.88389,0 -0.7348,-0.12247 -0.6493,-0.38329 -1.23744,-0.53033 -0.55286,-0.13821 -1.20872,0.11181 -1.76776,0 -0.0817,-0.0163 -0.10224,-0.13951 -0.17678,-0.17678 -0.17721,-0.0886 -2.20148,-0.039 -2.47487,0 -1.21626,0.17376 -0.96431,0.17147 -1.76777,0.70711 -0.20209,0.13473 -0.64194,0.19226 -0.88388,0.35355 -0.13868,0.0924 -0.20449,0.27902 -0.35356,0.35356 -0.44248,0.22124 -0.96246,0.0638 -1.41421,0.17677 -0.42434,0.10609 -0.8691,0.40756 -1.23744,0.53033 -0.42353,0.14118 -0.28357,-0.14117 -0.7071,0 -1.0105,0.33684 1.06867,0.0338 -0.53033,0.35356 -0.28891,0.0578 -0.60438,-0.0932 -0.88389,0 -0.079,0.0263 -0.0943,0.16499 -0.17677,0.17677 -2.98964,0 -0.0747,-0.15811 -1.41422,0.17678 -0.27108,0.0678 -0.61932,-0.0882 -0.88388,0 -0.43449,0.14483 -0.76441,0.46276 -1.23744,0.53033 -0.37661,0.0538 -1.05415,-0.003 -1.41421,0.17678 -0.14907,0.0745 -0.21488,0.2611 -0.35355,0.35355 -0.31949,0.21299 -1.19049,-0.0235 -1.591,0.17678 -0.14907,0.0745 -0.20448,0.27902 -0.35355,0.35355 -0.51042,0.25521 -1.66282,0.54001 -2.12132,0.88389 -0.27146,0.20359 -0.58243,0.55638 -0.88388,0.7071 -0.20851,0.10425 -0.6878,-0.13072 -0.88389,0 -0.20801,0.13868 -0.30672,0.41853 -0.53033,0.53033 -0.16666,0.0833 -0.36366,0.0934 -0.53033,0.17678 -0.0745,0.0373 -0.11785,0.11785 -0.17677,0.17678 -0.17678,0.11785 -0.33505,0.26986 -0.53033,0.35355 -0.38426,0.16468 -0.99539,0.39072 -1.41422,0.53033 -0.1118,0.0373 -0.24175,-0.0373 -0.35355,0 -0.67436,0.22479 -1.15669,0.57834 -1.76777,0.88388 -0.15811,0.0791 -0.35698,-0.0347 -0.53033,0 -0.35499,-0.0406 -0.57603,0.27659 -0.88388,0.35356 -0.67229,0.16807 -1.61635,0 -2.2981,0 h -5.65685 c -0.32361,0 -1.87266,-0.21273 -2.2981,0 -0.86156,0.43078 -0.28208,0.16248 -1.23744,0.35355 -0.64865,0.12973 -1.29569,0.52172 -1.94454,0.70711 -0.16997,0.0486 -0.36262,-0.0559 -0.53033,0 -0.10788,0.036 -0.42245,0.31759 -0.53033,0.35355 -0.27003,0.09 -0.80008,-0.0521 -1.06066,0 -0.25739,0.0515 -0.70539,0.45893 -0.88388,0.53033 -0.60468,0.24187 -1.49494,0.14476 -2.12132,0.35355 -0.25,0.0833 -0.45711,0.27022 -0.70711,0.35356 -0.1118,0.0373 -0.23922,-0.0286 -0.35355,0 -0.39427,0.0986 -0.87699,0.3501 -1.23744,0.53033 -0.22361,0.1118 -0.32232,0.39165 -0.53033,0.53033 -0.15912,0.10607 -0.7526,0.33341 -0.88388,0.53033 -0.24893,0.37339 -0.26108,0.87842 -0.53033,1.23743 -0.15,0.2 -0.39166,0.32232 -0.53033,0.53033 -0.11061,0.16591 -0.62461,1.15494 -0.88389,1.41422 -0.5828,0.5828 -1.46988,0.92563 -2.12132,1.41421 -0.11384,0.0854 0.0253,0.68179 -0.17677,0.88388 -0.11626,0.11626 -0.61502,0.25405 -0.70711,0.53033 -0.0373,0.11181 0.0606,0.2525 0,0.35356 -0.12863,0.21437 -0.37029,0.33827 -0.53033,0.53033 -0.13601,0.16321 -0.20332,0.3801 -0.35355,0.53033 -0.0932,0.0932 -0.25234,0.0924 -0.35356,0.17677 -0.99159,0.82633 -1.8307,1.85348 -2.82843,2.65165 -0.19521,0.15618 -0.38033,0.33033 -0.53033,0.53033 -0.0354,0.0472 0.049,0.1441 0,0.17678 -0.15504,0.10336 -0.37054,0.0809 -0.53033,0.17678 -0.85602,0.51361 -2.44378,1.50615 -3.18198,2.12132 -0.25607,0.21339 -0.43586,0.51336 -0.7071,0.70711 -0.15163,0.1083 -0.36367,0.0934 -0.53033,0.17677 -0.3413,0.17065 -0.96647,0.61291 -1.23744,0.88389 -0.0417,0.0417 0.0417,0.13511 0,0.17677 -0.68991,0.68991 -0.0949,-0.0409 -0.53033,0.17678 -0.35526,0.17763 -1.05695,0.93662 -1.23744,1.23744 -0.0959,0.15978 -0.0809,0.37054 -0.17677,0.53033 -0.1715,0.28583 -0.52221,0.42975 -0.70711,0.7071 -0.0327,0.049 0,0.11785 0,0.17678 -0.0589,0.11785 -0.0836,0.26038 -0.17678,0.35355 -0.36575,0.36576 0.0143,-0.55892 -0.35355,0.17678 -0.19746,0.39492 -0.91674,1.87258 -1.41421,2.12132 -0.73474,0.36737 -1.68336,0.50923 -2.47488,0.70711 -0.5701,0.14252 -1.83137,0.0919 -2.47487,0 -0.45616,0.1828 -0.69522,-0.28047 -1.06066,-0.35356 -1.19921,-0.23984 -2.51964,0.0618 -3.71231,-0.17677 -0.74056,-0.14811 -0.3654,-0.18271 -1.06066,-0.53033 -0.3338,-0.1669 -1.94465,-0.10609 -2.2981,-0.17678 -0.0817,-0.0163 -0.0994,-0.14583 -0.17678,-0.17678 -0.44937,-0.17975 -1.102,-0.2313 -1.59099,-0.35355 -0.93023,-0.23256 -2.09963,0.30186 -3.0052,0 -0.53922,-0.17974 -1.05177,-0.17381 -1.59099,-0.35355 -0.21299,-0.071 -0.48807,0.0548 -0.70711,0 -1.05331,-0.26333 -2.11506,-0.49373 -3.18198,-0.70711 -0.39661,-0.0793 -0.84082,0.0793 -1.23743,0 -1.49775,-0.29955 -3.06458,-0.17678 -4.5962,-0.17678 -0.55571,0 -1.39782,-0.10934 -1.94454,0 -0.7413,0.14826 -2.15203,0.49737 -2.82843,0.88389 -0.32759,0.18719 -0.54641,0.53837 -0.88388,0.7071 -0.0527,0.0264 -0.13511,-0.0417 -0.17678,0 -0.21531,0.21531 -0.0828,0.39496 -0.35355,0.53033 -0.56974,0.28487 -1.41432,0.48622 -1.94455,0.88389 -0.13333,0.1 -0.20448,0.27901 -0.35355,0.35355 -0.10541,0.0527 -0.23922,-0.0286 -0.35355,0 -0.37737,0.0943 -0.73822,0.36911 -1.06066,0.53033 -0.15812,0.0791 -0.35883,-0.0429 -0.53033,0 -0.25566,0.0639 -0.45145,0.28964 -0.70711,0.35355 -0.11433,0.0286 -0.24413,-0.0438 -0.35355,0 -0.27356,0.10943 -0.4195,0.46642 -0.70711,0.53033 -0.88991,0.19776 -1.7917,0.20785 -2.65165,0.53033 -1.05206,0.39453 0.0349,0.38904 -1.23744,0.70711 -0.22866,0.0572 -0.47461,-0.0387 -0.7071,0 -0.36089,0.0602 -0.71215,0.41416 -1.06066,0.53033 -0.0559,0.0186 -0.11786,0 -0.17678,0 -0.2357,0.0589 -0.4838,0.0811 -0.70711,0.17678 -0.60037,0.2573 -1.11088,0.71966 -1.76776,0.88388 -0.343,0.0858 -0.71398,-0.0693 -1.06066,0 -0.0817,0.0163 -0.11786,0.11785 -0.17678,0.17678 -0.2357,0.0589 -0.46564,0.14994 -0.70711,0.17677 -0.29282,0.0325 -0.59222,-0.0417 -0.88388,0 -0.13044,0.0186 -0.2357,0.11786 -0.35356,0.17678 -0.2357,0.0589 -0.46602,0.14664 -0.7071,0.17678 -0.46777,0.0585 -0.94569,-0.0521 -1.41422,0 -0.44053,0.0489 -0.97367,0.3046 -1.41421,0.35355 -1.77455,0.19717 -3.68717,0 -5.48008,0 h -4.24264 c -0.41248,0 -0.83727,0.10004 -1.23743,0 -0.50163,-0.12541 -0.94111,-0.23528 -1.41422,-0.35355 -0.43838,-0.1096 -0.77392,-0.43763 -1.23743,-0.53033 -0.49797,-0.0996 -1.13814,-0.0516 -1.59099,-0.35356 -0.049,-0.0327 0.0559,-0.15814 0,-0.17677 -0.26517,-0.0884 -0.61872,0.0884 -0.88389,0 -0.55595,-0.18532 -0.99856,-0.60837 -1.59099,-0.70711 -0.29062,-0.0484 -0.60437,0.0932 -0.88388,0 -0.32596,-0.10865 -0.55055,-0.447 -0.88389,-0.53033 -0.54918,-0.1373 -1.02799,-0.11227 -1.59099,-0.35355 -0.20628,-0.0884 -1.07992,-0.72637 -1.23743,-0.88389 -0.0417,-0.0417 0.0552,-0.15608 0,-0.17677 -0.45498,-0.17062 -0.95324,-0.1999 -1.41422,-0.35356 -0.079,-0.0263 -0.10224,-0.13951 -0.17677,-0.17677 -0.33334,-0.16667 -0.75058,-0.14683 -1.06066,-0.35356 -1.1333,-0.75553 0.73376,0.0619 -1.06066,-0.7071 -0.54606,-0.23403 -1.28233,-0.42972 -1.76777,-0.70711 -0.36893,-0.21082 -0.6806,-0.51708 -1.06066,-0.70711 -0.51639,-0.25819 -1.46692,-0.43418 -1.94454,-0.7071 -0.298326,-0.17047 -0.604295,-0.33062 -0.883888,-0.53033 -0.135622,-0.0969 -0.198807,-0.29166 -0.353553,-0.35356 -0.164133,-0.0657 -0.367847,0.0696 -0.53033,0 -0.543891,-0.23309 -0.938366,-0.74343 -1.414214,-1.06066 -0.03293,-0.0219 -0.689003,-0.15867 -0.707106,-0.17677 -0.235703,-0.23571 0.294627,-0.17678 -0.176777,-0.17678 -0.931229,0.10864 -2.211722,-0.45399 -3.181981,-0.17678 -0.54856,0.15673 -0.915065,0.36395 -1.414213,0.53033 -0.167705,0.0559 -0.356986,-0.0347 -0.53033,0 -0.430516,0.0861 -1.561944,0.65433 -1.944544,0.88389 -0.69294,0.41576 -1.22431,1.05409 -1.944543,1.41421 -0.188326,0.0942 -0.828973,0.47241 -1.060661,0.53033 -0.114332,0.0286 -0.248144,-0.0527 -0.353553,0 -0.149071,0.0745 -0.22022,0.25355 -0.353553,0.35355 -0.292177,0.21914 -1.243843,0.76817 -1.590991,0.88389 -0.745821,0.2486 -1.545087,0.30442 -2.298097,0.53033 -0.07982,0.0239 -0.100181,0.14395 -0.176776,0.17677 -2.736406,0.91214 0.08984,-0.13331 -1.590991,0.70711 -0.408473,0.20424 -2.945724,1.15483 -3.358757,1.23744 -0.404007,0.0808 -0.837172,0.0434 -1.237437,0.17677 -0.319955,-0.10654 -0.328773,0.28637 -0.53033,0.35356 -0.111803,0.0373 -0.235702,0 -0.353553,0 -0.176777,0 -0.362625,-0.0559 -0.53033,0 -0.0559,0.0186 0,0.11785 0,0.17677 -0.117851,0.0589 -0.224351,0.15094 -0.353554,0.17678 -0.459579,0.0919 -0.959754,0.0632 -1.414213,0.17678 -2.128437,0.53211 -4.294172,1.25461 -6.363961,1.94454 -0.314254,0.10475 -0.73254,0.27152 -1.06066,0.35355 -0.376803,0.0942 -0.890499,0.003 -1.237437,0.17678 -0.149071,0.0745 -0.214879,0.2611 -0.353554,0.35355 -0.128829,0.0859 -1.213173,0.32929 -1.414213,0.53033 -0.09317,0.0932 -0.05893,0.29463 -0.176777,0.35356 -0.158114,0.079 -0.362625,-0.0559 -0.53033,0 -0.0559,0.0186 0.03269,0.12775 0,0.17677 -0.09245,0.13868 -0.225517,0.24686 -0.353553,0.35356 -0.55152,0.4596 -1.263543,0.90999 -1.767767,1.41421 -0.365758,0.36576 0.558925,-0.0143 -0.176777,0.35355 -0.198366,0.0992 -0.502338,0.0744 -0.707107,0.17678 -0.536368,0.26819 -0.89362,0.84699 -1.414213,1.23744 -0.08902,0.38947 -0.363664,0.0934 -0.53033,0.17678 -0.279867,0.13993 -0.445584,0.53275 -0.707107,0.7071 -0.176777,0.11785 -0.328774,0.28637 -0.53033,0.35356 -0.111804,0.0373 -0.248144,-0.0527 -0.353554,0 -0.149071,0.0745 -0.22022,0.25355 -0.353553,0.35355 -0.312002,0.234 -1.037731,0.33062 -1.237437,0.53033 -0.934793,0.93479 0.902369,-0.27441 -0.707107,0.53033 -0.425963,0.21298 -0.586064,0.76284 -0.883883,1.06066 -0.429356,0.42935 -0.259583,-0.0526 -0.53033,0.35355 -0.07309,0.10963 -0.07137,0.2745 -0.176777,0.35356 -0.149071,0.1118 -0.381259,0.065 -0.53033,0.17677 -0.175656,0.13174 -0.705501,0.9996 -0.883884,1.23744 -0.293926,0.3919 -0.789213,0.65349 -1.06066,1.06066 -0.03269,0.049 0.04167,0.13511 0,0.17678 -0.108606,0.1086 -0.411946,0.11678 -0.53033,0.35355 -0.02635,0.0527 0.04167,0.13511 0,0.17678 -0.06303,0.43425 -0.375286,0.0734 -0.53033,0.17677 -0.416803,0.27787 -0.790224,0.83706 -1.237437,1.06066 -0.772866,0.38644 -0.897437,0.5405 -1.59099,1.06066 -0.175864,0.1319 -0.657979,0.20295 -0.883883,0.35356 -0.208013,0.13867 -0.335113,0.37415 -0.530331,0.53033 -0.829285,0.66342 -1.810539,1.13693 -2.65165,1.76776 -0.322044,0.24154 -0.704454,0.70578 -1.06066,0.88389 -0.105409,0.0527 -0.252497,-0.0606 -0.353554,0 -0.214373,0.12862 -0.338274,0.37028 -0.53033,0.53033 -0.353553,0.29463 -0.692481,0.60775 -1.06066,0.88388 -0.04714,0.0354 -0.13511,-0.0417 -0.176776,0 -1.317926,1.31793 0.06696,0.22867 -0.883884,1.06066 -0.715135,0.62574 -1.14479,0.82212 -1.767767,1.23744 -0.203973,0.13598 -0.326357,0.39435 -0.53033,0.53033 -0.219264,0.14617 -0.520768,0.16721 -0.707107,0.35355 -0.09317,0.0932 -0.08361,0.26039 -0.176776,0.35355 -0.09317,0.0932 -0.250665,0.0945 -0.353554,0.17678 -0.195217,0.15618 -0.315957,0.40171 -0.53033,0.53033 -0.101056,0.0606 -0.255495,-0.0654 -0.353553,0 -0.109633,0.0731 -0.06715,0.28047 -0.176777,0.35355 -0.09806,0.0654 -0.245231,-0.0464 -0.353553,0 -0.315811,0.13535 -0.557924,0.42168 -0.883884,0.53033 -0.223607,0.0745 -0.4835,-0.0745 -0.707107,0 -0.158114,0.0527 -0.214878,0.26111 -0.353553,0.35356 -0.08501,0.0567 -4.78328,1.03688 -4.949748,1.06066 -0.408333,0.0583 -0.83478,-0.0895 -1.237436,0 -0.731307,0.16251 -1.389255,0.42575 -2.121321,0.53033 -0.571376,0.0816 -1.202221,-0.11311 -1.767767,0 -2.334014,0.4668 -5.02372,0.17678 -7.424621,0.17678 l -11.15209666,0.074 z"
         id="path35" />
    </g>
  </g>
</svg>
