<?xml version="1.0" encoding="UTF-8" standalone="no"?>
<!-- Created with Inkscape (http://www.inkscape.org/) -->

<svg
   version="1.1"
   id="svg1"
   width="609.98468"
   height="241.70079"
   viewBox="0 0 609.98468 241.70079"
   xmlns="http://www.w3.org/2000/svg"
   xmlns:svg="http://www.w3.org/2000/svg">
  <defs
     id="defs1" />
  <g
     id="layer1"
     style="display:inline"
     transform="translate(-0.09375,-593.17419)">
    <g
       id="layer65"
       style="display:inline;fill:#ffffff;fill-opacity:1;stroke:none">
      <path
         style="fill:#ffffff;fill-opacity:1;stroke:none;stroke-linecap:round"
         d="M 0.17677669,661.52048 0.09375,834.87498 l 609.69745,-0.4669 0.28726,-5.3254 -3.11569,-4.46361 -1.41421,-4.22054 -3.42505,-3.27037 -0.88389,-3.18198 -6.71751,-5.3254 -5.67895,-1.78986 -4.90556,-4.24265 2.01084,-31.39996 -5.61266,-1.81196 -4.19845,-4.64038 -7.5351,-3.75651 -0.8176,-2.38648 -9.25867,-3.91119 -10.00998,-1.98874 -16.04249,2.85053 -13.78858,-6.76171 -11.20322,-10.09837 -13.54552,-4.59619 -4.46361,-0.37565 -19.86528,-19.7327 -3.18198,-2.2539 -20.32932,-1.23744 -5.3254,-5.48008 -24.74873,-7.6014 -6.18719,-6.18718 -10.82757,-24.13002 -17.41251,-17.4567 -9.70062,-8.26431 -24.19631,-4.02167 -6.56283,-6.85009 -1.81196,-4.79507 -0.83969,-8.28641 -6.40816,0.11049 -13.28034,-5.48008 -13.19197,-13.81068 -5.52427,-2.12132 -37.74182,-0.83969 -4.35313,-2.09922 -13.98745,4.30893 -9.1482,3.7565 -22.29596,3.49134 -15.64473,12.79422 -8.04334,9.76691 -16.08668,0.0663 -10.16466,-2.98311 -7.91076,1.59099 -16.90427,7.13736 -18.38478,0.19888 -6.96058,-4.30894 -15.490055,-5.32539 -37.786018,12.8605 -3.999572,4.94975 -11.026446,9.0598 -9.435456,6.67332 -7.778175,2.18761 -17.3904067,2.43068 z"
         id="path64" />
    </g>
  </g>
</svg>
