<?xml version="1.0" encoding="UTF-8" standalone="no"?>
<!-- Created with Inkscape (http://www.inkscape.org/) -->

<svg
   version="1.1"
   id="svg1"
   width="49.110771"
   height="82.300598"
   viewBox="0 0 49.110771 82.300598"
   xmlns="http://www.w3.org/2000/svg"
   xmlns:svg="http://www.w3.org/2000/svg">
  <defs
     id="defs1" />
  <g
     id="layer1"
     style="display:inline"
     transform="translate(-372.99882,-302.00088)">
    <g
       id="layer66"
       style="display:inline;fill:#ffffff;fill-opacity:1;stroke:none">
      <path
         style="fill:#ffffff;fill-opacity:1;stroke:none;stroke-linecap:round"
         d="m 372.99882,322.88263 1.76777,-5.98831 0.11048,-4.90556 5.23701,-0.46404 3.29247,1.65729 2.82842,-0.0221 3.22618,-3.84489 5.72314,-0.47509 2.22076,-2.7069 v -2.02188 l 3.10464,-1.27058 5.27016,-0.83969 3.60182,2.77318 3.0715,4.51886 5.3033,4.5078 4.35312,8.59577 -4.27578,7.65664 -0.88389,3.13779 3.66812,7.87761 -2.05503,4.25369 0.0884,3.90013 1.10485,2.59641 -1.39211,7.34728 -3.8007,7.92181 -2.11027,6.0325 -4.70668,4.15425 -8.18697,-1.87825 -1.71253,4.9608 -1.92244,2.58536 -3.23723,1.35897 -5.22596,-1.9114 -6.0325,-4.9608 -1.50261,-4.72877 0.54138,-2.53012 -3.67916,-3.49134 2.71794,-5.21491 -0.37565,-8.94932 0.96122,-6.29767 1.64624,-4.11006 0.22097,-5.35854 -2.13237,-8.89408 -2.71794,-3.60182 z"
         id="path65" />
    </g>
  </g>
</svg>
