<?xml version="1.0" encoding="UTF-8" standalone="no"?>
<!-- Created with Inkscape (http://www.inkscape.org/) -->

<svg
   version="1.1"
   id="svg2"
   width="48.642952"
   height="81.257454"
   viewBox="0 0 48.642952 81.257454"
   xmlns="http://www.w3.org/2000/svg"
   xmlns:svg="http://www.w3.org/2000/svg">
  <defs
     id="defs6">
    <linearGradient
       id="swatch77">
      <stop
         style="stop-color:#e2c69e;stop-opacity:1;"
         offset="0"
         id="stop77" />
    </linearGradient>
  </defs>
  <g
     id="layer66"
     style="display:inline"
     transform="translate(-373.04023,-302.67068)">
    <g
       id="layer33"
       style="display:inline">
      <path
         style="display:inline;fill:#969696;fill-opacity:1;stroke:none;stroke-opacity:1"
         d="m 376.79964,365.92784 c 0.0309,-0.0774 0.13947,-0.10228 0.17677,-0.17678 0.0543,-0.10865 -0.1811,-0.29095 0.0884,-0.35355 0.041,-0.0683 0.39544,-0.57222 0.44194,-0.61872 0.18579,-0.18579 0.43873,-0.21696 0.61872,-0.44194 0.21655,-0.27069 0.47606,-0.59857 0.61872,-0.88389 0.0707,-0.14144 0.27195,-0.21754 0.35355,-0.35355 0.0678,-0.11298 0.11788,-0.2357 0.17678,-0.35355 0.0589,-0.0589 0.13058,-0.10748 0.17678,-0.17678 0.0861,-0.12917 0.16261,-0.3765 0.26516,-0.53033 0.10778,-0.16173 0.11268,-0.009 0.17678,-0.26516 0.0407,-0.16284 0.0357,-0.28373 0.0884,-0.44195 0.0132,-0.0395 0.0752,-0.0489 0.0884,-0.0884 0.10956,-0.32872 -0.0196,-1.77721 -0.0884,-2.12132 -0.0568,-0.28409 0.0477,-0.59789 0,-0.88389 -0.04,-0.23965 -0.14238,-0.46659 -0.17678,-0.7071 -0.10974,-0.76816 0,-2.08566 0,-2.91682 0,-1.04028 -0.11099,-2.44826 0,-3.44715 0.0206,-0.18519 0.14618,-0.34652 0.17678,-0.53033 0.0736,-0.44194 -0.0491,-0.0982 0,-0.44194 0.0559,-0.39157 0.18796,-0.7628 0.26516,-1.14905 0.16996,-0.8498 0.25423,-1.73497 0.53033,-2.56326 0.0698,-0.2093 0.19517,-0.43196 0.26517,-0.61872 0.15025,-0.40068 0.21855,-0.83243 0.35355,-1.23743 0.0937,-0.28095 0.36694,-0.49563 0.44194,-0.7955 0.0429,-0.1715 -0.0347,-0.35698 0,-0.53033 0.0337,-0.16846 0.21087,-0.27896 0.26517,-0.44194 0.0186,-0.0559 -0.0327,-0.12778 0,-0.17678 0.0365,-0.0548 0.14027,-0.0336 0.17677,-0.0884 0.0327,-0.049 -0.0143,-0.11957 0,-0.17677 0.0728,-0.29126 0.10864,-0.0796 0.26517,-0.35356 0.1511,-0.26443 0.56462,-1.14386 0.61872,-1.41421 0.0642,-0.32094 -0.0148,-0.67778 -0.0884,-0.97227 -0.0286,-0.11433 0.0324,-0.24024 0,-0.35355 -0.22055,-0.77193 -0.81359,-1.41628 -0.97227,-2.20971 -0.0337,-0.16841 0.0416,-0.36391 0,-0.53033 -0.17927,-0.71705 -0.25969,-1.48071 -0.44195,-2.20971 -0.0105,-0.0421 -0.16627,-0.22317 -0.17677,-0.26517 -0.0771,-0.30845 0.10922,-0.23389 -0.0884,-0.53033 -0.0163,-0.0245 -0.0732,0.0253 -0.0884,0 -0.11544,-0.1924 -0.21076,-0.40103 -0.26516,-0.61872 -0.0587,-0.23485 -0.15563,-0.57641 -0.26517,-0.79549 -0.0132,-0.0263 -0.0752,0.0263 -0.0884,0 -0.23571,-0.47144 0.3913,0.19766 -0.0884,-0.44194 -0.0395,-0.0527 -0.14727,-0.0295 -0.17677,-0.0884 -0.49461,-0.98919 0.14039,-0.0207 -0.0884,-0.70711 -0.0336,-0.10078 -0.13728,-0.16656 -0.17678,-0.26516 -0.0954,-0.23858 -0.0199,-0.55567 -0.0884,-0.7955 -0.0911,-0.31874 -0.29795,-0.63892 -0.35355,-0.97227 -0.0609,-0.36524 0.0553,-0.61304 -0.0884,-0.97227 -0.0155,-0.0387 -0.0752,-0.0489 -0.0884,-0.0884 -0.0999,-0.29956 0.1095,-0.67542 -0.0884,-0.97227 -0.53808,-0.80712 0.14015,0.50885 -0.17678,-0.44194 -0.0641,-0.19221 -0.31858,-0.45424 -0.44194,-0.61872 -0.29795,-0.39727 -0.78835,-0.77981 -1.23744,-0.97227 -0.0542,-0.0232 -0.12778,0.0327 -0.17678,0 -0.0548,-0.0365 -0.0336,-0.14028 -0.0884,-0.17678 -0.049,-0.0327 -0.12408,0.0264 -0.17678,0 -0.0263,-0.0132 0.0163,-0.0639 0,-0.0884 -0.0462,-0.0693 -0.10748,-0.13057 -0.17678,-0.17677 -0.10963,-0.0731 -0.2357,-0.11788 -0.35355,-0.17678 -0.0884,-0.0884 -0.16647,-0.18837 -0.26517,-0.26517 -0.86378,-0.67183 -0.48611,-0.15466 -0.88388,-0.35355 -0.13176,-0.0659 -0.13465,-0.31417 -0.35355,-0.26517 -0.11166,-0.0479 -0.24737,-0.0294 -0.35356,-0.0884 -0.68435,-0.3802 -0.38445,-0.44393 -1.59098,-0.66292 -0.23571,-0.13258 -0.11557,-0.10948 -1e-5,-0.13258 0.0428,-0.009 1.55914,-1.3505 1.59099,-1.41421 0.0394,-0.0788 0.0884,-0.44408 0.0884,-0.53033 0,-0.41386 -0.0805,-0.92344 0,-1.32583 0.0703,-0.35175 0.0884,-0.61518 0.0884,-0.97227 0,-0.45753 -0.10696,-1.25154 0,-1.67938 0.0385,-0.15392 0.14236,-0.28706 0.17678,-0.44194 0.0971,-0.43698 -0.0211,-0.31129 0.17677,-0.70711 0.10073,-0.20145 0,-2.12391 0,-2.47487 0,-0.33947 0.1514,-1.02274 0.53033,-1.14905 0.55548,-0.18516 1.26174,-0.0884 1.85616,-0.0884 0.50953,0 1.192,-0.12184 1.67938,0 0.12782,0.032 0.22435,0.15094 0.35355,0.17678 0.0867,0.0173 0.17767,-0.0125 0.26517,0 0.37067,0.053 0.41944,0.13981 0.79549,0.26516 0.48879,0.16293 1.01165,0.18991 1.5026,0.35356 0.0395,0.0132 0.0475,0.0802 0.0884,0.0884 0.17334,0.0347 0.35699,-0.0347 0.53033,0 0.60749,0.12149 3.05887,0.18372 3.53554,0.0884 0.75139,-0.15027 -0.25184,-0.004 0.53033,-0.26516 0.0839,-0.0279 0.17797,0.0145 0.26516,0 0.52841,-0.0881 1.93249,-0.91 2.20971,-1.32583 0.17504,-0.26255 0.30639,-0.57155 0.53033,-0.79549 0.0751,-0.0751 0.1988,-0.0938 0.26516,-0.17678 0.0582,-0.0728 0.0342,-0.18935 0.0884,-0.26516 0.0849,-0.11883 0.69598,-0.68813 0.88389,-0.7955 0.70556,-0.40318 1.41688,-0.0902 1.94454,-0.44194 0.0693,-0.0462 0.10532,-0.1339 0.17678,-0.17678 0.16425,-0.0985 0.47881,-0.16023 0.61871,-0.26516 0.1,-0.075 0.15798,-0.20085 0.26517,-0.26517 0.0505,-0.0303 0.12207,0.0219 0.17678,0 0.18907,-0.0756 0.35797,-0.25506 0.53033,-0.35355 0.50185,-0.28677 0.9698,-0.51354 1.41421,-0.88388 0.2362,-0.19684 0.6698,-0.58142 0.88388,-0.7955 0.0466,-0.0466 0.0519,-0.12196 0.0884,-0.17677 0.25228,-0.37842 0.52421,-0.70252 0.88389,-0.97228 0.1054,-0.079 0.24392,-0.10368 0.35355,-0.17677 0.22778,-0.15186 0.57335,-0.50765 0.79549,-0.61872 0.0791,-0.0395 0.17942,0.0214 0.26517,0 0.17886,-0.0447 0.20994,-0.2173 0.35355,-0.26517 0.32767,-0.10922 0.0579,0.1189 0.59142,-0.53869 1.66949,-0.5056 2.99209,-0.4365 4.32626,-0.3253 0.12457,0.0104 0.25481,-0.0343 0.375,0 0.42935,0.12267 1.47742,0.80686 1.75,0.875 0.12127,0.0303 0.25642,-0.0395 0.375,0 0.125,0.0833 0.25,0.16667 0.375,0.25 0,0.0417 -0.0295,0.0955 0,0.125 0.0295,0.0295 0.0955,-0.0295 0.125,0 0.34015,0.34015 0.56328,0.88633 0.875,1.25 0.34254,0.39963 0.30884,0.12207 0.625,0.375 0.18405,0.14724 0.28918,0.39459 0.5,0.5 0.21266,0.10633 0.25373,-0.12127 0.5,0.125 0.0295,0.0295 -0.0295,0.0955 0,0.125 0.0295,0.0295 0.0833,0 0.125,0 0.0833,0.0833 0.18463,0.15194 0.25,0.25 0.0231,0.0347 -0.0295,0.0955 0,0.125 0.19764,0.19764 0.51032,0.23119 0.75,0.375 0.16413,0.0985 1.19425,1.04666 1.375,1.25 0.29834,0.33563 0.74078,0.95116 1.125,1.25 0.19178,0.14916 0.43696,0.22115 0.625,0.375 1.05567,0.86373 2.17197,2.09395 2.75,3.25 0.0527,0.10541 0.22142,0.13567 0.25,0.25 0.0303,0.12127 -0.0303,0.25373 0,0.375 0.062,0.2478 0.39783,0.63661 0.5,0.875 0.0677,0.15791 0.0482,0.34634 0.125,0.5 0.0186,0.0373 0.10637,-0.0373 0.125,0 0.0768,0.15366 0.0482,0.34634 0.125,0.5 0.0791,0.15811 0.3191,0.2073 0.375,0.375 0.0263,0.0791 -0.0373,0.17546 0,0.25 0.0891,0.17822 0.38995,0.52989 0.5,0.75 0.0946,0.1891 0.0734,0.54341 0.125,0.75 0.0495,0.19817 0.18681,0.43542 0.25,0.625 0.2597,0.77911 0.77706,1.55411 1.125,2.25 0.0527,0.10541 0.1973,0.14459 0.25,0.25 0.0589,0.11785 0.0519,0.26537 0.125,0.375 0.0231,0.0347 0.0955,-0.0295 0.125,0 0.0417,0.0833 0.0833,0.16667 0.125,0.25 0.0417,0 0.0955,-0.0295 0.125,0 0.0331,0.0331 0,0.32353 0,0.375 0,0.55146 0.1309,1.22642 0,1.75 -0.0833,0.20833 -0.16667,0.41667 -0.25,0.625 -0.0417,0.0417 -0.0987,0.0723 -0.125,0.125 -0.53817,1.07635 -0.98335,1.67917 -2.125,2.25 -0.20069,0.10035 -0.43018,0.13868 -0.625,0.25 -0.10232,0.0585 -0.14894,0.18937 -0.25,0.25 -0.43834,0.263 -1.04679,0.43739 -1.375,0.875 -0.0901,0.12019 -0.20249,0.23248 -0.25,0.375 -0.0818,0.24538 -0.0661,2.72856 0,3.125 -0.0928,0.23134 0.21356,0.22925 0.25,0.375 0.0303,0.12127 -0.0303,0.25373 0,0.375 0.0286,0.11433 0.1973,0.14459 0.25,0.25 0.0589,0.11785 0.0833,0.25 0.125,0.375 0.0625,0.1875 -0.0625,0.4375 0,0.625 0.13193,0.39578 0.38111,0.70889 0.5,1.125 0.19436,0.68025 0.39353,1.43058 0.625,2.125 0.0907,0.27219 0.46688,0.51282 0.625,0.75 0.27549,0.41323 0.2631,0.92738 0.375,1.375 0.0949,0.37949 0.37511,0.75034 0.5,1.125 0.16139,0.48418 -0.0538,1.85755 -0.25,2.25 -0.0186,0.0373 -0.1,-0.0333 -0.125,0 -0.23844,0.31792 -0.56154,0.87309 -0.75,1.25 -0.3164,0.6328 -0.36611,1.35277 -0.625,2 -0.0219,0.0547 -0.11071,0.0678 -0.125,0.125 -0.0898,0.35926 -0.0696,1.77719 0,2.125 0.0713,0.35649 0.19371,0.18275 0.375,0.5 0.64622,0.1556 0.11434,0.60369 0.25,0.875 0.0791,0.15811 0.29594,0.21689 0.375,0.375 0.0745,0.14907 -0.0274,0.3356 0,0.5 0.10416,0.62493 0.47025,1.25598 0.625,1.875 0.15547,0.62188 0,1.47667 0,2.125 0,0.42353 0.13811,2.09877 0,2.375 -0.0186,0.0373 -0.11182,-0.0395 -0.125,0 -0.0977,0.29311 0.11462,0.71345 0,1 -0.0558,0.13949 -0.18281,0.24063 -0.25,0.375 -0.11577,0.23154 -0.14626,0.61564 -0.25,0.875 -0.11444,0.2861 -0.33457,1.45957 -0.375,1.625 -0.16667,0 -0.46304,-0.0522 -0.75,0 -1.15556,0.2101 -2.7336,2.4344 -3,3.5 -0.091,0.3638 0,0.75 0,1.125 0,0.96548 0.0622,1.93905 -0.125,2.875 -0.034,0.17026 0.0774,0.47012 0,0.625 -0.30669,0.61338 -0.81926,1.26351 -1.125,1.875 -0.4723,0.94461 -1.12614,2.12955 -1.375,3.125 -0.0468,0.1871 -0.30779,0.49058 -0.375,0.625 -0.0373,0.0745 0.0589,0.19107 0,0.25 -0.16667,0.16667 -0.11994,-0.26516 -0.25,0.125 -0.0263,0.0791 0.0263,0.17094 0,0.25 -0.0651,0.19536 -0.4178,0.2928 -0.5,0.375 -0.0659,0.0659 -0.0733,0.17248 -0.125,0.25 -0.1442,0.21629 -0.72367,0.55592 -1,0.625 -0.57208,0.14302 0.12997,-0.25248 -0.625,0.125 -0.10541,0.0527 -0.14459,0.1973 -0.25,0.25 -0.0745,0.0373 -0.17546,-0.0373 -0.25,0 -0.14143,0.0707 -0.35973,0.15649 -0.5,0.25 -0.0775,0.0517 -0.0417,0.20833 -0.125,0.25 -0.15366,0.0768 -0.33702,0.0707 -0.5,0.125 -0.30853,0.10284 -1.14371,0.0485 -1.375,-0.125 -0.46506,-0.3488 -0.0132,-0.1941 -0.625,-0.5 -0.0976,-0.0488 -0.51578,-0.14078 -0.625,-0.25 -0.0295,-0.0295 0.0347,-0.10189 0,-0.125 -0.70136,-0.46757 -3.43515,-0.26297 -4.125,-0.125 -0.0399,0.008 -1.4483,0.92245 -1.5,1 -0.0462,0.0693 0.031,0.17263 0,0.25 -0.13491,0.33727 -0.36509,0.53773 -0.5,0.875 -0.031,0.0774 0.0263,0.17094 0,0.25 -0.21901,0.65702 -0.25996,0.55977 -0.375,1.25 -0.0653,0.39158 -0.2955,0.72751 -0.375,1.125 -0.0625,0.3125 0.25,0 0,0.625 -0.0346,0.0865 -0.16667,0.0833 -0.25,0.125 -0.0417,0.0833 -0.1024,0.15961 -0.125,0.25 -0.0404,0.16169 0.0924,0.36133 0,0.5 -0.0517,0.0775 -0.20833,0.0417 -0.25,0.125 -0.0559,0.1118 0.0464,0.25894 0,0.375 -0.0438,0.10942 -0.16667,0.16667 -0.25,0.25 -0.25899,0.25899 -0.77871,0.63457 -1.125,0.75 -0.075,0.025 -0.275,-0.0125 -0.375,0 -0.55641,0.0695 -0.87811,0.17902 -1.375,0.25 -0.83679,0.11954 -1.7798,0 -2.625,0 -0.90733,0 -2.95538,0.19641 -3.625,-0.25 -0.19612,-0.13074 -0.28918,-0.39459 -0.5,-0.5 -0.0745,-0.0373 -0.17546,0.0373 -0.25,0 -1.26295,-0.63148 -0.099,-0.099 -0.625,-0.625 -0.0295,-0.0295 -0.0903,0.0231 -0.125,0 -0.125,-0.0833 -0.25,-0.27083 -0.375,-0.375 -0.32009,-0.26674 -0.70537,-0.45537 -1,-0.75 -0.26338,-0.26338 -0.51506,-0.71205 -0.875,-1 -0.18972,-0.15177 -0.43063,-0.22923 -0.625,-0.375 -0.16667,-0.125 -0.16667,-0.25 -0.375,-0.375 -0.20663,-0.12398 -0.73397,-0.28845 -0.875,-0.5 -0.0953,-0.14294 -0.0297,-0.35706 -0.125,-0.5 -0.1021,-0.15314 -0.311,-0.058 -0.375,-0.25 -0.0263,-0.0791 0.0263,-0.17094 0,-0.25 -0.0475,-0.14252 -0.19421,-0.23551 -0.25,-0.375 -0.10836,-0.2709 -0.18112,-0.5995 -0.25,-0.875 -0.12722,-0.50886 0.002,-1.11613 -0.125,-1.625 -0.0901,-0.36059 -0.30951,-0.85706 -0.375,-1.25 -0.0206,-0.1233 0.0245,-0.25243 0,-0.375 -0.0548,-0.27408 -0.28661,-0.48483 -0.375,-0.75 -0.0672,-0.20156 -0.0578,-0.42344 -0.125,-0.625 -0.0589,-0.17678 -0.19107,-0.32322 -0.25,-0.5 -0.13658,-0.40975 -0.11272,-0.96316 -0.25,-1.375 -0.0589,-0.17678 -0.1808,-0.32699 -0.25,-0.5 -0.0543,-0.13576 -0.29845,-0.89793 -0.375,-1 -0.0707,-0.0943 -0.18937,-0.14894 -0.25,-0.25 -0.18866,-0.31443 -0.17229,-0.67229 -0.5,-1 -0.0659,-0.0659 -0.18412,-0.0591 -0.25,-0.125 -0.0295,-0.0295 0.0231,-0.0903 0,-0.125 -0.0654,-0.0981 -0.18937,-0.14894 -0.25,-0.25 -0.18681,-0.31135 -0.19682,-0.625 -1.12607,-0.64591 -0.34529,-0.17671 -0.41977,-0.31254 -0.32429,-0.55125 z"
         id="path16" />
    </g>
  </g>
</svg>
