<?xml version="1.0" encoding="UTF-8" standalone="no"?>
<!-- Created with Inkscape (http://www.inkscape.org/) -->

<svg
   version="1.1"
   id="svg2"
   width="324.2388"
   height="149.43399"
   viewBox="0 0 324.2388 149.43399"
   xmlns="http://www.w3.org/2000/svg"
   xmlns:svg="http://www.w3.org/2000/svg">
  <defs
     id="defs6">
    <linearGradient
       id="swatch77">
      <stop
         style="stop-color:#e2c69e;stop-opacity:1;"
         offset="0"
         id="stop77" />
    </linearGradient>
  </defs>
  <g
     id="layer66"
     style="display:inline"
     transform="translate(-525.52679,-0.6187184)">
    <g
       id="layer81"
       style="display:inline">
      <path
         style="fill:#969696;fill-opacity:1;stroke:none;stroke-opacity:1"
         d="m 568.33707,103.9447 c -0.0748,-0.59867 -0.4494,-1.20127 -0.53033,-1.76777 -0.29197,-2.0438 0.1075,-6.260044 1.23744,-7.954952 0.0731,-0.109632 0.28047,-0.06714 0.35355,-0.176776 0.24893,-0.373394 0.26108,-0.878426 0.53033,-1.237437 0.76252,-1.016683 1.53834,-1.992193 2.2981,-3.005204 0.15811,-0.210819 0.19544,-0.496288 0.35355,-0.707107 0.58926,-0.785674 0.14732,0.147314 0.88389,-0.883883 0.15317,-0.214438 0.21388,-0.48364 0.35355,-0.707107 0.15615,-0.249844 0.39857,-0.443584 0.53033,-0.707107 0.16667,-0.333333 0.2022,-0.720103 0.35355,-1.06066 0.28894,-0.650096 0.61369,-1.269041 0.88389,-1.944544 0.0657,-0.164133 -0.0429,-0.358831 0,-0.53033 0.14588,-0.583525 0.44219,-1.150768 0.53033,-1.767767 0.0583,-0.408333 -0.0455,-0.82748 0,-1.237437 0.13765,-1.238861 0.17677,-2.460443 0.17677,-3.71231 0,-1.226905 0.21432,-3.66387 0,-4.949748 -0.15989,-0.959389 -1.34484,-2.496615 -1.94454,-3.18198 -0.78706,-0.899498 -1.59392,-1.88952 -2.2981,-2.828427 L 571.69583,65.2306 c -0.0589,0 -0.13511,0.04167 -0.17678,0 -0.15023,-0.150231 -0.20332,-0.380098 -0.35355,-0.53033 -0.0417,-0.04167 -0.13511,0.04167 -0.17678,0 -0.0932,-0.09317 -0.0671,-0.280465 -0.17677,-0.353553 -0.26403,-0.17602 -0.6065,-0.199447 -0.88389,-0.353553 -2.34952,-1.305292 0.3549,0.05982 -1.06066,-0.883884 -0.5386,-0.35907 -1.41389,-0.795335 -1.94454,-1.06066 -0.41164,-0.205818 -0.67039,-0.639966 -1.06066,-0.883884 -0.67256,-0.420352 -1.71622,-0.655555 -2.2981,-1.237436 -0.0932,-0.09317 -0.0836,-0.260384 -0.17677,-0.353554 -0.0932,-0.09317 -0.26039,-0.08361 -0.35356,-0.176777 -0.0417,-0.04167 0.0417,-0.13511 0,-0.176776 -0.0316,-0.03162 -2.05684,-1.15702 -2.29809,-1.237437 -0.11181,-0.03727 -0.23571,0 -0.35356,0 -0.2357,-0.05893 -0.48153,-0.08655 -0.7071,-0.176777 -0.37189,-0.148753 -0.81482,-0.409581 -1.23744,-0.53033 -0.34464,-0.09847 -0.74007,-0.01648 -1.06066,-0.176777 -0.89781,-0.448906 -2.29522,-1.514407 -3.18198,-1.767767 -0.16998,-0.04856 -0.36263,0.0559 -0.53033,0 -0.0657,-0.02191 -1.91682,-1.032934 -1.94455,-1.06066 -0.0417,-0.04167 0.0417,-0.13511 0,-0.176776 -0.29938,-0.299381 -0.5845,-0.05417 -0.88388,-0.353554 -0.14425,-0.144247 -0.13842,-0.445832 -0.53033,-0.707107 -0.049,-0.03269 -0.13511,0.04167 -0.17678,0 -0.24295,-0.242956 -0.33974,-0.597997 -0.53033,-0.883883 -0.49758,-0.746378 -1.02651,-1.592505 -1.59099,-2.298097 -0.88468,-1.105853 -3.12237,-2.486388 -4.41941,-3.005204 -2.31508,-0.926032 -5.15506,-0.53033 -7.6014,-0.53033 -0.45964,0 -1.1445,0.111622 -1.59099,0 -0.88486,-0.221214 -2.75204,-0.901653 -3.53554,-1.237437 -0.38969,-0.167012 -1.50124,-1.174614 -1.59099,-1.237437 -0.21588,-0.15112 -0.48113,-0.217972 -0.7071,-0.353553 -0.34319,-0.205915 -0.56337,-0.6435 -0.88389,-0.883884 -0.33406,-0.250547 -0.75542,-0.401866 -1.06066,-0.707106 -0.0417,-0.04167 0.0417,-0.13511 0,-0.176777 -0.0932,-0.09317 0.50524,0.16639 -0.35355,-0.176777 -0.32201,-0.128671 -0.87255,-0.543807 -0.70711,-0.883883 l 3.18198,-6.540738 c 0.37859,-0.77822 0.008,-1.805583 0.17678,-2.65165 0.0517,-0.258406 0.29639,-0.449859 0.35355,-0.707107 0.10306,-0.46376 0.0266,-0.96352 0.17678,-1.414214 0.27942,-0.838253 0.60803,-1.647316 0.88388,-2.474873 0.0373,-0.111804 -0.0286,-0.239221 0,-0.353554 0.11618,-0.464719 0.43686,-0.946826 0.53033,-1.414213 0.0347,-0.173344 -0.0621,-0.364809 0,-0.53033 0.24631,-0.656807 0.88936,-1.259306 1.06066,-1.944544 0.18354,-0.734131 0.47366,-1.437603 0.88389,-2.12132 0.35319,-0.588656 0.94664,-1.437211 1.06066,-2.121321 0.10838,-0.650272 0.13611,-5.067046 0,-5.656854 -0.1257,-0.544701 -0.32272,-1.071956 -0.53033,-1.59099 -0.0309,-0.07737 -0.16044,-0.09506 -0.17678,-0.176777 -0.0462,-0.231125 0.0422,-0.475206 0,-0.707107 -0.0767,-0.4220647 -0.26942,-0.8167826 -0.35355,-1.2374366 -0.0951,-0.4756647 -0.12663,-3.6727993 0,-4.2426406 0.16169,-0.7276069 0.49293,-1.4073988 0.7071,-2.1213204 0.0535,-0.1784804 0.14024,-0.3476096 0.17678,-0.5303301 0.0186,-0.093067 -0.0847,-0.7992365 0,-0.8838834 0.0932,-0.09317 0.26039,-0.083607 0.0884,-0.5303301 L 814.58702,0.6187184 c 1.31271,0.5467514 1.4791,2.1176819 2.47487,2.7400388 0.64815,0.4050903 2.07463,1.0112978 2.82843,1.2374369 0.34331,0.1029941 0.71808,0.071367 1.06066,0.1767767 1.62541,0.5001252 3.30341,1.2815728 4.77297,2.1213203 0.62451,0.3568619 1.16094,0.851274 1.76777,1.2374369 1.28626,0.8185292 2.37827,1.6518436 3.35876,2.828427 0.10669,0.128037 0.21487,0.261103 0.35355,0.353553 0.049,0.03269 0.15042,-0.0527 0.17678,0 0.0527,0.10541 -0.0654,0.255496 0,0.353554 0.0731,0.109632 0.28046,0.06714 0.35355,0.176777 0.0654,0.09806 -0.0373,0.24175 0,0.353553 0.0932,0.279508 0.34628,0.477041 0.53033,0.707107 0.40344,0.504297 0.88165,0.880528 1.23744,1.414213 0.28666,0.429998 0.95461,0.53036 1.23743,0.883884 0.16462,0.205777 0.20039,0.492669 0.35356,0.707107 0.46171,0.646403 1.29745,1.282447 1.94454,1.767766 0.10541,0.07906 0.26038,0.08361 0.35355,0.176777 0.0417,0.04167 -0.0327,0.127748 0,0.176777 0.1849,0.27735 0.53561,0.421276 0.70711,0.707107 0.25456,0.424261 0.44746,1.024737 0.70711,1.414213 0.3671,0.550655 0.39556,0.395562 0.88388,0.883884 0.0417,0.04167 -0.0219,0.122065 0,0.176776 0.0979,0.244675 0.21797,0.481138 0.35355,0.707107 0.89778,1.49629 1.67907,3.122234 2.2981,4.772971 0.66413,1.771004 0.82624,4.135051 1.06066,6.010408 0.0927,0.74155 0.38504,1.394858 0.53033,2.12132 0.18114,0.905682 0.22362,1.952105 0.53033,2.828427 0.31449,0.898526 0.77202,1.744492 1.06066,2.65165 0.12634,0.397053 0.11785,0.824958 0.17678,1.237437 0.35355,1.06066 0.7071,2.121321 1.06066,3.181981 0.50647,1.519411 1.20362,3.046718 1.59099,4.596194 0.44111,1.764462 0.80088,3.557094 1.23744,5.303301 0.22679,0.907163 0,2.058117 0,3.005203 l 0.17678,6.363962 c -0.63247,-0.08178 -1.41183,0.217979 -1.94455,0.883883 -0.0736,0.09203 0.0707,0.259272 0,0.353553 -0.12748,0.169968 -0.3801,0.203322 -0.53033,0.353554 -0.0417,0.04167 0.0327,0.127747 0,0.176776 -0.0924,0.138676 -0.27902,0.204483 -0.35356,0.353554 -0.0527,0.105409 0.0527,0.248144 0,0.353553 -0.19002,0.380059 -0.50074,0.689215 -0.7071,1.06066 -0.18099,0.32578 -0.16866,0.737085 -0.35356,1.060661 -0.14617,0.255808 -0.37874,0.454465 -0.53033,0.707106 -0.15249,0.254157 -0.0295,0.942901 -0.17677,1.237437 -0.0745,0.149071 -0.26781,0.210638 -0.35356,0.353554 -0.5069,0.844836 -0.68132,1.943315 -1.06066,2.828427 -0.0232,0.05416 -0.13511,-0.04167 -0.17677,0 -0.53782,0.154095 -0.43058,0.738038 -0.70711,1.06066 -0.27116,0.316357 -0.60515,0.574177 -0.88388,0.883883 -0.78195,0.868833 -1.52532,1.939485 -2.47488,2.651651 -0.10541,0.07906 -0.26038,0.08361 -0.35355,0.176776 -0.24493,0.244933 -0.3592,0.533152 -0.70711,0.707107 -0.73409,0.367046 -1.53206,0.589256 -2.29809,0.883884 -0.34784,0.133783 -0.69173,0.300848 -1.06066,0.353553 -0.84648,0.120925 -1.80132,0 -2.65165,0 h -5.83364 c -3.47284,0 -7.22889,0.390863 -10.6066,-0.53033 -0.38135,-0.104006 -0.7071,-0.353553 -1.06066,-0.53033 -0.7071,-0.235702 -1.4005,-0.517419 -2.12132,-0.707107 -0.80589,-0.212078 -1.66288,-0.16617 -2.47487,-0.353553 -0.5447,-0.1257 -1.09099,-0.28033 -1.59099,-0.53033 -0.80904,-0.404519 0.75014,0.07327 -0.53033,-0.353554 -0.22361,-0.07453 -0.47598,0.04623 -0.70711,0 -0.42853,-0.0857 -0.78758,-0.440358 -1.23744,-0.53033 -0.71314,-0.142629 -1.58308,0 -2.29809,0 -2.1809,0 -4.01414,0.136249 -6.18719,0.353554 -0.1759,0.01759 -0.36262,-0.0559 -0.53033,0 -0.0559,0.01863 0.0572,0.162485 0,0.176776 -1.41421,0.353554 -0.17677,-0.176776 -1.06066,0 -0.30348,0.0607 -2.06808,0.402968 -2.82842,0.707107 -0.41667,0.166667 -0.8076,0.401379 -1.23744,0.53033 -0.16932,0.0508 -0.35952,-0.04555 -0.53033,0 -1.00891,0.269042 -1.99783,0.609146 -3.0052,0.883884 -0.66541,0.181473 -1.27544,0.539828 -1.94455,0.707106 -0.1715,0.04287 -0.35355,0 -0.53033,0 -0.41248,0.117852 -0.82654,0.230286 -1.23744,0.353554 -1.61323,0.483971 -3.15764,1.270745 -4.77297,1.767767 -0.63836,0.196418 -0.3601,-0.130946 -0.88388,0 -0.36337,0.09084 -0.81545,0.584503 -1.06066,0.707107 -0.10541,0.0527 -0.24586,-0.04786 -0.35355,0 l -1.23744,0.707106 c -0.0589,0.117851 -0.0739,0.271243 -0.17678,0.353554 -0.34995,0.279966 -0.87093,0.432228 -1.23743,0.707106 -0.69814,0.523601 -1.28949,1.194595 -1.94455,1.767767 -0.15989,0.139906 -0.3801,0.203323 -0.53033,0.353554 -0.88757,0.88757 -1.29203,1.961187 -1.94454,3.005204 -0.0312,0.04997 -0.14646,-0.05053 -0.17678,0 -0.16326,0.272103 -0.19029,0.61178 -0.35355,0.883883 -0.19412,0.323539 -0.52387,0.554057 -0.70711,0.883884 -0.11799,0.212382 -0.0865,0.481527 -0.17677,0.707106 -0.15781,0.394527 -0.53454,0.672365 -0.70711,1.060661 -0.0987,0.222016 -0.0811,0.483794 -0.17678,0.707106 -0.39614,0.924334 -1.45622,1.851794 -1.94454,2.828427 -0.0263,0.05271 0,0.117852 0,0.176777 -0.17678,0.353554 -0.32083,0.72546 -0.53033,1.06066 -0.30423,0.486772 -0.42186,0.490162 -0.70711,1.06066 -0.0263,0.05271 0,0.117852 0,0.176777 -0.0589,0.176777 -0.0734,0.375287 -0.17677,0.530331 -0.0654,0.0981 -0.27023,-0.08333 -0.35356,0 -0.37531,0.37531 -0.39076,0.66616 -0.88388,1.06066 -0.10289,0.0823 -0.26039,0.0836 -0.35356,0.17678 -0.0932,0.0932 -0.0714,0.27449 -0.17677,0.35355 -1.7022,1.27665 0.37658,-0.65482 -0.88389,0.35355 -0.97937,0.7835 -2.21976,1.90538 -3.35875,2.47488 -0.21082,0.10541 -0.48827,-0.0875 -0.70711,0 -0.15475,0.0619 -0.20448,0.27901 -0.35355,0.35355 -0.10541,0.0527 -0.24413,-0.0438 -0.35356,0 -0.19726,0.0789 -0.33306,0.27465 -0.53033,0.35355 -0.40999,0.164 -0.98917,0.14104 -1.41421,0.35356 -0.0527,0.0263 0,0.11785 0,0.17677 -0.17678,0.0589 -0.34653,0.14615 -0.53033,0.17678 -0.39349,0.0656 -0.84739,-0.0867 -1.23744,0 -0.97648,0.217 -1.36535,0.37487 -2.29809,0.53033 -0.63052,0.10509 -1.55982,-0.0401 -2.12132,0 -0.71504,0.0511 -1.41167,0.25217 -2.12132,0.35355 -1.04056,0.14865 -2.13666,-0.11614 -3.18198,0 -1.07974,0.11997 -2.11198,0.37748 -3.18199,0.53033 -1.09719,0.15675 -2.26156,-0.15674 -3.35875,0 -1.16117,0.16588 -2.22154,0.47967 -3.35876,0.70711 -1.0767,0.21534 -2.27493,0.01 -3.35876,0.17678 -0.48026,0.0739 -0.93614,0.26663 -1.41421,0.35355 -0.17393,0.0316 -0.35355,0 -0.53033,0 -0.35355,0.0589 -0.71077,0.099 -1.06066,0.17678 -0.73195,0.16265 -1.3638,0.62293 -2.12132,0.7071 -1.19872,0.1332 -2.52126,0.26047 -3.71231,0.70711 -0.15606,0.0585 -0.21488,0.2611 -0.35356,0.35355 -0.42774,0.28516 -0.4992,-0.0156 -0.88388,0.17678 -0.0527,0.0263 0.0417,0.13511 0,0.17678 -0.0932,0.0932 -0.26038,0.0836 -0.35355,0.17677 -0.2668,0.2668 -0.42511,0.63322 -0.70711,0.88389 -0.2568,0.22827 -0.62301,0.30672 -0.88388,0.53033 -0.16131,0.13826 -0.20332,0.3801 -0.35356,0.53033 -0.0932,0.0932 -0.26038,0.0836 -0.35355,0.17677 -0.39585,0.39585 -0.59326,0.80151 -0.88388,1.23744 -0.2093,0.31394 -0.61709,0.44031 -0.88389,0.70711 -0.15023,0.15023 -0.20332,0.3801 -0.35355,0.53033 -0.5752,0.5752 -1.13818,0.61096 -1.76777,1.06066 -0.33994,0.24282 -0.5519,0.6349 -0.88388,0.88388 -1.18566,0.88924 0.24184,-0.35881 -1.41421,1.06066 -0.49616,0.42528 -0.87278,1.05326 -1.41422,1.41422 -0.21926,0.14617 -0.48784,0.20737 -0.7071,0.35355 -0.71383,0.47588 -1.21869,1.13733 -1.94455,1.59099 -1.61971,1.01232 0.39067,-0.63073 -1.94454,1.23744 -0.58565,0.46852 -1.02656,1.09711 -1.59099,1.59099 -0.54591,0.47767 -1.1943,0.93632 -1.76777,1.41421 -0.38188,0.31824 -0.67257,0.75019 -1.06066,1.06066 -0.19608,0.33449 -0.61558,0.31569 -0.88388,0.53033 -0.19522,0.15617 -0.32232,0.39166 -0.53033,0.53033 -0.15505,0.10336 -0.36367,0.0934 -0.53033,0.17678 -2.42587,1.21293 3.9011,-1.24145 -2.47488,0.88388 -0.079,0.0263 -0.0946,0.16308 -0.17677,0.17678 -0.37713,0.0629 -0.99938,-0.0377 -1.41422,0 -2.18573,0.1987 -0.71732,0.17677 -1.94454,0.17677 -0.79266,0 -1.69411,-0.13012 -2.47487,0 -0.70981,0.11831 -1.38076,0.29184 -2.12132,0.35356 -1.34739,0.11228 -3.29537,-0.16678 -4.5962,0.35355 -2.1092,0.84368 -3.38074,2.32558 -4.77297,4.06586 -0.3681,0.46014 -0.64399,0.99755 -1.06066,1.41422 -0.13176,0.13176 -0.36854,0.0843 -0.53033,0.17677 -0.27839,0.15909 -2.36817,1.73115 -2.47487,1.94455 -0.34939,0.69877 -0.95042,1.42563 -1.41422,2.12132 -0.31767,0.47651 -0.40213,1.13353 -0.7071,1.59099 -0.0327,0.049 -0.15043,-0.0527 -0.17678,0 -0.0527,0.10541 0.0373,0.24175 0,0.35355 -0.15039,0.45118 -0.55527,0.90808 -0.70711,1.41422 -0.10299,0.34331 -0.0634,0.72062 -0.17677,1.06066 -0.12155,0.36464 -0.43726,0.68835 -0.53033,1.06066 -0.24966,0.99864 0.0671,3.75483 -0.17678,4.24264 -0.0745,0.14907 -0.2357,0.2357 -0.7955,0 -4.73091,-0.54225 -9.06412,-0.068 -13.34664,-0.35356 -0.77332,-0.0515 -1.52572,-0.28919 -2.29809,-0.35355 -0.56569,-0.0471 -0.78568,0.0786 -1.41422,0 -1.45415,-0.18177 -2.82649,-0.85121 -4.24264,-1.23744 -1.62045,-0.44194 -0.29462,0.17678 -2.65165,-0.53033 -0.95337,0.29572 -1.3946,-0.64164 -2.12132,-0.88388 -0.87508,-0.2917 -2.03615,-0.56549 -2.82842,-1.06066 -0.12997,-0.0812 -1.92666,-1.53734 -1.94455,-1.59099 -0.0373,-0.1118 0.0438,-0.24413 0,-0.35355 -0.0611,-0.15268 -2.32078,-2.87312 -2.47487,-3.00521 -1.51421,-1.29789 -3.39458,-2.48577 -4.41942,-4.24264 -0.58701,-1.00631 -1.03311,-2.15921 -1.59099,-3.18198 -0.20347,-0.37303 -0.50363,-0.68763 -0.70711,-1.06066 -0.63892,-1.17136 -0.8619,-2.16208 -1.41421,-3.35876 -0.14398,-0.31196 -0.38815,-0.57108 -0.53033,-0.88388 -0.23132,-0.50891 -0.28033,-1.09099 -0.53033,-1.59099 -0.095,-0.19003 -0.26986,-0.33505 -0.35355,-0.53033 -0.0957,-0.22331 -0.0681,-0.4898 -0.17678,-0.70711 -0.0263,-0.0527 -0.11785,0 -0.17678,0 -0.11785,-0.17677 -0.25854,-0.3403 -0.35355,-0.53033 -0.20539,-0.41078 0.62261,0.0554 -0.35355,-0.53033 -1.18615,-0.71169 -2.75835,-0.35355 -4.06587,-0.35355 -3.14519,0 -6.42533,0.24771 -9.36916,-1.06066 -0.1523,-0.0677 -0.21488,-0.2611 -0.35356,-0.35355 -0.94379,-0.6292 -0.51919,-0.0947 -1.59099,-0.70711 -0.28941,-0.16538 -0.44681,-0.49888 -0.7071,-0.70711 -0.83564,-0.66851 -1.86957,-1.39013 -2.47488,-2.29809 -0.19059,-0.28589 -0.32417,-0.60901 -0.53033,-0.88389 -0.15,-0.2 -0.39611,-0.31941 -0.53033,-0.53033 -0.28295,-0.44465 -0.42415,-0.96956 -0.7071,-1.41421 -0.31318,-0.49214 -0.88744,-0.77077 -1.23744,-1.23744 -0.435,-0.57999 -1.05241,-1.75952 -1.59099,-2.2981 -0.18588,-0.18587 -1.24718,-0.4014 -1.59099,-0.53033 -0.0658,-0.0247 -1.19907,-0.65332 -1.41421,-0.7071 -1.13002,-0.28251 -2.86493,0.17156 -4.06587,0 -0.18446,-0.0263 -0.34513,-0.1562 -0.53033,-0.17678 -1.65424,-0.1838 -3.4638,0 -5.12652,0 h -9.19239 -5.83363 c -0.67042,0 -1.46086,0.0826 -2.12132,0 -0.52246,-0.0653 -1.48829,-0.23949 -1.94455,-0.35355 -0.26749,-0.0669 -0.61639,-0.28668 -0.88388,-0.35356 -0.11433,-0.0286 -0.24814,0.0527 -0.35355,0 -0.32035,-0.16017 -1.28932,-0.7071 -1.76777,-0.79549 -1.19869,-1.63269 -0.49097,-3.48585 -0.70711,-5.21491 z"
         id="path185" />
    </g>
  </g>
</svg>
