<?xml version="1.0" encoding="UTF-8" standalone="no"?>
<!-- Created with Inkscape (http://www.inkscape.org/) -->

<svg
   version="1.1"
   id="svg1"
   width="324.07587"
   height="149.24373"
   viewBox="0 0 324.07587 149.24373"
   xmlns="http://www.w3.org/2000/svg"
   xmlns:svg="http://www.w3.org/2000/svg">
  <defs
     id="defs1" />
  <g
     id="layer1"
     style="display:inline"
     transform="translate(-526.24215,-0.4861219)">
    <g
       id="layer67"
       style="display:inline;fill:#ffffff;fill-opacity:1;stroke:none">
      <path
         style="fill:#ffffff;fill-opacity:1;stroke:none;stroke-linecap:round"
         d="m 533.49999,0.74999998 0.0342,4.39862112 -1.63518,5.4800779 1.4805,4.640388 0.53033,7.071067 -3.69021,2.80633 -1.10486,12.551145 -2.87262,3.822796 2.65165,3.911185 18.87091,2.894718 1.72358,4.087961 2.34229,3.159883 2.76213,0.04419 6.8501,3.248272 2.34229,2.784233 4.72878,1.944544 7.46881,8.308504 0.15468,8.79464 -2.78423,7.844466 -3.24827,2.983107 -1.41421,5.303301 -0.61872,12.573241 9.30287,1.72358 10.45192,-0.0884 14.51779,-1.63519 4.64039,3.31457 9.36916,10.42982 12.1313,1.5468 6.91639,15.46796 2.47487,2.65165 5.14862,0.41984 3.49134,4.19845 24.68245,2.2981 0.95017,-4.79507 2.43068,-6.56284 6.8722,-7.33623 22.7379,-4.06586 6.0767,-4.33103 10.03207,-10.38563 1.90035,-2.60746 9.65643,-1.72357 11.3579,-0.35355 12.79422,-0.90598 21.38998,-24.019541 9.25868,-3.447145 8.02124,-1.193243 2.38648,-2.43068 36.70326,3.557631 7.15946,-3.734407 3.0052,-3.933282 2.25391,-4.640388 3.88908,-2.673747 0.24307,-7.159456 -6.87219,-26.582795 -3.8007,-10.606602 -8.57367,-8.507378 -4.22054,-1.7898639 -3.73441,-4.0879609 -9.47965,-4.9276503 z"
         id="path66" />
    </g>
  </g>
</svg>
