<?xml version="1.0" encoding="UTF-8" standalone="no"?>
<!-- Created with Inkscape (http://www.inkscape.org/) -->

<svg
   version="1.1"
   id="svg2"
   width="83.868263"
   height="56.978424"
   viewBox="0 0 83.868263 56.978424"
   xmlns="http://www.w3.org/2000/svg"
   xmlns:svg="http://www.w3.org/2000/svg">
  <defs
     id="defs6">
    <linearGradient
       id="swatch77">
      <stop
         style="stop-color:#e2c69e;stop-opacity:1;"
         offset="0"
         id="stop77" />
    </linearGradient>
  </defs>
  <g
     id="layer66"
     style="display:inline"
     transform="translate(-486.91271,-407.07712)">
    <g
       id="layer16"
       style="display:inline">
      <path
         style="display:inline;fill:#969696;fill-opacity:1;stroke:none;stroke-opacity:1"
         d="m 570.28162,409.76838 c -0.0662,-0.106 -0.22564,-0.14658 -0.26517,-0.26516 -0.0186,-0.0559 0.0186,-0.12088 0,-0.17678 -0.0527,-0.15812 -0.2678,-0.21064 -0.35355,-0.35355 -0.0303,-0.0505 0.0263,-0.12408 0,-0.17678 -0.15894,-0.31789 -0.15317,-0.0648 -0.35355,-0.26517 -0.0466,-0.0466 -0.0418,-0.13019 -0.0884,-0.17677 -0.13258,-0.13259 -0.39775,-0.13259 -0.53033,-0.26517 -0.0466,-0.0466 -0.0418,-0.13019 -0.0884,-0.17678 -0.0932,-0.0932 -0.24814,-0.0977 -0.35355,-0.17677 -0.15255,-0.11442 -0.44248,-0.46424 -0.61872,-0.53033 -0.54652,-0.20495 -1.37414,-0.0884 -1.94454,-0.0884 -0.72014,0 -1.49712,-0.0891 -2.20971,0 -0.48717,0.0609 -0.91427,0.29474 -1.41422,0.35355 -0.23408,0.0275 -0.47237,-0.0213 -0.7071,0 -0.25611,0.0233 -0.37143,0.19772 -0.61872,0.26517 -0.20099,0.0548 -0.42108,0.0225 -0.61872,0.0884 -0.2357,0.11785 -0.4714,0.2357 -0.70711,0.35355 -0.0295,0.0295 -0.0511,0.0697 -0.0884,0.0884 -0.53793,0.26897 -1.08401,0.54589 -1.59099,0.88388 -0.0693,0.0462 -0.10224,0.13951 -0.17677,0.17678 -0.13119,0.0656 -0.65397,0.0412 -0.7955,0.0884 -0.10078,0.0336 -0.1657,0.13947 -0.26516,0.17677 -0.45078,0.16904 -0.48529,0.0343 -0.97227,0.0884 -0.0926,0.0103 -0.17294,0.0752 -0.26517,0.0884 -0.51779,0.074 -1.06969,-0.0474 -1.59099,0 -0.68865,0.0626 -1.34665,0.41595 -2.03293,0.53033 -0.29638,0.0494 -0.58692,0.13109 -0.88389,0.17678 -0.51718,0.0796 -0.85543,0.0424 -1.32582,0.17677 -0.49756,0.14216 -0.99417,0.42865 -1.5026,0.53033 -0.14446,0.0289 -0.29577,-0.0183 -0.44194,0 -0.3698,0.0462 -0.7037,0.24647 -1.06066,0.35356 -0.27386,0.0821 -0.6088,0.0982 -0.88389,0.17677 -0.36084,0.1031 -0.88458,0.22124 -1.23743,0.35356 -0.36072,0.13527 -0.69208,0.40747 -1.06066,0.53033 -0.028,0.009 -0.0589,0 -0.0884,0 -0.11785,0.0295 -0.24077,0.0433 -0.35356,0.0884 -1.71618,0.68647 0.41346,-0.11834 -0.88388,0.53033 -0.16081,0.0804 -0.45367,0.0334 -0.61872,0.0884 -0.15398,0.0513 -0.67244,0.35991 -0.79549,0.44195 -0.65966,0.43977 -2.06547,1.40689 -2.82843,1.67937 -0.13873,0.0496 -0.29611,-0.0208 -0.44194,0 -0.26517,0.0379 -0.54172,0.25205 -0.7955,0.35356 -0.58142,0.23257 -1.16326,0.3792 -1.76776,0.53033 -0.20809,0.052 -0.41524,0.10895 -0.61872,0.17677 -0.0395,0.0132 -0.0475,0.0802 -0.0884,0.0884 -0.2219,0.0444 -0.48701,-0.055 -0.70711,0 -0.0904,0.0226 -0.1738,0.0701 -0.26516,0.0884 -0.22132,0.0443 -0.49478,-0.0708 -0.70711,0 -0.26667,0.0889 -0.52243,0.27554 -0.79549,0.35355 -0.0651,0.0186 -0.69725,0.12765 -0.7955,0.17678 -0.0745,0.0373 -0.10224,0.13951 -0.17678,0.17678 -0.10865,0.0543 -0.23981,0.0457 -0.35355,0.0884 -0.18506,0.0694 -0.33859,0.21723 -0.53033,0.26516 -0.31627,0.0791 -0.73355,0 -1.06066,0 h -2.12132 c -1.2361,0 -2.48997,0.0644 -3.71231,-0.0884 -0.0877,-0.011 -0.17989,0.0233 -0.26517,0 -0.2804,-0.0765 -0.96226,-0.35522 -1.23743,-0.53033 -0.15916,-0.10128 -0.27868,-0.25903 -0.44194,-0.35355 -0.476,-0.3667 -1.07619,-0.50132 -1.591,-0.7955 -0.0922,-0.0527 -0.19004,-0.10166 -0.26516,-0.17677 -0.0466,-0.0466 -0.0295,-0.14732 -0.0884,-0.17678 -0.49165,-0.24582 -1.0758,-0.20636 -1.59099,-0.35355 -0.0401,-0.0115 -0.0589,-0.0589 -0.0884,-0.0884 -0.2357,-0.0884 -0.46182,-0.20856 -0.7071,-0.26517 -0.14355,-0.0331 -0.29749,0.0289 -0.44195,0 -0.15558,-0.0311 -0.28997,-0.13118 -0.44194,-0.17677 -0.14389,-0.0432 -0.30127,-0.0356 -0.44194,-0.0884 -0.84643,-0.31741 0.58326,-0.0778 -0.79549,-0.35355 -0.11557,-0.0231 -0.238,0.0231 -0.35356,0 -0.55082,-0.11017 -1.0327,-0.43729 -1.59099,-0.53033 -0.2343,-0.039 -0.47794,-0.0259 -0.7071,-0.0884 -0.16575,-0.0452 -0.27676,-0.21797 -0.44195,-0.26517 -0.37896,-0.10827 -0.77523,-0.0937 -1.14905,-0.17677 -0.38413,-0.0854 -0.79142,-0.2989 -1.14904,-0.44195 -0.28448,-0.11379 -0.59776,-0.0814 -0.88389,-0.17677 -0.15052,-0.0502 -0.28801,-0.1383 -0.44194,-0.17678 -0.0858,-0.0214 -0.17798,0.0145 -0.26516,0 -0.58508,-0.0975 -1.18388,-0.0934 -1.76777,-0.17678 -0.11113,-0.0159 -0.6973,-0.26271 -0.70711,-0.26516 -0.32136,-0.0803 -0.7458,0.10495 -1.06066,0 -0.0395,-0.0132 -0.048,-0.0783 -0.0884,-0.0884 -0.11433,-0.0286 -0.2357,0 -0.26512,-0.1768 -0.0589,-0.2063 -0.20533,-0.28989 -0.35351,-0.2652 -0.065,0.0108 -0.0369,0.13562 -0.0884,0.17678 -0.10289,0.0823 -0.24955,0.0959 -0.35356,0.17677 -0.16444,0.12791 -0.27926,0.3118 -0.44194,0.44194 -0.13415,0.10732 -0.3045,0.16209 -0.44194,0.26517 -0.36888,0.27666 -1.39986,1.30429 -1.59099,1.59099 -0.23813,0.35719 -0.7877,1.02063 -1.14905,1.23744 -0.0578,0.0347 -0.57593,0.0245 -0.61872,0 -0.16379,-0.0936 -0.2732,-0.26919 -0.44194,-0.35356 -0.45437,-0.22718 -1.08063,-0.35355 -1.59099,-0.35355 -0.42002,0 -1.01299,-0.11463 -1.41421,0 -0.323,0.0923 -0.57688,0.36366 -0.7955,0.61872 -0.0384,0.0447 0.0354,0.12963 0,0.17677 -0.0637,0.085 -0.19005,0.10167 -0.26516,0.17678 -0.10566,0.10566 -0.20629,0.32418 -0.26517,0.44194 -0.18392,0.36785 0.006,-0.0945 -0.17677,0.0884 -0.0659,0.0659 -0.0278,0.19443 -0.0884,0.26517 -0.13558,0.15817 -0.2819,0.30857 -0.44194,0.44194 -0.0226,0.0189 -0.0764,-0.0269 -0.0884,0 -0.21358,0.48055 -0.38345,1.07688 -0.53033,1.59099 -0.0334,0.1168 -0.0281,0.24808 -0.0884,0.35355 -0.062,0.10853 -0.18708,0.16756 -0.26517,0.26517 -0.28988,0.36235 -0.41347,0.8599 -0.7071,1.23743 -0.38068,0.48945 -1.00912,1.07646 -1.59099,1.32583 -0.169,0.0724 -0.52834,0.0874 -0.70711,0.17678 -0.22215,0.11107 -0.39193,0.41693 -0.61872,0.53033 -0.40452,0.20226 -0.19126,-0.0739 -0.61872,0.35355 -0.0466,0.0466 -0.0418,0.13019 -0.0884,0.17678 -0.0466,0.0466 -0.13562,0.0369 -0.17677,0.0884 -0.0823,0.10289 -0.10695,0.24182 -0.17678,0.35356 -0.0781,0.12492 -0.19928,0.22179 -0.26516,0.35355 -0.0447,0.0894 -0.14948,1.43827 -0.0884,1.59099 0.12395,0.30989 0.31663,0.62745 0.53033,0.88388 0.1067,0.12804 0.2678,0.21064 0.35355,0.35356 0.15479,0.25798 0.27465,0.54455 0.44194,0.79549 0.0924,0.13868 0.25668,0.21793 0.35356,0.35356 0.13042,0.18258 0.11609,0.45101 0.26516,0.61871 0.18046,0.20303 0.42665,0.33826 0.61872,0.53034 0.15047,0.15047 0.15168,0.30736 0.35355,0.44194 0.0245,0.0163 0.0676,-0.0208 0.0884,0 0.0545,0.0544 0.59747,0.66461 0.61872,0.7071 0.0263,0.0527 -0.0368,0.13077 0,0.17678 0.12051,0.15063 0.53379,0.40653 0.70711,0.53033 0.60062,0.42901 1.31418,1.09903 1.94454,1.41421 0.14191,0.071 0.30003,0.10582 0.44194,0.17678 0.22669,0.11335 0.3886,0.33573 0.61872,0.44194 0.25378,0.11713 0.5455,0.14017 0.7955,0.26517 0.1118,0.0559 0.16344,0.19251 0.26516,0.26516 0.10722,0.0766 0.24057,0.10899 0.35355,0.17678 0.0715,0.0429 0.10225,0.13951 0.17678,0.17678 0.0833,0.0417 0.18764,0.0367 0.26517,0.0884 0.104,0.0693 0.15797,0.20086 0.26516,0.26517 0.0505,0.0303 0.11785,0 0.17678,0 0.11785,0.0589 0.24182,0.10694 0.35355,0.17678 0.52119,0.32574 0.96418,0.76153 1.5026,1.06066 0.50318,0.27954 0.98968,0.62742 1.5026,0.88388 0.38474,0.19237 0.76344,0.42591 1.14905,0.61872 0.14192,0.0709 0.30589,0.0951 0.44195,0.17677 0.0253,0.0152 -0.0208,0.0676 0,0.0884 0.13455,0.13456 0.90488,0.62922 1.06066,0.70711 0.13437,0.0672 0.31311,0.0111 0.44194,0.0884 0.12632,0.0758 0.22179,0.19928 0.35355,0.26516 0.0527,0.0264 0.12407,-0.0264 0.17678,0 0.0745,0.0373 0.10224,0.13951 0.17677,0.17678 0.0527,0.0264 0.12408,-0.0263 0.17678,0 0.85491,0.64118 -0.0562,0.0161 0.61872,0.35355 0.30046,0.15023 0.52029,0.42608 0.79549,0.61872 0.34599,0.24219 0.78108,0.40845 1.14905,0.61872 0.18447,0.10541 0.3403,0.25854 0.53033,0.35355 0.30211,0.15105 0.96826,0.32658 1.23744,0.44195 1.86504,0.7993 -0.30044,-0.10603 0.79549,0.44194 0.20066,0.10032 0.53906,0.15313 0.70711,0.26516 0.10401,0.0693 0.15336,0.20927 0.26517,0.26517 0.0527,0.0263 0.13511,-0.0417 0.17677,0 0.0208,0.0208 -0.0163,0.0639 0,0.0884 0.0693,0.104 0.22564,0.14658 0.26517,0.26516 0.028,0.0839 -0.0395,0.18611 0,0.26517 0.11565,0.2313 0.23834,0.47667 0.35355,0.7071 0.0395,0.0791 -0.0214,0.17942 0,0.26517 0.0469,0.18744 0.17129,0.21273 0.26517,0.35355 0.0295,0.0589 0.0589,0.11785 0.0884,0.17678 0,0.0295 -0.0132,0.062 0,0.0884 0.0964,0.19285 0.35355,0.17236 0.85188,0.69698 0.83999,0.27373 1.38633,0.0978 1.74834,0.21843 0.14252,0.0475 0.23691,0.19082 0.375,0.25 0.16667,0.0417 0.33333,0.0833 0.5,0.125 0.0417,0.0417 0.0723,0.0987 0.125,0.125 0.1118,0.0559 0.25641,-0.0395 0.375,0 0.13175,0.0439 1.28889,1.03889 1.375,1.125 0.10623,0.10623 0.14377,0.26877 0.25,0.375 0.10623,0.10623 0.25959,0.15382 0.375,0.25 0.56287,0.46906 1.0377,1.05952 1.625,1.5 0.0333,0.025 0.0955,-0.0295 0.125,0 0.0417,0.0417 0.0833,0.33333 0.125,0.375 0.0195,0.0195 0.3555,0.2305 0.375,0.25 0.46109,0.46109 -0.29934,0.0504 0.375,0.5 0.19922,0.13281 0.51927,0.11156 0.75,0.25 0.10106,0.0606 0.14058,0.20623 0.25,0.25 0.17361,0.0694 0.43981,-0.0463 0.625,0 0.50696,0.12674 0.96886,0.38618 1.5,0.5 0.28809,0.0617 0.58609,0.0672 0.875,0.125 1.04694,0.20939 2.59319,0.46227 3.625,0.875 0.58449,0.23379 -0.75001,0.0714 0.5,0.25 0.60995,0.0871 1.26723,-0.1013 1.875,0 0.75316,0.12553 1.392,0.41557 2.125,0.625 0.22624,-0.0753 0.23248,0.20249 0.375,0.25 0.0791,0.0263 0.17094,-0.0263 0.25,0 0.14118,0.0471 0.63432,0.30559 0.75,0.375 0.35461,0.21277 0.63282,0.69141 1,0.875 0.16262,0.0813 0.29452,-0.11642 0.375,0.125 0.0263,0.0791 -0.0373,0.17546 0,0.25 0.0186,0.0373 0.1,-0.0333 0.125,0 0.1118,0.14907 0.15413,0.34021 0.25,0.5 0.12657,0.21096 0.53118,0.64059 0.75,0.75 0.0373,0.0186 0.0955,-0.0295 0.125,0 0.0659,0.0659 0.0691,0.17546 0.125,0.25 0.125,0.16667 0.54167,0.47917 0.625,0.625 0.0852,0.14916 0.0297,0.35706 0.125,0.5 0.13629,0.20444 0.78351,0.57681 1,0.75 0.18405,0.14724 0.28918,0.39459 0.5,0.5 0.125,0.0417 0.25,0.0833 0.375,0.125 0,0.0417 -0.0347,0.10189 0,0.125 0.37394,0.24929 0.979,0.28 1.375,0.5 0.18211,0.10117 0.32665,0.25944 0.5,0.375 0.2127,0.1418 0.41229,0.1082 0.625,0.25 0.0347,0.0231 -0.0373,0.10636 0,0.125 0.0745,0.0373 0.17546,-0.0373 0.25,0 0.10541,0.0527 0.15194,0.18463 0.25,0.25 0.0347,0.0231 0.0955,-0.0295 0.125,0 0.0295,0.0295 -0.0295,0.0955 0,0.125 0.21288,0.21288 0.7398,0.57653 1,0.75 0.23409,0.15606 0.39091,0.0939 0.625,0.25 0.375,0.25 -0.25,0 0.375,0.375 0.11298,0.0678 0.26959,0.0459 0.375,0.125 0.35197,0.008 0.0318,0.28183 0.125,0.375 0.0174,0.0174 1.02952,0.57726 1.125,0.625 0.10541,0.0527 0.1382,0.21273 0.25,0.25 0.0791,0.0263 0.1734,-0.0328 0.25,0 0.82803,0.35487 0.4674,0.30435 1.25,0.5 0.18077,0.0452 0.31922,0.2048 0.5,0.25 0.47059,0.11765 1.02941,-0.11765 1.5,0 0.0904,0.0226 0.1581,0.10968 0.25,0.125 0.2877,0.048 0.589,-0.0572 0.875,0 0.0914,0.0183 0.16667,0.0833 0.25,0.125 0.125,0.0417 0.2458,0.0992 0.375,0.125 0.72115,0.14423 1.52884,-0.14423 2.25,0 0.9312,0.18624 4.73061,0.33663 5.5,-0.125 0.15158,-0.091 0.20729,-0.3191 0.375,-0.375 0.0791,-0.0263 0.18333,0.05 0.25,0 0.12018,-0.0901 0.15615,-0.25769 0.25,-0.375 0.23997,-0.29997 0.47837,-0.60337 0.75,-0.875 0.0659,-0.0659 0.18412,-0.0591 0.25,-0.125 0.0659,-0.0659 0.0833,-0.16667 0.125,-0.25 0.16667,-0.20833 0.31134,-0.43635 0.5,-0.625 0.0426,-0.0426 0.68963,-0.40945 0.75,-0.5 0.0462,-0.0693 -0.0373,-0.17547 0,-0.25 0.0417,-0.0833 0.20833,-0.0417 0.25,-0.125 0.11349,-0.22697 0.0654,-0.63652 0.125,-0.875 0.0289,-0.11551 0.21195,-0.26086 0.25,-0.375 0.0527,-0.15812 -0.0404,-0.33831 0,-0.5 0.1509,-0.60362 0.0594,0.006 0.25,-0.375 0.0833,-0.16667 -0.0833,-0.45833 0,-0.625 0.0186,-0.0373 0.11182,0.0395 0.125,0 0.0395,-0.11859 -0.0245,-0.25243 0,-0.375 0.085,-0.42506 0.49564,-0.86192 0.625,-1.25 0.0395,-0.11859 -0.0559,-0.2632 0,-0.375 0.38798,-0.77596 0.25,-2.06981 0.25,-3 0,-0.51026 0.0996,-1.12719 0,-1.625 -0.0895,-0.44754 -0.42565,-0.8513 -0.625,-1.25 -0.17678,-0.35355 -0.21446,-0.76379 -0.375,-1.125 -0.0134,-0.32315 -0.38069,-0.38637 -0.5,-0.625 -0.0768,-0.15366 -0.0573,-0.3421 -0.125,-0.5 -0.2256,-0.52639 -0.67502,-0.8167 -1,-1.25 -0.20907,-0.27876 -0.32674,-0.74011 -0.5,-1 -0.13889,-0.20833 -0.52083,-0.41667 -0.625,-0.625 -0.0559,-0.1118 0.0395,-0.25642 0,-0.375 -0.0768,-0.23049 -0.29817,-0.39451 -0.375,-0.625 -0.12328,-0.36985 -0.25182,-0.75545 -0.375,-1.125 -0.0908,-0.2723 -0.0344,-2.11243 0,-2.25 0.0984,-0.39359 0.34759,-0.86897 0.5,-1.25 0.0558,-0.13949 0.20249,-0.23248 0.25,-0.375 0.0263,-0.0791 -0.0462,-0.18066 0,-0.25 0.0517,-0.0775 0.19832,-0.0475 0.25,-0.125 0.0462,-0.0693 -0.0263,-0.17094 0,-0.25 0.14654,-0.43964 0.55676,-0.92412 0.75,-1.375 0.41667,-0.97222 0.10417,0 0.625,-1.25 0.15203,-0.36488 0.17163,-0.78605 0.375,-1.125 0.0606,-0.10106 0.18936,-0.14894 0.25,-0.25 0.60896,-1.01494 -0.0239,-0.0534 0.125,-0.5 0.0615,-0.18443 0.19758,-0.34274 0.25,-0.5 0.0625,-0.1875 -0.0625,-0.4375 0,-0.625 0.0186,-0.0559 0.0987,-0.0723 0.125,-0.125 0.0745,-0.14907 -0.0327,-0.33657 0,-0.5 0.24137,-1.20685 0.0143,1.02491 0.25,-0.625 0.0236,-0.16499 -0.0274,-0.3356 0,-0.5 0.0503,-0.30178 0.28078,-0.40392 0.375,-0.875 0.067,-0.33502 -0.0166,-0.49731 0.125,-0.875 0.0654,-0.17448 0.19107,-0.32322 0.25,-0.5 0.0263,-0.0791 -0.0263,-0.17094 0,-0.25 0.35774,-1.07322 0.15656,-10e-4 0.375,-0.875 0.0312,-0.125 -0.0625,-0.25 0,-0.375 0.0186,-0.0373 0.11182,0.0395 0.125,0 0.0395,-0.11859 -0.0303,-0.25373 0,-0.375 0.0143,-0.0572 0.0987,-0.0723 0.125,-0.125 0.0768,-0.15366 0.0482,-0.34634 0.125,-0.5 0.21332,-0.42664 0.41168,-0.82337 0.625,-1.25 0.095,-0.19003 0.0461,-0.42774 0.125,-0.625 0.25636,-0.64092 0.62988,-1.32593 0.875,-2 0.17886,-0.49186 0.32107,-1.2941 0.625,-1.75 0.0981,-0.14709 0.29594,-0.21689 0.375,-0.375 0.0559,-0.1118 -0.0395,-0.25642 0,-0.375 0.0132,-0.0395 0.10636,0.0373 0.125,0 0.125,-0.25 -0.0625,-0.1875 0,-0.375 0.0856,-0.25665 0.30932,-0.3623 0.375,-0.625 0.0661,-0.26433 0.0828,-0.49914 0.25,-0.75 0.12823,-0.19235 0.38091,-0.30152 0.5,-0.5 0.0515,-0.0859 0.59719,-1.13876 0.625,-1.25 0.14302,-0.57208 -0.25249,0.12997 0.125,-0.625 0.23741,-0.47482 0.44999,-0.27498 0.625,-0.625 0.06,-0.11997 -0.04,-0.37996 0,-0.5 0.0659,-0.19764 0.29763,-0.30657 0.375,-0.5 0.065,-0.1626 0.0801,-0.44549 0.125,-0.625 0.14557,-0.5823 0.5,-1.00734 0.53097,-1.7654 -0.16883,-0.59298 -0.2322,-1.03878 -0.49935,-1.46622 z"
         id="path32" />
    </g>
  </g>
</svg>
