<?xml version="1.0" encoding="UTF-8" standalone="no"?>
<!-- Created with Inkscape (http://www.inkscape.org/) -->

<svg
   version="1.1"
   id="svg1"
   width="83.460693"
   height="57.518719"
   viewBox="0 0 83.460693 57.518719"
   xmlns="http://www.w3.org/2000/svg"
   xmlns:svg="http://www.w3.org/2000/svg">
  <defs
     id="defs1" />
  <g
     id="layer1"
     style="display:inline"
     transform="translate(-486.68833,-407.62495)">
    <g
       id="layer68"
       style="display:inline;fill:#ffffff;fill-opacity:1;stroke:none">
      <path
         style="fill:#ffffff;fill-opacity:1;stroke:none;stroke-linecap:round"
         d="m 502.8192,411.60243 -1.98874,3.42505 -1.90035,-1.19325 -6.93848,2.34229 -5.3033,7.68979 1.08275,5.10443 16.08668,9.8774 3.49134,0.13258 2.49697,4.17635 4.6183,1.90035 7.04897,5.19281 12.21968,4.72878 11.66727,8.50738 8.72835,1.65728 4.30893,-1.5468 4.88345,-5.03813 2.62956,-5.03814 -3.38086,-8.15382 -3.11569,-4.17635 1.81196,-3.24827 5.19282,-19.93158 3.69021,-5.96621 -0.33145,-4.19845 -2.76214,-0.22097 -5.10443,0.39775 -14.80504,2.71794 -3.60183,1.67938 -6.12089,3.27037 -10.14256,2.16551 z"
         id="path67" />
    </g>
  </g>
</svg>
