<?xml version="1.0" encoding="UTF-8" standalone="no"?>
<!-- Created with Inkscape (http://www.inkscape.org/) -->

<svg
   version="1.1"
   id="svg2"
   width="67.434967"
   height="60.084454"
   viewBox="0 0 67.434967 60.084454"
   xmlns="http://www.w3.org/2000/svg"
   xmlns:svg="http://www.w3.org/2000/svg">
  <defs
     id="defs6">
    <linearGradient
       id="swatch77">
      <stop
         style="stop-color:#e2c69e;stop-opacity:1;"
         offset="0"
         id="stop77" />
    </linearGradient>
  </defs>
  <g
     id="layer66"
     style="display:inline"
     transform="translate(-1134.3319,-422.43397)">
    <g
       id="layer52"
       style="display:inline">
      <path
         style="display:inline;fill:#969696;fill-opacity:1;stroke:none;stroke-opacity:1"
         d="m 1141.2703,450.95735 c 0.059,0.2357 0.1179,0.4714 0.1768,0.70711 0.059,0 0.1441,-0.049 0.1768,0 0.128,0.192 0.3306,1.2536 0.3535,1.41421 0.1936,1.3549 0,2.87541 0,4.24264 0,1.18716 0.3022,2.94836 -0.1767,4.06586 -0.1872,0.43666 -0.5142,0.80331 -0.7071,1.23744 -0.3867,0.87001 -0.5349,1.8629 -1.0607,2.65165 -0.033,0.049 -0.1414,-0.0471 -0.1768,0 -0.1581,0.21082 -0.2073,0.48784 -0.3535,0.70711 -0.092,0.13867 -0.279,0.20448 -0.3536,0.35355 -0.053,0.10541 0.061,0.2525 0,0.35355 -0.1286,0.21438 -0.3803,0.33033 -0.5303,0.53033 -0.1904,0.25386 -0.2117,0.60006 -0.3536,0.88389 -0.4376,0.8753 -0.9287,1.72564 -1.2374,2.65165 -0.422,1.26591 -0.2441,2.60083 -0.5303,3.88909 -0.1204,0.54173 -0.4216,1.04696 -0.5304,1.59099 -0.077,0.38477 0.1234,0.86748 0,1.23743 -0.026,0.0791 -0.1565,0.0959 -0.1767,0.17678 -0.1928,0.77096 -0.02,1.69327 -0.1768,2.47487 -0.1372,0.6859 -0.5303,1.24216 -1.2816,2.16552 l 5.7894,0.22097 c 0.9608,0 1.8878,0.0584 2.8284,-0.17678 0.3616,-0.0904 0.7181,-0.20675 1.0607,-0.35355 0.1354,-0.058 0.2194,-0.20421 0.3535,-0.26517 0.1953,-0.0888 0.419,-0.0986 0.6187,-0.17678 1.1756,-0.45998 2.4537,-1.03026 3.5356,-1.67937 0.5364,-0.32187 -0.3416,-0.0545 0.5303,-0.44195 0.1373,-0.061 0.3025,-0.0326 0.442,-0.0884 0.4173,-0.16694 0.8407,-0.5371 1.2374,-0.70711 0.5044,-0.21619 1.2657,-0.53977 1.7678,-0.70711 0.2034,-0.0678 0.4268,-0.0808 0.6187,-0.17677 0.1118,-0.0559 0.1611,-0.19583 0.2651,-0.26517 0.3169,-0.21122 0.7883,-0.22235 1.1491,-0.35355 0.617,-0.22436 1.4057,-0.67005 2.0329,-0.7955 0.2043,-0.0409 0.4166,-0.0379 0.6187,-0.0884 0.7919,-0.19795 1.52,-0.65045 2.2981,-0.88388 0.085,-0.0254 0.1799,0.0233 0.2652,0 0.2429,-0.0662 0.4598,-0.21806 0.7071,-0.26517 0.3774,-0.0719 0.7668,-0.0502 1.1491,-0.0884 0.7713,-0.0771 1.5261,-0.28338 2.2981,-0.35356 0.4694,-0.0427 0.9428,0 1.4142,0 1.1714,0 3.1368,-0.30158 4.2426,0 0.1531,0.0417 0.288,0.1383 0.4419,0.17678 0.2022,0.0505 0.4192,0.0285 0.6188,0.0884 0.1017,0.0305 0.1644,0.14318 0.2651,0.17677 0.17,0.0567 0.3577,0.0404 0.5304,0.0884 0.2769,0.0769 1.7383,0.58308 2.0329,0.70711 0.7507,0.31608 1.4873,0.69948 2.2097,1.06066 0.2007,0.10035 0.4226,0.1562 0.6187,0.26516 0.073,0.0405 0.1023,0.13951 0.1768,0.17678 0.1667,0.0833 0.3607,0.0997 0.5303,0.17678 0.1564,0.0711 0.2834,0.19909 0.442,0.26516 0.198,0.0825 0.4204,0.0951 0.6187,0.17678 0.3655,0.1505 0.6772,0.43446 1.0606,0.53033 0.1739,0.0435 0.3587,0.0369 0.5304,0.0884 0.5871,0.17612 1.2735,0.73924 1.8561,0.97227 0.055,0.0219 0.1241,-0.0263 0.1768,0 0.1318,0.0659 0.2218,0.19928 0.3536,0.26517 0.053,0.0263 0.122,-0.0219 0.1767,0 0.2189,-0.049 0.2218,0.19928 0.3536,0.26516 0.2251,0.11257 0.5181,0.22754 0.7071,0.35355 0.102,0.068 0.1632,0.19718 0.2652,0.26517 0.188,0.12534 0.5325,0.35464 0.7071,0.44194 0.053,0.0264 0.122,-0.0219 0.1767,0 0.1883,0.0753 0.4138,0.35355 0.3575,-0.2913 0.7582,-1.55559 1.3344,-3.12529 2.4887,-3.89484 0.155,-0.10337 0.3682,-0.11824 0.5,-0.25 0.059,-0.0589 -0.074,-0.21274 0,-0.25 0.1491,-0.0745 0.3333,0 0.5,0 0.1667,-0.0833 0.3449,-0.14664 0.5,-0.25 0.3319,-0.22128 0.6267,-0.87558 1,-1 0.1581,-0.0527 0.3383,0.0404 0.5,0 0.6516,-0.16291 2.988,-2.31736 3.5,-3 0.1118,-0.14908 0.1182,-0.36824 0.25,-0.5 0.059,-0.0589 0.2038,0.0693 0.25,0 0.1462,-0.21927 0.1038,-0.53074 0.25,-0.75 0.1961,-0.29418 0.5746,-0.44303 0.75,-0.75 0.1884,-0.32964 0.1543,-1.15428 0.5,-1.5 0.059,-0.0589 0.1911,0.0589 0.25,0 0.1302,-0.13022 1.1562,-1.81237 1.25,-2 0.1367,-0.27346 0.242,-0.742 0.5,-1 0.059,-0.0589 0.1807,0.0462 0.25,0 0.1667,-0.16667 0.3333,-0.33334 0.5,-0.5 0,-0.0833 -0.059,-0.19108 0,-0.25 0.025,-0.0255 1.1494,-0.68295 1.25,-0.75 0.465,-0.31002 1.1852,-0.77776 1.5,-1.25 0.1034,-0.15505 0.1182,-0.36824 0.25,-0.5 0.2573,-0.25736 0.4926,-0.24265 -0.125,-0.625 -0.7083,-0.54167 -0.5169,-0.94927 -0.375,-1.375 0.1828,-0.54839 0.1318,-5.84073 0,-6.5 -0.18,-0.89984 -0.5874,-1.02437 -0.75,-2 -0.1204,-0.72243 0.2008,-1.54716 0,-2.25 -0.065,-0.22664 -0.3946,-0.28919 -0.5,-0.5 -0.4444,-0.88871 -0.01,-1.4063 -0.25,-2.25 -0.1536,-0.53751 -0.6144,-0.95768 -0.75,-1.5 -0.163,-0.6518 -0.038,-1.36263 -0.25,-2 -0.037,-0.11181 -0.2269,-0.13444 -0.25,-0.25 -0.065,-0.32686 0.1054,-0.68378 0,-1 -0.074,-0.22361 -0.3946,-0.28919 -0.5,-0.5 -0.2073,-0.41459 0.1095,-1.31201 0,-1.75 -0.029,-0.11434 -0.2127,-0.1382 -0.25,-0.25 -0.053,-0.15812 0.04,-0.33831 0,-0.5 -0.171,-0.68389 -0.3515,-0.40231 -0.75,-1 -0.1854,-0.27802 -0.1177,-0.91926 -0.25,-1.25 -0.1384,-0.34603 -0.3333,-0.66667 -0.5,-1 -0.2759,-0.55187 -0.6641,-0.99611 -1,-1.5 -0.3121,-0.46819 -0.1879,-0.78182 -0.5,-1.25 -0.2035,-0.30521 -0.7076,-1.10378 -1,-1.25 -0.074,-0.0373 -0.1911,0.0589 -0.25,0 -0.3418,-0.34184 -0.5165,-1.26645 -0.75,-1.5 -0.1001,-0.10007 -0.3177,-0.1354 -0.5,-0.5 -0.1314,-0.26288 0,-0.94972 0.125,-1.125 0.125,-0.0417 0.2428,-0.25715 0.125,-0.375 -0.275,-0.27495 -1.9535,0.0494 -2.25,0 -3.8402,-0.64004 -9.2621,0.54518 -12.5,-0.75 -0.6702,-0.26808 -1.3387,-0.16933 -2,-0.5 -0.7642,-0.38211 -1.5906,-1.63588 -2,-2.25 -0.7126,-1.06886 -0.2471,0.002 -1.25,-0.75 -0.1491,-0.11181 -0.1182,-0.36824 -0.25,-0.5 -0.1179,-0.11786 -0.3822,0.11785 -0.5,0 -0.2125,-0.21246 -0.2876,-0.53754 -0.5,-0.75 -0.1179,-0.11786 -0.3509,0.0745 -0.5,0 -0.2002,-0.10012 -0.8228,-0.4646 -1,-0.5 -0.4852,-0.0971 -9.593,-0.0785 -9.75,0 -0.4577,0.2288 -0.581,0.11031 -1,0.25 -0.1768,0.0589 -0.3333,0.1667 -0.5,0.25 0,0.0833 0.079,0.2236 0,0.25 -0.3053,0.10176 -0.987,-0.013 -1.25,0.25 -0.059,0.0589 0.059,0.1911 0,0.25 -0.1918,0.1918 -1.0216,0.40731 -1.25,0.75 -0.092,0.13867 0.074,0.35092 0,0.5 -0.01,0.0155 -1.1331,0.422 -1.25,0.5 -0.3699,0.2466 -0.845,0.865 -1.25,1 -0.1581,0.0527 -0.3419,-0.0527 -0.5,0 -0.1118,0.0373 -0.1446,0.1973 -0.25,0.25 -0.2357,0.11785 -0.5,0.1667 -0.75,0.25 -0.083,0 -0.176,-0.0373 -0.25,0 -1.2479,0.62396 -2.2969,1.14845 -3.5,1.75 -1.6438,0.82191 0.1365,-0.21757 -1.5,0.25 -0.4672,0.13349 -0.7786,0.63214 -1.25,0.75 -0.3922,0.098 -0.8579,-0.098 -1.25,0 -0.4025,0.10062 -1.1643,0.33216 -1.5,0.5 -0.1054,0.0527 -0.1357,0.2214 -0.25,0.25 -1.5551,0.38877 -3.2308,0.16104 -4.75,0.75 -0.6908,0.17268 -1.3333,0.5 -2.0625,-0.125 -0.062,-0.36728 0.06,0.25977 -0.062,0.75 -0.045,0.18077 -0.205,0.31922 -0.25,0.5 -0.098,0.39216 0.098,0.85784 0,1.25 -0.151,0.60362 -0.059,-0.006 -0.25,0.375 -0.1233,0.24657 0.037,1.73576 0.125,2 0.047,0.14252 0.325,0.14876 0.25,0.375 0.02,0.0808 -0.026,0.1709 0,0.25 0.037,0.1118 0.185,0.1519 0.25,0.25 0.3624,0.5437 0.3272,0.34315 0.75,0.625 0.654,0.436 -0.2858,0.11157 0.75,0.5 0.1609,0.0603 0.3463,0.0482 0.5,0.125 0.055,0.0273 0.99,0.867 1,0.875 0.03,0.0295 -0.026,0.0925 0,0.125 0.4755,0.59437 1.2547,1.264 1.5,2 0.165,0.49631 0.2745,1.72682 0.125,2.25 -0.032,0.11332 -0.179,0.1557 -0.25,0.25 -0.3363,0.4484 -0.324,0.81796 -1.0397,1.77969 1.3176,2.05464 2.1747,3.73012 2.435,5.55266 z"
         id="path44" />
    </g>
  </g>
</svg>
