<?xml version="1.0" encoding="UTF-8" standalone="no"?>
<!-- Created with Inkscape (http://www.inkscape.org/) -->

<svg
   version="1.1"
   id="svg2"
   width="83.650208"
   height="98.867729"
   viewBox="0 0 83.650208 98.867729"
   xmlns="http://www.w3.org/2000/svg"
   xmlns:svg="http://www.w3.org/2000/svg">
  <defs
     id="defs6">
    <linearGradient
       id="swatch77">
      <stop
         style="stop-color:#e2c69e;stop-opacity:1;"
         offset="0"
         id="stop77" />
    </linearGradient>
  </defs>
  <g
     id="layer66"
     style="display:inline"
     transform="translate(-1055.9451,-572.72721)">
    <g
       id="layer58"
       style="display:inline">
      <path
         style="display:inline;fill:#969696;fill-opacity:1;stroke:none;stroke-opacity:1"
         d="m 1070.5625,612 c -0.178,-0.35596 -0.314,-0.74304 -0.5625,-1.0625 -0.072,-0.093 -0.1667,-0.16667 -0.25,-0.25 -0.125,-0.14583 -0.2598,-0.28384 -0.375,-0.4375 -0.3181,-0.4241 -0.7289,-1.081 -1.125,-1.4375 -0.1117,-0.1005 -0.25,-0.16667 -0.375,-0.25 -0.3991,-0.26605 -0.7664,-0.58283 -1.1875,-0.8125 -1.3063,-0.71251 -2.5978,-0.69574 -4,-0.9375 -0.4682,-0.0807 -0.9098,-0.27875 -1.375,-0.375 -0.3723,-0.077 -0.7478,-0.14035 -1.125,-0.1875 -0.3688,-0.0461 -0.7588,-10e-4 -1.125,-0.0625 -0.1565,-0.0261 -0.2836,-0.14902 -0.4375,-0.1875 -0.2893,-0.0723 -0.8029,-0.0212 -1.0625,-0.125 -0.07,-0.0279 -0.1203,-0.0914 -0.1875,-0.125 -0.095,-0.0475 -0.2117,-0.0289 -0.3125,-0.0625 -0.2497,-0.0832 -0.8336,-0.27113 -1,-0.4375 -0.015,-0.0147 0.015,-0.0478 0,-0.0625 -0.015,-0.0147 -0.056,0.0198 -0.062,0 -0.056,-0.16667 0.018,-0.13889 0,-0.25 -0.177,-1.06218 0.092,-1.7702 0.5,-2.75 0.025,-0.0608 0.029,-0.13101 0.062,-0.1875 0.092,-0.15368 0.2267,-0.28017 0.3125,-0.4375 0.041,-0.0754 0.041,-0.16688 0.062,-0.25 0.1033,-0.39606 0.2001,-0.79394 0.3125,-1.1875 0.3108,-1.08764 0.6154,-2.26934 1.0625,-3.3125 0.099,-0.23138 0.219,-0.45378 0.3125,-0.6875 0.2108,-0.52693 0.3502,-1.09432 0.5625,-1.625 0.1738,-0.43459 0.1918,-0.38997 0.3125,-0.8125 0.017,-0.0601 -0.015,-0.12687 0,-0.1875 0.037,-0.14728 0.1446,-0.30884 0.1875,-0.4375 0.034,-0.10078 0.025,-0.21304 0.062,-0.3125 0.1111,-0.29621 0.1632,-0.0885 0.3125,-0.3125 0.048,-0.0715 0.035,-0.16851 0.062,-0.25 0.056,-0.16887 0.1526,-0.32546 0.1875,-0.5 0.052,-0.26042 -0.035,-0.10417 0,-0.3125 0.038,-0.22976 0.065,-0.46244 0.125,-0.6875 0.1157,-0.43396 0.1875,-0.37795 0.157,-0.25 0.094,0.4583 0.2183,0.4885 0.3445,0.5 0.653,0.0594 1.3464,0 2,0 0.9726,0 1.9676,0.0647 2.9375,0 0.147,-0.01 0.2906,-0.052 0.4375,-0.0625 0.8451,-0.0604 1.7153,0 2.5625,0 h 4.5625 1.8125 c 0.2205,0 0.4712,-0.0309 0.6875,0 0.3175,0.0454 1.5922,0.9206 1.6875,1 0.091,0.0755 0.1613,0.17239 0.25,0.25 0.3918,0.34284 0.097,0.054 0.5625,0.3125 0.3627,0.2015 0.6816,0.51435 1.0625,0.6875 0.2295,0.10432 1.2047,0.10906 1.4375,0.0625 0.1761,-0.0352 0.2987,-0.0834 0.4375,-0.1875 0.047,-0.0354 0.069,-0.10637 0.125,-0.125 0.1398,-0.0466 0.2956,-0.0231 0.4375,-0.0625 0.3763,0.15174 0.5372,-0.22074 0.8125,-0.3125 0.8676,-0.2892 0.03,0.008 0.8125,-0.1875 0.3018,-0.0755 0,-0.0297 0.1875,-0.125 0.077,-0.0383 0.3007,0.009 0.375,0 0.2926,-0.0344 0.5844,-0.0766 0.875,-0.125 0.3643,-0.0607 0.769,-0.0858 1.125,-0.1875 0.3239,-0.0925 0.6175,-0.26834 0.9375,-0.375 0.04,-0.0132 0.084,0.008 0.125,0 0.095,-0.019 0.465,-0.17251 0.5,-0.1875 0.2828,-0.12119 0.4593,-0.30442 0.6875,-0.5 0.245,-0.20998 0.5372,-0.28458 0.8125,-0.4375 0.197,-0.10944 0.3609,-0.27422 0.5625,-0.375 0.1178,-0.0589 0.255,-0.0705 0.375,-0.125 0.882,-0.40091 -0.1009,-0.0121 0.5,-0.3125 0.2046,-0.10232 0.4743,-0.22113 0.6875,-0.3125 0.1394,-0.0598 0.2989,-0.0634 0.4375,-0.125 0.28,-0.12443 0.4945,-0.34034 0.75,-0.5 0.2181,-0.13631 0.4597,-0.1986 0.6875,-0.3125 0.2539,-0.12695 0.5054,-0.3666 0.75,-0.5 0.075,-0.0411 0.1772,-0.017 0.25,-0.0625 0.1,-0.0625 0.1595,-0.17455 0.25,-0.25 0.1953,-0.16273 0.7397,-0.57962 0.9375,-0.6875 0.099,-0.0537 0.2144,-0.0705 0.3125,-0.125 0.091,-0.0506 0.1607,-0.13391 0.25,-0.1875 0.2619,-0.15716 0.5531,-0.27537 0.8125,-0.4375 0.1911,-0.11943 0.3865,-0.23423 0.5625,-0.375 0.115,-0.092 0.1926,-0.22688 0.3125,-0.3125 0.1745,-0.12467 0.384,-0.19352 0.5625,-0.3125 0.3224,-0.21496 0.6151,-0.47254 0.9375,-0.6875 0.6665,-0.44432 -0.5081,0.55176 0.5,-0.1875 0.3016,-0.2212 0.6072,-0.59232 0.9375,-0.8125 0.8556,-0.57037 0.021,0.0946 0.875,-0.5625 0.3491,-0.26856 0.7191,-0.53779 1.0625,-0.8125 0.069,-0.0552 0.1156,-0.13613 0.1875,-0.1875 0.134,-0.0957 0.3618,-0.18092 0.5,-0.25 0.093,-0.0466 0.1498,-0.15888 0.25,-0.1875 0.2142,-0.0612 0.4758,-0.0645 0.6875,-0.125 0.2576,-0.0736 0.6324,-0.20851 0.875,-0.3125 0.2425,-0.10392 0.6455,-0.3279 0.875,-0.5 0.071,-0.053 0.1125,-0.14066 0.1875,-0.1875 0.095,-0.0595 0.2203,-0.0611 0.3125,-0.125 0.4593,-0.31796 0.8462,-0.75163 1.3125,-1.0625 0.8424,-0.56161 1.7307,-0.98447 2.6875,-1.3125 0.7042,-0.24145 1.4378,-0.40116 2.125,-0.6875 0.301,-0.12542 0.5722,-0.31639 0.875,-0.4375 0.08,-0.0319 0.1796,-0.0132 0.25,-0.0625 0.1448,-0.10138 0.2392,-0.26183 0.375,-0.375 0.2467,-0.20555 0.5443,-0.32933 0.8125,-0.5 0.2648,-0.1685 0.5168,-0.4418 0.75,-0.625 0.2878,-0.22612 1.1529,-0.61834 1.3125,-0.9375 0.048,-0.0968 0.1218,-0.27639 0.1875,-0.375 0.026,-0.0388 0.099,-0.0237 0.125,-0.0625 0.09,-0.13497 0.1875,-0.33887 0.125,-0.84375 -5e-4,-0.21875 0.045,-0.0832 0.125,0.0312 0.1183,0.16896 0.2917,0.29167 0.4375,0.4375 0.6362,0.63618 1.3532,1.19827 1.875,1.9375 0.097,0.13722 0.1588,0.29648 0.25,0.4375 0.1381,0.2135 0.3113,0.4042 0.4375,0.625 0.1249,0.21856 0.1625,0.48533 0.3125,0.6875 0.032,0.0435 1.0533,1.30593 1.5,1.625 1.1184,0.79886 -0.5975,-0.54787 0.625,0.5 0.375,0.32143 -0.25,-0.39286 0.375,0.1875 1.1247,1.04441 0.2598,0.3106 0.875,1.0625 0.2961,0.36196 0.6524,0.69181 0.9375,1.0625 0.1374,0.17861 0.2291,0.3908 0.375,0.5625 0.2099,0.24694 0.4722,0.44527 0.6875,0.6875 1.0611,1.19375 -0.7634,-0.53836 0.9375,1.0625 0.1399,0.13164 0.2859,0.25708 0.4375,0.375 0.037,0.0286 0.092,0.0296 0.125,0.0625 0.3367,0.33675 0.475,0.64994 0.75,1.0625 0.016,0.0245 0.042,0.0417 0.062,0.0625 0.062,0.0833 0.1323,0.16167 0.1875,0.25 0.1657,0.26508 0.1018,0.26616 0.25,0.5625 0.1864,0.37275 0.4099,0.65566 0.5625,1.0625 0.053,0.14201 0.048,0.30677 0.125,0.4375 0.1353,0.22996 0.3676,0.39335 0.5,0.625 0.041,0.0724 -0.024,0.17018 0,0.25 0.04,0.13386 0.1337,0.24599 0.1875,0.375 0.076,0.18244 0.1072,0.38189 0.1875,0.5625 0.057,0.12771 0.1433,0.24242 0.1875,0.375 0.04,0.12022 0.026,0.25362 0.062,0.375 0.1525,0.50847 0.5989,1.02863 0.8125,1.5625 0.2633,0.65828 0.4804,1.34524 0.75,2 0.046,0.11233 0.1361,0.20242 0.1875,0.3125 0.1145,0.24542 0.2004,0.50344 0.3125,0.75 0.085,0.18679 0.1851,0.36784 0.25,0.5625 0.02,0.0593 -0.028,0.1316 0,0.1875 0.3905,0.78108 0.1328,-0.0833 0.375,0.5625 0.3283,0.87553 0.6651,1.40385 1.1875,2.1875 0.052,0.0775 0.067,0.17725 0.125,0.25 0.029,0.0364 0.099,0.0237 0.125,0.0625 0.2056,0.30836 0.1597,0.53469 0.688,0.5 0.5453,0.0512 0.6385,0.55214 0.7505,1 0.01,0.0404 0,0.0833 0,0.125 0.021,0.125 0.022,0.25478 0.062,0.375 0.059,0.17678 0.2194,0.3162 0.25,0.5 0.014,0.0822 -0.02,0.16915 0,0.25 0.054,0.21768 0.191,0.40852 0.25,0.625 0.073,0.2677 0.1202,0.54324 0.1875,0.8125 0.071,0.28307 0.1375,0.25927 0.25,0.625 0.037,0.12112 0.032,0.25206 0.062,0.375 0.057,0.22692 0.1696,0.46651 0.25,0.6875 0.1989,0.54704 0.3586,1.12204 0.5,1.6875 0.053,0.21101 0.1517,0.41045 0.1875,0.625 0.058,0.34621 0.048,0.71426 0.125,1.0625 0.01,0.0288 0.054,0.0342 0.062,0.0625 0.104,0.36406 0.053,0.76297 0.125,1.125 0.03,0.14872 0.098,0.28828 0.125,0.4375 0.015,0.082 -0.01,0.16731 0,0.25 0.061,0.48466 0.1277,0.95935 0.1875,1.4375 0.056,0.45143 0.1578,0.77271 0.25,1.1875 0.1136,0.51137 0.1227,1.0443 0.1875,1.5625 0.047,0.37248 0,1.20384 0,1.4375 0,0.44353 0.021,0.33846 0.062,0.75 0.045,0.45379 -0.045,0.9212 0,1.375 0.011,0.1057 0.052,0.2068 0.062,0.3125 0.025,0.24876 -0.021,0.50086 0,0.75 0.047,0.56974 0.1875,1.11211 0.1557,1.28125 -0.127,-0.40625 -0.3237,-0.44785 -0.4067,-0.40625 -0.4252,0.21262 -0.5196,0.52283 -0.875,0.9375 -0.077,0.0895 -0.1489,0.1894 -0.25,0.25 -0.25,0.1485 0,-0.18469 -0.25,0.0625 -0.032,0.0329 -0.023,0.0992 -0.062,0.125 -0.035,0.0231 -0.085,-0.0132 -0.125,0 -0.1013,0.0338 -0.2119,0.1997 -0.3125,0.25 -0.051,0.0254 -0.2615,0.0371 -0.3125,0.0625 -0.093,0.0466 -0.161,0.1339 -0.25,0.1875 -0.091,0.0545 -0.2175,0.015 -0.3125,0.0625 -0.019,0.009 0.015,0.0478 0,0.0625 -0.066,0.0659 -0.184,0.0591 -0.25,0.125 -0.078,0.0776 -0.2735,0.32061 -0.3125,0.4375 -0.027,0.0815 0.093,0.191 -0.062,0.25 -0.013,0.0263 -0.052,0.0345 -0.062,0.0625 -0.013,0.0395 0.013,0.0855 0,0.125 -0.01,0.028 -0.062,0.0334 -0.062,0.0625 -0.024,0.14385 0.029,0.2945 0,0.4375 -0.022,0.10971 -0.1675,0.4401 -0.1875,0.5 -0.027,0.0815 -0.041,0.1667 -0.062,0.25 0,0.0417 0.013,0.0855 0,0.125 -0.03,0.0884 -0.092,0.1628 -0.125,0.25 -0.095,0.25298 -0.032,0.57988 -0.125,0.8125 -0.028,0.0697 -0.083,0.125 -0.125,0.1875 -0.02,0.0208 -0.051,0.0353 -0.062,0.0625 -0.6919,1.66062 -0.045,0.13657 -0.3125,0.9375 -0.035,0.10652 -0.1775,0.287 -0.1875,0.375 -0.014,0.14645 0.039,0.29167 0.059,0.4375 0,0.58864 -0.1045,1.16543 -0.1875,1.75 -0.026,0.18311 0.03,0.38009 0,0.5625 -0.023,0.1359 -0.1265,0.37736 -0.1875,0.5 -0.079,0.1588 -0.075,-0.064 -0.125,0.1875 -0.023,0.11563 0.029,0.25929 0,0.375 -0.046,0.18188 -0.1435,0.17907 -0.1875,0.3125 -0.087,0.26234 -0.027,0.59496 -0.062,0.875 -0.053,0.42028 -0.203,0.82915 -0.25,1.25 -0.035,0.31282 -0.081,0.62932 -0.125,0.9375 -0.034,0.24136 0,0.51245 -0.062,0.75 -0.062,0.24692 -0.1255,0.50308 -0.1875,0.75 -0.043,0.17268 -0.2695,0.27926 -0.1875,0.5 -0.021,0.1233 0.015,0.25096 0,0.375 -0.01,0.0462 -0.05,0.0801 -0.062,0.125 -0.1747,0.64061 -0.2906,1.2469 -0.5,1.875 -0.04,0.11858 0.018,0.25125 0,0.375 -0.023,0.15718 -0.1475,0.33994 -0.1875,0.5 -0.02,0.0808 0.012,0.1675 0,0.25 -0.059,0.4126 -0.053,0.0949 -0.1875,0.5 -0.08,0.24267 0.017,0.57671 -0.062,0.8125 -0.03,0.0884 -0.095,0.1616 -0.125,0.25 -0.081,0.24583 -0.03,0.55747 -0.062,0.8125 -0.01,0.0654 -0.052,0.1223 -0.062,0.1875 -0.053,0.37286 0,0.81229 0,1.1875 0,0.48529 -0.077,1.09931 0,1.5625 0.012,0.0741 0.097,0.1178 0.125,0.1875 0.047,0.11659 -0.016,0.3897 0,0.5 0.019,0.13642 0.105,0.30108 0.125,0.4375 0.01,0.0619 -0.012,0.1262 0,0.1875 0.018,0.0905 0.107,0.222 0.125,0.3125 0.089,0.44717 0,0.93231 0.125,1.375 0.01,0.0283 0.052,0.0345 0.062,0.0625 0.082,0.24447 0.1365,0.49731 0.1875,0.75 0.102,0.5144 -0.1876,-0.24887 0.062,0.5 0.03,0.0884 0.099,0.1604 0.125,0.25 0.076,0.26726 0.1335,0.53994 0.1875,0.8125 0.07,0.35195 0.1165,0.71016 0.1875,1.0625 0.041,0.20531 -0.3746,0.45696 0.062,0.625 0.021,0.0908 0.108,0.1583 0.125,0.25 0.078,0.43302 -0.01,0.94569 0.062,1.375 0.015,0.0919 0.09,0.1635 0.125,0.25 0.147,0.3688 -0.012,-0.008 0.062,0.4375 0.034,0.20287 0.276,0.45995 0.375,0.625 0.067,0.1123 0.1025,0.31047 0.1875,0.4375 0.049,0.074 0.1605,0.1689 0.1875,0.25 0.036,0.10852 -0.023,0.26257 0,0.375 0.012,0.0646 0.026,0.1327 0.062,0.1875 0.011,0.0173 0.062,-0.0207 0.062,0 0.046,0.41621 0.02,0.83387 0.062,1.25 0.036,0.35736 0.1615,0.7043 0.1875,1.0625 0.032,0.44316 0,1.1749 0,1.5625 v 2.25 7.75 c 0,0.37674 0.1168,1.03738 -0.25,1.3125 -0.033,0.025 -0.085,-0.0132 -0.125,0 -0.056,0.0186 -0.072,0.0987 -0.125,0.125 -0.059,0.0295 -0.1285,0.033 -0.1875,0.0625 -0.083,0.0417 -0.184,0.0591 -0.25,0.125 -0.032,0.0329 -0.029,0.0921 -0.062,0.125 -0.03,0.0295 -0.095,-0.0295 -0.125,0 -0.015,0.0147 0.015,0.0478 0,0.0625 -0.03,0.0295 -0.085,-0.0132 -0.125,0 -0.1994,0.0665 -0.3956,0.007 -0.5625,0.0625 -0.1064,0.0355 -0.2046,0.0942 -0.3125,0.125 -0.2558,0.0731 -0.9557,0 -1.25,0 -0.6748,0 -1.3942,0.051 -2,-0.3125 -0.09,-0.0536 -0.094,-0.2034 -0.1875,-0.25 -0.1414,-0.0707 -0.1702,-0.0926 -0.3125,-0.1875 -0.017,-0.0116 -0.047,0.0147 -0.062,0 -0.042,-0.0424 -0.1273,-0.3137 -0.25,-0.375 -0.2033,-0.1016 -0.1487,-0.0158 -0.3125,-0.125 -0.3084,-0.20562 -0.5392,-0.50407 -0.8125,-0.75 -0.628,-0.56519 0.1288,0.16556 -0.3125,-0.1875 -0.1372,-0.10978 -0.2707,-0.3273 -0.4375,-0.375 -0.646,-0.1846 -0.1257,0.0415 -0.625,-0.125 -0.1947,-0.0649 -0.3634,-0.2002 -0.5625,-0.25 -0.081,-0.0202 -0.169,0.0202 -0.25,0 -0.09,-0.0226 -0.164,-0.0904 -0.25,-0.125 -0.3316,-0.13265 -0.6655,-0.24955 -1,-0.375 -0.421,-0.15787 -0.717,-0.3591 -1.1875,-0.4375 -0.3518,-0.0586 -0.7341,0.20545 -1.0625,-0.125 -2.2338,-0.40614 0.678,0.10899 -0.9375,-0.25 -0.1975,-0.0439 -0.4257,0.0332 -0.625,0 -0.2929,-0.0488 -0.5817,-0.0717 -0.875,-0.125 -0.2585,-0.047 -0.5098,-0.1539 -0.75,-0.25 -0.07,-0.0279 -0.1175,-0.0971 -0.1875,-0.125 -0.1929,-0.0772 -0.3173,-0.0961 -0.5,-0.1875 -0.079,-0.0395 -0.1255,-0.125 -0.1875,-0.1875 -0.1,-0.1 -0.285,-0.25483 -0.375,-0.375 -0.1287,-0.1716 -0.1895,-0.38678 -0.3125,-0.5625 -0.1475,-0.21074 -0.3904,-0.48103 -0.5625,-0.6875 -0.057,-0.0679 -0.1425,-0.1117 -0.1875,-0.1875 -0.021,-0.0357 0.023,-0.0903 0,-0.125 -0.065,-0.0981 -0.179,-0.1557 -0.25,-0.25 -0.056,-0.0745 -0.072,-0.1737 -0.125,-0.25 -0.153,-0.21857 -0.3949,-0.37978 -0.5,-0.625 -0.025,-0.0575 0.023,-0.1295 0,-0.1875 -0.022,-0.0547 -0.092,-0.076 -0.125,-0.125 -0.098,-0.14644 -0.2665,-0.614 -0.3125,-0.6875 -0.01,-0.0177 -0.047,0.0147 -0.062,0 -0.1536,-0.15358 -0.3109,-0.44207 -0.4375,-0.625 -0.1283,-0.18528 -0.25,-0.375 -0.375,-0.5625 -0.02,-0.0625 -0.027,-0.1316 -0.062,-0.1875 -0.071,-0.11312 -0.194,-0.19162 -0.25,-0.3125 -0.1839,-0.39405 -0.2187,-0.74201 -0.4375,-1.125 -0.2622,-0.45892 -0.5965,-0.8891 -0.8125,-1.375 -0.017,-0.0381 0.013,-0.0855 0,-0.125 -0.01,-0.028 -0.049,-0.0362 -0.062,-0.0625 -0.097,-0.19336 -0.1296,-0.38184 -0.25,-0.5625 -0.081,-0.12206 -0.2681,-0.39309 -0.375,-0.5 -0.033,-0.0329 -0.092,-0.0296 -0.125,-0.0625 -0.032,-0.0329 -0.034,-0.0877 -0.062,-0.125 -0.098,-0.13017 -0.1974,-0.25995 -0.3125,-0.375 -0.014,-0.0147 -0.047,0.0147 -0.062,0 -0.053,-0.0531 -0.072,-0.1344 -0.125,-0.1875 -0.089,-0.0891 -0.2145,-0.0518 -0.3125,-0.125 -0.037,-0.028 -0.022,-0.101 -0.062,-0.125 -0.074,-0.0442 -0.173,-0.0241 -0.25,-0.0625 -0.019,-0.009 0.019,-0.0535 0,-0.0625 -0.3196,-0.1598 -0.6677,-0.1946 -1,-0.25 -0.1703,-0.0284 -0.2405,-0.1203 -0.375,-0.1875 -0.037,-0.0186 -0.095,0.0295 -0.125,0 -0.032,-0.0329 -0.029,-0.0921 -0.062,-0.125 -0.047,-0.0466 -0.1405,-0.0159 -0.1875,-0.0625 -0.032,-0.0329 -0.029,-0.0921 -0.062,-0.125 -0.033,-0.0329 -0.092,-0.0296 -0.125,-0.0625 -0.14,-0.14003 -0.3809,-0.656 -0.5045,-0.6875 0,-0.1199 -0.043,-0.035 -0.125,-0.0625 -0.1591,-0.053 -0.2974,-0.1799 -0.4375,-0.25 -0.5713,-0.2857 -0.046,0.0417 -0.6875,-0.25 -0.2293,-0.10422 -0.4737,-0.3187 -0.6875,-0.4375 -0.058,-0.032 -0.1315,-0.0286 -0.1875,-0.0625 -0.1533,-0.092 -0.1348,-0.1431 -0.3125,-0.1875 -0.1011,-0.0253 -0.2114,0.0253 -0.3125,0 -0.083,-0.0208 -0.697,-0.3286 -0.75,-0.375 -0.1004,-0.0878 -0.163,-0.21122 -0.25,-0.3125 -0.2629,-0.30674 -0.6275,-0.56756 -0.8125,-0.9375 -0.019,-0.0373 0.013,-0.0855 0,-0.125 -0.033,-0.0988 -0.1485,-0.1533 -0.1875,-0.25 -0.039,-0.0967 0.025,-0.21144 0,-0.3125 0,-0.0152 -0.344,-0.4749 -0.375,-0.5 -0.073,-0.0582 -0.179,-0.0644 -0.25,-0.125 -0.2275,-0.19498 -0.3759,-0.50068 -0.625,-0.6875 -0.5569,-0.41771 -0.3359,-0.2227 -0.875,-0.3125 -0.1665,-0.0278 -0.1525,-0.0895 -0.1875,-0.125 -0.03,-0.0295 -0.088,0.0186 -0.125,0 -0.2006,-0.1003 -0.4971,-0.41334 -0.625,-0.5625 -0.2603,-0.30365 -0.3745,-0.71342 -0.5625,-1.0625 -0.2098,-0.38959 -0.4691,-0.74278 -0.6875,-1.125 -0.096,-0.16754 -0.083,-0.37374 -0.125,-0.5 -0.026,-0.0767 -0.22,-0.252 -0.25,-0.3125 -0.029,-0.0589 0.076,-0.156 -0.062,-0.1875 -0.1042,-0.13889 -0.2083,-0.15625 -0.3125,-0.3125 -0.036,-0.0548 -0.015,-0.1409 -0.062,-0.1875 -0.047,-0.0466 -0.1405,-0.0159 -0.1875,-0.0625 -0.046,-0.0466 -0.032,-0.1286 -0.062,-0.1875 -0.1082,-0.21636 -0.3608,-0.36759 -0.5,-0.5625 -0.054,-0.0758 -0.076,-0.171 -0.125,-0.25 -0.055,-0.0883 -0.1405,-0.1568 -0.1875,-0.25 -0.019,-0.0373 0.023,-0.0903 0,-0.125 -0.065,-0.0981 -0.172,-0.1613 -0.25,-0.25 -0.2178,-0.24888 -0.3396,-0.51458 -0.5,-0.8125 -0.1629,-0.30248 -0.2488,-0.62205 -0.375,-0.9375 -0.028,-0.0697 -0.101,-0.1162 -0.125,-0.1875 -0.013,-0.0395 0.013,-0.0855 0,-0.125 -0.019,-0.0559 -0.103,-0.0703 -0.125,-0.125 -0.031,-0.0798 -0.024,-0.1732 -0.062,-0.25 -0.01,-0.0186 -0.049,0.0167 -0.062,0 -0.121,-0.16138 -0.2087,-0.42944 -0.375,-0.5625 -0.051,-0.0412 -0.1455,-0.0119 -0.1875,-0.0625 -0.072,-0.0862 -0.083,-0.20833 -0.125,-0.3125 -0.1042,-0.10417 -0.2083,-0.20833 -0.3125,-0.3125 -0.098,-0.11407 -0.154,-0.25959 -0.25,-0.375 -0.3095,-0.3714 -0.7612,-0.76968 -1,-1.1875 -0.032,-0.0572 -0.022,-0.1348 -0.062,-0.1875 -0.066,-0.0877 -0.2325,-0.14746 -0.3125,-0.25 -0.3759,-0.48332 -0.5739,-0.6705 -1,-1.125 -0.2899,-0.30918 -0.5732,-0.69821 -0.875,-1 -0.033,-0.0329 -0.095,-0.0267 -0.125,-0.0625 -0.078,-0.0933 -0.1125,-0.2166 -0.1875,-0.3125 -0.2329,-0.29939 -0.5149,-0.57278 -0.75,-0.875 -0.075,-0.0959 -0.1115,-0.2176 -0.1875,-0.3125 -0.2721,-0.3402 -0.1039,-0.0414 -0.4375,-0.375 -0.053,-0.0531 -0.075,-0.131 -0.125,-0.1875 -0.097,-0.11087 -0.2265,-0.19263 -0.3125,-0.3125 -0.024,-0.0339 0.024,-0.0909 0,-0.125 -0.127,-0.18143 -0.2917,-0.33333 -0.4375,-0.5 -0.042,-0.0208 -0.094,-0.0274 -0.125,-0.0625 -0.2289,-0.26162 -0.5517,-0.78984 -0.75,-1.0625 -0.4067,-0.55918 -0.7429,-1.17691 -1.125,-1.75 -0.077,-0.11628 -0.1065,-0.26128 -0.1875,-0.375 -0.1458,-0.20414 -0.3709,-0.34739 -0.5,-0.5625 -0.021,-0.0357 0.023,-0.0903 0,-0.125 -0.065,-0.0981 -0.179,-0.1557 -0.25,-0.25 -0.056,-0.0745 -0.071,-0.1742 -0.125,-0.25 -0.051,-0.0719 -0.1325,-0.1185 -0.1875,-0.1875 -0.1049,-0.13116 -0.152,-0.30082 -0.25,-0.4375 -0.1663,-0.23276 -0.4764,-0.62483 -0.6875,-0.8125 -0.091,-0.0807 -0.2315,-0.0972 -0.3125,-0.1875 -0.1124,-0.12485 -0.1492,-0.30313 -0.25,-0.4375 -0.028,-0.0373 -0.092,-0.0296 -0.125,-0.0625 -0.2667,-0.26674 -0.4515,-0.58661 -0.6875,-0.875 -0.093,-0.11402 -0.2175,-0.20004 -0.3125,-0.3125 -0.1346,-0.15904 -0.25,-0.33333 -0.375,-0.5 0,-0.0625 0.028,-0.1316 0,-0.1875 -0.039,-0.0791 -0.1325,-0.1185 -0.1875,-0.1875 -0.087,-0.10913 -0.1065,-0.26128 -0.1875,-0.375 -0.051,-0.0719 -0.1255,-0.125 -0.1875,-0.1875 -0.042,-0.0208 -0.095,-0.0267 -0.125,-0.0625 -0.078,-0.0933 -0.1205,-0.21143 -0.1875,-0.3125 -0.1228,-0.18427 -0.5355,-0.13172 -0.4375,-0.5 -0.032,-0.0536 0.035,-0.1355 0,-0.1875 -0.058,-0.0867 -0.183,-0.1075 -0.25,-0.1875 -0.042,-0.0506 -0.027,-0.1316 -0.062,-0.1875 -0.071,-0.11312 -0.176,-0.20151 -0.25,-0.3125 -0.052,-0.0775 -0.065,-0.1784 -0.125,-0.25 -0.048,-0.0577 -0.1405,-0.0664 -0.1875,-0.125 -0.041,-0.0515 -0.027,-0.1316 -0.062,-0.1875 -0.086,-0.13798 -0.2395,-0.22947 -0.3125,-0.375 -0.1788,-0.35758 0.1309,-0.0698 -0.3125,-0.5625 -0.089,-0.0992 -0.2185,-0.1557 -0.3125,-0.25 -0.086,-0.0859 -0.1015,-0.2266 -0.1875,-0.3125 -0.094,-0.0943 -0.2121,-0.1622 -0.3125,-0.25 -0.3077,-0.26921 -0.5588,-0.62032 -0.8125,-0.9375 -0.065,-0.0813 -0.1405,-0.1568 -0.1875,-0.25 -0.019,-0.0373 0,-0.0833 0,-0.125 -0.042,-0.0625 -0.083,-0.125 -0.125,-0.1875 -0.1931,-0.24136 -0.4323,-0.44658 -0.625,-0.6875 -0.1214,-0.15178 -0.1937,-0.35148 -0.3125,-0.5 -0.163,-0.20372 -0.3845,-0.32204 -0.5625,-0.5 -0.017,-0.0175 0.064,-0.34173 -0.125,-0.1875 -0.017,-0.0116 -0.049,0.0167 -0.062,0 -0.056,-0.0745 -0.064,-0.1799 -0.125,-0.25 -0.1303,-0.14895 -1.118,-0.9352 -1.3125,-1 -0.04,-0.0132 -0.085,0.0132 -0.125,0 -0.056,-0.0186 -0.069,-0.1064 -0.125,-0.125 -0.3533,-0.1178 0.073,0.19457 -0.5,-0.1875 -0.8036,-0.53576 -1.6934,-1.0068 -2.625,-0.875 0.2087,-0.44082 -0.092,-0.68324 -0.3125,-1.125 z"
         id="path55" />
    </g>
  </g>
</svg>
