<?xml version="1.0" encoding="UTF-8" standalone="no"?>
<!-- Created with Inkscape (http://www.inkscape.org/) -->

<svg
   version="1.1"
   id="svg1"
   width="85.3125"
   height="99.812492"
   viewBox="0 0 85.3125 99.812492"
   xmlns="http://www.w3.org/2000/svg"
   xmlns:svg="http://www.w3.org/2000/svg">
  <defs
     id="defs1" />
  <g
     id="layer1"
     style="display:inline"
     transform="translate(-1054.8125,-571.93749)">
    <g
       id="layer70"
       style="display:inline;fill:#ffffff;fill-opacity:1;stroke:none">
      <path
         style="fill:#ffffff;fill-opacity:1;stroke:none;stroke-linecap:round"
         d="m 1060.4062,590.37499 -5.5937,16.46875 9.3125,1.03125 7.4375,5.1875 27.5,32.31249 0.6875,2.875 2.1875,0.375 -0.375,2.25 2.75,0.375 8.25,6.375 1.6875,5 4.125,4.375 3.0625,1.125 4.25,0.875 2.375,2.6875 6.125,0.0625 v -13.5625 l -1.9375,-15.3125 4,-20.625 2.125,-2 1.75,-0.4375 -2.125,-12.5 -2.375,-7.68749 -4.9375,-7.5625 -3.4375,-7.75 -5,-5.8125 -5.9375,-6.5625 -1.75,4 -8.9375,5.1875 -3.0625,0.3125 -5.0625,5.5 -18.25,6.1875 -2.375,-2.6875 z"
         id="path69" />
    </g>
  </g>
</svg>
