<?xml version="1.0" encoding="UTF-8" standalone="no"?>
<!-- Created with Inkscape (http://www.inkscape.org/) -->

<svg
   version="1.1"
   id="svg2"
   width="197.73122"
   height="109.49424"
   viewBox="0 0 197.73122 109.49424"
   xmlns="http://www.w3.org/2000/svg"
   xmlns:svg="http://www.w3.org/2000/svg">
  <defs
     id="defs6">
    <linearGradient
       id="swatch77">
      <stop
         style="stop-color:#e2c69e;stop-opacity:1;"
         offset="0"
         id="stop77" />
    </linearGradient>
  </defs>
  <g
     id="layer66"
     style="display:inline"
     transform="translate(-1030.625,-187.00576)">
    <g
       id="layer57"
       style="display:inline">
      <path
         style="display:inline;fill:#969696;fill-opacity:1;stroke:none;stroke-width:1;stroke-dasharray:none;stroke-opacity:1"
         d="m 1061.5,295 c 0.5,-0.16667 1.0615,-0.20765 1.5,-0.5 0.1136,-0.0757 0.3797,-0.87968 0.5,-1 0.3761,-0.37611 1.1444,-0.26293 1.5,-0.5 0.814,-0.54264 0.1451,-0.46505 1,-0.75 0.2372,-0.0791 0.5048,0.049 0.75,0 0.7138,-0.14276 1.2769,-0.5 2,-0.5 1.4367,0 4.0079,-0.31053 5.25,0 0.9181,0.22953 1.9128,1.13759 3,1.5 0.45,0.15 1.05,-0.15 1.5,0 0.3689,0.12295 0.6855,0.39516 1,0.5 1.2493,0.41644 2.6348,0.44238 3.75,1 0.2236,0.1118 0.5128,-0.0791 0.75,0 0.1118,0.0373 0.1446,0.19729 0.25,0.25 0.8797,0.43986 2.3066,-0.31446 3.25,0 0.1118,0.0373 0.1446,0.19729 0.25,0.25 0.2058,0.10289 3.4634,0.0955 3.75,0 0.1354,-0.0451 1.6327,-1.17179 1.75,-1.25 0.2304,-0.15364 0.7279,0.0907 1,0 0.3535,-0.11785 0.6464,-0.38215 1,-0.5 0.2892,-0.0964 0.7313,0.13432 1,0 0.3727,-0.18634 0.6273,-0.56366 1,-0.75 0.2236,-0.11181 0.5264,0.1118 0.75,0 0.2108,-0.10541 0.3114,-0.35858 0.5,-0.5 0.3676,-0.2757 0.8916,-0.32082 1.25,-0.5 0.4321,-0.21608 1.2839,-1.06786 1.5,-1.5 0.3487,-0.69745 0.6418,-1.53356 1,-2.25 0.1054,-0.21082 0.4255,-0.2764 0.5,-0.5 0.079,-0.23717 -0.1768,-0.57323 0,-0.75 0.059,-0.0589 0.1911,0.0589 0.25,0 0.3565,-0.35652 0.2071,-0.85948 0.5,-1.25 0.1517,-0.20231 1.4819,-1.16066 1.75,-1.25 0.8985,-0.2995 3.1838,0 4.25,0 0.8517,0 1.4323,-0.0865 2.25,-0.25 0.9979,-0.19958 2.2848,0.32172 3.25,0 1.2944,-0.43149 -0.579,-0.1535 1.5,-0.5 0.752,-0.12534 0.8913,0.17937 1.75,-0.25 0.074,-0.0373 -0.059,-0.19108 0,-0.25 0.1696,-0.16963 0.7712,0.1144 1,0 0.2687,-0.13437 0.5375,-0.28754 0.75,-0.5 0.059,-0.0589 -0.081,-0.22979 0,-0.25 0.3234,-0.0808 0.67,0.0471 1,0 0.25,-0.0833 0.5,-0.16667 0.75,-0.25 0.083,-0.0833 0.1382,-0.21273 0.25,-0.25 0.225,-0.075 0.525,0.075 0.75,0 0.5303,-0.17678 0.981,-0.54239 1.5,-0.75 0.2873,-0.11495 0.7126,0.11494 1,0 0.279,-0.11159 0.471,-0.38841 0.75,-0.5 0.4779,-0.19118 1.272,-0.0588 1.75,-0.25 1.0427,-0.41708 1.9017,-1.1339 3,-1.5 0.6974,-0.23249 1.56,-0.27002 2.25,-0.5 0.2236,-0.0745 0.2689,-0.45378 0.5,-0.5 0.3268,-0.0654 0.6712,0.0548 1,0 0.626,-0.10434 1.1558,-0.52716 1.75,-0.75 0.1862,-0.4645 0.943,-0.14768 1.25,-0.25 0.1118,-0.0373 0.1382,-0.21273 0.25,-0.25 0.1581,-0.0527 0.3383,0.0404 0.5,0 0.6161,-0.15403 1.1416,-0.5472 1.75,-0.75 0.1581,-0.0527 0.3419,0.0527 0.5,0 0.4429,0.12447 0.471,-0.38841 0.75,-0.5 0.3331,-0.69513 0.8378,-0.14694 1.25,-0.25 0.8963,-0.22408 1.53,-0.64001 2.25,-1 0.2,-0.1 0.55,0.1 0.75,0 0.4298,-0.21491 0.4513,-0.61282 1,-0.75 0.6234,-0.15587 1.3945,0.20182 2,0 0.5071,-0.16905 1.0486,-0.59954 1.5,-0.75 0.7042,-0.23475 1.7597,0.0925 2.5,0 0.7913,0.26272 1.5227,-0.37878 2.25,-0.5 0.7903,-0.13172 1.7236,-0.0559 2.5,-0.25 0.3615,-0.0904 0.6324,-0.43873 1,-0.5 0.411,-0.0685 0.9033,0.23112 1.25,0 0.4554,-0.30362 0.566,-0.53302 1,-0.75 0.1974,-0.0987 0.5392,0.0703 0.75,0 1.0004,-0.33346 1.8855,-0.90421 2.75,-1.25 0.319,-0.12761 0.6927,-0.0963 1,-0.25 0.5791,-0.28954 1.1515,-0.95078 1.75,-1.25 0.3527,-0.17634 1.185,-0.28998 1.5,-0.5 0.1961,-0.13075 0.2979,-0.37873 0.5,-0.5 1.2176,-0.73054 2.9475,-1.34874 4.25,-2 0.5784,-0.28921 1.2006,-0.78024 1.75,-1 0.319,-0.12761 0.6927,-0.0963 1,-0.25 0.074,-0.0373 -0.074,-0.21273 0,-0.25 0.469,-0.23452 1.5901,0.0232 2,-0.25 0.1961,-0.13075 0.2892,-0.39459 0.5,-0.5 0.6699,-0.33494 1.7815,0.23948 2.5,0 0.3535,-0.11785 0.6464,-0.38215 1,-0.5 0.4056,-0.13522 1.1432,-0.0716 1.5,-0.25 0.074,-0.0373 -0.074,-0.21273 0,-0.25 0.2981,-0.14907 0.6838,0.10541 1,0 0.1118,-0.0373 0.1357,-0.22142 0.25,-0.25 0.6945,-0.17364 1.7981,0 3,-0.25 1.8659,-0.0455 2.3177,-1.28384 3.25,-1.75 0.5676,-0.28383 1.1823,-0.46618 1.75,-0.75 0.2687,-0.13437 0.4649,-0.40499 0.75,-0.5 0.1581,-0.0527 0.3509,0.0745 0.5,0 0.3201,-0.16006 0.6401,-0.88003 1,-1 0.6371,-0.21237 1.428,-0.321 2,-0.75 0.5016,-0.37623 0.6318,-0.79393 1.25,-1 0.8225,-0.27418 1.9954,-0.62271 2.75,-1 0.074,-0.0373 -0.074,-0.21273 0,-0.25 1.5807,-0.79035 0.5111,0.48887 2,-1 0.059,-0.0589 -0.059,-0.19108 0,-0.25 0.3045,-0.3045 0.5585,-0.11711 0.75,-0.5 0.9847,-1.9695 0.75,-5.68522 0.75,-8 0,-0.5 -0.1213,-1.01493 0,-1.5 0.029,-0.11433 0.1973,-0.14459 0.25,-0.25 0.6736,-1.34725 0.8054,-3.11079 1.5,-4.5 0.1863,-0.37268 0.4554,-0.70537 0.75,-1 0.059,-0.0589 0.1911,0.0589 0.25,0 0.3282,-0.32818 1.2494,-1.58234 1.5,-2 0.1356,-0.22597 0.1144,-0.52403 0.25,-0.75 0.8733,-1.45556 2.44,-2.17497 3.5,-3.5 0.052,-0.0651 -0.069,-0.20378 0,-0.25 0.9027,-0.60182 0.5313,0.075 1.25,-0.5 0.6458,-0.51669 0.9651,-1.21507 1.5,-1.75 0.1318,-0.13176 0.3682,-0.11824 0.5,-0.25 0.7733,-0.77334 1.1118,-2.03944 2,-2.75 0.299,-0.63523 1.0528,-0.41459 1.5,-0.75 0.2801,-0.21009 0.7199,-1.03991 1,-1.25 0.067,-0.05 0.1807,0.0462 0.25,0 0.5769,-0.38462 0.9231,-1.11539 1.5,-1.5 0.4598,-0.30657 1.1164,-0.61636 1.5,-1 0.1318,-0.13176 0.1182,-0.36824 0.25,-0.5 1.2776,-1.2776 -0.3487,1.04824 1,-0.75 0.1118,-0.14907 0.1182,-0.36824 0.25,-0.5 0.3046,-0.30463 0.9454,-0.44537 1.25,-0.75 0.1817,-0.18171 0.6638,-1.37066 0.75,-1.5 0.3985,-0.5977 0.579,-0.31611 0.75,-1 0.061,-0.24254 -0.079,-0.51283 0,-0.75 0.1178,-0.35356 0.4538,-0.6302 0.5,-1 0.062,-0.49614 -0.055,-1.00306 0,-1.5 0.029,-0.26191 0.1861,-0.49435 0.25,-0.75 0.239,-0.95624 0,-2.56036 0,-3.5 l -0.1795,-7.14889 c -0.3945,0.57488 -0.5365,0.64792 -0.8867,0.42432 -0.1266,-0.0808 -0.4125,0.0589 -0.5303,0 -0.053,-0.0264 0.042,-0.13507 0,-0.17677 -0.125,-0.125 -0.3626,0.0559 -0.5303,0 -0.1832,-0.061 -0.355,-0.26586 -0.5304,-0.35356 -0.2228,-0.11147 -0.6468,-0.0582 -0.8839,-0.17677 -0.075,-0.0373 -0.095,-0.16048 -0.1767,-0.17678 -0.5201,-0.10401 -1.0679,0.0872 -1.591,0 -0.082,-0.0137 -0.1028,-0.13948 -0.1768,-0.17678 -0.4754,-0.23771 -1.4132,-0.44173 -1.9445,-0.53033 -0.4376,-0.0729 -1.0291,0.0158 -1.4143,-0.17677 -1.0936,-0.54683 -1.8883,-1.31551 -2.8284,-2.12133 -0.677,-0.58025 -0.7922,-0.38631 -1.4142,-0.88388 -0.1952,-0.15617 -0.3223,-0.39165 -0.5303,-0.53033 -0.6244,-0.41627 -1.1796,-0.79631 -1.7678,-1.23744 -0.4853,-0.364 -1.0862,-0.54736 -1.591,-0.88388 -0.6577,-0.43846 -1.2537,-1.01945 -1.9445,-1.41421 -0.1618,-0.0925 -0.3686,-0.0843 -0.5304,-0.17678 -0.5948,-0.33991 -0.8746,-0.87771 -1.4142,-1.23744 -0.4185,-0.27899 -0.4456,-0.0921 -0.8839,-0.53033 -0.093,-0.0932 -0.098,-0.24814 -0.1767,-0.35355 -0.396,-0.52797 -1.0183,-0.88624 -1.4142,-1.41421 -0.1768,-0.23571 -0.3986,-0.44359 -0.5304,-0.70711 -0.026,-0.0527 0.042,-0.13508 0,-0.17678 -0.093,-0.0932 -0.2695,-0.0755 -0.3535,-0.17677 -0.22,-0.26396 -0.3157,-0.61559 -0.5304,-0.88389 -0.079,-0.0987 -4.1087,0.13658 -4.2426,0.17678 -0.3786,0.11358 -0.7071,0.35355 -0.9723,0.35355 -0.1473,-0.17677 -0.6187,-0.41248 -0.6187,-0.17677 0,0.2357 0.8216,-0.20604 0.7071,0 -0.3642,0.65561 -1.0865,1.03603 -1.591,1.59099 -0.089,0.0975 -0.094,0.25066 -0.1768,0.35355 -0.1561,0.19522 -0.3916,0.32232 -0.5303,0.53033 -0.1033,0.15504 -0.073,0.37529 -0.1768,0.53033 -0.3209,0.48141 -1.8056,2.22864 -2.2981,2.47487 -0.1666,0.0833 -0.3812,0.065 -0.5303,0.17678 -0.1054,0.0791 -0.067,0.28047 -0.1768,0.35355 -0.098,0.0654 -0.2481,-0.0527 -0.3535,0 -0.053,0.0264 0.042,0.13511 0,0.17678 -0.042,0.0417 -0.1241,-0.0264 -0.1768,0 -0.19,0.095 -0.3331,0.27465 -0.5303,0.35355 -0.1094,0.0438 -0.2418,-0.0373 -0.3536,0 -0.25,0.0833 -0.4571,0.27022 -0.7071,0.35356 -0.8742,0.29139 -1.664,-0.42084 -2.2981,0.53033 -0.2419,0.36289 -0.6016,0.99221 -0.7071,1.41421 -0.029,0.11433 0.037,0.24175 0,0.35355 -0.083,0.25 -0.2896,0.45146 -0.3535,0.70711 -0.057,0.22867 0.046,0.47598 0,0.70711 -0.042,0.20833 -0.2864,0.32877 -0.3536,0.53033 -0.086,0.25794 -0.064,0.83557 -0.1768,1.06066 -0.074,0.14907 -0.2611,0.21488 -0.3535,0.35355 -0.331,0.49649 -0.4641,1.26405 -0.8839,1.76777 0.025,0.79921 -0.7352,0.55846 -1.0607,0.88388 -0.042,0.0417 0.033,0.12775 0,0.17678 -0.6704,1.00571 -1.8791,1.72464 -2.6516,2.65165 -0.136,0.16321 -0.2033,0.3801 -0.3536,0.53033 -0.7897,0.78969 -1.9047,1.35676 -2.8284,1.94454 -0.717,0.45626 -1.4251,0.92687 -2.1213,1.41422 -0.8839,0.61872 0,0.13258 -0.5303,0.53033 -0.2286,0.17138 -0.8431,0.48952 -1.0607,0.7071 -0.042,0.0417 0.042,0.13511 0,0.17678 -0.1297,0.1297 -0.5772,0.0988 -0.7071,0.17678 -0.2144,0.12862 -0.3303,0.38033 -0.5303,0.53033 -0.19,0.14244 -0.8352,-0.0451 -1.0607,0 -1.041,0.2082 -2.0588,0.5684 -3.0052,0.88388 -0.1924,0.0641 -0.5442,-0.10863 -0.7071,0 -0.1387,0.0925 -0.2107,0.2678 -0.3536,0.35355 -0.6766,0.40598 -2.277,0.86283 -2.8284,1.41422 -0.042,0.0417 0.042,0.13511 0,0.17677 -0.1863,0.18634 -0.4878,0.20738 -0.7071,0.35356 -0.2451,0.16343 -0.4988,0.32199 -0.7071,0.53033 -0.042,0.0417 0.053,0.15042 0,0.17677 -0.1054,0.0527 -0.2357,0 -0.3536,0 -0.1178,0.0589 -0.2439,0.10369 -0.3535,0.17678 -0.2405,0.16032 -0.4358,0.4625 -0.7071,0.53033 -0.3937,0.0984 -1.2071,0 -1.591,0 h -4.4194 -5.8337 c -0.6775,0 -1.675,-0.17803 -2.2981,0 -0.1602,0.0458 -0.2148,0.2611 -0.3535,0.35355 -0.2046,0.13637 -2.2195,0.0687 -2.6517,0.17678 -0.6234,0.15586 -1.0846,0.44494 -1.7677,0.53033 -0.6827,0.0853 -1.4585,-0.16571 -2.1214,0 -0.1278,0.032 -0.2357,0.11785 -0.3535,0.17678 -0.2357,0 -0.4746,-0.0387 -0.7071,0 -0.2599,0.0433 -0.4487,0.30187 -0.7071,0.35355 -0.3467,0.0693 -0.7099,-0.0438 -1.0607,0 -0.5963,0.0745 -1.1705,0.28719 -1.7677,0.35355 -0.4686,0.0521 -0.9465,-0.0585 -1.4143,0 -1.2028,0.15036 -2.3499,0.55891 -3.5355,0.70711 -0.2339,0.0292 -0.4805,-0.0648 -0.7071,0 -0.2043,0.0584 -0.3403,0.25854 -0.5303,0.35355 -0.3334,0.16667 -0.7274,0.18689 -1.0607,0.35356 -0.074,0.0373 -0.1178,0.11785 -0.1768,0.17677 -0.1178,0.0589 -0.2312,0.12785 -0.3535,0.17678 -0.4512,0.18047 -0.9796,0.13625 -1.4142,0.35356 -0.2236,0.1118 -0.3304,0.38033 -0.5304,0.53033 -0.255,0.19127 -0.7809,0.10684 -1.0606,0.17677 -0.081,0.0202 -0.098,0.15043 -0.1768,0.17678 -0.2561,0.0854 -0.6335,0.0516 -0.8839,0.17678 -0.074,0.0373 -0.098,0.15042 -0.1768,0.17677 -0.3819,0.1273 -0.8489,0.0797 -1.2374,0.17678 -0.081,0.0202 -0.098,0.15042 -0.1768,0.17678 -0.285,0.095 -0.5924,0.1039 -0.8839,0.17677 -0.444,0.11101 -0.9646,-0.0899 -1.4142,0 -1.2169,0.2434 -2.4565,0.17678 -3.7123,0.17678 -0.6366,0 -1.1626,0.27791 -1.7677,0.35355 -2.7269,0.34086 -5.5817,-0.34086 -8.3086,0 -0.1849,0.0231 -0.3465,0.14614 -0.5303,0.17678 -0.4587,0.0764 -0.9537,-0.0658 -1.4142,0 -1.7045,0.2435 -3.4022,0.17678 -5.1265,0.17678 h -10.2531 c -3.9918,0 -8.0364,0.2097 -12.0208,0 -1.3624,-0.0717 -3.8804,-0.35211 -4.9497,-0.53033 -0.4232,-0.0705 -0.8154,-0.27682 -1.2375,-0.35356 -0.2319,-0.0422 -0.4774,0.053 -0.7071,0 -0.5447,-0.1257 -1.0486,-0.39475 -1.591,-0.53033 -0.9174,-0.22936 -1.9129,-0.18711 -2.8284,-0.35355 -1.9483,-0.35425 -3.8632,-0.77918 -5.8336,-1.06066 -1.1797,-0.16853 -2.4133,-0.12952 -3.5356,-0.53033 -0.9446,-0.33736 -1.8295,-1.0024 -2.8284,-1.23744 -0.6978,-0.16419 -1.4184,-0.21296 -2.1213,-0.35355 -0.3654,-0.0731 -0.6917,-0.30085 -1.0607,-0.35356 -0.2503,-0.0358 0.6896,0.10378 0.5858,0 -0.042,-0.0417 0.042,-0.13511 0,-0.17677 -0.042,-0.0417 -0.1178,0 -0.1768,0 h -1.2374 c -0.6718,0 -0.9482,-0.13928 -0.7919,-0.55606 0.862,1.12711 -1.7539,-0.7574 -1.6759,0.57133 0.022,0.37666 0.3482,3.22487 0.3902,3.59987 0.042,0.5 0.3087,1.75026 0.3347,2.2513 0.059,1.11751 0,2.25616 0,3.375 0,1.31563 0.07,2.59672 -0.25,3.875 -0.048,0.19296 -0.6314,1.47679 -0.75,1.625 -0.2945,0.3681 -0.7385,0.60777 -1,1 -0.3616,0.54242 -0.6275,1.22849 -1,1.75 -0.054,0.0758 -0.1958,0.0492 -0.25,0.125 -0.5047,0.70658 -0.2938,0.65337 -0.5,1.375 -0.079,0.27555 -0.2563,0.34794 -0.375,0.625 -0.244,0.56934 -0.348,1.19597 -0.625,1.75 -0.2154,0.43085 -0.3539,0.36366 -0.5,0.875 -0.034,0.12019 0.04,0.25641 0,0.375 -0.088,0.26516 -0.263,0.49393 -0.375,0.75 -0.1799,0.41114 -0.2993,0.84861 -0.5,1.25 -0.019,0.0373 -0.1,-0.0333 -0.125,0 -0.2273,0.30311 -0.4129,0.6818 -0.625,1 -0.1588,0.2382 -0.487,0.37651 -0.625,0.625 -0.181,0.32578 -0.2999,0.68559 -0.5,1 -0.095,0.14914 -0.2689,0.23358 -0.375,0.375 -0.077,0.10278 -0.4722,0.82542 -0.625,1 -0.194,0.22173 -0.431,0.40327 -0.625,0.625 -0.3267,0.37341 -0.5811,0.85808 -0.875,1.25 -0.2784,0.37118 -0.7084,0.27508 -1,0.625 -0.3251,0.39016 -0.1796,0.48422 -0.375,0.875 -0.3268,0.65367 -1.013,1.11643 -1.375,1.75 -0.065,0.1144 -0.052,0.26537 -0.125,0.375 -0.6667,1 -0.1667,0.0556 -0.5,0.5 -0.4061,0.54144 -0.7796,1.27959 -1.25,1.75 -0.059,0.0589 -0.1867,-0.0542 -0.25,0 -0.5081,0.43549 -0.5823,0.83226 -1,1.25 -0.059,0.0587 -0.9556,0.54028 -1.125,0.625 -0.302,0.15098 -0.5179,0.625 -1.125,0.65625 0.5453,1.02078 1.584,1.71228 2.625,2.40625 0.3588,0.23919 0.324,0.26149 0.625,0.5625 0.063,0.0632 0.7031,0.23829 0.75,0.25 0.061,0.0152 0.1258,-0.0103 0.1875,0 0.4804,0.0801 0.859,0.15883 1.375,0.1875 0.2425,0.0135 0.34,-0.0364 0.5625,0.0625 0.6661,0.29604 0.8629,0.66939 1.25,1.25 0.1241,0.18611 0.3567,0.23166 0.5,0.375 0.024,0.0235 0.161,0.28602 0.1875,0.3125 0.053,0.0531 0.1344,0.0719 0.1875,0.125 0.053,0.0531 0.072,0.13438 0.125,0.1875 0,0.003 0.5923,0.35864 0.625,0.375 0.059,0.0295 0.1348,0.023 0.1875,0.0625 0.037,0.0279 0.033,0.0886 0.062,0.125 0.1463,0.18293 0.3537,0.31707 0.5,0.5 0.2857,0.35709 0.6001,0.69602 0.875,1.0625 0.1592,0.21228 -0.073,-0.2003 0.25,0.1875 0.06,0.0716 0.067,0.17725 0.125,0.25 0.029,0.0364 0.083,0.0417 0.125,0.0625 0.062,0.0833 0.1358,0.15956 0.1875,0.25 0.033,0.0572 0.021,0.13606 0.062,0.1875 0.047,0.0587 0.1424,0.0649 0.1875,0.125 0.025,0.0333 -0.021,0.0893 0,0.125 0.091,0.15158 0.2336,0.26893 0.375,0.375 0.017,0.0125 0.048,-0.0147 0.062,0 0.1776,0.17757 0.4268,0.86868 0.5,1.125 0.079,0.27675 0.067,0.52432 0.125,0.8125 0.051,0.2554 0.1508,0.49304 0.1875,0.75 0.042,0.2953 0,0.64062 0,0.9375 v 1.5 1.8125 c 0,0.24557 0.027,0.50609 0,0.75 -0.079,0.70643 -0.062,1.41253 -0.062,2.125 0,0.28421 -0.035,0.5927 0,0.875 0.045,0.36388 0.1345,0.65361 0.25,1 0.2804,0.84106 -0.1292,-0.33088 0.062,0.5 0.441,1.91102 -0.01,-0.20831 0.3125,0.8125 0.077,0.24596 0.1167,0.50222 0.1875,0.75 0.064,0.22396 0.2289,0.4076 0.3125,0.625 0.1912,0.49724 -0.108,0.15893 0.1875,0.75 0.1398,0.27968 0.3602,0.47032 0.5,0.75 0.2322,0.46449 0.3806,0.97313 0.625,1.4375 0.091,0.17392 0.2184,0.32746 0.3125,0.5 0.032,0.0578 0.026,0.13268 0.062,0.1875 0.09,0.13539 0.2222,0.23961 0.3125,0.375 0.036,0.0548 0.028,0.13163 0.062,0.1875 0.1858,0.29729 0.4541,0.49068 0.6875,0.75 0.05,0.0558 0.072,0.13438 0.125,0.1875 0.3607,0.36073 0.5661,0.42529 0.8125,0.8125 0.075,0.1179 0.1074,0.26051 0.1875,0.375 0.068,0.0965 0.1793,0.15572 0.25,0.25 0.1803,0.24037 0.3223,0.5077 0.5,0.75 0.3183,0.43411 0.7512,0.75124 1.125,1.125 0.074,0.0737 0.1022,0.19026 0.1875,0.25 0.13,0.091 0.2997,0.10878 0.4375,0.1875 0.8519,0.48682 0.1903,0.13972 0.5625,0.4375 0.1872,0.14976 0.427,0.24299 0.625,0.375 0.2486,0.16572 0.4929,0.40825 0.75,0.5625 0.5007,0.30043 0.1393,-0.079 0.6875,0.3125 0.1802,0.12872 0.3259,0.30068 0.5,0.4375 0.4453,0.34987 0.9372,0.63521 1.375,1 0.183,0.15251 0.2997,0.37878 0.4375,0.5625 0.08,0.10672 0.1667,0.20833 0.25,0.3125 0.1042,0.10417 0.2205,0.19747 0.3125,0.3125 0.076,0.0949 0.1129,0.21661 0.1875,0.3125 0.072,0.093 0.1824,0.15345 0.25,0.25 0.08,0.11449 0.1119,0.25744 0.1875,0.375 0.2985,0.46437 0.6309,0.91504 0.9375,1.375 0.07,0.10565 0.1182,0.28264 0.1875,0.375 0.028,0.0373 0.099,0.0237 0.125,0.0625 0.023,0.0347 0,0.0833 -0.3738,0.625 0.852,-0.31025 2.2323,-1.03533 3.6263,-1.5 z"
         id="path72" />
    </g>
  </g>
</svg>
