<?xml version="1.0" encoding="UTF-8" standalone="no"?>
<!-- Created with Inkscape (http://www.inkscape.org/) -->

<svg
   version="1.1"
   id="svg1"
   width="196.3989"
   height="108.27574"
   viewBox="0 0 196.3989 108.27574"
   xmlns="http://www.w3.org/2000/svg"
   xmlns:svg="http://www.w3.org/2000/svg">
  <defs
     id="defs1" />
  <g
     id="layer1"
     style="display:inline"
     transform="translate(-1030.8737,-187.47165)">
    <g
       id="layer71"
       style="display:inline;fill:#ffffff;fill-opacity:1;stroke:none">
      <path
         style="fill:#ffffff;fill-opacity:1;stroke:none;stroke-linecap:round"
         d="m 1049.4348,215.84434 -0.088,12.28598 -6.2755,16.79379 -12.1976,11.75565 2.2981,2.56326 3.182,-0.0884 4.7729,4.59619 2.8284,5.3033 1.3259,13.96536 7.7781,7.07107 4.9498,5.65685 6.9827,-3.27036 6.4523,-0.70711 18.4732,3.44714 6.1872,-2.03293 6.2755,-6.01041 4.3311,-2.47487 9.1924,-0.0884 15.2911,-3.97747 12.0209,-4.86136 2.1213,-3.09359 11.6672,-0.0884 5.4801,-3.35876 7.1595,-3.35876 17.2357,-5.3033 10.2531,-4.86136 5.2149,-3.53553 1.8561,-4.41942 1.2375,-9.63433 9.104,-10.25305 5.7452,-4.06586 6.4523,-5.65685 0.5304,-16.61701 -11.2253,-3.62392 -7.6898,-7.24785 -5.3033,-3.18198 h -5.7453 l -3.9774,5.48008 -4.5962,2.12132 -2.2098,5.74524 -9.8994,9.45755 -8.1318,1.94455 -3.9774,0.97227 -0.7072,2.47487 m 0,0 -8.7472,0.45746 -11.5,0.75 -6.4375,3.0625 -8.1875,1.9375 -22.8125,1.125 -31.4375,-1.5625 -18.1875,-5.4375 -7.0652,-0.15565"
         id="path70" />
    </g>
  </g>
</svg>
