<?xml version="1.0" encoding="UTF-8" standalone="no"?>
<!-- Created with Inkscape (http://www.inkscape.org/) -->

<svg
   version="1.1"
   id="svg2"
   width="61.708439"
   height="59.743237"
   viewBox="0 0 61.708439 59.743237"
   xmlns="http://www.w3.org/2000/svg"
   xmlns:svg="http://www.w3.org/2000/svg">
  <defs
     id="defs6">
    <linearGradient
       id="swatch77">
      <stop
         style="stop-color:#e2c69e;stop-opacity:1;"
         offset="0"
         id="stop77" />
    </linearGradient>
  </defs>
  <g
     id="layer66"
     style="display:inline"
     transform="translate(-726.81242,-401.3135)">
    <g
       id="layer40"
       style="display:inline">
      <path
         style="display:inline;fill:#969696;fill-opacity:1;stroke:none;stroke-opacity:1"
         d="m 785.375,459 c -0.0347,-0.0231 -0.0955,0.0295 -0.125,0 -0.0274,-0.0274 -0.3396,-0.5541 -0.375,-0.625 -0.2601,-0.52022 0.009,0.13363 -0.25,-0.125 -0.0295,-0.0295 0.0373,-0.1064 0,-0.125 -0.0745,-0.0373 -0.1755,0.0373 -0.25,0 -0.0373,-0.0186 0.0231,-0.0903 0,-0.125 -0.0654,-0.0981 -0.1519,-0.1846 -0.25,-0.25 -0.0648,-0.0432 -0.3246,-0.0746 -0.375,-0.125 -0.0295,-0.0295 0.0295,-0.0955 0,-0.125 -0.0295,-0.0295 -0.0877,0.0186 -0.125,0 -0.40395,-0.20198 -0.85652,-0.52516 -1.25,-0.75 -0.19482,-0.11133 -0.4326,-0.13456 -0.625,-0.25 -0.10106,-0.0606 -0.14459,-0.1973 -0.25,-0.25 -0.53603,-0.26801 -1.22471,-0.29669 -1.75,-0.625 -0.14991,-0.0937 -0.2251,-0.2813 -0.375,-0.375 -0.57493,-0.35933 -1.33698,-0.56958 -1.875,-1 -0.35183,-0.28146 -0.36038,-0.34576 -0.5,-0.625 -0.0716,-0.1433 -0.26082,-0.1739 -0.375,-0.25 -0.22435,-0.14957 -0.52002,-0.59252 -0.625,-0.75 -0.0517,-0.0775 -0.0833,-0.1667 -0.125,-0.25 0,-0.0417 0.0186,-0.0877 0,-0.125 -0.19344,-0.38688 -0.64081,-0.79714 -0.875,-1.125 -0.67688,-0.94764 -1.38976,-1.96818 -2.375,-2.625 -0.79552,-0.53035 -1.29721,-0.838 -1.875,0.125 -0.096,0.15991 -0.4737,0.89494 -0.5,1 -0.0953,0.38108 0.17699,0.17202 -0.125,0.625 -0.0231,0.0347 -0.0833,0 -0.125,0 -0.0417,0.125 -0.0833,0.25 -0.125,0.375 -0.16024,0.80119 0.13438,1.6937 0,2.5 -0.0829,0.49715 -0.1681,1.00884 -0.25,1.5 -0.12016,0.7209 -0.12985,0.0291 -0.25,0.75 -0.0343,0.2055 0.0774,0.43157 0,0.625 -0.25629,0.64072 -0.82608,1.17931 -1,1.875 -0.0202,0.0808 0.0202,0.1692 0,0.25 -0.0122,0.0489 -0.5325,0.9075 -0.625,1 -0.10623,0.10623 -0.2788,0.13459 -0.375,0.25 -0.505,0.606 -0.0613,0.40565 -0.75,0.75 -0.7223,0.36115 -0.6024,0.6506 -1.5,0.875 -0.49662,0.12415 -3.54292,0.0274 -4,-0.125 -0.34167,-0.11389 -0.69449,-0.39816 -1,-0.5 -0.0791,-0.0263 -0.1709,0.0263 -0.25,0 -0.40457,-0.13486 -0.58488,-0.81366 -1,-1.125 -0.0745,-0.0559 -0.1667,-0.0833 -0.25,-0.125 -0.0417,-0.0833 -0.0591,-0.1841 -0.125,-0.25 -0.0295,-0.0295 -0.0955,0.0295 -0.125,0 -0.3036,-0.3036 0.0372,-0.18355 -0.25,-0.375 -0.53908,-0.35939 -0.8113,-0.8113 -1.25,-1.25 -0.526,-0.526 0.006,0.63795 -0.625,-0.625 -0.0373,-0.0745 0.0373,-0.1755 0,-0.25 -0.0527,-0.10541 -0.1793,-0.1557 -0.25,-0.25 -0.26222,-0.34963 -0.43337,-0.74174 -0.625,-1.125 -0.10866,-0.21731 -0.20321,-0.45321 -0.375,-0.625 -0.0295,-0.0295 -0.1064,0.0373 -0.125,0 -0.0373,-0.0745 0.0373,-0.1755 0,-0.25 -0.0527,-0.10541 -0.1793,-0.1557 -0.25,-0.25 -0.0559,-0.0745 -0.0591,-0.1841 -0.125,-0.25 -0.0295,-0.0295 -0.0955,0.0295 -0.125,0 -0.0589,-0.0589 0.0373,-0.1755 0,-0.25 -0.22199,-0.44399 -0.75,-0.85663 -0.75,-1.25 0,-0.16508 0.0835,-0.7914 0,-0.875 -0.0295,-0.0295 -0.0877,0.0186 -0.125,0 -0.10541,-0.0527 -0.1519,-0.1846 -0.25,-0.25 -1.765,-1.17667 -0.37372,-0.15529 -1.5,-1 -0.52585,-0.39439 -0.98064,-1.05458 -1.625,-0.625 -0.45158,0.30105 -0.4457,0.71208 -0.625,1.25 -0.23672,0.71014 -0.77632,1.20395 -1,1.875 -0.0659,0.19764 0.0409,0.42071 0,0.625 -0.0116,0.0578 -0.118,0.0664 -0.125,0.125 -0.0933,0.83972 0.16636,1.79321 0,2.625 -0.0362,0.18097 -0.2138,0.44402 -0.25,0.625 -0.1561,0.78028 0.17222,0.0306 -0.125,0.625 -0.31846,0.63692 -0.28458,0.68972 -0.75,1 -0.22361,0.14907 -0.54876,-0.0847 -0.75,-0.125 -0.48872,-0.0978 -1.01034,-0.0868 -1.5,-0.25 -0.52966,-0.17655 -0.72194,-0.39869 -1.25,-0.625 -0.0766,-0.0328 -0.1755,0.0373 -0.25,0 -0.4099,-0.20495 -0.81077,-0.73646 -1.25,-1 -0.28837,-0.17302 -0.83952,-0.46452 -1.125,-0.75 -0.14732,-0.14732 -0.21682,-0.36442 -0.375,-0.5 -0.14148,-0.12127 -0.36824,-0.11824 -0.5,-0.25 -0.26941,-0.2694 -0.37853,-0.81692 -0.625,-1.125 -0.11043,-0.13804 -0.26894,-0.23358 -0.375,-0.375 -0.13013,-0.17351 -0.5955,-1.5433 -0.625,-1.75 -0.0878,-0.61435 0.1946,-1.41619 0,-2 -0.2255,-0.67638 -0.17,-1.52999 -0.25,-2.25 -0.023,-0.20663 -0.0792,-1.02079 -0.125,-1.25 -0.0258,-0.1292 -0.0833,-0.25 -0.125,-0.375 -0.0417,-0.0833 -0.1024,-0.1596 -0.125,-0.25 -0.058,-0.23216 0.0293,-0.66991 0,-0.875 -0.0723,-0.50627 -0.2934,-1.01017 -0.375,-1.5 -0.0274,-0.1644 0.0404,-0.33831 0,-0.5 -0.0101,-0.0404 -0.1118,0.0395 -0.125,0 -0.0347,-0.10417 0.0231,-0.48611 0,-0.625 -0.0282,-0.16946 -0.0833,-0.33333 -0.125,-0.5 -0.0417,-0.125 -0.1033,-0.24503 -0.125,-0.375 -0.12459,-0.74755 0.20745,-1.64892 0,-2.375 -0.0616,-0.21575 -0.1956,-0.40732 -0.25,-0.625 -0.0696,-0.27834 0,-0.85352 0,-1.125 0,-1.14013 0.15596,-2.78328 0,-3.875 -0.0828,-0.57922 -0.32999,-0.93249 -0.625,-1.375 -0.62473,-0.9371 0.14961,-0.0423 -0.5,-1.125 -0.091,-0.15159 -0.76632,0.58121 -0.375,-0.375 -0.12104,-0.24208 -0.17003,-0.67003 -0.375,-0.875 -0.2951,-0.2951 0.0657,0.69721 -0.25,-0.25 -0.18594,-0.55782 0.10221,-2.28451 0,-3 -0.0738,-0.51637 -0.11099,-0.25538 -0.375,-0.625 -0.14122,-0.1977 -0.21947,-0.43836 -0.375,-0.625 -0.42411,-0.50893 -1.91187,-0.50999 -2.5625,-0.75 -1.17398,-1.91474 -2.83896,-3.1713 -3.8125,-4.875 -0.1849,-0.32358 -0.36159,-0.65398 -0.5,-1 -0.0638,-0.15951 -0.0482,-0.34634 -0.125,-0.5 -0.0527,-0.10541 -0.21273,-0.1382 -0.25,-0.25 -0.12214,-0.3664 0,-1.72565 0,-2.125 0,-0.43244 -0.1408,-1.3276 0,-1.75 0.0539,-0.16168 0.72543,-1.70015 0.875,-1.75 0.23348,-0.0778 0.4154,-0.0404 0.625,-0.25 0.38147,-0.38147 0.61417,-0.98917 1,-1.375 0.13176,-0.13176 0.34495,-0.14664 0.5,-0.25 0.17196,-0.11464 0.12856,-0.19284 0.25,-0.375 0.20049,-0.30074 0.62705,-0.53305 0.875,-0.75 0.67081,-0.58696 1.19272,-1.33127 1.75,-2 0.27926,-0.33512 0.76098,-0.88232 1.125,-1.125 0.0775,-0.0517 0.18412,-0.0591 0.25,-0.125 0.11719,-0.11719 0.20868,-0.38912 0.375,-0.5 0.94699,-0.63133 1.95943,-0.85472 3,-1.375 0.2093,-0.10465 0.98293,-0.79607 1.125,-0.875 0.15017,-0.0834 0.34209,-0.0573 0.5,-0.125 0.81536,-0.34944 1.48603,-0.90276 2.375,-1.125 0.27758,-0.0694 2.37511,-0.0937 2.75,0 0.98565,0.24641 -0.26839,-0.0324 0.75,0.375 0.0774,0.031 0.16915,-0.0202 0.25,0 0.22624,-0.0753 0.23248,0.20249 0.375,0.25 0.16428,0.0548 0.35772,0.0301 0.5,0.125 0.24514,0.16343 0.4013,0.43326 0.625,0.625 0.3028,0.25954 0.70534,0.42856 1,0.625 0.16917,0.0711 0.22791,0.27694 0.375,0.375 0.063,0.27539 0.25715,0.0661 0.375,0.125 0.21491,0.10745 0.22563,0.30641 0.5,0.375 0.43856,0.10964 0.96854,0.25613 1.375,0.5 0.10105,0.0606 0.14459,0.19729 0.25,0.25 1.44869,0.72434 -0.0928,-0.15592 0.75,0.125 0.0559,0.0186 0.0833,0.0833 0.125,0.125 0.0833,0.0417 0.15961,0.1024 0.25,0.125 0.16169,0.0404 0.33831,-0.0404 0.5,0 0.27116,0.0678 0.48483,0.28661 0.75,0.375 0.26326,0.0878 0.60873,-0.0799 0.875,0 0.3337,0.10011 1.05379,0.45042 1.5,0.5 0.20706,0.023 0.41876,-0.0295 0.625,0 0.18446,0.0263 0.31619,0.21936 0.5,0.25 0.1644,0.0274 0.33462,-0.0207 0.5,0 0.71798,0.0897 1.40603,0.29511 2.125,0.375 0.20706,0.023 0.41794,-0.023 0.625,0 0.58414,0.0649 1.16918,0.2782 1.75,0.375 0.2055,0.0342 0.41876,-0.0295 0.625,0 0.6388,0.0913 1.25588,0.34522 1.875,0.5 0.22737,0.0568 0.52406,-0.0377 0.75,0 0.61033,0.10172 1.27248,0.12949 1.875,0.25 0.79495,0.15899 1.58198,0.3414 2.375,0.5 0.31991,0.064 0.67679,-0.0462 1,0 1.0082,0.14403 1.97114,0.25 3,0.25 0.43268,0 1.125,0.19189 1.20347,-0.29702 0.32027,0.68907 1.08378,0.90651 1.49268,1.3154 0.0417,0.0417 -0.049,0.14409 0,0.17678 0.2071,0.13807 0.6806,0.15028 0.88388,0.35355 0.30177,0.30178 0.62776,0.89594 0.88388,1.23744 0.40612,0.54149 -0.11307,-0.28985 0.53033,0.35355 0.0417,0.0417 0,0.11785 0,0.17678 0.11785,0.11785 0.20449,0.27902 0.35356,0.35355 0.10541,0.0527 0.24175,-0.0373 0.35355,0 0.20306,0.0677 0.24526,0.42204 0.35355,0.53033 0.0417,0.0417 0.11785,0 0.17678,0 0.2357,0.17678 0.49877,0.322 0.70711,0.53033 0.0417,0.0417 -0.0417,0.13511 0,0.17678 0.25909,0.25909 1.36879,0.17678 1.63518,0.48613 -0.10159,1.93903 -0.0442,3.53469 -0.0442,5.17072 0,0.3601 -0.10654,1.18298 0,1.5026 0.0515,0.15454 0.27874,0.29232 0.35355,0.44194 0.12022,0.24045 0.14892,0.41409 0.35355,0.61872 0.0751,0.0751 0.21247,0.0845 0.26517,0.17678 0.0745,0.13044 0.0356,0.30127 0.0884,0.44194 0.0113,0.0301 0.30756,0.64578 0.35355,0.70711 0.13071,0.17427 0.34409,0.33462 0.44194,0.53033 0.0568,0.11358 0.16005,0.33682 0.26517,0.44194 0.0751,0.0751 0.19005,0.10166 0.26516,0.17678 0.42873,0.42872 -0.16165,-0.006 0.17678,0.26516 0.14731,0.11785 0.28497,0.24891 0.44194,0.35355 0.29755,0.19837 0.6961,0.25416 0.97227,0.53033 0.0208,0.0208 -0.0208,0.0676 0,0.0884 0.10971,0.10971 0.28804,0.0229 0.35356,0.0884 0.0295,0.0295 0.0589,0.2357 0.0884,0.26517 0.0541,0.0541 0.29945,0.12267 0.35355,0.17677 0.0466,0.0466 0.0357,0.13725 0.0884,0.17678 0.0745,0.0559 0.18764,0.0367 0.26516,0.0884 0.19941,0.13294 0.39233,0.54325 0.61872,0.61872 0.0559,0.0186 0.12088,-0.0186 0.17678,0 0.1086,0.0362 0.27253,0.29954 0.35355,0.35355 0.11377,0.0759 0.42829,0.0747 0.53033,0.17678 0.0208,0.0208 -0.0163,0.0639 0,0.0884 0.0462,0.0693 0.13055,0.10744 0.17678,0.17678 0.006,0.01 0.0154,1.35249 0,1.41422 -0.0101,0.0404 -0.0802,0.0475 -0.0884,0.0884 -0.0231,0.11557 0.0167,0.23689 0,0.35356 -0.066,0.46195 -0.28036,0.89492 -0.44194,1.32582 -0.11065,0.29505 -0.16442,0.67003 -0.26517,0.97227 -0.0805,0.2416 -0.28154,0.49108 -0.35355,0.70711 -0.0466,0.13975 0.0388,0.29982 0,0.44194 -0.0835,0.30615 -0.29132,0.57272 -0.35355,0.88389 -0.0231,0.11556 0.0231,0.23799 0,0.35355 -0.11482,0.5741 -0.0401,0.14433 -0.26517,0.70711 -0.0328,0.0821 0.0328,0.18309 0,0.26516 -0.0394,0.0986 -0.12927,0.17015 -0.17678,0.26517 -0.11199,0.22399 -0.11684,0.55577 -0.17677,0.79549 -0.10515,0.42059 -0.45341,0.65515 -0.70711,0.97227 -0.19783,0.24729 -0.37152,0.60597 -0.53033,0.88389 -0.3734,0.65344 -1.0372,1.58219 -1.76777,1.85615 -1.34099,0.50288 0.44971,-0.25059 -0.61872,0.17678 -0.14584,0.0583 -0.30942,0.22099 -0.44194,0.26516 -0.12903,0.043 -0.56031,0.0489 -0.7071,0 -0.99335,-0.33111 -0.88013,-2.07994 -1.76777,-1.41421 -0.20389,0.15291 -0.60058,1.2714 -0.70711,1.59099 -0.0283,0.0849 0.0424,0.26872 0,0.35355 -0.0373,0.0745 -0.15042,0.0977 -0.17677,0.17678 -0.0186,0.0559 0.0263,0.12407 0,0.17678 -0.0132,0.0264 -0.0676,-0.0208 -0.0884,0 -0.0208,0.0208 0.0132,0.062 0,0.0884 -0.0373,0.0745 -0.15043,0.0977 -0.17678,0.17677 -0.0186,0.0559 0.0186,0.12088 0,0.17678 -0.0479,0.14361 -0.22045,0.17469 -0.26516,0.35355 -0.0559,0.22372 -0.0519,0.76488 0,0.97227 0.14441,0.57768 1.24131,0.87239 1.67937,1.23744 1.00462,0.83718 2.21193,1.50408 3.27037,2.20971 0.23862,0.15908 0.3889,0.44635 0.61872,0.61872 0.085,0.0637 0.19005,0.10166 0.26517,0.17677 0.13975,0.13976 0.14658,0.37222 0.26516,0.53033 0.3431,0.45747 0.40329,0.21363 0.70711,0.61872 0.0838,0.11179 0.0744,0.31399 0.17678,0.44194 0.0781,0.0976 0.22563,0.14658 0.26516,0.26517 0.0559,0.16771 -0.0384,0.35776 0,0.53033 0.023,0.1037 0.13732,0.16653 0.17678,0.26517 0.0876,0.21906 0.04,0.819 0.0884,1.06066 0.0705,0.35276 0.20088,0.70711 0.26516,1.06066 0.14066,0.77363 0.0182,1.52647 0.0884,2.29809 0.0136,0.14962 0.0734,0.29246 0.0884,0.44194 0.0488,0.48814 0,1.01135 0,1.50261 l -0.32059,3.12223 C 785.75,459.39629 785.51861,459.0957 785.375,459 Z"
         id="path121" />
    </g>
  </g>
</svg>
