<?xml version="1.0" encoding="UTF-8" standalone="no"?>
<!-- Created with Inkscape (http://www.inkscape.org/) -->

<svg
   version="1.1"
   id="svg1"
   width="60.23666"
   height="60.546021"
   viewBox="0 0 60.23666 60.546021"
   xmlns="http://www.w3.org/2000/svg"
   xmlns:svg="http://www.w3.org/2000/svg">
  <defs
     id="defs1" />
  <g
     id="layer1"
     style="display:inline"
     transform="translate(-727.96641,-400.62017)">
    <g
       id="layer72"
       style="display:inline;fill:#ffffff;fill-opacity:1;stroke:none">
      <path
         style="fill:#ffffff;fill-opacity:1;stroke:none;stroke-linecap:round"
         d="m 774.28191,408.39835 7.42462,5.87783 0.35355,6.85009 3.49134,4.94975 2.2539,0.88388 0.39775,7.86657 -3.97747,5.34749 -4.11006,-0.44194 -1.5026,1.90035 7.38042,8.75044 -1.14905,8.57367 -13.16986,-11.49048 -4.41942,13.70019 -7.24784,-0.35355 -3.75651,-6.23138 -3.09359,-3.7565 -1.98874,-1.19325 -3.18198,7.91076 -4.81716,-0.0884 -4.37522,-6.62912 -2.20971,-18.91511 -3.75651,-7.07107 -4.41941,-4.77297 -0.44195,-5.56846 1.19325,-4.28684 6.40815,-6.62912 6.8059,-2.96101 5.56847,3.62392 23.82066,5.83363 z"
         id="path71" />
    </g>
  </g>
</svg>
