<?xml version="1.0" encoding="UTF-8" standalone="no"?>
<!-- Created with Inkscape (http://www.inkscape.org/) -->

<svg
   version="1.1"
   id="svg2"
   width="130.28752"
   height="98.25148"
   viewBox="0 0 130.28752 98.25148"
   xmlns="http://www.w3.org/2000/svg"
   xmlns:svg="http://www.w3.org/2000/svg">
  <defs
     id="defs6">
    <linearGradient
       id="swatch77">
      <stop
         style="stop-color:#e2c69e;stop-opacity:1;"
         offset="0"
         id="stop77" />
    </linearGradient>
  </defs>
  <g
     id="layer66"
     style="display:inline"
     transform="translate(-1011.7839,-445.58265)">
    <g
       id="layer62"
       style="display:inline">
      <path
         style="display:inline;fill:#969696;fill-opacity:1;stroke:none;stroke-opacity:1"
         d="m 1026.875,500.8125 c -0.1339,0.65771 -0.2772,1.32848 -0.3125,2 -0.02,0.3832 0.049,0.85445 0,1.25 -0.1683,1.34641 -0.054,0.3307 -0.1875,1 -0.037,0.18499 0,0.38353 -0.062,0.5625 -0.024,0.0713 -0.1044,0.11527 -0.125,0.1875 -0.023,0.0801 0.023,0.16987 0,0.25 -0.033,0.1168 -0.1491,0.19725 -0.1875,0.3125 -0.027,0.0815 -0.018,0.17634 -0.062,0.25 -0.024,0.0399 -0.092,0.0296 -0.125,0.0625 -0.1395,0.13952 -0.1947,0.37981 -0.375,0.5 -0.6837,0.45577 0.3889,-0.48295 -0.8125,0.5 -0.081,0.066 -0.094,0.20341 -0.1875,0.25 -0.3513,0.17567 -0.093,0.0305 -0.3125,0.25 -0.023,0.0233 -0.2084,0.1182 -0.25,0.1875 -0.1756,0.29273 -0.3734,0.62108 -0.5,0.9375 -0.032,0.0797 -0.02,0.17542 -0.062,0.25 -0.3333,0.58333 -0.083,0 -0.25,0.25 -0.042,0.0627 -0.2374,0.45588 -0.25,0.5 -0.029,0.10214 -0.023,0.21387 -0.062,0.3125 -0.01,0.0193 -0.048,-0.0147 -0.062,0 -0.053,0.0531 -0.091,0.12031 -0.125,0.1875 -0.151,0.30194 -0.3342,0.7261 -0.5625,1 -0.03,0.0358 -0.083,0.0417 -0.125,0.0625 -0.042,0.0625 -0.086,0.12309 -0.125,0.1875 -0.1379,0.22983 -0.1519,0.50462 -0.25,0.75 -0.2222,0.55555 0.25,-0.83333 -0.25,0.5 -0.015,0.039 0.016,0.0867 0,0.125 -0.1016,0.23696 -0.2778,0.4446 -0.375,0.6875 -0.122,0.305 -0.2299,0.64724 -0.375,0.9375 -0.026,0.0527 -0.09,0.0779 -0.125,0.125 -0.082,0.11 -0.105,0.265 -0.1875,0.375 -0.035,0.0471 -0.095,0.0745 -0.125,0.125 -0.053,0.0879 -0.2913,0.55095 -0.3125,0.625 -0.017,0.0601 0.023,0.12947 0,0.1875 -0.022,0.0547 -0.092,0.076 -0.125,0.125 -0.1941,0.2912 -0.3198,0.63709 -0.5,0.9375 -0.068,0.11358 -0.1771,0.2032 -0.25,0.3125 -0.048,0.0715 -0.015,0.17853 -0.062,0.25 -0.026,0.0388 -0.099,0.0237 -0.125,0.0625 -0.023,0.0347 0.015,0.0863 0,0.125 -0.063,0.15792 -0.1858,0.18407 -0.25,0.3125 -0.029,0.0589 -0.033,0.12857 -0.062,0.1875 -0.039,0.0791 -0.142,0.11171 -0.1875,0.1875 -0.034,0.0565 -0.029,0.13101 -0.062,0.1875 -0.03,0.0505 -0.091,0.077 -0.125,0.125 -0.2026,0.28364 -0.3427,0.60029 -0.5625,0.875 -0.065,0.0813 -0.1138,0.17634 -0.1875,0.25 -0.033,0.0329 -0.101,0.0226 -0.125,0.0625 -0.044,0.0737 -0.018,0.17634 -0.062,0.25 -0.024,0.0399 -0.092,0.0296 -0.125,0.0625 -0.015,0.0147 0.012,0.0452 0,0.0625 -0.085,0.12677 -0.2808,0.26509 -0.375,0.375 -0.087,0.10128 -0.1903,0.19318 -0.25,0.3125 -0.01,0.0186 0.015,0.0478 0,0.0625 -0.033,0.0329 -0.092,0.0296 -0.125,0.0625 -0.096,0.0964 -0.2851,0.49009 -0.375,0.625 -0.089,0.1331 -0.2165,0.24695 -0.3125,0.375 -0.072,0.0957 -0.1157,0.21679 -0.1875,0.3125 -0.035,0.0471 -0.096,0.0735 -0.125,0.125 -0.077,0.13869 -0.1123,0.2978 -0.1875,0.4375 -0.1228,0.22809 -0.2972,0.41456 -0.4375,0.625 -0.033,0.0491 -0.2275,0.43261 -0.25,0.5 -0.013,0.0395 0.019,0.0877 0,0.125 -0.15,0.30007 -0.36,0.59506 -0.5,0.875 -0.05,0.10035 -0.09,0.20607 -0.125,0.3125 -0.018,0.0527 0.025,0.13814 0,0.1875 -0.2484,0.49689 -0.4071,1.13024 -0.5,1.6875 -0.022,0.12997 -0.066,0.25715 -0.125,0.375 -0.026,0.0527 -0.1064,0.0691 -0.125,0.125 -0.051,0.15207 -0.071,0.33898 -0.125,0.5 -0.045,0.134 -0.1499,0.32471 -0.1875,0.4375 -0.026,0.0791 0.02,0.16915 0,0.25 -0.023,0.0904 -0.1024,0.15961 -0.125,0.25 -0.092,0.36918 0.01,0.95473 -0.062,1.3125 -0.029,0.14694 -0.151,0.29164 -0.1875,0.4375 -0.044,0.17522 0.02,0.46748 0,0.625 -0.01,0.0462 -0.048,0.0808 -0.062,0.125 -0.031,0.0937 0.062,0.0625 0,0.1875 -0.026,0.0527 -0.092,0.076 -0.125,0.125 -0.035,0.052 0.015,0.12686 0,0.1875 -0.011,0.0452 -0.048,0.0808 -0.062,0.125 -0.033,0.0988 0.01,0.20885 0,0.3125 -0.021,0.20812 -0.095,0.68986 -0.1875,0.875 -0.1022,0.20444 0.062,1.6113 -0.01,2.12069 0.076,0.35997 0.1743,0.59292 0.3703,0.71352 1.1518,0.70885 2.4691,0.68061 3.7565,0.88388 0.4282,0.0676 0.8648,0.10188 1.2816,0.22098 0.2644,0.0755 0.6225,0.2216 0.8839,0.26516 0.1316,0.0219 0.2661,0.0223 0.3977,0.0442 0.1317,0.0219 0.1806,0.0843 0.3094,0.13259 0.2694,0.10103 0.6027,0.17772 0.8839,0.22097 0.058,0.009 0.1192,-0.0128 0.1767,0 0.2148,0.0477 0.3962,0.18918 0.6188,0.22097 1.044,0.14915 2.1021,0.23481 3.1378,0.44194 0.2407,0.0481 0.4974,0.15139 0.7513,0.17678 0.073,0.007 0.1481,-0.0109 0.2209,0 0.2972,0.0446 0.5853,0.14359 0.8839,0.17677 0.8213,0.0913 1.6573,0.14837 2.4749,0.26517 0.4402,0.0629 0.8818,0.18925 1.3258,0.22097 0.1176,0.008 0.2361,-0.01 0.3536,0 0.5081,0.0423 0.9974,0.13792 1.5026,0.17678 0.1909,0.0147 0.3836,-0.0153 0.5745,0 0.2805,0.0224 0.5606,0.052 0.8397,0.0884 0.3205,0.0418 0.6523,0.0726 0.9722,0.13259 0.1335,0.025 0.263,0.0715 0.3978,0.0884 0.1023,0.0128 0.2065,-0.007 0.3094,0 0.2889,0.0193 0.5522,0.11047 0.8396,0.13258 0.4699,0.0361 0.9443,0.0738 1.4143,0.13258 0.3218,0.0402 0.1313,0.0575 0.4861,0.0884 0.7945,0.0691 1.5953,0.11548 2.3865,0.22097 0.7361,0.0981 1.4648,0.33003 2.2097,0.39775 0.1467,0.0133 0.2955,-0.0163 0.4419,0 0.203,0.0226 0.4176,0.0924 0.6187,0.13258 0.2115,0.0423 0.4045,0.0494 0.6188,0.0884 0.2191,0.0398 0.4422,0.10806 0.6629,0.13258 0.1171,0.013 0.238,-0.0231 0.3535,0 0.094,0.0187 0.1725,0.10941 0.2652,0.13258 0.3295,0.0824 0.6442,0.22097 0.9723,0.22097 0.1031,-0.0147 0.2056,-0.0348 0.3093,-0.0442 0.2726,-0.0248 0.5658,0 0.8397,0 h 1.8562 6.0988 2.0771 c 0.444,0 0.8838,-0.0111 1.3258,0.0442 0.8338,0.10423 0.4231,0.0649 1.2817,0.22098 0.5688,0.10342 1.1571,0.10768 1.7235,0.22097 0.1052,0.021 0.2063,0.0589 0.3094,0.0884 0.2357,0.0295 0.4728,0.0493 0.7071,0.0884 0.4932,0.0822 0.9745,0.23258 1.4584,0.35356 0.415,0.10375 0.8602,0.11931 1.2816,0.17677 0.578,0.0788 0.3544,0.0973 0.8839,0.13259 1.5961,0.1064 3.2154,0.0442 4.8172,0.0442 0.4065,0 0.832,-0.0312 1.2374,0 0.2514,0.0193 0.4998,0.071 0.7513,0.0884 0.4177,0.0288 0.8621,0 1.2816,0 h 2.4749 c 0.8919,0 1.8056,0.0556 2.6959,0 0.2662,-0.0166 0.533,-0.0407 0.7955,-0.0884 0.362,-0.0658 0.7135,-0.31572 1.0606,-0.44194 0.1008,-0.0367 0.2086,-0.0517 0.3094,-0.0884 0.3108,-0.11302 0.3115,-0.20386 0.7071,-0.30936 0.087,-0.0231 0.1793,-0.0184 0.2651,-0.0442 0.063,-0.0189 0.1125,-0.0741 0.1768,-0.0884 0.4546,-0.10102 0.1036,0.0202 0.2652,0 0.3793,-0.0474 0.7734,-0.0347 1.149,-0.0884 0.033,-0.005 0.056,-0.0377 0.088,-0.0442 0.043,-0.009 0.089,0.007 0.1326,0 0.2371,-0.0395 0.4803,-0.12007 0.7071,-0.17678 0.1316,-0.0329 0.3077,0 0.442,0 0.2653,0.0442 0.5277,0.11243 0.7959,0.13253 0.3231,0.0242 0.6481,0 0.9722,0 0.6629,0 1.3262,0.0204 1.9888,0 0.2959,-0.009 0.5882,-0.0728 0.8838,-0.0884 0.5444,-0.0286 1.0902,0 1.6352,0 h 2.4307 4.3752 c 0.8198,0 1.6573,-0.043 2.4749,0 0.457,0.024 0.9129,0.0661 1.37,0.0884 1.1425,0.0557 2.3029,0 3.4472,0 h 1.5026 c 0.2521,0 0.5467,0.0383 0.7955,0 0.106,-0.0163 0.2048,-0.0643 0.3093,-0.0884 0.3486,-0.0804 0.7104,-0.10063 1.0607,-0.17677 0.2096,-0.0456 0.4084,-0.13472 0.6187,-0.17678 0.3287,-0.0657 0.6834,-0.0909 1.0165,-0.13258 0.2093,-0.0262 0.4104,-0.0997 0.6187,-0.13259 0.4164,-0.0657 0.3863,-0.0154 0.7513,-0.0884 0.3608,-0.0722 0.7504,-0.14043 1.1048,-0.22097 0.091,-0.0207 0.1739,-0.0701 0.2652,-0.0884 0.6875,-0.1375 0.1458,0.0298 0.6187,-0.0884 0.528,-0.13199 1.0743,-0.22553 1.591,-0.39775 0.1194,-0.0398 0.2311,-0.10375 0.3536,-0.13258 0.3058,-0.072 0.6195,-0.0305 0.9281,-0.0884 0.3393,-0.0636 0.5299,-0.13745 0.8838,-0.17678 0.2636,-0.0293 0.5304,0 0.7955,0 h 1.6794 5.4801 c 0.9341,0.14013 1.885,0.0884 2.542,-0.0883 -0.2865,-0.69751 -0.3881,-1.89159 -0.2865,-2.29807 0.016,-0.0639 0.072,-0.11288 0.088,-0.17678 0.036,-0.14291 -0.029,-0.29749 0,-0.44194 0.063,-0.31314 0.2111,-0.64785 0.2651,-0.97227 0.053,-0.321 -0.1551,-0.66577 0.088,-0.97227 0.06,-0.36104 0.099,-0.37544 0.2652,-0.70711 0.032,-0.14381 -0.013,-0.29523 0,-0.44194 0.038,-0.41496 0.1018,-0.82749 0.1768,-1.23744 0.1417,-0.77936 0.3045,-1.28776 0.3535,-2.12132 0.038,-0.64145 -0.071,-1.30606 0,-1.94454 0.046,-0.41412 0.1018,-0.82749 0.1768,-1.23744 0.011,-0.0648 0.078,-0.11138 0.088,-0.17678 0.022,-0.17541 -0.014,-0.35407 0,-0.53033 0.088,-1.17481 0.113,-2.35269 -4e-4,-4.28683 -0.088,-0.9696 -0.2056,-1.87151 -0.088,-1.98874 0.042,-0.0417 0.1508,0.0527 0.1768,0 0.1707,-0.34144 -0.09,-1.0552 0,-1.41421 0.02,-0.0809 0.1568,-0.096 0.1768,-0.17678 0.043,-0.1715 -0.025,-0.35533 0,-0.53033 0.1114,-0.78021 0.1669,-1.7286 0.3535,-2.47487 0.032,-0.12783 0.1578,-0.22312 0.1768,-0.35356 0.042,-0.29166 -0.032,-0.59106 0,-0.88388 0.093,-0.83991 0.4593,-1.61845 0.5303,-2.47488 0.1568,-1.87745 0.02,-3.77945 0.1768,-5.65685 0.039,-0.47343 0.1178,-0.94281 0.1768,-1.41421 0.059,-0.0589 0.1667,-0.0941 0.1767,-0.17678 0.1965,-1.57135 -0.084,-0.75761 0,-1.76777 0.098,-1.18029 0.2152,-2.35925 0.3536,-3.53553 0.3407,-2.89602 0.8909,-5.7743 1.2374,-8.66206 0.3589,-2.99083 0.096,-6.0139 1.1491,-9.19239 0.9723,-0.87916 1.3654,-1.43542 1.5026,-2.12132 0.1568,-0.7816 -0.016,-1.70391 0.1768,-2.47487 0.02,-0.0809 0.1507,-0.0977 0.1767,-0.17678 0.1234,-0.36995 -0.077,-0.85266 0,-1.23743 0.1088,-0.54403 0.41,-1.04926 0.5304,-1.59099 0.2862,-1.28826 0.1083,-2.62318 0.5303,-3.88909 0.3087,-0.92601 0.7998,-1.77635 1.2374,-2.65165 0.1419,-0.28383 0.1632,-0.63003 0.3536,-0.88389 0.15,-0.2 0.4017,-0.31595 0.5303,-0.53033 0.061,-0.10105 -0.053,-0.24814 0,-0.35355 0.075,-0.14907 0.2616,-0.21488 0.3536,-0.35355 0.1462,-0.21927 0.1954,-0.49629 0.3535,-0.70711 0.035,-0.0471 0.1438,0.049 0.1768,0 0.5258,-0.78875 0.674,-1.78164 1.0607,-2.65165 0.1929,-0.43413 0.5199,-0.80078 0.7071,-1.23744 0.4789,-1.1175 0.1767,-2.8787 0.1767,-4.06586 0,-1.36723 0.1936,-2.88774 0,-4.24264 -0.023,-0.16061 -0.2255,-1.22221 -0.3535,-1.41421 -0.033,-0.049 -0.1178,0 -0.1768,0 -0.059,-0.23571 -0.1178,-0.47141 -0.1768,-0.70711 -0.2603,-1.82254 -1.1174,-3.49802 -2.56,-5.24016 -0.5442,-0.008 -1.1185,-0.22369 -1.7103,-0.0922 -0.5593,0.1243 -1.1769,0.4181 -1.75,0.5 -1.0312,0.14731 -2.2108,0 -3.25,0 -1.4401,0 -2.9444,-0.14306 -4.375,0 -0.8768,0.0877 -1.7514,0.22939 -2.625,0.375 -0.2055,0.0342 -0.4179,-0.023 -0.625,0 -0.7666,0.0852 -1.3907,0.56643 -2.125,0.75 -0.3449,0.0862 -1.3078,0.1905 -1.625,0.25 -0.3776,0.0708 -0.7442,0.1992 -1.125,0.25 -0.2478,0.033 -0.5009,-0.0208 -0.75,0 -1.3772,0.11477 -0.1277,0.10054 -1.5,0.375 -1.3233,0.26465 -2.6773,0.33106 -4,0.625 -0.4638,0.10306 -0.9167,0.25 -1.375,0.375 -0.2083,0.0833 -0.4073,0.1956 -0.625,0.25 -1.0679,0.26697 -2.1996,0.39986 -3.25,0.75 -0.5926,0.19753 -1.1353,0.59631 -1.75,0.75 -0.1213,0.0303 -0.2551,-0.0353 -0.375,0 -2.1731,0.63915 -4.2362,1.53707 -6.375,2.25 -0.7784,0.25946 -0.5205,0.0245 -1.375,0.125 -1.4184,0.16687 -2.8405,0.51508 -4.25,0.75 -1.0284,0.1714 -2.2248,0.24369 -3.25,0.5 -1.386,0.34649 0.2387,0.21021 -1.5,0.5 -0.2055,0.0342 -0.4229,-0.0505 -0.625,0 -0.1457,0.0364 -0.2406,0.1828 -0.375,0.25 -0.2007,0.10035 -0.4101,0.1855 -0.625,0.25 -0.9002,0.27005 -1.8257,0.56515 -2.75,0.75 -0.4971,0.0994 -1.0082,0.12706 -1.5,0.25 -0.7849,0.19624 -1.4791,0.74304 -2.25,1 -1.3271,0.44237 -2.6951,0.71269 -4,1.25 -0.6026,0.24814 -1.5369,0.90445 -2.125,1.125 -0.1989,0.0746 -0.4167,0.0833 -0.5256,0.46503 0.394,0.63466 0.7411,0.88486 0.9832,1.22392 0.031,0.0432 0.035,2.01668 0,2.12132 -0.1483,0.44488 -0.6673,0.62164 -1.0606,0.88388 -0.4368,0.29116 -1.0131,0.96551 -1.2375,1.41422 -0.026,0.0527 0.042,0.13511 0,0.17677 -0.284,0.28401 -0.7672,0.59048 -1.0606,0.88389 -0.042,0.0417 0.035,0.12963 0,0.17677 -0.462,0.616 -1.1662,1.13053 -1.591,1.76777 -0.8167,1.2251 0.4632,-0.51799 -0.3536,0.70711 -0.2182,0.32735 -0.7087,0.53364 -0.8838,0.88388 -0.2177,0.43539 0.5131,-0.15958 -0.1768,0.53033 -0.084,0.0844 -0.5844,0.26151 -0.7071,0.35355 -0.9004,0.67526 -1.3562,1.70972 -2.1214,2.47488 -0.042,0.0417 -0.144,-0.049 -0.1767,0 -0.1034,0.15504 -0.094,0.36366 -0.1768,0.53033 -0.1348,0.26959 -0.5159,0.86947 -0.7071,1.06066 -0.042,0.0417 -0.1351,-0.0417 -0.1768,0 -0.2026,0.20258 -0.3277,0.6813 -0.5303,0.88388 -0.042,0.0417 -0.1278,-0.0327 -0.1768,0 -0.5303,0.35356 -0.1768,0.26517 -0.5303,0.53033 -0.3756,0.28165 -0.896,0.47947 -1.2375,0.70711 -0.2039,0.13598 -0.3263,0.39435 -0.5303,0.53033 -0.2399,0.15993 -0.4902,0.24509 -0.7071,0.35355 -0.2236,0.11181 -0.3303,0.38033 -0.5303,0.53033 -0.253,0.18976 -0.5198,0.24929 -0.7071,0.53033 -0.351,0.15932 -0.068,0.4898 -0.1768,0.70711 -0.026,0.0527 -0.1351,-0.0417 -0.1768,0 -0.1863,0.18634 -0.2702,0.45711 -0.3535,0.70711 -0.068,0.20232 -0.1536,1.89092 0,2.12132 0.2284,0.34264 1.0736,0.57086 1.4142,0.7071 0.9084,0.36337 -0.4034,-0.0249 1.0606,0.70711 0.1054,0.0527 0.2418,-0.0373 0.3536,0 0.5518,0.18393 -0.059,0.11785 0.1768,0.35355 0.2316,0.23167 0.8884,0.35813 1.0606,0.53033 0.093,0.0932 0.1037,0.24393 0.1768,0.35356 0.2707,0.40612 0.101,-0.0758 0.5303,0.35355 0.1028,0.10274 0.1025,0.55855 0.1768,0.70711 0.095,0.1901 0.4642,0.61929 0.5303,0.88388 0.1265,0.50578 0.086,1.50686 -0.1767,1.94454 -0.4897,0.81615 -1.0327,0.74734 -1.7678,1.23744 -0.069,0.0462 -0.096,0.15657 -0.1768,0.17678 -0.2773,0.0693 -0.6066,-0.0693 -0.8839,0 -0.3531,0.0883 -0.5934,0.38509 -0.8839,0.53033 -0.2328,0.1164 -0.6357,-0.0827 -0.8838,0 -0.079,0.0263 -0.098,0.15042 -0.1768,0.17677 -0.1118,0.0373 -0.2357,0 -0.3536,0 -0.1178,0.0589 -0.2285,0.13511 -0.3535,0.17678 -0.1591,0.053 -0.3713,-0.053 -0.5304,0 -0.079,0.0263 -0.1022,0.13951 -0.1767,0.17678 -0.3199,0.15995 -0.754,0.0541 -1.0607,0.17677 -0.6662,0.26648 -0.5405,0.35611 -1.2374,0.53034 -0.3047,0.0762 -0.7831,-0.13881 -1.0607,0 -0.053,0.0263 0.047,0.14142 0,0.17677 -1.4289,1.07165 -0.1679,0.056 -1.0606,0.35356 -0.4321,0.14402 -0.9311,0.54604 -1.4143,0.7071 -0.4002,0.13342 -0.8334,0.096 -1.2374,0.17678 -0.3775,0.0755 -0.6492,0.31241 -1.0607,0.35355 -0.9835,0.0984 -2.0256,-0.13993 -3.0052,0 -1.3987,0.19982 -2.8722,0.40259 -4.2426,0.70711 -0.6006,0.13345 -1.2559,0.18908 -1.7678,0.53033 -0.1386,0.0924 -0.2106,0.2678 -0.3535,0.35355 -0.4644,0.27864 -0.9303,0.11159 -1.4142,0.35356 -0.1491,0.0745 -0.1955,0.30084 -0.3536,0.35355 -0.1118,0.0373 -0.2417,-0.0373 -0.3535,0 -0.3141,0.10469 -0.5875,0.6083 -0.8839,0.70711 -0.1118,0.0373 -0.2418,-0.0373 -0.3536,0 -0.2507,0.0836 -0.2524,0.42918 -0.3535,0.53033 -0.42,0.41994 -1.2047,1.04974 -1.7678,1.23743 -0.1118,0.0373 -0.2555,-0.0654 -0.3536,0 -0.6459,0.43062 0.1896,0.25878 -0.3535,0.53033 -0.5444,0.27221 -1.21,0.21413 -1.7678,0.35356 -0.3505,0.0876 -0.5589,0.36784 -0.8839,0.53033 -0.3638,0.18193 -4.0073,0 -4.7729,0"
         id="path19" />
    </g>
  </g>
</svg>
