<?xml version="1.0" encoding="UTF-8" standalone="no"?>
<!-- Created with Inkscape (http://www.inkscape.org/) -->

<svg
   version="1.1"
   id="svg1"
   width="132"
   height="97.375"
   viewBox="0 0 132 97.375"
   xmlns="http://www.w3.org/2000/svg"
   xmlns:svg="http://www.w3.org/2000/svg">
  <defs
     id="defs1" />
  <g
     id="layer1"
     style="display:inline"
     transform="translate(-1010.3125,-445.81249)">
    <g
       id="layer73"
       style="display:inline;fill:#ffffff;fill-opacity:1;stroke:none">
      <path
         style="fill:#ffffff;fill-opacity:1;stroke:none;stroke-linecap:round"
         d="m 1026,500.56249 v 3.625 l -7.125,11.875 -8.5625,20.375 32.875,5.9375 31.3125,0.8125 32.5625,-0.3125 21.25,-2.4375 -0.125,-7.875 1.5,-8.9375 -1.6875,-7.9375 3.4375,-16.375 1.75,-17.25 -0.25,-7.125 2.5,-5.375 3.25,-3.4375 2.4375,-5.5 1.1875,-6 -1.8125,-7 -1.1875,-1.75 -6.6875,-0.0625 -26.9375,3.625 -30.9375,10.9375 0.5625,1.5 -0.1875,2.5 -5.4375,6.625 -0.8125,3 -6.4375,5.0625 -2.5625,1 0.25,2.125 2,0.375 2,2.0625 0.625,4.1875 -2.9375,2.625 -7.5625,0.25 -6.125,1.3125 -5.8125,2.3125 -4.625,2.625 -3,2.5 z"
         id="path72" />
    </g>
  </g>
</svg>
