<?xml version="1.0" encoding="UTF-8" standalone="no"?>
<!-- Created with Inkscape (http://www.inkscape.org/) -->

<svg
   version="1.1"
   id="svg1"
   width="188.84171"
   height="104.91696"
   viewBox="0 0 188.84171 104.91696"
   xmlns="http://www.w3.org/2000/svg"
   xmlns:svg="http://www.w3.org/2000/svg">
  <defs
     id="defs1" />
  <g
     id="layer1"
     style="display:inline"
     transform="translate(-75.660424,-231.26812)">
    <g
       id="layer74"
       style="display:inline;fill:#ffffff;fill-opacity:1;stroke:none">
      <path
         style="fill:#ffffff;fill-opacity:1;stroke:none;stroke-linecap:round"
         d="m 79.903066,336.18508 18.119611,-1.14905 2.740043,-4.19845 4.99394,-1.59099 53.0772,-2.60745 10.56241,4.72877 0.22097,2.43068 7.51301,-13.03728 7.24784,-8.66206 2.74004,-2.91681 1.41422,-6.0988 6.27557,-13.03728 4.99394,-2.74004 40.57025,-13.47922 4.86136,-4.24264 5.17072,-2.65165 3.62392,0.0442 2.12132,-3.53553 1.5026,-1.01647 6.8501,-8.22011 -2.56326,-12.10921 -2.38649,-3.71231 v -0.83969 l -21.52256,1.14905 -23.90905,-7.42462 -25.7652,0.83969 -12.72792,11.04854 -11.88824,12.24179 -23.15774,3.0052 -9.45756,10.07628 -7.68978,1.19324 -12.24179,6.49654 -6.98268,6.40816 -11.004348,5.65685 -6.805902,6.71752 -0.08839,14.89343 -6.010407,4.33103 -1.988738,6.31977 -2.032932,2.82843 -0.618719,6.85009 z"
         id="path73" />
    </g>
  </g>
</svg>
