<?xml version="1.0" encoding="UTF-8" standalone="no"?>
<!-- Created with Inkscape (http://www.inkscape.org/) -->

<svg
   version="1.1"
   id="svg2"
   width="188.62796"
   height="105.51269"
   viewBox="0 0 188.62796 105.51269"
   xmlns="http://www.w3.org/2000/svg"
   xmlns:svg="http://www.w3.org/2000/svg">
  <defs
     id="defs6">
    <linearGradient
       id="swatch77">
      <stop
         style="stop-color:#e2c69e;stop-opacity:1;"
         offset="0"
         id="stop77" />
    </linearGradient>
  </defs>
  <g
     id="layer66"
     style="display:inline"
     transform="translate(-75.346664,-231.36047)">
    <g
       id="layer5"
       style="display:inline">
      <path
         style="display:inline;fill:#969696;fill-opacity:1;stroke:none;stroke-opacity:1"
         d="m 173.59472,328.53954 c 0.10075,-0.15111 0.38145,-0.81103 0.44195,-0.97227 0.0426,-0.11375 0.0281,-0.24809 0.0884,-0.35356 0.062,-0.10853 0.19247,-0.16345 0.26517,-0.26516 0.16321,-0.2285 0.20676,-0.48692 0.35355,-0.70711 0.0693,-0.10401 0.19587,-0.16116 0.26517,-0.26516 0.10658,-0.15988 0.17336,-0.46567 0.26516,-0.61872 0.0758,-0.12632 0.19927,-0.22179 0.26517,-0.35356 0.0263,-0.0527 -0.0303,-0.12627 0,-0.17677 0.0643,-0.10719 0.19016,-0.16517 0.26516,-0.26517 0.0449,-0.0598 0.0389,-0.30405 0.0884,-0.35355 0.0466,-0.0466 0.14728,-0.0295 0.17678,-0.0884 0.17282,-0.34565 0.15766,-0.84565 0.35355,-1.23744 0.0659,-0.13176 0.21857,-0.2138 0.26517,-0.35355 0.0475,-0.14252 0.0471,-0.29749 0.0884,-0.44194 0.12741,-0.44592 0.42268,-1.02213 0.61872,-1.41422 0.20907,-0.41813 0.44324,-0.79873 0.61872,-1.23743 0.0451,-0.11279 0.0341,-0.2449 0.0884,-0.35356 0.0132,-0.0263 0.0794,0.028 0.0884,0 0.028,-0.0838 -0.0395,-0.18606 0,-0.26516 0.0559,-0.1118 0.18516,-0.16917 0.26516,-0.26517 0.65157,-0.97735 -0.19003,0.19003 0.35356,-0.35355 0.0208,-0.0208 -0.0208,-0.0676 0,-0.0884 0.0466,-0.0466 0.13017,-0.0418 0.17677,-0.0884 0.16877,-0.16877 0.21147,-0.45774 0.26517,-0.61871 0.0729,-0.21884 0.34974,-0.43432 0.44194,-0.61872 0.0241,-0.0483 0.69147,-0.58575 0.7955,-0.70711 0.49505,-0.57756 1.01318,-1.09573 1.59099,-1.59099 0.26943,-0.23095 1.04871,-0.77757 1.23743,-1.06066 0.0731,-0.10963 0.0945,-0.25066 0.17678,-0.35355 0.0539,-0.0674 0.40584,-0.15618 0.44194,-0.17678 0.22754,-0.13002 0.5428,-0.42703 0.70711,-0.61872 0.33614,-0.39216 0.45286,-0.7925 0.7071,-1.23744 0.2423,-0.42402 0.21134,-0.18055 0.44195,-0.79549 0.0207,-0.0552 -0.0186,-0.12088 0,-0.17678 0.0466,-0.13975 0.19926,-0.22179 0.26516,-0.35355 0.071,-0.14191 0.10578,-0.30003 0.17678,-0.44194 0.0563,-0.11267 0.22626,-0.23672 0.26516,-0.35356 0.0186,-0.0559 -0.0327,-0.12777 0,-0.17677 0.21527,-0.32297 0.12939,0.0948 0.26517,-0.17678 0.22879,-0.45759 0.55748,-0.93819 0.79549,-1.41421 0.0672,-0.13437 0.0212,-0.30757 0.0884,-0.44194 0.0132,-0.0264 0.0814,0.0286 0.0884,0 0.0437,-0.17491 -0.0592,-0.44125 0,-0.61872 0.0605,-0.18148 0.21877,-0.25619 0.26517,-0.44194 0.0538,-0.21504 9e-4,-0.50298 0.0884,-0.70711 0.63473,-1.48104 -0.0981,0.88362 0.35356,-1.14905 0.009,-0.0407 0.0715,-0.0503 0.0884,-0.0884 0.10223,-0.23003 0.17916,-0.47053 0.26516,-0.7071 0.11687,-0.32141 0.24694,-0.65244 0.35355,-0.97228 0.0186,-0.0559 -0.0186,-0.12087 0,-0.17677 0.0132,-0.0395 0.0752,-0.0489 0.0884,-0.0884 0.0186,-0.0559 -0.0186,-0.12088 0,-0.17678 0.0543,-0.16298 0.22347,-0.27527 0.26517,-0.44194 0.0214,-0.0857 -0.0279,-0.18127 0,-0.26517 -0.36607,-0.71724 0.22566,-0.14657 0.26516,-0.26516 0.0885,-0.26536 -0.003,-0.6102 0.0884,-0.88388 0.0132,-0.0395 0.0697,-0.0511 0.0884,-0.0884 0.26692,-0.53384 -0.0127,-0.0374 0.0884,-0.44194 0.11827,-0.4731 0.41112,-0.93739 0.53033,-1.41422 0.0491,-0.19642 -0.0737,-0.22097 0,-0.44194 0.0466,-0.13975 0.22946,-0.21064 0.26516,-0.35355 0.0505,-0.20212 0.0336,-0.41773 0.0884,-0.61872 0.077,-0.28233 0.52682,-0.86143 0.61872,-1.06066 0.0781,-0.16919 0.0934,-0.36366 0.17678,-0.53033 0.1029,-0.20582 0.32777,-0.33054 0.44194,-0.53033 0.16134,-0.28236 0.19665,-0.63859 0.44194,-0.88388 0.45175,-0.4517 -0.12328,0.37061 0.35355,-0.26517 0.16707,-0.22275 0.27991,-0.48026 0.44194,-0.70711 0.0727,-0.10171 0.18707,-0.16756 0.26517,-0.26516 0.14308,-0.17887 0.0491,-0.22917 0.17678,-0.44194 -0.12143,-0.44761 0.20626,-0.0884 0.26516,-0.17678 0.0517,-0.0775 0.0467,-0.18187 0.0884,-0.26517 0.104,-0.208 0.40544,-0.27541 0.53033,-0.44194 0.0354,-0.0471 -0.0327,-0.12777 0,-0.17677 0.0589,-0.0884 0.19006,-0.10168 0.26516,-0.17678 0.1334,-0.1334 0.20624,-0.32409 0.35356,-0.44194 0.0728,-0.0582 0.18766,-0.0367 0.26516,-0.0884 0.0245,-0.0163 -0.0208,-0.0676 0,-0.0884 0.0441,-0.0441 1.37242,-0.77459 1.41422,-0.79549 0.15303,-0.0765 0.23287,0.0371 0.44194,-0.0884 0.0715,-0.0429 0.11007,-0.12678 0.17677,-0.17678 0.19048,-0.14288 0.21276,-0.0494 0.44195,-0.17678 0.18572,-0.10317 0.34381,-0.25181 0.53033,-0.35355 0.13929,-0.076 0.30589,-0.0951 0.44194,-0.17678 0.0253,-0.0152 -0.0245,-0.072 0,-0.0884 0.0775,-0.0517 0.18186,-0.0467 0.26516,-0.0884 0.19003,-0.095 0.3403,-0.25856 0.53033,-0.35356 0.0833,-0.0417 0.18337,-0.0438 0.26517,-0.0884 0.40584,-0.22137 0.88236,-0.60544 1.32582,-0.7955 0.26587,-0.11398 0.52963,-0.0628 0.7955,-0.17678 0.0766,-0.0328 0.10438,-0.13547 0.17678,-0.17677 0.45786,-0.26164 1.01937,-0.41163 1.5026,-0.61872 0.15468,-0.0663 0.39775,-0.22097 0.53033,-0.26517 0.0559,-0.0186 0.12047,0.0173 0.17677,0 0.90089,-0.27719 1.7607,-0.67528 2.65165,-0.97227 1.02085,-0.34028 1.98105,-0.89605 3.00521,-1.23743 0.20348,-0.0678 0.41881,-0.099 0.61872,-0.17678 0.44293,-0.17225 0.90924,-0.41043 1.32582,-0.61872 0.29863,-0.14932 0.65886,-0.16069 0.97227,-0.26516 0.39651,-0.13217 0.70928,-0.42039 1.14905,-0.53034 0.20212,-0.0505 0.41917,-0.0285 0.61872,-0.0884 0.10175,-0.0305 0.17677,-0.11788 0.26517,-0.17678 0.11785,-0.0295 0.23496,-0.062 0.35355,-0.0884 0.45104,-0.10028 0.98015,-0.0466 1.41421,-0.17678 0.24112,-0.0723 0.46097,-0.21246 0.70711,-0.26516 0.17285,-0.037 0.35596,0.0291 0.53033,0 0.30342,-0.0506 0.58361,-0.19847 0.88388,-0.26517 1.35601,-0.30133 2.64981,-0.64035 3.97748,-0.97227 0.56334,-0.14083 1.05234,-0.40326 1.59099,-0.61872 0.29138,-0.11657 0.602,-0.0358 0.88388,-0.17677 0.0264,-0.0132 -0.0264,-0.0752 0,-0.0884 0.46905,-0.23452 0.21044,0.002 0.61872,-0.0884 0.3638,-0.0808 0.69686,-0.27275 1.06066,-0.35355 0.48313,-0.1074 1.11415,0.007 1.59099,-0.0884 0.38375,-0.0768 0.34959,-0.15751 0.61872,-0.26517 0.0658,-0.1642 0.33341,-0.0522 0.44194,-0.0884 0.16298,-0.0543 0.27896,-0.21087 0.44194,-0.26517 0.1591,-0.053 0.37123,0.053 0.53033,0 0.13344,-0.0445 0.31001,-0.20866 0.44195,-0.26516 0.11165,-0.0479 0.2449,-0.0341 0.35355,-0.0884 0.0745,-0.0373 0.10528,-0.13388 0.17678,-0.17678 0.16619,-0.0997 0.51593,-0.21736 0.7071,-0.26516 0.0572,-0.0143 0.12408,0.0263 0.17678,0 0.0745,-0.0373 0.10228,-0.13948 0.17678,-0.17678 0.0527,-0.0263 0.11957,0.0143 0.17677,0 0.25214,-0.063 0.40363,-0.3344 0.61872,-0.44194 0.21767,-0.1088 -0.0798,0.25657 0.26517,-0.0884 0.0157,-0.0157 0.11397,-0.20237 0.17677,-0.26517 0.68774,-0.30072 1.41524,-0.0885 2.12114,-0.26492 0.50173,-0.12543 0.89238,-0.31361 1.32583,-0.53033 0.17818,-0.0891 0.43108,-0.083 0.61872,-0.17678 0.52279,-0.26139 1.09143,-0.55084 1.59099,-0.88388 0.41281,-0.27521 0.80589,-0.62496 1.23743,-0.88388 0.20486,-0.12292 0.4927,-0.28114 0.70711,-0.44195 0.27078,-0.20306 -0.14492,0.0565 0.17678,-0.26516 0.0208,-0.0208 0.0675,0.0208 0.0884,0 0.0383,-0.0383 0.13877,-0.29655 0.17677,-0.35355 0.12573,-0.18859 0.31513,-0.34012 0.44194,-0.53034 0.10674,-0.16011 0.16767,-0.52121 0.26517,-0.61871 0.0466,-0.0466 0.14018,-0.0336 0.17678,-0.0884 0.0327,-0.049 -0.0264,-0.12408 0,-0.17678 0.1239,-0.24781 0.37163,-0.38067 0.53033,-0.61872 0.0163,-0.0245 -0.0208,-0.0676 0,-0.0884 0.5961,-0.5961 1.13483,-0.78839 1.85615,-1.14904 0.26917,-0.13478 -0.16166,-0.0701 0.26517,-0.17678 0.42341,-0.10585 0.56713,-0.26831 0.97227,-0.44194 0.1354,-0.058 0.29749,0.0289 0.44194,0 0.26848,-0.0537 0.54062,-0.26856 0.79549,-0.35356 0.19765,-0.0659 0.41841,-0.0311 0.61872,-0.0884 0.34611,-0.0989 0.65574,-0.28368 0.97227,-0.44195 0.11258,-0.20059 0.30386,-0.0292 0.44195,-0.0884 0.28267,-0.12115 0.61783,-0.30892 0.88388,-0.44195 0.26904,-0.13457 0.60368,-0.10677 0.88388,-0.17677 0.68311,-0.17078 -0.27025,-0.0139 0.70711,-0.17678 0.14129,-0.0236 0.3034,0.0346 0.44194,0 0.0639,-0.016 0.11218,-0.0755 0.17678,-0.0884 0.20223,-0.0404 0.41407,0.0256 0.61872,0 0.19594,-0.0245 0.43505,-0.11557 0.61872,-0.17677 0.20971,-0.0699 0.33178,-0.25426 0.53033,-0.35356 0.0264,-0.0132 0.0589,0 0.0884,0 0.0589,-0.0295 0.12198,-0.0518 0.17678,-0.0884 0.19147,-0.12764 0.36762,-0.27922 0.53033,-0.44194 0.0208,-0.0208 -0.0208,-0.0675 0,-0.0884 0.0751,-0.0751 0.19007,-0.10167 0.26517,-0.17677 0.0466,-0.0466 0.0418,-0.13018 0.0884,-0.17678 0.0208,-0.0208 0.0676,0.0208 0.0884,0 0.1873,-0.18733 0.009,-0.2028 0.0884,-0.44194 0.0672,-0.20156 0.24424,-0.34815 0.35355,-0.53033 0.1186,0.034 0.0844,-0.34655 0.0884,-0.35355 0.068,-0.13598 0.56467,-0.74145 0.70711,-0.88389 0.0208,-0.0208 0.0676,0.0208 0.0884,0 0.0932,-0.0932 0.10367,-0.24392 0.17677,-0.35355 0.10982,-0.1647 0.22207,-0.0226 0.35356,-0.0884 0.0745,-0.0373 0.10227,-0.13948 0.17677,-0.17678 0.26678,-0.13339 0.3059,-0.26644 0.41062,-0.4482 0.0745,-0.12937 0.1823,-0.28342 0.42903,-0.47982 0.18197,-0.14486 0.16929,-0.21455 0.48609,-0.48609 0.13044,-0.1118 0.3045,-0.16209 0.44194,-0.26517 0.20205,-0.15153 1.04905,-0.92066 1.14905,-1.06066 0.2287,-0.32017 0.36235,-0.72469 0.53033,-1.06066 0.0559,-0.1118 0.20087,-0.15797 0.26517,-0.26516 0.0567,-0.17002 0.0839,-0.29331 0.17677,-0.44194 0.16891,-0.27025 0.38781,-0.51045 0.53033,-0.7955 0.12875,-0.2575 0.18434,-0.45328 0.35356,-0.7071 0.18664,-0.27998 0.68565,-0.76775 0.79549,-1.06066 0.0414,-0.11035 -0.0231,-0.238 0,-0.35356 0.008,-0.0409 0.0752,-0.0489 0.0884,-0.0884 0.0768,-0.23048 0.12918,-0.46886 0.17678,-0.7071 0.0988,-0.49428 0,-1.08896 0,-1.59099 0,-0.57529 0.10574,-1.4158 0,-1.94455 -0.0504,-0.25201 -0.20287,-0.45784 -0.26517,-0.7071 -0.007,-0.0286 0,-0.0589 0,-0.0884 -0.0295,-0.11785 -0.0433,-0.24077 -0.0884,-0.35356 -0.0155,-0.0387 -0.0752,-0.0489 -0.0884,-0.0884 -0.07,-0.21018 -0.0286,-0.49779 -0.0884,-0.70711 -0.064,-0.22409 -0.26816,-0.71607 -0.35356,-0.97227 -0.0927,-0.27815 -0.31439,-0.452 -0.44194,-0.70711 -0.0672,-0.13437 -0.0111,-0.31312 -0.0884,-0.44194 -0.0758,-0.12632 -0.20536,-0.21894 -0.26516,-0.35355 -0.061,-0.13729 -0.0471,-0.29749 -0.0884,-0.44195 -0.0543,-0.19003 -0.19757,-0.34458 -0.26517,-0.53033 -0.73116,-2.0107 0.52626,1.13682 -0.35355,-1.5026 -0.0263,-0.079 -0.13948,-0.10227 -0.17678,-0.17677 -0.32558,-0.092 -0.0326,-0.30246 -0.0884,-0.44195 -0.0489,-0.12233 -0.14058,-0.22686 -0.17678,-0.35355 -0.0243,-0.085 0.0173,-0.17846 0,-0.26516 -0.0453,-0.22667 -0.13028,-0.4747 -0.17678,-0.70711 -0.0477,-0.23846 -0.19806,-0.41753 -0.26516,-0.61872 -0.0373,-0.1118 0.0464,-0.24523 0,-0.35355 -0.0677,-0.15791 -0.20487,-0.28109 -0.26517,-0.44195 -0.031,-0.0828 0.0145,-0.17796 0,-0.26516 -0.0207,-0.12413 -0.25456,-0.67521 -0.26516,-0.70711 -0.0711,-0.21332 0.0547,-0.48813 0,-0.7071 -0.10668,-0.42683 -0.042,0.004 -0.17678,-0.26517 -0.0626,-0.12521 -0.0457,-0.31391 -0.0884,-0.44194 -0.1125,-0.33753 -0.0319,-0.12313 -0.0828,-0.20983 -0.0508,-0.0867 -0.002,-0.0671 -0.2706,0.0332 -0.11381,0.0425 -0.2357,0.0589 -0.35356,0.0884 -0.0589,0 -0.12087,-0.0186 -0.17677,0 -0.0969,0.0323 -0.17917,0.20787 -0.26517,0.26517 -0.10963,0.0731 -0.24814,0.0978 -0.35355,0.17677 -0.29028,0.21771 -0.70834,0.58967 -1.06066,0.70711 -0.0559,0.0186 -0.12208,-0.0219 -0.17678,0 -0.0986,0.0395 -0.17016,0.12928 -0.26516,0.17678 -0.20708,0.10357 -0.69669,0.13517 -0.88389,0.17677 -0.31605,0.0702 -0.58201,0.26726 -0.88388,0.35356 -0.36007,0.10287 -1.79289,0 -2.20971,0 h -2.20971 c -0.38301,0 -0.77221,0.0685 -1.14905,0 -0.30263,-0.055 -0.58046,-0.21457 -0.88388,-0.26517 -0.17437,-0.0291 -0.35533,0.025 -0.53033,0 -0.76887,-0.10988 0.0109,-0.0508 -0.61872,-0.17678 -2.16933,-0.43386 -0.24143,-0.0643 -1.59099,-0.17677 -0.38618,-0.0322 -0.75937,-0.16778 -1.14905,-0.17678 -0.58722,-0.0489 -1.17917,0.028 -1.76776,0 -1.17193,-0.0558 -0.0745,-0.0566 -0.7955,-0.17678 -0.48606,-0.081 -1.01968,-0.0802 -1.5026,-0.17677 -0.0646,-0.0129 -0.11158,-0.0794 -0.17678,-0.0884 -0.23333,-0.0333 -0.48047,0.0648 -0.7071,0 -0.1267,-0.0362 -0.22856,-0.13508 -0.35356,-0.17678 -0.25769,-0.0859 -0.52913,-0.12347 -0.79549,-0.17677 -0.36823,-0.0737 -0.78141,-0.0271 -1.14905,-0.0884 -0.0411,-0.007 -0.0511,-0.0698 -0.0884,-0.0884 -0.17077,-0.0854 -0.55582,-0.15158 -0.70711,-0.17678 -0.14531,-0.0242 -0.30264,0.0969 -0.44194,0 -0.0409,-0.008 -0.048,-0.0783 -0.0884,-0.0884 -0.0857,-0.0214 -0.17846,0.0173 -0.26516,0 -0.23415,-0.0468 -0.45662,-0.13497 -0.70711,-0.17677 -0.53033,-0.0884 0.35356,0.17677 -0.53033,0 -1.03197,-0.20639 -0.0584,-0.12508 -0.97227,-0.35356 -0.25883,-0.0647 -0.53666,-0.0237 -0.79549,-0.0884 -0.18078,-0.0452 -0.34956,-0.13158 -0.53033,-0.17678 -0.58653,-0.1466 -1.17779,-0.0146 -1.76777,-0.0884 -0.0924,-0.0116 -0.17677,-0.0589 -0.26517,-0.0884 -0.0295,-0.0295 -0.0489,-0.0752 -0.0884,-0.0884 -0.37825,-0.12608 -0.92503,0.0334 -1.32583,0 -0.94214,-0.0785 -1.89096,-0.17146 -2.82843,-0.26516 -0.74653,-0.0746 -0.30663,-0.0343 -0.88388,-0.26517 -0.0915,-0.0366 -0.37554,0.0664 -0.44194,0 -0.0208,-0.0208 0.0208,-0.0676 0,-0.0884 -0.0208,-0.0208 -0.061,0.0109 -0.0884,0 -0.12234,-0.0489 -0.22855,-0.13508 -0.35355,-0.17678 -0.29642,-0.0988 -0.66978,-0.0558 -0.97228,-0.17678 -0.0387,-0.0155 -0.0589,-0.0589 -0.0884,-0.0884 -0.20624,-0.0589 -0.41248,-0.11787 -0.61872,-0.17677 -0.0867,-0.0173 -0.17847,0.0173 -0.26517,0 -0.1938,-0.0388 -0.33739,-0.22227 -0.53033,-0.26517 -0.1438,-0.032 -0.29663,0.0242 -0.44194,0 -0.0411,-0.007 -0.0489,-0.0752 -0.0884,-0.0884 -0.14252,-0.0475 -0.30127,-0.0356 -0.44194,-0.0884 -0.18358,-0.0689 -0.28957,-0.18897 -0.44194,-0.26517 -0.15251,-0.0763 -0.31906,-0.0269 -0.44194,-0.0884 -0.0951,-0.0475 -0.30965,-0.23206 -0.44194,-0.26516 -0.16302,-0.0408 -0.372,-0.0251 -0.53034,-0.0884 -0.42439,-0.16977 -0.26058,-0.20137 -0.7071,-0.26517 -0.11667,-0.0167 -0.24175,0.0373 -0.35356,0 -0.3515,-0.11716 -0.70915,-0.32477 -1.06066,-0.44194 -0.0559,-0.0186 -0.12207,0.0219 -0.17677,0 -0.13678,-0.0547 -0.21562,-0.21346 -0.35356,-0.26516 -0.20083,-0.0753 -0.41247,-0.11788 -0.61871,-0.17678 -0.17678,-0.0884 -0.34683,-0.19176 -0.53033,-0.26516 -0.39759,-0.15908 -0.70894,-0.53408 -1.45028,-0.58738 L 208.0625,231.375 h -1.75 c -0.26407,0 -0.55077,-0.0327 -0.8125,0 -0.86852,0.1086 0.56585,0.0258 -0.625,0.125 -0.31142,0.0259 -0.62569,-0.0208 -0.9375,0 -0.12644,0.008 -0.24925,0.0468 -0.375,0.0625 -0.62182,0.0777 -1.3115,0 -1.9375,0 -0.65398,0 -1.35049,-0.0684 -2,0 -0.29301,0.0308 -0.58124,0.1024 -0.875,0.125 -0.72059,0.0554 -1.46306,0 -2.1875,0 l -7.52044,0.12176 c -1.09143,0.501 -0.36354,0.064 -0.86327,0.5637 -0.1488,0.14879 -0.31737,0.14593 -0.44194,0.35355 -0.0479,0.0799 -0.0467,0.18184 -0.0884,0.26517 -0.225,0.44999 -0.69086,0.92047 -1.06066,1.23744 -0.05,0.0429 -0.13019,0.0418 -0.17678,0.0884 -0.0466,0.0466 -0.0462,0.12617 -0.0884,0.17678 -0.20183,0.2422 -0.68848,0.67104 -0.97227,0.88388 -0.0527,0.0395 -0.11785,0.0589 -0.17678,0.0884 -0.0884,0.0589 -0.18221,0.11042 -0.26516,0.17678 -0.41007,-0.0756 -0.10166,0.19005 -0.17678,0.26516 -0.0751,0.0751 -0.1988,0.0938 -0.26516,0.17678 -0.0582,0.0727 -0.0467,0.18183 -0.0884,0.26517 -0.0732,0.14649 -0.25338,0.16499 -0.35355,0.26516 -0.0466,0.0466 -0.0336,0.14023 -0.0884,0.17678 -0.049,0.0327 -0.12408,-0.0264 -0.17678,0 -0.16439,0.0822 -0.2888,0.33984 -0.44194,0.44194 -0.0245,0.0163 -0.0676,-0.0208 -0.0884,0 -0.14769,0.14769 -0.0291,0.20586 -0.17678,0.35355 -0.0466,0.0466 -0.14023,0.0336 -0.17677,0.0884 -0.0327,0.049 0.0417,0.13511 0,0.17678 -0.0417,0.0417 -0.12775,-0.0327 -0.17678,0 -0.25872,0.17248 -0.0181,0.1246 -0.0884,0.26516 -0.0186,0.0372 -0.56696,0.85801 -0.61872,0.88389 -0.15439,0.0772 -0.46996,0.23541 -0.61872,0.26516 -0.23112,0.0462 -0.48826,-0.0875 -0.7071,0 -0.0774,0.031 -0.10897,0.12834 -0.17678,0.17678 -0.33508,0.23934 -0.85347,0.41153 -1.14905,0.7071 -0.0208,0.0208 0.0208,0.0676 0,0.0884 -0.97735,0.65157 0.19003,-0.19003 -0.35355,0.35356 -0.0208,0.0208 -0.0639,-0.0163 -0.0884,0 -0.26516,0.17677 -0.0884,0.13258 -0.26516,0.26516 -0.13744,0.10308 -0.32047,0.14369 -0.44195,0.26517 -0.45169,0.45169 0.37061,-0.12328 -0.26516,0.35355 -0.22383,0.16787 -0.50658,0.3298 -0.70711,0.53033 -0.0466,0.0466 -0.0418,0.13019 -0.0884,0.17678 -0.19229,0.1923 -0.51397,0.33719 -0.7071,0.53033 -0.0208,0.0208 0.0163,0.0639 0,0.0884 -0.13458,0.20187 -0.29147,0.20309 -0.44194,0.35356 -0.0751,0.0751 -0.10167,0.19005 -0.17678,0.26516 -0.0208,0.0208 -0.0639,-0.0163 -0.0884,0 -0.045,0.03 -0.48469,0.39631 -0.53033,0.44195 -0.0466,0.0466 -0.0418,0.13019 -0.0884,0.17677 -0.0932,0.0932 -0.24392,0.10369 -0.35355,0.17678 -0.13591,0.0906 -0.22558,0.25117 -0.35355,0.35355 -0.34754,0.27803 -0.5099,0.29235 -0.88389,0.44194 -0.23656,0.0946 -0.4635,0.27236 -0.7071,0.35356 -0.11525,0.0384 -0.2449,0.0341 -0.35356,0.0884 -0.0745,0.0373 -0.10532,0.1339 -0.17677,0.17677 -0.0799,0.0479 -0.18765,0.0367 -0.26517,0.0884 -0.0706,0.0471 -0.5416,0.41466 -0.61872,0.53033 -0.0365,0.0548 -0.0418,0.13019 -0.0884,0.17678 -0.13975,0.13975 -0.39057,0.30218 -0.53033,0.44194 -0.20725,0.20725 -0.27298,0.48182 -0.44194,0.70711 -0.05,0.0667 -0.13055,0.10743 -0.17678,0.17677 -0.32029,0.48045 0.0553,1.63499 -0.0884,2.20971 -0.0905,0.36216 -0.28182,0.44024 -0.44195,0.70711 -0.0479,0.0799 -0.0302,0.19241 -0.0884,0.26516 -0.33505,0.41882 -1.17173,0.63233 -1.59099,0.88389 -0.0715,0.0429 -0.10744,0.13055 -0.17678,0.17677 -0.15721,0.19778 -0.42631,0.14972 -0.61872,0.26517 -0.82212,0.49327 0.61946,-0.17715 -0.44194,0.35355 -0.30623,0.15312 -0.51433,0.16611 -0.7955,0.35355 -0.0693,0.0462 -0.11785,0.11786 -0.17677,0.17678 -0.0884,0.0295 -0.18528,0.0405 -0.26517,0.0884 -0.32009,0.19206 -0.553,0.63005 -0.88388,0.79549 -0.0791,0.0395 -0.18611,-0.0395 -0.26517,0 -0.0589,0.0295 -0.0418,0.1302 -0.0884,0.17678 -0.18768,0.18768 -0.54988,0.40752 -0.7955,0.53033 -0.0264,0.0132 -0.0675,-0.0208 -0.0884,0 -0.047,0.047 -0.0511,0.23374 -0.17677,0.26517 -0.11434,0.0286 -0.27022,-0.0833 -0.35356,0 -0.0466,0.0466 -0.0295,0.14731 -0.0884,0.17677 -0.079,0.0395 -0.17849,-0.0173 -0.26516,0 -0.37955,0.0759 -0.75596,0.2974 -1.14905,0.35356 -0.32083,0.0458 -0.64979,-0.0323 -0.97227,0 -0.55888,0.0559 -1.11891,0.28349 -1.67938,0.35355 -0.14618,0.0183 -0.29663,-0.0242 -0.44194,0 -0.0822,0.0137 -0.10224,0.13951 -0.17678,0.17678 -0.0451,0.0225 -0.68585,0.24391 -0.70711,0.26516 -0.20869,0.20869 0.49301,-0.0465 -0.17677,0.17678 -0.14593,0.0486 -0.30249,0.0838 -0.44194,0.17678 -0.0884,0.0589 -0.19005,0.10166 -0.26517,0.17677 -0.0208,0.0208 0.0263,0.0752 0,0.0884 -0.1833,0.0916 -0.51306,-0.0647 -0.70711,0 -0.0395,0.0132 -0.0589,0.0589 -0.0884,0.0884 -0.0884,0.0295 -0.17294,0.0752 -0.26517,0.0884 -0.47142,0.0673 -1.46036,-0.13193 -1.85615,0 -0.2288,0.0763 -0.46329,0.13614 -0.70711,0.17677 -0.14531,0.0242 -0.3003,-0.0405 -0.44194,0 -0.15256,0.0436 -0.28802,0.1383 -0.44194,0.17678 -0.21538,0.0539 -0.48704,-0.0314 -0.70711,0 -0.292,0.0417 -0.3722,0.11515 -0.61872,0.17678 -0.19642,0.0491 -0.22097,-0.0737 -0.44194,0 -0.028,0.009 0.0264,0.0752 0,0.0884 -0.10865,0.0543 -0.23831,0.05 -0.35355,0.0884 -0.21116,0.0704 -0.49073,0.0163 -0.70711,0.0884 -0.0395,0.0132 -0.048,0.0783 -0.0884,0.0884 -0.29463,0.0737 -0.19642,-0.0491 -0.44194,0 -0.1775,-0.0203 -0.28802,0.1383 -0.44194,0.17678 -0.34031,0.0851 -0.70278,0.19359 -1.06066,0.26516 -0.16456,0.0329 -0.37192,-0.0528 -0.53033,0 -0.0395,0.0132 -0.0489,0.0752 -0.0884,0.0884 -0.26156,0.0872 -0.61061,-0.0455 -0.88389,0 -1.23186,0.20531 -2.54755,0.0884 -3.80069,0.0884 -0.27352,0 -0.61601,-0.0536 -0.88389,0 -0.33477,0.067 -0.62934,0.17678 -0.97227,0.17678 -0.14724,0.23563 -0.2783,0.48218 -0.44171,0.7069 -0.12253,0.1685 -0.32085,0.27242 -0.44194,0.44194 -0.0999,0.1398 -0.15519,0.30997 -0.26517,0.44195 -0.0422,0.0506 -0.12196,0.0518 -0.17677,0.0884 -0.22602,0.15068 -0.37245,0.39769 -0.53033,0.61872 -0.13754,0.19255 -0.28171,0.49347 -0.44195,0.70711 -0.1,0.13333 -0.24943,0.22341 -0.35355,0.35355 -0.0411,0.0514 -0.0418,0.13019 -0.0884,0.17678 -0.0466,0.0466 -0.13019,0.0418 -0.17677,0.0884 -0.21468,0.21468 0.0263,0.12979 -0.17678,0.26516 -0.10963,0.0731 -0.2745,0.0714 -0.35355,0.17678 -0.0559,0.0745 -0.0467,0.18183 -0.0884,0.26516 -0.0677,0.13538 -0.15751,0.0691 -0.26517,0.17678 -0.0994,0.0994 -0.18647,0.3239 -0.26516,0.44194 -0.13538,0.20306 -0.0505,-0.0379 -0.26517,0.17678 -0.1077,0.1077 -0.15746,0.33424 -0.26516,0.44194 -0.0208,0.0208 -0.0676,-0.0208 -0.0884,0 -0.0208,0.0208 0.0132,0.062 0,0.0884 -0.0559,0.1118 -0.19583,0.16116 -0.26517,0.26516 -0.0163,0.0245 0.0208,0.0676 0,0.0884 -0.18288,0.18288 0.007,-0.27946 -0.17677,0.0884 -0.10356,0.20711 -0.11778,0.22085 -0.26517,0.44194 -0.0163,0.0245 0.0208,0.0676 0,0.0884 -0.0466,0.0466 -0.13019,0.0418 -0.17677,0.0884 -0.15993,0.15993 -0.30145,0.51978 -0.44195,0.70711 -0.20306,0.27074 0.0565,-0.14493 -0.26516,0.17677 -0.18288,0.18288 0.27946,-0.007 -0.0884,0.17678 -0.0264,0.0132 -0.0676,-0.0208 -0.0884,0 -0.0208,0.0208 0.0208,0.0675 0,0.0884 -0.0293,0.0293 -0.30136,0.15068 -0.35355,0.17677 -0.13176,0.0659 -0.24939,0.161 -0.35356,0.26517 -0.0208,0.0208 0.0208,0.0675 0,0.0884 -0.14969,0.14969 -0.29225,0.0271 -0.44194,0.17677 -0.0466,0.0466 -0.0418,0.1302 -0.0884,0.17678 -0.0745,0.0745 -1.37305,0.8407 -1.5026,0.88389 -0.0796,0.0265 -0.18561,-0.0265 -0.26516,0 -0.18562,0.0619 -0.34472,0.20329 -0.53033,0.26516 -0.0839,0.0279 -0.1785,-0.0173 -0.26517,0 -0.27117,0.0542 -0.53398,0.19979 -0.79549,0.26517 -0.11433,0.0286 -0.23922,-0.0286 -0.35356,0 -0.15997,-0.0533 -0.16438,0.14318 -0.26516,0.17677 -0.19566,0.0652 -0.41333,-0.0187 -0.61872,0 -0.45272,0.0412 -0.88129,0.19108 -1.32582,0.26517 -0.11625,0.0194 -0.23923,-0.0286 -0.35356,0 -0.26678,0.0667 -0.51901,0.20372 -0.79549,0.26516 -0.11505,0.0256 -0.23689,-0.0167 -0.35356,0 -0.0922,0.0132 -0.1738,0.0701 -0.26516,0.0884 -0.48247,0.0965 -1.08413,0.0559 -1.5026,0.26517 -0.1164,0.0582 -0.3179,-0.0414 -0.44194,0 -0.30534,0.10177 -0.64651,0.48841 -0.97228,0.61871 -0.0547,0.0219 -0.12206,-0.0219 -0.17677,0 -0.0318,0.0127 -0.46138,0.2192 -0.53033,0.26517 -0.0693,0.0462 -0.0959,0.15656 -0.17678,0.17678 -0.0857,0.0214 -0.17942,-0.0214 -0.26517,0 -0.29488,0.0737 -0.5775,0.50972 -0.79549,0.61871 -0.0833,0.0417 -0.19063,0.0325 -0.26517,0.0884 -0.0527,0.0395 -0.0418,0.13019 -0.0884,0.17678 -0.2713,0.2713 -0.0735,-0.0516 -0.35356,0.0884 -0.0745,0.0373 -0.10532,0.1339 -0.17677,0.17677 -0.0799,0.0479 -0.18765,0.0367 -0.26517,0.0884 -0.10401,0.0693 -0.16516,0.19017 -0.26516,0.26517 -0.0236,0.0177 -0.0639,-0.0163 -0.0884,0 -0.28749,0.19166 -0.72763,0.49741 -0.97227,0.7071 -0.05,0.0429 -0.037,0.13563 -0.0884,0.17678 -0.10289,0.0823 -0.25067,0.0945 -0.35356,0.17678 -0.0514,0.0411 -0.0357,0.13725 -0.0884,0.17677 -0.0745,0.0559 -0.18528,0.0405 -0.26517,0.0884 -0.16411,0.0985 -0.35465,0.37167 -0.53033,0.44194 -0.0821,0.0328 -0.1831,-0.0328 -0.26516,0 -0.0774,0.031 -0.11011,0.12678 -0.17678,0.17678 -0.2264,0.1698 -0.2217,0.0225 -0.53033,0.17678 -0.17038,0.17038 -0.14413,0.18139 -0.35355,0.26516 -0.466,0.1864 -0.95651,0.32228 -1.41422,0.53033 -0.17992,0.0818 -0.34527,0.19577 -0.53033,0.26517 -0.22241,0.0834 -0.47522,0.0369 -0.7071,0.0884 -0.6736,0.14968 0.16313,0.005 -0.53033,0.26516 -0.26901,0.10088 -0.61943,0.0886 -0.88389,0.17678 -0.16298,0.0543 -0.27896,0.21084 -0.44194,0.26516 -0.1118,0.0373 -0.23922,-0.0286 -0.35355,0 -0.42683,0.10671 0.004,0.042 -0.26517,0.17678 -0.0527,0.0263 -0.12407,-0.0264 -0.17678,0 -0.044,0.022 -0.49304,0.22788 -0.53033,0.26516 -0.18287,0.18288 0.27947,-0.007 -0.0884,0.17678 -0.0833,0.0417 -0.18184,0.0467 -0.26517,0.0884 -0.1773,0.0886 -0.23104,0.31943 -0.35355,0.44194 -0.0751,0.0751 -0.19005,0.10166 -0.26517,0.17678 -0.17921,0.17922 -0.1369,0.22529 -0.35355,0.44194 -0.0422,0.0422 -0.29219,0.13075 -0.35355,0.17678 -0.26646,0.19984 -0.60305,0.53889 -0.7955,0.79549 -0.0791,0.10541 -0.0945,0.25067 -0.17678,0.35355 -0.13766,0.17208 -0.4044,0.34145 -0.53033,0.53034 -0.0163,0.0245 0.0208,0.0675 0,0.0884 -0.3217,0.3217 -0.0621,-0.094 -0.26516,0.17678 -0.10308,0.13744 -0.15785,0.30779 -0.26517,0.44194 -0.27994,0.34994 -0.21243,0.18762 -0.53033,0.44194 -0.25812,0.2065 -0.44283,0.5089 -0.7071,0.70711 -0.28253,0.21189 -0.59449,0.42579 -0.88389,0.61872 -0.37203,0.24802 -0.8063,0.23037 -1.23743,0.35355 -0.10215,0.0292 -0.16211,0.15101 -0.26517,0.17678 -0.0857,0.0214 -0.17941,-0.0214 -0.26516,0 -0.0404,0.0101 -0.0489,0.0752 -0.0884,0.0884 -0.15735,0.0525 -0.37298,0.0359 -0.53033,0.0884 -0.14738,0.0491 -0.48712,0.22129 -0.61872,0.26516 -0.0559,0.0186 -0.124072,-0.0263 -0.176776,0 -0.198951,0.0995 -0.314491,0.33402 -0.53033,0.44194 -0.0859,0.043 -0.267656,0.0454 -0.353554,0.0884 -0.15696,0.0785 -0.27757,0.29876 -0.441942,0.35355 -0.0559,0.0186 -0.129636,-0.0353 -0.176776,0 -0.08498,0.0637 -0.09383,0.19881 -0.176777,0.26517 -0.163325,0.13066 -0.683683,0.29179 -0.883883,0.44194 -0.247367,0.18553 -0.450453,0.44762 -0.707107,0.61872 -0.02452,0.0163 -0.06755,-0.0208 -0.08839,0 -0.07512,0.0751 -0.101662,0.19005 -0.176777,0.26516 -0.04167,0.0417 -0.141422,-0.0471 -0.176777,0 -0.07906,0.10541 -0.09447,0.25067 -0.176777,0.35356 -0.0819,0.10237 -0.360046,0.25118 -0.441941,0.35355 -0.117581,0.14698 -0.190881,0.38176 -0.265165,0.53033 -0.03727,0.0745 -0.139509,0.10224 -0.176777,0.17678 -0.191122,0.38224 -0.474397,0.87606 -0.883883,1.14905 -0.04186,0.0279 -0.478116,0.24776 -0.530331,0.26516 -0.111803,0.0373 -0.24175,-0.0373 -0.353553,0 -0.190498,0.0635 -0.347984,0.35077 -0.53033,0.44194 -0.0527,0.0264 -0.120875,-0.0186 -0.176777,0 -0.10153,0.0338 -0.122632,0.21102 -0.176776,0.26517 -0.06588,0.0659 -0.187644,0.0367 -0.265165,0.0884 -0.07297,0.0486 -0.3953,0.30691 -0.441942,0.35355 -0.04658,0.0466 -0.0418,0.13019 -0.08839,0.17678 -0.02083,0.0208 -0.06482,-0.0177 -0.08839,0 -0.203242,0.15243 -0.327088,0.28951 -0.53033,0.44194 -0.24603,0.18452 -0.347451,0.43584 -0.53033,0.61872 -0.04658,0.0466 -0.130192,0.0418 -0.176777,0.0884 -0.07511,0.0751 -0.107643,0.18451 -0.176776,0.26517 -0.425051,0.49589 -1.021489,0.89058 -1.414214,1.41421 -0.01175,0.0157 -0.24676,0.36833 -0.265165,0.44195 -0.02144,0.0857 0.03953,0.1861 0,0.26516 -0.02946,0.0589 -0.130192,0.0418 -0.176777,0.0884 -0.05225,0.0522 -0.152928,0.39424 -0.176776,0.44194 -0.190131,0.38026 -0.963021,0.86538 -1.149049,1.23744 -0.02635,0.0527 0.01863,0.12087 0,0.17677 -0.02635,0.0791 -0.139509,0.10224 -0.176776,0.17678 -0.03953,0.0791 0.03953,0.18611 0,0.26517 -0.01318,0.0264 -0.05893,0 -0.08839,0 -0.02946,0.0589 -0.07241,0.11286 -0.08839,0.17677 -0.08802,0.35208 -0.133473,0.70948 -0.265165,1.06066 -0.07879,0.2101 -0.228277,0.39739 -0.265165,0.61872 -0.02906,0.17437 0.0559,0.36263 0,0.53033 -0.01318,0.0395 -0.07521,0.0489 -0.08839,0.0884 -0.03841,0.11524 -0.04997,0.23831 -0.08839,0.35355 -0.09723,0.29168 0.09723,0.68059 0,0.97227 -0.01318,0.0395 -0.05893,0.0589 -0.08839,0.0884 -0.02946,0.0589 -0.07241,0.11287 -0.08839,0.17678 -0.10726,0.42904 0,1.21217 0,1.67938 0,1.62283 0.145865,3.71665 -0.353553,5.21491 -0.06597,0.19791 0.08839,0.34878 0.08839,0.53033 0,0.46978 -0.06978,0.89783 -0.176776,1.32583 -0.106706,0.42682 -0.042,-0.004 -0.176777,0.26516 -0.08425,0.1685 -0.09448,0.45412 -0.176777,0.61872 -0.06588,0.13176 -0.21858,0.2138 -0.265165,0.35355 -0.03727,0.11181 0.05271,0.24815 0,0.35356 -0.0069,0.0138 -0.34665,0.16297 -0.353553,0.17677 -0.05433,0.10866 -0.03406,0.2449 -0.08839,0.35356 -0.03727,0.0745 -0.133903,0.10531 -0.176777,0.17677 -0.04793,0.0799 -0.04045,0.18528 -0.08839,0.26517 -0.132798,0.22133 -0.758622,0.82984 -0.972271,0.97227 -0.138642,0.0924 -0.37167,0.16997 -0.53033,0.26516 -0.359724,0.21584 0.0056,0.14546 -0.353554,0.26517 -0.105604,0.0352 -0.358911,0.1145 -0.441942,0.17678 -0.0527,0.0395 -0.03357,0.14023 -0.08839,0.17677 -0.04903,0.0327 -0.120875,-0.0186 -0.176777,0 -0.125358,0.0418 -0.126202,0.21459 -0.176776,0.26517 -0.02083,0.0208 -0.05893,0 -0.08839,0 -0.05893,0.0589 -0.133902,0.10532 -0.176776,0.17677 -0.04908,0.0818 -0.231889,0.43051 -0.265165,0.53033 -0.01863,0.0559 0.02635,0.12408 0,0.17678 -0.01318,0.0263 -0.06755,-0.0208 -0.08839,0 -0.04167,0.0417 0.02635,0.12407 0,0.17678 -0.01863,0.0373 -0.07521,0.0489 -0.08839,0.0884 -0.01863,0.0559 0.01863,0.12087 0,0.17677 -0.02635,0.0791 -0.156565,0.0959 -0.176777,0.17678 -0.216383,0.86553 0.484127,-0.69154 -0.176776,0.79549 -0.05432,0.12221 -0.227881,0.29281 -0.265165,0.44195 -0.05494,0.21976 0.032,0.48307 0,0.7071 -0.02125,0.14872 -0.06714,0.29322 -0.08839,0.44195 -0.0083,0.0583 0.02635,0.12407 0,0.17677 -0.01318,0.0263 -0.07521,-0.0263 -0.08839,0 -0.02635,0.0527 0.01863,0.12088 0,0.17678 -0.04525,0.13575 -0.189776,0.2279 -0.265165,0.35355 -0.09425,0.15708 -0.132166,0.48572 -0.265165,0.61872 -0.04659,0.0466 -0.130192,0.0418 -0.176777,0.0884 -0.02083,0.0208 0.01318,0.062 0,0.0884 -0.04751,0.095 -0.113039,0.18018 -0.176777,0.26516 -0.09466,0.12622 -0.265165,0.18506 -0.265165,0.35356 -0.206181,0.0588 -0.426747,0.0806 -0.618544,0.17646 -0.196039,0.098 -0.03809,0.46781 -0.08839,0.61872 -0.06717,0.2015 -0.174271,0.34854 -0.265165,0.53033 -0.180834,0.36167 0.214279,0.6696 -0.353554,1.23744 -0.133706,0.1337 -0.230955,0.31934 -0.353553,0.44194 -0.04659,0.0466 -0.140233,0.0336 -0.176777,0.0884 -0.03269,0.049 0.02635,0.12407 0,0.17677 -0.01318,0.0264 -0.06204,-0.0132 -0.08839,0 -0.03439,0.0172 -0.864689,0.93389 -0.883884,0.97228 -0.02635,0.0527 0.02635,0.12407 0,0.17677 -0.229463,0.45893 -0.176776,1.53855 -0.176776,2.12132 0,0.55301 -0.10933,1.86078 0,2.2981 0.01011,0.0404 0.06975,0.0511 0.08839,0.0884 0.07225,0.1445 0.132573,0.53031 0.176777,0.61872 0.07043,0.14085 0.263298,0.34982 0.353553,0.53033 0.02635,0.0527 -0.04167,0.13511 0,0.17677 0.11669,0.11669 0.210198,0.10027 0.265165,0.26517 0.02795,0.0838 -0.04903,0.19162 0,0.26516 0.112602,0.16891 0.205629,0.26334 0.265165,0.44195 0.01863,0.0559 -0.02635,0.12407 0,0.17677 0.01318,0.0264 0.07521,-0.0263 0.08839,0 0.03953,0.0791 -0.04903,0.19162 0,0.26517 0.04623,0.0693 0.130552,0.10744 0.176777,0.17677 0.0828,0.1242 0.03384,0.59801 0.08839,0.70711 0.05148,0.10296 0.125296,0.1622 0.176776,0.26517 0.02635,0.0527 -0.02635,0.12407 0,0.17677 0.104424,0.20885 0.334303,0.40344 0.441942,0.61872 0.01318,0.0263 0,0.0589 0,0.0884 0.02946,0.11785 0.03406,0.2449 0.08839,0.35355 0.02946,0.0589 0.147314,0.0295 0.176777,0.0884 0.07791,0.15582 0.126809,0.39197 0.265165,0.53033 0.182879,0.18288 -0.0071,-0.27946 0.176777,0.0884 0.04167,0.0833 0.04672,0.18183 0.08839,0.26516 0.08033,0.16066 0.365113,0.40064 0.53033,0.44195 0.05717,0.0143 0.124072,-0.0264 0.176777,0 0.05893,0.0295 0.02946,0.14731 0.08839,0.17677 0.05271,0.0264 0.127748,-0.0327 0.176777,0 0.05482,0.0366 0.03357,0.14024 0.08839,0.17678 0.265165,0.17678 0.08839,-0.0884 0.265165,0 0.192179,0.0961 0.361404,0.31525 0.53033,0.44194 0.02357,0.0177 0.05893,0 0.08839,0 0.05893,0.0295 0.130192,0.0418 0.176776,0.0884 0.02083,0.0208 -0.02083,0.0676 0,0.0884 0.118981,0.11898 0.265165,0.11876 0.287258,0.51924 0.05892,0.23939 0.09322,0.21479 0.132579,0.20989 0.0804,-0.01 0.16209,0.003 0.243068,0 0.140064,-0.005 0.280042,-0.0123 0.419845,-0.0221 0.736409,-0.0514 0.721776,-0.072 1.657281,-0.19887 0.457708,-0.0621 0.912797,-0.13709 1.370019,-0.19888 0.147621,-0.0199 0.295146,-0.041 0.441942,-0.0663 0.06692,-0.0115 0.131381,-0.0367 0.198874,-0.0442 0.06589,-0.007 0.132582,0 0.198874,0 0.147314,-0.0147 0.295036,-0.0258 0.441941,-0.0442 0.133058,-0.0166 0.265092,-0.0694 0.397748,-0.0884 0.03646,-0.005 0.07384,0.004 0.110485,0 0.08194,-0.008 0.161629,-0.032 0.243068,-0.0442 0.07587,-0.0114 0.512759,-0.0716 0.596622,-0.0884 0.04587,-0.009 0.09323,-0.0532 0.132582,-0.0663 0.01398,-0.005 0.03003,0.004 0.04419,0 0.116566,-0.0333 0.361134,-0.1521 0.464039,-0.19887 0.05787,-0.0263 0.538924,-0.27253 0.574525,-0.28726 0.107612,-0.0445 0.222244,-0.07 0.331456,-0.11049 0.08979,-0.0333 0.172613,-0.0859 0.265165,-0.11048 0.272531,-0.0589 0.545061,-0.11785 0.817592,-0.17678 0.05156,-0.007 0.103752,-0.0112 0.15468,-0.0221 0.37285,-0.0799 0.747265,-0.17495 1.126951,-0.22097 0.337075,-0.0409 0.677748,-0.0427 1.016466,-0.0663 0.250797,-0.0175 0.50049,-0.049 0.751301,-0.0663 0.06613,-0.005 0.132583,0 0.198874,0 0.162045,-0.007 0.324356,-0.0103 0.486136,-0.0221 0.341489,-0.025 0.677061,-0.0901 1.016466,-0.13258 0.796451,-0.0996 -0.837261,0.11961 0.618718,-0.0884 0.06603,-0.009 0.133605,-0.008 0.198874,-0.0221 0.270075,-0.0568 0.514473,-0.16539 0.773398,-0.24306 0.13861,-0.0416 0.287133,-0.0528 0.419845,-0.11049 0.120834,-0.0525 0.233602,-0.12225 0.353553,-0.17678 0.04241,-0.0193 0.08839,-0.0295 0.132583,-0.0442 0.125216,-0.0516 0.2532,-0.0969 0.37565,-0.15468 0.143005,-0.0675 0.278393,-0.15024 0.419845,-0.22097 0.03548,-0.0177 0.07787,-0.0216 0.110485,-0.0442 0.06438,-0.0446 0.117005,-0.10411 0.176777,-0.15468 0.134728,-0.11401 0.291857,-0.217 0.441942,-0.30936 0.04208,-0.0259 0.0899,-0.0414 0.132582,-0.0663 0.193936,-0.11313 0.07717,-0.0622 0.265165,-0.19888 0.113723,-0.0827 0.23836,-0.16627 0.353554,-0.24307 0.130438,-0.087 0.32272,-0.21116 0.464038,-0.28726 0.156205,-0.0841 0.07297,-0.007 0.132583,-0.0663 0.304037,-0.1072 0.497237,-0.37793 0.764477,-0.53827 0.16948,-0.10169 0.38305,-0.10468 0.5625,-0.1875 0.1103,-0.0509 0.20017,-0.14125 0.3125,-0.1875 0.90634,-0.3732 1.90434,-0.44924 2.8125,-0.8125 0.43575,-0.1743 0.89165,-0.35207 1.3125,-0.5625 0.32141,-0.1607 0.60465,-0.36131 0.9375,-0.5 0.38317,-0.15966 0.78837,-0.26096 1.1875,-0.375 1.40607,-0.40174 2.87444,-0.39794 4.3125,-0.625 0.89275,-0.14096 1.78099,-0.25584 2.6875,-0.3125 1.01283,-0.0633 2.04847,0 3.0625,0 H 120 c 0.29167,0 0.58559,-0.0362 0.875,0 0.53432,0.0668 1.01182,0.21329 1.5625,0.25 0.49557,0.033 1.00241,0 1.5,0 H 127 h 1.875 c 0.22056,0 0.53134,0.0486 0.75,0 1.31343,-0.29187 -0.45576,0.0358 0.6875,-0.25 0.0606,-0.0152 0.125,0 0.1875,0 0.20833,-0.0833 0.41788,-0.1637 0.625,-0.25 0.1796,-0.0748 0.374,-0.21858 0.5625,-0.25 0.0822,-0.0137 0.16915,0.0202 0.25,0 0.20285,-0.0507 0.3521,-0.20792 0.5625,-0.25 0.29959,-0.0599 0.63395,0.0379 0.9375,0 0.54684,-0.0684 1.01045,-0.0625 1.5625,-0.0625 1.06719,0.0537 2.11861,0.67372 3.125,0.875 0.24792,0.0496 0.699,-0.22306 0.9375,-0.3125 0.69663,-0.26124 1.4131,-0.38452 2.125,-0.5625 0.1768,-0.0442 0.3246,-0.12904 0.5,-0.1875 0.0593,-0.0198 0.12548,0.008 0.1875,0 0.12575,-0.0157 0.2489,-0.0499 0.375,-0.0625 1.16009,-0.11601 2.33304,-10e-4 3.5,-0.0625 0.78572,-0.0414 1.54476,-0.20282 2.3125,-0.3125 0.36134,-0.0516 0.76111,0.0202 1.125,0 0.22976,-0.0128 0.45779,-0.049 0.6875,-0.0625 0.66399,-0.0391 1.33695,0.051 2,0 0.66988,-0.0515 1.32776,-0.0625 2,-0.0625 h 2 c 0.28459,0 0.59247,-0.0314 0.875,0 0.54621,0.0607 1.08447,0.15991 1.625,0.25 0.12105,0.0202 0.59727,0.0174 0.6875,0.0625 0.0186,0.009 -0.0186,0.0532 0,0.0625 0.0373,0.0186 0.0877,-0.0186 0.125,0 0.18259,0.0913 0.3249,0.34022 0.5,0.4375 0.10503,0.0584 0.72469,0.22073 0.8125,0.25 0.14438,0.0481 0.24494,0.18497 0.375,0.25 0.0872,0.0436 0.22533,0.0189 0.3125,0.0625 0.26208,0.13104 0.47042,0.32238 0.75,0.4375 0.24367,0.10034 0.50633,0.14966 0.75,0.25 0.38092,0.15685 0.23324,0.18685 0.5625,0.375 0.0572,0.0327 0.12857,0.033 0.1875,0.0625 0.294,0.147 0.5654,0.31956 0.875,0.4375 0.56313,0.21453 1.16617,0.49289 1.75,0.6875 0.12022,0.0401 0.26165,0.006 0.375,0.0625 0.10346,0.0517 0.19663,0.14115 0.3125,0.1875 0.3125,0.125 0.125,0 0.5625,0.1875 0.41679,0.17862 0.89626,0.53737 1.25,0.8125 0.0698,0.0543 0.11396,0.13847 0.1875,0.1875 0.11249,0.075 0.32467,0.13109 0.4375,0.1875 0.10254,0.0513 0.2655,0.3435 0.3125,0.4375 0.13005,0.26011 -0.004,-0.0668 0.125,0.0625 0.0312,0.0312 0,0.26356 0.26129,0.24556 2.54376,-2.14191 1.99947,-1.39258 3.70843,-3.95602 z"
         id="path48" />
    </g>
  </g>
</svg>
