<?xml version="1.0" encoding="UTF-8" standalone="no"?>
<!-- Created with Inkscape (http://www.inkscape.org/) -->

<svg
   version="1.1"
   id="svg2"
   width="99.438026"
   height="80.213684"
   viewBox="0 0 99.438026 80.213684"
   xmlns="http://www.w3.org/2000/svg"
   xmlns:svg="http://www.w3.org/2000/svg">
  <defs
     id="defs6">
    <linearGradient
       id="swatch77">
      <stop
         style="stop-color:#e2c69e;stop-opacity:1;"
         offset="0"
         id="stop77" />
    </linearGradient>
  </defs>
  <g
     id="layer66"
     style="display:inline"
     transform="translate(-350.30948,-482.34754)">
    <g
       id="layer36"
       style="display:inline">
      <path
         style="fill:#969696;fill-opacity:1;stroke:none;stroke-opacity:1"
         d="m 449.52078,509.30567 c -0.162,0.32399 0.0427,0.91453 -0.125,1.25 -0.1479,0.29588 -0.046,0.38796 -0.125,0.625 -0.0589,0.17678 -0.2048,0.31922 -0.25,0.5 -0.0294,0.11765 0.0294,0.25735 0,0.375 -0.0873,0.34919 -0.26326,0.66477 -0.375,1 -0.0395,0.11858 0.0303,0.25373 0,0.375 -0.077,0.30785 -0.2878,0.56988 -0.375,0.875 -0.0229,0.0801 0.0202,0.1691 0,0.25 -0.0612,0.2448 -0.2723,0.4196 -0.375,0.625 -0.0186,0.0373 0.0295,0.0955 0,0.125 -0.0659,0.0659 -0.2625,-0.12263 -0.25,0.125 -0.0517,0.0775 -0.0591,0.1841 -0.125,0.25 -0.0461,0.0461 -0.7868,0.572 -0.875,0.625 -0.11299,0.0678 -0.26537,0.0519 -0.375,0.125 -0.27077,0.18051 -0.48519,0.43585 -0.75,0.625 -0.25468,0.18191 -0.70699,0.30466 -1,0.5 -0.51784,0.34523 -1.11888,0.98775 -1.375,1.5 -0.0791,0.15811 -0.2769,0.22791 -0.375,0.375 -0.25704,0.38556 -0.39362,0.95852 -0.625,1.375 -0.0858,0.15453 -0.26894,0.23358 -0.375,0.375 -0.05,0.0667 0.0263,0.1709 0,0.25 -0.071,0.21287 -0.1589,0.41996 -0.25,0.625 -0.12561,0.28263 -0.6957,1.28289 -0.75,1.5 -0.0202,0.0808 0.0263,0.1709 0,0.25 -0.0664,0.19917 -0.3168,0.39206 -0.375,0.625 -0.0404,0.16169 0.0274,0.3356 0,0.5 -0.0935,0.56068 -0.36532,1.08628 -0.5,1.625 -0.1831,0.73251 0.0451,1.56973 -0.125,2.25 -0.032,0.12783 -0.0833,0.25 -0.125,0.375 -0.0417,0.0417 -0.1031,0.0703 -0.125,0.125 -0.0638,0.15951 -0.0833,0.33333 -0.125,0.5 0,0.0833 0.0263,0.1709 0,0.25 -0.17789,0.53365 -0.71609,1.02681 -1,1.5 -0.0678,0.11298 -0.0459,0.26959 -0.125,0.375 -0.0849,0.11316 -1.06481,0.8133 -1.25,0.875 -0.239,0.0797 -0.65469,0.0148 -0.875,0.125 -0.0373,0.0186 0.0295,0.0955 0,0.125 -0.0884,0.0884 -0.25373,-0.0303 -0.375,0 -0.13223,0.0331 -0.50998,0.1733 -0.625,0.25 -0.0981,0.0654 -0.1382,0.2127 -0.25,0.25 -0.0791,0.0263 -0.1692,-0.0202 -0.25,0 -0.41584,0.10396 -1.02195,0.38963 -1.375,0.625 -0.33341,0.22227 -0.47642,0.47642 -0.75,0.75 -0.3036,0.3036 -0.18355,-0.0372 -0.375,0.25 -0.0731,0.10963 -0.0459,0.26959 -0.125,0.375 -0.4176,0.5568 -0.99249,0.92623 -1.375,1.5 -0.14201,0.21302 -0.23189,0.63647 -0.375,0.875 -0.0606,0.10106 -0.1793,0.1557 -0.25,0.25 -0.27322,0.36429 -0.42621,0.85241 -0.625,1.25 -0.12219,0.24438 -0.4312,0.47461 -0.5,0.75 -0.43208,1.7283 -0.71329,3.53252 -1.25,5.25 -0.14547,0.46549 -0.36947,0.90509 -0.5,1.375 -0.0789,0.28388 -0.0833,0.58333 -0.26592,1.92243 -0.14092,1.38548 -0.40002,1.12975 -0.67125,1.40098 -0.0417,0.0417 0.0417,0.13507 0,0.17677 -0.69312,0.69313 -2.18244,0.82606 -3.0052,1.23744 -0.75178,0.37589 -1.42936,0.95291 -2.12132,1.41421 -0.21927,0.14618 -0.50703,0.18206 -0.70711,0.35356 -0.60117,0.51529 -0.47178,0.64855 -0.88388,1.06066 -0.0932,0.0932 -0.28045,0.0671 -0.35355,0.17677 -0.0654,0.0981 0.0286,0.23923 0,0.35356 -0.032,0.12783 -0.11788,0.2357 -0.17678,0.35355 -0.0589,0.0589 -0.15048,0.0977 -0.17678,0.17678 -0.0373,0.1118 0.0527,0.24814 0,0.35355 -0.0264,0.0527 -0.12407,-0.0263 -0.17677,0 -0.23571,0.11785 -0.47141,0.2357 -0.70711,0.35355 -0.22361,0.11181 -0.25989,0.48353 -0.53033,0.53033 -0.10541,0.0527 -0.24815,-0.0527 -0.35356,0 -0.0527,0.0264 0.0264,0.12408 0,0.17678 -0.13537,0.27075 -0.31501,0.13824 -0.53033,0.35355 -0.13413,0.13414 -0.16835,0.69869 -0.35355,0.88389 -0.0417,0.0417 -0.13508,-0.0417 -0.17678,0 -0.32912,0.32912 -0.55551,0.90907 -0.88388,1.23743 -0.0932,0.0932 -0.26035,0.0836 -0.35355,0.17678 -0.0417,0.0417 0.049,0.14408 0,0.17678 -0.15505,0.10338 -0.37055,0.0809 -0.53033,0.17678 -0.21438,0.12862 -0.30673,0.41852 -0.53033,0.53033 -0.23,0.11499 -0.68216,0.21907 -0.88389,0.35355 -0.46962,0.31308 -1.00424,0.73719 -1.59099,0.88388 -0.68036,0.16978 -1.44369,0.007 -2.12132,0.17678 -0.46637,0.11659 -0.9424,0.43593 -1.41421,0.53033 -0.32036,0.0641 -0.73935,-0.0803 -1.06066,0 -0.12783,0.032 -0.22855,0.13508 -0.35355,0.17678 -0.30506,0.10168 -4.58186,0.0478 -4.77297,0 -2.03712,-0.50923 0.57441,-0.24625 -1.41422,-0.53033 -0.29166,-0.0417 -0.59805,0.0715 -0.88388,0 -0.31885,-0.0797 -0.45141,-0.46643 -0.70711,-0.53033 -0.1715,-0.0429 -0.36262,0.0559 -0.53033,0 -0.0559,-0.0186 0.0527,-0.15048 0,-0.17678 -0.10541,-0.0527 -0.24175,0.0373 -0.35355,0 -0.24246,-0.0808 -0.59458,-0.27095 -0.88389,-0.35355 -1.38498,-0.39572 -0.37163,-0.0413 -1.59099,-0.17678 -1.17916,-0.13102 -0.54626,-0.17943 -1.59099,-0.35355 -0.23249,-0.0387 -0.4835,0.0745 -0.7071,0 -0.50975,-0.16992 -1.05403,-0.59972 -1.59099,-0.70711 -0.28891,-0.0578 -0.60438,0.0932 -0.88389,0 -0.1831,-0.061 -0.35495,-0.26586 -0.53033,-0.35356 -0.19992,-0.1 -1.61185,-0.11027 -1.94454,-0.17677 -0.71424,-0.14285 -0.51769,-0.16835 -1.06066,-0.53033 -0.24515,-0.16343 -0.59222,0.0417 -0.88388,0 -0.8255,-0.11793 -1.5187,-0.27053 -2.2981,-0.53033 -0.1591,-0.053 -0.37123,0.053 -0.53033,0 -0.0791,-0.0263 -0.0977,-0.15048 -0.17678,-0.17678 -0.3182,-0.10606 -0.74246,0.10607 -1.06066,0 -0.0791,-0.0263 -0.0978,-0.15038 -0.17677,-0.17678 -0.37715,-0.12571 -0.90454,-0.0206 -1.23744,-0.35355 -0.0417,-0.0417 0.0417,-0.13508 0,-0.17678 -0.25974,-0.25973 -1.43711,0.13227 -1.76777,0 -0.19726,-0.0789 -0.3403,-0.25855 -0.53033,-0.35355 -1.06769,-0.53384 -0.0748,0.0255 -0.88388,-0.17678 -0.25566,-0.0639 -0.46243,-0.25565 -0.70711,-0.35355 -0.84296,-0.33715 -0.39924,-0.0556 -1.59099,-0.35355 -0.9387,-0.23468 -1.78068,-0.86417 -2.65165,-1.23744 -0.54957,-0.23553 -1.20377,-0.30473 -1.76777,-0.53033 -0.36217,-0.14487 -0.69088,-0.40707 -1.06066,-0.53033 -0.28684,-0.0956 -0.80836,-0.0506 -1.06066,-0.17678 -0.0527,-0.0263 0.0559,-0.15817 0,-0.17677 -0.1677,-0.0559 -0.35883,0.0429 -0.53033,0 -0.0809,-0.0202 -0.0978,-0.15048 -0.17677,-0.17678 -1.70915,-0.56971 -4.45479,-0.35355 -6.36396,-0.35355 -0.49342,0 -3.7189,-0.11346 -3.88909,0 -0.13868,0.0925 -0.20448,0.27905 -0.35355,0.35355 -0.50873,0.25436 -1.43648,0.0979 -2.38649,0.0884 -0.92998,-1.37805 -0.31394,-2.50843 -0.61872,-3.27037 -0.11785,-0.17678 -0.2357,-0.35355 -0.35355,-0.53033 -0.0589,0 -0.13511,0.0417 -0.17678,0 -0.41339,-0.41339 -2.16707,-3.99357 -2.2981,-4.41942 -0.0866,-0.2816 0.0365,-0.59153 0,-0.88388 -0.0607,-0.48601 -0.32986,-1.01329 -0.53033,-1.41421 -0.11426,-0.22854 0.062,-0.6358 0,-0.88389 0.30045,-0.47849 -0.27022,-0.4571 -0.35355,-0.7071 -0.0958,-0.28751 -0.0682,-3.43944 0,-3.71232 0.0289,-0.11554 0.26665,-0.79698 0.35355,-0.88388 0.41739,-0.41739 -0.093,0.98601 0.35356,-0.35355 0.0373,-0.11181 -0.0527,-0.24815 0,-0.35356 0.1118,-0.2236 0.39165,-0.32231 0.53033,-0.53033 0.0327,-0.049 0,-0.11785 0,-0.17677 0.0589,-0.11785 0.0977,-0.24815 0.17677,-0.35356 0.15,-0.2 0.45128,-0.29316 0.53033,-0.53033 0.0373,-0.1118 -0.0373,-0.24175 0,-0.35355 0.061,-0.18311 0.26587,-0.35495 0.35356,-0.53033 0.22465,-0.4493 0.25682,-0.93055 0.35355,-1.41421 0.0517,-0.25841 0.30187,-0.4487 0.35355,-0.70711 0.0347,-0.17334 -0.0347,-0.35699 0,-0.53033 0.0258,-0.1292 0.15094,-0.22435 0.17678,-0.35355 0.0976,-0.48773 0,-1.08844 0,-1.59099 0,-0.37855 0.0886,-0.53131 0.17678,-0.88389 0.23596,-0.94386 -0.1911,-2.04971 0,-3.0052 -0.0406,-0.35499 0.27659,-0.57603 0.35355,-0.88388 0.11864,-0.47456 -0.0718,-0.7403 0.17678,-1.23744 0.0951,-0.1901 0.46418,-0.61929 0.53033,-0.88388 0.20226,-0.80904 -0.35707,0.1838 0.17677,-0.88389 0.0373,-0.0745 0.15043,-0.0977 0.17678,-0.17677 0.16354,-0.49063 0.0536,-1.09813 0.17678,-1.59099 0.1489,-0.59559 0.23336,-1.16682 0.35355,-1.76777 0.12002,-0.60007 0,-1.33042 0,-1.94455 0,-1.56868 0.0586,-3.00422 0.53033,-4.41941 0.12375,-0.37123 -0.12374,-0.86621 0,-1.23744 0.10994,-0.3298 0.29695,-0.29695 0.53033,-0.53033 0.10274,-0.10274 0.1025,-0.55855 0.17678,-0.70711 0.0373,-0.0745 0.15656,-0.0959 0.17678,-0.17677 0.0429,-0.1715 -0.0657,-0.3662 0,-0.53033 0.11133,-0.27834 0.56153,-0.59274 0.7071,-0.88389 0.0833,-0.16666 0.065,-0.38126 0.17678,-0.53033 0.12747,-0.16996 0.3801,-0.20332 0.53033,-0.35355 0.44237,-0.44237 1.03137,-1.00208 1.23744,-1.41421 0.11838,-0.23677 0.42172,-0.24495 0.53033,-0.35356 0.0932,-0.0932 0.0836,-0.26038 0.17677,-0.35355 0.0417,-0.0417 0.13511,0.0417 0.17678,0 0.13414,-0.13414 0.16835,-0.69868 0.35355,-0.88388 0.0417,-0.0417 0.13511,0.0417 0.17678,0 0.125,-0.125 -0.0791,-0.37222 0,-0.53033 0.0264,-0.0527 0.15042,0.0527 0.17678,0 0.0559,-0.1119 0.17677,-2.32908 0.4226,-2.3639 2.07937,0.69484 3.98423,1.08414 5.87083,1.16275 2.09816,0.0874 4.14419,-0.0291 6.25,0.125 3.35941,0.24581 0.91311,0.22283 3.5,0.375 2.14867,0.12639 4.34563,0 6.5,0 2.87457,0 5.7656,0.0949 8.625,-0.125 0.77285,-0.0595 1.62049,0.0427 2.375,-0.125 0.25725,-0.0572 0.49275,-0.19284 0.75,-0.25 0.32539,-0.0723 0.66924,0.0413 1,0 0.34473,-0.0431 0.97706,-0.21124 1.25,-0.375 0.0357,-0.0214 -0.0373,-0.10637 0,-0.125 0.89845,-0.44923 0.12652,0.0888 0.875,-0.125 0.26415,-0.0755 0.48585,-0.29953 0.75,-0.375 0.20428,-0.0584 0.42344,-0.0578 0.625,-0.125 0.23049,-0.0768 0.3893,-0.31608 0.625,-0.375 0.24159,-0.0604 0.52,-0.01 0.75,-0.125 0.45686,-0.22843 1.10681,-0.53864 1.625,-0.625 0.84593,-0.14099 1.28468,-0.34919 2.25,-0.625 0.63221,-0.18063 1.36278,-0.16259 2,-0.375 0.73354,-0.24452 0.24557,-0.2807 1,-0.375 0.59167,-0.074 0.85733,-0.11616 1.375,-0.375 0.30772,-0.15386 0.37574,-0.33383 0.625,-0.5 0.52035,-0.3469 1.18224,-0.55724 1.625,-1 0.0295,-0.0295 -0.0295,-0.0955 0,-0.125 0.0524,-0.0524 0.29924,-0.0871 0.375,-0.125 0.16892,-0.0845 1.02828,-0.93156 1.125,-1.125 0.0589,-0.11785 0.0661,-0.25715 0.125,-0.375 0.0417,-0.0833 0.29167,-0.33333 0.375,-0.375 0.0373,-0.0186 0.10637,0.0373 0.125,0 0.0373,-0.0745 -0.0373,-0.17547 0,-0.25 0.0932,-0.18634 0.25,-0.33333 0.375,-0.5 0.26575,-0.35434 0.62931,-0.63147 0.875,-1 0.0231,-0.0347 -0.025,-0.0917 0,-0.125 0.17678,-0.2357 0.46157,-0.37986 0.625,-0.625 0.0735,-0.11019 0.23988,-0.72976 0.25,-0.75 0.10541,-0.21082 0.36483,-0.30691 0.5,-0.5 0.42923,-0.61319 0.49285,-0.99046 0.875,-1.5 0.14797,-0.1973 0.6058,-0.4808 0.625,-0.5 0.10623,-0.10623 0.15615,-0.25769 0.25,-0.375 0.0736,-0.092 0.19729,-0.14459 0.25,-0.25 0.0373,-0.0745 -0.0462,-0.18066 0,-0.25 0.1238,-0.18571 1.50109,-1.03207 1.625,-1.125 0.32794,-0.24596 0.18801,-0.3252 0.625,-0.5 0.83779,-0.33512 1.62842,-0.45068 2.5,-0.625 0.0914,-0.0183 0.16667,-0.0833 0.25,-0.125 0.20833,-0.0417 0.41468,-0.095 0.625,-0.125 0.46898,-0.067 1.044,-0.098 1.5,-0.25 0.0559,-0.0186 0.0833,-0.0833 0.125,-0.125 0.20833,-0.0833 0.40596,-0.20133 0.625,-0.25 0.64408,-0.14313 1.86674,0.0333 2.5,-0.125 0.0904,-0.0226 0.16667,-0.0833 0.25,-0.125 0.25,-0.0833 0.49159,-0.19832 0.75,-0.25 0.16343,-0.0327 0.33501,0.0236 0.5,0 0.66153,-0.0945 1.36401,-0.216 2,-0.375 0.28296,-0.0707 0.58626,0.0412 0.875,0 0.22213,-0.0317 0.40497,-0.206 0.625,-0.25 0.19663,-0.0393 0.43055,0.0486 0.625,0 1.20154,-0.30039 2.47665,-0.25 3.08438,-0.52747 1.68508,2.07321 -0.77791,-0.57611 0.57182,1.31351 0.38593,0.54029 0.89905,0.82202 1.23744,1.41421 0.13075,0.2288 0.18206,0.50703 0.35355,0.70711 0.83518,0.97436 0.49218,0.13862 1.23744,0.88388 0.0719,0.0719 1.2067,2.35191 1.23744,2.47488 0.0286,0.11433 -0.0438,0.24413 0,0.35355 0.0789,0.19726 0.26986,0.33505 0.35355,0.53033 0.29567,0.68989 0.40458,1.41543 0.70711,2.12132 0.58307,1.36049 1.18449,2.70489 1.76777,4.06586 0.36359,0.8484 0.72566,1.63738 1.06066,2.47488 0.0708,0.17708 0.0716,0.56686 0.17677,0.7071 0.15,0.2 0.41853,0.30673 0.53033,0.53033 0.0791,0.15812 -0.0621,0.36481 0,0.53033 0.12065,0.32172 0.37667,0.57657 0.53033,0.88389 0.31411,0.62822 0.0394,0.43244 0.35356,1.06066 0.095,0.1901 0.46418,0.61929 0.53033,0.88388 0.0286,0.11433 0,0.2357 0,0.35356 0,0.17677 -0.0429,0.35883 0,0.53033 0.0404,0.16169 0.27901,0.20448 0.35355,0.35355 0.32515,0.65031 -0.32373,2.35774 0,3.0052 0.12614,0.25228 0.35355,0.21423 0.70665,0.71755 0.3531,0.75879 0.18501,0.64841 -0.0219,1.06223 z"
         id="path3" />
    </g>
  </g>
</svg>
