<?xml version="1.0" encoding="UTF-8" standalone="no"?>
<!-- Created with Inkscape (http://www.inkscape.org/) -->

<svg
   version="1.1"
   id="svg1"
   width="98.464607"
   height="80.52179"
   viewBox="0 0 98.464607 80.52179"
   xmlns="http://www.w3.org/2000/svg"
   xmlns:svg="http://www.w3.org/2000/svg">
  <defs
     id="defs1" />
  <g
     id="layer1"
     style="display:inline"
     transform="translate(-351.07852,-482.95393)">
    <g
       id="layer75"
       style="display:inline;fill:#ffffff;fill-opacity:1;stroke:none">
      <path
         style="fill:#ffffff;fill-opacity:1;stroke:none;stroke-linecap:round"
         d="m 354.9676,553.44364 -3.88908,-10.69499 0.79549,-4.90556 2.34229,-3.44714 0.26517,-22.0087 2.34229,-6.36396 5.03813,-5.65685 34.25049,0.7071 12.68373,-4.15425 10.65079,-9.72272 7.02688,-3.18198 11.93242,-1.06066 -0.0442,1.94454 2.74004,3.13779 3.84489,10.07627 2.87262,3.22618 1.72358,9.45755 -2.12133,5.43588 -4.59619,3.18198 -1.32582,5.08233 -3.18198,7.86657 -4.86136,2.56326 -6.40816,13.74439 -14.00955,12.1092 -6.01041,2.43068 -3.88909,0.26517 -7.29204,-3.53554 -21.03642,-4.15425 z"
         id="path74" />
    </g>
  </g>
</svg>
