<?xml version="1.0" encoding="UTF-8" standalone="no"?>
<!-- Created with Inkscape (http://www.inkscape.org/) -->

<svg
   version="1.1"
   id="svg2"
   width="184.02223"
   height="226.28091"
   viewBox="0 0 184.02223 226.28091"
   xmlns="http://www.w3.org/2000/svg"
   xmlns:svg="http://www.w3.org/2000/svg">
  <defs
     id="defs6">
    <linearGradient
       id="swatch77">
      <stop
         style="stop-color:#e2c69e;stop-opacity:1;"
         offset="0"
         id="stop77" />
    </linearGradient>
  </defs>
  <g
     id="layer66"
     style="display:inline"
     transform="translate(-1044.9514,-607.91353)">
    <g
       id="layer48"
       style="display:inline">
      <path
         style="display:inline;fill:#969696;fill-opacity:1;stroke:none;stroke-opacity:1"
         d="m 1228.8389,833.67126 c -0.067,0.12509 0.045,-0.0416 0.1095,-0.16913 0.042,-0.0844 0.024,-1.05515 0,-1.14905 -0.088,-0.35137 -0.2202,-0.69763 -0.2652,-1.06066 -0.015,-0.11694 0.037,-0.24175 0,-0.35356 -0.047,-0.13975 -0.2101,-0.21677 -0.2651,-0.35355 -0.3468,-0.86676 -0.7512,-1.66444 -1.2375,-2.47487 -0.4024,-0.67068 -0.7189,-1.38768 -1.149,-2.03293 -0.072,-0.10856 -0.342,-0.39225 -0.442,-0.44195 -0.053,-0.0263 -0.1208,0.0186 -0.1768,0 -0.1164,-0.0388 -0.1781,-0.35504 -0.2651,-0.44194 -0.02,-0.0208 -0.067,0.0208 -0.088,0 -0.2375,-0.23753 -0.4284,-0.51868 -0.6187,-0.79549 -0.4873,-0.7087 -1.0865,-1.64666 -1.5026,-2.38649 -0.097,-0.17226 -0.1922,-0.34682 -0.2652,-0.53033 -0.022,-0.0547 0.026,-0.12408 0,-0.17678 -0.066,-0.13176 -0.1892,-0.22723 -0.2652,-0.35355 -0.053,-0.0892 -0.1567,-0.43194 -0.1767,-0.44194 -0.053,-0.0264 -0.1278,0.0327 -0.1768,0 -0.05,-0.0335 -0.1982,-0.28615 -0.2652,-0.35355 -0.2458,-0.24584 -0.6176,-0.49912 -0.7955,-0.7955 -0.1774,-0.29571 -0.1993,-0.66383 -0.3535,-0.97227 -0.056,-0.1118 -0.2252,-0.14658 -0.2652,-0.26517 -0.019,-0.0559 0.014,-0.11957 0,-0.17677 -0.077,-0.30936 -0.5188,-1.17881 -0.7071,-1.41422 -0.018,-0.023 -0.062,0.0132 -0.088,0 -0.1317,-0.0659 -0.2494,-0.16099 -0.3535,-0.26516 -0.046,-0.0466 -0.047,-0.12528 -0.088,-0.17678 -0.2069,-0.25855 -0.7078,-0.70757 -0.9723,-0.88388 -0.1096,-0.0731 -0.2257,-0.14478 -0.3535,-0.17678 -0.086,-0.0214 -0.2032,0.0625 -0.2652,0 -0.021,-0.0208 0.024,-0.0721 0,-0.0884 -0.2048,-0.13657 -0.4077,-0.0502 -0.6187,-0.17677 -0.2305,-0.13826 -0.415,-0.36885 -0.7071,-0.44195 -0.057,-0.0143 -0.1238,0.0264 -0.1768,0 -0.051,-0.0256 0.042,-0.19996 -0.088,-0.26516 -0.4451,-0.22256 -1.1153,-1.45321 -1.3258,-1.94454 -0.059,-0.13809 -0.021,-0.30757 -0.088,-0.44195 -0.013,-0.0264 -0.075,0.0264 -0.088,0 -0.026,-0.0527 0.026,-0.12407 0,-0.17677 -0.053,-0.10607 -0.2122,-0.1591 -0.2652,-0.26517 -0.026,-0.0527 0.042,-0.13507 0,-0.17677 -0.02,-0.0208 -0.067,0.0208 -0.088,0 -0.2251,-0.22516 -0.2226,-0.62213 -0.3535,-0.88389 -0.037,-0.0745 -0.1438,-0.10017 -0.1768,-0.17677 -0.059,-0.13809 -0.027,-0.30466 -0.088,-0.44195 -0.06,-0.13461 -0.2071,-0.21815 -0.2651,-0.35355 -0.035,-0.0812 0.014,-0.17796 0,-0.26516 -0.056,-0.33325 -0.1125,-0.22492 -0.2652,-0.53033 -0.2951,-0.59021 -0.1752,-1.19573 -0.8001,-1.67934 0,-0.32256 -0.1872,-0.48212 -0.2652,-0.7955 -0.068,-0.27205 -0.022,-0.52957 -0.088,-0.79549 -0.1012,-0.40509 -0.5367,-0.77409 -0.6187,-1.06066 -0.041,-0.14445 -0.03,-0.30327 -0.088,-0.44195 -0.5703,-1.36789 -0.1733,0.0102 -0.5303,-1.06066 -0.047,-0.14252 0.2034,-0.33747 -0.088,-0.44194 -0.1542,-0.38556 -0.4798,-0.82078 -0.6187,-1.23743 -0.019,-0.0559 0.026,-0.12408 0,-0.17678 -0.01,-0.0209 -0.4129,-0.53212 -0.4419,-0.61872 -0.028,-0.0838 0.036,-0.18436 0,-0.26516 -0.086,-0.19415 -0.2586,-0.3403 -0.3536,-0.53033 -0.1606,-0.32115 -0.2862,-0.87395 -0.4419,-1.23744 -0.1829,-0.42667 -0.4474,-0.80916 -0.6188,-1.23744 -0.049,-0.12237 -0.03,-0.32662 -0.088,-0.44194 -0.095,-0.19003 -0.2786,-0.3314 -0.3536,-0.53033 -0.052,-0.14067 -0.058,-0.29463 -0.088,-0.44194 -0.059,-0.0884 -0.1368,-0.16657 -0.1768,-0.26517 -0.044,-0.10942 0.029,-0.23922 0,-0.35355 -0.048,-0.19174 -0.1921,-0.34682 -0.2651,-0.53033 -0.077,-0.19343 -0.022,-0.42108 -0.088,-0.61872 -0.034,-0.10078 -0.1358,-0.16716 -0.1768,-0.26516 -0.2498,-0.59957 -0.3905,-1.24747 -0.6187,-1.85616 -0.1175,-0.31337 -0.3392,-0.57569 -0.442,-0.88388 -0.1044,-0.31342 -0.1158,-0.67364 -0.2651,-0.97227 -0.1207,-0.24132 -0.2926,-0.60946 -0.3536,-0.88389 -0.025,-0.11504 0.019,-0.2373 0,-0.35355 -0.048,-0.28938 -0.1701,-0.51057 -0.2651,-0.7955 -0.063,-0.19094 -0.039,-0.42449 -0.088,-0.61871 -0.01,-0.0404 -0.069,-0.0511 -0.088,-0.0884 -0.071,-0.14191 -0.1328,-0.28939 -0.1768,-0.44194 -0.024,-0.085 0.049,-0.19167 0,-0.26517 -0.046,-0.0693 -0.1308,-0.10748 -0.1768,-0.17678 -0.059,-0.0888 -0.01,-0.23023 -0.088,-0.35355 -0.092,-0.13867 -0.2494,-0.22341 -0.3535,-0.35355 -0.041,-0.0515 -0.058,-0.11788 -0.088,-0.17678 -0.1768,-0.20624 -0.3535,-0.41248 -0.5303,-0.61872 -2.24,-2.11554 -0.2751,-0.22839 -1.5026,-1.14905 -0.5446,-0.40844 -0.9905,-1.01385 -1.591,-1.41421 -0.3484,-0.23224 -0.7717,-0.29101 -1.1491,-0.44194 -0.1393,-0.0557 -0.2252,-0.16887 -0.3535,-0.26517 -0.366,-0.27446 -0.8578,-0.38144 -1.2375,-0.61872 -0.106,-0.0662 -0.1671,-0.18706 -0.2651,-0.26516 -0.3492,-0.27935 -0.5981,-0.52669 -0.8839,-0.88388 -0.4849,-0.60615 -1.1259,-0.94068 -1.7678,-1.32583 -0.1263,-0.0758 -0.2198,-0.20346 -0.3535,-0.26516 -0.2984,-0.13772 -0.9036,-0.26219 -1.2375,-0.44195 -0.2447,-0.13177 -0.4585,-0.31763 -0.7071,-0.44194 -0.2828,-0.1414 -0.6789,-0.16736 -0.9722,-0.26516 -0.2239,-0.0746 -0.4775,-0.26166 -0.7071,-0.35356 -0.055,-0.0219 -0.1258,0.0303 -0.1768,0 -0.2686,-0.16113 -0.3638,-0.54541 -0.7071,-0.61871 -0.1062,-0.059 -0.2525,-0.021 -0.3536,-0.0884 -0.089,-0.0589 -0.092,-0.20147 -0.1768,-0.26517 -0.047,-0.0353 -0.1297,0.0354 -0.1767,0 -0.085,-0.0637 -0.094,-0.19876 -0.1768,-0.26516 -0.073,-0.0582 -0.1902,-0.0325 -0.2652,-0.0884 -0.037,-0.0279 -0.5385,-0.62281 -0.7071,-0.70711 -0.053,-0.0263 -0.1238,0.0263 -0.1768,0 -0.078,-0.0417 -0.022,-0.19926 -0.088,-0.26516 -0.021,-0.0208 -0.067,0.0208 -0.088,0 -0.1616,-0.16158 -0.2626,-0.4373 -0.3536,-0.61872 -0.085,-0.17064 -0.3326,-0.50943 -0.4419,-0.61872 -0.047,-0.0466 -0.1388,-0.0348 -0.1768,-0.0884 -0.1694,-0.2372 -0.7107,-1.58187 -0.7107,-1.59087 -0.2301,-0.23007 -0.4511,-0.31695 -0.7071,-0.53033 -0.05,-0.0422 -0.041,-0.13018 -0.088,-0.17678 -0.044,-0.0442 -0.1328,-0.0442 -0.1768,-0.0884 -0.021,-0.0209 0.021,-0.0676 0,-0.0884 -0.1323,-0.1324 -0.379,-0.0127 -0.5303,-0.0884 -0.4045,-0.20228 0.375,0.0366 -0.2652,-0.17678 -0.079,-0.0265 -0.1852,0.0265 -0.2652,0 -0.1007,-0.0336 -0.1051,-0.23007 -0.2651,-0.17677 -0.2883,-0.0721 -0.4709,0.0333 -0.7955,-0.0884 -0.067,-0.025 -0.3272,-0.24607 -0.442,-0.26517 -0.1743,-0.0291 -0.3678,0.0696 -0.5303,0 -0.3705,-0.15879 -0.4584,-0.24119 -0.7955,-0.35355 -0.106,-0.0354 -0.2475,0.0353 -0.3535,0 -0.25,-0.0833 -0.4837,-0.21389 -0.7071,-0.35355 -0.071,-0.0442 -0.1028,-0.13948 -0.1768,-0.17678 -0.053,-0.0264 -0.1238,0.0263 -0.1768,0 -0.074,-0.0373 -0.1098,-0.12678 -0.1768,-0.17678 -0.2108,-0.15811 -0.4912,-0.20243 -0.7071,-0.35355 -0.2706,-0.18946 -0.4189,-0.45734 -0.6187,-0.70711 -0.1232,-0.154 -0.735,-0.43267 -0.8839,-0.61872 -0.082,-0.10288 -0.089,-0.25505 -0.1768,-0.35355 -0.049,-0.0549 -0.7963,-0.76662 -0.9722,-0.88388 -0.1226,-0.0817 -0.2273,-0.18937 -0.3536,-0.26517 -0.08,-0.0479 -0.1941,-0.0278 -0.2651,-0.0884 -0.1433,-0.12277 -0.2202,-0.30854 -0.3536,-0.44194 -0.047,-0.0466 -0.1368,-0.0357 -0.1768,-0.0884 -0.055,-0.0745 -0.03,-0.19236 -0.088,-0.26516 -0.066,-0.083 -0.1991,-0.0939 -0.2651,-0.17678 -0.058,-0.0727 -0.032,-0.19066 -0.088,-0.26516 -0.04,-0.0527 -0.1298,-0.0418 -0.1768,-0.0884 -0.1321,-0.13214 -0.3959,-0.5241 -0.4419,-0.70711 -0.076,-0.30303 -0.1589,-0.40576 -0.2652,-0.79549 -0.2748,-1.00924 0.012,-0.009 -0.088,-0.70711 -0.044,-0.31082 -0.2082,-0.51044 -0.2652,-0.7955 -0.017,-0.0867 0.022,-0.17946 0,-0.26516 -0.05,-0.20211 -0.3117,-0.27926 -0.4419,-0.44194 -0.082,-0.10289 -0.084,-0.26036 -0.1768,-0.35356 -0.099,-0.0994 -0.3239,-0.18646 -0.4419,-0.26516 -0.208,-0.13868 -0.3422,-0.3657 -0.5303,-0.53033 -0.3705,-0.32419 -0.7636,-0.66389 -1.1491,-0.97227 -0.3489,-0.27897 0,0.17889 -0.4419,-0.26517 -0.075,-0.0751 -0.1018,-0.19006 -0.1768,-0.26516 -0.075,-0.0751 -0.1822,-0.11038 -0.2652,-0.17678 -0.5851,-0.46808 -1.1958,-1.01948 -1.6794,-1.59099 -0.3542,-0.41862 -0.531,-0.91422 -0.8838,-1.32582 -0.043,-0.05 -0.1298,-0.0418 -0.1768,-0.0884 -0.1587,-0.15866 -0.1577,-0.42174 -0.2652,-0.61872 -0.1331,-0.24401 -0.3539,-0.44342 -0.4419,-0.70711 -0.068,-0.20348 -0.09,-0.42271 -0.1768,-0.61872 -0.1312,-0.29516 -1.0162,-0.40288 -0.5303,-0.97227 -0.7983,-2.12881 0.2223,0.53563 -0.1768,-1.06066 -0.026,-0.10306 -0.1368,-0.16656 -0.1768,-0.26516 -0.022,-0.0547 0.012,-0.11898 0,-0.17678 -0.053,-0.26679 -0.1711,-0.73636 -0.2651,-0.97227 -0.1436,-0.35893 -0.3842,-0.69531 -0.5304,-1.06066 -0.09,-0.2251 -0.097,-0.55679 -0.1768,-0.7955 -0.1114,-0.33423 -0.3186,-0.64352 -0.4419,-0.97227 -0.2178,-0.58076 -0.341,-1.16213 -0.4419,-1.76777 -0.057,-0.34016 -0.2507,-0.64311 -0.3536,-0.97227 -0.1138,-0.36421 -0.2755,-1.02598 -0.3535,-1.41421 -0.058,-0.29035 -0.03,-0.59354 -0.088,-0.88389 -0.06,-0.3009 -0.2201,-0.52855 -0.3536,-0.79549 -0.041,-0.0833 -0.022,-0.19927 -0.088,-0.26517 -0.02,-0.0208 -0.062,0.0132 -0.088,0 -0.3359,-0.16799 -0.6284,-0.67755 -0.9722,-0.88388 -0.08,-0.0479 -0.1912,-0.0325 -0.2652,-0.0884 -0.052,-0.0395 -0.058,-0.11787 -0.088,-0.17677 -0.1768,-0.11785 -0.3535,-0.23571 -0.5303,-0.35356 -0.051,-0.0292 -0.1198,0.0143 -0.1768,0 -1.0137,-0.25327 1.2449,0.15259 -1.0607,-0.17677 -0.6258,-0.0894 -1.2378,-0.2505 -1.8561,-0.35356 -0.1838,-0.0306 -0.3465,-0.14617 -0.5303,-0.17677 -0.4574,-0.0762 -0.082,0.12618 -0.6188,-0.0884 -0.078,-0.0309 -0.1077,-0.13058 -0.1767,-0.17678 -0.3093,-0.20619 -0.4867,-0.22146 -0.7955,-0.53033 -0.046,-0.0466 -0.037,-0.13458 -0.088,-0.17678 -0.132,-0.10998 -0.2946,-0.17676 -0.442,-0.26516 -0.1178,-0.11785 -0.2281,-0.2438 -0.3535,-0.35355 -0.8159,-0.71358 0.1934,0.37299 -0.8839,-0.88389 -0.047,-0.0466 -0.1348,-0.0374 -0.1768,-0.0884 -0.7328,-0.89596 -0.5907,-0.64645 -0.7018,-1.58927 -0.032,-0.0329 -0.029,-0.0921 -0.062,-0.125 -0.014,-0.0147 -0.047,0.0147 -0.062,0 -0.042,-0.0417 0.042,-0.0833 0,-0.125 -0.017,-0.0175 -0.3417,0.0642 -0.1875,-0.125 -0.1454,-0.21816 -0.3169,-0.50882 -0.4375,-0.75 -0.034,-0.0672 -0.072,-0.1344 -0.125,-0.1875 -0.014,-0.0147 -0.052,0.019 -0.062,0 -0.08,-0.18061 -0.1355,-0.37182 -0.1875,-0.5625 -0.04,-0.14878 0.01,-0.36301 -0.062,-0.5 -0.1465,-0.2935 -0.094,-0.0786 -0.1875,-0.3125 -0.031,-0.0798 -10e-4,-0.1893 -0.062,-0.25 -0.033,-0.0329 -0.092,-0.0296 -0.125,-0.0625 -0.03,-0.0297 -0.095,-0.2203 -0.125,-0.25 -0.056,-0.0565 -0.428,-0.3391 -0.5,-0.375 -0.077,-0.0384 -0.173,-0.0241 -0.25,-0.0625 -0.072,-0.0363 -0.959,-0.7093 -1,-0.75 -0.03,-0.0295 0.028,-0.0939 0,-0.125 -0.2178,-0.24499 -0.6113,-0.41919 -0.8125,-0.6875 -0.098,-0.1303 -0.1914,-0.25394 -0.3125,-0.375 -0.3945,-0.39396 0.2683,0.52434 -0.3125,-0.25 -0.013,-0.0167 0.012,-0.0452 0,-0.0625 -0.089,-0.1332 -0.3063,-0.2876 -0.4375,-0.375 -0.2618,-0.17452 -0.5367,-0.23708 -0.8125,-0.375 -0.2853,-0.14263 -0.8572,-0.57144 -1.125,-0.75 -0.111,-0.074 -0.1967,-0.1838 -0.3125,-0.25 -0.5147,-0.29413 -0.9941,-0.63397 -1.5,-0.9375 -0.3665,-0.21992 -0.7645,-0.3956 -1.125,-0.625 -0.6422,-0.40868 -1.2464,-0.8934 -1.875,-1.3125 -0.155,-0.10336 -0.3509,-0.1382 -0.5,-0.25 -0.5291,-0.3968 -1.0041,-0.87854 -1.5,-1.3125 -0.4048,-0.3542 -0.8195,-0.66379 -1.1875,-1.0625 -0.432,-0.46803 -0.9565,-0.96594 -1.3125,-1.5 -0.067,-0.10108 -0.1145,-0.2153 -0.1875,-0.3125 -0.3,-0.4 -0.1,0.0125 -0.4375,-0.4375 -0.1179,-0.15723 -0.1992,-0.33943 -0.3125,-0.5 -0.1971,-0.27915 -0.4264,-0.53446 -0.625,-0.8125 -0.1268,-0.17757 -0.1933,-0.38375 -0.3125,-0.5625 -0.2091,-0.31366 -0.4164,-0.6246 -0.625,-0.9375 -0.2101,-0.31509 -0.4869,-0.62226 -0.6875,-0.9375 -0.2053,-0.32266 -0.4042,-0.65183 -0.5625,-1 -0.3927,-0.86395 0.3096,0.39471 -0.1875,-0.5 -0.3088,-0.55585 -0.09,-0.10435 -0.5625,-0.8125 -0.155,-0.23257 -0.2579,-0.49622 -0.375,-0.75 -0.083,-0.17945 -0.091,-0.38973 -0.1875,-0.5625 -0.1479,-0.2663 -0.4117,-0.4236 -0.5625,-0.6875 -0.089,-0.15543 -0.2275,-0.64337 -0.3125,-0.75 -0.047,-0.0587 -0.1345,-0.0719 -0.1875,-0.125 -0.2364,-0.23641 -0.3105,-0.64118 -0.4375,-0.9375 -0.059,-0.13809 -0.18,-0.24223 -0.25,-0.375 -0.1308,-0.24703 -0.238,-0.50639 -0.375,-0.75 -0.1332,-0.23675 -0.2817,-0.46497 -0.4375,-0.6875 -0.051,-0.0724 -0.1385,-0.114 -0.1875,-0.1875 -0.3227,-0.48409 -0.5317,-1.05705 -0.8125,-1.5625 -0.1094,-0.19699 -0.2656,-0.36551 -0.375,-0.5625 -0.146,-0.2628 -0.2425,-0.54751 -0.375,-0.8125 -0.026,-0.0527 -0.09,-0.0779 -0.125,-0.125 -0.205,-0.27332 -0.4224,-0.54233 -0.625,-0.8125 -0.028,-0.0373 -0.026,-0.0959 -0.062,-0.125 -0.073,-0.0582 -0.172,-0.0733 -0.25,-0.125 -0.1054,-0.0703 -0.833,-0.7662 -0.875,-0.8125 -0.062,-0.0693 -0.065,-0.1784 -0.125,-0.25 -0.048,-0.0577 -0.1375,-0.0685 -0.1875,-0.125 -0.099,-0.11306 -0.152,-0.26094 -0.25,-0.375 -0.03,-0.0354 -0.092,-0.0296 -0.125,-0.0625 -0.168,-0.16797 -0.2829,-0.38215 -0.4375,-0.5625 -0.095,-0.1111 -0.2215,-0.19826 -0.3125,-0.3125 -0.1861,-0.23258 -0.3009,-0.45998 -0.5,-0.6875 -0.1624,-0.18563 -0.3133,-0.3452 -0.4375,-0.5625 -0.046,-0.0809 -0.083,-0.1667 -0.125,-0.25 -0.02,-0.0625 -0.03,-0.1299 -0.062,-0.1875 -0.073,-0.13133 -0.183,-0.24063 -0.25,-0.375 -0.3125,-0.625 0,-0.15625 -0.1875,-0.5625 -0.3255,-0.70516 -0.6228,-1.41687 -0.9375,-2.125 -0.083,-0.1875 -0.164,-0.3762 -0.25,-0.5625 -0.164,-0.35528 -0.4232,-0.62848 -0.5625,-1 -0.1146,-0.30555 -0.1434,-0.55097 -0.2224,-0.9063 -0.046,-0.13894 -0.01,-0.26597 -0.031,-0.40625 -0.039,-0.2368 -0.01,-0.0127 -0.062,-0.125 -0.021,-0.0423 -0.062,-0.2836 -0.062,-0.3125 -0.023,-0.18424 0.026,-0.37874 0,-0.5625 -0.01,-0.0751 -0.072,-0.13925 -0.062,-0.21875 -0.012,-0.0923 0.012,-0.18895 0,-0.28125 -0.01,-0.0629 -0.02,-0.125 -0.031,-0.1875 -0.01,-0.0417 -0.021,-0.0824 -0.031,-0.125 -0.017,-0.13333 0.017,-0.27292 0,-0.40625 -0.01,-0.0632 -0.078,-0.277 -0.094,-0.3125 -0.015,-0.0343 -0.049,-0.0584 -0.062,-0.0937 -0.029,-0.0807 -0.033,-0.1693 -0.062,-0.25 -0.029,-0.0789 -0.091,-0.14205 -0.125,-0.21875 -0.075,-0.16797 -0.152,-0.3435 -0.25,-0.5 -0.015,-0.025 -0.047,-0.0371 -0.062,-0.0625 -0.058,-0.1006 -0.1042,-0.20833 -0.1562,-0.3125 -0.032,-0.0729 -0.055,-0.14945 -0.094,-0.21875 -0.058,-0.10382 -0.1507,-0.18355 -0.2187,-0.28125 -0.1874,-0.27076 -0.3596,-0.57836 -0.5938,-0.8125 -0.047,-0.0472 -0.1142,-0.0729 -0.1562,-0.125 -0.044,-0.0546 -0.053,-0.131 -0.094,-0.1875 -0.01,-0.0136 -0.2542,-0.25165 -0.2812,-0.28125 -0.121,-0.13441 -0.2284,-0.29633 -0.375,-0.40625 -0.2468,-0.1851 -0.5145,-0.36322 -0.75,-0.5625 -0.3521,-0.29796 -0.6351,-0.65733 -0.9375,-1 -0.068,-0.0773 -0.1538,-0.13895 -0.2188,-0.21875 -0.029,-0.0361 -0.038,-0.0851 -0.062,-0.125 -0.07,-0.11746 -0.167,-0.26204 -0.25,-0.375 -0.079,-0.10757 -0.163,-0.21122 -0.25,-0.3125 -0.038,-0.0447 -0.092,-0.0764 -0.125,-0.125 -0.2858,-0.41574 -0.4083,-0.84902 -0.5937,-1.3125 -0.1947,-0.48676 -0.4223,-0.98235 -0.625,-1.46875 -0.075,-0.18002 -0.082,-0.38218 -0.1563,-0.5625 -0.2687,-0.65368 -0.061,-0.1164 -0.2187,-0.40625 -0.1185,-0.21718 -0.2266,-0.43873 -0.3438,-0.65625 -0.08,-0.14789 -0.184,-0.28312 -0.25,-0.4375 -0.1335,-0.31151 -0.2547,-0.67378 -0.3437,-1 -0.032,-0.11763 -0.095,-0.22547 -0.125,-0.34375 -0.018,-0.0715 -0.01,-0.14835 -0.031,-0.21875 -0.021,-0.0668 -0.067,-0.123 -0.094,-0.1875 -0.2043,-0.4902 -0.3285,-1.01915 -0.7518,-1.3753 0,-0.14915 -0.1415,-0.14985 -0.1875,-0.21875 0,-0.006 -0.031,-0.122 -0.031,-0.125 -0.014,-0.0147 -0.047,0.0147 -0.062,0 -0.035,-0.0351 -0.066,-0.11455 -0.094,-0.15625 -0.025,-0.0367 -0.067,-0.0584 -0.094,-0.0937 -0.1292,-0.17238 -0.153,-0.33843 -0.25,-0.53125 -0.023,-0.0466 -0.069,-0.0795 -0.094,-0.125 -0.129,-0.23245 -0.024,-0.0723 -0.062,-0.28125 -0.02,-0.107 -0.076,-0.20523 -0.094,-0.3125 -0.041,-0.24453 -0.101,-0.5548 -0.125,-0.8125 -0.02,-0.21687 0.012,-0.43873 0,-0.65625 -0.014,-0.26153 -0.044,-0.52008 -0.062,-0.78125 -0.034,-0.50324 0.046,-0.62711 -0.1875,-1.09375 -0.046,-0.0918 -0.052,-0.20875 -0.125,-0.28125 -0.037,-0.0368 -0.088,-0.0569 -0.125,-0.0937 -0.026,-0.0265 -0.035,-0.0671 -0.062,-0.0937 -0.1446,-0.14468 -0.3148,-0.27157 -0.4687,-0.40625 -0.089,-0.0776 -0.159,-0.1754 -0.25,-0.25 -0.069,-0.0568 -0.1508,-0.0973 -0.2188,-0.15625 -0.1995,-0.17461 -0.3636,-0.38706 -0.5625,-0.5625 -0.078,-0.0689 -0.171,-0.1193 -0.25,-0.1875 -0.211,-0.18289 -0.3843,-0.40898 -0.5937,-0.59375 -0.144,-0.12708 -0.2917,-0.25 -0.4375,-0.375 -0.02,-0.0104 -0.044,-0.016 -0.062,-0.0312 -0.056,-0.0479 -0.096,-0.11295 -0.1563,-0.15625 -0.2013,-0.14645 -0.5038,-0.25101 -0.7187,-0.375 -0.1702,-0.0982 -0.3278,-0.2178 -0.5,-0.3125 -0.038,-0.0207 -0.085,-0.0153 -0.125,-0.0312 -0.047,-0.0188 -0.1093,-0.0748 -0.1563,-0.0937 -0.1132,-0.0453 -0.2305,-0.0797 -0.3437,-0.125 -0.3458,-0.13833 -0.7114,-0.35048 -1.0313,-0.53125 -0.065,-0.037 -0.1205,-0.0914 -0.1875,-0.125 -0.3084,-0.15422 -0.629,-0.28328 -0.9375,-0.4375 -0.442,-0.22104 -0.8655,-0.47372 -1.3125,-0.6875 -0.4769,-0.22811 -0.5663,-0.23647 -1.0937,-0.5625 -0.074,-0.0456 -0.1311,-0.11418 -0.1961,-0.17128 -0.029,-0.0288 -0.067,-0.0794 -0.1105,-0.0884 -0.021,-0.004 -0.044,0.005 -0.066,0 -0.01,-0.002 -0.012,-0.0171 -0.022,-0.0221 -0.043,-0.0245 -0.087,-0.0473 -0.1326,-0.0663 -0.1472,-0.0613 -0.2934,-0.11427 -0.442,-0.17677 -0.2104,-0.0886 -0.4263,-0.18693 -0.6187,-0.30936 -0.04,-0.0253 -0.07,-0.0658 -0.1105,-0.0884 -0.041,-0.0223 -0.092,-0.0214 -0.1326,-0.0442 -0.1725,-0.0971 -0.2915,-0.23325 -0.4419,-0.35355 -0.1879,-0.1503 -0.3952,-0.26957 -0.5966,-0.39775 -0.1555,-0.099 -0.3073,-0.23067 -0.4641,-0.33145 -0.1191,-0.0766 -0.2786,-0.0821 -0.3756,-0.19888 -0.065,-0.0434 -0.1178,-0.10308 -0.1768,-0.15468 -0.052,-0.0368 -0.1017,-0.0753 -0.1547,-0.11048 -0.3035,-0.20235 -0.6268,-0.38253 -0.9059,-0.61872 -0.1433,-0.12124 -0.2768,-0.25664 -0.3978,-0.39775 -0.027,-0.0316 -0.063,-0.0551 -0.088,-0.0884 -0.1831,-0.24344 -0.2181,-0.63677 -0.2651,-0.92807 -0.018,-0.11126 -0.051,-0.21977 -0.066,-0.33146 -0.011,-0.0806 -0.012,-0.16207 -0.022,-0.24307 -0.01,-0.0589 -0.012,-0.11797 -0.022,-0.17677 -0.016,-0.11258 -0.047,-0.21958 -0.066,-0.33146 -0.01,-0.044 -0.013,-0.16507 -0.044,-0.22097 -0.1421,-0.26048 -0.4428,-0.62891 -0.6629,-0.81759 -0.02,-0.0173 -0.047,-0.0254 -0.066,-0.0442 -0.033,-0.0334 -0.053,-0.079 -0.088,-0.11048 -0.1532,-0.13788 -0.4134,-0.27452 -0.5745,-0.39775 -0.033,-0.0253 -0.055,-0.0624 -0.088,-0.0884 -0.7093,-0.56743 0.015,0.0477 -0.7513,-0.55243 -0.04,-0.0321 -0.072,-0.0758 -0.1105,-0.11048 -0.1012,-0.0906 -0.2104,-0.17227 -0.3094,-0.26517 -0.019,-0.0182 -0.027,-0.0459 -0.044,-0.0663 -0.5233,-0.62797 0.1362,0.20689 -0.3093,-0.39775 -0.1613,-0.21891 -0.3549,-0.41595 -0.5083,-0.64081 -0.1631,-0.23927 -0.2655,-0.50883 -0.4198,-0.7513 -0.025,-0.0398 -0.062,-0.0713 -0.088,-0.11049 -0.1804,-0.27058 -0.3198,-0.57244 -0.4651,-0.86177 -0.09,0 -0.1772,-0.0286 -0.2652,-0.0442 -0.088,-0.0156 -0.1792,-0.0202 -0.2652,-0.0442 -0.1016,-0.0282 -0.1902,-0.0911 -0.2872,-0.13258 -0.4848,-0.20776 -0.9219,-0.47388 -1.37,-0.75131 -0.3495,-0.21635 -0.6861,-0.47522 -0.9723,-0.77339 -0.1013,-0.10547 -0.1893,-0.22279 -0.2873,-0.33146 -0.3214,-0.35714 0.2277,0.3348 -0.4419,-0.44194 -0.1588,-0.18419 -0.2611,-0.41244 -0.4199,-0.59662 -0.1088,-0.12624 -0.2488,-0.2239 -0.3535,-0.35356 -0.01,-0.009 -0.1799,-0.36384 -0.1989,-0.39774 -0.093,-0.16376 -0.1933,-0.3231 -0.2873,-0.48614 -0.1023,-0.17738 -0.1781,-0.36832 -0.2651,-0.55243 -0.123,-0.25888 -0.2658,-0.50869 -0.3757,-0.7734 -0.053,-0.12708 -0.062,-0.26871 -0.1105,-0.39774 -0.026,-0.0711 -0.076,-0.13108 -0.1104,-0.19888 -0.2505,-0.50086 0.1049,0.18307 -0.1105,-0.30936 -0.1291,-0.29508 -0.3286,-0.55959 -0.4862,-0.83969 -0.1567,-0.27872 -0.3168,-0.55579 -0.464,-0.83968 -0.049,-0.0936 -0.084,-0.19397 -0.1326,-0.28727 -0.024,-0.047 -0.064,-0.0855 -0.088,-0.13258 -0.071,-0.13739 -0.1328,-0.27973 -0.1988,-0.41984 -0.052,-0.11032 -0.1127,-0.21688 -0.1547,-0.33146 -0.047,-0.12932 -0.073,-0.26517 -0.1105,-0.39775 -0.014,-0.0516 -0.026,-0.10428 -0.044,-0.15468 -0.027,-0.075 -0.06,-0.14732 -0.091,-0.22092 -0.01,-0.0104 -0.1979,-0.57252 -0.1989,-0.57452 -0.027,-0.0718 -0.033,-0.0332 -0.066,-0.13258 -0.012,-0.0357 -0.01,-0.0764 -0.022,-0.11049 -0.055,-0.11837 -0.2142,-0.37202 -0.2872,-0.48614 -0.3554,-0.55841 0.2927,0.47216 -0.2431,-0.33145 -0.075,-0.11314 -0.1349,-0.25556 -0.1989,-0.37565 -0.1146,-0.21495 -0.073,-0.11723 -0.2209,-0.35356 -0.089,-0.1428 -0.1631,-0.29399 -0.2431,-0.44194 -0.1,-0.18488 -0.2535,-0.33483 -0.3315,-0.53033 -0.064,-0.15898 -0.095,-0.32554 -0.1546,-0.48613 -0.061,-0.16413 -0.1369,-0.32244 -0.1989,-0.48614 -0.1049,-0.27659 -0.1868,-0.56145 -0.2873,-0.83969 -0.093,-0.25815 -0.2042,-0.51161 -0.2872,-0.7734 -0.1765,-0.55579 0.027,0.0388 -0.1105,-0.44194 -0.09,-0.31524 -0.1952,-0.60757 -0.2652,-0.92808 -0.036,-0.16537 -0.03,-0.34501 -0.066,-0.50823 -0.011,-0.0523 -0.034,-0.10158 -0.044,-0.15468 -0.01,-0.051 0.01,-0.10338 0,-0.15468 0,-0.0456 -0.051,-0.11888 -0.066,-0.15468 -0.047,-0.10967 -0.082,-0.22391 -0.1325,-0.33145 -0.015,-0.0333 -0.047,-0.0567 -0.066,-0.0884 -0.2356,-0.39747 -0.2564,-0.49874 -0.5304,-0.7955 -0.018,-0.0195 -0.049,-0.0237 -0.066,-0.0442 -0.1404,-0.17058 -0.2693,-0.35052 -0.3977,-0.53033 -0.1109,-0.15533 -0.1544,-0.27461 -0.3094,-0.41985 -0.043,-0.0406 -0.1056,-0.0543 -0.1546,-0.0884 -0.06,-0.0418 -0.099,-0.10798 -0.1547,-0.15468 -0.1403,-0.11687 -0.2796,-0.23667 -0.4199,-0.35355 -0.2225,-0.18548 -0.4569,-0.34641 -0.6629,-0.55243 -0.2138,-0.21386 -0.3992,-0.45343 -0.6187,-0.66291 -0.1336,-0.12753 -0.4306,-0.38637 -0.5524,-0.53033 -0.1665,-0.1968 -0.2779,-0.43663 -0.4641,-0.61872 -0.1765,-0.2044 -0.3966,-0.37127 -0.5745,-0.57452 -0.028,-0.0323 -0.039,-0.077 -0.066,-0.11049 -0.1502,-0.18779 -0.315,-0.36367 -0.464,-0.55242 -0.072,-0.0914 -0.1329,-0.19147 -0.1989,-0.28727 -0.015,-0.0295 -0.025,-0.0614 -0.044,-0.0884 -0.099,-0.14271 -0.2143,-0.27457 -0.3093,-0.41985 -0.3282,-0.49923 -0.1057,-0.18469 -0.2652,-0.53033 -0.057,-0.12437 -0.073,-0.0774 -0.088,-0.19887 -0.012,-0.10007 0.027,-0.22105 0.044,-0.30935 0,-0.0516 0.01,-0.10348 0,-0.15468 0,-0.0163 -0.022,-0.0279 -0.022,-0.0442 -0.018,-0.11126 0,-0.2418 0,-0.35355 v -0.7513 -0.59662 c 0,-0.0958 0.014,-0.19256 0,-0.28726 -0.016,-0.11143 -0.046,-0.2205 -0.066,-0.33146 -0.04,-0.22143 -0.039,-0.32522 -0.1105,-0.55243 -0.038,-0.12002 -0.077,-0.24097 -0.1326,-0.35355 -0.01,-0.0186 -0.034,-0.0251 -0.044,-0.0442 -0.043,-0.10032 -0.067,-0.20895 -0.1105,-0.30936 -0.091,-0.20845 -0.2401,-0.4006 -0.3536,-0.59663 -0.1665,-0.28757 -0.375,-0.7053 -0.464,-1.01646 -0.01,-0.0283 0,-0.0591 0,-0.0884 0,-0.0446 -0.012,-0.0884 -0.022,-0.13258 -0.01,-0.0958 -0.012,-0.19146 -0.022,-0.28726 -0.048,-0.55166 0,-1.10456 -0.022,-1.65729 -0.012,-0.26238 -0.069,-0.53341 -0.088,-0.79549 -0.033,-0.44644 -0.022,-0.90112 -0.022,-1.34792 0,-0.23685 0.029,-0.47109 0.044,-0.70711 0,-0.0655 -0.01,-0.15957 0,-0.22097 0.018,-0.18483 0.062,-0.36819 0.088,-0.55243 0.012,-0.0851 0.01,-0.18006 0.022,-0.26516 0.029,-0.20219 0.1228,-0.5338 0.1988,-0.70711 0.034,-0.0768 0.2334,-0.23016 0.3094,-0.28726 0.1709,-0.12818 0.4065,-0.19008 0.6187,-0.15468 0.09,0.015 0.1752,0.0524 0.2652,0.0663 0.08,0.0123 0.1631,-0.0103 0.02,0.0332 -0.4819,0.0332 -0.4483,0.0451 -0.665,-0.0994 -0.044,-0.0296 -0.1148,-0.003 -0.1768,-0.0442 -0.121,-0.0807 -0.2334,-0.16896 -0.3536,-0.26516 -0.074,-0.0589 -0.1539,-0.11008 -0.2209,-0.17678 -0.059,-0.0589 0.094,-0.0424 -0.044,-0.0884 -0.028,-0.009 -0.06,0.009 -0.088,0 -0.1053,-0.0351 -0.1712,-0.17397 -0.2652,-0.22097 -0.061,-0.0303 -0.2201,0.0451 -0.2651,0 -0.033,-0.033 0.08,-0.12958 -0.044,-0.13258 -0.024,-0.0163 -0.062,0.0132 -0.088,0 -0.1089,-0.0545 -0.37,-0.33431 -0.442,-0.44194 -0.018,-0.0274 -0.021,-0.0651 -0.044,-0.0884 -0.023,-0.0233 -0.065,-0.0209 -0.088,-0.0442 -0.037,-0.0376 -0.064,-0.0851 -0.088,-0.13259 -0.013,-0.0264 0.021,-0.0676 0,-0.0884 -0.1084,-0.10838 -0.131,-0.0872 -0.221,-0.17678 -0.01,-0.0104 0.01,-0.0338 0,-0.0442 -0.01,-0.0104 -0.029,0 -0.044,0 -0.014,-0.0295 -0.029,-0.0589 -0.044,-0.0884 -0.02,-0.0208 -0.062,0.0132 -0.088,0 -0.138,-0.069 -0.2849,-0.31315 -0.3977,-0.39775 -0.038,-0.0279 -0.093,-0.0202 -0.1326,-0.0442 -0.087,-0.052 -0.134,-0.16897 -0.221,-0.22097 -0.058,-0.0349 -0.2373,-0.11468 -0.3093,-0.13258 -0.1844,-0.0461 -0.3509,-0.10498 -0.5304,-0.17678 -0.1752,-0.0701 -0.4354,-0.0517 -0.6187,-0.0884 -0.4825,-0.0965 -0.2552,-0.0996 -0.7955,-0.17678 -0.088,-0.0125 -0.1781,0.0173 -0.2651,0 -0.172,-0.0344 -0.3635,-0.077 -0.5304,-0.13258 -0.5226,-0.1742 -0.9779,-0.57594 -1.5026,-0.70711 -0.064,-0.016 -0.1118,-0.0755 -0.1768,-0.0884 -0.087,-0.0173 -0.1791,0.0214 -0.2651,0 -0.02,-0.005 -0.029,-0.0295 -0.044,-0.0442 -0.074,-0.0147 -0.147,-0.0295 -0.221,-0.0442 -0.4156,-0.0412 -0.02,0.0692 -0.5303,-0.0442 -0.1043,-0.0232 -0.2062,-0.10308 -0.3094,-0.13258 -0.6107,-0.17449 0.1146,0.049 -0.3977,-0.0442 -0.2354,-0.0428 -0.4069,-0.13017 -0.6187,-0.22097 -0.2467,-0.10573 -0.4973,-0.15167 -0.7513,-0.22097 -0.077,-0.0209 -0.144,-0.0712 -0.221,-0.0884 -0.1012,-0.0225 -0.2088,0.0201 -0.3094,0 -0.5254,-0.1051 0.3497,0.0214 -0.3093,-0.0884 -0.194,-0.0323 -0.4218,0 -0.6188,0 h -1.4142 -1.591 c -0.035,0 -0.4583,-0.0483 -0.5303,0 -0.027,0.0183 -0.021,0.0651 -0.044,0.0884 -0.01,0.0104 -0.034,-0.0104 -0.044,0 -0.1904,0.19039 -0.2379,0.47576 -0.3535,0.70711 -0.098,0.1955 -0.3685,0.54846 -0.5746,0.66291 -0.069,0.0385 -0.1539,0.0463 -0.2209,0.0884 -0.063,0.0395 -0.1772,0.19887 -0.2652,0.22097 -0.1797,0.0449 -1.3874,-0.10624 -1.4584,0.17678 -0.011,0.0429 0.011,0.0897 0,0.13258 -0.021,0.0848 -0.1146,0.15979 -0.1326,0.26517 -0.034,0.22907 -0.021,0.47604 -0.044,0.7071 -0.09,0.89561 -0.2459,1.76605 -0.8839,2.47488 -0.3987,0.44302 -0.9133,0.76603 -1.2374,1.01646 0.114,0.48592 0.176,1.1107 0.089,1.72357 -0.033,0.231 0.026,0.47508 0,0.70711 -0.043,0.38584 -0.185,0.75756 -0.221,1.14905 -0.02,0.22055 -0.013,0.44368 -0.044,0.66291 -0.066,0.19696 -0.1076,0.28625 -0.1326,0.48614 -0.02,0.16079 0.012,0.32457 0,0.48613 -0.01,0.0749 -0.034,0.14618 -0.044,0.22098 -0.041,0.45296 0.035,0.91646 0,1.37001 -0.034,0.44462 -0.186,0.87664 -0.221,1.32583 -0.029,0.37722 0,0.77063 0,1.14905 0,0.42704 -0.057,0.92001 0.044,1.32582 0.038,0.15217 -0.022,0.33015 0,0.48614 0.034,0.23855 0.099,0.4727 0.1326,0.70711 0.01,0.0583 -0.014,0.11957 0,0.17677 0.016,0.0639 0.065,0.11528 0.088,0.17678 0.05,0.13044 0.076,0.27004 0.1326,0.39775 0.01,0.0135 0.034,-0.0132 0.044,0 0.082,0.16356 0.078,0.32352 0.1326,0.48613 0.021,0.0625 0.072,0.11288 0.088,0.17678 0.01,0.0286 -0.012,0.0613 0,0.0884 0.034,0.0789 0.094,0.14417 0.1326,0.22097 0.056,0.11258 0.076,0.24098 0.1326,0.35355 0.024,0.0475 0.069,0.0833 0.088,0.13258 0.011,0.0274 -0.011,0.061 0,0.0884 0.04,0.0986 0.1378,0.16657 0.1768,0.26517 0.011,0.0274 -0.015,0.0631 0,0.0884 0.1077,0.17941 0.3572,0.35839 0.4862,0.53033 0.053,0.0703 0.1057,0.23836 0.1767,0.30936 0.023,0.0233 0.065,0.0209 0.088,0.0442 0.054,0.0538 0.021,0.0987 0.088,0.13258 0.024,0.0119 0.195,0.0623 0.221,0.0884 0.054,0.0538 0.021,0.0987 0.088,0.13258 0.039,0.0198 0.1116,0.0263 0.1326,0.0884 0.033,0.0978 -0.017,0.20764 0,0.30936 0,0.0206 0.034,0.0244 0.044,0.0442 0.049,0.14687 0,0.86902 0,1.06066 v 2.65165 c -0.072,0.52628 -0.042,1.06073 -0.042,1.59093 0,0.16204 -0.027,0.32629 0,0.48613 0.01,0.0518 0.075,0.31956 0.088,0.35356 0.01,0.0193 0.034,0.0244 0.044,0.0442 0.03,0.0894 0.019,0.21456 0.1326,0.26516 0.7979,0.3546 0.086,0.0167 0.4862,0.17678 0.079,0.0318 0.1369,0.11578 0.2209,0.13258 0.1127,0.0225 0.4846,-0.002 0.5746,0.0884 0.023,0.0233 0.021,0.0651 0.044,0.0884 0.015,0.0151 0.1298,-0.01 0.1768,0.13258 0.048,0.14406 -0.076,0.31755 -0.1768,0.39775 -0.023,0.0184 -0.064,-0.0171 -0.088,0 -0.074,0.0737 -0.147,0.14727 -0.221,0.22097 0,0.0147 0.012,0.0352 0,0.0442 -0.1719,0.12894 -0.8567,0.45687 -0.9723,0.61871 -0.051,0.0718 -0.2401,0.48633 -0.2651,0.57453 -0.044,0.1621 0,0.36513 -0.044,0.53033 -0.083,0.33357 0,0.6335 0,0.97227 v 2.47487 c 0,0.0852 0.036,1.07615 0,1.14905 0.089,0.36397 -0.1248,0.0805 -0.1768,0.13258 -0.023,0.0233 -0.021,0.0651 -0.044,0.0884 -0.012,0.0116 -0.2966,0.17807 -0.3536,0.22097 -0.04,0.0295 -0.088,0.11729 -0.1325,0.13259 -0.028,0.009 -0.064,-0.0164 -0.088,0 -0.027,0.0183 -0.021,0.0651 -0.044,0.0884 -0.2887,0.28868 0.1411,-0.26477 -0.1768,0.13259 -0.033,0.0415 -0.051,0.095 -0.088,0.13258 -0.01,0.0104 -0.034,-0.0118 -0.044,0 -0.04,0.0527 -0.052,0.12198 -0.088,0.17678 -0.144,0.21597 -0.3231,0.42526 -0.4419,0.66291 -0.021,0.0417 -0.021,0.0921 -0.044,0.13258 -0.1024,0.17913 -0.2574,0.36684 -0.3094,0.57453 -0.01,0.0286 0,0.0589 0,0.0884 -0.015,0.0589 -0.025,0.11918 -0.044,0.17678 -0.025,0.0753 -0.071,0.14357 -0.088,0.22097 -0.075,0.33964 0.1171,0.78241 -0.044,1.10486 -0.09,0.17975 -0.2185,0.33444 -0.3977,0.44194 -0.04,0.024 -0.094,0.0183 -0.1326,0.0442 -0.012,0.008 0.01,0.0338 0,0.0442 -0.023,0.0233 -0.065,0.0209 -0.088,0.0442 -0.01,0.0104 0.01,0.0338 0,0.0442 -0.061,0.0607 -0.1599,0.0718 -0.2209,0.13259 -0.085,0.0854 -0.079,0.18516 -0.1326,0.26516 -0.023,0.0347 -0.065,0.0537 -0.088,0.0884 -0.09,0.1348 -0.143,0.29943 -0.221,0.44194 -0.2003,0.36733 -0.4393,0.7828 -0.5303,1.19325 -0.019,0.0863 0,0.17676 0,0.26516 0,0.3094 0,0.54337 0.088,0.83969 0.018,0.0629 0.057,0.32405 0.088,0.39775 0.093,0.21594 0.2501,0.41184 0.3535,0.61872 0.021,0.0417 0.02,0.0926 0.044,0.13258 0.1155,0.19252 0.307,0.35042 0.442,0.53033 0.1249,0.16658 0.3233,0.31984 0.4861,0.44194 0.012,0.009 0.03,0 0.044,0 0.059,0.0442 0.1248,0.0805 0.1768,0.13258 0.043,0.043 0.017,0.12248 0.044,0.17678 0.055,0.11025 0.1879,0.39974 0.2209,0.53033 0.011,0.0429 -0.014,0.0907 0,0.13258 0.243,0.72995 0.221,1.48679 0.221,2.2539 0,0.18465 0.026,0.39222 0,0.57453 -0.01,0.0601 -0.032,0.11718 -0.044,0.17678 0,0.0226 0.015,0.11728 0,0.13258 -0.074,0.0737 -0.044,-0.16205 -0.044,0.0884 -0.056,0.24061 -0.039,0.57129 -0.1792,0.79536 -0.5294,0.66182 -0.072,-0.004 -0.1767,0.30936 -0.023,0.0699 -0.081,0.12468 -0.1326,0.17678 -0.01,0.0104 -0.034,-0.0104 -0.044,0 -0.023,0.0233 -0.017,0.0701 -0.044,0.0884 -0.024,0.0163 -0.061,-0.009 -0.088,0 -0.059,0.0198 -0.079,0.10038 -0.1326,0.13258 -0.3593,0.21561 0.047,-0.0905 -0.221,0.0884 -0.1935,0.12899 -0.4431,0.51003 -0.5745,0.7071 -0.1071,0.16075 -0.2131,0.54485 -0.2651,0.7513 -0.01,0.0286 0.01,0.0604 0,0.0884 -0.01,0.0198 -0.034,0.024 -0.044,0.0442 -0.011,0.0429 0.011,0.0897 0,0.13258 -0.01,0.0202 -0.034,0.0244 -0.044,0.0442 -0.065,0.1965 0.031,0.57605 0,0.7955 -0.013,0.0915 -0.18,0.25785 -0.221,0.35355 -0.1048,0.24557 -0.012,0.15596 -0.1768,0.48614 -0.1185,0.23696 -0.2398,0.39125 -0.3535,0.61872 -0.01,0.0132 0.012,0.0362 0,0.0442 -0.039,0.0258 -0.095,0.0162 -0.1326,0.0442 -0.026,0.0198 -0.026,0.061 -0.044,0.0884 -0.083,0.12425 -0.2379,0.26106 -0.3536,0.35356 -0.2699,0.21592 -0.6783,0.38665 -0.7513,0.7513 -0.085,0.42363 -0.044,0.89045 -0.044,1.32582 v 1.94455 2.34229 c 0,0.34111 -0.048,0.72492 0,1.06066 0.036,0.25344 0.1208,0.49787 0.1768,0.7513 0.054,0.226 0,0.47995 0.044,0.70711 0.049,0.24455 0.052,0.0164 0.088,0.30935 0.011,0.0877 -0.013,0.17767 0,0.26517 0.028,0.19375 0.051,0.20391 0.088,0.35355 0.014,0.0572 -0.014,0.11958 0,0.17678 0.023,0.0921 0.058,0.17466 0.088,0.26516 0.019,0.0559 -0.012,0.11898 0,0.17678 0.027,0.1343 0.1459,0.20976 0.2209,0.30936 0.053,0.0709 0.1148,0.22596 0.1768,0.30936 0.062,0.0827 0.2272,0.16916 0.2652,0.26516 0.016,0.041 -0.023,0.0947 0,0.13259 0.027,0.0455 0.095,0.0508 0.1326,0.0884 0.045,0.0447 0.062,0.17777 0.088,0.22097 0.059,0.0987 0.1569,0.16946 0.2209,0.26516 0.092,0.0373 0.013,0.12468 0.044,0.17678 0.032,0.0536 0.1006,0.079 0.1326,0.13258 0.031,0.0521 0.017,0.12248 0.044,0.17678 0.1095,0.21894 0.2072,0.43291 0.2652,0.66291 0.044,0.1683 0.011,0.36205 0.044,0.53033 0.041,0.20248 0.1279,0.52029 0.2209,0.70711 0.044,0.0736 0.088,0.14727 0.1326,0.22097 0,0.0295 -0.013,0.062 0,0.0884 0.087,0.17346 0.2503,0.2871 0.3536,0.44194 0.01,0.0123 0,0.0295 0,0.0442 0.029,0.0442 0.051,0.095 0.088,0.13258 0.01,0.0104 0.034,-0.0104 0.044,0 0.011,0.0104 -0.01,0.0338 0,0.0442 0.025,0.0247 0.1318,0.0646 0.1768,0.13258 0.077,0.11577 0.015,0.14743 0.1326,0.26517 0.01,0.0104 0.034,-0.0104 0.044,0 0.065,0.0652 0.079,0.25566 0.1326,0.30936 0.01,0.0104 0.029,0 0.044,0 0.015,0.0442 0.016,0.0953 0.044,0.13258 0.02,0.0263 0.07,0.0168 0.088,0.0442 0.016,0.0245 -0.011,0.061 0,0.0884 0.036,0.0936 0.093,0.14347 0.1325,0.22097 0.01,0.0132 0,0.0295 0,0.0442 0.015,0.0442 0.02,0.0926 0.044,0.13258 0.022,0.0357 0.065,0.0537 0.088,0.0884 0.041,0.061 -0.024,0.19316 0,0.26516 0.01,0.0198 0.034,0.0256 0.044,0.0442 0.04,0.0806 0.1136,0.39133 0.1326,0.48613 0.026,0.13182 0.012,0.2677 0.044,0.39775 0.014,0.0544 0.1106,0.11178 0.1326,0.17678 0.1456,0.43691 0.4298,0.76064 0.6629,1.14904 0.063,0.10508 0.1902,0.12148 0.2652,0.22098 0.018,0.0236 -0.013,0.062 0,0.0884 0.01,0.0132 0.034,-0.0104 0.044,0 0.112,0.11159 0.017,0.0509 0.044,0.13259 0.064,0.19307 0.032,-0.0312 0.1326,0.22097 0.015,0.0381 -0.015,0.0945 0,0.13258 0.024,0.0612 0.064,0.11558 0.088,0.17678 0.026,0.0644 0,0.22975 0.044,0.35355 0.044,0.13103 -0.027,0.30627 0,0.44194 0.1106,0.55243 -0.044,-0.57452 0.1326,0.39775 0.013,0.0725 -0.01,0.14807 0,0.22097 0.02,0.14316 0.4277,0.96276 0.5745,1.06066 0.078,0.052 0.3258,0.20297 0.3978,0.22097 0.023,0.006 0.1809,-0.0202 0.2209,0 0.072,0.0358 0.146,0.095 0.221,0.13258 0.018,0.009 0.4171,0.0442 0.4861,0.0442 0.1278,0.23001 0.4488,0.16409 0.623,0.30921 0.112,0.0934 0.1927,0.22186 0.3093,0.30936 0.1158,0.0869 0.2851,0.13087 0.3978,0.22097 0.362,0.28956 -0.065,-0.0209 0.2209,0.26516 0.1283,0.12823 0.1515,0.0378 0.2652,0.26517 0.027,0.0543 0.029,0.11787 0.044,0.17677 0.074,0.11785 0.154,0.23207 0.221,0.35356 0.058,0.10382 0.018,0.23761 0.044,0.35355 0.032,0.14461 0.1449,0.37157 0.2209,0.48614 0.023,0.0347 0.073,0.0497 0.088,0.0884 0.034,0.0956 0.01,0.21376 0.044,0.30936 0.015,0.0387 0.064,0.0545 0.088,0.0884 0.176,0.24641 0.3134,0.5344 0.5303,0.7513 0.01,0.0104 0.034,-0.0104 0.044,0 0.023,0.0233 0.021,0.0651 0.044,0.0884 0.023,0.0233 0.059,0.0295 0.088,0.0442 0.074,0.10312 0.154,0.20189 0.221,0.30936 0.042,0.0673 0.049,0.15207 0.088,0.22097 0.1452,0.25422 0.4669,0.74794 0.7071,0.92807 0.123,0.0923 0.2583,0.19547 0.3977,0.26517 0.042,0.0208 0.093,0.0195 0.1326,0.0442 0.08,0.05 0.142,0.12448 0.221,0.17678 0.1621,0.10806 0.361,0.16846 0.5303,0.26516 0.1523,0.087 0.314,0.21597 0.4861,0.26517 0.072,0.0206 0.15,0.0204 0.221,0.0442 0.062,0.0208 0.1138,0.0703 0.1768,0.0884 0.043,0.0121 0.089,-0.007 0.1326,0 0.1228,-0.086 0.1128,0.0724 0.1768,0.0884 0.069,0.0173 0.1519,-0.0173 0.2209,0 0.2061,0.0515 0.4086,0.10668 0.6187,0.17678 0.145,0.0483 0.3506,0.0648 0.4862,0.13258 0.077,0.0384 0.1599,0.0718 0.2209,0.13258 0.023,0.0233 0.021,0.0651 0.044,0.0884 0.052,0.0521 0.1248,0.0805 0.1768,0.13258 0.052,0.0521 0.081,0.12468 0.1326,0.17678 0.2534,0.20276 0.1543,0.11008 0.3094,0.26516 0.015,0.0147 0.029,0.0295 0.044,0.0442 0.029,0.0442 0.051,0.095 0.088,0.13258 0.06,0.0603 0.2222,0.0458 0.2652,0.0884 0.023,0.0233 0.017,0.0701 0.044,0.0884 0.045,0.0299 0.2996,0.0287 0.3536,0.0442 0.063,0.0181 0.1157,0.0639 0.1767,0.0884 0.066,0.0265 0.1992,-0.009 0.2652,0 0.1305,0.0187 0.4632,0.0992 0.5745,0.13258 0.063,0.0189 0.1138,0.0703 0.1768,0.0884 0.207,0.0591 0.5242,0.0236 0.7513,0.0442 0.1914,0.0174 1.0664,0.1057 1.2816,0.0442 0.218,-0.0623 0.4749,-0.21789 0.6187,-0.39775 0.021,-0.0257 0.018,-0.0686 0.044,-0.0884 0.037,-0.0279 0.093,-0.0202 0.1326,-0.0442 0.036,-0.0214 0.055,-0.0634 0.088,-0.0884 0.1684,-0.1263 0.3632,-0.21985 0.5303,-0.35355 0.1516,-0.12137 0.1036,-0.18237 0.1326,-0.22097 0.032,-0.0425 0.095,-0.0508 0.1326,-0.0884 0,-0.004 0.1618,-0.25007 0.1768,-0.26517 0.01,-0.0104 0.034,0.0104 0.044,0 0.086,-0.0859 0.1009,-0.24926 0.2209,-0.30936 0.026,-0.0132 0.061,0.0109 0.088,0 0.116,-0.0464 0.2251,-0.15107 0.3536,-0.17677 0.4108,-0.0822 0.8708,0.0822 1.2816,0 0.3743,-0.0748 1.8565,-0.10091 2.2097,0 0.02,0.006 0.024,0.0372 0.044,0.0442 0.1175,0.0392 0.2184,0.0408 0.3094,0.17678 0.01,0.0123 -0.013,0.0372 0,0.0442 0.026,0.0132 0.064,-0.0163 0.088,0 0.1279,0.0853 0.2493,0.64597 0.3093,0.7955 0.06,0.14871 0.2264,0.30339 0.3094,0.44194 0.034,0.0565 0.042,0.13018 0.088,0.17678 0.047,0.0466 0.1248,0.0479 0.1768,0.0884 0.079,0.0611 0.3647,0.31009 0.3977,0.44195 0.039,0.15717 -0.013,0.0851 0,0.17677 0.023,0.16305 0.075,0.32201 0.088,0.48614 0.012,0.1468 -0.016,0.29553 0,0.44194 0.02,0.17812 0.063,0.35292 0.088,0.53033 0.01,0.0729 -0.01,0.14787 0,0.22097 0.016,0.12518 0.058,0.23348 0.088,0.35356 0.017,0.0693 -0.017,0.15167 0,0.22097 0.1237,0.49308 0.1767,0.80087 0.1767,1.32582 0,0.0853 0.014,0.31365 0,0.39775 -0.01,0.0526 -0.1577,0.30675 -0.1767,0.35355 -0.046,0.1151 -0.033,0.27347 -0.088,0.39775 -0.048,0.10853 -0.1388,0.19669 -0.1768,0.30936 -0.01,0.028 0.01,0.0598 0,0.0884 -0.021,0.0858 -0.1006,0.14177 -0.1326,0.22097 -0.011,0.0273 0.013,0.062 0,0.0884 -0.019,0.0373 -0.07,0.0511 -0.088,0.0884 -0.027,0.0543 -0.015,0.12367 -0.044,0.17677 -0.2168,0.39027 -0.5765,0.66493 -0.8838,0.97227 -0.093,0.0928 -0.1692,0.21336 -0.2652,0.30936 -0.2284,0.22836 -0.4807,0.43649 -0.7071,0.66292 -0.1029,0.10286 -0.2906,0.36093 -0.3536,0.48613 -0.042,0.0844 -0.1267,0.14097 -0.1767,0.22097 -0.052,0.0838 -0.1086,0.16927 -0.1326,0.26517 -0.01,0.0286 0.011,0.061 0,0.0884 -0.1046,0.26116 -0.08,0.004 -0.1326,0.26516 -0.074,0.37138 -0.044,0.76602 -0.044,1.14905 0,0.27413 -0.054,0.61545 0,0.88388 0.045,0.2233 0.1188,0.4309 0.1768,0.66292 0.018,0.0729 0.016,0.15127 0.044,0.22097 0.01,0.0137 0.029,0 0.044,0 0.044,0.0737 0.1025,0.14057 0.1325,0.22097 0.016,0.0414 -0.02,0.093 0,0.13258 0.015,0.0295 0.062,0.0244 0.088,0.0442 0.1152,0.0864 0.197,0.21946 0.3094,0.30936 0.1244,0.0995 0.2611,0.18317 0.3977,0.26517 0.2269,0.13614 0.5047,0.18296 0.7513,0.26516 0.02,0.007 0.029,0.0295 0.044,0.0442 0.074,0.0295 0.145,0.0656 0.221,0.0884 0.072,0.0216 0.152,0.0146 0.221,0.0442 0.3093,0.13258 -0.044,0.0442 0.1326,0.13258 0.579,0.19298 -0.2644,-0.11007 0.2209,0.13258 0.026,0.0132 0.065,-0.0177 0.088,0 0.043,0.0319 0.053,0.0929 0.088,0.13259 0.3211,0.36121 0.7539,0.66805 0.9723,1.10485 0.034,0.0672 0.01,0.19067 0.044,0.26517 0.033,0.0659 0.1036,0.10907 0.1326,0.17677 0.037,0.0856 0.047,0.18187 0.088,0.26517 0.1031,0.20619 0.2652,0.19609 0.2652,0.48613 0.038,0.20963 -0.01,0.54599 0.096,0.75109 0.024,0.0475 0.065,0.0851 0.088,0.13258 0.05,0.10052 0.1146,0.65367 0.1326,0.79549 0.01,0.0731 -0.014,0.14877 0,0.22097 0.01,0.0457 0.034,0.0865 0.044,0.13259 0.01,0.0583 -0.014,0.11957 0,0.17677 0,0.0143 0.044,-0.014 0.044,0 0.055,0.16655 0,0.77546 0,0.97227 0,0.21909 -0.053,0.53775 0,0.75131 0.01,0.0319 0.034,0.0561 0.044,0.0884 0.01,0.0433 -0.011,0.0897 0,0.13259 0.01,0.0202 0.029,0.0295 0.044,0.0442 0.015,0.0295 0.034,0.0564 0.044,0.0884 0.01,0.0286 -0.016,0.0639 0,0.0884 0.018,0.0274 0.067,0.0189 0.088,0.0442 0.1078,0.12938 0.2127,0.33626 0.3536,0.44194 0.046,0.0346 0.1919,0.0591 0.2209,0.0884 0.075,0.0752 0.076,0.15367 0.1768,0.22097 0.012,0.008 0.03,0 0.044,0 0.059,0.0442 0.1188,0.0866 0.1768,0.13259 0.1513,0.12102 0.2289,0.3849 0.3535,0.53033 0.022,0.025 0.068,0.0185 0.088,0.0442 0.2508,0.50087 -0.044,0 0.1768,0.22097 0.026,0.0257 0.026,0.13968 0.044,0.17678 0.024,0.0475 0.072,0.0822 0.088,0.13258 0.012,0.0368 -0.01,0.17187 0,0.22097 0.089,0.53284 -0.042,1.12582 0.1768,1.63518 0.1522,0.35517 0.4146,0.67738 0.7071,0.92808 0.1593,0.13659 0.368,0.20089 0.4861,0.39775 0.1019,0.16984 0.2224,0.31135 0.3094,0.48614 0.135,0.0313 0.017,0.12247 0.044,0.17677 0.01,0.0186 0.034,0.0244 0.044,0.0442 0.093,0.27939 0.1025,0.67428 0.1325,0.97227 0.019,0.18518 0.097,0.35137 0.1326,0.53033 0.036,0.17977 0,0.38931 0,0.57452 0,0.60726 0,1.20701 -0.044,1.81196 -0.027,0.35075 0.035,0.71069 0,1.06066 -0.032,0.31906 -0.044,0.6014 -0.044,0.92808 0,0.23077 0.026,0.47795 0,0.70711 -0.02,0.18181 -0.1095,0.34669 -0.1325,0.53033 -0.011,0.0877 0.014,0.17796 0,0.26516 -0.035,0.21009 -0.084,0.42408 -0.1326,0.61872 -0.034,0.13586 -0.1722,0.34904 -0.2652,0.44194 -0.023,0.0233 -0.069,0.0179 -0.088,0.0442 -0.028,0.0373 -0.018,0.0938 -0.044,0.13258 -0.01,0.0123 -0.031,-0.007 -0.044,0 -0.084,0.0422 -0.1469,0.11888 -0.2209,0.17678 -0.1072,0.0834 -0.1929,0.19526 -0.3094,0.26516 -0.04,0.024 -0.095,0.0163 -0.1326,0.0442 -0.026,0.0198 -0.021,0.0651 -0.044,0.0884 0.097,0.44512 -0.1599,0.0719 -0.2209,0.13259 -0.095,0.0949 -0.058,0.20932 -0.1326,0.30936 -0.02,0.0263 -0.065,0.0209 -0.088,0.0442 -0.044,0.0466 -0.02,0.20447 -0.044,0.26517 -0.02,0.0493 -0.075,0.0811 -0.088,0.13258 -0.018,0.0715 0.01,0.14757 0,0.22097 -0.01,0.11842 -0.031,0.23551 -0.044,0.35355 -0.042,0.37472 -0.166,0.98093 -0.088,1.37002 0.027,0.13543 0.1096,0.26159 0.1326,0.39775 0.019,0.11259 10e-4,0.24523 0.044,0.35355 0.024,0.0612 0.068,0.11428 0.088,0.17678 0.019,0.0559 -0.019,0.12088 0,0.17678 0.01,0.0198 0.034,0.0249 0.044,0.0442 0.023,0.0564 0.022,0.12038 0.044,0.17678 0.027,0.0679 0.1338,0.16687 0.1768,0.22097 0.054,0.0671 0.079,0.15497 0.1325,0.22097 0.4092,0.49099 0.02,0.0245 0.2652,0.22097 0.049,0.039 0.083,0.0951 0.1326,0.13258 0.037,0.028 0.094,0.0184 0.1326,0.0442 0.1854,0.12365 0.415,0.16334 0.6187,0.26516 0.1606,0.0803 0.3561,0.23196 0.5303,0.30936 0.085,0.0378 0.1792,0.0538 0.2652,0.0884 0.2512,0.10049 0.4456,0.25298 0.7071,0.35355 0.057,0.0218 0.1228,0.017 0.1768,0.0442 0.037,0.0186 0.055,0.0634 0.088,0.0884 0.1147,0.086 0.073,0.0147 0.221,0.0442 0.096,0.0193 0.126,0.10878 0.221,0.13258 0.087,0.0217 0.1792,0.0196 0.2652,0.0442 0.02,0.006 0.024,0.0392 0.044,0.0442 0.059,0.0148 0.4956,0.0491 0.5746,0.0884 0.029,0.0147 0.015,0.0737 0.044,0.0884 0.026,0.0132 0.063,-0.0152 0.088,0 0.053,0.0322 0.082,0.0963 0.1325,0.13258 0.054,0.0383 0.1258,0.0472 0.1768,0.0884 0.1547,0.0766 0.2234,0.24944 0.3536,0.35355 0.115,0.092 0.2357,0.17677 0.3535,0.26517 0.043,0.0319 0.095,0.0508 0.1326,0.0884 0.016,0.0164 0.084,0.14738 0.1326,0.17678 0.085,0.0513 0.2553,0.11267 0.3093,0.22097 0.01,0.0132 -0.01,0.0338 0,0.0442 0.011,0.0104 0.034,-0.0104 0.044,0 0.105,0.10473 0.088,0.10851 0.088,0.22097 0.1042,0.20617 0.2085,0.41234 0.3127,0.61851 0,0.0442 -0.02,0.093 0,0.13258 0.071,0.14252 0.1852,0.26011 0.2652,0.39775 0.023,0.0402 0.018,0.0938 0.044,0.13258 0.4501,0.67503 -0.2176,-0.49533 0.2652,0.30936 0.015,0.0253 -0.013,0.062 0,0.0884 0.077,0.15347 0.1096,0.39064 0.1326,0.57452 0.022,0.17704 0,0.40345 0,0.57452 v 1.14905 c 0,0.17702 -0.048,0.5794 0.044,0.7513 0.4013,0.74529 1.1674,0.83322 1.9003,1.01647 0.1857,0.0464 0.4351,0.0714 0.6188,0.13258 0.091,0.0304 0.1027,0.0953 0.1767,0.13258 0.027,0.0134 0.1136,0.0257 0.1326,0.0442 0.01,0.0104 0,0.0302 0,0.0442 0.021,0.0625 0.078,0.11138 0.088,0.17678 0.041,0.33207 -0.055,0.68668 0,1.01647 0.015,0.0878 0.067,0.17816 0.088,0.26516 0.02,0.0814 -0.026,0.18577 0,0.26517 0.01,0.0198 0.03,0.0295 0.044,0.0442 0.015,0.0884 0.018,0.17936 0.044,0.26516 0.042,0.13966 0.1156,0.16999 0.1326,0.30936 0.01,0.0731 -0.014,0.14878 0,0.22098 0.046,0.22898 0.2091,0.4405 0.2651,0.66291 0.014,0.0572 -0.01,0.11847 0,0.17677 0.013,0.0922 0.073,0.17327 0.088,0.26517 0.042,0.25265 0.1008,0.49914 0.1768,0.7513 0.067,0.22414 0.3514,0.79336 0.4861,0.92808 0.01,0.0104 0.034,-0.0123 0.044,0 0.044,0.066 0.044,0.15497 0.088,0.22097 0.085,0.12705 0.2264,0.22881 0.3094,0.35355 0.085,0.12753 0.1287,0.2969 0.1767,0.44194 0.031,0.0937 0.096,0.17347 0.1326,0.26517 0.032,0.0797 0.018,0.57301 0,0.66291 -0.018,0.0914 -0.033,0.19067 -0.088,0.26517 -0.052,0.0687 -0.1559,0.0767 -0.2209,0.13258 -0.3326,0.33216 -0.019,0.0355 -0.3536,0.30936 -0.2766,0.22633 -0.7713,0.70302 -0.9281,1.01646 -0.1074,0.21481 -0.2423,0.47226 -0.3093,0.70711 -0.031,0.10833 0.014,0.24085 0,0.35355 -0.011,0.0889 -0.034,0.17607 -0.044,0.26517 -0.06,0.53611 0.1587,1.17961 -0.221,1.63518 -0.034,0.0408 -0.095,0.0508 -0.1326,0.0884 -0.1771,0.17744 -0.1427,0.19036 -0.2651,0.35356 -0.07,0.0927 -0.2012,0.12477 -0.2652,0.22097 -0.018,0.0274 -0.019,0.0673 -0.044,0.0884 -0.1846,0.15388 -0.1689,0.0925 -0.3094,0.17678 -0.1086,0.0652 -0.1985,0.15947 -0.3093,0.22097 -0.069,0.0385 -0.154,0.0463 -0.221,0.0884 -0.053,0.0331 -0.083,0.0951 -0.1326,0.13258 -0.069,0.0515 -0.1549,0.0776 -0.2209,0.13259 -0.025,0.0211 -0.023,0.0636 -0.044,0.0884 -0.082,0.0941 -0.1722,0.18217 -0.2652,0.26517 -0.2004,0.17816 -0.4265,0.26416 -0.5745,0.48614 -0.014,0.0208 -0.057,0.24705 -0.088,0.30935 0.03,0.16202 0.069,0.32261 0.09,0.48605 0.051,0.40247 0,0.82954 0,1.23744 0,0.36793 0.057,0.98349 0,1.32582 -0.036,0.21714 -0.166,0.44438 -0.221,0.66292 -0.033,0.13176 -0.042,0.2701 -0.088,0.39774 -0.014,0.0392 -0.07,0.0511 -0.088,0.0884 -0.013,0.0263 0.01,0.0608 0,0.0884 -0.015,0.039 -0.1799,0.43134 -0.2209,0.48614 -0.037,0.05 -0.098,0.0806 -0.1326,0.13258 -0.026,0.0388 -0.02,0.0926 -0.044,0.13258 -0.069,0.11526 -0.137,0.14731 -0.221,0.26517 -0.038,0.0536 -0.052,0.12197 -0.088,0.17677 -0.023,0.0347 -0.059,0.0589 -0.088,0.0884 -0.059,0.0737 -0.1267,0.14097 -0.1767,0.22097 -0.025,0.0395 -0.023,0.0909 -0.044,0.13258 -0.074,0.14793 -0.2032,0.29675 -0.2652,0.44195 -0.096,0.22375 -0.1682,0.4365 -0.2652,0.66291 -0.071,0.16499 -0.082,0.0943 -0.1767,0.35355 -0.026,0.0706 -0.014,0.15237 -0.044,0.22097 -0.03,0.0673 -0.092,0.11548 -0.1326,0.17678 -0.1318,0.19765 -0.1734,0.33995 -0.3094,0.53033 -0.1894,0.26524 -0.2715,0.52947 -0.5303,0.7513 -0.2039,0.17478 -0.4444,0.32222 -0.6629,0.48614 -0.7753,0.58145 0.368,-0.26496 -0.442,0.39774 -0.082,0.0673 -0.1771,0.11788 -0.2651,0.17678 -0.1768,0.14731 -0.3565,0.29123 -0.5304,0.44194 -0.047,0.0409 -0.08,0.099 -0.1325,0.13258 -0.1112,0.0707 -0.247,0.0993 -0.3536,0.17678 -0.06,0.0433 -0.077,0.12888 -0.1326,0.17678 -0.05,0.0429 -0.1237,0.0489 -0.1767,0.0884 -0.1253,0.0939 -0.2313,0.21156 -0.3536,0.30936 -0.2014,0.16115 -0.5634,0.34241 -0.7513,0.53033 -0.023,0.0233 -0.019,0.0675 -0.044,0.0884 -0.2654,0.21716 -0.5633,0.37711 -0.8397,0.57453 -0.1083,0.0774 -0.2027,0.18516 -0.3093,0.26516 -0.026,0.0198 -0.065,0.0209 -0.088,0.0442 -0.1979,0.19783 -0.3515,0.44822 -0.5304,0.66291 -0.2212,0.26544 -0.4544,0.51748 -0.6629,0.7955 -0.094,0.12482 -0.3207,0.50692 -0.3977,0.57452 -0.08,0.0699 -0.1862,0.10618 -0.2652,0.17678 -0.1443,0.12831 -0.2524,0.3148 -0.3977,0.44194 -0.065,0.0566 -0.153,0.0798 -0.221,0.13258 -0.066,0.0512 -0.1098,0.12678 -0.1768,0.17678 -0.2156,0.16174 -0.4368,0.25643 -0.6629,0.39774 -0.1231,0.077 -0.2359,0.18117 -0.3535,0.26517 -0.068,0.15978 -0.244,0.10368 -0.3536,0.17678 -0.096,0.0638 -0.1672,0.15997 -0.2652,0.22097 -0.025,0.0156 -0.062,-0.0132 -0.088,0 -0.095,0.0475 -0.1741,0.12207 -0.2651,0.17677 -0.4188,0.25098 0.09,-0.0892 -0.3978,0.17678 -0.093,0.0509 -0.1771,0.11788 -0.2651,0.17678 -0.1032,0.0442 -0.2104,0.0798 -0.3094,0.13258 -0.227,0.12106 -0.7742,0.41604 -0.9723,0.57452 -0.1735,0.1388 -0.3454,0.27449 -0.5303,0.39775 -0.085,0.0565 -0.1198,0.14527 -0.1768,0.22097 -0.1063,0.14173 -0.2401,0.26168 -0.3535,0.39775 -0.1108,0.1329 -0.2065,0.29785 -0.3094,0.44194 -0.3243,0.45361 0.08,-0.11308 -0.3093,0.35356 -0.1799,0.21578 -0.3141,0.4858 -0.4862,0.7071 -0.02,0.026 -0.063,0.0236 -0.088,0.0442 -0.053,0.0421 -0.2753,0.32884 -0.3093,0.39774 -0.013,0.0264 0.01,0.0595 0,0.0884 -0.017,0.085 -0.094,0.23246 -0.1326,0.30936 -0.053,0.10536 -0.168,0.204 -0.221,0.30936 -0.021,0.0417 -0.018,0.0938 -0.044,0.13258 -0.078,0.1179 -0.015,-0.17708 -0.088,0.0442 -0.01,0.028 0.013,0.062 0,0.0884 -0.01,0.0132 -0.029,0 -0.044,0 -0.6172,0.0168 -0.5897,0.20937 -0.9771,0.44186 -0.2258,0.13547 -0.3475,0.0213 -0.5304,0.26516 -0.035,0.0471 0.035,0.12968 0,0.17678 -0.064,0.085 -0.1831,0.10878 -0.2651,0.17678 -0.2241,0.18672 -0.432,0.39465 -0.6187,0.61871 -0.2114,0.25364 -0.323,0.635 -0.5304,0.88389 -0.068,0.0816 -0.1821,0.11037 -0.2651,0.17677 -0.2049,0.16389 -0.4544,0.42148 -0.6188,0.61872 -0.136,0.16322 -0.2033,0.3801 -0.3535,0.53033 -0.505,0.50504 0.3022,-0.74878 -0.442,0.44194 -0.07,0.11174 -0.094,0.25067 -0.1767,0.35356 -0.041,0.0514 -0.1298,0.0418 -0.1768,0.0884 -0.2463,0.24629 -0.4564,0.54481 -0.7071,0.79549 -0.3993,0.39932 -0.8374,0.749 -1.2374,1.14905 -0.349,-0.0635 -0.2994,0.38775 -0.442,0.53033 -0.047,0.0466 -0.1298,0.0418 -0.1768,0.0884 -0.1494,0.14945 -0.4393,0.52547 -0.5303,0.7071 -0.013,0.0264 0.021,0.0676 0,0.0884 -0.021,0.0208 -0.068,-0.0208 -0.088,0 -0.2047,0.20468 -0.3708,0.5563 -0.5303,0.7955 -0.1354,0.20307 -0.051,-0.0379 -0.2652,0.17677 -0.1965,0.19655 -0.2804,0.48093 -0.4419,0.70711 -0.1825,0.25548 -0.4323,0.45851 -0.6187,0.70711 -0.3782,0.50418 -0.7464,1.01048 -1.1491,1.5026 -0.3493,0.42693 -0.6866,0.84076 -1.149,1.14905 -0.2556,0.1704 -0.6644,0.31083 -0.8839,0.53033 -0.021,0.0208 0.021,0.0675 0,0.0884 -0.2455,0.2455 -0.6184,0.39749 -0.8839,0.61872 -0.1601,0.13337 -0.2443,0.37604 -0.4419,0.44194 -0.2886,0.0962 -1.6052,0.46319 -1.7678,0.7071 -0.081,0.12156 -0.3356,0.38337 -0.3536,0.53033 -0.031,0.24403 -0.073,1.72439 0,1.94455 0.018,0.0539 0.1588,0.21126 0.1768,0.26516 0.019,0.0559 -0.019,0.12088 0,0.17678 0.018,0.0539 0.1588,0.21126 0.1768,0.26516 0.075,0.22487 0,0.66221 0,0.88389 0,0.11122 0.054,0.57126 0,0.7071 -0.1472,0.36789 -0.358,0.64045 -0.442,1.06067 -0.065,0.32738 0,1.0553 -0.088,1.32582 -0.1603,0.48092 -0.3727,0.94107 -0.5304,1.41421 -0.035,0.10607 0.035,0.24749 0,0.35356 -0.068,0.20416 -0.164,0.47901 -0.088,0.7071 0.2375,0.71228 0.057,0.0679 0.442,0.53033 0.1816,0.21791 0.2574,0.58018 0.4419,0.7955 0.4146,0.4837 0.2223,0.11572 0.6187,0.35355 0.072,0.0429 0.1098,0.12678 0.1768,0.17678 0.031,0.21713 0.1872,0.0367 0.2652,0.0884 0.3895,0.25968 0.9414,0.73385 1.149,1.14905 0.8163,1.63258 0.5304,4.55698 0.5304,6.45235 0,0.80029 -0.1121,1.77911 0,2.56326 0.071,0.4987 0.1917,1.1627 0.088,1.67938 -0.1352,0.67637 -0.497,1.25922 -0.7954,1.85615 -0.1073,0.21442 -0.343,0.33306 -0.442,0.53033 -0.2441,0.48827 -0.5485,1.05549 -0.8839,1.5026 -0.05,0.0667 -0.1397,0.10228 -0.1767,0.17678 -0.026,0.0527 0.019,0.12088 0,0.17678 -0.053,0.15811 -0.2536,0.22022 -0.3536,0.35355 -0.2706,0.36082 -0.4604,0.77896 -0.7071,1.14905 -0.1122,0.16829 -0.338,0.26868 -0.442,0.44194 -0.147,0.24507 -0.3489,0.60514 -0.4419,0.88388 -0.1662,0.49805 -0.417,1.58983 -0.2652,2.12132 0.1,0.34852 0.2108,0.50996 0.3536,0.7955 0.098,0.19566 0,1.09495 0.3613,1.39942 z"
         id="path103" />
      <path
         style="fill:#969696;fill-opacity:1;stroke:none;stroke-opacity:1"
         d="m 1060.1423,803.4708 c 0.3185,-0.0516 0.6442,-0.0743 0.9667,-0.10358 0.034,-0.003 0.07,0.008 0.1036,0 0.1059,-0.0265 0.2048,-0.0771 0.3107,-0.10358 0.034,-0.008 0.072,0.0136 0.1036,0 0.053,-0.0227 0.088,-0.075 0.1381,-0.10358 0.061,-0.0347 0.1464,2.1e-4 0.2072,-0.0345 0.057,-0.0323 0.088,-0.0964 0.1381,-0.1381 0.02,-0.0165 0.051,-0.0163 0.069,-0.0345 0.029,-0.0293 0.045,-0.0698 0.069,-0.10358 0.034,-0.0468 0.085,-0.0835 0.1036,-0.13811 0.018,-0.0546 -0.01,-0.11566 0,-0.17263 0,-0.0255 0.031,-0.0435 0.034,-0.0691 0.026,-0.20875 0,-0.44591 0,-0.65601 0,-0.27042 0.038,-0.59541 0,-0.86317 0.026,-0.0639 -0.059,-0.0633 -0.069,-0.10358 -0.01,-0.03 -0.023,-0.27113 0,-0.31074 0.1737,-0.304 0.065,-0.10082 0.2071,-0.20716 0.1334,-0.10005 0.2303,-0.26949 0.3108,-0.41432 0.1757,-0.31624 0.3038,-0.67247 0.5179,-0.96675 0.038,-0.0527 0.095,-0.0891 0.1381,-0.1381 0.2821,-0.32245 -0.054,0.0414 0.1726,-0.27622 0.1294,-0.18117 0.3341,-0.24725 0.5179,-0.34526 0.2381,-0.12699 0.4531,-0.28649 0.6905,-0.41432 0.2577,-0.13876 0.5095,-0.25798 0.7596,-0.41432 0.2507,-0.15665 0.4995,-0.32705 0.7251,-0.51791 0.087,-0.0736 0.1527,-0.17051 0.2417,-0.24168 0.2512,-0.20101 0.5368,-0.35946 0.7941,-0.55243 0.1457,-0.0694 0.2243,-0.21401 0.3453,-0.31074 0.065,-0.0518 0.1381,-0.0921 0.2071,-0.13811 0.1151,-0.0806 0.2365,-0.15272 0.3453,-0.24168 0.02,-0.0163 0.019,-0.0485 0.034,-0.0691 0.1812,-0.24153 0.1987,-0.19016 0.3453,-0.48337 0.055,-0.11072 0.083,-0.26907 0.1381,-0.37979 0.1119,-0.22379 0.2413,-0.42726 0.3452,-0.65601 0.2159,-0.47497 -0.045,0.0852 0.1036,-0.31074 0.051,-0.1345 0.1552,-0.24985 0.2072,-0.3798 0.01,-0.0214 0,-0.046 0,-0.069 0.034,-0.0691 0.063,-0.14169 0.1036,-0.20716 0.061,-0.0972 0.1943,-0.17151 0.2762,-0.24169 0.037,-0.0318 0.065,-0.0731 0.1036,-0.10358 0.2022,-0.16182 0.5924,-0.14044 0.8286,-0.24168 0.209,-0.0896 0.4976,-0.29047 0.656,-0.44885 0.1356,-0.13562 0.189,-0.63537 0.2417,-0.82864 0.019,-0.13596 0.1011,-0.25027 0.1381,-0.37979 0.046,-0.15955 0.066,-0.34098 0.1726,-0.48338 0.01,-0.009 0.029,0.01 0.035,0 0.045,-0.0752 0.058,-0.16653 0.1035,-0.24168 0.078,-0.12948 0.1209,-0.15538 0.2072,-0.31075 0.055,-0.0999 0.099,-0.21859 0.1726,-0.31074 0.016,-0.0201 0.049,-0.0185 0.069,-0.0345 0.038,-0.0305 0.072,-0.0661 0.1036,-0.10358 0.3962,-0.47545 1.0013,-0.46366 1.5191,-0.75959 0.133,-0.076 0.2442,-0.12034 0.3453,-0.24169 0.1629,-0.19542 0.2561,-0.62183 0.2762,-0.86316 0.01,-0.0688 -0.012,-0.13922 0,-0.20716 0.011,-0.061 0.057,-0.11186 0.069,-0.17264 0.011,-0.0564 -0.01,-0.11553 0,-0.17263 0.013,-0.10156 0.058,-0.2531 0.1036,-0.34527 0.034,-0.0672 0.1493,-0.10287 0.1726,-0.17263 0.059,-0.1783 0.077,-0.38538 0.1726,-0.55243 0.029,-0.05 0.074,-0.0888 0.1036,-0.13811 0.01,-0.01 -0.01,-0.0264 0,-0.0345 0.1145,-0.11449 0.4114,-0.17119 0.5524,-0.24169 0.031,-0.0154 0.069,0 0.1036,0 0.3456,0 0.4659,0.08 0.7596,0.31074 0.1152,0.0905 0.2228,0.19355 0.3107,0.31074 0.3929,0.52377 -0.3404,-0.3306 0.1727,0.31074 0.051,0.0635 0.1226,0.1084 0.1726,0.17264 0.081,0.10358 0.046,0.12084 0.1036,0.20716 0.089,0.13343 0.1979,0.2324 0.3107,0.34526 0.165,0.16493 0.3156,0.23593 0.4834,0.3798 0.037,0.0318 0.062,0.0777 0.1036,0.10358 0.053,0.0328 0.1201,0.0362 0.1726,0.069 0.041,0.0259 0.067,0.0718 0.1036,0.10358 0.4984,0.42719 -0.2688,-0.25646 0.3107,0.20716 0.064,0.0508 0.1125,0.11789 0.1727,0.17263 0.067,0.0605 0.1467,0.10613 0.2071,0.17264 0.056,0.0614 0.082,0.14575 0.1381,0.20716 0.061,0.0665 0.1436,0.10907 0.2072,0.17263 0.053,0.0529 0.3393,0.44105 0.3453,0.44885 0.1958,0.2546 0.3824,0.5142 0.5869,0.75958 0.04,0.0485 0.2228,0.33577 0.2417,0.3798 0.014,0.0317 -0.01,0.0695 0,0.10358 0.051,0.30308 0.013,-0.0528 0.069,0.17263 0.039,0.15489 0.019,0.42727 -0.069,0.55243 -0.047,0.0667 -0.1151,0.11509 -0.1726,0.17263 -0.098,0.098 -0.1727,0.21867 -0.2762,0.31074 -0.1903,0.16911 -0.5266,0.31447 -0.7596,0.41432 -0.4032,0.17278 -0.8279,0.22317 -1.243,0.34527 -0.204,0.06 -0.3945,0.18874 -0.5869,0.27621 -0.2707,0.12302 -0.5329,0.2373 -0.7942,0.3798 -0.068,0.037 -0.1443,0.0587 -0.2071,0.10358 -0.3419,0.24418 -0.7546,0.74514 -1.0013,1.00127 -0.2872,0.29829 -0.5801,0.5604 -0.8286,0.8977 -0.046,0.0621 -0.058,0.1449 -0.1036,0.20716 -0.092,0.10358 -0.1842,0.20716 -0.2762,0.31074 -0.023,0.0115 -0.05,0.0172 -0.069,0.0345 -0.3153,0.28663 -0.2344,0.27077 -0.5179,0.48338 -0.2656,0.19918 -0.5524,0.36828 -0.8286,0.55242 -0.5926,0.39507 -1.1919,0.8181 -1.8645,1.07033 -0.2009,0.0754 -0.4152,0.11764 -0.6214,0.17264 -0.1759,0.0469 -0.3414,0.12849 -0.5179,0.17263 -0.079,0.0197 -0.1631,0.0136 -0.2417,0.0345 -0.2287,0.061 -0.555,0.18049 -0.7596,0.31074 -0.062,0.0396 -0.1102,0.099 -0.1727,0.1381 -0.1222,0.0764 -0.2545,0.13562 -0.3797,0.20716 -0.2658,0.15189 -0.4881,0.36282 -0.7251,0.55243 -0.2557,0.20459 -0.4902,0.33746 -0.7251,0.58695 -0.053,0.0562 -0.059,0.14409 -0.1035,0.20716 -0.1641,0.23242 -0.3957,0.50232 -0.6215,0.69054 -0.2312,0.1926 -0.5066,0.3978 -0.7596,0.55243 -0.243,0.14848 -0.5302,0.24223 -0.7596,0.41432 -0.039,0.0293 -0.064,0.0743 -0.1036,0.10358 -0.2134,0.16003 -0.1449,0.0413 -0.3453,0.24168 -0.1673,0.16732 -0.4607,0.47578 -0.5869,0.65601 -0.4416,0.63078 -0.011,0.0864 -0.3453,0.58695 -0.041,0.0613 -0.1028,0.10794 -0.1381,0.17264 -0.035,0.0639 -0.037,0.14205 -0.069,0.20716 -0.026,0.0515 -0.082,0.0847 -0.1036,0.1381 -0.049,0.12184 -0.064,0.25455 -0.1036,0.3798 -0.019,0.0591 -0.053,0.11284 -0.069,0.17263 -0.049,0.18075 -0.054,0.37168 -0.1036,0.55243 0,0.0157 -0.033,0.0183 -0.035,0.0345 -0.043,0.38852 0,0.90543 0,1.31201 0,0.32808 0.034,0.45094 -0.1035,0.75959 -0.019,0.0428 -0.057,0.11463 -0.1036,0.1381 -0.032,0.0158 -0.3024,0.0214 -0.3453,0 -0.1565,-0.0783 -0.2099,-0.29958 -0.2762,-0.44884 -0.042,-0.0941 -0.102,-0.17983 -0.1381,-0.27622 -0.085,-0.22778 -0.1659,-0.49132 -0.3107,-0.69053 -0.048,-0.0658 -0.1191,-0.11139 -0.1727,-0.17263 -0.042,-0.0482 -0.1513,-0.24783 -0.1726,-0.27622 -0.11,-0.14662 -0.2752,-0.29508 -0.4143,-0.41432 -0.183,-0.15682 -0.421,-0.34972 -0.6215,-0.48337 -0.094,-0.0625 -0.2597,-0.15607 -0.3453,-0.24169 -0.01,-0.009 -0.168,-0.26245 -0.1726,-0.27621 -0.049,-0.14794 0.1416,-0.11809 0.2417,-0.13811 z"
         id="path106" />
      <path
         style="fill:#969696;fill-opacity:1;stroke:none;stroke-opacity:1"
         d="m 1058.5449,670.21485 c 0.098,-0.11393 0.2009,-0.22335 0.293,-0.3418 0.1019,-0.13104 0.014,-0.0574 0.049,-0.19531 0.059,-0.23458 0.2606,-0.43945 0.4883,-0.43945 0.033,0 0.076,-0.0247 0.098,0 0.4878,0.5691 0.4882,1.34312 0.4882,2.05078 0,0.36148 -0.014,0.65632 0.1465,0.97656 0.031,0.0618 0.098,0.0977 0.1465,0.14648 0.067,0.0665 0.2466,0.25218 0.3418,0.29297 0.076,0.0327 0.1633,0.0302 0.2441,0.0488 0.2819,0.065 0.5877,0.16883 0.879,0.19531 0.2668,0.0243 0.5632,0 0.83,0 0.1643,0 0.4813,-0.0535 0.6348,0.0488 0.3398,0.2265 0.4192,0.76931 0.5371,1.12305 0.2158,0.64725 0.4395,1.31559 0.4395,2.00195 0,0.0651 0.034,0.14011 0,0.19531 -0.1416,0.22651 -0.3714,0.41646 -0.6348,0.48828 -0.1422,0.0388 -0.2996,0.002 -0.4395,0.0488 -0.1035,0.0345 -0.1859,0.12507 -0.2929,0.14649 -0.2594,0.0519 -0.4608,0.061 -0.6348,0.29297 -0.3192,0.42562 -0.1953,1.06814 -0.1953,1.5625 0,0.54817 -0.1013,1.43575 0.098,1.95312 0.029,0.076 0.1069,0.12417 0.1464,0.19531 0.043,0.0766 0.055,0.16752 0.098,0.24414 0.1454,0.26174 0.3829,0.47542 0.5371,0.73243 0.1532,0.25539 0.2741,0.53318 0.4395,0.78125 0.1087,0.16307 0.2782,0.27889 0.3906,0.43945 0.2557,0.36533 0.049,0.11417 0.2441,0.43945 0.024,0.0395 0.087,0.053 0.098,0.0977 0.046,0.18522 0.012,0.54659 -0.098,0.68359 -0.1131,0.14138 -0.7959,0.44677 -0.9765,0.53711 -0.1331,0.0665 -0.2295,0.1543 -0.3418,0.24414 -0.1815,0.14521 -0.3836,0.2406 -0.586,0.3418 -0.072,0.0361 -0.1589,0.12212 -0.2441,0.14648 -0.1596,0.0456 -0.3287,0.0521 -0.4883,0.0977 -0.035,0.01 -0.062,0.0428 -0.098,0.0488 -0.36,0.06 -0.9882,0 -1.3671,0 -0.304,0 -0.5322,0.014 -0.8301,-0.0977 -0.015,-0.006 0.011,-0.0373 0,-0.0488 -0.042,-0.0415 -0.098,-0.0651 -0.1465,-0.0976 -0.1336,-0.0891 -0.1756,-0.09 -0.2441,-0.24414 -0.1858,-0.41798 -0.1101,-0.53936 -0.1465,-0.97657 -0.01,-0.11469 -0.042,-0.2269 -0.049,-0.34179 -0.031,-0.53273 0.056,-1.08118 0,-1.61133 -0.1146,-1.08871 -0.4982,-2.06075 -1.2695,-2.83203 -0.3691,-0.36908 -0.852,-0.58066 -1.2695,-0.87891 -0.4007,-0.28618 -0.8581,-0.67851 -1.1719,-1.02539 -0.103,-0.11386 -0.145,-0.27341 -0.2441,-0.39062 -0.082,-0.097 -0.208,-0.14966 -0.293,-0.24414 -0.063,-0.0706 -0.092,-0.1664 -0.1465,-0.24415 -0.2986,-0.42654 -0.3418,-0.27346 -0.3418,-0.78125 0,-0.0488 -0.041,-0.11939 0,-0.14648 0.043,-0.0285 0.1024,-0.0224 0.1465,-0.0488 0.039,-0.0237 0.056,-0.0771 0.098,-0.0976 0.1059,-0.053 0.2328,-0.051 0.3418,-0.0977 0.1736,-0.0744 0.3847,-0.18632 0.5371,-0.29297 0.4252,-0.29768 0.7896,-0.88727 1.1718,-1.26953 0.105,-0.10498 0.2897,-0.14314 0.3907,-0.24414 0.026,-0.0257 0.02,-0.0758 0.049,-0.0977 0.041,-0.0309 0.1053,-0.0179 0.1465,-0.0488 0.029,-0.0218 0.023,-0.0719 0.049,-0.0977 0.012,-0.0115 0.036,0.01 0.049,0 0.174,-0.13049 0.1201,-0.13789 0.2442,-0.29297 0.1012,-0.12657 0.2732,-0.29283 0.3906,-0.39063 0.028,-0.0233 0.075,-0.0204 0.098,-0.0488 0.2658,-0.33231 0.1193,-0.79229 0.1953,-1.17188 0.01,-0.0357 0.042,-0.062 0.049,-0.0977 0.018,-0.0885 -0.022,-0.20422 0,-0.29297 0.027,-0.10588 0.12,-0.13827 0.1465,-0.24414 0.1153,-0.46142 0.4342,-0.54091 0.7812,-0.83008 z"
         id="path107" />
    </g>
  </g>
</svg>
