<?xml version="1.0" encoding="UTF-8" standalone="no"?>
<!-- Created with Inkscape (http://www.inkscape.org/) -->

<svg
   version="1.1"
   id="svg1"
   width="184.8125"
   height="226.875"
   viewBox="0 0 184.8125 226.875"
   xmlns="http://www.w3.org/2000/svg"
   xmlns:svg="http://www.w3.org/2000/svg">
  <defs
     id="defs1" />
  <g
     id="layer1"
     style="display:inline"
     transform="translate(-1043.8125,-607.9375)">
    <g
       id="layer76"
       style="display:inline;fill:#ffffff;fill-opacity:1;stroke:none">
      <path
         style="display:inline;fill:#ffffff;fill-opacity:1;stroke:none;stroke-linecap:round"
         d="m 1071.125,612.625 -8.125,-4.375 -9.125,-0.3125 -5.3125,3.4375 -0.75,17.9375 3,3.875 -0.6875,6.375 -3.8125,12.5 1.3125,5.4375 -3.8125,9.375 1.6875,11.375 5.125,12.125 8.6875,5.4375 12.5,1.375 v 2.4375 l -3.125,11.125 4.125,2.4375 5.125,10.625 -1.125,13.625 5.8125,3.75 5.125,12.4375 -6.5,14.5 -9.3125,8.5625 -18.375,19.625 -3.5,2.0625 -1.1875,4.6875 -1.0625,3.875 3.4375,7.875 -0.1875,7.8125 -3.25,5.875 0.25,6.3125 180.375,-0.375 0.1875,-2.1875 -2.25,-5.9375 -6.5,-9.25 -5.1875,-5.25 -9.875,-25.625 -4.1875,-4.3125 -3.25,-1.5 -4.3125,-4.125 -3.75,-0.9375 -4.5625,-4.625 -4.1875,-1.5625 -6.5,-4.875 -2.5,-5.3125 -3.25,-1.875 -3.875,-8.125 -2.1875,-8.1875 -2.75,-2.1875 -2.4375,-0.625 -3.0625,-1.875 -4.5625,-7.625 -3.5625,-2.8125 -6.1875,-2.1875 -18.8125,-26.9375 -2.8125,-9.5 -7.5,-9.5 -0.9375,-5.75 -8.1875,-7.125 -7.875,-3.625 -1.125,-4.6875 -9.375,-8.5 -5.8125,-15.1875 -6.0625,-6.75 -1.625,-5.625 z"
         id="path75" />
    </g>
  </g>
</svg>
