<?xml version="1.0" encoding="UTF-8" standalone="no"?>
<!-- Created with Inkscape (http://www.inkscape.org/) -->

<svg
   version="1.1"
   id="svg2"
   width="59.751431"
   height="54.758087"
   viewBox="0 0 59.751431 54.758087"
   xmlns="http://www.w3.org/2000/svg"
   xmlns:svg="http://www.w3.org/2000/svg">
  <defs
     id="defs6">
    <linearGradient
       id="swatch77">
      <stop
         style="stop-color:#e2c69e;stop-opacity:1;"
         offset="0"
         id="stop77" />
    </linearGradient>
  </defs>
  <g
     id="layer66"
     style="display:inline"
     transform="translate(-1129.3853,-474.51133)">
    <g
       id="layer50"
       style="display:inline">
      <path
         style="display:inline;fill:#969696;fill-opacity:1;stroke:none;stroke-opacity:1"
         d="m 1132.6083,523.52417 h 5.2149 c 0.5907,0 2.0436,0.10393 2.5633,0 0.6232,-0.12464 1.2326,-0.17608 1.8561,-0.26516 0.247,-0.0353 0.4718,-0.21811 0.7071,-0.26517 0.1707,-0.0341 0.6591,-0.0429 0.7955,-0.0884 0.079,-0.0263 0.1053,-0.1339 0.1768,-0.17677 0.1971,-0.11829 0.4041,-0.0884 0.6187,-0.0884 0.2175,0 2.6295,-0.0589 2.74,0.0884 0.095,0.12693 0.082,0.31501 0.1768,0.44194 0.1,0.13333 0.279,0.20448 0.3536,0.35355 0.026,0.0527 -0.026,0.12407 0,0.17678 0.013,0.0263 0.072,-0.0245 0.088,0 0.1244,0.1867 0.1497,0.42631 0.2651,0.61872 0.1051,0.17503 0.2493,0.23343 0.3536,0.44194 0.1394,0.27884 0.2374,0.59341 0.3535,0.88388 0.067,0.16776 0.2213,0.2663 0.2652,0.44194 0.014,0.0572 -0.033,0.12775 0,0.17678 0.036,0.0548 0.1402,0.0336 0.1768,0.0884 0.033,0.049 -0.026,0.12407 0,0.17678 0.037,0.0745 0.1268,0.11011 0.1768,0.17677 0.079,0.10541 0.098,0.24815 0.1767,0.35356 0.2374,0.31651 0.5578,0.56695 0.7955,0.88388 0.1099,0.14651 0.018,0.24776 0.088,0.35355 0.1361,0.20408 0.3016,0.31985 0.442,0.53033 0.053,0.0796 0,0.35061 0.1329,0.44195 0.6339,-0.11785 1.1319,-0.24861 1.6356,-0.35355 0.5531,-0.11522 1.1278,-0.13787 1.6794,-0.26517 0.4865,-0.11226 0.9326,-0.32154 1.4142,-0.44194 0.3357,-0.0839 0.642,-0.0777 0.9723,-0.17678 0.3331,-0.0999 1.0464,-0.47445 1.3258,-0.53033 0.1734,-0.0347 0.356,0.0291 0.5303,0 0.3731,0.53201 0.4426,-0.20645 0.6188,-0.26516 0.1425,-0.0475 0.3024,-0.0326 0.4419,-0.0884 0.027,-0.0109 -0.029,-0.0812 0,-0.0884 0.1143,-0.0286 0.2373,0.0194 0.3536,0 0.065,-0.0108 0.1117,-0.0776 0.1767,-0.0884 0.376,-0.0627 0.5812,0.0234 0.9723,-0.0884 0.7463,-0.21322 1.3139,-0.66651 1.9445,-1.06066 0.2251,-0.14064 0.553,-0.51093 0.7955,-0.61872 0.1373,-0.061 0.3146,-0.009 0.442,-0.0884 0.1249,-0.0781 0.1569,-0.25363 0.2651,-0.35355 0.3992,-0.36849 0.825,-0.70711 1.2375,-1.06066 0.359,-0.30776 0.7987,-0.47705 1.149,-0.7955 0.6505,-0.59133 1.2389,-1.15012 1.9446,-1.67938 0.1638,-0.12283 0.2719,-0.32857 0.4419,-0.44194 0.3056,-0.2037 0.7129,-0.35928 0.9723,-0.61872 0.6343,-0.63431 0.03,-0.30748 0.8839,-0.79549 0.2182,-0.12471 0.5494,-0.23052 0.7955,-0.35356 0.333,-0.16651 0.672,-0.45966 1.0606,-0.53033 0.6846,-0.12446 1.432,0.0985 2.1213,0 0.092,-0.0132 0.1726,-0.0781 0.2652,-0.0884 0.205,-0.0228 0.4153,0.0339 0.6187,0 0.268,-0.0447 0.526,-0.14308 0.7955,-0.17677 0.117,-0.0146 0.2373,0.0194 0.3536,0 0.2819,-0.047 0.3942,-0.32972 0.6187,-0.44194 0.079,-0.0395 0.1813,0.0279 0.2652,0 0.3211,-0.10704 0.2005,-0.19264 0.4419,-0.35356 0.34,-0.22663 0.7004,-0.55534 1.0607,-0.79549 0.2001,-0.13345 0.2812,-0.3696 0.4419,-0.53033 0.047,-0.0466 0.1385,-0.0348 0.1768,-0.0884 0.1149,-0.16083 0.1692,-0.35756 0.2651,-0.53033 0.1269,-0.22837 0.3151,-0.39035 0.442,-0.61872 0.077,-0.13869 0.1,-0.30325 0.1768,-0.44194 0.4304,-0.77469 1.0117,-1.47337 1.5026,-2.20971 0.016,-0.0245 -0.021,-0.0675 0,-0.0884 0.1041,-0.10416 0.2679,-0.14529 0.3535,-0.26516 0.071,-0.0989 0.034,-0.2449 0.088,-0.35356 0.1105,-0.22089 0.5543,-0.60441 0.7071,-0.79549 0.1685,-0.21055 0.2654,-0.49518 0.442,-0.70711 0.08,-0.096 0.187,-0.16755 0.2651,-0.26516 0.4596,-0.5745 0.874,-1.18683 1.3259,-1.76777 0.8979,-1.15456 -0.013,0.0526 0.8838,-0.97227 0.2333,-0.26664 0.3854,-0.61725 0.6188,-0.88389 0.043,-0.0496 0.1339,-0.0384 0.1767,-0.0884 0.1383,-0.16131 0.2176,-0.36712 0.3536,-0.53033 0.019,-0.0226 0.059,0 0.088,0 0.1178,-0.11786 0.2468,-0.22552 0.3535,-0.35356 0.3569,-0.4282 0.645,-1.03175 0.7071,-1.59099 0.062,-0.55656 0.069,-1.30526 0,-1.85615 -0.026,-0.20746 -0.1344,-0.33982 -0.1767,-0.53033 -0.045,-0.20338 -0.043,-0.41535 -0.088,-0.61872 0.053,-0.15998 -0.1432,-0.16439 -0.1768,-0.26517 -0.057,-0.17001 -0.022,-0.36393 -0.088,-0.53033 -0.064,-0.15951 -0.2014,-0.28243 -0.2652,-0.44194 -0.3,-1.20022 0.1289,0.2577 -0.2651,-0.53033 -0.026,-0.0527 0.034,-0.12883 0,-0.17678 -0.3669,-0.51358 -1.0008,-1.03786 -1.5026,-1.41421 -0.2473,-0.18542 -0.3221,-0.41044 -0.5304,-0.61872 -0.046,-0.0466 -0.1302,-0.0418 -0.1767,-0.0884 -0.021,-0.0208 0,-0.0589 0,-0.0884 -0.059,-0.0589 -0.1075,-0.13056 -0.1768,-0.17678 -0.024,-0.0163 -0.072,0.0245 -0.088,0 -0.4422,-0.66323 -0.2652,-1.71872 -0.2652,-2.47487 v -7.33624 -2.12132 c 0,-0.31064 0.051,-0.66703 0,-0.97227 0.2975,-0.33461 -0.1383,-0.28802 -0.1767,-0.44194 -0.022,-0.0858 0.014,-0.17798 0,-0.26517 -0.051,-0.30532 -0.2232,-0.71148 -0.3536,-0.97227 -0.1204,-0.24073 -0.027,-0.25871 -0.088,-0.44194 -0.021,-0.0625 -0.059,-0.11785 -0.088,-0.17678 -0.059,-0.0589 -0.1458,-0.0994 -0.1768,-0.17677 -0.1553,-0.38826 0.1291,-0.13615 0.2205,0.13264 0.1921,0.57458 -0.033,0.29633 -0.2217,0.22103 -0.055,-0.0219 -0.1237,0.0264 -0.1767,0 -0.1746,-0.0873 -0.5191,-0.3166 -0.7071,-0.44194 -0.102,-0.068 -0.1632,-0.19717 -0.2652,-0.26517 -0.189,-0.12601 -0.482,-0.24098 -0.7071,-0.35355 -0.1318,-0.0659 -0.1347,-0.31416 -0.3536,-0.26516 -0.055,-0.0219 -0.1237,0.0263 -0.1767,0 -0.1318,-0.0659 -0.2218,-0.19927 -0.3536,-0.26517 -0.053,-0.0263 -0.1218,0.0219 -0.1768,0 -0.5826,-0.23303 -1.269,-0.79615 -1.8561,-0.97227 -0.1717,-0.0515 -0.3565,-0.0449 -0.5304,-0.0884 -0.3834,-0.0959 -0.6951,-0.37983 -1.0606,-0.53033 -0.1983,-0.0817 -0.4207,-0.0943 -0.6187,-0.17678 -0.1586,-0.0661 -0.2856,-0.19406 -0.442,-0.26516 -0.1696,-0.0771 -0.3636,-0.0935 -0.5303,-0.17678 -0.075,-0.0373 -0.1038,-0.13628 -0.1768,-0.17678 -0.1961,-0.10896 -0.418,-0.16481 -0.6187,-0.26516 -0.7224,-0.36118 -1.459,-0.74458 -2.2097,-1.06066 -0.2946,-0.12403 -1.756,-0.63021 -2.0329,-0.70711 -0.1727,-0.048 -0.3604,-0.0317 -0.5304,-0.0884 -0.1007,-0.0336 -0.1634,-0.14627 -0.2651,-0.17677 -0.1996,-0.0599 -0.4166,-0.0379 -0.6188,-0.0884 -0.1539,-0.0385 -0.2888,-0.13508 -0.4419,-0.17678 -1.1058,-0.30158 -3.0712,0 -4.2426,0 -0.4714,0 -0.9448,-0.0427 -1.4142,0 -0.772,0.0702 -1.5268,0.27646 -2.2981,0.35356 -0.3823,0.0382 -0.7717,0.0165 -1.1491,0.0884 -0.2473,0.0471 -0.4642,0.19897 -0.7071,0.26517 -0.085,0.0233 -0.1802,-0.0254 -0.2652,0 -0.7781,0.23343 -1.5062,0.68593 -2.2981,0.88388 -0.2021,0.0505 -0.4144,0.0475 -0.6187,0.0884 -0.6272,0.12545 -1.4159,0.57114 -2.0329,0.7955 -0.3608,0.1312 -0.8322,0.14233 -1.1491,0.35355 -0.104,0.0693 -0.1533,0.20927 -0.2651,0.26517 -0.1919,0.096 -0.4153,0.10897 -0.6187,0.17677 -0.5021,0.16734 -1.2634,0.49092 -1.7678,0.70711 -0.3967,0.17001 -0.8201,0.54017 -1.2374,0.70711 -0.1395,0.0558 -0.3047,0.0274 -0.442,0.0884 -0.8719,0.38745 0.01,0.12008 -0.5303,0.44195 -1.0819,0.64911 -2.36,1.21939 -3.5356,1.67937 -0.1997,0.0782 -0.4234,0.088 -0.6187,0.17678 -0.1341,0.061 -0.2181,0.20717 -0.3535,0.26517 -0.3426,0.1468 -0.6991,0.26315 -1.0607,0.35355 -0.9406,0.23518 -1.8676,0.17678 -2.8284,0.17678 l -6.7617,-0.0442 c -0.302,2.95751 -0.039,5.98058 -0.3978,8.97141 -0.3465,2.88776 -0.8967,5.76604 -1.2374,8.66206 -0.1384,1.17628 -0.2552,2.35524 -0.3536,3.53553 -0.084,1.01016 0.1965,0.19642 0,1.76777 -0.01,0.0827 -0.1178,0.11785 -0.1767,0.17678 -0.059,0.4714 -0.1374,0.94078 -0.1768,1.41421 -0.1565,1.8774 -0.02,3.7794 -0.1768,5.65685 -0.071,0.85643 -0.437,1.63497 -0.5303,2.47488 -0.032,0.29282 0.042,0.59222 0,0.88388 -0.019,0.13044 -0.1448,0.22573 -0.1768,0.35356 -0.1866,0.74627 -0.2421,1.69466 -0.3535,2.47487 -0.025,0.175 0.043,0.35883 0,0.53033 -0.02,0.0808 -0.1566,0.0959 -0.1768,0.17678 -0.09,0.35901 0.1707,1.07277 0,1.41421 -0.026,0.0527 -0.1351,-0.0417 -0.1768,0 -0.1172,0.11723 0,1.01914 0.5746,1.94455 1.5988,0.53637 0.9256,0.6187 2.6074,0.6187 z"
         id="path41" />
    </g>
  </g>
</svg>
