<?xml version="1.0" encoding="UTF-8" standalone="no"?>
<!-- Created with Inkscape (http://www.inkscape.org/) -->

<svg
   version="1.1"
   id="svg1"
   width="188"
   height="192.875"
   viewBox="0 0 188 192.875"
   xmlns="http://www.w3.org/2000/svg"
   xmlns:svg="http://www.w3.org/2000/svg">
  <defs
     id="defs1" />
  <g
     id="layer1"
     style="display:inline"
     transform="translate(-400.28125,-225.15625)">
    <g
       id="layer78"
       style="display:inline;fill:#ffffff;fill-opacity:1;stroke:none">
      <path
         style="fill:#ffffff;fill-opacity:1;stroke:none;stroke-linecap:round"
         d="m 413.25,242.59375 0.21875,-3.3125 11.125,-10.28125 13.65625,-3.84375 4.8125,11.625 8.1875,4.90625 2.65625,6.21875 5.5625,4.3125 8.875,13.34375 13.8125,11.90625 4.9375,6.8125 15.59375,13.8125 3.53125,-1.25 2.375,2.90625 8.65625,2.1875 5.25,2.46875 6.8125,12 4.84375,3.5625 10.6875,2.71875 4.25,1.6875 5.0625,10.9375 25.25,17 3.40625,17.46875 2.90625,1.4375 2.5625,14.53125 -3.75,5.375 -3.40625,7.21875 -0.28125,4.1875 -0.15625,8.46875 -10.8125,0.875 -0.0312,-4.4375 -7.78125,0.5625 -15.125,3.125 -9.1875,4.71875 -10.25,2.1875 -24.5,-6.40625 -4.21875,-9.28125 -18.375,-21.40625 -17.5625,-11.28125 -21.125,-7.84375 -23.875,-1.78125 1.96875,-8.4375 -1.125,-2.28125 0.0937,-4.09375 1.9375,-3.8125 -4.125,-8.125 5.46875,-10.625 -4.125,-8.84375 -5.78125,-5.125 -2.625,-4 -3.71875,-2.5625 -5.46875,1.09375 -0.0625,-5.65625 3.4375,-0.84375 8.71875,-7.625 1.21875,-12.15625 0.75,-1.40625 -0.59375,-2.1875 3.0625,-3.4375 0.6875,-4.84375 -1.40625,-8.5625 0.0625,-3.5 1.1875,-4.09375 z"
         id="path77" />
    </g>
  </g>
</svg>
