<?xml version="1.0" encoding="UTF-8" standalone="no"?>
<!-- Created with Inkscape (http://www.inkscape.org/) -->

<svg
   version="1.1"
   id="svg2"
   width="187.97525"
   height="193.00916"
   viewBox="0 0 187.97525 193.00916"
   xmlns="http://www.w3.org/2000/svg"
   xmlns:svg="http://www.w3.org/2000/svg">
  <defs
     id="defs6">
    <linearGradient
       id="swatch77">
      <stop
         style="stop-color:#e2c69e;stop-opacity:1;"
         offset="0"
         id="stop77" />
    </linearGradient>
  </defs>
  <g
     id="layer66"
     style="display:inline"
     transform="translate(-400.1875,-224.74943)">
    <g
       id="layer34"
       style="display:inline">
      <path
         style="display:inline;fill:#969696;fill-opacity:1;stroke:none;stroke-opacity:1"
         d="m 401.19471,298.13405 c 0.0745,-0.0373 0.10228,-0.13948 0.17678,-0.17678 0.10047,-0.0502 0.84718,-0.40524 0.88388,-0.44194 0.10417,-0.10417 0.161,-0.24939 0.26517,-0.35355 0.0466,-0.0466 0.14027,-0.0336 0.17677,-0.0884 0.0327,-0.049 -0.0186,-0.12088 0,-0.17678 0.0976,-0.29273 0.52102,-0.41409 0.61872,-0.70711 0.0186,-0.0559 -0.0186,-0.12087 0,-0.17677 0.0553,-0.16583 0.25715,-0.29732 0.35355,-0.44195 0.0366,-0.0548 0.0589,-0.11787 0.0884,-0.17677 0,-0.0295 -0.0152,-0.0631 0,-0.0884 0.0758,-0.12632 0.161,-0.24939 0.26517,-0.35355 0.0466,-0.0466 0.14727,-0.0295 0.17677,-0.0884 0.0395,-0.0791 -0.0214,-0.17947 0,-0.26517 0.0226,-0.0903 0.22887,-0.14047 0.26517,-0.17677 0.0208,-0.0208 -0.0163,-0.0639 0,-0.0884 0.0935,-0.14025 0.31542,-0.43993 0.44194,-0.53033 0.55327,-0.3952 1.20146,-0.68313 1.76777,-1.06066 0.0693,-0.0462 0.10607,-0.13258 0.17677,-0.17678 0.27934,-0.17458 0.63083,-0.23106 0.88389,-0.44194 0.0816,-0.068 0.0846,-0.21247 0.17677,-0.26517 0.75927,-0.43386 0.19675,0.12464 0.61872,-0.17677 1.7237,-1.23121 -0.50534,0.20848 0.7955,-0.44194 0.0264,-0.0132 -0.0224,-0.0692 0,-0.0884 0.33555,-0.28761 0.68589,-0.56127 1.06066,-0.7955 0.0455,-0.0285 0.66771,-0.31415 0.70711,-0.35355 0.0208,-0.0208 -0.0208,-0.0676 0,-0.0884 0.0751,-0.0751 0.18016,-0.11308 0.26516,-0.17678 0.27078,-0.20306 -0.14492,0.0565 0.17678,-0.26516 0.0466,-0.0466 0.13017,-0.0418 0.17677,-0.0884 0.0573,-0.0573 0.21757,-0.61191 0.26517,-0.70711 0.0659,-0.13176 0.18936,-0.22723 0.26516,-0.35355 0.18948,-0.3158 0.44603,-0.9002 0.53033,-1.23744 0.0471,-0.18824 -0.0753,-0.44309 0,-0.61872 0.0936,-0.21833 0.31456,-0.38441 0.35356,-0.61871 0.0625,-0.37479 0.0413,-0.77197 0.0884,-1.14905 0.0398,-0.31869 0.20136,-0.65329 0.26516,-0.97227 0.19173,-0.95863 0.44133,-1.93774 0.53033,-2.91682 0.0752,-0.82749 -0.0149,-1.64856 0.0884,-2.47487 0.0328,-0.26239 -0.0845,-0.63037 0,-0.88389 0.12575,-0.37724 0.36274,-0.75303 0.44194,-1.14905 0.0535,-0.26775 0,-0.6071 0,-0.88388 0,-0.27952 0.0847,-0.71804 0,-0.97227 -0.009,-0.028 -0.0676,0.0208 -0.0884,0 -0.12148,-0.12148 -0.16208,-0.30451 -0.26516,-0.44194 -0.23083,-0.30778 -0.5954,-0.60031 -0.44194,-1.06066 0.1171,-0.35132 0.10315,-0.97965 0.44194,-1.14905 0.15098,-0.0755 0.37723,-0.15034 0.53033,-0.26517 0.0667,-0.05 0.10527,-0.13387 0.17677,-0.17677 0.12857,-0.0772 0.50315,-0.13058 0.61872,-0.17678 0.0741,-0.0296 0.67571,-0.78978 0.70711,-0.88388 0.10965,-0.32895 -0.0433,-0.80257 0,-1.14905 0.0411,-0.32911 0.12298,-0.6495 0.17678,-0.97227 0.0194,-0.11625 -0.0373,-0.24175 0,-0.35356 0.0593,-0.17802 0.22846,-0.34686 0.26516,-0.53033 0.0231,-0.11556 -0.0286,-0.23922 0,-0.35355 0.17427,-0.69696 -0.0229,0.18978 0.26517,-0.53033 0.0932,-0.23296 0.0737,-0.54812 0.17677,-0.7955 0.21766,-0.52236 0.45856,-1.00551 0.70711,-1.5026 0.0765,-0.15305 0,-0.62212 0,-0.79549 0,-0.37932 0.0911,-0.87301 0,-1.23744 -0.0575,-0.23008 -0.28225,-0.4048 -0.35355,-0.61872 -0.0279,-0.0838 0.0173,-0.17846 0,-0.26516 -0.0367,-0.18347 -0.20587,-0.35231 -0.26517,-0.53033 -0.0384,-0.11525 -0.0341,-0.2449 -0.0884,-0.35356 -0.0132,-0.0263 -0.0752,0.0264 -0.0884,0 -0.23867,-0.47732 -0.0661,-0.75084 -0.17677,-0.97227 -0.0768,-0.15366 -0.19407,-0.28554 -0.26517,-0.44194 -0.0888,-0.19527 -0.0578,-0.44025 -0.17677,-0.61872 -0.0462,-0.0693 -0.13948,-0.10227 -0.17678,-0.17677 -0.0263,-0.0527 0.0143,-0.11958 0,-0.17678 -0.0331,-0.1323 -0.21767,-0.34684 -0.26517,-0.44194 -0.0716,-0.14311 -0.0316,-0.38821 -0.0884,-0.53033 -0.0547,-0.13678 -0.21857,-0.2138 -0.26517,-0.35356 -0.041,-0.12302 -0.0498,-2.31448 0,-2.56326 0.0258,-0.1292 0.15098,-0.22435 0.17678,-0.35355 0.0927,-0.46375 0.1514,-0.95916 0.26516,-1.41422 0.0435,-0.17386 0.0178,-0.3656 0.0884,-0.53033 0.0259,-0.0606 0.14018,-0.0336 0.17678,-0.0884 0.17677,-0.26517 -0.0884,-0.0884 0,-0.26517 0.0659,-0.13176 0.18936,-0.22723 0.26516,-0.35355 0.0665,-0.1109 0.11378,-0.35794 0.17678,-0.44194 0.075,-0.1 0.20086,-0.15798 0.26516,-0.26517 0.0303,-0.0505 -0.0327,-0.12778 0,-0.17678 0.0365,-0.0548 0.13018,-0.0418 0.17678,-0.0884 0.0659,-0.0659 0.0367,-0.18767 0.0884,-0.26517 0.0963,-0.14436 0.13098,-0.0363 0.17678,-0.26516 0.0813,-0.40653 0.0752,-1.16657 -0.17678,-1.50261 -0.05,-0.0667 -0.14578,-0.0994 -0.17678,-0.17677 -0.0328,-0.0821 0.0395,-0.18607 0,-0.26517 -0.0295,-0.0589 -0.13017,-0.0418 -0.17677,-0.0884 -0.0208,-0.0208 0.0177,-0.0648 0,-0.0884 -0.075,-0.1 -0.19587,-0.16116 -0.26517,-0.26517 -0.0957,-0.14356 -0.17066,-0.40433 -0.26516,-0.53033 -0.125,-0.16667 -0.34875,-0.2556 -0.44195,-0.44194 -0.0263,-0.0527 0.0186,-0.12088 0,-0.17678 -0.0263,-0.0791 -0.13947,-0.10227 -0.17677,-0.17677 -0.0132,-0.0264 0.0208,-0.0676 0,-0.0884 -0.0751,-0.0751 -0.19007,-0.10168 -0.26517,-0.17678 -0.22741,-0.22742 -0.30834,-0.61669 -0.44194,-0.88388 -0.58605,-1.1721 -1.05761,-2.08036 -1.65728,-2.47488 -0.14568,-0.6522 -0.12378,-1.09363 0.0221,-1.45841 0.0394,-0.0986 0.12926,-0.17015 0.17677,-0.26516 0.64215,-1.2843 -0.4472,0.67776 0.30936,-0.7513 0.065,-0.12283 0.15508,-0.23119 0.22097,-0.35356 0.0376,-0.0698 0.0476,-0.15294 0.0884,-0.22097 0.15159,-0.25264 0.37101,-0.45927 0.53033,-0.7071 0.0252,-0.0392 0.0168,-0.0949 0.0442,-0.13259 0.0921,-0.12664 0.22065,-0.22451 0.30936,-0.35355 0.0747,-0.10858 0.10772,-0.24134 0.17678,-0.35355 0.12986,-0.21103 0.54722,-0.7682 0.70711,-0.92808 0.0667,-0.0667 0.15787,-0.10666 0.22097,-0.17678 0.0711,-0.079 0.11182,-0.1811 0.17678,-0.26516 0.1915,-0.2357 0.38301,-0.47141 0.57452,-0.70711 0.0295,-0.0147 0.0651,-0.0209 0.0884,-0.0442 0.18278,-0.18279 0.32508,-0.41033 0.53033,-0.57453 0.10502,-0.084 0.24623,-0.13511 0.35355,-0.22097 0.10606,-0.0848 0.20215,-0.18178 0.30936,-0.26516 0.17311,-0.13465 0.39267,-0.22366 0.57452,-0.35356 0.13408,-0.0958 0.29812,-0.22945 0.44195,-0.30936 0.0981,-0.0545 0.21806,-0.0674 0.30936,-0.13258 0.17367,-0.12405 0.2842,-0.26254 0.44194,-0.39775 0.2023,-0.1734 0.45279,-0.2649 0.61872,-0.48613 0.11996,-0.15996 0.15504,-0.30049 0.30935,-0.44194 0.54716,-0.50156 1.12679,-0.96721 1.67938,-1.45841 0.0934,-0.083 0.16408,-0.19164 0.26517,-0.26517 0.0642,-0.0467 0.15162,-0.0499 0.22097,-0.0884 0.29147,-0.16193 0.5576,-0.39502 0.83969,-0.57453 0.3993,-0.2541 0.85521,-0.385 1.28163,-0.57452 0.0485,-0.0216 0.0851,-0.0646 0.13258,-0.0884 0.31308,-0.15654 0.65507,-0.25135 0.97227,-0.39775 0.0482,-0.0223 0.0884,-0.0589 0.13259,-0.0884 0.10312,-0.0442 0.20579,-0.0894 0.30936,-0.13258 0.0736,-0.0295 0.14731,-0.0589 0.22097,-0.0884 0.0736,-0.0147 0.15086,-0.0172 0.22097,-0.0442 0.12298,-0.0473 0.23244,-0.12488 0.35355,-0.17678 0.17127,-0.0734 0.35462,-0.11476 0.53033,-0.17678 0.26834,0.0244 0.43879,-0.18511 0.66291,-0.26516 0.65867,-0.23524 0.22748,-0.0458 0.92808,-0.22097 0.15714,-0.0393 0.3601,-0.1244 0.53033,-0.17678 0.2495,-0.0768 0.50766,-0.12726 0.7513,-0.22097 0.59936,-0.23052 1.17526,-0.54601 1.76777,-0.79549 0.286,-0.12042 0.68439,-0.26719 0.97227,-0.35356 0.13009,-0.039 0.26833,-0.0472 0.39775,-0.0884 0.47204,-0.15019 0.88913,-0.34187 1.37002,-0.48613 0.15197,-0.0456 0.29142,-0.1266 0.44194,-0.17678 0.27755,-0.0925 0.44968,-0.12443 0.70711,-0.22097 0.40244,-0.15092 0.75559,-0.35498 1.19323,-0.37561 0.0256,2.89173 0.2361,5.79767 1.45839,8.24225 0.4714,0.94281 -0.20538,0.13389 0.53033,1.23744 0.54851,0.82276 2.02098,2.88958 2.82842,3.53553 0.43216,0.34573 0.98037,0.41788 1.41422,0.70711 0.4048,0.26987 0.64425,0.81082 1.06066,1.06066 0.15453,0.0927 0.73669,0.22739 0.88388,0.35355 0.37963,0.3254 0.67023,0.74832 1.06066,1.06066 0.66388,0.53111 2.33157,0.8457 2.82843,1.591 0.71548,1.07322 -0.50889,-0.55352 0.35355,0.88388 0.11212,0.18687 1.12969,1.66002 1.23744,1.76777 0.68308,0.68307 0.0555,-0.59604 0.70711,0.7071 0.18011,0.36024 0.77868,1.45217 0.88388,1.76777 0.0373,0.1118 -0.0373,0.24175 0,0.35355 0.0791,0.23717 0.4017,0.31596 0.53033,0.53033 0.0625,0.10411 0.24283,0.77317 0.35355,0.88389 0.0417,0.0417 0.13511,-0.0417 0.17678,0 0.15023,0.15023 0.21754,0.36711 0.35355,0.53033 0.16005,0.19205 0.40171,0.31595 0.53033,0.53033 0.0606,0.10105 0,0.2357 0,0.35355 0.17678,0.2357 0.322,0.49877 0.53033,0.70711 0.4507,0.45069 1.10706,0.64586 1.59099,1.06066 0.51206,0.43891 -0.76583,-0.11775 0.17678,0.35355 0.0527,0.0263 0.11785,0 0.17678,0 0.11785,0.0589 0.24814,0.0977 0.35355,0.17678 0.56339,0.42254 1.03399,1.02065 1.41421,1.59099 -0.0176,0.3502 0.26039,0.0836 0.35356,0.17677 0.74808,-0.28128 0.25319,0.55657 0.35355,0.70711 0.13867,0.20801 0.41853,0.30672 0.53033,0.53033 0.50592,1.01185 -0.10984,0.11157 0.35355,0.88388 0.48785,0.81309 1.21325,1.38197 1.76777,2.12132 0.15811,0.21082 0.18485,0.50467 0.35355,0.70711 1.73952,2.08743 -0.45968,-1.08431 0.88389,0.70711 0.15811,0.21082 0.16721,0.52077 0.35355,0.7071 0.42936,0.42936 0.25958,-0.0526 0.53033,0.35356 0.28703,0.43054 0.44783,0.91039 0.88388,1.23744 0.21082,0.15811 0.52077,0.16721 0.70711,0.35355 0.16574,0.16573 0.29512,0.5503 0.53033,0.70711 0.10963,0.0731 0.26038,0.0836 0.35355,0.17677 0.13177,0.13176 0.045,0.39857 0.17678,0.53033 0.0932,0.0932 0.26038,0.0836 0.35355,0.17678 0.0417,0.0417 -0.0263,0.12407 0,0.17678 0.007,0.0145 1.80367,1.98044 1.94455,2.12132 0.44141,0.44141 1.11145,0.83781 1.59099,1.23743 0.31008,0.25841 0.54814,0.66006 0.88388,0.88389 0.43514,0.29009 0.97907,0.41701 1.41422,0.7071 0.17677,0.11785 0.76603,0.70711 0.88388,0.88389 0.0327,0.049 -0.049,0.14409 0,0.17677 0.15504,0.10337 0.38126,0.065 0.53033,0.17678 0.0185,0.0139 1.02757,1.34804 1.06066,1.41421 0.0833,0.16667 0.065,0.38126 0.17678,0.53033 0.079,0.10541 0.26038,0.0836 0.35355,0.17678 0.36256,0.36256 0.5933,0.97833 0.88388,1.41421 0.30777,0.46165 0.9049,0.80989 1.23744,1.23744 0.21094,0.27122 0.28737,0.64093 0.53033,0.88388 0.18634,0.18634 0.50133,0.18894 0.70711,0.35356 0.33492,0.26794 0.53778,0.96056 0.88388,1.23743 0.14551,0.11641 0.37055,0.0809 0.53033,0.17678 0.29714,0.17829 0.72156,0.89834 0.88388,1.06066 0.0417,0.0417 0.13077,-0.0368 0.17678,0 0.39043,0.31235 0.66066,0.76066 1.06066,1.06066 0.21082,0.15812 0.52077,0.16722 0.70711,0.35355 0.13176,0.13177 0.0217,0.42697 0.17677,0.53033 0.15505,0.10337 0.38483,0.0604 0.53033,0.17678 0.16591,0.13272 0.22084,0.36443 0.35356,0.53033 0.10411,0.13015 0.2678,0.21064 0.35355,0.35355 0.0959,0.15979 0.045,0.39857 0.17678,0.53034 0.13176,0.13176 0.39857,0.045 0.53033,0.17677 0.0833,0.0833 -0.0527,0.24815 0,0.35356 0.12695,0.2539 0.98908,0.79798 1.06066,0.88388 0.11929,0.14315 0.0809,0.37054 0.17677,0.53033 0.33201,0.55334 1.17711,1.00033 1.59099,1.41421 0.0417,0.0417 -0.0354,0.12964 0,0.17678 0.15,0.2 0.37029,0.33827 0.53033,0.53033 0.13602,0.16321 0.18766,0.39761 0.35356,0.53033 0.1455,0.1164 0.38482,0.0604 0.53033,0.17678 1.05809,-0.1522 0.16721,0.52076 0.35355,0.7071 0.0932,0.0932 0.24815,0.0977 0.35355,0.17678 1.4694,1.10205 2.76084,1.63466 4.41942,2.2981 0.23212,0.0928 0.32232,0.39165 0.53033,0.53033 0.4152,0.27679 1.07963,0.40248 1.59099,0.53033 0.51083,0.1277 1.01335,0.61663 1.41422,0.88388 0.24194,0.1613 0.68179,0.21882 0.88388,0.35355 0.13867,0.0924 0.22022,0.25356 0.35355,0.35356 0.35866,0.26899 0.87231,0.34776 1.23744,0.53033 0.19878,0.0994 0.32093,0.46053 0.53033,0.53033 0.1118,0.0373 0.2555,-0.0654 0.35355,0 0.17678,0.11785 0.18359,0.40285 0.35356,0.53033 0.27487,0.20615 0.64092,0.28737 0.88388,0.53033 0.0417,0.0417 -0.0527,0.15042 0,0.17677 0.10541,0.0527 0.24814,-0.0527 0.35355,0 1.0205,0.51025 -0.40291,0.27297 0.88389,0.53033 0.17334,0.0347 0.37221,-0.079 0.53033,0 0.22578,0.11289 0.17756,0.35435 0.22097,0.30936 1.37949,0.0117 0.59851,-0.25677 1.45841,0.22097 0.17277,0.096 0.39057,0.12541 0.53033,0.26517 0.0466,0.0466 0.0295,0.14731 0.0884,0.17678 0.0368,0.0184 0.36829,-0.0123 0.44195,0 0.22884,0.0381 0.60468,0.15916 0.79549,0.26516 0.62701,0.34834 0.42671,0.30378 0.7955,0.7955 0.21906,0.29208 0.14291,0.0479 0.26516,0.35355 0.22321,0.55803 0.12445,1.37932 0.70711,1.76777 0.10963,0.0731 0.24814,0.0977 0.35355,0.17677 0.13744,0.10308 0.17017,0.2346 0.35355,0.26517 0.97772,0.16295 2.01268,0.0884 3.00521,0.0884 0.33659,0 0.73046,-0.066 1.06066,0 0.75139,0.15027 -0.25184,0.004 0.53033,0.26516 0.0838,0.028 0.17941,-0.0214 0.26516,0 1.77402,0.44351 -0.7046,-0.075 0.7955,0.35355 0.20838,0.0595 0.43535,0.0393 0.61872,0.17678 0.39096,0.29322 0.11809,0.23582 0.53033,0.44194 0.50718,0.2536 1.07773,0.38184 1.59099,0.61872 0.15598,0.072 0.28554,0.19408 0.44194,0.26517 0.16964,0.0771 0.36744,0.0863 0.53033,0.17677 0.10927,0.0607 0.16116,0.19583 0.26516,0.26517 0.43134,0.28755 0.1131,-0.15208 0.53033,0.26516 0.0208,0.0208 -0.0245,0.072 0,0.0884 0.57414,0.38276 0.0831,-0.002 0.35356,0.0884 0.64023,0.21341 -0.13936,-0.0255 0.26516,0.17678 0.34865,0.17432 0.55279,0.23038 0.7955,0.61872 0.54077,0.86522 1.05497,1.66801 1.5026,2.56326 0.18831,0.37662 0.59938,0.8949 0.70711,1.32582 0.1018,0.40721 0.31674,0.93425 0.53033,1.32583 0.1526,0.27977 0.40479,0.50257 0.53033,0.79549 0.0478,0.11166 0.05,0.23831 0.0884,0.35356 0.0751,0.22534 0.25708,0.40165 0.35355,0.61871 0.21771,0.48986 -0.0716,0.23571 0.26516,0.70711 0.0727,0.10172 0.19251,0.16345 0.26517,0.26517 0.20691,0.28967 0.22258,0.69806 0.44194,0.97227 0.54624,0.68279 -0.0183,-0.20426 0.53033,0.61872 0.17964,0.26946 0.004,0.14231 0.17678,0.53033 0.10607,0.23866 0.48461,0.94789 0.61872,1.14905 0.0241,0.0362 0.59296,0.76974 0.61871,0.79549 0.0466,0.0466 0.1302,0.0418 0.17678,0.0884 0.0466,0.0466 0.0418,0.13019 0.0884,0.17678 0.0466,0.0466 0.13019,0.0418 0.17678,0.0884 0.0466,0.0466 0.0518,0.12196 0.0884,0.17678 0.26529,0.39793 0.29494,0.39798 0.70711,0.70711 0.35239,0.26429 0.49772,0.2748 0.97227,0.53033 0.47147,0.25387 0.88379,0.75128 1.41422,0.88388 0.39325,0.0983 0.85783,0.10248 1.23743,0.26517 0.51343,0.22004 0.0146,0.15056 0.53033,0.26516 1.1154,0.24787 2.25292,0.46137 3.35876,0.70711 0.37669,0.0837 0.9672,0.17424 1.32583,0.35355 0.095,0.0475 0.16752,0.13493 0.26516,0.17678 0.62786,0.26908 0.12675,0.008 0.53033,0.0884 0.40566,0.0811 0.7691,0.29946 1.14905,0.44194 0.2357,0.0884 0.46829,0.18556 0.70711,0.26516 0.0559,0.0186 0.12206,-0.0219 0.17677,0 1.11744,0.44698 -0.51511,-0.0485 0.53033,0.26517 1.11457,0.33437 2.31187,0.42329 3.44715,0.7071 0.96807,0.24202 1.26445,0.59826 2.12132,0.88389 0.11524,0.0384 0.24076,0.0433 0.35355,0.0884 0.42521,0.17008 1.0209,1.2463 1.23744,1.67938 0.036,0.0719 0.0524,0.37002 0.0884,0.44194 0.0373,0.0745 0.13055,0.10744 0.17677,0.17677 0.10964,0.16445 0.15554,0.36589 0.26517,0.53033 0.3334,0.5001 0.72927,0.9356 0.97227,1.50261 0.26062,0.60811 0.524,1.21529 0.70711,1.85615 0.10055,0.35192 0.0614,0.80289 0.17677,1.14905 0.23203,0.69609 0.5014,1.32898 0.61872,2.03293 0.0779,0.46716 0.17678,0.23249 0.17678,0.61872 0.0294,0.20621 -0.0418,0.45598 0.0883,0.61864 0.14017,0.17521 0.41802,0.16482 0.61872,0.26516 0.33019,0.1651 0.64208,0.36524 0.97227,0.53033 0.51908,0.25954 1.09885,0.39953 1.59099,0.70711 0.106,0.0663 0.16116,0.19583 0.26516,0.26517 0.0775,0.0517 0.18765,0.0367 0.26517,0.0884 0.29519,0.1968 0.5003,0.51031 0.79549,0.70711 2.05503,1.37002 -1.06883,-0.93001 1.06066,0.61872 1.05657,0.76841 2.09755,1.57514 3.18198,2.2981 0.45003,0.30001 0.95925,0.50301 1.41422,0.79549 0.32801,0.21086 0.64708,0.49032 0.97227,0.70711 0.0245,0.0163 0.0654,-0.0184 0.0884,0 0.16898,0.13519 0.36134,0.48353 0.53033,0.61872 0.0728,0.0582 0.18764,0.0367 0.26516,0.0884 0.0245,0.0163 -0.0208,0.0676 0,0.0884 0.1334,0.1334 0.28018,0.25649 0.44195,0.35356 0.0799,0.0479 0.18764,0.0367 0.26516,0.0884 0.0245,0.0163 -0.0132,0.062 0,0.0884 0.0475,0.095 0.10166,0.19005 0.17678,0.26517 0.15336,0.15336 0.60272,0.32155 0.7071,0.53033 0.0417,0.0833 0.0325,0.19063 0.0884,0.26516 0.13407,0.17876 0.62391,0.35874 0.7955,0.53033 0.0208,0.0208 -0.0132,0.062 0,0.0884 0.0475,0.095 0.11304,0.18018 0.17677,0.26517 0.10349,0.13797 0.70008,0.67295 0.88389,0.79549 0.0548,0.0365 0.13019,0.0418 0.17677,0.0884 0.0208,0.0208 -0.0208,0.0676 0,0.0884 0.1315,0.13149 0.50886,0.29545 0.61872,0.44194 0.0559,0.0745 0.0367,0.18764 0.0884,0.26517 0.0693,0.104 0.19251,0.16344 0.26517,0.26516 0.0766,0.10722 0.10019,0.24633 0.17677,0.35355 0.41085,0.57519 1.32313,1.5717 1.94455,1.94455 0.11298,0.0678 0.24392,0.10369 0.35355,0.17677 0.0693,0.0462 0.10442,0.13544 0.17678,0.17678 0.13775,0.0787 0.30418,0.0981 0.44194,0.17678 0.0723,0.0413 0.10532,0.1339 0.17677,0.17677 0.0799,0.0479 0.18184,0.0467 0.26517,0.0884 0.15366,0.0768 0.28336,0.19909 0.44194,0.26517 0.19799,0.0825 0.41788,0.10146 0.61872,0.17677 0.17476,0.0655 0.47062,0.44148 0.61872,0.53033 0.18392,0.11036 0.42687,0.0809 0.61872,0.17678 0.0745,0.0373 0.11011,0.12678 0.17677,0.17678 0.17966,0.13474 0.42995,0.2277 0.61872,0.35355 0.39379,0.26252 0.73171,0.56364 1.14905,0.7955 0.16451,0.18496 0.42116,0.15878 0.61872,0.26516 0.30252,0.1629 0.58136,0.36743 0.88388,0.53033 0.0797,0.0429 0.46765,0.20249 0.53033,0.26517 0.0659,0.0659 0.0225,0.19928 0.0884,0.26516 0.11785,0.11785 0.0848,-0.1875 0.17678,0.0884 0.10261,0.30783 0,1.6491 0,2.03293 v 3.53554 c 0,0.43003 -0.0439,0.97542 0,1.41421 0.0447,0.44728 0.19089,0.79182 0.26516,1.23744 0.0242,0.14531 -0.0423,0.30084 0,0.44194 0.0494,0.16455 0.19749,0.28403 0.26517,0.44194 0.11552,0.26954 0.052,0.68088 0.0884,0.97227 0.0438,0.35069 0.36407,0.97542 0.44194,1.32583 0.0256,0.11504 0,0.2357 0,0.35355 0.0295,0.17678 0.0449,0.35647 0.0884,0.53033 0.11191,0.44767 0.4196,0.88293 0.53033,1.32583 0.0286,0.11433 -0.0194,0.2373 0,0.35355 0.0774,0.46445 1.08594,2.01086 1.41421,2.2981 0.0914,0.0799 0.59047,0.54095 0.70711,0.61871 0.0775,0.0517 0.19359,0.0288 0.26516,0.0884 0.11317,0.0943 0.161,0.24939 0.26517,0.35356 0.35156,0.35156 0.83595,0.2577 1.14905,0.88388 0.0833,0.16667 0.10337,0.35906 0.17677,0.53033 0.0164,0.0383 0.0802,0.0475 0.0884,0.0884 0.0231,0.11556 -0.0117,0.23628 0,0.35355 0.14017,1.40174 0.0884,2.82977 0.0884,4.24264 0,0.35284 -0.0598,0.8785 0,1.23744 0.0375,0.22472 0.28519,0.50201 0.35355,0.70711 0.14712,0.44135 0.26228,0.92374 0.53033,1.32582 0.32189,0.48284 0.33042,0.3236 0.61872,0.97227 0.0239,0.0538 -0.0116,0.119 0,0.17678 -0.16245,0.24303 0.14058,0.22686 0.17678,0.35355 0.28792,1.00772 0.17677,2.14835 0.17677,3.18198 0,0.3943 0.0599,0.84794 0,1.23744 -0.12783,0.83092 -0.48789,1.44072 -0.79549,2.20971 -0.0734,0.18349 -0.008,0.36143 -0.17678,0.53033 -1.99306,0.99602 0.19817,-0.19225 -1.06072,0.70696 -0.0758,0.0541 -0.18183,0.0467 -0.26516,0.0884 -0.32284,0.16142 -0.67894,0.72634 -0.88389,0.97228 -0.0989,0.11867 -0.27915,0.22334 -0.35355,0.35355 -0.20652,0.36141 -0.29543,0.7967 -0.53033,1.14905 -0.1243,0.18645 -0.39381,0.28969 -0.44194,0.53033 -0.0173,0.0867 0.0214,0.17941 0,0.26516 -0.0393,0.15706 -0.42732,0.80313 -0.53033,1.06066 -0.1661,0.41524 -0.15035,0.91942 -0.35356,1.32583 -0.0132,0.0263 -0.0752,-0.0263 -0.0884,0 -0.0802,0.16029 -0.0317,0.36031 -0.0884,0.53033 -0.18495,0.55486 -0.32601,1.09971 -0.44194,1.67938 -0.10245,0.51224 -0.32923,0.99539 -0.44195,1.5026 -0.0192,0.0863 0.0173,0.17849 0,0.26516 -0.0659,0.32941 -0.19229,0.64435 -0.26516,0.97228 -0.0948,0.4267 -0.13342,0.89222 -0.17678,1.32582 -0.009,0.0879 0.0243,0.18018 0,0.26517 -0.11273,0.39458 -0.34241,0.75093 -0.44194,1.14904 -0.0435,0.17387 -0.0449,0.35647 -0.0884,0.53033 -0.016,0.0639 -0.0797,0.11148 -0.0884,0.17678 -0.0508,0.38078 -0.0482,0.76701 -0.0884,1.14905 0.26578,0.33265 -0.14242,0.46659 -0.17678,0.70711 -0.0542,0.37916 0.0347,0.7676 0,1.14904 -0.0169,0.18558 -0.14614,0.34653 -0.17678,0.53034 -0.0925,0.55483 -0.0531,1.12268 -0.17677,1.67937 -0.16667,0.75 0.005,-0.32705 -0.26517,0.61872 -0.10878,0.38075 0,1.54805 0.2242,1.73669 -0.30657,-0.29624 -0.83934,-0.28334 -1.36955,-0.29624 -0.19813,-0.005 -0.3956,-0.0272 -0.59375,-0.0312 -0.57281,-0.011 -1.14679,0.033 -1.71875,0 -0.31354,-0.018 -0.62449,-0.068 -0.9375,-0.0937 -0.37004,-0.0303 -1.26653,-0.0837 -1.6875,-0.0937 -0.40614,-0.01 -0.81287,-0.0173 -1.21875,0 -0.28177,0.012 -0.5621,0.0481 -0.84375,0.0625 -0.34351,0.0176 -0.68973,-0.0311 -0.90653,-0.14045 -0.0751,-0.62423 -0.13845,-1.07003 -0.4056,-1.49747 -0.0662,-0.106 -0.22564,-0.14658 -0.26517,-0.26516 -0.0186,-0.0559 0.0186,-0.12088 0,-0.17678 -0.0527,-0.15812 -0.2678,-0.21064 -0.35355,-0.35355 -0.0303,-0.0505 0.0263,-0.12408 0,-0.17678 -0.15894,-0.31789 -0.15317,-0.0648 -0.35355,-0.26517 -0.0466,-0.0466 -0.0418,-0.13019 -0.0884,-0.17677 -0.13258,-0.13259 -0.39775,-0.13259 -0.53033,-0.26517 -0.0466,-0.0466 -0.0418,-0.13019 -0.0884,-0.17678 -0.0932,-0.0932 -0.24814,-0.0977 -0.35355,-0.17677 -0.15255,-0.11442 -0.44248,-0.46424 -0.61872,-0.53033 -0.54652,-0.20495 -1.37414,-0.0884 -1.94454,-0.0884 -0.72014,0 -1.49712,-0.0891 -2.20971,0 -0.48717,0.0609 -0.91427,0.29474 -1.41422,0.35355 -0.23408,0.0275 -0.47237,-0.0213 -0.7071,0 -0.25611,0.0233 -0.37143,0.19772 -0.61872,0.26517 -0.20099,0.0548 -0.42108,0.0225 -0.61872,0.0884 -0.2357,0.11785 -0.4714,0.2357 -0.70711,0.35355 -0.0295,0.0295 -0.0511,0.0697 -0.0884,0.0884 -0.53793,0.26897 -1.08401,0.54589 -1.59099,0.88388 -0.0693,0.0462 -0.10224,0.13951 -0.17677,0.17678 -0.13119,0.0656 -0.65397,0.0412 -0.7955,0.0884 -0.10078,0.0336 -0.1657,0.13947 -0.26516,0.17677 -0.45078,0.16904 -0.48529,0.0343 -0.97227,0.0884 -0.0926,0.0103 -0.17294,0.0752 -0.26517,0.0884 -0.51779,0.074 -1.06969,-0.0474 -1.59099,0 -0.68865,0.0626 -1.34665,0.41595 -2.03293,0.53033 -0.29638,0.0494 -0.58692,0.13109 -0.88389,0.17678 -0.51718,0.0796 -0.85543,0.0424 -1.32582,0.17677 -0.49756,0.14216 -0.99417,0.42865 -1.5026,0.53033 -0.14446,0.0289 -0.29577,-0.0183 -0.44194,0 -0.3698,0.0462 -0.7037,0.24647 -1.06066,0.35356 -0.27386,0.0821 -0.6088,0.0982 -0.88389,0.17677 -0.36084,0.1031 -0.88458,0.22124 -1.23743,0.35356 -0.36072,0.13527 -0.69208,0.40747 -1.06066,0.53033 -0.028,0.009 -0.0589,0 -0.0884,0 -0.11785,0.0295 -0.24077,0.0433 -0.35356,0.0884 -1.71618,0.68647 0.41346,-0.11834 -0.88388,0.53033 -0.16081,0.0804 -0.45367,0.0334 -0.61872,0.0884 -0.15398,0.0513 -0.67244,0.35991 -0.79549,0.44195 -0.65966,0.43977 -2.06547,1.40689 -2.82843,1.67937 -0.13873,0.0496 -0.29611,-0.0208 -0.44194,0 -0.26517,0.0379 -0.54172,0.25205 -0.7955,0.35356 -0.58142,0.23257 -1.16326,0.3792 -1.76776,0.53033 -0.20809,0.052 -0.41524,0.10895 -0.61872,0.17677 -0.0395,0.0132 -0.0475,0.0802 -0.0884,0.0884 -0.2219,0.0444 -0.48701,-0.055 -0.70711,0 -0.0904,0.0226 -0.1738,0.0701 -0.26516,0.0884 -0.22132,0.0443 -0.49478,-0.0708 -0.70711,0 -0.26667,0.0889 -0.52243,0.27554 -0.79549,0.35355 -0.0651,0.0186 -0.69725,0.12765 -0.7955,0.17678 -0.0745,0.0373 -0.10224,0.13951 -0.17678,0.17678 -0.10865,0.0543 -0.23981,0.0457 -0.35355,0.0884 -0.18506,0.0694 -0.33859,0.21723 -0.53033,0.26516 -0.31627,0.0791 -0.73355,0 -1.06066,0 h -2.12132 c -1.2361,0 -2.48997,0.0644 -3.71231,-0.0884 -0.0877,-0.011 -0.17989,0.0233 -0.26517,0 -0.2804,-0.0765 -0.96226,-0.35522 -1.23743,-0.53033 -0.15916,-0.10128 -0.27868,-0.25903 -0.44194,-0.35355 -0.476,-0.3667 -1.07619,-0.50132 -1.591,-0.7955 -0.0922,-0.0527 -0.19004,-0.10166 -0.26516,-0.17677 -0.0466,-0.0466 -0.0295,-0.14732 -0.0884,-0.17678 -0.49165,-0.24582 -1.0758,-0.20636 -1.59099,-0.35355 -0.0401,-0.0115 -0.0589,-0.0589 -0.0884,-0.0884 -0.2357,-0.0884 -0.46182,-0.20856 -0.7071,-0.26517 -0.14355,-0.0331 -0.29749,0.0289 -0.44195,0 -0.15558,-0.0311 -0.28997,-0.13118 -0.44194,-0.17677 -0.14389,-0.0432 -0.30127,-0.0356 -0.44194,-0.0884 -0.84643,-0.31741 0.58326,-0.0778 -0.79549,-0.35355 -0.11557,-0.0231 -0.238,0.0231 -0.35356,0 -0.55082,-0.11017 -1.0327,-0.43729 -1.59099,-0.53033 -0.2343,-0.039 -0.47794,-0.0259 -0.7071,-0.0884 -0.16575,-0.0452 -0.27676,-0.21797 -0.44195,-0.26517 -0.37896,-0.10827 -0.77523,-0.0937 -1.14905,-0.17677 -0.38413,-0.0854 -0.79142,-0.2989 -1.14904,-0.44195 -0.28448,-0.11379 -0.59776,-0.0814 -0.88389,-0.17677 -0.15052,-0.0502 -0.28801,-0.1383 -0.44194,-0.17678 -0.0858,-0.0214 -0.17798,0.0145 -0.26516,0 -0.58508,-0.0975 -1.18388,-0.0934 -1.76777,-0.17678 -0.11113,-0.0159 -0.6973,-0.26271 -0.70711,-0.26516 -0.32136,-0.0803 -0.7458,0.10495 -1.06066,0 -0.0395,-0.0132 -0.048,-0.0783 -0.0884,-0.0884 -0.11433,-0.0286 -0.2357,0 -1.01642,-0.1768 -0.66287,-0.62426 -0.82635,-0.49036 -0.83965,-0.53036 -0.0562,-0.16875 0,-1.31221 0,-1.41421 0,-1.78725 0.28631,-3.84679 -0.53033,-5.48008 -0.0928,-0.18552 -0.48063,-0.33159 -0.53033,-0.53033 -0.0429,-0.1715 0.0696,-0.36784 0,-0.53033 -0.11606,-0.2708 -0.38416,-0.4513 -0.53033,-0.7071 -0.46109,-0.8069 -0.8133,-1.72374 -1.41422,-2.47488 -2.06837,-2.58546 -4.6025,-5.39169 -6.36396,-8.13173 -0.86853,-1.35105 -1.72998,-2.59875 -2.65165,-3.88908 -0.49982,-0.69976 -1.26354,-1.25124 -1.76776,-1.94455 -1.82547,-2.51001 -0.13407,-0.52113 -1.41422,-2.12132 -0.65568,-0.8196 -1.54638,-1.39461 -2.12132,-2.29809 -0.21222,-0.33349 -0.30057,-0.73901 -0.53033,-1.06066 -0.0766,-0.10718 -0.27265,-0.0728 -0.35355,-0.17678 -0.34129,-0.4388 -0.55034,-0.96949 -0.88388,-1.41421 -0.47293,-0.63057 -1.20661,-1.20661 -1.76777,-1.76777 -0.2668,-0.2668 -0.41248,-0.64818 -0.70711,-0.88389 -0.1455,-0.11637 -0.37054,-0.0809 -0.53033,-0.17677 -2.56425,-1.53859 -0.18486,-0.22235 -1.94454,-1.59099 -1.78766,-1.3904 -0.15444,-0.007 -1.41422,-0.70711 -0.90106,-0.50059 -1.80094,-1.00893 -2.65165,-1.59099 -0.5856,-0.40068 -0.88634,-1.14772 -1.59099,-1.41421 -0.91582,-0.61055 -1.9477,-1.08276 -2.82842,-1.76777 -0.36328,-0.28255 -0.68363,-0.61996 -1.06066,-0.88388 -0.4984,-0.34888 -2.27419,-0.99991 -2.82843,-1.23744 -0.38298,-0.16408 -0.8368,-0.0623 -1.23744,-0.17678 -0.0802,-0.0229 -0.10137,-0.14127 -0.17677,-0.17677 -0.93115,-0.43819 -1.85646,-0.89936 -2.82843,-1.23744 -0.39354,-0.13688 -0.8368,-0.0623 -1.23744,-0.17678 -1.5411,-0.44031 -2.72785,-1.68852 -4.24264,-2.12132 -0.16997,-0.0486 -0.35533,0.025 -0.53033,0 -0.53781,-0.0768 -1.06863,-0.2043 -1.59099,-0.35355 -0.51958,-0.14845 -0.93554,-0.85741 -1.59099,-0.53033 -1.44034,-0.33239 -2.96047,-0.46395 -4.41942,-0.70711 -0.87423,-0.1457 -1.77541,-0.44273 -2.65165,-0.53033 -1.10945,-0.11097 -2.24619,-0.0912 -3.35875,-0.17677 -4.97381,-0.38256 3.65433,0.0382 -3.00521,-0.35356 -1.45901,-0.0858 -2.95726,0 -4.41942,0 l -15.34479,-0.0363 c -0.15334,-0.20177 0.0668,-1.37524 0.18123,-1.66134 0.10374,-0.25936 0.13423,-0.64346 0.25,-0.875 0.0672,-0.13437 0.1942,-0.23551 0.25,-0.375 0.11462,-0.28655 -0.0977,-0.70689 0,-1 0.0132,-0.0395 0.1064,0.0373 0.125,0 0.13811,-0.27623 0,-1.95147 0,-2.375 0,-0.64833 0.15547,-1.50312 0,-2.125 -0.15475,-0.61902 -0.52084,-1.25007 -0.625,-1.875 -0.0274,-0.1644 0.0745,-0.35093 0,-0.5 -0.0791,-0.15811 -0.2959,-0.21689 -0.375,-0.375 -0.13566,-0.27131 0.39622,-0.7194 -0.25,-0.875 -0.18129,-0.31725 -0.3037,-0.14351 -0.375,-0.5 -0.0696,-0.34781 -0.0898,-1.76574 0,-2.125 0.0143,-0.0572 0.1031,-0.0703 0.125,-0.125 0.25889,-0.64723 0.3086,-1.3672 0.625,-2 0.18846,-0.37691 0.51156,-0.93208 0.75,-1.25 0.025,-0.0333 0.1064,0.0373 0.125,0 0.1962,-0.39245 0.41139,-1.76582 0.25,-2.25 -0.12489,-0.37466 -0.4051,-0.74551 -0.5,-1.125 -0.1119,-0.44762 -0.0995,-0.96177 -0.375,-1.375 -0.15812,-0.23718 -0.5343,-0.47781 -0.625,-0.75 -0.23147,-0.69442 -0.43064,-1.44475 -0.625,-2.125 -0.11889,-0.41611 -0.36807,-0.72922 -0.5,-1.125 -0.0625,-0.1875 0.0625,-0.4375 0,-0.625 -0.0417,-0.125 -0.0661,-0.25715 -0.125,-0.375 -0.0527,-0.10541 -0.2214,-0.13567 -0.25,-0.25 -0.0303,-0.12127 0.0303,-0.25373 0,-0.375 -0.0364,-0.14575 -0.3428,-0.14366 -0.25,-0.375 -0.0661,-0.39644 -0.0818,-2.87962 0,-3.125 0.0475,-0.14252 0.1599,-0.25481 0.25,-0.375 0.32821,-0.43761 0.93666,-0.612 1.375,-0.875 0.10106,-0.0606 0.14768,-0.1915 0.25,-0.25 0.19482,-0.11132 0.42431,-0.14965 0.625,-0.25 1.14165,-0.57083 1.58683,-1.17365 2.125,-2.25 0.0263,-0.0527 0.0833,-0.0833 0.125,-0.125 0.0833,-0.20833 0.1667,-0.41667 0.25,-0.625 0.1309,-0.52358 0,-1.19854 0,-1.75 0,-0.0515 0.0331,-0.3419 0,-0.375 -0.0295,-0.0295 -0.0833,0 -0.125,0 -0.0417,-0.0833 -0.0833,-0.1667 -0.125,-0.25 -0.0295,-0.0295 -0.1019,0.0347 -0.125,0 -0.0731,-0.10963 -0.0661,-0.25715 -0.125,-0.375 -0.0527,-0.10541 -0.1973,-0.14459 -0.25,-0.25 -0.34794,-0.69589 -0.8653,-1.47089 -1.125,-2.25 -0.0632,-0.18958 -0.2005,-0.42683 -0.25,-0.625 -0.0516,-0.20659 -0.0304,-0.5609 -0.125,-0.75 -0.11005,-0.22011 -0.4109,-0.57178 -0.5,-0.75 -0.0373,-0.0745 0.0263,-0.1709 0,-0.25 -0.0559,-0.1677 -0.2959,-0.21689 -0.375,-0.375 -0.0768,-0.15366 -0.0482,-0.34634 -0.125,-0.5 -0.0186,-0.0373 -0.1064,0.0373 -0.125,0 -0.0768,-0.15366 -0.0573,-0.34209 -0.125,-0.5 -0.10217,-0.23839 -0.438,-0.6272 -0.5,-0.875 -0.0303,-0.12127 0.0303,-0.25373 0,-0.375 -0.0286,-0.11433 -0.1973,-0.14459 -0.25,-0.25 -0.57803,-1.15605 -1.69433,-2.38627 -2.75,-3.25 -0.18804,-0.15385 -0.43322,-0.22584 -0.625,-0.375 -0.38422,-0.29884 -0.82666,-0.91437 -1.125,-1.25 -0.18075,-0.20334 -1.21087,-1.1515 -1.375,-1.25 -0.23968,-0.14381 -0.55236,-0.17736 -0.75,-0.375 -0.0295,-0.0295 0.0231,-0.0903 0,-0.125 -0.0654,-0.0981 -0.1667,-0.1667 -0.25,-0.25 -0.0417,0 -0.0955,0.0295 -0.125,0 -0.0295,-0.0295 0.0295,-0.0955 0,-0.125 -0.24627,-0.24627 -0.28734,-0.0187 -0.5,-0.125 -0.21082,-0.10541 -0.31595,-0.35276 -0.5,-0.5 -0.31616,-0.25293 -0.28246,0.0246 -0.625,-0.375 -0.31172,-0.36367 -0.53485,-0.90985 -0.875,-1.25 -0.0295,-0.0295 -0.0955,0.0295 -0.125,0 -0.0295,-0.0295 0,-0.0833 0,-0.125 -0.125,-0.0833 -0.25,-0.1667 -0.375,-0.25 -0.11858,-0.0395 -0.25373,0.0303 -0.375,0 -0.27258,-0.0681 -1.32065,-0.75233 -1.75,-0.875 -0.12019,-0.0343 -0.25043,0.0104 -0.375,0 -1.33417,-0.1112 -2.65677,-0.1803 -4.1937,0.2811 -0.2821,0.25878 -0.40454,0.12714 -0.45886,-0.0358 -0.0439,-0.13176 -0.0492,-3.02423 0,-3.27037 0.0388,-0.19381 0.20266,-0.34283 0.26516,-0.53033 0.0884,-0.26517 -0.0442,-0.0884 0,-0.26517 0.0295,-0.0884 0.0589,-0.17678 0.0884,-0.26516 0.0295,0 0.0676,0.0208 0.0884,0 0.0586,-0.0586 0,-0.50957 0.13258,-0.53025 0.13257,-0.10533 0.27742,0.0603 0.39773,7e-5 z"
         id="path18" />
    </g>
  </g>
</svg>
