<?xml version="1.0" encoding="UTF-8" standalone="no"?>
<!-- Created with Inkscape (http://www.inkscape.org/) -->

<svg
   version="1.1"
   id="svg2"
   width="228.75967"
   height="220.66765"
   viewBox="0 0 228.75967 220.66765"
   xmlns="http://www.w3.org/2000/svg"
   xmlns:svg="http://www.w3.org/2000/svg">
  <defs
     id="defs6">
    <linearGradient
       id="swatch77">
      <stop
         style="stop-color:#e2c69e;stop-opacity:1;"
         offset="0"
         id="stop77" />
    </linearGradient>
  </defs>
  <g
     id="layer66"
     style="display:inline"
     transform="translate(-0.01294418,-0.04229854)">
    <g
       id="layer11"
       style="display:inline">
      <path
         style="fill:#969696;fill-opacity:1;stroke:none;stroke-width:1;stroke-dasharray:none;stroke-opacity:1"
         d="m 151.7186,219.64504 c 0.0501,-0.50759 0.40265,-0.89122 0.53033,-1.37002 0.0499,-0.18721 0.0414,-0.38654 0.0884,-0.57452 0.05,-0.20015 0.21679,-0.65456 0.30936,-0.83969 0.0622,-0.1243 0.15594,-0.23073 0.22097,-0.35355 0.0833,-0.15732 0.12939,-0.3335 0.22097,-0.48614 0.0715,-0.11917 0.16273,-0.22737 0.22097,-0.35355 0.0315,-0.0682 0.0131,-0.15259 0.0442,-0.22097 0.23342,-0.51351 0.0885,-0.10624 0.26517,-0.35356 0.18982,-0.26575 0.1271,-0.27698 0.30936,-0.61871 0.05,-0.0937 0.12927,-0.17016 0.17677,-0.26517 0.0132,-0.0264 -0.0109,-0.061 0,-0.0884 0.17512,-0.43778 0.0214,0.0179 0.13259,-0.17677 0.049,-0.0858 0.0817,-0.18043 0.13258,-0.26517 0.17231,-0.28718 0.0861,-0.0665 0.22097,-0.30936 0.0705,-0.12683 0.10213,-0.27334 0.17678,-0.39775 0.0214,-0.0357 0.0589,-0.0589 0.0884,-0.0884 0.0589,-0.10311 0.12367,-0.20312 0.17678,-0.30935 0.10175,-0.0557 0.0137,-0.15233 0.0442,-0.22098 0.0616,-0.13859 0.173,-0.25386 0.22097,-0.39774 0.0958,-0.2873 0.13391,-0.59369 0.22097,-0.88389 0.0944,-0.31476 0.0744,-0.18 0.13258,-0.44194 0.0817,-0.36776 0.13761,-0.77693 0.17678,-1.14905 0.0216,-0.2051 0,-0.41248 0,-0.61871 0,-0.59274 -0.005,-1.1782 0.0442,-1.76777 0.0274,-0.32867 0.006,-0.59936 0.0884,-0.92808 0.0571,-0.22844 0.12383,-0.43348 0.17678,-0.66291 0.0305,-0.13197 0.0453,-0.31272 0.0884,-0.44194 0.0649,-0.19466 0.15609,-0.37987 0.22098,-0.57453 0.0375,-0.11267 0.0129,-0.23897 0.0442,-0.35355 0.0553,-0.20266 0.12151,-0.41606 0.17678,-0.61872 0.10094,-0.37012 0.26961,-0.72715 0.35355,-1.10485 0.0384,-0.17257 -0.0136,-0.35408 0,-0.53033 0.0255,-0.33193 0.0734,-0.66218 0.17678,-0.97228 0.0945,-0.28351 -0.002,-0.5606 0.0442,-0.83969 0.0321,-0.19248 0.10466,-0.37905 0.13258,-0.57452 0.006,-0.0438 -0.009,-0.0892 0,-0.13258 0.0583,-0.29176 0.17678,-0.42215 0.17678,-0.7513 0.0589,-0.13258 0.12712,-0.26139 0.17668,-0.39773 0.0678,-0.18666 0,-0.59673 0,-0.7955 0,-0.50189 0.0112,-1.00397 -0.0442,-1.5026 -0.0718,-0.64619 -0.20257,-1.30382 -0.30936,-1.94454 -0.01,-0.0599 -0.0397,-0.11621 -0.0442,-0.17678 -0.10289,-0.54265 -0.0139,-1.09076 -0.0442,-1.63518 -0.003,-0.0607 -0.0412,-0.11612 -0.0442,-0.17678 -0.0169,-0.3384 0,-0.67764 0,-1.01647 0,-0.37792 -0.0314,-0.77221 0,-1.14904 0.0434,-0.52139 0.34503,-1.00872 0.48614,-1.50261 0.0206,-0.0722 0.0295,-0.14731 0.0442,-0.22097 0.0589,-0.11785 0.13051,-0.23018 0.17678,-0.35355 0.0426,-0.11374 0.0564,-0.23636 0.0884,-0.35355 0.0465,-0.17068 0.0656,-0.15263 0.13258,-0.35356 0.12012,-0.36035 0.23429,-0.78873 0.30936,-1.14905 0.0272,-0.13059 0.0203,-0.2665 0.0442,-0.39774 0.0316,-0.1736 0.14412,-0.35072 0.17678,-0.53033 0.0295,-0.16205 0.068,-0.32271 0.0884,-0.48614 0.009,-0.0731 -0.007,-0.14762 0,-0.22097 0.0416,-0.45726 0.1385,-0.9108 0.17677,-1.37002 0.0305,-0.36543 -0.17085,0.57237 0.0442,-0.57452 0.0146,-0.078 0.0691,-0.14401 0.0884,-0.22097 0.0107,-0.0429 -0.0107,-0.0897 0,-0.13259 0.0192,-0.077 0.0589,-0.14731 0.0884,-0.22097 0.0147,-0.11785 0.0175,-0.23782 0.0442,-0.35355 0.0535,-0.23196 0.14607,-0.37308 0.17677,-0.61872 0.009,-0.0731 -0.009,-0.14788 0,-0.22097 0.0351,-0.28066 0.0976,-0.55957 0.13259,-0.83969 0.0231,-0.18469 0,-0.38863 0,-0.57452 v -1.19325 c -0.0574,-0.7161 0.0714,-1.45082 -5e-5,-2.16551 -0.007,-0.0747 -0.0295,-0.14731 -0.0442,-0.22097 -0.0147,-0.22097 -0.0319,-0.44179 -0.0442,-0.66291 -0.0284,-0.51055 0,-1.03526 0,-1.5468 v -2.56326 c 0,-0.70246 -0.0467,-1.42098 0,-2.12132 0.0162,-0.24242 0.13839,-0.4672 0.17678,-0.70711 0.0734,-0.45889 0.064,-0.92517 0.22097,-1.37002 0.0948,-0.2687 0.33469,-0.78745 0.39774,-1.06066 0.0534,-0.23145 0.0493,-0.4728 0.0884,-0.70711 0.02,-0.11982 0.0667,-0.23403 0.0884,-0.35355 0.0344,-0.18898 0.0204,-0.38393 0.0442,-0.57452 0.0409,-0.32691 0.1335,-0.64765 0.17678,-0.97228 0.048,-0.35975 0,-0.74151 0,-1.10485 0,-0.20624 -0.0228,-0.41374 0,-0.61872 0.007,-0.0604 0.0375,-0.11641 0.0442,-0.17678 0.0514,-0.4627 -0.0222,-0.94894 0,-1.41421 -0.3771,-0.19869 0.0724,-0.37094 0.0884,-0.53033 0.022,-0.21987 0,-0.44194 0,-0.66291 v -1.32583 -3.88908 c -0.19348,-0.30857 -0.45029,-0.54198 -0.66295,-0.83969 -0.16599,-0.23239 -0.28746,-0.69014 -0.35355,-0.92808 -0.024,-0.0863 -0.0331,-0.17625 -0.0442,-0.26517 -0.004,-0.0292 0.0132,-0.062 0,-0.0884 -0.0186,-0.0373 -0.0752,-0.0489 -0.0884,-0.0884 -0.0319,-0.0957 -0.0169,-1.23508 0,-1.37002 0.029,-0.2319 0.19379,-0.4046 0.26516,-0.61872 0.0339,-0.10174 0.0507,-0.20894 0.0884,-0.30936 0.0989,-0.26369 0.79874,-0.95245 1.01646,-1.10485 0.0973,-0.0681 0.21149,-0.10949 0.30936,-0.17678 0.32673,-0.22462 0.50806,-0.45161 0.7955,-0.70711 0.16955,-0.15071 0.40368,-0.2393 0.53033,-0.44194 0.042,-0.0673 0.0463,-0.1537 0.0884,-0.22097 0.0991,-0.15857 0.27729,-0.29739 0.39775,-0.44194 0.13529,-0.16236 0.22146,-0.36522 0.35355,-0.53033 0.0848,-0.10606 0.18622,-0.19884 0.26516,-0.30936 0.18027,-0.25237 0.3077,-0.5712 0.44195,-0.83969 0.0993,-0.19863 0.29654,-0.34649 0.35355,-0.57452 0.10012,-0.40049 0.0884,-0.78237 0.0884,-1.19325 v -1.67938 -1.5026 c 0,-0.26377 0.05,-0.58964 0,-0.83969 -0.0223,-0.11153 -0.2143,-0.66228 -0.26517,-0.7513 -0.0163,-0.0286 -0.0673,-0.0189 -0.0884,-0.0442 -0.055,-0.066 -0.0789,-0.1539 -0.13258,-0.22097 -0.0651,-0.0813 -0.15702,-0.13875 -0.22097,-0.22097 -0.11163,-0.14352 -0.1642,-0.3347 -0.26516,-0.48614 -0.1379,-0.20684 -0.29368,-0.38919 -0.44195,-0.57452 -0.0617,-0.0772 -0.0759,-0.18421 -0.13258,-0.26517 -0.13076,-0.1868 -0.30586,-0.34888 -0.44194,-0.53033 -0.0198,-0.0264 -0.0209,-0.0651 -0.0442,-0.0884 -0.0233,-0.0233 -0.0673,-0.0189 -0.0884,-0.0442 -0.12374,-0.14849 -0.17079,-0.32884 -0.26517,-0.48614 -0.0896,-0.14933 -0.23426,-0.29174 -0.30936,-0.44194 -0.0186,-0.0373 -0.0697,-0.0511 -0.0884,-0.0884 -0.0272,-0.0543 -0.0105,-0.12624 -0.0442,-0.17677 -0.0231,-0.0347 -0.0697,-0.0511 -0.0884,-0.0884 -0.0132,-0.0264 0.009,-0.0604 0,-0.0884 -0.0202,-0.0605 -0.22206,-0.26736 -0.26516,-0.35355 -0.0373,-0.0745 -0.0398,-0.18416 -0.0884,-0.26517 -0.0653,-0.10877 -0.16422,-0.19585 -0.22097,-0.30936 -0.0983,-0.19664 -0.20853,-0.41705 -0.30936,-0.61872 -0.0726,-0.1452 -0.30936,-0.37081 -0.30936,-0.53033 2e-5,-0.22094 0.0123,-0.44222 6e-5,-0.66282 -0.007,-0.12567 -0.0956,-0.23325 -0.13258,-0.35355 -0.13443,-0.43689 -0.24264,-0.88217 -0.35356,-1.32583 -0.0316,-0.12649 -0.11633,-0.50045 -0.13258,-0.66291 -0.0212,-0.21171 0.0385,-0.17022 -0.0442,-0.39775 -0.3606,-0.99164 0.0587,0.35283 -0.22097,-0.48613 -0.0969,-0.29085 -0.12453,-0.59456 -0.22098,-0.88389 -0.0716,-0.2147 -0.23074,-0.40254 -0.30935,-0.61872 -0.0733,-0.20157 -0.10147,-0.41788 -0.17678,-0.61871 -0.0417,-0.11121 -0.12763,-0.20124 -0.17678,-0.30936 -0.22186,-0.4881 -0.42306,-0.97871 -0.66291,-1.45841 -0.0704,-0.14089 -0.18697,-0.2609 -0.26517,-0.39775 -0.23807,-0.41663 -0.46207,-0.8518 -0.7513,-1.23744 -0.10077,-0.13437 -0.20005,-0.27022 -0.30936,-0.39774 -0.0678,-0.0791 -0.1609,-0.13587 -0.22097,-0.22097 -0.11802,-0.1672 -0.1904,-0.3638 -0.30936,-0.53033 -0.0309,-0.0432 -0.0976,-0.0484 -0.13258,-0.0884 -0.07,-0.0799 -0.11458,-0.17905 -0.17678,-0.26517 -0.15124,-0.28121 -0.38909,-0.49633 -0.57452,-0.7513 -0.18384,-0.25278 -0.33531,-0.50752 -0.53033,-0.7513 -0.0823,-0.10289 -0.11039,-0.23974 -0.17678,-0.35355 -0.0535,-0.0918 -0.12927,-0.17015 -0.17677,-0.26517 -0.16422,-0.32844 -0.27718,-0.68694 -0.44194,-1.01646 -0.14012,-0.28024 -0.34787,-0.51897 -0.48614,-0.7955 -0.12813,-0.25626 -0.20081,-0.54092 -0.35355,-0.79549 -0.18577,-0.30962 -0.47202,-0.59801 -0.61872,-0.92808 -0.018,-0.0404 0.0215,-0.0939 0,-0.13258 -0.29774,-0.53593 -0.12148,-0.0974 -0.30936,-0.35356 -0.13774,-0.18783 -0.25533,-0.39021 -0.39775,-0.57452 -0.55929,-0.72379 -0.15748,-0.14841 -0.53033,-0.57453 -0.23102,-0.26402 -0.0257,-0.10141 -0.30936,-0.35355 -0.3062,-0.27218 -0.68182,-0.46086 -0.97227,-0.7513 -0.0521,-0.0521 -0.0841,-0.12135 -0.13258,-0.17678 -0.0823,-0.0941 -0.16116,-0.19583 -0.26517,-0.26516 -0.0122,-0.008 -0.0376,0.0132 -0.0442,0 -0.0132,-0.0264 0.0132,-0.062 0,-0.0884 -0.0414,-0.0827 -0.19187,-0.13367 -0.22097,-0.22097 -0.105,-0.31499 0.24356,0.28056 -0.13259,-0.22097 -0.0945,-0.12598 -0.1296,-0.34909 -0.22097,-0.48614 -0.0786,-0.11785 -0.0146,0.17708 -0.0884,-0.0442 -0.009,-0.028 0.0163,-0.0639 0,-0.0884 -0.0361,-0.0541 -0.10996,-0.0205 -0.13259,-0.0884 -0.0529,-0.15872 0.0217,-0.15512 -0.13258,-0.30936 -0.0736,-0.11783 -0.13413,-0.245 -0.22093,-0.3535 -0.10412,-0.13015 -0.2611,-0.21488 -0.35355,-0.35356 -0.0591,-0.0887 -0.11335,-0.23324 -0.17678,-0.30936 -0.034,-0.0408 -0.098,-0.0481 -0.13258,-0.0884 -0.15245,-0.17786 -0.19529,-0.41909 -0.30936,-0.61872 -0.11094,-0.19414 -0.32821,-0.41009 -0.39775,-0.61872 -0.0225,-0.0675 0,-0.19345 0,-0.26517 0,-0.0589 -0.0186,-0.12087 0,-0.17677 0.0959,-0.2878 1.09594,-0.54291 1.32583,-0.70711 0.0432,-0.0309 0.0508,-0.095 0.0884,-0.13258 0.0233,-0.0233 0.062,-0.0244 0.0884,-0.0442 0.17132,-0.12848 0.36385,-0.26456 0.53033,-0.39774 0.34428,-0.27543 0.0248,-0.069 0.30936,-0.35356 0.13858,-0.13857 0.33116,-0.27376 0.48614,-0.39774 0.0257,-0.0206 0.0651,-0.0209 0.0884,-0.0442 0.24283,-0.013 0.16929,-0.2417 0.26516,-0.35355 0.17297,-0.2018 0.41117,-0.40849 0.61872,-0.57453 0.0115,-0.009 0.0327,0.009 0.0442,0 0.0976,-0.0781 0.20927,-0.15336 0.26517,-0.26516 0.0496,-0.0992 0.0828,-0.25407 0.13258,-0.35355 0.0238,-0.0475 0.0675,-0.0838 0.0884,-0.13259 0.0577,-0.1346 0.0794,-1.09642 0.0442,-1.23743 -0.027,-0.0676 -0.10949,-0.26118 -0.13258,-0.35356 -0.0364,-0.14574 -0.0409,-0.29942 -0.0884,-0.44194 -0.0208,-0.0625 -0.0589,-0.11785 -0.0884,-0.17678 -0.0295,-0.0737 -0.0633,-0.14571 -0.0884,-0.22097 -0.0192,-0.0576 -0.0195,-0.12127 -0.0442,-0.17677 -0.14582,-0.3281 -0.60103,-0.95754 -0.88388,-1.193246 -0.0408,-0.034 -0.0884,-0.05892 -0.13258,-0.08839 -0.10312,-0.08839 -0.20841,-0.174308 -0.30936,-0.265165 -0.0465,-0.04181 -0.0806,-0.09791 -0.13259,-0.132583 -0.0388,-0.02584 -0.0938,-0.01835 -0.13258,-0.04419 -0.17356,-0.115706 -0.30584,-0.338915 -0.48613,-0.441942 -0.0527,-0.03014 -0.12369,-0.0147 -0.17678,-0.04419 -0.11078,-0.06154 -0.21201,-0.139844 -0.30936,-0.220971 -0.25493,-0.212439 -0.58554,-0.613956 -0.83969,-0.795495 -0.19398,-0.138554 -0.56191,-0.244657 -0.70711,-0.353553 -0.05,-0.0375 -0.0783,-0.101574 -0.13258,-0.132583 -0.53884,-0.307907 -0.0317,0.0189 -0.22097,-0.04419 -0.125,-0.04167 -0.23018,-0.130512 -0.35355,-0.176776 -0.13663,-0.05123 -0.30021,-0.01842 -0.44194,-0.0442 -0.54508,-0.0991 -0.63695,-0.08839 -1.19325,-0.08839 -0.92596,0 -1.96519,0.0047 -2.87262,-0.176777 -0.31278,-0.06256 -0.32793,-0.103503 -0.61872,-0.132582 -0.0586,-0.0059 -0.11899,0.01156 -0.17677,0 -0.36774,-0.07355 -0.70926,-0.236418 -1.06066,-0.353554 -0.0429,-0.01431 -0.37409,-0.121272 -0.44195,-0.132582 -0.14619,-0.02437 -0.1254,0.03966 -0.26516,-0.04419 -0.0966,-0.05797 -0.14984,-0.138334 -0.26517,-0.176777 -0.0926,-0.03086 -0.18543,-0.02859 -0.26516,-0.08839 -0.22127,-0.165953 0.0983,-0.05152 -0.35355,-0.220971 -0.0839,-0.03146 -0.18127,-0.01273 -0.26517,-0.04419 -0.0925,-0.0347 -0.17141,-0.101333 -0.26516,-0.132583 -0.32283,-0.107608 -0.041,-0.0059 -0.30936,-0.04419 -0.34496,-0.04928 -0.68795,-0.199851 -1.01647,-0.309359 -0.30192,-0.10064 -0.61544,-0.350276 -0.83969,-0.574525 -0.0233,-0.02329 -0.0209,-0.0651 -0.0442,-0.08839 -0.28612,-0.286118 -0.12916,-0.08157 -0.35356,-0.265165 -0.15339,-0.125502 -0.27957,-0.284093 -0.44194,-0.397747 -1.11211,-0.778477 0.27305,0.239227 -0.61872,-0.397748 -0.11785,-0.08839 -0.2357,-0.176777 -0.35355,-0.265165 -0.0589,-0.05893 -0.111,-0.125615 -0.17678,-0.176777 -0.15161,-0.117922 -0.32878,-0.199212 -0.48613,-0.309359 -0.17448,-0.122132 -0.35586,-0.231422 -0.53033,-0.353553 -0.19556,-0.136891 -0.37254,-0.307287 -0.57453,-0.441942 -0.0274,-0.01827 -0.0589,-0.02946 -0.0884,-0.04419 -0.0884,-0.05893 -0.18018,-0.113039 -0.26516,-0.176777 -0.21405,-0.160536 -0.41244,-0.358427 -0.61872,-0.53033 -0.064,-0.05335 -0.10744,-0.130552 -0.17678,-0.176777 -0.0548,-0.03654 -0.12349,-0.04964 -0.17677,-0.08839 -0.10984,-0.07988 -0.19636,-0.189828 -0.30936,-0.265165 -0.066,-0.044 -0.15245,-0.04842 -0.22097,-0.08839 -0.10946,-0.06385 -0.1999,-0.157118 -0.30936,-0.22097 -0.17793,-0.103791 -0.39526,-0.165575 -0.57453,-0.265165 -0.0929,-0.05159 -0.16752,-0.134931 -0.26516,-0.176777 -0.11166,-0.04785 -0.24142,-0.04167 -0.35355,-0.08839 -0.068,-0.02833 -0.1109,-0.09964 -0.17678,-0.132583 -0.0264,-0.01318 -0.0615,0.01197 -0.0884,0 -0.10853,-0.04824 -0.19973,-0.131097 -0.30936,-0.176777 -0.0693,-0.02889 -0.15064,-0.01782 -0.22097,-0.04419 -0.0497,-0.01865 -0.0851,-0.06463 -0.13258,-0.08839 -0.11112,-0.105816 -0.2713,-0.07308 -0.39775,-0.132583 -0.1968,-0.09261 -0.3768,-0.218734 -0.57452,-0.309359 -0.19909,-0.09125 -0.42284,-0.123032 -0.61872,-0.220971 -0.0768,-0.03842 -0.14414,-0.09417 -0.22097,-0.132582 -0.13757,-0.06878 -0.2971,-0.08085 -0.44194,-0.132583 -0.64281,-0.229574 -0.12,-0.05774 -0.39775,-0.176777 -0.2475,-0.106068 -0.47328,-0.236637 -0.70711,-0.353553 -0.25123,-0.125614 -0.49363,-0.357302 -0.7513,-0.486136 -0.0263,-0.01318 -0.0626,0.01431 -0.0884,0 -0.28539,-0.158549 -0.57984,-0.379641 -0.83969,-0.574524 -0.0527,-0.03953 -0.12533,-0.04723 -0.17677,-0.08839 -0.0488,-0.03904 -0.0806,-0.09791 -0.13259,-0.132583 -0.0388,-0.02584 -0.0938,-0.01835 -0.13258,-0.04419 -0.25965,-0.1731 -0.46922,-0.420476 -0.70711,-0.618719 -0.0408,-0.034 -0.095,-0.05083 -0.13258,-0.08839 -0.0104,-0.01042 0.009,-0.03241 0,-0.04419 -0.0741,-0.09877 -0.52899,-0.486136 -0.61872,-0.486136 -0.28983,-0.08741 -0.59942,-0.500363 -0.88387,-0.662909 -0.26795,-0.153114 -0.1618,-0.01948 -0.39775,-0.176776 -0.16672,-0.111145 -0.31432,-0.250465 -0.48613,-0.353554 -0.12442,-0.07465 -0.27419,-0.100736 -0.39775,-0.176776 -0.1242,-0.07643 -0.1766,-0.249013 -0.30936,-0.30936 -0.11059,-0.05027 -0.24017,-0.04478 -0.35355,-0.08839 -0.21453,-0.08251 -0.40479,-0.273329 -0.61872,-0.353553 -0.0703,-0.02638 -0.14732,-0.02946 -0.22097,-0.0442 -0.11785,-0.04419 -0.23669,-0.08584 -0.35356,-0.132582 -0.15337,-0.06135 -0.2732,-0.196865 -0.44194,-0.220971 -0.13125,-0.01875 -0.26516,0 -0.39775,0 -0.63269,0 -1.31926,0.07305 -1.94454,-0.04419 -0.98483,-0.184655 0.63722,0.0078 -0.83969,-0.176777 -0.0585,-0.0073 -0.11961,0.01429 -0.17678,0 -0.46964,-0.117412 -0.94929,-0.305202 -1.41421,-0.441942 -0.23263,-0.06842 -0.57322,-0.137616 -0.79549,-0.22097 -0.0617,-0.02313 -0.11218,-0.07547 -0.17678,-0.08839 -0.15514,-0.03103 -0.50059,-0.02616 -0.66291,-0.04419 -0.1484,-0.01649 -0.29121,-0.111048 -0.44195,-0.132582 -1.17742,-0.168203 -2.40917,0.04167 -3.57972,-0.08839 -0.16217,-0.01802 -0.32648,-0.07065 -0.48614,-0.08839 -0.4893,-0.05437 -0.69712,0.08127 -1.01647,-0.397748 -0.0883,-0.132432 -0.21188,-0.237913 -0.26516,-0.397747 -0.014,-0.04193 0.007,-0.08899 0,-0.132583 -0.0276,-0.165678 -0.10254,-0.320881 -0.13258,-0.486136 -0.0406,-0.22333 0,-0.478758 0,-0.707106 V 77.64916 75.439452 c 0,-0.321732 0.0214,-0.651863 0,-0.972272 -0.021,-0.314985 -0.0442,-0.610978 -0.0442,-0.928078 v -1.149048 c 0,-0.127623 0.0266,-0.441511 0,-0.574525 -0.003,-0.01445 -0.0418,0.01453 -0.0442,0 -0.031,-0.185924 0.0607,-0.381218 -0.0884,-0.53033 -0.11912,-0.746716 -0.0884,-1.500244 -0.0884,-2.2539 0,-0.33998 -0.0287,-0.760742 0,-1.104854 0.0572,-0.685935 0.21868,-1.352841 0.30936,-2.032932 0.0662,-0.496189 0.14923,-1.022202 0.30936,-1.502602 0.0764,-0.229295 0.26009,-0.548791 0.35355,-0.751301 0.0195,-0.0423 0.0295,-0.08839 0.0442,-0.132582 0.0884,-0.176777 0.16992,-0.357153 0.26516,-0.53033 0.12798,-0.23268 0.39131,-0.498427 0.48614,-0.751301 0.0264,-0.07033 0.0185,-0.150378 0.0442,-0.220971 0.0788,-0.2167 0.22068,-0.405873 0.30936,-0.618719 0.0234,-0.05607 0.0185,-0.121736 0.0442,-0.176776 0.0824,-0.17653 0.34593,-0.727783 0.48613,-0.928078 0.22188,-0.316965 0.50498,-0.588292 0.7513,-0.883883 0.0211,-0.02531 0.0209,-0.0651 0.0442,-0.08839 0.0814,-0.08136 0.18381,-0.139614 0.26516,-0.220971 0.10052,-0.100515 0.29295,-0.39444 0.39775,-0.486136 0.13155,-0.115105 0.30955,-0.19021 0.44194,-0.309359 0.20947,-0.188517 0.36726,-0.352672 0.57453,-0.53033 0.0663,-0.05681 0.30985,-0.189186 0.35355,-0.220971 0.14346,-0.104335 0.25015,-0.255155 0.39775,-0.353553 0.0904,-0.0603 0.25931,-0.122923 0.35355,-0.176777 0.50607,-0.289183 -0.28327,0.144649 0.26517,-0.220971 0.0388,-0.02584 0.0947,-0.01712 0.13258,-0.04419 0.0678,-0.04844 0.10744,-0.130552 0.17677,-0.176777 0.0245,-0.01634 0.061,0.01094 0.0884,0 0.48494,-0.193973 -0.28397,0.021 0.30936,-0.176776 0.028,-0.0093 0.0601,0.0081 0.0884,0 0.1756,-0.05017 0.31053,-0.126605 0.48614,-0.176777 0.27501,-0.07858 0.56547,-0.09843 0.83969,-0.176777 0.0783,0.02201 0.0833,-0.06866 0.13258,-0.08839 0.12976,-0.0519 0.26731,-0.08241 0.39775,-0.132583 0.0615,-0.02365 0.11367,-0.06946 0.17677,-0.08839 0.33253,-0.09976 0.68609,-0.141273 1.01647,-0.265165 0.19452,-0.07295 0.20258,-0.17974 0.30936,-0.265165 0.0364,-0.0291 0.0968,-0.01437 0.13258,-0.04419 0.0566,-0.04715 0.0805,-0.124694 0.13258,-0.176777 0.16281,-0.162803 0.30969,-0.227516 0.48614,-0.353553 0.0509,-0.03633 0.0846,-0.09257 0.13258,-0.132583 0.12241,-0.10201 0.26888,-0.171443 0.39775,-0.265165 0.25637,-0.186449 0.47044,-0.411633 0.70711,-0.618718 0.20217,-0.176903 0.0521,-0.03514 0.26516,-0.08839 0.0715,-0.01786 0.1109,-0.09964 0.17678,-0.132582 0.14839,-0.0742 0.36912,-0.200821 0.53033,-0.220971 0.39918,-0.0499 1.01052,-0.04178 1.32582,0.220971 0.10062,0.08385 0.2552,0.410308 0.30936,0.486136 0.0293,0.04106 0.25092,0.177498 0.30936,0.265165 0.0258,0.03876 0.0113,0.09964 0.0442,0.132582 0.0466,0.04659 0.12534,0.04723 0.17678,0.08839 0.0257,0.02058 0.0236,0.06267 0.0442,0.08839 0.12735,0.159191 0.34504,0.393493 0.53033,0.486136 0.38953,0.194765 0.24415,0.07905 0.66291,0.265165 0.48775,0.216776 0.96655,0.457973 1.45841,0.662913 0.88397,0.368324 1.82234,0.658168 2.74003,0.928077 0.0583,0.01714 0.11786,0.02946 0.17678,0.04419 0.0884,0.01473 0.17901,0.01958 0.26517,0.0442 0.02,0.0057 0.0295,0.02946 0.0442,0.04419 0.0442,0.01473 0.0874,0.03289 0.13258,0.04419 0.3971,0.09927 0.79875,0.196646 1.19325,0.309359 0.0896,0.0256 0.17271,0.07683 0.26516,0.08839 0.19003,0.02375 0.38494,-0.02708 0.57453,0 0.39177,0.05597 0.80466,0.09906 1.19324,0.176776 0.3599,0.07198 0.73517,0.150371 1.10485,0.176777 0.43697,0.03121 0.88796,0 1.32583,0 h 2.87262 2.07713 c 0.31414,0 0.65956,0.03475 0.97227,0 0.12073,-0.01342 0.23403,-0.06666 0.35355,-0.08839 0.46696,-0.0849 0.14734,-0.003 0.57452,-0.08839 0.10517,-0.02103 0.20277,-0.07654 0.30936,-0.08839 0.25779,-0.02864 0.54201,0.0507 0.7955,0 0.0323,-0.0065 0.0561,-0.03773 0.0884,-0.04419 0.18728,-0.03746 0.42795,0 0.61872,0 0.62987,-0.04461 1.27091,0.05035 1.90032,2e-6 0.20767,-0.01661 0.41181,-0.06405 0.61871,-0.08839 0.32592,-0.03834 -0.12133,0.09663 0.44195,-0.04419 0.077,-0.01924 0.14256,-0.07633 0.22097,-0.08839 0.33642,-0.05176 0.72088,0.01544 1.06066,0 1.09721,-0.04987 0.0365,-0.02014 1.23743,-0.176777 0.3526,-0.04599 0.85636,0 1.19325,0 h 2.07712 c 0.22361,0 0.40042,-0.0274 0.61872,-0.04419 0.17632,-0.01356 0.32457,0.01639 0.48614,-0.04419 0.23133,-0.08675 0.83755,-0.318937 1.01646,-0.441942 0.31715,-0.218039 0.28617,-0.306298 0.53033,-0.441942 0.67831,-0.376835 1.42517,-0.635468 2.07713,-1.06066 0.46973,-0.306348 0.72899,-0.592029 1.14905,-0.928078 0.12442,-0.09954 0.27865,-0.159302 0.39774,-0.265165 0.0934,-0.08304 0.16756,-0.187078 0.26517,-0.265165 0.0514,-0.04115 0.12754,-0.04462 0.17678,-0.08839 0.086,-0.07644 0.13361,-0.190288 0.22097,-0.265165 0.0224,-0.01917 0.0654,0.01841 0.0884,0 0.0575,-0.04601 0.0805,-0.124693 0.13258,-0.176777 0.16968,-0.169686 0.43447,-0.247004 0.61872,-0.397747 0.2293,-0.187609 0.29502,-0.321423 0.53033,-0.486136 0.51103,-0.357722 1.10017,-0.590524 1.59099,-0.972272 0.12498,-0.09721 0.22694,-0.214401 0.35355,-0.309359 0.0118,-0.0088 0.0338,0.01042 0.0442,0 0.14439,-0.144382 0.19202,-0.329681 0.30936,-0.486136 0.009,-0.01179 0.0338,0.01042 0.0442,0 0.0803,-0.08033 0.0289,-0.217522 0.0442,-0.309359 0.005,-0.03249 0.0295,-0.05893 0.0442,-0.08839 0.0147,-0.08839 0.0315,-0.176458 0.0442,-0.265165 0.0278,-0.194385 0,-0.421344 0,-0.618718 v -1.414214 c -0.0526,-0.433378 -0.33421,-0.665555 -0.48618,-1.060666 -0.0159,-0.04125 0.0164,-0.09155 0,-0.132582 -0.0441,-0.110274 -0.12366,-0.20313 -0.17677,-0.30936 -0.13177,-0.263538 -0.20569,-0.563224 -0.30936,-0.839689 -0.0583,-0.155503 -0.15519,-0.293931 -0.22097,-0.441942 -0.11352,-0.255418 -0.19036,-0.526183 -0.26517,-0.795495 -0.0363,-0.130862 -0.0692,-0.263296 -0.0884,-0.397747 -0.10606,-0.742462 0.0818,0.262955 0,-0.30936 -0.0442,-0.265165 -0.0884,-0.53033 -0.13258,-0.795495 -0.0147,-0.04419 -0.0359,-0.08675 -0.0442,-0.132582 -0.11028,-0.169009 -0.015,-0.355354 -0.0442,-0.53033 -0.0379,-0.227353 -0.10705,-0.357531 -0.13258,-0.574525 -0.10354,-0.880104 -0.008,-1.772213 -0.0884,-2.65165 -0.037,-0.406761 -0.13203,-0.79057 -0.17677,-1.193243 -0.0941,-0.846686 -0.23325,-1.676937 -0.35356,-2.519068 -0.0474,-0.331589 -0.17671,-0.640312 -0.22097,-0.972271 -0.0117,-0.08761 0.008,-0.17714 0,-0.265165 -0.0304,-0.334687 -0.1745,-0.654937 -0.26516,-0.972272 -0.008,-0.02833 0.0103,-0.0608 0,-0.08839 -0.0835,-0.222656 -0.19144,-0.37799 -0.30936,-0.574524 -0.008,-0.01263 0,-0.02946 0,-0.04419 -0.0147,-0.04419 -0.0163,-0.09531 -0.0442,-0.132583 -0.0198,-0.02635 -0.078,-0.01294 -0.0884,-0.04419 -0.0233,-0.06988 0.0121,-0.148316 0,-0.220971 -0.003,-0.02055 -0.0391,-0.02398 -0.0442,-0.04419 -0.0303,-0.121252 -0.0224,-0.562022 0,-0.662912 0.0736,-0.331224 0.14219,-0.331777 0.26517,-0.618719 0.0116,-0.02708 -0.011,-0.06103 0,-0.08839 0.065,-0.162532 0.18973,-0.335272 0.26516,-0.486136 0.071,-0.141912 0.0997,-0.303246 0.17678,-0.441942 0.0358,-0.06439 0.0968,-0.112389 0.13258,-0.176777 0.0385,-0.06935 0.0476,-0.152945 0.0884,-0.22097 0.19783,-0.329725 0.29101,-0.433928 0.48613,-0.707107 0.0944,-0.132124 0.12361,-0.312122 0.22098,-0.441942 0.009,-0.01178 0.0376,0.01318 0.0442,0 0.12411,-0.06772 0.009,-0.182803 0.0442,-0.265165 0.0468,-0.109165 0.14797,-0.194137 0.17678,-0.309359 0.007,-0.02858 -0.009,-0.06044 0,-0.08839 0.007,-0.01976 0.0391,-0.02398 0.0442,-0.04419 0.0143,-0.05717 -0.0186,-0.120875 0,-0.176776 0.0309,-0.09264 0.13259,-0.128448 0.13259,-0.220971 0.0615,-0.372191 0.10314,-0.736645 0.17678,-1.104867 0.009,-0.04568 0.04,-0.08619 0.0442,-0.132582 0.0239,-0.262604 0.007,-0.534274 0.0442,-0.795495 0.005,-0.03261 0.0362,-0.05643 0.0442,-0.08839 0.0821,-0.328291 0.18424,-0.648583 0.26516,-0.972271 0.0217,-0.08693 0.0206,-0.178715 0.0442,-0.265165 0.051,-0.186817 0.11816,-0.266118 0.17677,-0.441942 0.009,-0.02795 -0.0132,-0.06204 0,-0.08839 0.007,-0.01318 0.0338,0.01042 0.0442,0 0.0233,-0.02329 0.0295,-0.05893 0.0442,-0.08839 0.0295,-0.01473 0.0631,-0.02311 0.0884,-0.04419 0.16538,-0.137819 0.17967,-0.236668 0.39775,-0.309359 0.28811,-0.09604 0.60191,-0.108181 0.88388,-0.220971 0.17254,-0.06902 0.36463,-0.194152 0.53033,-0.265165 0.45329,-0.194269 0.95008,-0.243035 1.41421,-0.397748 0.21875,-0.07292 0.40588,-0.220673 0.61872,-0.309359 0.18142,-0.07559 0.38321,-0.08757 0.57453,-0.132582 0.35792,-0.08422 0.70468,-0.230254 1.06066,-0.30936 0.0875,-0.01944 0.179,-0.01958 0.26516,-0.04419 0.02,-0.0057 0.0256,-0.03488 0.0442,-0.04419 0.14016,-0.07008 0.48279,-0.209777 0.66291,-0.132583 0.079,0.03384 0.14505,0.09239 0.22097,0.132583 0.21337,0.112961 0.58911,0.258491 0.79549,0.441942 l 0.30936,0.309359 c 0.0147,0.02946 0.0236,0.06267 0.0442,0.08839 0.3286,0.410754 0.75148,0.835436 1.14905,1.193243 0.35569,0.320122 0.76639,0.589622 1.10485,0.928078 0.0667,0.0667 0.11008,0.154271 0.17678,0.22097 0.0667,0.0667 0.15427,0.110078 0.22097,0.176777 0.0376,0.03756 0.0508,0.09502 0.0884,0.132583 0.0472,0.04723 0.0884,-0.06283 0.0884,0.04419 0.45311,0.406631 0.80539,0.914418 1.14899,1.414207 0.19514,0.28384 0.17197,0.312426 0.35356,0.530331 0.13782,0.165393 0.32255,0.307056 0.44194,0.486135 0.088,0.132015 0.10582,0.300031 0.17677,0.441942 0.0692,0.138479 0.17371,0.355475 0.26517,0.486136 0.18587,0.265524 0.40204,0.519516 0.57452,0.795495 0.29462,0.471383 0.54668,1.00496 0.7955,1.502602 0.11428,0.228556 0.0403,0.182904 0.17678,0.353553 0.17556,0.219462 0.26303,0.464614 0.39774,0.707107 0.13752,0.247534 0.35869,0.580936 0.53033,0.795495 0.0391,0.0488 0.10043,0.07899 0.13259,0.132583 0.0152,0.02526 -0.0104,0.0608 0,0.08839 0.0236,0.06306 0.20982,0.422885 0.26516,0.486136 0.21231,0.242638 0.14214,0.06911 0.39775,0.397748 0.0745,0.09576 0.20092,0.246483 0.26516,0.353553 0.024,0.03995 0.0151,0.09621 0.0442,0.132583 0.0332,0.04147 0.095,0.05083 0.13258,0.08839 0.21978,0.219778 0.39916,0.531271 0.66291,0.707107 0.26981,0.17987 0.62263,0.346488 0.92808,0.441942 0.0855,0.02673 0.18016,0.01586 0.26517,0.04419 0.0504,0.0168 0.0858,0.06321 0.13258,0.08839 0.14501,0.07808 0.2924,0.151951 0.44194,0.220971 0.26651,0.123002 0.55651,0.187934 0.83969,0.265165 0.86719,0.236506 2.16411,0.340884 3.0494,0.132582 0.1646,0.0419 0.22572,-0.144819 0.35355,-0.176776 0.25599,-0.064 0.53626,-0.03284 0.7955,-0.08839 0.10486,-0.02247 0.20336,-0.07208 0.30936,-0.08839 0.45078,-0.06935 0.0846,0.07627 0.48613,-0.04419 0.92727,-0.27818 -0.38573,0.08438 0.39775,-0.176777 0.028,-0.0093 0.0598,0.0071 0.0884,0 0.0439,-0.01098 0.56653,-0.212977 0.61872,-0.265165 0.65135,-0.651358 0.48613,-2.097313 0.48613,-2.916815 0,-0.480195 -0.0853,-0.818119 0.17678,-1.237437 0.0589,-0.08839 0.11785,-0.176777 0.17677,-0.265165 0.0442,-0.04419 0.0963,-0.08172 0.13259,-0.132583 0.0383,-0.05361 0.0472,-0.125332 0.0884,-0.176776 0.0206,-0.02572 0.0673,-0.01889 0.0884,-0.0442 0.18066,-0.216782 0.28642,-0.518014 0.44195,-0.751301 0.0231,-0.03467 0.0682,-0.05196 0.0884,-0.08839 0.0545,-0.09807 0.0761,-0.212451 0.13259,-0.309359 0.0475,-0.08148 0.12824,-0.140086 0.17677,-0.220971 0.0737,-0.147314 0.14732,-0.294628 0.22097,-0.441942 0.0295,-0.02946 0.067,-0.05266 0.0884,-0.08839 0.18885,-0.314739 0.38149,-0.711817 0.48614,-1.06066 0.0216,-0.07195 0.0204,-0.14971 0.0442,-0.220971 0.0417,-0.125 0.13051,-0.230181 0.17678,-0.353553 0.0213,-0.05687 0.0129,-0.124694 0.0442,-0.176777 0.0592,-0.09866 0.1592,-0.168097 0.22097,-0.265165 0.10317,-0.162115 0.15078,-0.370185 0.26517,-0.53033 0.0363,-0.05086 0.10157,-0.07832 0.13258,-0.132583 0.0301,-0.05274 0.017,-0.12245 0.0442,-0.176777 0.13076,-0.261536 0.40057,-0.439256 0.57452,-0.662912 0.11865,-0.15255 0.19992,-0.354454 0.35355,-0.486136 0.05,-0.04287 0.12676,-0.04551 0.17678,-0.08839 0.0559,-0.04794 0.0841,-0.121345 0.13258,-0.176777 0.13719,-0.156787 0.28623,-0.303533 0.44194,-0.441942 0.1344,-0.119465 0.30277,-0.195491 0.44195,-0.309359 0.32403,-0.265116 0.54274,-0.586935 0.83969,-0.883884 0.0521,-0.05208 0.12469,-0.0805 0.17677,-0.132582 0.0521,-0.05208 0.0805,-0.124693 0.13258,-0.176777 0.0521,-0.05208 0.12086,-0.08465 0.17678,-0.132582 0.12355,0.01333 0.12167,-0.165862 0.17678,-0.220971 0.0376,-0.03756 0.095,-0.05083 0.13258,-0.08839 0.0667,-0.0667 0.11008,-0.154272 0.17678,-0.220971 0.24867,-0.248677 0.57538,-0.383777 0.83969,-0.618719 0.0246,-0.02188 0.0295,-0.05893 0.0442,-0.08839 0.0589,-0.05893 0.11011,-0.126777 0.17678,-0.176777 0.0527,-0.03953 0.12719,-0.045 0.17677,-0.08839 0.17999,-0.15749 0.19507,-0.371844 0.35356,-0.53033 0.0233,-0.02329 0.0651,-0.0209 0.0884,-0.04419 0.0375,-0.03756 0.0508,-0.09502 0.0884,-0.132583 0.0104,-0.01042 0.0338,0.01042 0.0442,0 0.0233,-0.02329 0.0209,-0.0651 0.0442,-0.08839 0.0884,-0.08839 0.26517,-0.08839 0.35356,-0.176777 0.0625,-0.06245 0.0893,-0.177237 0.17677,-0.220971 0.0264,-0.01318 0.0604,0.0093 0.0884,0 0.5577,-0.185899 -0.18824,-0.0076 0.35355,-0.132582 0.13234,-0.03054 0.26413,-0.06409 0.39775,-0.08839 0.029,-0.0053 0.0608,0.01035 0.0884,0 0.20393,-0.07647 0.32142,-0.150663 0.53033,-0.176776 0.37699,-0.04712 0.77261,0.05019 1.14905,0 0.14891,-0.01986 0.29303,-0.06853 0.44194,-0.08839 0.34964,-0.04662 0.81886,0 1.14905,0 h 1.37002 c 0.16199,-0.02946 0.32233,-0.07019 0.48597,-0.08837 0.4568,-0.05076 0.95632,0 1.41422,0 h 3.22617 c 0.54172,0 1.0939,0.02706 1.63519,0 0.428,-0.0214 0.48099,-0.05482 0.88388,-0.08839 0.57267,-0.04772 1.14934,0.02336 1.72357,-0.04419 0.29589,-0.03481 0.58654,-0.113998 0.88389,-0.132582 0.4835,-0.03022 0.97667,0.02463 1.4584,-0.04419 0.78183,-0.11169 1.57595,-0.294549 2.3423,-0.486136 0.31393,-0.07848 0.57986,-0.218152 0.88388,-0.309359 0.42782,-0.128347 0.88962,-0.104076 1.32582,-0.176777 0.0325,-0.0054 0.0556,-0.04056 0.0884,-0.04419 0.2584,-0.02871 0.53873,0.0025 0.7955,-0.04419 0.16525,-0.03005 0.31986,-0.108829 0.48613,-0.132583 0.2684,-0.03834 -0.0135,0.06341 0.30936,-0.04419 0.11442,-0.03814 0.15116,-0.11163 0.26517,-0.176777 0.16034,-0.09162 0.36423,-0.137923 0.53033,-0.220971 0.0768,-0.03842 0.14227,-0.09815 0.22097,-0.132582 0.31844,-0.139317 0.7245,-0.237565 1.01647,-0.441942 0.0942,-0.06598 0.17434,-0.150333 0.26516,-0.220971 0.17508,-0.136176 0.15898,-0.07771 0.39775,-0.220971 0.31081,-0.186486 0.61094,-0.393302 0.92808,-0.574524 0.0404,-0.02311 0.0909,-0.02336 0.13258,-0.04419 0.33584,0.13612 0.31751,-0.217384 0.48613,-0.309359 0.12738,-0.06948 0.26798,-0.111892 0.39775,-0.176777 0.21205,-0.106023 0.38627,-0.263279 0.57453,-0.397748 0.30471,-0.217651 0.15859,-0.04732 0.48613,-0.309359 0.0651,-0.05206 0.11276,-0.123428 0.17678,-0.176777 0.15769,-0.131406 0.53994,-0.338567 0.66291,-0.486135 0.0422,-0.05061 0.0462,-0.126166 0.0884,-0.176777 0.034,-0.0408 0.0986,-0.04759 0.13258,-0.08839 0.0422,-0.05061 0.0535,-0.120909 0.0884,-0.176776 0.05,-0.08007 0.17422,-0.215866 0.22097,-0.309359 0.0208,-0.04167 0.0216,-0.09186 0.0442,-0.132583 0.17274,-0.31094 0.38567,-0.602613 0.53033,-0.928078 0.0564,-0.12692 0.081,-0.268748 0.13258,-0.397747 0.0876,-0.219129 0.23472,-0.370819 0.35355,-0.5745244 0.04,-0.068524 0.0529,-0.1500151 0.0884,-0.2209709 0.16862,-0.3372382 0.44807,-0.6272924 0.66291,-0.9280776 0.0775,-0.1085396 0.13588,-0.247184 0.22097,-0.3535534 0.026,-0.032536 0.0663,-0.053055 0.0884,-0.088388 0.15576,-0.2492058 0.26729,-0.534583 0.39775,-0.7954951 0.16133,-0.3226581 0.36188,-0.6562053 0.44194,-1.016466 0.12802,-0.5760783 0.0884,-1.1811575 0.0884,-1.767767 0,-0.2740577 0.0142,-0.5256706 0.0442,-0.7954951 0.0441,-0.3968302 0,-0.8373285 0,-1.2374368 0,-0.1534504 0.0529,-0.68093 0,-0.8396894 -0.007,-0.019764 -0.0295,-0.029463 -0.0442,-0.044194 -0.0147,-0.044194 -0.0365,-0.086632 -0.0442,-0.1325825 -0.0165,-0.09881 0.0196,-0.2111433 0,-0.3093593 -0.0129,-0.064601 -0.0676,-0.1142767 -0.0884,-0.1767767 -0.0186,-0.055902 0.0115,-0.11899538 0,-0.17677665 -0.006,-0.0323007 -0.0338,-0.0571384 -0.0442,-0.0883884 -0.0476,-0.14271349 0.0329,-0.54157559 -0.152,-0.59506418 L 0.01294418,0.04229854 0.65625,204.28125 6,204.0625 c 0.6186124,0 1.1931361,0.0183 1.8125,0.0625 0.038043,0.003 0.173913,-0.005 0.1875,0 0.063107,0.0252 0.221498,0.1693 0.3125,0.1875 0.3049436,0.061 0.5253292,0.0388 0.8125,0.125 0.2149188,0.0645 0.4092514,0.18836 0.625,0.25 0.333711,0.0953 -0.1403628,-0.16393 0.3125,0.0625 0.02635,0.0132 0.04167,0.0417 0.0625,0.0625 0.08333,0.0417 0.161612,0.0955 0.25,0.125 0.03953,0.0132 0.08547,-0.0132 0.125,0 0.132582,0.0442 0.239418,0.1536 0.375,0.1875 0.06063,0.0152 0.135497,-0.0347 0.1875,0 0.266912,0.17794 0.498041,0.42343 0.75,0.625 0.285083,0.22807 0.963172,0.49899 1.3125,0.5625 0.597172,0.10858 0.358564,0.0244 1.0625,0.125 0.297154,0.0425 0.569995,0.1875 0.875,0.1875 0.248806,0 2.056001,-0.0647 2.25,0 0.174333,0.0581 0.3621,0.1999 0.5625,0.25 0.0625,0.0156 0.125,-0.0312 0.1875,0 0.0527,0.0264 0.07447,0.0947 0.125,0.125 0.05649,0.0339 0.128574,0.033 0.1875,0.0625 0.228539,0.11427 0.46804,0.31209 0.6875,0.4375 0.12317,0.0704 0.473366,0.1493 0.5625,0.1875 0.185946,0.0797 0.274789,0.14153 0.4375,0.25 0.185341,0.12356 1.619117,0.45537 1.8125,0.5 0.388912,0.0898 0.795444,0.0858 1.1875,0.125 0.498088,0.0498 1.002329,0.18779 1.5,0.25 0.409893,0.0512 0.839094,0.0214 1.25,0.0625 0.06555,0.007 0.121847,0.057 0.1875,0.0625 0.269898,0.0225 0.542779,-0.0245 0.8125,0 0.41361,0.0376 0.768931,0.14945 1.1875,0.1875 0.269721,0.0245 0.541946,-0.0123 0.8125,0 0.229874,0.0104 0.457898,0.0472 0.6875,0.0625 0.393228,0.0262 0.793097,0 1.1875,0 H 33.375 42 c 0.347155,-0.0404 0.709916,-0.0896 1.0625,-0.0625 1.534057,0.118 3.084412,0.0625 4.625,0.0625 0.477194,0 1.182454,-0.0388 1.6875,0 1.050835,0.0808 1.125695,0.16081 2.1875,0.3125 0.80671,0.11524 1.625265,0.12164 2.4375,0.1875 0.314234,0.0255 0.623036,0.10254 0.9375,0.125 0.517809,0.037 1.044044,-0.0259 1.5625,0 0.209111,0.0105 0.416091,0.0486 0.625,0.0625 0.582041,0.0388 1.166667,0 1.75,0 1.497304,0 3.004215,-0.0534 4.5,0 0.292223,0.0104 0.58279,0.0517 0.875,0.0625 1.78507,0.0661 3.588793,0 5.375,0 0.875,0 1.751275,0.0472 2.625,0 0.657136,-0.0355 1.357315,-0.0572 2,-0.25 0.107459,-0.0322 0.202488,-0.103 0.3125,-0.125 0.460037,-0.092 0.800939,-0.0251 1.25,-0.0625 0.346143,-0.0289 0.662042,-0.18855 1,-0.25 0.883456,-0.16063 1.791067,-0.1875 2.6875,-0.1875 h 1.3125 c 0.1875,0 0.382214,-0.0515 0.5625,0 0.07223,0.0206 0.120314,0.0914 0.1875,0.125 0.551532,0.27577 1.115618,0.52125 1.6875,0.75 0.117187,0.0469 0.265625,0.15625 0.375,0.1875 0.228578,0.0653 0.513621,-0.0338 0.75,0 0.453972,0.0649 0.912725,0.19222 1.375,0.25 0.265714,0.0332 0.549475,0.0249 0.8125,0.0625 0.291475,-0.10577 0.495302,0.14832 0.75,0.1875 0.206938,0.0318 0.420613,0.0171 0.625,0.0625 0.173761,0.0386 0.331134,0.13121 0.5,0.1875 0.345346,0.11511 0.662446,0.24842 1,0.375 0.08043,0.0302 0.17317,0.0241 0.25,0.0625 0.09317,0.0466 0.158942,0.13691 0.25,0.1875 0.236751,0.13153 0.501065,0.20581 0.75,0.3125 0.36949,0.15835 0.73914,0.32174 1.125,0.4375 0.167047,0.0501 0.56441,0.0947 0.75,0.1875 0.128041,0.064 0.314365,0.16791 0.4375,0.25 0.09561,0.0637 0.151732,0.19104 0.25,0.25 0.230404,0.13824 0.476761,0.29701 0.6875,0.4375 0.225254,0.15017 0.332346,0.43339 0.5,0.625 0.205426,0.23477 0.899603,0.59658 1.1875,0.8125 0.153697,0.11527 0.122426,-0.004 0.25,0.1875 0.179265,0.2689 0.260202,0.6977 0.5,0.9375 0.119357,0.11936 0.32142,0.19642 0.4375,0.3125 0.07366,0.0737 0.113843,0.17634 0.1875,0.25 0.02946,0.0295 0.09554,-0.0295 0.125,0 0.08333,0.0833 -0.104167,0.0625 0.0625,0.0625 0.995992,0.12335 2.000365,0.0341 3,0.125 0.0622,0.006 0.12687,-0.0152 0.1875,0 0.0904,0.0226 0.16276,0.0923 0.25,0.125 0.52858,0.19822 0.38189,0.20081 1.1875,0.375 0.47537,0.10278 0.95776,0.17004 1.4375,0.25 0.16843,0.0281 0.71446,0.0447 0.875,0.125 0.54718,0.27359 0.13858,0.0883 1.0625,0.375 0.3587,0.11132 0.70435,0.2619 1.0625,0.375 0.0795,0.0251 0.17094,-0.0264 0.25,0 0.0988,0.0329 0.1521,0.1519 0.25,0.1875 0.27998,0.10181 0.69515,0.19919 1,0.25 0.20396,0.034 0.41927,0.0368 0.625,0.0625 0.58212,0.0728 0.0376,0.0482 0.6875,0.1875 0.36444,0.0781 1.16467,0.0947 1.4375,0.125 0.57192,0.0635 0.78147,0.18307 1.25,0.25 0.39966,0.0571 0.84337,0 1.25,0 h 3.375 c 0.47424,0 0.96541,-0.0393 1.4375,0 0.12629,0.0105 0.24856,0.0541 0.375,0.0625 0.97493,0.065 1.96226,-0.0609 2.9375,0 1.66649,0.10415 3.32981,0.33105 5,0.375 1.53908,0.0405 3.08553,0 4.625,0 0.62044,0 1.25714,-0.0475 1.875,0 0.23224,0.0179 0.4549,0.11276 0.6875,0.125 0.84928,0.0447 1.71408,-0.0628 2.5625,0 0.4176,0.0309 0.83249,0.0929 1.25,0.125 0.86918,0.0669 1.76519,-0.0987 2.625,0.0625 1.0081,0.18902 2.04478,0.31537 3.0625,0.4375 0.10342,0.0124 0.20925,-0.0138 0.3125,0 0.2106,0.0281 0.41384,0.10154 0.625,0.125 0.26918,0.0299 0.54167,0 0.8125,0 h 2.25 2.125 c 0.2554,0 0.55986,0.0505 0.8125,0 0.11743,-0.0235 0.67674,-0.26366 0.75,-0.3125 0.049,-0.0327 0.0723,-0.0986 0.60445,-0.4642 0.53215,-0.3656 0.50585,-0.3961 0.52055,-0.4108 0.20483,-0.20483 0.1875,-0.0309 0.1875,-0.1875"
         id="path240" />
    </g>
  </g>
</svg>
