<?xml version="1.0" encoding="UTF-8" standalone="no"?>
<!-- Created with Inkscape (http://www.inkscape.org/) -->

<svg
   version="1.1"
   id="svg1"
   width="87.54866"
   height="66.910004"
   viewBox="0 0 87.54866 66.910004"
   xmlns="http://www.w3.org/2000/svg"
   xmlns:svg="http://www.w3.org/2000/svg">
  <defs
     id="defs1" />
  <g
     id="layer1"
     style="display:inline"
     transform="translate(-432.68306,-102.15481)">
    <g
       id="g708"
       style="display:inline;fill:#ffffff;fill-opacity:1;stroke:none">
      <path
         style="fill:#ffffff;fill-opacity:1;stroke:none;stroke-linecap:round"
         d="m 443.26756,162.45778 2.47488,6.0988 3.57972,0.50823 7.46882,-1.12695 2.76214,-2.45278 3.35875,-1.28163 1.81196,-6.49654 2.78424,-3.18198 21.80982,-1.74567 10.71709,-7.44672 15.11441,-4.61829 0.35355,-10.03208 3.62392,-4.5078 1.10486,-11.18113 -7.38043,-4.5299 -3.51344,-0.0663 -1.30373,-2.09923 -3.24827,0.19888 -1.37002,-1.83406 -1.4584,-0.0884 -7.75608,-4.41942 -16.24136,1.01647 -12.08711,12.55114 -12.50695,5.19282 -5.67895,-2.47487 -5.39169,0.24306 -5.25911,5.81154 -2.56326,0.79549 -1.10485,7.35833 -0.68501,18.53946 5.21491,0.81759 4.39732,4.59619 z"
         id="path78" />
    </g>
  </g>
</svg>
