<?xml version="1.0" encoding="UTF-8" standalone="no"?>
<!-- Created with Inkscape (http://www.inkscape.org/) -->

<svg
   version="1.1"
   id="svg2"
   width="92.966621"
   height="69.160751"
   viewBox="0 0 92.966621 69.160751"
   xmlns="http://www.w3.org/2000/svg"
   xmlns:svg="http://www.w3.org/2000/svg">
  <defs
     id="defs6">
    <linearGradient
       id="swatch77">
      <stop
         style="stop-color:#e2c69e;stop-opacity:1;"
         offset="0"
         id="stop77" />
    </linearGradient>
  </defs>
  <g
     id="layer66"
     style="display:inline"
     transform="translate(-432.34583,-101.17722)">
    <g
       id="layer31"
       style="display:inline">
      <path
         style="fill:#969696;fill-opacity:1;stroke:none;stroke-opacity:1"
         d="m 445.25,168.375 c 0.97421,0.78864 1.61882,0.91326 2.75,1.3125 0.53186,0.18771 1.00864,0.29588 1.5625,0.375 0.39771,0.0568 0.79069,0.21032 1.1875,0.25 0.93282,0.0933 1.90076,-0.0735 2.75,-0.4375 0.33662,-0.14427 0.71801,-0.32751 1,-0.5625 0.22466,-0.18722 0.43255,-0.41682 0.6875,-0.5625 0.12134,-0.0693 0.25649,-0.11343 0.375,-0.1875 0.05,-0.0312 0.0723,-0.0986 0.125,-0.125 0.15921,-0.0796 0.33473,-0.12139 0.5,-0.1875 0.42385,-0.16954 0.82519,-0.39258 1.25,-0.5625 0.2982,-0.11928 0.54001,-0.33651 0.8125,-0.5 0.11984,-0.0719 0.26889,-0.0966 0.375,-0.1875 0.31934,-0.27372 0.6162,-0.6831 1,-0.875 0.57611,-0.28806 -0.35426,0.32091 0.4375,-0.3125 0.0163,-0.013 0.0478,0.0147 0.0625,0 0.0329,-0.0329 0.0296,-0.0921 0.0625,-0.125 0.0329,-0.0329 0.0877,-0.0345 0.125,-0.0625 0.28611,-0.21458 0.54082,-0.51713 0.8125,-0.75 0.0447,-0.0384 0.0723,-0.0986 0.125,-0.125 0.11785,-0.0589 0.25266,-0.0761 0.375,-0.125 0.27328,-0.10931 0.48825,-0.30663 0.75,-0.4375 0.0589,-0.0295 0.13268,-0.026 0.1875,-0.0625 0.13538,-0.0903 0.23547,-0.22878 0.375,-0.3125 0.0737,-0.0442 0.17317,-0.0241 0.25,-0.0625 0.086,-0.043 0.8153,-0.60791 0.875,-0.6875 0.025,-0.0333 -0.0132,-0.0855 0,-0.125 0.009,-0.028 0.0417,-0.0417 0.0625,-0.0625 0.0417,-0.0417 0.10767,-0.0687 0.125,-0.125 0.0685,-0.22262 0.065,-0.46244 0.125,-0.6875 0.024,-0.09 0.10048,-0.16011 0.125,-0.25 0.0388,-0.14212 0.0336,-0.29305 0.0625,-0.4375 0.07,-0.35023 0.23232,-0.62869 0.25,-1 0.0394,-0.82731 0,-1.67072 0,-2.5 0,-0.47791 -0.0768,-1.55955 0.1875,-2 0.0107,-0.0179 0.0478,0.0147 0.0625,0 0.0329,-0.0329 0.0417,-0.0833 0.0625,-0.125 0.0417,-0.0208 0.0877,-0.0345 0.125,-0.0625 0.27778,-0.20833 -0.0521,-0.0521 0.3125,-0.3125 0.5025,-0.35893 1.23414,-0.43398 1.8125,-0.5625 0.27967,0.009 0.49322,-0.19074 0.75,-0.25 1.43817,-0.33189 0.006,0.0349 0.6875,-0.0625 1.67726,-0.23961 -0.20023,-0.008 1.25,-0.25 0.62017,-0.10336 1.25226,-0.15659 1.875,-0.25 0.88766,-0.13315 1.79217,-0.31105 2.6875,-0.375 1.00501,-0.0718 2.05304,0 3.0625,0 h 7.4375 c 0.375,0 0.7551,0.0616 1.125,0 0.37892,-0.0632 0.74276,-0.21178 1.125,-0.25 0.66141,-0.0661 0.14928,0.0559 0.8125,-0.125 0.0853,-0.0233 0.5,-0.03 0.55003,-0.099 -0.0394,-0.99092 0.61526,-1.48311 1.19908,-2.1837 0.44338,-0.53206 0.97428,-0.96137 1.5026,-1.41422 0.23369,-0.2003 0.29788,-0.36044 0.53033,-0.61871 0.26063,-0.2896 1.00922,-0.92567 1.41422,-1.06066 0.72304,-0.24102 1.47122,-0.48557 2.2097,-0.70711 0.45384,-0.13615 1.00857,-0.17151 1.41422,-0.44194 0.10742,-0.0716 0.73451,-0.43886 0.79549,-0.53033 0.0327,-0.049 -0.0186,-0.12088 0,-0.17678 0.0552,-0.1656 0.5023,-0.76746 0.61872,-0.88388 0.15023,-0.15023 0.36036,-0.22608 0.53033,-0.35356 0.54326,-0.40744 1.079,-0.63873 1.67938,-0.97227 0.35479,-0.1971 0.69842,-0.4376 1.06066,-0.61872 0.0833,-0.0417 0.18527,-0.0404 0.26517,-0.0884 0.0715,-0.0429 0.10743,-0.13055 0.17677,-0.17677 0.0735,-0.049 0.18131,0.028 0.26517,0 0.125,-0.0417 0.24814,-0.0977 0.35355,-0.17678 0.0236,-0.0177 -0.0283,-0.0803 0,-0.0884 0.77388,-0.2211 0.43237,0.0382 1.14905,-0.17677 0.1262,-0.0379 0.22686,-0.14058 0.35355,-0.17678 0.24366,-0.0696 1.13105,-0.14531 1.41422,-0.17678 0.70807,-0.0787 -0.37446,0.2224 0.97227,-0.0884 0.1546,-0.0357 0.28636,-0.14566 0.44194,-0.17677 0.0663,-0.0133 0.68943,0.0106 0.79549,0 0.17833,-0.0178 0.3525,-0.0662 0.53033,-0.0884 0.0585,-0.007 0.12262,0.0232 0.17678,0 0.48833,-0.20929 0.61747,-0.37845 1.14905,-0.53033 1.03184,-0.29481 2.13765,-0.35764 3.18198,-0.61872 0.1323,-0.0331 0.34689,-0.21764 0.44194,-0.26516 0.16888,-0.0844 0.51913,0.0418 0.70711,0 0.38553,-0.0857 0.60144,-0.26517 1.01532,-0.43792 0.043,-0.39131 0.0919,-0.72745 0.043,-0.92274 -0.0143,-0.0572 -0.1064,-0.0691 -0.125,-0.125 -0.15473,-0.46419 0,-2.40248 0,-3 0,-0.29599 -0.0951,-0.83984 0,-1.125 0.0186,-0.0559 0.0987,-0.0723 0.125,-0.125 0.104,-0.20808 0.0373,-0.86181 0.125,-1.125 0.2157,-0.64723 0.0767,0.2895 0.25,-0.75 0.0205,-0.1233 -0.0395,-0.25641 0,-0.375 0.0613,-0.18378 0.3365,-0.34599 0.375,-0.5 0.28581,-1.14325 -0.3408,0.4145 0.125,-0.75 0.12471,-0.31178 0.23388,-0.71776 0.375,-1 0.0263,-0.0527 0.1107,-0.0678 0.125,-0.125 0.0303,-0.12127 -0.0303,-0.25373 0,-0.375 0.0558,-0.22329 0.4597,-0.96401 0.5,-1.125 0.14436,-0.57746 -0.18761,-1.31216 0,-1.875 0.15179,-0.45537 0.3022,-0.43811 0.375,-0.875 0.0784,-0.47043 -0.14948,-1.05157 0,-1.5 0.11141,-0.33424 0.26359,-0.66576 0.375,-1 0.12598,-0.37794 0.0264,-0.91455 0.25,-1.25 0.0231,-0.0347 0.1095,0.0387 0.125,0 0.56598,-1.41496 -0.12003,-0.0199 0.125,-1 0.0143,-0.0572 0.0987,-0.0723 0.125,-0.125 0.22587,-0.45174 0.30952,-1.02381 0.5,-1.5 0.10381,-0.25952 0.78798,-0.16223 0.375,-0.75 0.0672,-0.20156 -0.28712,-0.47726 0.125,-0.625 0.14754,-0.36885 0.36482,-0.84447 0.5,-1.25 0.10325,-0.30974 0.0725,-0.68937 0.25,-1 0.10336,-0.18088 0.25,-0.33333 0.1875,-0.5 -0.1875,-0.13 -0.1238,-0.002 -0.0625,-0.125 0.16561,-0.3312 0.10165,-0.25 0.5625,-0.25 h 4.5 c 0,-0.17325 -0.75171,-1.2139 -0.875,-1.3125 -0.0325,-0.026 -0.0855,0.0132 -0.125,0 -0.12547,-0.0418 -0.4769,-0.2894 -0.5625,-0.375 -0.0329,-0.0329 -0.0296,-0.0921 -0.0625,-0.125 -0.0147,-0.0147 -0.0452,0.0116 -0.0625,0 -0.111,-0.074 -0.20833,-0.1667 -0.3125,-0.25 -0.20833,-0.125 -0.41667,-0.25 -0.625,-0.375 -1.51436,-0.97352 -3.25345,-1.54709 -4.7268,-2.59086 -4.50338,-2.34719 -5.88491,0.0608 -6.8357,-0.34664 -0.48348,-0.2072 -0.94083,-0.71055 -1.375,-1 -0.32119,-0.21412 -1.42274,-0.6941 -1.875,-0.875 -0.0705,-0.0282 -0.4595,-0.0845 -0.5,-0.125 -0.10623,-0.10623 -0.13269,-0.2811 -0.25,-0.375 -0.55314,-0.4425 -2.18813,-0.4313 -2.875,-0.5 -0.23347,-0.0233 -0.5307,0.0731 -0.75,0 -0.28064,-0.0935 -0.33974,-0.23237 -0.625,-0.375 -0.77396,-0.38698 -1.79558,-0.39632 -2.625,-0.5 -0.41618,-0.052 -0.29053,-0.13851 -0.625,-0.25 -0.32596,-0.10865 -0.69268,-0.0963 -1,-0.25 -0.13437,-0.0672 -0.23552,-0.1942 -0.375,-0.25 -0.0774,-0.031 -0.1755,0.0373 -0.25,0 -0.10541,-0.0527 -0.14459,-0.1973 -0.25,-0.25 -0.24321,-0.122 -0.60521,-0.071 -0.875,-0.125 -1.05246,-0.2105 -0.004,-0.002 -0.5,-0.25 -0.16447,-0.0822 -0.58538,0.0299 -0.75,0 -0.33333,-0.0833 -0.66667,-0.1667 -1,-0.25 -0.0833,0 -0.1678,0.0137 -0.25,0 -0.16667,-0.0417 -0.33333,-0.0833 -0.5,-0.125 -0.0417,-0.0833 -0.0385,-0.2154 -0.125,-0.25 -0.15475,-0.0619 -0.3356,0.0274 -0.5,0 -0.35327,-0.0589 -1.65972,-0.77315 -2,-1 -0.14802,-0.0987 -0.33779,-0.3209 -0.5,-0.375 -0.0791,-0.0263 -0.1755,0.0373 -0.25,0 -0.0373,-0.0186 0.0186,-0.0877 0,-0.125 -0.2601,-0.52022 0.009,0.13363 -0.25,-0.125 -0.17542,-0.17542 -0.0873,-0.375 -0.8125,-0.6875 -1.00434,-0.1875 -1.9084,-0.36387 -2.4375,-0.1875 -1.81086,0.60362 0.39415,-0.0721 -0.75,0.5 -0.38339,0.19169 -1.06557,0.35519 -1.5,0.5 -0.24639,0.0821 -1.06711,-0.1829 -1.25,0 -0.0589,0.0589 0.0745,0.2127 0,0.25 -0.14907,0.0745 -0.34526,-0.0619 -0.5,0 -0.27897,0.11159 -0.48126,0.36563 -0.75,0.5 -0.46667,0.23333 -1.28333,-0.23333 -1.75,0 -0.43841,0.2192 -0.79896,0.77448 -1.25,1 -0.47141,0.2357 -1.06147,0.20765 -1.5,0.5 -0.0693,0.0462 0.0589,0.1911 0,0.25 -0.11785,0.11785 -0.38215,-0.11785 -0.5,0 -0.15359,0.15359 -0.16516,0.58258 -0.5,0.75 -0.15152,0.0758 -0.64524,0.14524 -0.75,0.25 -0.44831,0.44831 -7.3e-4,0.70029 -0.75,1 -0.23212,0.0928 -0.55,-0.15 -0.75,0 -0.61464,0.46098 -0.86074,1.32383 -1.5,1.75 -0.42541,0.28361 -0.82459,0.21639 -1.25,0.5 -0.0693,0.0462 0.0589,0.1911 0,0.25 -0.13176,0.13176 -0.36824,0.11824 -0.5,0.25 -0.13176,0.13176 -0.095,0.39664 -0.25,0.5 -0.20801,0.13867 -0.61133,-0.20801 -0.75,0 -0.14618,0.21926 -0.10383,0.53074 -0.25,0.75 -0.13868,0.20801 -0.52639,-0.1118 -0.75,0 -0.0745,0.0373 0.0589,0.1911 0,0.25 -0.5879,0.58789 -1.46192,0.78256 -2,1.5 -0.44718,0.59623 -1.16597,1.33194 -1.5,2 -0.29416,0.58832 -0.71982,1.96982 -1.25,2.5 -0.39417,0.39417 -1.11645,0.61645 -1.5,1 -0.13176,0.13176 -0.095,0.39664 -0.25,0.5 -0.13868,0.0924 -0.35093,-0.0745 -0.5,0 -0.21082,0.10541 -0.28918,0.39459 -0.5,0.5 -0.45357,0.22678 -2.58973,0 -3.25,0 -0.88227,0 -4.28387,0.23307 -4.75,0 -0.53676,-0.2684 -0.61567,-0.12313 -1.25,-0.25 -0.4298,-0.086 -1.37866,-0.31433 -1.75,-0.5 -0.10541,-0.0527 -0.1382,-0.2127 -0.25,-0.25 -0.31623,-0.10541 -0.67662,0.0808 -1,0 -0.18078,-0.0452 -0.31923,-0.2048 -0.5,-0.25 -0.89655,-0.22414 -2.0608,0 -3,0 -1.56892,0 -3.45327,-0.30935 -5,0 -0.3963,0.0793 -2.4344,1.61884 -2.5,1.75 -0.0373,0.0745 0,0.1667 0,0.25 -0.0833,0.16667 -0.1667,0.33333 -0.25,0.5 -0.28284,0.37712 -0.69822,0.63786 -1,1 -1.25061,1.50074 -2.76348,3.30391 -3.25,5.25 -0.0606,0.24254 0.0928,0.51788 0,0.75 -0.13841,0.34602 -0.38215,0.64645 -0.5,1 -0.22458,0.67374 0.17267,1.5593 0,2.25 -0.17034,0.68136 -0.88585,1.20789 -0.3968,1.95283 0.59086,-0.0472 0.42706,0.29188 0.52996,0.39478 0.0209,0.0208 0.0676,-0.0208 0.0884,0 0.0417,0.0417 -0.0417,0.13507 0,0.17677 0.0208,0.0208 0.0794,-0.028 0.0884,0 0.0884,0.26517 -0.0884,0.61872 0,0.88389 0.0659,0.19762 0.0884,0.31277 0.0884,0.53033 0,1.08857 0.0762,2.15782 -0.26517,3.18198 -0.17885,0.53654 -0.66682,1.11659 -0.79549,1.5026 -0.0373,0.1118 0.0414,0.2432 0,0.35355 -0.0694,0.18506 -0.19577,0.34527 -0.26517,0.53033 -0.0854,0.22693 0.0458,0.26204 -0.0884,0.53033 -0.0187,0.0373 -0.0783,0.048 -0.0884,0.0884 -0.10365,0.41457 0,1.81846 0,2.2981 v 4.15425 c 0,0.49413 -0.11217,1.58427 0,2.03293 0.0101,0.0404 0.0752,0.0489 0.0884,0.0884 0.0414,0.12405 -0.0582,0.32554 0,0.44194 0.0475,0.095 0.14318,0.16439 0.17678,0.26517 0.028,0.0839 -0.0214,0.17946 0,0.26516 0.069,0.27605 0.63031,0.45353 0.70711,0.53033 0.0208,0.0209 -0.0208,0.0676 0,0.0884 0.0514,0.0514 0.27925,0.0513 0.35355,0.0884 0.12013,0.0601 0.23342,0.20506 0.35355,0.26516 0.30472,0.15236 1.23366,0.65331 1.50261,0.70711 0.20223,0.0404 0.41648,-0.0404 0.61871,0 0.0488,0.01 0.48354,0.23137 0.61872,0.26517 0.2394,0.0598 0.37896,0.0169 0.61872,0.17677 0.0402,0.0268 0.13428,0.31096 0.17678,0.35356 0.0466,0.0466 0.13017,0.0418 0.17677,0.0884 0.10771,0.10771 0.15747,0.33424 0.26517,0.44195 0.10417,0.10416 0.24939,0.16099 0.35355,0.26516 0.0932,0.0932 -0.35227,0.42965 0.17678,0.35355 0.0728,0.0582 0.18767,0.0367 0.26517,0.0884 0.23638,0.1576 0.23769,0.39417 0.44194,0.53033 0.36753,0.24502 0.71662,0.5088 1.06066,0.7955 0.28502,0.23752 0.499,0.57313 0.79549,0.79549 0.0236,0.0177 0.0721,-0.0245 0.0884,0 0.0517,0.0775 0.0225,0.19927 0.0884,0.26517 0.16287,0.16287 0.26275,-0.005 0.35355,0.17677 0.0417,0.0833 0.0325,0.19067 0.0884,0.26517 0.0395,0.0527 0.14288,0.0319 0.17678,0.0884 0.0625,0.10417 0.0589,0.2357 0.0884,0.35355 0,0.0589 -0.0264,0.12408 0,0.17678 0.0659,0.13176 0.19926,0.22179 0.26516,0.35355 0.0709,0.14185 -0.0592,0.38246 0,0.53033 0.0394,0.0986 0.12928,0.17017 0.17678,0.26517 0.0267,0.0534 0.038,1.81903 0.0884,2.12132 0.0555,0.33325 0.11246,0.22492 0.26516,0.53033 0.0527,0.10541 -0.0194,0.2373 0,0.35355 0.0746,0.44765 0.29665,0.87056 0.35355,1.32583 0.0146,0.11694 -0.0247,0.23831 0,0.35355 0.31331,1.46211 0.21717,0.31686 0.61872,1.85615 0.17277,0.66213 0.20877,1.44434 0.45239,2.17515 0.25452,0.59921 0.57386,0.83407 0.99972,1.17881 z"
         id="path215" />
    </g>
  </g>
</svg>
