<?xml version="1.0" encoding="UTF-8" standalone="no"?>
<!-- Created with Inkscape (http://www.inkscape.org/) -->

<svg
   version="1.1"
   id="svg1"
   width="85.781349"
   height="88.84375"
   viewBox="0 0 85.781349 88.84375"
   xmlns="http://www.w3.org/2000/svg"
   xmlns:svg="http://www.w3.org/2000/svg">
  <defs
     id="defs1" />
  <g
     id="layer1"
     style="display:inline"
     transform="translate(-490.49995,-41.625)">
    <g
       id="layer80"
       style="display:inline;fill:#ffffff;fill-opacity:1;stroke:none">
      <path
         style="fill:#ffffff;fill-opacity:1;stroke:none;stroke-linecap:round"
         d="m 490.5625,102.5625 3.65625,-0.21875 7.5,4.21875 1.75,0.125 1.3125,1.71875 3.0625,0.0625 1.71875,1.875 3.59375,0.25 7.46875,4.65625 13.71875,2.21875 7.15625,4.9375 4.625,7.84375 15.03125,0.21875 -0.0312,-2.1875 6.4375,-6.0625 0.90625,-25.875 1.6875,-5.15625 3,-2.71875 3.125,-7.53125 -0.625,-9.0625 L 567.9375,63.5 563.59375,61.53125 561.125,58.84375 554.15625,55.75 551.5,55 l -2.15625,-2.875 -1.625,-3.65625 -3.78125,-1.28125 -15.125,-1.25 -2.125,-4.15625 -1.21875,-0.15625 -7.84375,6.03125 -9.09375,0.78125 -3.8125,2.25 -1,3.15625 -11.4375,10.65625 -0.5,3.9375 1.5,6.34375 0.0312,6.09375 -2.8125,5 z"
         id="path79" />
    </g>
  </g>
</svg>
