<?xml version="1.0" encoding="UTF-8" standalone="no"?>
<!-- Created with Inkscape (http://www.inkscape.org/) -->

<svg
   version="1.1"
   id="svg2"
   width="86.512276"
   height="89.260208"
   viewBox="0 0 86.512276 89.260208"
   xmlns="http://www.w3.org/2000/svg"
   xmlns:svg="http://www.w3.org/2000/svg">
  <defs
     id="defs6">
    <linearGradient
       id="swatch77">
      <stop
         style="stop-color:#e2c69e;stop-opacity:1;"
         offset="0"
         id="stop77" />
    </linearGradient>
  </defs>
  <g
     id="layer66"
     style="display:inline"
     transform="translate(-489.875,-41.527232)">
    <g
       id="layer45"
       style="display:inline">
      <path
         style="display:inline;fill:#969696;fill-opacity:1;stroke:none;stroke-opacity:1"
         d="m 568.125,115.5 c -0.38414,1.92071 -1.2194,3.64289 -1.75,5.5 -0.17229,0.60301 -0.0484,1.26241 -0.125,1.875 -0.0945,0.7562 -0.28769,1.45038 -0.625,2.125 -0.18959,0.37918 -0.5072,0.55126 -0.75,0.875 -0.26851,0.35802 -1.37659,1.46563 -2.18018,2.69384 -0.80359,1.22846 -2.81623,1.52 -3.30148,2.07139 -0.48524,0.5514 -8.79139,-0.64734 -10.204,-0.32484 -1.41261,0.3225 -1.93934,0.30936 -1.93934,0.30936 -0.33522,0.0535 -0.79697,0.082 -1.125,0 -0.33028,-0.0826 -0.47961,-0.2398 -0.75,-0.375 -0.0373,-0.0186 -0.0955,0.0295 -0.125,0 -0.0659,-0.0659 -0.0591,-0.1841 -0.125,-0.25 -0.0295,-0.0295 -0.0903,0.0231 -0.125,0 -0.16302,-0.10868 -0.6649,-0.63656 -0.75,-0.75 -0.025,-0.0333 0.0214,-0.0893 0,-0.125 -0.10719,-0.17864 -0.27164,-0.31912 -0.375,-0.5 -0.19634,-0.34359 -0.2967,-0.78616 -0.5,-1.125 -0.0606,-0.10106 -0.1973,-0.14459 -0.25,-0.25 -0.0373,-0.0745 0.0263,-0.1709 0,-0.25 -0.0589,-0.17678 -0.1667,-0.33333 -0.25,-0.5 -0.0417,-0.0417 -0.1031,-0.0703 -0.125,-0.125 -0.0638,-0.15951 -0.0398,-0.35084 -0.125,-0.5 -0.17468,-0.30569 -0.55914,-0.56962 -0.75,-0.875 -0.27097,-0.43355 -0.41606,-0.97428 -0.75,-1.375 -0.0597,-0.0716 -0.1841,-0.0591 -0.25,-0.125 -0.0295,-0.0295 0.0186,-0.0877 0,-0.125 -0.0791,-0.15811 -0.284,-0.22342 -0.375,-0.375 -0.0678,-0.11298 -0.0519,-0.26537 -0.125,-0.375 -0.0231,-0.0347 -0.0955,0.0295 -0.125,0 -0.14374,-0.14374 -0.1524,-0.47855 -0.25,-0.625 -0.0231,-0.0347 -0.0955,0.0295 -0.125,0 -0.53852,-0.53852 -0.57526,-0.95026 -0.875,-1.25 -0.18906,-0.18906 -0.58191,-0.37287 -0.75,-0.625 -0.0231,-0.0347 0.0295,-0.0955 0,-0.125 -0.023,-0.023 -0.352,-0.102 -0.375,-0.125 -0.0659,-0.0659 -0.0591,-0.1841 -0.125,-0.25 -0.10623,-0.10623 -0.26877,-0.14377 -0.375,-0.25 -0.0295,-0.0295 0.0347,-0.1019 0,-0.125 -0.39283,-0.26188 -0.85939,-0.31251 -1.25,-0.625 -0.59519,-0.47616 -1.2098,-0.72588 -1.875,-1.125 -0.17829,-0.10697 -0.4107,-0.3036 -0.625,-0.375 -1.16828,-0.38943 0.30232,0.33866 -1.625,-0.625 -0.48709,-0.24355 -0.89222,-0.63361 -1.375,-0.875 -0.11785,-0.0589 -0.25,-0.0833 -0.375,-0.125 -0.0833,0 -0.1755,0.0373 -0.25,0 -0.18634,-0.0932 -0.30962,-0.2904 -0.5,-0.375 -0.67959,-0.30204 -1.64477,-0.125 -2.375,-0.125 -2.50827,0 -4.66091,-2.80617 -9.1643,-5.15336 -4.50338,-2.34719 -5.88491,0.0608 -6.8357,-0.34664 -0.48348,-0.2072 -0.94083,-0.71055 -1.375,-1 -0.32119,-0.21412 -1.42274,-0.6941 -1.875,-0.875 -0.0705,-0.0282 -0.45949,-0.0845 -0.5,-0.125 -0.10623,-0.10623 -0.13269,-0.28115 -0.25,-0.375 -0.55314,-0.44251 -2.18813,-0.43131 -2.875,-0.5 -0.23347,-0.0233 -0.5307,0.0731 -0.75,0 -0.28064,-0.0935 -0.33974,-0.23237 -0.625,-0.375 -0.77396,-0.38698 -1.79558,-0.39632 -2.625,-0.5 -0.41618,-0.052 -0.29053,-0.13851 -0.625,-0.25 -0.32596,-0.10865 -0.69268,-0.0963 -1,-0.25 -0.13437,-0.0672 -0.23552,-0.19421 -0.375,-0.25 -0.0774,-0.031 -0.17547,0.0373 -0.25,0 -0.10541,-0.0527 -0.14459,-0.1973 -0.25,-0.25 -0.24321,-0.1216 -0.60521,-0.071 -0.875,-0.125 -1.05246,-0.21049 -0.004,-0.002 -0.5,-0.25 -0.16447,-0.0822 -0.58538,0.0299 -0.75,0 -0.33333,-0.0833 -0.66667,-0.16667 -1,-0.25 -0.0833,0 -0.1678,0.0137 -0.25,0 -0.16667,-0.0417 -0.33333,-0.0833 -0.5,-0.125 -0.0417,-0.0833 -0.0385,-0.2154 -0.125,-0.25 -0.15475,-0.0619 -0.3356,0.0274 -0.5,0 -0.35327,-0.0589 -1.65972,-0.77315 -2,-1 -0.14802,-0.0987 -0.33779,-0.32093 -0.5,-0.375 -0.0791,-0.0263 -0.17547,0.0373 -0.25,0 -0.0373,-0.0186 0.0186,-0.0877 0,-0.125 -0.26011,-0.52022 0.009,0.13363 -0.25,-0.125 -0.17542,-0.17542 -0.0873,-0.375 -0.375,-0.5 0.44436,-1.5065 0.25,-3.051226 0.25,-4.5 V 92 c 0,-0.701274 -0.0773,-1.429226 0,-2.125 0.0466,-0.419889 0.20451,-0.840561 0.25,-1.25 0.0276,-0.248471 -0.0354,-0.502513 0,-0.75 0.005,-0.03179 0.46768,-0.935354 0.5,-1 0.21667,-0.433351 0.40785,-1.039249 0.5,-1.5 0.0245,-0.122573 -0.0395,-0.256415 0,-0.375 0.0132,-0.03953 0.0833,0 0.125,0 0.0417,-0.08333 0.0955,-0.161612 0.125,-0.25 0.12811,-0.384347 0.2021,-0.904194 0.375,-1.25 0.1058,-0.211604 0.42715,-0.406454 0.5,-0.625 0.0263,-0.07906 0,-0.166667 0,-0.25 0.0417,-0.125 0.0731,-0.253892 0.125,-0.375 0.15246,-0.355737 0.30171,-0.508566 0.375,-0.875 0.0347,-0.173611 -0.0521,-0.46875 0,-0.625 0.0659,-0.197643 0.34075,-0.294501 0.375,-0.5 0.0788,-0.473125 0.0811,-1.26345 0,-1.75 -0.14175,-0.850482 -0.79347,-1.476424 -1.125,-2.25 -0.67666,-1.578869 -0.625,-3.293993 -0.625,-5 0,-0.440229 -0.13911,-1.082666 0,-1.5 0.66102,-1.98307 0.17982,0.280731 0.5,-1 0.2215,-0.885999 0.5295,-1.743007 0.75,-2.625 0.2226,-0.8904 -0.37831,0.633284 0.125,-0.625 0.0346,-0.08651 0.0833,-0.166667 0.125,-0.25 0.0833,-0.125 0.19082,-0.236916 0.25,-0.375 0.64496,-1.504921 -0.99701,1.120305 0.75,-1.625 0.48209,-0.757569 1.25471,-1.25471 1.875,-1.875 0.0295,-0.02946 0,-0.08333 0,-0.125 0.16667,-0.166667 0.31893,-0.349107 0.5,-0.5 0.32009,-0.266744 0.63421,-0.550478 1,-0.75 0.18652,-0.101737 0.42607,-0.0504 0.625,-0.125 0.54885,-0.205818 1.15262,-0.716572 1.625,-1 0.22716,-0.271465 0.59948,-0.217563 0.875,-0.375 0.46881,-0.267894 0.94804,-0.554782 1.375,-0.875 0.38881,-0.291608 0.99793,-0.866736 1.125,-1.375 0.0715,-0.285831 0.0156,-0.601445 0.125,-0.875 0.1218,-0.304491 0.40116,-0.70349 0.5,-1 0.0527,-0.158114 -0.0858,-0.357085 0,-0.5 0.21112,-0.351868 0.55865,-0.617312 0.75,-1 0.125,-0.25 -0.25,0 0,-0.375 0.11556,-0.173344 0.375,-0.208333 0.5,-0.375 0.27377,-0.365027 -0.0624,-0.171954 0.375,-0.5 0.60371,-0.452783 1.30151,-0.738067 2,-1 0.21625,-0.08109 0.82478,-0.474891 0.875,-0.5 0.35,-0.175 0.775,-0.2 1.125,-0.375 2.53728,-1.26864 5.31905,-2.025111 8,-3 0.45014,-0.163688 0.73332,-0.47023 1.125,-0.75 0.25248,-0.180346 0.62935,-0.252175 0.875,-0.375 0.30238,-0.151192 0.57983,-0.477417 0.875,-0.625 0.11785,-0.05893 0.27211,-0.04269 0.375,-0.125 0.164,-0.246005 0.63751,-3.071885 4.87334,-3.334221 4.23583,-0.262336 4.97238,3.370266 5.36207,3.537278 0.7835,0.335784 2.65068,1.016223 3.53554,1.237437 0.44649,0.111622 1.13135,0 1.59099,0 2.44634,0 5.28632,-0.395702 7.6014,0.53033 1.29704,0.518816 3.53473,1.899351 4.41941,3.005204 0.56448,0.705592 1.09341,1.551719 1.59099,2.298097 0.19059,0.285886 0.28738,0.640927 0.53033,0.883883 0.0417,0.04167 0.12778,-0.03269 0.17678,0 0.39191,0.261275 0.38608,0.56286 0.53033,0.707107 0.29938,0.299384 0.5845,0.05417 0.88388,0.353554 0.0417,0.04167 -0.0417,0.135106 0,0.176776 0.0277,0.02773 1.87885,1.03875 1.94455,1.06066 0.1677,0.0559 0.36035,-0.04856 0.53033,0 0.88676,0.25336 2.28417,1.318861 3.18198,1.767767 0.32059,0.160297 0.71602,0.07831 1.06066,0.176777 0.42262,0.120749 0.86555,0.381577 1.23744,0.53033 0.22557,0.09023 0.4714,0.117847 0.7071,0.176777 0.11785,0 0.24175,-0.03727 0.35356,0 0.24125,0.08042 2.26649,1.205817 2.29809,1.237437 0.0417,0.04167 -0.0417,0.135106 0,0.176776 0.0932,0.09317 0.26036,0.08361 0.35356,0.176777 0.0932,0.09317 0.0836,0.260384 0.17677,0.353554 0.58188,0.581881 1.62554,0.817084 2.2981,1.237436 0.39027,0.243918 0.64902,0.678066 1.06066,0.883884 0.53065,0.265325 1.40594,0.70159 1.94454,1.06066 1.41556,0.943704 -1.28886,-0.421408 1.06066,0.883884 0.27739,0.154106 0.61986,0.177533 0.88389,0.353553 0.10967,0.07309 0.0836,0.260383 0.17677,0.353553 0.0417,0.04167 0.13508,-0.04167 0.17678,0 0.15023,0.150232 0.20332,0.380099 0.35355,0.53033 0.0417,0.04167 0.11788,0 0.17678,0 l 0.35355,0.353554 c 0.70418,0.938907 1.51104,1.928929 2.2981,2.828427 0.5997,0.685365 1.78465,2.222591 1.94454,3.18198 0.21432,1.285878 0,3.722843 0,4.949748 0,1.251867 -0.0391,2.473449 -0.17677,3.71231 -0.0455,0.409957 0.0583,0.829104 0,1.237437 -0.0881,0.616999 -0.38445,1.184242 -0.53033,1.767767 -0.0429,0.171499 0.0657,0.366197 0,0.53033 -0.2702,0.675503 -0.59495,1.294448 -0.88389,1.944544 -0.15135,0.340557 -0.18688,0.727327 -0.35355,1.06066 -0.13176,0.263523 -0.37418,0.457263 -0.53033,0.707107 -0.13967,0.223467 -0.20038,0.492669 -0.35355,0.707107 -0.73657,1.031197 -0.29463,0.09821 -0.88389,0.883883 -0.15811,0.210819 -0.19544,0.496288 -0.35355,0.707107 -0.75976,1.013011 -1.53558,1.988521 -2.2981,3.005204 -0.26925,0.359011 -0.2814,0.864043 -0.53033,1.237437 -0.0731,0.109636 -0.28045,0.06714 -0.35355,0.176776 -1.12994,1.694908 -1.52941,5.911152 -1.23744,7.954952 0.0809,0.5665 0.45553,1.1691 0.53033,1.76777 0.21614,1.72906 -0.11658,0.95722 0.0232,3.57095 0.13976,2.61373 -0.0759,7.18782 -0.23524,7.98435 z"
         id="path193" />
    </g>
  </g>
</svg>
